# Created by Metasequoia

mtllib Skybox4.mtl

v -14585.277344 0.000000 -808.671387
v -14753.641602 0.000000 3047.934570
v -10072.566406 0.004700 -12.961040
v -10188.672852 0.004700 2648.563232
v -13918.129883 0.000000 6816.693359
v -9612.039063 0.004700 5249.465332
v -12135.673828 0.000000 10240.794922
v -8382.023438 0.004700 7612.462891
v -13424.450195 0.000000 -4490.278320
v -9271.376953 0.004700 -2553.683350
v -11350.336914 0.000000 -7745.994141
v -7839.957031 0.004700 -4800.513184
v -9527.710938 0.000000 13086.870117
v -6582.223633 0.004700 9576.491211
v -8504.262695 0.000000 -10353.959961
v -5875.928223 0.004700 -6600.312988
v -14004.864258 0.000000 -2649.476318
v -6271.994629 0.000000 15160.979492
v -4335.396973 0.004700 11007.910156
v -5080.159180 0.000000 -12136.417969
v -3512.929443 0.004700 -7830.327637
v -2590.386230 0.000000 16321.813477
v -1794.675049 0.004700 11809.099609
v -1311.398560 0.000000 -12971.924805
v -912.026855 0.004700 -8406.961914
v 1266.221069 0.000000 16490.164063
v 866.845032 0.004700 11925.207031
v 2545.209717 0.000000 -12803.562500
v 1749.491699 0.004700 -8290.856445
v 5034.973145 0.000000 15654.665039
v 3467.752197 0.004700 11348.573242
v 6226.812500 0.000000 -11642.733398
v 4290.217773 0.004700 -7489.665039
v 8459.082031 0.000000 13872.207031
v 5830.749512 0.004700 10118.556641
v 9482.531250 0.000000 -9568.622070
v 6537.048340 0.004700 -6058.247070
v 11305.158203 0.000000 11264.238281
v 7794.778320 0.004700 8318.754883
v 12090.496094 0.000000 -6722.547852
v 8336.846680 0.004700 -4094.216797
v 13379.266602 0.000000 8008.525879
v 9226.199219 0.004700 6071.927246
v 13872.956055 0.000000 -3298.446045
v 9566.862305 0.004700 -1731.219849
v 14540.097656 0.000000 4326.917480
v 10027.388672 0.004700 3531.204346
v 14708.458008 0.000000 470.313416
v 10143.496094 0.004700 869.682190
v -8090.685547 -463.352905 7537.692383
v -7700.513184 -246.775803 6997.576172
v -8163.465820 -246.368805 7318.243164
v -7571.197266 -464.166992 7194.279297
v -7561.708496 -249.104691 3053.491943
v -7840.693359 -468.824799 2580.154053
v -7842.758789 -249.104706 3005.759033
v -7309.621094 -468.824799 2728.307617
v -7356.904785 -246.794800 5987.925293
v -7514.958008 -247.964401 3595.274170
v -7287.125977 -466.544312 3546.181152
v -7097.029785 -464.205109 6059.891113
v -7087.048828 -468.309418 4679.806152
v -7328.841309 -248.847000 4726.185059
v -79792.015625 0.000000 -12306.381836
v -74443.390625 28361.105469 -11363.275391
v -80714.359375 0.000000 8818.736328
v -75303.898438 28361.105469 8345.381836
v -76137.703125 0.000000 29462.755859
v -71034.101563 28361.105469 27605.193359
v -73433.523438 0.000000 -32472.960938
v -68511.242188 28361.105469 -30177.666016
v -66373.921875 0.000000 48218.812500
v -61925.000000 28361.105469 45103.648438
v -62072.183594 0.000000 -50306.671875
v -57911.695313 28361.105469 -46815.605469
v -37371.320313 0.000000 -4826.467773
v -37803.199219 0.000000 5064.501465
v -35660.398438 0.000000 14730.187500
v -52088.402344 0.000000 63808.726563
v -48597.332031 28361.105469 59648.230469
v -34394.242188 0.000000 -14268.645508
v -46482.273438 0.000000 -64592.191406
v -43367.101563 28361.105469 -60143.261719
v -31088.855469 0.000000 23511.949219
v -29074.802734 0.000000 -22618.542969
v -34394.242188 0.000000 -14268.646484
v -24400.261719 0.000000 30811.339844
v -34254.683594 0.000000 75170.046875
v -31959.386719 28361.105469 70247.773438
v -21775.419922 0.000000 -29307.138672
v -27726.216797 0.000000 -74355.984375
v -25868.654297 28361.105469 -69252.382813
v -16050.363281 0.000000 36130.773438
v -22147.101563 0.000000 -2142.026855
v -22402.966797 0.000000 3717.108887
v -21133.687500 0.000000 9442.858398
v -12993.656250 0.000000 -33878.683594
v -18425.501953 0.000000 14644.979492
v -20383.595703 0.000000 -7735.319824
v -17232.539063 0.000000 -12681.649414
v -14088.106445 0.000000 81528.554688
v -13144.996094 28361.105469 76179.921875
v -14463.366211 0.000000 18969.070313
v -12908.444336 0.000000 -16643.783203
v -18366.189453 0.000000 -1475.349243
v -21265.347656 0.000000 -4938.673340
v -17635.103516 0.000000 -3794.072266
v -16904.021484 0.000000 -6112.797852
v -14753.641602 0.000000 3047.934570
v -13918.129883 0.000000 6816.693359
v -6608.183105 0.000000 39107.855469
v -7082.193848 0.000000 -78932.648438
v -6608.836914 28361.105469 -73522.187500
v -12135.673828 0.000000 10240.794922
v -14585.277344 0.000000 -808.671387
v -14004.865234 0.000000 -2649.476318
v -9517.035156 0.000000 22120.128906
v -13424.450195 0.000000 -4490.278320
v -7706.325195 0.000000 -19351.970703
v -9527.710938 0.000000 13086.870117
v -3327.961670 0.000000 -36021.488281
v -8504.262695 0.000000 -10353.959961
v -11350.336914 0.000000 -7745.994141
v -16904.021484 0.000000 -6112.798340
v -6271.994629 0.000000 15160.979492
v -3923.739502 0.000000 23883.632813
v -5080.159180 0.000000 -12136.417969
v -1980.571289 0.000000 -20621.255859
v -2590.386230 0.000000 16321.813477
v -1311.398560 0.000000 -12971.924805
v 7037.009277 0.000000 82450.859375
v 6563.652832 28361.105469 77040.406250
v 3282.779053 0.000000 39539.714844
v 1935.391724 0.000000 24139.496094
v 1266.221069 0.000000 16490.164063
v 2545.209717 0.000000 -12803.562500
v 6563.010254 0.000000 -35589.613281
v 3878.563232 0.000000 -20365.384766
v 6226.812500 0.000000 -11642.733398
v 14042.918945 0.000000 -78010.304688
v 13099.815430 28361.105469 -72661.679688
v 9471.855469 0.000000 -18601.880859
v 7661.140625 0.000000 22870.216797
v 5034.973145 0.000000 15654.665039
v 9482.531250 0.000000 -9568.622070
v 16005.182617 0.000000 -32612.519531
v 14418.184570 0.000000 -15450.820313
v 12948.467773 0.000000 37396.921875
v 12090.496094 0.000000 -6722.547852
v 18380.322266 0.000000 -11126.731445
v 12863.265625 0.000000 20162.033203
v 8459.082031 0.000000 13872.207031
v 21088.509766 0.000000 -5924.612793
v 13872.956055 0.000000 -3298.446045
v 24355.078125 0.000000 -27293.087891
v 14708.458008 0.000000 470.313416
v 22357.783203 0.000000 -198.858887
v 17187.357422 0.000000 16199.889648
v 11305.158203 0.000000 11264.238281
v 27681.023438 0.000000 77874.203125
v 21730.238281 0.000000 32825.378906
v 37758.011719 0.000000 -1546.256348
v 20338.408203 0.000000 11253.564453
v 13379.266602 0.000000 8008.525879
v 25823.468750 28361.105469 72770.617188
v 22101.923828 0.000000 5660.270996
v 14540.097656 0.000000 4326.917480
v 34209.500000 0.000000 -71651.804688
v 35615.218750 0.000000 -11211.944336
v 29029.625000 0.000000 26136.779297
v 31043.673828 0.000000 -19993.707031
v 66328.734375 0.000000 -44700.566406
v 31914.199219 28361.105469 -66729.523438
v 34349.054688 0.000000 17786.892578
v 52043.218750 0.000000 -60290.472656
v 46437.093750 0.000000 68110.429688
v 76092.515625 0.000000 -25944.505859
v 37326.140625 0.000000 8344.712891
v 43321.917969 28361.105469 63661.503906
v 80669.164063 0.000000 -5300.490234
v 62026.996094 0.000000 53824.910156
v 48552.152344 28361.105469 -56129.984375
v 73388.320313 0.000000 35991.191406
v 57866.503906 28361.105469 50333.843750
v 79746.835938 0.000000 15824.623047
v 61879.804688 28361.105469 -41585.394531
v 68466.046875 28361.105469 33695.894531
v 70988.921875 28361.105469 -24086.945313
v 74398.210938 28361.105469 14881.524414
v 75258.703125 28361.105469 -4827.137695
v -49856.496094 45553.527344 -7027.941406
v -71034.101563 28361.103516 27605.193359
v -68511.242188 28361.103516 -30177.666016
v -41473.875000 45553.527344 30783.611328
v -29047.091797 45553.527344 -39692.156250
v -31959.384766 28361.103516 70247.773438
v -25868.654297 28361.103516 -69252.382813
v -22.588961 54207.316406 1759.120239
v -8809.659180 45553.527344 51593.027344
v 8764.477539 45553.527344 -48074.777344
v 29001.906250 45553.527344 43210.394531
v 25823.468750 28361.103516 72770.617188
v 41428.691406 45553.527344 -27265.375000
v 31914.197266 28361.103516 -66729.523438
v 49811.308594 45553.527344 10546.180664
v 68466.046875 28361.103516 33695.894531
v 70988.921875 28361.103516 -24086.945313
v -15437.908203 -4.999900 -5429.620605
v -16967.865234 -4.999900 3241.724854
v -7730.250000 -345.902802 -1835.250366
v -7840.693359 -468.824799 2580.154053
v -13957.333984 -4.999900 11515.806641
v -8090.685547 -463.352905 7537.692383
v -9777.450195 -4.999900 -12174.750000
v -4900.017090 -123.218300 -5207.813965
v -3894.702393 -469.979675 4155.161133
v -4855.108887 -467.096588 2747.067383
v -7087.048828 -468.309387 4679.806152
v -7287.125977 -466.544312 3546.181152
v -7213.001465 -4.999900 17175.595703
v -1503.163330 -4.999900 -15186.317383
v -1326.433594 -123.218300 -6839.072266
v -4404.296387 -463.430145 1118.560425
v -7309.621094 -468.824799 2728.307617
v -3617.793701 -463.430115 9467.356445
v -7571.197266 -464.166992 7194.279297
v -3721.804688 -463.430145 6179.615234
v -7097.029785 -464.205109 6059.891113
v -1942.609985 -463.430115 2758.876465
v -1893.804077 -463.430115 4090.366699
v -3107.899170 -293.324188 -2295.048584
v -1908.020630 -401.216400 -638.343018
v -2091.923828 -463.430115 761.776794
v 1457.984863 -4.999900 18704.554688
v 717.698242 -463.430145 10231.836914
v -1795.419434 -463.430115 5998.625000
v 621.566589 -463.430115 2528.503906
v 653.184021 -463.430115 3862.008789
v 987.183228 -463.430115 5280.998535
v 2862.901367 -463.430145 5573.867676
v 4854.839355 -249.999893 8726.054688
v 2558.187744 -463.430115 3546.706543
v 2602.261963 -463.430084 2358.171387
v 7167.820801 -4.999900 -13657.356445
v 3024.068115 -123.218300 -5235.864258
v 4933.070313 -249.999893 3284.586182
v 4410.604980 -186.609085 -2897.459717
v 3523.811523 -282.157501 -1939.305908
v 4953.589355 -249.999908 596.709656
v 3898.168213 -250.959900 -3789.340576
v 6944.785156 -286.727203 -3119.224854
v 7685.070313 -249.999908 5353.488770
v 2637.016846 -377.705902 -981.152283
v 2477.932861 -463.430115 583.781860
v 5059.761230 -249.999893 2146.121094
v 9732.263672 -4.999900 15692.992188
v 8450.048828 -249.999893 1017.816711
v 13912.155273 -4.999900 -7997.571289
v 15392.729492 -4.999900 8947.858398
v 16922.673828 -4.999900 276.514374
v -8832.862305 1623.395142 6240.752930
v -8823.438477 1717.827393 6708.747070
v -8287.829102 1690.278564 6336.856934
v -8367.577148 1784.710938 6789.128418
v -8762.383789 1475.414307 5741.207520
v -8200.276367 1542.316528 5840.321777
v -8739.414063 1140.327881 7245.658691
v -8174.306152 1140.327881 7345.302734
v -8722.381836 1381.750244 7231.220215
v -8185.372559 1381.750244 7325.909180
v -8741.588867 661.583069 7245.971191
v -8172.369141 661.583069 7346.340332
v -8720.015625 982.812927 7219.360352
v -8183.539551 1008.480286 7313.955566
v -8176.425293 568.054626 7315.129883
v -8727.103516 568.054626 7218.030273
v -8179.937988 533.962646 7246.441895
v -8724.295898 533.962646 7150.457031
v -8668.765625 1630.115845 7187.085938
v -8220.661133 1630.115967 7266.099121
v -7930.954102 658.603516 7013.892090
v -8854.741211 658.603516 6851.003906
v -7942.302734 -12.981900 6998.789551
v -8838.912109 -12.981900 6840.692871
v -8173.614746 79.388397 7202.310547
v -8691.157227 79.388397 7111.053711
v -8600.581055 1346.607178 5070.513672
v -8080.702148 1413.509888 5162.182617
v -8419.511719 2260.646484 3230.358887
v -8361.384766 2291.789551 3234.160156
v -8403.691406 2280.947510 3185.482178
v -8355.763672 2306.660645 3223.531982
v -8867.812500 415.150940 6420.229004
v -7771.337402 415.150940 6613.567383
v -8031.277832 1309.044189 4881.882813
v -8519.990234 1242.141724 4795.709473
v -7524.827148 -12.635550 5839.175781
v -8834.598633 -12.635550 5608.227539
v -8411.230469 1055.839966 4536.560059
v -7983.681152 1122.742432 4611.948242
v -7884.781250 649.136963 4051.059570
v -8208.669922 582.235046 3993.948975
v -7742.795898 1623.395142 6432.960938
v -7911.713867 1717.827393 6869.508789
v -8439.366211 2166.484863 3134.172852
v -7730.000488 2134.902100 3173.258057
v -8262.317383 1773.776123 3072.799805
v -7853.515137 1735.995605 3062.314697
v -7753.829102 2136.229004 3308.392578
v -7749.559570 2162.764648 3284.180420
v -7928.030762 676.227112 7211.884277
v -7949.936035 579.157043 7188.254883
v -7735.958496 2162.101074 3207.041748
v -7820.526855 1621.730713 6931.007813
v -8248.970703 1719.300049 7192.978027
v -7731.747070 1356.658936 6968.429199
v -8004.863281 500.043335 3767.179688
v -7839.855957 566.945557 3796.274658
v -7638.169434 1475.414307 5939.436523
v -7707.477051 36.714001 6955.847168
v -7751.161133 72.428253 6941.315430
v -8163.536621 37.240349 7253.944824
v -8160.581543 -29.384550 7279.488770
v -7691.059570 -29.384550 6964.719727
v -7560.822754 1346.607178 5253.851074
v -7739.976563 627.645325 7037.773926
v -7789.381836 535.285034 7038.892090
v -7542.565430 1242.141724 4968.056152
v -7633.612305 279.193054 6783.958496
v -7556.131348 1055.839966 4687.336914
v -7628.657227 1515.786377 6477.480957
v -7674.848145 500.043365 3825.370361
v -7673.436523 572.532898 3615.396484
v -7805.549316 616.435791 3601.713135
v -7560.892090 582.235046 4108.169922
v -7834.519531 346.445251 2947.602295
v -7554.607422 346.445251 2996.958496
v -7851.000000 -29.384550 3094.869141
v -7589.488770 -29.384550 3140.980713
v -7589.282715 57.182251 6482.953613
v -7544.753418 722.275208 2920.984863
v -7817.794434 722.275208 2872.840332
v -7577.790039 332.913879 6775.135742
v -7554.537598 1230.171753 2911.736328
v -7805.437012 1230.171753 2867.495850
v -7541.591797 1160.573364 6492.832520
v -7529.451172 26.892750 6493.634766
v -7516.152344 1353.822266 5960.951660
v -7469.500488 711.548401 6505.543457
v -7714.441895 1112.621948 6969.317871
v -7496.582031 -29.384550 6500.769043
v -7510.414551 28.488001 6247.471680
v -7557.037109 124.149002 6508.721680
v -7496.582031 173.679153 6500.769043
v -7461.350098 1234.745239 3158.335938
v -7657.750000 1237.367920 3328.391846
v -7454.062012 737.777283 3232.389648
v -7671.829590 784.477234 3440.821533
v -7426.368164 1244.586182 5279.584961
v -7518.481934 -29.384399 3578.997070
v -7477.615723 354.196350 3356.603516
v -7426.360352 1042.484985 5976.784180
v -7447.300781 17.391001 6257.593262
v -7365.736816 612.567871 5982.856934
v -7100.374023 2279.306152 3414.646729
v -7159.171387 2306.660645 3434.523438
v -7340.786133 936.724365 5296.699707
v -7435.401367 64.888496 6253.360840
v -7379.939941 -29.384550 5984.969238
v -7050.767090 2168.126465 3379.666016
v -7195.428223 1773.776123 3260.921143
v -7575.990723 1735.995605 3111.249756
v -7344.520508 485.175385 4728.698730
v -7345.028320 -29.384550 4731.582520
v -7419.410645 441.551056 4133.750488
v -7387.679199 -29.384550 4139.978027
v -7382.611816 1112.467163 4997.273438
v -7342.826660 954.485474 5005.301270
v -7297.055664 490.202545 5308.459473
v -7297.856445 -29.384550 5313.000977
v -7101.603027 2260.646484 3462.741699
v -7157.524414 2291.789551 3446.433350
v -7195.428223 1773.776001 3260.921143
v -7187.783203 1760.570313 3344.317627
v -7056.465332 2145.754639 3445.801270
v -8998.869141 72.428253 6721.311035
v -8617.154297 1719.300171 7128.057129
v -8433.062500 1731.823853 7160.517090
v -8433.062500 1731.823975 7160.517090
v -7918.416992 1404.370117 3029.067627
v -7735.754395 973.500977 6987.394043
v -7778.222656 1737.435547 2975.775635
v -7617.144531 1737.435547 3004.177979
v -7681.587402 1705.337891 3312.211914
v -7588.077148 1725.956055 3288.380371
v -7532.111816 436.786346 3616.661377
v -7505.464844 1392.771484 3234.604980
v -7494.101563 376.865723 3857.557861
v -7503.632324 1404.370117 3102.205322
v -7388.729980 933.908691 4714.859863
v -7479.759277 1353.832764 3172.775391
v -7713.406738 -246.775772 6976.056152
v -8172.061035 -246.368713 7296.722168
v -7572.047852 -249.104691 3068.969482
v -7842.759766 -249.104691 3021.235596
v -7525.296875 -247.964386 3597.829590
v -7518.481934 -29.384550 3578.997070
v -8099.282227 -463.352844 7516.173828
v -7584.091309 -464.167084 7172.760254
v -7840.694336 -468.824829 2595.630615
v -7319.959473 -468.824829 2743.785889
v -7372.838867 -246.794891 5983.913574
v -7344.773926 -248.846954 4730.140625
v -7297.463867 -466.544250 3548.737061
v -7112.963379 -464.204987 6055.880371
v -7297.856934 -29.384550 5313.000977
v -7102.980957 -468.309326 4683.761230
v -21231.146484 1429.172852 -368.852936
v -19058.904297 1533.777344 -595.596558
v -21170.576172 1598.031128 -570.235107
v -19223.966797 1738.646362 -949.208923
v -21291.718750 1010.610229 -167.473251
v -18902.820313 885.447876 -246.247894
v -21961.744141 1393.271973 -2038.217896
v -22049.046875 1613.811157 -1530.075317
v -15920.531250 1447.976807 -3225.372559
v -16280.267578 1763.244385 -1917.836670
v -21896.199219 987.330811 -2397.595459
v -15696.418945 1115.691040 -3481.556885
v -15920.531250 1447.976929 -3225.372314
v -16531.285156 1451.868530 -38.220181
v -16731.132813 1793.288452 -977.389099
v -16370.623047 1036.672852 248.907471
v -14819.352539 1356.470947 60.084370
v -15618.624023 1660.918213 -755.862244
v -15167.683594 1699.002075 -1054.281006
v -16319.687500 2013.391846 -1214.693970
v -16480.941406 1964.148071 -1055.754150
v -15313.601563 1668.312866 -1512.990845
v -16383.277344 1903.792847 -1579.550781
v -14553.496094 937.721375 265.703949
v -14495.935547 1109.206543 -3060.694336
v -14735.614258 1397.010742 -2852.806396
v -13677.221680 1427.984741 -491.556305
v -14445.408203 1244.112549 -1549.665771
v -14019.601563 1102.722046 -2482.577393
v -14274.848633 1346.044556 -2322.988770
v -14159.038086 1089.753052 -1612.668213
v -13417.086914 1080.137573 -496.899139
v -13677.220703 1427.984741 -491.556305
v -16280.268555 1763.244507 -1917.836548
v -38061.964844 6942.177734 4747.181641
v -39631.011719 6462.308105 2769.948730
v -41180.042969 10092.278320 7147.287109
v -41705.246094 8818.751953 4793.086426
v -39932.402344 2512.507813 -506.127838
v -42129.507813 6419.357910 1646.071899
v -38229.539063 2512.507813 1334.314819
v -39969.175781 11105.555664 10856.187500
v -36715.472656 7103.427246 8157.084473
v -36568.527344 2665.556396 3359.134033
v -34747.433594 8271.184570 12569.465820
v -39335.539063 11109.113281 14690.062500
v -36715.472656 7103.426758 8157.084961
v -35504.410156 3324.709961 7213.784668
v -33139.625000 3324.709961 11386.602539
v -29237.234375 2842.549316 25324.466797
v -27739.839844 3212.605225 27346.730469
v -28866.349609 2237.353516 25336.492188
v -27514.097656 2093.550293 27370.796875
v -28120.328125 3163.867920 28609.769531
v -28006.240234 2093.550293 28540.140625
v -42747.421875 2512.507813 -1148.875488
v -34039.246094 7417.020020 17041.833984
v -38049.289063 9852.441406 17922.849609
v -33061.191406 5104.736328 21330.501953
v -34935.597656 7322.745117 20752.937500
v -32496.519531 2571.668701 17142.943359
v -33166.914063 5014.626953 24120.384766
v -31452.871094 2478.870850 21861.158203
v -18818.048828 631.361511 -328.974640
v -21268.732422 743.044495 -178.993164
v -21272.980469 373.429199 -114.661919
v -18768.470703 244.996399 -260.375275
v -18704.507813 0.000000 28.145491
v -21308.720703 0.000000 89.842407
v -15744.797852 502.611908 -3546.056152
v -21880.001953 477.359406 -2417.410889
v -15653.321289 820.462280 -3061.364014
v -21879.566406 724.192017 -2364.232666
v -21897.933594 0.000000 -2610.303467
v -15598.130859 0.000000 -3785.445801
v -16341.986328 696.776001 166.600677
v -16380.197266 360.837402 216.860321
v -16336.974609 0.000000 461.690399
v -14566.125977 353.908813 302.044281
v -14582.375977 664.750183 241.684906
v -14435.279297 0.000000 507.836639
v -14570.652344 509.800812 -3150.260742
v -14582.602539 814.609619 -3067.980469
v -14385.295898 0.000000 -3352.971680
v -14120.658203 516.989807 -2597.214111
v -14132.626953 808.756897 -2513.484131
v -13896.615234 0.000000 -2763.248535
v -14312.775391 531.367615 -1777.442261
v -14324.766602 797.051514 -1690.803711
v -14011.345703 0.000000 -1870.114014
v -13499.002930 879.242188 -421.426605
v -13537.576172 499.080902 -414.751007
v -13364.050781 0.000000 -391.867981
v -41772.820313 9929.998047 6930.078613
v -41519.691406 12625.308594 7891.646973
v -40941.343750 12636.382813 8029.643555
v -42880.542969 -1.063400 -1808.865112
v -42801.664063 686.162170 -1301.633911
v -39863.363281 -1.063400 -996.481201
v -39835.015625 686.162170 -531.655457
v -39854.878906 1470.382935 -357.609222
v -42770.976563 1470.382935 -1085.169678
v -41284.656250 14647.865234 8863.578125
v -40720.718750 14584.356445 8922.380859
v -40916.398438 16505.777344 10542.422852
v -40366.878906 16367.686523 10522.028320
v -40437.160156 17767.558594 12594.952148
v -39902.058594 17554.886719 12495.353516
v -39437.074219 13340.312500 14334.034180
v -39428.808594 15265.659180 14347.732422
v -39928.070313 18654.033203 14900.447266
v -39368.031250 18316.404297 14716.897461
v -39351.777344 17259.404297 14703.478516
v -39881.835938 15235.851563 14918.819336
v -39879.058594 13309.783203 14905.918945
v -39826.882813 17231.041016 15272.986328
v -39766.492188 10939.050781 15262.734375
v -39821.042969 18372.818359 15285.226563
v -37171.820313 -1.063400 703.952881
v -35515.914063 -1.063400 2597.994385
v -34508.957031 -1.063400 6657.664551
v -32014.509766 -1.063400 10812.791992
v -33381.445313 6621.874023 24805.070313
v -32620.468750 6734.536621 24696.179688
v -33969.351563 4898.109863 24126.285156
v -33166.914063 5014.626953 24120.386719
v -32633.591797 8439.864258 25515.009766
v -31964.792969 8333.746094 25293.142578
v -31361.193359 -1.063400 16830.681641
v -31586.166016 10010.926758 26609.005859
v -30887.390625 9778.138672 26345.650391
v -30047.982422 -1.063400 21775.082031
v -29200.568359 5227.948730 27684.630859
v -29204.902344 7152.287598 27782.871094
v -30171.812500 11214.278320 28126.281250
v -29546.265625 10922.455078 27634.669922
v -29067.119141 8882.176758 28030.855469
v -28627.324219 10162.239258 28574.017578
v -27703.525391 488.028503 25931.583984
v -28446.757813 1056.883057 25986.183594
v -29120.357422 11456.833008 29089.095703
v -28743.339844 11155.252930 28520.675781
v -29312.304688 5166.122070 28532.855469
v -29319.318359 7077.371582 28539.779297
v -29148.968750 8800.715820 28744.302734
v -28676.619141 10074.233398 29243.998047
v -28888.306641 11165.065430 29175.082031
v -28709.916016 1689.911011 27896.486328
v -28981.386719 1056.883057 27948.398438
v -28217.773438 1689.911011 26727.146484
v -28338.654297 1056.883057 26961.099609
v -28505.580078 1468.136841 25398.808594
v -27617.023438 488.028503 27167.005859
v -28259.761719 488.028503 28154.300781
v -26521.263672 -1.063400 28454.376953
v -26029.119141 -1.063400 27285.035156
v -26487.384766 -1.063400 25933.222656
# 574 vertices

vt 0.80000 0.00010
vt 0.59990 0.06260
vt 0.80000 0.06260
vt 0.59990 0.00010
vt 0.40000 0.06260
vt 0.40000 0.00010
vt 0.19990 0.00010
vt 0.19990 0.06200
vt 0.24990 1.43760
vt 0.00000 1.50010
vt 0.00000 1.43760
vt 0.24990 1.50010
vt 0.00000 0.06200
vt 0.00000 0.00010
vt 0.49990 1.50010
vt 0.49990 1.43760
vt 0.90000 0.06260
vt 0.99990 0.06260
vt 0.99990 0.00010
vt 4.99990 1.43760
vt 4.69990 1.50010
vt 4.69990 1.43760
vt 4.99990 1.50010
vt 0.74990 1.43760
vt 0.74990 1.50010
vt 4.40000 1.50010
vt 4.40000 1.43760
vt 0.99990 1.50010
vt 0.99990 1.43760
vt 4.09990 1.43760
vt 4.09990 1.50010
vt 1.24990 1.50010
vt 1.24990 1.43760
vt 3.79990 1.43760
vt 3.79990 1.50010
vt 1.49990 1.43760
vt 1.49990 1.50010
vt 3.49950 1.50010
vt 3.49950 1.43760
vt 1.74990 1.43760
vt 1.74990 1.50010
vt 3.24950 1.43760
vt 3.24950 1.50010
vt 1.99990 1.50010
vt 1.99990 1.43760
vt 2.99990 1.50010
vt 2.99990 1.43760
vt 2.24990 1.43760
vt 2.24990 1.50010
vt 2.74950 1.50010
vt 2.74950 1.43760
vt 2.49990 1.50010
vt 2.49990 1.43760
vt 2.99120 -2.09760
vt 3.04800 -1.97760
vt 3.03200 -2.13360
vt 3.09760 -2.00240
vt 2.54800 -1.17840
vt 2.49840 -1.09120
vt 2.61120 -1.15520
vt 2.62400 -1.05840
vt 2.99920 -1.73040
vt 2.68480 -1.26000
vt 2.72560 -1.22320
vt 3.06080 -1.71440
vt 2.85600 -1.46960
vt 2.90000 -1.43120
vt 3.99990 2.50190
vt 3.74990 2.99600
vt 3.74990 2.50190
vt 3.99990 2.99600
vt 4.24990 2.50190
vt 4.24990 2.99600
vt 3.49990 2.50190
vt 3.49990 2.99600
vt 4.49990 2.99600
vt 4.49990 2.50190
vt 3.24990 2.99600
vt 3.24990 2.50190
vt 0.80000 -0.81240
vt 0.59990 -0.74990
vt 0.80000 -0.74990
vt 0.59990 -0.81240
vt 0.40000 -0.74990
vt 0.40000 -0.81240
vt 4.74990 2.50190
vt 4.74990 2.99600
vt 0.99990 -0.81240
vt 0.99990 -0.74990
vt 2.99990 2.99600
vt 2.99990 2.50190
vt 0.19990 -0.74990
vt 0.19990 -0.81290
vt 0.24990 0.31260
vt 0.00000 0.25010
vt 0.24990 0.25010
vt 0.00000 0.31260
vt 0.00000 -0.74990
vt 0.00000 -0.81290
vt 4.99990 2.50190
vt 4.99990 2.99600
vt 0.49990 0.31260
vt 0.49990 0.25010
vt 2.74990 2.50190
vt 2.74990 2.99600
vt 4.99990 0.31260
vt 4.69990 0.25010
vt 4.99990 0.25010
vt 4.69990 0.31260
vt 0.80000 -0.87490
vt 0.59990 -0.87490
vt 0.40000 -0.87490
vt 0.74990 0.31260
vt 0.74990 0.25010
vt 0.19990 -0.87490
vt 0.00000 0.37510
vt 0.24990 0.37510
vt 5.24990 2.99600
vt 5.24990 2.50190
vt 0.00000 -0.87490
vt 0.49990 0.37510
vt 0.90000 -0.87490
vt 0.80000 -0.90620
vt 0.90000 -0.90620
vt 0.99990 -0.90620
vt 0.99990 -0.87490
vt 0.59990 -0.93740
vt 0.40000 -0.93740
vt 4.40000 0.25010
vt 4.40000 0.31260
vt 2.49990 2.99600
vt 2.49990 2.50190
vt 0.19990 -0.93800
vt 0.80000 -0.93740
vt 0.90000 -0.93740
vt 4.69990 0.37510
vt 4.99990 0.37510
vt 0.99990 -0.93740
vt 0.74990 0.37510
vt 0.00000 -0.93800
vt 0.99990 0.31260
vt 0.99990 0.25010
vt 0.49990 0.43760
vt 0.24990 0.43760
vt 0.00000 0.40630
vt 4.69990 0.43760
vt 4.99990 0.43760
vt 4.40000 0.37510
vt 0.74990 0.43760
vt 0.00000 0.43760
vt 0.99990 0.37510
vt 4.40000 0.43760
vt 0.99990 0.43760
vt 5.49990 2.50190
vt 5.49990 2.99600
vt 4.09990 0.25010
vt 4.09990 0.31260
vt 4.09990 0.37510
vt 4.09990 0.43760
vt 1.24990 0.43760
vt 1.24990 0.31260
vt 1.24990 0.37510
vt 1.49990 0.43760
vt 1.24990 0.25010
vt 2.24990 2.99600
vt 2.24990 2.50190
vt 1.49990 0.37510
vt 3.79990 0.37510
vt 3.79990 0.43760
vt 1.74990 0.43760
vt 1.49990 0.31260
vt 1.74990 0.37510
vt 3.79990 0.31260
vt 1.99990 0.43760
vt 1.99990 0.37510
vt 3.49950 0.43760
vt 3.49950 0.37510
vt 2.24990 0.43760
vt 2.24990 0.37510
vt 1.74990 0.31260
vt 2.49990 0.37510
vt 2.49990 0.43760
vt 3.24950 0.37510
vt 3.24950 0.43760
vt 3.79990 0.25010
vt 3.49950 0.31260
vt 2.49990 0.31260
vt 2.99990 0.43760
vt 2.99990 0.37510
vt 5.74990 2.50190
vt 5.74990 2.99600
vt 2.74950 0.43760
vt 2.74950 0.37510
vt 1.49990 0.25010
vt 2.24990 0.31260
vt 3.24950 0.31260
vt 1.99990 0.31260
vt 1.99990 0.25010
vt 1.99990 2.50190
vt 1.99990 2.99600
vt 2.99990 0.31260
vt 1.74990 0.25010
vt 3.49950 0.25010
vt 2.24990 0.25010
vt 2.74950 0.31260
vt 5.99990 2.99600
vt 5.99990 2.50190
vt 2.49990 0.25010
vt 3.24950 0.25010
vt 1.74990 2.99600
vt 1.74990 2.50190
vt 2.99990 0.25010
vt 0.24990 2.50190
vt 0.00000 2.99600
vt 0.00000 2.50190
vt 0.24990 2.99600
vt 2.74950 0.25010
vt 1.49990 2.99600
vt 1.49990 2.50190
vt 0.49990 2.50190
vt 0.49990 2.99600
vt 1.24990 2.50190
vt 1.24990 2.99600
vt 0.74990 2.99600
vt 0.74990 2.50190
vt 0.99990 2.50190
vt 0.99990 2.99600
vt 0.58610 1.17840
vt 0.49990 1.33350
vt 0.49990 1.16700
vt 0.66650 1.21160
vt 0.41380 1.17840
vt 0.73540 1.26460
vt 0.61770 1.38230
vt 0.33340 1.21160
vt 0.38220 1.38230
vt 0.78840 1.33350
vt 0.26450 1.26460
vt 0.82160 1.41390
vt 0.21150 1.33350
vt 0.66650 1.50010
vt 0.83300 1.50010
vt 0.33340 1.50010
vt 0.17830 1.41390
vt 0.82160 1.58620
vt 0.16690 1.50010
vt 0.61770 1.61780
vt 0.78840 1.66660
vt 0.38220 1.61780
vt 0.17830 1.58620
vt 0.49990 1.66660
vt 0.73540 1.73550
vt 0.21150 1.66660
vt 0.66650 1.78850
vt 0.58610 1.82170
vt 0.26450 1.73550
vt 0.33340 1.78850
vt 0.49990 1.83310
vt 0.41380 1.82170
vt 2.00000 -4.17520
vt 0.71040 -6.30320
vt 0.00000 -4.35040
vt 2.49840 -5.09120
vt 2.30240 -7.64000
vt 3.03200 -6.13360
vt 2.18000 -3.15200
vt 0.36080 -2.30320
vt 2.90000 -5.43120
vt 3.12800 -4.77280
vt 3.49120 -4.94720
vt 2.72560 -5.22320
vt 4.34960 -8.00000
vt 2.71840 -2.39680
vt 1.69680 -0.71120
vt 3.02800 -4.38640
vt 2.62400 -5.05840
vt 3.09760 -6.00240
vt 4.17440 -6.00080
vt 3.06080 -5.71440
vt 3.76480 -5.34080
vt 3.72480 -4.43120
vt 3.89200 -4.69760
vt 3.33120 -3.73280
vt 2.89040 -3.53600
vt 3.45920 -4.04080
vt 6.30240 -7.28960
vt 5.15120 -5.64480
vt 4.13760 -5.07600
vt 4.38560 -4.35040
vt 4.22240 -4.08160
vt 4.62160 -4.60080
vt 5.04000 -4.44000
vt 5.81920 -4.84880
vt 4.73840 -4.06160
vt 4.60720 -3.81280
vt 3.79680 -2.21120
vt 3.64960 0.00000
vt 5.19280 -3.72720
vt 4.88000 -3.17520
vt 4.28800 -2.82560
vt 4.35600 -2.52560
vt 4.84800 -2.18080
vt 4.14640 -2.40320
vt 5.99920 -3.82560
vt 4.22000 -3.12640
vt 4.37200 -3.46480
vt 5.08400 -3.48000
vt 7.63840 -5.69760
vt 5.64400 -2.84880
vt 5.69680 -0.36080
vt 7.99920 -3.65040
vt 7.28880 -1.69760
vt 0.27340 -0.37110
vt 0.17960 -0.50010
vt 0.27340 -0.50010
vt 0.20220 -0.37030
vt 0.37490 -0.37110
vt 0.37490 -0.50010
vt 0.00390 -0.64070
vt 0.09760 -0.71880
vt 0.00390 -0.71880
vt 0.09760 -0.64070
vt 0.00390 -0.76180
vt 0.09760 -0.83210
vt 0.00390 -0.83210
vt 0.09760 -0.76180
vt 0.09760 -0.84770
vt 0.00390 -0.84770
vt 0.09760 -0.87110
vt 0.00390 -0.87110
vt 0.00390 -0.54690
vt 0.09760 -0.54690
vt 0.04680 -0.96100
vt 0.09760 -0.96880
vt 0.10540 -0.99610
vt 0.50780 -0.50010
vt 0.51690 -0.37110
vt 0.46480 -0.02740
vt 0.52730 -0.00400
vt 0.49990 -0.02740
vt 0.49600 -0.00400
vt 0.09370 -0.96100
vt 0.61420 -0.44700
vt 0.58200 -0.52350
vt 0.23040 -1.00000
vt 0.62100 -0.57820
vt 0.67120 -0.52910
vt 0.78120 -0.69930
vt 0.74990 -0.76180
vt 0.52390 -0.19930
vt 0.72260 -0.06650
vt 0.48820 -0.06650
vt 0.67960 -0.19930
vt 0.72260 -0.04690
vt 0.13280 -0.86330
vt 0.13280 -0.83990
vt 0.09760 -0.50010
vt 0.18550 -0.54690
vt 0.18550 -0.64070
vt 0.79680 -0.77350
vt 0.80460 -0.70320
vt 0.09760 -0.98440
vt 0.16400 -0.96880
vt 0.16400 -0.98440
vt 0.16400 -1.00000
vt 0.09760 -1.00000
vt 0.17180 -0.89460
vt 0.17960 -0.88290
vt 0.20700 -0.93360
vt 0.28020 -0.54690
vt 0.82810 -0.77350
vt 0.82420 -0.69930
vt 0.92180 -0.34380
vt 0.75580 -0.39850
vt 0.75580 -0.34380
vt 0.92180 -0.39850
vt 0.23430 -0.96490
vt 0.58980 -0.39850
vt 0.58980 -0.34380
vt 0.21480 -0.91800
vt 0.30070 -0.12510
vt 0.44140 -0.07040
vt 0.44140 -0.12510
vt 0.30070 -0.07040
vt 0.28020 -0.65630
vt 0.23360 -0.97770
vt 0.38030 -0.54690
vt 0.18550 -0.71880
vt 0.28020 -0.81260
vt 0.23330 -1.00000
vt 0.28510 -0.98050
vt 0.24990 -0.96490
vt 0.26560 -0.95710
vt 0.44140 -0.19150
vt 0.30070 -0.25400
vt 0.30070 -0.19150
vt 0.44140 -0.25400
vt 0.50390 -0.54690
vt 0.87590 -0.83400
vt 0.99600 -1.00000
vt 0.82220 -1.00000
vt 0.99600 -0.83400
vt 0.38030 -0.65630
vt 0.30070 -0.98830
vt 0.92960 -0.66800
vt 0.99600 -0.66800
vt 0.38030 -0.81650
vt 0.94530 -0.02740
vt 0.50390 -0.65630
vt 0.32030 -0.98320
vt 0.36940 -1.00000
vt 0.91790 -0.19930
vt 0.95700 -0.06650
vt 0.76170 -0.19930
vt 0.74210 -0.79690
vt 0.61320 -1.00000
vt 0.61320 -0.82040
vt 0.73470 -1.00000
vt 0.57810 -0.57820
vt 0.57030 -0.66410
vt 0.50390 -0.81650
vt 0.50390 -1.00000
vt 0.91400 -0.00400
vt 0.98040 -0.02740
vt 0.94920 -0.00400
vt 0.99600 -0.06650
vt 0.95700 -0.19930
vt 0.00390 -0.50010
vt 0.05070 -0.50010
vt 0.09760 -0.41920
vt 0.66790 -0.30860
vt 0.18550 -0.76180
vt 0.86710 -0.66800
vt 0.13670 -0.07040
vt 0.00390 -0.09770
vt 0.13670 -0.12510
vt 0.00390 -0.27350
vt 0.13670 -0.21490
vt 0.13670 -0.25400
vt 0.13670 -0.14850
vt 0.83590 -0.81650
vt 0.24600 -0.20710
vt 0.78900 -0.81650
vt 0.24600 -0.16800
vt 0.62490 -0.64070
vt 0.26560 -0.19150
vt 0.77730 -0.30860
vt 0.82030 -0.33990
vt 0.78900 -0.33210
vt 0.20700 -0.83600
vt 0.11520 -0.83600
vt 0.19720 -0.90040
vt 0.11420 -0.76760
vt 0.83880 -0.34380
vt 0.83880 -0.39850
vt 0.82320 -0.93950
vt 0.99600 -0.93950
vt 0.11320 -0.69930
vt 0.21090 -0.75400
vt 0.29290 -0.97020
vt 0.37490 -0.93760
vt 0.99600 -0.87900
vt 0.60930 -0.93950
vt 0.82420 -0.87900
vt 0.37490 -0.87510
vt 0.60930 -0.87900
vt 0.19530 0.49990
vt 0.29100 0.27440
vt 0.18940 0.27340
vt 0.29290 0.49990
vt 0.29100 0.00780
vt 0.18940 0.00780
vt 0.78320 0.23820
vt 0.96670 0.46090
vt 0.96670 0.23430
vt 0.78320 0.46870
vt 0.78320 0.00780
vt 0.96670 0.00780
vt 0.39450 0.51560
vt 0.39450 0.27530
vt 0.39450 0.00780
vt 0.50970 0.49210
vt 0.49410 0.27730
vt 0.62890 0.71870
vt 0.59760 0.51560
vt 0.53120 0.63280
vt 0.68160 0.50780
vt 0.69330 0.69530
vt 0.49410 0.00780
vt 0.75780 0.00780
vt 0.75510 0.23920
vt 0.58250 0.25970
vt 0.67080 0.24210
vt 0.73240 0.00780
vt 0.72700 0.24020
vt 0.68160 0.00780
vt 0.58780 0.00780
vt 0.75780 0.84370
vt 0.86710 0.46090
vt 0.77340 0.46870
vt 0.86320 0.72650
vt 0.87300 0.00780
vt 0.94330 0.40620
vt 0.96870 0.00780
vt 0.66010 0.47650
vt 0.62490 0.96870
vt 0.49410 0.54680
vt 0.48820 0.96870
vt 0.04290 0.00780
vt -0.13280 0.24210
vt 0.00030 0.27810
vt -0.09570 0.00780
vt -0.21090 0.16400
vt -0.20310 0.00780
vt 1.03320 0.00780
vt 0.27840 0.81060
vt 0.34170 0.53900
vt 0.14430 0.75750
vt 0.16340 0.46610
vt 0.35150 0.00780
vt -0.01160 0.42420
vt 0.21090 0.00780
vt 0.19920 -0.81440
vt 0.56640 -0.75390
vt 0.56640 -0.81440
vt 0.19920 -0.75390
vt 0.56640 -0.87490
vt 0.19920 -0.87490
vt 0.19920 -0.99600
vt 0.56640 -0.99600
vt 2.49990 -0.81440
vt 3.30460 -0.87490
vt 2.49990 -0.87490
vt 3.30460 -0.81440
vt 3.30460 -0.75390
vt 2.49990 -0.75390
vt 2.49990 -0.99600
vt 3.30460 -0.99600
vt 0.99210 -0.75390
vt 0.99210 -0.81440
vt 0.99210 -0.87490
vt 0.99210 -0.99600
vt 1.32810 -0.87490
vt 1.32810 -0.81440
vt 1.32810 -0.75390
vt 1.32810 -0.99600
vt 2.40420 -0.87490
vt 2.40420 -0.81440
vt 2.40420 -0.75390
vt 2.40420 -0.99600
vt 2.30850 -0.87490
vt 2.30850 -0.81440
vt 2.30850 -0.75390
vt 2.30850 -0.99600
vt 2.11710 -0.87490
vt 2.11710 -0.81440
vt 2.11710 -0.75390
vt 2.11710 -0.99600
vt 1.74990 -0.87490
vt 1.74990 -0.81440
vt 1.74990 -0.75390
vt 1.74990 -0.99600
vt -0.53510 0.50390
vt -0.50390 0.64060
vt -0.50390 0.50390
vt -0.53510 0.64060
vt -0.74990 -0.74600
vt -0.50390 -0.68550
vt -0.50390 -0.74600
vt -0.74990 -0.68550
vt -0.74990 -0.50390
vt -0.50390 -0.62490
vt -0.74990 -0.62490
vt -0.50390 -0.50390
vt -0.58200 0.77730
vt -0.55460 0.79290
vt -0.66010 0.87490
vt -0.64060 0.89840
vt -0.77340 0.98040
vt -0.78510 0.95310
vt -0.95310 0.78040
vt -0.95310 0.64450
vt -0.97260 0.99600
vt -0.96480 0.96480
vt -0.96480 0.89840
vt -0.98040 0.78120
vt -0.98040 0.64450
vt -0.99600 0.89840
vt -0.99600 0.50390
vt -0.96870 0.50390
vt -0.99600 0.96870
vt 2.99990 -0.87490
vt 2.74990 -0.99600
vt 2.74990 -0.75390
vt 2.99990 -0.93550
vt 1.99990 -0.99600
vt 1.99990 -0.75390
vt 1.49990 -0.75390
vt 1.49990 -0.99600
vt -1.50390 0.50390
vt -1.53510 0.64450
vt -1.50390 0.64450
vt -1.53510 0.50390
vt -1.58590 0.78510
vt -1.55460 0.79680
vt 0.99990 -0.99600
vt 0.99990 -0.75390
vt -1.64060 0.89840
vt -1.66400 0.86710
vt 0.49990 -0.75390
vt 0.49990 -0.99600
vt -1.94140 0.71870
vt -1.93980 0.62440
vt -1.95310 0.53560
vt -1.78120 0.94140
vt -1.77340 0.98040
vt -1.96090 0.89840
vt -1.94140 0.82420
vt 0.00000 -0.93550
vt -1.96870 0.99600
vt -1.96090 0.96090
vt -1.98040 0.71870
vt -1.98040 0.62600
vt -1.98040 0.82420
vt -1.99600 0.89840
vt -1.99600 0.96090
vt -1.99600 0.53560
vt -0.87490 -0.56440
vt -0.99600 -0.62490
vt -0.99600 -0.56440
vt -0.87490 -0.62490
vt -0.74990 -0.56440
vt -0.99600 -0.68550
vt -0.87490 -0.68550
vt -0.87490 -0.50390
vt -0.99600 -0.50390
vt -0.99600 -0.74600
vt -0.87490 -0.74600
vt -0.74990 0.50390
vt 2.99990 -0.75390
vt 2.99990 -0.99600
vt 0.00000 -0.75390
vt 0.00000 -0.81440
vt 0.00000 -0.99600
# 644 texture vertices

g Object_2
usemtl texture0
f 1/3 2/2 3/1
f 3/1 2/2 4/4
f 2/2 5/5 4/4
f 4/4 5/5 6/6
f 7/8 8/7 5/5
f 8/7 6/6 5/5
f 9/11 10/10 11/9
f 10/10 12/12 11/9
f 7/8 13/13 8/7
f 8/7 13/13 14/14
f 15/16 11/9 16/15
f 16/15 11/9 12/12
f 1/3 3/1 17/17
f 17/17 10/19 9/18
f 18/22 19/21 13/20
f 19/21 14/23 13/20
f 17/17 3/1 10/19
f 15/16 16/15 20/24
f 16/15 21/25 20/24
f 22/27 23/26 18/22
f 23/26 19/21 18/22
f 24/29 20/24 25/28
f 25/28 20/24 21/25
f 22/27 26/30 23/26
f 23/26 26/30 27/31
f 28/33 24/29 29/32
f 29/32 24/29 25/28
f 26/30 30/34 27/31
f 27/31 30/34 31/35
f 28/33 29/32 32/36
f 29/32 33/37 32/36
f 34/39 35/38 30/34
f 35/38 31/35 30/34
f 32/36 33/37 36/40
f 33/37 37/41 36/40
f 34/39 38/42 35/38
f 35/38 38/42 39/43
f 40/45 36/40 41/44
f 41/44 36/40 37/41
f 42/47 43/46 38/42
f 43/46 39/43 38/42
f 40/45 41/44 44/48
f 41/44 45/49 44/48
f 46/51 47/50 42/47
f 47/50 43/46 42/47
f 48/53 44/48 49/52
f 49/52 44/48 45/49
f 46/51 48/53 47/50
f 47/50 48/53 49/52
usemtl texture1
f 50/56 51/55 52/54
f 50/56 53/57 51/55
f 54/60 55/59 56/58
f 57/61 55/59 54/60
f 53/57 58/62 51/55
f 59/63 57/61 54/60
f 60/64 57/61 59/63
f 53/57 61/65 58/62
f 62/67 59/63 63/66
f 62/67 60/64 59/63
f 61/65 63/66 58/62
f 61/65 62/67 63/66
g obj1
usemtl mat1
f 64/70 65/69 66/68
f 65/69 67/71 66/68
f 66/68 67/71 68/72
f 67/71 69/73 68/72
f 64/70 70/74 65/69
f 71/75 65/69 70/74
f 72/77 68/72 73/76
f 69/73 73/76 68/72
f 74/79 75/78 70/74
f 75/78 71/75 70/74
f 64/82 66/81 76/80
f 76/80 66/81 77/83
f 66/81 68/84 77/83
f 77/83 68/84 78/85
f 72/77 73/76 79/86
f 73/76 80/87 79/86
f 70/89 64/82 81/88
f 64/82 76/80 81/88
f 82/91 83/90 74/79
f 83/90 75/78 74/79
f 68/84 72/92 78/85
f 72/92 84/93 78/85
f 74/96 70/95 85/94
f 70/95 86/97 85/94
f 72/92 79/98 84/93
f 84/93 79/98 87/99
f 79/86 80/87 88/100
f 80/87 89/101 88/100
f 82/103 74/96 90/102
f 90/102 74/96 85/94
f 82/91 91/104 83/90
f 92/105 83/90 91/104
f 79/108 88/107 87/106
f 88/107 93/109 87/106
f 76/80 77/83 94/110
f 94/110 77/83 95/111
f 77/83 78/85 95/111
f 95/111 78/85 96/112
f 91/114 82/103 97/113
f 82/103 90/102 97/113
f 84/93 98/115 78/85
f 98/115 96/112 78/85
f 86/97 99/116 85/94
f 99/116 100/117 85/94
f 101/119 88/100 102/118
f 89/101 102/118 88/100
f 84/93 87/99 98/115
f 98/115 87/99 103/120
f 90/102 85/94 104/121
f 104/121 85/94 100/117
f 94/110 105/123 106/122
f 105/123 107/124 106/122
f 99/126 106/122 108/125
f 106/122 107/124 108/125
f 95/111 96/112 109/127
f 109/127 96/112 110/128
f 88/107 101/129 93/109
f 101/129 111/130 93/109
f 76/80 106/122 81/88
f 112/132 113/131 91/104
f 113/131 92/105 91/104
f 98/115 114/133 96/112
f 114/133 110/128 96/112
f 105/123 115/134 107/124
f 116/135 107/124 115/134
f 93/109 117/136 87/106
f 117/136 103/137 87/106
f 108/125 107/124 118/138
f 107/124 116/135 118/138
f 76/80 94/110 106/122
f 81/88 106/122 99/126
f 90/102 104/121 97/113
f 104/121 119/139 97/113
f 98/115 103/120 114/133
f 114/133 103/120 120/140
f 112/142 91/114 121/141
f 121/141 91/114 97/113
f 104/121 100/117 122/143
f 122/143 100/117 123/144
f 105/123 94/110 95/111
f 109/127 105/123 95/111
f 99/116 124/145 100/117
f 117/136 125/146 103/137
f 125/146 120/147 103/137
f 111/130 126/148 93/109
f 126/148 117/136 93/109
f 115/134 105/123 109/127
f 104/121 122/143 119/139
f 122/143 127/149 119/139
f 100/117 124/145 123/144
f 123/144 124/145 118/150
f 121/141 97/113 128/151
f 128/151 97/113 119/139
f 126/148 129/152 117/136
f 129/152 125/146 117/136
f 128/151 119/139 130/153
f 130/153 119/139 127/149
f 101/119 102/118 131/154
f 102/118 132/155 131/154
f 101/129 131/156 111/130
f 111/130 131/156 133/157
f 111/130 133/157 126/148
f 126/148 133/157 134/158
f 126/148 134/158 129/152
f 129/152 134/158 135/159
f 136/160 128/151 130/153
f 128/151 137/161 121/141
f 136/160 138/162 128/151
f 138/162 137/161 128/151
f 138/162 136/160 139/163
f 140/164 112/142 137/161
f 137/161 112/142 121/141
f 140/166 141/165 112/132
f 141/165 113/131 112/132
f 138/162 139/163 142/167
f 134/158 143/168 135/159
f 135/159 143/168 144/169
f 142/167 139/163 145/170
f 137/161 138/162 146/171
f 146/171 138/162 142/167
f 142/167 145/170 147/172
f 133/157 148/173 134/158
f 134/158 148/173 143/168
f 149/174 147/172 145/170
f 149/174 150/175 147/172
f 151/177 152/176 143/168
f 152/176 144/169 143/168
f 153/179 149/174 154/178
f 155/180 142/167 147/172
f 146/171 142/167 155/180
f 156/182 157/181 154/178
f 150/175 149/174 153/179
f 154/178 157/181 153/179
f 151/177 158/183 152/176
f 152/176 158/183 159/184
f 131/156 160/185 133/157
f 133/157 160/185 148/173
f 161/186 151/177 148/173
f 151/177 143/168 148/173
f 157/181 162/187 153/179
f 163/189 164/188 158/183
f 164/188 159/184 158/183
f 131/154 132/155 160/190
f 132/155 165/191 160/190
f 166/193 167/192 163/189
f 167/192 164/188 163/189
f 168/194 140/164 146/171
f 140/164 137/161 146/171
f 153/179 162/187 169/195
f 166/193 157/181 167/192
f 167/192 157/181 156/182
f 161/186 170/196 151/177
f 151/177 170/196 158/183
f 171/197 155/180 150/175
f 150/175 155/180 147/172
f 171/197 172/198 155/180
f 140/166 168/199 141/165
f 173/200 141/165 168/199
f 174/201 163/189 170/196
f 163/189 158/183 170/196
f 171/197 150/175 169/195
f 150/175 153/179 169/195
f 155/180 172/198 175/202
f 160/185 176/203 148/173
f 176/203 161/186 148/173
f 162/187 177/204 169/195
f 178/205 166/193 174/201
f 166/193 163/189 174/201
f 178/205 162/187 166/193
f 166/193 162/187 157/181
f 175/202 168/194 155/180
f 168/194 146/171 155/180
f 176/207 160/190 179/206
f 165/191 179/206 160/190
f 162/187 180/208 177/204
f 176/203 181/209 161/186
f 161/186 181/209 170/196
f 175/211 182/210 168/199
f 182/210 173/200 168/199
f 181/209 183/212 170/196
f 183/212 174/201 170/196
f 177/204 172/198 169/195
f 172/198 171/197 169/195
f 176/215 179/214 181/213
f 179/214 184/216 181/213
f 183/212 185/217 174/201
f 185/217 178/205 174/201
f 172/219 186/218 175/211
f 186/218 182/210 175/211
f 185/217 180/208 178/205
f 178/205 180/208 162/187
f 181/213 184/216 183/220
f 184/216 187/221 183/220
f 172/219 177/222 186/218
f 188/223 186/218 177/222
f 185/225 183/220 189/224
f 187/221 189/224 183/220
f 177/222 180/226 188/223
f 180/226 190/227 188/223
f 185/225 189/224 180/226
f 189/224 190/227 180/226
usemtl mat2
f 65/230 191/229 67/228
f 67/228 191/229 192/231
f 191/229 65/230 193/232
f 194/234 73/233 192/231
f 191/229 194/234 192/231
f 195/236 193/232 75/235
f 73/233 194/234 80/237
f 195/236 191/229 193/232
f 83/238 195/236 75/235
f 194/234 196/239 80/237
f 195/236 83/238 197/240
f 191/229 198/15 194/234
f 194/234 199/241 196/239
f 198/15 191/229 195/236
f 199/241 102/242 196/239
f 198/15 199/241 194/234
f 200/243 195/236 197/240
f 113/244 200/243 197/240
f 200/243 198/15 195/236
f 102/242 199/241 132/245
f 141/246 200/243 113/244
f 199/241 198/15 201/247
f 132/245 199/241 202/248
f 199/241 201/247 202/248
f 198/15 200/243 203/249
f 200/243 141/246 204/250
f 198/15 205/251 201/247
f 203/249 200/243 204/250
f 205/251 198/15 203/249
f 201/247 179/252 202/248
f 203/249 204/250 182/253
f 179/252 201/247 184/254
f 201/247 205/251 206/255
f 186/256 203/249 182/253
f 201/247 206/255 184/254
f 205/251 203/249 207/257
f 203/249 186/256 207/257
f 205/251 189/258 206/255
f 190/259 205/251 207/257
f 189/258 205/251 190/259
usemtl texture2
f 208/262 209/261 210/260
f 209/261 211/263 210/260
f 209/261 212/264 211/263
f 212/264 213/265 211/263
f 214/267 208/262 215/266
f 208/262 210/260 215/266
f 216/270 217/269 218/268
f 217/269 219/271 218/268
f 212/264 220/272 213/265
f 221/274 214/267 222/273
f 214/267 215/266 222/273
f 223/275 210/260 211/263
f 224/276 223/275 211/263
f 219/271 217/269 224/276
f 213/265 225/278 226/277
f 213/265 220/272 225/278
f 227/280 228/279 226/277
f 216/270 218/268 228/279
f 223/275 215/266 210/260
f 217/269 216/270 229/281
f 216/270 230/282 229/281
f 217/269 223/275 224/276
f 231/284 223/275 232/283
f 223/275 233/285 232/283
f 225/278 227/280 226/277
f 227/280 216/270 228/279
f 223/275 231/284 215/266
f 220/272 234/286 225/278
f 234/286 235/287 225/278
f 235/287 236/288 225/278
f 236/288 227/280 225/278
f 223/275 217/269 229/281
f 227/280 230/282 216/270
f 233/285 223/275 229/281
f 236/288 230/282 227/280
f 237/290 229/281 238/289
f 229/281 230/282 238/289
f 236/288 239/291 230/282
f 238/289 230/282 239/291
f 239/291 236/288 235/287
f 240/292 239/291 235/287
f 240/292 235/287 241/293
f 238/289 242/294 237/290
f 243/295 237/290 242/294
f 240/292 242/294 239/291
f 242/294 238/289 239/291
f 244/297 221/274 245/296
f 221/274 222/273 245/296
f 246/298 242/294 240/292
f 247/301 248/300 249/299
f 245/296 250/303 251/302
f 251/302 250/303 247/301
f 252/304 240/292 241/293
f 252/304 246/298 240/292
f 251/302 247/301 249/299
f 248/300 253/305 249/299
f 253/305 254/306 249/299
f 254/306 243/295 249/299
f 249/299 243/295 255/307
f 255/307 243/295 246/298
f 243/295 242/294 246/298
f 234/286 256/308 235/287
f 256/308 241/293 235/287
f 251/302 249/299 257/309
f 249/299 255/307 257/309
f 255/307 246/298 257/309
f 257/309 246/298 252/304
f 258/310 244/297 251/302
f 244/297 245/296 251/302
f 256/308 259/311 241/293
f 259/311 252/304 241/293
f 260/312 258/310 257/309
f 258/310 251/302 257/309
f 259/311 260/312 252/304
f 260/312 257/309 252/304
usemtl texture3
f 261/315 262/314 263/313
f 264/316 263/313 262/314
f 265/318 261/315 266/317
f 263/313 266/317 261/315
f 267/321 268/320 269/319
f 268/320 270/322 269/319
f 271/325 272/324 273/323
f 272/324 274/326 273/323
f 272/324 271/325 275/327
f 276/328 275/327 271/325
f 268/320 267/321 274/326
f 273/323 274/326 267/321
f 275/327 276/328 277/329
f 278/330 277/329 276/328
f 269/319 270/322 279/331
f 270/322 280/332 279/331
f 281/333 277/329 282/333
f 277/329 278/329 282/333
f 283/335 284/335 285/334
f 285/334 284/335 286/334
f 265/318 266/317 287/336
f 266/317 288/337 287/336
f 289/340 290/339 291/338
f 291/338 290/339 292/341
f 293/342 294/342 282/333
f 281/333 282/333 294/342
f 288/337 295/343 287/336
f 295/343 296/344 287/336
f 297/345 298/345 283/335
f 283/335 298/345 284/335
f 298/345 297/345 293/342
f 294/342 293/342 297/345
f 296/344 295/343 299/346
f 295/343 300/347 299/346
f 300/347 301/348 299/346
f 301/348 302/349 299/346
f 303/315 263/313 304/314
f 263/313 264/316 304/314
f 305/352 306/351 307/350
f 308/353 307/350 306/351
f 289/340 309/351 290/339
f 290/339 309/351 310/354
f 311/356 275/327 312/355
f 312/355 275/327 277/329
f 291/340 292/339 306/351
f 292/339 313/354 306/351
f 290/339 310/354 292/341
f 292/341 310/354 313/354
f 280/332 314/358 315/357
f 304/314 315/357 314/358
f 316/359 314/358 270/322
f 314/358 280/332 270/322
f 302/349 301/348 317/360
f 301/348 318/361 317/360
f 319/318 266/317 303/315
f 266/317 263/313 303/315
f 320/364 321/363 322/362
f 321/363 285/334 322/362
f 323/366 324/365 322/362
f 324/365 320/364 322/362
f 319/318 325/336 266/317
f 325/336 288/337 266/317
f 326/368 311/356 327/367
f 327/367 311/356 312/355
f 288/337 325/336 295/343
f 328/344 295/343 325/336
f 281/333 294/342 327/367
f 327/367 294/342 329/369
f 328/344 330/346 295/343
f 330/346 300/347 295/343
f 331/370 303/315 314/358
f 303/315 304/314 314/358
f 332/360 333/371 318/361
f 333/371 334/372 318/361
f 300/347 330/346 301/348
f 335/349 301/348 330/346
f 335/349 332/360 301/348
f 332/360 318/361 301/348
f 336/375 337/374 338/373
f 339/376 338/373 337/374
f 297/345 283/335 340/377
f 340/377 283/335 321/363
f 337/374 336/375 341/378
f 336/375 342/379 341/378
f 326/368 327/367 343/380
f 329/369 343/380 327/367
f 341/383 342/382 344/381
f 342/382 345/384 344/381
f 346/385 331/370 316/359
f 331/370 314/358 316/359
f 347/386 340/377 320/364
f 340/377 321/363 320/364
f 348/387 319/318 331/370
f 319/318 303/315 331/370
f 349/389 346/385 350/388
f 346/385 316/359 350/388
f 351/390 347/386 324/365
f 347/386 320/364 324/365
f 297/345 352/391 294/342
f 353/392 294/342 352/391
f 353/392 354/393 329/369
f 354/393 343/380 329/369
f 355/396 356/395 357/394
f 356/395 358/397 357/394
f 319/318 348/387 325/336
f 325/336 348/387 359/398
f 360/401 339/400 361/399
f 339/400 337/402 361/399
f 331/370 346/385 348/387
f 348/387 346/385 362/403
f 363/404 352/391 347/386
f 352/391 340/377 347/386
f 361/399 337/402 357/405
f 337/402 341/406 357/405
f 357/394 341/383 355/396
f 341/383 344/381 355/396
f 363/404 354/393 352/391
f 352/391 354/393 353/392
f 346/385 349/389 362/403
f 362/403 349/389 364/407
f 365/408 306/351 366/408
f 306/351 313/354 366/408
f 348/387 362/403 359/398
f 359/398 362/403 367/409
f 349/389 368/410 364/407
f 364/407 368/410 369/411
f 370/413 371/412 306/351
f 371/412 372/414 306/351
f 373/417 374/416 375/415
f 374/416 376/418 375/415
f 359/398 367/409 377/419
f 377/419 367/409 378/420
f 379/421 367/409 364/407
f 367/409 362/403 364/407
f 364/407 369/411 379/421
f 380/422 379/421 369/411
f 379/421 380/422 373/417
f 374/416 373/417 380/422
f 381/408 365/424 382/423
f 365/424 366/425 382/423
f 383/427 370/426 384/412
f 370/426 385/413 384/412
f 385/413 370/426 381/408
f 381/408 370/426 365/424
f 286/334 284/335 386/363
f 387/357 264/316 262/314
f 279/331 388/429 387/428
f 389/430 264/316 387/357
f 279/331 280/332 388/429
f 315/357 264/316 389/430
f 388/429 280/332 315/357
f 306/351 305/352 291/340
f 304/314 264/316 315/357
f 311/356 274/326 272/324
f 275/327 311/356 272/324
f 350/388 270/322 268/320
f 268/320 274/326 350/388
f 277/329 281/333 312/355
f 308/353 390/431 307/350
f 321/363 283/335 285/334
f 311/356 391/432 274/326
f 312/355 281/333 327/367
f 350/388 274/326 391/432
f 350/388 316/359 270/322
f 326/368 391/432 311/356
f 358/433 334/372 333/371
f 344/381 345/384 392/434
f 393/436 392/434 306/435
f 343/380 391/432 326/368
f 394/439 395/438 309/437
f 329/369 294/342 353/392
f 344/381 392/434 393/436
f 372/440 393/436 306/435
f 391/432 349/389 350/388
f 332/360 396/441 333/371
f 356/395 397/442 394/439
f 358/433 333/371 357/405
f 343/380 349/389 391/432
f 394/439 397/442 395/438
f 396/441 332/360 398/443
f 399/444 393/436 372/440
f 399/444 344/381 393/436
f 357/405 333/371 396/441
f 332/360 335/349 375/415
f 397/442 356/395 355/396
f 297/345 340/377 352/391
f 332/360 375/415 398/443
f 396/441 398/443 360/401
f 354/393 349/389 343/380
f 328/344 325/336 359/398
f 396/441 360/401 361/399
f 355/396 344/381 399/444
f 400/445 335/349 330/346
f 377/419 330/346 328/344
f 351/390 363/404 347/386
f 396/441 361/399 357/405
f 397/442 355/396 401/446
f 401/446 355/396 399/444
f 354/393 368/410 349/389
f 398/443 376/418 360/401
f 354/393 363/404 368/410
f 400/445 375/415 335/349
f 328/344 359/398 377/419
f 377/419 400/445 330/346
f 369/411 363/404 351/390
f 398/443 375/415 376/418
f 399/447 372/414 371/412
f 369/411 368/410 363/404
f 383/427 401/449 399/448
f 401/449 384/412 397/447
f 373/417 375/415 400/445
f 378/420 400/445 377/419
f 378/420 373/417 400/445
f 378/420 379/421 373/417
f 379/421 378/420 367/409
f 370/413 306/351 365/408
f 383/427 384/412 401/449
f 324/452 323/451 402/450
f 403/453 402/450 323/451
f 404/455 405/454 339/376
f 339/376 405/454 338/373
f 404/457 339/400 406/456
f 407/401 406/456 339/400
f 408/458 402/450 403/453
f 409/459 402/450 408/458
f 404/455 410/375 405/454
f 324/452 402/450 351/460
f 404/455 411/374 410/375
f 409/459 412/461 402/450
f 402/450 412/461 351/460
f 407/401 376/418 406/456
f 406/456 411/462 404/457
f 406/456 376/418 413/463
f 351/460 412/461 369/411
f 406/456 414/464 411/462
f 413/463 376/418 374/416
f 415/465 412/461 409/459
f 416/422 369/411 412/461
f 413/463 416/422 412/461
f 374/416 416/422 413/463
f 406/456 413/463 417/466
f 406/456 417/466 414/464
f 413/463 412/461 415/465
f 413/463 415/465 417/466
usemtl texture4
f 418/469 419/468 420/467
f 421/470 420/467 419/468
f 422/472 423/471 418/469
f 419/468 418/469 423/471
f 424/475 425/474 426/473
f 426/473 425/474 427/476
f 428/478 424/475 429/477
f 429/477 424/475 430/473
f 431/480 432/479 419/468
f 432/479 421/470 419/468
f 423/471 433/481 419/468
f 431/480 419/468 433/481
f 434/483 435/482 431/480
f 435/482 432/479 431/480
f 436/485 437/484 435/482
f 435/482 437/484 438/486
f 436/485 439/487 437/484
f 439/487 440/488 437/484
f 433/481 441/489 431/480
f 434/483 431/480 441/489
f 429/477 430/473 442/490
f 442/490 430/473 443/491
f 434/483 444/492 435/482
f 444/492 436/485 435/482
f 445/493 439/487 444/492
f 444/492 439/487 436/485
f 442/490 443/491 446/494
f 446/494 443/491 447/495
f 448/496 446/494 445/493
f 446/494 447/495 445/493
f 441/489 449/497 434/483
f 449/497 450/492 434/483
f 444/492 449/497 445/493
f 449/497 448/496 445/493
f 438/486 432/479 435/482
f 439/487 427/476 440/488
f 443/491 430/473 451/476
f 447/495 451/476 439/487
f 447/495 443/491 451/476
f 445/493 447/495 439/487
f 452/500 453/499 454/498
f 453/499 455/501 454/498
f 456/504 457/503 458/502
f 458/502 457/503 453/499
f 459/506 460/505 454/498
f 452/500 454/498 460/505
f 461/477 458/502 452/500
f 458/502 453/499 452/500
f 460/505 459/506 462/507
f 462/507 459/506 463/508
f 452/500 464/505 461/477
f 465/496 461/477 464/505
f 466/489 465/496 462/507
f 465/496 460/505 462/507
f 467/511 468/510 469/509
f 470/512 469/509 468/510
f 468/510 471/513 470/512
f 472/514 470/512 471/513
f 456/504 473/515 457/503
f 453/499 457/503 455/501
f 474/517 463/508 475/516
f 474/517 462/507 463/508
f 476/519 475/516 477/518
f 476/519 474/517 475/516
f 478/520 462/507 474/517
f 479/521 476/519 477/518
f 478/520 466/489 462/507
f 480/522 474/517 476/519
f 480/522 478/520 474/517
f 467/511 476/519 479/521
f 467/511 480/522 476/519
f 468/510 467/511 479/521
f 469/509 480/522 467/511
usemtl texture5
f 481/525 423/524 482/523
f 482/523 423/524 422/526
f 483/528 484/527 482/523
f 484/527 481/525 482/523
f 485/530 484/527 486/529
f 486/529 484/527 483/528
f 487/533 488/532 489/531
f 488/532 490/534 489/531
f 429/536 489/531 428/535
f 489/531 490/534 428/535
f 491/538 488/532 492/537
f 492/537 488/532 487/533
f 423/524 481/525 433/539
f 481/525 493/540 433/539
f 493/540 481/525 494/541
f 484/527 494/541 481/525
f 494/541 484/527 495/542
f 485/530 495/542 484/527
f 494/541 496/543 493/540
f 496/543 497/544 493/540
f 441/545 433/539 497/544
f 493/540 497/544 433/539
f 495/542 498/546 494/541
f 498/546 496/543 494/541
f 487/533 489/531 499/547
f 499/547 489/531 500/548
f 442/549 500/548 429/536
f 500/548 489/531 429/536
f 501/550 492/537 499/547
f 492/537 487/533 499/547
f 499/547 500/548 502/551
f 502/551 500/548 503/552
f 442/549 446/553 500/548
f 503/552 500/548 446/553
f 501/550 499/547 504/554
f 504/554 499/547 502/551
f 502/551 503/552 505/555
f 505/555 503/552 506/556
f 446/553 448/557 503/552
f 506/556 503/552 448/557
f 504/554 502/551 507/558
f 507/558 502/551 505/555
f 508/560 497/544 509/559
f 496/543 509/559 497/544
f 441/545 497/544 449/561
f 497/544 508/560 449/561
f 510/562 509/559 498/546
f 498/546 509/559 496/543
f 509/559 505/555 508/560
f 505/555 506/556 508/560
f 506/556 448/557 508/560
f 508/560 448/557 449/561
f 510/562 507/558 509/559
f 507/558 505/555 509/559
f 511/565 512/564 454/563
f 512/564 513/566 454/563
f 514/569 515/568 516/567
f 516/567 515/568 517/570
f 518/573 519/572 456/571
f 519/572 473/574 456/571
f 515/568 519/572 517/570
f 517/570 519/572 518/573
f 520/576 521/575 512/564
f 512/564 521/575 513/566
f 522/578 523/577 520/576
f 520/576 523/577 521/575
f 522/578 524/579 523/577
f 524/579 525/580 523/577
f 526/582 513/566 527/581
f 513/566 521/575 527/581
f 524/579 528/583 525/580
f 528/583 529/584 525/580
f 523/577 525/580 527/581
f 527/581 525/580 530/585
f 527/581 531/586 526/582
f 531/586 532/587 526/582
f 533/588 531/586 530/585
f 530/585 531/586 527/581
f 532/587 534/589 526/582
f 526/582 534/589 463/590
f 533/588 530/585 535/591
f 529/584 535/591 530/585
f 458/594 536/593 518/592
f 536/593 517/595 518/592
f 537/537 536/593 461/536
f 536/593 458/594 461/536
f 465/597 538/596 461/536
f 538/596 537/537 461/536
f 539/599 538/596 466/598
f 538/596 465/597 466/598
f 540/602 541/601 542/600
f 542/600 541/601 543/603
f 544/605 545/604 540/602
f 540/602 545/604 541/601
f 539/599 466/598 546/606
f 546/606 466/598 478/607
f 544/605 547/608 545/604
f 547/608 548/609 545/604
f 549/611 546/606 480/610
f 546/606 478/607 480/610
f 550/613 541/601 551/612
f 541/601 545/604 551/612
f 468/614 543/603 550/613
f 543/603 541/601 550/613
f 552/616 553/615 547/608
f 547/608 553/615 548/609
f 554/618 548/609 555/617
f 548/609 553/615 555/617
f 556/619 549/611 557/120
f 549/611 480/610 557/120
f 552/616 558/620 553/615
f 558/620 559/621 553/615
f 560/623 550/613 561/622
f 550/613 551/612 561/622
f 551/612 554/618 561/622
f 554/618 562/624 561/622
f 554/618 555/617 562/624
f 555/617 563/625 562/624
f 563/625 555/617 564/626
f 555/617 559/621 564/626
f 471/627 468/614 560/623
f 468/614 550/613 560/623
f 565/630 566/629 567/628
f 566/629 568/631 567/628
f 569/632 567/628 557/573
f 568/631 557/573 567/628
f 570/634 568/631 571/633
f 571/633 568/631 566/629
f 470/635 567/628 469/571
f 567/628 569/632 469/571
f 565/630 567/628 472/636
f 567/628 470/635 472/636
f 570/634 556/570 568/631
f 556/570 557/573 568/631
f 571/633 572/637 570/634
f 572/637 573/638 570/634
f 573/638 574/567 570/634
f 574/567 556/570 570/634
f 459/639 454/563 513/566
f 527/581 521/575 523/577
f 459/639 513/566 526/582
f 529/584 528/583 535/591
f 459/639 526/582 463/590
f 530/585 525/580 529/584
f 458/594 518/592 456/640
f 536/593 516/641 517/595
f 551/612 545/604 548/609
f 551/612 548/609 554/618
f 569/643 480/610 469/642
f 557/120 480/610 569/643
f 555/617 553/615 559/621
f 564/626 559/621 558/620
f 574/644 549/611 556/619
# 847 elements

