# Created by Metasequoia

mtllib Skybox2.mtl

v -14585.277344 0.000000 -808.671387
v -14753.641602 0.000000 3047.934570
v -10072.566406 0.004700 -12.961040
v -10188.672852 0.004700 2648.563232
v -13918.129883 0.000000 6816.693359
v -9612.039063 0.004700 5249.465332
v -12135.673828 0.000000 10240.794922
v -8382.023438 0.004700 7612.462891
v -13424.450195 0.000000 -4490.278320
v -9271.376953 0.004700 -2553.683350
v -11350.336914 0.000000 -7745.994141
v -7839.957031 0.004700 -4800.513184
v -9527.710938 0.000000 13086.870117
v -6582.223633 0.004700 9576.491211
v -8504.262695 0.000000 -10353.959961
v -5875.928223 0.004700 -6600.312988
v -14004.864258 0.000000 -2649.476318
v -6271.994629 0.000000 15160.979492
v -4335.396973 0.004700 11007.910156
v -5080.159180 0.000000 -12136.417969
v -3512.929443 0.004700 -7830.327637
v -2590.386230 0.000000 16321.813477
v -1794.675049 0.004700 11809.099609
v -1311.398560 0.000000 -12971.924805
v -912.026855 0.004700 -8406.961914
v 1266.221069 0.000000 16490.164063
v 866.845032 0.004700 11925.207031
v 2545.209717 0.000000 -12803.562500
v 1749.491699 0.004700 -8290.856445
v 5034.973145 0.000000 15654.665039
v 3467.752197 0.004700 11348.573242
v 6226.812500 0.000000 -11642.733398
v 4290.217773 0.004700 -7489.665039
v 8459.082031 0.000000 13872.207031
v 5830.749512 0.004700 10118.556641
v 9482.531250 0.000000 -9568.622070
v 6537.048340 0.004700 -6058.247070
v 11305.158203 0.000000 11264.238281
v 7794.778320 0.004700 8318.754883
v 12090.496094 0.000000 -6722.547852
v 8336.846680 0.004700 -4094.216797
v 13379.266602 0.000000 8008.525879
v 9226.199219 0.004700 6071.927246
v 13872.956055 0.000000 -3298.446045
v 9566.862305 0.004700 -1731.219849
v 14540.097656 0.000000 4326.917480
v 10027.388672 0.004700 3531.204346
v 14708.458008 0.000000 470.313416
v 10143.496094 0.004700 869.682190
v -8090.685547 -463.352905 7537.692383
v -7700.513184 -246.775803 6997.576172
v -8163.465820 -246.368805 7318.243164
v -7571.197266 -464.166992 7194.279297
v -7561.708496 -249.104691 3053.491943
v -7840.693359 -468.824799 2580.154053
v -7842.758789 -249.104706 3005.759033
v -7309.621094 -468.824799 2728.307617
v -7356.904785 -246.794800 5987.925293
v -7514.958008 -247.964401 3595.274170
v -7287.125977 -466.544312 3546.181152
v -7097.029785 -464.205109 6059.891113
v -7087.048828 -468.309418 4679.806152
v -7328.841309 -248.847000 4726.185059
v -198.738968 -383.891510 -867.978882
v 136.487762 -242.677994 -942.408997
v -123.881317 -241.695602 -942.407959
v 203.704559 -385.856201 -867.980225
v 225.035263 -312.167389 -1801.483643
v 168.687469 -188.108002 -2006.731812
v 172.989456 -222.552597 -1800.741821
v 259.106201 -379.735504 -946.829285
v 187.115845 -239.115601 -986.203979
v 196.280701 -224.128601 -1388.761963
v 239.575668 -181.079803 -2326.447021
v 196.897430 -139.123596 -2329.889893
v 221.088898 -264.908997 -2013.463135
v 210.029053 -112.397911 -2660.311279
v 261.095795 -355.632385 -1377.523926
v 430.365417 -154.668701 -2648.143311
v 179.512024 -38.063400 -2994.176025
v 297.387909 -38.999901 -3258.971680
v 482.043365 -38.999901 -3336.313721
v 673.681396 -154.668701 -2725.517822
v 668.507263 -38.999901 -3322.682861
v 811.905945 -38.999901 -3358.732178
v 976.115601 -154.668701 -2994.251709
v 962.018555 -38.999901 -3404.349365
v 1096.547363 -38.999901 -3527.995850
v 1307.984741 -154.668701 -3108.674072
v 1250.823242 -38.999901 -3574.267578
v 1426.386108 -38.999901 -3540.113525
v 1604.960327 -154.668701 -3035.556641
v 1600.912354 -38.999901 -3525.364746
v 1738.702881 -38.999901 -3442.902344
v 1761.432861 -154.668701 -2591.388184
v 1822.957520 -96.834297 -2970.914795
v 1851.470215 -38.999901 -3350.441895
v 1726.510742 -334.430298 -1974.112061
v 1758.218384 -359.106903 -1393.932739
v 1811.665283 -233.779099 -1452.362061
v 1769.976440 -211.260101 -2398.072021
v 1825.792236 -129.305603 -2397.330566
v 1802.500610 -219.395294 -1985.350830
v 1813.619629 -363.020813 -1347.704956
v 1841.008789 -109.171898 -2593.989014
v 1862.293579 -235.736206 -1408.567017
v 2122.663086 -234.753799 -1408.567017
v 2158.154053 -361.056000 -1347.705566
v 2205.678711 -359.104828 -1422.932007
v 2169.209473 -233.778107 -1464.537231
v 2222.569580 -334.199310 -1996.344849
v 2280.492188 -318.211700 -2276.346680
v 2163.281982 -171.895706 -2395.284424
v 2338.057617 -309.402496 -2615.269531
v 2246.065430 -172.262604 -2688.196777
v 2418.175781 -169.446106 -2790.063477
v 2458.177734 -305.259796 -2687.285156
v 2668.917725 -304.117004 -2722.223145
v 2689.270996 -169.629593 -2854.708252
v 3189.683838 -166.969803 -2833.369873
v 3245.399414 -306.504700 -2681.788086
v 3579.177734 -300.507996 -2865.570313
v 3467.744385 -175.754807 -2986.692871
v -79792.015625 0.000000 -12306.381836
v -74443.390625 28361.105469 -11363.275391
v -80714.359375 0.000000 8818.736328
v -75303.898438 28361.105469 8345.381836
v -76137.703125 0.000000 29462.755859
v -71034.101563 28361.105469 27605.193359
v -73433.523438 0.000000 -32472.960938
v -68511.242188 28361.105469 -30177.666016
v -66373.921875 0.000000 48218.812500
v -61925.000000 28361.105469 45103.648438
v -62072.183594 0.000000 -50306.671875
v -57911.695313 28361.105469 -46815.605469
v -37371.320313 0.000000 -4826.467773
v -37803.199219 0.000000 5064.501465
v -35660.398438 0.000000 14730.187500
v -52088.402344 0.000000 63808.726563
v -48597.332031 28361.105469 59648.230469
v -34394.242188 0.000000 -14268.646484
v -46482.273438 0.000000 -64592.191406
v -43367.101563 28361.105469 -60143.261719
v -31088.855469 0.000000 23511.949219
v -29074.802734 0.000000 -22618.542969
v -24400.261719 0.000000 30811.339844
v -34254.683594 0.000000 75170.046875
v -31959.386719 28361.105469 70247.773438
v -21775.419922 0.000000 -29307.138672
v -27726.216797 0.000000 -74355.984375
v -25868.654297 28361.105469 -69252.382813
v -16050.363281 0.000000 36130.773438
v -22147.101563 0.000000 -2142.026855
v -22402.966797 0.000000 3717.108887
v -21133.687500 0.000000 9442.858398
v -12993.656250 0.000000 -33878.683594
v -18425.501953 0.000000 14644.979492
v -20383.595703 0.000000 -7735.319824
v -17232.539063 0.000000 -12681.649414
v -14088.106445 0.000000 81528.554688
v -13144.996094 28361.105469 76179.921875
v -14463.366211 0.000000 18969.070313
v -12908.444336 0.000000 -16643.783203
v -18366.189453 0.000000 -1475.349243
v -21265.347656 0.000000 -4938.673340
v -17635.103516 0.000000 -3794.072266
v -16904.021484 0.000000 -6112.797852
v -14753.641602 0.000000 3047.934570
v -13918.129883 0.000000 6816.693359
v -6608.183105 0.000000 39107.855469
v -7082.193848 0.000000 -78932.648438
v -6608.836914 28361.105469 -73522.187500
v -12135.673828 0.000000 10240.794922
v -14585.277344 0.000000 -808.671387
v -14004.865234 0.000000 -2649.476318
v -9517.035156 0.000000 22120.128906
v -13424.450195 0.000000 -4490.278320
v -7706.325195 0.000000 -19351.970703
v -9527.710938 0.000000 13086.870117
v -3327.961670 0.000000 -36021.488281
v -8504.262695 0.000000 -10353.959961
v -11350.336914 0.000000 -7745.994141
v -6271.994629 0.000000 15160.979492
v -3923.739502 0.000000 23883.632813
v -5080.159180 0.000000 -12136.417969
v -1980.571289 0.000000 -20621.255859
v -2590.386230 0.000000 16321.813477
v -1311.398560 0.000000 -12971.924805
v 7037.009277 0.000000 82450.859375
v 6563.652832 28361.105469 77040.406250
v 3282.779053 0.000000 39539.714844
v 1935.391724 0.000000 24139.496094
v 1266.221069 0.000000 16490.164063
v 2545.209717 0.000000 -12803.562500
v 6563.010254 0.000000 -35589.613281
v 3878.563232 0.000000 -20365.384766
v 6226.812500 0.000000 -11642.733398
v 14042.918945 0.000000 -78010.304688
v 13099.815430 28361.105469 -72661.679688
v 9471.855469 0.000000 -18601.880859
v 7661.140625 0.000000 22870.216797
v 5034.973145 0.000000 15654.665039
v 9482.531250 0.000000 -9568.622070
v 16005.182617 0.000000 -32612.519531
v 14418.184570 0.000000 -15450.820313
v 12948.467773 0.000000 37396.921875
v 12090.496094 0.000000 -6722.547852
v 18380.322266 0.000000 -11126.731445
v 12863.265625 0.000000 20162.033203
v 8459.082031 0.000000 13872.207031
v 21088.509766 0.000000 -5924.612793
v 13872.956055 0.000000 -3298.446045
v 24355.078125 0.000000 -27293.087891
v 14708.458008 0.000000 470.313416
v 22357.783203 0.000000 -198.858887
v 17187.357422 0.000000 16199.889648
v 11305.158203 0.000000 11264.238281
v 27681.023438 0.000000 77874.203125
v 21730.238281 0.000000 32825.378906
v 37758.011719 0.000000 -1546.256348
v 20338.408203 0.000000 11253.564453
v 13379.266602 0.000000 8008.525879
v 25823.468750 28361.105469 72770.617188
v 22101.923828 0.000000 5660.270996
v 14540.097656 0.000000 4326.917480
v 34209.500000 0.000000 -71651.804688
v 35615.218750 0.000000 -11211.944336
v 29029.625000 0.000000 26136.779297
v 31043.673828 0.000000 -19993.707031
v 66328.734375 0.000000 -44700.566406
v 31914.199219 28361.105469 -66729.523438
v 34349.054688 0.000000 17786.892578
v 52043.218750 0.000000 -60290.472656
v 46437.093750 0.000000 68110.429688
v 76092.515625 0.000000 -25944.505859
v 37326.140625 0.000000 8344.712891
v 43321.917969 28361.105469 63661.503906
v 80669.164063 0.000000 -5300.490234
v 62026.996094 0.000000 53824.910156
v 48552.152344 28361.105469 -56129.984375
v 73388.320313 0.000000 35991.191406
v 57866.503906 28361.105469 50333.843750
v 79746.835938 0.000000 15824.623047
v 61879.804688 28361.105469 -41585.394531
v 68466.046875 28361.105469 33695.894531
v 70988.921875 28361.105469 -24086.945313
v 74398.210938 28361.105469 14881.524414
v 75258.703125 28361.105469 -4827.137695
v -49856.492188 45553.527344 -7027.941406
v -41473.875000 45553.527344 30783.613281
v -29047.089844 45553.527344 -39692.156250
v -22.588961 54207.320313 1759.120239
v -8809.659180 45553.527344 51593.023438
v 8764.477539 45553.527344 -48074.777344
v 29001.906250 45553.527344 43210.394531
v 41428.691406 45553.527344 -27265.375000
v 49811.308594 45553.527344 10546.180664
v -15437.908203 -4.999900 -5429.620605
v -16967.865234 -4.999900 3241.724854
v -7730.250000 -345.902802 -1835.250366
v -7840.693359 -468.824799 2580.154053
v -13957.333984 -4.999900 11515.806641
v -8090.685547 -463.352905 7537.692383
v -9777.450195 -4.999900 -12174.750000
v -4900.017090 -123.218300 -5207.813965
v -3894.702393 -469.979675 4155.161133
v -4855.108887 -467.096588 2747.067383
v -7087.048828 -468.309387 4679.806152
v -7287.125977 -466.544312 3546.181152
v -7213.001465 -4.999900 17175.595703
v -1503.163330 -4.999900 -15186.317383
v -1326.433594 -123.218300 -6839.072266
v -4404.296387 -463.430145 1118.560425
v -7309.621094 -468.824799 2728.307617
v -3617.793701 -463.430115 9467.356445
v -7571.197266 -464.166992 7194.279297
v -3721.804688 -463.430145 6179.615234
v -7097.029785 -464.205109 6059.891113
v -1942.609985 -463.430115 2758.876465
v -1893.804077 -463.430115 4090.366699
v -3107.899170 -293.324188 -2295.048584
v -1908.020630 -401.216400 -638.343018
v -2091.923828 -463.430115 761.776794
v -2104.369141 -330.391602 -1909.391357
v -1923.346313 -338.019287 -1633.043213
v 1457.984863 -4.999900 18704.554688
v 717.698242 -463.430145 10231.836914
v -1795.419434 -463.430115 5998.625000
v -2242.335938 -301.518707 -2554.812256
v -1589.568726 -345.647003 -1424.429565
v -820.913696 -400.591797 -608.079529
v -988.842468 -343.259308 -1443.653931
v 374.270050 -463.430145 796.885986
v 621.566589 -463.430115 2528.503906
v -256.527588 -380.336914 -966.679443
v -583.840149 -344.677887 -1639.479126
v 653.184021 -463.430115 3862.008545
v 987.183228 -463.430115 5280.998535
v -271.008057 -355.401215 -1399.753418
v -432.919830 -340.194000 -1780.095947
v -264.842377 -344.791290 -1730.837524
v -198.738968 -383.891510 -867.978821
v -301.065765 -334.108795 -1801.254272
v 543.593323 -401.216400 -449.994354
v 203.704559 -385.856201 -867.980225
v 975.773132 -277.684631 -2069.631104
v 221.088898 -264.908997 -2013.463135
v 225.035263 -312.167389 -1801.483765
v 239.575668 -181.079803 -2326.447021
v 1008.662231 -386.920135 -1171.380737
v 261.095795 -355.632385 -1377.523926
v 259.106201 -379.735504 -946.829285
v 430.365448 -154.668701 -2648.143311
v 900.185730 -463.430115 743.609985
v 740.105286 -438.773804 229.888168
v 673.681396 -154.668701 -2725.517822
v 1116.740356 -463.430084 2485.920654
v 976.115601 -154.668701 -2994.251709
v 1471.776245 -389.461212 -904.108032
v 1307.984741 -154.668701 -3108.674072
v 1758.218384 -359.106903 -1393.932739
v 1604.960327 -154.668701 -3035.556641
v 1761.432861 -154.668701 -2591.388184
v 2142.547119 -438.773804 87.818481
v 1726.510742 -334.430298 -1974.112061
v 1769.976440 -211.260101 -2398.072021
v 2862.901367 -463.430145 5573.867676
v 1813.619629 -363.020813 -1347.704956
v 2158.154053 -361.056000 -1347.705566
v 2637.016846 -377.705902 -981.152222
v 2205.678711 -359.104797 -1422.932007
v 3523.812012 -282.157501 -1939.305786
v 2280.492188 -318.211700 -2276.346680
v 2222.569580 -334.199310 -1996.344849
v 4854.839355 -249.999893 8726.054688
v 2668.917725 -304.117004 -2722.223145
v 2458.177734 -305.259796 -2687.285156
v 2558.187744 -463.430115 3546.706543
v 2602.261963 -463.430084 2358.171387
v 3245.399414 -306.504700 -2681.788086
v 7167.820801 -4.999900 -13657.356445
v 3024.068115 -123.218300 -5235.864258
v 4933.070313 -249.999893 3284.586182
v 2477.932861 -463.430084 583.781860
v 3760.200928 -281.463806 -3143.919922
v 3579.177734 -300.507996 -2865.570313
v 4410.604980 -186.609116 -2897.459717
v 3898.168213 -250.959900 -3789.340576
v 4953.589355 -249.999908 596.709656
v 6944.785156 -286.727203 -3119.224854
v 2338.057617 -309.402496 -2615.269531
v 7685.070313 -249.999908 5353.488770
v 5059.761230 -249.999893 2146.121094
v 9732.263672 -4.999900 15692.992188
v 8450.048828 -249.999893 1017.816711
v 13912.155273 -4.999900 -7997.571289
v 15392.729492 -4.999900 8947.858398
v 16922.673828 -4.999900 276.514374
v -9033.330078 124.149002 6248.411621
v -9055.509766 279.193054 6533.239746
v -9087.418945 173.679153 6220.261719
v -9104.947266 332.913879 6505.856445
v -9087.418945 -29.384550 6220.261719
v -9063.350586 -29.384550 6722.748047
v -9054.091797 26.892750 6224.799316
v -9044.888672 36.714001 6720.025391
v -9114.499023 711.548462 6215.487305
v -9033.236328 612.567871 5688.831543
v -9060.291016 64.888496 5966.848633
v -9020.612305 -29.384550 5695.674316
v -9042.951172 1112.621948 6735.065430
v -9042.409180 1160.573364 6228.198242
v -9026.385742 1356.658936 6740.149414
v -9042.369141 627.645325 6808.126953
v -8996.326172 535.285034 6826.075195
v -8974.192383 1042.484985 5703.859863
v -9050.557617 17.391001 5974.895996
v -8987.788086 28.488001 5986.970703
v -8994.215820 57.182251 6235.226074
v -8998.869141 72.428253 6721.311035
v -8955.343750 1515.786377 6243.550293
v -8930.161133 1621.730713 6735.349121
v -8930.971680 676.227112 7068.753418
v -8902.305664 579.157043 7054.041016
v -8884.399414 1353.822266 5719.692383
v -8867.118164 490.202545 5031.615234
v -8867.918945 -29.384550 5036.156250
v -8854.741211 658.603516 6851.003906
v -8867.812500 415.150940 6420.229004
v -8834.598633 -12.635550 5608.227539
v -8822.003906 936.724365 5035.521484
v -8838.912109 -12.981900 6840.692871
v -8729.801758 -29.384550 7179.120117
v -8718.288086 37.240349 7156.127441
v -8832.862305 1623.395142 6240.752930
v -8823.438477 1717.827393 6708.747070
v -8739.414063 1140.327881 7245.658691
v -8722.381836 1381.750244 7231.220215
v -8691.157227 79.388397 7111.053711
v -8762.383789 1475.414307 5741.207520
v -8735.729492 1244.586182 5048.709473
v -8668.765625 1630.115967 7187.085938
v -8727.103516 568.054626 7218.030273
v -8724.295898 533.962646 7150.457031
v -8617.154297 1719.300049 7128.057129
v -8624.735352 -29.384550 4505.935547
v -8624.226563 485.175385 4503.051758
v -8600.581055 1346.607178 5070.513672
v -8680.290039 1112.467163 4768.457520
v -8720.421875 954.485474 4762.394043
v -8287.829102 1690.278564 6336.856934
v -8367.577148 1784.710938 6789.128418
v -8200.276367 1542.316528 5840.321777
v -8350.368164 441.551086 3969.597656
v -8382.316406 -29.384550 3964.596680
v -8174.306152 1140.327881 7345.302734
v -8185.372559 1381.750244 7325.909180
v -8741.588867 661.583069 7245.971191
v -8172.369141 661.583069 7346.340332
v -8720.015625 982.812927 7219.359863
v -8183.539551 1008.480286 7313.955566
v -8176.425293 568.054626 7315.129883
v -8179.937988 533.962646 7246.441895
v -8220.661133 1630.115967 7266.099121
v -8160.581543 -29.384550 7279.488770
v -8163.536621 37.240349 7253.944824
v -8173.614746 79.388397 7202.310547
v -8456.132813 2145.754639 3199.001953
v -8419.511719 2260.646484 3230.358887
v -8439.366211 2166.484863 3134.172852
v -8403.691406 2280.947510 3185.482178
v -7930.954102 658.603516 7013.892090
v -7942.302734 -12.981900 6998.789551
v -8080.702148 1413.509888 5162.182617
v -8361.384766 2291.789551 3234.160156
v -8355.763672 2306.660645 3223.531982
v -8262.317383 1773.776001 3072.799805
v -8298.024414 1760.570313 3148.552002
v -7771.337402 415.150940 6613.567383
v -8031.277832 1309.044189 4881.882813
v -8519.990234 1242.141724 4795.709473
v -7524.827148 -12.635550 5839.175781
v -8411.230469 1055.839966 4536.560059
v -7983.681152 1122.742432 4611.948242
v -7884.781250 649.136963 4051.059570
v -8208.669922 582.235046 3993.948730
v -7753.828613 2136.228760 3308.392578
v -7902.740234 1725.956055 3232.896729
v -7742.795898 1623.395142 6432.960938
v -7911.713867 1717.827393 6869.508789
v -7730.000488 2134.902100 3173.258057
v -8262.317383 1773.776123 3072.799805
v -7853.515137 1735.995605 3062.314697
v -7749.559570 2162.764648 3284.180420
v -7928.030762 676.227112 7211.884277
v -7949.936035 579.157043 7188.254883
v -7735.958008 2162.101074 3207.041748
v -7820.526855 1621.730713 6931.007813
v -8248.970703 1719.300049 7192.978027
v -7731.747070 1356.658936 6968.429199
v -8004.863281 500.043365 3767.179688
v -7839.855957 566.945557 3796.274902
v -7638.169434 1475.414307 5939.436523
v -7707.477051 36.714001 6955.847168
v -7751.161133 72.428253 6941.315430
v -8067.534668 -29.384550 3482.184326
v -8029.873535 354.196381 3259.225586
v -7851.000000 -29.384550 3094.869141
v -7834.519531 346.445251 2947.602295
v -7691.059570 -29.384550 6964.719727
v -7876.177246 784.477173 3404.789551
v -7850.954102 1243.195923 3294.324951
v -8009.523926 737.777283 3134.447021
v -7977.347168 1234.745239 3067.351807
v -7817.794434 722.275208 2872.840332
v -7805.436523 1230.171753 2867.495850
v -7934.374023 572.532898 3569.386230
v -7805.549316 616.435791 3601.713379
v -7560.822754 1346.607178 5253.851074
v -7739.976563 627.645325 7037.773926
v -7789.381836 535.285034 7038.892090
v -7542.564941 1242.141724 4968.056152
v -7633.612305 279.193054 6783.958496
v -7556.131348 1055.839966 4687.336914
v -7628.657227 1515.786377 6477.480957
v -7657.750000 1237.367920 3328.392090
v -7671.829102 784.477173 3440.821533
v -7681.587402 1705.337891 3312.211670
v -7823.020508 1705.337891 3287.273438
v -7674.848145 500.043365 3825.370361
v -7673.436523 572.532898 3615.396484
v -7560.892090 582.235046 4108.169922
v -7554.607422 346.445251 2996.958496
v -7589.488770 -29.384550 3140.980713
v -7589.282715 57.182251 6482.953613
v -7544.753418 722.275208 2920.984863
v -7577.790039 332.913879 6775.135742
v -7554.537598 1230.171753 2911.736328
v -7541.591797 1160.573364 6492.832520
v -7529.451172 26.892750 6493.634766
v -7516.152344 1353.822266 5960.951660
v -7469.500977 711.548462 6505.543457
v -7714.441895 1112.621948 6969.317871
v -7496.582031 -29.384550 6500.769043
v -7510.414551 28.488001 6247.471680
v -7557.037109 124.149002 6508.721680
v -7496.582031 173.679153 6500.769043
v -7461.350098 1234.745239 3158.335938
v -7454.062012 737.777283 3232.389648
v -7426.368164 1244.586182 5279.584961
v -7518.481934 -29.384399 3578.997070
v -7477.615723 354.196350 3356.603516
v -7426.360352 1042.484985 5976.784180
v -7447.300781 17.391001 6257.593262
v -7365.736816 612.567871 5982.856934
v -7157.524902 2291.789551 3446.433350
v -7159.171387 2306.660645 3434.523438
v -7101.603027 2260.646484 3462.741699
v -7100.374023 2279.306152 3414.646729
v -7340.786133 936.724365 5296.699707
v -7435.401367 64.888496 6253.360840
v -7379.939941 -29.384550 5984.969238
v -7056.465332 2145.754639 3445.801270
v -7187.782715 1760.570313 3344.317627
v -7588.077148 1725.956055 3288.380371
v -7050.767090 2168.126465 3379.666016
v -7195.428223 1773.776123 3260.921143
v -7575.990723 1735.995605 3111.249756
v -7344.520508 485.175385 4728.698730
v -7345.028320 -29.384550 4731.582520
v -7419.411133 441.551086 4133.750488
v -7387.679199 -29.384550 4139.978027
v -7382.611816 1112.467163 4997.273438
v -7342.826660 954.485474 5005.301270
v -7297.055664 490.202545 5308.459473
v -7297.856445 -29.384550 5313.000977
v -7195.428223 1773.776001 3260.921143
v -9029.105469 947.833923 6759.340332
v -8577.950195 933.908691 4505.167969
v -8433.062500 1731.823975 7160.517090
v -8185.717773 376.865723 3735.606934
v -7964.985840 1353.832764 3087.216797
v -8067.609375 436.786346 3522.238525
v -7961.978027 1392.771484 3154.109619
v -7918.417480 1404.370117 3029.067627
v -7735.754395 973.500977 6987.394043
v -7778.222656 1737.435547 2975.775635
v -7753.829590 2136.228760 3308.392578
v -7730.001465 2134.902100 3173.258057
v -7617.144531 1737.435547 3004.177979
v -7532.111816 436.786346 3616.661377
v -7505.464844 1392.771484 3234.605225
v -7494.101563 376.865723 3857.557861
v -7503.632324 1404.370117 3102.205322
v -7419.410645 441.551056 4133.750488
v -7542.565430 1242.141724 4968.056152
v -7388.729980 933.908691 4714.859863
v -7479.759277 1353.832764 3172.775391
v -7713.406738 -246.775772 6976.056152
v -8172.061035 -246.368713 7296.722168
v -7572.047852 -249.104691 3068.969482
v -7842.759766 -249.104691 3021.235596
v -7525.296875 -247.964386 3597.829590
v -7518.481934 -29.384550 3578.997070
v -8099.282227 -463.352844 7516.173828
v -7584.091309 -464.167084 7172.760254
v -7840.694336 -468.824829 2595.630615
v -7319.959473 -468.824829 2743.785889
v -7372.838867 -246.794891 5983.913574
v -7344.773926 -248.846954 4730.140625
v -7297.463867 -466.544250 3548.737061
v -7112.963379 -464.204987 6055.880371
v -7297.856934 -29.384550 5313.000977
v -7102.980957 -468.309326 4683.761230
v -21231.146484 1429.172852 -368.852936
v -19058.904297 1533.777344 -595.596558
v -21170.576172 1598.031128 -570.235107
v -19223.966797 1738.646362 -949.208923
v -21291.718750 1010.610229 -167.473251
v -18902.820313 885.447876 -246.247894
v -21961.744141 1393.271973 -2038.217896
v -22049.046875 1613.811157 -1530.075317
v -15920.531250 1447.976807 -3225.372559
v -16280.267578 1763.244385 -1917.836670
v -21896.199219 987.330811 -2397.595459
v -15696.418945 1115.691040 -3481.556885
v -16531.285156 1451.868530 -38.220181
v -16731.132813 1793.288452 -977.389099
v -16370.623047 1036.672852 248.907471
v -14819.352539 1356.470947 60.084370
v -15618.624023 1660.918213 -755.862244
v -15167.683594 1699.002075 -1054.281006
v -16319.687500 2013.391846 -1214.693970
v -16480.941406 1964.148071 -1055.754150
v -15313.601563 1668.312866 -1512.990845
v -16383.277344 1903.792847 -1579.550781
v -14553.496094 937.721375 265.703949
v -14495.935547 1109.206543 -3060.694336
v -14735.614258 1397.010742 -2852.806396
v -13677.220703 1427.984741 -491.556305
v -14445.408203 1244.112549 -1549.665771
v -14019.601563 1102.722046 -2482.577393
v -14274.848633 1346.044556 -2322.988770
v -14159.038086 1089.753052 -1612.668213
v -13417.086914 1080.137573 -496.899139
v -38061.964844 6942.177734 4747.181641
v -39631.011719 6462.308105 2769.948730
v -41180.042969 10092.278320 7147.287109
v -41705.246094 8818.751953 4793.086426
v -39932.402344 2512.507813 -506.127838
v -42129.507813 6419.357910 1646.071899
v -38229.539063 2512.507813 1334.314819
v -39969.175781 11105.555664 10856.187500
v -36715.472656 7103.426758 8157.084961
v -36568.527344 2665.556396 3359.134033
v -34747.433594 8271.184570 12569.465820
v -39335.539063 11109.113281 14690.062500
v -35504.410156 3324.709961 7213.784668
v -33139.625000 3324.709961 11386.602539
v -29237.234375 2842.549316 25324.466797
v -27739.839844 3212.605225 27346.730469
v -28866.349609 2237.353516 25336.492188
v -27514.097656 2093.550293 27370.796875
v -28120.328125 3163.867920 28609.769531
v -28006.240234 2093.550293 28540.140625
v -42747.421875 2512.507813 -1148.875488
v -34039.246094 7417.020020 17041.833984
v -38049.289063 9852.441406 17922.849609
v -33061.191406 5104.736328 21330.501953
v -34935.597656 7322.745117 20752.937500
v -32496.519531 2571.668701 17142.943359
v -33166.914063 5014.626953 24120.386719
v -31452.871094 2478.870850 21861.158203
v -18818.048828 631.361511 -328.974640
v -21268.732422 743.044495 -178.993164
v -21272.980469 373.429199 -114.661919
v -18768.470703 244.996399 -260.375275
v -18704.507813 0.000000 28.145491
v -21308.720703 0.000000 89.842407
v -15744.797852 502.611908 -3546.056152
v -21880.001953 477.359406 -2417.410889
v -15653.321289 820.462280 -3061.364014
v -21879.566406 724.192017 -2364.232666
v -21897.933594 0.000000 -2610.303467
v -15598.130859 0.000000 -3785.445801
v -16341.986328 696.776001 166.600677
v -16380.197266 360.837402 216.860321
v -16336.974609 0.000000 461.690399
v -14566.125977 353.908813 302.044281
v -14582.375977 664.750183 241.684906
v -14435.279297 0.000000 507.836639
v -14570.652344 509.800812 -3150.260742
v -14582.602539 814.609619 -3067.980469
v -14385.295898 0.000000 -3352.971680
v -14120.658203 516.989807 -2597.214111
v -14132.626953 808.756897 -2513.484131
v -13896.615234 0.000000 -2763.248535
v -14312.775391 531.367615 -1777.442261
v -14324.766602 797.051514 -1690.803711
v -14011.345703 0.000000 -1870.114014
v -13499.002930 879.242188 -421.426605
v -13537.576172 499.080902 -414.751007
v -13364.050781 0.000000 -391.867981
v -41772.820313 9929.998047 6930.078613
v -41519.691406 12625.308594 7891.646973
v -40941.343750 12636.382813 8029.643555
v -42880.542969 -1.063400 -1808.865112
v -42801.664063 686.162170 -1301.633911
v -39863.363281 -1.063400 -996.481201
v -39835.015625 686.162170 -531.655457
v -39854.878906 1470.382935 -357.609222
v -42770.976563 1470.382935 -1085.169678
v -41284.656250 14647.865234 8863.578125
v -40720.718750 14584.356445 8922.380859
v -40916.398438 16505.777344 10542.422852
v -40366.878906 16367.686523 10522.028320
v -40437.160156 17767.558594 12594.952148
v -39902.058594 17554.886719 12495.353516
v -39437.074219 13340.312500 14334.034180
v -39428.808594 15265.659180 14347.732422
v -39928.070313 18654.033203 14900.447266
v -39368.031250 18316.404297 14716.897461
v -39351.777344 17259.404297 14703.478516
v -39881.835938 15235.851563 14918.819336
v -39879.058594 13309.783203 14905.918945
v -39826.882813 17231.041016 15272.986328
v -39766.492188 10939.050781 15262.734375
v -39821.042969 18372.818359 15285.226563
v -37171.820313 -1.063400 703.952881
v -35515.914063 -1.063400 2597.994385
v -34508.957031 -1.063400 6657.664551
v -32014.509766 -1.063400 10812.791992
v -33381.445313 6621.874023 24805.070313
v -32620.468750 6734.536621 24696.179688
v -33969.351563 4898.109863 24126.285156
v -32633.591797 8439.864258 25515.009766
v -31964.792969 8333.746094 25293.142578
v -31361.193359 -1.063400 16830.681641
v -31586.166016 10010.926758 26609.005859
v -30887.390625 9778.138672 26345.650391
v -30047.982422 -1.063400 21775.082031
v -29200.568359 5227.948730 27684.630859
v -29204.902344 7152.287598 27782.871094
v -30171.812500 11214.278320 28126.281250
v -29546.265625 10922.455078 27634.669922
v -29067.119141 8882.176758 28030.853516
v -28627.322266 10162.239258 28574.017578
v -27703.525391 488.028503 25931.583984
v -28446.757813 1056.883057 25986.183594
v -29120.357422 11456.833008 29089.095703
v -28743.339844 11155.252930 28520.675781
v -29312.304688 5166.122070 28532.855469
v -29319.318359 7077.371582 28539.779297
v -29148.968750 8800.715820 28744.302734
v -28676.619141 10074.233398 29243.998047
v -28888.306641 11165.065430 29175.082031
v -28709.916016 1689.911011 27896.486328
v -28981.386719 1056.883057 27948.398438
v -28217.773438 1689.911011 26727.146484
v -28338.654297 1056.883057 26961.099609
v -28505.580078 1468.136841 25398.808594
v -27617.023438 488.028503 27167.005859
v -28259.761719 488.028503 28154.300781
v -26521.263672 -1.063400 28454.376953
v -26029.119141 -1.063400 27285.035156
v -26487.384766 -1.063400 25933.222656
v -29067.119141 8882.176758 28030.855469
v -28627.324219 10162.239258 28574.017578
# 728 vertices

vt 0.80000 0.00010
vt 0.59990 0.06260
vt 0.80000 0.06260
vt 0.59990 0.00010
vt 0.40000 0.06260
vt 0.40000 0.00010
vt 0.19990 0.00010
vt 0.19990 0.06200
vt 0.24990 1.43760
vt 0.00000 1.50010
vt 0.00000 1.43760
vt 0.24990 1.50010
vt 0.00000 0.06200
vt 0.00000 0.00010
vt 0.49990 1.50010
vt 0.49990 1.43760
vt 0.90000 0.06260
vt 0.99990 0.06260
vt 0.99990 0.00010
vt 4.99990 1.43760
vt 4.69990 1.50010
vt 4.69990 1.43760
vt 4.99990 1.50010
vt 0.74990 1.43760
vt 0.74990 1.50010
vt 4.40000 1.50010
vt 4.40000 1.43760
vt 0.99990 1.50010
vt 0.99990 1.43760
vt 4.09990 1.43760
vt 4.09990 1.50010
vt 1.24990 1.50010
vt 1.24990 1.43760
vt 3.79990 1.43760
vt 3.79990 1.50010
vt 1.49990 1.43760
vt 1.49990 1.50010
vt 3.49950 1.50010
vt 3.49950 1.43760
vt 1.74990 1.43760
vt 1.74990 1.50010
vt 3.24950 1.43760
vt 3.24950 1.50010
vt 1.99990 1.50010
vt 1.99990 1.43760
vt 2.99990 1.50010
vt 2.99990 1.43760
vt 2.24990 1.43760
vt 2.24990 1.50010
vt 2.74950 1.50010
vt 2.74950 1.43760
vt 2.49990 1.50010
vt 2.49990 1.43760
vt 2.99120 -6.09760
vt 3.04800 -5.97760
vt 3.03200 -6.13360
vt 3.09760 -6.00240
vt 2.54800 -5.17840
vt 2.49840 -5.09120
vt 2.61120 -5.15520
vt 2.62400 -5.05840
vt 2.99920 -5.73040
vt 2.68480 -5.26000
vt 2.72560 -5.22320
vt 3.06080 -5.71440
vt 2.85600 -5.46960
vt 2.90000 -5.43120
vt 3.66480 -3.43920
vt 3.69120 -3.42560
vt 3.65360 -3.48400
vt 3.73600 -3.43680
vt 3.18240 -3.22960
vt 3.04400 -3.10160
vt 3.22240 -3.20080
vt 3.68320 -3.41680
vt 3.73040 -3.39360
vt 3.42320 -3.39680
vt 2.86960 -2.90800
vt 2.89600 -2.88640
vt 3.09200 -3.07200
vt 2.76160 -2.69520
vt 3.46000 -3.35440
vt 2.64800 -2.39120
vt 2.90400 -2.55440
vt 2.62240 -2.19520
vt 2.72160 -2.08720
vt 3.10640 -2.38160
vt 2.85920 -2.03200
vt 2.94560 -1.96160
vt 3.21120 -2.12080
vt 3.03360 -1.88400
vt 3.07840 -1.76480
vt 3.39920 -1.94000
vt 3.16880 -1.68560
vt 3.30640 -1.64560
vt 3.63920 -1.88240
vt 3.43600 -1.59520
vt 3.56720 -1.59680
vt 3.79200 -1.82960
vt 3.88400 -2.31280
vt 3.68480 -1.61280
vt 4.02240 -3.09920
vt 3.99120 -3.14560
vt 4.01040 -2.70320
vt 4.04800 -2.48080
vt 4.01120 -2.50080
vt 4.04640 -2.68240
vt 4.00800 -3.14880
vt 3.92640 -2.29200
vt 4.03520 -3.09520
vt 4.05040 -3.08480
vt 4.07840 -3.10800
vt 4.07920 -3.08720
vt 4.05360 -3.06800
vt 4.01520 -2.96800
vt 3.93840 -2.89760
vt 3.99440 -2.90400
vt 3.91840 -2.82000
vt 3.96560 -2.82720
vt 3.93520 -2.75840
vt 3.98160 -2.79840
vt 4.02080 -2.76640
vt 3.99600 -2.71840
vt 4.10000 -2.66320
vt 4.14320 -2.70720
vt 4.19040 -2.62960
vt 4.14400 -2.61600
vt 3.99990 2.50190
vt 3.74990 2.99600
vt 3.74990 2.50190
vt 3.99990 2.99600
vt 4.24990 2.50190
vt 4.24990 2.99600
vt 3.49990 2.50190
vt 3.49990 2.99600
vt 4.49990 2.99600
vt 4.49990 2.50190
vt 3.24990 2.99600
vt 3.24990 2.50190
vt 0.80000 -0.81240
vt 0.59990 -0.74990
vt 0.80000 -0.74990
vt 0.59990 -0.81240
vt 0.40000 -0.74990
vt 0.40000 -0.81240
vt 4.74990 2.50190
vt 4.74990 2.99600
vt 0.99990 -0.81240
vt 0.99990 -0.74990
vt 2.99990 2.99600
vt 2.99990 2.50190
vt 0.19990 -0.74990
vt 0.19990 -0.81290
vt 0.24990 0.31260
vt 0.00000 0.25010
vt 0.24990 0.25010
vt 0.00000 0.31260
vt 0.00000 -0.74990
vt 0.00000 -0.81290
vt 4.99990 2.50190
vt 4.99990 2.99600
vt 0.49990 0.31260
vt 0.49990 0.25010
vt 2.74990 2.50190
vt 2.74990 2.99600
vt 4.99990 0.31260
vt 4.69990 0.25010
vt 4.99990 0.25010
vt 4.69990 0.31260
vt 0.80000 -0.87490
vt 0.59990 -0.87490
vt 0.40000 -0.87490
vt 0.74990 0.31260
vt 0.74990 0.25010
vt 0.19990 -0.87490
vt 0.00000 0.37510
vt 0.24990 0.37510
vt 5.24990 2.99600
vt 5.24990 2.50190
vt 0.00000 -0.87490
vt 0.49990 0.37510
vt 0.90000 -0.87490
vt 0.80000 -0.90620
vt 0.90000 -0.90620
vt 0.99990 -0.90620
vt 0.99990 -0.87490
vt 0.59990 -0.93740
vt 0.40000 -0.93740
vt 4.40000 0.25010
vt 4.40000 0.31260
vt 2.49990 2.99600
vt 2.49990 2.50190
vt 0.19990 -0.93800
vt 0.80000 -0.93740
vt 0.90000 -0.93740
vt 4.69990 0.37510
vt 4.99990 0.37510
vt 0.99990 -0.93740
vt 0.74990 0.37510
vt 0.00000 -0.93800
vt 0.99990 0.31260
vt 0.99990 0.25010
vt 0.49990 0.43760
vt 0.24990 0.43760
vt 0.00000 0.40630
vt 4.69990 0.43760
vt 4.99990 0.43760
vt 4.40000 0.37510
vt 0.74990 0.43760
vt 0.00000 0.43760
vt 0.99990 0.37510
vt 4.40000 0.43760
vt 0.99990 0.43760
vt 5.49990 2.50190
vt 5.49990 2.99600
vt 4.09990 0.25010
vt 4.09990 0.31260
vt 4.09990 0.37510
vt 4.09990 0.43760
vt 1.24990 0.43760
vt 1.24990 0.31260
vt 1.24990 0.37510
vt 1.49990 0.43760
vt 1.24990 0.25010
vt 2.24990 2.99600
vt 2.24990 2.50190
vt 1.49990 0.37510
vt 3.79990 0.37510
vt 3.79990 0.43760
vt 1.74990 0.43760
vt 1.49990 0.31260
vt 1.74990 0.37510
vt 3.79990 0.31260
vt 1.99990 0.43760
vt 1.99990 0.37510
vt 3.49950 0.43760
vt 3.49950 0.37510
vt 2.24990 0.43760
vt 2.24990 0.37510
vt 1.74990 0.31260
vt 2.49990 0.37510
vt 2.49990 0.43760
vt 3.24950 0.37510
vt 3.24950 0.43760
vt 3.79990 0.25010
vt 3.49950 0.31260
vt 2.49990 0.31260
vt 2.99990 0.43760
vt 2.99990 0.37510
vt 5.74990 2.50190
vt 5.74990 2.99600
vt 2.74950 0.43760
vt 2.74950 0.37510
vt 1.49990 0.25010
vt 2.24990 0.31260
vt 3.24950 0.31260
vt 1.99990 0.31260
vt 1.99990 0.25010
vt 1.99990 2.50190
vt 1.99990 2.99600
vt 2.99990 0.31260
vt 1.74990 0.25010
vt 3.49950 0.25010
vt 2.24990 0.25010
vt 2.74950 0.31260
vt 5.99990 2.99600
vt 5.99990 2.50190
vt 2.49990 0.25010
vt 3.24950 0.25010
vt 1.74990 2.99600
vt 1.74990 2.50190
vt 2.99990 0.25010
vt 0.24990 2.50190
vt 0.00000 2.99600
vt 0.00000 2.50190
vt 0.24990 2.99600
vt 2.74950 0.25010
vt 1.49990 2.99600
vt 1.49990 2.50190
vt 0.49990 2.50190
vt 0.49990 2.99600
vt 1.24990 2.50190
vt 1.24990 2.99600
vt 0.74990 2.99600
vt 0.74990 2.50190
vt 0.99990 2.50190
vt 0.99990 2.99600
vt 0.58610 1.17840
vt 0.49990 1.33350
vt 0.49990 1.16700
vt 0.66650 1.21160
vt 0.41380 1.17840
vt 0.73540 1.26460
vt 0.61770 1.38230
vt 0.33340 1.21160
vt 0.38220 1.38230
vt 0.78840 1.33350
vt 0.26450 1.26460
vt 0.82160 1.41390
vt 0.21150 1.33350
vt 0.66650 1.50010
vt 0.83300 1.50010
vt 0.33340 1.50010
vt 0.17830 1.41390
vt 0.82160 1.58620
vt 0.16690 1.50010
vt 0.61770 1.61780
vt 0.78840 1.66660
vt 0.38220 1.61780
vt 0.17830 1.58620
vt 0.49990 1.66660
vt 0.73540 1.73550
vt 0.21150 1.66660
vt 0.66650 1.78850
vt 0.58610 1.82170
vt 0.26450 1.73550
vt 0.33340 1.78850
vt 0.49990 1.83310
vt 0.41380 1.82170
vt 2.00000 -4.17520
vt 0.71040 -6.30320
vt 0.00000 -4.35040
vt 2.30240 -7.64000
vt 2.18000 -3.15200
vt 0.36080 -2.30320
vt 3.12800 -4.77280
vt 3.49120 -4.94720
vt 4.34960 -8.00000
vt 2.71840 -2.39680
vt 1.69680 -0.71120
vt 3.02800 -4.38640
vt 4.17440 -6.00080
vt 3.76480 -5.34080
vt 3.72480 -4.43120
vt 3.89200 -4.69760
vt 3.33120 -3.73280
vt 2.89040 -3.53600
vt 3.45920 -4.04080
vt 3.14560 -3.46880
vt 3.21520 -3.50400
vt 6.30240 -7.28960
vt 5.15120 -5.64480
vt 4.13760 -5.07600
vt 3.04080 -3.35280
vt 3.30800 -3.50720
vt 3.55680 -3.61040
vt 3.42800 -3.43200
vt 3.96720 -3.75680
vt 4.22240 -4.08160
vt 3.63040 -3.47040
vt 3.48800 -3.34480
vt 4.38560 -4.35040
vt 4.62160 -4.60080
vt 3.50240 -3.29760
vt 3.57600 -3.38400
vt 3.54240 -3.28800
vt 3.52640 -3.27840
vt 3.85440 -3.48160
vt 3.67200 -2.80800
vt 3.86480 -3.28000
vt 3.97520 -3.59760
vt 4.06800 -3.68400
vt 4.31840 -4.01440
vt 3.99040 -3.27920
vt 4.24480 -3.40320
vt 5.04000 -4.44000
vt 4.22000 -3.12640
vt 4.28800 -2.82560
vt 5.81920 -4.84880
vt 4.73840 -4.06160
vt 4.60720 -3.81280
vt 3.79680 -2.21120
vt 3.64960 0.00000
vt 5.19280 -3.72720
vt 4.37200 -3.46480
vt 4.35600 -2.52560
vt 4.19440 -2.55200
vt 4.14640 -2.40320
vt 4.88000 -3.17520
vt 4.84800 -2.18080
vt 5.99920 -3.82560
vt 5.08400 -3.48000
vt 7.63840 -5.69760
vt 5.64400 -2.84880
vt 5.69680 -0.36080
vt 7.99920 -3.65040
vt 7.28880 -1.69760
vt 0.26560 -0.95710
vt 0.20700 -0.93360
vt 0.24990 -0.96490
vt 0.21480 -0.91800
vt 0.23360 -0.97770
vt 0.16400 -1.00000
vt 0.25840 -1.00000
vt 0.16400 -0.98440
vt 0.32030 -0.98320
vt 0.38030 -0.81650
vt 0.28020 -0.81260
vt 0.36940 -1.00000
vt 0.28020 -0.65630
vt 0.18550 -0.71880
vt 0.18550 -0.64070
vt 0.17180 -0.89460
vt 0.17960 -0.88290
vt 0.38030 -0.65630
vt 0.28510 -0.98050
vt 0.30070 -0.98830
vt 0.23430 -0.96490
vt 0.16400 -0.96880
vt 0.28020 -0.54690
vt 0.18550 -0.54690
vt 0.13280 -0.83990
vt 0.13280 -0.86330
vt 0.38030 -0.54690
vt 0.50390 -0.81650
vt 0.50390 -1.00000
vt 0.09370 -0.96100
vt 0.04680 -0.96100
vt 0.23040 -1.00000
vt 0.50390 -0.65630
vt 0.10540 -0.99610
vt 0.09760 -0.98440
vt 0.05460 -1.00000
vt 0.27340 -0.50010
vt 0.17960 -0.50010
vt 0.09760 -0.71880
vt 0.09760 -0.64070
vt 0.09760 -0.96880
vt 0.37490 -0.50010
vt 0.50390 -0.54690
vt 0.09760 -0.54690
vt 0.09760 -0.84770
vt 0.09760 -0.87110
vt 0.09760 -0.50010
vt 0.61320 -1.00000
vt 0.61320 -0.82040
vt 0.50780 -0.50010
vt 0.57810 -0.57820
vt 0.57030 -0.66410
vt 0.27340 -0.37110
vt 0.20220 -0.37030
vt 0.37490 -0.37110
vt 0.74210 -0.79690
vt 0.73470 -1.00000
vt 0.00390 -0.64070
vt 0.00390 -0.71880
vt 0.00390 -0.76180
vt 0.09760 -0.83210
vt 0.00390 -0.83210
vt 0.09760 -0.76180
vt 0.00390 -0.84770
vt 0.00390 -0.87110
vt 0.00390 -0.54690
vt 0.00000 -0.98440
vt 0.09760 -1.00000
vt 0.00000 -1.00000
vt 0.00000 -0.96490
vt 0.44920 -0.06650
vt 0.49990 -0.02740
vt 0.48820 -0.06650
vt 0.46480 -0.02740
vt 0.51690 -0.37110
vt 0.52730 -0.00400
vt 0.49600 -0.00400
vt 0.52390 -0.19930
vt 0.48820 -0.19930
vt 0.61420 -0.44700
vt 0.58200 -0.52350
vt 0.62100 -0.57820
vt 0.67120 -0.52910
vt 0.78120 -0.69930
vt 0.74990 -0.76180
vt 0.67960 -0.19930
vt 0.72260 -0.06650
vt 0.72260 -0.04690
vt 0.79680 -0.77350
vt 0.80460 -0.70320
vt 0.99600 -1.00000
vt 0.87590 -0.83400
vt 0.82220 -1.00000
vt 0.99600 -0.83400
vt 0.44140 -0.36330
vt 0.30070 -0.29690
vt 0.44140 -0.29690
vt 0.30070 -0.36330
vt 0.92960 -0.66800
vt 0.99600 -0.66800
vt 0.44140 -0.07040
vt 0.30070 -0.00400
vt 0.44140 -0.00400
vt 0.30070 -0.07040
vt 0.82810 -0.77350
vt 0.82420 -0.69930
vt 0.30070 -0.25400
vt 0.44140 -0.25400
vt 0.13670 -0.25400
vt 0.13670 -0.29690
vt 0.92180 -0.34380
vt 0.75580 -0.39850
vt 0.75580 -0.34380
vt 0.92180 -0.39850
vt 0.58980 -0.39850
vt 0.58980 -0.34380
vt 0.30070 -0.12510
vt 0.44140 -0.12510
vt 0.23330 -1.00000
vt 0.44140 -0.19150
vt 0.30070 -0.19150
vt 0.94530 -0.02740
vt 0.91400 -0.00400
vt 0.91790 -0.19930
vt 0.95700 -0.06650
vt 0.76170 -0.19930
vt 0.98040 -0.02740
vt 0.94920 -0.00400
vt 0.99600 -0.06650
vt 0.95700 -0.19930
vt 0.18550 -0.76180
vt 0.62490 -0.64070
vt 0.00390 -0.50010
vt 0.05070 -0.50010
vt 0.09760 -0.41920
vt 0.78900 -0.81650
vt 0.65620 -0.33210
vt 0.83590 -0.81650
vt 0.66790 -0.30860
vt 0.62490 -0.33990
vt 0.26560 -0.36330
vt 0.24600 -0.34380
vt 0.24600 -0.02740
vt 0.26560 -0.00400
vt 0.86710 -0.66800
vt 0.13670 -0.33210
vt 0.13670 -0.04300
vt 0.13670 -0.07040
vt 0.00390 -0.27350
vt 0.00390 -0.09770
vt 0.82420 -0.66800
vt 0.13670 -0.12510
vt 0.13670 -0.21490
vt 0.13670 -0.14850
vt 0.24600 -0.20710
vt 0.24600 -0.16800
vt 0.26560 -0.19150
vt 0.77730 -0.30860
vt 0.82030 -0.33990
vt 0.78900 -0.33210
vt 0.20700 -0.83600
vt 0.11520 -0.83600
vt 0.19720 -0.90040
vt 0.11420 -0.76760
vt 0.83880 -0.34380
vt 0.83880 -0.39850
vt 0.82320 -0.93950
vt 0.99600 -0.93950
vt 0.11320 -0.69930
vt 0.21090 -0.75400
vt 0.29290 -0.97020
vt 0.37490 -0.93760
vt 0.99600 -0.87900
vt 0.60930 -0.93950
vt 0.82420 -0.87900
vt 0.37490 -0.87510
vt 0.60930 -0.87900
vt 0.19530 0.49990
vt 0.29100 0.27440
vt 0.18940 0.27340
vt 0.29290 0.49990
vt 0.29100 0.00780
vt 0.18940 0.00780
vt 0.78320 0.23820
vt 0.96670 0.46090
vt 0.96670 0.23430
vt 0.78320 0.46870
vt 0.78320 0.00780
vt 0.96670 0.00780
vt 0.39450 0.51560
vt 0.39450 0.27530
vt 0.39450 0.00780
vt 0.50970 0.49210
vt 0.49410 0.27730
vt 0.62890 0.71870
vt 0.59760 0.51560
vt 0.53120 0.63280
vt 0.68160 0.50780
vt 0.69330 0.69530
vt 0.49410 0.00780
vt 0.75780 0.00780
vt 0.75510 0.23920
vt 0.58250 0.25970
vt 0.67080 0.24210
vt 0.73240 0.00780
vt 0.72700 0.24020
vt 0.68160 0.00780
vt 0.58780 0.00780
vt 0.75780 0.84370
vt 0.86710 0.46090
vt 0.77340 0.46870
vt 0.86320 0.72650
vt 0.87300 0.00780
vt 0.94330 0.40620
vt 0.96870 0.00780
vt 0.66010 0.47650
vt 0.62490 0.96870
vt 0.49410 0.54680
vt 0.48820 0.96870
vt 0.04290 0.00780
vt -0.13280 0.24210
vt 0.00030 0.27810
vt -0.09570 0.00780
vt -0.21090 0.16400
vt -0.20310 0.00780
vt 1.03320 0.00780
vt 0.27840 0.81060
vt 0.34170 0.53900
vt 0.14430 0.75750
vt 0.16340 0.46610
vt 0.35150 0.00780
vt -0.01160 0.42420
vt 0.21090 0.00780
vt 0.19920 -0.81440
vt 0.56640 -0.75390
vt 0.56640 -0.81440
vt 0.19920 -0.75390
vt 0.56640 -0.87490
vt 0.19920 -0.87490
vt 0.19920 -0.99600
vt 0.56640 -0.99600
vt 2.49990 -0.81440
vt 3.30460 -0.87490
vt 2.49990 -0.87490
vt 3.30460 -0.81440
vt 3.30460 -0.75390
vt 2.49990 -0.75390
vt 2.49990 -0.99600
vt 3.30460 -0.99600
vt 0.99210 -0.75390
vt 0.99210 -0.81440
vt 0.99210 -0.87490
vt 0.99210 -0.99600
vt 1.32810 -0.87490
vt 1.32810 -0.81440
vt 1.32810 -0.75390
vt 1.32810 -0.99600
vt 2.40420 -0.87490
vt 2.40420 -0.81440
vt 2.40420 -0.75390
vt 2.40420 -0.99600
vt 2.30850 -0.87490
vt 2.30850 -0.81440
vt 2.30850 -0.75390
vt 2.30850 -0.99600
vt 2.11710 -0.87490
vt 2.11710 -0.81440
vt 2.11710 -0.75390
vt 2.11710 -0.99600
vt 1.74990 -0.87490
vt 1.74990 -0.81440
vt 1.74990 -0.75390
vt 1.74990 -0.99600
vt -0.53510 0.50390
vt -0.50390 0.64060
vt -0.50390 0.50390
vt -0.53510 0.64060
vt -0.74990 -0.74600
vt -0.50390 -0.68550
vt -0.50390 -0.74600
vt -0.74990 -0.68550
vt -0.74990 -0.50390
vt -0.50390 -0.62490
vt -0.74990 -0.62490
vt -0.50390 -0.50390
vt -0.58200 0.77730
vt -0.55460 0.79290
vt -0.66010 0.87490
vt -0.64060 0.89840
vt -0.77340 0.98040
vt -0.78510 0.95310
vt -0.95310 0.78040
vt -0.95310 0.64450
vt -0.97260 0.99600
vt -0.96480 0.96480
vt -0.96480 0.89840
vt -0.98040 0.78120
vt -0.98040 0.64450
vt -0.99600 0.89840
vt -0.99600 0.50390
vt -0.96870 0.50390
vt -0.99600 0.96870
vt 2.99990 -0.87490
vt 2.74990 -0.99600
vt 2.74990 -0.75390
vt 2.99990 -0.93550
vt 1.99990 -0.99600
vt 1.99990 -0.75390
vt 1.49990 -0.75390
vt 1.49990 -0.99600
vt -1.50390 0.50390
vt -1.53510 0.64450
vt -1.50390 0.64450
vt -1.53510 0.50390
vt -1.58590 0.78510
vt -1.55460 0.79680
vt 0.99990 -0.99600
vt 0.99990 -0.75390
vt -1.64060 0.89840
vt -1.66400 0.86710
vt 0.49990 -0.75390
vt 0.49990 -0.99600
vt -1.94140 0.71870
vt -1.93980 0.62440
vt -1.95310 0.53560
vt -1.78120 0.94140
vt -1.77340 0.98040
vt -1.96090 0.89840
vt -1.94140 0.82420
vt 0.00000 -0.93550
vt -1.96870 0.99600
vt -1.96090 0.96090
vt -1.98040 0.71870
vt -1.98040 0.62600
vt -1.98040 0.82420
vt -1.99600 0.89840
vt -1.99600 0.96090
vt -1.99600 0.53560
vt -0.87490 -0.56440
vt -0.99600 -0.62490
vt -0.99600 -0.56440
vt -0.87490 -0.62490
vt -0.74990 -0.56440
vt -0.99600 -0.68550
vt -0.87490 -0.68550
vt -0.87490 -0.50390
vt -0.99600 -0.50390
vt -0.99600 -0.74600
vt -0.87490 -0.74600
vt -0.74990 0.50390
vt 2.99990 -0.75390
vt 2.99990 -0.99600
vt 0.00000 -0.75390
vt 0.00000 -0.81440
vt 0.00000 -0.99600
# 742 texture vertices

g Object_2
usemtl texture0
f 1/3 2/2 3/1
f 3/1 2/2 4/4
f 2/2 5/5 4/4
f 4/4 5/5 6/6
f 7/8 8/7 5/5
f 8/7 6/6 5/5
f 9/11 10/10 11/9
f 10/10 12/12 11/9
f 7/8 13/13 8/7
f 8/7 13/13 14/14
f 15/16 11/9 16/15
f 16/15 11/9 12/12
f 1/3 3/1 17/17
f 17/17 10/19 9/18
f 18/22 19/21 13/20
f 19/21 14/23 13/20
f 17/17 3/1 10/19
f 15/16 16/15 20/24
f 16/15 21/25 20/24
f 22/27 23/26 18/22
f 23/26 19/21 18/22
f 24/29 20/24 25/28
f 25/28 20/24 21/25
f 22/27 26/30 23/26
f 23/26 26/30 27/31
f 28/33 24/29 29/32
f 29/32 24/29 25/28
f 26/30 30/34 27/31
f 27/31 30/34 31/35
f 28/33 29/32 32/36
f 29/32 33/37 32/36
f 34/39 35/38 30/34
f 35/38 31/35 30/34
f 32/36 33/37 36/40
f 33/37 37/41 36/40
f 34/39 38/42 35/38
f 35/38 38/42 39/43
f 40/45 36/40 41/44
f 41/44 36/40 37/41
f 42/47 43/46 38/42
f 43/46 39/43 38/42
f 40/45 41/44 44/48
f 41/44 45/49 44/48
f 46/51 47/50 42/47
f 47/50 43/46 42/47
f 48/53 44/48 49/52
f 49/52 44/48 45/49
f 46/51 48/53 47/50
f 47/50 48/53 49/52
usemtl texture1
f 50/56 51/55 52/54
f 50/56 53/57 51/55
f 54/60 55/59 56/58
f 57/61 55/59 54/60
f 53/57 58/62 51/55
f 59/63 57/61 54/60
f 60/64 57/61 59/63
f 53/57 61/65 58/62
f 62/67 59/63 63/66
f 62/67 60/64 59/63
f 61/65 63/66 58/62
f 61/65 62/67 63/66
f 64/70 65/69 66/68
f 64/70 67/71 65/69
f 68/74 69/73 70/72
f 65/69 71/76 72/75
f 73/77 68/74 70/72
f 67/71 71/76 65/69
f 69/73 74/79 75/78
f 68/74 76/80 69/73
f 76/80 74/79 69/73
f 71/76 73/77 72/75
f 74/79 77/81 75/78
f 78/82 68/74 73/77
f 71/76 78/82 73/77
f 77/81 79/84 80/83
f 74/79 79/84 77/81
f 79/84 81/85 80/83
f 79/84 82/86 81/85
f 79/84 83/87 82/86
f 83/87 84/88 82/86
f 83/87 85/89 84/88
f 83/87 86/90 85/89
f 85/89 86/90 87/91
f 86/90 88/92 87/91
f 86/90 89/93 88/92
f 88/92 89/93 90/94
f 89/93 91/95 90/94
f 89/93 92/96 91/95
f 91/95 92/96 93/97
f 93/97 92/96 94/98
f 92/96 95/100 96/99
f 92/96 97/101 94/98
f 92/96 96/99 97/101
f 98/104 99/103 100/102
f 101/106 98/104 102/105
f 98/104 100/102 103/107
f 102/105 98/104 103/107
f 95/100 101/106 102/105
f 99/103 104/108 100/102
f 95/100 105/109 96/99
f 95/100 102/105 105/109
f 100/102 104/108 106/110
f 104/108 107/111 106/110
f 104/108 108/112 107/111
f 108/112 109/113 107/111
f 107/111 109/113 110/114
f 109/113 111/115 110/114
f 111/115 112/117 113/116
f 113/116 114/119 115/118
f 112/117 114/119 113/116
f 114/119 116/120 115/118
f 114/119 117/121 116/120
f 117/121 118/122 116/120
f 116/120 118/122 119/123
f 118/122 120/124 119/123
f 118/122 121/125 120/124
f 121/125 122/126 120/124
f 120/124 122/126 123/127
g obj1
usemtl mat1
f 124/130 125/129 126/128
f 125/129 127/131 126/128
f 126/128 127/131 128/132
f 127/131 129/133 128/132
f 124/130 130/134 125/129
f 131/135 125/129 130/134
f 132/137 128/132 133/136
f 129/133 133/136 128/132
f 134/139 135/138 130/134
f 135/138 131/135 130/134
f 124/142 126/141 136/140
f 136/140 126/141 137/143
f 126/141 128/144 137/143
f 137/143 128/144 138/145
f 132/137 133/136 139/146
f 133/136 140/147 139/146
f 130/149 124/142 141/148
f 124/142 136/140 141/148
f 142/151 143/150 134/139
f 143/150 135/138 134/139
f 128/144 132/152 138/145
f 132/152 144/153 138/145
f 134/156 130/155 145/154
f 130/155 141/157 145/154
f 132/152 139/158 144/153
f 144/153 139/158 146/159
f 139/146 140/147 147/160
f 140/147 148/161 147/160
f 142/163 134/156 149/162
f 149/162 134/156 145/154
f 142/151 150/164 143/150
f 151/165 143/150 150/164
f 139/168 147/167 146/166
f 147/167 152/169 146/166
f 136/140 137/143 153/170
f 153/170 137/143 154/171
f 137/143 138/145 154/171
f 154/171 138/145 155/172
f 150/174 142/163 156/173
f 142/163 149/162 156/173
f 144/153 157/175 138/145
f 157/175 155/172 138/145
f 141/157 158/176 145/154
f 158/176 159/177 145/154
f 160/179 147/160 161/178
f 148/161 161/178 147/160
f 144/153 146/159 157/175
f 157/175 146/159 162/180
f 149/162 145/154 163/181
f 163/181 145/154 159/177
f 153/170 164/183 165/182
f 164/183 166/184 165/182
f 158/186 165/182 167/185
f 165/182 166/184 167/185
f 154/171 155/172 168/187
f 168/187 155/172 169/188
f 147/167 160/189 152/169
f 160/189 170/190 152/169
f 136/140 165/182 141/148
f 171/192 172/191 150/164
f 172/191 151/165 150/164
f 157/175 173/193 155/172
f 173/193 169/188 155/172
f 164/183 174/194 166/184
f 175/195 166/184 174/194
f 152/169 176/196 146/166
f 176/196 162/197 146/166
f 167/185 166/184 177/198
f 166/184 175/195 177/198
f 136/140 153/170 165/182
f 141/148 165/182 158/186
f 149/162 163/181 156/173
f 163/181 178/199 156/173
f 157/175 162/180 173/193
f 173/193 162/180 179/200
f 171/202 150/174 180/201
f 180/201 150/174 156/173
f 163/181 159/177 181/203
f 181/203 159/177 182/204
f 164/183 153/170 154/171
f 168/187 164/183 154/171
f 158/176 167/205 159/177
f 176/196 183/206 162/197
f 183/206 179/207 162/197
f 170/190 184/208 152/169
f 184/208 176/196 152/169
f 174/194 164/183 168/187
f 163/181 181/203 178/199
f 181/203 185/209 178/199
f 159/177 167/205 182/204
f 182/204 167/205 177/210
f 180/201 156/173 186/211
f 186/211 156/173 178/199
f 184/208 187/212 176/196
f 187/212 183/206 176/196
f 186/211 178/199 188/213
f 188/213 178/199 185/209
f 160/179 161/178 189/214
f 161/178 190/215 189/214
f 160/189 189/216 170/190
f 170/190 189/216 191/217
f 170/190 191/217 184/208
f 184/208 191/217 192/218
f 184/208 192/218 187/212
f 187/212 192/218 193/219
f 194/220 186/211 188/213
f 186/211 195/221 180/201
f 194/220 196/222 186/211
f 196/222 195/221 186/211
f 196/222 194/220 197/223
f 198/224 171/202 195/221
f 195/221 171/202 180/201
f 198/226 199/225 171/192
f 199/225 172/191 171/192
f 196/222 197/223 200/227
f 192/218 201/228 193/219
f 193/219 201/228 202/229
f 200/227 197/223 203/230
f 195/221 196/222 204/231
f 204/231 196/222 200/227
f 200/227 203/230 205/232
f 191/217 206/233 192/218
f 192/218 206/233 201/228
f 207/234 205/232 203/230
f 207/234 208/235 205/232
f 209/237 210/236 201/228
f 210/236 202/229 201/228
f 211/239 207/234 212/238
f 213/240 200/227 205/232
f 204/231 200/227 213/240
f 214/242 215/241 212/238
f 208/235 207/234 211/239
f 212/238 215/241 211/239
f 209/237 216/243 210/236
f 210/236 216/243 217/244
f 189/216 218/245 191/217
f 191/217 218/245 206/233
f 219/246 209/237 206/233
f 209/237 201/228 206/233
f 215/241 220/247 211/239
f 221/249 222/248 216/243
f 222/248 217/244 216/243
f 189/214 190/215 218/250
f 190/215 223/251 218/250
f 224/253 225/252 221/249
f 225/252 222/248 221/249
f 226/254 198/224 204/231
f 198/224 195/221 204/231
f 211/239 220/247 227/255
f 224/253 215/241 225/252
f 225/252 215/241 214/242
f 219/246 228/256 209/237
f 209/237 228/256 216/243
f 229/257 213/240 208/235
f 208/235 213/240 205/232
f 229/257 230/258 213/240
f 198/226 226/259 199/225
f 231/260 199/225 226/259
f 232/261 221/249 228/256
f 221/249 216/243 228/256
f 229/257 208/235 227/255
f 208/235 211/239 227/255
f 213/240 230/258 233/262
f 218/245 234/263 206/233
f 234/263 219/246 206/233
f 220/247 235/264 227/255
f 236/265 224/253 232/261
f 224/253 221/249 232/261
f 236/265 220/247 224/253
f 224/253 220/247 215/241
f 233/262 226/254 213/240
f 226/254 204/231 213/240
f 234/267 218/250 237/266
f 223/251 237/266 218/250
f 220/247 238/268 235/264
f 234/263 239/269 219/246
f 219/246 239/269 228/256
f 233/271 240/270 226/259
f 240/270 231/260 226/259
f 239/269 241/272 228/256
f 241/272 232/261 228/256
f 235/264 230/258 227/255
f 230/258 229/257 227/255
f 234/275 237/274 239/273
f 237/274 242/276 239/273
f 241/272 243/277 232/261
f 243/277 236/265 232/261
f 230/279 244/278 233/271
f 244/278 240/270 233/271
f 243/277 238/268 236/265
f 236/265 238/268 220/247
f 239/273 242/276 241/280
f 242/276 245/281 241/280
f 230/279 235/282 244/278
f 246/283 244/278 235/282
f 243/285 241/280 247/284
f 245/281 247/284 241/280
f 235/282 238/286 246/283
f 238/286 248/287 246/283
f 243/285 247/284 238/286
f 247/284 248/287 238/286
usemtl mat2
f 125/290 249/289 127/288
f 127/288 249/289 129/291
f 249/289 125/290 131/292
f 250/294 133/293 129/291
f 249/289 250/294 129/291
f 251/296 131/292 135/295
f 133/293 250/294 140/297
f 251/296 249/289 131/292
f 143/298 251/296 135/295
f 250/294 148/299 140/297
f 251/296 143/298 151/300
f 249/289 252/15 250/294
f 250/294 253/301 148/299
f 252/15 249/289 251/296
f 253/301 161/302 148/299
f 252/15 253/301 250/294
f 254/303 251/296 151/300
f 172/304 254/303 151/300
f 254/303 252/15 251/296
f 161/302 253/301 190/305
f 199/306 254/303 172/304
f 253/301 252/15 255/307
f 190/305 253/301 223/308
f 253/301 255/307 223/308
f 252/15 254/303 256/309
f 254/303 199/306 231/310
f 252/15 257/311 255/307
f 256/309 254/303 231/310
f 257/311 252/15 256/309
f 255/307 237/312 223/308
f 256/309 231/310 240/313
f 237/312 255/307 242/314
f 255/307 257/311 245/315
f 244/316 256/309 240/313
f 255/307 245/315 242/314
f 257/311 256/309 246/317
f 256/309 244/316 246/317
f 257/311 247/318 245/315
f 248/319 257/311 246/317
f 247/318 257/311 248/319
usemtl texture2
f 258/322 259/321 260/320
f 259/321 261/59 260/320
f 259/321 262/323 261/59
f 262/323 263/56 261/59
f 264/325 258/322 265/324
f 258/322 260/320 265/324
f 266/327 267/326 268/67
f 267/326 269/64 268/67
f 262/323 270/328 263/56
f 271/330 264/325 272/329
f 264/325 265/324 272/329
f 273/331 260/320 261/59
f 274/61 273/331 261/59
f 269/64 267/326 274/61
f 263/56 275/332 276/57
f 263/56 270/328 275/332
f 277/333 278/65 276/57
f 266/327 268/67 278/65
f 273/331 265/324 260/320
f 267/326 266/327 279/334
f 266/327 280/335 279/334
f 267/326 273/331 274/61
f 281/337 273/331 282/336
f 273/331 283/338 282/336
f 275/332 277/333 276/57
f 277/333 266/327 278/65
f 273/331 281/337 265/324
f 281/337 282/336 284/339
f 282/336 285/340 284/339
f 270/328 286/341 275/332
f 286/341 287/342 275/332
f 287/342 288/343 275/332
f 288/343 277/333 275/332
f 273/331 267/326 279/334
f 281/337 289/344 265/324
f 277/333 280/335 266/327
f 289/344 272/329 265/324
f 283/338 273/331 279/334
f 281/337 284/339 289/344
f 288/343 280/335 277/333
f 285/340 282/336 290/345
f 283/338 291/346 282/336
f 282/336 292/347 290/345
f 283/338 279/334 293/348
f 293/348 279/334 294/349
f 282/336 291/346 292/347
f 291/346 295/350 292/347
f 295/350 296/351 292/347
f 294/349 279/334 297/352
f 279/334 280/335 297/352
f 288/343 298/353 280/335
f 297/352 280/335 298/353
f 293/348 291/346 283/338
f 296/351 299/355 300/354
f 299/355 301/356 300/354
f 291/346 302/70 295/350
f 296/351 295/350 299/355
f 300/354 301/356 303/357
f 291/346 304/358 302/70
f 298/353 288/343 287/342
f 293/348 304/358 291/346
f 304/358 305/71 302/70
f 306/359 307/80 308/74
f 306/359 309/79 307/80
f 310/360 308/74 311/82
f 310/360 311/82 312/76
f 306/359 313/84 309/79
f 314/362 315/361 293/348
f 306/359 316/87 313/84
f 310/360 306/359 308/74
f 297/352 317/363 294/349
f 306/359 318/90 316/87
f 305/71 304/358 312/76
f 304/358 310/360 312/76
f 319/364 310/360 304/358
f 306/359 320/93 318/90
f 321/103 306/359 310/360
f 306/359 322/96 320/93
f 317/363 314/362 294/349
f 314/362 293/348 294/349
f 293/348 315/361 304/358
f 315/361 319/364 304/358
f 321/103 310/360 319/364
f 323/100 322/96 306/359
f 324/365 319/364 315/361
f 325/104 306/359 321/103
f 326/106 306/359 325/104
f 323/100 306/359 326/106
f 327/366 298/353 287/342
f 321/103 319/364 328/108
f 329/112 330/367 331/113
f 332/368 333/117 334/115
f 327/366 287/342 335/369
f 336/122 337/121 332/368
f 297/352 338/370 317/363
f 339/371 317/363 338/370
f 327/366 338/370 298/353
f 338/370 297/352 298/353
f 340/125 336/122 332/368
f 341/373 271/330 342/372
f 271/330 272/329 342/372
f 343/374 338/370 327/366
f 330/367 329/112 319/364
f 328/108 319/364 329/112
f 344/375 330/367 324/365
f 330/367 319/364 324/365
f 345/377 346/126 347/376
f 348/378 345/377 347/376
f 347/376 332/368 349/379
f 342/372 348/378 350/380
f 330/367 332/368 331/113
f 332/368 334/115 331/113
f 333/117 332/368 351/119
f 337/121 351/119 332/368
f 350/380 348/378 347/376
f 352/381 327/366 335/369
f 352/381 343/374 327/366
f 350/380 347/376 349/379
f 332/368 330/367 349/379
f 330/367 344/375 349/379
f 347/376 346/126 332/368
f 346/126 340/125 332/368
f 344/375 339/371 349/379
f 349/379 339/371 353/382
f 353/382 339/371 343/374
f 339/371 338/370 343/374
f 286/341 354/383 287/342
f 354/383 335/369 287/342
f 350/380 349/379 355/384
f 349/379 353/382 355/384
f 353/382 343/374 355/384
f 355/384 343/374 352/381
f 356/385 341/373 350/380
f 341/373 342/372 350/380
f 354/383 357/386 335/369
f 357/386 352/381 335/369
f 358/387 356/385 355/384
f 356/385 350/380 355/384
f 357/386 358/387 352/381
f 358/387 355/384 352/381
usemtl texture3
f 359/390 360/389 361/388
f 361/388 360/389 362/391
f 363/394 364/393 365/392
f 366/395 365/392 364/393
f 367/398 368/397 369/396
f 370/399 369/396 368/397
f 367/398 371/401 372/400
f 371/401 373/402 372/400
f 374/404 362/391 375/403
f 362/391 360/389 375/403
f 372/400 376/405 367/398
f 368/397 367/398 376/405
f 377/407 378/406 361/388
f 378/406 359/390 361/388
f 365/392 366/395 379/408
f 379/408 366/395 380/409
f 377/407 365/392 378/406
f 378/406 365/392 379/408
f 372/400 373/402 381/410
f 373/402 382/411 381/410
f 374/404 375/403 383/412
f 375/403 384/413 383/412
f 381/410 385/414 372/400
f 376/405 372/400 385/414
f 368/397 386/415 370/399
f 386/415 387/416 370/399
f 388/418 375/403 389/417
f 375/403 360/389 389/417
f 390/419 389/417 378/406
f 389/417 359/390 378/406
f 386/415 368/397 391/420
f 391/420 368/397 376/405
f 390/419 379/408 392/421
f 392/421 379/408 380/409
f 393/423 394/422 364/393
f 364/393 394/422 366/395
f 381/410 382/411 395/424
f 382/411 396/425 395/424
f 371/401 397/426 373/402
f 397/426 398/427 373/402
f 366/395 394/422 380/409
f 394/422 399/428 380/409
f 385/414 381/410 400/429
f 381/410 395/424 400/429
f 391/420 376/405 401/430
f 401/430 376/405 385/414
f 373/402 398/427 382/411
f 398/427 402/431 382/411
f 383/412 384/413 403/432
f 384/413 404/433 403/432
f 382/411 402/431 396/425
f 402/431 405/434 396/425
f 387/416 386/415 406/435
f 407/436 406/435 386/415
f 400/429 408/437 385/414
f 408/437 401/430 385/414
f 401/430 409/438 391/420
f 409/438 410/439 391/420
f 395/424 396/425 411/440
f 412/441 411/440 396/425
f 400/429 395/424 413/442
f 411/440 413/442 395/424
f 407/436 414/443 406/435
f 414/443 415/444 406/435
f 397/446 416/426 398/445
f 416/426 417/427 398/445
f 418/449 419/448 420/447
f 419/448 421/450 420/447
f 419/448 418/449 422/432
f 403/451 422/432 418/449
f 416/426 397/446 421/450
f 420/447 421/450 397/446
f 422/432 403/451 423/433
f 404/452 423/433 403/451
f 398/445 417/427 402/453
f 417/427 424/431 402/453
f 393/456 425/455 394/454
f 425/455 426/422 394/454
f 394/454 426/422 399/457
f 426/422 427/428 399/457
f 428/460 429/459 430/458
f 430/458 429/459 431/461
f 432/418 423/433 388/418
f 423/433 404/433 388/418
f 433/421 392/421 427/428
f 427/428 392/421 399/428
f 400/429 413/442 408/437
f 413/442 434/462 408/437
f 429/459 435/463 431/461
f 431/461 435/463 436/464
f 437/466 438/465 430/458
f 438/465 428/460 430/458
f 389/417 439/417 388/418
f 432/418 388/418 439/417
f 434/462 440/467 408/437
f 440/467 441/468 408/437
f 442/419 390/419 433/421
f 433/421 390/419 392/421
f 390/419 442/419 389/417
f 439/417 389/417 442/419
f 441/468 440/467 443/469
f 440/467 444/470 443/469
f 444/470 445/471 443/469
f 445/471 446/472 443/469
f 447/474 428/460 448/473
f 438/465 448/473 428/460
f 449/424 411/440 450/425
f 411/440 412/441 450/425
f 430/460 451/474 452/465
f 453/473 452/465 451/474
f 429/459 447/474 435/463
f 435/463 447/474 454/475
f 455/412 422/432 456/413
f 456/413 422/432 423/433
f 431/459 436/463 451/474
f 436/463 457/475 451/474
f 435/463 454/475 436/464
f 436/464 454/475 457/475
f 424/431 458/411 459/434
f 450/425 459/434 458/411
f 460/402 458/411 417/427
f 458/411 424/431 417/427
f 446/472 445/471 461/476
f 445/471 462/477 461/476
f 463/429 413/442 449/424
f 413/442 411/440 449/424
f 464/395 465/409 426/422
f 465/409 427/428 426/422
f 466/480 467/479 468/478
f 468/478 467/479 469/481
f 425/455 470/393 426/422
f 470/393 464/395 426/422
f 471/484 472/483 473/482
f 472/483 474/485 473/482
f 467/479 473/486 469/481
f 469/481 473/486 475/487
f 473/490 474/489 475/488
f 475/488 474/489 476/491
f 461/476 462/477 477/492
f 462/477 478/493 477/492
f 463/429 479/437 413/442
f 479/437 434/462 413/442
f 480/404 455/412 481/403
f 481/403 455/412 456/413
f 434/462 479/437 440/467
f 482/468 440/467 479/437
f 432/418 439/417 481/403
f 481/403 439/417 483/389
f 482/468 484/469 440/467
f 484/469 444/470 440/467
f 485/410 449/424 458/411
f 449/424 450/425 458/411
f 472/483 471/484 486/494
f 486/494 471/484 487/495
f 486/494 488/496 472/483
f 488/496 489/497 472/483
f 490/476 491/492 462/477
f 491/492 478/493 462/477
f 444/470 484/469 445/471
f 492/472 445/471 484/469
f 492/472 490/476 445/471
f 490/476 462/477 445/471
f 469/500 493/499 468/498
f 494/501 468/498 493/499
f 442/419 433/421 495/408
f 495/408 433/421 465/409
f 493/499 469/500 496/502
f 469/500 475/503 496/502
f 480/404 481/403 497/391
f 483/389 497/391 481/403
f 496/505 475/488 498/504
f 475/488 476/491 498/504
f 499/400 485/410 460/402
f 485/410 458/411 460/402
f 500/392 495/408 464/395
f 495/408 465/409 464/395
f 501/414 463/429 485/410
f 463/429 449/424 485/410
f 502/398 499/400 503/401
f 499/400 460/402 503/401
f 504/506 500/392 470/393
f 500/392 464/395 470/393
f 442/419 505/406 439/417
f 506/390 439/417 505/406
f 506/390 507/388 483/389
f 507/388 497/391 483/389
f 508/508 486/494 509/507
f 486/494 487/495 509/507
f 463/429 501/414 479/437
f 479/437 501/414 510/430
f 511/480 494/478 512/479
f 494/478 493/481 512/479
f 485/410 499/400 501/414
f 501/414 499/400 513/405
f 514/407 505/406 500/392
f 505/406 495/408 500/392
f 512/479 493/481 509/486
f 493/481 496/487 509/486
f 509/507 496/505 508/508
f 496/505 498/504 508/508
f 514/407 507/388 505/406
f 505/406 507/388 506/390
f 499/400 502/398 513/405
f 513/405 502/398 515/397
f 516/510 517/509 454/475
f 457/475 454/475 517/509
f 518/509 516/510 447/474
f 516/510 454/475 447/474
f 519/509 451/474 517/509
f 451/474 457/475 517/509
f 501/414 513/405 510/430
f 510/430 513/405 520/420
f 502/398 521/396 515/397
f 515/397 521/396 522/399
f 523/512 447/474 524/511
f 447/474 525/513 524/511
f 526/512 527/511 451/474
f 527/511 528/513 451/474
f 529/436 530/435 531/443
f 530/435 532/444 531/443
f 510/430 520/420 533/438
f 533/438 520/420 534/439
f 535/415 520/420 515/397
f 520/420 513/405 515/397
f 515/397 522/399 535/415
f 536/416 535/415 522/399
f 535/415 536/416 529/436
f 530/435 529/436 536/416
f 518/509 519/514 516/510
f 519/514 517/515 516/510
f 537/517 526/516 524/511
f 526/516 523/512 524/511
f 523/512 526/516 518/509
f 518/509 526/516 519/514
f 361/388 362/391 367/398
f 369/396 361/388 367/398
f 367/398 362/391 538/518
f 369/396 377/407 361/388
f 365/392 377/407 363/394
f 367/398 538/518 371/401
f 362/391 374/404 538/518
f 363/394 377/407 370/399
f 370/399 377/407 369/396
f 374/404 383/412 538/518
f 389/417 360/389 359/390
f 378/406 379/408 390/419
f 538/518 420/450 371/401
f 388/418 384/413 375/403
f 538/518 383/412 420/450
f 399/428 392/421 380/409
f 420/450 397/426 371/401
f 388/418 404/433 384/413
f 410/439 386/415 391/420
f 383/412 403/432 418/448
f 383/412 418/448 420/450
f 410/439 407/436 386/415
f 539/519 410/439 409/438
f 441/468 409/438 401/430
f 539/519 407/436 410/439
f 441/468 401/430 408/437
f 405/434 412/441 396/425
f 402/453 540/521 405/520
f 443/469 539/519 409/438
f 443/469 409/438 441/468
f 539/519 414/443 407/436
f 540/522 412/441 405/434
f 402/453 424/431 540/521
f 446/472 539/519 443/469
f 446/472 414/443 539/519
f 459/434 412/441 540/522
f 541/523 415/444 414/443
f 540/521 424/431 459/434
f 466/480 415/444 541/523
f 428/460 447/474 429/459
f 451/474 430/460 431/459
f 461/476 414/443 446/472
f 541/523 414/443 461/476
f 450/425 412/441 459/434
f 542/524 438/465 437/466
f 466/480 541/523 543/525
f 455/412 421/450 419/448
f 422/432 455/412 419/448
f 543/525 541/523 461/476
f 544/526 438/465 542/524
f 543/525 467/479 466/480
f 544/526 448/473 438/465
f 542/524 437/466 545/527
f 543/525 473/486 467/479
f 503/401 417/427 416/426
f 416/426 421/450 503/401
f 423/433 432/418 456/413
f 453/473 545/526 452/465
f 543/525 477/492 473/486
f 477/492 543/525 461/476
f 474/485 544/529 542/528
f 465/409 433/421 427/428
f 474/489 542/531 545/530
f 455/412 546/518 421/450
f 473/486 477/492 471/532
f 474/485 472/483 544/529
f 476/491 474/489 545/530
f 544/529 489/497 448/533
f 456/413 432/418 481/403
f 472/483 489/497 544/529
f 503/401 421/450 546/518
f 503/401 460/402 417/427
f 478/493 471/532 477/492
f 547/535 545/530 453/534
f 476/491 545/530 547/535
f 489/497 548/536 448/533
f 480/404 546/518 455/412
f 547/535 453/534 549/537
f 487/532 471/538 478/493
f 548/536 489/497 488/496
f 487/532 478/493 491/492
f 498/504 476/491 547/535
f 550/539 547/535 549/537
f 497/391 546/518 480/404
f 488/496 525/540 548/536
f 483/389 439/417 506/390
f 498/504 547/535 550/539
f 528/541 550/539 549/537
f 546/518 502/398 503/401
f 490/476 551/525 491/492
f 486/494 552/542 488/496
f 487/532 491/492 509/486
f 497/391 502/398 546/518
f 488/496 552/542 525/540
f 551/525 490/476 553/523
f 554/543 550/539 528/541
f 554/543 498/504 550/539
f 509/486 491/492 551/525
f 490/476 492/472 531/443
f 552/542 486/494 508/508
f 442/419 495/408 505/406
f 490/476 555/443 553/523
f 551/525 553/523 511/480
f 507/388 502/398 497/391
f 556/468 479/437 510/430
f 551/525 511/480 512/479
f 508/508 498/504 554/543
f 557/519 492/472 484/469
f 533/438 484/469 482/468
f 504/506 514/407 500/392
f 551/525 512/479 509/486
f 552/542 508/508 558/544
f 558/544 508/508 554/543
f 507/388 521/396 502/398
f 553/523 532/444 511/480
f 507/388 514/407 521/396
f 557/519 531/443 492/472
f 556/468 510/430 533/438
f 533/438 557/519 484/469
f 522/399 514/407 504/506
f 553/523 531/443 532/444
f 524/511 525/513 552/545
f 554/545 528/513 527/511
f 522/399 521/396 514/407
f 537/517 558/547 554/546
f 558/547 524/511 552/545
f 529/436 531/443 557/519
f 534/439 557/519 533/438
f 534/439 529/436 557/519
f 534/439 535/415 529/436
f 535/415 534/439 520/420
f 518/509 447/474 523/512
f 526/512 451/474 519/509
f 537/517 524/511 558/547
f 470/550 425/549 559/548
f 560/551 559/548 425/549
f 561/553 562/552 494/501
f 494/501 562/552 468/498
f 561/555 494/478 563/554
f 564/480 563/554 494/478
f 565/556 559/548 560/551
f 566/557 559/548 565/556
f 561/553 567/500 562/552
f 470/550 559/548 504/558
f 561/553 568/499 567/500
f 566/557 569/559 559/548
f 559/548 569/559 504/558
f 564/480 532/444 563/554
f 563/554 568/560 561/555
f 563/554 532/444 570/561
f 504/558 569/559 522/399
f 563/554 571/562 568/560
f 570/561 532/444 530/435
f 572/563 569/559 566/557
f 573/416 522/399 569/559
f 570/561 573/416 569/559
f 530/435 573/416 570/561
f 563/554 570/561 574/564
f 563/554 574/564 571/562
f 570/561 569/559 572/563
f 570/561 572/563 574/564
usemtl texture4
f 575/567 576/566 577/565
f 578/568 577/565 576/566
f 579/570 580/569 575/567
f 576/566 575/567 580/569
f 581/573 582/572 583/571
f 583/571 582/572 584/574
f 585/576 581/573 586/575
f 586/575 581/573 583/571
f 587/578 588/577 576/566
f 588/577 578/568 576/566
f 580/569 589/579 576/566
f 587/578 576/566 589/579
f 590/581 591/580 587/578
f 591/580 588/577 587/578
f 592/583 593/582 591/580
f 591/580 593/582 594/584
f 592/583 595/585 593/582
f 595/585 596/586 593/582
f 589/579 597/587 587/578
f 590/581 587/578 597/587
f 586/575 583/571 598/588
f 598/588 583/571 599/589
f 590/581 600/590 591/580
f 600/590 592/583 591/580
f 601/591 595/585 600/590
f 600/590 595/585 592/583
f 598/588 599/589 602/592
f 602/592 599/589 603/593
f 604/594 602/592 601/591
f 602/592 603/593 601/591
f 597/587 605/595 590/581
f 605/595 600/590 590/581
f 600/590 605/595 601/591
f 605/595 604/594 601/591
f 594/584 588/577 591/580
f 595/585 584/574 596/586
f 599/589 583/571 584/574
f 603/593 584/574 595/585
f 603/593 599/589 584/574
f 601/591 603/593 595/585
f 606/598 607/597 608/596
f 607/597 609/599 608/596
f 610/602 611/601 612/600
f 612/600 611/601 607/597
f 613/604 614/603 608/596
f 606/598 608/596 614/603
f 615/575 612/600 606/598
f 612/600 607/597 606/598
f 614/603 613/604 616/605
f 616/605 613/604 617/606
f 606/598 614/603 615/575
f 618/594 615/575 614/603
f 619/587 618/594 616/605
f 618/594 614/603 616/605
f 620/609 621/608 622/607
f 623/610 622/607 621/608
f 621/608 624/611 623/610
f 625/612 623/610 624/611
f 610/602 626/613 611/601
f 607/597 611/601 609/599
f 627/615 617/606 628/614
f 627/615 616/605 617/606
f 629/617 628/614 630/616
f 629/617 627/615 628/614
f 631/618 616/605 627/615
f 632/619 629/617 630/616
f 631/618 619/587 616/605
f 633/620 627/615 629/617
f 633/620 631/618 627/615
f 620/609 629/617 632/619
f 620/609 633/620 629/617
f 621/608 620/609 632/619
f 622/607 633/620 620/609
usemtl texture5
f 634/623 580/622 635/621
f 635/621 580/622 579/624
f 636/626 637/625 635/621
f 637/625 634/623 635/621
f 638/628 637/625 639/627
f 639/627 637/625 636/626
f 640/631 641/630 642/629
f 641/630 643/632 642/629
f 586/634 642/629 585/633
f 642/629 643/632 585/633
f 644/636 641/630 645/635
f 645/635 641/630 640/631
f 580/622 634/623 589/637
f 634/623 646/638 589/637
f 646/638 634/623 647/639
f 637/625 647/639 634/623
f 647/639 637/625 648/640
f 638/628 648/640 637/625
f 647/639 649/641 646/638
f 649/641 650/642 646/638
f 597/643 589/637 650/642
f 646/638 650/642 589/637
f 648/640 651/644 647/639
f 651/644 649/641 647/639
f 640/631 642/629 652/645
f 652/645 642/629 653/646
f 598/647 653/646 586/634
f 653/646 642/629 586/634
f 654/648 645/635 652/645
f 645/635 640/631 652/645
f 652/645 653/646 655/649
f 655/649 653/646 656/650
f 598/647 602/651 653/646
f 656/650 653/646 602/651
f 654/648 652/645 657/652
f 657/652 652/645 655/649
f 655/649 656/650 658/653
f 658/653 656/650 659/654
f 602/651 604/655 656/650
f 659/654 656/650 604/655
f 657/652 655/649 660/656
f 660/656 655/649 658/653
f 661/658 650/642 662/657
f 649/641 662/657 650/642
f 597/643 650/642 605/659
f 650/642 661/658 605/659
f 663/660 662/657 651/644
f 651/644 662/657 649/641
f 662/657 658/653 661/658
f 658/653 659/654 661/658
f 659/654 604/655 661/658
f 661/658 604/655 605/659
f 663/660 660/656 662/657
f 660/656 658/653 662/657
f 664/663 665/662 608/661
f 665/662 666/664 608/661
f 667/667 668/666 669/665
f 669/665 668/666 670/668
f 671/671 672/670 610/669
f 672/670 626/672 610/669
f 668/666 672/670 670/668
f 670/668 672/670 671/671
f 673/674 674/673 665/662
f 665/662 674/673 666/664
f 675/676 676/675 673/674
f 673/674 676/675 674/673
f 675/676 677/677 676/675
f 677/677 678/678 676/675
f 679/680 666/664 680/679
f 666/664 674/673 680/679
f 677/677 681/681 678/678
f 681/681 682/682 678/678
f 676/675 678/678 680/679
f 680/679 678/678 683/683
f 680/679 684/684 679/680
f 684/684 685/685 679/680
f 686/686 684/684 683/683
f 683/683 684/684 680/679
f 685/685 687/687 679/680
f 679/680 687/687 617/688
f 686/686 683/683 688/689
f 682/682 688/689 683/683
f 612/692 689/691 671/690
f 689/691 670/693 671/690
f 690/635 689/691 615/634
f 689/691 612/692 615/634
f 618/695 691/694 615/634
f 691/694 690/635 615/634
f 692/697 691/694 619/696
f 691/694 618/695 619/696
f 693/700 694/699 695/698
f 695/698 694/699 632/701
f 696/703 697/702 693/700
f 693/700 697/702 694/699
f 692/697 619/696 698/704
f 698/704 619/696 631/705
f 696/703 699/706 697/702
f 699/706 700/707 697/702
f 701/709 698/704 633/708
f 698/704 631/705 633/708
f 702/711 694/699 703/710
f 694/699 697/702 703/710
f 621/712 632/701 702/711
f 632/701 694/699 702/711
f 704/714 705/713 699/706
f 699/706 705/713 700/707
f 706/716 700/707 707/715
f 700/707 705/713 707/715
f 708/717 701/709 709/180
f 701/709 633/708 709/180
f 704/714 710/718 705/713
f 710/718 711/719 705/713
f 712/721 702/711 713/720
f 702/711 703/710 713/720
f 703/710 706/716 713/720
f 706/716 714/722 713/720
f 706/716 707/715 714/722
f 707/715 715/723 714/722
f 715/723 707/715 716/724
f 707/715 711/719 716/724
f 624/725 621/712 712/721
f 621/712 702/711 712/721
f 717/728 718/727 719/726
f 718/727 720/729 719/726
f 721/730 719/726 709/671
f 720/729 709/671 719/726
f 722/732 720/729 723/731
f 723/731 720/729 718/727
f 623/733 719/726 622/669
f 719/726 721/730 622/669
f 717/728 719/726 625/734
f 719/726 623/733 625/734
f 722/732 708/668 720/729
f 708/668 709/671 720/729
f 723/731 724/735 722/732
f 724/735 725/736 722/732
f 725/736 726/665 722/732
f 726/665 708/668 722/732
f 613/737 608/661 666/664
f 680/679 674/673 676/675
f 613/737 666/664 679/680
f 682/682 681/681 688/689
f 613/737 679/680 617/688
f 683/683 678/678 682/682
f 612/692 671/690 610/738
f 689/691 669/739 670/693
f 703/710 697/702 700/707
f 703/710 700/707 727/716
f 721/741 633/708 622/740
f 709/180 633/708 721/741
f 728/715 705/713 711/719
f 716/724 711/719 710/718
f 726/742 701/709 708/717
# 1120 elements

