# Model created using BSP2OBJ v0.2.1 by DCx Demo*
# http://devilclanthps3.weebly.com/

mtllib Skybox1.obj.mtl
# Object number 1
# 884 faces
# 654 vertices

v -21321.88477 -19790.00000 -242.82019
v -20751.66211 -19790.00000 141.78711
v -19086.81641 -19790.00000 -936.34253
v -18979.76367 -19790.00000 -432.74979
v -16798.57813 -19790.00000 -936.34253
v -16798.57813 -19790.00000 -432.74979
v -17657.71094 -19790.00000 -9005.22363
v -17775.66406 -19790.00000 -8465.72754
v -14678.06348 -19790.00000 -7414.07471
v -14859.37305 -19790.00000 -7037.95898
v -16148.37109 -19790.00000 -10003.18555
v -14328.12012 -19790.00000 -8480.66211
v -15756.88672 -19790.00000 -10359.12012
v -13914.69434 -19790.00000 -8896.98730
v -13500.26367 -19790.00000 8300.98145
v -13744.18848 -19790.00000 8083.33984
v -15157.76953 -19790.00000 9550.14453
v -15385.78809 -19790.00000 9327.77344
v -9641.83691 -19790.00000 -10833.89258
v -13490.56934 -19790.00000 -14406.42090
v -9920.49707 -19790.00000 -10668.74902
v -13768.20703 -19790.00000 -14149.67773
v -11056.26758 -19790.00000 10700.18262
v -11533.51465 -19790.00000 10569.05078
v -11623.38281 -19790.00000 12443.58203
v -11956.78516 -19790.00000 12335.42578
v -3205.94385 -19790.00000 14265.62305
v -5122.92529 -19790.00000 14785.45117
v -3095.83203 -19790.00000 14943.71582
v -5028.26758 -19790.00000 15440.56641
v -3458.81079 -19790.00000 -13761.54492
v -2956.00903 -19790.00000 -13789.66406
v -3292.03247 -19790.00000 -17277.29688
v -2795.19946 -19790.00000 -17241.29102
v 5759.37891 -19790.00000 -16781.23828
v 5214.80078 -19790.00000 -16872.91406
v 3654.14258 -19790.00000 -12466.26563
v 3269.68066 -19790.00000 -12629.14160
v 14069.81836 -19790.00000 -882.25159
v 10435.19141 -19790.00000 -1070.32397
v 13954.86914 -19790.00000 -370.14090
v 10466.02344 -19790.00000 -500.89639
v 16340.10156 -19790.00000 -263.29501
v 16030.36328 -19790.00000 200.40881
v -81499.98438 -20000.00000 -0.00568
v -80235.45313 -10417.01660 -0.00281
v -78944.42188 -20000.00000 19411.42188
v -77722.98438 -10417.01660 19084.14063
v -78944.41406 -20000.00000 -19411.42969
v -77722.97656 -10417.01660 -19084.14258
v -71451.89063 -20000.00000 37499.99219
v -70356.79688 -10417.01660 36867.72656
v -71451.89063 -20000.00000 -37499.99219
v -70356.77344 -10417.01660 -36867.73438
v -59533.00391 -20000.00000 53033.00000
v -58638.85156 -10417.01660 52138.84375
v -59533.00000 -20000.00000 -53033.00781
v -58638.83594 -10417.01660 -52138.84766
v -43999.99219 -20000.00000 64951.89063
v -43367.73438 -10417.01660 63856.79297
v -43999.99219 -20000.00000 -64951.89844
v -43367.71875 -10417.01660 -63856.78125
v -25911.42578 -20000.00000 72444.42969
v -25584.14648 -10417.01660 71222.98438
v -25911.42383 -20000.00000 -72444.42188
v -25584.13281 -10417.01660 -71222.97656
v -6500.00049 -20000.00000 74999.98438
v -6500.00146 -10417.01660 73735.46875
v -6500.00000 -20000.00000 -75000.00000
v -6500.00049 -10417.01660 -73735.46875
v 12911.42578 -20000.00000 72444.42969
v 12584.14258 -10417.01660 71222.99219
v 12911.43164 -20000.00000 -72444.43750
v 12584.14551 -10417.01660 -71222.99219
v 30999.99609 -20000.00000 64951.90625
v 30367.73438 -10417.01660 63856.79297
v 31000.00000 -20000.00000 -64951.90625
v 30367.73438 -10417.01660 -63856.79297
v 46533.00000 -20000.00000 53033.00000
v 45638.84375 -10417.01660 52138.84766
v 46533.00781 -20000.00000 -53033.00781
v 45638.85156 -10417.01660 -52138.85156
v 58451.90234 -20000.00000 37500.00000
v 57356.79297 -10417.01660 36867.73438
v 58451.90625 -20000.00000 -37500.00000
v 57356.79297 -10417.01660 -36867.73438
v 65944.43750 -20000.00000 -19411.42578
v 64722.99219 -10417.01660 -19084.14258
v 65944.43750 -20000.00000 19411.42773
v 64722.99219 -10417.01660 19084.14648
v 68499.99219 -20000.00000 0.00098
v 67235.46875 -10417.01660 0.00232
v 68499.99219 -20000.00000 0.00098
v 67235.46875 -10417.01660 0.00232
v -17410.14258 -20000.00000 -0.00110
v -21813.87305 -20000.00000 -2016.11145
v -21950.08789 -20000.00000 -0.00189
v -21813.87500 -20000.00000 2016.10828
v -17410.14258 -20000.00000 -0.00110
v -21950.08789 -20000.00000 -0.00189
v -21423.63672 -20000.00000 -3998.77832
v -21423.63867 -20000.00000 3998.77588
v -20770.25781 -20000.00000 5910.93359
v -20770.25781 -20000.00000 -5910.93555
v -19880.16797 -20000.00000 7725.04297
v -19880.16602 -20000.00000 -7725.04395
v -18754.14844 -20000.00000 9402.93945
v -18754.14844 -20000.00000 -9402.94043
v -17424.86133 -20000.00000 -10924.86426
v -17424.86133 -20000.00000 10924.86230
v -6500.00000 -20000.00000 -10911.04590
v -15902.94141 -20000.00000 -12254.15137
v -17424.86133 -20000.00000 -10924.86426
v -6500.00000 -20000.00000 10946.36621
v -17424.86133 -20000.00000 10924.86230
v -15902.93945 -20000.00000 12254.14941
v -14225.04492 -20000.00000 -13380.17188
v -14225.04395 -20000.00000 13380.16895
v -12410.93652 -20000.00000 -14270.26270
v -12410.93457 -20000.00000 14270.25879
v -10498.77832 -20000.00000 -14923.64258
v -10498.77734 -20000.00000 14923.63867
v -8516.11035 -20000.00000 -15313.87793
v -8516.10938 -20000.00000 15313.87500
v -6500.00000 -20000.00000 -15450.09180
v -6500.00000 -20000.00000 15450.08984
v -4483.89014 -20000.00000 15313.87500
v -6500.00000 -20000.00000 10946.36621
v -6500.00000 -20000.00000 15450.08984
v -6500.00000 -20000.00000 -10911.04590
v -4483.88916 -20000.00000 -15313.87793
v -6500.00000 -20000.00000 -15450.09180
v -2501.22314 -20000.00000 14923.63867
v -2501.22095 -20000.00000 -14923.64258
v -589.06396 -20000.00000 14270.25977
v -589.06250 -20000.00000 -14270.26270
v 1225.04590 -20000.00000 13380.17090
v 1225.04688 -20000.00000 -13380.17188
v 2902.94141 -20000.00000 12254.14941
v 2902.94141 -20000.00000 -12254.15137
v 4424.86328 -20000.00000 10924.86230
v 4424.86377 -20000.00000 -10924.86328
v 4424.86377 -20000.00000 -10924.86328
v 4446.36670 -20000.00000 -0.00018
v 5754.15137 -20000.00000 -9402.94141
v 4446.36670 -20000.00000 -0.00018
v 4424.86328 -20000.00000 10924.86230
v 5754.15137 -20000.00000 9402.94043
v 6880.17188 -20000.00000 -7725.04590
v 6880.17188 -20000.00000 7725.04688
v 7770.26172 -20000.00000 -5910.93604
v 7770.26172 -20000.00000 5910.93652
v 8423.64063 -20000.00000 -3998.77759
v 8423.64063 -20000.00000 3998.77783
v 8813.87598 -20000.00000 -2016.11011
v 8813.87598 -20000.00000 2016.11011
v 8950.08984 -20000.00000 -0.00018
v 8950.08984 -20000.00000 -0.00018
v -58985.10547 15795.78418 -30302.29102
v -37637.56250 35575.34375 -17977.28125
v -67104.57031 15795.78418 -0.00177
v -42454.56250 35575.34375 -0.00079
v -58985.10547 15795.78418 30302.29102
v -37637.56250 35575.34375 17977.28125
v -80235.45313 -10417.01660 -0.00281
v -77722.98438 -10417.01660 19084.14063
v -77722.97656 -10417.01660 -19084.14258
v -36802.29297 15795.78418 52485.10547
v -24477.28320 35575.34375 31137.56250
v -36802.28125 15795.78418 -52485.10547
v -24477.27734 35575.34766 -31137.56250
v -70356.79688 -10417.01660 36867.72656
v -70356.77344 -10417.01660 -36867.73438
v -58638.85547 -10417.01660 52138.84375
v -58638.83203 -10417.01660 -52138.84766
v -43367.73438 -10417.01660 63856.79297
v -43367.71875 -10417.01660 -63856.78125
v -25584.14648 -10417.01660 71222.98438
v -25584.13281 -10417.01660 -71222.97656
v -6500.00146 15795.78418 60604.58203
v -6500.00098 35575.34375 35954.56250
v -6500.00000 15795.78418 -60604.58984
v -6500.00098 35575.34766 -35954.56641
v -6500.00049 44660.12109 0.00049
v -6500.00146 -10417.01660 73735.46875
v -6500.00049 -10417.01660 -73735.46875
v 11477.28125 35575.34375 31137.56836
v 11477.28320 35575.34766 -31137.56836
v 12584.14355 -10417.01660 71222.99219
v 12584.14551 -10417.01660 -71222.99219
v 24637.56836 35575.34375 17977.28320
v 24637.56836 35575.34375 -17977.28125
v 23802.29102 15795.78418 52485.10547
v 23802.29492 15795.78418 -52485.11328
v 29454.56250 35575.34375 0.00153
v 30367.73438 -10417.01660 63856.79297
v 30367.73438 -10417.01660 -63856.79297
v 45638.84375 -10417.01660 52138.84766
v 45638.85547 -10417.01660 -52138.85547
v 45985.10547 15795.78418 30302.29102
v 45985.11328 15795.78418 -30302.29102
v 57356.79297 -10417.01660 36867.73438
v 57356.79297 -10417.01660 -36867.73438
v 64722.98828 -10417.01660 19084.14648
v 54104.58203 15795.78418 0.00177
v 64722.98828 -10417.01660 -19084.14258
v 67235.46875 -10417.01660 0.00232
v -78944.41406 -20000.00000 -19411.42969
v -81499.98438 -20000.00000 -0.00568
v -66834.87500 -20000.00000 -16166.29590
v -68961.75000 -20000.00000 1.48602
v -78944.42188 -20000.00000 19411.42188
v -66834.88281 -20000.00000 16166.28516
v -71451.89063 -20000.00000 -37499.99219
v -60594.92188 -20000.00000 -31230.87695
v -71451.89063 -20000.00000 37499.99219
v -60594.92969 -20000.00000 31230.87305
v -56771.22266 -20000.00000 -13494.06348
v -58637.98438 -20000.00000 -90.21997
v -56771.22266 -20000.00000 13494.05566
v -59533.00391 -20000.00000 53033.00000
v -50668.60156 -20000.00000 44167.12891
v -59533.00000 -20000.00000 -53033.00781
v -50668.60547 -20000.00000 -44167.13672
v -51562.71094 -20000.00000 26068.51953
v -51562.70703 -20000.00000 -26068.52148
v -50690.84766 -20000.00000 -44.09259
v -49140.98438 -20000.00000 -11437.44629
v -49140.98828 -20000.00000 11437.44043
v -43277.17578 -20000.00000 -36866.46484
v -43277.17188 -20000.00000 36866.45703
v -44726.29688 -20000.00000 22095.44336
v -44726.29688 -20000.00000 -22095.44531
v -43999.99219 -20000.00000 -64951.89844
v -37732.34766 -20000.00000 -54093.47656
v -43999.99219 -20000.00000 64951.89063
v -37732.34375 -20000.00000 54093.46094
v -41224.59375 -20000.00000 14383.39453
v -42722.21094 -20000.00000 9705.70996
v -37703.55078 -20000.00000 -31247.68555
v -37703.55078 -20000.00000 31247.68555
v -32479.23633 -20000.00000 -45152.01172
v -32479.23047 -20000.00000 45152.00000
v -43764.07813 -20000.00000 -4905.91211
v -43999.99219 -20000.00000 -0.00421
v -36036.12109 -20000.00000 -3888.50659
v -36301.94922 -20000.00000 -0.00348
v -43764.07813 -20000.00000 4905.90576
v -36036.11719 -20000.00000 3888.50073
v -42722.20703 -20000.00000 -9705.71484
v -35286.46875 -20000.00000 -7713.31396
v -42722.21094 -20000.00000 9705.70996
v -35286.47266 -20000.00000 7713.30908
v -41224.59375 -20000.00000 14383.39453
v -34023.28125 -20000.00000 11400.51465
v -41224.58984 -20000.00000 -14383.39844
v -34023.27734 -20000.00000 -11400.51758
v -38975.94531 -20000.00000 18749.99414
v -32309.24414 -20000.00000 14900.97266
v -38975.94141 -20000.00000 -18749.99609
v -32309.24023 -20000.00000 -14900.97363
v -28551.31445 -20000.00000 -38270.44141
v -28551.31055 -20000.00000 38270.43359
v -36318.68359 -20000.00000 22880.67969
v -30134.77930 -20000.00000 18135.60156
v -38975.94531 -20000.00000 18749.99414
v -32309.24414 -20000.00000 14900.97266
v -36318.68359 -20000.00000 -22880.68359
v -38975.94141 -20000.00000 -18749.99609
v -30134.77734 -20000.00000 -18135.60547
v -32309.24023 -20000.00000 -14900.97461
v -25911.42383 -20000.00000 -72444.42188
v -22667.76367 -20000.00000 -60333.42969
v -25911.42578 -20000.00000 72444.42969
v -22667.75781 -20000.00000 60333.41406
v -33016.50391 -20000.00000 -26516.50391
v -27573.16211 -20000.00000 -21073.16602
v -33016.50000 -20000.00000 26516.50000
v -31198.59375 -20000.00000 28167.59180
v -30294.83203 -20000.00000 23794.83203
v -28651.48828 -20000.00000 25260.78125
v -28781.93555 -20000.00000 9229.47754
v -27359.50000 -20000.00000 12043.23633
v -29380.68359 -20000.00000 29818.68359
v -27008.14453 -20000.00000 26726.73047
v -25633.93164 -20000.00000 -14681.98340
v -27359.49609 -20000.00000 -12043.23730
v -27359.50000 -20000.00000 12043.23633
v -25633.93164 -20000.00000 14681.98242
v -25843.44531 -20000.00000 -0.00238
v -30411.45898 -20000.00000 -3148.00610
v -28214.96094 -20000.00000 -0.00269
v -30586.47461 -20000.00000 -0.00299
v -29380.68359 -20000.00000 -29818.69141
v -24635.60547 -20000.00000 -23634.78125
v -19904.77344 -20000.00000 -50360.52734
v -19904.76758 -20000.00000 50360.51563
v -27573.16406 -20000.00000 21073.16211
v -26104.38477 -20000.00000 22353.96875
v -25184.33398 -20000.00000 5006.45068
v -27475.04297 -20000.00000 5620.24414
v -29765.75000 -20000.00000 6234.03711
v -28781.93164 -20000.00000 -9229.48047
v -29765.74805 -20000.00000 -6234.04053
v -24342.11523 -20000.00000 -7390.44775
v -25184.33008 -20000.00000 -5006.45361
v -43764.07813 -20000.00000 -4905.91211
v -43764.07813 -20000.00000 4905.90576
v -23531.71289 -20000.00000 17031.71094
v -24635.60547 -20000.00000 23634.77734
v -43999.99219 -20000.00000 -0.00421
v -24342.11914 -20000.00000 7390.44580
v -23251.91406 -20000.00000 9671.72168
v -27359.49609 -20000.00000 -12043.23730
v -23251.91211 -20000.00000 -9671.72266
v -42722.20703 -20000.00000 -9705.71484
v -41224.58984 -20000.00000 -14383.39844
v -25250.00000 -20000.00000 -32475.95313
v -21400.97656 -20000.00000 -25809.25000
v -17893.31250 -20000.00000 -42685.12891
v -17893.31055 -20000.00000 42685.12500
v -21821.37500 -20000.00000 11756.50488
v -23251.91406 -20000.00000 9671.72168
v -21950.08789 -20000.00000 -0.00189
v -25646.94922 -20000.00000 -2520.74585
v -21813.87305 -20000.00000 -2016.11145
v -21423.63672 -20000.00000 -3998.77832
v -21423.63867 -20000.00000 3998.77588
v -20770.25781 -20000.00000 5910.93359
v -20770.25781 -20000.00000 -5910.93555
v -20177.88477 -20000.00000 13677.88281
v -19880.16797 -20000.00000 7725.04297
v -19880.16602 -20000.00000 -7725.04395
v -20883.40039 -20000.00000 -34724.60156
v -17900.51758 -20000.00000 -27523.28320
v -20883.39648 -20000.00000 34724.59375
v -17900.51563 -20000.00000 27523.28125
v -25249.99609 -20000.00000 32475.94336
v -21400.97461 -20000.00000 25809.24414
v -19880.16797 -20000.00000 7725.04297
v -18754.14844 -20000.00000 9402.93945
v -30411.46680 -20000.00000 3148.00171
v -19695.86133 -20000.00000 17180.88672
v -18538.36133 -20000.00000 17946.53125
v -18256.50391 -20000.00000 15321.37402
v -17214.11328 -20000.00000 16036.64355
v -20177.88477 -20000.00000 -13677.88379
v -17424.86133 -20000.00000 -10924.86426
v -18256.50781 -20000.00000 -15321.37695
v -15902.94141 -20000.00000 -12254.15137
v -17424.86133 -20000.00000 10924.86230
v -15902.94043 -20000.00000 12254.14941
v -17380.86328 -20000.00000 18712.17578
v -16171.72266 -20000.00000 16751.91406
v -16205.71191 -20000.00000 36222.21094
v -14213.31152 -20000.00000 28786.47070
v -17330.45703 -20000.00000 -18724.63867
v -16171.72461 -20000.00000 -16751.91797
v -16070.21094 -20000.00000 -19339.28320
v -15031.08789 -20000.00000 -17297.01953
v -14225.04395 -20000.00000 -13380.17188
v -25646.95313 -20000.00000 2520.74194
v -6500.00000 -20000.00000 -75000.00000
v -6501.46680 -20000.00000 -62461.76953
v -6500.00049 -20000.00000 74999.98438
v -6501.46680 -20000.00000 62461.76172
v -14809.96582 -20000.00000 -19953.93359
v -13890.44824 -20000.00000 -17842.12305
v -23531.71289 -20000.00000 -17031.71289
v -23251.91211 -20000.00000 -9671.72266
v -13890.44727 -20000.00000 17842.11914
v -14225.04395 -20000.00000 13380.16895
v -12410.93457 -20000.00000 14270.25879
v -6410.70898 -20000.00000 -52137.05469
v -6410.70898 -20000.00000 52137.04688
v -22815.26367 -20000.00000 21290.82422
v -21181.98438 -20000.00000 -19133.93555
v -21813.87500 -20000.00000 2016.10828
v -22356.84570 -20000.00000 18082.82031
v -21821.37500 -20000.00000 -11756.50586
v -11405.90918 -20000.00000 37264.07813
v -10388.50391 -20000.00000 29536.11719
v -21370.30273 -20000.00000 22242.45117
v -6455.86377 -20000.00000 -44190.90234
v -6455.86377 -20000.00000 44190.89453
v -21181.98438 -20000.00000 19133.93164
v -19835.06445 -20000.00000 -23197.33398
v -11506.45313 -20000.00000 -18684.33789
v -10498.77832 -20000.00000 -14923.64258
v -12410.93652 -20000.00000 -14270.26270
v -11506.45215 -20000.00000 18684.33398
v -10498.77734 -20000.00000 14923.63867
v -18754.14844 -20000.00000 -9402.94043
v -19925.33984 -20000.00000 23194.07422
v -19862.61133 -20000.00000 19996.71484
v -19880.16602 -20000.00000 -7725.04395
v -18543.23633 -20000.00000 20859.50000
v -18543.23633 -20000.00000 -20859.50195
v -18270.21680 -20000.00000 -23940.34180
v -18544.56055 -20000.00000 -35473.41016
v -15729.47754 -20000.00000 22281.93750
v -17136.35938 -20000.00000 -21570.72266
v -16705.36719 -20000.00000 -24683.34570
v -9020.74316 -20000.00000 -19146.95508
v -8516.11035 -20000.00000 -15313.87793
v -16205.71582 -20000.00000 -36222.21875
v -16056.91504 -20000.00000 -28154.88086
v -15729.48145 -20000.00000 -22281.93945
v -14213.31348 -20000.00000 -28786.48242
v -14231.76074 -20000.00000 -22773.84570
v -11405.91016 -20000.00000 -37264.08984
v -10388.50488 -20000.00000 -29536.12305
v -6500.00000 -20000.00000 -37500.00000
v -6500.00000 -20000.00000 -29801.95508
v -6500.00000 -20000.00000 37499.99609
v -6500.00000 -20000.00000 29801.94922
v -6500.00000 -20000.00000 -24086.48047
v -9648.00391 -20000.00000 -23911.46680
v -9648.00391 -20000.00000 23911.46289
v -6500.00000 -20000.00000 24086.47656
v -12734.04004 -20000.00000 -23265.75195
v -12734.03809 -20000.00000 23265.75000
v -9020.74414 -20000.00000 19146.95313
v -8516.10938 -20000.00000 15313.87500
v -6500.00000 -20000.00000 19343.44727
v -3979.25586 -20000.00000 19146.95313
v -6500.00000 -20000.00000 15450.08984
v -4483.89014 -20000.00000 15313.87500
v -6500.00000 -20000.00000 -19343.44922
v -6500.00000 -20000.00000 -15450.09180
v -3979.25439 -20000.00000 -19146.95703
v -4483.88916 -20000.00000 -15313.87793
v -3351.99609 -20000.00000 23911.46289
v -6500.00000 -20000.00000 24086.47656
v -3351.99438 -20000.00000 -23911.46680
v -6500.00000 -20000.00000 -24086.48047
v -2611.49438 -20000.00000 -29536.12305
v -6500.00000 -20000.00000 -29801.95508
v -6500.00000 -20000.00000 19343.44727
v -6500.00000 -20000.00000 -19343.44922
v -6500.00000 -20000.00000 -15450.09180
v -1594.09143 -20000.00000 37264.07813
v -2611.49658 -20000.00000 29536.11719
v -6500.00000 -20000.00000 37499.99609
v -6500.00000 -20000.00000 29801.94727
v -1594.08887 -20000.00000 -37264.08594
v -6500.00000 -20000.00000 -37500.00000
v -6500.00000 -20000.00000 15450.08984
v -1493.54785 -20000.00000 18684.33398
v -2501.22314 -20000.00000 14923.63867
v -1493.54504 -20000.00000 -18684.33789
v -2501.22095 -20000.00000 -14923.64258
v -6455.86377 -20000.00000 44190.89453
v -1594.09143 -20000.00000 37264.07813
v -6500.00000 -20000.00000 37499.99609
v -1594.08887 -20000.00000 -37264.08594
v -265.96143 -20000.00000 23265.75000
v -879.75146 -20000.00000 -20975.04688
v 890.44873 -20000.00000 17842.11914
v -589.06396 -20000.00000 14270.25977
v 1213.31152 -20000.00000 28786.47266
v 1213.31592 -20000.00000 -28786.47852
v -589.06250 -20000.00000 -14270.26270
v -265.95801 -20000.00000 -23265.75391
v 4981.58154 -20000.00000 42685.12500
v 4981.58643 -20000.00000 -42685.12891
v 890.45068 -20000.00000 -17842.12305
v 7083.35059 -20000.00000 50360.51563
v -6410.70898 -20000.00000 52137.04688
v 7083.35742 -20000.00000 -50360.52734
v 3205.71191 -20000.00000 36222.21094
v 3205.71680 -20000.00000 -36222.21875
v 2729.48438 -20000.00000 -22281.93945
v 2729.48145 -20000.00000 22281.93750
v 3171.72656 -20000.00000 -16751.91992
v 1225.04688 -20000.00000 -13380.17188
v -6501.46680 -20000.00000 62461.76172
v 9664.82324 -20000.00000 60333.41406
v 9664.83203 -20000.00000 -60333.42969
v 4900.51758 -20000.00000 27523.28125
v 3171.72559 -20000.00000 16751.91602
v 1225.04590 -20000.00000 13380.17090
v 3205.71191 -20000.00000 36222.21094
v 3205.71680 -20000.00000 -36222.21875
v 2902.94141 -20000.00000 12254.14941
v 4357.48438 -20000.00000 -18805.71094
v 4900.52051 -20000.00000 -27523.28516
v 4357.48340 -20000.00000 18805.70898
v 5256.50732 -20000.00000 15321.37500
v 5543.24170 -20000.00000 20859.50195
v 5543.24219 -20000.00000 -20859.50195
v -6500.00049 -20000.00000 74999.98438
v 12911.42578 -20000.00000 72444.42969
v 12911.43164 -20000.00000 -72444.43750
v 7177.88281 -20000.00000 13677.88281
v 4424.86328 -20000.00000 10924.86230
v 7883.39844 -20000.00000 34724.59766
v 7883.40234 -20000.00000 -34724.60156
v 5256.50781 -20000.00000 -15321.37695
v 8181.98584 -20000.00000 -19133.93555
v 2902.94141 -20000.00000 -12254.15137
v 8181.98486 -20000.00000 19133.93164
v 8400.97852 -20000.00000 25809.24805
v 8400.97949 -20000.00000 -25809.25000
v 8854.79688 -20000.00000 15354.79688
v 7883.39844 -20000.00000 34724.59766
v 7883.40234 -20000.00000 -34724.60156
v 10531.71191 -20000.00000 -17031.71289
v 7177.88477 -20000.00000 -13677.88379
v 7770.26172 -20000.00000 -5910.93604
v 10251.91797 -20000.00000 -9671.72559
v 6880.17188 -20000.00000 -7725.04590
v 11635.60547 -20000.00000 23634.77930
v 11635.60840 -20000.00000 -23634.78125
v 6880.17188 -20000.00000 7725.04688
v 11342.11914 -20000.00000 7390.44824
v 7770.26172 -20000.00000 5910.93652
v 4424.86377 -20000.00000 -10924.86328
v 10531.71094 -20000.00000 17031.71094
v 12184.33496 -20000.00000 -5006.45264
v 8423.64063 -20000.00000 -3998.77759
v 10251.91797 -20000.00000 9671.72559
v 15639.58594 -20000.00000 38270.44141
v 15639.59082 -20000.00000 -38270.44141
v 12633.93164 -20000.00000 14681.98535
v 8821.37598 -20000.00000 11756.50684
v 11342.11914 -20000.00000 -7390.44824
v 8813.87598 -20000.00000 2016.10999
v 12745.20117 -20000.00000 1260.37195
v 8950.08984 -20000.00000 -0.00018
v 14573.16309 -20000.00000 21073.16211
v 12646.95313 -20000.00000 2520.74414
v 12843.44922 -20000.00000 -0.00031
v 5754.15137 -20000.00000 9402.94043
v 8821.37695 -20000.00000 -11756.50684
v 5754.15137 -20000.00000 -9402.94141
v 12250.00000 -20000.00000 32475.95313
v 12250.00195 -20000.00000 -32475.95313
v 14573.16602 -20000.00000 -21073.16406
v 15781.94043 -20000.00000 -9229.48340
v 15781.94043 -20000.00000 9229.48242
v 12633.93652 -20000.00000 -14681.98535
v 12184.33496 -20000.00000 5006.45264
v 14885.10645 -20000.00000 2798.34790
v 16765.75195 -20000.00000 -6234.03906
v 14359.50391 -20000.00000 -12043.24121
v 14359.50391 -20000.00000 12043.24121
v 15070.86133 -20000.00000 -0.00031
v 12646.95313 -20000.00000 -2520.74414
v 17411.46680 -20000.00000 -3148.00415
v 10251.91797 -20000.00000 -9671.72559
v 6880.17188 -20000.00000 -7725.04590
v 10251.91797 -20000.00000 9671.72559
v 6880.17188 -20000.00000 7725.04688
v 17088.60938 -20000.00000 4691.02148
v 16380.68457 -20000.00000 29818.68750
v 16380.68750 -20000.00000 -29818.68750
v 17134.78125 -20000.00000 18135.60547
v 17134.78125 -20000.00000 -18135.60547
v 12250.00000 -20000.00000 32475.95313
v 12250.00195 -20000.00000 -32475.95313
v 16765.75195 -20000.00000 6234.03906
v 19309.25000 -20000.00000 -14900.97949
v 14359.50391 -20000.00000 -12043.24121
v 14977.98438 -20000.00000 1399.17383
v 17411.46680 -20000.00000 3148.00366
v 17586.47852 -20000.00000 -0.00031
v 17498.97266 -20000.00000 1574.00171
v 8423.64063 -20000.00000 3998.77783
v 20043.66211 -20000.00000 3482.22803
v 22286.47656 -20000.00000 -7713.31250
v 20153.87305 -20000.00000 1741.11340
v 20264.08398 -20000.00000 -0.00031
v 8813.87598 -20000.00000 -2016.11011
v 22661.29883 -20000.00000 5800.90869
v 24791.81445 -20000.00000 31247.68164
v 24791.82227 -20000.00000 -31247.68555
v 21023.28516 -20000.00000 -11400.51855
v 23036.12109 -20000.00000 -3888.50391
v 20016.50000 -20000.00000 26516.50000
v 20016.50391 -20000.00000 -26516.50195
v 14359.50391 -20000.00000 12043.24121
v 22286.47656 -20000.00000 7713.31348
v 19657.81836 -20000.00000 45152.00781
v 19657.82227 -20000.00000 -45152.01172
v 23036.12305 -20000.00000 3888.50415
v 23301.95313 -20000.00000 -0.00018
v 16380.68457 -20000.00000 29818.68750
v 16380.68750 -20000.00000 -29818.68750
v 23318.68750 -20000.00000 22880.68164
v 23318.68945 -20000.00000 -22880.68164
v 30243.15039 -20000.00000 7305.81201
v 31814.58008 -20000.00000 22095.45117
v 31814.58008 -20000.00000 -22095.45117
v 25975.95313 -20000.00000 -18750.00000
v 25975.95313 -20000.00000 18750.00195
v 24729.41602 -20000.00000 54093.46875
v 24729.41992 -20000.00000 -54093.47656
v 29722.21484 -20000.00000 9705.71387
v 20016.50000 -20000.00000 26516.50000
v 20016.50391 -20000.00000 -26516.50195
v 30764.08203 -20000.00000 4905.90967
v 19309.25000 -20000.00000 14900.97852
v 28224.59961 -20000.00000 -14383.40039
v 28224.59961 -20000.00000 14383.40039
v 19309.25000 -20000.00000 -14900.97852
v 19309.25000 -20000.00000 14900.97852
v 21023.28516 -20000.00000 11400.51855
v 36229.26563 -20000.00000 -11437.44531
v 29722.21484 -20000.00000 -9705.71289
v 36229.26563 -20000.00000 11437.44629
v 30764.08203 -20000.00000 -4905.90918
v 37735.03125 -20000.00000 -0.00018
v 30999.99609 -20000.00000 -0.00012
v 23318.68750 -20000.00000 22880.68359
v 23318.68945 -20000.00000 -22880.68359
v 30999.99609 -20000.00000 64951.90625
v 31000.00000 -20000.00000 -64951.90625
v 25975.95313 -20000.00000 -18750.00000
v 25975.95313 -20000.00000 18750.00195
v 30455.74609 -20000.00000 36866.45703
v 30455.75391 -20000.00000 -36866.46484
v 37665.66406 -20000.00000 44167.12891
v 37665.67188 -20000.00000 -44167.13281
v 38741.30469 -20000.00000 26068.52930
v 38741.30469 -20000.00000 -26068.52734
v 46533.00000 -20000.00000 53033.00000
v 46533.00781 -20000.00000 -53033.00781
v 43949.81250 -20000.00000 -13494.06055
v 43949.81250 -20000.00000 13494.06152
v 47592.00781 -20000.00000 31230.88477
v 47592.00781 -20000.00000 -31230.88477
v 45726.33594 -20000.00000 -0.00043
v 53831.95313 -20000.00000 -16166.29199
v 53831.95313 -20000.00000 16166.29492
v 58451.90234 -20000.00000 37500.00000
v 58451.90625 -20000.00000 -37500.00000
v 55960.29297 -20000.00000 -0.00018
v 65944.43750 -20000.00000 -19411.42578
v 65944.43750 -20000.00000 19411.42773
v 68499.99219 -20000.00000 0.00098
v -6500.00000 -20000.00000 -0.00018
v -17424.86133 -20000.00000 -10924.86426
v -17410.14453 -20000.00000 -0.00110
v -17410.14453 -20000.00000 -0.00110
v -17424.86133 -20000.00000 10924.86230
v -6500.00000 -20000.00000 -10911.04492
v -6500.00000 -20000.00000 10946.36523
v 4424.86377 -20000.00000 -10924.86328
v -6500.00000 -20000.00000 -10911.04492
v -6500.00000 -20000.00000 10946.36523
v 4424.86328 -20000.00000 10924.86230
v 4446.36621 -20000.00000 -0.00018
v 4446.36621 -20000.00000 -0.00018

vt 0.24990 -0.00010 
vt 0.00000 -0.00010 
vt 0.24990 -0.50010 
vt 0.00000 -0.50010 
vt 0.24990 -1.00000 
vt 0.00000 -1.00000 
vt 0.37490 -0.75010 
vt 0.49990 -0.75010 
vt 0.37490 -1.24990 
vt 0.49990 -1.24990 
vt 0.49990 -0.26570 
vt 0.49990 -0.89070 
vt 0.37490 -0.26570 
vt 0.37490 -0.89070 
vt 0.49990 -0.75010 
vt 0.37490 -0.75010 
vt 0.49990 -0.26570 
vt 0.37490 -0.26570 
vt 0.37490 -1.24990 
vt 0.37490 -0.26570 
vt 0.49990 -1.24990 
vt 0.49990 -0.26570 
vt 0.49990 -0.75010 
vt 0.37490 -0.75010 
vt 0.49990 -0.26570 
vt 0.37490 -0.26570 
vt 0.37490 -0.95320 
vt 0.37490 -0.26570 
vt 0.49990 -0.95320 
vt 0.49990 -0.26570 
vt 0.00000 -1.21870 
vt 0.24990 -1.21870 
vt 0.00000 -0.50010 
vt 0.24990 -0.50010 
vt 0.37490 -0.39070 
vt 0.49990 -0.39070 
vt 0.37490 -1.24990 
vt 0.49990 -1.24990 
vt 0.24990 -0.42190 
vt 0.24990 0.15620 
vt 0.00000 -0.42190 
vt 0.00000 0.15620 
vt 0.24990 -0.90630 
vt 0.00000 -0.90630 
vt 2.99990 -3.99600 
vt 2.99990 -3.75390 
vt 3.24990 -3.99600 
vt 3.24990 -3.75390 
vt 2.74990 -3.99600 
vt 2.74990 -3.75390 
vt 3.49990 -3.99600 
vt 3.49990 -3.75390 
vt 2.49990 -3.99600 
vt 2.49990 -3.75390 
vt 3.74990 -3.99600 
vt 3.74990 -3.75390 
vt 2.24990 -3.99600 
vt 2.24990 -3.75390 
vt 3.99990 -3.99600 
vt 3.99990 -3.75390 
vt 1.99990 -3.99600 
vt 1.99990 -3.75390 
vt 4.24990 -3.99600 
vt 4.24990 -3.75390 
vt 1.74990 -3.99600 
vt 1.74990 -3.75390 
vt 4.49990 -3.99600 
vt 4.49990 -3.75390 
vt 1.49990 -3.99600 
vt 1.49990 -3.75390 
vt 4.74990 -3.99600 
vt 4.74990 -3.75390 
vt 1.24990 -3.99600 
vt 1.24990 -3.75390 
vt 4.99990 -3.99600 
vt 4.99990 -3.75390 
vt 0.99990 -3.99600 
vt 0.99990 -3.75390 
vt 5.24990 -3.99600 
vt 5.24990 -3.75390 
vt 0.74990 -3.99600 
vt 0.74990 -3.75390 
vt 5.49990 -3.99600 
vt 5.49990 -3.75390 
vt 0.49990 -3.99600 
vt 0.49990 -3.75390 
vt 0.24990 -3.99600 
vt 0.24990 -3.75390 
vt 5.74990 -3.99600 
vt 5.74990 -3.75390 
vt 0.00000 -3.99600 
vt 0.00000 -3.75390 
vt 5.99990 -3.99600 
vt 5.99990 -3.75390 
vt 1.00390 -0.00390 
vt 1.18740 -0.30460 
vt 1.00390 -0.31240 
vt 1.81240 -0.19530 
vt 1.99990 -0.49600 
vt 1.99600 -0.18740 
vt 1.36710 -0.27730 
vt 1.63280 -0.22260 
vt 1.46090 -0.26560 
vt 1.53900 -0.23430 
vt 1.29290 -0.32810 
vt 1.70700 -0.17180 
vt 1.14060 -0.40620 
vt 1.85930 -0.09370 
vt 1.99600 -0.00390 
vt 1.00390 -0.49600 
vt 1.99990 -0.49600 
vt 1.14060 -0.40620 
vt 1.00390 -0.49600 
vt 1.00390 -0.00390 
vt 1.99600 -0.00390 
vt 1.85930 -0.09370 
vt 1.33200 -0.31640 
vt 1.70700 -0.17180 
vt 1.53900 -0.24990 
vt 1.53900 -0.23430 
vt 1.67960 -0.22650 
vt 1.36710 -0.27730 
vt 1.79680 -0.20700 
vt 1.18740 -0.30460 
vt 1.99600 -0.18740 
vt 1.00390 -0.31240 
vt 1.85540 -0.21090 
vt 1.99990 -0.49600 
vt 1.99600 -0.18740 
vt 1.00390 -0.00390 
vt 1.18740 -0.30460 
vt 1.00390 -0.31240 
vt 1.68350 -0.22650 
vt 1.36710 -0.27730 
vt 1.46090 -0.26560 
vt 1.53900 -0.23430 
vt 1.29290 -0.32810 
vt 1.70700 -0.17180 
vt 1.14060 -0.40620 
vt 1.85930 -0.09370 
vt 1.00390 -0.49600 
vt 1.99600 -0.00390 
vt 1.00390 -0.49600 
vt 1.99990 -0.49600 
vt 1.14060 -0.40620 
vt 1.00390 -0.00390 
vt 1.99600 -0.00390 
vt 1.85930 -0.09370 
vt 1.28510 -0.33590 
vt 1.70700 -0.17180 
vt 1.43350 -0.28120 
vt 1.53900 -0.23430 
vt 1.63280 -0.22260 
vt 1.36710 -0.27730 
vt 1.81240 -0.19530 
vt 1.18740 -0.30460 
vt 1.99600 -0.18740 
vt 1.00390 -0.31240 
vt 1.39770 1.97760 
vt 0.95480 1.24850 
vt 0.49990 2.39950 
vt 0.49990 1.36430 
vt -0.39770 1.97760 
vt 0.04510 1.24850 
vt 0.49990 3.04000 
vt -0.19180 2.95350 
vt 1.19180 2.95350 
vt -1.05500 1.35310 
vt -0.28770 0.93210 
vt 2.05500 1.35310 
vt 1.28770 0.93210 
vt -0.83640 2.69970 
vt 1.83640 2.69970 
vt -1.39000 2.29610 
vt 2.39000 2.29610 
vt -1.81480 1.77000 
vt 2.81480 1.77000 
vt -2.08190 1.15740 
vt 3.08190 1.15740 
vt -1.29550 0.50000 
vt -0.40960 0.50000 
vt 2.29550 0.50000 
vt 1.40960 0.50000 
vt 0.49990 0.50000 
vt -2.17290 0.50000 
vt 3.17290 0.50000 
vt -0.28770 0.06780 
vt 1.28770 0.06780 
vt -2.08190 -0.15740 
vt 3.08190 -0.15740 
vt 0.04510 -0.24850 
vt 0.95480 -0.24850 
vt -1.05500 -0.35310 
vt 2.05500 -0.35310 
vt 0.49990 -0.36430 
vt -1.81480 -0.77000 
vt 2.81480 -0.77000 
vt -1.39000 -1.29610 
vt 2.39000 -1.29610 
vt -0.39770 -0.97760 
vt 1.39770 -0.97760 
vt -0.83640 -1.69970 
vt 1.83640 -1.69970 
vt -0.19180 -1.95350 
vt 0.49990 -1.20620 
vt 1.19180 -1.95350 
vt 0.49990 -2.04000 
vt 1.74990 1.99800 
vt 1.49990 1.99800 
vt 1.74990 1.93550 
vt 1.49990 1.93550 
vt 1.24990 1.99800 
vt 1.24990 1.93550 
vt 1.99990 1.99800 
vt 1.99990 1.93550 
vt 0.99990 1.99800 
vt 0.99990 1.93550 
vt 1.74990 1.87300 
vt 1.49990 1.87300 
vt 1.24990 1.87300 
vt 0.74990 1.99800 
vt 0.74990 1.93550 
vt 2.24990 1.99800 
vt 2.24990 1.93550 
vt 0.99990 1.87300 
vt 1.99990 1.87300 
vt 1.49990 1.81050 
vt 1.74990 1.81050 
vt 1.24990 1.81050 
vt 2.24990 1.87300 
vt 0.74990 1.87300 
vt 0.99990 1.81050 
vt 1.99990 1.81050 
vt 2.49990 1.99800 
vt 2.49990 1.93550 
vt 0.49990 1.99800 
vt 0.49990 1.93550 
vt 1.12490 1.74800 
vt 1.24990 1.74800 
vt 2.24990 1.81050 
vt 0.74990 1.81050 
vt 2.49990 1.87300 
vt 0.49990 1.87300 
vt 0.62490 1.37300 
vt 0.49990 1.37300 
vt 0.62490 1.28020 
vt 0.49990 1.28020 
vt 0.37490 1.37300 
vt 0.37490 1.28020 
vt 0.74990 1.37300 
vt 0.74990 1.28020 
vt 0.24990 1.37300 
vt 0.24990 1.28020 
vt 0.12490 1.37300 
vt 0.12490 1.28020 
vt 0.87490 1.37300 
vt 0.87490 1.28020 
vt 0.00000 1.37300 
vt 0.00000 1.28020 
vt 0.99990 1.37300 
vt 0.99990 1.28020 
vt 2.49990 1.81050 
vt 0.49990 1.81050 
vt 0.87490 1.74800 
vt 0.87490 1.65620 
vt 0.99990 1.74800 
vt 0.99990 1.65620 
vt 2.12490 1.74800 
vt 1.99990 1.74800 
vt 2.12490 1.65620 
vt 1.99990 1.65620 
vt 2.74990 1.99800 
vt 2.74990 1.93550 
vt 0.24990 1.99800 
vt 0.24990 1.93550 
vt 2.24990 1.74800 
vt 2.24990 1.65620 
vt 0.74990 1.74800 
vt 0.68740 1.74800 
vt 0.74990 1.70210 
vt 0.68740 1.70210 
vt 0.12490 1.18740 
vt 0.00000 1.18740 
vt 0.62490 1.74800 
vt 0.62490 1.70210 
vt 2.12490 1.56440 
vt 1.99990 1.56440 
vt 0.99990 1.56440 
vt 0.87490 1.56440 
vt 0.49990 1.09470 
vt 0.62490 1.18740 
vt 0.49990 1.14110 
vt 0.49990 1.18740 
vt 2.37490 1.74800 
vt 2.37490 1.65620 
vt 2.74990 1.87300 
vt 0.24990 1.87300 
vt 0.74990 1.65620 
vt 0.68740 1.65620 
vt 0.24990 1.09470 
vt 0.24990 1.14110 
vt 0.24990 1.18740 
vt 0.87490 1.18740 
vt 0.74990 1.18740 
vt 0.87490 1.09470 
vt 0.74990 1.09470 
vt 1.62490 1.74800 
vt 1.37490 1.74800 
vt 0.74990 1.56440 
vt 0.62490 1.65620 
vt 1.49990 1.74800 
vt 0.12490 1.09470 
vt 0.00000 1.09470 
vt 0.99990 1.18740 
vt 0.99990 1.09470 
vt 1.74990 1.74800 
vt 1.87490 1.74800 
vt 2.49990 1.74800 
vt 2.49990 1.65620 
vt 2.74990 1.81050 
vt 0.24990 1.81050 
vt 0.87490 1.47260 
vt 0.99990 1.47260 
vt 0.49990 1.00190 
vt 0.62490 1.09470 
vt 0.62490 1.00190 
vt 0.74990 1.00190 
vt 0.24990 1.00190 
vt 0.12490 1.00190 
vt 0.87490 1.00190 
vt 0.74990 1.47260 
vt 0.00000 1.00190 
vt 0.99990 1.00190 
vt 2.62490 1.74800 
vt 2.62490 1.65620 
vt 0.37490 1.74800 
vt 0.37490 1.65620 
vt 0.49990 1.74800 
vt 0.49990 1.65620 
vt 0.99990 1.38080 
vt 0.87490 1.38080 
vt 0.37490 1.18740 
vt 0.62490 1.51850 
vt 0.56240 1.51850 
vt 0.62490 1.47260 
vt 0.56240 1.47260 
vt 2.24990 1.47260 
vt 2.24990 1.38080 
vt 2.37490 1.47260 
vt 2.37490 1.38080 
vt 0.74990 1.38080 
vt 0.62490 1.38080 
vt 0.49990 1.51850 
vt 0.49990 1.47260 
vt 0.24990 1.74800 
vt 0.24990 1.65620 
vt 2.49990 1.51850 
vt 2.49990 1.47260 
vt 2.56240 1.51850 
vt 2.56240 1.47260 
vt 2.49990 1.38080 
vt 0.37490 1.09470 
vt 2.99990 1.99800 
vt 2.99990 1.93550 
vt 0.00000 1.99800 
vt 0.00000 1.93550 
vt 2.62490 1.51850 
vt 2.62490 1.47260 
vt 2.24990 1.56440 
vt 1.99990 1.47260 
vt 0.37490 1.47260 
vt 0.49990 1.38080 
vt 0.37490 1.38080 
vt 2.99990 1.87300 
vt 0.00000 1.87300 
vt 0.62490 1.61030 
vt 2.37490 1.56440 
vt 0.37490 1.00190 
vt 0.68740 1.56440 
vt 2.12490 1.47260 
vt 0.12490 1.74800 
vt 0.12490 1.65620 
vt 0.56240 1.61030 
vt 2.99990 1.81050 
vt 0.00000 1.81050 
vt 0.62490 1.56440 
vt 2.49990 1.61030 
vt 2.74990 1.47260 
vt 2.74990 1.38080 
vt 2.62490 1.38080 
vt 0.24990 1.47260 
vt 0.24990 1.38080 
vt 2.12490 1.38080 
vt 0.49990 1.61030 
vt 0.56240 1.56440 
vt 1.99990 1.38080 
vt 0.49990 1.56440 
vt 2.49990 1.56440 
vt 2.56240 1.61030 
vt 2.68740 1.74800 
vt 0.37490 1.56440 
vt 2.56240 1.56440 
vt 2.62490 1.61030 
vt 2.87490 1.47260 
vt 2.87490 1.38080 
vt 2.74990 1.74800 
vt 2.68740 1.65620 
vt 2.62490 1.56440 
vt 2.74990 1.65620 
vt 2.68740 1.56440 
vt 2.87490 1.74800 
vt 2.87490 1.65620 
vt 2.99990 1.74800 
vt 2.99990 1.65620 
vt 0.00000 1.74800 
vt 0.00000 1.65620 
vt 2.99990 1.56440 
vt 2.87490 1.56440 
vt 0.12490 1.56440 
vt 0.00000 1.56440 
vt 2.74990 1.56440 
vt 0.24990 1.56440 
vt 0.12490 1.47260 
vt 0.12490 1.38080 
vt 0.99990 1.09470 
vt 0.87490 1.09470 
vt 0.99990 1.00190 
vt 0.87490 1.00190 
vt 0.00000 1.09470 
vt 0.00000 1.00190 
vt 0.12490 1.09470 
vt 0.12490 1.00190 
vt 0.87490 1.18740 
vt 0.99990 1.18740 
vt 0.12490 1.18740 
vt 0.00000 1.18740 
vt 0.12490 1.28020 
vt 0.00000 1.28020 
vt 0.00000 1.47260 
vt 2.99990 1.47260 
vt 2.99990 1.38080 
vt 0.87490 1.37300 
vt 0.87490 1.28020 
vt 0.99990 1.37300 
vt 0.99990 1.28020 
vt 0.12490 1.37300 
vt 0.00000 1.37300 
vt 0.00000 1.38080 
vt 0.74990 1.09470 
vt 0.74990 1.00190 
vt 0.24990 1.09470 
vt 0.24990 1.00190 
vt 5.99990 1.81050 
vt 5.87490 1.74800 
vt 5.99990 1.74800 
vt 3.12490 1.74800 
vt 0.74990 1.18740 
vt 0.24990 1.14110 
vt 0.62490 1.09470 
vt 0.62490 1.00190 
vt 0.74990 1.28020 
vt 0.24990 1.28020 
vt 0.37490 1.00190 
vt 0.24990 1.18740 
vt 5.74990 1.81050 
vt 3.24990 1.81050 
vt 0.37490 1.09470 
vt 5.74990 1.87300 
vt 5.99990 1.87300 
vt 3.24990 1.87300 
vt 0.74990 1.37300 
vt 0.24990 1.37300 
vt 0.37490 1.18740 
vt 0.62490 1.18740 
vt 0.49990 1.09470 
vt 0.49990 1.00190 
vt 5.99990 1.93550 
vt 5.74990 1.93550 
vt 3.24990 1.93550 
vt 0.62490 1.28020 
vt 0.49990 1.09470 
vt 0.49990 1.00190 
vt 5.74990 1.74800 
vt 3.24990 1.74800 
vt 0.37490 1.00190 
vt 0.49990 1.14110 
vt 0.37490 1.28020 
vt 0.49990 1.14110 
vt 0.37490 1.09470 
vt 0.49990 1.18740 
vt 0.49990 1.18740 
vt 5.99990 1.99800 
vt 5.74990 1.99800 
vt 3.24990 1.99800 
vt 0.24990 1.09470 
vt 0.24990 1.00190 
vt 5.62490 1.74800 
vt 3.37490 1.74800 
vt 0.62490 1.09470 
vt 0.62490 1.18740 
vt 0.62490 1.00190 
vt 0.37490 1.18740 
vt 0.49990 1.28020 
vt 0.49990 1.28020 
vt 0.24990 1.14110 
vt 0.62490 1.37300 
vt 0.37490 1.37300 
vt 0.74990 1.18740 
vt 0.74990 1.09470 
vt 4.12490 1.38080 
vt 3.99990 1.47260 
vt 3.99990 1.38080 
vt 0.37490 1.28020 
vt 0.62490 1.28020 
vt 4.99990 1.38080 
vt 4.87490 1.47260 
vt 4.87490 1.38080 
vt 0.74990 1.00190 
vt 0.24990 1.18740 
vt 4.24990 1.47260 
vt 4.24990 1.38080 
vt 4.99990 1.47260 
vt 5.49990 1.81050 
vt 3.49990 1.81050 
vt 0.12490 1.18740 
vt 0.12490 1.09470 
vt 4.12490 1.47260 
vt 4.62490 1.38080 
vt 4.56240 1.47260 
vt 4.49990 1.38080 
vt 0.24990 1.28020 
vt 4.62490 1.47260 
vt 4.49990 1.47260 
vt 0.12490 1.00190 
vt 0.87490 1.09470 
vt 0.87490 1.00190 
vt 5.49990 1.74800 
vt 3.49990 1.74800 
vt 0.74990 1.28020 
vt 4.12490 1.56440 
vt 4.87490 1.56440 
vt 0.87490 1.18740 
vt 4.74990 1.47260 
vt 4.62490 1.51850 
vt 4.24990 1.56440 
vt 3.99990 1.56440 
vt 4.99990 1.56440 
vt 4.49990 1.51850 
vt 4.37490 1.47260 
vt 4.37490 1.56440 
vt 0.99990 1.09470 
vt 0.99990 1.00190 
vt 0.00000 1.09470 
vt 0.00000 1.00190 
vt 4.68740 1.56440 
vt 5.37490 1.74800 
vt 3.62490 1.74800 
vt 0.12490 1.28020 
vt 0.87490 1.28020 
vt 0.49990 1.37300 
vt 0.49990 1.37300 
vt 4.74990 1.56440 
vt 0.99990 1.28020 
vt 0.99990 1.18740 
vt 4.56240 1.51850 
vt 4.62490 1.56440 
vt 4.49990 1.56440 
vt 4.56240 1.56440 
vt 4.74990 1.38080 
vt 4.62490 1.61030 
vt 4.24990 1.65620 
vt 4.56240 1.61030 
vt 4.49990 1.61030 
vt 4.37490 1.38080 
vt 4.68740 1.65620 
vt 5.24990 1.81050 
vt 3.74990 1.81050 
vt 4.12490 1.65620 
vt 4.37490 1.65620 
vt 5.24990 1.74800 
vt 3.74990 1.74800 
vt 0.00000 1.18740 
vt 4.74990 1.65620 
vt 5.49990 1.87300 
vt 3.49990 1.87300 
vt 4.62490 1.65620 
vt 4.49990 1.65620 
vt 0.37490 1.37300 
vt 0.62490 1.37300 
vt 5.12490 1.74800 
vt 3.87490 1.74800 
vt 4.68740 1.74800 
vt 4.99990 1.81050 
vt 3.99990 1.81050 
vt 3.99990 1.74800 
vt 4.99990 1.74800 
vt 5.49990 1.93550 
vt 3.49990 1.93550 
vt 4.74990 1.74800 
vt 0.24990 1.37300 
vt 0.74990 1.37300 
vt 4.62490 1.74800 
vt 0.00000 1.28020 
vt 4.12490 1.74800 
vt 4.87490 1.74800 
vt 3.99990 1.65620 
vt 4.99990 1.65620 
vt 4.87490 1.65620 
vt 4.24990 1.81050 
vt 4.24990 1.74800 
vt 4.74990 1.81050 
vt 4.37490 1.74800 
vt 4.49990 1.81050 
vt 4.49990 1.74800 
vt 0.12490 1.37300 
vt 0.87490 1.37300 
vt 5.49990 1.99800 
vt 3.49990 1.99800 
vt 0.99990 1.37300 
vt 0.00000 1.37300 
vt 5.24990 1.87300 
vt 3.74990 1.87300 
vt 5.24990 1.93550 
vt 3.74990 1.93550 
vt 4.99990 1.87300 
vt 3.99990 1.87300 
vt 5.24990 1.99800 
vt 3.74990 1.99800 
vt 4.24990 1.87300 
vt 4.74990 1.87300 
vt 4.99990 1.93550 
vt 3.99990 1.93550 
vt 4.49990 1.87300 
vt 4.24990 1.93550 
vt 4.74990 1.93550 
vt 4.99990 1.99800 
vt 3.99990 1.99800 
vt 4.49990 1.93550 
vt 4.24990 1.99800 
vt 4.74990 1.99800 
vt 4.49990 1.99800 
vt -0.00390 -0.99600 
vt -0.99600 -0.00390 
vt -0.99600 -0.99600 
vt -0.00390 -0.00390 
vt -0.99600 -0.00390 
vt -0.00390 -0.00390 
vt -0.99600 -0.99600 
vt -0.99600 -0.00390 
vt -0.99600 -0.99600 
vt -0.00390 -0.00390 
vt -0.99600 -0.00390 
vt -0.99600 -0.99600 
vt -0.00390 -0.00390 

s 1

g Object_2

usemtl texture1

f 45/45 46/46 47/47
f 46/46 48/48 47/47
f 45/45 49/49 46/46
f 49/49 50/50 46/46
f 51/51 47/47 52/52
f 47/47 48/48 52/52
f 53/53 54/54 49/49
f 54/54 50/50 49/49
f 51/51 52/52 55/55
f 52/52 56/56 55/55
f 53/53 57/57 54/54
f 57/57 58/58 54/54
f 59/59 55/55 60/60
f 55/55 56/56 60/60
f 61/61 62/62 57/57
f 62/62 58/58 57/57
f 59/59 60/60 63/63
f 60/60 64/64 63/63
f 61/61 65/65 62/62
f 65/65 66/66 62/62
f 67/67 63/63 68/68
f 63/63 64/64 68/68
f 69/69 70/70 65/65
f 70/70 66/66 65/65
f 67/67 68/68 71/71
f 68/68 72/72 71/71
f 69/69 73/73 70/70
f 73/73 74/74 70/70
f 75/75 71/71 76/76
f 71/71 72/72 76/76
f 77/77 78/78 73/73
f 78/78 74/74 73/73
f 75/75 76/76 79/79
f 76/76 80/80 79/79
f 77/77 81/81 78/78
f 81/81 82/82 78/78
f 83/83 79/79 84/84
f 79/79 80/80 84/84
f 85/85 86/86 81/81
f 86/86 82/82 81/81
f 85/85 87/87 86/86
f 87/87 88/88 86/86
f 83/83 84/84 89/89
f 84/84 90/90 89/89
f 91/91 92/92 87/87
f 92/92 88/88 87/87
f 93/93 89/89 94/94
f 89/89 90/90 94/94
f 95/95 96/96 97/97
f 98/98 99/99 100/100
f 95/95 101/101 96/96
f 102/102 99/99 98/98
f 103/103 99/99 102/102
f 95/95 104/104 101/101
f 105/105 99/99 103/103
f 95/95 106/106 104/104
f 107/107 99/99 105/105
f 95/95 108/108 106/106
f 95/95 109/109 108/108
f 110/110 99/99 107/107
f 111/111 112/112 113/113
f 114/114 115/115 116/116
f 111/111 117/117 112/112
f 114/114 116/116 118/118
f 111/111 119/119 117/117
f 114/114 118/118 120/120
f 111/111 121/121 119/119
f 114/114 120/120 122/122
f 111/111 123/123 121/121
f 114/114 122/122 124/124
f 111/111 125/125 123/123
f 114/114 124/124 126/126
f 127/127 128/128 129/129
f 130/130 131/131 132/132
f 133/133 128/128 127/127
f 130/130 134/134 131/131
f 135/135 128/128 133/133
f 130/130 136/136 134/134
f 137/137 128/128 135/135
f 130/130 138/138 136/136
f 139/139 128/128 137/137
f 130/130 140/140 138/138
f 141/141 128/128 139/139
f 130/130 142/142 140/140
f 143/143 144/144 145/145
f 146/146 147/147 148/148
f 145/145 144/144 149/149
f 146/146 148/148 150/150
f 149/149 144/144 151/151
f 146/146 150/150 152/152
f 151/151 144/144 153/153
f 146/146 152/152 154/154
f 153/153 144/144 155/155
f 146/146 154/154 156/156
f 155/155 144/144 157/157
f 146/146 156/156 158/158

usemtl texture2

f 159/159 160/160 161/161
f 160/160 162/162 161/161
f 161/161 162/162 163/163
f 162/162 164/164 163/163
f 165/165 161/161 166/166
f 167/167 161/161 165/165
f 163/163 164/164 168/168
f 164/164 169/169 168/168
f 170/170 171/171 159/159
f 171/171 160/160 159/159
f 166/166 163/163 172/172
f 173/173 159/159 167/167
f 167/167 159/159 161/161
f 166/166 161/161 163/163
f 172/172 163/163 174/174
f 175/175 159/159 173/173
f 174/174 163/163 168/168
f 175/175 170/170 159/159
f 174/174 168/168 176/176
f 177/177 170/170 175/175
f 176/176 168/168 178/178
f 179/179 170/170 177/177
f 168/168 169/169 180/180
f 169/169 181/181 180/180
f 182/182 183/183 170/170
f 183/183 171/171 170/170
f 160/160 184/184 162/162
f 162/162 184/184 164/164
f 178/178 168/168 180/180
f 179/179 182/182 170/170
f 171/171 184/184 160/160
f 164/164 184/184 169/169
f 178/178 180/180 185/185
f 186/186 182/182 179/179
f 169/169 184/184 181/181
f 183/183 184/184 171/171
f 181/181 184/184 187/187
f 188/188 184/184 183/183
f 185/185 180/180 189/189
f 190/190 182/182 186/186
f 187/187 184/184 191/191
f 192/192 184/184 188/188
f 180/180 181/181 193/193
f 181/181 187/187 193/193
f 194/194 188/188 182/182
f 188/188 183/183 182/182
f 189/189 180/180 193/193
f 190/190 194/194 182/182
f 195/195 184/184 192/192
f 191/191 184/184 195/195
f 189/189 193/193 196/196
f 197/197 194/194 190/190
f 196/196 193/193 198/198
f 199/199 194/194 197/197
f 198/198 193/193 200/200
f 199/199 201/201 194/194
f 193/193 187/187 200/200
f 187/187 191/191 200/200
f 201/201 192/192 194/194
f 192/192 188/188 194/194
f 198/198 200/200 202/202
f 203/203 201/201 199/199
f 204/204 200/200 205/205
f 206/206 205/205 201/201
f 206/206 201/201 203/203
f 202/202 200/200 204/204
f 207/207 205/205 206/206
f 204/204 205/205 207/207
f 200/200 191/191 205/205
f 191/191 195/195 205/205
f 205/205 195/195 201/201
f 195/195 192/192 201/201

usemtl texture3

f 208/208 209/209 210/210
f 209/209 211/211 210/210
f 209/209 212/212 211/211
f 212/212 213/213 211/211
f 214/214 208/208 215/215
f 208/208 210/210 215/215
f 212/212 216/216 213/213
f 216/216 217/217 213/213
f 210/210 211/211 218/218
f 211/211 219/219 218/218
f 213/213 220/220 211/211
f 211/211 220/220 219/219
f 216/216 221/221 217/217
f 221/221 222/222 217/217
f 223/223 214/214 224/224
f 214/214 215/215 224/224
f 213/213 217/217 220/220
f 217/217 225/225 220/220
f 215/215 210/210 226/226
f 210/210 218/218 226/226
f 219/219 227/227 218/218
f 218/218 227/227 228/228
f 219/219 220/220 227/227
f 220/220 229/229 227/227
f 215/215 226/226 224/224
f 224/224 226/226 230/230
f 217/217 222/222 225/225
f 222/222 231/231 225/225
f 220/220 225/225 229/229
f 225/225 232/232 229/229
f 226/226 218/218 233/233
f 218/218 228/228 233/233
f 234/234 223/223 235/235
f 223/223 224/224 235/235
f 221/221 236/236 222/222
f 236/236 237/237 222/222
f 232/232 238/238 229/229
f 229/229 238/238 239/239
f 230/230 226/226 240/240
f 226/226 233/233 240/240
f 225/225 231/231 232/232
f 231/231 241/241 232/232
f 224/224 230/230 235/235
f 235/235 230/230 242/242
f 222/222 237/237 231/231
f 237/237 243/243 231/231
f 244/244 245/245 246/246
f 246/246 245/245 247/247
f 248/248 249/249 245/245
f 245/245 249/249 247/247
f 244/244 246/246 250/250
f 250/250 246/246 251/251
f 248/248 252/252 249/249
f 252/252 253/253 249/249
f 254/254 255/255 252/252
f 252/252 255/255 253/253
f 256/256 250/250 257/257
f 257/257 250/250 251/251
f 254/254 258/258 255/255
f 255/255 258/258 259/259
f 256/256 257/257 260/260
f 260/260 257/257 261/261
f 242/242 230/230 262/262
f 230/230 240/240 262/262
f 231/231 243/243 241/241
f 243/243 263/263 241/241
f 264/264 265/265 266/266
f 266/266 265/265 267/267
f 268/268 269/269 270/270
f 270/270 269/269 271/271
f 272/272 234/234 273/273
f 234/234 235/235 273/273
f 236/236 274/274 237/237
f 274/274 275/275 237/237
f 268/268 270/270 276/276
f 276/276 270/270 277/277
f 278/278 279/279 280/280
f 279/279 281/281 280/280
f 255/255 259/259 282/282
f 282/282 259/259 283/283
f 284/284 285/285 279/279
f 279/279 285/285 281/281
f 270/270 271/271 286/286
f 286/286 271/271 287/287
f 267/267 265/265 288/288
f 265/265 289/289 288/288
f 290/290 291/291 292/292
f 291/291 293/293 292/292
f 294/294 276/276 295/295
f 295/295 276/276 277/277
f 235/235 242/242 273/273
f 273/273 242/242 296/296
f 237/237 275/275 243/243
f 275/275 297/297 243/243
f 280/280 281/281 298/298
f 281/281 299/299 298/298
f 300/300 301/301 282/282
f 302/302 282/282 301/301
f 303/303 304/304 305/305
f 305/305 304/304 306/306
f 228/228 227/227 307/307
f 227/227 229/229 308/308
f 265/265 298/298 289/289
f 289/289 298/298 309/309
f 285/285 310/310 281/281
f 281/281 310/310 299/299
f 307/307 227/227 311/311
f 227/227 308/308 311/311
f 282/282 283/283 312/312
f 312/312 283/283 313/313
f 303/303 305/305 314/314
f 314/314 305/305 315/315
f 308/308 229/229 239/239
f 228/228 307/307 316/316
f 233/233 228/228 317/317
f 294/294 295/295 318/318
f 318/318 295/295 319/319
f 317/317 228/228 316/316
f 296/296 242/242 320/320
f 242/242 262/262 320/320
f 243/243 297/297 263/263
f 297/297 321/321 263/263
f 289/289 322/322 288/288
f 288/288 322/322 323/323
f 290/290 324/324 325/325
f 326/326 325/325 324/324
f 306/306 325/325 327/327
f 325/325 326/326 327/327
f 233/233 317/317 269/269
f 238/238 232/232 266/266
f 300/300 312/312 328/328
f 312/312 329/329 328/328
f 306/306 327/327 305/305
f 330/330 305/305 327/327
f 289/289 309/309 322/322
f 322/322 309/309 331/331
f 232/232 264/264 266/266
f 268/268 233/233 269/269
f 240/240 233/233 268/268
f 232/232 241/241 264/264
f 313/313 332/332 312/312
f 329/329 312/312 332/332
f 315/315 305/305 333/333
f 305/305 330/330 333/333
f 334/334 318/318 335/335
f 318/318 319/319 335/335
f 336/336 337/337 338/338
f 338/338 337/337 339/339
f 323/323 322/322 340/340
f 322/322 341/341 340/340
f 240/240 268/268 276/276
f 264/264 241/241 278/278
f 293/293 246/246 247/247
f 247/247 249/249 293/293
f 241/241 279/279 278/278
f 249/249 253/253 342/342
f 251/251 246/246 304/304
f 294/294 240/240 276/276
f 264/264 278/278 265/265
f 241/241 284/284 279/279
f 343/343 344/344 345/345
f 345/345 344/344 346/346
f 253/253 255/255 282/282
f 303/303 257/257 251/251
f 293/293 249/249 342/342
f 291/291 246/246 293/293
f 304/304 246/246 291/291
f 347/347 348/348 349/349
f 350/350 349/349 348/348
f 331/331 345/345 351/351
f 345/345 352/352 351/351
f 262/262 240/240 294/294
f 241/241 263/263 284/284
f 342/342 253/253 302/302
f 261/261 257/257 303/303
f 253/253 282/282 302/302
f 303/303 251/251 304/304
f 278/278 280/280 265/265
f 353/353 354/354 344/344
f 346/346 344/344 354/354
f 336/336 355/355 337/337
f 337/337 355/355 356/356
f 293/293 342/342 292/292
f 261/261 303/303 314/314
f 265/265 280/280 298/298
f 342/342 302/302 301/301
f 357/357 358/358 359/359
f 360/360 359/359 358/358
f 358/358 349/349 361/361
f 349/349 350/350 361/361
f 304/304 291/291 325/325
f 292/292 342/342 362/362
f 342/342 301/301 362/362
f 277/277 270/270 286/286
f 262/262 294/294 318/318
f 284/284 263/263 338/338
f 363/363 272/272 364/364
f 272/272 273/273 364/364
f 274/274 365/365 275/275
f 365/365 366/366 275/275
f 325/325 291/291 290/290
f 285/285 284/284 338/338
f 304/304 325/325 306/306
f 367/367 359/359 368/368
f 368/368 359/359 360/360
f 292/292 362/362 290/290
f 300/300 282/282 312/312
f 362/362 301/301 300/300
f 309/309 298/298 299/299
f 277/277 286/286 369/369
f 370/370 286/286 287/287
f 354/354 371/371 372/372
f 371/371 373/373 372/372
f 334/334 262/262 318/318
f 263/263 336/336 338/338
f 273/273 296/296 364/364
f 364/364 296/296 374/374
f 275/275 366/366 297/297
f 366/366 375/375 297/297
f 339/339 285/285 338/338
f 299/299 310/310 376/376
f 377/377 295/295 277/277
f 290/290 362/362 378/378
f 310/310 285/285 339/339
f 362/362 300/300 378/378
f 377/377 277/277 369/369
f 309/309 299/299 379/379
f 379/379 299/299 376/376
f 369/369 286/286 380/380
f 380/380 286/286 370/370
f 381/381 382/382 355/355
f 355/355 382/382 356/356
f 290/290 378/378 324/324
f 376/376 310/310 383/383
f 378/378 300/300 328/328
f 374/374 296/296 384/384
f 296/296 320/320 384/384
f 297/297 375/375 321/321
f 375/375 385/385 321/321
f 383/383 310/310 339/339
f 320/320 262/262 334/334
f 263/263 321/321 336/336
f 379/379 376/376 386/386
f 309/309 379/379 331/331
f 319/319 295/295 387/387
f 387/387 295/295 377/377
f 369/369 380/380 347/347
f 386/386 376/376 383/383
f 347/347 377/377 369/369
f 388/388 368/368 389/389
f 368/368 390/390 389/389
f 391/391 392/392 371/371
f 373/373 371/371 392/392
f 393/393 380/380 370/370
f 343/343 379/379 386/386
f 383/383 339/339 394/394
f 386/386 383/383 395/395
f 331/331 379/379 343/343
f 393/393 370/370 396/396
f 347/347 380/380 393/393
f 341/341 322/322 331/331
f 397/397 383/383 394/394
f 395/395 383/383 397/397
f 349/349 377/377 347/347
f 344/344 386/386 395/395
f 387/387 377/377 398/398
f 399/399 319/319 387/387
f 343/343 386/386 344/344
f 339/339 337/337 394/394
f 331/331 343/343 345/345
f 399/399 335/335 319/319
f 400/400 334/334 335/335
f 320/320 334/334 400/400
f 398/398 377/377 357/357
f 344/344 395/395 397/397
f 357/357 377/377 349/349
f 398/398 399/399 387/387
f 347/347 393/393 348/348
f 341/341 331/331 351/351
f 336/336 321/321 355/355
f 344/344 397/397 353/353
f 394/394 401/401 397/397
f 402/402 399/399 398/398
f 394/394 337/337 401/401
f 403/403 335/335 399/399
f 388/388 389/389 404/404
f 405/405 404/404 389/389
f 320/320 400/400 406/406
f 400/400 335/335 407/407
f 359/359 398/398 357/357
f 357/357 349/349 358/358
f 359/359 402/402 398/398
f 397/397 401/401 353/353
f 352/352 345/345 346/346
f 408/408 399/399 402/402
f 408/408 403/403 399/399
f 403/403 407/407 335/335
f 406/406 400/400 409/409
f 359/359 408/408 402/402
f 409/409 400/400 407/407
f 401/401 337/337 356/356
f 372/372 346/346 354/354
f 353/353 371/371 354/354
f 352/352 346/346 372/372
f 353/353 401/401 371/371
f 410/410 407/407 403/403
f 410/410 403/403 408/408
f 367/367 408/408 359/359
f 411/411 412/412 413/413
f 413/413 412/412 414/414
f 381/381 415/415 382/382
f 382/382 415/415 416/416
f 411/411 320/320 406/406
f 321/321 381/381 355/355
f 361/361 360/360 358/358
f 367/367 410/410 408/408
f 414/414 412/412 417/417
f 412/412 418/418 417/417
f 382/382 416/416 419/419
f 419/419 416/416 420/420
f 421/421 407/407 410/410
f 421/421 409/409 407/407
f 401/401 356/356 422/422
f 409/409 411/411 406/406
f 390/390 360/360 361/361
f 368/368 360/360 390/390
f 371/371 401/401 391/391
f 388/388 410/410 367/367
f 388/388 367/367 368/368
f 391/391 401/401 422/422
f 421/421 410/410 388/388
f 418/418 409/409 421/421
f 356/356 419/419 422/422
f 412/412 411/411 409/409
f 384/384 320/320 411/411
f 321/321 385/385 381/381
f 418/418 412/412 409/409
f 356/356 382/382 419/419
f 404/404 421/421 388/388
f 422/422 423/423 391/391
f 404/404 418/418 421/421
f 422/422 419/419 423/423
f 391/391 424/424 392/392
f 391/391 423/423 424/424
f 425/425 426/426 427/427
f 426/426 428/428 427/427
f 429/429 430/430 431/431
f 432/432 431/431 430/430
f 433/433 426/426 434/434
f 434/434 426/426 425/425
f 435/435 436/436 431/431
f 431/431 436/436 429/429
f 437/437 438/438 435/435
f 435/435 438/438 436/436
f 423/423 419/419 439/439
f 440/440 418/418 404/404
f 384/384 411/411 413/413
f 381/381 385/385 415/415
f 441/441 404/404 405/405
f 424/424 423/423 439/439
f 442/442 443/443 444/444
f 444/444 443/443 445/445
f 446/446 447/447 437/437
f 437/437 447/447 438/438
f 417/417 418/418 440/440
f 439/439 419/419 420/420
f 440/440 404/404 441/441
f 424/424 439/439 448/448
f 449/449 450/450 426/426
f 428/428 426/426 450/450
f 451/451 431/431 452/452
f 431/431 432/432 452/452
f 445/445 433/433 434/434
f 453/453 454/454 455/455
f 456/456 384/384 413/413
f 445/445 443/443 433/433
f 433/433 457/457 426/426
f 426/426 457/457 449/449
f 451/451 435/435 431/431
f 451/451 458/458 435/435
f 449/449 459/459 450/450
f 459/459 460/460 450/450
f 433/433 443/443 461/461
f 462/462 437/437 435/435
f 463/463 451/451 452/452
f 464/464 435/435 458/458
f 453/453 465/465 454/454
f 466/466 384/384 456/456
f 433/433 461/461 457/457
f 462/462 435/435 464/464
f 467/467 458/458 451/451
f 463/463 467/467 451/451
f 468/468 465/465 469/469
f 469/469 465/465 453/453
f 470/470 374/374 466/466
f 374/374 384/384 466/466
f 457/457 459/459 449/449
f 442/442 471/471 443/443
f 443/443 471/471 461/461
f 446/446 437/437 472/472
f 472/472 437/437 462/462
f 458/458 473/473 464/464
f 467/467 473/473 458/458
f 457/457 474/474 459/459
f 475/475 467/467 463/463
f 473/473 462/462 464/464
f 475/475 463/463 476/476
f 477/477 478/478 469/469
f 478/478 468/468 469/469
f 364/364 374/374 479/479
f 479/479 374/374 470/470
f 461/461 480/480 457/457
f 481/481 482/482 459/459
f 460/460 459/459 482/482
f 454/454 465/465 483/483
f 466/466 456/456 484/484
f 459/459 474/474 481/481
f 481/481 485/485 482/482
f 457/457 480/480 474/474
f 486/486 473/473 467/467
f 486/486 467/467 475/475
f 473/473 487/487 462/462
f 481/481 474/474 488/488
f 481/481 489/489 485/485
f 488/488 474/474 490/490
f 491/491 473/473 486/486
f 492/492 493/493 477/477
f 493/493 478/478 477/477
f 494/494 363/363 479/479
f 363/363 364/364 479/479
f 488/488 489/489 481/481
f 474/474 480/480 490/490
f 491/491 487/487 473/473
f 485/485 495/495 496/496
f 485/485 489/489 495/495
f 465/465 497/497 483/483
f 498/498 466/466 484/484
f 499/499 500/500 475/475
f 475/475 476/476 499/499
f 501/501 499/499 476/476
f 488/488 502/502 489/489
f 490/490 502/502 488/488
f 490/490 480/480 503/503
f 504/504 487/487 491/491
f 489/489 505/505 495/495
f 489/489 502/502 505/505
f 506/506 480/480 471/471
f 471/471 480/480 461/461
f 507/507 472/472 487/487
f 487/487 472/472 462/462
f 508/508 499/499 509/509
f 508/508 500/500 499/499
f 510/510 511/511 512/512
f 490/490 513/513 502/502
f 500/500 514/514 491/491
f 503/503 513/513 490/490
f 491/491 514/514 504/504
f 515/515 516/516 517/517
f 509/509 499/499 518/518
f 499/499 501/501 518/518
f 505/505 502/502 519/519
f 475/475 500/500 486/486
f 500/500 491/491 486/486
f 520/520 510/510 521/521
f 522/522 516/516 515/515
f 465/465 523/523 497/497
f 524/524 466/466 498/498
f 495/495 525/525 526/526
f 505/505 525/525 495/495
f 510/510 527/527 511/511
f 508/508 514/514 500/500
f 528/528 529/529 530/530
f 520/520 527/527 510/510
f 519/519 525/525 505/505
f 502/502 531/531 519/519
f 528/528 532/532 529/529
f 502/502 513/513 531/531
f 530/530 529/529 533/533
f 495/495 526/526 496/496
f 526/526 534/534 496/496
f 509/509 518/518 535/535
f 536/536 535/535 518/518
f 497/497 523/523 537/537
f 524/524 498/498 538/538
f 539/539 514/514 508/508
f 527/527 540/540 511/511
f 522/522 541/541 516/516
f 531/531 525/525 519/519
f 542/542 539/539 508/508
f 543/543 544/544 532/532
f 545/545 527/527 520/520
f 511/511 540/540 546/546
f 547/547 541/541 522/522
f 548/548 549/549 533/533
f 549/549 550/550 520/520
f 551/551 535/535 552/552
f 535/535 536/536 552/552
f 553/553 554/554 526/526
f 534/534 526/526 554/554
f 545/545 540/540 527/527
f 543/543 555/555 544/544
f 523/523 556/556 537/537
f 557/557 524/524 538/538
f 531/531 558/558 525/525
f 559/559 539/539 542/542
f 506/506 560/560 480/480
f 480/480 560/560 503/503
f 507/507 487/487 561/561
f 561/561 487/487 504/504
f 548/548 550/550 549/549
f 562/562 555/555 543/543
f 563/563 542/542 564/564
f 520/520 550/550 545/545
f 565/565 544/544 566/566
f 548/548 565/565 567/567
f 563/563 559/559 542/542
f 544/544 555/555 566/566
f 565/565 566/566 568/568
f 567/567 565/565 568/568
f 567/567 550/550 548/548
f 542/542 508/508 535/535
f 535/535 508/508 509/509
f 543/543 569/569 516/516
f 517/517 516/516 569/569
f 555/555 570/570 566/566
f 571/571 540/540 545/545
f 566/566 572/572 568/568
f 568/568 572/572 567/567
f 573/573 550/550 567/567
f 520/520 521/521 549/549
f 574/574 549/549 521/521
f 543/543 532/532 569/569
f 532/532 528/528 569/569
f 550/550 571/571 545/545
f 562/562 575/575 555/555
f 523/523 576/576 556/556
f 577/577 524/524 557/557
f 570/570 572/572 566/566
f 533/533 549/549 530/530
f 549/549 574/574 530/530
f 567/567 572/572 573/573
f 571/571 578/578 540/540
f 555/555 575/575 570/570
f 573/573 579/579 550/550
f 556/556 576/576 580/580
f 577/577 557/557 581/581
f 525/525 582/582 526/526
f 526/526 582/582 553/553
f 542/542 535/535 564/564
f 564/564 535/535 551/551
f 562/562 583/583 575/575
f 550/550 579/579 571/571
f 468/468 584/584 465/465
f 584/584 523/523 465/465
f 585/585 470/470 524/524
f 470/470 466/466 524/524
f 570/570 586/586 572/572
f 572/572 587/587 573/573
f 588/588 513/513 560/560
f 560/560 513/513 503/503
f 589/589 561/561 514/514
f 514/514 561/561 504/504
f 570/570 575/575 586/586
f 572/572 586/586 587/587
f 587/587 579/579 573/573
f 576/576 590/590 580/580
f 591/591 577/577 581/581
f 544/544 565/565 532/532
f 532/532 565/565 529/529
f 548/548 533/533 565/565
f 529/529 565/565 533/533
f 541/541 562/562 516/516
f 516/516 562/562 543/543
f 583/583 592/592 575/575
f 575/575 592/592 586/586
f 576/576 593/593 590/590
f 594/594 577/577 591/591
f 594/594 591/591 595/595
f 590/590 593/593 596/596
f 478/478 597/597 468/468
f 597/597 584/584 468/468
f 479/479 470/470 598/598
f 598/598 470/470 585/585
f 599/599 592/592 583/583
f 588/588 600/600 513/513
f 513/513 600/600 531/531
f 589/589 514/514 601/601
f 601/601 514/514 539/539
f 586/586 592/592 602/602
f 558/558 603/603 525/525
f 525/525 603/603 582/582
f 604/604 594/594 595/595
f 593/593 605/605 596/596
f 578/578 606/606 540/540
f 540/540 606/606 546/546
f 607/607 608/608 547/547
f 608/608 541/541 547/547
f 609/609 604/604 610/610
f 605/605 611/611 599/599
f 611/611 592/592 599/599
f 609/609 594/594 604/604
f 593/593 611/611 605/605
f 612/612 609/609 610/610
f 611/611 602/602 592/592
f 613/613 612/612 614/614
f 602/602 613/613 614/614
f 615/615 558/558 600/600
f 600/600 558/558 531/531
f 616/616 601/601 559/559
f 559/559 601/601 539/539
f 608/608 583/583 541/541
f 541/541 583/583 562/562
f 493/493 617/617 478/478
f 617/617 597/597 478/478
f 618/618 494/494 598/598
f 494/494 479/479 598/598
f 613/613 609/609 612/612
f 611/611 613/613 602/602
f 616/616 559/559 619/619
f 619/619 559/559 563/563
f 615/615 620/620 558/558
f 558/558 620/620 603/603
f 584/584 621/621 523/523
f 621/621 576/576 523/523
f 622/622 585/585 577/577
f 585/585 524/524 577/577
f 604/604 595/595 578/578
f 578/578 595/595 606/606
f 605/605 608/608 596/596
f 596/596 608/608 607/607
f 604/604 578/578 610/610
f 610/610 578/578 571/571
f 605/605 599/599 608/608
f 608/608 599/599 583/583
f 612/612 610/610 579/579
f 579/579 610/610 571/571
f 612/612 579/579 614/614
f 614/614 579/579 587/587
f 602/602 614/614 586/586
f 586/586 614/614 587/587
f 597/597 623/623 584/584
f 623/623 621/621 584/584
f 598/598 585/585 624/624
f 624/624 585/585 622/622
f 621/621 625/625 576/576
f 625/625 593/593 576/576
f 626/626 622/622 594/594
f 622/622 577/577 594/594
f 617/617 627/627 597/597
f 627/627 623/623 597/597
f 628/628 618/618 624/624
f 618/618 598/598 624/624
f 629/629 626/626 609/609
f 626/626 594/594 609/609
f 625/625 630/630 593/593
f 630/630 611/611 593/593
f 623/623 631/631 621/621
f 631/631 625/625 621/621
f 632/632 624/624 626/626
f 624/624 622/622 626/626
f 633/633 629/629 613/613
f 629/629 609/609 613/613
f 630/630 633/633 611/611
f 633/633 613/613 611/611
f 634/634 632/632 629/629
f 632/632 626/626 629/629
f 631/631 635/635 625/625
f 635/635 630/630 625/625
f 627/627 636/636 623/623
f 636/636 631/631 623/623
f 637/637 628/628 632/632
f 628/628 624/624 632/632
f 638/638 634/634 633/633
f 634/634 629/629 633/633
f 635/635 638/638 630/630
f 638/638 633/633 630/630
f 639/639 637/637 634/634
f 637/637 632/632 634/634
f 636/636 640/640 631/631
f 640/640 635/635 631/631
f 641/641 639/639 638/638
f 639/639 634/634 638/638
f 640/640 641/641 635/635
f 641/641 638/638 635/635

usemtl texture4

f 642/642 643/643 644/644
f 642/642 645/645 646/646
f 642/642 647/647 643/643
f 642/642 646/646 648/648
f 642/642 649/649 650/650
f 642/642 651/651 652/652
f 642/642 652/652 653/653
f 642/642 654/654 649/649

usemtl texture0

f 1/1 2/2 3/3
f 4/4 3/3 2/2
f 3/3 4/4 5/5
f 6/6 5/5 4/4
f 7/7 8/8 9/9
f 10/10 9/9 8/8
f 11/11 12/12 13/13
f 12/12 14/14 13/13
f 15/15 16/16 17/17
f 16/16 18/18 17/17
f 19/19 20/20 21/21
f 21/21 20/20 22/22
f 23/23 24/24 25/25
f 24/24 26/26 25/25
f 27/27 28/28 29/29
f 29/29 28/28 30/30
f 31/31 32/32 33/33
f 32/32 34/34 33/33
f 35/35 36/36 37/37
f 38/38 37/37 36/36
f 39/39 40/40 41/41
f 41/41 40/40 42/42
f 43/43 39/39 44/44
f 44/44 39/39 41/41

