# Model created using BSP2OBJ v0.2.1 by DCx Demo*
# http://devilclanthps3.weebly.com/

mtllib Skybox2.obj.mtl
# Object number 1
# 884 faces
# 709 vertices

v -16321.88477 -19790.00000 -242.82019
v -15751.66211 -19790.00000 141.78711
v -14086.81738 -19790.00000 -936.34253
v -13979.76367 -19790.00000 -432.74979
v -11798.57910 -19790.00000 -936.34253
v -11798.57910 -19790.00000 -432.74979
v -12657.71191 -19790.00000 -9005.22363
v -12775.66406 -19790.00000 -8465.72754
v -9678.06348 -19790.00000 -7414.07471
v -9859.37305 -19790.00000 -7037.95898
v -11148.37109 -19790.00000 -10003.18555
v -9328.12012 -19790.00000 -8480.66211
v -10756.88672 -19790.00000 -10359.12012
v -8914.69434 -19790.00000 -8896.98730
v -8500.26367 -19790.00000 8300.98145
v -8744.18848 -19790.00000 8083.33984
v -10157.76953 -19790.00000 9550.14453
v -10385.78809 -19790.00000 9327.77344
v -4641.83740 -19790.00000 -10833.89258
v -8490.56934 -19790.00000 -14406.42090
v -4920.49707 -19790.00000 -10668.74902
v -8768.20703 -19790.00000 -14149.67773
v -6056.26758 -19790.00000 10700.18262
v -6533.51465 -19790.00000 10569.05078
v -6623.38281 -19790.00000 12443.58203
v -6956.78516 -19790.00000 12335.42578
v 1794.05615 -19790.00000 14265.62305
v -122.92542 -19790.00000 14785.45117
v 1904.16785 -19790.00000 14943.71582
v -28.26733 -19790.00000 15440.56641
v 1541.18933 -19790.00000 -13761.54492
v 2043.99097 -19790.00000 -13789.66406
v 1707.96765 -19790.00000 -17277.29688
v 2204.80054 -19790.00000 -17241.29102
v 10759.37891 -19790.00000 -16781.23828
v 10214.80078 -19790.00000 -16872.91406
v 8654.14258 -19790.00000 -12466.26563
v 8269.68066 -19790.00000 -12629.14160
v 19069.81836 -19790.00000 -882.25159
v 15435.19141 -19790.00000 -1070.32397
v 18954.86914 -19790.00000 -370.14090
v 15466.02344 -19790.00000 -500.89639
v 21340.10156 -19790.00000 -263.29501
v 21030.36328 -19790.00000 200.40881
v -12410.14551 -20000.00000 -0.00110
v -16813.87305 -20000.00000 -2016.11145
v -16950.08789 -20000.00000 -0.00189
v -16813.87500 -20000.00000 2016.10828
v -12410.14648 -20000.00000 -0.00110
v -16950.08789 -20000.00000 -0.00189
v -16423.63867 -20000.00000 3998.77588
v -12410.14648 -20000.00000 -0.00110
v -16423.63672 -20000.00000 -3998.77832
v -15770.25781 -20000.00000 -5910.93555
v -15770.25781 -20000.00000 5910.93359
v -14880.16602 -20000.00000 -7725.04395
v -14880.16797 -20000.00000 7725.04297
v -13754.15039 -20000.00000 9402.93945
v -13754.14941 -20000.00000 -9402.94043
v -12424.86426 -20000.00000 -10924.86426
v -12424.86328 -20000.00000 10924.86230
v -1499.99988 -20000.00000 -10911.04492
v -10902.94141 -20000.00000 -12254.15137
v -12424.86426 -20000.00000 -10924.86426
v -1499.99988 -20000.00000 10946.36523
v -12424.86328 -20000.00000 10924.86230
v -10902.93945 -20000.00000 12254.14941
v -9225.04492 -20000.00000 -13380.17188
v -9225.04395 -20000.00000 13380.16895
v -7410.93652 -20000.00000 -14270.26270
v -7410.93457 -20000.00000 14270.25879
v -5498.77832 -20000.00000 -14923.64258
v -5498.77686 -20000.00000 14923.63867
v -3516.11035 -20000.00000 -15313.87793
v -3516.10962 -20000.00000 15313.87500
v -1499.99976 -20000.00000 -15450.09180
v -1499.99976 -20000.00000 15450.08984
v 516.10999 -20000.00000 15313.87500
v -1499.99988 -20000.00000 10946.36621
v -1499.99976 -20000.00000 15450.08984
v -1499.99988 -20000.00000 -10911.04492
v 516.11096 -20000.00000 -15313.87793
v -1499.99976 -20000.00000 -15450.09180
v 2498.77686 -20000.00000 14923.63867
v 2498.77905 -20000.00000 -14923.64258
v 4410.93604 -20000.00000 14270.25977
v 4410.93750 -20000.00000 -14270.26270
v 6225.04590 -20000.00000 13380.17090
v 6225.04688 -20000.00000 -13380.17188
v 7902.94141 -20000.00000 12254.14941
v 7902.94141 -20000.00000 -12254.15137
v 9424.86328 -20000.00000 10924.86230
v 9424.86426 -20000.00000 -10924.86328
v 9424.86426 -20000.00000 -10924.86328
v 9446.36621 -20000.00000 -0.00018
v 10754.15137 -20000.00000 -9402.94141
v 9446.36621 -20000.00000 -0.00018
v 9424.86328 -20000.00000 10924.86230
v 10754.15137 -20000.00000 9402.94043
v 11880.17188 -20000.00000 -7725.04590
v 11880.17188 -20000.00000 7725.04688
v 12770.26172 -20000.00000 -5910.93604
v 12770.26172 -20000.00000 5910.93652
v 13423.64063 -20000.00000 -3998.77759
v 13423.64063 -20000.00000 3998.77783
v 13813.87598 -20000.00000 -2016.11011
v 13813.87695 -20000.00000 2016.11011
v 13950.09082 -20000.00000 -0.00018
v 13950.09082 -20000.00000 -0.00018
v -76499.98438 -20000.00000 -0.00568
v -75235.45313 -10417.01660 -0.00281
v -73944.42188 -20000.00000 19411.42188
v -72722.98438 -10417.01660 19084.14063
v -73944.41406 -20000.00000 -19411.42969
v -72722.97656 -10417.01660 -19084.14258
v -66451.89063 -20000.00000 37499.99219
v -65356.79688 -10417.01660 36867.72656
v -66451.89063 -20000.00000 -37499.99219
v -65356.77344 -10417.01660 -36867.73438
v -54533.00391 -20000.00000 53033.00000
v -53638.85156 -10417.01660 52138.84375
v -54533.00000 -20000.00000 -53033.00781
v -53638.83594 -10417.01660 -52138.84766
v -38999.99219 -20000.00000 64951.89063
v -38367.73438 -10417.01660 63856.79297
v -38999.99219 -20000.00000 -64951.89844
v -38367.71875 -10417.01660 -63856.78125
v -20911.42578 -20000.00000 72444.42969
v -20584.14648 -10417.01660 71222.98438
v -20911.42383 -20000.00000 -72444.42188
v -20584.13281 -10417.01660 -71222.97656
v -1500.00049 -20000.00000 74999.98438
v -1500.00146 -10417.01660 73735.46875
v -1500.00000 -20000.00000 -75000.00000
v -1500.00049 -10417.01660 -73735.46875
v 17911.42578 -20000.00000 72444.42969
v 17584.14258 -10417.01660 71222.99219
v 17911.43164 -20000.00000 -72444.43750
v 17584.14453 -10417.01660 -71222.99219
v 35999.99609 -20000.00000 64951.90625
v 35367.73438 -10417.01660 63856.79297
v 36000.00000 -20000.00000 -64951.90625
v 35367.73438 -10417.01660 -63856.79297
v 51533.00000 -20000.00000 53033.00000
v 50638.84375 -10417.01660 52138.84766
v 51533.00781 -20000.00000 -53033.00781
v 50638.85156 -10417.01660 -52138.85156
v 63451.90234 -20000.00000 37500.00000
v 62356.79297 -10417.01660 36867.73438
v 63451.90625 -20000.00000 -37500.00000
v 62356.79297 -10417.01660 -36867.73438
v 70944.43750 -20000.00000 -19411.42578
v 69722.99219 -10417.01660 -19084.14258
v 70944.43750 -20000.00000 19411.42773
v 69722.99219 -10417.01660 19084.14648
v 73499.99219 -20000.00000 0.00098
v 72235.46875 -10417.01660 0.00232
v 73499.99219 -20000.00000 0.00098
v 72235.46875 -10417.01660 0.00232
v -76499.98438 -20000.00000 -0.00568
v -73944.42188 -20000.00000 19411.42188
v -63961.75000 -20000.00000 1.48602
v -61834.88672 -20000.00000 16166.28516
v -73944.41406 -20000.00000 -19411.42969
v -61834.87891 -20000.00000 -16166.29590
v -66451.89063 -20000.00000 37499.99219
v -61834.88281 -20000.00000 16166.28516
v -55594.92578 -20000.00000 31230.87305
v -66451.89063 -20000.00000 -37499.99219
v -55594.92188 -20000.00000 -31230.87695
v -51771.22266 -20000.00000 13494.05566
v -53637.98438 -20000.00000 -90.21997
v -51771.22266 -20000.00000 -13494.06348
v -54533.00000 -20000.00000 -53033.00781
v -45668.60547 -20000.00000 -44167.13672
v -54533.00391 -20000.00000 53033.00000
v -45668.60547 -20000.00000 44167.12891
v -55594.92969 -20000.00000 31230.87305
v -46562.71094 -20000.00000 26068.51953
v -46562.70703 -20000.00000 -26068.52148
v -45690.84766 -20000.00000 -44.09259
v -44140.98438 -20000.00000 -11437.44629
v -44140.98828 -20000.00000 11437.44043
v -38277.17578 -20000.00000 -36866.46484
v -45668.60156 -20000.00000 44167.12891
v -46562.70703 -20000.00000 26068.52148
v -38277.17188 -20000.00000 36866.45703
v -39726.29688 -20000.00000 -22095.44531
v -39726.29688 -20000.00000 22095.44336
v -38999.99219 -20000.00000 64951.89063
v -32732.34375 -20000.00000 54093.46094
v -38999.99219 -20000.00000 -64951.89844
v -32732.34766 -20000.00000 -54093.47656
v -36224.59375 -20000.00000 14383.39453
v -37722.21094 -20000.00000 9705.70996
v -32703.54883 -20000.00000 -31247.68555
v -32703.54883 -20000.00000 31247.68359
v -27479.23633 -20000.00000 -45152.01172
v -27479.22852 -20000.00000 45152.00000
v -38764.07813 -20000.00000 -4905.91211
v -38999.99219 -20000.00000 -0.00421
v -31036.11914 -20000.00000 -3888.50659
v -31301.94922 -20000.00000 -0.00348
v -38764.07813 -20000.00000 4905.90576
v -31036.11914 -20000.00000 3888.50073
v -37722.20703 -20000.00000 -9705.71484
v -30286.46875 -20000.00000 -7713.31396
v -37722.21094 -20000.00000 9705.70996
v -30286.47070 -20000.00000 7713.30908
v -36224.59375 -20000.00000 14383.39453
v -29023.28125 -20000.00000 11400.51465
v -30286.47266 -20000.00000 7713.30957
v -36224.58984 -20000.00000 -14383.39844
v -29023.27734 -20000.00000 -11400.51758
v -33975.94531 -20000.00000 18749.99414
v -27309.24414 -20000.00000 14900.97266
v -29023.27539 -20000.00000 -11400.51855
v -33975.94141 -20000.00000 -18749.99609
v -27309.24023 -20000.00000 -14900.97461
v -23551.31445 -20000.00000 -38270.44141
v -23551.31055 -20000.00000 38270.43359
v -31318.68359 -20000.00000 -22880.68359
v -33975.94141 -20000.00000 -18749.99609
v -25134.77734 -20000.00000 -18135.60547
v -27309.24023 -20000.00000 -14900.97461
v -31318.68359 -20000.00000 22880.67969
v -25134.77930 -20000.00000 18135.60156
v -33975.94531 -20000.00000 18749.99414
v -27309.24414 -20000.00000 14900.97266
v -20911.42383 -20000.00000 -72444.42188
v -17667.76367 -20000.00000 -60333.42969
v -20911.42578 -20000.00000 72444.42969
v -17667.75781 -20000.00000 60333.41406
v -28016.50586 -20000.00000 -26516.50586
v -22573.16406 -20000.00000 -21073.16602
v -28016.50391 -20000.00000 26516.50000
v -26198.59375 -20000.00000 28167.59180
v -25294.83398 -20000.00000 23794.83398
v -23651.48828 -20000.00000 25260.78125
v -23781.93555 -20000.00000 9229.47754
v -22359.50000 -20000.00000 12043.23633
v -38764.07813 -20000.00000 4905.90576
v -38764.07813 -20000.00000 -4905.91211
v -24380.68359 -20000.00000 29818.68359
v -22008.14453 -20000.00000 26726.73047
v -20633.93164 -20000.00000 -14681.98242
v -22359.49609 -20000.00000 -12043.23730
v -22359.50000 -20000.00000 12043.23633
v -20633.93164 -20000.00000 14681.98242
v -20843.44531 -20000.00000 -0.00238
v -25411.45898 -20000.00000 -3148.00610
v -23214.96094 -20000.00000 -0.00269
v -25586.47461 -20000.00000 -0.00299
v -24380.68555 -20000.00000 -29818.69336
v -19635.60547 -20000.00000 -23634.78125
v -14904.77344 -20000.00000 -50360.52734
v -27479.23047 -20000.00000 45152.00000
v -14904.76758 -20000.00000 50360.51563
v -22573.16406 -20000.00000 21073.16211
v -21104.38477 -20000.00000 22353.96875
v -38999.99219 -20000.00000 -0.00421
v -20184.33398 -20000.00000 5006.45068
v -22475.04297 -20000.00000 5620.24414
v -24765.75000 -20000.00000 6234.03711
v -37722.20703 -20000.00000 -9705.71484
v -36224.58984 -20000.00000 -14383.39844
v -23781.93164 -20000.00000 -9229.48047
v -24765.74805 -20000.00000 -6234.04053
v -19342.11523 -20000.00000 -7390.44775
v -20184.33008 -20000.00000 -5006.45361
v -18531.71289 -20000.00000 17031.71094
v -19635.60547 -20000.00000 23634.77539
v -19342.11914 -20000.00000 7390.44580
v -18251.91406 -20000.00000 9671.72168
v -22359.49609 -20000.00000 -12043.23730
v -18251.91211 -20000.00000 -9671.72266
v -20250.00000 -20000.00000 -32475.95313
v -16400.97656 -20000.00000 -25809.25000
v -12893.31348 -20000.00000 -42685.12891
v -12893.30859 -20000.00000 42685.12500
v -31318.68164 -20000.00000 22880.67969
v -16821.37500 -20000.00000 11756.50488
v -18251.91406 -20000.00000 9671.72168
v -32703.55078 -20000.00000 31247.68359
v -16950.08789 -20000.00000 -0.00189
v -20646.94922 -20000.00000 -2520.74585
v -16813.87305 -20000.00000 -2016.11145
v -16423.63672 -20000.00000 -3998.77832
v -16423.63867 -20000.00000 3998.77588
v -15770.25781 -20000.00000 5910.93359
v -15770.25781 -20000.00000 -5910.93555
v -15177.88379 -20000.00000 13677.88281
v -14880.16602 -20000.00000 -7725.04395
v -14880.16797 -20000.00000 7725.04297
v -15883.40039 -20000.00000 -34724.60156
v -12900.51855 -20000.00000 -27523.28320
v -15883.39551 -20000.00000 34724.59375
v -12900.51563 -20000.00000 27523.28125
v -20249.99609 -20000.00000 32475.94336
v -16400.97461 -20000.00000 25809.24414
v -28016.50586 -20000.00000 26516.50000
v -25411.46289 -20000.00000 3148.00171
v -28016.50391 -20000.00000 -26516.50391
v -14880.16797 -20000.00000 7725.04297
v -13754.15039 -20000.00000 9402.93945
v -24380.68164 -20000.00000 29818.68164
v -24380.68555 -20000.00000 -29818.69141
v -25294.83203 -20000.00000 23794.83203
v -22475.04102 -20000.00000 5620.24414
v -14695.86230 -20000.00000 17180.88672
v -13538.36230 -20000.00000 17946.53125
v -13256.50488 -20000.00000 15321.37402
v -12214.11328 -20000.00000 16036.64355
v -25411.46484 -20000.00000 3148.00171
v -20646.95313 -20000.00000 2520.74194
v -15177.88379 -20000.00000 -13677.88379
v -12424.86426 -20000.00000 -10924.86426
v -13256.50586 -20000.00000 -15321.37695
v -10902.94141 -20000.00000 -12254.15137
v -12424.86328 -20000.00000 10924.86230
v -10902.93945 -20000.00000 12254.14941
v -12380.86328 -20000.00000 18712.17578
v -11171.72266 -20000.00000 16751.91406
v -15883.39648 -20000.00000 34724.59375
v -11205.71191 -20000.00000 36222.21094
v -9213.31152 -20000.00000 28786.47266
v -18531.71289 -20000.00000 -17031.71289
v -18251.91211 -20000.00000 -9671.72266
v -12330.45801 -20000.00000 -18724.63867
v -11171.72363 -20000.00000 -16751.91797
v -11070.21094 -20000.00000 -19339.28320
v -10031.08691 -20000.00000 -17297.01953
v -13256.50488 -20000.00000 -15321.37793
v -9225.04492 -20000.00000 -13380.17188
v -17815.26367 -20000.00000 21290.82422
v -16181.98438 -20000.00000 -19133.93555
v -16813.87500 -20000.00000 2016.10828
v -17356.84570 -20000.00000 18082.82031
v -16821.37500 -20000.00000 -11756.50586
v -20633.93164 -20000.00000 -14681.98340
v -1500.00000 -20000.00000 -75000.00000
v -1501.46655 -20000.00000 -62461.76953
v -1500.00049 -20000.00000 74999.98438
v -1501.46655 -20000.00000 62461.76172
v -19635.60547 -20000.00000 23634.77734
v -16370.30273 -20000.00000 22242.45117
v -9809.96484 -20000.00000 -19953.93359
v -8890.44824 -20000.00000 -17842.12305
v -16370.30371 -20000.00000 22242.45117
v -16181.98438 -20000.00000 19133.93164
v -14835.06543 -20000.00000 -23197.33398
v -8890.44727 -20000.00000 17842.11914
v -9225.04395 -20000.00000 13380.16895
v -7410.93457 -20000.00000 14270.25879
v -13754.14941 -20000.00000 -9402.94043
v -14695.86133 -20000.00000 17180.88672
v -14925.34082 -20000.00000 23194.07422
v -14862.61133 -20000.00000 19996.71484
v -1410.70874 -20000.00000 -52137.05469
v -1410.70874 -20000.00000 52137.04688
v -14880.16602 -20000.00000 -7725.04395
v -13543.23730 -20000.00000 20859.50000
v -13543.23926 -20000.00000 -20859.50195
v -13270.21680 -20000.00000 -23940.34180
v -14835.06445 -20000.00000 -23197.33398
v -6405.90918 -20000.00000 37264.07813
v -5388.50342 -20000.00000 29536.11719
v -13544.55957 -20000.00000 -35473.41016
v -1455.86414 -20000.00000 -44190.90234
v -1455.86414 -20000.00000 44190.89453
v -10729.47949 -20000.00000 22281.93750
v -12136.36035 -20000.00000 -21570.72266
v -11705.36621 -20000.00000 -24683.34570
v -6506.45313 -20000.00000 -18684.33789
v -5498.77832 -20000.00000 -14923.64258
v -7410.93604 -20000.00000 -14270.26270
v -6506.45264 -20000.00000 18684.33398
v -5498.77686 -20000.00000 14923.63867
v -11205.71582 -20000.00000 -36222.21875
v -11056.91504 -20000.00000 -28154.88086
v -11171.72461 -20000.00000 -16751.91797
v -10729.48145 -20000.00000 -22281.93945
v -9213.31348 -20000.00000 -28786.48047
v -9213.31152 -20000.00000 28786.47070
v -9231.76074 -20000.00000 -22773.84570
v -6405.91016 -20000.00000 -37264.08984
v -6405.90869 -20000.00000 37264.07813
v -7734.03955 -20000.00000 -23265.75195
v -7734.03809 -20000.00000 23265.75000
v -4020.74414 -20000.00000 -19146.95508
v -3516.11035 -20000.00000 -15313.87793
v -4648.00439 -20000.00000 -23911.46680
v -4648.00342 -20000.00000 23911.46289
v -5388.50488 -20000.00000 -29536.12305
v -1500.00000 -20000.00000 -37500.00000
v -1499.99976 -20000.00000 -29801.95508
v -1500.00000 -20000.00000 37499.99609
v -1499.99976 -20000.00000 29801.94922
v -4020.74341 -20000.00000 19146.95313
v -1499.99976 -20000.00000 -24086.48047
v -1499.99976 -20000.00000 24086.47656
v -3516.10962 -20000.00000 15313.87500
v -4020.74365 -20000.00000 19146.95313
v -1499.99976 -20000.00000 -19343.44922
v -1499.99988 -20000.00000 19343.44727
v -1499.99976 -20000.00000 -15450.09180
v -1499.99976 -20000.00000 15450.08984
v -1499.99988 -20000.00000 19343.44727
v 1020.74420 -20000.00000 19146.95313
v -1499.99976 -20000.00000 15450.08984
v 516.10999 -20000.00000 15313.87500
v -1499.99976 -20000.00000 -19343.44922
v -1499.99976 -20000.00000 -15450.09180
v 1020.74579 -20000.00000 -19146.95703
v 516.11096 -20000.00000 -15313.87793
v -1499.99976 -20000.00000 29801.94922
v 1648.00403 -20000.00000 23911.46289
v -1499.99976 -20000.00000 24086.47656
v 1648.00562 -20000.00000 -23911.46680
v -1499.99976 -20000.00000 -24086.48047
v -1455.86414 -20000.00000 44190.89453
v 3405.90869 -20000.00000 37264.07813
v -1500.00000 -20000.00000 37499.99609
v 3405.91089 -20000.00000 -37264.08594
v 2388.50562 -20000.00000 -29536.12305
v -1499.99976 -20000.00000 -29801.95508
v 1648.00574 -20000.00000 -23911.46680
v 2388.50342 -20000.00000 29536.11719
v 3405.90869 -20000.00000 37264.07813
v -1500.00000 -20000.00000 37499.99609
v 3405.91089 -20000.00000 -37264.08594
v -1500.00000 -20000.00000 -37500.00000
v 3506.45508 -20000.00000 -18684.33789
v 4120.24854 -20000.00000 -20975.04688
v 3506.45215 -20000.00000 18684.33398
v 2498.77686 -20000.00000 14923.63867
v 1020.74573 -20000.00000 -19146.95703
v 2498.77905 -20000.00000 -14923.64258
v 6213.31152 -20000.00000 28786.47266
v 6213.31592 -20000.00000 -28786.47852
v 4410.93750 -20000.00000 -14270.26270
v 4734.04199 -20000.00000 -23265.75391
v 9981.58105 -20000.00000 42685.12500
v 9981.58691 -20000.00000 -42685.12891
v 6213.31104 -20000.00000 28786.47461
v 4734.03857 -20000.00000 23265.75000
v 5890.45068 -20000.00000 -17842.12305
v 5890.44873 -20000.00000 17842.11914
v 7729.48438 -20000.00000 -22281.93945
v 7729.48145 -20000.00000 22281.93750
v 8171.72656 -20000.00000 -16751.91992
v 6225.04688 -20000.00000 -13380.17188
v 9900.51660 -20000.00000 27523.28125
v 8205.71191 -20000.00000 36222.21094
v 8205.71680 -20000.00000 -36222.21875
v 4410.93604 -20000.00000 14270.25977
v 8171.72607 -20000.00000 16751.91602
v 7902.94141 -20000.00000 12254.14941
v 6225.04590 -20000.00000 13380.17090
v 9357.48438 -20000.00000 -18805.71094
v 9900.52051 -20000.00000 -27523.28516
v 9357.48340 -20000.00000 18805.70898
v 12083.35059 -20000.00000 50360.51563
v -1410.70874 -20000.00000 52137.04688
v 12083.35645 -20000.00000 -50360.52734
v 10256.50684 -20000.00000 15321.37500
v 8205.71191 -20000.00000 36222.21094
v 8205.71680 -20000.00000 -36222.21875
v 10543.24121 -20000.00000 20859.50195
v 10543.24219 -20000.00000 -20859.50195
v 7729.48096 -20000.00000 22281.93750
v 12177.88281 -20000.00000 13677.88281
v 9424.86328 -20000.00000 10924.86230
v 12883.39844 -20000.00000 34724.59766
v 12883.40234 -20000.00000 -34724.60156
v 10256.50781 -20000.00000 -15321.37695
v 13181.98730 -20000.00000 -19133.93555
v -1501.46655 -20000.00000 62461.76172
v 14664.82324 -20000.00000 60333.41406
v 14664.83203 -20000.00000 -60333.42969
v 12083.35742 -20000.00000 -50360.52734
v 13181.98535 -20000.00000 19133.93164
v 13181.98633 -20000.00000 19133.93164
v 13400.97852 -20000.00000 25809.24805
v 13400.97949 -20000.00000 -25809.25000
v 13854.79688 -20000.00000 15354.79688
v 15531.71191 -20000.00000 -17031.71289
v 12177.88574 -20000.00000 -13677.88379
v -1500.00049 -20000.00000 74999.98438
v 17911.42578 -20000.00000 72444.42969
v 17911.43164 -20000.00000 -72444.43750
v 12770.26172 -20000.00000 -5910.93604
v 15251.91895 -20000.00000 -9671.72559
v 11880.17188 -20000.00000 -7725.04590
v 13181.98633 -20000.00000 -19133.93555
v 16635.60742 -20000.00000 -23634.78125
v 16635.60547 -20000.00000 23634.77930
v 11880.17188 -20000.00000 7725.04688
v 16342.11914 -20000.00000 7390.44824
v 12770.26172 -20000.00000 5910.93652
v 15531.71094 -20000.00000 17031.71094
v 17184.33398 -20000.00000 -5006.45264
v 13423.64063 -20000.00000 -3998.77759
v 7902.94141 -20000.00000 -12254.15137
v 15251.91895 -20000.00000 9671.72559
v 20639.58594 -20000.00000 38270.44141
v 20639.59180 -20000.00000 -38270.44141
v 17633.93555 -20000.00000 14681.98535
v 13821.37598 -20000.00000 11756.50684
v 16342.12012 -20000.00000 -7390.44775
v 13813.87695 -20000.00000 2016.11011
v 17745.20117 -20000.00000 1260.37195
v 13950.09082 -20000.00000 -0.00018
v 19573.16211 -20000.00000 21073.16211
v 17646.95313 -20000.00000 2520.74414
v 17843.44922 -20000.00000 -0.00031
v 12883.39844 -20000.00000 34724.59766
v 12883.40234 -20000.00000 -34724.60156
v 17250.00000 -20000.00000 32475.95313
v 17250.00195 -20000.00000 -32475.95313
v 19573.16602 -20000.00000 -21073.16406
v 16342.11914 -20000.00000 -7390.44824
v 20781.93945 -20000.00000 -9229.48340
v 20781.94141 -20000.00000 9229.48242
v 17633.93555 -20000.00000 -14681.98535
v 9424.86426 -20000.00000 -10924.86328
v 17184.33398 -20000.00000 5006.45264
v 19885.10547 -20000.00000 2798.34790
v 21765.75195 -20000.00000 -6234.03906
v 19359.50391 -20000.00000 -12043.24121
v 19359.50391 -20000.00000 12043.24121
v 20070.86133 -20000.00000 -0.00031
v 17646.95313 -20000.00000 -2520.74414
v 22411.46680 -20000.00000 -3148.00415
v 22088.60938 -20000.00000 4691.02148
v 21380.68359 -20000.00000 29818.68750
v 21380.68750 -20000.00000 -29818.68750
v 22134.78125 -20000.00000 -18135.60547
v 22134.78125 -20000.00000 18135.60547
v 21765.75195 -20000.00000 6234.03906
v 24309.25000 -20000.00000 -14900.97852
v 19359.50391 -20000.00000 -12043.24121
v 10754.15137 -20000.00000 9402.94043
v 12177.88477 -20000.00000 -13677.88379
v 13821.37695 -20000.00000 -11756.50684
v 10754.15137 -20000.00000 -9402.94141
v 19977.98438 -20000.00000 1399.17383
v 22411.46680 -20000.00000 3148.00366
v 22586.47852 -20000.00000 -0.00031
v 22498.97266 -20000.00000 1574.00171
v 15251.91895 -20000.00000 9671.72559
v 11880.17188 -20000.00000 7725.04688
v 15251.91895 -20000.00000 -9671.72559
v 11880.17188 -20000.00000 -7725.04590
v 25043.66211 -20000.00000 3482.22778
v 27286.47461 -20000.00000 -7713.31250
v 25153.87305 -20000.00000 1741.11365
v 25264.08398 -20000.00000 -0.00031
v 17250.00000 -20000.00000 32475.95313
v 17250.00195 -20000.00000 -32475.95313
v 27661.30078 -20000.00000 5800.90869
v 29791.81641 -20000.00000 31247.68164
v 29791.82227 -20000.00000 -31247.68359
v 25043.66211 -20000.00000 3482.22803
v 25153.87305 -20000.00000 1741.11353
v 26023.28516 -20000.00000 -11400.51855
v 28036.12109 -20000.00000 -3888.50391
v 25016.50000 -20000.00000 26516.50000
v 25016.50391 -20000.00000 -26516.50195
v 27286.47461 -20000.00000 7713.31348
v 28036.12305 -20000.00000 3888.50415
v 28301.95313 -20000.00000 -0.00018
v 13423.64063 -20000.00000 3998.77783
v 28036.12109 -20000.00000 3888.50439
v 13813.87598 -20000.00000 -2016.11011
v 28318.68750 -20000.00000 22880.68359
v 28318.69336 -20000.00000 -22880.68164
v 29791.82227 -20000.00000 -31247.68555
v 19359.50391 -20000.00000 12043.24121
v 24657.81836 -20000.00000 45152.00781
v 24657.82227 -20000.00000 -45152.01172
v 35243.15234 -20000.00000 7305.81201
v 27661.29883 -20000.00000 5800.90869
v 21380.68359 -20000.00000 29818.68750
v 21380.68750 -20000.00000 -29818.68750
v 29791.81445 -20000.00000 31247.68164
v 36814.58203 -20000.00000 22095.45117
v 36814.58203 -20000.00000 -22095.45117
v 30975.95313 -20000.00000 18750.00195
v 30975.95313 -20000.00000 -18750.00000
v 34722.21484 -20000.00000 9705.71387
v 27286.47461 -20000.00000 7713.31396
v 35764.08203 -20000.00000 4905.90967
v 33224.60156 -20000.00000 -14383.40137
v 33224.60156 -20000.00000 14383.40137
v 29729.41602 -20000.00000 54093.46875
v 29729.41992 -20000.00000 -54093.48047
v 41229.26563 -20000.00000 -11437.44531
v 34722.21484 -20000.00000 -9705.71289
v 41229.26953 -20000.00000 11437.44629
v 25016.50000 -20000.00000 26516.50000
v 25016.50391 -20000.00000 -26516.50195
v 24309.25000 -20000.00000 14900.97852
v 33224.60156 -20000.00000 14383.40039
v 35764.08203 -20000.00000 -4905.90918
v 42735.03125 -20000.00000 -0.00018
v 35999.99609 -20000.00000 -0.00012
v 24309.25000 -20000.00000 -14900.97852
v 24309.25000 -20000.00000 14900.97852
v 26023.28516 -20000.00000 11400.51855
v 28318.68750 -20000.00000 22880.68359
v 28318.69141 -20000.00000 -22880.68359
v 35999.99609 -20000.00000 64951.90625
v 36000.00000 -20000.00000 -64951.90625
v 30975.95313 -20000.00000 -18750.00000
v 30975.95313 -20000.00000 18750.00195
v 35455.74609 -20000.00000 36866.45703
v 35455.75391 -20000.00000 -36866.46484
v 33224.60156 -20000.00000 -14383.40039
v 42665.66406 -20000.00000 44167.12891
v 29729.41992 -20000.00000 -54093.47656
v 42665.67188 -20000.00000 -44167.13672
v 43741.30078 -20000.00000 26068.52930
v 43741.30078 -20000.00000 -26068.52539
v 51533.00000 -20000.00000 53033.00000
v 51533.00781 -20000.00000 -53033.00781
v 48949.81250 -20000.00000 -13494.05957
v 48949.81250 -20000.00000 13494.06152
v 52592.00781 -20000.00000 31230.88477
v 52592.01172 -20000.00000 -31230.88477
v 42665.67188 -20000.00000 -44167.13281
v 50726.33203 -20000.00000 -0.00043
v 58831.95313 -20000.00000 -16166.29199
v 43741.30469 -20000.00000 -26068.52734
v 52592.01172 -20000.00000 31230.88477
v 58831.95313 -20000.00000 16166.29492
v 43741.30469 -20000.00000 26068.52930
v 63451.90625 -20000.00000 -37500.00000
v 52592.00781 -20000.00000 -31230.88477
v 63451.90234 -20000.00000 37500.00000
v 60960.29297 -20000.00000 -0.00018
v 48949.81250 -20000.00000 -13494.06055
v 50726.33594 -20000.00000 -0.00043
v 70944.43750 -20000.00000 -19411.42578
v 70944.43750 -20000.00000 19411.42773
v 73499.99219 -20000.00000 0.00098
v -1499.99988 -20000.00000 -0.00018
v -12424.86426 -20000.00000 -10924.86426
v -12410.14648 -20000.00000 -0.00110
v -12410.14648 -20000.00000 -0.00110
v -12424.86328 -20000.00000 10924.86230
v -1499.99988 -20000.00000 -10911.04492
v -1499.99988 -20000.00000 10946.36523
v -1499.99988 -20000.00000 10946.36523
v 9424.86328 -20000.00000 10924.86230
v 9424.86426 -20000.00000 -10924.86328
v -1499.99988 -20000.00000 -10911.04492
v 9446.36621 -20000.00000 -0.00018
v 9446.36621 -20000.00000 -0.00018
v -53985.10547 15795.78418 -30302.29102
v -32637.56250 35575.34375 -17977.28125
v -62104.58203 15795.78418 -0.00177
v -37454.56250 35575.34375 -0.00079
v -53985.10547 15795.78418 30302.29102
v -32637.56250 35575.34375 17977.28125
v -72722.97656 -10417.01660 -19084.14258
v -75235.45313 -10417.01660 -0.00281
v -72722.98438 -10417.01660 19084.14063
v -65356.79688 -10417.01660 36867.72656
v -65356.77344 -10417.01660 -36867.73438
v -31802.29297 15795.78418 52485.10547
v -19477.28320 35575.34375 31137.56250
v -31802.28125 15795.78418 -52485.10547
v -19477.27734 35575.34766 -31137.56250
v -53638.85156 -10417.01660 52138.84375
v -53638.83594 -10417.01660 -52138.84766
v -38367.73438 -10417.01660 63856.79297
v -38367.71875 -10417.01660 -63856.78125
v -20584.14648 -10417.01660 71222.98438
v -20584.13281 -10417.01660 -71222.97656
v -1500.00146 15795.78418 60604.58203
v -1500.00122 35575.34375 35954.56250
v -1500.00012 15795.78418 -60604.58984
v -1500.00073 35575.34766 -35954.56641
v -1500.00085 44660.12109 0.00049
v -31802.29492 15795.78418 52485.10547
v -1500.00146 -10417.01660 73735.46875
v -1500.00049 -10417.01660 -73735.46875
v 16477.28125 35575.34375 31137.56836
v 16477.28320 35575.34766 -31137.56836
v 17584.14258 -10417.01660 71222.99219
v 17584.14453 -10417.01660 -71222.99219
v 29637.56836 35575.34375 17977.28320
v 29637.56836 35575.34375 -17977.28125
v 28802.29102 15795.78418 52485.10547
v 28802.29492 15795.78418 -52485.11328
v 34454.56250 35575.34375 0.00153
v 35367.73438 -10417.01660 -63856.79297
v 35367.73438 -10417.01660 63856.79297
v 50638.84375 -10417.01660 52138.84766
v 50638.85156 -10417.01660 -52138.85156
v 50985.10547 15795.78418 30302.29102
v 50985.11328 15795.78418 -30302.29102
v 62356.79297 -10417.01660 -36867.73438
v 62356.79297 -10417.01660 36867.73438
v 69722.99219 -10417.01660 19084.14648
v 59104.58203 15795.78418 0.00177
v 69722.99219 -10417.01660 -19084.14258
v 72235.46875 -10417.01660 0.00232

vt 0.24990 -0.00010 
vt 0.00000 -0.00010 
vt 0.24990 -0.50010 
vt 0.00000 -0.50010 
vt 0.24990 -1.00000 
vt 0.00000 -1.00000 
vt 0.37490 -0.75010 
vt 0.49990 -0.75010 
vt 0.37490 -1.24990 
vt 0.49990 -1.24990 
vt 0.49990 -0.26570 
vt 0.49990 -0.89070 
vt 0.37490 -0.26570 
vt 0.37490 -0.89070 
vt 0.49990 -0.75010 
vt 0.37490 -0.75010 
vt 0.49990 -0.26570 
vt 0.37490 -0.26570 
vt 0.37490 -1.24990 
vt 0.37490 -0.26570 
vt 0.49990 -1.24990 
vt 0.49990 -0.26570 
vt 0.49990 -0.75010 
vt 0.37490 -0.75010 
vt 0.49990 -0.26570 
vt 0.37490 -0.26570 
vt 0.37490 -0.95320 
vt 0.37490 -0.26570 
vt 0.49990 -0.95320 
vt 0.49990 -0.26570 
vt 0.00000 -1.21870 
vt 0.24990 -1.21870 
vt 0.00000 -0.50010 
vt 0.24990 -0.50010 
vt 0.37490 -0.39070 
vt 0.49990 -0.39070 
vt 0.37490 -1.24990 
vt 0.49990 -1.24990 
vt 0.24990 -0.42190 
vt 0.24990 0.15620 
vt 0.00000 -0.42190 
vt 0.00000 0.15620 
vt 0.24990 -0.90630 
vt 0.00000 -0.90630 
vt 1.00390 -0.00390 
vt 1.18740 -0.30460 
vt 1.00390 -0.31240 
vt 1.81240 -0.19530 
vt 1.99990 -0.49600 
vt 1.99600 -0.18740 
vt 1.63280 -0.22260 
vt 1.00390 -0.00390 
vt 1.36710 -0.27730 
vt 1.53900 -0.23430 
vt 1.46090 -0.26560 
vt 1.70700 -0.17180 
vt 1.29290 -0.32810 
vt 1.14060 -0.40620 
vt 1.85930 -0.09370 
vt 1.99600 -0.00390 
vt 1.00390 -0.49600 
vt 1.99990 -0.49600 
vt 1.14060 -0.40620 
vt 1.00390 -0.49600 
vt 1.00390 -0.00390 
vt 1.99600 -0.00390 
vt 1.85930 -0.09370 
vt 1.33200 -0.31640 
vt 1.70700 -0.17180 
vt 1.53900 -0.24990 
vt 1.53900 -0.23430 
vt 1.67960 -0.22650 
vt 1.36710 -0.27730 
vt 1.79680 -0.20700 
vt 1.18740 -0.30460 
vt 1.99600 -0.18740 
vt 1.00390 -0.31240 
vt 1.85540 -0.21090 
vt 1.99990 -0.49600 
vt 1.99600 -0.18740 
vt 1.00390 -0.00390 
vt 1.18740 -0.30460 
vt 1.00390 -0.31240 
vt 1.68350 -0.22650 
vt 1.36710 -0.27730 
vt 1.46090 -0.26560 
vt 1.53900 -0.23430 
vt 1.29290 -0.32810 
vt 1.70700 -0.17180 
vt 1.14060 -0.40620 
vt 1.85930 -0.09370 
vt 1.00390 -0.49600 
vt 1.99600 -0.00390 
vt 1.00390 -0.49600 
vt 1.99990 -0.49600 
vt 1.14060 -0.40620 
vt 1.00390 -0.00390 
vt 1.99600 -0.00390 
vt 1.85930 -0.09370 
vt 1.28510 -0.33590 
vt 1.70700 -0.17180 
vt 1.43350 -0.28120 
vt 1.53900 -0.23430 
vt 1.63280 -0.22260 
vt 1.36710 -0.27730 
vt 1.81240 -0.19530 
vt 1.18740 -0.30460 
vt 1.99600 -0.18740 
vt 1.00390 -0.31240 
vt 2.99990 -3.99600 
vt 2.99990 -3.75390 
vt 3.24990 -3.99600 
vt 3.24990 -3.75390 
vt 2.74990 -3.99600 
vt 2.74990 -3.75390 
vt 3.49990 -3.99600 
vt 3.49990 -3.75390 
vt 2.49990 -3.99600 
vt 2.49990 -3.75390 
vt 3.74990 -3.99600 
vt 3.74990 -3.75390 
vt 2.24990 -3.99600 
vt 2.24990 -3.75390 
vt 3.99990 -3.99600 
vt 3.99990 -3.75390 
vt 1.99990 -3.99600 
vt 1.99990 -3.75390 
vt 4.24990 -3.99600 
vt 4.24990 -3.75390 
vt 1.74990 -3.99600 
vt 1.74990 -3.75390 
vt 4.49990 -3.99600 
vt 4.49990 -3.75390 
vt 1.49990 -3.99600 
vt 1.49990 -3.75390 
vt 4.74990 -3.99600 
vt 4.74990 -3.75390 
vt 1.24990 -3.99600 
vt 1.24990 -3.75390 
vt 4.99990 -3.99600 
vt 4.99990 -3.75390 
vt 0.99990 -3.99600 
vt 0.99990 -3.75390 
vt 5.24990 -3.99600 
vt 5.24990 -3.75390 
vt 0.74990 -3.99600 
vt 0.74990 -3.75390 
vt 5.49990 -3.99600 
vt 5.49990 -3.75390 
vt 0.49990 -3.99600 
vt 0.49990 -3.75390 
vt 0.24990 -3.99600 
vt 0.24990 -3.75390 
vt 5.74990 -3.99600 
vt 5.74990 -3.75390 
vt 0.00000 -3.99600 
vt 0.00000 -3.75390 
vt 5.99990 -3.99600 
vt 5.99990 -3.75390 
vt 1.49990 1.99800 
vt 1.24990 1.99800 
vt 1.49990 1.93550 
vt 1.24990 1.93550 
vt 1.74990 1.99800 
vt 1.74990 1.93550 
vt 0.99990 1.99800 
vt 1.24990 1.93550 
vt 0.99990 1.93550 
vt 1.99990 1.99800 
vt 1.99990 1.93550 
vt 1.24990 1.87300 
vt 1.49990 1.87300 
vt 1.74990 1.87300 
vt 2.24990 1.99800 
vt 2.24990 1.93550 
vt 0.74990 1.99800 
vt 0.74990 1.93550 
vt 0.99990 1.93550 
vt 0.99990 1.87300 
vt 1.99990 1.87300 
vt 1.49990 1.81050 
vt 1.74990 1.81050 
vt 1.24990 1.81050 
vt 2.24990 1.87300 
vt 0.74990 1.93550 
vt 0.99990 1.87300 
vt 0.74990 1.87300 
vt 1.99990 1.81050 
vt 0.99990 1.81050 
vt 0.49990 1.99800 
vt 0.49990 1.93550 
vt 2.49990 1.99800 
vt 2.49990 1.93550 
vt 1.12490 1.74800 
vt 1.24990 1.74800 
vt 2.24990 1.81050 
vt 0.74990 1.81050 
vt 2.49990 1.87300 
vt 0.49990 1.87300 
vt 0.62490 1.37300 
vt 0.49990 1.37300 
vt 0.62490 1.28020 
vt 0.49990 1.28020 
vt 0.37490 1.37300 
vt 0.37490 1.28020 
vt 0.74990 1.37300 
vt 0.74990 1.28020 
vt 0.24990 1.37300 
vt 0.24990 1.28020 
vt 0.12490 1.37300 
vt 0.12490 1.28020 
vt 0.24990 1.28020 
vt 0.87490 1.37300 
vt 0.87490 1.28020 
vt 0.00000 1.37300 
vt 0.00000 1.28020 
vt 0.87490 1.28020 
vt 0.99990 1.37300 
vt 0.99990 1.28020 
vt 2.49990 1.81050 
vt 0.49990 1.81050 
vt 2.12490 1.74800 
vt 1.99990 1.74800 
vt 2.12490 1.65620 
vt 1.99990 1.65620 
vt 0.87490 1.74800 
vt 0.87490 1.65620 
vt 0.99990 1.74800 
vt 0.99990 1.65620 
vt 2.74990 1.99800 
vt 2.74990 1.93550 
vt 0.24990 1.99800 
vt 0.24990 1.93550 
vt 2.24990 1.74800 
vt 2.24990 1.65620 
vt 0.74990 1.74800 
vt 0.68740 1.74800 
vt 0.74990 1.70210 
vt 0.68740 1.70210 
vt 0.12490 1.18740 
vt 0.00000 1.18740 
vt 1.37490 1.74800 
vt 1.62490 1.74800 
vt 0.62490 1.74800 
vt 0.62490 1.70210 
vt 2.12490 1.56440 
vt 1.99990 1.56440 
vt 0.99990 1.56440 
vt 0.87490 1.56440 
vt 0.49990 1.09470 
vt 0.62490 1.18740 
vt 0.49990 1.14110 
vt 0.49990 1.18740 
vt 2.37490 1.74800 
vt 2.37490 1.65620 
vt 2.74990 1.87300 
vt 0.49990 1.87300 
vt 0.24990 1.87300 
vt 0.74990 1.65620 
vt 0.68740 1.65620 
vt 1.49990 1.74800 
vt 0.24990 1.09470 
vt 0.24990 1.14110 
vt 0.24990 1.18740 
vt 1.74990 1.74800 
vt 1.87490 1.74800 
vt 0.87490 1.18740 
vt 0.74990 1.18740 
vt 0.87490 1.09470 
vt 0.74990 1.09470 
vt 0.74990 1.56440 
vt 0.62490 1.65620 
vt 0.12490 1.09470 
vt 0.00000 1.09470 
vt 0.99990 1.18740 
vt 0.99990 1.09470 
vt 2.49990 1.74800 
vt 2.49990 1.65620 
vt 2.74990 1.81050 
vt 0.24990 1.81050 
vt 0.87490 1.74800 
vt 0.87490 1.47260 
vt 0.99990 1.47260 
vt 0.74990 1.81050 
vt 0.49990 1.00190 
vt 0.62490 1.09470 
vt 0.62490 1.00190 
vt 0.74990 1.00190 
vt 0.24990 1.00190 
vt 0.12490 1.00190 
vt 0.87490 1.00190 
vt 0.74990 1.47260 
vt 0.99990 1.00190 
vt 0.00000 1.00190 
vt 2.62490 1.74800 
vt 2.62490 1.65620 
vt 0.37490 1.74800 
vt 0.37490 1.65620 
vt 0.49990 1.74800 
vt 0.49990 1.65620 
vt 0.74990 1.74800 
vt 0.37490 1.18740 
vt 2.24990 1.74800 
vt 0.99990 1.38080 
vt 0.87490 1.38080 
vt 0.62490 1.74800 
vt 2.37490 1.74800 
vt 0.74990 1.70210 
vt 0.24990 1.14110 
vt 0.62490 1.51850 
vt 0.56240 1.51850 
vt 0.62490 1.47260 
vt 0.56240 1.47260 
vt 0.37490 1.18740 
vt 0.37490 1.09470 
vt 2.24990 1.47260 
vt 2.24990 1.38080 
vt 2.37490 1.47260 
vt 2.37490 1.38080 
vt 0.74990 1.38080 
vt 0.62490 1.38080 
vt 0.49990 1.51850 
vt 0.49990 1.47260 
vt 0.37490 1.74800 
vt 0.24990 1.74800 
vt 0.24990 1.65620 
vt 2.24990 1.56440 
vt 1.99990 1.47260 
vt 2.49990 1.51850 
vt 2.49990 1.47260 
vt 2.56240 1.51850 
vt 2.56240 1.47260 
vt 2.37490 1.47260 
vt 2.49990 1.38080 
vt 0.62490 1.61030 
vt 2.37490 1.56440 
vt 0.37490 1.00190 
vt 0.68740 1.56440 
vt 2.12490 1.47260 
vt 2.12490 1.56440 
vt 2.99990 1.99800 
vt 2.99990 1.93550 
vt 0.00000 1.99800 
vt 0.00000 1.93550 
vt 0.62490 1.65620 
vt 0.56240 1.61030 
vt 2.62490 1.51850 
vt 2.62490 1.47260 
vt 0.56240 1.61030 
vt 0.62490 1.56440 
vt 2.49990 1.61030 
vt 0.37490 1.47260 
vt 0.49990 1.38080 
vt 0.37490 1.38080 
vt 2.12490 1.38080 
vt 0.62490 1.51850 
vt 0.49990 1.61030 
vt 0.56240 1.56440 
vt 2.99990 1.87300 
vt 0.00000 1.87300 
vt 1.99990 1.38080 
vt 0.49990 1.56440 
vt 2.49990 1.56440 
vt 2.56240 1.61030 
vt 2.49990 1.61030 
vt 0.12490 1.74800 
vt 0.12490 1.65620 
vt 2.68740 1.74800 
vt 2.99990 1.81050 
vt 0.00000 1.81050 
vt 0.37490 1.56440 
vt 2.56240 1.56440 
vt 2.62490 1.61030 
vt 2.74990 1.47260 
vt 2.74990 1.38080 
vt 2.62490 1.38080 
vt 0.24990 1.47260 
vt 0.24990 1.38080 
vt 2.74990 1.74800 
vt 2.68740 1.65620 
vt 2.49990 1.47260 
vt 2.62490 1.56440 
vt 2.74990 1.65620 
vt 0.24990 1.65620 
vt 2.68740 1.56440 
vt 2.87490 1.74800 
vt 0.12490 1.74800 
vt 2.74990 1.56440 
vt 0.24990 1.56440 
vt 2.87490 1.47260 
vt 2.87490 1.38080 
vt 2.87490 1.56440 
vt 0.12490 1.56440 
vt 2.87490 1.65620 
vt 2.99990 1.74800 
vt 2.99990 1.65620 
vt 0.00000 1.74800 
vt 0.00000 1.65620 
vt 0.12490 1.47260 
vt 2.99990 1.56440 
vt 0.00000 1.56440 
vt 0.12490 1.38080 
vt 0.12490 1.47260 
vt 2.99990 1.47260 
vt 0.00000 1.47260 
vt 2.99990 1.38080 
vt 0.00000 1.38080 
vt 0.99990 1.09470 
vt 0.87490 1.09470 
vt 0.99990 1.00190 
vt 0.87490 1.00190 
vt 0.00000 1.09470 
vt 0.00000 1.00190 
vt 0.12490 1.09470 
vt 0.12490 1.00190 
vt 0.99990 1.28020 
vt 0.87490 1.18740 
vt 0.99990 1.18740 
vt 0.12490 1.18740 
vt 0.00000 1.18740 
vt 5.99990 1.81050 
vt 5.87490 1.74800 
vt 5.99990 1.74800 
vt 3.12490 1.74800 
vt 0.12490 1.28020 
vt 0.00000 1.28020 
vt 0.12490 1.18740 
vt 0.87490 1.28020 
vt 0.87490 1.37300 
vt 0.99990 1.37300 
vt 0.12490 1.37300 
vt 0.00000 1.37300 
vt 0.24990 1.09470 
vt 0.24990 1.14110 
vt 0.74990 1.09470 
vt 0.74990 1.00190 
vt 0.12490 1.09470 
vt 0.24990 1.00190 
vt 0.74990 1.28020 
vt 0.24990 1.28020 
vt 0.37490 1.00190 
vt 0.24990 1.18740 
vt 5.74990 1.81050 
vt 3.24990 1.81050 
vt 0.74990 1.28020 
vt 0.74990 1.18740 
vt 0.37490 1.09470 
vt 0.62490 1.09470 
vt 0.37490 1.18740 
vt 0.62490 1.18740 
vt 0.49990 1.09470 
vt 0.49990 1.00190 
vt 0.62490 1.28020 
vt 5.74990 1.74800 
vt 3.24990 1.74800 
vt 0.62490 1.00190 
vt 0.49990 1.09470 
vt 0.37490 1.00190 
vt 0.49990 1.00190 
vt 0.49990 1.14110 
vt 0.37490 1.28020 
vt 0.49990 1.14110 
vt 5.74990 1.87300 
vt 5.99990 1.87300 
vt 3.24990 1.87300 
vt 0.37490 1.09470 
vt 0.74990 1.37300 
vt 0.24990 1.37300 
vt 0.49990 1.18740 
vt 0.49990 1.18740 
vt 0.62490 1.18740 
vt 0.24990 1.09470 
vt 0.24990 1.00190 
vt 5.62490 1.74800 
vt 3.37490 1.74800 
vt 0.62490 1.09470 
vt 0.62490 1.18740 
vt 5.99990 1.93550 
vt 5.74990 1.93550 
vt 3.24990 1.93550 
vt 3.24990 1.87300 
vt 0.37490 1.18740 
vt 0.37490 1.18740 
vt 0.49990 1.28020 
vt 0.49990 1.28020 
vt 0.24990 1.14110 
vt 0.74990 1.18740 
vt 0.74990 1.09470 
vt 5.99990 1.99800 
vt 5.74990 1.99800 
vt 3.24990 1.99800 
vt 4.12490 1.38080 
vt 3.99990 1.47260 
vt 3.99990 1.38080 
vt 0.62490 1.18740 
vt 0.62490 1.28020 
vt 0.37490 1.28020 
vt 4.99990 1.38080 
vt 4.87490 1.47260 
vt 4.87490 1.38080 
vt 0.24990 1.18740 
vt 4.24990 1.47260 
vt 4.24990 1.38080 
vt 0.62490 1.00190 
vt 4.99990 1.47260 
vt 5.49990 1.81050 
vt 3.49990 1.81050 
vt 0.12490 1.18740 
vt 0.12490 1.09470 
vt 4.12490 1.47260 
vt 4.62490 1.38080 
vt 4.56240 1.47260 
vt 4.49990 1.38080 
vt 0.24990 1.28020 
vt 4.62490 1.47260 
vt 4.49990 1.47260 
vt 0.62490 1.37300 
vt 0.37490 1.37300 
vt 5.49990 1.74800 
vt 3.49990 1.74800 
vt 0.74990 1.28020 
vt 4.12490 1.47260 
vt 4.12490 1.56440 
vt 4.87490 1.56440 
vt 0.87490 1.18740 
vt 0.74990 1.00190 
vt 4.74990 1.47260 
vt 4.62490 1.51850 
vt 4.24990 1.56440 
vt 3.99990 1.56440 
vt 4.99990 1.56440 
vt 4.49990 1.51850 
vt 4.37490 1.47260 
vt 4.37490 1.56440 
vt 4.68740 1.56440 
vt 5.37490 1.74800 
vt 3.62490 1.74800 
vt 0.87490 1.28020 
vt 0.12490 1.28020 
vt 4.74990 1.56440 
vt 0.99990 1.28020 
vt 0.99990 1.18740 
vt 0.12490 1.00190 
vt 0.74990 1.09470 
vt 0.87490 1.09470 
vt 0.87490 1.00190 
vt 4.56240 1.51850 
vt 4.62490 1.56440 
vt 4.49990 1.56440 
vt 4.56240 1.56440 
vt 0.00000 1.09470 
vt 0.00000 1.00190 
vt 0.99990 1.09470 
vt 0.99990 1.00190 
vt 4.62490 1.61030 
vt 4.24990 1.65620 
vt 4.56240 1.61030 
vt 4.49990 1.61030 
vt 0.49990 1.37300 
vt 0.49990 1.37300 
vt 4.68740 1.65620 
vt 5.24990 1.81050 
vt 3.74990 1.81050 
vt 4.62490 1.61030 
vt 4.56240 1.61030 
vt 4.12490 1.65620 
vt 4.37490 1.65620 
vt 5.24990 1.74800 
vt 3.74990 1.74800 
vt 4.74990 1.65620 
vt 4.62490 1.65620 
vt 4.49990 1.65620 
vt 4.74990 1.38080 
vt 4.62490 1.65620 
vt 4.37490 1.38080 
vt 5.12490 1.74800 
vt 3.87490 1.74800 
vt 3.74990 1.81050 
vt 0.00000 1.18740 
vt 5.49990 1.87300 
vt 3.49990 1.87300 
vt 4.68740 1.74800 
vt 4.68740 1.65620 
vt 0.37490 1.37300 
vt 0.62490 1.37300 
vt 5.24990 1.81050 
vt 4.99990 1.81050 
vt 3.99990 1.81050 
vt 4.99990 1.74800 
vt 3.99990 1.74800 
vt 4.74990 1.74800 
vt 4.74990 1.65620 
vt 4.62490 1.74800 
vt 4.12490 1.74800 
vt 4.87490 1.74800 
vt 5.49990 1.93550 
vt 3.49990 1.93550 
vt 4.24990 1.81050 
vt 4.24990 1.74800 
vt 4.74990 1.81050 
vt 0.24990 1.37300 
vt 0.74990 1.37300 
vt 0.00000 1.28020 
vt 4.87490 1.74800 
vt 4.37490 1.74800 
vt 4.49990 1.81050 
vt 4.49990 1.74800 
vt 3.99990 1.65620 
vt 4.99990 1.65620 
vt 4.87490 1.65620 
vt 0.12490 1.37300 
vt 0.87490 1.37300 
vt 5.49990 1.99800 
vt 3.49990 1.99800 
vt 0.99990 1.37300 
vt 0.00000 1.37300 
vt 5.24990 1.87300 
vt 3.74990 1.87300 
vt 4.12490 1.74800 
vt 5.24990 1.93550 
vt 3.49990 1.93550 
vt 3.74990 1.93550 
vt 4.99990 1.87300 
vt 3.99990 1.87300 
vt 5.24990 1.99800 
vt 3.74990 1.99800 
vt 4.24990 1.87300 
vt 4.74990 1.87300 
vt 4.99990 1.93550 
vt 3.99990 1.93550 
vt 3.74990 1.93550 
vt 4.49990 1.87300 
vt 4.24990 1.93550 
vt 3.99990 1.87300 
vt 4.99990 1.93550 
vt 4.74990 1.93550 
vt 4.99990 1.87300 
vt 3.99990 1.99800 
vt 3.99990 1.93550 
vt 4.99990 1.99800 
vt 4.49990 1.93550 
vt 4.24990 1.87300 
vt 4.49990 1.87300 
vt 4.24990 1.99800 
vt 4.74990 1.99800 
vt 4.49990 1.99800 
vt -0.00390 -0.99600 
vt -0.99600 -0.00390 
vt -0.99600 -0.99600 
vt -0.00390 -0.00390 
vt -0.99600 -0.00390 
vt -0.00390 -0.00390 
vt -0.99600 -0.99600 
vt -0.00390 -0.00390 
vt -0.99600 -0.00390 
vt -0.99600 -0.00390 
vt -0.99600 -0.99600 
vt -0.00390 -0.00390 
vt -0.99600 -0.99600 
vt 1.39770 1.97760 
vt 0.95480 1.24850 
vt 0.49990 2.39950 
vt 0.49990 1.36430 
vt -0.39770 1.97760 
vt 0.04510 1.24850 
vt 1.19180 2.95350 
vt 0.49990 3.04000 
vt -0.19180 2.95350 
vt -0.83640 2.69970 
vt 1.83640 2.69970 
vt -1.05500 1.35310 
vt -0.28770 0.93210 
vt 2.05500 1.35310 
vt 1.28770 0.93210 
vt -1.39000 2.29610 
vt 2.39000 2.29610 
vt -1.81480 1.77000 
vt 2.81480 1.77000 
vt -2.08190 1.15740 
vt 3.08190 1.15740 
vt -1.29550 0.50000 
vt -0.40960 0.50000 
vt 2.29550 0.50000 
vt 1.40960 0.50000 
vt 0.49990 0.50000 
vt -1.05500 1.35310 
vt -2.17290 0.50000 
vt 3.17290 0.50000 
vt -0.28770 0.06780 
vt 1.28770 0.06780 
vt -2.08190 -0.15740 
vt 3.08190 -0.15740 
vt 0.04510 -0.24850 
vt 0.95480 -0.24850 
vt -1.05500 -0.35310 
vt 2.05500 -0.35310 
vt 0.49990 -0.36430 
vt 2.81480 -0.77000 
vt -1.81480 -0.77000 
vt -1.39000 -1.29610 
vt 2.39000 -1.29610 
vt -0.39770 -0.97760 
vt 1.39770 -0.97760 
vt 1.83640 -1.69970 
vt -0.83640 -1.69970 
vt -0.19180 -1.95350 
vt 0.49990 -1.20620 
vt 1.19180 -1.95350 
vt 0.49990 -2.04000 

s 1

g Object_2

usemtl texture1

f 45/45 46/46 47/47
f 48/48 49/49 50/50
f 51/51 49/49 48/48
f 52/52 53/53 46/46
f 45/45 54/54 53/53
f 55/55 49/49 51/51
f 52/52 56/56 54/54
f 57/57 49/49 55/55
f 58/58 49/49 57/57
f 45/45 59/59 56/56
f 52/52 60/60 59/59
f 61/61 49/49 58/58
f 62/62 63/63 64/64
f 65/65 66/66 67/67
f 62/62 68/68 63/63
f 65/65 67/67 69/69
f 62/62 70/70 68/68
f 65/65 69/69 71/71
f 62/62 72/72 70/70
f 65/65 71/71 73/73
f 62/62 74/74 72/72
f 65/65 73/73 75/75
f 62/62 76/76 74/74
f 65/65 75/75 77/77
f 78/78 79/79 80/80
f 81/81 82/82 83/83
f 84/84 79/79 78/78
f 81/81 85/85 82/82
f 86/86 79/79 84/84
f 81/81 87/87 85/85
f 88/88 79/79 86/86
f 81/81 89/89 87/87
f 90/90 79/79 88/88
f 81/81 91/91 89/89
f 92/92 79/79 90/90
f 81/81 93/93 91/91
f 94/94 95/95 96/96
f 97/97 98/98 99/99
f 96/96 95/95 100/100
f 97/97 99/99 101/101
f 100/100 95/95 102/102
f 97/97 101/101 103/103
f 102/102 95/95 104/104
f 97/97 103/103 105/105
f 104/104 95/95 106/106
f 97/97 105/105 107/107
f 106/106 95/95 108/108
f 97/97 107/107 109/109
f 110/110 111/111 112/112
f 111/111 113/113 112/112
f 110/110 114/114 111/111
f 114/114 115/115 111/111
f 116/116 112/112 117/117
f 112/112 113/113 117/117
f 118/118 119/119 114/114
f 119/119 115/115 114/114
f 116/116 117/117 120/120
f 117/117 121/121 120/120
f 118/118 122/122 119/119
f 122/122 123/123 119/119
f 124/124 120/120 125/125
f 120/120 121/121 125/125
f 126/126 127/127 122/122
f 127/127 123/123 122/122
f 124/124 125/125 128/128
f 125/125 129/129 128/128
f 126/126 130/130 127/127
f 130/130 131/131 127/127
f 132/132 128/128 133/133
f 128/128 129/129 133/133
f 134/134 135/135 130/130
f 135/135 131/131 130/130
f 132/132 133/133 136/136
f 133/133 137/137 136/136
f 134/134 138/138 135/135
f 138/138 139/139 135/135
f 140/140 136/136 141/141
f 136/136 137/137 141/141
f 142/142 143/143 138/138
f 143/143 139/139 138/138
f 140/140 141/141 144/144
f 141/141 145/145 144/144
f 142/142 146/146 143/143
f 146/146 147/147 143/143
f 148/148 144/144 149/149
f 144/144 145/145 149/149
f 150/150 151/151 146/146
f 151/151 147/147 146/146
f 150/150 152/152 151/151
f 152/152 153/153 151/151
f 148/148 149/149 154/154
f 149/149 155/155 154/154
f 156/156 157/157 152/152
f 157/157 153/153 152/152
f 158/158 154/154 159/159
f 154/154 155/155 159/159

usemtl texture2

f 160/160 161/161 162/162
f 161/161 163/163 162/162
f 164/164 160/160 165/165
f 160/160 162/162 165/165
f 161/161 166/166 167/167
f 166/166 168/168 167/167
f 169/169 164/164 170/170
f 164/164 165/165 170/170
f 163/163 171/171 162/162
f 162/162 171/171 172/172
f 165/165 162/162 173/173
f 162/162 172/172 173/173
f 174/174 169/169 175/175
f 169/169 170/170 175/175
f 166/166 176/176 168/168
f 176/176 177/177 168/168
f 163/163 178/178 171/171
f 178/178 179/179 171/171
f 170/170 165/165 180/180
f 165/165 173/173 180/180
f 172/172 181/181 173/173
f 173/173 181/181 182/182
f 172/172 171/171 181/181
f 171/171 183/183 181/181
f 170/170 180/180 175/175
f 175/175 180/180 184/184
f 168/168 185/185 186/186
f 185/185 187/187 186/186
f 180/180 173/173 188/188
f 173/173 182/182 188/188
f 171/171 186/186 183/183
f 186/186 189/189 183/183
f 176/176 190/190 177/177
f 190/190 191/191 177/177
f 192/192 174/174 193/193
f 174/174 175/175 193/193
f 189/189 194/194 183/183
f 183/183 194/194 195/195
f 184/184 180/180 196/196
f 180/180 188/188 196/196
f 186/186 187/187 189/189
f 187/187 197/197 189/189
f 175/175 184/184 193/193
f 193/193 184/184 198/198
f 177/177 191/191 187/187
f 191/191 199/199 187/187
f 200/200 201/201 202/202
f 202/202 201/201 203/203
f 204/204 205/205 201/201
f 201/201 205/205 203/203
f 200/200 202/202 206/206
f 206/206 202/202 207/207
f 204/204 208/208 205/205
f 208/208 209/209 205/205
f 210/210 211/211 208/208
f 208/208 211/211 212/212
f 213/213 206/206 214/214
f 214/214 206/206 207/207
f 210/210 215/215 211/211
f 211/211 215/215 216/216
f 213/213 217/217 218/218
f 218/218 217/217 219/219
f 198/198 184/184 220/220
f 184/184 196/196 220/220
f 187/187 199/199 197/197
f 199/199 221/221 197/197
f 222/222 223/223 224/224
f 224/224 223/223 225/225
f 226/226 227/227 228/228
f 228/228 227/227 229/229
f 230/230 192/192 231/231
f 192/192 193/193 231/231
f 190/190 232/232 191/191
f 232/232 233/233 191/191
f 222/222 224/224 234/234
f 234/234 224/224 235/235
f 236/236 237/237 238/238
f 237/237 239/239 238/238
f 211/211 216/216 240/240
f 240/240 216/216 241/241
f 181/181 183/183 242/242
f 182/182 181/181 243/243
f 244/244 245/245 237/237
f 237/237 245/245 239/239
f 224/224 225/225 246/246
f 246/246 225/225 247/247
f 229/229 227/227 248/248
f 227/227 249/249 248/248
f 250/250 251/251 252/252
f 251/251 253/253 252/252
f 254/254 234/234 255/255
f 255/255 234/234 235/235
f 193/193 198/198 231/231
f 231/231 198/198 256/256
f 191/191 233/233 257/257
f 233/233 258/258 257/257
f 238/238 239/239 259/259
f 239/239 260/260 259/259
f 243/243 181/181 261/261
f 181/181 242/242 261/261
f 262/262 263/263 240/240
f 264/264 240/240 263/263
f 182/182 243/243 265/265
f 242/242 183/183 195/195
f 188/188 182/182 266/266
f 266/266 182/182 265/265
f 267/267 268/268 269/269
f 269/269 268/268 270/270
f 227/227 259/259 249/249
f 249/249 259/259 271/271
f 245/245 272/272 239/239
f 239/239 272/272 260/260
f 240/240 241/241 273/273
f 273/273 241/241 274/274
f 267/267 269/269 275/275
f 275/275 269/269 276/276
f 188/188 266/266 223/223
f 194/194 189/189 228/228
f 254/254 255/255 277/277
f 277/277 255/255 278/278
f 256/256 198/198 279/279
f 198/198 220/220 279/279
f 199/199 258/258 221/221
f 258/258 280/280 221/221
f 222/222 188/188 223/223
f 189/189 281/281 228/228
f 249/249 282/282 248/248
f 248/248 282/282 283/283
f 196/196 188/188 222/222
f 189/189 284/284 226/226
f 250/250 285/285 286/286
f 287/287 286/286 285/285
f 270/270 286/286 288/288
f 286/286 287/287 288/288
f 262/262 273/273 289/289
f 273/273 290/290 289/289
f 270/270 288/288 269/269
f 291/291 269/269 288/288
f 249/249 271/271 282/282
f 282/282 271/271 292/292
f 196/196 222/222 234/234
f 281/281 284/284 236/236
f 276/276 269/269 293/293
f 269/269 291/291 293/293
f 274/274 294/294 273/273
f 290/290 273/273 294/294
f 253/253 202/202 203/203
f 203/203 205/205 253/253
f 295/295 277/277 296/296
f 277/277 278/278 296/296
f 297/297 298/298 299/299
f 299/299 298/298 300/300
f 284/284 237/237 301/301
f 205/205 212/212 302/302
f 207/207 202/202 268/268
f 254/254 196/196 303/303
f 283/283 282/282 304/304
f 282/282 305/305 304/304
f 281/281 301/301 227/227
f 284/284 306/306 237/237
f 212/212 211/211 240/240
f 267/267 217/217 207/207
f 251/251 202/202 253/253
f 253/253 205/205 302/302
f 268/268 202/202 251/251
f 220/220 196/196 307/307
f 284/284 221/221 306/306
f 302/302 212/212 264/264
f 219/219 217/217 267/267
f 212/212 240/240 264/264
f 267/267 207/207 268/268
f 301/301 238/238 227/227
f 253/253 302/302 252/252
f 219/219 267/267 275/275
f 227/227 308/308 259/259
f 302/302 264/264 309/309
f 310/310 311/311 312/312
f 312/312 311/311 313/313
f 268/268 251/251 286/286
f 252/252 314/314 315/315
f 316/316 317/317 318/318
f 319/319 318/318 317/317
f 292/292 312/312 320/320
f 312/312 321/321 320/320
f 302/302 309/309 315/315
f 235/235 224/224 246/246
f 220/220 307/307 277/277
f 244/244 221/221 299/299
f 286/286 251/251 250/250
f 245/245 306/306 299/299
f 322/322 323/323 311/311
f 313/313 311/311 323/323
f 324/324 325/325 298/298
f 298/298 325/325 326/326
f 268/268 286/286 270/270
f 252/252 315/315 250/250
f 262/262 240/240 273/273
f 315/315 309/309 262/262
f 271/271 259/259 260/260
f 235/235 246/246 327/327
f 328/328 246/246 247/247
f 295/295 220/220 277/277
f 221/221 297/297 299/299
f 329/329 330/330 331/331
f 332/332 331/331 330/330
f 330/330 333/333 334/334
f 333/333 319/319 334/334
f 300/300 245/245 299/299
f 260/260 272/272 335/335
f 336/336 255/255 235/235
f 250/250 315/315 337/337
f 272/272 245/245 300/300
f 315/315 262/262 337/337
f 336/336 235/235 327/327
f 271/271 260/260 338/338
f 338/338 260/260 335/335
f 327/327 246/246 339/339
f 339/339 340/340 328/328
f 341/341 230/230 342/342
f 230/230 231/231 342/342
f 232/232 343/343 233/233
f 343/343 344/344 233/233
f 250/250 337/337 285/285
f 335/335 345/345 346/346
f 337/337 262/262 289/289
f 347/347 331/331 348/348
f 348/348 331/331 332/332
f 349/349 345/345 300/300
f 279/279 220/220 295/295
f 221/221 280/280 324/324
f 338/338 335/335 350/350
f 271/271 338/338 292/292
f 278/278 255/255 351/351
f 351/351 255/255 336/336
f 327/327 339/339 316/316
f 350/350 335/335 346/346
f 316/316 336/336 327/327
f 323/323 352/352 353/353
f 352/352 354/354 353/353
f 355/355 339/339 328/328
f 356/356 338/338 350/350
f 346/346 300/300 357/357
f 350/350 346/346 358/358
f 231/231 256/256 342/342
f 342/342 256/256 359/359
f 233/233 344/344 258/258
f 344/344 360/360 258/258
f 292/292 338/338 356/356
f 355/355 328/328 361/361
f 305/305 282/282 292/292
f 316/316 339/339 355/355
f 362/362 346/346 357/357
f 358/358 349/349 362/362
f 333/333 336/336 316/316
f 311/311 350/350 358/358
f 351/351 336/336 363/363
f 364/364 278/278 365/365
f 310/310 350/350 311/311
f 300/300 298/298 357/357
f 292/292 310/310 312/312
f 366/366 367/367 325/325
f 325/325 367/367 326/326
f 364/364 296/296 278/278
f 368/368 295/295 296/296
f 279/279 295/295 368/368
f 363/363 336/336 329/329
f 311/311 358/358 362/362
f 329/329 336/336 333/333
f 363/363 364/364 365/365
f 316/316 355/355 317/317
f 305/305 292/292 320/320
f 359/359 256/256 369/369
f 256/256 279/279 369/369
f 258/258 360/360 280/280
f 360/360 370/370 280/280
f 297/297 280/280 325/325
f 311/311 362/362 322/322
f 357/357 371/371 362/362
f 372/372 364/364 363/363
f 357/357 298/298 371/371
f 373/373 296/296 364/364
f 374/374 348/348 375/375
f 348/348 376/376 375/375
f 377/377 378/378 352/352
f 354/354 352/352 378/378
f 279/279 368/368 379/379
f 368/368 296/296 380/380
f 331/331 363/363 329/329
f 329/329 318/318 381/381
f 331/331 372/372 363/363
f 362/362 371/371 322/322
f 321/321 312/312 313/313
f 382/382 364/364 372/372
f 382/382 373/373 364/364
f 373/373 380/380 296/296
f 379/379 368/368 383/383
f 331/331 382/382 372/372
f 383/383 368/368 380/380
f 371/371 298/298 384/384
f 353/353 313/313 323/323
f 322/322 352/352 323/323
f 321/321 313/313 353/353
f 322/322 371/371 352/352
f 385/385 380/380 373/373
f 385/385 373/373 382/382
f 347/347 382/382 331/331
f 386/386 279/279 379/379
f 280/280 387/387 325/325
f 334/334 332/332 330/330
f 347/347 385/385 382/382
f 388/388 380/380 385/385
f 388/388 383/383 380/380
f 371/371 326/326 389/389
f 383/383 386/386 379/379
f 376/376 332/332 334/334
f 348/348 332/332 376/376
f 352/352 371/371 377/377
f 374/374 375/375 390/390
f 391/391 390/390 375/375
f 374/374 385/385 347/347
f 374/374 347/347 348/348
f 377/377 371/371 389/389
f 388/388 385/385 374/374
f 392/392 383/383 388/388
f 326/326 393/393 389/389
f 394/394 386/386 383/383
f 369/369 279/279 386/386
f 280/280 370/370 366/366
f 386/386 394/394 395/395
f 395/395 394/394 396/396
f 387/387 397/397 367/367
f 367/367 397/397 398/398
f 392/392 394/394 383/383
f 326/326 367/367 393/393
f 390/390 388/388 374/374
f 389/389 399/399 377/377
f 396/396 394/394 400/400
f 394/394 392/392 400/400
f 367/367 398/398 393/393
f 393/393 398/398 401/401
f 390/390 392/392 388/388
f 389/389 393/393 399/399
f 377/377 402/402 378/378
f 377/377 403/403 402/402
f 404/404 392/392 390/390
f 399/399 393/393 405/405
f 369/369 386/386 395/395
f 387/387 370/370 397/397
f 406/406 390/390 391/391
f 402/402 403/403 405/405
f 400/400 392/392 404/404
f 405/405 393/393 401/401
f 404/404 390/390 406/406
f 402/402 405/405 407/407
f 408/408 409/409 410/410
f 409/409 411/411 410/410
f 412/412 413/413 414/414
f 415/415 414/414 413/413
f 416/416 417/417 418/418
f 417/417 409/409 418/418
f 418/418 409/409 408/408
f 419/419 420/420 414/414
f 414/414 420/420 412/412
f 421/421 422/422 423/423
f 424/424 369/369 395/395
f 425/425 426/426 427/427
f 427/427 426/426 420/420
f 416/416 428/428 417/417
f 429/429 428/428 430/430
f 430/430 428/428 416/416
f 431/431 432/432 425/425
f 425/425 432/432 426/426
f 433/433 419/419 414/414
f 433/433 434/434 419/419
f 435/435 436/436 409/409
f 411/411 409/409 436/436
f 433/433 437/437 438/438
f 437/437 415/415 438/438
f 417/417 428/428 439/439
f 440/440 425/425 419/419
f 441/441 433/433 438/438
f 442/442 427/427 434/434
f 421/421 443/443 422/422
f 444/444 369/369 424/424
f 417/417 445/445 446/446
f 440/440 419/419 442/442
f 447/447 434/434 433/433
f 441/441 447/447 433/433
f 446/446 448/448 435/435
f 417/417 446/446 409/409
f 409/409 446/446 435/435
f 434/434 449/449 442/442
f 447/447 449/449 434/434
f 446/446 450/450 448/448
f 451/451 447/447 441/441
f 449/449 440/440 442/442
f 451/451 441/441 452/452
f 439/439 453/453 446/446
f 422/422 443/443 454/454
f 444/444 424/424 455/455
f 435/435 448/448 436/436
f 448/448 456/456 436/436
f 448/448 450/450 457/457
f 457/457 458/458 459/459
f 446/446 453/453 450/450
f 460/460 449/449 447/447
f 460/460 447/447 451/451
f 449/449 461/461 440/440
f 457/457 450/450 462/462
f 463/463 443/443 464/464
f 464/464 443/443 421/421
f 465/465 359/359 444/444
f 359/359 369/369 444/444
f 457/457 466/466 458/458
f 429/429 467/467 428/428
f 428/428 467/467 445/445
f 431/431 425/425 468/468
f 468/468 425/425 440/440
f 462/462 450/450 469/469
f 470/470 449/449 460/460
f 462/462 466/466 457/457
f 471/471 453/453 469/469
f 470/470 461/461 449/449
f 458/458 472/472 473/473
f 458/458 466/466 472/472
f 443/443 474/474 454/454
f 475/475 444/444 455/455
f 476/476 477/477 451/451
f 478/478 479/479 464/464
f 479/479 463/463 464/464
f 342/342 359/359 480/480
f 480/480 359/359 481/481
f 462/462 482/482 466/466
f 457/457 459/459 448/448
f 456/456 448/448 459/459
f 469/469 483/483 462/462
f 469/469 453/453 484/484
f 485/485 461/461 470/470
f 466/466 486/486 472/472
f 466/466 483/483 486/486
f 487/487 476/476 488/488
f 487/487 477/477 476/476
f 489/489 490/490 478/478
f 490/490 479/479 478/478
f 491/491 341/341 480/480
f 341/341 342/342 480/480
f 492/492 493/493 494/494
f 495/495 496/496 470/470
f 469/469 497/497 483/483
f 484/484 497/497 469/469
f 470/470 496/496 485/485
f 498/498 499/499 500/500
f 486/486 483/483 501/501
f 502/502 492/492 503/503
f 451/451 452/452 476/476
f 504/504 476/476 452/452
f 505/505 499/499 498/498
f 443/443 506/506 474/474
f 507/507 444/444 475/475
f 472/472 508/508 509/509
f 486/486 508/508 472/472
f 492/492 510/510 493/493
f 487/487 496/496 495/495
f 511/511 512/512 513/513
f 502/502 510/510 492/492
f 501/501 508/508 486/486
f 482/482 514/514 501/501
f 511/511 515/515 512/512
f 483/483 497/497 514/514
f 513/513 512/512 516/516
f 517/517 453/453 467/467
f 467/467 453/453 445/445
f 518/518 468/468 461/461
f 461/461 468/468 440/440
f 474/474 506/506 519/519
f 507/507 475/475 520/520
f 521/521 496/496 487/487
f 522/522 523/523 493/493
f 505/505 524/524 499/499
f 514/514 508/508 501/501
f 525/525 521/521 487/487
f 488/488 476/476 526/526
f 476/476 504/504 526/526
f 527/527 528/528 515/515
f 451/451 477/477 460/460
f 477/477 470/470 460/460
f 529/529 522/522 502/502
f 493/493 523/523 530/530
f 531/531 524/524 505/505
f 532/532 533/533 516/516
f 533/533 534/534 502/502
f 529/529 523/523 510/510
f 527/527 535/535 528/528
f 506/506 536/536 519/519
f 537/537 507/507 520/520
f 538/538 521/521 525/525
f 514/514 539/539 508/508
f 532/532 534/534 533/533
f 540/540 535/535 527/527
f 541/541 525/525 542/542
f 502/502 534/534 529/529
f 472/472 509/509 473/473
f 509/509 543/543 473/473
f 544/544 526/526 545/545
f 546/546 545/545 526/526
f 547/547 528/528 548/548
f 532/532 547/547 549/549
f 541/541 538/538 525/525
f 528/528 535/535 548/548
f 547/547 548/548 550/550
f 549/549 547/547 550/550
f 549/549 534/534 532/532
f 551/551 552/552 509/509
f 543/543 509/509 552/552
f 553/553 545/545 554/554
f 545/545 546/546 554/554
f 535/535 555/555 548/548
f 556/556 523/523 529/529
f 548/548 557/557 550/550
f 550/550 557/557 549/549
f 558/558 534/534 549/549
f 517/517 559/559 453/453
f 453/453 559/559 484/484
f 518/518 461/461 560/560
f 560/560 461/461 485/485
f 534/534 556/556 529/529
f 540/540 561/561 535/535
f 506/506 562/562 536/536
f 563/563 507/507 537/537
f 564/564 565/565 548/548
f 549/549 565/565 558/558
f 556/556 566/566 523/523
f 535/535 561/561 555/555
f 558/558 567/567 534/534
f 536/536 562/562 568/568
f 563/563 537/537 569/569
f 540/540 570/570 561/561
f 534/534 567/567 556/556
f 564/564 571/571 565/565
f 557/557 572/572 558/558
f 525/525 487/487 545/545
f 545/545 487/487 488/488
f 527/527 573/573 499/499
f 500/500 499/499 573/573
f 555/555 561/561 574/574
f 565/565 574/574 572/572
f 572/572 567/567 558/558
f 502/502 503/503 533/533
f 575/575 533/533 503/503
f 527/527 515/515 573/573
f 515/515 511/511 573/573
f 562/562 576/576 568/568
f 577/577 578/578 569/569
f 516/516 533/533 513/513
f 533/533 575/575 513/513
f 525/525 545/545 542/542
f 542/542 545/545 553/553
f 508/508 579/579 509/509
f 509/509 579/579 551/551
f 463/463 580/580 443/443
f 580/580 506/506 443/443
f 581/581 465/465 507/507
f 465/465 444/444 507/507
f 570/570 582/582 583/583
f 561/561 582/582 574/574
f 584/584 497/497 559/559
f 559/559 497/497 484/484
f 585/585 560/560 496/496
f 496/496 560/560 485/485
f 586/586 587/587 576/576
f 588/588 563/563 577/577
f 576/576 587/587 589/589
f 588/588 577/577 590/590
f 591/591 582/582 592/592
f 574/574 582/582 593/593
f 528/528 547/547 515/515
f 515/515 547/547 512/512
f 532/532 516/516 547/547
f 512/512 547/547 516/516
f 594/594 588/588 590/590
f 587/587 595/595 589/589
f 524/524 540/540 499/499
f 499/499 540/540 527/527
f 479/479 596/596 463/463
f 596/596 580/580 463/463
f 480/480 465/465 597/597
f 597/597 465/465 581/581
f 598/598 594/594 599/599
f 595/595 600/600 591/591
f 584/584 601/601 497/497
f 497/497 601/601 514/514
f 585/585 496/496 602/602
f 602/602 496/496 521/521
f 600/600 582/582 591/591
f 539/539 603/603 508/508
f 508/508 603/603 579/579
f 598/598 588/588 594/594
f 587/587 600/600 604/604
f 605/605 598/598 599/599
f 600/600 593/593 582/582
f 606/606 605/605 607/607
f 593/593 606/606 607/607
f 606/606 598/598 605/605
f 600/600 606/606 593/593
f 566/566 608/608 523/523
f 523/523 608/608 530/530
f 609/609 610/610 531/531
f 610/610 524/524 531/531
f 611/611 539/539 601/601
f 601/601 539/539 514/514
f 612/612 602/602 538/538
f 538/538 602/602 521/521
f 610/610 592/592 524/524
f 524/524 592/592 540/540
f 490/490 613/613 479/479
f 613/613 596/596 479/479
f 614/614 491/491 597/597
f 491/491 480/480 597/597
f 612/612 538/538 615/615
f 615/615 538/538 541/541
f 611/611 616/616 539/539
f 539/539 616/616 603/603
f 580/580 617/617 506/506
f 617/617 562/562 506/506
f 618/618 581/581 563/563
f 581/581 507/507 563/563
f 619/619 590/590 566/566
f 566/566 590/590 608/608
f 604/604 610/610 589/589
f 589/589 610/610 609/609
f 619/619 566/566 599/599
f 599/599 566/566 556/556
f 595/595 591/591 610/610
f 610/610 591/591 592/592
f 605/605 599/599 567/567
f 567/567 599/599 556/556
f 605/605 567/567 607/607
f 607/607 567/567 572/572
f 593/593 607/607 574/574
f 574/574 607/607 572/572
f 596/596 620/620 580/580
f 620/620 617/617 580/580
f 621/621 581/581 622/622
f 622/622 581/581 618/618
f 617/617 623/623 562/562
f 623/623 587/587 562/562
f 624/624 618/618 588/588
f 618/618 563/563 588/588
f 613/613 625/625 596/596
f 625/625 620/620 596/596
f 626/626 614/614 622/622
f 614/614 597/597 622/622
f 627/627 624/624 598/598
f 624/624 588/588 598/598
f 623/623 628/628 587/587
f 628/628 600/600 587/587
f 620/620 629/629 617/617
f 629/629 623/623 617/617
f 630/630 631/631 624/624
f 631/631 618/618 624/624
f 632/632 627/627 606/606
f 627/627 598/598 606/606
f 628/628 632/632 600/600
f 632/632 606/606 600/600
f 633/633 630/630 627/627
f 630/630 634/634 627/627
f 635/635 636/636 637/637
f 636/636 628/628 637/637
f 638/638 626/626 639/639
f 626/626 622/622 639/639
f 625/625 640/640 620/620
f 640/640 635/635 620/620
f 641/641 633/633 632/632
f 633/633 642/642 632/632
f 636/636 641/641 628/628
f 641/641 643/643 628/628
f 644/644 638/638 633/633
f 638/638 630/630 633/633
f 640/640 645/645 635/635
f 645/645 636/636 635/635
f 646/646 644/644 641/641
f 644/644 633/633 641/641
f 645/645 646/646 636/636
f 646/646 641/641 636/636

usemtl texture3

f 647/647 648/648 649/649
f 647/647 650/650 651/651
f 647/647 652/652 648/648
f 647/647 651/651 653/653
f 647/647 654/654 655/655
f 647/647 656/656 657/657
f 647/647 658/658 656/656
f 647/647 655/655 659/659

usemtl texture4

f 660/660 661/661 662/662
f 661/661 663/663 662/662
f 662/662 663/663 664/664
f 663/663 665/665 664/664
f 666/666 662/662 667/667
f 667/667 662/662 668/668
f 668/668 664/664 669/669
f 670/670 660/660 666/666
f 666/666 660/660 662/662
f 668/668 662/662 664/664
f 664/664 665/665 671/671
f 665/665 672/672 671/671
f 673/673 674/674 660/660
f 674/674 661/661 660/660
f 669/669 664/664 675/675
f 676/676 660/660 670/670
f 675/675 664/664 671/671
f 676/676 673/673 660/660
f 675/675 671/671 677/677
f 678/678 673/673 676/676
f 677/677 671/671 679/679
f 680/680 673/673 678/678
f 671/671 672/672 681/681
f 672/672 682/682 681/681
f 683/683 684/684 673/673
f 684/684 674/674 673/673
f 661/661 685/685 663/663
f 663/663 685/685 665/665
f 679/679 686/686 681/681
f 680/680 683/683 673/673
f 665/665 685/685 672/672
f 674/674 685/685 661/661
f 679/679 681/681 687/687
f 688/688 683/683 680/680
f 672/672 685/685 682/682
f 684/684 685/685 674/674
f 682/682 685/685 689/689
f 690/690 685/685 684/684
f 687/687 681/681 691/691
f 692/692 683/683 688/688
f 689/689 685/685 693/693
f 694/694 685/685 690/690
f 691/691 681/681 695/695
f 692/692 696/696 683/683
f 681/681 682/682 695/695
f 682/682 689/689 695/695
f 696/696 690/690 683/683
f 690/690 684/684 683/683
f 697/697 685/685 694/694
f 693/693 685/685 697/697
f 698/698 696/696 692/692
f 691/691 695/695 699/699
f 699/699 695/695 700/700
f 701/701 696/696 698/698
f 700/700 695/695 702/702
f 701/701 703/703 696/696
f 704/704 703/703 701/701
f 700/700 702/702 705/705
f 695/695 689/689 702/702
f 689/689 693/693 702/702
f 703/703 694/694 696/696
f 694/694 690/690 696/696
f 706/706 702/702 707/707
f 708/708 707/707 703/703
f 705/705 702/702 706/706
f 708/708 703/703 704/704
f 709/709 707/707 708/708
f 706/706 707/707 709/709
f 702/702 693/693 707/707
f 693/693 697/697 707/707
f 707/707 697/697 703/703
f 697/697 694/694 703/703

usemtl texture0

f 1/1 2/2 3/3
f 4/4 3/3 2/2
f 3/3 4/4 5/5
f 6/6 5/5 4/4
f 7/7 8/8 9/9
f 10/10 9/9 8/8
f 11/11 12/12 13/13
f 12/12 14/14 13/13
f 15/15 16/16 17/17
f 16/16 18/18 17/17
f 19/19 20/20 21/21
f 21/21 20/20 22/22
f 23/23 24/24 25/25
f 24/24 26/26 25/25
f 27/27 28/28 29/29
f 29/29 28/28 30/30
f 31/31 32/32 33/33
f 32/32 34/34 33/33
f 35/35 36/36 37/37
f 38/38 37/37 36/36
f 39/39 40/40 41/41
f 41/41 40/40 42/42
f 43/43 39/39 44/44
f 44/44 39/39 41/41

