# Created by Metasequoia

mtllib Mad_express5.mtl

v -1819.100708 35.999901 -4442.079590
v -1820.128296 35.999901 -4444.898438
v -1819.100708 31.999901 -4442.079590
v -1820.128296 31.999901 -4444.898438
v -1760.937866 31.999901 -4466.474121
v -1760.937866 35.999901 -4466.474121
v -1759.910400 31.999901 -4463.655273
v -1759.910400 35.999901 -4463.655273
v -1786.565796 35.999901 -4352.824707
v -1787.593140 35.999901 -4355.643066
v -1786.565796 31.999901 -4352.824707
v -1787.593140 31.999901 -4355.643066
v -1728.402832 31.999901 -4377.218750
v -1728.402832 35.999901 -4377.218750
v -1727.375366 35.999901 -4374.400391
v -1727.375366 31.999901 -4374.400391
v -1697.989624 31.999901 -4489.419922
v -1697.989624 35.999901 -4489.419922
v -1696.962158 31.999901 -4486.601563
v -1696.962158 35.999901 -4486.601563
v -1665.454590 31.999901 -4400.165039
v -1665.454590 35.999901 -4400.165039
v -1664.427124 31.999901 -4397.346680
v -1664.427124 35.999901 -4397.346680
v -1585.246460 31.999901 -4530.517090
v -1585.246460 35.999901 -4530.517090
v -1584.218994 31.999901 -4527.698730
v -1584.218994 35.999901 -4527.698730
v -1552.711426 31.999901 -4441.262207
v -1552.711426 35.999901 -4441.262207
v -1551.683960 31.999901 -4438.443359
v -1551.683960 35.999901 -4438.443359
v -1541.088745 31.999901 -4546.613770
v -1541.088745 35.999901 -4546.613770
v -1540.061279 31.999901 -4543.794922
v -1540.061279 35.999901 -4543.794922
v -1508.553711 31.999901 -4457.358398
v -1508.553711 35.999901 -4457.358398
v -1507.526245 31.999901 -4454.540039
v -1507.526245 35.999901 -4454.540039
v -1463.108032 31.999901 -4575.039063
v -1463.108032 35.999901 -4575.039063
v -1462.080566 35.999901 -4572.220215
v -1462.080566 31.999901 -4572.220215
v -1430.572876 31.999901 -4485.783691
v -1430.572876 35.999901 -4485.783691
v -1429.545532 31.999901 -4482.965332
v -1429.545532 35.999901 -4482.965332
v -1820.470581 29.999901 -4445.837891
v -1825.168213 29.999901 -4444.125488
v -1820.470581 44.851299 -4445.837891
v -1825.168213 44.851299 -4444.125488
v -1823.455811 29.999901 -4439.427734
v -1818.758179 29.999901 -4441.140137
v -1823.455811 44.851299 -4439.427734
v -1818.758179 44.851299 -4441.140137
v -1787.935547 29.999901 -4356.582520
v -1792.633179 29.999901 -4354.870117
v -1787.935547 44.851299 -4356.582520
v -1792.633179 44.851299 -4354.870117
v -1790.920776 29.999901 -4350.172852
v -1786.223145 29.999901 -4351.885254
v -1790.920776 44.851299 -4350.172852
v -1786.223145 44.851299 -4351.885254
v -1639.611694 29.999901 -4511.764160
v -1644.309204 29.999901 -4510.051758
v -1639.611694 44.851299 -4511.764160
v -1644.309204 44.851299 -4510.051758
v -1642.596924 29.999901 -4505.354492
v -1637.899292 29.999901 -4507.066895
v -1642.596924 44.851299 -4505.354492
v -1637.899292 44.851299 -4507.066895
v -1607.076782 29.999901 -4422.509277
v -1611.774292 29.999901 -4420.796875
v -1607.076782 44.851299 -4422.509277
v -1611.774292 44.851299 -4420.796875
v -1610.061768 29.999901 -4416.099121
v -1605.364258 29.999901 -4417.811523
v -1610.061768 44.851299 -4416.099121
v -1605.364258 44.851299 -4417.811523
v -1458.752808 29.999901 -4577.690918
v -1463.450439 29.999901 -4575.978516
v -1458.752808 44.851299 -4577.690918
v -1463.450439 44.851299 -4575.978516
v -1461.738037 29.999901 -4571.280762
v -1457.040405 29.999901 -4572.993164
v -1461.738037 44.851299 -4571.280762
v -1457.040405 44.851299 -4572.993164
v -1426.217773 29.999901 -4488.435547
v -1430.915405 29.999901 -4486.723145
v -1426.217773 44.851299 -4488.435547
v -1430.915405 44.851299 -4486.723145
v -1429.203003 29.999901 -4482.025879
v -1424.505371 29.999901 -4483.738281
v -1429.203003 44.851299 -4482.025879
v -1424.505371 44.851299 -4483.738281
v -1820.470581 49.999901 -4445.837891
v -1825.168335 49.999901 -4444.125488
v -1823.455688 49.999901 -4439.427734
v -1818.758179 49.999901 -4441.140137
v -1787.935547 49.999901 -4356.582520
v -1792.633179 49.999901 -4354.870117
v -1790.920776 49.999901 -4350.172852
v -1786.223145 49.999901 -4351.885254
v -1639.611694 49.999901 -4511.764160
v -1644.309204 49.999901 -4510.051758
v -1642.597046 49.999901 -4505.354492
v -1637.899292 49.999901 -4507.066895
v -1607.076782 49.999901 -4422.509277
v -1611.774292 49.999901 -4420.796875
v -1610.061890 49.999901 -4416.099121
v -1605.364258 49.999901 -4417.811523
v -1458.752808 49.999901 -4577.690918
v -1463.450562 49.999901 -4575.978516
v -1461.737915 49.999901 -4571.280762
v -1457.040405 49.999901 -4572.993164
v -1426.217773 49.999901 -4488.435547
v -1430.915405 49.999901 -4486.723145
v -1429.203003 49.999901 -4482.025879
v -1424.505371 49.999901 -4483.738281
v -2105.678223 24.049700 -4221.938477
v -2134.432861 24.049700 -4283.668945
v -2107.637695 54.072189 -4226.145020
v -2132.473389 54.072189 -4279.462402
v -2120.075439 14.000000 -4252.794434
v -2136.965332 14.000000 -4289.053711
v -2135.940430 21.537300 -4286.892578
v -2120.055420 66.557503 -4252.803711
v -2128.349365 64.079613 -4270.609375
v -2111.761719 64.079613 -4234.998047
v -2104.180664 21.537300 -4218.709961
v -2103.185547 14.000000 -4216.535156
v -2052.196777 56.928539 -4317.533691
v -2039.519653 56.928570 -4290.318359
v -2038.165405 65.794708 -4317.425293
v -2028.031494 65.794792 -4295.669434
v -2020.765991 56.922440 -4332.174805
v -2018.222778 65.794868 -4326.714844
v -2026.842407 56.928581 -4263.103027
v -2017.897583 65.794807 -4273.914063
v -1995.411743 56.922649 -4277.743164
v -1997.954956 65.794724 -4283.203125
v -1990.259155 56.928711 -4346.384766
v -2020.765991 56.923149 -4332.174316
v -1999.204102 65.794937 -4335.573730
v -1977.581909 56.928539 -4319.168945
v -1989.070068 65.794792 -4313.818359
v -1964.904663 56.928341 -4291.953613
v -1978.936035 65.794670 -4292.062500
v -1995.411621 56.922340 -4277.743652
v -1964.904785 56.928539 -4291.953125
v -1979.677856 56.928581 -4351.313477
v -1967.000977 56.928539 -4324.097656
v -1965.646484 65.794777 -4351.205078
v -1955.512817 65.794739 -4329.449219
v -1948.247192 56.922588 -4365.954102
v -1945.704102 65.794769 -4360.494141
v -1954.323730 56.928539 -4296.882324
v -1945.378906 65.794708 -4307.693359
v -1954.323853 56.928440 -4296.882813
v -1922.893066 56.922440 -4311.523438
v -1925.436279 65.794868 -4316.982910
v -1917.740356 56.928539 -4380.163574
v -1926.685181 65.794739 -4369.352539
v -1905.063354 56.928539 -4352.948730
v -1916.551514 65.794739 -4347.597656
v -1892.386108 56.928692 -4325.733398
v -1906.417480 65.794937 -4325.841797
v -1922.893066 56.922901 -4311.523438
v -1911.405640 26.049950 -4387.557129
v -1882.651001 26.049950 -4325.826172
v -1909.446289 56.072441 -4383.350586
v -1884.610596 56.072441 -4330.032715
v -1912.903442 23.537540 -4390.785156
v -1913.898315 16.000240 -4392.959961
v -1897.008545 16.000240 -4356.700684
v -1897.028564 68.557739 -4356.691895
v -1905.322266 66.079849 -4374.497070
v -1888.734497 66.079849 -4338.886230
v -1881.143433 23.537540 -4322.602539
v -1880.118652 16.000240 -4320.441406
v -2124.715088 56.928539 -4283.754395
v -2112.038086 56.928570 -4256.539063
v -2110.683350 65.794708 -4283.645020
v -2100.549805 65.794853 -4261.889648
v -2124.715332 56.928391 -4283.753906
v -2093.284424 56.922340 -4298.394531
v -2090.741211 65.794670 -4292.934082
v -2099.360840 56.928589 -4229.323242
v -2090.416016 65.794708 -4240.134766
v -2099.360840 56.928341 -4229.323730
v -2067.930176 56.922340 -4243.964355
v -2070.473633 65.794693 -4249.423828
v -2062.777344 56.928341 -4312.604492
v -2071.722168 65.794449 -4301.792969
v -2090.740967 65.794449 -4292.933594
v -2071.722656 65.794739 -4301.793945
v -2050.100586 56.928440 -4285.389648
v -2061.588867 65.794792 -4280.038086
v -2037.423218 56.928539 -4258.173828
v -2051.455078 65.794777 -4258.282715
v -2067.929932 56.922539 -4243.963379
v -2187.102539 14.000000 -4221.572754
v -2184.411621 21.537300 -4222.826172
v -2192.695801 14.000000 -4243.868164
v -2188.233154 21.537300 -4243.702637
v -2186.674316 14.000000 -4265.898926
v -2182.336426 21.537300 -4265.281250
v -2181.147461 24.049700 -4224.346680
v -2184.033936 24.049700 -4243.719727
v -2177.691162 24.049700 -4263.519043
v -2173.634033 14.000000 -4202.945801
v -2170.889160 21.537300 -4206.468262
v -2168.174072 24.049700 -4209.672363
v -2152.894775 14.000000 -4193.380371
v -2150.576416 21.537300 -4197.098633
v -2148.936523 24.049700 -4201.788574
v -2054.749268 16.000240 -4316.319336
v -2054.749268 26.000139 -4316.319336
v -2050.078125 16.000240 -4329.526855
v -2050.078125 26.000139 -4329.526855
v -2029.414429 26.000139 -4261.930176
v -2029.414429 16.000240 -4261.930176
v -2000.802979 16.000240 -4352.479492
v -2000.802979 26.000139 -4352.479492
v -2016.298584 26.000139 -4257.008301
v -2016.298584 16.000240 -4257.008301
v -1987.669678 16.000240 -4347.565430
v -1987.669678 26.000139 -4347.565430
v -1967.023315 16.000240 -4279.960938
v -1967.023315 26.000139 -4279.960938
v -1962.334961 16.000240 -4293.176758
v -1962.334961 26.000139 -4293.176758
v -1982.230591 16.000240 -4350.098633
v -1982.230591 26.000139 -4350.098633
v -1977.559326 16.000240 -4363.306152
v -1977.559326 26.000139 -4363.306152
v -1956.895874 26.000139 -4295.709961
v -1956.895874 16.000240 -4295.709961
v -1928.284302 16.000240 -4386.258301
v -1928.284302 26.000139 -4386.258301
v -1943.779785 26.000139 -4290.787598
v -1943.779785 16.000240 -4290.787598
v -1915.150879 16.000240 -4381.344727
v -1915.150879 26.000139 -4381.344727
v -1894.504639 16.000240 -4313.740234
v -1894.504639 26.000139 -4313.740234
v -1889.816162 16.000240 -4326.956055
v -1889.816162 26.000139 -4326.956055
v -1866.507568 23.537540 -4412.396973
v -1868.147339 26.049940 -4407.707031
v -1864.189087 16.000240 -4416.115234
v -1834.747559 23.537540 -4344.213867
v -1839.392822 26.049940 -4345.976074
v -1846.194946 23.537540 -4403.026855
v -1848.909790 26.049940 -4399.823242
v -1830.409546 16.000240 -4343.596680
v -1843.450073 16.000240 -4406.549316
v -1832.672241 23.537540 -4386.668945
v -1835.936523 26.049940 -4385.148438
v -1829.981445 16.000240 -4387.922363
v -1828.850830 23.537540 -4365.792480
v -1833.050049 26.049940 -4365.775391
v -1824.388184 16.000240 -4365.627441
v -2127.267578 16.000240 -4282.539551
v -2127.267578 26.000139 -4282.539551
v -2122.596436 16.000240 -4295.747070
v -2122.596436 26.000139 -4295.747070
v -2101.932861 26.000139 -4228.150391
v -2101.932861 16.000240 -4228.150391
v -2073.321533 16.000240 -4318.699707
v -2073.321533 26.000139 -4318.699707
v -2088.817139 26.000139 -4223.229004
v -2088.817139 16.000240 -4223.229004
v -2060.188232 16.000240 -4313.785645
v -2060.188232 26.000139 -4313.785645
v -2039.541992 16.000240 -4246.181641
v -2039.541992 26.000139 -4246.181641
v -2034.853516 16.000240 -4259.396484
v -2034.853516 26.000139 -4259.396484
v -2171.389893 54.072201 -4250.956055
v -2168.116699 54.072201 -4230.416504
v -2168.813232 54.072201 -4259.511230
v -2154.499268 54.072201 -4214.695313
v -2158.702881 64.079613 -4256.470215
v -2160.972900 64.792198 -4233.744141
v -2142.114990 64.079613 -4220.859375
v -2146.292480 54.072201 -4211.163086
v -1870.791626 56.072441 -4398.332031
v -1874.968872 66.079849 -4388.635742
v -1856.111084 66.792442 -4375.751465
v -1858.381104 66.079849 -4353.024902
v -1848.270630 56.072441 -4349.983887
v -1862.584595 56.072441 -4394.800293
v -1848.967163 56.072441 -4379.078613
v -1845.693970 56.072441 -4358.539063
v -2150.513428 59.075901 -4264.916016
v -2154.897705 63.086700 -4278.532715
v -2162.161865 54.072201 -4262.987305
v -2160.109863 60.812691 -4278.281250
v -2145.982178 54.072201 -4272.791992
v -2151.351807 60.812691 -4282.360840
v -2130.380615 59.075901 -4221.694336
v -2139.351563 54.072201 -4214.018066
v -2122.777588 63.086700 -4209.576660
v -2126.323730 60.812691 -4205.748535
v -2121.435791 54.072201 -4220.095703
v -2117.565430 60.812691 -4209.828125
v -2169.674072 80.890602 -4281.150391
v -2158.230225 53.990799 -4285.687012
v -2164.639648 42.813702 -4264.799805
v -2156.623047 39.060902 -4270.694824
v -2147.016602 42.813702 -4274.511230
v -2139.558350 42.813702 -4210.955078
v -2129.887939 39.060902 -4213.299316
v -2119.445313 53.990799 -4202.422363
v -2130.281006 80.890602 -4196.581055
v -2120.785156 42.813702 -4218.197754
v -2028.017944 56.928539 -4328.796387
v -2026.780640 61.011749 -4326.140625
v -2029.018921 63.186440 -4338.935547
v -2022.514771 69.621948 -4335.929199
v -2026.661499 78.546341 -4344.830566
v -2020.765991 50.635448 -4332.174805
v -2020.631714 63.186440 -4342.842285
v -2012.276978 61.011749 -4332.896484
v -2013.514160 56.928539 -4335.552734
v -1995.546021 63.186440 -4267.075684
v -2003.900513 61.011749 -4277.021484
v -2002.663452 56.928539 -4274.365723
v -1993.662964 69.621948 -4273.988770
v -1995.411743 50.635448 -4277.743652
v -1989.396973 61.011749 -4283.777344
v -1989.516235 78.546341 -4265.087402
v -1987.158813 63.186440 -4270.982422
v -1988.159790 56.928539 -4281.121582
v -1955.499146 56.928539 -4362.576172
v -1954.262085 61.011749 -4359.919922
v -1956.500122 63.186440 -4372.714844
v -1949.996216 69.621948 -4369.708496
v -1954.142700 78.546341 -4378.610352
v -1948.247437 50.635448 -4365.954102
v -1948.112915 63.186440 -4376.621582
v -1939.758301 61.011749 -4366.676270
v -1940.995483 56.928539 -4369.332031
v -1923.027466 63.186440 -4300.854980
v -1931.381958 61.011749 -4310.800781
v -1930.144897 56.928539 -4308.144531
v -1921.144165 69.621948 -4307.769043
v -1922.892944 50.635448 -4311.522949
v -1916.878296 61.011749 -4317.556641
v -1916.997681 78.546341 -4298.866699
v -1914.640259 63.186440 -4304.761230
v -1915.641113 56.928539 -4314.900879
v -1886.703491 61.076149 -4387.801270
v -1894.306396 65.086937 -4399.918457
v -1895.648071 56.072441 -4389.399902
v -1899.518311 62.812939 -4399.667480
v -1877.732300 56.072441 -4395.477051
v -1890.760498 62.812939 -4403.746582
v -1866.570435 61.076149 -4344.579102
v -1871.101685 56.072441 -4336.703125
v -1862.186035 65.086937 -4330.962402
v -1865.732056 62.812939 -4327.134277
v -1854.922241 56.072441 -4346.507813
v -1856.974243 62.812939 -4331.213867
v -1897.638550 55.991039 -4407.072266
v -1896.298828 44.813950 -4391.297852
v -1886.803101 82.890846 -4412.914551
v -1887.196045 41.061138 -4396.196289
v -1877.525757 44.813950 -4398.540039
v -1870.067505 44.813950 -4334.983887
v -1858.853638 55.991039 -4323.808594
v -1860.460938 41.061138 -4338.800781
v -1847.409912 82.890846 -4328.344727
v -1852.444458 44.813950 -4344.695313
v -2100.536133 56.928539 -4295.017090
v -2099.299072 61.011749 -4292.360840
v -2101.537354 63.186440 -4305.155762
v -2095.033203 69.621948 -4302.148926
v -2099.179932 78.546341 -4311.050781
v -2093.284668 50.635448 -4298.394531
v -2093.150146 63.186440 -4309.062500
v -2084.795654 61.011749 -4299.116699
v -2086.032715 56.928539 -4301.772949
v -2068.064453 63.186440 -4233.296387
v -2076.418945 61.011749 -4243.241699
v -2075.181885 56.928539 -4240.585938
v -2066.181396 69.621948 -4240.208984
v -2067.930176 50.635448 -4243.963867
v -2061.915527 61.011749 -4249.997559
v -2062.034912 78.546341 -4231.307617
v -2059.677490 63.186440 -4237.202637
v -2060.678467 56.928539 -4247.341797
v -2039.519531 31.402040 -4290.318359
v -2052.196777 31.402040 -4317.533691
v -2026.842285 31.402040 -4263.103027
v -2052.188721 31.401739 -4317.516602
v -2052.188721 56.928341 -4317.516602
v -2020.758057 31.401840 -4332.157715
v -2020.757935 56.922340 -4332.157715
v -1990.259155 31.402040 -4346.384766
v -2026.854126 31.402149 -4263.128418
v -1995.423828 31.402149 -4277.769531
v -2026.854248 56.928749 -4263.128906
v -1995.423950 56.922741 -4277.769531
v -1990.251343 31.401939 -4346.367676
v -1990.251343 56.928539 -4346.367676
v -2020.758179 56.922539 -4332.157715
v -1964.904785 31.402040 -4291.953613
v -1977.581787 31.402040 -4319.168945
v -1964.940063 31.402651 -4292.029785
v -1964.940063 56.929150 -4292.029785
v -1995.447144 31.402651 -4277.819824
v -1995.447021 56.923241 -4277.819824
v -1967.000732 31.402040 -4324.097656
v -1979.677979 31.402040 -4351.313477
v -1954.323730 31.402040 -4296.882324
v -1979.686523 31.402149 -4351.332031
v -1979.686523 56.928749 -4351.332031
v -1948.255737 31.402149 -4365.971680
v -1948.255737 56.922741 -4365.971680
v -1917.740356 31.402040 -4380.164063
v -1954.328125 31.401939 -4296.892090
v -1922.897339 31.401939 -4311.531738
v -1954.328125 56.928539 -4296.892090
v -1922.897339 56.922539 -4311.531738
v -1917.738525 31.401939 -4380.160156
v -1948.245483 31.401939 -4365.950195
v -1917.738525 56.928440 -4380.160156
v -1948.245483 56.922539 -4365.950195
v -1892.385986 31.402040 -4325.733398
v -1905.063354 31.402040 -4352.948730
v -1922.893311 31.402040 -4311.523438
v -2112.038086 31.401991 -4256.538574
v -2124.715088 31.402020 -4283.754395
v -2099.360840 31.402020 -4229.323242
v -2093.284668 31.401939 -4298.394531
v -2062.777344 31.402020 -4312.604980
v -2099.362549 31.402040 -4229.327148
v -2067.931885 31.402040 -4243.967285
v -2099.362549 56.928539 -4229.327148
v -2067.931885 56.922539 -4243.967285
v -2062.777344 56.928539 -4312.604492
v -2093.284180 56.922539 -4298.393555
v -2037.423096 31.402020 -4258.173828
v -2050.100586 31.402040 -4285.389648
v -2037.422852 56.928440 -4258.172852
v -2067.929688 31.401939 -4243.962891
v -1339.233521 40.000000 -4611.268555
v -1426.183472 40.000000 -4588.036621
v -1339.233521 80.000000 -4611.268555
v -1426.183472 80.000000 -4588.036621
v -1339.233521 90.000000 -4611.268555
v -1426.183472 90.000000 -4588.036621
v -1339.233521 130.000000 -4611.268555
v -1426.183472 130.000000 -4588.036621
v -1423.602417 40.000000 -4578.375488
v -1336.651978 40.000000 -4601.607422
v -1423.602417 80.000000 -4578.375488
v -1336.651978 80.000000 -4601.607422
v -1423.602417 90.000000 -4578.375488
v -1336.651978 90.000000 -4601.607422
v -1423.602417 130.000000 -4578.375488
v -1336.651978 130.000000 -4601.607422
v -1316.002075 40.000000 -4524.318359
v -1402.951538 40.000000 -4501.086426
v -1316.002075 80.000000 -4524.318359
v -1402.951538 80.000000 -4501.086426
v -1316.002075 90.000000 -4524.318359
v -1402.951538 90.000000 -4501.086426
v -1316.002075 130.000000 -4524.318359
v -1402.951538 130.000000 -4501.086426
v -1400.369995 90.000000 -4491.425293
v -1313.421021 90.000000 -4514.657227
v -1400.369995 130.000000 -4491.425293
v -1313.421387 130.000000 -4514.657715
v -1400.369995 40.000000 -4491.425293
v -1313.420532 40.000000 -4514.657227
v -1400.369995 80.000000 -4491.425293
v -1313.420532 80.000000 -4514.657227
v -1146.011475 40.000000 -4662.894043
v -1146.011475 80.000000 -4662.894043
v -1146.011475 90.000000 -4662.894043
v -1146.011475 130.000000 -4662.894043
v -1143.428955 40.000000 -4653.231934
v -1143.428711 80.000000 -4653.232422
v -1143.428711 90.000000 -4653.232422
v -1143.428711 130.000000 -4653.232422
v -1122.779175 90.000000 -4575.943848
v -1122.779785 130.000000 -4575.944336
v -1122.779175 40.000000 -4575.943848
v -1122.779175 80.000000 -4575.943848
v -1120.200073 90.000000 -4566.281738
v -1120.200806 130.000000 -4566.280762
v -1120.198975 40.000000 -4566.281250
v -1120.199463 80.000000 -4566.281250
v -1059.061157 40.000000 -4686.124512
v -1059.061157 80.000000 -4686.124512
v -1059.061157 90.000000 -4686.124512
v -1059.061157 130.000000 -4686.124512
v -1056.478516 40.000000 -4676.463379
v -1056.477661 80.000000 -4676.464355
v -1056.477661 90.000000 -4676.464355
v -1056.477661 130.000000 -4676.464355
v -1035.829712 90.000000 -4599.174805
v -1035.830566 130.000000 -4599.173828
v -1035.829712 40.000000 -4599.174805
v -1035.829712 80.000000 -4599.174805
v -1033.250000 90.000000 -4589.512695
v -1033.250000 130.000000 -4589.512695
v -1033.248901 40.000000 -4589.513184
v -1033.250000 80.000000 -4589.512695
v -1336.651978 140.000000 -4601.607422
v -1339.233521 140.000000 -4611.268555
v -1423.602417 140.000000 -4578.375488
v -1426.183472 140.000000 -4588.036621
v -1316.002075 140.000000 -4524.318359
v -1402.951538 140.000000 -4501.086426
v -1313.422241 140.000000 -4514.656738
v -1400.371216 140.000000 -4491.424805
v -1143.428711 140.000000 -4653.232422
v -1146.011475 140.000000 -4662.894043
v -1122.779785 140.000000 -4575.944336
v -1120.200806 140.000000 -4566.280762
v -1056.477661 140.000000 -4676.464355
v -1059.061157 140.000000 -4686.124512
v -1033.250000 140.000000 -4589.512695
v -1035.830566 140.000000 -4599.173828
v -1433.262939 30.000000 -4575.794922
v -1435.844238 30.000000 -4585.455566
v -1433.262939 20.000000 -4575.794922
v -1435.844238 20.000000 -4585.455566
v -1435.844238 15.000000 -4585.455566
v -1433.262939 15.000000 -4575.794922
v -1422.938110 20.000000 -4537.149902
v -1422.938110 30.000000 -4537.149902
v -1422.938110 15.000000 -4537.149902
v -1413.277466 20.000000 -4539.731934
v -1413.277466 15.000000 -4539.731934
v -1423.602417 20.000000 -4578.375488
v -1423.602417 15.000000 -4578.375488
v -1423.602417 30.000000 -4578.375488
v -1413.277466 30.000000 -4539.731934
v -1412.613159 20.000000 -4498.505371
v -1412.613159 15.000000 -4498.505371
v -1412.613159 30.000000 -4498.505371
v -1410.032227 20.000000 -4488.844727
v -1410.032227 15.000000 -4488.844727
v -1410.032227 30.000000 -4488.844727
v -1402.951538 20.000000 -4501.086426
v -1402.951538 15.000000 -4501.086426
v -1402.951538 30.000000 -4501.086426
v -1046.154785 20.000000 -4637.819336
v -1056.479492 20.000000 -4676.463379
v -1046.154785 15.000000 -4637.819336
v -1056.479492 15.000000 -4676.463379
v -1056.479492 30.000000 -4676.463379
v -1046.154785 30.000000 -4637.819336
v -1046.818115 30.000000 -4679.045410
v -1046.818115 20.000000 -4679.045410
v -1049.400269 30.000000 -4688.706543
v -1049.400269 20.000000 -4688.706543
v -1049.400269 15.000000 -4688.706543
v -1046.818115 15.000000 -4679.045410
v -1036.493530 20.000000 -4640.400391
v -1036.493530 15.000000 -4640.400391
v -1036.493530 30.000000 -4640.400391
v -1035.829712 20.000000 -4599.174805
v -1035.829712 15.000000 -4599.174805
v -1035.829712 30.000000 -4599.175293
v -1026.168335 20.000000 -4601.756836
v -1026.168335 15.000000 -4601.756836
v -1026.168335 30.000000 -4601.756836
v -1023.587097 20.000000 -4592.095215
v -1023.587097 15.000000 -4592.095215
v -1023.587097 30.000000 -4592.095215
v -1426.183472 20.000000 -4588.036621
v -1426.183472 15.000000 -4588.036621
v -1426.183472 30.000000 -4588.036621
v -1400.369995 20.000000 -4491.425293
v -1400.369995 15.000000 -4491.425293
v -1400.369995 30.000000 -4491.425293
v -1059.061157 20.000000 -4686.124512
v -1059.061157 15.000000 -4686.124512
v -1059.061157 30.000000 -4686.124512
v -1033.248169 20.000000 -4589.513672
v -1033.248169 15.000000 -4589.513672
v -1033.248169 30.000000 -4589.513672
v -1339.233521 30.000000 -4611.268555
v -1339.233521 20.000000 -4611.268555
v -1336.651978 30.000000 -4601.607422
v -1336.651978 20.000000 -4601.607422
v -1316.002075 30.000000 -4524.318359
v -1316.002075 20.000000 -4524.318359
v -1313.420532 20.000000 -4514.657227
v -1313.420532 30.000000 -4514.657227
v -1146.011475 30.000000 -4662.894043
v -1146.011475 20.000000 -4662.894043
v -1143.429443 30.000000 -4653.231934
v -1143.429443 20.000000 -4653.231934
v -1122.779175 30.000000 -4575.943848
v -1122.779175 20.000000 -4575.943848
v -1120.198120 20.000000 -4566.281738
v -1120.198120 30.000000 -4566.281738
v -1461.340332 30.999901 -4553.304688
v -1451.597534 30.999901 -4522.404297
v -1437.974365 30.999901 -4560.671875
v -1428.231567 30.999901 -4529.771484
v -1442.095215 30.999901 -4492.267090
v -1418.729126 30.999901 -4499.634277
v -1414.608398 30.999901 -4568.039551
v -1404.865601 30.999901 -4537.139160
v -1395.363159 30.999901 -4507.001465
v -1465.881104 29.999901 -4556.067383
v -1464.678345 29.999901 -4552.252441
v -1462.543091 30.999901 -4557.119629
v -1454.935547 29.999901 -4521.352051
v -1438.223511 29.999901 -4564.787598
v -1439.177124 30.999901 -4564.486816
v -1445.433105 29.999901 -4491.214355
v -1444.230347 29.999901 -4487.399414
v -1440.892212 30.999901 -4488.452148
v -1434.885498 27.999901 -4565.839844
v -1438.223511 20.999901 -4564.787598
v -1434.885498 20.999901 -4565.839844
v -1417.526367 30.999901 -4495.819336
v -1416.572754 29.999901 -4496.120117
v -1415.811157 30.999901 -4571.854004
v -1432.978149 29.999901 -4566.441406
v -1412.473145 29.999901 -4572.906738
v -1416.572754 20.999901 -4496.120117
v -1413.234741 27.999901 -4497.172363
v -1413.234741 20.999901 -4497.172363
v -1411.327271 29.999901 -4497.773926
v -1411.270386 29.999901 -4569.091797
v -1401.527588 29.999901 -4538.191406
v -1394.160522 30.999901 -4503.186523
v -1390.822388 29.999901 -4504.239258
v -1392.025146 29.999901 -4508.053711
v -1820.470581 14.999900 -4445.838379
v -1817.045898 14.999900 -4436.442871
v -1829.865845 14.999900 -4442.413574
v -1826.441162 14.999900 -4433.018066
v -1803.347046 14.999900 -4398.861816
v -1812.742310 14.999900 -4395.437012
v -1789.647949 14.999900 -4361.280762
v -1799.043213 14.999900 -4357.855957
v -1795.618530 14.999900 -4348.460938
v -1786.223145 14.999900 -4351.885742
v -1450.630493 14.999900 -4570.008301
v -1460.025757 14.999900 -4566.583496
v -1454.055176 14.999900 -4579.403809
v -1463.450562 14.999900 -4575.979004
v -1436.931763 14.999900 -4532.427246
v -1446.326904 14.999900 -4529.002441
v -1423.232544 14.999900 -4494.846191
v -1432.627808 14.999900 -4491.421387
v -1429.203003 14.999900 -4482.026367
v -1419.807739 14.999900 -4485.451172
v -1812.742310 19.999901 -4395.437012
v -1826.441162 19.999901 -4433.018066
v -1817.045898 19.999901 -4436.442871
v -1803.347046 19.999901 -4398.861816
v -1799.043213 19.999901 -4357.855957
v -1789.647949 19.999901 -4361.280762
v -1446.326904 19.999901 -4529.002441
v -1460.025757 19.999901 -4566.583496
v -1450.630493 19.999901 -4570.008301
v -1436.931763 19.999901 -4532.427246
v -1432.627808 19.999901 -4491.421387
v -1423.232544 19.999901 -4494.846191
v -1820.470459 19.999901 -4445.838379
v -1786.223022 19.999901 -4351.885742
v -1463.450439 19.999901 -4575.979004
v -1429.203003 19.999901 -4482.026367
v -1732.488403 29.999901 -4467.265625
v -1735.913086 29.999901 -4476.661133
v -1817.045898 29.999901 -4436.442871
v -1820.470581 29.999901 -4445.838379
v -1701.665649 29.999901 -4382.708008
v -1705.090454 29.999901 -4392.103516
v -1786.223145 29.999901 -4351.885742
v -1789.647949 29.999901 -4361.280762
v -1544.583130 29.999901 -4535.760742
v -1548.007935 29.999901 -4545.156250
v -1513.760498 29.999901 -4451.203613
v -1517.185303 29.999901 -4460.598633
v -1460.025757 29.999901 -4566.583496
v -1463.450439 29.999901 -4575.979004
v -1429.203003 29.999901 -4482.026367
v -1432.627808 29.999901 -4491.421387
v -1826.441162 29.999901 -4433.018066
v -1812.742310 29.999901 -4395.437012
v -1803.347046 29.999901 -4398.861816
v -1799.043213 29.999901 -4357.855957
v -1446.326904 29.999901 -4529.002441
v -1450.630493 29.999901 -4570.008301
v -1436.931763 29.999901 -4532.427246
v -1423.232544 29.999901 -4494.846191
v -1829.865845 19.999901 -4442.413574
v -1829.865845 29.999901 -4442.413574
v -1795.618408 19.999901 -4348.460938
v -1795.618530 29.999901 -4348.460938
v -1454.055176 19.999901 -4579.403809
v -1454.055176 29.999901 -4579.403809
v -1419.807739 19.999901 -4485.451172
v -1419.807739 29.999901 -4485.451172
v -1735.913086 19.999901 -4476.661133
v -1732.488403 19.999901 -4467.265625
v -1718.789673 19.999901 -4429.684570
v -1718.789673 29.999901 -4429.684570
v -1705.090454 19.999901 -4392.103516
v -1701.665649 19.999901 -4382.708008
v -1548.007935 19.999901 -4545.156250
v -1544.583130 19.999901 -4535.760742
v -1530.884399 19.999901 -4498.179688
v -1530.884399 29.999901 -4498.179688
v -1517.185303 19.999901 -4460.598633
v -1513.760498 19.999901 -4451.203613
# 720 vertices

vt 1.47480 -2.97500
vt 1.49050 -2.99600
vt 1.47480 -2.99600
vt 1.49050 -2.97500
vt 9.28010 -1.00010
vt 13.75970 -2.01040
vt 9.28010 -2.01040
vt 13.75970 -1.00010
vt 8.85130 -2.00780
vt 13.33090 -1.00010
vt 13.33090 -2.00780
vt 8.85130 -1.00010
vt -14.08660 -2.00780
vt -9.60710 -1.00010
vt -9.60710 -2.00780
vt -14.08660 -1.00010
vt -12.81720 -1.00010
vt -8.33770 -2.01040
vt -12.81720 -2.01040
vt -8.33770 -1.00010
vt 1.53280 -2.97500
vt 1.54850 -2.99600
vt 1.53280 -2.99600
vt 1.54850 -2.97500
vt 8.23770 -2.00000
vt 12.24170 -0.98510
vt 8.23770 -0.98510
vt 12.24170 -2.00000
vt 13.74280 0.00240
vt 9.24100 -0.99760
vt 9.24100 0.00240
vt 13.74280 -0.99760
vt 10.06460 -2.00780
vt 14.97620 -1.00010
vt 14.97620 -2.00780
vt 10.06460 -1.00010
vt -12.25570 -1.00010
vt -8.11640 -2.01040
vt -12.25570 -2.01040
vt -8.11640 -1.00010
vt 4.51620 -1.00010
vt 4.51620 -2.01040
vt 4.08740 -2.00780
vt 4.08740 -1.00010
vt -4.84310 -1.00010
vt -4.84310 -2.00780
vt -3.57370 -2.01040
vt -3.57370 -1.00010
vt 3.97950 -2.00000
vt 3.97950 -0.98510
vt 4.84120 -2.00780
vt 4.84120 -1.00010
vt 4.45350 -0.99760
vt 4.45350 0.00240
vt -3.71440 -2.01040
vt -3.71440 -1.00010
vt -4.01610 -1.00010
vt -4.01610 -2.01040
vt -4.44490 -2.00780
vt -4.44490 -1.00010
vt 3.68920 -1.00010
vt 3.68920 -2.00780
vt 4.95860 -2.01040
vt 4.95860 -1.00010
vt -3.64720 -2.00000
vt -3.64720 -0.98510
vt -4.51410 -2.00780
vt -4.51410 -1.00010
vt -4.12120 -0.99760
vt -4.12120 0.00240
vt 4.16990 -2.01040
vt 4.16990 -1.00010
vt -7.35800 -1.00010
vt -7.35800 -2.01040
vt -7.78680 -2.00780
vt -7.78680 -1.00010
vt 7.03110 -1.00010
vt 7.03110 -2.00780
vt 8.30050 -2.01040
vt 8.30050 -1.00010
vt -6.63430 -2.00000
vt -6.63430 -0.98510
vt -8.17830 -2.00780
vt -8.17830 -1.00010
vt -7.47960 -0.99760
vt -7.47960 0.00240
vt 7.25790 -2.01040
vt 7.25790 -1.00010
vt -13.25960 -1.00010
vt -13.25960 -2.01040
vt 12.93270 -1.00010
vt 12.93270 -2.00780
vt -13.68840 -2.00780
vt -13.68840 -1.00010
vt 14.20210 -2.01040
vt 14.20210 -1.00010
vt -11.90940 -2.00000
vt -11.90940 -0.98510
vt -14.64910 -2.00780
vt -14.64910 -1.00010
vt -13.41050 -0.99760
vt -13.41050 0.00240
vt 12.71120 -2.01040
vt 12.71120 -1.00010
vt 1.44580 -2.97500
vt 1.46160 -2.99600
vt 1.44580 -2.99600
vt 1.46160 -2.97500
vt 1.50380 -2.97500
vt 1.51950 -2.99600
vt 1.50380 -2.99600
vt 1.51950 -2.97500
vt 0.66600 -1.00200
vt 0.99800 -1.99810
vt 0.66600 -1.99810
vt 0.99800 -1.00200
vt 0.00190 -1.00200
vt 0.33390 -1.99810
vt 0.00190 -1.99810
vt 0.33390 -1.00200
vt 0.66600 -1.57990
vt 0.99800 -1.85360
vt 0.66600 -1.85360
vt 0.99800 -1.57990
vt 0.00190 -1.57990
vt 0.33390 -1.85360
vt 0.00190 -1.85360
vt 0.33390 -1.57990
vt 0.81920 -1.33530
vt 0.99800 -1.49820
vt 0.81920 -1.49820
vt 0.99800 -1.33530
vt 0.46160 -1.33530
vt 0.64040 -1.49820
vt 0.46160 -1.49820
vt 0.64040 -1.33530
vt 0.66600 -1.58400
vt 0.99800 -1.58400
vt 0.00190 -1.58400
vt 0.33390 -1.58400
vt 0.99800 -1.84950
vt 0.66600 -1.84950
vt 0.33390 -1.84950
vt 0.00190 -1.84950
vt 0.99800 -1.86600
vt 0.66600 -1.86600
vt 0.33390 -1.86600
vt 0.00190 -1.86600
vt 0.74740 -1.58850
vt 0.99670 -1.85570
vt 0.74740 -1.85570
vt 0.99670 -1.58850
vt 0.00000 -1.00010
vt 0.99990 -2.00000
vt 0.99990 -1.00010
vt 0.00000 -2.00000
vt -0.60680 0.29010
vt 1.78140 -1.42970
vt -0.78140 -1.42970
vt 1.60680 0.29010
vt 1.91540 -1.57360
vt 2.00540 -2.00540
vt 0.50000 -2.00540
vt 1.23920 0.86340
vt 0.49990 1.00540
vt -0.23920 0.86340
vt -0.91540 -1.57360
vt -1.00540 -2.00540
vt 9.21090 2.49990
vt 9.99680 2.00450
vt 8.99990 2.00450
vt 9.99680 2.49990
vt 9.99970 2.50350
vt 9.32080 2.99990
vt 8.99990 2.50350
vt 9.99990 2.99990
vt -2.24960 1.99990
vt -3.99960 2.72150
vt -3.99960 1.99990
vt -2.29730 2.72150
vt -0.23670 1.99990
vt -0.14230 2.72150
vt -3.99960 2.99990
vt -2.24960 2.99990
vt 0.21700 2.99990
vt 4.25110 1.99990
vt 4.25110 2.72150
vt 4.25110 2.99990
vt 0.99990 -9.02030
vt 1.99990 -8.01180
vt 1.99990 -9.02030
vt 0.99990 -8.01180
vt 6.99990 -8.01180
vt 6.99990 -9.02030
vt -3.99990 -8.01180
vt -3.99990 -9.02030
vt 7.99990 -9.02030
vt 7.99990 -8.01180
vt -4.99990 -8.01180
vt -4.99990 -9.02030
vt 12.99990 -9.02030
vt 12.99990 -8.01180
vt 13.99990 -9.02030
vt 18.99990 -8.01180
vt 18.99990 -9.02030
vt 13.99990 -8.01180
vt 0.00540 -2.54500
vt 0.34760 -2.99820
vt 0.34030 -2.54260
vt 0.00540 -2.99820
vt 0.62490 -2.99820
vt 0.65230 -2.52680
vt 0.00540 -2.37800
vt 0.34000 -2.32110
vt 0.46510 -2.52610
vt 0.99800 -1.99990
vt 0.56040 -2.47010
vt 0.99800 -2.47010
vt 0.56040 -1.99990
vt 0.34410 -2.00140
vt 0.45350 -2.57050
vt 0.46160 -2.00140
vt 0.00540 -2.00140
vt -0.99990 -3.99990
vt -0.49990 -2.99990
vt -0.49990 -3.99990
vt -1.00000 -2.99990
vt -0.99990 -2.99990
vt 0.49990 -3.99990
vt 0.49170 -3.99990
vt 0.74320 -2.99990
vt 1.00870 -3.99990
vt 0.48500 -3.99990
vt 0.49120 -3.99990
vt 9.49990 0.49990
vt 9.49750 1.00000
vt 8.99750 1.00000
vt 9.74990 0.99990
vt 2.99470 -6.99680
vt 2.00520 -6.00010
vt 2.00520 -6.99680
vt 2.99470 -6.00010
vt 0.00000 -8.98750
vt 1.99990 -8.73830
vt 0.00000 -8.73830
vt 1.99990 -8.98750
vt 0.24990 -9.99620
vt 1.94840 -9.73750
vt 0.05150 -9.73750
vt 1.74990 -9.99620
vt 1.99990 -8.98740
vt 0.00000 -8.73810
vt 1.99990 -8.73810
vt 0.00000 -8.98740
vt 0.00090 -9.99960
vt 1.99900 -9.99960
vt 0.99990 -6.00010
vt 0.00000 -7.00000
vt 0.00000 -6.00010
vt 0.99990 -7.00000
vt 10.49810 0.99800
vt 12.09920 0.00190
vt 10.49810 0.00190
vt 12.09920 0.99800
vt 12.09920 0.00000
vt 10.49810 0.00000
vt -1.53220 0.99800
vt 0.00710 0.00190
vt -1.53220 0.00190
vt 0.00710 0.99800
vt 0.00710 0.00000
vt -1.53220 0.00000
vt 7.44310 0.99800
vt 7.44310 0.00190
vt 7.44310 0.00000
vt 3.00100 0.00190
vt 3.00100 0.99800
vt 3.00100 0.00000
vt 5.34770 0.99800
vt 5.34770 0.00190
vt 5.34770 0.00000
vt 5.01150 0.00190
vt 5.01150 0.99800
vt 5.01150 0.00000
vt 0.00000 0.99990
vt 0.33630 0.00000
vt 0.00000 0.00000
vt 0.33630 0.99990
vt -0.74360 0.20220
vt -0.10290 0.81500
vt -0.10290 0.20220
vt -0.74360 0.81500
vt -0.10290 0.21380
vt -0.74360 0.81240
vt -0.10290 0.81240
vt -0.74360 0.21380
vt 1.10290 0.81500
vt 1.10290 0.20220
vt 1.10290 0.21380
vt 1.10290 0.81240
vt 1.74360 0.20220
vt 1.74360 0.81500
vt 1.74360 0.81240
vt 1.74360 0.21380
vt 22.50140 0.99800
vt 25.46580 0.00190
vt 22.50140 0.00190
vt 25.46580 0.99800
vt 0.00190 0.99800
vt 2.24520 0.00190
vt 0.00190 0.00190
vt 2.24520 0.99800
vt 15.72650 0.99800
vt 15.72650 0.00190
vt 7.48740 0.00190
vt 7.48740 0.99800
vt 10.48370 0.99800
vt 10.48370 0.00190
vt 9.99330 0.00190
vt 9.99330 0.99800
vt 0.51560 0.00000
vt 0.51560 0.99990
vt -0.72130 0.47310
vt -1.09550 0.99800
vt -0.72130 0.99800
vt -1.09530 0.47310
vt -1.09530 -0.03730
vt -0.72130 -0.03720
vt 0.63330 0.99800
vt 0.63330 0.47320
vt 0.63330 -0.03720
vt 0.63330 -0.03730
vt 0.63330 0.47310
vt -1.09500 -0.03730
vt -1.09500 0.99800
vt 1.98810 -0.03720
vt 1.98810 0.47320
vt 1.98810 0.99810
vt 2.36200 -0.03710
vt 2.36200 0.47320
vt 2.36200 0.99800
vt 2.36200 0.47310
vt 2.36200 -0.03730
vt 0.63380 -0.03730
vt 0.63380 0.47310
vt 2.36080 -0.03730
vt 0.63380 0.99800
vt 2.36080 0.99800
vt -1.09530 0.99800
vt -0.73170 0.47310
vt -0.73170 0.99800
vt -0.73170 -0.03730
vt 0.61260 0.47310
vt 0.61260 -0.03730
vt 0.61260 0.99800
vt -1.09430 0.47310
vt 1.99990 0.47610
vt 1.99990 0.00000
vt 1.99990 0.99990
vt 2.37490 0.00000
vt 2.37490 0.47610
vt 2.37490 0.99990
vt 0.99800 -0.03730
vt 0.38850 0.46720
vt 0.99800 0.46720
vt 0.38850 -0.03730
vt 0.38850 0.99800
vt 0.99800 0.99800
vt 0.38850 0.47700
vt 0.99800 -0.03400
vt 0.99800 0.47700
vt 0.38850 -0.03400
vt 0.01500 0.47700
vt 0.65730 -0.03070
vt 0.65730 0.47700
vt 0.01500 -0.03070
vt 0.01500 0.99800
vt 0.65730 0.99800
vt 0.38190 0.47050
vt 0.99800 0.47050
vt 0.38190 -0.03400
vt 0.38190 0.99800
vt 2.98760 0.42650
vt 1.99260 0.79840
vt 2.98760 0.79840
vt 1.99260 0.42650
vt 1.91520 0.79840
vt 2.91020 0.42650
vt 2.91020 0.79840
vt 1.91520 0.42650
vt 2.29090 0.42650
vt 1.29590 0.79840
vt 2.29090 0.79840
vt 1.29590 0.42650
vt 2.21340 0.42650
vt 1.21840 0.79840
vt 1.21840 0.42650
vt 2.21340 0.79840
vt -0.21840 0.42650
vt -0.21840 0.79840
vt -0.29590 0.42650
vt -0.29590 0.79840
vt -0.91520 0.79840
vt -0.91520 0.42650
vt -0.99260 0.42650
vt -0.99260 0.79840
vt -1.21350 0.42650
vt -1.21350 0.79840
vt -1.29090 0.42650
vt -1.29090 0.79840
vt -1.91020 0.42650
vt -1.91020 0.79840
vt -1.98760 0.42650
vt -1.98760 0.79840
vt -0.67670 0.03310
vt -0.52720 0.14620
vt -0.67670 0.14620
vt -0.52720 0.03310
vt 1.71640 0.03800
vt 2.01200 0.41820
vt 1.71640 0.41820
vt 2.01200 0.03800
vt 0.09580 0.14620
vt 0.09580 0.03310
vt 0.49990 0.03800
vt 0.49990 0.41820
vt 0.71890 0.03310
vt 0.71890 0.14620
vt -0.71640 0.41820
vt -0.71640 0.03800
vt 0.86840 0.14620
vt 0.86840 0.03310
vt -1.01200 0.41820
vt -1.01200 0.03800
vt -0.15080 0.02130
vt 0.04610 0.14420
vt 0.04610 0.02130
vt -0.15080 0.14420
vt -0.42830 0.02950
vt -0.60970 0.41120
vt -0.60970 0.02950
vt -0.42830 0.41120
vt 0.37740 0.02950
vt 0.37740 0.41120
vt 0.62250 0.02130
vt 0.62250 0.14420
vt 1.19890 0.02130
vt 1.19890 0.14420
vt 1.18320 0.41120
vt 1.18320 0.02950
vt 1.39590 0.02130
vt 1.39590 0.14420
vt 1.36460 0.41120
vt 1.36460 0.02950
vt 0.51560 0.16890
vt 0.00000 0.16890
vt 8.62210 0.16690
vt 7.37420 0.00190
vt 8.62210 0.00190
vt 7.37420 0.16690
vt 19.09380 0.16690
vt 18.14950 0.00190
vt 19.09380 0.00190
vt 18.14950 0.16690
vt 17.80940 0.16690
vt 19.02640 0.00190
vt 17.80940 0.00190
vt 19.02640 0.16690
vt 7.50690 0.00190
vt 8.42780 0.16690
vt 8.42780 0.00190
vt 7.50690 0.16690
vt 12.47440 0.16690
vt 12.47440 0.00190
vt 15.94280 0.00190
vt 15.94280 0.16690
vt 13.96250 0.16690
vt 13.96250 0.00190
vt 10.58000 0.00190
vt 10.58000 0.16690
vt 14.68140 0.00190
vt 14.68140 0.16690
vt 14.88790 0.00190
vt 14.88790 0.16690
vt 11.81010 0.16690
vt 11.81010 0.00190
vt 11.60880 0.00190
vt 11.60880 0.16690
vt 1.44300 -0.67740
vt 1.40760 -0.99650
vt 1.40760 -0.67740
vt 1.44300 -0.99650
vt 1.54440 -0.99650
vt 1.50890 -0.67740
vt 1.54440 -0.67740
vt 1.50890 -0.99650
vt 1.44300 0.03150
vt 1.40760 0.03150
vt 1.54440 0.03150
vt 1.50890 0.03150
vt 1.40760 0.35060
vt 1.44300 0.35060
vt 1.54440 0.35060
vt 1.50890 0.35060
vt 3.90000 -0.00030
vt 1.21900 0.99990
vt 1.21900 -0.00030
vt 3.90000 0.99990
vt 24.24880 0.99990
vt 22.22000 -0.00030
vt 24.24880 -0.00030
vt 22.22000 0.99990
vt 10.02730 0.99990
vt 10.02730 -0.00030
vt 17.47890 -0.00030
vt 17.47890 0.99990
vt 14.76900 0.99990
vt 14.76900 -0.00030
vt 15.21250 0.99990
vt 15.21250 -0.00030
vt 0.36650 -0.02510
vt 0.99990 0.46450
vt 0.36650 0.46450
vt 0.99990 -0.02510
vt 0.50310 -2.00000
vt 0.99990 -0.99850
vt 0.50310 -0.99850
vt 0.99990 0.00330
vt 0.50310 0.00330
vt 0.00010 -2.00000
vt 0.00010 -0.99850
vt 0.00010 0.00330
vt -2.07810 -3.02050
vt -1.72510 -3.25630
vt -2.07810 -3.25630
vt -1.72510 -3.02050
vt 1.13480 -3.25630
vt 1.13480 -3.02050
vt 2.05720 -1.19080
vt -0.72400 -1.08440
vt -0.82700 -1.19080
vt 1.79970 -1.08440
vt -2.07810 -1.00520
vt -1.72510 -1.00520
vt 3.92410 -3.25630
vt 3.92410 -3.02050
vt 4.27720 -3.02050
vt 4.27720 -3.25630
vt 2.05720 -1.61650
vt 2.26320 -1.40370
vt 2.26320 -1.61650
vt 3.92410 -1.00520
vt 4.27720 -1.00520
vt -0.76000 -1.20500
vt 1.62810 -1.08340
vt 1.86220 -1.20500
vt -0.66640 -1.08340
vt -2.07810 1.01010
vt -1.72510 1.01010
vt 2.46920 -1.19080
vt 4.32340 -1.08440
vt 4.32340 -1.19080
vt 2.04950 -1.44810
vt 1.86220 -1.69120
vt 2.04950 -1.69120
vt 2.23680 -1.20500
vt -0.99100 -2.25440
vt -0.57940 -2.03840
vt -0.99100 -2.03840
vt -0.57940 -2.25440
vt 1.67330 -2.03840
vt 1.67330 -2.25440
vt 4.27720 1.01010
vt 3.92410 1.01010
vt 3.92260 -1.08340
vt 3.92260 -1.20500
vt 3.87040 -2.03840
vt 3.87040 -2.25440
vt 4.28200 -2.03840
vt 4.28200 -2.25440
vt 0.92940 -1.00700
vt 0.85420 -0.87790
vt 0.92940 -0.87790
vt 0.85420 -1.00700
vt 0.49210 -1.00700
vt 0.49210 -0.87790
vt 0.13000 -1.00700
vt 0.13000 -0.87790
vt 0.05480 -0.87790
vt 0.05480 -1.00700
vt 0.02460 -0.11230
vt 0.13430 -0.00200
vt 0.13430 -0.11230
vt 0.02460 -0.00200
vt 0.51520 -0.11230
vt 0.51520 -0.00200
vt 0.89610 -0.11230
vt 0.89610 -0.00200
vt 1.00580 -0.11230
vt 1.00580 -0.00200
vt 0.45250 -0.88380
vt 0.95050 -0.99810
vt 0.45250 -0.99810
vt 0.95050 -0.88380
vt -0.06000 -0.89060
vt 0.46600 -0.99810
vt -0.06000 -0.99810
vt 0.46600 -0.89060
vt -0.04540 -0.88380
vt -0.04540 -0.99810
vt 0.99220 -0.99810
vt 0.99220 -0.89060
vt 0.46380 -0.88380
vt 1.00900 -0.99810
vt 0.46380 -0.99810
vt 1.00900 -0.88380
vt -0.09090 -0.89280
vt -0.09090 -0.99810
vt 0.46600 -0.89280
vt -0.08130 -0.88380
vt -0.08130 -0.99810
vt 1.02310 -0.99810
vt 1.02310 -0.89280
vt 0.24620 -1.00210
vt 0.75370 0.00210
vt 0.75370 -1.00210
vt 0.24620 0.00210
vt 0.25010 -1.00000
vt 0.74980 -0.00010
vt 0.74980 -1.00000
vt 0.25010 -0.00010
vt 0.25150 -1.00000
vt 0.74840 -0.00010
vt 0.74840 -1.00000
vt 0.25150 -0.00010
vt 0.24880 -1.00000
vt 0.75110 -0.00010
vt 0.75110 -1.00000
vt 0.24880 -0.00010
vt 2.49530 -0.50010
vt 1.48200 -0.32820
vt 1.48200 -0.50010
vt 2.49530 -0.32820
vt 2.49530 -0.17600
vt 1.48200 -0.00200
vt 1.48200 -0.17600
vt 2.49530 -0.00200
vt -0.48200 -0.32820
vt -0.48200 -0.50010
vt -0.48200 -0.00200
vt -0.48200 -0.17600
vt -1.49530 -0.50010
vt -1.49530 -0.32820
vt -1.49530 -0.17600
vt -1.49530 -0.00200
vt -0.51570 -0.00200
vt 0.24090 -0.18170
vt -0.51570 -0.18170
vt 0.24090 -0.00200
vt 0.99800 -0.18170
vt 0.99800 -0.00200
vt -0.49990 -0.33290
vt 0.24090 -0.50010
vt -0.49990 -0.50010
vt 0.24090 -0.33290
vt 0.99800 -0.50010
vt 0.99800 -0.33290
vt 1.24120 0.97700
vt 0.74470 -0.00520
vt 0.74470 0.98440
vt 1.24120 -0.00520
vt -0.24730 0.98440
vt -0.23280 -0.00520
vt 0.74470 -0.99470
vt 1.24730 -1.00200
vt -0.21820 -0.98850
vt -0.24540 -0.00890
vt 0.22350 0.98450
vt 0.22540 -0.00890
vt -0.25090 0.97820
vt 1.24380 0.98450
vt 1.24930 -0.00890
vt -0.23960 -1.00840
vt 0.22740 -1.00210
vt 1.24730 -1.00210
vt 1.23880 0.98520
vt 0.67320 -0.00890
vt 0.66700 0.97890
vt 1.24500 -0.00880
vt -0.23260 -0.00890
vt -0.23880 0.96630
vt 0.67940 -0.99660
vt -0.23880 -1.00390
vt 1.24390 -0.99030
vt -0.26620 -0.00150
vt 0.34130 0.99630
vt 0.34130 -0.00150
vt -0.26620 0.99630
vt 1.26620 0.99630
vt 1.26620 -0.00150
vt -0.26620 -0.99930
vt 0.34130 -0.99930
vt 1.26620 -0.99930
vt 0.00000 -0.00010
vt 0.99990 -1.00000
vt 0.99990 -0.00010
vt 0.00000 -1.00000
vt 0.99700 -1.97340
vt 0.89680 -1.26510
vt 0.99700 -1.26510
vt 0.89680 -1.97340
vt 0.49580 -1.26510
vt 0.49580 -1.97340
vt 0.99300 -2.04020
vt 1.50170 -2.98610
vt 0.99300 -2.98610
vt 1.50170 -2.04020
vt 0.09470 -1.26510
vt 0.09470 -1.97340
vt 2.01040 -2.98610
vt 2.01040 -2.04020
vt -0.00540 -1.26510
vt -0.00540 -1.97340
vt 0.89680 0.30880
vt 0.99700 0.30880
vt 0.49580 0.30880
vt 1.50170 0.06180
vt 0.99300 0.06180
vt 0.09470 0.30880
vt 2.01040 0.06180
vt -0.00540 0.30880
vt 0.89680 1.01710
vt 0.99700 1.01710
vt 0.49580 1.01710
vt 0.99300 1.00770
vt 1.50170 1.00770
vt 0.09470 1.01710
vt 2.01040 1.00770
vt -0.00540 1.01710
vt 1.74400 -0.45080
vt 0.60470 -0.00010
vt 0.60470 -0.45080
vt 1.74400 -0.00010
vt -0.53460 -0.45080
vt -0.53460 -0.00010
vt -0.51350 -0.45910
vt 0.61640 -0.00200
vt -0.51350 -0.00200
vt 0.61640 -0.45910
vt 1.74650 -0.00200
vt 1.74650 -0.45910
vt -1.74390 -0.00200
vt -0.48690 -0.46260
vt -1.74390 -0.46260
vt -0.48690 -0.00200
vt 3.00040 -0.45910
vt 1.64940 -0.00010
vt 1.64940 -0.45910
vt 3.00040 -0.00010
vt 1.75910 -0.00200
vt 1.75910 -0.46260
vt -1.38160 -0.45910
vt -1.38160 -0.00010
vt 3.01610 -0.46260
vt 3.01610 -0.00200
vt -2.73260 -0.00010
vt -2.73260 -0.45910
# 767 texture vertices

g Object_2
usemtl texture0
f 1/3 2/2 3/1
f 2/2 4/4 3/1
f 5/7 4/6 6/5
f 4/6 2/8 6/5
f 3/11 4/10 7/9
f 4/10 5/12 7/9
f 8/15 6/14 1/13
f 6/14 2/16 1/13
f 3/19 7/18 1/17
f 7/18 8/20 1/17
f 9/23 10/22 11/21
f 10/22 12/24 11/21
f 13/27 12/26 14/25
f 12/26 10/28 14/25
f 15/31 14/30 9/29
f 14/30 10/32 9/29
f 11/35 12/34 16/33
f 12/34 13/36 16/33
f 11/39 16/38 9/37
f 16/38 15/40 9/37
f 17/42 5/7 18/41
f 5/7 6/5 18/41
f 7/9 5/12 19/43
f 5/12 17/44 19/43
f 20/46 18/45 8/15
f 18/45 6/14 8/15
f 7/18 19/47 8/20
f 19/47 20/48 8/20
f 21/50 13/27 22/49
f 13/27 14/25 22/49
f 16/33 13/36 23/51
f 13/36 21/52 23/51
f 24/54 22/53 15/31
f 22/53 14/30 15/31
f 16/38 23/55 15/40
f 23/55 24/56 15/40
f 25/58 17/42 26/57
f 17/42 18/41 26/57
f 19/43 17/44 27/59
f 17/44 25/60 27/59
f 28/62 26/61 20/46
f 26/61 18/45 20/46
f 19/47 27/63 20/48
f 27/63 28/64 20/48
f 29/66 21/50 30/65
f 21/50 22/49 30/65
f 23/51 21/52 31/67
f 21/52 29/68 31/67
f 32/70 30/69 24/54
f 30/69 22/53 24/54
f 23/55 31/71 24/56
f 31/71 32/72 24/56
f 33/74 25/58 34/73
f 25/58 26/57 34/73
f 27/59 25/60 35/75
f 25/60 33/76 35/75
f 36/78 34/77 28/62
f 34/77 26/61 28/62
f 27/63 35/79 28/64
f 35/79 36/80 28/64
f 37/82 29/66 38/81
f 29/66 30/65 38/81
f 31/67 29/68 39/83
f 29/68 37/84 39/83
f 40/86 38/85 32/70
f 38/85 30/69 32/70
f 31/71 39/87 32/72
f 39/87 40/88 32/72
f 41/90 33/74 42/89
f 33/74 34/73 42/89
f 43/92 42/91 36/78
f 42/91 34/77 36/78
f 35/75 33/76 44/93
f 33/76 41/94 44/93
f 35/79 44/95 36/80
f 44/95 43/96 36/80
f 45/98 37/82 46/97
f 37/82 38/81 46/97
f 39/83 37/84 47/99
f 37/84 45/100 47/99
f 48/102 46/101 40/86
f 46/101 38/85 40/86
f 39/87 47/103 40/88
f 47/103 48/104 40/88
f 44/107 41/106 43/105
f 41/106 42/108 43/105
f 47/111 45/110 48/109
f 45/110 46/112 48/109
usemtl texture1
f 49/115 50/114 51/113
f 50/114 52/116 51/113
f 53/119 54/118 55/117
f 54/118 56/120 55/117
f 54/118 49/115 56/120
f 49/115 51/113 56/120
f 57/115 58/114 59/113
f 58/114 60/116 59/113
f 61/119 62/118 63/117
f 62/118 64/120 63/117
f 62/118 57/115 64/120
f 57/115 59/113 64/120
f 65/115 66/114 67/113
f 66/114 68/116 67/113
f 69/119 70/118 71/117
f 70/118 72/120 71/117
f 70/118 65/115 72/120
f 65/115 67/113 72/120
f 73/115 74/114 75/113
f 74/114 76/116 75/113
f 77/119 78/118 79/117
f 78/118 80/120 79/117
f 78/118 73/115 80/120
f 73/115 75/113 80/120
f 81/115 82/114 83/113
f 82/114 84/116 83/113
f 85/119 86/118 87/117
f 86/118 88/120 87/117
f 86/118 81/115 88/120
f 81/115 83/113 88/120
f 89/115 90/114 91/113
f 90/114 92/116 91/113
f 93/119 94/118 95/117
f 94/118 96/120 95/117
f 94/118 89/115 96/120
f 89/115 91/113 96/120
usemtl texture2
f 51/123 52/122 97/121
f 52/122 98/124 97/121
f 55/127 56/126 99/125
f 56/126 100/128 99/125
f 56/126 51/123 100/128
f 51/123 97/121 100/128
f 59/131 60/130 101/129
f 60/130 102/132 101/129
f 63/135 64/134 103/133
f 64/134 104/136 103/133
f 64/134 59/131 104/136
f 59/131 101/129 104/136
f 67/123 68/122 105/137
f 68/122 106/138 105/137
f 71/127 72/126 107/139
f 72/126 108/140 107/139
f 72/126 67/123 108/140
f 67/123 105/137 108/140
f 75/123 76/122 109/137
f 76/122 110/138 109/137
f 79/127 80/126 111/139
f 80/126 112/140 111/139
f 80/126 75/123 112/140
f 75/123 109/137 112/140
f 83/142 84/141 113/137
f 84/141 114/138 113/137
f 87/144 88/143 115/139
f 88/143 116/140 115/139
f 88/143 83/142 116/140
f 83/142 113/137 116/140
f 91/146 92/145 117/137
f 92/145 118/138 117/137
f 95/148 96/147 119/139
f 96/147 120/140 119/139
f 96/147 91/146 120/140
f 91/146 117/137 120/140
f 99/151 98/150 55/149
f 98/150 52/152 55/149
f 103/151 102/150 63/149
f 102/150 60/152 63/149
f 107/151 106/150 71/149
f 106/150 68/152 71/149
f 111/151 110/150 79/149
f 110/150 76/152 79/149
f 115/151 114/150 87/149
f 114/150 84/152 87/149
f 119/151 118/150 95/149
f 118/150 92/152 95/149
usemtl texture3
f 99/155 100/154 98/153
f 100/154 97/156 98/153
f 102/156 103/154 101/153
f 103/154 104/155 101/153
f 107/155 108/154 106/153
f 108/154 105/156 106/153
f 110/156 111/154 109/153
f 111/154 112/155 109/153
f 114/156 115/154 113/153
f 115/154 116/155 113/153
f 119/154 120/155 118/156
f 120/155 117/153 118/156
usemtl texture4
f 55/116 52/117 53/114
f 52/117 50/119 53/114
f 63/119 60/117 61/114
f 60/117 58/116 61/114
f 71/116 68/117 69/114
f 68/117 66/119 69/114
f 79/116 76/117 77/114
f 76/117 74/119 77/114
f 87/116 84/117 85/114
f 84/117 82/119 85/114
f 95/116 92/117 93/114
f 92/117 90/119 93/114
usemtl texture5
f 121/159 122/158 123/157
f 122/158 124/160 123/157
f 125/163 126/162 127/161
f 122/158 125/163 127/161
f 128/165 124/160 129/164
f 125/163 122/158 121/159
f 123/157 124/160 128/165
f 123/157 128/165 130/166
f 125/163 121/159 131/167
f 131/167 132/168 125/163
f 133/171 134/170 135/169
f 136/172 135/169 134/170
f 133/175 135/174 137/173
f 135/174 138/176 137/173
f 139/171 140/169 134/170
f 140/169 136/172 134/170
f 139/175 141/173 140/174
f 141/173 142/176 140/174
f 143/175 144/173 145/174
f 144/173 138/176 145/174
f 143/171 145/169 146/170
f 145/169 147/172 146/170
f 148/175 149/174 150/173
f 149/174 142/176 150/173
f 151/171 146/170 149/169
f 147/172 149/169 146/170
f 152/171 153/170 154/169
f 155/172 154/169 153/170
f 152/175 154/174 156/173
f 154/174 157/176 156/173
f 158/171 159/169 153/170
f 159/169 155/172 153/170
f 160/175 161/173 159/174
f 161/173 162/176 159/174
f 163/175 156/173 164/174
f 156/173 157/176 164/174
f 163/171 164/169 165/170
f 164/169 166/172 165/170
f 167/175 168/174 169/173
f 168/174 162/176 169/173
f 167/171 165/170 168/169
f 166/172 168/169 165/170
f 170/159 171/158 172/157
f 171/158 173/160 172/157
f 174/167 175/168 176/163
f 176/163 170/159 174/167
f 172/157 177/165 178/166
f 172/157 173/160 177/165
f 176/163 171/158 170/159
f 177/165 173/160 179/164
f 171/158 176/163 180/161
f 176/163 181/162 180/161
f 182/171 183/170 184/169
f 185/172 184/169 183/170
f 186/175 184/174 187/173
f 184/174 188/176 187/173
f 189/171 190/169 183/170
f 190/169 185/172 183/170
f 191/175 192/173 190/174
f 192/173 193/176 190/174
f 194/175 187/173 195/174
f 187/173 196/176 195/174
f 194/171 197/169 198/170
f 197/169 199/172 198/170
f 200/175 201/174 202/173
f 201/174 193/176 202/173
f 200/171 198/170 201/169
f 199/172 201/169 198/170
usemtl texture6
f 203/179 204/178 205/177
f 205/177 204/178 206/180
f 205/177 206/180 207/181
f 206/180 208/182 207/181
f 204/178 209/183 206/180
f 206/180 209/183 210/184
f 206/180 210/184 208/182
f 210/184 211/185 208/182
f 203/179 212/177 204/178
f 212/177 213/180 204/178
f 204/178 213/180 209/183
f 213/180 214/184 209/183
f 212/177 215/181 213/180
f 215/181 216/182 213/180
f 207/181 208/182 126/186
f 208/182 127/187 126/186
f 213/180 216/182 214/184
f 216/182 217/185 214/184
f 208/182 211/185 127/187
f 211/185 122/188 127/187
f 215/181 132/186 216/182
f 216/182 132/186 131/187
f 216/182 131/187 217/185
f 217/185 131/187 121/188
f 218/191 219/190 220/189
f 219/190 221/192 220/189
f 219/190 218/191 222/193
f 218/191 223/194 222/193
f 224/196 220/189 225/195
f 220/189 221/192 225/195
f 226/198 222/193 227/197
f 222/193 223/194 227/197
f 228/200 224/196 229/199
f 224/196 225/195 229/199
f 227/197 230/201 226/198
f 230/201 231/202 226/198
f 228/205 229/204 232/203
f 229/204 233/206 232/203
f 230/201 232/203 231/202
f 232/203 233/206 231/202
f 234/191 235/190 236/189
f 235/190 237/192 236/189
f 235/190 234/191 238/193
f 234/191 239/194 238/193
f 240/196 236/189 241/195
f 236/189 237/192 241/195
f 242/198 238/193 243/197
f 238/193 239/194 243/197
f 244/200 240/196 245/199
f 240/196 241/195 245/199
f 243/197 246/201 242/198
f 246/201 247/202 242/198
f 244/205 245/204 248/203
f 245/204 249/206 248/203
f 246/201 248/203 247/202
f 248/203 249/206 247/202
f 250/182 174/187 251/185
f 251/185 174/187 170/188
f 252/181 175/186 250/182
f 250/182 175/186 174/187
f 253/182 254/185 180/187
f 254/185 171/188 180/187
f 255/180 250/182 256/184
f 250/182 251/185 256/184
f 257/181 253/182 181/186
f 253/182 180/187 181/186
f 258/177 252/181 255/180
f 252/181 250/182 255/180
f 259/178 255/180 260/183
f 255/180 256/184 260/183
f 261/179 258/177 259/178
f 258/177 255/180 259/178
f 262/180 263/184 253/182
f 263/184 254/185 253/182
f 259/178 260/183 262/180
f 262/180 260/183 263/184
f 264/177 262/180 257/181
f 262/180 253/182 257/181
f 261/179 259/178 264/177
f 264/177 259/178 262/180
f 265/191 266/190 267/189
f 266/190 268/192 267/189
f 266/190 265/191 269/193
f 265/191 270/194 269/193
f 271/196 267/189 272/195
f 267/189 268/192 272/195
f 273/198 269/193 274/197
f 269/193 270/194 274/197
f 275/200 271/196 276/199
f 271/196 272/195 276/199
f 274/197 277/201 273/198
f 277/201 278/202 273/198
f 275/205 276/204 279/203
f 276/204 280/206 279/203
f 277/201 279/203 278/202
f 279/203 280/206 278/202
usemtl texture7
f 281/209 210/208 282/207
f 282/207 210/208 209/210
f 210/208 281/209 211/211
f 211/211 281/209 283/212
f 284/209 282/207 214/208
f 282/207 209/210 214/208
f 285/214 281/209 286/213
f 286/213 281/209 282/207
f 287/214 286/213 284/209
f 286/213 282/207 284/209
f 214/208 217/211 284/209
f 217/211 288/215 284/209
f 122/218 211/217 124/216
f 283/219 124/216 211/217
f 124/222 283/221 129/220
f 129/220 283/221 285/214
f 128/223 129/220 286/213
f 286/213 129/220 285/214
f 128/223 286/213 130/220
f 286/213 287/214 130/220
f 121/218 123/216 217/217
f 288/219 217/217 123/216
f 123/222 130/220 288/221
f 130/220 287/214 288/221
f 281/209 285/214 283/221
f 287/214 284/209 288/221
f 172/222 178/220 289/221
f 178/220 290/214 289/221
f 170/218 172/216 251/217
f 289/219 251/217 172/216
f 177/223 291/213 178/220
f 291/213 290/214 178/220
f 177/223 179/220 291/213
f 291/213 179/220 292/214
f 173/222 293/221 179/220
f 179/220 293/221 292/214
f 171/218 254/217 173/216
f 293/219 173/216 254/217
f 256/208 251/211 294/209
f 251/211 289/215 294/209
f 290/214 291/213 294/209
f 291/213 295/207 294/209
f 292/214 296/209 291/213
f 291/213 296/209 295/207
f 294/209 295/207 256/208
f 295/207 260/210 256/208
f 263/208 296/209 254/211
f 254/211 296/209 293/212
f 296/209 263/208 295/207
f 295/207 263/208 260/210
f 290/214 294/209 289/221
f 296/209 292/214 293/221
usemtl texture8
f 297/226 298/225 299/224
f 299/224 298/225 300/227
f 297/226 301/224 298/225
f 301/224 302/228 298/225
f 303/226 304/224 305/225
f 304/224 306/227 305/225
f 303/226 305/225 307/224
f 305/225 308/228 307/224
f 309/231 310/230 300/229
f 311/226 299/224 300/228
f 300/233 298/232 309/231
f 310/228 311/226 300/228
f 312/224 311/226 310/228
f 309/231 302/234 310/230
f 298/232 302/234 309/231
f 313/226 312/224 310/228
f 302/228 313/226 310/228
f 301/224 313/226 302/228
f 314/226 306/228 304/224
f 315/224 316/228 314/226
f 306/228 314/226 316/228
f 306/233 317/231 305/232
f 317/231 306/229 316/230
f 305/232 317/231 308/234
f 318/226 316/228 315/224
f 317/231 316/230 308/234
f 307/224 308/228 318/226
f 316/228 318/226 308/228
f 319/237 320/236 321/235
f 321/235 320/236 322/235
f 321/235 322/235 323/238
f 319/237 321/235 324/236
f 325/235 321/235 323/238
f 325/235 324/236 321/235
f 322/235 325/235 323/238
f 320/236 138/237 322/235
f 322/235 326/236 325/235
f 325/235 327/237 324/236
f 326/236 322/235 138/237
f 325/235 326/236 327/237
f 328/235 329/236 330/237
f 329/236 331/235 142/237
f 332/236 328/235 330/237
f 331/235 329/236 328/235
f 142/237 331/235 333/236
f 331/235 328/235 334/238
f 328/235 332/236 335/235
f 334/238 328/235 335/235
f 336/237 335/235 332/236
f 335/235 331/235 334/238
f 335/235 333/236 331/235
f 333/236 335/235 336/237
f 337/237 338/236 339/235
f 339/235 338/236 340/235
f 339/235 340/235 341/238
f 337/237 339/235 342/236
f 343/235 339/235 341/238
f 343/235 342/236 339/235
f 340/235 343/235 341/238
f 338/236 157/237 340/235
f 340/235 344/236 343/235
f 343/235 345/237 342/236
f 344/236 340/235 157/237
f 343/235 344/236 345/237
f 346/235 347/236 348/237
f 347/236 349/235 162/237
f 350/236 346/235 348/237
f 349/235 347/236 346/235
f 162/237 349/235 351/236
f 349/235 346/235 352/238
f 346/235 350/236 353/235
f 352/238 346/235 353/235
f 354/237 353/235 350/236
f 353/235 349/235 352/238
f 353/235 351/236 349/235
f 351/236 353/235 354/237
f 355/226 356/225 357/224
f 356/225 358/228 357/224
f 355/226 359/224 356/225
f 359/224 360/227 356/225
f 361/226 362/224 363/225
f 362/224 364/228 363/225
f 361/226 363/225 365/224
f 365/224 363/225 366/227
f 367/228 368/226 358/228
f 357/224 358/228 368/226
f 369/231 367/230 358/234
f 368/226 367/228 370/224
f 356/232 369/231 358/234
f 369/231 360/229 367/230
f 360/233 369/231 356/232
f 360/228 371/226 367/228
f 370/224 367/228 371/226
f 371/226 360/228 359/224
f 362/224 372/226 364/228
f 364/228 372/226 373/228
f 372/226 374/224 373/228
f 363/232 364/234 375/231
f 375/231 364/234 373/230
f 374/224 376/226 373/228
f 373/228 376/226 366/228
f 366/233 363/232 375/231
f 376/226 365/224 366/228
f 375/231 373/230 366/229
f 377/237 378/236 379/235
f 379/235 378/236 380/235
f 379/235 380/235 381/238
f 377/237 379/235 382/236
f 383/235 379/235 381/238
f 383/235 382/236 379/235
f 380/235 383/235 381/238
f 378/236 188/237 380/235
f 380/235 384/236 383/235
f 383/235 385/237 382/236
f 384/236 380/235 188/237
f 383/235 384/236 385/237
f 386/235 387/236 388/237
f 387/236 389/235 193/237
f 390/236 386/235 388/237
f 389/235 387/236 386/235
f 193/237 389/235 391/236
f 389/235 386/235 392/238
f 386/235 390/236 393/235
f 392/238 386/235 393/235
f 394/237 393/235 390/236
f 393/235 389/235 392/238
f 393/235 391/236 389/235
f 391/236 393/235 394/237
usemtl texture9
f 395/241 134/240 396/239
f 134/240 133/242 396/239
f 397/245 396/244 222/243
f 222/243 396/244 219/246
f 398/239 399/242 400/241
f 399/242 401/240 400/241
f 139/242 134/240 397/239
f 134/240 395/241 397/239
f 396/249 402/248 221/247
f 221/247 402/248 225/250
f 403/239 404/241 405/242
f 404/241 406/240 405/242
f 407/239 400/241 408/242
f 400/241 409/240 408/242
f 410/248 397/249 231/250
f 231/250 397/249 226/247
f 411/241 402/239 146/240
f 402/239 143/242 146/240
f 412/239 413/242 414/241
f 413/242 415/240 414/241
f 402/253 410/252 229/251
f 229/251 410/252 233/254
f 410/239 411/241 151/242
f 411/241 146/240 151/242
f 219/255 396/249 221/247
f 397/249 222/255 226/247
f 229/256 225/250 402/248
f 231/250 233/256 410/248
f 416/241 153/240 417/239
f 153/240 152/242 417/239
f 418/245 417/244 238/243
f 238/243 417/244 235/246
f 419/239 420/242 421/241
f 420/242 422/240 421/241
f 158/242 153/240 418/239
f 153/240 416/241 418/239
f 417/249 423/248 237/247
f 237/247 423/248 241/250
f 424/239 425/241 426/242
f 425/241 427/240 426/242
f 428/239 429/241 430/242
f 429/241 431/240 430/242
f 432/248 418/249 247/250
f 247/250 418/249 242/247
f 433/241 423/239 165/240
f 423/239 163/242 165/240
f 432/239 167/242 434/241
f 167/242 169/240 434/241
f 423/253 432/252 245/251
f 245/251 432/252 249/254
f 432/239 433/241 167/242
f 433/241 165/240 167/242
f 235/255 417/249 237/247
f 418/249 238/255 242/247
f 245/256 241/250 423/248
f 247/250 249/256 432/248
f 435/241 183/240 436/239
f 183/240 182/242 436/239
f 437/245 436/244 269/243
f 269/243 436/244 266/246
f 436/239 186/242 438/241
f 186/242 187/240 438/241
f 189/242 183/240 437/239
f 183/240 435/241 437/239
f 436/249 439/248 268/247
f 268/247 439/248 272/250
f 440/239 441/241 442/242
f 441/241 443/240 442/242
f 439/239 438/241 444/242
f 438/241 445/240 444/242
f 446/248 437/249 278/250
f 278/250 437/249 273/247
f 447/241 439/239 198/240
f 439/239 444/242 198/240
f 446/239 448/242 449/241
f 448/242 202/240 449/241
f 439/253 446/252 276/251
f 276/251 446/252 280/254
f 446/239 447/241 200/242
f 447/241 198/240 200/242
f 266/255 436/249 268/247
f 437/249 269/255 273/247
f 276/256 272/250 439/248
f 278/250 280/256 446/248
usemtl texture10
f 145/259 135/258 149/257
f 135/258 140/260 149/257
f 164/259 154/258 168/257
f 154/258 159/260 168/257
f 197/259 184/258 201/257
f 184/258 190/260 201/257
g obj1
usemtl mat1
f 450/263 451/262 452/261
f 451/262 453/264 452/261
f 454/266 455/265 456/261
f 455/265 457/264 456/261
f 458/269 459/268 460/267
f 459/268 461/270 460/267
f 462/272 463/271 464/267
f 463/271 465/270 464/267
f 466/263 467/262 468/261
f 467/262 469/264 468/261
f 470/263 471/262 472/261
f 471/262 473/264 472/261
f 474/269 475/268 476/267
f 475/268 477/270 476/267
f 478/269 479/268 480/267
f 479/268 481/270 480/267
f 482/274 450/263 483/273
f 450/263 452/261 483/273
f 484/275 454/266 485/273
f 454/266 456/261 485/273
f 459/268 486/276 461/270
f 486/276 487/277 461/270
f 463/271 488/278 465/270
f 488/278 489/277 465/270
f 490/274 470/263 491/273
f 470/263 472/261 491/273
f 492/274 466/263 493/273
f 466/263 468/261 493/273
f 475/268 494/276 477/270
f 494/276 495/277 477/270
f 479/268 496/276 481/270
f 496/276 497/277 481/270
f 498/280 482/274 499/279
f 482/274 483/273 499/279
f 500/281 484/275 501/279
f 484/275 485/273 501/279
f 486/276 502/282 487/277
f 502/282 503/283 487/277
f 488/278 504/284 489/277
f 504/284 505/283 489/277
f 506/280 490/274 507/279
f 490/274 491/273 507/279
f 508/280 492/274 509/279
f 492/274 493/273 509/279
f 510/282 511/283 494/276
f 494/276 511/283 495/277
f 496/276 512/282 497/277
f 512/282 513/283 497/277
f 502/282 498/280 503/283
f 498/280 499/279 503/283
f 504/284 500/281 505/283
f 500/281 501/279 505/283
f 510/282 506/280 511/283
f 506/280 507/279 511/283
f 508/280 509/279 512/282
f 512/282 509/279 513/283
f 451/287 458/286 453/285
f 458/286 460/288 453/285
f 455/287 462/286 457/285
f 462/286 464/288 457/285
f 467/287 478/286 469/285
f 478/286 480/288 469/285
f 474/286 476/288 471/287
f 471/287 476/288 473/285
usemtl mat2
f 514/291 515/290 516/289
f 515/290 517/292 516/289
f 518/295 519/294 520/293
f 520/293 519/294 521/296
f 522/298 523/297 514/291
f 523/297 515/290 514/291
f 524/300 518/295 525/299
f 525/299 518/295 520/293
f 522/298 526/301 523/297
f 526/301 527/302 523/297
f 528/304 529/303 525/299
f 525/299 529/303 524/300
usemtl mat3
f 452/307 453/306 454/305
f 453/306 455/308 454/305
f 460/311 461/310 462/309
f 461/310 463/312 462/309
f 468/307 469/306 470/305
f 469/306 471/308 470/305
f 481/310 475/312 480/311
f 480/311 475/312 474/309
f 483/314 452/307 484/313
f 452/307 454/305 484/313
f 461/310 487/315 463/312
f 487/315 488/316 463/312
f 493/314 468/307 490/313
f 468/307 470/305 490/313
f 497/315 494/316 481/310
f 481/310 494/316 475/312
f 499/318 483/314 500/317
f 483/314 484/313 500/317
f 487/315 503/319 488/316
f 503/319 504/320 488/316
f 509/318 493/314 506/317
f 493/314 490/313 506/317
f 513/319 510/320 497/315
f 497/315 510/320 494/316
f 503/319 499/318 504/320
f 499/318 500/317 504/320
f 513/319 509/318 510/320
f 509/318 506/317 510/320
f 453/287 460/321 455/285
f 460/321 462/322 455/285
f 469/287 480/321 471/285
f 480/321 474/322 471/285
usemtl mat4
f 530/325 531/324 532/323
f 532/323 531/324 533/326
f 533/326 534/327 532/323
f 532/323 534/327 535/328
f 536/330 537/329 532/323
f 537/329 530/325 532/323
f 536/330 532/323 538/331
f 532/323 535/328 538/331
f 539/333 540/332 541/326
f 541/326 540/332 542/334
f 543/335 544/329 541/326
f 544/329 539/333 541/326
f 545/337 536/330 546/336
f 536/330 538/331 546/336
f 536/330 545/337 537/329
f 545/337 547/338 537/329
f 548/340 545/337 549/339
f 545/337 546/336 549/339
f 547/338 545/337 550/341
f 550/341 545/337 548/340
f 539/333 551/342 540/332
f 551/342 552/343 540/332
f 553/341 551/342 544/329
f 544/329 551/342 539/333
f 554/345 555/342 556/344
f 555/342 557/346 556/344
f 558/348 555/342 559/347
f 559/347 555/342 554/345
f 560/351 561/350 562/349
f 561/350 563/326 562/349
f 563/326 561/350 564/327
f 561/350 565/352 564/327
f 561/350 566/353 565/352
f 566/353 567/354 565/352
f 560/351 568/355 561/350
f 568/355 566/353 561/350
f 554/345 556/344 569/356
f 569/356 556/344 570/327
f 571/349 559/347 569/356
f 559/347 554/345 569/356
f 566/353 572/357 567/354
f 572/357 573/358 567/354
f 568/355 574/359 566/353
f 574/359 572/357 566/353
f 575/361 576/360 572/357
f 572/357 576/360 573/358
f 575/361 572/357 577/362
f 572/357 574/359 577/362
f 533/365 578/364 534/363
f 578/364 579/366 534/363
f 578/364 533/365 580/367
f 580/367 533/365 531/368
f 548/371 549/370 581/369
f 581/369 549/370 582/372
f 581/369 583/367 548/371
f 548/371 583/367 550/368
f 563/375 564/374 584/373
f 584/373 564/374 585/376
f 584/373 586/377 563/375
f 563/375 586/377 562/378
f 575/380 587/379 576/370
f 587/379 588/381 576/370
f 587/379 575/380 589/382
f 575/380 577/368 589/382
usemtl mat5
f 580/385 590/384 578/383
f 590/384 591/386 578/383
f 543/389 541/388 592/387
f 592/387 541/388 593/390
f 553/393 594/392 551/391
f 594/392 595/394 551/391
f 596/397 597/396 581/395
f 597/396 583/398 581/395
f 598/400 599/399 590/384
f 599/399 591/386 590/384
f 600/402 592/387 601/401
f 592/387 593/390 601/401
f 594/392 602/403 595/394
f 602/403 603/404 595/394
f 596/397 604/405 597/396
f 604/405 605/406 597/396
f 599/399 598/400 584/407
f 598/400 586/408 584/407
f 601/401 555/409 600/402
f 558/410 600/402 555/409
f 571/412 569/411 602/403
f 602/403 569/411 603/404
f 604/405 587/413 605/406
f 587/413 589/414 605/406
usemtl mat6
f 579/417 542/416 534/415
f 542/416 535/418 534/415
f 543/421 580/420 530/419
f 580/420 531/422 530/419
f 538/424 535/418 540/423
f 540/423 535/418 542/416
f 530/419 537/425 543/421
f 537/425 544/426 543/421
f 552/428 546/427 540/423
f 546/427 538/424 540/423
f 544/426 537/425 553/429
f 537/425 547/430 553/429
f 549/432 546/427 582/431
f 546/427 552/428 582/431
f 553/429 547/430 583/433
f 583/433 547/430 550/434
f 565/437 557/436 564/435
f 557/436 585/438 564/435
f 562/441 586/440 560/439
f 560/439 586/440 558/442
f 560/439 558/442 568/443
f 558/442 559/444 568/443
f 565/437 567/445 557/436
f 567/445 556/446 557/436
f 570/448 556/446 573/447
f 567/445 573/447 556/446
f 559/444 571/449 568/443
f 571/449 574/450 568/443
f 588/452 570/448 576/451
f 570/448 573/447 576/451
f 577/454 574/450 589/453
f 574/450 571/449 589/453
usemtl mat7
f 543/321 458/455 580/287
f 580/287 458/455 451/456
f 553/287 583/321 467/456
f 583/321 478/455 467/456
f 590/459 580/458 450/457
f 580/458 451/460 450/457
f 543/463 592/462 458/461
f 592/462 459/464 458/461
f 594/467 553/466 466/465
f 553/466 467/468 466/465
f 597/471 479/470 583/469
f 583/469 479/470 478/472
f 598/474 590/459 482/473
f 590/459 450/457 482/473
f 592/462 600/475 459/464
f 600/475 486/476 459/464
f 602/478 594/467 492/477
f 594/467 466/465 492/477
f 597/471 605/479 479/470
f 605/479 496/480 479/470
f 598/474 482/473 586/481
f 586/481 482/473 498/482
f 600/475 558/483 486/476
f 558/483 502/484 486/476
f 571/486 602/478 508/485
f 602/478 492/477 508/485
f 605/479 589/487 496/480
f 589/487 512/488 496/480
f 498/482 502/484 586/481
f 558/483 586/481 502/484
f 571/486 508/485 589/487
f 589/487 508/485 512/488
usemtl mat8
f 593/491 541/490 591/489
f 591/489 541/490 578/492
f 595/495 596/494 551/493
f 596/494 581/496 551/493
f 601/498 593/491 599/497
f 599/497 593/491 591/489
f 595/495 603/499 596/494
f 596/494 603/499 604/500
f 584/502 555/501 599/497
f 555/501 601/498 599/497
f 587/504 604/500 569/503
f 569/503 604/500 603/499
usemtl mat9
f 457/287 464/321 517/285
f 464/321 516/322 517/285
f 519/285 473/287 521/322
f 473/287 476/321 521/322
f 457/507 517/506 456/505
f 456/505 517/506 515/508
f 464/511 465/510 516/509
f 465/510 514/512 516/509
f 473/507 519/506 472/505
f 472/505 519/506 518/508
f 476/511 477/510 521/509
f 477/510 520/512 521/509
f 485/514 456/505 523/513
f 456/505 515/508 523/513
f 465/510 489/515 514/512
f 489/515 522/516 514/512
f 491/514 472/505 524/513
f 472/505 518/508 524/513
f 495/515 525/516 477/510
f 477/510 525/516 520/512
f 501/518 485/514 527/517
f 485/514 523/513 527/517
f 505/520 526/519 489/515
f 489/515 526/519 522/516
f 507/518 491/514 529/517
f 491/514 524/513 529/517
f 525/516 495/515 528/519
f 495/515 511/520 528/519
f 505/520 501/518 526/519
f 501/518 527/517 526/519
f 511/520 507/518 528/519
f 507/518 529/517 528/519
usemtl mat10
f 578/523 541/522 579/521
f 541/522 542/524 579/521
f 581/522 582/524 551/523
f 551/523 582/524 552/521
f 584/522 585/524 555/523
f 555/523 585/524 557/521
f 587/523 569/522 588/521
f 569/522 570/524 588/521
usemtl mat11
f 606/154 607/526 608/525
f 607/526 609/527 608/525
f 607/526 610/528 609/527
f 610/528 611/529 609/527
f 608/525 609/527 612/530
f 609/527 613/531 612/530
f 609/527 611/529 613/531
f 611/529 614/532 613/531
usemtl texture11
f 615/535 616/534 617/533
f 616/534 606/536 617/533
f 616/534 618/537 606/536
f 618/537 607/538 606/536
f 615/541 617/540 619/539
f 620/542 619/539 617/540
f 617/533 606/536 620/543
f 606/536 608/544 620/543
f 618/537 621/545 607/538
f 621/545 610/546 607/538
f 622/548 623/547 621/545
f 621/545 623/547 610/546
f 619/539 624/550 625/549
f 624/550 626/551 625/549
f 610/546 623/547 611/552
f 623/547 627/553 611/552
f 628/556 627/555 622/554
f 622/554 627/555 623/557
f 620/543 608/544 629/558
f 608/544 612/559 629/558
f 620/542 629/561 630/560
f 629/561 631/562 630/560
f 628/556 632/564 633/563
f 632/564 634/565 633/563
f 627/555 628/556 635/566
f 628/556 633/563 635/566
f 629/569 612/568 631/567
f 612/568 636/570 631/567
f 612/568 613/571 636/570
f 613/571 637/572 636/570
f 627/553 638/573 611/552
f 611/552 638/573 614/574
f 627/555 635/566 638/575
f 635/566 639/576 638/575
f 613/571 614/577 637/572
f 614/577 640/578 637/572
f 614/577 638/579 640/578
f 638/579 639/580 640/578
f 620/542 630/560 619/539
f 630/560 624/550 619/539
usemtl texture12
f 641/583 642/582 643/581
f 642/582 644/584 643/581
f 645/586 646/585 642/582
f 646/585 644/584 642/582
f 647/588 648/587 645/586
f 648/587 646/585 645/586
f 649/590 648/587 650/589
f 648/587 647/588 650/589
f 651/593 652/592 653/591
f 652/592 654/594 653/591
f 651/593 655/595 652/592
f 655/595 656/596 652/592
f 655/595 657/597 656/596
f 657/597 658/598 656/596
f 659/600 658/598 660/599
f 658/598 657/597 660/599
f 661/603 662/602 646/601
f 662/602 644/604 646/601
f 663/607 664/606 642/605
f 664/606 645/608 642/605
f 665/610 661/603 648/609
f 661/603 646/601 648/609
f 664/606 666/611 645/608
f 666/611 647/612 645/608
f 667/615 668/614 656/613
f 668/614 652/616 656/613
f 669/618 670/606 651/617
f 670/606 655/619 651/617
f 671/621 667/615 658/620
f 667/615 656/613 658/620
f 670/606 672/622 655/619
f 672/622 657/623 655/619
usemtl texture13
f 673/626 663/625 641/624
f 663/625 642/627 641/624
f 666/630 674/629 647/628
f 674/629 650/631 647/628
f 668/634 675/633 652/632
f 675/633 654/635 652/632
f 676/638 671/637 659/636
f 671/637 658/639 659/636
usemtl texture14
f 677/642 678/641 679/640
f 678/641 680/643 679/640
f 681/646 682/645 683/644
f 682/645 684/647 683/644
f 685/649 686/648 677/642
f 686/648 678/641 677/642
f 687/651 688/650 681/646
f 688/650 682/645 681/646
f 685/649 689/652 686/648
f 689/652 690/653 686/648
f 687/651 691/654 688/650
f 691/654 692/655 688/650
f 693/658 694/657 679/656
f 694/657 695/659 679/656
f 694/657 696/660 695/659
f 696/660 684/661 695/659
f 689/664 697/663 698/662
f 697/663 699/665 698/662
f 697/663 692/666 699/665
f 692/666 700/667 699/665
usemtl texture15
f 662/670 701/669 644/668
f 701/669 643/671 644/668
f 662/670 693/672 701/669
f 693/672 702/673 701/669
f 701/669 673/674 643/671
f 673/674 641/675 643/671
f 680/676 673/674 702/673
f 673/674 701/669 702/673
f 703/679 665/678 649/677
f 665/678 648/680 649/677
f 704/682 696/681 703/679
f 696/681 665/678 703/679
f 674/684 703/679 650/683
f 703/679 649/677 650/683
f 703/679 674/684 704/682
f 674/684 683/685 704/682
f 675/688 705/687 654/686
f 705/687 653/689 654/686
f 705/687 675/688 706/690
f 675/688 690/691 706/690
f 698/693 669/692 706/690
f 669/692 705/687 706/690
f 705/687 669/692 653/689
f 669/692 651/694 653/689
f 707/697 676/696 660/695
f 676/696 659/698 660/695
f 676/696 707/697 691/699
f 707/697 708/700 691/699
f 672/702 707/697 657/701
f 707/697 660/695 657/701
f 707/697 672/702 708/700
f 672/702 700/703 708/700
f 679/706 680/705 693/704
f 680/705 702/707 693/704
f 683/705 684/706 704/707
f 684/706 696/704 704/707
f 698/705 706/706 689/707
f 706/706 690/704 689/707
f 708/705 700/706 691/707
f 700/706 692/704 691/707
usemtl texture16
f 709/710 710/709 673/708
f 710/709 663/711 673/708
f 710/709 711/712 663/711
f 711/712 664/713 663/711
f 679/716 695/715 677/714
f 695/715 712/717 677/714
f 711/712 713/718 664/713
f 713/718 666/719 664/713
f 695/715 684/720 712/717
f 684/720 682/721 712/717
f 713/718 714/722 666/719
f 714/722 674/723 666/719
f 715/725 716/724 709/710
f 716/724 710/709 709/710
f 717/726 711/712 716/724
f 711/712 710/709 716/724
f 712/717 718/727 677/714
f 718/727 685/728 677/714
f 719/729 713/718 717/726
f 713/718 711/712 717/726
f 682/721 688/730 712/717
f 688/730 718/727 712/717
f 714/722 713/718 720/731
f 713/718 719/729 720/731
f 675/733 668/732 715/725
f 668/732 716/724 715/725
f 667/734 717/726 668/732
f 717/726 716/724 668/732
f 685/728 718/727 689/735
f 718/727 697/736 689/735
f 671/737 719/729 667/734
f 719/729 717/726 667/734
f 718/727 688/730 697/736
f 688/730 692/738 697/736
f 671/737 676/739 719/729
f 676/739 720/731 719/729
usemtl texture17
f 661/742 694/741 662/740
f 694/741 693/743 662/740
f 661/742 665/744 694/741
f 665/744 696/745 694/741
f 698/748 699/747 669/746
f 699/747 670/749 669/746
f 699/747 700/750 670/749
f 700/750 672/751 670/749
f 680/754 678/753 673/752
f 678/753 709/755 673/752
f 714/758 681/757 674/756
f 681/757 683/759 674/756
f 686/761 715/760 678/753
f 715/760 709/755 678/753
f 714/758 720/762 681/757
f 720/762 687/763 681/757
f 686/761 690/764 715/760
f 690/764 675/765 715/760
f 676/767 691/766 720/762
f 691/766 687/763 720/762
# 1146 elements

