# Created by Metasequoia

mtllib Mad_express2.mtl

v 2657.237793 31.999901 -4126.149902
v 2708.895752 31.999901 -4090.087646
v 2655.520264 31.999901 -4123.689941
v 2707.178223 31.999901 -4087.627930
v 2657.237793 104.999901 -4126.149902
v 2708.895752 104.999901 -4090.087646
v 2655.520264 104.999901 -4123.689941
v 2707.178223 104.999901 -4087.627930
v 2655.520264 68.880096 -4123.689941
v 2657.237793 68.880096 -4126.149902
v 2715.377686 68.880096 -4081.903809
v 2717.095215 68.880096 -4084.363525
v 2762.115723 31.999901 -4049.275879
v 2763.833252 31.999901 -4051.735596
v 2762.115723 104.999901 -4049.275879
v 2763.833252 104.999901 -4051.735596
v 2779.334717 68.880096 -4037.254639
v 2781.051758 68.880096 -4039.714844
v 2845.008789 68.880096 -3995.066162
v 2843.291748 68.880096 -3992.606201
v 2860.510986 31.999901 -3980.585449
v 2862.228027 31.999901 -3983.045410
v 2860.510986 104.999901 -3980.585449
v 2862.228027 104.999901 -3983.045410
v 2908.966064 68.880096 -3950.417725
v 2907.248779 68.880096 -3947.957764
v 2900.766357 31.999901 -3956.141846
v 2899.049316 31.999901 -3953.681885
v 2900.766357 104.999901 -3956.141846
v 2899.049316 104.999901 -3953.681885
v 2967.106201 31.999901 -3906.170898
v 2968.823242 31.999901 -3908.630859
v 2967.106201 104.999901 -3906.170898
v 2968.823242 104.999901 -3908.630859
v 2968.823242 68.880096 -3908.630859
v 2967.105957 68.880096 -3906.170898
v 2707.178223 35.999901 -4087.627930
v 2708.895752 35.999901 -4090.087646
v 2655.520264 35.999901 -4123.689941
v 2657.237793 35.999901 -4126.149902
v 2707.178223 108.999901 -4087.627930
v 2708.895752 108.999901 -4090.087646
v 2655.520264 108.999901 -4123.689941
v 2657.237793 108.999901 -4126.149902
v 2717.095215 72.880096 -4084.363525
v 2657.237793 72.880096 -4126.149902
v 2715.377686 72.880096 -4081.903809
v 2655.520264 72.880096 -4123.689941
v 2763.833252 35.999901 -4051.735596
v 2762.115723 35.999901 -4049.275879
v 2763.833252 108.999901 -4051.735596
v 2762.115723 108.999901 -4049.275879
v 2761.557617 35.999901 -4165.523926
v 2763.275146 35.999901 -4167.983887
v 2709.900146 35.999901 -4201.586426
v 2711.617676 35.999901 -4204.046387
v 2761.557617 108.999901 -4165.523926
v 2763.275146 108.999901 -4167.983887
v 2709.900146 108.999901 -4201.586426
v 2711.617676 108.999901 -4204.046387
v 2771.474854 72.880096 -4162.259277
v 2711.617676 72.880096 -4204.046387
v 2769.757324 72.880096 -4159.799805
v 2709.900146 72.880096 -4201.586426
v 2779.334717 72.880096 -4037.254639
v 2781.051758 72.880096 -4039.714844
v 2818.212646 35.999901 -4129.631836
v 2816.495117 35.999901 -4127.171875
v 2818.212646 108.999901 -4129.631836
v 2816.495117 108.999901 -4127.171875
v 2833.714355 72.880096 -4115.151367
v 2835.431641 72.880096 -4117.611328
v 2860.510986 35.999901 -3980.585449
v 2862.228027 35.999901 -3983.045410
v 2843.291748 72.880096 -3992.606201
v 2845.008789 72.880096 -3995.066162
v 2860.510986 108.999901 -3980.585449
v 2862.228027 108.999901 -3983.045410
v 2914.890625 35.999901 -4058.481934
v 2916.607910 35.999901 -4060.941895
v 2914.890625 108.999901 -4058.481934
v 2916.607910 108.999901 -4060.941895
v 2897.671387 72.880096 -4070.502686
v 2899.388672 72.880096 -4072.962646
v 2907.248779 72.880096 -3947.957764
v 2908.966064 72.880096 -3950.417725
v 2899.049316 35.999901 -3953.681885
v 2900.766357 35.999901 -3956.141846
v 2899.049316 108.999901 -3953.681885
v 2900.766357 108.999901 -3956.141846
v 2961.628662 72.880096 -4025.854248
v 2963.345703 72.880096 -4028.314209
v 2968.823242 35.999901 -3908.630859
v 2967.106201 35.999901 -3906.170898
v 2968.823242 108.999901 -3908.630859
v 2967.106201 108.999901 -3906.170898
v 2953.428955 35.999901 -4031.578369
v 2955.145996 35.999901 -4034.038330
v 2953.428955 108.999901 -4031.578369
v 2955.145996 108.999901 -4034.038330
v 2967.105957 72.880096 -3906.170898
v 2968.823242 72.880096 -3908.630859
v 3023.202881 35.999901 -3986.527344
v 3021.485596 35.999901 -3984.067383
v 3023.202881 108.999901 -3986.527344
v 3021.485596 108.999901 -3984.067383
v 3021.485840 72.880096 -3984.067383
v 3023.202881 72.880096 -3986.527344
v 2709.900146 31.999901 -4201.586426
v 2711.617676 31.999901 -4204.046387
v 2709.900146 104.999901 -4201.586426
v 2711.617676 104.999901 -4204.046387
v 3021.485596 31.999901 -3984.067383
v 3023.202881 31.999901 -3986.527344
v 3021.485596 104.999901 -3984.067383
v 3023.202881 104.999901 -3986.527344
v 2761.557617 31.999901 -4165.523926
v 2761.557617 104.999901 -4165.523926
v 2763.275146 31.999901 -4167.983887
v 2763.275146 104.999901 -4167.983887
v 2709.900146 68.880096 -4201.586426
v 2769.757324 68.880096 -4159.799805
v 2771.474854 68.880096 -4162.259277
v 2711.617676 68.880096 -4204.046387
v 2816.495117 31.999901 -4127.171875
v 2816.495117 104.999901 -4127.171875
v 2818.212646 31.999901 -4129.631836
v 2818.212646 104.999901 -4129.631836
v 2833.714355 68.880096 -4115.151367
v 2835.431641 68.880096 -4117.611328
v 2914.890625 31.999901 -4058.481934
v 2897.671387 68.880096 -4070.502686
v 2914.890625 104.999901 -4058.481934
v 2916.607910 31.999901 -4060.941895
v 2899.388672 68.880096 -4072.962646
v 2916.607910 104.999901 -4060.941895
v 2961.628662 68.880096 -4025.854248
v 2963.345703 68.880096 -4028.314209
v 2953.428955 31.999901 -4031.578369
v 2953.428955 104.999901 -4031.578369
v 2955.145996 31.999901 -4034.038330
v 2955.145996 104.999901 -4034.038330
v 3021.485840 68.880096 -3984.067383
v 3023.202881 68.880096 -3986.527344
v 2654.947998 109.999901 -4122.870117
v 2657.810059 109.999901 -4126.969727
v 2650.848145 109.999901 -4125.732422
v 2653.710449 109.999901 -4129.832031
v 2709.327637 109.999901 -4200.766602
v 2712.189941 109.999901 -4204.866211
v 2705.228027 109.999901 -4203.628906
v 2708.090332 109.999901 -4207.728516
v 2812.790283 109.999901 -4012.679443
v 2815.652344 109.999901 -4016.779297
v 2808.690674 109.999901 -4015.541748
v 2811.553467 109.999901 -4019.641357
v 2867.170654 109.999901 -4090.575928
v 2870.032227 109.999901 -4094.675781
v 2863.071045 109.999901 -4093.438232
v 2865.932617 109.999901 -4097.538086
v 2970.633789 109.999901 -3902.489014
v 2973.495361 109.999901 -3906.589111
v 2966.533936 109.999901 -3905.350830
v 2969.395508 109.999901 -3909.450928
v 3025.013428 109.999901 -3980.385498
v 3027.875000 109.999901 -3984.485107
v 3020.913330 109.999901 -3983.247314
v 3023.775391 109.999901 -3987.347412
v 2650.848145 49.999901 -4125.732422
v 2653.710449 49.999901 -4129.832031
v 2650.848145 29.999901 -4125.732422
v 2653.710449 29.999901 -4129.832031
v 2650.848145 69.999901 -4125.732422
v 2653.710449 69.999901 -4129.832031
v 2650.848145 89.999901 -4125.732422
v 2653.710449 89.999901 -4129.832031
v 2654.947998 29.999901 -4122.870117
v 2654.947998 49.999901 -4122.870117
v 2654.947998 69.999901 -4122.870117
v 2654.947998 89.999901 -4122.870117
v 2657.810059 29.999901 -4126.969727
v 2657.810059 49.999901 -4126.969727
v 2657.810059 69.999901 -4126.969727
v 2657.810059 89.999901 -4126.969727
v 2705.228027 49.999901 -4203.628906
v 2708.090332 49.999901 -4207.728516
v 2705.228027 29.999901 -4203.628906
v 2708.090332 29.999901 -4207.728516
v 2705.228027 69.999901 -4203.628906
v 2708.090332 69.999901 -4207.728516
v 2705.228027 89.999901 -4203.628906
v 2708.090332 89.999901 -4207.728516
v 2709.327637 29.999901 -4200.766602
v 2709.327637 49.999901 -4200.766602
v 2709.327637 69.999901 -4200.766602
v 2709.327637 89.999901 -4200.766602
v 2712.189941 29.999901 -4204.866211
v 2712.189941 49.999901 -4204.866211
v 2712.189941 69.999901 -4204.866211
v 2712.189941 89.999901 -4204.866211
v 2808.690918 49.999901 -4015.541504
v 2811.553223 49.999901 -4019.641357
v 2808.690918 29.999901 -4015.541504
v 2811.553223 29.999901 -4019.641357
v 2808.690918 69.999901 -4015.541504
v 2811.553223 69.999901 -4019.641357
v 2808.690918 89.999901 -4015.541504
v 2811.553223 89.999901 -4019.641357
v 2812.790527 89.999901 -4012.679443
v 2812.790527 29.999901 -4012.679443
v 2812.790527 49.999901 -4012.679443
v 2812.790527 69.999901 -4012.679443
v 2815.652344 29.999901 -4016.779297
v 2815.652344 49.999901 -4016.779297
v 2815.652344 69.999901 -4016.779297
v 2815.652344 89.999901 -4016.779297
v 2863.070801 49.999901 -4093.437988
v 2865.932617 49.999901 -4097.538086
v 2863.070801 29.999901 -4093.437988
v 2865.932617 29.999901 -4097.538086
v 2863.070801 69.999901 -4093.437988
v 2865.932617 69.999901 -4097.538086
v 2863.070801 89.999901 -4093.437988
v 2865.932617 89.999901 -4097.538086
v 2867.170410 29.999901 -4090.575928
v 2867.170410 49.999901 -4090.575928
v 2867.170410 69.999901 -4090.575928
v 2867.170410 89.999901 -4090.575928
v 2870.032227 29.999901 -4094.675781
v 2870.032227 49.999901 -4094.675781
v 2870.032227 69.999901 -4094.675781
v 2870.032227 89.999901 -4094.675781
v 2966.533691 49.999901 -3905.351074
v 2969.395508 49.999901 -3909.450928
v 2966.533691 29.999901 -3905.351074
v 2969.395508 29.999901 -3909.450928
v 2966.533691 69.999901 -3905.351074
v 2969.395508 69.999901 -3909.450928
v 2966.533691 89.999901 -3905.351074
v 2969.395508 89.999901 -3909.450928
v 2970.633789 29.999901 -3902.489014
v 2970.633789 49.999901 -3902.489014
v 2970.633789 69.999901 -3902.489014
v 2970.633789 89.999901 -3902.489014
v 2973.495605 89.999901 -3906.589111
v 2973.495605 29.999901 -3906.589111
v 2973.495605 49.999901 -3906.589111
v 2973.495605 69.999901 -3906.589111
v 3020.913574 89.999901 -3983.247559
v 3023.775391 89.999901 -3987.347412
v 3020.913574 49.999901 -3983.247559
v 3023.775391 49.999901 -3987.347412
v 3020.913574 29.999901 -3983.247559
v 3023.775391 29.999901 -3987.347412
v 3020.913574 69.999901 -3983.247559
v 3023.775391 69.999901 -3987.347412
v 3025.013428 29.999901 -3980.385498
v 3025.013428 49.999901 -3980.385498
v 3025.013428 69.999901 -3980.385498
v 3025.013428 89.999901 -3980.385498
v 3027.875000 29.999901 -3984.485107
v 3027.875000 49.999901 -3984.485107
v 3027.875000 69.999901 -3984.485107
v 3027.875000 89.999901 -3984.485107
v 2371.426025 21.537300 -4304.243652
v 2370.204590 13.999900 -4302.187988
v 2390.399902 13.999900 -4336.715332
v 2373.227783 24.049700 -4307.312988
v 2375.570557 54.072189 -4311.318848
v 2390.418945 66.557503 -4336.704590
v 2380.501709 64.079597 -4319.749023
v 2407.609863 24.049700 -4366.095215
v 2405.267090 54.072201 -4362.089844
v 2400.336182 64.079597 -4353.659668
v 2409.401855 21.537300 -4369.170410
v 2410.595215 13.999900 -4371.243164
v 2451.950195 56.928768 -4265.933105
v 2465.930664 65.794960 -4264.733398
v 2467.108887 56.928619 -4291.849121
v 2478.048096 65.794853 -4285.450195
v 2481.879883 56.922852 -4248.426758
v 2484.920654 65.794922 -4253.625000
v 2482.266846 56.928600 -4317.764160
v 2490.165039 65.794800 -4306.166016
v 2510.929688 56.928600 -4231.435059
v 2503.031250 65.794800 -4243.033203
v 2482.266357 56.928600 -4317.763184
v 2512.196045 56.922600 -4300.257324
v 2509.155029 65.794777 -4295.058594
v 2510.929688 56.928501 -4231.435547
v 2526.087891 56.928501 -4257.350586
v 2515.148193 65.794746 -4263.749512
v 2541.246094 56.928501 -4283.266113
v 2527.265381 65.794769 -4284.465820
v 2541.246094 56.928600 -4283.266602
v 2526.087158 56.928600 -4257.350586
v 2521.005371 56.928699 -4225.541992
v 2534.985840 65.794899 -4224.342773
v 2536.163086 56.928600 -4251.457520
v 2547.103027 65.794853 -4245.059570
v 2550.934814 56.922798 -4208.036133
v 2553.975830 65.794777 -4213.235840
v 2551.321777 56.928501 -4277.374023
v 2536.163330 56.928501 -4251.457520
v 2559.220459 65.794868 -4265.776367
v 2579.984863 56.928299 -4191.044434
v 2572.086182 65.794701 -4202.642578
v 2550.934814 56.922298 -4208.036133
v 2551.321777 56.928699 -4277.374023
v 2581.251465 56.922798 -4259.868164
v 2578.210205 65.794868 -4254.668457
v 2579.984863 56.928600 -4191.044434
v 2595.143311 56.928600 -4216.960938
v 2584.203369 65.794800 -4223.358887
v 2610.301270 56.927898 -4242.876465
v 2581.251465 56.922001 -4259.868164
v 2596.320313 65.794197 -4244.075684
v 2578.210205 65.794197 -4254.668457
v 2610.301270 56.928600 -4242.876465
v 2596.320313 65.794800 -4244.075195
v 2602.812988 16.000200 -4212.474121
v 2582.617676 16.000200 -4177.946289
v 2583.810791 23.537500 -4180.019043
v 2585.602783 26.049999 -4183.093750
v 2602.794189 68.557701 -4212.484863
v 2587.945801 56.072399 -4187.099609
v 2592.876953 66.079903 -4195.529785
v 2617.642334 56.072399 -4237.870605
v 2619.985352 26.049999 -4241.876465
v 2612.711182 66.079903 -4229.440430
v 2621.786621 23.537500 -4244.945313
v 2623.008301 16.000200 -4247.001465
v 2382.895264 56.928699 -4306.322754
v 2396.875732 65.794899 -4305.123535
v 2398.053711 56.928600 -4332.238770
v 2408.992920 65.794800 -4325.840820
v 2412.824463 56.923000 -4288.816406
v 2415.865967 65.794899 -4294.017090
v 2413.211914 56.928600 -4358.154785
v 2421.109863 65.794800 -4346.556641
v 2441.874268 56.929100 -4271.824707
v 2433.975830 65.795303 -4283.422363
v 2415.865479 65.795303 -4294.015137
v 2413.211914 56.928200 -4358.154785
v 2421.110107 65.794403 -4346.556641
v 2443.141846 56.922199 -4340.649414
v 2440.100586 65.794403 -4335.450195
v 2441.875000 56.928600 -4271.825195
v 2457.032959 56.928600 -4297.740723
v 2433.976563 65.794800 -4283.423340
v 2446.093750 65.794800 -4304.140625
v 2472.190674 56.928699 -4323.656250
v 2443.140869 56.922699 -4340.648438
v 2458.210205 65.794899 -4324.855957
v 2440.100342 65.794830 -4335.449707
v 2472.191406 56.928501 -4323.657227
v 2458.210938 65.794800 -4324.856445
v 2457.032715 56.928501 -4297.740723
v 2318.927246 13.999900 -4352.370605
v 2322.869385 13.999900 -4329.874512
v 2323.385742 21.537300 -4352.119141
v 2327.246094 21.537300 -4330.084961
v 2326.573975 13.999900 -4374.047363
v 2329.136230 21.537300 -4372.548828
v 2327.565186 24.049700 -4351.710449
v 2332.035156 24.049700 -4331.406738
v 2332.244385 24.049700 -4370.730469
v 2341.719727 13.999900 -4391.338379
v 2344.124512 21.537300 -4387.575195
v 2346.528809 24.049700 -4384.132324
v 2363.260010 13.999900 -4398.929688
v 2365.221924 21.537300 -4395.011230
v 2366.417480 24.049700 -4390.189453
v 2452.941895 26.000200 -4253.794434
v 2449.522217 26.000200 -4267.380371
v 2452.941895 16.000200 -4253.794434
v 2449.522217 16.000200 -4267.380371
v 2479.814941 26.000200 -4319.170898
v 2479.814941 16.000200 -4319.170898
v 2499.863770 16.000200 -4226.349609
v 2499.863770 26.000200 -4226.349609
v 2493.333008 16.000200 -4322.849609
v 2493.333008 26.000200 -4322.849609
v 2513.397949 16.000200 -4230.018555
v 2513.397949 26.000200 -4230.018555
v 2540.254639 16.000200 -4295.405273
v 2540.254639 26.000200 -4295.405273
v 2543.690918 16.000200 -4281.810059
v 2543.690918 26.000200 -4281.810059
v 2521.997070 26.000200 -4213.404297
v 2518.577148 26.000200 -4226.989746
v 2521.997070 16.000200 -4213.404297
v 2518.577148 16.000200 -4226.989746
v 2548.870117 26.000200 -4278.781250
v 2548.870117 16.000200 -4278.781250
v 2568.918701 16.000200 -4185.959473
v 2568.918701 26.000200 -4185.959473
v 2562.387451 16.000200 -4282.458984
v 2562.387451 26.000200 -4282.458984
v 2582.452881 16.000200 -4189.627930
v 2582.452881 26.000200 -4189.627930
v 2609.309326 16.000200 -4255.014160
v 2609.309326 26.000200 -4255.014160
v 2612.745850 16.000200 -4241.418945
v 2612.745850 26.000200 -4241.418945
v 2627.990967 23.537500 -4154.178223
v 2626.795166 26.049999 -4159.000000
v 2629.952881 16.000200 -4150.259766
v 2649.088379 23.537500 -4161.614258
v 2646.683838 26.049999 -4165.056641
v 2651.493164 16.000200 -4157.851074
v 2665.966797 23.537500 -4219.104492
v 2661.177490 26.049999 -4217.782227
v 2670.343506 16.000200 -4219.314941
v 2664.076416 23.537500 -4176.640625
v 2660.968262 26.049999 -4178.458496
v 2666.638916 16.000200 -4175.142090
v 2669.827148 23.537500 -4197.070313
v 2665.647461 26.049999 -4197.478516
v 2674.285645 16.000200 -4196.818848
v 2383.887451 26.000200 -4294.185547
v 2380.467285 26.000200 -4307.770508
v 2383.887451 16.000200 -4294.185547
v 2380.467285 16.000200 -4307.770508
v 2410.760498 26.000200 -4359.562500
v 2410.760498 16.000200 -4359.562500
v 2430.809082 16.000200 -4266.740723
v 2430.809082 26.000200 -4266.740723
v 2424.277832 16.000200 -4363.240723
v 2424.277832 26.000200 -4363.240723
v 2444.343262 16.000200 -4270.409668
v 2444.343262 26.000200 -4270.409668
v 2471.199463 16.000200 -4335.795410
v 2471.199463 26.000200 -4335.795410
v 2474.635986 16.000200 -4322.200195
v 2474.635986 26.000200 -4322.200195
v 2351.597900 64.079597 -4336.655273
v 2339.479980 54.072201 -4343.327637
v 2341.248047 54.072201 -4334.569336
v 2359.676270 54.072201 -4377.856934
v 2371.432373 64.079597 -4370.565430
v 2368.176758 54.072201 -4380.608887
v 2344.652832 54.072201 -4363.472656
v 2351.455566 64.792198 -4359.494141
v 2633.536621 56.072399 -4171.332520
v 2621.780762 66.079903 -4178.624023
v 2625.036133 56.072399 -4168.580566
v 2641.614990 66.079903 -4212.534180
v 2653.732910 56.072399 -4205.861816
v 2651.964600 56.072399 -4214.619629
v 2641.757324 66.792397 -4189.695313
v 2648.559814 56.072399 -4185.716309
v 2338.374512 80.890602 -4313.104492
v 2348.164307 60.812691 -4315.070313
v 2349.345947 53.990799 -4307.521973
v 2353.330322 63.086700 -4314.333984
v 2344.910645 42.813702 -4328.915039
v 2347.546631 54.072201 -4330.488770
v 2356.504150 60.812691 -4310.192383
v 2352.342773 39.060902 -4322.298340
v 2361.552246 42.813702 -4317.603516
v 2362.742188 54.072201 -4319.218750
v 2374.900635 42.813702 -4380.187988
v 2374.821045 54.072201 -4377.119141
v 2388.563232 60.812691 -4384.139160
v 2384.310547 39.060902 -4376.952637
v 2395.720947 53.990799 -4386.808594
v 2391.736816 63.086700 -4379.997070
v 2385.477295 80.890602 -4393.635254
v 2392.917236 42.813702 -4371.228027
v 2396.903076 60.812691 -4379.261230
v 2392.092285 54.072201 -4369.398438
v 2358.964355 59.075901 -4327.482910
v 2383.037842 59.075901 -4368.640625
v 2473.032959 63.186501 -4242.464355
v 2476.453613 61.011799 -4254.994629
v 2474.974365 56.928600 -4252.465820
v 2479.788818 69.621887 -4244.851074
v 2474.831055 78.546402 -4236.375000
v 2481.019287 63.186501 -4237.792969
v 2481.880127 50.635502 -4248.426758
v 2490.264404 61.011799 -4246.916992
v 2488.785400 56.928600 -4244.387695
v 2505.291016 56.928600 -4304.297363
v 2503.811768 61.011799 -4301.768066
v 2513.056885 63.186501 -4310.892090
v 2514.287842 69.621887 -4303.833496
v 2512.196289 50.635502 -4300.257813
v 2517.622559 61.011799 -4293.689941
v 2521.043213 63.186501 -4306.220215
v 2519.245361 78.546402 -4312.309570
v 2519.101563 56.928600 -4296.218750
v 2542.087891 63.186501 -4202.074219
v 2545.508789 61.011799 -4214.604492
v 2544.029297 56.928600 -4212.075195
v 2548.843750 69.621887 -4204.461426
v 2543.885498 78.546402 -4195.984375
v 2550.074463 63.186501 -4197.402344
v 2550.934814 50.635502 -4208.036133
v 2559.319580 61.011799 -4206.525879
v 2557.840332 56.928600 -4203.997070
v 2574.345703 56.928600 -4263.906250
v 2572.866455 61.011799 -4261.377441
v 2582.111572 63.186501 -4270.501953
v 2583.342529 69.621887 -4263.441895
v 2581.251465 50.635502 -4259.868164
v 2586.677734 61.011799 -4253.299805
v 2590.098389 63.186501 -4265.830078
v 2588.300781 78.546402 -4271.919922
v 2588.156738 56.928600 -4255.828613
v 2596.309814 62.812901 -4169.928223
v 2600.295654 44.813999 -4177.961426
v 2597.491943 55.991001 -4162.380859
v 2601.120605 56.072399 -4179.791016
v 2607.735596 82.890800 -4155.554199
v 2601.476074 65.086899 -4169.192383
v 2608.902588 41.061199 -4172.236328
v 2604.649658 62.812901 -4165.050293
v 2618.312012 44.813999 -4169.001465
v 2618.391846 56.072399 -4172.070313
v 2630.470703 56.072399 -4229.970703
v 2636.708740 62.812901 -4238.997070
v 2631.660645 44.813999 -4231.585938
v 2643.866943 55.991001 -4241.667480
v 2640.869873 41.061199 -4226.890625
v 2639.882568 65.086899 -4234.855469
v 2654.838379 82.890800 -4236.084961
v 2648.302246 44.813999 -4220.274414
v 2645.048584 62.812901 -4234.119629
v 2645.666016 56.072399 -4218.700684
v 2610.175049 61.076099 -4180.548828
v 2634.248047 61.076099 -4221.706055
v 2403.978271 63.186501 -4282.855469
v 2407.398926 61.011799 -4295.385742
v 2405.919434 56.928600 -4292.856934
v 2410.734131 69.621887 -4285.242188
v 2405.775879 78.546402 -4276.765137
v 2411.964844 63.186501 -4278.183105
v 2412.824951 50.635502 -4288.817383
v 2421.209717 61.011799 -4287.307129
v 2419.730713 56.928600 -4284.778320
v 2436.235840 56.928600 -4344.687500
v 2434.756836 61.011799 -4342.158691
v 2444.001709 63.186501 -4351.282715
v 2445.232666 69.621887 -4344.224121
v 2443.141846 50.635502 -4340.649414
v 2448.567871 61.011799 -4334.081055
v 2451.988525 63.186501 -4346.611816
v 2450.190918 78.546402 -4352.701172
v 2450.047119 56.928600 -4336.610352
v 2451.950439 31.402000 -4265.933105
v 2482.266602 31.402000 -4317.763672
v 2510.929688 31.402000 -4231.435547
v 2541.246094 31.402000 -4283.266602
v 2467.108887 31.402000 -4291.848633
v 2451.954346 31.402300 -4265.938965
v 2481.883789 31.402300 -4248.432617
v 2451.954102 56.928799 -4265.938477
v 2481.883789 56.922798 -4248.432617
v 2510.918701 31.402599 -4231.416016
v 2510.918701 56.929199 -4231.416016
v 2481.868652 31.402599 -4248.407227
v 2481.868652 56.923199 -4248.407227
v 2482.250732 31.401699 -4317.736816
v 2482.250732 56.928299 -4317.736816
v 2512.180420 31.401699 -4300.231445
v 2512.180420 56.922298 -4300.231445
v 2526.087891 31.402000 -4257.351074
v 2526.087891 56.928600 -4257.351074
v 2541.228271 31.401699 -4283.235840
v 2512.177979 31.401699 -4300.226563
v 2541.228271 56.928200 -4283.235840
v 2512.177734 56.922298 -4300.226074
v 2521.005371 31.402000 -4225.542480
v 2551.321777 31.402000 -4277.374023
v 2579.984863 31.402000 -4191.044434
v 2610.301514 31.402000 -4242.876465
v 2521.005859 56.928600 -4225.542480
v 2536.163818 56.928600 -4251.458008
v 2521.005859 31.402000 -4225.542480
v 2536.163818 31.402000 -4251.458008
v 2521.001709 31.402000 -4225.536621
v 2550.930908 31.402000 -4208.029785
v 2521.001709 56.928501 -4225.536621
v 2550.930908 56.922600 -4208.029785
v 2536.163086 31.402000 -4251.458008
v 2579.986816 31.402000 -4191.047363
v 2579.986816 56.928600 -4191.047363
v 2550.936523 31.402000 -4208.038086
v 2550.936523 56.922600 -4208.038086
v 2551.330322 31.402201 -4277.388184
v 2551.330322 56.928799 -4277.388184
v 2581.260254 31.402300 -4259.882813
v 2581.260254 56.922798 -4259.882813
v 2595.143311 31.402000 -4216.960938
v 2610.299805 31.401899 -4242.874023
v 2581.250000 31.401899 -4259.865723
v 2610.299805 56.928501 -4242.874023
v 2581.250000 56.922501 -4259.865723
v 2382.895508 31.402000 -4306.323730
v 2413.211914 31.402000 -4358.154785
v 2441.875000 31.402000 -4271.825684
v 2472.191406 31.402000 -4323.657715
v 2398.053711 31.402000 -4332.238281
v 2382.891357 31.402000 -4306.316406
v 2412.820313 31.402000 -4288.809082
v 2382.891357 56.928501 -4306.316406
v 2412.820313 56.922501 -4288.809082
v 2441.881592 31.401800 -4271.837891
v 2441.881592 56.928398 -4271.837891
v 2412.831787 31.401800 -4288.829102
v 2412.831787 56.922401 -4288.829102
v 2413.199463 31.401800 -4358.133301
v 2413.199463 56.928398 -4358.133301
v 2443.129150 31.401800 -4340.627441
v 2443.129150 56.922401 -4340.627441
v 2457.032959 31.402000 -4297.741211
v 2472.187988 31.402000 -4323.651367
v 2443.137695 31.402000 -4340.642578
v 2472.187988 56.928600 -4323.651367
v 2443.137695 56.922600 -4340.642578
v 2472.191406 56.928600 -4323.657715
v 3013.124268 30.999901 -3926.779785
v 2974.450195 30.999901 -3916.624268
v 2993.687012 30.999901 -3941.694336
v 2993.887207 30.999901 -3901.709717
v 3032.561279 30.999901 -3911.865234
v 3013.324219 30.999901 -3886.795166
v 3032.847900 30.999901 -3952.484375
v 3013.410889 30.999901 -3967.398926
v 3052.285156 30.999901 -3937.569824
v 3343.899658 30.999901 -3649.226074
v 3304.487793 30.999901 -3642.479980
v 3325.836426 30.999901 -3665.778076
v 3322.551025 30.999901 -3625.927979
v 3361.962891 30.999901 -3632.674316
v 3340.614258 30.999901 -3609.376221
v 3365.788818 30.999901 -3673.113770
v 3347.725586 30.999901 -3689.665771
v 3383.852051 30.999901 -3656.562012
v 3036.076172 29.999901 -3955.049072
v 3040.439697 29.999901 -3951.700928
v 3035.282959 30.999901 -3955.657715
v 3038.853027 27.999901 -3952.918457
v 2971.673340 29.999901 -3918.754883
v 2972.014893 30.999901 -3913.450928
v 2969.238281 29.999901 -3915.581543
v 2991.452148 30.999901 -3898.536377
v 2992.245361 29.999901 -3897.927490
v 2990.910400 29.999901 -3943.824951
v 2995.022217 27.999901 -3895.796875
v 2992.245361 20.999901 -3897.927490
v 2995.022217 20.999901 -3895.796875
v 2996.608887 29.999901 -3894.579346
v 3010.634033 29.999901 -3969.529541
v 3010.889404 30.999901 -3883.621826
v 3013.666016 29.999901 -3881.490967
v 3015.845947 30.999901 -3970.572266
v 3013.069092 29.999901 -3972.702881
v 3016.101074 29.999901 -3884.664551
v 3035.337891 29.999901 -3909.734375
v 3036.076172 20.999901 -3955.049072
v 3038.853027 20.999901 -3952.918457
v 3054.719971 30.999901 -3940.743164
v 3055.061768 29.999901 -3935.438965
v 3057.496826 29.999901 -3938.612549
v 3369.228271 29.999901 -3675.387451
v 3373.283447 29.999901 -3671.671631
v 3368.491455 30.999901 -3676.062988
v 3371.808838 27.999901 -3673.022949
v 3301.907227 29.999901 -3644.844482
v 3301.785400 30.999901 -3639.530518
v 3299.205078 29.999901 -3641.895508
v 3319.848389 30.999901 -3622.979004
v 3320.585938 29.999901 -3622.303467
v 3323.256104 29.999901 -3668.142578
v 3323.166260 27.999901 -3619.938965
v 3320.585938 20.999901 -3622.303467
v 3323.166260 20.999901 -3619.938965
v 3324.640869 29.999901 -3618.587646
v 3337.911865 30.999901 -3606.427002
v 3340.492432 29.999901 -3604.062500
v 3345.145020 29.999901 -3692.030273
v 3343.194824 29.999901 -3607.011719
v 3350.427979 30.999901 -3692.614502
v 3347.847412 29.999901 -3694.979492
v 3364.543457 29.999901 -3630.309570
v 3369.228271 20.999901 -3675.387451
v 3371.808838 20.999901 -3673.022949
v 3386.432617 29.999901 -3654.197266
v 3386.554443 30.999901 -3659.510986
v 3389.134766 29.999901 -3657.146484
v 3004.159912 130.000000 -3876.097168
v 3073.062012 90.000000 -3818.197754
v 3004.159912 90.000000 -3876.097168
v 3073.062012 130.000000 -3818.198242
v 3004.159912 80.000000 -3876.097168
v 3073.062256 40.000000 -3818.197510
v 3004.159912 40.000000 -3876.097168
v 3073.062256 80.000000 -3818.197510
v 3079.495361 80.000000 -3825.853516
v 3010.593018 40.000000 -3883.753174
v 3079.495361 40.000000 -3825.853516
v 3010.593018 80.000000 -3883.753174
v 3079.495361 130.000000 -3825.853516
v 3010.593018 90.000000 -3883.753174
v 3079.495361 90.000000 -3825.853516
v 3010.593018 130.000000 -3883.753174
v 3062.059570 80.000000 -3945.000732
v 3130.962646 40.000000 -3887.100098
v 3062.059570 40.000000 -3945.000732
v 3130.962646 80.000000 -3887.100098
v 3062.059570 130.000000 -3945.000732
v 3130.962646 90.000000 -3887.100098
v 3062.059570 90.000000 -3945.000732
v 3130.962646 130.000000 -3887.100098
v 3137.395752 80.000000 -3894.756104
v 3068.492920 40.000000 -3952.656006
v 3137.395752 40.000000 -3894.756104
v 3068.492920 80.000000 -3952.656006
v 3137.395752 130.000000 -3894.756104
v 3068.492920 90.000000 -3952.656006
v 3137.395752 90.000000 -3894.756104
v 3068.492920 130.000000 -3952.656006
v 3226.177246 90.000000 -3689.531006
v 3226.176270 130.000000 -3689.531250
v 3226.177734 40.000000 -3689.530029
v 3226.177246 80.000000 -3689.530273
v 3232.612793 80.000000 -3697.185791
v 3232.612793 40.000000 -3697.185791
v 3232.612793 130.000000 -3697.186523
v 3232.612793 90.000000 -3697.185791
v 3284.079102 40.000000 -3758.431641
v 3284.079834 80.000000 -3758.431641
v 3284.079834 90.000000 -3758.431641
v 3284.079834 130.000000 -3758.431641
v 3290.512695 80.000000 -3766.089111
v 3290.512695 40.000000 -3766.089111
v 3290.512695 130.000000 -3766.089111
v 3290.512695 90.000000 -3766.089111
v 3295.079590 130.000000 -3631.630615
v 3295.079590 90.000000 -3631.630615
v 3295.080322 40.000000 -3631.629883
v 3295.079590 80.000000 -3631.630615
v 3301.513428 130.000000 -3639.285889
v 3301.514404 90.000000 -3639.285645
v 3301.514404 80.000000 -3639.285645
v 3301.514404 40.000000 -3639.285645
v 3352.981934 40.000000 -3700.531006
v 3352.983154 80.000000 -3700.530762
v 3352.983154 90.000000 -3700.530762
v 3352.983154 130.000000 -3700.530762
v 3359.414551 80.000000 -3708.187988
v 3359.414551 40.000000 -3708.187988
v 3359.414551 130.000000 -3708.187988
v 3359.414551 90.000000 -3708.187988
v 3073.061035 140.000000 -3818.198486
v 3010.593018 140.000000 -3883.753174
v 3079.495361 140.000000 -3825.853516
v 3004.158447 140.000000 -3876.097656
v 3062.059570 140.000000 -3945.000732
v 3137.395752 140.000000 -3894.756104
v 3130.962646 140.000000 -3887.100098
v 3068.492920 140.000000 -3952.656006
v 3226.176270 140.000000 -3689.531250
v 3232.612793 140.000000 -3697.186523
v 3290.512695 140.000000 -3766.089111
v 3284.079834 140.000000 -3758.431641
v 3301.513428 140.000000 -3639.285889
v 3295.079346 140.000000 -3631.630615
v 3352.983154 140.000000 -3700.530518
v 3359.414795 140.000000 -3708.188232
v 2996.503906 15.000000 -3882.531982
v 3002.937012 20.000000 -3890.187012
v 2996.503906 20.000000 -3882.531738
v 3002.937012 15.000000 -3890.187012
v 2996.503906 30.000000 -3882.531982
v 3002.937012 30.000000 -3890.187012
v 3028.670410 20.000000 -3920.810059
v 3028.670410 15.000000 -3920.810059
v 3028.670410 30.000000 -3920.810059
v 3036.326660 15.000000 -3914.377686
v 3010.593018 20.000000 -3883.753174
v 3036.326660 20.000000 -3914.377686
v 3010.593018 15.000000 -3883.753174
v 3036.326660 30.000000 -3914.377686
v 3010.593018 30.000000 -3883.753174
v 3054.404541 20.000000 -3951.433594
v 3054.404541 30.000000 -3951.433594
v 3054.404541 15.000000 -3951.433594
v 3062.059570 20.000000 -3945.000732
v 3062.059570 15.000000 -3945.000732
v 3062.059570 30.000000 -3945.000732
v 3060.837646 15.000000 -3959.089111
v 3060.837646 20.000000 -3959.089355
v 3060.837646 30.000000 -3959.089111
v 3309.171143 20.000000 -3632.852295
v 3302.737305 15.000000 -3625.196533
v 3302.737305 20.000000 -3625.196533
v 3309.171143 15.000000 -3632.852295
v 3302.737305 30.000000 -3625.196533
v 3309.171143 30.000000 -3632.852295
v 3301.514404 20.000000 -3639.285645
v 3327.248291 15.000000 -3669.908936
v 3327.248291 20.000000 -3669.908936
v 3301.514404 15.000000 -3639.285645
v 3327.248291 30.000000 -3669.908936
v 3301.514404 30.000000 -3639.285400
v 3334.903809 15.000000 -3663.475342
v 3334.903809 20.000000 -3663.475342
v 3334.903809 30.000000 -3663.475342
v 3352.981201 20.000000 -3700.531982
v 3352.981445 15.000000 -3700.531982
v 3352.981201 30.000000 -3700.531982
v 3360.637939 15.000000 -3694.098633
v 3360.637939 20.000000 -3694.098633
v 3360.637939 30.000000 -3694.098633
v 3367.071045 15.000000 -3701.755127
v 3367.071045 20.000000 -3701.755371
v 3367.071045 30.000000 -3701.755127
v 3004.159912 20.000000 -3876.097168
v 3004.159912 15.000000 -3876.096924
v 3004.159912 30.000000 -3876.097168
v 3068.492920 20.000000 -3952.655762
v 3068.492920 15.000000 -3952.656006
v 3068.492920 30.000000 -3952.655762
v 3295.081299 20.000000 -3631.629639
v 3295.081299 15.000000 -3631.629639
v 3295.081299 30.000000 -3631.629639
v 3359.414551 20.000000 -3708.187988
v 3359.414795 15.000000 -3708.188232
v 3359.414551 30.000000 -3708.187988
v 3073.062256 30.000000 -3818.197510
v 3073.062256 20.000000 -3818.197510
v 3079.495361 30.000000 -3825.853516
v 3079.495361 20.000000 -3825.853516
v 3130.962646 30.000000 -3887.100098
v 3130.962646 20.000000 -3887.100098
v 3137.395752 30.000000 -3894.756104
v 3137.395752 20.000000 -3894.756104
v 3226.178711 20.000000 -3689.529541
v 3226.178711 30.000000 -3689.529541
v 3232.612793 30.000000 -3697.185791
v 3232.612793 20.000000 -3697.185791
v 3284.078613 20.000000 -3758.431885
v 3284.078613 30.000000 -3758.431885
v 3290.512695 20.000000 -3766.089111
v 3290.512695 30.000000 -3766.089111
v 2654.947754 14.999900 -4122.870117
v 2652.472412 14.999900 -4136.793945
v 2646.748047 14.999900 -4128.594238
v 2660.671875 14.999900 -4131.069336
v 2683.568848 14.999900 -4163.867676
v 2675.369385 14.999900 -4169.592285
v 2706.465576 14.999900 -4196.666504
v 2698.266113 14.999900 -4202.390625
v 2703.990234 14.999900 -4210.590332
v 2712.189697 14.999900 -4204.866211
v 2974.733154 14.999900 -3899.626953
v 2972.257813 14.999900 -3913.550537
v 2966.533203 14.999900 -3905.350830
v 2980.457275 14.999900 -3907.826416
v 2995.154297 14.999900 -3946.349121
v 3003.354004 14.999900 -3940.625000
v 3018.051025 14.999900 -3979.147705
v 3026.250732 14.999900 -3973.423584
v 3031.974854 14.999900 -3981.623047
v 3023.775146 14.999900 -3987.347412
v 2675.369385 19.999901 -4169.592285
v 2652.472412 19.999901 -4136.793945
v 2660.671875 19.999901 -4131.069336
v 2683.568848 19.999901 -4163.867676
v 2698.266113 19.999901 -4202.390625
v 2706.465576 19.999901 -4196.666504
v 2995.154297 19.999901 -3946.349121
v 2972.257813 19.999901 -3913.550537
v 2980.457275 19.999901 -3907.826416
v 3003.354004 19.999901 -3940.625000
v 3018.051025 19.999901 -3979.147705
v 3026.250732 19.999901 -3973.423584
v 2654.947754 19.999901 -4122.870117
v 2712.189697 19.999901 -4204.866211
v 2966.533203 19.999901 -3905.351074
v 3023.775146 19.999901 -3987.347168
v 2654.947754 29.999901 -4122.870117
v 2734.468750 29.999901 -4079.552002
v 2728.744629 29.999901 -4071.352539
v 2660.671875 29.999901 -4131.069336
v 2706.465576 29.999901 -4196.666504
v 2785.986572 29.999901 -4153.348633
v 2780.262451 29.999901 -4145.148926
v 2712.189697 29.999901 -4204.866211
v 2898.461182 29.999901 -3965.068359
v 2892.737061 29.999901 -3956.868652
v 2949.978516 29.999901 -4038.864746
v 2944.254150 29.999901 -4030.665283
v 2966.533203 29.999901 -3905.351074
v 2972.257813 29.999901 -3913.550537
v 3018.051025 29.999901 -3979.147705
v 3023.775146 29.999901 -3987.347412
v 2683.568848 29.999901 -4163.867676
v 2652.472412 29.999901 -4136.793945
v 2675.369385 29.999901 -4169.592285
v 2698.266113 29.999901 -4202.390625
v 3003.354004 29.999901 -3940.625000
v 2995.154297 29.999901 -3946.349121
v 2980.457275 29.999901 -3907.826416
v 3026.250732 29.999901 -3973.423584
v 2646.748047 19.999901 -4128.594238
v 2646.748047 29.999901 -4128.594238
v 2703.990234 19.999901 -4210.590332
v 2703.990234 29.999901 -4210.590332
v 2974.732910 19.999901 -3899.626953
v 2974.733154 29.999901 -3899.626953
v 3031.974854 19.999901 -3981.623047
v 3031.974854 29.999901 -3981.623047
v 2728.744629 19.999901 -4071.352539
v 2734.468750 19.999901 -4079.552002
v 2757.365479 19.999901 -4112.350586
v 2757.365479 29.999901 -4112.350586
v 2780.262451 19.999901 -4145.148926
v 2785.986572 19.999901 -4153.348633
v 2892.737061 19.999901 -3956.868652
v 2898.461182 19.999901 -3965.068359
v 2921.357910 19.999901 -3997.866943
v 2921.357910 29.999901 -3997.866943
v 2944.254150 19.999901 -4030.665283
v 2949.978516 19.999901 -4038.864746
v 3083.323242 30.000031 -3822.636230
v 3109.056641 30.000031 -3853.259766
v 3010.592773 30.000031 -3883.752930
v 3036.326172 30.000031 -3914.376709
v 3134.789795 30.000031 -3883.883301
v 3062.059326 30.000031 -3945.000488
v 3156.053711 30.000031 -3761.519287
v 3181.787109 30.000031 -3792.142822
v 3207.520264 30.000031 -3822.766113
v 3228.783936 30.000031 -3700.402344
v 3254.517334 30.000031 -3731.025635
v 3280.250732 30.000031 -3761.648926
v 3301.514160 30.000031 -3639.285645
v 3327.247803 30.000031 -3669.908691
v 3352.980957 30.000031 -3700.531982
v 2945.818848 36.998001 -4039.353027
v 2868.277100 37.459702 -4093.322754
v 2945.944092 70.877602 -4039.243164
v 2868.402588 71.339302 -4093.212891
v 2946.069824 104.997299 -4039.132568
v 2868.528564 105.458702 -4093.102051
v 3022.580322 36.541199 -3985.926514
v 3022.705078 70.420799 -3985.816406
v 3022.831299 104.540199 -3985.706055
v 2788.405518 36.998001 -4149.575195
v 2710.864014 37.459702 -4203.544922
v 2788.531006 70.877602 -4149.465332
v 2710.989258 71.339302 -4203.435059
v 2788.656738 104.997299 -4149.354492
v 2711.115479 105.458702 -4203.324219
v 2865.166992 36.541199 -4096.148438
v 2865.291992 70.420799 -4096.038574
v 2865.417969 104.540199 -4095.927979
v 2733.134521 36.998001 -4070.639404
v 2655.592773 37.459702 -4124.608887
v 2733.259521 70.877602 -4070.529053
v 2655.717773 71.339302 -4124.499023
v 2733.385254 104.997299 -4070.418457
v 2655.843994 105.458702 -4124.388184
v 2809.895508 36.541199 -4017.212402
v 2810.020752 70.420799 -4017.102783
v 2810.146484 104.540199 -4016.991943
v 2890.701416 36.998001 -3960.309570
v 2813.159912 37.459702 -4014.279297
v 2890.826416 70.877602 -3960.199463
v 2813.284912 71.339302 -4014.169189
v 2890.952393 104.997299 -3960.088867
v 2813.411133 105.458702 -4014.058350
v 2967.462646 36.541199 -3906.882813
v 2967.587891 70.420799 -3906.772949
v 2967.713623 104.540199 -3906.662354
# 979 vertices

vt 10.20790 -1.00780
vt 6.99980 -0.00010
vt 10.20790 -0.00010
vt 6.99980 -1.00780
vt 7.78860 -1.00780
vt 5.35640 -0.00010
vt 7.78860 -0.00010
vt 5.35640 -1.00780
vt 7.58950 -1.00000
vt 12.29940 -0.00010
vt 12.29940 -1.00000
vt 7.58950 -0.00010
vt 3.58800 -1.00780
vt 3.58800 -0.00010
vt 2.76980 -1.00780
vt 2.76980 -0.00010
vt 2.55700 -1.00000
vt 2.55700 -0.00010
vt -2.47530 -0.00010
vt -2.47530 -1.00000
vt -2.52250 -1.00780
vt -2.52250 -0.00010
vt -1.86300 -1.00780
vt -1.86300 -0.00010
vt -7.50780 -0.00010
vt -7.50780 -1.00000
vt -4.91580 -0.00010
vt -4.91580 -1.00780
vt -3.67750 -0.00010
vt -3.67750 -1.00780
vt -9.14230 -1.00780
vt -9.14230 -0.00010
vt -6.88190 -1.00780
vt -6.88190 -0.00010
vt -12.21770 -0.00010
vt -12.21770 -1.00000
vt -7.26580 -0.25090
vt -4.68950 -0.00010
vt -4.68950 -0.25090
vt -7.26580 -0.00010
vt -9.25460 -0.24960
vt -6.10630 -0.00010
vt -6.10630 -0.24960
vt -9.25460 -0.00010
vt -5.05890 -0.25170
vt -8.22250 -0.00010
vt -5.05890 -0.00010
vt -8.22250 -0.25170
vt -1.94970 -0.25090
vt -1.94970 -0.00010
vt -2.75810 -0.24960
vt -2.75810 -0.00010
vt -7.26730 -0.00010
vt -4.73130 -0.25010
vt -4.73130 -0.00010
vt -7.26730 -0.25010
vt -6.33510 -0.00010
vt -4.14900 -0.24820
vt -4.14900 -0.00010
vt -6.33510 -0.24820
vt -4.04960 -0.00010
vt -6.66050 -0.25010
vt -4.04960 -0.25010
vt -6.66050 -0.00010
vt -1.67850 -0.00010
vt -1.67850 -0.25170
vt -2.03430 -0.00010
vt -2.03430 -0.25010
vt -1.82410 -0.00010
vt -1.82410 -0.24820
vt -1.25990 -0.25010
vt -1.25990 -0.00010
vt 2.95740 -0.00010
vt 2.95740 -0.25090
vt 1.70170 -0.00010
vt 1.70170 -0.25170
vt 3.23860 -0.00010
vt 3.23860 -0.24960
vt 2.79600 -0.25010
vt 2.79600 -0.00010
vt 2.33990 -0.24820
vt 2.33990 -0.00010
vt 1.52970 -0.25010
vt 1.52970 -0.00010
vt 5.08200 -0.00010
vt 5.08200 -0.25170
vt 4.87940 -0.00010
vt 4.87940 -0.25090
vt 5.58740 -0.00010
vt 5.58740 -0.24960
vt 4.31940 -0.25010
vt 4.31940 -0.00010
vt 8.27350 -0.25090
vt 8.27350 -0.00010
vt 9.73520 -0.24960
vt 9.73520 -0.00010
vt 4.68800 -0.25010
vt 4.68800 -0.00010
vt 3.97080 -0.24820
vt 3.97080 -0.00010
vt 8.24560 -0.00010
vt 8.24560 -0.25170
vt 8.02900 -0.00010
vt 8.02900 -0.25000
vt 6.85090 -0.00010
vt 6.85090 -0.24820
vt 6.93030 -0.25000
vt 6.93030 -0.00010
vt 1.62570 -1.54820
vt 1.64140 -1.56920
vt 1.62570 -1.56920
vt 1.64140 -1.54820
vt 1.57150 -1.54820
vt 1.58720 -1.56920
vt 1.57150 -1.56920
vt 1.58720 -1.54820
vt 1.67990 -1.54820
vt 1.69560 -1.56920
vt 1.67990 -1.56920
vt 1.69560 -1.54820
vt 1.73410 -1.94140
vt 1.74990 -1.96230
vt 1.73410 -1.96230
vt 1.74990 -1.94140
vt 1.65280 -1.54820
vt 1.66850 -1.56920
vt 1.65280 -1.56920
vt 1.66850 -1.54820
vt 1.59860 -1.54820
vt 1.61430 -1.56920
vt 1.59860 -1.56920
vt 1.61430 -1.54820
vt 1.70700 -1.94140
vt 1.72280 -1.96230
vt 1.70700 -1.96230
vt 1.72280 -1.94140
vt 1.76130 -1.94140
vt 1.77700 -1.96230
vt 1.76130 -1.96230
vt 1.77700 -1.94140
vt -2.28440 -0.00010
vt -1.31860 -0.09910
vt -2.28440 -0.09910
vt -1.31860 -0.00010
vt -6.40970 -0.00010
vt -3.97750 -0.09840
vt -6.40970 -0.09840
vt -3.97750 -0.00010
vt 2.47980 -0.00010
vt 3.44560 -0.09910
vt 2.47980 -0.09910
vt 3.44560 -0.00010
vt 6.03790 -0.00010
vt 8.47010 -0.09840
vt 6.03790 -0.09840
vt 8.47010 -0.00010
vt -1.41510 -0.00010
vt -0.81720 -0.09780
vt -1.41510 -0.09780
vt -0.81720 -0.00010
vt 1.04840 -0.00010
vt 1.64630 -0.09780
vt 1.04840 -0.09780
vt 1.64630 -0.00010
vt -0.29150 -0.09910
vt -0.29150 -0.00010
vt -1.39080 -0.09840
vt -1.39080 -0.00010
vt -1.91770 -0.00010
vt -1.11700 -0.10060
vt -1.91770 -0.10060
vt -1.11700 -0.00010
vt -3.93680 -0.00010
vt -2.52040 -0.09780
vt -3.93680 -0.09780
vt -2.52040 -0.00010
vt 1.45280 -0.00010
vt 1.45280 -0.09910
vt 3.45120 -0.00010
vt 3.45120 -0.09840
vt 2.03220 -0.00010
vt 2.83300 -0.10060
vt 2.03220 -0.10060
vt 2.83300 -0.00010
vt 3.18980 -0.00010
vt 4.60610 -0.09780
vt 3.18980 -0.09780
vt 4.60610 -0.00010
vt -4.18450 -0.00010
vt -2.46730 -0.09570
vt -4.18450 -0.09570
vt -2.46730 -0.00010
vt 2.89070 -0.00010
vt 4.60780 -0.09570
vt 2.89070 -0.09570
vt 4.60780 -0.00010
vt -0.17840 -0.09780
vt -0.17840 -0.00010
vt 0.40960 -0.00010
vt 0.40960 -0.09780
vt -0.26540 -0.10060
vt -0.26540 -0.00010
vt -1.01420 -0.09780
vt -1.01420 -0.00010
vt 1.18070 -0.00010
vt 1.18070 -0.10060
vt 1.68350 -0.00010
vt 1.68350 -0.09780
vt -0.63260 -0.09570
vt -0.63260 -0.00010
vt 1.05600 -0.00010
vt 1.05600 -0.09570
vt 0.46040 -0.09780
vt 0.46040 -0.00010
vt 1.54800 -0.09910
vt 1.54800 -0.00010
vt 3.24190 -0.09840
vt 3.24190 -0.00010
vt -0.22920 -0.00010
vt -0.22920 -0.09780
vt -0.38670 -0.00010
vt -0.38670 -0.09910
vt -1.18150 -0.00010
vt -1.18150 -0.09840
vt 1.25960 -0.10060
vt 1.25960 -0.00010
vt 1.20200 -0.09570
vt 1.20200 -0.00010
vt -0.34440 -0.00010
vt -0.34440 -0.10060
vt -0.77870 -0.00010
vt -0.77870 -0.09570
vt 1.09930 -0.09780
vt 1.09930 -0.00010
vt -0.86810 -0.00010
vt -0.86810 -0.09780
vt 2.26840 -0.09910
vt 2.26840 -0.00010
vt 5.05640 -0.09840
vt 5.05640 -0.00010
vt -1.10720 -0.00010
vt -1.10720 -0.09910
vt -2.99600 -0.00010
vt -2.99600 -0.09840
vt 3.03680 -0.09570
vt 3.03680 -0.00010
vt -2.61340 -0.00010
vt -2.61340 -0.09570
vt 3.54080 -0.09910
vt 3.54080 -0.00010
vt 8.26080 -0.09840
vt 8.26080 -0.00010
vt 1.85700 -0.10060
vt 1.85700 -0.00010
vt 2.74010 -0.09780
vt 2.74010 -0.00010
vt -2.37960 -0.00010
vt -2.37960 -0.09910
vt -6.20040 -0.00010
vt -6.20040 -0.09840
vt -0.94170 -0.00010
vt -0.94170 -0.10060
vt -2.07080 -0.00010
vt -2.07080 -0.09780
vt 1.69720 -0.09780
vt 1.69720 -0.00010
vt -1.46600 -0.00010
vt -1.46600 -0.09780
vt 2.91190 -0.10060
vt 2.91190 -0.00010
vt -1.99660 -0.00010
vt -1.99660 -0.10060
vt 4.75390 -0.09570
vt 4.75390 -0.00010
vt -4.33050 -0.00010
vt -4.33050 -0.09570
vt -0.00320 0.00320
vt 0.33430 -0.34090
vt -0.00320 -0.34090
vt 0.33430 0.00320
vt 0.99800 0.49970
vt 0.00190 -0.00020
vt 0.99800 -0.00020
vt 0.00190 0.49970
vt 0.00190 -0.50000
vt 0.99800 -0.50000
vt 0.00190 -0.99990
vt 0.99800 -0.99990
vt 0.00190 -1.49970
vt 0.99800 -1.49970
vt 0.00190 -0.50170
vt 0.99800 -1.00280
vt 0.00190 -1.00280
vt 0.99800 -0.50170
vt 0.00190 -0.00050
vt 0.99800 -0.00050
vt 0.00190 0.50070
vt 0.99800 0.50070
vt 0.00190 1.00190
vt 0.99800 1.00190
vt 0.00190 -1.00110
vt 0.99800 -1.50220
vt 0.00190 -1.50220
vt 0.99800 -1.00110
vt 0.00190 -0.50010
vt 0.99800 -0.50010
vt 0.00190 0.00110
vt 0.99800 0.00110
vt 0.00190 0.50220
vt 0.99800 0.50220
vt 0.00190 -1.00000
vt 0.99800 -1.49980
vt 0.00190 -1.49980
vt 0.99800 -1.00000
vt 0.00190 -0.00010
vt 0.99800 -0.00010
vt 0.00190 0.49980
vt 0.99800 0.49980
vt 0.99800 0.49720
vt 0.00190 -0.00140
vt 0.99800 -0.00140
vt 0.00190 0.49720
vt 0.00190 -0.99870
vt 0.99800 -0.99870
vt 0.00190 -1.49720
vt 0.99800 -1.49720
vt 0.99800 -1.51340
vt 0.00190 -2.01720
vt 0.99800 -2.01720
vt 0.00190 -1.51340
vt 0.99800 -1.00970
vt 0.00190 -1.00970
vt 0.99800 -0.50600
vt 0.00190 -0.50600
vt 0.99800 -0.00230
vt 0.00190 -0.00230
vt 0.00190 -0.50550
vt 0.99800 -1.00540
vt 0.00190 -1.00540
vt 0.99800 -0.50550
vt 0.00190 -0.00560
vt 0.99800 -0.00560
vt 0.00190 0.49430
vt 0.99800 0.49430
vt 0.00190 0.99420
vt 0.99800 0.99420
vt 0.99800 0.50250
vt 0.00190 0.00120
vt 0.99800 0.00120
vt 0.00190 0.50250
vt 0.99800 -1.00120
vt 0.00190 -1.50250
vt 0.99800 -1.50250
vt 0.00190 -1.00120
vt 0.00190 0.49460
vt 0.99800 -0.00270
vt 0.00190 -0.00270
vt 0.99800 0.49460
vt 0.99800 -0.99740
vt 0.00190 -0.99740
vt 0.99800 -1.49460
vt 0.00190 -1.49460
vt 0.00190 -0.99610
vt 0.99800 -1.49200
vt 0.00190 -1.49200
vt 0.99800 -0.99610
vt 0.00190 -0.00400
vt 0.99800 -0.00400
vt 0.00190 0.49200
vt 0.99800 0.49200
vt 0.99800 -2.00330
vt 0.00190 -1.25160
vt 0.99800 -1.25160
vt 0.00190 -2.00330
vt 0.00190 0.25160
vt 0.99800 0.25160
vt 0.00190 1.00330
vt 0.99800 1.00330
vt 0.99800 0.25280
vt 0.00190 1.00560
vt 0.99800 1.00560
vt 0.00190 0.25280
vt 0.99800 -1.25280
vt 0.00190 -1.25280
vt 0.99800 -2.00560
vt 0.00190 -2.00560
vt 0.99800 -2.00360
vt 0.00190 -1.25180
vt 0.99800 -1.25180
vt 0.00190 -2.00360
vt 0.99800 0.25180
vt 0.00190 1.00360
vt 0.99800 1.00360
vt 0.00190 0.25180
vt 0.99800 0.25020
vt 0.00190 1.00050
vt 0.99800 1.00050
vt 0.00190 0.25020
vt 0.99800 -1.25020
vt 0.00190 -1.25020
vt 0.99800 -2.00050
vt 0.00190 -2.00050
vt 0.99800 0.25170
vt 0.00190 1.00350
vt 0.99800 1.00350
vt 0.00190 0.25170
vt 0.99800 -2.00350
vt 0.00190 -1.25170
vt 0.99800 -1.25170
vt 0.00190 -2.00350
vt 0.99800 0.25230
vt 0.00190 1.00470
vt 0.99800 1.00470
vt 0.00190 0.25230
vt 0.99800 -1.25230
vt 0.00190 -1.25230
vt 0.99800 -2.00470
vt 0.00190 -2.00470
vt 0.99800 0.25290
vt 0.00190 1.00590
vt 0.99800 1.00590
vt 0.00190 0.25290
vt 0.99800 -1.25290
vt 0.00190 -1.25290
vt 0.99800 -2.00590
vt 0.00190 -2.00590
vt 0.99800 0.24980
vt 0.00190 0.99960
vt 0.99800 0.99960
vt 0.00190 0.24980
vt 0.99800 -1.24980
vt 0.00190 -1.24980
vt 0.99800 -1.99960
vt 0.00190 -1.99960
vt 13.09520 -1.00780
vt 8.88900 -0.00010
vt 13.09520 -0.00010
vt 8.88900 -1.00780
vt 13.19700 -1.00780
vt 8.91630 -0.00010
vt 13.19700 -0.00010
vt 8.91630 -1.00780
vt 7.99920 -1.00780
vt 12.88790 -0.00010
vt 12.88790 -1.00780
vt 7.99920 -0.00010
vt 4.41570 -1.00780
vt 4.41570 -0.00010
vt 4.36370 -1.00780
vt 4.36370 -0.00010
vt 2.77560 -1.00780
vt 2.77560 -0.00010
vt -3.59610 -1.00780
vt -3.59610 -0.00010
vt -2.44790 -0.00010
vt -2.44790 -1.00780
vt -3.79010 -1.00780
vt -3.79010 -0.00010
vt -7.67150 -0.00010
vt -7.67150 -1.00780
vt -6.73410 -0.00010
vt -6.73410 -1.00780
vt -6.98360 -0.00010
vt -6.98360 -1.00780
vt -12.27560 -1.00780
vt -12.27560 -0.00010
vt -12.62340 -1.00780
vt -12.62340 -0.00010
vt -12.56020 -0.00010
vt -12.56020 -1.00780
vt 0.50000 -2.00540
vt -1.00540 -2.00540
vt -0.91540 -1.57360
vt -0.78140 -1.42970
vt -0.23920 0.86340
vt 0.49990 1.00540
vt -0.60680 0.29010
vt 1.78140 -1.42970
vt 1.60680 0.29010
vt 1.23920 0.86340
vt 1.91540 -1.57360
vt 2.00540 -2.00540
vt 9.99680 2.00450
vt 9.21090 2.49990
vt 8.99990 2.00450
vt 9.99680 2.49990
vt 9.32080 2.99990
vt 9.99970 2.50350
vt 8.99990 2.50350
vt 9.99990 2.99990
vt -2.29730 2.72150
vt -0.23670 1.99990
vt -2.24960 1.99990
vt -0.14230 2.72150
vt -3.99960 2.72150
vt -3.99960 1.99990
vt -2.24960 2.99990
vt 0.21700 2.99990
vt -3.99960 2.99990
vt 4.25110 1.99990
vt 4.25110 2.72150
vt 4.25110 2.99990
vt 7.99990 -9.02030
vt 6.99990 -8.01180
vt 7.99990 -8.01180
vt 6.99990 -9.02030
vt 1.99990 -9.02030
vt 1.99990 -8.01180
vt 12.99990 -9.02030
vt 12.99990 -8.01180
vt 0.99990 -9.02030
vt 0.99990 -8.01180
vt 13.99990 -9.02030
vt 13.99990 -8.01180
vt -3.99990 -8.01180
vt -3.99990 -9.02030
vt 18.99990 -8.01180
vt 18.99990 -9.02030
vt -4.99990 -8.01180
vt -4.99990 -9.02030
vt 0.45350 -2.57050
vt 0.34030 -2.54260
vt 0.34000 -2.32110
vt 0.62490 -2.99820
vt 0.34760 -2.99820
vt 0.46510 -2.52610
vt 0.00540 -2.54500
vt 0.00540 -2.99820
vt 0.00540 -2.37800
vt 0.56040 -2.47010
vt 0.99800 -1.99990
vt 0.99800 -2.47010
vt 0.56040 -1.99990
vt 0.65230 -2.52680
vt 0.34410 -2.00140
vt 0.46160 -2.00140
vt 0.00540 -2.00140
vt 0.49170 -3.99990
vt 0.49990 -3.99990
vt 0.74320 -2.99990
vt 1.00870 -3.99990
vt 0.48500 -3.99990
vt -0.99990 -3.99990
vt -0.99990 -2.99990
vt -0.49990 -3.99990
vt 0.49120 -3.99990
vt -0.49990 -2.99990
vt -1.00000 -2.99990
vt 8.99750 1.00000
vt 9.49750 1.00000
vt 9.49990 0.49990
vt 9.74990 0.99990
vt 0.24990 -9.99620
vt 0.00090 -9.99960
vt 0.05150 -9.73750
vt 1.94840 -9.73750
vt 1.99900 -9.99960
vt 1.74990 -9.99620
vt 2.99470 -6.99680
vt 2.00520 -6.00010
vt 2.99470 -6.00010
vt 2.00520 -6.99680
vt 0.00000 -8.98750
vt 1.99990 -8.73830
vt 0.00000 -8.73830
vt 1.99990 -8.98750
vt 1.99990 -8.98740
vt 0.00000 -8.73810
vt 1.99990 -8.73810
vt 0.00000 -8.98740
vt 0.99990 -6.00010
vt 0.00000 -7.00000
vt 0.00000 -6.00010
vt 0.99990 -7.00000
vt 0.50310 -0.99850
vt 0.99990 0.00330
vt 0.99990 -0.99850
vt 0.50310 0.00330
vt 0.00010 -0.99850
vt 0.00010 0.00330
vt 0.50310 -2.00000
vt 0.99990 -2.00000
vt 0.00010 -2.00000
vt 2.05720 -1.19080
vt 2.46920 -1.19080
vt 1.79970 -1.08440
vt 2.26320 -1.40370
vt 3.92410 -3.25630
vt 4.27720 -3.02050
vt 4.27720 -3.25630
vt 3.92410 -3.02050
vt -0.76000 -1.20500
vt 1.62810 -1.08340
vt 1.86220 -1.20500
vt -0.66640 -1.08340
vt 1.13480 -3.02050
vt 1.13480 -3.25630
vt 3.92410 -1.00520
vt 4.27720 -1.00520
vt 2.04950 -1.44810
vt 1.86220 -1.69120
vt 2.04950 -1.69120
vt 2.23680 -1.20500
vt -1.72510 -3.02050
vt -1.72510 -3.25630
vt 4.27720 1.01010
vt 3.92410 1.01010
vt 3.92260 -1.08340
vt 3.92260 -1.20500
vt -2.07810 -3.02050
vt -2.07810 -3.25630
vt 3.87040 -2.25440
vt 4.28200 -2.03840
vt 3.87040 -2.03840
vt 4.28200 -2.25440
vt 1.67330 -2.25440
vt 1.67330 -2.03840
vt -2.07810 -1.00520
vt -1.72510 -1.00520
vt -0.72400 -1.08440
vt -0.82700 -1.19080
vt 2.05720 -1.61650
vt 2.26320 -1.61650
vt -2.07810 1.01010
vt -1.72510 1.01010
vt -0.57940 -2.25440
vt -0.57940 -2.03840
vt 4.32340 -1.08440
vt 4.32340 -1.19080
vt -0.99100 -2.25440
vt -0.99100 -2.03840
vt -1.53220 0.99800
vt 0.00710 0.00190
vt -1.53220 0.00190
vt 0.00710 0.99800
vt 10.49810 0.99800
vt 12.09920 0.00190
vt 10.49810 0.00190
vt 12.09920 0.99800
vt 0.00710 0.00000
vt -1.53220 0.00000
vt 12.09920 0.00000
vt 10.49810 0.00000
vt 3.00100 0.00190
vt 3.00100 0.99800
vt 7.44310 0.99800
vt 7.44310 0.00190
vt 3.00100 0.00000
vt 7.44310 0.00000
vt 5.01150 0.99800
vt 5.01150 0.00190
vt 5.34770 0.99800
vt 5.34770 0.00190
vt 5.01150 0.00000
vt 5.34770 0.00000
vt 0.00000 0.99990
vt 0.33630 0.00000
vt 0.00000 0.00000
vt 0.33630 0.99990
vt -0.10290 0.21380
vt -0.74360 0.81240
vt -0.10290 0.81240
vt -0.74360 0.21380
vt -0.74360 0.20220
vt -0.10290 0.81500
vt -0.10290 0.20220
vt -0.74360 0.81500
vt 1.10290 0.21380
vt 1.10290 0.81240
vt 1.10290 0.81500
vt 1.10290 0.20220
vt 1.74360 0.81240
vt 1.74360 0.21380
vt 1.74360 0.20220
vt 1.74360 0.81500
vt 0.00190 0.00190
vt 2.24520 0.99800
vt 2.24520 0.00190
vt 0.00190 0.99800
vt 22.50140 0.99800
vt 25.46580 0.00190
vt 22.50140 0.00190
vt 25.46580 0.99800
vt 7.48740 0.99800
vt 7.48740 0.00190
vt 15.72650 0.99800
vt 15.72650 0.00190
vt 9.99330 0.99800
vt 9.99330 0.00190
vt 10.48370 0.99800
vt 10.48370 0.00190
vt 0.51560 0.00000
vt 0.51560 0.99990
vt 2.36200 -0.03710
vt 1.98810 0.47320
vt 2.36200 0.47320
vt 1.98810 -0.03720
vt 2.36200 0.99800
vt 1.98810 0.99810
vt 0.63330 0.47320
vt 0.63330 -0.03720
vt 0.63330 0.99800
vt 0.63330 -0.03730
vt 2.36200 0.47310
vt 0.63330 0.47310
vt 2.36200 -0.03730
vt -0.72130 0.47310
vt -0.72130 0.99800
vt -0.72130 -0.03720
vt -1.09530 0.47310
vt -1.09500 -0.03730
vt -1.09500 0.99800
vt -1.09530 -0.03730
vt -1.09550 0.99800
vt 1.99990 0.47610
vt 2.37490 0.00000
vt 2.37490 0.47610
vt 1.99990 0.00000
vt 2.37490 0.99990
vt 1.99990 0.99990
vt -1.09430 0.47310
vt 0.63380 -0.03730
vt 0.63380 0.47310
vt 0.63380 0.99800
vt -1.09530 0.99800
vt 0.61260 -0.03730
vt 0.61260 0.47310
vt 0.61260 0.99800
vt 2.36080 -0.03730
vt 2.36080 0.99800
vt -0.73170 -0.03730
vt -0.73170 0.47310
vt -0.73170 0.99800
vt 0.38850 0.47700
vt 0.99800 -0.03400
vt 0.99800 0.47700
vt 0.38850 -0.03400
vt 0.38850 0.99800
vt 0.99800 0.99800
vt 0.99800 -0.03730
vt 0.38850 0.46720
vt 0.99800 0.46720
vt 0.38850 -0.03730
vt 0.38190 0.47050
vt 0.99800 0.47050
vt 0.38190 -0.03400
vt 0.38190 0.99800
vt 0.01500 0.47700
vt 0.65730 -0.03070
vt 0.65730 0.47700
vt 0.01500 -0.03070
vt 0.01500 0.99800
vt 0.65730 0.99800
vt 2.21340 0.42650
vt 1.21840 0.79840
vt 1.21840 0.42650
vt 2.21340 0.79840
vt 2.29090 0.42650
vt 1.29590 0.79840
vt 2.29090 0.79840
vt 1.29590 0.42650
vt 1.91520 0.79840
vt 2.91020 0.42650
vt 2.91020 0.79840
vt 1.91520 0.42650
vt 2.98760 0.42650
vt 1.99260 0.79840
vt 2.98760 0.79840
vt 1.99260 0.42650
vt -0.99260 0.42650
vt -0.99260 0.79840
vt -0.91520 0.79840
vt -0.91520 0.42650
vt -0.29590 0.42650
vt -0.29590 0.79840
vt -0.21840 0.42650
vt -0.21840 0.79840
vt -1.98760 0.42650
vt -1.98760 0.79840
vt -1.91020 0.42650
vt -1.91020 0.79840
vt -1.29090 0.42650
vt -1.29090 0.79840
vt -1.21350 0.42650
vt -1.21350 0.79840
vt -1.01200 0.41820
vt -0.71640 0.03800
vt -0.71640 0.41820
vt -1.01200 0.03800
vt 0.86840 0.14620
vt 0.71890 0.03310
vt 0.86840 0.03310
vt 0.71890 0.14620
vt 0.09580 0.14620
vt 0.09580 0.03310
vt 0.49990 0.03800
vt 0.49990 0.41820
vt -0.52720 0.03310
vt -0.52720 0.14620
vt 1.71640 0.41820
vt 1.71640 0.03800
vt -0.67670 0.03310
vt -0.67670 0.14620
vt 2.01200 0.41820
vt 2.01200 0.03800
vt 1.39590 0.02130
vt 1.19890 0.14420
vt 1.39590 0.14420
vt 1.19890 0.02130
vt 1.36460 0.41120
vt 1.18320 0.02950
vt 1.36460 0.02950
vt 1.18320 0.41120
vt 0.62250 0.14420
vt 0.62250 0.02130
vt 0.37740 0.02950
vt 0.37740 0.41120
vt -0.42830 0.41120
vt -0.42830 0.02950
vt 0.04610 0.14420
vt 0.04610 0.02130
vt -0.60970 0.41120
vt -0.60970 0.02950
vt -0.15080 0.02130
vt -0.15080 0.14420
vt 0.00000 0.16890
vt 0.51560 0.16890
vt 7.50690 0.00190
vt 8.42780 0.16690
vt 8.42780 0.00190
vt 7.50690 0.16690
vt 17.80940 0.16690
vt 19.02640 0.00190
vt 17.80940 0.00190
vt 19.02640 0.16690
vt 19.09380 0.16690
vt 18.14950 0.00190
vt 19.09380 0.00190
vt 18.14950 0.16690
vt 8.62210 0.16690
vt 7.37420 0.00190
vt 8.62210 0.00190
vt 7.37420 0.16690
vt 10.58000 0.00190
vt 10.58000 0.16690
vt 13.96250 0.16690
vt 13.96250 0.00190
vt 15.94280 0.00190
vt 15.94280 0.16690
vt 12.47440 0.16690
vt 12.47440 0.00190
vt 11.60880 0.00190
vt 11.60880 0.16690
vt 11.81010 0.16690
vt 11.81010 0.00190
vt 14.88790 0.00190
vt 14.88790 0.16690
vt 14.68140 0.00190
vt 14.68140 0.16690
vt 1.54440 -0.99650
vt 1.50890 -0.67740
vt 1.54440 -0.67740
vt 1.50890 -0.99650
vt 1.44300 -0.67740
vt 1.40760 -0.99650
vt 1.40760 -0.67740
vt 1.44300 -0.99650
vt 1.54440 0.03150
vt 1.50890 0.03150
vt 1.44300 0.03150
vt 1.40760 0.03150
vt 1.54440 0.35060
vt 1.50890 0.35060
vt 1.40760 0.35060
vt 1.44300 0.35060
vt 24.24880 0.99990
vt 22.22000 -0.00030
vt 24.24880 -0.00030
vt 22.22000 0.99990
vt 3.90000 -0.00030
vt 1.21900 0.99990
vt 1.21900 -0.00030
vt 3.90000 0.99990
vt 17.47890 0.99990
vt 17.47890 -0.00030
vt 10.02730 0.99990
vt 10.02730 -0.00030
vt 15.21250 0.99990
vt 15.21250 -0.00030
vt 14.76900 0.99990
vt 14.76900 -0.00030
vt 0.36650 0.46450
vt 0.99990 -0.02510
vt 0.99990 0.46450
vt 0.36650 -0.02510
vt 0.05480 -0.87790
vt 0.13000 -1.00700
vt 0.05480 -1.00700
vt 0.13000 -0.87790
vt 0.49210 -0.87790
vt 0.49210 -1.00700
vt 0.85420 -0.87790
vt 0.85420 -1.00700
vt 0.92940 -1.00700
vt 0.92940 -0.87790
vt 1.00580 -0.11230
vt 0.89610 -0.00200
vt 1.00580 -0.00200
vt 0.89610 -0.11230
vt 0.51520 -0.00200
vt 0.51520 -0.11230
vt 0.13430 -0.00200
vt 0.13430 -0.11230
vt 0.02460 -0.11230
vt 0.02460 -0.00200
vt -0.04540 -0.88380
vt 0.45250 -0.99810
vt -0.04540 -0.99810
vt 0.45250 -0.88380
vt 0.46600 -0.89060
vt 0.99220 -0.99810
vt 0.46600 -0.99810
vt 0.99220 -0.89060
vt 0.95050 -0.99810
vt 0.95050 -0.88380
vt -0.06000 -0.89060
vt -0.06000 -0.99810
vt -0.08130 -0.88380
vt 0.46380 -0.99810
vt -0.08130 -0.99810
vt 0.46380 -0.88380
vt 0.46600 -0.89280
vt 1.02310 -0.99810
vt 1.02310 -0.89280
vt 1.00900 -0.99810
vt 1.00900 -0.88380
vt -0.09090 -0.89280
vt -0.09090 -0.99810
vt 0.25010 -1.00000
vt 0.74980 -0.00010
vt 0.74980 -1.00000
vt 0.25010 -0.00010
vt 0.24620 -1.00210
vt 0.75370 0.00210
vt 0.75370 -1.00210
vt 0.24620 0.00210
vt 0.24880 -1.00000
vt 0.75110 -0.00010
vt 0.75110 -1.00000
vt 0.24880 -0.00010
vt 0.25150 -1.00000
vt 0.74840 -0.00010
vt 0.74840 -1.00000
vt 0.25150 -0.00010
vt 2.49530 -0.17600
vt 1.48200 -0.00200
vt 1.48200 -0.17600
vt 2.49530 -0.00200
vt 2.49530 -0.50010
vt 1.48200 -0.32820
vt 1.48200 -0.50010
vt 2.49530 -0.32820
vt -0.48200 -0.00200
vt -0.48200 -0.17600
vt -0.48200 -0.32820
vt -0.48200 -0.50010
vt -1.49530 -0.17600
vt -1.49530 -0.00200
vt -1.49530 -0.50010
vt -1.49530 -0.32820
vt 0.24090 -0.00200
vt 0.99800 -0.18170
vt 0.24090 -0.18170
vt 0.99800 -0.00200
vt -0.51570 -0.00200
vt -0.51570 -0.18170
vt 0.24090 -0.33290
vt 0.24090 -0.50010
vt 0.99800 -0.33290
vt -0.49990 -0.33290
vt -0.49990 -0.50010
vt -0.24540 -0.00890
vt 0.22350 0.98450
vt 0.22540 -0.00890
vt -0.25090 0.97820
vt 1.24380 0.98450
vt 1.24930 -0.00890
vt -0.23960 -1.00840
vt 0.22740 -1.00210
vt 1.24730 -1.00210
vt 1.24120 0.97700
vt 0.74470 -0.00520
vt 0.74470 0.98440
vt 1.24120 -0.00520
vt -0.24730 0.98440
vt -0.23280 -0.00520
vt 0.74470 -0.99470
vt 1.24730 -1.00200
vt -0.21820 -0.98850
vt -0.26620 -0.00150
vt 0.34130 0.99630
vt 0.34130 -0.00150
vt -0.26620 0.99630
vt 1.26620 0.99630
vt 1.26620 -0.00150
vt -0.26620 -0.99930
vt 0.34130 -0.99930
vt 1.26620 -0.99930
vt 1.23880 0.98520
vt 0.67320 -0.00890
vt 0.66700 0.97890
vt 1.24500 -0.00880
vt -0.23260 -0.00890
vt -0.23880 0.96630
vt 0.67940 -0.99660
vt 1.24390 -0.99030
vt -0.23880 -1.00390
vt 0.00000 -1.00000
vt 0.99990 -0.00010
vt 0.99990 -1.00000
vt 0.00000 -0.00010
vt 0.09470 -1.97340
vt -0.00540 -1.26510
vt 0.09470 -1.26510
vt -0.00540 -1.97340
vt 0.49580 -1.97340
vt 0.49580 -1.26510
vt 1.50170 -2.04020
vt 2.01040 -2.98610
vt 1.50170 -2.98610
vt 2.01040 -2.04020
vt 0.99300 -2.04020
vt 0.99300 -2.98610
vt 0.89680 -1.97340
vt 0.89680 -1.26510
vt 0.99700 -1.97340
vt 0.99700 -1.26510
vt -0.00540 0.30880
vt 0.09470 0.30880
vt 0.49580 0.30880
vt 2.01040 0.06180
vt 1.50170 0.06180
vt 0.89680 0.30880
vt 0.99300 0.06180
vt 0.99700 0.30880
vt -0.00540 1.01710
vt 0.09470 1.01710
vt 0.49580 1.01710
vt 1.50170 1.00770
vt 2.01040 1.00770
vt 0.89680 1.01710
vt 0.99300 1.00770
vt 0.99700 1.01710
vt 0.60470 -0.00010
vt -0.53460 -0.45080
vt 0.60470 -0.45080
vt -0.53460 -0.00010
vt 1.74400 -0.45080
vt 1.74400 -0.00010
vt 0.61640 -0.45910
vt 1.74650 -0.00200
vt 0.61640 -0.00200
vt 1.74650 -0.45910
vt -0.51350 -0.45910
vt -0.51350 -0.00200
vt 3.00040 -0.45910
vt 1.64940 -0.00010
vt 1.64940 -0.45910
vt 3.00040 -0.00010
vt -1.74390 -0.00200
vt -0.48690 -0.46260
vt -1.74390 -0.46260
vt -0.48690 -0.00200
vt -1.38160 -0.45910
vt -1.38160 -0.00010
vt 1.75910 -0.00200
vt 1.75910 -0.46260
vt -2.73260 -0.00010
vt -2.73260 -0.45910
vt 3.01610 -0.46260
vt 3.01610 -0.00200
vt -1.27960 -7.46130
vt 2.70490 -4.56260
vt 2.70380 -7.46620
vt -1.27840 -4.55760
vt 2.70610 -1.65890
vt -1.27720 -1.65390
vt 6.68840 -4.56750
vt 6.68720 -7.47120
vt 6.68960 -1.66380
vt 10.67190 -4.57250
vt 10.67070 -7.47610
vt 10.67310 -1.66880
vt 14.65530 -4.57740
vt 14.65410 -7.48110
vt 14.65650 -1.67370
vt 1.89430 1.99330
vt 5.89850 0.09320
vt 1.89430 0.09320
vt 5.89850 1.99330
vt 1.89430 3.90690
vt 5.89850 3.90690
vt -2.06950 1.99330
vt -2.06950 0.09320
vt -2.06950 3.90690
# 1105 texture vertices

g Object_2
usemtl texture0
f 1/3 2/2 3/1
f 3/1 2/2 4/4
f 5/7 6/6 7/5
f 7/5 6/6 8/8
f 9/11 10/10 11/9
f 10/10 12/12 11/9
f 4/4 2/2 13/13
f 2/2 14/14 13/13
f 8/8 6/6 15/15
f 6/6 16/16 15/15
f 11/9 12/12 17/17
f 12/12 18/18 17/17
f 18/18 19/19 17/17
f 17/17 19/19 20/20
f 13/13 14/14 21/21
f 14/14 22/22 21/21
f 15/15 16/16 23/23
f 16/16 24/24 23/23
f 19/19 25/25 20/20
f 20/20 25/25 26/26
f 22/22 27/27 21/21
f 21/21 27/27 28/28
f 24/24 29/29 23/23
f 23/23 29/29 30/30
f 28/28 27/27 31/31
f 27/27 32/32 31/31
f 30/30 29/29 33/33
f 29/29 34/34 33/33
f 25/25 35/35 26/26
f 26/26 35/35 36/36
usemtl texture1
f 37/39 38/38 39/37
f 38/38 40/40 39/37
f 41/43 42/42 43/41
f 42/42 44/44 43/41
f 45/47 46/46 47/45
f 47/45 46/46 48/48
f 49/50 38/38 50/49
f 50/49 38/38 37/39
f 51/52 42/42 52/51
f 52/51 42/42 41/43
f 53/55 54/54 55/53
f 54/54 56/56 55/53
f 57/59 58/58 59/57
f 58/58 60/60 59/57
f 61/63 62/62 63/61
f 63/61 62/62 64/64
f 65/66 66/65 47/45
f 66/65 45/47 47/45
f 67/68 54/54 68/67
f 68/67 54/54 53/55
f 69/70 58/58 70/69
f 70/69 58/58 57/59
f 71/72 72/71 63/61
f 72/71 61/63 63/61
f 73/74 74/73 50/49
f 74/73 49/50 50/49
f 75/76 76/75 65/66
f 76/75 66/65 65/66
f 77/78 78/77 52/51
f 78/77 51/52 52/51
f 79/80 80/79 68/67
f 80/79 67/68 68/67
f 81/82 82/81 70/69
f 82/81 69/70 70/69
f 83/84 84/83 71/72
f 84/83 72/71 71/72
f 85/86 86/85 75/76
f 86/85 76/75 75/76
f 87/88 88/87 73/74
f 88/87 74/73 73/74
f 89/90 90/89 77/78
f 90/89 78/77 77/78
f 91/92 92/91 83/84
f 92/91 84/83 83/84
f 93/94 88/87 94/93
f 94/93 88/87 87/88
f 95/96 90/89 96/95
f 96/95 90/89 89/90
f 97/98 98/97 79/80
f 98/97 80/79 79/80
f 99/100 100/99 81/82
f 100/99 82/81 81/82
f 101/102 102/101 85/86
f 102/101 86/85 85/86
f 103/104 98/97 104/103
f 104/103 98/97 97/98
f 105/106 100/99 106/105
f 106/105 100/99 99/100
f 107/108 108/107 91/92
f 108/107 92/91 91/92
usemtl texture2
f 39/111 40/110 3/109
f 40/110 1/112 3/109
f 43/115 44/114 7/113
f 44/114 5/116 7/113
f 55/119 56/118 109/117
f 56/118 110/120 109/117
f 59/123 60/122 111/121
f 60/122 112/124 111/121
f 31/127 32/126 94/125
f 32/126 93/128 94/125
f 33/131 34/130 96/129
f 34/130 95/132 96/129
f 113/135 114/134 104/133
f 114/134 103/136 104/133
f 115/139 116/138 106/137
f 116/138 105/140 106/137
usemtl texture3
f 3/143 4/142 39/141
f 4/142 37/144 39/141
f 7/147 8/146 43/145
f 8/146 41/148 43/145
f 2/151 1/150 38/149
f 1/150 40/152 38/149
f 6/155 5/154 42/153
f 5/154 44/156 42/153
f 9/159 11/158 48/157
f 11/158 47/160 48/157
f 12/163 10/162 45/161
f 10/162 46/164 45/161
f 4/142 13/165 37/144
f 13/165 50/166 37/144
f 8/146 15/167 41/148
f 15/167 52/168 41/148
f 109/171 117/170 55/169
f 117/170 53/172 55/169
f 111/175 118/174 59/173
f 118/174 57/176 59/173
f 14/178 2/151 49/177
f 2/151 38/149 49/177
f 16/180 6/155 51/179
f 6/155 42/153 51/179
f 119/183 110/182 54/181
f 110/182 56/184 54/181
f 120/187 112/186 58/185
f 112/186 60/188 58/185
f 121/191 122/190 64/189
f 122/190 63/192 64/189
f 123/195 124/194 61/193
f 124/194 62/196 61/193
f 11/158 17/197 47/160
f 17/197 65/198 47/160
f 18/200 12/163 66/199
f 12/163 45/161 66/199
f 117/170 125/201 53/172
f 125/201 68/202 53/172
f 118/174 126/203 57/176
f 126/203 70/204 57/176
f 127/206 119/183 67/205
f 119/183 54/181 67/205
f 128/208 120/187 69/207
f 120/187 58/185 69/207
f 122/190 129/209 63/192
f 129/209 71/210 63/192
f 130/212 123/195 72/211
f 123/195 61/193 72/211
f 17/197 20/213 65/198
f 20/213 75/214 65/198
f 13/165 21/215 50/166
f 21/215 73/216 50/166
f 15/167 23/217 52/168
f 23/217 77/218 52/168
f 19/220 18/200 76/219
f 18/200 66/199 76/219
f 22/222 14/178 74/221
f 14/178 49/177 74/221
f 24/224 16/180 78/223
f 16/180 51/179 78/223
f 125/201 131/225 68/202
f 131/225 79/226 68/202
f 129/209 132/227 71/210
f 132/227 83/228 71/210
f 126/203 133/208 70/204
f 133/208 81/207 70/204
f 134/230 127/206 80/229
f 127/206 67/205 80/229
f 135/232 130/212 84/231
f 130/212 72/211 84/231
f 136/203 128/208 82/204
f 128/208 69/207 82/204
f 20/213 26/233 75/214
f 26/233 85/234 75/214
f 25/236 19/220 86/235
f 19/220 76/219 86/235
f 21/215 28/237 73/216
f 28/237 87/238 73/216
f 23/217 30/239 77/218
f 30/239 89/240 77/218
f 27/242 22/222 88/241
f 22/222 74/221 88/241
f 29/244 24/224 90/243
f 24/224 78/223 90/243
f 132/227 137/245 83/228
f 137/245 91/246 83/228
f 138/248 135/232 92/247
f 135/232 84/231 92/247
f 28/237 31/249 87/238
f 31/249 94/250 87/238
f 30/239 33/251 89/240
f 33/251 96/252 89/240
f 131/225 139/253 79/226
f 139/253 97/254 79/226
f 133/208 140/255 81/207
f 140/255 99/256 81/207
f 32/258 27/242 93/257
f 27/242 88/241 93/257
f 34/260 29/244 95/259
f 29/244 90/243 95/259
f 141/262 134/230 98/261
f 134/230 80/229 98/261
f 142/264 136/203 100/263
f 136/203 82/204 100/263
f 26/233 36/265 85/234
f 36/265 101/266 85/234
f 35/268 25/236 102/267
f 25/236 86/235 102/267
f 139/253 113/269 97/254
f 113/269 104/270 97/254
f 140/255 115/186 99/256
f 115/186 106/188 99/256
f 114/272 141/262 103/271
f 141/262 98/261 103/271
f 116/175 142/264 105/173
f 142/264 100/263 105/173
f 137/245 143/273 91/246
f 143/273 107/274 91/246
f 144/276 138/248 108/275
f 138/248 92/247 108/275
usemtl texture4
f 145/279 146/278 147/277
f 146/278 148/280 147/277
f 149/279 150/278 151/277
f 150/278 152/280 151/277
f 153/279 154/278 155/277
f 154/278 156/280 155/277
f 157/279 158/278 159/277
f 158/278 160/280 159/277
f 161/279 162/278 163/277
f 162/278 164/280 163/277
f 165/279 166/278 167/277
f 166/278 168/280 167/277
usemtl texture5
f 169/283 170/282 171/281
f 170/282 172/284 171/281
f 173/286 174/285 169/283
f 174/285 170/282 169/283
f 175/288 176/287 173/286
f 176/287 174/285 173/286
f 147/290 148/289 175/288
f 148/289 176/287 175/288
f 171/293 177/292 169/291
f 177/292 178/294 169/291
f 169/291 178/294 173/295
f 178/294 179/296 173/295
f 173/295 179/296 175/297
f 179/296 180/298 175/297
f 175/297 180/298 147/299
f 180/298 145/300 147/299
f 181/303 172/302 182/301
f 172/302 170/304 182/301
f 182/301 170/304 183/305
f 170/304 174/306 183/305
f 183/305 174/306 184/307
f 174/306 176/308 184/307
f 184/307 176/308 146/309
f 176/308 148/310 146/309
f 177/313 181/312 178/311
f 181/312 182/314 178/311
f 178/311 182/314 179/285
f 182/314 183/286 179/285
f 179/285 183/286 180/315
f 183/286 184/316 180/315
f 180/315 184/316 145/317
f 184/316 146/318 145/317
f 185/321 186/320 187/319
f 186/320 188/322 187/319
f 189/286 190/285 185/321
f 190/285 186/320 185/321
f 191/324 192/323 189/286
f 192/323 190/285 189/286
f 151/326 152/325 191/324
f 152/325 192/323 191/324
f 187/329 193/328 185/327
f 193/328 194/330 185/327
f 185/327 194/330 189/331
f 194/330 195/332 189/331
f 189/331 195/332 191/333
f 195/332 196/334 191/333
f 191/333 196/334 151/335
f 196/334 149/336 151/335
f 197/339 188/338 198/337
f 188/338 186/340 198/337
f 198/337 186/340 199/341
f 186/340 190/342 199/341
f 199/341 190/342 200/343
f 190/342 192/344 200/343
f 200/343 192/344 150/345
f 192/344 152/346 150/345
f 193/290 197/289 194/288
f 197/289 198/287 194/288
f 194/288 198/287 195/286
f 198/287 199/285 195/286
f 195/286 199/285 196/283
f 199/285 200/282 196/283
f 196/283 200/282 149/281
f 200/282 150/284 149/281
f 201/320 202/321 203/322
f 202/321 204/319 203/322
f 205/285 206/286 201/320
f 206/286 202/321 201/320
f 207/323 208/324 205/285
f 208/324 206/286 205/285
f 155/325 156/326 207/323
f 156/326 208/324 207/323
f 207/320 209/321 155/322
f 209/321 153/319 155/322
f 203/325 210/326 201/323
f 210/326 211/324 201/323
f 201/323 211/324 205/285
f 211/324 212/286 205/285
f 205/285 212/286 207/320
f 212/286 209/321 207/320
f 213/289 204/290 214/287
f 204/290 202/288 214/287
f 214/287 202/288 215/305
f 202/288 206/306 215/305
f 215/305 206/306 216/282
f 206/306 208/283 216/282
f 216/282 208/283 154/284
f 208/283 156/281 154/284
f 209/349 216/348 153/347
f 216/348 154/350 153/347
f 210/353 213/352 211/351
f 213/352 214/354 211/351
f 211/351 214/354 212/286
f 214/354 215/285 212/286
f 212/286 215/285 209/349
f 215/285 216/348 209/349
f 217/357 218/356 219/355
f 218/356 220/358 219/355
f 221/285 222/286 217/357
f 222/286 218/356 217/357
f 223/360 224/359 221/285
f 224/359 222/286 221/285
f 159/362 160/361 223/360
f 160/361 224/359 223/360
f 219/365 225/364 217/363
f 225/364 226/366 217/363
f 217/363 226/366 221/285
f 226/366 227/286 221/285
f 221/285 227/286 223/367
f 227/286 228/368 223/367
f 223/367 228/368 159/369
f 228/368 157/370 159/369
f 229/313 220/312 230/311
f 220/312 218/314 230/311
f 230/311 218/314 231/305
f 218/314 222/306 231/305
f 231/305 222/306 232/315
f 222/306 224/316 232/315
f 232/315 224/316 158/317
f 224/316 160/318 158/317
f 225/313 229/312 226/311
f 229/312 230/314 226/311
f 226/311 230/314 227/285
f 230/314 231/286 227/285
f 227/285 231/286 228/315
f 231/286 232/316 228/315
f 228/315 232/316 157/317
f 232/316 158/318 157/317
f 233/373 234/372 235/371
f 234/372 236/374 235/371
f 237/306 238/305 233/373
f 238/305 234/372 233/373
f 239/376 240/375 237/306
f 240/375 238/305 237/306
f 163/378 164/377 239/376
f 164/377 240/375 239/376
f 235/381 241/380 233/379
f 241/380 242/382 233/379
f 233/379 242/382 237/306
f 242/382 243/305 237/306
f 237/306 243/305 239/383
f 243/305 244/384 239/383
f 239/383 244/384 163/385
f 244/384 161/386 163/385
f 245/389 240/388 162/387
f 240/388 164/390 162/387
f 246/393 236/392 247/391
f 236/392 234/394 247/391
f 247/391 234/394 248/286
f 234/394 238/285 248/286
f 248/286 238/285 245/389
f 238/285 240/388 245/389
f 241/397 246/396 242/395
f 246/396 247/398 242/395
f 242/395 247/398 243/306
f 247/398 248/305 243/306
f 243/306 248/305 244/399
f 248/305 245/400 244/399
f 244/399 245/400 161/401
f 245/400 162/402 161/401
f 167/405 168/404 249/403
f 168/404 250/406 249/403
f 251/409 252/408 253/407
f 252/408 254/410 253/407
f 255/306 256/305 251/409
f 256/305 252/408 251/409
f 249/403 250/406 255/306
f 250/406 256/305 255/306
f 253/413 257/412 251/411
f 257/412 258/414 251/411
f 251/411 258/414 255/306
f 258/414 259/305 255/306
f 255/306 259/305 249/415
f 259/305 260/416 249/415
f 249/415 260/416 167/417
f 260/416 165/418 167/417
f 261/421 254/420 262/419
f 254/420 252/422 262/419
f 262/419 252/422 263/286
f 252/422 256/285 263/286
f 263/286 256/285 264/423
f 256/285 250/424 264/423
f 264/423 250/424 166/425
f 250/424 168/426 166/425
f 257/429 261/428 258/427
f 261/428 262/430 258/427
f 258/427 262/430 259/306
f 262/430 263/305 259/306
f 259/306 263/305 260/431
f 263/305 264/432 260/431
f 260/431 264/432 165/433
f 264/432 166/434 165/433
usemtl texture6
f 110/437 119/436 109/435
f 109/435 119/436 117/438
f 112/441 120/440 111/439
f 111/439 120/440 118/442
f 121/445 124/444 122/443
f 124/444 123/446 122/443
f 117/438 119/436 125/447
f 119/436 127/448 125/447
f 118/442 120/440 126/449
f 120/440 128/450 126/449
f 122/443 123/446 129/451
f 123/446 130/452 129/451
f 125/447 127/448 131/453
f 127/448 134/454 131/453
f 130/452 135/455 129/451
f 129/451 135/455 132/456
f 126/449 128/450 133/457
f 128/450 136/458 133/457
f 135/455 138/459 132/456
f 132/456 138/459 137/460
f 134/454 141/461 131/453
f 131/453 141/461 139/462
f 136/458 142/463 133/457
f 133/457 142/463 140/464
f 139/462 141/461 113/465
f 141/461 114/466 113/465
f 140/464 142/463 115/467
f 142/463 116/468 115/467
f 138/459 144/469 137/460
f 137/460 144/469 143/470
usemtl texture7
f 265/473 266/472 267/471
f 267/471 268/474 265/473
f 269/477 270/476 271/475
f 267/471 272/478 268/474
f 269/477 273/479 270/476
f 270/476 273/479 274/480
f 272/478 267/471 275/481
f 267/471 276/482 275/481
f 268/474 272/478 269/477
f 272/478 273/479 269/477
f 277/485 278/484 279/483
f 278/484 280/486 279/483
f 277/489 281/488 278/487
f 281/488 282/490 278/487
f 283/485 279/483 284/484
f 280/486 284/484 279/483
f 285/489 286/487 281/488
f 286/487 282/490 281/488
f 287/489 284/487 288/488
f 284/487 289/490 288/488
f 290/485 291/483 286/484
f 292/486 286/484 291/483
f 293/489 288/488 294/487
f 288/488 289/490 294/487
f 295/485 294/484 296/483
f 294/484 292/486 296/483
f 297/485 298/484 299/483
f 298/484 300/486 299/483
f 297/489 301/488 298/487
f 301/488 302/490 298/487
f 303/485 304/483 305/484
f 300/486 305/484 304/483
f 306/489 307/487 308/488
f 307/487 302/490 308/488
f 309/489 305/487 310/488
f 305/487 311/490 310/488
f 312/485 313/483 307/484
f 314/486 307/484 313/483
f 315/489 316/488 317/487
f 316/488 318/490 317/487
f 319/485 320/484 313/483
f 320/484 314/486 313/483
f 321/471 322/482 323/481
f 324/478 321/471 323/481
f 325/476 326/479 327/480
f 328/477 326/479 325/476
f 321/471 324/478 329/474
f 328/477 325/476 330/475
f 321/471 329/474 331/473
f 331/473 332/472 321/471
f 329/474 324/478 328/477
f 324/478 326/479 328/477
f 333/485 334/484 335/483
f 334/484 336/486 335/483
f 333/489 337/488 334/487
f 337/488 338/490 334/487
f 339/485 335/483 340/484
f 336/486 340/484 335/483
f 341/489 342/487 337/488
f 342/487 343/490 337/488
f 344/489 345/487 346/488
f 345/487 347/490 346/488
f 348/485 349/483 350/484
f 351/486 350/484 349/483
f 352/489 353/488 354/487
f 353/488 355/490 354/487
f 356/485 357/484 358/483
f 357/484 351/486 358/483
usemtl texture8
f 359/493 360/492 361/491
f 360/492 362/494 361/491
f 363/496 359/493 364/495
f 359/493 361/491 364/495
f 361/491 362/494 365/497
f 362/494 366/498 365/497
f 364/495 361/491 367/499
f 361/491 365/497 367/499
f 363/496 364/495 368/493
f 368/493 364/495 369/491
f 364/495 367/499 369/491
f 369/491 367/499 370/497
f 360/492 266/500 362/494
f 362/494 266/500 265/501
f 362/494 265/501 366/498
f 366/498 265/501 268/502
f 368/493 369/491 371/492
f 369/491 372/494 371/492
f 369/491 370/497 372/494
f 370/497 373/498 372/494
f 371/492 372/494 276/500
f 372/494 275/501 276/500
f 372/494 373/498 275/501
f 373/498 272/502 275/501
f 374/505 375/504 376/503
f 375/504 377/506 376/503
f 378/508 379/507 375/504
f 379/507 377/506 375/504
f 376/503 380/509 374/505
f 380/509 381/510 374/505
f 379/507 378/508 382/511
f 378/508 383/512 382/511
f 380/509 384/513 381/510
f 384/513 385/514 381/510
f 386/516 382/511 387/515
f 382/511 383/512 387/515
f 388/518 389/517 384/513
f 389/517 385/514 384/513
f 388/520 386/516 389/519
f 386/516 387/515 389/519
f 390/505 391/504 392/503
f 391/504 393/506 392/503
f 394/508 395/507 391/504
f 395/507 393/506 391/504
f 392/503 396/509 390/505
f 396/509 397/510 390/505
f 395/507 394/508 398/511
f 394/508 399/512 398/511
f 396/509 400/513 397/510
f 400/513 401/514 397/510
f 402/516 398/511 403/515
f 398/511 399/512 403/515
f 404/518 405/517 400/513
f 405/517 401/514 400/513
f 404/520 402/516 405/519
f 402/516 403/515 405/519
f 406/494 407/498 323/501
f 407/498 324/502 323/501
f 408/492 406/494 322/500
f 406/494 323/501 322/500
f 409/491 410/497 406/494
f 410/497 407/498 406/494
f 411/493 409/491 408/492
f 409/491 406/494 408/492
f 412/494 331/501 413/498
f 413/498 331/501 329/502
f 414/492 332/500 412/494
f 412/494 332/500 331/501
f 415/495 416/499 409/491
f 409/491 416/499 410/497
f 417/496 415/495 411/493
f 411/493 415/495 409/491
f 415/495 418/491 416/499
f 418/491 419/497 416/499
f 418/491 412/494 419/497
f 412/494 413/498 419/497
f 417/496 420/493 415/495
f 420/493 418/491 415/495
f 420/493 414/492 418/491
f 414/492 412/494 418/491
f 421/505 422/504 423/503
f 422/504 424/506 423/503
f 425/508 426/507 422/504
f 426/507 424/506 422/504
f 423/503 427/509 421/505
f 427/509 428/510 421/505
f 426/507 425/508 429/511
f 425/508 430/512 429/511
f 427/509 431/513 428/510
f 431/513 432/514 428/510
f 433/516 429/511 434/515
f 429/511 430/512 434/515
f 435/518 436/517 431/513
f 436/517 432/514 431/513
f 435/520 433/516 436/519
f 433/516 434/515 436/519
usemtl texture9
f 437/523 438/522 439/521
f 440/522 441/523 442/521
f 365/525 366/524 438/522
f 366/524 439/526 438/522
f 438/522 443/527 365/525
f 443/527 367/528 365/525
f 440/522 370/525 443/527
f 443/527 370/525 367/528
f 437/523 444/529 438/522
f 444/529 443/527 438/522
f 268/532 269/531 366/530
f 439/533 366/530 269/531
f 441/523 440/522 444/529
f 444/529 440/522 443/527
f 370/525 440/522 373/524
f 373/524 440/522 442/534
f 269/536 271/535 439/521
f 271/535 437/523 439/521
f 270/537 444/529 271/535
f 444/529 437/523 271/535
f 270/537 274/535 444/529
f 444/529 274/535 441/523
f 273/536 442/521 274/535
f 274/535 442/521 441/523
f 272/532 373/530 273/531
f 442/533 273/531 373/530
f 445/522 446/523 447/521
f 448/523 449/522 450/521
f 324/532 407/530 326/531
f 447/533 326/531 407/530
f 326/536 447/521 327/535
f 327/535 447/521 446/523
f 325/537 327/535 451/529
f 451/529 327/535 446/523
f 325/537 451/529 330/535
f 451/529 448/523 330/535
f 328/536 330/535 450/521
f 330/535 448/523 450/521
f 410/525 445/522 407/524
f 407/524 445/522 447/534
f 446/523 445/522 451/529
f 451/529 445/522 452/527
f 329/532 328/531 413/530
f 450/533 413/530 328/531
f 448/523 451/529 449/522
f 451/529 452/527 449/522
f 445/522 410/525 452/527
f 452/527 410/525 416/528
f 449/522 452/527 419/525
f 452/527 416/528 419/525
f 419/525 413/524 449/522
f 413/524 450/526 449/522
usemtl texture10
f 453/540 454/539 455/538
f 454/542 453/540 456/541
f 457/545 454/544 458/543
f 454/544 457/545 455/544
f 453/540 455/538 459/546
f 460/543 455/544 457/545
f 456/541 453/540 459/546
f 461/545 455/544 460/543
f 455/544 461/545 459/544
f 462/543 459/544 461/545
f 463/545 464/543 465/544
f 466/543 463/545 467/544
f 467/544 463/545 465/544
f 465/542 468/541 469/540
f 469/540 467/538 465/539
f 470/545 466/543 467/544
f 468/541 471/546 469/540
f 469/540 471/546 467/538
f 472/543 470/545 471/544
f 471/544 470/545 467/544
f 473/545 458/543 456/547
f 458/543 454/548 456/547
f 473/545 456/547 462/543
f 456/547 459/544 462/543
f 474/545 468/547 464/543
f 464/543 468/547 465/548
f 474/545 472/543 468/547
f 472/543 471/544 468/547
f 475/551 476/550 477/549
f 478/551 475/551 479/552
f 479/552 475/551 480/551
f 478/551 476/550 475/551
f 481/550 475/551 477/549
f 480/551 478/551 479/552
f 475/551 481/550 480/551
f 476/550 478/551 282/549
f 480/551 482/550 478/551
f 483/549 480/551 481/550
f 282/549 478/551 482/550
f 482/550 480/551 483/549
f 484/549 485/550 486/551
f 485/550 289/549 487/551
f 484/549 486/551 488/550
f 486/551 485/550 487/551
f 489/550 487/551 289/549
f 490/551 488/550 486/551
f 486/551 487/551 491/552
f 490/551 492/549 488/550
f 487/551 489/550 490/551
f 490/551 486/551 491/552
f 487/551 490/551 491/552
f 490/551 489/550 492/549
f 493/551 494/550 495/549
f 496/551 493/551 497/552
f 497/552 493/551 498/551
f 496/551 494/550 493/551
f 499/550 493/551 495/549
f 498/551 496/551 497/552
f 493/551 499/550 498/551
f 494/550 496/551 302/549
f 498/551 500/550 496/551
f 501/549 498/551 499/550
f 302/549 496/551 500/550
f 500/550 498/551 501/549
f 502/549 503/550 504/551
f 503/550 311/549 505/551
f 502/549 504/551 506/550
f 504/551 503/550 505/551
f 507/550 505/551 311/549
f 508/551 506/550 504/551
f 504/551 505/551 509/552
f 508/551 510/549 506/550
f 505/551 507/550 508/551
f 508/551 504/551 509/552
f 505/551 508/551 509/552
f 508/551 507/550 510/549
f 511/544 512/545 513/544
f 514/543 512/545 511/544
f 515/540 511/546 513/538
f 516/541 511/546 515/540
f 512/545 517/543 513/544
f 515/540 513/538 518/539
f 518/542 516/541 515/540
f 513/544 519/545 518/544
f 517/543 519/545 513/544
f 519/545 520/543 518/544
f 521/543 522/544 523/545
f 524/544 523/545 522/544
f 523/545 524/544 525/543
f 526/541 527/540 522/546
f 525/543 524/544 528/545
f 527/540 524/538 522/546
f 529/544 528/545 524/544
f 528/545 529/544 530/543
f 529/542 527/540 526/541
f 527/540 529/539 524/538
f 531/545 514/543 516/547
f 514/543 511/544 516/547
f 531/545 516/547 520/543
f 520/543 516/547 518/548
f 532/545 526/547 521/543
f 526/547 522/544 521/543
f 532/545 530/543 526/547
f 530/543 529/548 526/547
f 533/551 534/550 535/549
f 536/551 533/551 537/552
f 537/552 533/551 538/551
f 536/551 534/550 533/551
f 539/550 533/551 535/549
f 538/551 536/551 537/552
f 533/551 539/550 538/551
f 534/550 536/551 338/549
f 538/551 540/550 536/551
f 541/549 538/551 539/550
f 338/549 536/551 540/550
f 540/550 538/551 541/549
f 542/549 543/550 544/551
f 543/550 355/549 545/551
f 542/549 544/551 546/550
f 544/551 543/550 545/551
f 547/550 545/551 355/549
f 548/551 546/550 544/551
f 544/551 545/551 549/552
f 548/551 550/549 546/550
f 545/551 547/550 548/551
f 548/551 544/551 549/552
f 545/551 548/551 549/552
f 548/551 547/550 550/549
usemtl texture11
f 551/555 375/554 374/553
f 378/554 552/555 383/553
f 381/558 385/557 553/556
f 389/557 387/558 554/556
f 277/561 279/560 551/559
f 279/560 555/562 551/559
f 551/565 552/564 375/563
f 375/563 552/564 378/566
f 556/559 557/562 558/561
f 557/562 559/560 558/561
f 555/562 279/560 552/559
f 279/560 283/561 552/559
f 553/556 551/555 381/558
f 381/558 551/555 374/553
f 560/559 561/561 562/562
f 561/561 563/560 562/562
f 564/559 565/561 566/562
f 565/561 567/560 566/562
f 552/555 554/556 383/553
f 383/553 554/556 387/558
f 553/559 568/562 285/561
f 568/562 569/560 285/561
f 570/559 571/562 572/561
f 571/562 573/560 572/561
f 554/569 553/568 389/567
f 389/567 553/568 385/570
f 568/562 554/559 569/560
f 554/559 295/561 569/560
f 574/555 391/554 390/553
f 394/554 575/555 399/553
f 397/558 401/557 576/556
f 405/557 403/558 577/556
f 578/561 579/560 580/559
f 579/560 581/562 580/559
f 574/565 575/564 391/563
f 391/563 575/564 394/566
f 582/559 583/562 584/561
f 583/562 585/560 584/561
f 586/562 299/560 575/559
f 299/560 309/561 575/559
f 576/556 574/555 397/558
f 397/558 574/555 390/553
f 587/559 588/561 589/562
f 588/561 590/560 589/562
f 591/559 592/561 593/562
f 592/561 594/560 593/562
f 575/555 577/556 399/553
f 399/553 577/556 403/558
f 576/559 595/562 312/561
f 595/562 313/560 312/561
f 596/559 597/562 598/561
f 597/562 599/560 598/561
f 577/569 576/568 405/567
f 405/567 576/568 401/570
f 595/562 577/559 313/560
f 577/559 319/561 313/560
f 600/555 422/554 421/553
f 425/554 601/555 430/553
f 428/558 432/557 602/556
f 436/557 434/558 603/556
f 333/561 335/560 600/559
f 335/560 604/562 600/559
f 600/565 601/564 422/563
f 422/563 601/564 425/566
f 605/559 606/562 607/561
f 606/562 608/560 607/561
f 604/562 335/560 601/559
f 335/560 339/561 601/559
f 602/556 600/555 428/558
f 428/558 600/555 421/553
f 609/559 610/561 611/562
f 610/561 612/560 611/562
f 613/559 614/561 615/562
f 614/561 616/560 615/562
f 601/555 603/556 430/553
f 430/553 603/556 434/558
f 602/559 617/562 348/561
f 617/562 349/560 348/561
f 618/559 619/562 620/561
f 619/562 621/560 620/561
f 603/569 602/568 436/567
f 436/567 602/568 432/570
f 617/562 603/559 349/560
f 603/559 622/561 349/560
usemtl texture12
f 294/573 284/572 286/571
f 284/572 278/574 286/571
f 305/572 298/574 320/573
f 320/573 298/574 307/571
f 357/573 340/572 350/571
f 340/572 334/574 350/571
g obj1
usemtl mat1
f 625/577 624/576 623/575
f 624/576 626/578 623/575
f 623/575 626/578 627/579
f 626/578 628/580 627/579
f 630/582 625/577 629/581
f 625/577 623/575 629/581
f 629/581 623/575 631/583
f 623/575 627/579 631/583
f 634/577 633/576 632/575
f 633/576 635/578 632/575
f 632/575 635/578 636/579
f 635/578 637/580 636/579
f 639/582 634/577 638/581
f 634/577 632/575 638/581
f 638/581 632/575 640/583
f 632/575 636/579 640/583
usemtl mat2
f 643/586 642/585 641/584
f 642/585 644/587 641/584
f 647/590 646/589 645/588
f 645/588 646/589 624/591
f 649/594 648/593 647/592
f 647/592 648/593 646/595
f 650/597 645/588 625/596
f 645/588 624/591 625/596
f 624/591 646/589 626/598
f 646/589 648/599 626/598
f 649/594 652/601 651/600
f 652/601 653/602 651/600
f 648/593 649/594 654/603
f 649/594 651/600 654/603
f 655/605 650/597 630/604
f 650/597 625/596 630/604
f 648/599 656/606 626/598
f 626/598 656/606 628/607
f 648/593 654/603 656/608
f 654/603 657/609 656/608
f 659/611 655/605 658/610
f 655/605 630/604 658/610
f 628/614 656/613 660/612
f 656/613 657/615 660/612
f 627/617 628/614 661/616
f 628/614 660/612 661/616
f 658/610 630/604 643/618
f 630/604 629/619 643/618
f 659/621 658/620 641/584
f 643/586 641/584 658/620
f 641/584 644/587 662/622
f 644/587 663/623 662/622
f 643/618 629/619 664/624
f 629/619 631/625 664/624
f 631/627 627/617 665/626
f 627/617 661/616 665/626
f 643/586 664/628 642/585
f 664/628 666/629 642/585
f 664/631 631/627 666/630
f 631/627 665/626 666/630
f 669/586 668/585 667/584
f 668/585 670/587 667/584
f 673/590 672/589 671/588
f 671/588 672/589 633/591
f 675/594 674/593 673/592
f 673/592 674/593 672/595
f 633/591 672/589 635/598
f 672/589 674/599 635/598
f 676/597 671/588 634/596
f 671/588 633/591 634/596
f 675/594 678/601 677/600
f 678/601 679/602 677/600
f 674/593 675/594 680/603
f 675/594 677/600 680/603
f 674/599 681/606 635/598
f 635/598 681/606 637/607
f 674/593 680/603 681/608
f 680/603 682/609 681/608
f 683/605 676/597 639/604
f 676/597 634/596 639/604
f 637/614 681/613 684/612
f 681/613 682/615 684/612
f 686/611 683/605 685/610
f 683/605 639/604 685/610
f 636/617 637/614 687/616
f 637/614 684/612 687/616
f 685/610 639/604 669/618
f 639/604 638/619 669/618
f 686/621 685/620 667/584
f 669/586 667/584 685/620
f 667/584 670/587 688/622
f 670/587 689/623 688/622
f 640/627 636/617 690/626
f 636/617 687/616 690/626
f 669/618 638/619 691/624
f 638/619 640/625 691/624
f 669/586 691/628 668/585
f 691/628 692/629 668/585
f 691/631 640/627 692/630
f 640/627 690/626 692/630
usemtl mat3
f 695/634 694/633 693/632
f 694/633 696/635 693/632
f 699/634 698/633 697/632
f 698/633 700/635 697/632
f 703/638 702/637 701/636
f 702/637 704/639 701/636
f 707/638 706/637 705/636
f 706/637 708/639 705/636
f 711/634 710/633 709/632
f 710/633 712/635 709/632
f 715/641 714/640 713/632
f 714/640 716/635 713/632
f 719/638 718/637 717/636
f 718/637 720/639 717/636
f 723/643 722/642 721/636
f 722/642 724/639 721/636
f 694/633 725/644 696/635
f 725/644 726/645 696/635
f 698/633 727/644 700/635
f 727/644 728/645 700/635
f 730/647 703/638 729/646
f 703/638 701/636 729/646
f 732/647 707/638 731/646
f 707/638 705/636 731/646
f 710/633 733/644 712/635
f 733/644 734/645 712/635
f 714/640 735/648 716/635
f 735/648 736/645 716/635
f 738/647 719/638 737/646
f 719/638 717/636 737/646
f 740/649 723/643 739/646
f 723/643 721/636 739/646
f 742/651 741/650 725/644
f 725/644 741/650 726/645
f 727/644 743/651 728/645
f 743/651 744/650 728/645
f 746/653 732/647 745/652
f 732/647 731/646 745/652
f 748/653 730/647 747/652
f 730/647 729/646 747/652
f 742/651 746/653 741/650
f 746/653 745/652 741/650
f 748/653 747/652 743/651
f 743/651 747/652 744/650
f 733/644 749/651 734/645
f 749/651 750/650 734/645
f 735/648 751/654 736/645
f 751/654 752/650 736/645
f 754/653 738/647 753/652
f 738/647 737/646 753/652
f 756/655 740/649 755/652
f 740/649 739/646 755/652
f 749/651 754/653 750/650
f 754/653 753/652 750/650
f 751/654 756/655 752/650
f 756/655 755/652 752/650
f 702/658 699/657 704/656
f 699/657 697/659 704/656
f 695/657 693/659 706/658
f 706/658 693/659 708/656
f 718/658 711/657 720/656
f 711/657 709/659 720/656
f 722/658 715/657 724/656
f 715/657 713/659 724/656
usemtl mat4
f 759/662 758/661 757/660
f 757/660 758/661 760/663
f 763/666 762/665 761/664
f 762/665 764/667 761/664
f 766/669 759/662 765/668
f 765/668 759/662 757/660
f 768/671 767/670 763/666
f 767/670 762/665 763/666
f 770/673 769/672 765/668
f 765/668 769/672 766/669
f 768/671 771/674 767/670
f 771/674 772/675 767/670
usemtl mat5
f 700/678 694/677 697/676
f 697/676 694/677 695/679
f 701/682 704/681 707/680
f 704/681 706/683 707/680
f 709/676 712/678 715/679
f 712/678 714/677 715/679
f 717/682 720/681 723/680
f 720/681 722/683 723/680
f 728/685 725/684 700/678
f 700/678 725/684 694/677
f 729/687 701/682 732/686
f 701/682 707/680 732/686
f 712/678 734/685 714/677
f 734/685 735/684 714/677
f 737/687 717/682 740/686
f 717/682 723/680 740/686
f 744/689 742/688 728/685
f 728/685 742/688 725/684
f 747/691 729/687 746/690
f 729/687 732/686 746/690
f 744/689 747/691 742/688
f 747/691 746/690 742/688
f 734/685 750/689 735/684
f 750/689 751/688 735/684
f 753/691 737/687 756/690
f 737/687 740/686 756/690
f 750/689 753/691 751/688
f 753/691 756/690 751/688
f 704/658 697/692 706/656
f 697/692 695/693 706/656
f 720/658 709/692 722/656
f 709/692 715/693 722/656
usemtl mat6
f 775/696 774/695 773/694
f 774/695 776/697 773/694
f 778/699 774/695 777/698
f 777/698 774/695 775/696
f 774/695 779/700 776/697
f 779/700 780/701 776/697
f 779/700 774/695 781/702
f 774/695 778/699 781/702
f 784/705 783/704 782/703
f 783/704 785/706 782/703
f 787/698 783/704 786/702
f 786/702 783/704 784/705
f 779/700 781/702 788/707
f 781/702 789/708 788/707
f 779/700 788/707 780/701
f 788/707 790/709 780/701
f 784/705 782/703 791/710
f 791/710 782/703 792/711
f 793/712 786/702 791/710
f 786/702 784/705 791/710
f 795/710 794/713 788/707
f 788/707 794/713 790/709
f 789/708 796/714 788/707
f 788/707 796/714 795/710
f 799/717 798/716 797/715
f 797/715 798/716 800/718
f 799/717 797/715 801/719
f 797/715 802/720 801/719
f 805/723 804/722 803/721
f 803/721 804/722 806/713
f 808/725 807/724 803/721
f 807/724 805/723 803/721
f 810/727 797/715 809/726
f 797/715 800/718 809/726
f 811/728 802/720 810/727
f 802/720 797/715 810/727
f 805/723 812/704 804/722
f 812/704 813/729 804/722
f 814/730 812/704 807/724
f 807/724 812/704 805/723
f 816/732 810/727 815/731
f 810/727 809/726 815/731
f 817/733 811/728 816/732
f 811/728 810/727 816/732
f 819/710 816/732 818/713
f 816/732 815/731 818/713
f 817/733 816/732 820/725
f 816/732 819/710 820/725
f 775/736 773/735 821/734
f 821/734 773/735 822/737
f 821/734 823/738 775/736
f 775/736 823/738 777/739
f 795/742 824/741 794/740
f 824/741 825/743 794/740
f 824/741 795/742 826/738
f 826/738 795/742 796/739
f 799/745 827/744 798/735
f 827/744 828/746 798/735
f 827/744 799/745 829/747
f 799/745 801/739 829/747
f 819/750 818/749 830/748
f 830/748 818/749 831/751
f 830/748 832/752 819/750
f 819/750 832/752 820/753
usemtl mat7
f 834/756 833/755 821/754
f 833/755 823/757 821/754
f 787/760 835/759 783/758
f 835/759 836/761 783/758
f 793/764 791/763 837/762
f 837/762 791/763 838/765
f 826/768 839/767 824/766
f 839/767 840/769 824/766
f 834/756 841/770 833/755
f 841/770 842/771 833/755
f 835/759 843/772 836/761
f 843/772 844/773 836/761
f 846/775 837/762 845/774
f 837/762 838/765 845/774
f 848/777 847/776 839/767
f 847/776 840/769 839/767
f 841/770 827/778 842/771
f 827/778 829/779 842/771
f 808/781 803/780 843/772
f 843/772 803/780 844/773
f 845/774 812/782 846/775
f 814/783 846/775 812/782
f 847/776 848/777 830/784
f 848/777 832/785 830/784
usemtl mat8
f 787/788 778/787 823/786
f 823/786 778/787 777/789
f 773/792 776/791 822/790
f 776/791 785/793 822/790
f 785/793 776/791 782/794
f 776/791 780/795 782/794
f 786/797 781/796 787/788
f 781/796 778/787 787/788
f 780/795 790/798 782/794
f 782/794 790/798 792/799
f 789/801 781/796 793/800
f 781/796 786/797 793/800
f 825/803 792/799 794/802
f 792/799 790/798 794/802
f 793/800 826/804 789/801
f 826/804 796/805 789/801
f 828/808 806/807 798/806
f 806/807 800/809 798/806
f 801/812 802/811 829/810
f 802/811 808/813 829/810
f 806/807 804/814 800/809
f 809/815 800/809 804/814
f 807/817 808/813 811/816
f 808/813 802/811 811/816
f 817/819 814/818 811/816
f 814/818 807/817 811/816
f 815/821 809/815 813/820
f 809/815 804/814 813/820
f 820/823 832/822 817/819
f 817/819 832/822 814/818
f 815/821 813/820 818/824
f 813/820 831/825 818/824
usemtl mat9
f 787/658 823/692 702/826
f 823/692 699/827 702/826
f 833/830 698/829 823/828
f 823/828 698/829 699/831
f 835/834 787/833 703/832
f 787/833 702/835 703/832
f 793/692 711/827 826/658
f 826/658 711/827 718/826
f 793/838 837/837 711/836
f 837/837 710/839 711/836
f 839/842 826/841 719/840
f 826/841 718/843 719/840
f 833/830 842/844 698/829
f 842/844 727/845 698/829
f 843/847 835/834 730/846
f 835/834 703/832 730/846
f 837/837 846/848 710/839
f 846/848 733/849 710/839
f 848/851 839/842 738/850
f 839/842 719/840 738/850
f 842/844 829/852 727/845
f 829/852 743/853 727/845
f 808/855 843/847 748/854
f 843/847 730/846 748/854
f 808/855 748/854 829/852
f 829/852 748/854 743/853
f 846/848 814/856 733/849
f 814/856 749/857 733/849
f 848/851 738/850 832/858
f 832/858 738/850 754/859
f 754/859 749/857 832/858
f 814/856 832/858 749/857
usemtl mat10
f 836/862 834/861 783/860
f 834/861 821/863 783/860
f 838/866 791/865 840/864
f 840/864 791/865 824/867
f 836/862 844/868 834/861
f 834/861 844/868 841/869
f 845/871 838/866 847/870
f 847/870 838/866 840/864
f 827/873 841/869 803/872
f 803/872 841/869 844/868
f 830/875 812/874 847/870
f 812/874 845/871 847/870
usemtl mat11
f 758/656 708/658 760/693
f 708/658 693/692 760/693
f 693/878 696/877 760/876
f 696/877 757/879 760/876
f 708/882 758/881 705/880
f 705/880 758/881 759/883
f 724/658 713/692 764/656
f 713/692 761/693 764/656
f 713/878 716/877 761/876
f 716/877 763/879 761/876
f 724/882 764/881 721/880
f 721/880 764/881 762/883
f 726/885 765/884 696/877
f 696/877 765/884 757/879
f 731/887 705/880 766/886
f 705/880 759/883 766/886
f 716/877 736/885 763/879
f 736/885 768/884 763/879
f 739/887 721/880 767/886
f 721/880 762/883 767/886
f 765/884 726/885 770/888
f 726/885 741/889 770/888
f 745/891 731/887 769/890
f 731/887 766/886 769/890
f 741/889 745/891 770/888
f 745/891 769/890 770/888
f 752/889 771/888 736/885
f 736/885 771/888 768/884
f 755/891 739/887 772/890
f 739/887 767/886 772/890
f 752/889 755/891 771/888
f 755/891 772/890 771/888
usemtl mat12
f 821/894 822/893 783/892
f 783/892 822/893 785/895
f 824/892 791/894 825/895
f 791/894 792/893 825/895
f 827/892 803/894 828/895
f 803/894 806/893 828/895
f 830/894 831/893 812/892
f 812/892 831/893 813/895
usemtl mat13
f 851/898 850/897 849/896
f 850/897 852/899 849/896
f 852/899 850/897 853/900
f 850/897 854/901 853/900
f 853/900 854/901 855/902
f 854/901 856/903 855/902
f 858/905 855/902 857/904
f 855/902 856/903 857/904
f 861/908 860/907 859/906
f 860/907 862/909 859/906
f 864/911 862/909 863/910
f 862/909 860/907 863/910
f 866/913 864/911 865/912
f 864/911 863/910 865/912
f 866/913 865/912 867/914
f 865/912 868/915 867/914
f 870/918 869/917 850/916
f 869/917 854/919 850/916
f 872/922 871/921 853/920
f 871/921 852/923 853/920
f 869/917 873/924 854/919
f 873/924 856/925 854/919
f 874/927 872/922 855/926
f 872/922 853/920 855/926
f 876/930 875/929 860/928
f 875/929 863/931 860/928
f 878/922 877/933 864/932
f 877/933 862/934 864/932
f 875/929 879/935 863/931
f 879/935 865/936 863/931
f 880/938 878/922 866/937
f 878/922 864/932 866/937
usemtl texture13
f 871/941 881/940 852/939
f 881/940 849/942 852/939
f 882/945 874/944 858/943
f 874/944 855/946 858/943
f 883/949 876/948 861/947
f 876/948 860/950 861/947
f 879/953 884/952 865/951
f 884/952 868/954 865/951
usemtl texture14
f 887/957 886/956 885/955
f 886/956 888/958 885/955
f 891/961 890/960 889/959
f 890/960 892/962 889/959
f 894/964 893/963 887/957
f 893/963 886/956 887/957
f 896/966 895/965 891/961
f 895/965 890/960 891/961
f 894/964 897/967 893/963
f 897/967 898/968 893/963
f 896/966 899/969 895/965
f 899/969 900/970 895/965
f 903/973 902/972 901/971
f 902/972 888/974 901/971
f 904/976 903/973 889/975
f 903/973 901/971 889/975
f 906/978 898/306 905/977
f 898/306 907/979 905/977
f 899/981 906/978 908/980
f 906/978 905/977 908/980
usemtl texture15
f 909/984 870/983 851/982
f 870/983 850/985 851/982
f 910/987 902/986 909/984
f 902/986 870/983 909/984
f 881/989 909/984 849/988
f 909/984 851/982 849/988
f 909/984 881/989 910/987
f 881/989 885/990 910/987
f 873/993 911/992 856/991
f 911/992 857/994 856/991
f 873/993 904/995 911/992
f 904/995 912/996 911/992
f 911/992 882/997 857/994
f 882/997 858/998 857/994
f 892/999 882/997 912/996
f 882/997 911/992 912/996
f 913/1002 883/1001 859/1000
f 883/1001 861/1003 859/1000
f 883/1001 913/1002 897/1004
f 913/1002 914/1005 897/1004
f 877/1007 913/1002 862/1006
f 913/1002 859/1000 862/1006
f 913/1002 877/1007 914/1005
f 877/1007 907/1008 914/1005
f 884/1011 915/1010 868/1009
f 915/1010 867/1012 868/1009
f 915/1010 884/1011 916/1013
f 884/1011 900/1014 916/1013
f 915/1010 880/1015 867/1012
f 880/1015 866/1016 867/1012
f 908/1017 880/1015 916/1013
f 880/1015 915/1010 916/1013
f 885/1020 888/1019 910/1018
f 888/1019 902/1021 910/1018
f 889/1019 892/1020 904/1021
f 892/1020 912/1018 904/1021
f 907/1019 898/1021 914/1020
f 914/1020 898/1021 897/1018
f 908/1020 916/1019 899/1018
f 916/1019 900/1021 899/1018
usemtl texture16
f 918/1024 917/1023 871/1022
f 917/1023 881/1025 871/1022
f 919/1027 918/1024 872/1026
f 918/1024 871/1022 872/1026
f 901/1030 888/1029 920/1028
f 888/1029 886/1031 920/1028
f 889/1033 901/1030 891/1032
f 901/1030 920/1028 891/1032
f 921/1035 919/1027 874/1034
f 919/1027 872/1026 874/1034
f 922/1037 921/1035 882/1036
f 921/1035 874/1034 882/1036
f 917/1023 918/1024 923/1038
f 918/1024 924/1039 923/1038
f 924/1039 918/1024 925/1040
f 918/1024 919/1027 925/1040
f 886/1031 893/1041 920/1028
f 893/1041 926/1042 920/1028
f 925/1040 919/1027 927/1043
f 919/1027 921/1035 927/1043
f 920/1028 926/1042 891/1032
f 926/1042 896/1044 891/1032
f 928/1045 927/1043 922/1037
f 927/1043 921/1035 922/1037
f 876/1047 883/1046 924/1039
f 883/1046 923/1038 924/1039
f 876/1047 924/1039 875/1048
f 924/1039 925/1040 875/1048
f 926/1042 893/1041 906/1049
f 893/1041 898/1050 906/1049
f 875/1048 925/1040 879/1051
f 925/1040 927/1043 879/1051
f 896/1044 926/1042 899/1052
f 926/1042 906/1049 899/1052
f 884/1053 879/1051 928/1045
f 879/1051 927/1043 928/1045
usemtl texture17
f 869/1056 870/1055 903/1054
f 870/1055 902/1057 903/1054
f 869/1056 903/1054 873/1058
f 903/1054 904/1059 873/1058
f 905/1062 907/1061 878/1060
f 907/1061 877/1063 878/1060
f 908/1065 905/1062 880/1064
f 905/1062 878/1060 880/1064
f 917/1068 887/1067 881/1066
f 887/1067 885/1069 881/1066
f 892/1072 890/1071 882/1070
f 890/1071 922/1073 882/1070
f 917/1068 923/1074 887/1067
f 923/1074 894/1075 887/1067
f 895/1077 928/1076 890/1071
f 928/1076 922/1073 890/1071
f 883/1079 897/1078 923/1074
f 897/1078 894/1075 923/1074
f 895/1077 900/1080 928/1076
f 900/1080 884/1081 928/1076
g obj2
usemtl mat14
f 929/1084 930/1083 931/1082
f 931/1082 930/1083 932/1085
f 930/1083 933/1086 932/1085
f 932/1085 933/1086 934/1087
f 935/1089 936/1088 929/1084
f 929/1084 936/1088 930/1083
f 936/1088 937/1090 930/1083
f 930/1083 937/1090 933/1086
f 938/1092 939/1091 935/1089
f 935/1089 939/1091 936/1088
f 939/1091 940/1093 936/1088
f 936/1088 940/1093 937/1090
f 941/1095 942/1094 938/1092
f 938/1092 942/1094 939/1091
f 942/1094 943/1096 939/1091
f 939/1091 943/1096 940/1093
f 944/1099 945/1098 946/1097
f 945/1098 947/1100 946/1097
f 946/1097 947/1100 948/1101
f 947/1100 949/1102 948/1101
f 950/1104 944/1099 951/1103
f 944/1099 946/1097 951/1103
f 951/1103 946/1097 952/1105
f 946/1097 948/1101 952/1105
f 953/1099 954/1098 955/1097
f 954/1098 956/1100 955/1097
f 955/1097 956/1100 957/1101
f 956/1100 958/1102 957/1101
f 959/1104 953/1099 960/1103
f 953/1099 955/1097 960/1103
f 960/1103 955/1097 961/1105
f 955/1097 957/1101 961/1105
f 962/1099 963/1098 964/1097
f 963/1098 965/1100 964/1097
f 964/1097 965/1100 966/1101
f 965/1100 967/1102 966/1101
f 968/1104 962/1099 969/1103
f 962/1099 964/1097 969/1103
f 969/1103 964/1097 970/1105
f 964/1097 966/1101 970/1105
f 971/1099 972/1098 973/1097
f 972/1098 974/1100 973/1097
f 973/1097 974/1100 975/1101
f 974/1100 976/1102 975/1101
f 977/1104 971/1099 978/1103
f 971/1099 973/1097 978/1103
f 978/1103 973/1097 979/1105
f 973/1097 975/1101 979/1105
# 1506 elements

