# Created by Metasequoia

mtllib Mad_express3.mtl

v 1879.178345 21.537300 -4323.630859
v 1878.151978 14.000000 -4321.470703
v 1895.071533 14.000000 -4357.715820
v 1880.688843 24.049700 -4326.853027
v 1882.651733 54.072189 -4331.058105
v 1895.091431 66.557503 -4357.706543
v 1886.782837 64.079613 -4339.908203
v 1909.494141 24.049700 -4388.560059
v 1907.531250 54.072189 -4384.355469
v 1903.400024 64.079613 -4375.505371
v 1910.994507 21.537300 -4391.787109
v 1911.991211 14.000000 -4393.961426
v 1962.897095 56.928612 -4292.920898
v 1976.928833 65.794807 -4293.018066
v 1975.596802 56.928539 -4320.125977
v 1987.080688 65.794739 -4314.765137
v 1994.315674 56.922699 -4278.254883
v 1996.863647 65.794823 -4283.712891
v 1988.296387 56.928680 -4347.331543
v 1997.232422 65.794868 -4336.512207
v 2019.714844 56.922741 -4332.664551
v 2017.167236 65.794838 -4327.207031
v 2024.810913 56.928581 -4264.019531
v 2015.875000 65.794777 -4274.837891
v 2037.510498 56.928570 -4291.224609
v 2026.026855 65.794792 -4296.584961
v 2050.210205 56.928581 -4318.429688
v 2036.178711 65.794777 -4318.332520
v 2035.387695 56.928612 -4259.081543
v 2049.419189 65.794807 -4259.178711
v 2048.087402 56.928589 -4286.286621
v 2059.570801 65.794853 -4280.926270
v 2066.806152 56.922649 -4244.415039
v 2069.354248 65.794792 -4249.873047
v 2060.786621 56.928589 -4313.491699
v 2069.722656 65.794746 -4302.673340
v 2060.786621 56.928440 -4313.491211
v 2092.205322 56.922440 -4298.824707
v 2089.657471 65.794708 -4293.367188
v 2097.301758 56.928589 -4230.179688
v 2088.365723 65.794807 -4240.998535
v 2110.001221 56.928570 -4257.384766
v 2098.517578 65.794792 -4262.745605
v 2122.700928 56.928650 -4284.589844
v 2092.205811 56.922840 -4298.825684
v 2108.669189 65.794838 -4284.492676
v 2089.657959 65.795036 -4293.368164
v 2118.052979 16.000240 -4253.625977
v 2101.133301 16.000240 -4217.380371
v 2102.130127 23.537540 -4219.554688
v 2103.630371 26.049950 -4222.781738
v 2118.033203 68.557739 -4253.635254
v 2105.593262 56.072441 -4226.986328
v 2109.724609 66.079849 -4235.836426
v 2130.472900 56.072441 -4280.283691
v 2132.435791 26.049950 -4284.488770
v 2126.341797 66.079849 -4271.433594
v 2133.946045 23.537540 -4287.710938
v 2134.972656 16.000240 -4289.871094
v 1890.406494 56.928539 -4326.760742
v 1904.437988 65.794983 -4326.856934
v 1903.106079 56.928539 -4353.965332
v 1914.589844 65.794739 -4348.604492
v 1890.406006 56.929241 -4326.759277
v 1921.824585 56.923241 -4312.092285
v 1924.372437 65.795441 -4317.550293
v 1915.805664 56.928539 -4381.170410
v 1924.741699 65.794708 -4370.351563
v 1915.805908 56.928440 -4381.170898
v 1947.224365 56.922440 -4366.503906
v 1944.676392 65.794739 -4361.045898
v 1952.320435 56.928440 -4297.857910
v 1943.384399 65.794708 -4308.676758
v 1921.825195 56.922440 -4312.093262
v 1924.372925 65.794708 -4317.551270
v 1952.320435 56.928539 -4297.857422
v 1965.019897 56.928539 -4325.062988
v 1953.536133 65.794739 -4330.423828
v 1977.719360 56.928539 -4352.268066
v 1947.224243 56.922649 -4366.503418
v 1963.687988 65.794777 -4352.170898
v 1828.070190 14.000000 -4388.992676
v 1822.458618 14.000000 -4366.702148
v 1830.760010 21.537300 -4387.737305
v 1826.921265 21.537300 -4366.863770
v 1828.461792 14.000000 -4344.666504
v 1832.800415 21.537300 -4345.280273
v 1834.022949 24.049700 -4386.213867
v 1831.120728 24.049700 -4366.843262
v 1837.447021 24.049700 -4347.038574
v 1841.554077 14.000000 -4407.608398
v 1844.296021 21.537300 -4404.083984
v 1847.008423 24.049700 -4400.877930
v 1862.301147 14.000000 -4417.156738
v 1864.616333 21.537300 -4413.437012
v 1866.252319 24.049700 -4408.745605
v 1880.688721 24.049700 -4326.853027
v 1965.005859 26.000139 -4280.926270
v 1960.345825 26.000139 -4294.138184
v 1965.005859 16.000240 -4280.926270
v 1960.345825 16.000240 -4294.138184
v 1985.725220 26.000139 -4348.505371
v 1985.725220 16.000240 -4348.505371
v 2014.262207 16.000240 -4257.933594
v 2014.262207 26.000139 -4257.933594
v 1998.845337 16.000240 -4353.417480
v 1998.845337 26.000139 -4353.417480
v 2027.399536 16.000240 -4262.836914
v 2027.399536 26.000139 -4262.836914
v 2048.101318 16.000240 -4330.424316
v 2048.101318 26.000139 -4330.424316
v 2052.779053 16.000240 -4317.204590
v 2052.779053 26.000139 -4317.204590
v 2037.496460 26.000139 -4247.086914
v 2032.836426 26.000139 -4260.298340
v 2037.496460 16.000240 -4247.086914
v 2032.836426 16.000240 -4260.298340
v 2058.215820 26.000139 -4314.666504
v 2058.215820 16.000240 -4314.666504
v 2086.752686 16.000240 -4224.093750
v 2086.752686 26.000139 -4224.093750
v 2071.335693 16.000240 -4319.577637
v 2071.335693 26.000139 -4319.577637
v 2099.890137 16.000240 -4228.997070
v 2099.890137 26.000139 -4228.997070
v 2120.592041 16.000240 -4296.584473
v 2120.592041 26.000139 -4296.584473
v 2125.269531 16.000240 -4283.365234
v 2125.269531 26.000139 -4283.365234
v 2148.508057 23.537540 -4197.904785
v 2146.872314 26.049940 -4202.596191
v 2150.823486 16.000240 -4194.184570
v 2180.324219 23.537540 -4266.061523
v 2175.677490 26.049940 -4264.303223
v 2168.828369 23.537540 -4207.257813
v 2166.116211 26.049940 -4210.463867
v 2184.662842 16.000240 -4266.675293
v 2171.570557 16.000240 -4203.733398
v 2182.364502 23.537540 -4223.604492
v 2179.101563 26.049940 -4225.127930
v 2185.054443 16.000240 -4222.349121
v 2186.203125 23.537540 -4244.478027
v 2182.003906 26.049940 -4244.498535
v 2190.666016 16.000240 -4244.639648
v 1892.515137 26.000139 -4314.765625
v 1887.854980 26.000139 -4327.976563
v 1892.515137 16.000240 -4314.765625
v 1887.854980 16.000240 -4327.976563
v 1913.234375 26.000139 -4382.344727
v 1913.234375 16.000240 -4382.344727
v 1941.771484 16.000240 -4291.771973
v 1941.771484 26.000139 -4291.771973
v 1926.354492 16.000240 -4387.256348
v 1926.354492 26.000139 -4387.256348
v 1954.908691 16.000240 -4296.675293
v 1954.908691 26.000139 -4296.675293
v 1975.610840 16.000240 -4364.262695
v 1975.610840 26.000139 -4364.262695
v 1980.288330 16.000240 -4351.043457
v 1980.288330 26.000139 -4351.043457
v 1856.441040 64.079613 -4354.071777
v 1843.758545 54.072201 -4359.596191
v 1846.328247 54.072201 -4351.039063
v 1860.679077 54.072201 -4395.843262
v 1873.058228 64.079613 -4389.668945
v 1868.888916 54.072201 -4399.368652
v 1847.048706 54.072201 -4380.133301
v 1854.189819 64.792198 -4376.799805
v 1860.678955 54.072201 -4395.843262
v 1882.651611 54.072201 -4331.058105
v 2152.445557 56.072441 -4215.498047
v 2140.066162 66.079849 -4221.672852
v 2144.235596 56.072441 -4211.973145
v 2156.683594 66.079849 -4257.270020
v 2169.365967 56.072441 -4251.745605
v 2166.796387 56.072441 -4260.302734
v 2158.934814 66.792442 -4234.541992
v 2166.075928 56.072441 -4231.208496
v 1845.449585 80.890602 -4329.400391
v 1855.015991 60.812691 -4332.261719
v 1856.889771 53.990799 -4324.854980
v 1850.497437 42.813702 -4345.747070
v 1852.976685 54.072201 -4347.557617
v 1860.227905 63.086700 -4332.005859
v 1858.509033 39.060902 -4339.845703
v 1863.770752 60.812691 -4328.174805
v 1868.112671 42.813702 -4336.021484
v 1869.148193 54.072201 -4337.739746
v 1875.623047 42.813702 -4399.570801
v 1875.827148 54.072201 -4396.507813
v 1888.862061 60.812691 -4404.767090
v 1885.291382 39.060902 -4397.219238
v 1895.743042 53.990799 -4408.086426
v 1892.404907 63.086700 -4400.935547
v 1884.912231 80.890602 -4413.937500
v 1897.616821 60.812691 -4400.680176
v 1894.390259 42.813702 -4392.313477
v 1893.737915 54.072201 -4390.416016
v 1864.623413 59.075901 -4345.619141
v 1884.792114 59.075901 -4388.824219
v 1986.057495 63.186440 -4271.500488
v 1988.306152 61.011749 -4284.293457
v 1987.066772 56.928539 -4281.638672
v 1992.563843 69.621948 -4274.501953
v 1988.410034 78.546341 -4265.603516
v 1994.315796 50.635448 -4278.254883
v 1994.441528 63.186440 -4267.586426
v 2002.804199 61.011749 -4277.525879
v 2001.564941 56.928539 -4274.871094
v 2012.466064 56.928539 -4336.048828
v 2011.226685 61.011749 -4333.393555
v 2019.589478 63.186440 -4343.332520
v 2021.467041 69.621948 -4336.417969
v 2019.714966 50.635448 -4332.665039
v 2025.724731 61.011749 -4326.625977
v 2021.466919 69.621948 -4336.417969
v 2025.620728 78.546341 -4345.316406
v 2027.973389 63.186440 -4339.418457
v 2027.973511 63.186440 -4339.418457
v 2026.964111 56.928539 -4329.281250
v 2058.547852 63.186440 -4237.660645
v 2060.796631 61.011749 -4250.454102
v 2059.557373 56.928539 -4247.799316
v 2065.054443 69.621948 -4240.662109
v 2060.900635 78.546341 -4231.763672
v 2066.806396 50.635448 -4244.415039
v 2066.931885 63.186440 -4233.746582
v 2075.294922 61.011749 -4243.686035
v 2074.055420 56.928539 -4241.031250
v 2084.956543 56.928539 -4302.209473
v 2083.717285 61.011749 -4299.554199
v 2092.079834 63.186440 -4309.492676
v 2093.957275 69.621948 -4302.578613
v 2092.205566 50.635448 -4298.825195
v 2098.215332 61.011749 -4292.786621
v 2098.111328 78.546341 -4311.476563
v 2100.464111 63.186440 -4305.579590
v 2099.454590 56.928539 -4295.441406
v 2115.507813 62.812939 -4210.661621
v 2118.734375 44.813950 -4219.028320
v 2117.381592 55.991039 -4203.254395
v 2119.386475 56.072441 -4220.925781
v 2128.212158 82.890846 -4197.404297
v 2127.833008 41.061138 -4214.122559
v 2120.719727 65.086937 -4210.405762
v 2124.262451 62.812939 -4206.574707
v 2137.501465 44.813950 -4211.770508
v 2137.297363 56.072441 -4214.833984
v 2143.976318 56.072441 -4273.602051
v 2149.353760 62.812939 -4283.166992
v 2145.011963 44.813950 -4275.320801
v 2156.234619 55.991039 -4286.486816
v 2154.615479 41.061138 -4271.496094
v 2152.896729 65.086937 -4279.335938
v 2167.675049 82.890846 -4281.941406
v 2162.626953 44.813950 -4265.594727
v 2158.108398 62.812939 -4279.080078
v 2160.147949 56.072441 -4263.784180
v 2128.332520 61.076149 -4222.517090
v 2148.500977 61.076149 -4265.722656
v 1913.566772 63.186440 -4305.339355
v 1915.815308 61.011749 -4318.132324
v 1914.576172 56.928539 -4315.477539
v 1920.073120 69.621948 -4308.340332
v 1915.919312 78.546341 -4299.441895
v 1921.825073 50.635448 -4312.093262
v 1921.950806 63.186440 -4301.425781
v 1930.313477 61.011749 -4311.364258
v 1929.074219 56.928539 -4308.709473
v 1939.975220 56.928539 -4369.887695
v 1938.735962 61.011749 -4367.232910
v 1947.098633 63.186440 -4377.171387
v 1948.976440 69.621948 -4370.257324
v 1947.224243 50.635448 -4366.503418
v 1953.234009 61.011749 -4360.464844
v 1953.129883 78.546341 -4379.154785
v 1955.482788 63.186440 -4373.257813
v 1954.473267 56.928539 -4363.119629
v 1962.897217 31.402040 -4292.920898
v 1988.296387 31.402040 -4347.331543
v 2024.810913 31.402040 -4264.019531
v 2050.210449 31.402040 -4318.429688
v 1975.596680 31.402040 -4320.125977
v 1962.906128 31.401939 -4292.940430
v 1994.324829 31.401939 -4278.274414
v 1962.906128 56.928539 -4292.940430
v 1994.324829 56.922539 -4278.274414
v 1988.297363 31.402149 -4347.333008
v 1988.297363 56.928749 -4347.333008
v 2019.716187 31.402149 -4332.666992
v 2019.716064 56.922741 -4332.666992
v 2024.786499 31.402040 -4263.967285
v 2024.786377 56.928539 -4263.967285
v 1994.291138 31.402040 -4278.202637
v 1994.291138 56.922539 -4278.202148
v 2037.510498 31.402040 -4291.224609
v 2050.231201 31.402149 -4318.474121
v 2019.736328 31.402149 -4332.710449
v 2050.231201 56.928749 -4318.474121
v 2019.736572 56.922741 -4332.710938
v 2035.387695 31.402040 -4259.081543
v 2060.786865 31.402040 -4313.491699
v 2097.301758 31.402040 -4230.179688
v 2122.700928 31.402020 -4284.589844
v 2048.087402 31.402040 -4286.286133
v 2035.390381 31.401939 -4259.087402
v 2066.809082 31.401939 -4244.420898
v 2035.390381 56.928440 -4259.087402
v 2066.809082 56.922440 -4244.420898
v 2060.790283 31.402149 -4313.498535
v 2060.790283 56.928749 -4313.498535
v 2092.208740 31.402149 -4298.832031
v 2092.208740 56.922741 -4298.832031
v 2066.806152 31.402040 -4244.415039
v 2110.000977 31.401991 -4257.384766
v 2122.696289 31.401939 -4284.580078
v 2092.200928 31.401939 -4298.815430
v 2122.696289 56.928440 -4284.580078
v 2092.200928 56.922539 -4298.815430
v 1890.406372 31.402040 -4326.760254
v 1915.805664 31.402040 -4381.170410
v 1952.320313 31.402040 -4297.857910
v 1977.719482 31.402040 -4352.268066
v 1903.105957 31.402040 -4353.965820
v 1890.407471 31.402040 -4326.762695
v 1921.825806 31.401991 -4312.094727
v 1890.407471 56.928539 -4326.762695
v 1921.825806 56.922539 -4312.094727
v 1915.804199 31.401939 -4381.167480
v 1915.804199 56.928539 -4381.167480
v 1947.222656 31.401939 -4366.500488
v 1947.222656 56.922539 -4366.500488
v 1952.320801 31.401939 -4297.858887
v 1952.320801 56.928539 -4297.858887
v 1965.019897 31.402040 -4325.063477
v 1977.726440 31.402149 -4352.283203
v 1947.231201 31.402149 -4366.518555
v 1977.726440 56.928638 -4352.283203
v 1947.231201 56.922741 -4366.518555
v 1429.353149 35.999901 -4482.839844
v 1430.377808 35.999901 -4485.659180
v 1429.353149 31.999901 -4482.839844
v 1430.377808 31.999901 -4485.659180
v 1488.564087 31.999901 -4461.320801
v 1488.564087 35.999901 -4461.320801
v 1489.588745 31.999901 -4464.140625
v 1489.588745 35.999901 -4464.140625
v 1461.801880 35.999901 -4572.125977
v 1462.826538 35.999901 -4574.945801
v 1461.801880 31.999901 -4572.125977
v 1462.826538 31.999901 -4574.945801
v 1521.012939 31.999901 -4550.607422
v 1521.012939 35.999901 -4550.607422
v 1522.037598 31.999901 -4553.426758
v 1522.037598 35.999901 -4553.426758
v 1551.534668 31.999901 -4438.436035
v 1551.534668 35.999901 -4438.436035
v 1552.559326 31.999901 -4441.255859
v 1552.559326 35.999901 -4441.255859
v 1583.983521 31.999901 -4527.722656
v 1583.983521 35.999901 -4527.722656
v 1585.008179 31.999901 -4530.542480
v 1585.008179 35.999901 -4530.542480
v 1664.317627 31.999901 -4397.448242
v 1664.317627 35.999901 -4397.448242
v 1665.342285 31.999901 -4400.268066
v 1665.342285 35.999901 -4400.268066
v 1696.766357 31.999901 -4486.734863
v 1696.766357 35.999901 -4486.734863
v 1697.791016 31.999901 -4489.554688
v 1697.791016 35.999901 -4489.554688
v 1708.490967 31.999901 -4381.395020
v 1708.490967 35.999901 -4381.395020
v 1709.515625 35.999901 -4384.214844
v 1709.515625 31.999901 -4384.214844
v 1740.939819 31.999901 -4470.681641
v 1740.939819 35.999901 -4470.681641
v 1741.964478 31.999901 -4473.500977
v 1741.964478 35.999901 -4473.500977
v 1786.499146 31.999901 -4353.044922
v 1786.499146 35.999901 -4353.044922
v 1787.523804 31.999901 -4355.864746
v 1787.523804 35.999901 -4355.864746
v 1818.947876 31.999901 -4442.331543
v 1818.947876 35.999901 -4442.331543
v 1819.972656 31.999901 -4445.151367
v 1819.972656 35.999901 -4445.151367
v 1424.312256 29.999901 -4483.607422
v 1429.011597 29.999901 -4481.899902
v 1424.312256 44.851299 -4483.607422
v 1429.011597 44.851299 -4481.899902
v 1430.719360 29.999901 -4486.599121
v 1426.020020 29.999901 -4488.307129
v 1430.719360 44.851299 -4486.599121
v 1426.020020 44.851299 -4488.307129
v 1456.761108 29.999901 -4572.894043
v 1461.460327 29.999901 -4571.186523
v 1456.761108 44.851299 -4572.894043
v 1461.460327 44.851299 -4571.186523
v 1463.168213 29.999901 -4575.885742
v 1458.468872 29.999901 -4577.593262
v 1463.168213 44.851299 -4575.885742
v 1458.468872 44.851299 -4577.593262
v 1605.234985 29.999901 -4417.856445
v 1609.934204 29.999901 -4416.148438
v 1605.234985 44.851299 -4417.856445
v 1609.934204 44.851299 -4416.148438
v 1611.641968 29.999901 -4420.848145
v 1606.942749 29.999901 -4422.555664
v 1611.641968 44.851299 -4420.848145
v 1606.942749 44.851299 -4422.555664
v 1637.683838 29.999901 -4507.143066
v 1642.383057 29.999901 -4505.435059
v 1637.683838 44.851299 -4507.143066
v 1642.383057 44.851299 -4505.435059
v 1644.090820 29.999901 -4510.134277
v 1639.391602 29.999901 -4511.842285
v 1644.090820 44.851299 -4510.134277
v 1639.391602 44.851299 -4511.842285
v 1786.157593 29.999901 -4352.104980
v 1790.856934 29.999901 -4350.397461
v 1786.157593 44.851299 -4352.104980
v 1790.856934 44.851299 -4350.397461
v 1792.564697 29.999901 -4355.096680
v 1787.865356 29.999901 -4356.804688
v 1792.564697 44.851299 -4355.096680
v 1787.865356 44.851299 -4356.804688
v 1818.606445 29.999901 -4441.391602
v 1823.305664 29.999901 -4439.684082
v 1818.606445 44.851299 -4441.391602
v 1823.305664 44.851299 -4439.684082
v 1825.013550 29.999901 -4444.383301
v 1820.314331 29.999901 -4446.090820
v 1825.013550 44.851299 -4444.383301
v 1820.314331 44.851299 -4446.090820
v 1424.312134 49.999901 -4483.607422
v 1429.011597 49.999901 -4481.899902
v 1430.719360 49.999901 -4486.599121
v 1426.020020 49.999901 -4488.307129
v 1456.761108 49.999901 -4572.894043
v 1461.460327 49.999901 -4571.186523
v 1463.168335 49.999901 -4575.885742
v 1458.468872 49.999901 -4577.593262
v 1605.234985 49.999901 -4417.856445
v 1609.934204 49.999901 -4416.148438
v 1611.641968 49.999901 -4420.848145
v 1606.942749 49.999901 -4422.555664
v 1637.683960 49.999901 -4507.143066
v 1642.383179 49.999901 -4505.435059
v 1644.090820 49.999901 -4510.134277
v 1639.391602 49.999901 -4511.842285
v 1786.157593 49.999901 -4352.104980
v 1790.856934 49.999901 -4350.397461
v 1792.564819 49.999901 -4355.096680
v 1787.865356 49.999901 -4356.804688
v 1818.606445 49.999901 -4441.391602
v 1823.305664 49.999901 -4439.684082
v 1825.013550 49.999901 -4444.383301
v 1820.314331 49.999901 -4446.090820
v 1032.956543 90.000000 -4589.873535
v 1119.872437 90.000000 -4566.518555
v 1032.956543 130.000000 -4589.873535
v 1119.872314 130.000000 -4566.519043
v 1032.956543 40.000000 -4589.873535
v 1119.872925 40.000000 -4566.518555
v 1032.956543 80.000000 -4589.873535
v 1119.872925 80.000000 -4566.518555
v 1122.467651 40.000000 -4576.175781
v 1035.551392 40.000000 -4599.531250
v 1122.467651 80.000000 -4576.175781
v 1035.551392 80.000000 -4599.531250
v 1122.467651 90.000000 -4576.175781
v 1035.551392 90.000000 -4599.531250
v 1122.467651 130.000000 -4576.175781
v 1035.551392 130.000000 -4599.531250
v 1056.311768 40.000000 -4676.791016
v 1143.228882 40.000000 -4653.435059
v 1056.311768 80.000000 -4676.791016
v 1143.228882 80.000000 -4653.435059
v 1056.311768 90.000000 -4676.791016
v 1143.228882 90.000000 -4653.435059
v 1056.311768 130.000000 -4676.791016
v 1143.228882 130.000000 -4653.435059
v 1145.823608 40.000000 -4663.092285
v 1058.906860 40.000000 -4686.447754
v 1145.823608 80.000000 -4663.092285
v 1058.906860 80.000000 -4686.447754
v 1145.823608 90.000000 -4663.092285
v 1058.906860 90.000000 -4686.447754
v 1145.823608 130.000000 -4663.092285
v 1058.906860 130.000000 -4686.447754
v 1313.018921 90.000000 -4514.616211
v 1313.017822 130.000000 -4514.615723
v 1313.019775 40.000000 -4514.615234
v 1313.019287 80.000000 -4514.615723
v 1315.616455 40.000000 -4524.273438
v 1315.616455 80.000000 -4524.273438
v 1315.616455 90.000000 -4524.273438
v 1315.616089 130.000000 -4524.273926
v 1336.377197 40.000000 -4601.531738
v 1336.377686 80.000000 -4601.532227
v 1336.377686 90.000000 -4601.532227
v 1336.377686 130.000000 -4601.532227
v 1338.971802 40.000000 -4611.190918
v 1338.971802 80.000000 -4611.190918
v 1338.971802 90.000000 -4611.190918
v 1338.971802 130.000000 -4611.190918
v 1399.935547 90.000000 -4491.259766
v 1399.935547 130.000000 -4491.259766
v 1399.936401 40.000000 -4491.259277
v 1399.935547 80.000000 -4491.259766
v 1402.532227 90.000000 -4500.916992
v 1402.531250 130.000000 -4500.916992
v 1402.532227 40.000000 -4500.916992
v 1402.532227 80.000000 -4500.916992
v 1423.294312 40.000000 -4578.175781
v 1423.295288 80.000000 -4578.175781
v 1423.295288 90.000000 -4578.175781
v 1423.295288 130.000000 -4578.175781
v 1425.888184 40.000000 -4587.833496
v 1425.888184 80.000000 -4587.833496
v 1425.888184 90.000000 -4587.833496
v 1425.888184 130.000000 -4587.833496
v 1122.467651 140.000000 -4576.175781
v 1035.551392 140.000000 -4599.531250
v 1119.871216 140.000000 -4566.518555
v 1032.955078 140.000000 -4589.873535
v 1143.228882 140.000000 -4653.435059
v 1145.823608 140.000000 -4663.092285
v 1056.311768 140.000000 -4676.791016
v 1058.906860 140.000000 -4686.447754
v 1315.616089 140.000000 -4524.273926
v 1313.017822 140.000000 -4514.615723
v 1336.377686 140.000000 -4601.532227
v 1338.971802 140.000000 -4611.190918
v 1399.935547 140.000000 -4491.259766
v 1402.531250 140.000000 -4500.916992
v 1423.295288 140.000000 -4578.175781
v 1425.888184 140.000000 -4587.833496
v 1023.298462 20.000000 -4592.469727
v 1025.893555 20.000000 -4602.126953
v 1023.298523 15.000000 -4592.469727
v 1025.893555 15.000000 -4602.126953
v 1025.893555 30.000000 -4602.126953
v 1023.298523 30.000000 -4592.469727
v 1036.274170 20.000000 -4640.756348
v 1036.274170 15.000000 -4640.756348
v 1036.274170 30.000000 -4640.756348
v 1045.931519 20.000000 -4638.162109
v 1035.551392 20.000000 -4599.531250
v 1045.931519 15.000000 -4638.162109
v 1035.551392 15.000000 -4599.531250
v 1035.551392 30.000000 -4599.531250
v 1045.931519 30.000000 -4638.162109
v 1046.655029 20.000000 -4679.386230
v 1046.655029 15.000000 -4679.386230
v 1046.655029 30.000000 -4679.386230
v 1049.250000 20.000000 -4689.043457
v 1049.250000 15.000000 -4689.043457
v 1049.250000 30.000000 -4689.043457
v 1056.311768 20.000000 -4676.791016
v 1056.311768 15.000000 -4676.791016
v 1056.311646 30.000000 -4676.791016
v 1412.912964 20.000000 -4539.546875
v 1412.912964 15.000000 -4539.546875
v 1402.532227 20.000000 -4500.916992
v 1402.532227 15.000000 -4500.916992
v 1402.532227 30.000000 -4500.917480
v 1412.912964 30.000000 -4539.546875
v 1409.594971 20.000000 -4488.665039
v 1409.595093 15.000000 -4488.665039
v 1412.190308 20.000000 -4498.322266
v 1412.190308 15.000000 -4498.322266
v 1409.595093 30.000000 -4488.665039
v 1412.190308 30.000000 -4498.322266
v 1422.570190 20.000000 -4536.951660
v 1422.570190 15.000000 -4536.951660
v 1422.570190 30.000000 -4536.951660
v 1423.293335 20.000000 -4578.176270
v 1423.293335 15.000000 -4578.176270
v 1423.293335 30.000000 -4578.176270
v 1432.951416 20.000000 -4575.581543
v 1432.951416 15.000000 -4575.581543
v 1432.951416 30.000000 -4575.581543
v 1435.545898 20.000000 -4585.239258
v 1435.545898 15.000000 -4585.239258
v 1435.545898 30.000000 -4585.239258
v 1032.956543 20.000000 -4589.873535
v 1032.956543 15.000000 -4589.873535
v 1032.956543 30.000000 -4589.873535
v 1058.906860 20.000000 -4686.447754
v 1058.906860 15.000000 -4686.447754
v 1058.906860 30.000000 -4686.447754
v 1399.937500 20.000000 -4491.259766
v 1399.937500 15.000000 -4491.259766
v 1399.937500 30.000000 -4491.259766
v 1425.888184 20.000000 -4587.833496
v 1425.888184 15.000000 -4587.833496
v 1425.888184 30.000000 -4587.833496
v 1119.872925 20.000000 -4566.518555
v 1119.872925 30.000000 -4566.518555
v 1122.467651 30.000000 -4576.175781
v 1122.467651 20.000000 -4576.175781
v 1143.228882 30.000000 -4653.435059
v 1143.228882 20.000000 -4653.435059
v 1145.823608 30.000000 -4663.092285
v 1145.823608 20.000000 -4663.092285
v 1313.020752 20.000000 -4514.615234
v 1313.020752 30.000000 -4514.615234
v 1315.616455 30.000000 -4524.273438
v 1315.616455 20.000000 -4524.273438
v 1336.376709 30.000000 -4601.531738
v 1336.376709 20.000000 -4601.531738
v 1338.971802 30.000000 -4611.190918
v 1338.971802 20.000000 -4611.190918
v 1404.865601 30.999901 -4537.139160
v 1395.363159 30.999901 -4507.001465
v 1428.231567 30.999901 -4529.771484
v 1418.729126 30.999901 -4499.634277
v 1414.608398 30.999901 -4568.039551
v 1437.974365 30.999901 -4560.671875
v 1451.597534 30.999901 -4522.404297
v 1442.095215 30.999901 -4492.267090
v 1461.340332 30.999901 -4553.304688
v 1439.177124 30.999901 -4564.486816
v 1445.376343 29.999901 -4562.532227
v 1440.130859 29.999901 -4564.186035
v 1443.468750 27.999901 -4563.133789
v 1390.822388 29.999901 -4504.239258
v 1394.160522 30.999901 -4503.186523
v 1392.025146 29.999901 -4508.053711
v 1401.527588 29.999901 -4538.191406
v 1418.479980 29.999901 -4495.518555
v 1417.526367 30.999901 -4495.819336
v 1411.270386 29.999901 -4569.091797
v 1412.473145 29.999901 -4572.906738
v 1415.811157 30.999901 -4571.854004
v 1418.479980 20.999901 -4495.518555
v 1421.817993 27.999901 -4494.466309
v 1421.817993 20.999901 -4494.466309
v 1423.725464 29.999901 -4493.864746
v 1440.892212 30.999901 -4488.452148
v 1444.230347 29.999901 -4487.399414
v 1440.130859 20.999901 -4564.186035
v 1443.468750 20.999901 -4563.133789
v 1445.433105 29.999901 -4491.214355
v 1454.935547 29.999901 -4521.352051
v 1462.543091 30.999901 -4557.119629
v 1465.881104 29.999901 -4556.067383
v 1464.678345 29.999901 -4552.252441
v 1419.612915 14.999900 -4485.315430
v 1423.028687 14.999900 -4494.714355
v 1429.011597 14.999900 -4481.899902
v 1432.427246 14.999900 -4491.298340
v 1446.089722 14.999900 -4528.893066
v 1436.691162 14.999900 -4532.308594
v 1459.752563 14.999900 -4566.487305
v 1450.354004 14.999900 -4569.902832
v 1463.168335 14.999900 -4575.885742
v 1453.769653 14.999900 -4579.301270
v 1786.157715 14.999900 -4352.105469
v 1789.573364 14.999900 -4361.503906
v 1795.556274 14.999900 -4348.689453
v 1798.971924 14.999900 -4358.088379
v 1812.634399 14.999900 -4395.682617
v 1803.235840 14.999900 -4399.098145
v 1826.297241 14.999900 -4433.276855
v 1816.898682 14.999900 -4436.692383
v 1829.712891 14.999900 -4442.675293
v 1820.314331 14.999900 -4446.091309
v 1423.028687 19.999901 -4494.714355
v 1436.691162 19.999901 -4532.308594
v 1446.089722 19.999901 -4528.893066
v 1432.427246 19.999901 -4491.298340
v 1450.354004 19.999901 -4569.902832
v 1459.752563 19.999901 -4566.487305
v 1789.573364 19.999901 -4361.503906
v 1803.235840 19.999901 -4399.098145
v 1812.634399 19.999901 -4395.682617
v 1798.971924 19.999901 -4358.088379
v 1816.898682 19.999901 -4436.692383
v 1826.297241 19.999901 -4433.276855
v 1429.011597 19.999901 -4481.899902
v 1463.168335 19.999901 -4575.885742
v 1786.157837 19.999901 -4352.105469
v 1820.314209 19.999901 -4446.091309
v 1513.598877 29.999901 -4451.159180
v 1517.014404 29.999901 -4460.557617
v 1429.011597 29.999901 -4481.899902
v 1432.427246 29.999901 -4491.298340
v 1544.339844 29.999901 -4535.746094
v 1547.755493 29.999901 -4545.144531
v 1459.752563 29.999901 -4566.487305
v 1463.168335 29.999901 -4575.885742
v 1701.570557 29.999901 -4382.846191
v 1704.986084 29.999901 -4392.244629
v 1732.311401 29.999901 -4467.433594
v 1735.727173 29.999901 -4476.832031
v 1786.157715 29.999901 -4352.105469
v 1789.573364 29.999901 -4361.503906
v 1816.898682 29.999901 -4436.692383
v 1820.314331 29.999901 -4446.091309
v 1436.691162 29.999901 -4532.308594
v 1423.028687 29.999901 -4494.714355
v 1446.089722 29.999901 -4528.893066
v 1450.354004 29.999901 -4569.902832
v 1803.235840 29.999901 -4399.098145
v 1812.634399 29.999901 -4395.682617
v 1798.971924 29.999901 -4358.088379
v 1826.297241 29.999901 -4433.276855
v 1419.613037 19.999901 -4485.315430
v 1419.612915 29.999901 -4485.315430
v 1453.769653 19.999901 -4579.301270
v 1453.769653 29.999901 -4579.301270
v 1795.556274 19.999901 -4348.689453
v 1795.556274 29.999901 -4348.689453
v 1829.712891 19.999901 -4442.675293
v 1829.712891 29.999901 -4442.675293
v 1517.014404 19.999901 -4460.557617
v 1513.598877 19.999901 -4451.159180
v 1530.676880 29.999901 -4498.151855
v 1530.676880 19.999901 -4498.151855
v 1544.339844 19.999901 -4535.746094
v 1547.755493 19.999901 -4545.144531
v 1701.570557 19.999901 -4382.846191
v 1704.986084 19.999901 -4392.244629
v 1718.648560 19.999901 -4429.839355
v 1718.648560 29.999901 -4429.839355
v 1732.311401 19.999901 -4467.433594
v 1735.727173 19.999901 -4476.832031
# 730 vertices

vt 0.50000 -2.00540
vt -1.00540 -2.00540
vt -0.91540 -1.57360
vt -0.78140 -1.42970
vt -0.23920 0.86340
vt 0.49990 1.00540
vt -0.60680 0.29010
vt 1.78140 -1.42970
vt 1.60680 0.29010
vt 1.23920 0.86340
vt 1.91540 -1.57360
vt 2.00540 -2.00540
vt 9.99680 2.00450
vt 9.21090 2.49990
vt 8.99990 2.00450
vt 9.99680 2.49990
vt 9.32080 2.99990
vt 9.99970 2.50350
vt 8.99990 2.50350
vt 9.99990 2.99990
vt -3.99960 2.72150
vt -2.24960 1.99990
vt -3.99960 1.99990
vt -2.29730 2.72150
vt -0.23670 1.99990
vt -0.14230 2.72150
vt -3.99960 2.99990
vt -2.24960 2.99990
vt 0.21700 2.99990
vt 4.25110 1.99990
vt 4.25110 2.72150
vt 4.25110 2.99990
vt 7.99990 -9.02030
vt 6.99990 -8.01180
vt 7.99990 -8.01180
vt 6.99990 -9.02030
vt 1.99990 -9.02030
vt 1.99990 -8.01180
vt 12.99990 -9.02030
vt 12.99990 -8.01180
vt 0.99990 -9.02030
vt 0.99990 -8.01180
vt 13.99990 -9.02030
vt 13.99990 -8.01180
vt -3.99990 -8.01180
vt -3.99990 -9.02030
vt 18.99990 -8.01180
vt 18.99990 -9.02030
vt -4.99990 -8.01180
vt -4.99990 -9.02030
vt 0.45350 -2.57050
vt 0.34030 -2.54260
vt 0.34000 -2.32110
vt 0.34760 -2.99820
vt 0.00540 -2.54500
vt 0.00540 -2.99820
vt 0.62490 -2.99820
vt 0.46510 -2.52610
vt 0.00540 -2.37800
vt 0.65230 -2.52680
vt 0.56040 -2.47010
vt 0.99800 -1.99990
vt 0.99800 -2.47010
vt 0.56040 -1.99990
vt 0.34410 -2.00140
vt 0.46160 -2.00140
vt 0.00540 -2.00140
vt 0.49170 -3.99990
vt 0.49990 -3.99990
vt 0.74320 -2.99990
vt -0.99990 -3.99990
vt -0.99990 -2.99990
vt -0.49990 -3.99990
vt 1.00870 -3.99990
vt 0.48500 -3.99990
vt 0.49120 -3.99990
vt -0.49990 -2.99990
vt -1.00000 -2.99990
vt 8.99750 1.00000
vt 9.49750 1.00000
vt 9.49990 0.49990
vt 9.74990 0.99990
vt 0.24990 -9.99620
vt 0.00090 -9.99960
vt 0.05150 -9.73750
vt 1.94840 -9.73750
vt 1.99900 -9.99960
vt 1.74990 -9.99620
vt 2.99470 -6.99680
vt 2.00520 -6.00010
vt 2.99470 -6.00010
vt 2.00520 -6.99680
vt 0.00000 -8.98750
vt 1.99990 -8.73830
vt 0.00000 -8.73830
vt 1.99990 -8.98750
vt 1.99990 -8.98740
vt 0.00000 -8.73810
vt 1.99990 -8.73810
vt 0.00000 -8.98740
vt 0.99990 -6.00010
vt 0.00000 -7.00000
vt 0.00000 -6.00010
vt 0.99990 -7.00000
vt 1.53280 -2.97500
vt 1.54850 -2.99600
vt 1.53280 -2.99600
vt 1.54850 -2.97500
vt -12.25570 -1.00010
vt -8.11640 -2.01040
vt -12.25570 -2.01040
vt -8.11640 -1.00010
vt 10.06460 -2.00780
vt 14.97620 -1.00010
vt 14.97620 -2.00780
vt 10.06460 -1.00010
vt 13.74280 0.00240
vt 9.24100 -0.99760
vt 9.24100 0.00240
vt 13.74280 -0.99760
vt 8.23770 -2.00000
vt 12.24170 -0.98510
vt 8.23770 -0.98510
vt 12.24170 -2.00000
vt 1.47480 -2.97500
vt 1.49050 -2.99600
vt 1.47480 -2.99600
vt 1.49050 -2.97500
vt -12.81720 -1.00010
vt -8.33770 -2.01040
vt -12.81720 -2.01040
vt -8.33770 -1.00010
vt 8.85130 -2.00780
vt 13.33090 -1.00010
vt 13.33090 -2.00780
vt 8.85130 -1.00010
vt -14.08660 -2.00780
vt -9.60710 -1.00010
vt -9.60710 -2.00780
vt -14.08660 -1.00010
vt 9.28010 -1.00010
vt 13.75970 -2.01040
vt 9.28010 -2.01040
vt 13.75970 -1.00010
vt -3.71440 -2.01040
vt -3.71440 -1.00010
vt 4.84120 -2.00780
vt 4.84120 -1.00010
vt 4.45350 -0.99760
vt 4.45350 0.00240
vt 3.97950 -2.00000
vt 3.97950 -0.98510
vt -3.57370 -2.01040
vt -3.57370 -1.00010
vt 4.08740 -2.00780
vt 4.08740 -1.00010
vt -4.84310 -1.00010
vt -4.84310 -2.00780
vt 4.51620 -1.00010
vt 4.51620 -2.01040
vt 4.16990 -2.01040
vt 4.16990 -1.00010
vt -4.51410 -2.00780
vt -4.51410 -1.00010
vt -4.12120 -0.99760
vt -4.12120 0.00240
vt -3.64720 -2.00000
vt -3.64720 -0.98510
vt 4.95860 -2.01040
vt 4.95860 -1.00010
vt -4.44490 -2.00780
vt -4.44490 -1.00010
vt 3.68920 -1.00010
vt 3.68920 -2.00780
vt -4.01610 -1.00010
vt -4.01610 -2.01040
vt 7.25790 -2.01040
vt 7.25790 -1.00010
vt -7.47960 -0.99760
vt -7.47960 0.00240
vt -8.17830 -2.00780
vt -8.17830 -1.00010
vt -6.63430 -2.00000
vt -6.63430 -0.98510
vt 8.30050 -2.01040
vt 8.30050 -1.00010
vt -7.78680 -2.00780
vt -7.78680 -1.00010
vt 7.03110 -1.00010
vt 7.03110 -2.00780
vt -7.35800 -1.00010
vt -7.35800 -2.01040
vt 12.71120 -2.01040
vt 12.71120 -1.00010
vt -14.64910 -2.00780
vt -14.64910 -1.00010
vt -13.41050 -0.99760
vt -13.41050 0.00240
vt -11.90940 -2.00000
vt -11.90940 -0.98510
vt 14.20210 -2.01040
vt 14.20210 -1.00010
vt -13.68840 -2.00780
vt -13.68840 -1.00010
vt 12.93270 -1.00010
vt 12.93270 -2.00780
vt -13.25960 -1.00010
vt -13.25960 -2.01040
vt 1.50380 -2.97500
vt 1.51950 -2.99600
vt 1.50380 -2.99600
vt 1.51950 -2.97500
vt 1.44580 -2.97500
vt 1.46160 -2.99600
vt 1.44580 -2.99600
vt 1.46160 -2.97500
vt 0.00190 -1.00200
vt 0.33390 -1.99810
vt 0.00190 -1.99810
vt 0.33390 -1.00200
vt 0.66600 -1.00200
vt 0.99800 -1.99810
vt 0.66600 -1.99810
vt 0.99800 -1.00200
vt 0.46160 -1.33530
vt 0.64040 -1.49820
vt 0.46160 -1.49820
vt 0.64040 -1.33530
vt 0.81920 -1.33530
vt 0.99800 -1.49820
vt 0.81920 -1.49820
vt 0.99800 -1.33530
vt 0.00190 -1.57990
vt 0.33390 -1.85360
vt 0.00190 -1.85360
vt 0.33390 -1.57990
vt 0.66600 -1.57990
vt 0.99800 -1.85360
vt 0.66600 -1.85360
vt 0.99800 -1.57990
vt 0.00190 -1.58400
vt 0.33390 -1.58400
vt 0.66600 -1.58400
vt 0.99800 -1.58400
vt 0.33390 -1.86600
vt 0.00190 -1.86600
vt 0.99800 -1.86600
vt 0.66600 -1.86600
vt 0.33390 -1.84950
vt 0.00190 -1.84950
vt 0.99800 -1.84950
vt 0.66600 -1.84950
vt 0.74740 -1.58850
vt 0.99670 -1.85570
vt 0.74740 -1.85570
vt 0.99670 -1.58850
vt 0.00000 -1.00010
vt 0.99990 -2.00000
vt 0.00000 -2.00000
vt 0.99990 -1.00010
vt -1.53220 0.99800
vt 0.00710 0.00190
vt -1.53220 0.00190
vt 0.00710 0.99800
vt 10.49810 0.99800
vt 12.09920 0.00190
vt 10.49810 0.00190
vt 12.09920 0.99800
vt 0.00710 0.00000
vt -1.53220 0.00000
vt 12.09920 0.00000
vt 10.49810 0.00000
vt 3.00100 0.00190
vt 3.00100 0.99800
vt 7.44310 0.99800
vt 7.44310 0.00190
vt 3.00100 0.00000
vt 7.44310 0.00000
vt 5.01150 0.99800
vt 5.01150 0.00190
vt 5.34770 0.99800
vt 5.34770 0.00190
vt 5.01150 0.00000
vt 5.34770 0.00000
vt 0.00000 0.99990
vt 0.33630 0.00000
vt 0.00000 0.00000
vt 0.33630 0.99990
vt -0.10290 0.21380
vt -0.74360 0.81240
vt -0.10290 0.81240
vt -0.74360 0.21380
vt -0.74360 0.20220
vt -0.10290 0.81500
vt -0.10290 0.20220
vt -0.74360 0.81500
vt 1.10290 0.21380
vt 1.10290 0.81240
vt 1.10290 0.81500
vt 1.10290 0.20220
vt 1.74360 0.81240
vt 1.74360 0.21380
vt 1.74360 0.20220
vt 1.74360 0.81500
vt 0.00190 0.00190
vt 2.24520 0.99800
vt 2.24520 0.00190
vt 0.00190 0.99800
vt 22.50140 0.99800
vt 25.46580 0.00190
vt 22.50140 0.00190
vt 25.46580 0.99800
vt 7.48740 0.99800
vt 7.48740 0.00190
vt 15.72650 0.99800
vt 15.72650 0.00190
vt 9.99330 0.99800
vt 9.99330 0.00190
vt 10.48370 0.99800
vt 10.48370 0.00190
vt 0.51560 0.00000
vt 0.51560 0.99990
vt 2.36200 -0.03710
vt 1.98810 0.47320
vt 2.36200 0.47320
vt 1.98810 -0.03720
vt 2.36200 0.99800
vt 1.98810 0.99810
vt 0.63330 0.47320
vt 0.63330 -0.03720
vt 0.63330 0.99800
vt 0.63330 -0.03730
vt 2.36200 0.47310
vt 0.63330 0.47310
vt 2.36200 -0.03730
vt -0.72130 0.47310
vt -0.72130 -0.03720
vt -0.72130 0.99800
vt -1.09530 -0.03730
vt -1.09530 0.47310
vt -1.09550 0.99800
vt -1.09500 -0.03730
vt -1.09500 0.99800
vt -1.09430 0.47310
vt 0.63380 -0.03730
vt 0.63380 0.47310
vt 0.63380 0.99800
vt -1.09530 0.99800
vt 1.99990 0.47610
vt 2.37490 0.00000
vt 2.37490 0.47610
vt 1.99990 0.00000
vt 2.37490 0.99990
vt 1.99990 0.99990
vt 0.61260 -0.03730
vt 0.61260 0.47310
vt 0.61260 0.99800
vt 2.36080 -0.03730
vt 2.36080 0.99800
vt -0.73170 -0.03730
vt -0.73170 0.47310
vt -0.73170 0.99800
vt 0.38850 0.47700
vt 0.99800 -0.03400
vt 0.99800 0.47700
vt 0.38850 -0.03400
vt 0.38850 0.99800
vt 0.99800 0.99800
vt 0.99800 -0.03730
vt 0.38850 0.46720
vt 0.99800 0.46720
vt 0.38850 -0.03730
vt 0.38190 0.47050
vt 0.99800 0.47050
vt 0.38190 -0.03400
vt 0.38190 0.99800
vt 0.01500 0.47700
vt 0.65730 -0.03070
vt 0.65730 0.47700
vt 0.01500 -0.03070
vt 0.01500 0.99800
vt 0.65730 0.99800
vt 2.21340 0.42650
vt 1.21840 0.79840
vt 1.21840 0.42650
vt 2.21340 0.79840
vt 2.29090 0.42650
vt 1.29590 0.79840
vt 2.29090 0.79840
vt 1.29590 0.42650
vt 1.91520 0.79840
vt 2.91020 0.42650
vt 2.91020 0.79840
vt 1.91520 0.42650
vt 2.98760 0.42650
vt 1.99260 0.79840
vt 2.98760 0.79840
vt 1.99260 0.42650
vt -0.99260 0.42650
vt -0.99260 0.79840
vt -0.91520 0.79840
vt -0.91520 0.42650
vt -0.29590 0.42650
vt -0.29590 0.79840
vt -0.21840 0.42650
vt -0.21840 0.79840
vt -1.98760 0.42650
vt -1.98760 0.79840
vt -1.91020 0.42650
vt -1.91020 0.79840
vt -1.29090 0.42650
vt -1.29090 0.79840
vt -1.21350 0.42650
vt -1.21350 0.79840
vt -1.01200 0.41820
vt -0.71640 0.03800
vt -0.71640 0.41820
vt -1.01200 0.03800
vt 0.86840 0.14620
vt 0.71890 0.03310
vt 0.86840 0.03310
vt 0.71890 0.14620
vt 0.09580 0.14620
vt 0.09580 0.03310
vt 0.49990 0.03800
vt 0.49990 0.41820
vt -0.52720 0.03310
vt -0.52720 0.14620
vt 1.71640 0.41820
vt 1.71640 0.03800
vt 2.01200 0.41820
vt 2.01200 0.03800
vt -0.67670 0.03310
vt -0.67670 0.14620
vt 1.36460 0.41120
vt 1.18320 0.02950
vt 1.36460 0.02950
vt 1.18320 0.41120
vt 1.39590 0.02130
vt 1.19890 0.14420
vt 1.39590 0.14420
vt 1.19890 0.02130
vt 0.62250 0.14420
vt 0.62250 0.02130
vt 0.37740 0.02950
vt 0.37740 0.41120
vt -0.42830 0.41120
vt -0.42830 0.02950
vt 0.04610 0.14420
vt 0.04610 0.02130
vt -0.15080 0.02130
vt -0.15080 0.14420
vt -0.60970 0.41120
vt -0.60970 0.02950
vt 0.00000 0.16890
vt 0.51560 0.16890
vt 7.50690 0.00190
vt 8.42780 0.16690
vt 8.42780 0.00190
vt 7.50690 0.16690
vt 17.80940 0.16690
vt 19.02640 0.00190
vt 17.80940 0.00190
vt 19.02640 0.16690
vt 19.09380 0.16690
vt 18.14950 0.00190
vt 19.09380 0.00190
vt 18.14950 0.16690
vt 8.62210 0.16690
vt 7.37420 0.00190
vt 8.62210 0.00190
vt 7.37420 0.16690
vt 10.58000 0.00190
vt 10.58000 0.16690
vt 13.96250 0.16690
vt 13.96250 0.00190
vt 15.94280 0.00190
vt 15.94280 0.16690
vt 12.47440 0.16690
vt 12.47440 0.00190
vt 11.60880 0.00190
vt 11.60880 0.16690
vt 11.81010 0.16690
vt 11.81010 0.00190
vt 14.88790 0.00190
vt 14.88790 0.16690
vt 14.68140 0.00190
vt 14.68140 0.16690
vt 1.54440 -0.99650
vt 1.50890 -0.67740
vt 1.54440 -0.67740
vt 1.50890 -0.99650
vt 1.44300 -0.67740
vt 1.40760 -0.99650
vt 1.40760 -0.67740
vt 1.44300 -0.99650
vt 1.54440 0.03150
vt 1.50890 0.03150
vt 1.44300 0.03150
vt 1.40760 0.03150
vt 1.54440 0.35060
vt 1.50890 0.35060
vt 1.40760 0.35060
vt 1.44300 0.35060
vt 24.24880 0.99990
vt 22.22000 -0.00030
vt 24.24880 -0.00030
vt 22.22000 0.99990
vt 3.90000 -0.00030
vt 1.21900 0.99990
vt 1.21900 -0.00030
vt 3.90000 0.99990
vt 17.47890 0.99990
vt 17.47890 -0.00030
vt 10.02730 0.99990
vt 10.02730 -0.00030
vt 15.21250 0.99990
vt 15.21250 -0.00030
vt 14.76900 0.99990
vt 14.76900 -0.00030
vt 0.36650 0.46450
vt 0.99990 -0.02510
vt 0.99990 0.46450
vt 0.36650 -0.02510
vt 0.50310 -0.99850
vt 0.99990 0.00330
vt 0.99990 -0.99850
vt 0.50310 0.00330
vt 0.50310 -2.00000
vt 0.00010 -0.99850
vt 0.00010 0.00330
vt 0.00010 -2.00000
vt 2.05720 -1.19080
vt 2.46920 -1.19080
vt 1.79970 -1.08440
vt 2.26320 -1.40370
vt 3.92410 -3.25630
vt 4.27720 -3.02050
vt 4.27720 -3.25630
vt 3.92410 -3.02050
vt 1.13480 -3.02050
vt 1.13480 -3.25630
vt -0.76000 -1.20500
vt 1.62810 -1.08340
vt 1.86220 -1.20500
vt -0.66640 -1.08340
vt 3.92410 -1.00520
vt 4.27720 -1.00520
vt -1.72510 -3.02050
vt -1.72510 -3.25630
vt -2.07810 -3.02050
vt -2.07810 -3.25630
vt 2.04950 -1.44810
vt 1.86220 -1.69120
vt 2.04950 -1.69120
vt 2.23680 -1.20500
vt -2.07810 -1.00520
vt -1.72510 -1.00520
vt -0.72400 -1.08440
vt -0.82700 -1.19080
vt 4.27720 1.01010
vt 3.92410 1.01010
vt 3.92260 -1.08340
vt 3.92260 -1.20500
vt 2.05720 -1.61650
vt 2.26320 -1.61650
vt 3.87040 -2.25440
vt 4.28200 -2.03840
vt 3.87040 -2.03840
vt 4.28200 -2.25440
vt 1.67330 -2.25440
vt 1.67330 -2.03840
vt -2.07810 1.01010
vt -1.72510 1.01010
vt 4.32340 -1.08440
vt 4.32340 -1.19080
vt -0.57940 -2.25440
vt -0.57940 -2.03840
vt -0.99100 -2.25440
vt -0.99100 -2.03840
vt 0.05480 -0.87790
vt 0.13000 -1.00700
vt 0.05480 -1.00700
vt 0.13000 -0.87790
vt 0.49210 -0.87790
vt 0.49210 -1.00700
vt 0.85420 -0.87790
vt 0.85420 -1.00700
vt 0.92940 -1.00700
vt 0.92940 -0.87790
vt 1.00580 -0.11230
vt 0.89610 -0.00200
vt 1.00580 -0.00200
vt 0.89610 -0.11230
vt 0.51520 -0.00200
vt 0.51520 -0.11230
vt 0.13430 -0.00200
vt 0.13430 -0.11230
vt 0.02460 -0.11230
vt 0.02460 -0.00200
vt -0.04540 -0.88380
vt 0.45250 -0.99810
vt -0.04540 -0.99810
vt 0.45250 -0.88380
vt 0.46600 -0.89060
vt 0.99220 -0.99810
vt 0.46600 -0.99810
vt 0.99220 -0.89060
vt 0.95050 -0.99810
vt 0.95050 -0.88380
vt -0.06000 -0.89060
vt -0.06000 -0.99810
vt -0.08130 -0.88380
vt 0.46380 -0.99810
vt -0.08130 -0.99810
vt 0.46380 -0.88380
vt 0.46600 -0.89280
vt 1.02310 -0.99810
vt 1.02310 -0.89280
vt 1.00900 -0.99810
vt 1.00900 -0.88380
vt -0.09090 -0.89280
vt -0.09090 -0.99810
vt 0.25010 -1.00000
vt 0.74980 -0.00010
vt 0.74980 -1.00000
vt 0.25010 -0.00010
vt 0.24620 -1.00210
vt 0.75370 0.00210
vt 0.75370 -1.00210
vt 0.24620 0.00210
vt 0.24880 -1.00000
vt 0.75110 -0.00010
vt 0.75110 -1.00000
vt 0.24880 -0.00010
vt 0.25150 -1.00000
vt 0.74840 -0.00010
vt 0.74840 -1.00000
vt 0.25150 -0.00010
vt 2.49530 -0.17600
vt 1.48200 -0.00200
vt 1.48200 -0.17600
vt 2.49530 -0.00200
vt 2.49530 -0.50010
vt 1.48200 -0.32820
vt 1.48200 -0.50010
vt 2.49530 -0.32820
vt -0.48200 -0.00200
vt -0.48200 -0.17600
vt -0.48200 -0.32820
vt -0.48200 -0.50010
vt -1.49530 -0.17600
vt -1.49530 -0.00200
vt -1.49530 -0.50010
vt -1.49530 -0.32820
vt 0.24090 -0.00200
vt 0.99800 -0.18170
vt 0.24090 -0.18170
vt 0.99800 -0.00200
vt -0.51570 -0.00200
vt -0.51570 -0.18170
vt 0.24090 -0.33290
vt 0.99800 -0.50010
vt 0.24090 -0.50010
vt 0.99800 -0.33290
vt -0.49990 -0.33290
vt -0.49990 -0.50010
vt -0.24540 -0.00890
vt 0.22350 0.98450
vt 0.22540 -0.00890
vt -0.25090 0.97820
vt 1.24380 0.98450
vt 1.24930 -0.00890
vt -0.23960 -1.00840
vt 0.22740 -1.00210
vt 1.24730 -1.00210
vt 1.24120 0.97700
vt 0.74470 -0.00520
vt 0.74470 0.98440
vt 1.24120 -0.00520
vt -0.24730 0.98440
vt -0.23280 -0.00520
vt 0.74470 -0.99470
vt 1.24730 -1.00200
vt -0.21820 -0.98850
vt -0.26620 -0.00150
vt 0.34130 0.99630
vt 0.34130 -0.00150
vt -0.26620 0.99630
vt 1.26620 0.99630
vt 1.26620 -0.00150
vt 0.34130 -0.99930
vt 1.26620 -0.99930
vt -0.26620 -0.99930
vt -0.23260 -0.00890
vt 0.66700 0.97890
vt 0.67320 -0.00890
vt -0.23880 0.96630
vt 1.23880 0.98520
vt 1.24500 -0.00880
vt 0.67940 -0.99660
vt 1.24390 -0.99030
vt -0.23880 -1.00390
vt 0.00000 -1.00000
vt 0.99990 -0.00010
vt 0.99990 -1.00000
vt 0.00000 -0.00010
vt 0.09470 -1.97340
vt -0.00540 -1.26510
vt 0.09470 -1.26510
vt -0.00540 -1.97340
vt 1.50170 -2.04020
vt 2.01040 -2.98610
vt 1.50170 -2.98610
vt 2.01040 -2.04020
vt 0.49580 -1.97340
vt 0.49580 -1.26510
vt 0.89680 -1.97340
vt 0.89680 -1.26510
vt 0.99300 -2.04020
vt 0.99300 -2.98610
vt 0.99700 -1.97340
vt 0.99700 -1.26510
vt -0.00540 0.30880
vt 0.09470 0.30880
vt 0.49580 0.30880
vt 2.01040 0.06180
vt 1.50170 0.06180
vt 0.89680 0.30880
vt 0.99300 0.06180
vt 0.99700 0.30880
vt -0.00540 1.01710
vt 0.09470 1.01710
vt 0.49580 1.01710
vt 1.50170 1.00770
vt 2.01040 1.00770
vt 0.89680 1.01710
vt 0.99300 1.00770
vt 0.99700 1.01710
vt 0.60470 -0.00010
vt -0.53460 -0.45080
vt 0.60470 -0.45080
vt -0.53460 -0.00010
vt 1.74400 -0.45080
vt 1.74400 -0.00010
vt 0.61640 -0.45910
vt 1.74650 -0.00200
vt 0.61640 -0.00200
vt 1.74650 -0.45910
vt -0.51350 -0.45910
vt -0.51350 -0.00200
vt 3.00040 -0.45910
vt 1.64940 -0.00010
vt 1.64940 -0.45910
vt 3.00040 -0.00010
vt -1.74390 -0.00200
vt -0.48690 -0.46260
vt -1.74390 -0.46260
vt -0.48690 -0.00200
vt -1.38160 -0.45910
vt -1.38160 -0.00010
vt 1.75910 -0.00200
vt 1.75910 -0.46260
vt -2.73260 -0.00010
vt -2.73260 -0.45910
vt 3.01610 -0.46260
vt 3.01610 -0.00200
# 767 texture vertices

g Object_2
usemtl texture0
f 1/3 2/2 3/1
f 3/1 4/4 1/3
f 5/7 6/6 7/5
f 3/1 8/8 4/4
f 5/7 9/9 6/6
f 6/6 9/9 10/10
f 8/8 3/1 11/11
f 3/1 12/12 11/11
f 4/4 8/8 5/7
f 8/8 9/9 5/7
f 13/15 14/14 15/13
f 14/14 16/16 15/13
f 13/19 17/18 14/17
f 17/18 18/20 14/17
f 19/15 15/13 20/14
f 16/16 20/14 15/13
f 19/19 20/17 21/18
f 20/17 22/20 21/18
f 23/19 24/17 17/18
f 24/17 18/20 17/18
f 23/15 25/13 24/14
f 26/16 24/14 25/13
f 27/19 21/18 28/17
f 21/18 22/20 28/17
f 27/15 28/14 25/13
f 28/14 26/16 25/13
f 29/15 30/14 31/13
f 30/14 32/16 31/13
f 29/19 33/18 30/17
f 33/18 34/20 30/17
f 35/15 31/13 36/14
f 32/16 36/14 31/13
f 37/19 36/17 38/18
f 36/17 39/20 38/18
f 40/19 41/17 33/18
f 41/17 34/20 33/18
f 40/15 42/13 41/14
f 43/16 41/14 42/13
f 44/19 45/18 46/17
f 45/18 47/20 46/17
f 44/15 46/14 42/13
f 46/14 43/16 42/13
f 48/1 49/12 50/11
f 51/8 48/1 50/11
f 52/6 53/9 54/10
f 55/7 53/9 52/6
f 48/1 51/8 56/4
f 55/7 52/6 57/5
f 48/1 56/4 58/3
f 58/3 59/2 48/1
f 56/4 51/8 55/7
f 51/8 53/9 55/7
f 60/15 61/14 62/13
f 61/14 63/16 62/13
f 64/19 65/18 61/17
f 65/18 66/20 61/17
f 67/15 62/13 68/14
f 63/16 68/14 62/13
f 69/19 68/17 70/18
f 68/17 71/20 70/18
f 72/19 73/17 74/18
f 73/17 75/20 74/18
f 76/15 77/13 73/14
f 78/16 73/14 77/13
f 79/19 80/18 81/17
f 80/18 71/20 81/17
f 79/15 81/14 77/13
f 81/14 78/16 77/13
usemtl texture1
f 82/23 83/22 84/21
f 83/22 85/24 84/21
f 83/22 86/25 85/24
f 86/25 87/26 85/24
f 84/21 85/24 88/27
f 85/24 89/28 88/27
f 85/24 87/26 89/28
f 87/26 90/29 89/28
f 82/23 84/21 91/22
f 91/22 84/21 92/24
f 84/21 88/27 92/24
f 92/24 88/27 93/28
f 91/22 92/24 94/25
f 92/24 95/26 94/25
f 86/25 2/30 87/26
f 87/26 2/30 1/31
f 92/24 93/28 95/26
f 93/28 96/29 95/26
f 87/26 1/31 90/29
f 90/29 1/31 97/32
f 94/25 95/26 12/30
f 95/26 11/31 12/30
f 95/26 96/29 11/31
f 96/29 8/32 11/31
f 98/35 99/34 100/33
f 99/34 101/36 100/33
f 102/38 103/37 99/34
f 103/37 101/36 99/34
f 100/33 104/39 98/35
f 104/39 105/40 98/35
f 103/37 102/38 106/41
f 102/38 107/42 106/41
f 104/39 108/43 105/40
f 108/43 109/44 105/40
f 110/46 106/41 111/45
f 106/41 107/42 111/45
f 112/48 113/47 108/43
f 113/47 109/44 108/43
f 112/50 110/46 113/49
f 110/46 111/45 113/49
f 114/35 115/34 116/33
f 115/34 117/36 116/33
f 118/38 119/37 115/34
f 119/37 117/36 115/34
f 116/33 120/39 114/35
f 120/39 121/40 114/35
f 119/37 118/38 122/41
f 118/38 123/42 122/41
f 120/39 124/43 121/40
f 124/43 125/44 121/40
f 126/46 122/41 127/45
f 122/41 123/42 127/45
f 128/48 129/47 124/43
f 129/47 125/44 124/43
f 128/50 126/46 129/49
f 126/46 127/45 129/49
f 130/26 131/29 50/31
f 131/29 51/32 50/31
f 132/25 130/26 49/30
f 130/26 50/31 49/30
f 133/26 58/31 134/29
f 134/29 58/31 56/32
f 135/24 136/28 130/26
f 136/28 131/29 130/26
f 137/25 59/30 133/26
f 133/26 59/30 58/31
f 138/22 135/24 132/25
f 135/24 130/26 132/25
f 139/21 140/27 135/24
f 135/24 140/27 136/28
f 141/23 139/21 138/22
f 138/22 139/21 135/24
f 142/24 133/26 143/28
f 133/26 134/29 143/28
f 139/21 142/24 140/27
f 142/24 143/28 140/27
f 144/22 137/25 142/24
f 137/25 133/26 142/24
f 141/23 144/22 139/21
f 144/22 142/24 139/21
f 145/35 146/34 147/33
f 146/34 148/36 147/33
f 149/38 150/37 146/34
f 150/37 148/36 146/34
f 147/33 151/39 145/35
f 151/39 152/40 145/35
f 150/37 149/38 153/41
f 149/38 154/42 153/41
f 151/39 155/43 152/40
f 155/43 156/44 152/40
f 157/46 153/41 158/45
f 153/41 154/42 158/45
f 159/48 160/47 155/43
f 160/47 156/44 155/43
f 159/50 157/46 160/49
f 157/46 158/45 160/49
usemtl texture2
f 161/53 162/52 163/51
f 164/52 165/53 166/51
f 162/52 167/55 89/54
f 167/55 88/56 89/54
f 89/54 90/57 162/52
f 90/57 163/58 162/52
f 164/52 93/54 167/55
f 167/55 93/54 88/56
f 161/53 168/59 162/52
f 168/59 167/55 162/52
f 165/53 164/52 168/59
f 168/59 164/52 167/55
f 93/54 169/52 96/57
f 96/57 169/52 166/60
f 97/63 170/62 90/61
f 163/64 90/61 170/62
f 170/66 7/65 163/51
f 7/65 161/53 163/51
f 6/67 168/59 7/65
f 168/59 161/53 7/65
f 6/67 10/65 168/59
f 168/59 10/65 165/53
f 8/63 96/61 9/62
f 166/64 9/62 96/61
f 9/66 166/51 10/65
f 10/65 166/51 165/53
f 171/52 172/53 173/51
f 174/53 175/52 176/51
f 53/66 173/51 54/65
f 54/65 173/51 172/53
f 51/63 131/61 53/62
f 173/64 53/62 131/61
f 52/67 54/65 177/59
f 177/59 54/65 172/53
f 52/67 177/59 57/65
f 177/59 174/53 57/65
f 55/66 57/65 176/51
f 57/65 174/53 176/51
f 56/63 55/62 134/61
f 176/64 134/61 55/62
f 136/54 171/52 131/57
f 131/57 171/52 173/60
f 172/53 171/52 177/59
f 177/59 171/52 178/55
f 174/53 177/59 175/52
f 177/59 178/55 175/52
f 171/52 136/54 178/55
f 178/55 136/54 140/56
f 143/54 134/57 175/52
f 134/57 176/58 175/52
f 175/52 178/55 143/54
f 178/55 140/56 143/54
usemtl texture3
f 179/70 180/69 181/68
f 182/73 180/72 183/71
f 180/75 179/70 184/74
f 180/72 182/73 181/72
f 185/71 181/72 182/73
f 179/70 181/68 186/76
f 184/74 179/70 186/76
f 187/73 181/72 185/71
f 181/72 187/73 186/72
f 188/71 186/72 187/73
f 189/73 190/71 191/72
f 192/71 189/73 193/72
f 193/72 189/73 191/72
f 191/75 194/74 195/70
f 195/70 193/68 191/69
f 194/74 196/76 195/70
f 197/73 192/71 193/72
f 195/70 196/76 193/68
f 198/71 197/73 196/72
f 196/72 197/73 193/72
f 199/73 183/71 184/77
f 183/71 180/78 184/77
f 199/73 184/77 188/71
f 184/77 186/72 188/71
f 200/73 194/77 190/71
f 190/71 194/77 191/78
f 200/73 198/71 194/77
f 198/71 196/72 194/77
f 201/81 202/80 203/79
f 204/81 202/80 201/81
f 204/81 201/81 205/82
f 206/80 201/81 203/79
f 205/82 201/81 207/81
f 201/81 206/80 207/81
f 207/81 204/81 205/82
f 202/80 204/81 18/79
f 207/81 208/80 204/81
f 209/79 207/81 206/80
f 18/79 204/81 208/80
f 208/80 207/81 209/79
f 210/79 211/80 212/81
f 211/80 22/79 213/81
f 210/79 212/81 214/80
f 212/81 211/80 213/81
f 215/80 216/81 22/79
f 212/81 213/81 217/82
f 218/81 214/80 212/81
f 218/81 212/81 217/82
f 219/81 220/79 214/80
f 213/81 218/81 217/82
f 213/81 215/80 218/81
f 218/81 215/80 220/79
f 221/81 222/80 223/79
f 224/81 222/80 221/81
f 224/81 221/81 225/82
f 226/80 221/81 223/79
f 225/82 221/81 227/81
f 221/81 226/80 227/81
f 227/81 224/81 225/82
f 222/80 224/81 34/79
f 227/81 228/80 224/81
f 229/79 227/81 226/80
f 34/79 224/81 228/80
f 228/80 227/81 229/79
f 230/79 231/80 232/81
f 231/80 39/79 233/81
f 230/79 232/81 234/80
f 232/81 231/80 233/81
f 235/80 233/81 39/79
f 232/81 233/81 236/82
f 237/81 234/80 232/81
f 237/81 232/81 236/82
f 237/81 238/79 234/80
f 233/81 237/81 236/82
f 233/81 235/80 237/81
f 237/81 235/80 238/79
f 239/72 240/73 241/72
f 242/71 240/73 239/72
f 243/70 239/76 241/68
f 240/73 244/71 241/72
f 245/74 239/76 243/70
f 243/70 241/68 246/69
f 246/75 245/74 243/70
f 241/72 247/73 246/72
f 244/71 247/73 241/72
f 247/73 248/71 246/72
f 249/71 250/72 251/73
f 252/72 251/73 250/72
f 251/73 252/72 253/71
f 254/74 255/70 250/76
f 255/70 252/68 250/76
f 253/71 252/72 256/73
f 257/72 256/73 252/72
f 257/75 255/70 254/74
f 256/73 257/72 258/71
f 255/70 257/69 252/68
f 259/73 242/71 245/77
f 242/71 239/72 245/77
f 259/73 245/77 248/71
f 248/71 245/77 246/78
f 260/73 254/77 249/71
f 254/77 250/72 249/71
f 260/73 258/71 254/77
f 258/71 257/78 254/77
f 261/81 262/80 263/79
f 264/81 262/80 261/81
f 264/81 261/81 265/82
f 266/80 261/81 263/79
f 265/82 261/81 267/81
f 261/81 266/80 267/81
f 267/81 264/81 265/82
f 262/80 264/81 75/79
f 267/81 268/80 264/81
f 269/79 267/81 266/80
f 75/79 264/81 268/80
f 268/80 267/81 269/79
f 270/79 271/80 272/81
f 271/80 71/79 273/81
f 270/79 272/81 274/80
f 272/81 271/80 273/81
f 275/80 273/81 71/79
f 272/81 273/81 276/82
f 277/81 274/80 272/81
f 277/81 272/81 276/82
f 277/81 278/79 274/80
f 273/81 277/81 276/82
f 273/81 275/80 277/81
f 277/81 275/80 278/79
usemtl texture4
f 279/85 99/84 98/83
f 102/84 280/85 107/83
f 105/88 109/87 281/86
f 113/87 111/88 282/86
f 13/91 15/90 279/89
f 15/90 283/92 279/89
f 279/95 280/94 99/93
f 99/93 280/94 102/96
f 284/89 285/92 286/91
f 285/92 287/90 286/91
f 283/92 15/90 280/89
f 15/90 19/91 280/89
f 281/86 279/85 105/88
f 105/88 279/85 98/83
f 288/89 289/91 290/92
f 289/91 291/90 290/92
f 292/89 293/91 294/92
f 293/91 295/90 294/92
f 280/85 282/86 107/83
f 107/83 282/86 111/88
f 281/89 296/92 23/91
f 296/92 25/90 23/91
f 297/89 298/92 299/91
f 298/92 300/90 299/91
f 282/99 281/98 113/97
f 113/97 281/98 109/100
f 296/92 282/89 25/90
f 282/89 27/91 25/90
f 301/85 115/84 114/83
f 118/84 302/85 123/83
f 121/88 125/87 303/86
f 129/87 127/88 304/86
f 29/91 31/90 301/89
f 31/90 305/92 301/89
f 301/95 302/94 115/93
f 115/93 302/94 118/96
f 306/89 307/92 308/91
f 307/92 309/90 308/91
f 305/92 31/90 302/89
f 31/90 35/91 302/89
f 303/86 301/85 121/88
f 121/88 301/85 114/83
f 310/89 311/91 312/92
f 311/91 313/90 312/92
f 303/89 40/91 314/92
f 40/91 33/90 314/92
f 302/85 304/86 123/83
f 123/83 304/86 127/88
f 303/89 315/92 40/91
f 315/92 42/90 40/91
f 316/89 317/92 318/91
f 317/92 319/90 318/91
f 304/99 303/98 129/97
f 129/97 303/98 125/100
f 315/92 304/89 42/90
f 304/89 44/91 42/90
f 320/85 146/84 145/83
f 149/84 321/85 154/83
f 152/88 156/87 322/86
f 160/87 158/88 323/86
f 60/91 62/90 320/89
f 62/90 324/92 320/89
f 320/95 321/94 146/93
f 146/93 321/94 149/96
f 325/89 326/92 327/91
f 326/92 328/90 327/91
f 324/92 62/90 321/89
f 62/90 67/91 321/89
f 322/86 320/85 152/88
f 152/88 320/85 145/83
f 329/89 330/91 331/92
f 330/91 332/90 331/92
f 333/89 334/91 326/92
f 334/91 328/90 326/92
f 321/85 323/86 154/83
f 154/83 323/86 158/88
f 322/89 335/92 76/91
f 335/92 77/90 76/91
f 336/89 337/92 338/91
f 337/92 339/90 338/91
f 323/99 322/98 160/97
f 160/97 322/98 156/100
f 335/92 323/89 77/90
f 323/89 79/91 77/90
usemtl texture5
f 28/103 20/102 24/101
f 20/102 14/104 24/101
f 46/103 36/102 41/101
f 36/102 30/104 41/101
f 81/103 68/102 73/101
f 68/102 61/104 73/101
usemtl texture6
f 340/107 341/106 342/105
f 341/106 343/108 342/105
f 342/111 344/110 340/109
f 344/110 345/112 340/109
f 342/115 343/114 344/113
f 343/114 346/116 344/113
f 345/119 347/118 340/117
f 347/118 341/120 340/117
f 346/123 343/122 347/121
f 343/122 341/124 347/121
f 348/127 349/126 350/125
f 349/126 351/128 350/125
f 350/131 352/130 348/129
f 352/130 353/132 348/129
f 350/135 351/134 352/133
f 351/134 354/136 352/133
f 353/139 355/138 348/137
f 355/138 349/140 348/137
f 354/143 351/142 355/141
f 351/142 349/144 355/141
f 344/110 356/145 345/112
f 356/145 357/146 345/112
f 344/113 346/116 356/147
f 346/116 358/148 356/147
f 357/150 359/149 345/119
f 359/149 347/118 345/119
f 358/152 346/123 359/151
f 346/123 347/121 359/151
f 352/130 360/153 353/132
f 360/153 361/154 353/132
f 352/133 354/136 360/155
f 354/136 362/156 360/155
f 361/158 363/157 353/139
f 363/157 355/138 353/139
f 362/160 354/143 363/159
f 354/143 355/141 363/159
f 356/145 364/161 357/146
f 364/161 365/162 357/146
f 356/147 358/148 364/163
f 358/148 366/164 364/163
f 365/166 367/165 357/150
f 367/165 359/149 357/150
f 366/168 358/152 367/167
f 358/152 359/151 367/167
f 360/153 368/169 361/154
f 368/169 369/170 361/154
f 360/155 362/156 368/171
f 362/156 370/172 368/171
f 369/174 371/173 361/158
f 371/173 363/157 361/158
f 370/176 362/160 371/175
f 362/160 363/159 371/175
f 364/161 372/177 365/162
f 372/177 373/178 365/162
f 373/180 374/179 365/166
f 374/179 367/165 365/166
f 364/163 366/164 372/181
f 366/164 375/182 372/181
f 375/184 366/168 374/183
f 366/168 367/167 374/183
f 368/169 376/185 369/170
f 376/185 377/186 369/170
f 368/171 370/172 376/187
f 370/172 378/188 376/187
f 377/190 379/189 369/174
f 379/189 371/173 369/174
f 378/192 370/176 379/191
f 370/176 371/175 379/191
f 372/177 380/193 373/178
f 380/193 381/194 373/178
f 372/181 375/182 380/195
f 375/182 382/196 380/195
f 381/198 383/197 373/180
f 383/197 374/179 373/180
f 382/200 375/184 383/199
f 375/184 374/183 383/199
f 376/185 384/201 377/186
f 384/201 385/202 377/186
f 376/187 378/188 384/203
f 378/188 386/204 384/203
f 385/206 387/205 377/190
f 387/205 379/189 377/190
f 386/208 378/192 387/207
f 378/192 379/191 387/207
f 380/211 382/210 381/209
f 382/210 383/212 381/209
f 384/215 386/214 385/213
f 386/214 387/216 385/213
usemtl texture7
f 388/219 389/218 390/217
f 389/218 391/220 390/217
f 392/223 393/222 394/221
f 393/222 395/224 394/221
f 389/218 392/223 391/220
f 392/223 394/221 391/220
f 396/219 397/218 398/217
f 397/218 399/220 398/217
f 400/223 401/222 402/221
f 401/222 403/224 402/221
f 397/218 400/223 399/220
f 400/223 402/221 399/220
f 404/219 405/218 406/217
f 405/218 407/220 406/217
f 408/223 409/222 410/221
f 409/222 411/224 410/221
f 405/218 408/223 407/220
f 408/223 410/221 407/220
f 412/219 413/218 414/217
f 413/218 415/220 414/217
f 416/223 417/222 418/221
f 417/222 419/224 418/221
f 413/218 416/223 415/220
f 416/223 418/221 415/220
f 420/219 421/218 422/217
f 421/218 423/220 422/217
f 424/223 425/222 426/221
f 425/222 427/224 426/221
f 421/218 424/223 423/220
f 424/223 426/221 423/220
f 428/219 429/218 430/217
f 429/218 431/220 430/217
f 432/223 433/222 434/221
f 433/222 435/224 434/221
f 429/218 432/223 431/220
f 432/223 434/221 431/220
usemtl texture8
f 390/227 391/226 436/225
f 391/226 437/228 436/225
f 394/231 395/230 438/229
f 395/230 439/232 438/229
f 391/226 394/231 437/228
f 394/231 438/229 437/228
f 398/235 399/234 440/233
f 399/234 441/236 440/233
f 402/239 403/238 442/237
f 403/238 443/240 442/237
f 399/234 402/239 441/236
f 402/239 442/237 441/236
f 406/235 407/234 444/241
f 407/234 445/242 444/241
f 410/239 411/238 446/243
f 411/238 447/244 446/243
f 407/234 410/239 445/242
f 410/239 446/243 445/242
f 414/235 415/234 448/241
f 415/234 449/242 448/241
f 418/239 419/238 450/243
f 419/238 451/244 450/243
f 415/234 418/239 449/242
f 418/239 450/243 449/242
f 422/246 423/245 452/241
f 423/245 453/242 452/241
f 426/248 427/247 454/243
f 427/247 455/244 454/243
f 423/245 426/248 453/242
f 426/248 454/243 453/242
f 430/250 431/249 456/241
f 431/249 457/242 456/241
f 434/252 435/251 458/243
f 435/251 459/244 458/243
f 431/249 434/252 457/242
f 434/252 458/243 457/242
f 436/255 439/254 390/253
f 439/254 395/256 390/253
f 440/255 443/254 398/253
f 443/254 403/256 398/253
f 444/255 447/254 406/253
f 447/254 411/256 406/253
f 448/255 451/254 414/253
f 451/254 419/256 414/253
f 452/255 455/254 422/253
f 455/254 427/256 422/253
f 456/255 459/254 430/253
f 459/254 435/256 430/253
usemtl texture9
f 439/259 436/258 438/257
f 436/258 437/260 438/257
f 440/260 441/258 443/257
f 441/258 442/259 443/257
f 447/259 444/258 446/257
f 444/258 445/260 446/257
f 448/260 449/258 451/257
f 449/258 450/259 451/257
f 452/258 453/260 455/259
f 453/260 454/257 455/259
f 459/259 456/258 458/257
f 456/258 457/260 458/257
usemtl texture10
f 390/219 395/217 388/222
f 395/217 393/224 388/222
f 398/224 403/217 396/222
f 403/217 401/219 396/222
f 406/224 411/217 404/222
f 411/217 409/219 404/222
f 414/224 419/217 412/222
f 419/217 417/219 412/222
f 422/224 427/217 420/222
f 427/217 425/219 420/222
f 430/224 435/217 428/222
f 435/217 433/219 428/222
g obj1
usemtl mat1
f 460/263 461/262 462/261
f 461/262 463/264 462/261
f 464/263 465/262 466/261
f 465/262 467/264 466/261
f 468/267 469/266 470/265
f 469/266 471/268 470/265
f 472/267 473/266 474/265
f 473/266 475/268 474/265
f 476/263 477/262 478/261
f 477/262 479/264 478/261
f 480/270 481/269 482/261
f 481/269 483/264 482/261
f 484/267 485/266 486/265
f 485/266 487/268 486/265
f 488/272 489/271 490/265
f 489/271 491/268 490/265
f 461/262 492/273 463/264
f 492/273 493/274 463/264
f 465/262 494/273 467/264
f 494/273 495/274 467/264
f 496/276 468/267 497/275
f 468/267 470/265 497/275
f 498/276 472/267 499/275
f 472/267 474/265 499/275
f 477/262 500/273 479/264
f 500/273 501/274 479/264
f 481/269 502/277 483/264
f 502/277 503/274 483/264
f 504/276 484/267 505/275
f 484/267 486/265 505/275
f 506/278 488/272 507/275
f 488/272 490/265 507/275
f 508/280 509/279 492/273
f 492/273 509/279 493/274
f 494/273 510/280 495/274
f 510/280 511/279 495/274
f 512/282 498/276 513/281
f 498/276 499/275 513/281
f 514/282 496/276 515/281
f 496/276 497/275 515/281
f 500/273 516/280 501/274
f 516/280 517/279 501/274
f 502/277 518/283 503/274
f 518/283 519/279 503/274
f 520/282 504/276 521/281
f 504/276 505/275 521/281
f 522/284 506/278 523/281
f 506/278 507/275 523/281
f 508/280 512/282 509/279
f 512/282 513/281 509/279
f 514/282 515/281 510/280
f 510/280 515/281 511/279
f 516/280 520/282 517/279
f 520/282 521/281 517/279
f 518/283 522/284 519/279
f 522/284 523/281 519/279
f 469/287 464/286 471/285
f 464/286 466/288 471/285
f 460/286 462/288 473/287
f 473/287 462/288 475/285
f 485/287 476/286 487/285
f 476/286 478/288 487/285
f 489/287 480/286 491/285
f 480/286 482/288 491/285
usemtl mat2
f 524/291 525/290 526/289
f 526/289 525/290 527/292
f 528/295 529/294 530/293
f 529/294 531/296 530/293
f 532/298 524/291 533/297
f 533/297 524/291 526/289
f 534/300 535/299 528/295
f 535/299 529/294 528/295
f 536/302 537/301 533/297
f 533/297 537/301 532/298
f 534/300 538/303 535/299
f 538/303 539/304 535/299
usemtl mat3
f 467/307 461/306 466/305
f 466/305 461/306 460/308
f 470/311 471/310 472/309
f 471/310 473/312 472/309
f 478/305 479/307 480/308
f 479/307 481/306 480/308
f 486/311 487/310 488/309
f 487/310 489/312 488/309
f 495/314 492/313 467/307
f 467/307 492/313 461/306
f 497/316 470/311 498/315
f 470/311 472/309 498/315
f 479/307 501/314 481/306
f 501/314 502/313 481/306
f 505/316 486/311 506/315
f 486/311 488/309 506/315
f 511/318 508/317 495/314
f 495/314 508/317 492/313
f 515/320 497/316 512/319
f 497/316 498/315 512/319
f 501/314 517/318 502/313
f 517/318 518/317 502/313
f 521/320 505/316 522/319
f 505/316 506/315 522/319
f 511/318 515/320 508/317
f 515/320 512/319 508/317
f 517/318 521/320 518/317
f 521/320 522/319 518/317
f 471/287 466/321 473/285
f 466/321 460/322 473/285
f 487/287 478/321 489/285
f 478/321 480/322 489/285
usemtl mat4
f 540/325 541/324 542/323
f 541/324 543/326 542/323
f 544/328 541/324 545/327
f 545/327 541/324 540/325
f 541/324 546/329 543/326
f 546/329 547/330 543/326
f 546/329 541/324 548/331
f 541/324 544/328 548/331
f 549/334 550/333 551/332
f 550/333 552/335 551/332
f 553/327 550/333 554/331
f 554/331 550/333 549/334
f 546/329 555/336 547/330
f 555/336 556/337 547/330
f 546/329 548/331 555/336
f 548/331 557/338 555/336
f 558/340 559/339 555/336
f 555/336 559/339 556/337
f 557/338 560/341 555/336
f 555/336 560/341 558/340
f 549/334 551/332 561/340
f 561/340 551/332 562/342
f 563/343 554/331 561/340
f 554/331 549/334 561/340
f 564/346 565/345 566/344
f 566/344 565/345 567/339
f 568/348 569/347 566/344
f 569/347 564/346 566/344
f 570/351 571/350 572/349
f 572/349 571/350 573/352
f 570/351 572/349 574/353
f 572/349 575/354 574/353
f 576/356 572/349 577/355
f 572/349 573/352 577/355
f 578/357 575/354 576/356
f 575/354 572/349 576/356
f 564/346 579/333 565/345
f 579/333 580/358 565/345
f 581/359 579/333 569/347
f 569/347 579/333 564/346
f 582/361 576/356 583/360
f 576/356 577/355 583/360
f 584/362 578/357 582/361
f 578/357 576/356 582/361
f 585/340 582/361 586/339
f 582/361 583/360 586/339
f 584/362 582/361 587/348
f 582/361 585/340 587/348
f 540/365 542/364 588/363
f 588/363 542/364 589/366
f 588/363 590/367 540/365
f 540/365 590/367 545/368
f 558/371 591/370 559/369
f 591/370 592/372 559/369
f 591/370 558/371 593/367
f 593/367 558/371 560/368
f 570/374 594/373 571/364
f 594/373 595/375 571/364
f 594/373 570/374 596/376
f 570/374 574/368 596/376
f 585/379 586/378 597/377
f 597/377 586/378 598/380
f 597/377 599/381 585/379
f 585/379 599/381 587/382
usemtl mat5
f 600/385 601/384 588/383
f 601/384 590/386 588/383
f 553/389 602/388 550/387
f 602/388 603/390 550/387
f 563/393 561/392 604/391
f 604/391 561/392 605/394
f 593/397 606/396 591/395
f 606/396 607/398 591/395
f 600/385 608/399 601/384
f 608/399 609/400 601/384
f 602/388 610/401 603/390
f 610/401 611/402 603/390
f 612/404 604/391 613/403
f 604/391 605/394 613/403
f 614/406 615/405 606/396
f 615/405 607/398 606/396
f 608/399 594/407 609/400
f 594/407 596/408 609/400
f 568/410 566/409 610/401
f 610/401 566/409 611/402
f 613/403 579/411 612/404
f 581/412 612/404 579/411
f 615/405 614/406 597/413
f 614/406 599/414 597/413
usemtl mat6
f 553/417 544/416 590/415
f 590/415 544/416 545/418
f 542/421 543/420 589/419
f 543/420 552/422 589/419
f 552/422 543/420 551/423
f 543/420 547/424 551/423
f 554/426 548/425 553/417
f 548/425 544/416 553/417
f 547/424 556/427 551/423
f 551/423 556/427 562/428
f 557/430 548/425 563/429
f 548/425 554/426 563/429
f 563/429 593/431 557/430
f 593/431 560/432 557/430
f 592/434 562/428 559/433
f 562/428 556/427 559/433
f 574/437 575/436 596/435
f 575/436 568/438 596/435
f 595/441 567/440 571/439
f 567/440 573/442 571/439
f 567/440 565/443 573/442
f 577/444 573/442 565/443
f 569/446 568/438 578/445
f 568/438 575/436 578/445
f 584/448 581/447 578/445
f 581/447 569/446 578/445
f 583/450 577/444 580/449
f 577/444 565/443 580/449
f 583/450 580/449 586/451
f 580/449 598/452 586/451
f 587/454 599/453 584/448
f 584/448 599/453 581/447
usemtl mat7
f 553/287 590/321 469/455
f 590/321 464/456 469/455
f 563/321 476/456 593/287
f 593/287 476/456 485/455
f 601/459 465/458 590/457
f 590/457 465/458 464/460
f 602/463 553/462 468/461
f 553/462 469/464 468/461
f 563/467 604/466 476/465
f 604/466 477/468 476/465
f 606/471 593/470 484/469
f 593/470 485/472 484/469
f 601/459 609/473 465/458
f 609/473 494/474 465/458
f 610/476 602/463 496/475
f 602/463 468/461 496/475
f 604/466 612/477 477/468
f 612/477 500/478 477/468
f 614/480 606/471 504/479
f 606/471 484/469 504/479
f 609/473 596/481 494/474
f 596/481 510/482 494/474
f 568/484 610/476 514/483
f 610/476 496/475 514/483
f 612/477 581/485 500/478
f 581/485 516/486 500/478
f 614/480 504/479 599/487
f 599/487 504/479 520/488
f 568/484 514/483 596/481
f 596/481 514/483 510/482
f 520/488 516/486 599/487
f 581/485 599/487 516/486
usemtl mat8
f 603/491 600/490 550/489
f 600/490 588/492 550/489
f 605/495 561/494 607/493
f 607/493 561/494 591/496
f 603/491 611/497 600/490
f 600/490 611/497 608/498
f 613/500 605/495 615/499
f 615/499 605/495 607/493
f 594/502 608/498 566/501
f 566/501 608/498 611/497
f 597/504 579/503 615/499
f 579/503 613/500 615/499
usemtl mat9
f 525/285 475/287 527/322
f 475/287 462/321 527/322
f 491/287 482/321 531/285
f 482/321 530/322 531/285
f 462/507 463/506 527/505
f 463/506 526/508 527/505
f 475/511 525/510 474/509
f 474/509 525/510 524/512
f 482/507 483/506 530/505
f 483/506 528/508 530/505
f 491/511 531/510 490/509
f 490/509 531/510 529/512
f 493/514 533/513 463/506
f 463/506 533/513 526/508
f 499/516 474/509 532/515
f 474/509 524/512 532/515
f 483/506 503/514 528/508
f 503/514 534/513 528/508
f 507/516 490/509 535/515
f 490/509 529/512 535/515
f 533/513 493/514 536/517
f 493/514 509/518 536/517
f 513/520 499/516 537/519
f 499/516 532/515 537/519
f 519/518 538/517 503/514
f 503/514 538/517 534/513
f 523/520 507/516 539/519
f 507/516 535/515 539/519
f 509/518 513/520 536/517
f 513/520 537/519 536/517
f 519/518 523/520 538/517
f 523/520 539/519 538/517
usemtl mat10
f 588/523 589/522 550/521
f 550/521 589/522 552/524
f 591/521 561/523 592/524
f 561/523 562/522 592/524
f 594/521 566/523 595/524
f 566/523 567/522 595/524
f 597/523 598/522 579/521
f 579/521 598/522 580/524
usemtl mat11
f 616/527 617/526 618/525
f 617/526 619/528 618/525
f 620/258 616/527 621/529
f 616/527 618/525 621/529
f 618/525 619/528 622/530
f 619/528 623/531 622/530
f 621/529 618/525 624/532
f 618/525 622/530 624/532
usemtl texture11
f 625/535 626/534 627/533
f 626/534 628/536 627/533
f 629/539 630/538 631/537
f 631/537 630/538 617/540
f 632/542 631/537 616/541
f 631/537 617/540 616/541
f 633/545 634/544 629/543
f 629/543 634/544 630/546
f 617/540 630/538 619/547
f 630/538 634/548 619/547
f 635/550 632/542 620/549
f 632/542 616/541 620/549
f 636/552 635/550 637/551
f 635/550 620/549 637/551
f 633/545 638/554 639/553
f 638/554 640/555 639/553
f 634/544 633/545 641/556
f 633/545 639/553 641/556
f 637/551 620/549 625/557
f 620/549 621/558 625/557
f 636/560 637/559 627/533
f 625/535 627/533 637/559
f 634/548 642/561 619/547
f 619/547 642/561 623/562
f 634/544 641/556 642/563
f 641/556 643/564 642/563
f 627/533 628/536 644/565
f 628/536 645/566 644/565
f 623/569 642/568 646/567
f 642/568 643/570 646/567
f 622/572 623/569 647/571
f 623/569 646/567 647/571
f 625/557 621/558 648/573
f 621/558 624/574 648/573
f 625/535 648/575 626/534
f 648/575 649/576 626/534
f 624/578 622/572 650/577
f 622/572 647/571 650/577
f 648/580 624/578 649/579
f 624/578 650/577 649/579
usemtl texture12
f 651/583 652/582 653/581
f 652/582 654/584 653/581
f 654/584 652/582 655/585
f 652/582 656/586 655/585
f 655/585 656/586 657/587
f 656/586 658/588 657/587
f 659/590 657/587 660/589
f 657/587 658/588 660/589
f 661/593 662/592 663/591
f 662/592 664/594 663/591
f 665/596 664/594 666/595
f 664/594 662/592 666/595
f 667/598 665/596 668/597
f 665/596 666/595 668/597
f 667/598 668/597 669/599
f 668/597 670/600 669/599
f 671/603 672/602 652/601
f 672/602 656/604 652/601
f 673/607 674/606 655/605
f 674/606 654/608 655/605
f 672/602 675/609 656/604
f 675/609 658/610 656/604
f 676/612 673/607 657/611
f 673/607 655/605 657/611
f 677/615 678/614 662/613
f 678/614 666/616 662/613
f 679/607 680/618 665/617
f 680/618 664/619 665/617
f 678/614 681/620 666/616
f 681/620 668/621 666/616
f 682/623 679/607 667/622
f 679/607 665/617 667/622
usemtl texture13
f 674/626 683/625 654/624
f 683/625 653/627 654/624
f 684/630 676/629 659/628
f 676/629 657/631 659/628
f 685/634 677/633 661/632
f 677/633 662/635 661/632
f 681/638 686/637 668/636
f 686/637 670/639 668/636
usemtl texture14
f 687/642 688/641 689/640
f 688/641 690/643 689/640
f 691/646 692/645 693/644
f 692/645 694/647 693/644
f 695/649 696/648 687/642
f 696/648 688/641 687/642
f 697/651 698/650 691/646
f 698/650 692/645 691/646
f 695/649 699/652 696/648
f 699/652 700/653 696/648
f 697/651 701/654 698/650
f 701/654 702/655 698/650
f 703/658 704/657 705/656
f 704/657 690/659 705/656
f 706/661 703/658 693/660
f 703/658 705/656 693/660
f 707/664 700/663 708/662
f 700/663 709/665 708/662
f 701/667 707/664 710/666
f 707/664 708/662 710/666
usemtl texture15
f 711/670 671/669 651/668
f 671/669 652/671 651/668
f 712/673 704/672 711/670
f 704/672 671/669 711/670
f 683/675 711/670 653/674
f 711/670 651/668 653/674
f 711/670 683/675 712/673
f 683/675 689/676 712/673
f 675/679 713/678 658/677
f 713/678 660/680 658/677
f 675/679 706/681 713/678
f 706/681 714/682 713/678
f 713/678 684/683 660/680
f 684/683 659/684 660/680
f 694/685 684/683 714/682
f 684/683 713/678 714/682
f 715/688 685/687 663/686
f 685/687 661/689 663/686
f 685/687 715/688 699/690
f 715/688 716/691 699/690
f 715/688 680/692 716/691
f 680/692 709/693 716/691
f 680/692 715/688 664/694
f 715/688 663/686 664/694
f 717/697 686/696 718/695
f 686/696 702/698 718/695
f 686/696 717/697 670/699
f 717/697 669/700 670/699
f 717/697 682/701 669/700
f 682/701 667/702 669/700
f 710/703 682/701 718/695
f 682/701 717/697 718/695
f 689/706 690/705 712/704
f 690/705 704/707 712/704
f 693/705 694/706 706/707
f 694/706 714/704 706/707
f 716/706 709/705 699/704
f 709/705 700/707 699/704
f 710/706 718/705 701/704
f 718/705 702/707 701/704
usemtl texture16
f 719/710 720/709 674/708
f 720/709 683/711 674/708
f 705/714 690/713 721/712
f 690/713 688/715 721/712
f 722/717 719/710 673/716
f 719/710 674/708 673/716
f 723/719 722/717 676/718
f 722/717 673/716 676/718
f 693/721 705/714 691/720
f 705/714 721/712 691/720
f 724/723 723/719 684/722
f 723/719 676/718 684/722
f 720/709 719/710 725/724
f 719/710 726/725 725/724
f 726/725 719/710 727/726
f 719/710 722/717 727/726
f 688/715 696/727 721/712
f 696/727 728/728 721/712
f 727/726 722/717 729/729
f 722/717 723/719 729/729
f 721/712 728/728 691/720
f 728/728 697/730 691/720
f 730/731 729/729 724/723
f 729/729 723/719 724/723
f 677/733 685/732 726/725
f 685/732 725/724 726/725
f 677/733 726/725 678/734
f 726/725 727/726 678/734
f 728/728 696/727 707/735
f 696/727 700/736 707/735
f 678/734 727/726 681/737
f 727/726 729/729 681/737
f 697/730 728/728 701/738
f 728/728 707/735 701/738
f 686/739 681/737 730/731
f 681/737 729/729 730/731
usemtl texture17
f 672/742 671/741 703/740
f 671/741 704/743 703/740
f 672/742 703/740 675/744
f 703/740 706/745 675/744
f 708/748 709/747 679/746
f 709/747 680/749 679/746
f 710/751 708/748 682/750
f 708/748 679/746 682/750
f 720/754 687/753 683/752
f 687/753 689/755 683/752
f 694/758 692/757 684/756
f 692/757 724/759 684/756
f 720/754 725/760 687/753
f 725/760 695/761 687/753
f 698/763 730/762 692/757
f 730/762 724/759 692/757
f 685/765 699/764 725/760
f 699/764 695/761 725/760
f 698/763 702/766 730/762
f 702/766 686/767 730/762
# 1146 elements

