# Created by Metasequoia

mtllib Mad_express7.mtl

v -3967.398926 30.999901 -3013.410889
v -3941.694336 30.999901 -2993.687012
v -3952.484375 30.999901 -3032.847900
v -3926.779785 30.999901 -3013.124268
v -3937.569824 30.999901 -3052.285156
v -3911.865234 30.999901 -3032.561279
v -3916.624268 30.999901 -2974.450195
v -3901.709717 30.999901 -2993.887207
v -3886.795166 30.999901 -3013.324219
v -3689.665771 30.999901 -3347.725586
v -3665.778076 30.999901 -3325.836426
v -3673.113770 30.999901 -3365.788818
v -3649.226074 30.999901 -3343.899658
v -3656.562012 30.999901 -3383.852051
v -3632.674316 30.999901 -3361.962891
v -3642.479980 30.999901 -3304.487793
v -3625.927979 30.999901 -3322.551025
v -3609.376221 30.999901 -3340.614258
v -3972.702881 29.999901 -3013.069092
v -3969.529541 29.999901 -3010.634033
v -3970.572266 30.999901 -3015.845947
v -3955.049072 29.999901 -3036.076172
v -3955.657715 30.999901 -3035.282959
v -3943.824951 29.999901 -2990.910400
v -3952.918457 27.999901 -3038.853027
v -3955.049072 20.999901 -3036.076172
v -3952.918457 20.999901 -3038.853027
v -3940.743164 30.999901 -3054.719971
v -3951.700928 29.999901 -3040.439697
v -3938.612549 29.999901 -3057.496826
v -3935.438965 29.999901 -3055.061768
v -3918.754883 29.999901 -2971.673340
v -3909.734375 29.999901 -3035.337891
v -3915.581543 29.999901 -2969.238281
v -3913.450928 30.999901 -2972.014893
v -3898.536377 30.999901 -2991.452148
v -3897.927490 29.999901 -2992.245361
v -3884.664551 29.999901 -3016.101074
v -3897.927490 20.999901 -2992.245361
v -3895.796875 27.999901 -2995.022217
v -3895.796875 20.999901 -2995.022217
v -3894.579346 29.999901 -2996.608887
v -3883.621826 30.999901 -3010.889404
v -3881.490967 29.999901 -3013.666016
v -3694.979492 29.999901 -3347.847412
v -3692.030273 29.999901 -3345.145020
v -3692.614502 30.999901 -3350.427979
v -3675.387451 29.999901 -3369.228271
v -3676.062988 30.999901 -3368.491455
v -3668.142578 29.999901 -3323.256104
v -3673.022949 27.999901 -3371.808838
v -3675.387451 20.999901 -3369.228271
v -3673.022949 20.999901 -3371.808838
v -3659.510986 30.999901 -3386.554443
v -3671.671631 29.999901 -3373.283447
v -3657.146484 29.999901 -3389.134766
v -3654.197266 29.999901 -3386.432617
v -3644.844482 29.999901 -3301.907227
v -3630.309570 29.999901 -3364.543457
v -3641.895508 29.999901 -3299.205078
v -3639.530518 30.999901 -3301.785400
v -3622.979004 30.999901 -3319.848389
v -3622.303467 29.999901 -3320.585938
v -3622.303467 20.999901 -3320.585938
v -3619.938965 27.999901 -3323.166260
v -3619.938965 20.999901 -3323.166260
v -3618.587646 29.999901 -3324.640869
v -3607.011719 29.999901 -3343.194824
v -3606.427002 30.999901 -3337.911865
v -3604.062500 29.999901 -3340.492432
v -3952.701904 14.999900 -3068.531006
v -3945.038086 14.999900 -3062.106934
v -3959.125732 14.999900 -3060.867432
v -3951.462402 14.999900 -3054.443359
v -3914.384033 14.999900 -3036.409912
v -3920.808350 14.999900 -3028.746338
v -3883.729736 14.999900 -3010.713379
v -3890.154053 14.999900 -3003.049805
v -3882.490479 14.999900 -2996.625732
v -3876.066162 14.999900 -3004.289307
v -3694.495850 14.999900 -3360.985596
v -3700.919922 14.999900 -3353.322021
v -3702.159424 14.999900 -3367.409424
v -3708.583252 14.999900 -3359.746094
v -3663.841797 14.999900 -3335.288818
v -3670.265869 14.999900 -3327.625000
v -3633.187500 14.999900 -3309.592041
v -3639.611572 14.999900 -3301.928467
v -3631.947998 14.999900 -3295.504639
v -3625.524170 14.999900 -3303.167969
v -3920.808350 19.999901 -3028.746338
v -3951.462402 19.999901 -3054.443359
v -3945.038086 19.999901 -3062.106934
v -3914.384033 19.999901 -3036.409912
v -3890.154053 19.999901 -3003.049805
v -3883.729736 19.999901 -3010.713379
v -3670.265869 19.999901 -3327.625000
v -3700.919922 19.999901 -3353.322021
v -3694.495850 19.999901 -3360.985596
v -3663.841797 19.999901 -3335.288818
v -3639.611572 19.999901 -3301.928467
v -3633.187500 19.999901 -3309.592041
v -4205.100586 14.999900 -2712.353516
v -4196.906250 14.999900 -2706.621826
v -4210.832520 14.999900 -2704.159180
v -4202.638184 14.999900 -2698.427490
v -4164.129395 14.999900 -2683.694336
v -4169.861328 14.999900 -2675.500000
v -4131.352051 14.999900 -2660.767334
v -4137.083984 14.999900 -2652.572998
v -4128.889648 14.999900 -2646.841064
v -4123.157715 14.999900 -2655.035400
v -3973.366455 14.999900 -3026.199463
v -3979.098145 14.999900 -3018.005127
v -3981.560791 14.999900 -3031.930908
v -3987.292236 14.999900 -3023.737061
v -3940.589355 14.999900 -3003.271973
v -3946.321289 14.999900 -2995.077637
v -3907.812256 14.999900 -2980.344971
v -3913.543945 14.999900 -2972.150635
v -3905.349609 14.999900 -2966.418701
v -3899.617920 14.999900 -2974.613037
v -4169.861328 19.999901 -2675.500000
v -4202.638184 19.999901 -2698.427490
v -4196.906250 19.999901 -2706.621826
v -4164.129395 19.999901 -2683.694336
v -4137.083984 19.999901 -2652.572998
v -4131.352051 19.999901 -2660.767334
v -3946.321289 19.999901 -2995.077637
v -3979.098145 19.999901 -3018.005127
v -3973.366455 19.999901 -3026.199463
v -3940.589355 19.999901 -3003.271973
v -3913.543945 19.999901 -2972.150635
v -3907.812256 19.999901 -2980.344971
v -3952.701660 19.999901 -3068.531006
v -3876.065918 19.999901 -3004.289307
v -3708.583496 19.999901 -3359.746094
v -3631.947998 19.999901 -3295.504395
v -4205.100586 19.999901 -2712.353516
v -4123.157715 19.999901 -2655.035400
v -3987.292480 19.999901 -3023.736816
v -3905.349609 19.999901 -2966.418701
v -3887.220703 29.999901 -3131.078857
v -3894.884033 29.999901 -3137.502930
v -3945.038086 29.999901 -3062.106934
v -3952.701660 29.999901 -3068.531006
v -3818.248535 29.999901 -3073.261230
v -3825.912109 29.999901 -3079.685303
v -3876.066162 29.999901 -3004.289307
v -3883.729736 29.999901 -3010.713379
v -3758.737549 29.999901 -3284.350098
v -3766.401123 29.999901 -3290.774170
v -3689.765625 29.999901 -3226.532471
v -3697.429199 29.999901 -3232.956543
v -3700.919922 29.999901 -3353.322021
v -3708.583496 29.999901 -3359.746094
v -3631.947998 29.999901 -3295.504395
v -3639.611572 29.999901 -3301.928467
v -3951.462402 29.999901 -3054.443359
v -3920.808350 29.999901 -3028.746338
v -3914.384033 29.999901 -3036.409912
v -3890.154053 29.999901 -3003.049805
v -3670.265869 29.999901 -3327.625000
v -3694.495850 29.999901 -3360.985596
v -3663.841797 29.999901 -3335.288818
v -3633.187500 29.999901 -3309.592041
v -4145.320313 29.999901 -2780.370361
v -4153.514160 29.999901 -2786.102295
v -4196.906250 29.999901 -2706.621826
v -4205.100586 29.999901 -2712.353516
v -4071.571533 29.999901 -2728.784180
v -4079.765869 29.999901 -2734.515869
v -4123.157715 29.999901 -2655.035400
v -4131.352051 29.999901 -2660.767334
v -4030.684570 29.999901 -2944.256348
v -4038.878662 29.999901 -2949.988281
v -3956.935791 29.999901 -2892.670166
v -3965.130127 29.999901 -2898.401855
v -3979.098145 29.999901 -3018.005127
v -3987.292480 29.999901 -3023.736816
v -3905.349609 29.999901 -2966.418701
v -3913.543945 29.999901 -2972.150635
v -4202.638184 29.999901 -2698.427490
v -4169.861328 29.999901 -2675.500000
v -4164.129395 29.999901 -2683.694336
v -4137.083984 29.999901 -2652.572998
v -3946.321289 29.999901 -2995.077637
v -3973.366455 29.999901 -3026.199463
v -3940.589355 29.999901 -3003.271973
v -3907.812256 29.999901 -2980.344971
v -3959.125732 19.999901 -3060.867432
v -3959.125732 29.999901 -3060.867432
v -3882.490479 19.999901 -2996.625732
v -3882.490479 29.999901 -2996.625732
v -3702.159424 19.999901 -3367.409668
v -3702.159424 29.999901 -3367.409424
v -3625.523926 19.999901 -3303.167969
v -3625.524170 29.999901 -3303.167969
v -4210.832520 19.999901 -2704.159180
v -4210.832520 29.999901 -2704.159180
v -4128.889648 19.999901 -2646.841064
v -4128.889648 29.999901 -2646.841064
v -3981.560791 19.999901 -3031.931152
v -3981.560791 29.999901 -3031.930908
v -3899.617920 19.999901 -2974.613037
v -3899.617920 29.999901 -2974.613037
v -3894.884033 19.999901 -3137.502930
v -3887.220703 19.999901 -3131.078857
v -3856.566650 19.999901 -3105.381836
v -3856.566650 29.999901 -3105.381836
v -3825.912109 19.999901 -3079.685303
v -3818.248535 19.999901 -3073.261230
v -3766.401123 19.999901 -3290.774170
v -3758.737549 19.999901 -3284.350098
v -3728.083496 19.999901 -3258.653076
v -3728.083496 29.999901 -3258.653076
v -3697.429199 19.999901 -3232.956543
v -3689.765625 19.999901 -3226.532471
v -4153.514160 19.999901 -2786.102295
v -4145.320313 19.999901 -2780.370361
v -4112.542969 19.999901 -2757.442871
v -4112.542969 29.999901 -2757.442871
v -4079.765869 19.999901 -2734.515869
v -4071.571533 19.999901 -2728.784180
v -4038.878662 19.999901 -2949.988281
v -4030.684570 19.999901 -2944.256348
v -3997.907471 19.999901 -2921.329102
v -3997.907471 29.999901 -2921.329102
v -3965.130127 19.999901 -2898.401855
v -3956.935791 19.999901 -2892.670166
v -3685.504883 54.999901 -3314.411377
v -3685.152588 45.000099 -3314.059570
v -3684.089600 54.999901 -3313.002686
v -3684.442627 44.999802 -3313.355469
v -3601.412354 45.000099 -3398.258301
v -3601.766602 54.999901 -3398.609863
v -3600.349609 54.999901 -3397.199707
v -3600.702637 44.999802 -3397.552490
v -3503.923340 54.999901 -3496.989014
v -3503.569824 45.000099 -3496.636719
v -3502.506348 54.999901 -3495.578857
v -3502.859863 44.999802 -3495.930908
v -3405.726318 45.000099 -3595.014893
v -3406.080078 54.999901 -3595.367920
v -3404.663330 54.999901 -3593.957764
v -3405.016357 44.999802 -3594.309082
v -3315.288330 45.056999 -3686.656982
v -3315.289307 54.999901 -3686.656006
v -3313.871826 54.999901 -3685.246826
v -3314.224854 44.999802 -3685.597900
v -3683.651367 39.999901 -3318.261475
v -3683.651367 49.999901 -3318.261475
v -3682.626465 39.999901 -3322.127930
v -3682.626465 49.999901 -3322.127930
v -3678.765869 39.999901 -3323.174072
v -3678.765869 49.999901 -3323.174072
v -3675.929688 39.999901 -3320.353271
v -3675.929688 49.999901 -3320.353271
v -3676.954102 39.999901 -3316.486572
v -3676.954102 49.999901 -3316.486572
v -3680.815186 39.999901 -3315.440918
v -3680.815186 49.999901 -3315.440674
v -3672.700195 39.999901 -3312.255859
v -3686.880859 39.999901 -3326.359131
v -3682.352295 39.999901 -3309.641357
v -3689.442627 39.999901 -3316.692627
v -3670.138428 39.999901 -3321.922119
v -3677.228760 39.999901 -3328.973877
v -3689.442627 29.999901 -3316.692871
v -3686.880859 29.999901 -3326.359131
v -3682.352295 29.999901 -3309.641113
v -3677.228760 29.999901 -3328.973877
v -3670.138428 29.999901 -3321.922119
v -3672.700195 29.999901 -3312.255859
v -3949.635986 35.999901 -3065.961670
v -3951.935303 35.999901 -3067.888672
v -3949.635986 31.999901 -3065.961670
v -3951.935303 31.999901 -3067.888672
v -3911.462891 31.999901 -3116.168945
v -3911.462891 35.999901 -3116.168945
v -3909.163818 31.999901 -3114.241699
v -3909.163818 35.999901 -3114.241699
v -3868.421143 31.999901 -3167.514893
v -3868.421143 35.999901 -3167.514893
v -3866.122070 31.999901 -3165.587646
v -3866.122070 35.999901 -3165.587646
v -3876.832764 35.999901 -3004.931641
v -3879.131592 35.999901 -3006.858643
v -3876.832764 31.999901 -3004.931641
v -3879.131592 31.999901 -3006.858643
v -3838.659180 31.999901 -3055.139160
v -3838.659180 35.999901 -3055.139160
v -3836.360107 35.999901 -3053.211914
v -3836.360107 31.999901 -3053.211914
v -3791.331299 31.999901 -3259.477539
v -3791.331299 35.999901 -3259.477539
v -3789.032227 31.999901 -3257.550293
v -3789.032227 35.999901 -3257.550293
v -3795.617432 31.999901 -3106.485107
v -3795.617432 35.999901 -3106.485107
v -3793.318359 31.999901 -3104.557861
v -3793.318359 35.999901 -3104.557861
v -3761.137939 31.999901 -3295.496338
v -3761.137939 35.999901 -3295.496338
v -3758.838867 31.999901 -3293.569092
v -3758.838867 35.999901 -3293.569092
v -3718.527588 31.999901 -3198.447754
v -3718.527588 35.999901 -3198.447754
v -3716.228516 31.999901 -3196.520508
v -3716.228516 35.999901 -3196.520508
v -3707.817139 31.999901 -3359.103760
v -3707.817139 35.999901 -3359.103760
v -3705.518311 31.999901 -3357.176514
v -3705.518311 35.999901 -3357.176514
v -3688.334229 31.999901 -3234.466553
v -3688.334229 35.999901 -3234.466553
v -3686.034912 31.999901 -3232.539307
v -3686.034912 35.999901 -3232.539307
v -3635.013428 31.999901 -3298.073975
v -3635.013428 35.999901 -3298.073975
v -3632.714111 31.999901 -3296.146729
v -3632.714111 35.999901 -3296.146729
v -4201.822754 35.999901 -2710.061035
v -4204.281250 35.999901 -2711.780518
v -4201.822754 31.999901 -2710.061035
v -4204.281250 31.999901 -2711.780518
v -4168.170898 31.999901 -2763.404541
v -4168.170898 35.999901 -2763.404541
v -4165.712402 31.999901 -2761.684814
v -4165.712402 35.999901 -2761.684814
v -4129.768066 31.999901 -2818.306396
v -4129.768066 35.999901 -2818.306396
v -4127.309570 31.999901 -2816.586914
v -4127.309570 35.999901 -2816.586914
v -4123.977051 35.999901 -2655.608887
v -4126.435547 35.999901 -2657.328369
v -4123.977051 31.999901 -2655.608887
v -4126.435547 31.999901 -2657.328369
v -4090.324951 31.999901 -2708.952148
v -4090.324951 35.999901 -2708.952148
v -4087.866699 31.999901 -2707.232666
v -4087.866699 35.999901 -2707.232666
v -4060.986328 31.999901 -2916.637939
v -4060.986328 35.999901 -2916.637939
v -4058.528076 31.999901 -2914.918457
v -4058.528076 35.999901 -2914.918457
v -4051.922119 31.999901 -2763.854248
v -4051.922119 35.999901 -2763.854248
v -4049.463867 35.999901 -2762.134766
v -4049.463867 31.999901 -2762.134766
v -4034.047119 31.999901 -2955.151123
v -4034.047119 35.999901 -2955.151123
v -4031.588867 31.999901 -2953.431641
v -4031.588867 35.999901 -2953.431641
v -3983.140625 31.999901 -2862.185791
v -3983.140625 35.999901 -2862.185791
v -3980.682373 31.999901 -2860.466309
v -3980.682373 35.999901 -2860.466309
v -3986.473389 31.999901 -3023.163818
v -3986.473389 35.999901 -3023.163818
v -3984.014648 31.999901 -3021.444336
v -3984.014648 35.999901 -3021.444336
v -3956.201416 31.999901 -2900.698975
v -3956.201416 35.999901 -2900.698975
v -3953.742920 31.999901 -2898.979492
v -3953.742920 35.999901 -2898.979492
v -3908.627197 31.999901 -2968.711670
v -3908.627197 35.999901 -2968.711670
v -3906.168945 31.999901 -2966.992188
v -3906.168945 35.999901 -2966.992188
v -3952.701660 29.999901 -3068.531006
v -3955.913818 29.999901 -3064.699219
v -3952.701660 44.851299 -3068.531006
v -3955.913818 44.851299 -3064.699219
v -3948.869873 29.999901 -3065.318848
v -3948.869873 44.851299 -3065.318848
v -3952.082031 29.999901 -3061.487061
v -3952.082031 44.851299 -3061.487061
v -3879.897949 29.999901 -3007.501221
v -3883.110107 29.999901 -3003.669434
v -3879.897949 44.851299 -3007.501221
v -3883.110107 44.851299 -3003.669434
v -3876.066162 29.999901 -3004.289307
v -3876.066162 44.851299 -3004.289307
v -3879.278320 29.999901 -3000.457520
v -3879.278320 44.851299 -3000.457520
v -3829.036621 29.999901 -3216.054443
v -3832.248535 29.999901 -3212.222656
v -3829.036621 44.851299 -3216.054443
v -3832.248535 44.851299 -3212.222656
v -3825.204834 29.999901 -3212.842285
v -3825.204834 44.851299 -3212.842285
v -3828.416748 29.999901 -3209.010742
v -3828.416748 44.851299 -3209.010742
v -3756.232910 29.999901 -3155.024658
v -3759.444824 29.999901 -3151.193115
v -3756.232910 44.851299 -3155.024658
v -3759.444824 44.851299 -3151.193115
v -3752.401123 29.999901 -3151.812744
v -3752.401123 44.851299 -3151.812744
v -3755.613037 29.999901 -3147.980957
v -3755.613037 44.851299 -3147.980957
v -3705.371338 29.999901 -3363.577881
v -3708.583496 29.999901 -3359.746094
v -3705.371338 44.851299 -3363.577881
v -3708.583496 44.851299 -3359.746094
v -3701.539551 29.999901 -3360.365967
v -3701.539551 44.851299 -3360.365967
v -3704.751709 29.999901 -3356.534180
v -3704.751709 44.851299 -3356.534180
v -3632.567627 29.999901 -3302.548340
v -3635.779785 29.999901 -3298.716553
v -3632.567627 44.851299 -3302.548340
v -3635.779785 44.851299 -3298.716553
v -3628.735840 29.999901 -3299.336182
v -3628.735840 44.851299 -3299.336182
v -3631.947998 29.999901 -3295.504395
v -3631.947998 44.851299 -3295.504395
v -4205.100586 29.999901 -2712.353760
v -4207.966309 29.999901 -2708.256592
v -4205.100586 44.851299 -2712.353760
v -4207.966309 44.851299 -2708.256592
v -4201.003418 29.999901 -2709.487793
v -4201.003418 44.851299 -2709.487793
v -4203.869629 29.999901 -2705.390625
v -4203.869629 44.851299 -2705.390625
v -4127.254883 29.999901 -2657.901367
v -4130.120605 29.999901 -2653.804199
v -4127.254883 44.851299 -2657.901367
v -4130.120605 44.851299 -2653.804199
v -4123.157715 29.999901 -2655.035645
v -4123.157715 44.851299 -2655.035645
v -4126.023438 29.999901 -2650.938477
v -4126.023438 44.851299 -2650.938477
v -4094.763672 29.999901 -2870.093994
v -4097.629395 29.999901 -2865.996826
v -4094.763672 44.851299 -2870.093994
v -4097.629395 44.851299 -2865.996826
v -4090.666504 29.999901 -2867.228027
v -4090.666504 44.851299 -2867.228027
v -4093.532227 29.999901 -2863.130859
v -4093.532227 44.851299 -2863.130859
v -4016.917969 29.999901 -2815.641602
v -4019.783691 29.999901 -2811.544678
v -4016.917969 44.851299 -2815.641602
v -4019.783691 44.851299 -2811.544678
v -4012.820801 29.999901 -2812.775879
v -4012.820801 44.851299 -2812.775879
v -4015.686523 29.999901 -2808.678711
v -4015.686523 44.851299 -2808.678711
v -3984.426514 29.999901 -3027.834229
v -3987.292480 29.999901 -3023.737061
v -3984.426514 44.851299 -3027.834229
v -3987.292480 44.851299 -3023.737061
v -3980.329346 29.999901 -3024.968262
v -3980.329346 44.851299 -3024.968262
v -3983.195313 29.999901 -3020.871094
v -3983.195313 44.851299 -3020.871094
v -3906.580811 29.999901 -2973.381836
v -3909.446777 29.999901 -2969.284668
v -3906.580811 44.851299 -2973.381836
v -3909.446777 44.851299 -2969.284668
v -3902.483643 29.999901 -2970.516113
v -3902.483643 44.851299 -2970.516113
v -3905.349609 29.999901 -2966.418945
v -3905.349609 44.851299 -2966.418945
v -3952.701904 49.999901 -3068.531006
v -3955.913818 49.999901 -3064.699219
v -3948.869873 49.999901 -3065.319092
v -3952.082031 49.999901 -3061.487061
v -3879.897705 49.999901 -3007.501221
v -3883.110107 49.999901 -3003.669189
v -3876.066162 49.999901 -3004.289307
v -3879.278320 49.999901 -3000.457764
v -3829.036377 49.999901 -3216.054443
v -3832.248779 49.999901 -3212.222656
v -3825.204834 49.999901 -3212.842529
v -3828.416748 49.999901 -3209.010742
v -3756.233154 49.999901 -3155.024658
v -3759.444580 49.999901 -3151.193115
v -3752.401123 49.999901 -3151.812744
v -3755.613037 49.999901 -3147.981201
v -3705.371338 49.999901 -3363.577881
v -3708.583252 49.999901 -3359.746094
v -3701.539795 49.999901 -3360.365967
v -3704.751709 49.999901 -3356.534180
v -3632.567627 49.999901 -3302.548096
v -3635.780029 49.999901 -3298.716553
v -3628.735596 49.999901 -3299.336182
v -3631.947998 49.999901 -3295.504639
v -4205.100586 49.999901 -2712.353760
v -4207.966309 49.999901 -2708.256592
v -4201.003418 49.999901 -2709.487793
v -4203.869629 49.999901 -2705.390625
v -4127.254883 49.999901 -2657.901367
v -4130.120605 49.999901 -2653.804199
v -4123.157715 49.999901 -2655.035645
v -4126.023438 49.999901 -2650.938477
v -4094.763672 49.999901 -2870.093994
v -4097.629395 49.999901 -2865.996826
v -4090.666748 49.999901 -2867.227783
v -4093.532227 49.999901 -2863.130859
v -4016.917969 49.999901 -2815.641602
v -4019.783936 49.999901 -2811.544678
v -4012.821045 49.999901 -2812.776123
v -4015.686523 49.999901 -2808.678711
v -3984.426514 49.999901 -3027.834229
v -3987.292236 49.999901 -3023.737061
v -3980.329346 49.999901 -3024.968018
v -3983.195313 49.999901 -3020.871094
v -3906.580811 49.999901 -2973.381836
v -3909.446533 49.999901 -2969.284424
v -3902.483643 49.999901 -2970.516357
v -3905.349609 49.999901 -2966.418945
v -4310.002441 24.049700 -2368.339844
v -4368.823730 24.049700 -2402.655273
v -4314.011230 54.072189 -2370.678223
v -4364.815918 54.072189 -2400.316895
v -4339.424805 13.999900 -2385.478516
v -4373.975098 13.999900 -2405.634766
v -4371.900879 21.537300 -2404.443848
v -4339.413574 66.557503 -2385.497559
v -4356.379883 64.079597 -2395.395508
v -4322.447266 64.079597 -2375.599609
v -4306.931152 21.537300 -2366.541504
v -4304.874023 13.999900 -2365.322510
v -4320.577637 56.928501 -2477.366699
v -4308.988770 65.794769 -2485.278076
v -4303.105469 56.922501 -2507.316162
v -4297.902344 65.794777 -2504.280762
v -4320.577148 56.928600 -2477.366211
v -4294.645020 56.928600 -2462.237549
v -4288.258789 65.794746 -2473.184326
v -4286.147949 56.928600 -2536.385498
v -4303.106445 56.922649 -2507.316406
v -4287.330078 65.794769 -2522.403320
v -4268.711426 56.928501 -2447.108643
v -4267.527832 65.794769 -2461.090576
v -4294.644531 56.928501 -2462.237549
v -4286.146973 56.928501 -2536.385254
v -4260.213867 56.928501 -2521.256348
v -4266.600098 65.794746 -2510.309814
v -4268.711914 56.928600 -2447.108887
v -4251.239258 56.922649 -2477.058350
v -4256.441895 65.794823 -2480.093506
v -4234.280762 56.928631 -2506.127197
v -4260.213867 56.928600 -2521.256104
v -4245.869629 65.794830 -2498.216064
v -4280.264648 56.928501 -2546.468018
v -4268.675781 65.794769 -2554.379150
v -4262.792969 56.922501 -2576.416992
v -4257.589844 65.794746 -2573.381836
v -4280.265137 56.928600 -2546.467529
v -4254.332031 56.928600 -2531.338623
v -4247.945801 65.794800 -2542.285156
v -4245.833984 56.928501 -2605.485840
v -4247.017578 65.794731 -2591.503906
v -4228.399414 56.928501 -2516.209717
v -4227.215820 65.794830 -2530.191650
v -4254.332031 56.928501 -2531.338379
v -4219.901367 56.928501 -2590.356934
v -4226.287598 65.794746 -2579.410156
v -4228.399414 56.928650 -2516.209961
v -4210.926758 56.922649 -2546.159180
v -4216.129883 65.794823 -2549.194336
v -4193.968750 56.928501 -2575.228271
v -4205.557129 65.794800 -2567.316406
v -4244.846191 26.049999 -2615.171143
v -4186.024414 26.049999 -2580.855469
v -4240.837402 56.072399 -2612.832764
v -4190.032715 56.072399 -2583.193848
v -4247.916992 23.537500 -2616.968994
v -4249.974609 16.000200 -2618.188477
v -4215.423828 16.000200 -2598.032227
v -4215.435059 68.557701 -2598.013428
v -4232.401367 66.079903 -2607.911377
v -4198.468750 66.079903 -2588.115479
v -4182.947754 23.537500 -2579.067139
v -4180.873535 16.000200 -2577.876221
v -4360.889648 56.928600 -2408.265869
v -4349.299805 65.794800 -2416.177490
v -4343.417480 56.922600 -2438.215576
v -4338.214844 65.794800 -2435.180664
v -4334.956543 56.928600 -2393.137207
v -4328.569824 65.794800 -2404.083496
v -4326.458984 56.928600 -2467.284912
v -4327.642090 65.794800 -2453.302979
v -4309.023438 56.928600 -2378.008301
v -4307.839844 65.794769 -2391.990479
v -4300.525879 56.928600 -2452.155762
v -4306.912109 65.794800 -2441.209229
v -4309.024414 56.928501 -2378.008789
v -4291.551270 56.922501 -2407.958008
v -4296.754395 65.794800 -2410.993164
v -4274.593262 56.928631 -2437.027344
v -4286.181641 65.794830 -2429.115723
v -4291.551270 56.922699 -2407.958252
v -4393.992188 13.999900 -2336.736572
v -4390.231934 21.537300 -2339.145508
v -4401.607910 13.999900 -2358.268311
v -4397.691895 21.537300 -2360.234375
v -4386.791504 24.049700 -2341.553711
v -4392.871094 24.049700 -2361.435791
v -4376.684082 13.999900 -2321.610352
v -4375.188477 21.537300 -2324.174561
v -4373.373535 24.049700 -2327.284668
v -4354.998535 13.999900 -2313.988281
v -4354.751953 21.537300 -2318.447021
v -4354.348145 24.049700 -2322.626953
v -4332.722656 21.537300 -2322.332520
v -4334.049316 24.049700 -2327.120117
v -4332.506836 13.999900 -2317.956055
v -4321.981445 16.000200 -2474.913330
v -4321.981445 26.000200 -2474.913330
v -4325.675293 16.000200 -2488.426758
v -4325.675293 26.000200 -2488.426758
v -4298.283691 16.000200 -2535.379639
v -4298.283691 26.000200 -2535.379639
v -4270.155762 26.000200 -2444.679199
v -4270.155762 16.000200 -2444.679199
v -4284.692871 16.000200 -2538.831299
v -4284.692871 26.000200 -2538.831299
v -4256.574219 26.000200 -2448.114258
v -4256.574219 16.000200 -2448.114258
v -4232.867188 16.000200 -2508.597412
v -4232.867188 26.000200 -2508.597412
v -4229.182617 16.000200 -2495.067139
v -4229.182617 26.000200 -2495.067139
v -4281.669434 16.000200 -2544.014160
v -4281.669434 26.000200 -2544.014160
v -4285.362793 16.000200 -2557.527588
v -4285.362793 26.000200 -2557.527588
v -4257.971191 16.000200 -2604.480469
v -4257.971191 26.000200 -2604.480469
v -4229.843750 26.000200 -2513.780029
v -4229.843750 16.000200 -2513.780029
v -4244.380371 16.000200 -2607.932373
v -4244.380371 26.000200 -2607.932373
v -4216.261719 26.000200 -2517.215088
v -4216.261719 16.000200 -2517.215088
v -4192.554688 16.000200 -2577.697998
v -4192.554688 26.000200 -2577.697998
v -4188.870117 16.000200 -2564.167969
v -4188.870117 26.000200 -2564.167969
v -4222.341797 16.000200 -2665.554932
v -4222.125977 23.537500 -2661.178467
v -4220.798828 26.049999 -2656.390625
v -4199.850098 16.000200 -2669.522705
v -4200.096680 23.537500 -2665.063721
v -4200.500000 26.049999 -2660.883789
v -4179.660156 23.537500 -2659.336426
v -4181.474609 26.049999 -2656.226074
v -4178.164551 16.000200 -2661.900635
v -4164.616699 23.537500 -2644.365479
v -4168.056641 26.049999 -2641.956787
v -4157.156738 23.537500 -2623.276611
v -4161.977539 26.049999 -2622.075195
v -4160.856445 16.000200 -2646.774414
v -4153.240723 16.000200 -2625.242676
v -4362.293945 16.000200 -2405.812988
v -4362.293945 26.000200 -2405.812988
v -4365.987305 16.000200 -2419.326172
v -4365.987305 26.000200 -2419.326172
v -4338.595703 16.000200 -2466.279297
v -4338.595703 26.000200 -2466.279297
v -4310.468262 26.000200 -2375.578857
v -4310.468262 16.000200 -2375.578857
v -4325.004883 16.000200 -2469.730957
v -4325.004883 26.000200 -2469.730957
v -4296.886719 26.000200 -2379.013916
v -4296.886719 16.000200 -2379.013916
v -4273.179199 16.000200 -2439.496826
v -4273.179199 26.000200 -2439.496826
v -4269.495117 16.000200 -2425.966797
v -4269.495117 26.000200 -2425.966797
v -4380.531250 54.072201 -2354.708252
v -4383.292480 54.072201 -2363.205566
v -4366.129883 54.072201 -2339.701172
v -4373.252930 64.079597 -2366.472656
v -4362.159180 64.792198 -2346.508545
v -4345.979004 54.072201 -2334.551270
v -4339.320313 64.079597 -2346.676758
v -4337.222656 54.072201 -2336.329102
v -4217.625488 56.072399 -2647.181641
v -4215.528320 66.079903 -2636.834229
v -4192.689453 66.792397 -2637.002441
v -4208.869629 56.072399 -2648.959717
v -4188.718262 56.072399 -2643.809570
v -4181.595703 66.079903 -2617.038330
v -4171.556152 56.072399 -2620.305420
v -4174.317383 56.072399 -2628.802734
v -4371.341309 59.075901 -2378.080566
v -4382.707520 63.086700 -2386.766602
v -4379.810547 54.072201 -2369.854004
v -4386.845703 60.812691 -2383.588135
v -4372.109375 54.072201 -2387.134033
v -4381.977539 60.812691 -2391.933594
v -4330.156250 59.075901 -2354.053711
v -4333.149414 54.072201 -2342.632568
v -4317.000977 63.086700 -2348.434326
v -4317.731445 60.812691 -2343.267822
v -4321.896484 54.072201 -2357.840820
v -4312.862793 60.812691 -2351.613037
v -4396.338867 80.890602 -2380.491455
v -4389.523926 53.990799 -2390.743164
v -4382.879395 42.813702 -2369.930176
v -4379.654785 39.060902 -2379.343506
v -4373.939941 42.813702 -2387.956787
v -4331.572266 42.813702 -2339.998291
v -4324.964355 39.060902 -2347.437988
v -4310.184082 53.990799 -2344.457764
v -4320.279785 42.813702 -2356.652588
v -4315.754883 80.890602 -2333.479980
v -4309.077637 63.186501 -2516.156006
v -4313.740234 63.186501 -2508.164063
v -4315.165039 78.546402 -2514.351563
v -4306.683105 69.621887 -2509.403076
v -4303.104492 50.635502 -2507.315674
v -4307.136230 56.928600 -2500.405762
v -4304.605469 61.011799 -2498.929443
v -4296.542969 61.011799 -2512.749512
v -4299.073730 56.928600 -2514.226074
v -4257.801270 61.011799 -2471.624756
v -4247.661621 69.621887 -2474.970947
v -4245.267090 63.186501 -2468.218506
v -4255.270508 56.928600 -2470.148193
v -4249.738770 61.011799 -2485.444580
v -4251.239258 50.635502 -2477.058350
v -4247.208008 56.928600 -2483.968506
v -4240.604004 63.186501 -2476.209717
v -4239.179688 78.546402 -2470.022949
v -4268.765137 63.186501 -2585.257080
v -4273.427734 63.186501 -2577.265381
v -4274.852539 78.546402 -2583.452393
v -4266.370605 69.621887 -2578.503906
v -4262.792969 50.635502 -2576.417236
v -4266.823730 56.928600 -2569.506592
v -4264.293457 61.011799 -2568.030518
v -4256.230957 61.011799 -2581.850586
v -4258.761719 56.928600 -2583.326904
v -4217.489258 61.011799 -2540.725586
v -4207.349609 69.621887 -2544.072266
v -4204.954590 63.186501 -2537.318604
v -4214.958008 56.928600 -2539.249023
v -4209.426758 61.011799 -2554.545654
v -4210.926758 50.635502 -2546.159424
v -4206.895996 56.928600 -2553.069580
v -4200.292480 63.186501 -2545.311279
v -4198.867188 78.546402 -2539.123535
v -4224.691895 61.076099 -2629.457031
v -4237.847656 65.086899 -2635.076660
v -4232.952148 56.072399 -2625.670166
v -4241.985840 62.812901 -2631.897949
v -4221.699219 56.072399 -2640.878418
v -4237.117188 62.812901 -2640.243164
v -4183.507324 61.076099 -2605.430664
v -4182.739258 56.072399 -2596.376953
v -4172.141113 65.086899 -2596.744385
v -4172.871094 62.812901 -2591.577637
v -4175.038086 56.072399 -2613.656982
v -4168.002441 62.812901 -2599.922852
v -4239.093750 82.890800 -2650.031006
v -4244.664063 55.991001 -2639.052979
v -4234.568848 44.813999 -2626.858398
v -4229.883789 41.061199 -2636.072754
v -4223.276367 44.813999 -2643.512695
v -4180.908691 44.813999 -2595.554199
v -4175.193848 41.061199 -2604.167480
v -4165.324707 55.991001 -2592.767822
v -4171.969238 44.813999 -2613.580811
v -4158.509766 82.890800 -2603.019531
v -4349.389160 63.186501 -2447.055908
v -4354.051270 63.186501 -2439.063721
v -4355.477539 78.546402 -2445.250977
v -4346.995605 69.621887 -2440.302490
v -4343.417480 50.635502 -2438.215576
v -4347.447754 56.928600 -2431.305420
v -4344.917969 61.011799 -2429.829102
v -4336.855469 61.011799 -2443.649170
v -4339.386230 56.928600 -2445.125732
v -4298.112793 61.011799 -2402.523926
v -4287.974121 69.621887 -2405.870850
v -4285.578613 63.186501 -2399.117432
v -4295.583008 56.928600 -2401.047852
v -4290.051270 61.011799 -2416.344238
v -4291.550781 50.635502 -2407.957764
v -4287.520508 56.928600 -2414.868164
v -4280.916016 63.186501 -2407.109619
v -4279.491699 78.546402 -2400.922363
v -4320.593750 31.402100 -2477.375732
v -4320.593750 56.928699 -2477.375977
v -4303.121582 31.402100 -2507.325439
v -4303.122070 56.922699 -2507.325439
v -4320.577148 31.402000 -2477.366211
v -4286.147461 31.402020 -2536.385254
v -4294.644531 31.402000 -2462.237793
v -4268.711426 31.402000 -2447.108887
v -4303.106934 31.402100 -2507.317139
v -4260.213867 31.402000 -2521.255859
v -4268.666504 31.401600 -2447.082520
v -4251.194336 31.401600 -2477.032227
v -4268.666504 56.928200 -2447.082520
v -4251.194336 56.922199 -2477.032227
v -4234.280762 31.402000 -2506.126953
v -4234.262207 31.402201 -2506.116455
v -4234.262207 56.928799 -2506.116455
v -4251.221680 31.402201 -2477.048096
v -4251.221680 56.922798 -2477.048096
v -4280.279785 31.402100 -2546.476318
v -4280.279785 56.928699 -2546.476318
v -4262.807617 31.402100 -2576.425781
v -4262.807617 56.922699 -2576.425781
v -4280.265137 31.402000 -2546.467529
v -4245.835449 31.402040 -2605.486816
v -4254.332031 31.402000 -2531.338623
v -4228.399414 31.402000 -2516.209961
v -4262.798828 31.402201 -2576.420898
v -4245.840332 56.928699 -2605.489990
v -4262.798828 56.922699 -2576.420898
v -4219.901367 31.402000 -2590.357178
v -4219.901367 56.928600 -2590.357178
v -4245.834473 56.928600 -2605.486084
v -4228.405273 31.402000 -2516.213379
v -4210.932617 31.402000 -2546.162598
v -4228.405273 56.928600 -2516.213379
v -4210.932617 56.922600 -2546.162598
v -4193.969238 31.402020 -2575.228516
v -4193.969727 56.928600 -2575.228760
v -4210.928223 31.402100 -2546.160156
v -4210.928223 56.922600 -2546.160156
v -4360.889648 31.402000 -2408.266113
v -4343.416504 31.402000 -2438.215088
v -4326.458984 31.402000 -2467.284668
v -4334.956543 31.402000 -2393.137207
v -4309.023926 31.402000 -2378.008545
v -4326.442871 31.401899 -2467.275391
v -4343.400879 31.401899 -2438.206299
v -4326.442871 56.928398 -2467.275391
v -4343.400879 56.922501 -2438.206299
v -4300.525879 31.402000 -2452.155762
v -4309.014160 31.402000 -2378.002930
v -4291.541504 31.402000 -2407.952148
v -4309.014160 56.928600 -2378.002930
v -4291.541504 56.922600 -2407.952148
v -4274.593262 31.402000 -2437.027344
v -4274.623047 31.402201 -2437.044678
v -4274.623047 56.928799 -2437.044678
v -4291.581055 31.402201 -2407.975098
v -4291.581055 56.922798 -2407.975098
# 849 vertices

vt 0.50310 -2.00000
vt 0.99990 -0.99850
vt 0.99990 -2.00000
vt 0.50310 -0.99850
vt 0.00010 -2.00000
vt 0.00010 -0.99850
vt 0.99990 0.00330
vt 0.50310 0.00330
vt 0.00010 0.00330
vt -2.07810 -3.02050
vt -1.72510 -3.25630
vt -2.07810 -3.25630
vt -1.72510 -3.02050
vt 2.05720 -1.19080
vt -0.72400 -1.08440
vt -0.82700 -1.19080
vt 1.79970 -1.08440
vt -2.07810 -1.00520
vt -1.72510 -1.00520
vt 1.13480 -3.25630
vt 1.13480 -3.02050
vt 2.05720 -1.61650
vt 2.26320 -1.40370
vt 2.26320 -1.61650
vt 2.46920 -1.19080
vt 4.32340 -1.08440
vt 4.32340 -1.19080
vt -2.07810 1.01010
vt -1.72510 1.01010
vt -0.99100 -2.25440
vt -0.57940 -2.03840
vt -0.99100 -2.03840
vt -0.57940 -2.25440
vt 3.92410 -3.25630
vt 3.92410 -3.02050
vt 1.67330 -2.03840
vt 1.67330 -2.25440
vt 4.27720 -3.02050
vt 4.27720 -3.25630
vt 3.92410 -1.00520
vt 4.27720 -1.00520
vt -0.76000 -1.20500
vt 1.62810 -1.08340
vt 1.86220 -1.20500
vt -0.66640 -1.08340
vt 3.87040 -2.03840
vt 3.87040 -2.25440
vt 2.04950 -1.44810
vt 1.86220 -1.69120
vt 2.04950 -1.69120
vt 2.23680 -1.20500
vt 4.27720 1.01010
vt 3.92410 1.01010
vt 3.92260 -1.08340
vt 3.92260 -1.20500
vt 4.28200 -2.03840
vt 4.28200 -2.25440
vt 0.92940 -1.00700
vt 0.85420 -0.87790
vt 0.92940 -0.87790
vt 0.85420 -1.00700
vt 0.49210 -1.00700
vt 0.49210 -0.87790
vt 0.13000 -1.00700
vt 0.13000 -0.87790
vt 0.05480 -0.87790
vt 0.05480 -1.00700
vt 0.02460 -0.11230
vt 0.13430 -0.00200
vt 0.13430 -0.11230
vt 0.02460 -0.00200
vt 0.51520 -0.11230
vt 0.51520 -0.00200
vt 0.89610 -0.11230
vt 0.89610 -0.00200
vt 1.00580 -0.11230
vt 1.00580 -0.00200
vt 0.45250 -0.88380
vt 0.95050 -0.99810
vt 0.45250 -0.99810
vt 0.95050 -0.88380
vt -0.06000 -0.89060
vt 0.46600 -0.99810
vt -0.06000 -0.99810
vt 0.46600 -0.89060
vt -0.04540 -0.88380
vt -0.04540 -0.99810
vt 0.99220 -0.99810
vt 0.99220 -0.89060
vt 0.46380 -0.88380
vt 1.00900 -0.99810
vt 0.46380 -0.99810
vt 1.00900 -0.88380
vt -0.09090 -0.89280
vt -0.09090 -0.99810
vt 0.46600 -0.89280
vt -0.08130 -0.88380
vt -0.08130 -0.99810
vt 1.02310 -0.99810
vt 1.02310 -0.89280
vt 0.24620 -1.00210
vt 0.75370 0.00210
vt 0.75370 -1.00210
vt 0.24620 0.00210
vt 0.25010 -1.00000
vt 0.74980 -0.00010
vt 0.74980 -1.00000
vt 0.25010 -0.00010
vt 0.25150 -1.00000
vt 0.74840 -0.00010
vt 0.74840 -1.00000
vt 0.25150 -0.00010
vt 0.24880 -1.00000
vt 0.75110 -0.00010
vt 0.75110 -1.00000
vt 0.24880 -0.00010
vt 2.49530 -0.50010
vt 1.48200 -0.32820
vt 1.48200 -0.50010
vt 2.49530 -0.32820
vt 2.49530 -0.17600
vt 1.48200 -0.00200
vt 1.48200 -0.17600
vt 2.49530 -0.00200
vt -0.48200 -0.32820
vt -0.48200 -0.50010
vt -0.48200 -0.00200
vt -0.48200 -0.17600
vt -1.49530 -0.50010
vt -1.49530 -0.32820
vt -1.49530 -0.17600
vt -1.49530 -0.00200
vt -0.51570 -0.00200
vt 0.24090 -0.18170
vt -0.51570 -0.18170
vt 0.24090 -0.00200
vt 0.99800 -0.18170
vt 0.99800 -0.00200
vt -0.49990 -0.33290
vt 0.24090 -0.50010
vt -0.49990 -0.50010
vt 0.24090 -0.33290
vt 0.99800 -0.50010
vt 0.99800 -0.33290
vt 1.24120 -0.00520
vt 0.74470 -0.99470
vt 0.74470 -0.00520
vt 1.24730 -1.00200
vt -0.23280 -0.00520
vt -0.21820 -0.98850
vt -0.24730 0.98440
vt 0.74470 0.98440
vt 1.24120 0.97700
vt -0.24540 -0.00890
vt 0.22350 0.98450
vt 0.22540 -0.00890
vt -0.25090 0.97820
vt 1.24380 0.98450
vt 1.24930 -0.00890
vt -0.23960 -1.00840
vt 0.22740 -1.00210
vt 1.24730 -1.00210
vt 1.23880 0.98520
vt 0.67320 -0.00890
vt 0.66700 0.97890
vt 1.24500 -0.00880
vt -0.23260 -0.00890
vt -0.23880 0.96630
vt 0.67940 -0.99660
vt 1.24390 -0.99030
vt -0.23880 -1.00390
vt -0.26620 -0.99930
vt 0.34130 -0.00150
vt 0.34130 -0.99930
vt -0.26620 -0.00150
vt 1.26620 -0.00150
vt 1.26620 -0.99930
vt 0.34130 0.99630
vt -0.26620 0.99630
vt 1.26620 0.99630
vt 0.00000 -0.00010
vt 0.99990 -1.00000
vt 0.99990 -0.00010
vt 0.00000 -1.00000
vt 0.99700 -1.97340
vt 0.89680 -1.26510
vt 0.99700 -1.26510
vt 0.89680 -1.97340
vt 0.49580 -1.26510
vt 0.49580 -1.97340
vt 0.99300 -2.04020
vt 1.50170 -2.98610
vt 0.99300 -2.98610
vt 1.50170 -2.04020
vt 0.09470 -1.26510
vt 0.09470 -1.97340
vt 2.01040 -2.98610
vt 2.01040 -2.04020
vt -0.00540 -1.26510
vt -0.00540 -1.97340
vt 0.89680 0.30880
vt 0.99700 0.30880
vt 0.49580 0.30880
vt 1.50170 0.06180
vt 0.99300 0.06180
vt 0.09470 0.30880
vt 2.01040 0.06180
vt -0.00540 0.30880
vt 0.89680 1.01710
vt 0.99700 1.01710
vt 0.49580 1.01710
vt 0.99300 1.00770
vt 1.50170 1.00770
vt 0.09470 1.01710
vt 2.01040 1.00770
vt -0.00540 1.01710
vt 1.74400 -0.45080
vt 0.60470 -0.00010
vt 0.60470 -0.45080
vt 1.74400 -0.00010
vt -0.53460 -0.45080
vt -0.53460 -0.00010
vt -0.51350 -0.45910
vt 0.61640 -0.00200
vt -0.51350 -0.00200
vt 0.61640 -0.45910
vt 1.74650 -0.00200
vt 1.74650 -0.45910
vt -1.74390 -0.00200
vt -0.48690 -0.46260
vt -1.74390 -0.46260
vt -0.48690 -0.00200
vt 3.00040 -0.45910
vt 1.64940 -0.00010
vt 1.64940 -0.45910
vt 3.00040 -0.00010
vt 1.75910 -0.00200
vt 1.75910 -0.46260
vt -1.38160 -0.45910
vt -1.38160 -0.00010
vt 3.01610 -0.46260
vt 3.01610 -0.00200
vt -2.73260 -0.00010
vt -2.73260 -0.45910
vt 0.21050 -0.82590
vt 0.04200 -1.00000
vt 0.00000 -0.82590
vt 0.16840 -1.00000
vt 1.62440 -0.99810
vt 2.74890 -0.82360
vt 2.74890 -0.99810
vt 1.62440 -0.82360
vt 1.62440 -0.70000
vt 2.74890 -0.70000
vt 2.74890 -0.50010
vt 1.62440 -0.50010
vt 0.50000 -0.82360
vt 0.50000 -0.99810
vt 0.50000 -0.70000
vt 0.50000 -0.50010
vt -0.62440 -0.99810
vt -0.62440 -0.82360
vt -0.62440 -0.70000
vt -0.62440 -0.50010
vt -1.74890 -0.99810
vt -1.74890 -0.82360
vt -1.74890 -0.70000
vt -1.74890 -0.50010
vt 0.25580 -0.82320
vt 0.16550 -1.00000
vt 0.16550 -0.82320
vt 0.25580 -1.00000
vt 0.75090 0.30970
vt 1.00180 0.49990
vt 1.00180 0.30970
vt 0.75090 0.49990
vt 0.50000 0.49990
vt 0.50000 0.30970
vt 0.24900 0.49990
vt 0.24900 0.30970
vt -0.00180 0.30970
vt -0.00180 0.49990
vt -0.00090 0.50120
vt 0.25040 0.31410
vt -0.00090 0.31410
vt 0.25040 0.50120
vt 0.50170 0.31410
vt 0.50170 0.50120
vt 1.02600 0.77920
vt 0.50590 -0.05870
vt 0.50590 1.05840
vt 1.02600 0.22060
vt -0.01410 0.77920
vt -0.01410 0.22060
vt 0.99960 1.00190
vt 1.99880 1.99800
vt 1.99880 1.00190
vt 0.99960 1.99800
vt 2.99800 1.00190
vt 2.99800 1.99800
vt 0.00030 1.99800
vt 0.00030 1.00190
vt -0.99880 1.99800
vt -0.99880 1.00190
vt -1.99800 1.00190
vt -1.99800 1.99800
vt 0.00190 1.99800
vt 0.99800 1.00190
vt 0.00190 1.00190
vt 0.99800 1.99800
vt 0.66360 -0.40150
vt 0.50430 -0.66370
vt 0.50430 -0.31400
vt 0.66360 -0.57630
vt 0.34500 -0.40150
vt 0.34500 -0.57630
vt 1.47480 -2.97500
vt 1.49050 -2.99600
vt 1.47480 -2.99600
vt 1.49050 -2.97500
vt 9.28010 -1.00010
vt 13.75970 -2.01040
vt 9.28010 -2.01040
vt 13.75970 -1.00010
vt 8.85130 -2.00780
vt 13.33090 -1.00010
vt 13.33090 -2.00780
vt 8.85130 -1.00010
vt -14.08660 -2.00780
vt -9.60710 -1.00010
vt -9.60710 -2.00780
vt -14.08660 -1.00010
vt -12.81720 -1.00010
vt -8.33770 -2.01040
vt -12.81720 -2.01040
vt -8.33770 -1.00010
vt 4.51620 -1.00010
vt 4.51620 -2.01040
vt 4.08740 -2.00780
vt 4.08740 -1.00010
vt -4.84310 -1.00010
vt -4.84310 -2.00780
vt -3.57370 -2.01040
vt -3.57370 -1.00010
vt 1.53280 -2.97500
vt 1.54850 -2.99600
vt 1.53280 -2.99600
vt 1.54850 -2.97500
vt 8.23770 -2.00000
vt 12.24170 -0.98510
vt 8.23770 -0.98510
vt 12.24170 -2.00000
vt 13.74280 0.00240
vt 9.24100 -0.99760
vt 9.24100 0.00240
vt 13.74280 -0.99760
vt 10.06460 -2.00780
vt 14.97620 -1.00010
vt 14.97620 -2.00780
vt 10.06460 -1.00010
vt -12.25570 -1.00010
vt -8.11640 -2.01040
vt -12.25570 -2.01040
vt -8.11640 -1.00010
vt -4.01610 -1.00010
vt -4.01610 -2.01040
vt -4.44490 -2.00780
vt -4.44490 -1.00010
vt 3.68920 -1.00010
vt 3.68920 -2.00780
vt 4.95860 -2.01040
vt 4.95860 -1.00010
vt 3.97950 -2.00000
vt 3.97950 -0.98510
vt 4.84120 -2.00780
vt 4.84120 -1.00010
vt 4.45350 -0.99760
vt 4.45350 0.00240
vt -3.71440 -2.01040
vt -3.71440 -1.00010
vt -7.35800 -1.00010
vt -7.35800 -2.01040
vt -7.78680 -2.00780
vt -7.78680 -1.00010
vt 7.03110 -1.00010
vt 7.03110 -2.00780
vt 8.30050 -2.01040
vt 8.30050 -1.00010
vt -3.64720 -2.00000
vt -3.64720 -0.98510
vt -4.51410 -2.00780
vt -4.51410 -1.00010
vt -4.12120 -0.99760
vt -4.12120 0.00240
vt 4.16990 -2.01040
vt 4.16990 -1.00010
vt -13.25960 -1.00010
vt -13.25960 -2.01040
vt -13.68840 -2.00780
vt -13.68840 -1.00010
vt 12.93270 -1.00010
vt 12.93270 -2.00780
vt 14.20210 -2.01040
vt 14.20210 -1.00010
vt 1.44580 -2.97500
vt 1.46160 -2.99600
vt 1.44580 -2.99600
vt 1.46160 -2.97500
vt -6.63430 -2.00000
vt -6.63430 -0.98510
vt -8.17830 -2.00780
vt -8.17830 -1.00010
vt -7.47960 -0.99760
vt -7.47960 0.00240
vt 7.25790 -2.01040
vt 7.25790 -1.00010
vt -11.90940 -2.00000
vt -11.90940 -0.98510
vt -14.64910 -2.00780
vt -14.64910 -1.00010
vt -13.41050 -0.99760
vt -13.41050 0.00240
vt 12.71120 -2.01040
vt 12.71120 -1.00010
vt 1.50380 -2.97500
vt 1.51950 -2.99600
vt 1.50380 -2.99600
vt 1.51950 -2.97500
vt 0.66600 -1.00200
vt 0.99800 -1.99810
vt 0.66600 -1.99810
vt 0.99800 -1.00200
vt 0.33390 -1.00200
vt 0.33390 -1.99810
vt 0.00190 -1.00200
vt 0.00190 -1.99810
vt 0.66600 -1.57990
vt 0.99800 -1.85360
vt 0.66600 -1.85360
vt 0.99800 -1.57990
vt 0.33390 -1.57990
vt 0.33390 -1.85360
vt 0.00190 -1.57990
vt 0.00190 -1.85360
vt 0.81920 -1.33530
vt 0.99800 -1.49820
vt 0.81920 -1.49820
vt 0.99800 -1.33530
vt 0.64040 -1.33530
vt 0.64040 -1.49820
vt 0.46160 -1.33530
vt 0.46160 -1.49820
vt 0.66600 -1.58400
vt 0.99800 -1.58400
vt 0.33390 -1.58400
vt 0.00190 -1.58400
vt 0.99800 -1.84950
vt 0.66600 -1.84950
vt 0.33390 -1.84950
vt 0.00190 -1.84950
vt 0.99800 -1.86600
vt 0.66600 -1.86600
vt 0.33390 -1.86600
vt 0.00190 -1.86600
vt 0.74740 -1.58850
vt 0.99670 -1.85570
vt 0.74740 -1.85570
vt 0.99670 -1.58850
vt 0.00000 -1.00010
vt 0.99990 -1.00010
vt 0.00000 -2.00000
vt -0.60680 0.29010
vt 1.78140 -1.42970
vt -0.78140 -1.42970
vt 1.60680 0.29010
vt 1.91540 -1.57360
vt 2.00540 -2.00540
vt 0.50000 -2.00540
vt 1.23920 0.86340
vt 0.49990 1.00540
vt -0.23920 0.86340
vt -0.91540 -1.57360
vt -1.00540 -2.00540
vt 9.99970 2.50350
vt 9.32080 2.99990
vt 8.99990 2.50350
vt 9.99990 2.99990
vt 9.21090 2.49990
vt 9.99680 2.00450
vt 8.99990 2.00450
vt 9.99680 2.49990
vt -0.23670 1.99990
vt -2.29730 2.72150
vt -2.24960 1.99990
vt -0.14230 2.72150
vt -2.24960 2.99990
vt 0.21700 2.99990
vt 4.25110 1.99990
vt 4.25110 2.72150
vt -3.99960 2.72150
vt -3.99960 1.99990
vt 4.25110 2.99990
vt -3.99960 2.99990
vt 0.99990 -9.02030
vt 1.99990 -8.01180
vt 1.99990 -9.02030
vt 0.99990 -8.01180
vt -3.99990 -8.01180
vt -3.99990 -9.02030
vt 6.99990 -8.01180
vt 6.99990 -9.02030
vt -4.99990 -8.01180
vt -4.99990 -9.02030
vt 7.99990 -9.02030
vt 7.99990 -8.01180
vt 13.99990 -9.02030
vt 18.99990 -8.01180
vt 18.99990 -9.02030
vt 13.99990 -8.01180
vt 12.99990 -9.02030
vt 12.99990 -8.01180
vt 0.62490 -2.99820
vt 0.34030 -2.54260
vt 0.34760 -2.99820
vt 0.65230 -2.52680
vt 0.99800 -1.99990
vt 0.56040 -2.47010
vt 0.99800 -2.47010
vt 0.56040 -1.99990
vt 0.00540 -2.54500
vt 0.00540 -2.99820
vt 0.00540 -2.37800
vt 0.34000 -2.32110
vt 0.34410 -2.00140
vt 0.45350 -2.57050
vt 0.46160 -2.00140
vt 0.00540 -2.00140
vt 0.46510 -2.52610
vt -0.99990 -3.99990
vt -0.49990 -2.99990
vt -0.49990 -3.99990
vt -1.00000 -2.99990
vt -0.99990 -2.99990
vt 0.49990 -3.99990
vt 0.49170 -3.99990
vt 0.74320 -2.99990
vt 0.49120 -3.99990
vt 1.00870 -3.99990
vt 0.48500 -3.99990
vt 9.74990 0.99990
vt 9.49990 0.49990
vt 9.49750 1.00000
vt 8.99750 1.00000
vt 2.00520 -6.99680
vt 2.99470 -6.00010
vt 2.99470 -6.99680
vt 2.00520 -6.00010
vt 0.24990 -9.99620
vt 1.94840 -9.73750
vt 0.05150 -9.73750
vt 1.74990 -9.99620
vt 0.00000 -8.98750
vt 1.99990 -8.73830
vt 0.00000 -8.73830
vt 1.99990 -8.98750
vt 1.99990 -8.98740
vt 0.00000 -8.73810
vt 1.99990 -8.73810
vt 0.00000 -8.98740
vt 0.00090 -9.99960
vt 1.99900 -9.99960
vt 0.99990 -6.00010
vt 0.00000 -7.00000
vt 0.00000 -6.00010
vt 0.99990 -7.00000
# 575 texture vertices

g Object_2
usemtl texture0
f 1/3 2/2 3/1
f 2/2 4/4 3/1
f 3/1 4/4 5/5
f 4/4 6/6 5/5
f 2/2 7/7 4/4
f 7/7 8/8 4/4
f 4/4 8/8 6/6
f 8/8 9/9 6/6
f 10/3 11/2 12/1
f 11/2 13/4 12/1
f 12/1 13/4 14/5
f 13/4 15/6 14/5
f 11/2 16/7 13/4
f 16/7 17/8 13/4
f 13/4 17/8 15/6
f 17/8 18/9 15/6
usemtl texture1
f 19/12 20/11 21/10
f 20/11 1/13 21/10
f 19/16 21/15 22/14
f 23/17 22/14 21/15
f 21/10 1/13 23/18
f 1/13 3/19 23/18
f 20/11 24/20 1/13
f 24/20 2/21 1/13
f 22/14 25/23 26/22
f 25/23 27/24 26/22
f 23/17 28/26 29/25
f 28/26 30/27 29/25
f 23/18 3/19 28/28
f 3/19 5/29 28/28
f 28/32 5/31 30/30
f 5/31 31/33 30/30
f 24/20 32/34 2/21
f 32/34 7/35 2/21
f 5/31 6/36 31/33
f 6/36 33/37 31/33
f 34/39 35/38 32/34
f 32/34 35/38 7/35
f 7/35 35/38 8/40
f 35/38 36/41 8/40
f 37/44 36/43 34/42
f 34/42 36/43 35/45
f 6/36 9/46 33/37
f 9/46 38/47 33/37
f 37/44 39/49 40/48
f 39/49 41/50 40/48
f 36/43 37/44 42/51
f 37/44 40/48 42/51
f 36/41 43/52 8/40
f 8/40 43/52 9/53
f 36/43 42/51 43/54
f 42/51 44/55 43/54
f 9/46 43/56 38/47
f 43/56 44/57 38/47
f 23/17 29/25 22/14
f 29/25 25/23 22/14
f 45/12 46/11 47/10
f 46/11 10/13 47/10
f 45/16 47/15 48/14
f 49/17 48/14 47/15
f 47/10 10/13 49/18
f 10/13 12/19 49/18
f 46/11 50/20 10/13
f 50/20 11/21 10/13
f 48/14 51/23 52/22
f 51/23 53/24 52/22
f 49/18 12/19 54/28
f 12/19 14/29 54/28
f 49/17 54/26 55/25
f 54/26 56/27 55/25
f 54/32 14/31 56/30
f 14/31 57/33 56/30
f 50/20 58/34 11/21
f 58/34 16/35 11/21
f 14/31 15/36 57/33
f 15/36 59/37 57/33
f 60/39 61/38 58/34
f 58/34 61/38 16/35
f 16/35 61/38 17/40
f 61/38 62/41 17/40
f 63/44 62/43 60/42
f 60/42 62/43 61/45
f 63/44 64/49 65/48
f 64/49 66/50 65/48
f 62/43 63/44 67/51
f 63/44 65/48 67/51
f 15/36 18/46 59/37
f 18/46 68/47 59/37
f 62/41 69/52 17/40
f 17/40 69/52 18/53
f 62/43 67/51 69/54
f 67/51 70/55 69/54
f 18/46 69/56 68/47
f 69/56 70/57 68/47
f 49/17 55/25 48/14
f 55/25 51/23 48/14
usemtl texture2
f 71/60 72/59 73/58
f 72/59 74/61 73/58
f 75/63 76/62 72/59
f 76/62 74/61 72/59
f 77/65 78/64 75/63
f 78/64 76/62 75/63
f 79/67 78/64 80/66
f 78/64 77/65 80/66
f 81/70 82/69 83/68
f 82/69 84/71 83/68
f 81/70 85/72 82/69
f 85/72 86/73 82/69
f 85/72 87/74 86/73
f 87/74 88/75 86/73
f 89/77 88/75 90/76
f 88/75 87/74 90/76
f 91/80 92/79 76/78
f 92/79 74/81 76/78
f 93/84 94/83 72/82
f 94/83 75/85 72/82
f 95/87 91/80 78/86
f 91/80 76/78 78/86
f 94/83 96/88 75/85
f 96/88 77/89 75/85
f 97/92 98/91 86/90
f 98/91 82/93 86/90
f 99/95 100/83 81/94
f 100/83 85/96 81/94
f 101/98 97/92 88/97
f 97/92 86/90 88/97
f 100/83 102/99 85/96
f 102/99 87/100 85/96
f 103/60 104/59 105/58
f 104/59 106/61 105/58
f 107/63 108/62 104/59
f 108/62 106/61 104/59
f 109/65 110/64 107/63
f 110/64 108/62 107/63
f 111/67 110/64 112/66
f 110/64 109/65 112/66
f 113/70 114/69 115/68
f 114/69 116/71 115/68
f 113/70 117/72 114/69
f 117/72 118/73 114/69
f 117/72 119/74 118/73
f 119/74 120/75 118/73
f 121/77 120/75 122/76
f 120/75 119/74 122/76
f 123/80 124/79 108/78
f 124/79 106/81 108/78
f 125/84 126/83 104/82
f 126/83 107/85 104/82
f 127/87 123/80 110/86
f 123/80 108/78 110/86
f 126/83 128/88 107/85
f 128/88 109/89 107/85
f 129/92 130/91 118/90
f 130/91 114/93 118/90
f 131/95 132/83 113/94
f 132/83 117/96 113/94
f 133/98 129/92 120/97
f 129/92 118/90 120/97
f 132/83 134/99 117/96
f 134/99 119/100 117/96
usemtl texture3
f 135/103 93/102 71/101
f 93/102 72/104 71/101
f 96/107 136/106 77/105
f 136/106 80/108 77/105
f 98/111 137/110 82/109
f 137/110 84/112 82/109
f 138/115 101/114 89/113
f 101/114 88/116 89/113
f 139/103 125/102 103/101
f 125/102 104/104 103/101
f 128/107 140/106 109/105
f 140/106 112/108 109/105
f 130/111 141/110 114/109
f 141/110 116/112 114/109
f 142/115 133/114 121/113
f 133/114 120/116 121/113
usemtl texture4
f 143/119 144/118 145/117
f 144/118 146/120 145/117
f 147/123 148/122 149/121
f 148/122 150/124 149/121
f 151/126 152/125 143/119
f 152/125 144/118 143/119
f 153/128 154/127 147/123
f 154/127 148/122 147/123
f 151/126 155/129 152/125
f 155/129 156/130 152/125
f 153/128 157/131 154/127
f 157/131 158/132 154/127
f 159/135 160/134 145/133
f 160/134 161/136 145/133
f 160/134 162/137 161/136
f 162/137 150/138 161/136
f 155/141 163/140 164/139
f 163/140 165/142 164/139
f 163/140 158/143 165/142
f 158/143 166/144 165/142
f 167/119 168/118 169/117
f 168/118 170/120 169/117
f 171/123 172/122 173/121
f 172/122 174/124 173/121
f 175/126 176/125 167/119
f 176/125 168/118 167/119
f 177/128 178/127 171/123
f 178/127 172/122 171/123
f 175/126 179/129 176/125
f 179/129 180/130 176/125
f 177/128 181/131 178/127
f 181/131 182/132 178/127
f 183/135 184/134 169/133
f 184/134 185/136 169/133
f 184/134 186/137 185/136
f 186/137 174/138 185/136
f 179/141 187/140 188/139
f 187/140 189/142 188/139
f 187/140 182/143 189/142
f 182/143 190/144 189/142
usemtl texture5
f 191/147 135/146 73/145
f 135/146 71/148 73/145
f 146/150 135/146 192/149
f 135/146 191/147 192/149
f 92/152 159/151 191/147
f 159/151 192/149 191/147
f 92/152 191/147 74/153
f 191/147 73/145 74/153
f 193/156 95/155 79/154
f 95/155 78/157 79/154
f 194/159 162/158 193/156
f 162/158 95/155 193/156
f 136/161 193/156 80/160
f 193/156 79/154 80/160
f 193/156 136/161 194/159
f 136/161 149/162 194/159
f 137/165 195/164 84/163
f 195/164 83/166 84/163
f 195/164 137/165 196/167
f 137/165 156/168 196/167
f 195/164 99/169 83/166
f 99/169 81/170 83/166
f 164/171 99/169 196/167
f 99/169 195/164 196/167
f 102/174 197/173 87/172
f 197/173 90/175 87/172
f 197/173 102/174 198/176
f 102/174 166/177 198/176
f 197/173 138/178 90/175
f 138/178 89/179 90/175
f 138/178 197/173 157/180
f 197/173 198/176 157/180
f 145/183 146/182 159/181
f 146/182 192/184 159/181
f 149/182 150/183 194/184
f 150/183 162/181 194/184
f 164/182 196/183 155/184
f 196/183 156/181 155/184
f 198/182 166/183 157/184
f 166/183 158/181 157/184
f 199/147 139/146 105/145
f 139/146 103/148 105/145
f 170/150 139/146 200/149
f 139/146 199/147 200/149
f 124/152 199/147 106/153
f 199/147 105/145 106/153
f 124/152 183/151 199/147
f 183/151 200/149 199/147
f 201/156 127/155 111/154
f 127/155 110/157 111/154
f 202/159 186/158 201/156
f 186/158 127/155 201/156
f 140/161 201/156 112/160
f 201/156 111/154 112/160
f 201/156 140/161 202/159
f 140/161 173/162 202/159
f 203/164 141/165 204/167
f 141/165 180/168 204/167
f 141/165 203/164 116/163
f 203/164 115/166 116/163
f 203/164 131/169 115/166
f 131/169 113/170 115/166
f 188/171 131/169 204/167
f 131/169 203/164 204/167
f 134/174 205/173 119/172
f 205/173 122/175 119/172
f 205/173 134/174 206/176
f 134/174 190/177 206/176
f 205/173 142/178 122/175
f 142/178 121/179 122/175
f 142/178 205/173 181/180
f 205/173 206/176 181/180
f 169/183 170/182 183/181
f 170/182 200/184 183/181
f 173/182 174/183 202/184
f 174/183 186/181 202/184
f 188/182 204/183 179/184
f 204/183 180/181 179/184
f 206/182 190/183 181/184
f 190/183 182/181 181/184
usemtl texture6
f 207/187 208/186 135/185
f 208/186 93/188 135/185
f 208/186 209/189 93/188
f 209/189 94/190 93/188
f 145/193 161/192 143/191
f 161/192 210/194 143/191
f 209/189 211/195 94/190
f 211/195 96/196 94/190
f 161/192 150/197 210/194
f 150/197 148/198 210/194
f 211/195 212/199 96/196
f 212/199 136/200 96/196
f 213/202 214/201 207/187
f 214/201 208/186 207/187
f 215/203 209/189 214/201
f 209/189 208/186 214/201
f 210/194 216/204 143/191
f 216/204 151/205 143/191
f 217/206 211/195 215/203
f 211/195 209/189 215/203
f 148/198 154/207 210/194
f 154/207 216/204 210/194
f 212/199 211/195 218/208
f 211/195 217/206 218/208
f 137/210 98/209 213/202
f 98/209 214/201 213/202
f 97/211 215/203 98/209
f 215/203 214/201 98/209
f 151/205 216/204 155/212
f 216/204 163/213 155/212
f 101/214 217/206 97/211
f 217/206 215/203 97/211
f 216/204 154/207 163/213
f 154/207 158/215 163/213
f 101/214 138/216 217/206
f 138/216 218/208 217/206
f 219/187 220/186 139/185
f 220/186 125/188 139/185
f 220/186 221/189 125/188
f 221/189 126/190 125/188
f 169/193 185/192 167/191
f 185/192 222/194 167/191
f 221/189 223/195 126/190
f 223/195 128/196 126/190
f 185/192 174/197 222/194
f 174/197 172/198 222/194
f 223/195 224/199 128/196
f 224/199 140/200 128/196
f 225/202 226/201 219/187
f 226/201 220/186 219/187
f 227/203 221/189 226/201
f 221/189 220/186 226/201
f 222/194 228/204 167/191
f 228/204 175/205 167/191
f 229/206 223/195 227/203
f 223/195 221/189 227/203
f 172/198 178/207 222/194
f 178/207 228/204 222/194
f 224/199 223/195 230/208
f 223/195 229/206 230/208
f 141/210 130/209 225/202
f 130/209 226/201 225/202
f 129/211 227/203 130/209
f 227/203 226/201 130/209
f 175/205 228/204 179/212
f 228/204 187/213 179/212
f 228/204 178/207 187/213
f 178/207 182/215 187/213
f 133/214 229/206 129/211
f 229/206 227/203 129/211
f 133/214 142/216 229/206
f 142/216 230/208 229/206
usemtl texture7
f 91/219 160/218 92/217
f 160/218 159/220 92/217
f 91/219 95/221 160/218
f 95/221 162/222 160/218
f 164/225 165/224 99/223
f 165/224 100/226 99/223
f 165/224 166/227 100/226
f 166/227 102/228 100/226
f 146/231 144/230 135/229
f 144/230 207/232 135/229
f 212/235 147/234 136/233
f 147/234 149/236 136/233
f 152/238 213/237 144/230
f 213/237 207/232 144/230
f 212/235 218/239 147/234
f 218/239 153/240 147/234
f 152/238 156/241 213/237
f 156/241 137/242 213/237
f 138/244 157/243 218/239
f 157/243 153/240 218/239
f 123/219 184/218 124/217
f 184/218 183/220 124/217
f 123/219 127/221 184/218
f 127/221 186/222 184/218
f 188/225 189/224 131/223
f 189/224 132/226 131/223
f 189/224 190/227 132/226
f 190/227 134/228 132/226
f 170/231 168/230 139/229
f 168/230 219/232 139/229
f 224/235 171/234 140/233
f 171/234 173/236 140/233
f 176/238 225/237 168/230
f 225/237 219/232 168/230
f 224/235 230/239 171/234
f 230/239 177/240 171/234
f 176/238 180/241 225/237
f 180/241 141/242 225/237
f 142/244 181/243 230/239
f 181/243 177/240 230/239
usemtl texture8
f 231/247 232/246 233/245
f 232/246 234/248 233/245
f 232/251 231/250 235/249
f 231/250 236/252 235/249
f 233/254 237/253 231/250
f 231/250 237/253 236/252
f 238/256 237/253 234/255
f 237/253 233/254 234/255
f 236/252 239/257 235/249
f 235/249 239/257 240/258
f 237/253 241/259 236/252
f 236/252 241/259 239/257
f 242/260 241/259 238/256
f 241/259 237/253 238/256
f 240/258 239/257 243/261
f 239/257 244/262 243/261
f 241/259 245/263 239/257
f 239/257 245/263 244/262
f 246/264 245/263 242/260
f 245/263 241/259 242/260
f 243/261 244/262 247/265
f 244/262 248/266 247/265
f 245/263 249/267 244/262
f 244/262 249/267 248/266
f 250/268 249/267 246/264
f 249/267 245/263 246/264
f 249/271 250/270 248/269
f 250/270 247/272 248/269
f 251/275 252/274 253/273
f 253/273 252/274 254/276
f 255/278 253/273 256/277
f 253/273 254/276 256/277
f 257/280 255/278 258/279
f 255/278 256/277 258/279
f 257/280 258/279 259/281
f 259/281 258/279 260/282
f 251/285 261/284 252/283
f 261/284 262/286 252/283
f 261/284 259/287 262/286
f 259/287 260/288 262/286
usemtl texture9
f 263/291 264/290 265/289
f 264/290 266/292 265/289
f 263/291 267/293 264/290
f 267/293 268/294 264/290
usemtl texture10
f 269/297 266/296 270/295
f 270/295 266/296 264/298
f 269/297 271/299 266/296
f 271/299 265/300 266/296
f 272/302 270/295 268/301
f 270/295 264/298 268/301
f 273/304 272/302 267/303
f 272/302 268/301 267/303
f 273/304 267/303 274/305
f 274/305 267/303 263/306
f 271/309 274/308 265/307
f 274/308 263/310 265/307
usemtl texture11
f 260/313 254/312 262/311
f 254/312 252/314 262/311
f 260/313 258/315 254/312
f 258/315 256/316 254/312
g obj1
usemtl mat1
f 275/319 276/318 277/317
f 276/318 278/320 277/317
f 279/323 278/322 280/321
f 278/322 276/324 280/321
f 277/327 278/326 281/325
f 278/326 279/328 281/325
f 282/331 280/330 275/329
f 280/330 276/332 275/329
f 277/335 281/334 275/333
f 281/334 282/336 275/333
f 283/338 279/323 284/337
f 279/323 280/321 284/337
f 281/325 279/328 285/339
f 279/328 283/340 285/339
f 286/342 284/341 282/331
f 284/341 280/330 282/331
f 281/334 285/343 282/336
f 285/343 286/344 282/336
f 287/347 288/346 289/345
f 288/346 290/348 289/345
f 291/351 290/350 292/349
f 290/350 288/352 292/349
f 293/355 292/354 287/353
f 292/354 288/356 287/353
f 289/359 290/358 294/357
f 290/358 291/360 294/357
f 289/363 294/362 287/361
f 294/362 293/364 287/361
f 295/366 283/338 296/365
f 283/338 284/337 296/365
f 285/339 283/340 297/367
f 283/340 295/368 297/367
f 298/370 296/369 286/342
f 296/369 284/341 286/342
f 285/343 297/371 286/344
f 297/371 298/372 286/344
f 299/374 291/351 300/373
f 291/351 292/349 300/373
f 294/357 291/360 301/375
f 291/360 299/376 301/375
f 302/378 300/377 293/355
f 300/377 292/354 293/355
f 294/362 301/379 293/364
f 301/379 302/380 293/364
f 303/382 295/366 304/381
f 295/366 296/365 304/381
f 297/367 295/368 305/383
f 295/368 303/384 305/383
f 306/386 304/385 298/370
f 304/385 296/369 298/370
f 297/371 305/387 298/372
f 305/387 306/388 298/372
f 307/390 299/374 308/389
f 299/374 300/373 308/389
f 301/375 299/376 309/391
f 299/376 307/392 309/391
f 310/394 308/393 302/378
f 308/393 300/377 302/378
f 301/379 309/395 302/380
f 309/395 310/396 302/380
f 311/398 303/382 312/397
f 303/382 304/381 312/397
f 305/383 303/384 313/399
f 303/384 311/400 313/399
f 314/402 312/401 306/386
f 312/401 304/385 306/386
f 305/387 313/403 306/388
f 313/403 314/404 306/388
f 313/407 311/406 314/405
f 311/406 312/408 314/405
f 315/410 307/390 316/409
f 307/390 308/389 316/409
f 309/391 307/392 317/411
f 307/392 315/412 317/411
f 318/414 316/413 310/394
f 316/413 308/393 310/394
f 309/395 317/415 310/396
f 317/415 318/416 310/396
f 319/418 315/410 320/417
f 315/410 316/409 320/417
f 317/411 315/412 321/419
f 315/412 319/420 321/419
f 322/422 320/421 318/414
f 320/421 316/413 318/414
f 317/415 321/423 318/416
f 321/423 322/424 318/416
f 321/427 319/426 322/425
f 319/426 320/428 322/425
f 323/319 324/318 325/317
f 324/318 326/320 325/317
f 327/323 326/322 328/321
f 326/322 324/324 328/321
f 325/327 326/326 329/325
f 326/326 327/328 329/325
f 330/331 328/330 323/329
f 328/330 324/332 323/329
f 325/335 329/334 323/333
f 329/334 330/336 323/333
f 331/338 327/323 332/337
f 327/323 328/321 332/337
f 329/325 327/328 333/339
f 327/328 331/340 333/339
f 334/342 332/341 330/331
f 332/341 328/330 330/331
f 329/334 333/343 330/336
f 333/343 334/344 330/336
f 335/347 336/346 337/345
f 336/346 338/348 337/345
f 339/351 338/350 340/349
f 338/350 336/352 340/349
f 337/359 338/358 341/357
f 338/358 339/360 341/357
f 342/355 340/354 335/353
f 340/354 336/356 335/353
f 337/363 341/362 335/361
f 341/362 342/364 335/361
f 343/366 331/338 344/365
f 331/338 332/337 344/365
f 333/339 331/340 345/367
f 331/340 343/368 345/367
f 346/370 344/369 334/342
f 344/369 332/341 334/342
f 333/343 345/371 334/344
f 345/371 346/372 334/344
f 347/374 339/351 348/373
f 339/351 340/349 348/373
f 349/378 348/377 342/355
f 348/377 340/354 342/355
f 341/357 339/360 350/375
f 339/360 347/376 350/375
f 341/362 350/379 342/364
f 350/379 349/380 342/364
f 351/382 343/366 352/381
f 343/366 344/365 352/381
f 345/367 343/368 353/383
f 343/368 351/384 353/383
f 354/386 352/385 346/370
f 352/385 344/369 346/370
f 345/371 353/387 346/372
f 353/387 354/388 346/372
f 355/390 347/374 356/389
f 347/374 348/373 356/389
f 350/375 347/376 357/391
f 347/376 355/392 357/391
f 358/394 356/393 349/378
f 356/393 348/377 349/378
f 350/379 357/395 349/380
f 357/395 358/396 349/380
f 359/398 351/382 360/397
f 351/382 352/381 360/397
f 353/383 351/384 361/399
f 351/384 359/400 361/399
f 362/402 360/401 354/386
f 360/401 352/385 354/386
f 353/387 361/403 354/388
f 361/403 362/404 354/388
f 361/407 359/406 362/405
f 359/406 360/408 362/405
f 363/410 355/390 364/409
f 355/390 356/389 364/409
f 357/391 355/392 365/411
f 355/392 363/412 365/411
f 366/414 364/413 358/394
f 364/413 356/393 358/394
f 357/395 365/415 358/396
f 365/415 366/416 358/396
f 367/418 363/410 368/417
f 363/410 364/409 368/417
f 365/411 363/412 369/419
f 363/412 367/420 369/419
f 370/422 368/421 366/414
f 368/421 364/413 366/414
f 365/415 369/423 366/416
f 369/423 370/424 366/416
f 369/427 367/426 370/425
f 367/426 368/428 370/425
usemtl mat2
f 371/431 372/430 373/429
f 372/430 374/432 373/429
f 375/434 371/431 376/433
f 371/431 373/429 376/433
f 377/436 375/434 378/435
f 375/434 376/433 378/435
f 379/431 380/430 381/429
f 380/430 382/432 381/429
f 383/434 379/431 384/433
f 379/431 381/429 384/433
f 385/436 383/434 386/435
f 383/434 384/433 386/435
f 387/431 388/430 389/429
f 388/430 390/432 389/429
f 391/434 387/431 392/433
f 387/431 389/429 392/433
f 393/436 391/434 394/435
f 391/434 392/433 394/435
f 395/431 396/430 397/429
f 396/430 398/432 397/429
f 399/434 395/431 400/433
f 395/431 397/429 400/433
f 401/436 399/434 402/435
f 399/434 400/433 402/435
f 403/431 404/430 405/429
f 404/430 406/432 405/429
f 407/434 403/431 408/433
f 403/431 405/429 408/433
f 409/436 407/434 410/435
f 407/434 408/433 410/435
f 411/431 412/430 413/429
f 412/430 414/432 413/429
f 415/434 411/431 416/433
f 411/431 413/429 416/433
f 417/436 415/434 418/435
f 415/434 416/433 418/435
f 419/431 420/430 421/429
f 420/430 422/432 421/429
f 423/434 419/431 424/433
f 419/431 421/429 424/433
f 425/436 423/434 426/435
f 423/434 424/433 426/435
f 427/431 428/430 429/429
f 428/430 430/432 429/429
f 431/434 427/431 432/433
f 427/431 429/429 432/433
f 433/436 431/434 434/435
f 431/434 432/433 434/435
f 435/431 436/430 437/429
f 436/430 438/432 437/429
f 439/434 435/431 440/433
f 435/431 437/429 440/433
f 441/436 439/434 442/435
f 439/434 440/433 442/435
f 443/431 444/430 445/429
f 444/430 446/432 445/429
f 447/434 443/431 448/433
f 443/431 445/429 448/433
f 449/436 447/434 450/435
f 447/434 448/433 450/435
f 451/431 452/430 453/429
f 452/430 454/432 453/429
f 455/434 451/431 456/433
f 451/431 453/429 456/433
f 457/436 455/434 458/435
f 455/434 456/433 458/435
f 459/431 460/430 461/429
f 460/430 462/432 461/429
f 463/434 459/431 464/433
f 459/431 461/429 464/433
f 465/436 463/434 466/435
f 463/434 464/433 466/435
usemtl mat3
f 373/439 374/438 467/437
f 374/438 468/440 467/437
f 376/442 373/439 469/441
f 373/439 467/437 469/441
f 378/444 376/442 470/443
f 376/442 469/441 470/443
f 381/447 382/446 471/445
f 382/446 472/448 471/445
f 384/450 381/447 473/449
f 381/447 471/445 473/449
f 386/452 384/450 474/451
f 384/450 473/449 474/451
f 389/439 390/438 475/453
f 390/438 476/454 475/453
f 392/442 389/439 477/455
f 389/439 475/453 477/455
f 394/444 392/442 478/456
f 392/442 477/455 478/456
f 397/439 398/438 479/453
f 398/438 480/454 479/453
f 400/442 397/439 481/455
f 397/439 479/453 481/455
f 402/444 400/442 482/456
f 400/442 481/455 482/456
f 405/458 406/457 483/453
f 406/457 484/454 483/453
f 408/459 405/458 485/455
f 405/458 483/453 485/455
f 410/460 408/459 486/456
f 408/459 485/455 486/456
f 413/462 414/461 487/453
f 414/461 488/454 487/453
f 416/463 413/462 489/455
f 413/462 487/453 489/455
f 418/464 416/463 490/456
f 416/463 489/455 490/456
f 470/467 468/466 378/465
f 468/466 374/468 378/465
f 474/467 472/466 386/465
f 472/466 382/468 386/465
f 478/467 476/466 394/465
f 476/466 390/468 394/465
f 482/467 480/466 402/465
f 480/466 398/468 402/465
f 486/467 484/466 410/465
f 484/466 406/468 410/465
f 490/467 488/466 418/465
f 488/466 414/468 418/465
f 421/439 422/438 491/437
f 422/438 492/440 491/437
f 424/442 421/439 493/441
f 421/439 491/437 493/441
f 426/444 424/442 494/443
f 424/442 493/441 494/443
f 429/447 430/446 495/445
f 430/446 496/448 495/445
f 432/450 429/447 497/449
f 429/447 495/445 497/449
f 434/452 432/450 498/451
f 432/450 497/449 498/451
f 437/439 438/438 499/453
f 438/438 500/454 499/453
f 440/442 437/439 501/455
f 437/439 499/453 501/455
f 442/444 440/442 502/456
f 440/442 501/455 502/456
f 445/439 446/438 503/453
f 446/438 504/454 503/453
f 448/442 445/439 505/455
f 445/439 503/453 505/455
f 450/444 448/442 506/456
f 448/442 505/455 506/456
f 453/458 454/457 507/453
f 454/457 508/454 507/453
f 456/459 453/458 509/455
f 453/458 507/453 509/455
f 458/460 456/459 510/456
f 456/459 509/455 510/456
f 461/462 462/461 511/453
f 462/461 512/454 511/453
f 464/463 461/462 513/455
f 461/462 511/453 513/455
f 466/464 464/463 514/456
f 464/463 513/455 514/456
f 494/467 492/466 426/465
f 492/466 422/468 426/465
f 498/467 496/466 434/465
f 496/466 430/468 434/465
f 502/467 500/466 442/465
f 500/466 438/468 442/465
f 506/467 504/466 450/465
f 504/466 446/468 450/465
f 510/467 508/466 458/465
f 508/466 454/468 458/465
f 514/467 512/466 466/465
f 512/466 462/468 466/465
usemtl mat4
f 470/470 469/3 468/469
f 469/3 467/471 468/469
f 472/471 474/3 471/469
f 474/3 473/470 471/469
f 478/470 477/3 476/469
f 477/3 475/471 476/469
f 480/471 482/3 479/469
f 482/3 481/470 479/469
f 484/471 486/3 483/469
f 486/3 485/470 483/469
f 490/3 489/470 488/471
f 489/470 487/469 488/471
f 494/470 493/3 492/469
f 493/3 491/471 492/469
f 496/471 498/3 495/469
f 498/3 497/470 495/469
f 502/470 501/3 500/469
f 501/3 499/471 500/469
f 504/471 506/3 503/469
f 506/3 505/470 503/469
f 508/471 510/3 507/469
f 510/3 509/470 507/469
f 514/3 513/470 512/471
f 513/470 511/469 512/471
usemtl mat5
f 378/432 374/435 377/430
f 374/435 372/436 377/430
f 386/436 382/435 385/430
f 382/435 380/432 385/430
f 394/432 390/435 393/430
f 390/435 388/436 393/430
f 402/432 398/435 401/430
f 398/435 396/436 401/430
f 410/432 406/435 409/430
f 406/435 404/436 409/430
f 418/432 414/435 417/430
f 414/435 412/436 417/430
f 426/432 422/435 425/430
f 422/435 420/436 425/430
f 434/436 430/435 433/430
f 430/435 428/432 433/430
f 442/432 438/435 441/430
f 438/435 436/436 441/430
f 450/432 446/435 449/430
f 446/435 444/436 449/430
f 458/432 454/435 457/430
f 454/435 452/436 457/430
f 466/432 462/435 465/430
f 462/435 460/436 465/430
usemtl mat6
f 515/474 516/473 517/472
f 516/473 518/475 517/472
f 519/478 520/477 521/476
f 516/473 519/478 521/476
f 522/480 518/475 523/479
f 519/478 516/473 515/474
f 517/472 518/475 522/480
f 517/472 522/480 524/481
f 519/478 515/474 525/482
f 525/482 526/483 519/478
f 527/486 528/485 529/484
f 528/485 530/487 529/484
f 531/490 532/489 528/488
f 533/491 528/488 532/489
f 534/486 535/484 536/485
f 535/484 530/487 536/485
f 537/490 538/488 539/489
f 538/488 533/491 539/489
f 540/490 536/488 541/489
f 536/488 542/491 541/489
f 543/486 544/484 538/485
f 544/484 545/487 538/485
f 546/490 547/489 548/488
f 542/491 548/488 547/489
f 546/486 548/485 544/484
f 548/485 545/487 544/484
f 549/486 550/485 551/484
f 550/485 552/487 551/484
f 553/490 554/489 550/488
f 555/491 550/488 554/489
f 556/486 551/484 557/485
f 551/484 552/487 557/485
f 558/490 559/488 560/489
f 559/488 555/491 560/489
f 556/490 557/488 561/489
f 557/488 562/491 561/489
f 563/486 564/484 559/485
f 564/484 565/487 559/485
f 566/490 561/489 567/488
f 562/491 567/488 561/489
f 566/486 567/485 564/484
f 567/485 565/487 564/484
f 568/474 569/473 570/472
f 569/473 571/475 570/472
f 572/482 573/483 574/478
f 574/478 568/474 572/482
f 570/472 575/480 576/481
f 570/472 571/475 575/480
f 574/478 569/473 568/474
f 575/480 571/475 577/479
f 569/473 574/478 578/476
f 574/478 579/477 578/476
f 580/486 581/485 582/484
f 581/485 583/487 582/484
f 580/490 584/489 581/488
f 585/491 581/488 584/489
f 586/486 582/484 587/485
f 582/484 583/487 587/485
f 588/490 589/488 584/489
f 589/488 585/491 584/489
f 586/490 587/488 590/489
f 587/488 591/491 590/489
f 592/486 593/484 589/485
f 593/484 594/487 589/485
f 595/490 590/489 596/488
f 591/491 596/488 590/489
f 595/486 596/485 597/484
f 596/485 594/487 597/484
usemtl mat7
f 598/494 599/493 600/492
f 599/493 601/495 600/492
f 599/493 602/496 601/495
f 602/496 603/497 601/495
f 600/492 601/495 520/498
f 601/495 521/499 520/498
f 604/501 605/500 598/494
f 598/494 605/500 599/493
f 601/495 603/497 521/499
f 603/497 516/502 521/499
f 605/500 606/503 599/493
f 599/493 606/503 602/496
f 604/501 607/494 605/500
f 607/494 608/493 605/500
f 605/500 608/493 606/503
f 608/493 609/496 606/503
f 608/493 610/495 609/496
f 610/495 611/497 609/496
f 607/494 612/492 608/493
f 612/492 610/495 608/493
f 610/495 525/499 611/497
f 611/497 525/499 515/502
f 612/492 526/498 610/495
f 610/495 526/498 525/499
f 613/506 614/505 615/504
f 614/505 616/507 615/504
f 617/509 615/504 618/508
f 615/504 616/507 618/508
f 614/505 613/506 619/510
f 613/506 620/511 619/510
f 621/513 617/509 622/512
f 617/509 618/508 622/512
f 623/515 619/510 624/514
f 619/510 620/511 624/514
f 621/518 622/517 625/516
f 622/517 626/519 625/516
f 624/514 627/520 623/515
f 627/520 628/521 623/515
f 627/520 625/516 628/521
f 625/516 626/519 628/521
f 629/506 630/505 631/504
f 630/505 632/507 631/504
f 633/509 631/504 634/508
f 631/504 632/507 634/508
f 630/505 629/506 635/510
f 629/506 636/511 635/510
f 637/513 633/509 638/512
f 633/509 634/508 638/512
f 639/515 635/510 640/514
f 635/510 636/511 640/514
f 637/518 638/517 641/516
f 638/517 642/519 641/516
f 640/514 643/520 639/515
f 643/520 644/521 639/515
f 643/520 641/516 644/521
f 641/516 642/519 644/521
f 645/492 573/498 646/495
f 646/495 573/498 572/499
f 646/495 572/499 647/497
f 647/497 572/499 568/502
f 648/494 645/492 649/493
f 645/492 646/495 649/493
f 649/493 646/495 650/496
f 646/495 647/497 650/496
f 651/500 649/493 652/503
f 649/493 650/496 652/503
f 653/501 648/494 651/500
f 648/494 649/493 651/500
f 651/500 652/503 654/493
f 654/493 652/503 655/496
f 656/495 657/497 578/499
f 657/497 569/502 578/499
f 653/501 651/500 658/494
f 658/494 651/500 654/493
f 659/492 656/495 579/498
f 656/495 578/499 579/498
f 654/493 655/496 656/495
f 655/496 657/497 656/495
f 658/494 654/493 659/492
f 654/493 656/495 659/492
f 660/506 661/505 662/504
f 661/505 663/507 662/504
f 664/509 662/504 665/508
f 662/504 663/507 665/508
f 661/505 660/506 666/510
f 660/506 667/511 666/510
f 668/513 664/509 669/512
f 664/509 665/508 669/512
f 670/515 666/510 671/514
f 666/510 667/511 671/514
f 668/518 669/517 672/516
f 669/517 673/519 672/516
f 671/514 674/520 670/515
f 674/520 675/521 670/515
f 674/520 672/516 675/521
f 672/516 673/519 675/521
usemtl mat8
f 602/524 676/523 603/522
f 603/522 676/523 677/525
f 516/528 603/527 518/526
f 677/529 518/526 603/527
f 676/523 602/524 678/530
f 678/530 602/524 606/531
f 679/533 676/523 680/532
f 680/532 676/523 678/530
f 518/536 677/535 523/534
f 523/534 677/535 679/533
f 681/523 678/530 609/524
f 678/530 606/531 609/524
f 522/537 523/534 680/532
f 680/532 523/534 679/533
f 682/533 680/532 681/523
f 680/532 678/530 681/523
f 609/524 611/522 681/523
f 611/522 683/538 681/523
f 522/537 680/532 524/534
f 680/532 682/533 524/534
f 517/536 524/534 683/535
f 524/534 682/533 683/535
f 515/528 517/526 611/527
f 683/529 611/527 517/526
f 676/523 679/533 677/535
f 682/533 681/523 683/535
f 568/528 570/526 647/527
f 684/529 647/527 570/526
f 570/536 576/534 684/535
f 576/534 685/533 684/535
f 575/537 686/532 576/534
f 686/532 685/533 576/534
f 650/524 647/522 687/523
f 647/522 684/538 687/523
f 685/533 686/532 687/523
f 686/532 688/530 687/523
f 575/537 577/534 686/532
f 686/532 577/534 689/533
f 687/523 688/530 650/524
f 688/530 652/531 650/524
f 571/536 690/535 577/534
f 577/534 690/535 689/533
f 689/533 691/523 686/532
f 686/532 691/523 688/530
f 691/523 655/524 688/530
f 688/530 655/524 652/531
f 569/528 657/527 571/526
f 690/529 571/526 657/527
f 655/524 691/523 657/522
f 657/522 691/523 690/525
f 685/533 687/523 684/535
f 691/523 689/533 690/535
usemtl mat9
f 692/541 693/540 694/539
f 694/539 693/540 695/542
f 692/541 696/539 693/540
f 696/539 697/543 693/540
f 698/541 699/539 700/540
f 699/539 701/542 700/540
f 698/541 700/540 702/539
f 700/540 703/543 702/539
f 704/546 705/545 695/544
f 704/546 697/547 705/545
f 695/549 693/548 704/546
f 693/548 697/547 704/546
f 705/543 706/541 695/543
f 707/539 706/541 705/543
f 706/541 694/539 695/543
f 697/543 708/541 705/543
f 708/541 707/539 705/543
f 696/539 708/541 697/543
f 709/541 701/543 699/539
f 710/539 711/543 709/541
f 701/543 709/541 711/543
f 712/541 711/543 710/539
f 702/539 703/543 712/541
f 701/549 713/546 700/548
f 700/548 713/546 703/547
f 713/546 701/544 711/545
f 711/543 712/541 703/543
f 713/546 711/545 703/547
f 714/551 715/551 716/550
f 715/551 717/551 716/550
f 717/551 714/551 716/550
f 714/551 718/552 715/551
f 719/553 720/552 715/551
f 715/551 720/552 717/551
f 719/553 715/551 718/552
f 717/551 721/552 714/551
f 714/551 722/553 718/552
f 720/552 530/553 717/551
f 714/551 721/552 722/553
f 721/552 717/551 530/553
f 723/552 724/551 545/553
f 725/551 723/552 726/553
f 545/553 724/551 727/552
f 728/552 725/551 726/553
f 724/551 723/552 725/551
f 729/553 730/551 728/552
f 730/551 727/552 724/551
f 727/552 730/551 729/553
f 725/551 728/552 730/551
f 724/551 725/551 731/550
f 730/551 724/551 731/550
f 731/550 725/551 730/551
f 732/551 733/551 734/550
f 733/551 735/551 734/550
f 735/551 732/551 734/550
f 732/551 736/552 733/551
f 737/553 738/552 733/551
f 733/551 738/552 735/551
f 737/553 733/551 736/552
f 735/551 739/552 732/551
f 732/551 740/553 736/552
f 738/552 552/553 735/551
f 732/551 739/552 740/553
f 739/552 735/551 552/553
f 741/552 742/551 565/553
f 743/551 741/552 744/553
f 565/553 742/551 745/552
f 746/552 743/551 744/553
f 742/551 741/552 743/551
f 747/553 748/551 746/552
f 748/551 745/552 742/551
f 745/552 748/551 747/553
f 743/551 746/552 748/551
f 742/551 743/551 749/550
f 748/551 742/551 749/550
f 749/550 743/551 748/551
f 750/541 751/540 752/539
f 751/540 753/543 752/539
f 750/541 754/539 751/540
f 754/539 755/542 751/540
f 756/541 757/539 758/540
f 757/539 759/543 758/540
f 756/541 758/540 760/539
f 760/539 758/540 761/542
f 762/546 763/545 753/547
f 763/543 764/541 753/543
f 762/546 755/544 763/545
f 751/548 762/546 753/547
f 755/549 762/546 751/548
f 752/539 753/543 764/541
f 764/541 763/543 765/539
f 755/543 766/541 763/543
f 765/539 763/543 766/541
f 766/541 755/543 754/539
f 757/539 767/541 759/543
f 767/541 768/539 769/543
f 759/543 767/541 769/543
f 770/541 760/539 761/543
f 768/539 770/541 769/543
f 769/543 770/541 761/543
f 758/548 759/547 771/546
f 761/549 758/548 771/546
f 771/546 759/547 769/545
f 771/546 769/545 761/544
f 772/551 773/551 774/550
f 773/551 775/551 774/550
f 775/551 772/551 774/550
f 772/551 776/552 773/551
f 777/553 778/552 773/551
f 773/551 778/552 775/551
f 777/553 773/551 776/552
f 775/551 779/552 772/551
f 772/551 780/553 776/552
f 778/552 583/553 775/551
f 772/551 779/552 780/553
f 779/552 775/551 583/553
f 781/552 782/551 594/553
f 783/551 781/552 784/553
f 594/553 782/551 785/552
f 786/552 783/551 784/553
f 782/551 781/552 783/551
f 787/553 788/551 786/552
f 788/551 785/552 782/551
f 785/552 788/551 787/553
f 783/551 786/552 788/551
f 782/551 783/551 789/550
f 788/551 782/551 789/550
f 789/550 783/551 788/551
usemtl mat10
f 790/556 791/555 792/554
f 791/555 793/557 792/554
f 794/560 795/559 616/558
f 616/558 795/559 618/561
f 796/554 532/557 794/556
f 532/557 531/555 794/556
f 797/564 794/563 619/562
f 619/562 794/563 614/565
f 795/556 798/554 534/555
f 798/554 535/557 534/555
f 543/555 532/557 797/556
f 532/557 796/554 797/556
f 799/554 795/556 547/557
f 795/556 534/555 547/557
f 800/556 801/554 802/555
f 801/554 803/557 802/555
f 795/568 804/567 622/566
f 622/566 804/567 626/569
f 804/556 799/554 546/555
f 799/554 547/557 546/555
f 804/559 797/560 628/561
f 628/561 797/560 623/558
f 805/556 806/555 807/554
f 806/555 808/557 807/554
f 614/570 794/560 616/558
f 622/571 618/561 795/559
f 797/560 619/570 623/558
f 628/561 626/571 804/559
f 809/556 810/555 811/554
f 810/555 812/557 811/554
f 813/560 814/559 632/558
f 632/558 814/559 634/561
f 815/554 554/557 813/556
f 554/557 553/555 813/556
f 816/564 813/563 635/562
f 635/562 813/563 630/565
f 814/556 817/554 818/555
f 817/554 819/557 818/555
f 563/555 554/557 816/556
f 554/557 815/554 816/556
f 820/554 814/556 821/557
f 814/556 822/555 821/557
f 823/556 824/554 825/555
f 824/554 826/557 825/555
f 814/568 827/567 638/566
f 638/566 827/567 642/569
f 827/556 820/554 828/555
f 820/554 821/557 828/555
f 827/559 816/560 644/561
f 644/561 816/560 639/558
f 827/556 828/555 829/554
f 828/555 830/557 829/554
f 630/570 813/560 632/558
f 638/571 634/561 814/559
f 816/560 635/570 639/558
f 644/561 642/571 827/559
f 831/556 580/555 832/554
f 580/555 582/557 832/554
f 831/560 833/559 663/558
f 663/558 833/559 665/561
f 834/554 584/557 831/556
f 584/557 580/555 831/556
f 835/564 831/563 666/562
f 666/562 831/563 661/565
f 836/556 837/554 838/555
f 837/554 839/557 838/555
f 588/555 584/557 835/556
f 584/557 834/554 835/556
f 840/554 833/556 590/557
f 833/556 586/555 590/557
f 841/556 842/554 843/555
f 842/554 844/557 843/555
f 833/568 845/567 669/566
f 669/566 845/567 673/569
f 845/556 840/554 595/555
f 840/554 590/557 595/555
f 845/559 835/560 675/561
f 675/561 835/560 670/558
f 846/556 847/555 848/554
f 847/555 849/557 848/554
f 661/570 831/560 663/558
f 669/571 665/561 833/559
f 835/560 666/570 670/558
f 675/561 673/571 845/559
usemtl mat11
f 536/574 528/573 548/572
f 528/573 538/575 548/572
f 557/574 550/573 567/572
f 550/573 559/575 567/572
f 587/574 581/573 596/572
f 581/573 589/575 596/572
# 1294 elements

