# Created by Metasequoia

mtllib Mad_express1.mtl

v 3905.939209 35.999901 -2966.999268
v 3908.395752 35.999901 -2968.721436
v 3905.939209 31.999901 -2966.999268
v 3908.395752 31.999901 -2968.721436
v 3942.099365 31.999901 -2915.409912
v 3942.099365 35.999901 -2915.409912
v 3944.555908 31.999901 -2917.131836
v 3944.555908 35.999901 -2917.131836
v 3980.555664 31.999901 -2860.545654
v 3980.555664 35.999901 -2860.545654
v 3983.012451 31.999901 -2862.267578
v 3983.012451 35.999901 -2862.267578
v 3983.732422 35.999901 -3021.526611
v 3986.188721 35.999901 -3023.248779
v 3983.732422 31.999901 -3021.526611
v 3986.188721 31.999901 -3023.248779
v 4019.892334 31.999901 -2969.937256
v 4019.892334 35.999901 -2969.937256
v 4022.349121 31.999901 -2971.659180
v 4022.349121 35.999901 -2971.659180
v 4049.432373 31.999901 -2762.280762
v 4049.432373 35.999901 -2762.280762
v 4051.889160 31.999901 -2764.002686
v 4051.889160 35.999901 -2764.002686
v 4058.348877 31.999901 -2915.072998
v 4058.348877 35.999901 -2915.072998
v 4060.805420 31.999901 -2916.794922
v 4060.805420 35.999901 -2916.794922
v 4076.409424 31.999901 -2723.793701
v 4076.409424 35.999901 -2723.793701
v 4078.865967 31.999901 -2725.515625
v 4078.865967 35.999901 -2725.515625
v 4127.225586 31.999901 -2816.808105
v 4127.225586 35.999901 -2816.808105
v 4129.682129 31.999901 -2818.530029
v 4129.682129 35.999901 -2818.530029
v 4124.048828 31.999901 -2655.827148
v 4124.048828 35.999901 -2655.827148
v 4126.505371 31.999901 -2657.549072
v 4126.505371 35.999901 -2657.549072
v 4154.202637 31.999901 -2778.321045
v 4154.202637 35.999901 -2778.321045
v 4156.659180 31.999901 -2780.042969
v 4156.659180 35.999901 -2780.042969
v 4201.842285 31.999901 -2710.354492
v 4201.842285 35.999901 -2710.354492
v 4204.298828 31.999901 -2712.076416
v 4204.298828 35.999901 -2712.076416
v 3632.485107 35.999901 -3296.134033
v 3634.781982 35.999901 -3298.063477
v 3632.485107 31.999901 -3296.134033
v 3634.781982 31.999901 -3298.063477
v 3673.003662 31.999901 -3247.892578
v 3673.003662 35.999901 -3247.892578
v 3675.300781 31.999901 -3249.822021
v 3675.300781 35.999901 -3249.822021
v 3716.095459 31.999901 -3196.588623
v 3716.095459 35.999901 -3196.588623
v 3718.392822 31.999901 -3198.518066
v 3718.392822 35.999901 -3198.518066
v 3705.229736 35.999901 -3357.233643
v 3707.526611 35.999901 -3359.163330
v 3705.229736 31.999901 -3357.233643
v 3707.526611 31.999901 -3359.163330
v 3745.748535 31.999901 -3308.992676
v 3745.748535 35.999901 -3308.992676
v 3748.045654 35.999901 -3310.922119
v 3748.045654 31.999901 -3310.922119
v 3793.274414 31.999901 -3104.700684
v 3793.274414 35.999901 -3104.700684
v 3795.571777 31.999901 -3106.630371
v 3795.571777 35.999901 -3106.630371
v 3788.840332 31.999901 -3257.688721
v 3788.840332 35.999901 -3257.688721
v 3791.137451 31.999901 -3259.618164
v 3791.137451 35.999901 -3259.618164
v 3823.503174 31.999901 -3068.711426
v 3823.503174 35.999901 -3068.711426
v 3825.800293 31.999901 -3070.640869
v 3825.800293 35.999901 -3070.640869
v 3866.019287 31.999901 -3165.800781
v 3866.019287 35.999901 -3165.800781
v 3868.316406 31.999901 -3167.730225
v 3868.316406 35.999901 -3167.730225
v 3876.885498 31.999901 -3005.155518
v 3876.885498 35.999901 -3005.155518
v 3879.182373 35.999901 -3007.084961
v 3879.182373 31.999901 -3007.084961
v 3896.247803 31.999901 -3129.811523
v 3896.247803 35.999901 -3129.811523
v 3898.544922 31.999901 -3131.740967
v 3898.544922 35.999901 -3131.740967
v 3949.629883 31.999901 -3066.255127
v 3949.629883 35.999901 -3066.255127
v 3951.927002 31.999901 -3068.184814
v 3951.927002 35.999901 -3068.184814
v 3902.250488 29.999901 -2970.519531
v 3905.120361 29.999901 -2966.425293
v 3902.250488 44.851299 -2970.519531
v 3905.120361 44.851299 -2966.425293
v 3909.214600 29.999901 -2969.295166
v 3909.214600 44.851299 -2969.295166
v 3906.344727 29.999901 -2973.389404
v 3906.344727 44.851299 -2973.389404
v 3980.043701 29.999901 -3025.046875
v 3982.913574 29.999901 -3020.952637
v 3980.043701 44.851299 -3025.046875
v 3982.913574 44.851299 -3020.952637
v 3987.007813 29.999901 -3023.822510
v 3987.007813 44.851299 -3023.822510
v 3984.137939 29.999901 -3027.916748
v 3984.137939 44.851299 -3027.916748
v 4012.740234 29.999901 -2812.886230
v 4015.610107 29.999901 -2808.791992
v 4012.740234 44.851299 -2812.886230
v 4015.610107 44.851299 -2808.791992
v 4019.704590 29.999901 -2811.661865
v 4019.704590 44.851299 -2811.661865
v 4016.834717 29.999901 -2815.756104
v 4016.834717 44.851299 -2815.756104
v 4090.533447 29.999901 -2867.413574
v 4093.403320 29.999901 -2863.319336
v 4090.533447 44.851299 -2867.413574
v 4093.403320 44.851299 -2863.319336
v 4097.497559 29.999901 -2866.189209
v 4097.497559 44.851299 -2866.189209
v 4094.627930 29.999901 -2870.283447
v 4094.627930 44.851299 -2870.283447
v 4123.229980 29.999901 -2655.253174
v 4126.100098 29.999901 -2651.158691
v 4123.229980 44.851299 -2655.253174
v 4126.100098 44.851299 -2651.158691
v 4130.194336 29.999901 -2654.028564
v 4130.194336 44.851299 -2654.028564
v 4127.324219 29.999901 -2658.123047
v 4127.324219 44.851299 -2658.123047
v 4201.023438 29.999901 -2709.780518
v 4203.893066 29.999901 -2705.686035
v 4201.023438 44.851299 -2709.780518
v 4203.893066 44.851299 -2705.686035
v 4207.987305 29.999901 -2708.555908
v 4207.987305 44.851299 -2708.555908
v 4205.117676 29.999901 -2712.650391
v 4205.117676 44.851299 -2712.650391
v 3628.503418 29.999901 -3299.319336
v 3631.719238 29.999901 -3295.490723
v 3628.503418 44.851299 -3299.319336
v 3631.719238 44.851299 -3295.490723
v 3635.547852 29.999901 -3298.706543
v 3635.547852 44.851299 -3298.706543
v 3632.332031 29.999901 -3302.535400
v 3632.332031 44.851299 -3302.535400
v 3701.248047 29.999901 -3360.419434
v 3704.463867 29.999901 -3356.590820
v 3701.248047 44.851299 -3360.419434
v 3704.463867 44.851299 -3356.590820
v 3708.292480 29.999901 -3359.806641
v 3708.292480 44.851299 -3359.806641
v 3705.076904 29.999901 -3363.635254
v 3705.076904 44.851299 -3363.635254
v 3752.311523 29.999901 -3151.915771
v 3755.527100 29.999901 -3148.087158
v 3752.311523 44.851299 -3151.915771
v 3755.527100 44.851299 -3148.087158
v 3759.355713 29.999901 -3151.303223
v 3759.355713 44.851299 -3151.303223
v 3756.140137 29.999901 -3155.131592
v 3756.140137 44.851299 -3155.131592
v 3825.056152 29.999901 -3213.015869
v 3828.271973 29.999901 -3209.187256
v 3825.056152 44.851299 -3213.015869
v 3828.271973 44.851299 -3209.187256
v 3832.100586 29.999901 -3212.403076
v 3832.100586 44.851299 -3212.403076
v 3828.884766 29.999901 -3216.231689
v 3828.884766 44.851299 -3216.231689
v 3876.119385 29.999901 -3004.512207
v 3879.335205 29.999901 -3000.683594
v 3876.119385 44.851299 -3004.512207
v 3879.335205 44.851299 -3000.683594
v 3883.163818 29.999901 -3003.899414
v 3883.163818 44.851299 -3003.899414
v 3879.947998 29.999901 -3007.728271
v 3879.947998 44.851299 -3007.728271
v 3948.864258 29.999901 -3065.612305
v 3952.080078 29.999901 -3061.783691
v 3948.864258 44.851299 -3065.612305
v 3952.080078 44.851299 -3061.783691
v 3955.908691 29.999901 -3064.999512
v 3955.908691 44.851299 -3064.999512
v 3952.692871 29.999901 -3068.828125
v 3952.692871 44.851299 -3068.828125
v 3902.250732 49.999901 -2970.519531
v 3905.120361 49.999901 -2966.425049
v 3909.214600 49.999901 -2969.295166
v 3906.344727 49.999901 -2973.389404
v 3980.043701 49.999901 -3025.046875
v 3982.913330 49.999901 -3020.952393
v 3987.007813 49.999901 -3023.822510
v 3984.137939 49.999901 -3027.916748
v 4012.740234 49.999901 -2812.885986
v 4015.610107 49.999901 -2808.791992
v 4019.704346 49.999901 -2811.661865
v 4016.834717 49.999901 -2815.756104
v 4090.533447 49.999901 -2867.413330
v 4093.403320 49.999901 -2863.319336
v 4097.497559 49.999901 -2866.189209
v 4094.627930 49.999901 -2870.283447
v 4123.229980 49.999901 -2655.253174
v 4126.100098 49.999901 -2651.158691
v 4130.194336 49.999901 -2654.028564
v 4127.324219 49.999901 -2658.123047
v 4201.023438 49.999901 -2709.780518
v 4203.893066 49.999901 -2705.686035
v 4207.987305 49.999901 -2708.555908
v 4205.117676 49.999901 -2712.650391
v 3628.503174 49.999901 -3299.319336
v 3631.719482 49.999901 -3295.490967
v 3635.547852 49.999901 -3298.706299
v 3632.332031 49.999901 -3302.535400
v 3701.248047 49.999901 -3360.419189
v 3704.463867 49.999901 -3356.590820
v 3708.292236 49.999901 -3359.806641
v 3705.076904 49.999901 -3363.635498
v 3752.311523 49.999901 -3151.915771
v 3755.527100 49.999901 -3148.087158
v 3759.355713 49.999901 -3151.303467
v 3756.139893 49.999901 -3155.131592
v 3825.055908 49.999901 -3213.015869
v 3828.272217 49.999901 -3209.187256
v 3832.100586 49.999901 -3212.403076
v 3828.884766 49.999901 -3216.231689
v 3876.119385 49.999901 -3004.512451
v 3879.335205 49.999901 -3000.683594
v 3883.163818 49.999901 -3003.899414
v 3879.947998 49.999901 -3007.728271
v 3948.864258 49.999901 -3065.612305
v 3952.080078 49.999901 -3061.783936
v 3955.908936 49.999901 -3064.999268
v 3952.692627 49.999901 -3068.828125
v 4181.910156 29.537300 -2581.046387
v 4179.835449 21.999901 -2579.857422
v 4214.402344 21.999901 -2599.985107
v 4184.988770 32.049702 -2582.832520
v 4188.999023 62.072201 -2585.167725
v 4214.413574 74.557503 -2599.966309
v 4197.438965 72.079597 -2590.082275
v 4243.837891 32.049702 -2617.099609
v 4239.828125 62.072201 -2614.764648
v 4231.388184 72.079597 -2609.850342
v 4246.910645 29.537300 -2618.895264
v 4248.969238 21.999901 -2620.113037
v 4233.174316 64.928650 -2508.081543
v 4250.622070 64.922600 -2478.117676
v 4244.756348 73.794800 -2500.160156
v 4255.826660 73.794800 -2481.148438
v 4233.173828 64.928497 -2508.081543
v 4259.119141 64.928497 -2523.188965
v 4265.496094 73.794746 -2512.236816
v 4267.556152 64.928497 -2449.034424
v 4266.384277 73.794769 -2463.017822
v 4285.064941 64.928596 -2538.296387
v 4259.119629 64.928596 -2523.189453
v 4286.236816 73.794769 -2524.313721
v 4267.556152 64.928596 -2449.034668
v 4293.501953 64.928596 -2464.142334
v 4287.124512 73.794800 -2475.094238
v 4285.064453 64.928497 -2538.296631
v 4302.512207 64.922501 -2508.333008
v 4297.306641 73.794800 -2505.302002
v 4319.447266 64.928627 -2479.250000
v 4307.864258 73.794830 -2487.171143
v 4302.513184 64.922699 -2508.333496
v 4273.430176 64.928658 -2438.947998
v 4290.876953 64.922668 -2408.983643
v 4285.012695 73.794868 -2431.026855
v 4296.082520 73.794853 -2412.014893
v 4299.375488 64.928596 -2454.055420
v 4305.752930 73.794746 -2443.103516
v 4307.812012 64.928596 -2379.901367
v 4306.640625 73.794800 -2393.884033
v 4325.320801 64.928497 -2469.163086
v 4299.375488 64.928497 -2454.055176
v 4326.492676 73.794769 -2455.180176
v 4333.757813 64.928596 -2395.008789
v 4327.380859 73.794800 -2405.960449
v 4342.768066 64.922600 -2439.199219
v 4337.562988 73.794800 -2436.168457
v 4359.703613 64.928596 -2410.116211
v 4348.120605 73.794800 -2418.037354
v 4359.702637 64.928497 -2410.116211
v 4342.768555 64.922600 -2439.199463
v 4338.228516 24.000200 -2387.329834
v 4303.661621 24.000200 -2367.201904
v 4305.720215 31.537500 -2368.419678
v 4308.792480 34.049999 -2370.215088
v 4338.217285 76.557701 -2387.348633
v 4312.802734 64.072403 -2372.550293
v 4321.242676 74.079903 -2377.464600
v 4363.631836 64.072403 -2402.147217
v 4367.642090 34.049999 -2404.482422
v 4355.191895 74.079903 -2397.232910
v 4370.720215 31.537500 -2406.268311
v 4372.795410 24.000200 -2407.457520
v 4192.918945 64.928452 -2577.215576
v 4210.366211 64.922501 -2547.251709
v 4204.500977 73.794731 -2569.294189
v 4215.572266 73.794746 -2550.282471
v 4218.864258 64.928497 -2592.322998
v 4225.241211 73.794701 -2581.371094
v 4227.301270 64.928497 -2518.168457
v 4226.128906 73.794731 -2532.151367
v 4244.809082 64.928627 -2607.430664
v 4218.865234 64.928596 -2592.322754
v 4245.981445 73.794830 -2593.447510
v 4225.242188 73.794800 -2581.370850
v 4253.246094 64.928497 -2533.275879
v 4246.869141 73.794746 -2544.228027
v 4262.257324 64.922699 -2577.467041
v 4257.051758 73.794777 -2574.436035
v 4279.191406 64.928452 -2548.383789
v 4267.609375 73.794731 -2556.304932
v 4262.257324 64.922401 -2577.467041
v 4159.875000 21.999901 -2648.771729
v 4152.241211 21.999901 -2627.246338
v 4163.632813 29.537300 -2646.359863
v 4156.155762 29.537300 -2625.277100
v 4167.070801 32.049702 -2643.948242
v 4160.975586 32.049702 -2624.071777
v 4177.194824 21.999901 -2663.883789
v 4178.688965 29.537300 -2661.318604
v 4180.500488 32.049702 -2658.206543
v 4198.887207 21.999901 -2671.488037
v 4199.129883 29.537300 -2667.029053
v 4199.529297 32.049702 -2662.848633
v 4221.156250 29.537300 -2663.125732
v 4219.825195 32.049702 -2658.339111
v 4221.375000 21.999901 -2667.502197
v 4228.067383 34.000198 -2497.025635
v 4231.771973 34.000198 -2510.535889
v 4228.067383 24.000200 -2497.025635
v 4231.771973 24.000200 -2510.535889
v 4255.419922 24.000200 -2450.050293
v 4255.419922 34.000198 -2450.050293
v 4283.622559 34.000198 -2540.727539
v 4283.622559 24.000200 -2540.727539
v 4269.008301 24.000200 -2446.587402
v 4269.008301 34.000198 -2446.587402
v 4297.201172 24.000200 -2537.281250
v 4297.201172 34.000198 -2537.281250
v 4320.858887 24.000200 -2476.779053
v 4320.858887 34.000198 -2476.779053
v 4324.554199 24.000200 -2490.305908
v 4324.554199 34.000198 -2490.305908
v 4268.323242 34.000198 -2427.891846
v 4272.027832 34.000198 -2441.402344
v 4268.323242 24.000200 -2427.891846
v 4272.027832 24.000200 -2441.402344
v 4295.675781 24.000200 -2380.916504
v 4295.675781 34.000198 -2380.916504
v 4323.878418 34.000198 -2471.593994
v 4323.878418 24.000200 -2471.593994
v 4309.264160 24.000200 -2377.453613
v 4309.264160 34.000198 -2377.453613
v 4337.457031 24.000200 -2468.147461
v 4337.457031 34.000198 -2468.147461
v 4361.114746 24.000200 -2407.645020
v 4361.114746 34.000198 -2407.645020
v 4364.810059 24.000200 -2421.172119
v 4364.810059 34.000198 -2421.172119
v 4331.255859 24.000200 -2319.812988
v 4331.474609 31.537500 -2324.189209
v 4332.805664 34.049999 -2328.975830
v 4353.743652 24.000200 -2315.826904
v 4353.500977 31.537500 -2320.285889
v 4353.101074 34.049999 -2324.466064
v 4373.941895 31.537500 -2325.996338
v 4372.129883 34.049999 -2329.108154
v 4375.436035 24.000200 -2323.431152
v 4388.998047 31.537500 -2340.955322
v 4385.560059 34.049999 -2343.366455
v 4396.475098 31.537500 -2362.037842
v 4391.655273 34.049999 -2363.242920
v 4392.756348 24.000200 -2338.542969
v 4400.389648 24.000200 -2360.068604
v 4187.811523 34.000198 -2566.159180
v 4191.517090 34.000198 -2579.669922
v 4187.811523 24.000200 -2566.159180
v 4191.517090 24.000200 -2579.669922
v 4215.164551 24.000200 -2519.184082
v 4215.164551 34.000198 -2519.184082
v 4243.367188 34.000198 -2609.861572
v 4243.367188 24.000200 -2609.861572
v 4228.752930 24.000200 -2515.721191
v 4228.752930 34.000198 -2515.721191
v 4256.945313 24.000200 -2606.414795
v 4256.945313 34.000198 -2606.414795
v 4280.603516 24.000200 -2545.912598
v 4280.603516 34.000198 -2545.912598
v 4284.298828 24.000200 -2559.439697
v 4284.298828 34.000198 -2559.439697
v 4180.589355 72.079597 -2619.018799
v 4173.321289 62.072201 -2630.789307
v 4170.552246 62.072201 -2622.293945
v 4207.889648 62.072201 -2650.917969
v 4214.538574 72.079597 -2638.786865
v 4216.644043 62.072201 -2649.132568
v 4187.733887 62.072201 -2645.784180
v 4191.699707 72.792198 -2638.973877
v 4344.741211 64.072403 -2336.396973
v 4338.092285 74.079903 -2348.528076
v 4335.986816 64.072403 -2338.182373
v 4372.041504 74.079903 -2368.296143
v 4379.309570 64.072403 -2356.525635
v 4382.078125 64.072403 -2365.020752
v 4360.931152 74.792397 -2348.341064
v 4364.896484 64.072403 -2341.530518
v 4157.492188 88.890602 -2605.018799
v 4166.982422 68.812698 -2601.914551
v 4164.298340 61.990799 -2594.761475
v 4171.844238 68.812698 -2593.565430
v 4171.118164 71.086700 -2598.732666
v 4170.959961 50.813702 -2615.569092
v 4174.176270 47.060902 -2606.152832
v 4174.029297 62.072201 -2615.643066
v 4179.884766 50.813702 -2597.534912
v 4181.715820 62.072201 -2598.356201
v 4222.291504 50.813702 -2645.458740
v 4220.712891 62.072201 -2642.826172
v 4236.130371 68.812698 -2642.178223
v 4228.893066 47.060902 -2638.013428
v 4243.675781 61.990799 -2640.981689
v 4233.570313 50.813702 -2628.795410
v 4231.952148 62.072201 -2627.608398
v 4240.992188 68.812698 -2633.829102
v 4236.855957 71.086700 -2637.010742
v 4238.114746 88.890602 -2651.964111
v 4182.491211 67.075897 -2607.409424
v 4223.696289 67.075897 -2631.402100
v 4238.556152 86.546410 -2471.092041
v 4239.986328 71.186501 -2477.278320
v 4244.641113 71.186501 -2469.282227
v 4247.042480 77.621887 -2476.033447
v 4250.622070 58.635502 -2478.117676
v 4249.127930 69.011803 -2486.505371
v 4246.596191 64.928596 -2485.031250
v 4257.178711 69.011803 -2472.678711
v 4254.646973 64.928596 -2471.204590
v 4295.954590 69.011803 -2513.771729
v 4306.091309 77.621887 -2510.416992
v 4298.486816 64.928596 -2515.246338
v 4308.492188 71.186501 -2517.168213
v 4304.005859 69.011803 -2499.945313
v 4302.512207 58.635502 -2508.332764
v 4313.147949 71.186501 -2509.172119
v 4306.537598 64.928596 -2501.419434
v 4314.577637 86.546410 -2515.358398
v 4278.812012 86.546410 -2401.958496
v 4280.242188 71.186501 -2408.144531
v 4284.897949 71.186501 -2400.148682
v 4287.298340 77.621887 -2406.900146
v 4290.877441 58.635502 -2408.984131
v 4289.384277 69.011803 -2417.371826
v 4286.852051 64.928596 -2415.897461
v 4297.435059 69.011803 -2403.544922
v 4294.903320 64.928596 -2402.070801
v 4336.210449 69.011803 -2444.638184
v 4346.347656 77.621887 -2441.283447
v 4338.742676 64.928596 -2446.112549
v 4348.748047 71.186501 -2448.034912
v 4344.262207 69.011803 -2430.811523
v 4342.768066 58.635502 -2439.199219
v 4353.403809 71.186501 -2440.038818
v 4346.793945 64.928596 -2432.285889
v 4354.833984 86.546410 -2446.224854
v 4314.516113 90.890800 -2335.350830
v 4311.638672 70.812897 -2353.485840
v 4308.955078 63.991001 -2346.333252
v 4319.060547 52.813999 -2358.519531
v 4316.500488 70.812897 -2345.136719
v 4315.774902 73.086899 -2350.304199
v 4320.678711 64.072403 -2359.706543
v 4323.737793 49.061199 -2349.301514
v 4330.339355 52.813999 -2341.856201
v 4331.917969 64.072403 -2344.489014
v 4370.915039 64.072403 -2388.958740
v 4380.786621 70.812897 -2393.749756
v 4372.746094 52.813999 -2389.779785
v 4388.332520 63.991001 -2392.553467
v 4378.454102 49.061199 -2381.161865
v 4381.670898 52.813999 -2371.745850
v 4385.648438 70.812897 -2385.400391
v 4378.601563 64.072403 -2371.672119
v 4381.512695 73.086899 -2388.582275
v 4395.138672 90.890800 -2382.296143
v 4328.934570 69.076103 -2355.912598
v 4370.139160 69.076103 -2379.905273
v 4198.300781 86.546410 -2540.226074
v 4199.730957 71.186501 -2546.412109
v 4204.386719 71.186501 -2538.416260
v 4206.787109 77.621887 -2545.167725
v 4210.366211 58.635502 -2547.251709
v 4208.872559 69.011803 -2555.639160
v 4206.340820 64.928596 -2554.165039
v 4216.923828 69.011803 -2541.812744
v 4214.392090 64.928596 -2540.338379
v 4255.699707 69.011803 -2582.905762
v 4265.836426 77.621887 -2579.550781
v 4258.231445 64.928596 -2584.379883
v 4268.236816 71.186501 -2586.302490
v 4263.750488 69.011803 -2569.079102
v 4262.257324 58.635502 -2577.466797
v 4272.892578 71.186501 -2578.306396
v 4266.282715 64.928596 -2570.553223
v 4274.322754 86.546410 -2584.492432
v 4233.174316 39.402000 -2508.081543
v 4267.556152 39.402000 -2449.034424
v 4285.064941 39.402000 -2538.296387
v 4319.447266 39.402000 -2479.250000
v 4233.189941 39.402500 -2508.090576
v 4250.637695 39.402248 -2478.126953
v 4233.189941 64.929001 -2508.090576
v 4250.637207 64.922737 -2478.126709
v 4259.120117 39.402000 -2523.189453
v 4267.571289 39.401901 -2449.043457
v 4267.571289 64.928497 -2449.043457
v 4293.501953 39.402000 -2464.142334
v 4285.069336 39.401901 -2538.299316
v 4285.068848 64.928497 -2538.299072
v 4302.516602 39.401901 -2508.335205
v 4302.516602 64.922501 -2508.335449
v 4319.435059 39.402401 -2479.243164
v 4302.500977 39.402401 -2508.326416
v 4319.435059 64.929001 -2479.243164
v 4302.500977 64.922997 -2508.326416
v 4273.430664 39.402000 -2438.947998
v 4307.812500 39.402000 -2379.901367
v 4325.320801 39.402000 -2469.163086
v 4359.703125 39.402000 -2410.116211
v 4273.448242 39.402100 -2438.958252
v 4290.895508 39.402100 -2408.994141
v 4273.448242 64.928703 -2438.958252
v 4290.895508 64.922699 -2408.994141
v 4299.375488 39.402000 -2454.055420
v 4307.811035 39.402000 -2379.900391
v 4307.811035 64.928596 -2379.900391
v 4290.876465 39.402000 -2408.983154
v 4333.757813 39.402000 -2395.008789
v 4325.323242 39.402000 -2469.164551
v 4325.323242 64.928596 -2469.164551
v 4342.770508 39.402000 -2439.200684
v 4342.770508 64.922600 -2439.200684
v 4359.718262 39.402100 -2410.124512
v 4342.783691 39.402100 -2439.207764
v 4359.718262 64.928703 -2410.124512
v 4342.783691 64.922699 -2439.207764
v 4192.918945 39.402000 -2577.215332
v 4227.301270 39.402000 -2518.168457
v 4244.809570 39.402000 -2607.430664
v 4279.191406 39.402000 -2548.383789
v 4192.908203 39.402000 -2577.209229
v 4210.355469 39.402000 -2547.245361
v 4192.908203 64.928497 -2577.209229
v 4210.355469 64.922501 -2547.245361
v 4192.918945 64.928596 -2577.215332
v 4218.864258 64.928596 -2592.323242
v 4218.864258 39.402000 -2592.323242
v 4227.304199 39.401901 -2518.170166
v 4227.304199 64.928497 -2518.170166
v 4210.368652 39.401901 -2547.253418
v 4210.368652 64.922501 -2547.253418
v 4253.246094 39.402000 -2533.276123
v 4227.301270 64.928596 -2518.168701
v 4253.246094 64.928596 -2533.276123
v 4244.805176 39.402000 -2607.427734
v 4244.805176 64.928497 -2607.427734
v 4262.252930 39.402000 -2577.464355
v 4262.252930 64.922501 -2577.464355
v 4279.191406 64.928596 -2548.383789
v 4279.182129 39.402199 -2548.378418
v 4262.248047 39.402199 -2577.461426
v 4279.182129 64.928802 -2548.378418
v 4262.248047 64.922798 -2577.461426
v 3632.674316 30.999901 -3361.962891
v 3609.376221 30.999901 -3340.614258
v 3649.226074 30.999901 -3343.899658
v 3625.927979 30.999901 -3322.551025
v 3665.778076 30.999901 -3325.836426
v 3642.479980 30.999901 -3304.487793
v 3656.562012 30.999901 -3383.852051
v 3673.113770 30.999901 -3365.788818
v 3689.665771 30.999901 -3347.725586
v 3911.865234 30.999901 -3032.561279
v 3886.795166 30.999901 -3013.324219
v 3926.779785 30.999901 -3013.124268
v 3901.709717 30.999901 -2993.887207
v 3941.694336 30.999901 -2993.687012
v 3916.624268 30.999901 -2974.450195
v 3937.569824 30.999901 -3052.285156
v 3952.484375 30.999901 -3032.847900
v 3967.398926 30.999901 -3013.410889
v 3676.062988 30.999901 -3368.491455
v 3680.454346 29.999901 -3363.698975
v 3676.738525 29.999901 -3367.753906
v 3679.103027 27.999901 -3365.173584
v 3604.062500 29.999901 -3340.492432
v 3606.427002 30.999901 -3337.911865
v 3607.011719 29.999901 -3343.194824
v 3623.654541 29.999901 -3319.111572
v 3622.979004 30.999901 -3319.848389
v 3630.309570 29.999901 -3364.543457
v 3623.654541 20.999901 -3319.111572
v 3626.019043 27.999901 -3316.531006
v 3626.019043 20.999901 -3316.531006
v 3627.370361 29.999901 -3315.056396
v 3639.530518 30.999901 -3301.785400
v 3641.895508 29.999901 -3299.205078
v 3644.844482 29.999901 -3301.907227
v 3654.197266 29.999901 -3386.432617
v 3668.142578 29.999901 -3323.256104
v 3657.146484 29.999901 -3389.134766
v 3659.510986 30.999901 -3386.554443
v 3676.738525 20.999901 -3367.753906
v 3679.103027 20.999901 -3365.173584
v 3692.030273 29.999901 -3345.145020
v 3692.614502 30.999901 -3350.427979
v 3694.979492 29.999901 -3347.847412
v 3955.657715 30.999901 -3035.282959
v 3959.614502 29.999901 -3030.126221
v 3956.266357 29.999901 -3034.489746
v 3958.396973 27.999901 -3031.712891
v 3881.490967 29.999901 -3013.666016
v 3883.621826 30.999901 -3010.889404
v 3884.664551 29.999901 -3016.101074
v 3899.145264 29.999901 -2990.658936
v 3898.536377 30.999901 -2991.452148
v 3909.734375 29.999901 -3035.337891
v 3899.145020 20.999901 -2990.658936
v 3901.275635 27.999901 -2987.882080
v 3901.275635 20.999901 -2987.882080
v 3902.493164 29.999901 -2986.295410
v 3913.450928 30.999901 -2972.014893
v 3915.581543 29.999901 -2969.238281
v 3918.754883 29.999901 -2971.673340
v 3935.438965 29.999901 -3055.061768
v 3943.824951 29.999901 -2990.910400
v 3938.612549 29.999901 -3057.496826
v 3940.743164 30.999901 -3054.719971
v 3969.529541 29.999901 -3010.634033
v 3956.266357 20.999901 -3034.489746
v 3958.396973 20.999901 -3031.712891
v 3970.572266 30.999901 -3015.845947
v 3972.702881 29.999901 -3013.069092
v 3899.380615 14.999900 -2974.614014
v 3907.569336 14.999900 -2980.353760
v 3905.120361 14.999900 -2966.425049
v 3913.309082 14.999900 -2972.165039
v 3946.063965 14.999900 -2995.124023
v 3940.324219 14.999900 -3003.312744
v 3978.819092 14.999900 -3018.082764
v 3973.079346 14.999900 -3026.271484
v 3987.008057 14.999900 -3023.822266
v 3981.268311 14.999900 -3032.010986
v 4123.230469 14.999900 -2655.253174
v 4131.418945 14.999900 -2660.992920
v 4128.970215 14.999900 -2647.064453
v 4137.158691 14.999900 -2652.804199
v 4169.913574 14.999900 -2675.763184
v 4164.173828 14.999900 -2683.951904
v 4202.668945 14.999900 -2698.721924
v 4196.929199 14.999900 -2706.910645
v 4210.857422 14.999900 -2704.461426
v 4205.117676 14.999900 -2712.650146
v 3907.569336 19.999901 -2980.353760
v 3940.324219 19.999901 -3003.312744
v 3946.063965 19.999901 -2995.124023
v 3913.309082 19.999901 -2972.165039
v 3973.079346 19.999901 -3026.271484
v 3978.819092 19.999901 -3018.082764
v 4131.418945 19.999901 -2660.992920
v 4164.173828 19.999901 -2683.951904
v 4169.913574 19.999901 -2675.763184
v 4137.158691 19.999901 -2652.804199
v 4196.929199 19.999901 -2706.910645
v 4202.668945 19.999901 -2698.721924
v 3625.287842 14.999900 -3303.148193
v 3632.945068 14.999900 -3309.579834
v 3631.719482 14.999900 -3295.490967
v 3639.376465 14.999900 -3301.922363
v 3670.005859 14.999900 -3327.648926
v 3663.574219 14.999900 -3335.306152
v 3700.635254 14.999900 -3353.375000
v 3694.203613 14.999900 -3361.032227
v 3708.292725 14.999900 -3359.806641
v 3701.861084 14.999900 -3367.463867
v 3876.119873 14.999900 -3004.512451
v 3883.776855 14.999900 -3010.943848
v 3882.551514 14.999900 -2996.854736
v 3890.208496 14.999900 -3003.286621
v 3920.837646 14.999900 -3029.013184
v 3914.406006 14.999900 -3036.670410
v 3951.467285 14.999900 -3054.739258
v 3945.035645 14.999900 -3062.396484
v 3959.124268 14.999900 -3061.170898
v 3952.692627 14.999900 -3068.828125
v 3632.945068 19.999901 -3309.579834
v 3663.574219 19.999901 -3335.306152
v 3670.005859 19.999901 -3327.648926
v 3639.376465 19.999901 -3301.922363
v 3694.203613 19.999901 -3361.032227
v 3700.635254 19.999901 -3353.375000
v 3883.776855 19.999901 -3010.943848
v 3914.406006 19.999901 -3036.670410
v 3920.837646 19.999901 -3029.013184
v 3890.208496 19.999901 -3003.286621
v 3945.035645 19.999901 -3062.396484
v 3951.467285 19.999901 -3054.739258
v 3905.120361 19.999901 -2966.425049
v 3987.008301 19.999901 -3023.822266
v 4123.230469 19.999901 -2655.253174
v 4205.117676 19.999901 -2712.650146
v 3631.719238 19.999901 -3295.490723
v 3708.292480 19.999901 -3359.806641
v 3876.119629 19.999901 -3004.512451
v 3952.692871 19.999901 -3068.828125
v 3956.777832 29.999901 -2892.726318
v 3964.966553 29.999901 -2898.466064
v 3905.120361 29.999901 -2966.425049
v 3913.309082 29.999901 -2972.165039
v 4030.476807 29.999901 -2944.384033
v 4038.665527 29.999901 -2950.123535
v 3978.819092 29.999901 -3018.082764
v 3987.008057 29.999901 -3023.822266
v 4071.572754 29.999901 -2728.951904
v 4079.761475 29.999901 -2734.691650
v 4145.271484 29.999901 -2780.609375
v 4153.460449 29.999901 -2786.349121
v 4123.230469 29.999901 -2655.253174
v 4131.418945 29.999901 -2660.992920
v 4196.929199 29.999901 -2706.910645
v 4205.117676 29.999901 -2712.650146
v 3940.324219 29.999901 -3003.312744
v 3907.569336 29.999901 -2980.353760
v 3946.063965 29.999901 -2995.124023
v 3973.079346 29.999901 -3026.271484
v 4164.173828 29.999901 -2683.951904
v 4169.913574 29.999901 -2675.763184
v 4137.158691 29.999901 -2652.804199
v 4202.668945 29.999901 -2698.721924
v 3689.603516 29.999901 -3226.574707
v 3697.260742 29.999901 -3233.006348
v 3631.719238 29.999901 -3295.490723
v 3639.376465 29.999901 -3301.922363
v 3758.519531 29.999901 -3284.458984
v 3766.176758 29.999901 -3290.890625
v 3700.635254 29.999901 -3353.375000
v 3708.292725 29.999901 -3359.806641
v 3818.235352 29.999901 -3073.428467
v 3825.892578 29.999901 -3079.860107
v 3887.151367 29.999901 -3131.312500
v 3894.808838 29.999901 -3137.744141
v 3876.119629 29.999901 -3004.512451
v 3883.776855 29.999901 -3010.943848
v 3945.035645 29.999901 -3062.396484
v 3952.692871 29.999901 -3068.828125
v 3663.574219 29.999901 -3335.306152
v 3632.945068 29.999901 -3309.579834
v 3670.005859 29.999901 -3327.648926
v 3694.203613 29.999901 -3361.032227
v 3914.406006 29.999901 -3036.670410
v 3920.837646 29.999901 -3029.013184
v 3890.208496 29.999901 -3003.286621
v 3951.467285 29.999901 -3054.739258
v 3899.380615 19.999901 -2974.613770
v 3899.380615 29.999901 -2974.614014
v 3981.268311 19.999901 -3032.010986
v 3981.268311 29.999901 -3032.010986
v 4128.970215 19.999901 -2647.064453
v 4128.970215 29.999901 -2647.064453
v 4210.857422 19.999901 -2704.461426
v 4210.857422 29.999901 -2704.461426
v 3625.287598 19.999901 -3303.148193
v 3625.287842 29.999901 -3303.148193
v 3701.861084 19.999901 -3367.463867
v 3701.861084 29.999901 -3367.463867
v 3882.551270 19.999901 -2996.854980
v 3882.551514 29.999901 -2996.854736
v 3959.124512 19.999901 -3061.170898
v 3959.124268 29.999901 -3061.170898
v 3964.966553 19.999901 -2898.466064
v 3956.777832 19.999901 -2892.726318
v 3997.721680 29.999901 -2921.425293
v 3997.721680 19.999901 -2921.425293
v 4030.476807 19.999901 -2944.384033
v 4038.665527 19.999901 -2950.123535
v 4071.572754 19.999901 -2728.951904
v 4079.761475 19.999901 -2734.691650
v 4112.516602 19.999901 -2757.650635
v 4112.516602 29.999901 -2757.650635
v 4145.271484 19.999901 -2780.609375
v 4153.460449 19.999901 -2786.349121
v 3697.260742 19.999901 -3233.006348
v 3689.603516 19.999901 -3226.574707
v 3727.889893 29.999901 -3258.732910
v 3727.889893 19.999901 -3258.732910
v 3758.519531 19.999901 -3284.458984
v 3766.176758 19.999901 -3290.890625
v 3818.235352 19.999901 -3073.428467
v 3825.892578 19.999901 -3079.860107
v 3856.521973 19.999901 -3105.586426
v 3856.521973 29.999901 -3105.586426
v 3887.151367 19.999901 -3131.312500
v 3894.808838 19.999901 -3137.744141
v 3314.411377 54.999901 -3685.504883
v 3314.059570 45.000099 -3685.152588
v 3313.002686 54.999901 -3684.089600
v 3313.355469 44.999802 -3684.442627
v 3397.552490 44.999802 -3600.702637
v 3397.199707 54.999901 -3600.349609
v 3398.609863 54.999901 -3601.766602
v 3398.258301 45.000099 -3601.412354
v 3495.930908 44.999802 -3502.859863
v 3495.578857 54.999901 -3502.506348
v 3496.989014 54.999901 -3503.923340
v 3496.636719 45.000099 -3503.569824
v 3594.309082 44.999802 -3405.016357
v 3593.957764 54.999901 -3404.663330
v 3595.367920 54.999901 -3406.080078
v 3595.014893 45.000099 -3405.726318
v 3685.597900 44.999802 -3314.224854
v 3685.246826 54.999901 -3313.871826
v 3686.656006 54.999901 -3315.289307
v 3686.656982 45.056999 -3315.288330
v 3681.962158 39.999901 -3316.292725
v 3681.962158 49.999901 -3316.292725
v 3678.095459 39.999901 -3317.317139
v 3678.095459 49.999901 -3317.317139
v 3679.870361 39.999901 -3324.014160
v 3679.870361 49.999901 -3324.014404
v 3683.736816 39.999901 -3322.989502
v 3683.736816 49.999901 -3322.989502
v 3684.782959 39.999901 -3319.128662
v 3684.782959 49.999901 -3319.128662
v 3677.049805 39.999901 -3321.178223
v 3677.049805 49.999901 -3321.178467
v 3320.353271 39.999901 -3675.929688
v 3320.353271 49.999901 -3675.929688
v 3316.486572 39.999901 -3676.954102
v 3316.486572 49.999901 -3676.954102
v 3318.261475 39.999901 -3683.651367
v 3318.261475 49.999901 -3683.651367
v 3322.127930 39.999901 -3682.626465
v 3322.127930 49.999901 -3682.626465
v 3323.174072 39.999901 -3678.765869
v 3323.174072 49.999901 -3678.765869
v 3315.440918 39.999901 -3680.815186
v 3315.440674 49.999901 -3680.815186
v 3673.864502 39.999901 -3313.062744
v 3687.967773 39.999901 -3327.243652
v 3671.250000 39.999901 -3322.715088
v 3678.301758 39.999901 -3329.805664
v 3683.530518 39.999901 -3310.501221
v 3690.582764 39.999901 -3317.591797
v 3312.255859 39.999901 -3672.700195
v 3326.359131 39.999901 -3686.880859
v 3309.641357 39.999901 -3682.352295
v 3316.692627 39.999901 -3689.442627
v 3321.922119 39.999901 -3670.138428
v 3328.973877 39.999901 -3677.228760
v 3678.301758 29.999901 -3329.805664
v 3671.250000 29.999901 -3322.715088
v 3683.530762 29.999901 -3310.501221
v 3673.864502 29.999901 -3313.062744
v 3687.967773 29.999901 -3327.243652
v 3690.582520 29.999901 -3317.591797
v 3316.692871 29.999901 -3689.442627
v 3309.641113 29.999901 -3682.352295
v 3321.922119 29.999901 -3670.138428
v 3312.255859 29.999901 -3672.700195
v 3326.359131 29.999901 -3686.880859
v 3328.973877 29.999901 -3677.228760
# 881 vertices

vt 1.53280 -2.97500
vt 1.54850 -2.99600
vt 1.53280 -2.99600
vt 1.54850 -2.97500
vt -12.25570 -1.00010
vt -8.11640 -2.01040
vt -12.25570 -2.01040
vt -8.11640 -1.00010
vt 10.06460 -2.00780
vt 14.97620 -1.00010
vt 14.97620 -2.00780
vt 10.06460 -1.00010
vt 13.74280 0.00240
vt 9.24100 -0.99760
vt 9.24100 0.00240
vt 13.74280 -0.99760
vt 8.23770 -2.00000
vt 12.24170 -0.98510
vt 8.23770 -0.98510
vt 12.24170 -2.00000
vt -3.71440 -2.01040
vt -3.71440 -1.00010
vt 4.84120 -2.00780
vt 4.84120 -1.00010
vt 4.45350 -0.99760
vt 4.45350 0.00240
vt 3.97950 -2.00000
vt 3.97950 -0.98510
vt 1.47480 -2.97500
vt 1.49050 -2.99600
vt 1.47480 -2.99600
vt 1.49050 -2.97500
vt -12.81720 -1.00010
vt -8.33770 -2.01040
vt -12.81720 -2.01040
vt -8.33770 -1.00010
vt 8.85130 -2.00780
vt 13.33090 -1.00010
vt 13.33090 -2.00780
vt 8.85130 -1.00010
vt -14.08660 -2.00780
vt -9.60710 -1.00010
vt -9.60710 -2.00780
vt -14.08660 -1.00010
vt 9.28010 -1.00010
vt 13.75970 -2.01040
vt 9.28010 -2.01040
vt 13.75970 -1.00010
vt 4.16990 -2.01040
vt 4.16990 -1.00010
vt -4.51410 -2.00780
vt -4.51410 -1.00010
vt -4.12120 -0.99760
vt -4.12120 0.00240
vt -3.64720 -2.00000
vt -3.64720 -0.98510
vt -3.57370 -2.01040
vt -3.57370 -1.00010
vt 4.08740 -2.00780
vt 4.08740 -1.00010
vt -4.84310 -1.00010
vt -4.84310 -2.00780
vt 4.51620 -1.00010
vt 4.51620 -2.01040
vt 7.25790 -2.01040
vt 7.25790 -1.00010
vt -8.17830 -2.00780
vt -8.17830 -1.00010
vt -7.47960 -0.99760
vt -7.47960 0.00240
vt -6.63430 -2.00000
vt -6.63430 -0.98510
vt 4.95860 -2.01040
vt 4.95860 -1.00010
vt -4.44490 -2.00780
vt -4.44490 -1.00010
vt 3.68920 -1.00010
vt 3.68920 -2.00780
vt -4.01610 -1.00010
vt -4.01610 -2.01040
vt 12.71120 -2.01040
vt 12.71120 -1.00010
vt -14.64910 -2.00780
vt -14.64910 -1.00010
vt -13.41050 -0.99760
vt -13.41050 0.00240
vt -11.90940 -2.00000
vt -11.90940 -0.98510
vt 1.50380 -2.97500
vt 1.51950 -2.99600
vt 1.50380 -2.99600
vt 1.51950 -2.97500
vt 8.30050 -2.01040
vt 8.30050 -1.00010
vt -7.78680 -2.00780
vt -7.78680 -1.00010
vt 7.03110 -1.00010
vt 7.03110 -2.00780
vt -7.35800 -1.00010
vt -7.35800 -2.01040
vt 14.20210 -2.01040
vt 14.20210 -1.00010
vt -13.68840 -2.00780
vt -13.68840 -1.00010
vt 12.93270 -1.00010
vt 12.93270 -2.00780
vt -13.25960 -1.00010
vt -13.25960 -2.01040
vt 1.44580 -2.97500
vt 1.46160 -2.99600
vt 1.44580 -2.99600
vt 1.46160 -2.97500
vt 0.00190 -1.00200
vt 0.33390 -1.99810
vt 0.00190 -1.99810
vt 0.33390 -1.00200
vt 0.66600 -1.99810
vt 0.66600 -1.00200
vt 0.99800 -1.99810
vt 0.99800 -1.00200
vt 0.46160 -1.33530
vt 0.64040 -1.49820
vt 0.46160 -1.49820
vt 0.64040 -1.33530
vt 0.81920 -1.49820
vt 0.81920 -1.33530
vt 0.99800 -1.49820
vt 0.99800 -1.33530
vt 0.00190 -1.57990
vt 0.33390 -1.85360
vt 0.00190 -1.85360
vt 0.33390 -1.57990
vt 0.66600 -1.85360
vt 0.66600 -1.57990
vt 0.99800 -1.85360
vt 0.99800 -1.57990
vt 0.00190 -1.58400
vt 0.33390 -1.58400
vt 0.66600 -1.58400
vt 0.99800 -1.58400
vt 0.33390 -1.86600
vt 0.00190 -1.86600
vt 0.66600 -1.86600
vt 0.99800 -1.86600
vt 0.33390 -1.84950
vt 0.00190 -1.84950
vt 0.66600 -1.84950
vt 0.99800 -1.84950
vt 0.74740 -1.58850
vt 0.99670 -1.85570
vt 0.74740 -1.85570
vt 0.99670 -1.58850
vt 0.00000 -1.00010
vt 0.99990 -2.00000
vt 0.00000 -2.00000
vt 0.99990 -1.00010
vt 0.50000 -2.00540
vt -1.00540 -2.00540
vt -0.91540 -1.57360
vt -0.78140 -1.42970
vt -0.23920 0.86340
vt 0.49990 1.00540
vt -0.60680 0.29010
vt 1.78140 -1.42970
vt 1.60680 0.29010
vt 1.23920 0.86340
vt 1.91540 -1.57360
vt 2.00540 -2.00540
vt 9.32080 2.99990
vt 9.99970 2.50350
vt 8.99990 2.50350
vt 9.99990 2.99990
vt 9.99680 2.00450
vt 9.21090 2.49990
vt 8.99990 2.00450
vt 9.99680 2.49990
vt -2.29730 2.72150
vt -0.23670 1.99990
vt -2.24960 1.99990
vt -0.14230 2.72150
vt -2.24960 2.99990
vt 0.21700 2.99990
vt 4.25110 1.99990
vt 4.25110 2.72150
vt -3.99960 2.72150
vt -3.99960 1.99990
vt 4.25110 2.99990
vt -3.99960 2.99990
vt 7.99990 -9.02030
vt 6.99990 -8.01180
vt 7.99990 -8.01180
vt 6.99990 -9.02030
vt 12.99990 -9.02030
vt 12.99990 -8.01180
vt 1.99990 -9.02030
vt 1.99990 -8.01180
vt 13.99990 -9.02030
vt 13.99990 -8.01180
vt 0.99990 -9.02030
vt 0.99990 -8.01180
vt 18.99990 -8.01180
vt 18.99990 -9.02030
vt -3.99990 -8.01180
vt -3.99990 -9.02030
vt -4.99990 -8.01180
vt -4.99990 -9.02030
vt 0.45350 -2.57050
vt 0.34030 -2.54260
vt 0.34000 -2.32110
vt 0.62490 -2.99820
vt 0.34760 -2.99820
vt 0.46510 -2.52610
vt 0.56040 -2.47010
vt 0.99800 -1.99990
vt 0.99800 -2.47010
vt 0.56040 -1.99990
vt 0.00540 -2.54500
vt 0.00540 -2.99820
vt 0.00540 -2.37800
vt 0.34410 -2.00140
vt 0.46160 -2.00140
vt 0.00540 -2.00140
vt 0.65230 -2.52680
vt 0.49170 -3.99990
vt 0.49990 -3.99990
vt 0.74320 -2.99990
vt 0.49120 -3.99990
vt 1.00870 -3.99990
vt 0.48500 -3.99990
vt -0.99990 -2.99990
vt -0.49990 -3.99990
vt -0.99990 -3.99990
vt -0.49990 -2.99990
vt -1.00000 -2.99990
vt 9.49990 0.49990
vt 9.74990 0.99990
vt 9.49750 1.00000
vt 8.99750 1.00000
vt 0.24990 -9.99620
vt 0.00090 -9.99960
vt 0.05150 -9.73750
vt 1.94840 -9.73750
vt 1.99900 -9.99960
vt 1.74990 -9.99620
vt 2.99470 -6.00010
vt 2.00520 -6.99680
vt 2.99470 -6.99680
vt 2.00520 -6.00010
vt 0.00000 -8.98750
vt 1.99990 -8.73830
vt 0.00000 -8.73830
vt 1.99990 -8.98750
vt 1.99990 -8.98740
vt 0.00000 -8.73810
vt 1.99990 -8.73810
vt 0.00000 -8.98740
vt 0.99990 -6.00010
vt 0.00000 -7.00000
vt 0.00000 -6.00010
vt 0.99990 -7.00000
vt 0.50310 -0.99850
vt 0.99990 0.00330
vt 0.99990 -0.99850
vt 0.50310 0.00330
vt 0.00010 -0.99850
vt 0.00010 0.00330
vt 0.50310 -2.00000
vt 0.00010 -2.00000
vt 2.05720 -1.19080
vt 2.46920 -1.19080
vt 1.79970 -1.08440
vt 2.26320 -1.40370
vt 3.92410 -3.25630
vt 4.27720 -3.02050
vt 4.27720 -3.25630
vt 3.92410 -3.02050
vt -0.76000 -1.20500
vt 1.62810 -1.08340
vt 1.86220 -1.20500
vt -0.66640 -1.08340
vt 3.92410 -1.00520
vt 4.27720 -1.00520
vt 1.13480 -3.02050
vt 1.13480 -3.25630
vt 2.04950 -1.44810
vt 1.86220 -1.69120
vt 2.04950 -1.69120
vt 2.23680 -1.20500
vt 4.27720 1.01010
vt 3.92410 1.01010
vt 3.92260 -1.08340
vt 3.92260 -1.20500
vt 3.87040 -2.25440
vt 4.28200 -2.03840
vt 3.87040 -2.03840
vt 4.28200 -2.25440
vt -1.72510 -3.02050
vt -1.72510 -3.25630
vt 1.67330 -2.25440
vt 1.67330 -2.03840
vt -2.07810 -3.02050
vt -2.07810 -3.25630
vt -2.07810 -1.00520
vt -1.72510 -1.00520
vt -0.72400 -1.08440
vt -0.82700 -1.19080
vt 2.05720 -1.61650
vt 2.26320 -1.61650
vt -0.57940 -2.25440
vt -0.57940 -2.03840
vt -2.07810 1.01010
vt -1.72510 1.01010
vt 4.32340 -1.08440
vt 4.32340 -1.19080
vt -0.99100 -2.25440
vt -0.99100 -2.03840
vt 0.05480 -0.87790
vt 0.13000 -1.00700
vt 0.05480 -1.00700
vt 0.13000 -0.87790
vt 0.49210 -0.87790
vt 0.49210 -1.00700
vt 0.85420 -0.87790
vt 0.85420 -1.00700
vt 0.92940 -1.00700
vt 0.92940 -0.87790
vt 1.00580 -0.11230
vt 0.89610 -0.00200
vt 1.00580 -0.00200
vt 0.89610 -0.11230
vt 0.51520 -0.00200
vt 0.51520 -0.11230
vt 0.13430 -0.00200
vt 0.13430 -0.11230
vt 0.02460 -0.11230
vt 0.02460 -0.00200
vt -0.04540 -0.88380
vt 0.45250 -0.99810
vt -0.04540 -0.99810
vt 0.45250 -0.88380
vt 0.46600 -0.89060
vt 0.99220 -0.99810
vt 0.46600 -0.99810
vt 0.99220 -0.89060
vt 0.95050 -0.99810
vt 0.95050 -0.88380
vt -0.06000 -0.89060
vt -0.06000 -0.99810
vt -0.08130 -0.88380
vt 0.46380 -0.99810
vt -0.08130 -0.99810
vt 0.46380 -0.88380
vt 0.46600 -0.89280
vt 1.02310 -0.99810
vt 1.02310 -0.89280
vt 1.00900 -0.99810
vt 1.00900 -0.88380
vt -0.09090 -0.89280
vt -0.09090 -0.99810
vt 0.25010 -1.00000
vt 0.74980 -0.00010
vt 0.74980 -1.00000
vt 0.25010 -0.00010
vt 0.24620 -1.00210
vt 0.75370 0.00210
vt 0.75370 -1.00210
vt 0.24620 0.00210
vt 0.24880 -1.00000
vt 0.75110 -0.00010
vt 0.75110 -1.00000
vt 0.24880 -0.00010
vt 0.25150 -1.00000
vt 0.74840 -0.00010
vt 0.74840 -1.00000
vt 0.25150 -0.00010
vt 2.49530 -0.17600
vt 1.48200 -0.00200
vt 1.48200 -0.17600
vt 2.49530 -0.00200
vt 2.49530 -0.50010
vt 1.48200 -0.32820
vt 1.48200 -0.50010
vt 2.49530 -0.32820
vt -0.48200 -0.00200
vt -0.48200 -0.17600
vt -0.48200 -0.32820
vt -0.48200 -0.50010
vt -1.49530 -0.17600
vt -1.49530 -0.00200
vt -1.49530 -0.50010
vt -1.49530 -0.32820
vt 0.24090 -0.00200
vt 0.99800 -0.18170
vt 0.24090 -0.18170
vt 0.99800 -0.00200
vt -0.51570 -0.00200
vt -0.51570 -0.18170
vt 0.24090 -0.33290
vt 0.99800 -0.50010
vt 0.24090 -0.50010
vt 0.99800 -0.33290
vt -0.49990 -0.33290
vt -0.49990 -0.50010
vt -0.23960 -1.00840
vt 0.22540 -0.00890
vt 0.22740 -1.00210
vt -0.24540 -0.00890
vt 1.24930 -0.00890
vt 1.24730 -1.00210
vt 0.22350 0.98450
vt -0.25090 0.97820
vt 1.24380 0.98450
vt 1.24120 0.97700
vt 0.74470 -0.00520
vt 0.74470 0.98440
vt 1.24120 -0.00520
vt -0.24730 0.98440
vt -0.23280 -0.00520
vt 0.74470 -0.99470
vt 1.24730 -1.00200
vt -0.21820 -0.98850
vt -0.26620 -0.00150
vt 0.34130 0.99630
vt 0.34130 -0.00150
vt -0.26620 0.99630
vt 1.26620 0.99630
vt 1.26620 -0.00150
vt -0.26620 -0.99930
vt 0.34130 -0.99930
vt 1.26620 -0.99930
vt 1.24500 -0.00880
vt 0.67940 -0.99660
vt 0.67320 -0.00890
vt 1.24390 -0.99030
vt -0.23260 -0.00890
vt -0.23880 -1.00390
vt 1.23880 0.98520
vt 0.66700 0.97890
vt -0.23880 0.96630
vt 0.00000 -1.00000
vt 0.99990 -0.00010
vt 0.99990 -1.00000
vt 0.00000 -0.00010
vt 0.09470 -1.97340
vt -0.00540 -1.26510
vt 0.09470 -1.26510
vt -0.00540 -1.97340
vt 1.50170 -2.04020
vt 2.01040 -2.98610
vt 1.50170 -2.98610
vt 2.01040 -2.04020
vt 0.49580 -1.97340
vt 0.49580 -1.26510
vt 0.89680 -1.97340
vt 0.89680 -1.26510
vt 0.99300 -2.04020
vt 0.99300 -2.98610
vt 0.99700 -1.97340
vt 0.99700 -1.26510
vt -0.00540 0.30880
vt 0.09470 0.30880
vt 0.49580 0.30880
vt 2.01040 0.06180
vt 1.50170 0.06180
vt 0.89680 0.30880
vt 0.99300 0.06180
vt 0.99700 0.30880
vt -0.00540 1.01710
vt 0.09470 1.01710
vt 0.49580 1.01710
vt 1.50170 1.00770
vt 2.01040 1.00770
vt 0.89680 1.01710
vt 0.99300 1.00770
vt 0.99700 1.01710
vt 0.60470 -0.00010
vt -0.53460 -0.45080
vt 0.60470 -0.45080
vt -0.53460 -0.00010
vt 1.74400 -0.45080
vt 1.74400 -0.00010
vt 0.61640 -0.45910
vt 1.74650 -0.00200
vt 0.61640 -0.00200
vt 1.74650 -0.45910
vt -0.51350 -0.45910
vt -0.51350 -0.00200
vt 3.00040 -0.45910
vt 1.64940 -0.00010
vt 1.64940 -0.45910
vt 3.00040 -0.00010
vt -1.74390 -0.00200
vt -0.48690 -0.46260
vt -1.74390 -0.46260
vt -0.48690 -0.00200
vt -1.38160 -0.45910
vt -1.38160 -0.00010
vt 1.75910 -0.00200
vt 1.75910 -0.46260
vt -2.73260 -0.00010
vt -2.73260 -0.45910
vt 3.01610 -0.46260
vt 3.01610 -0.00200
vt 0.21050 -0.82590
vt 0.04200 -1.00000
vt 0.00000 -0.82590
vt 0.16840 -1.00000
vt 2.74890 -0.50010
vt 1.62440 -0.70000
vt 1.62440 -0.50010
vt 2.74890 -0.70000
vt 2.74890 -0.82360
vt 1.62440 -0.82360
vt 1.62440 -0.99810
vt 2.74890 -0.99810
vt 0.50000 -0.70000
vt 0.50000 -0.50010
vt 0.50000 -0.82360
vt 0.50000 -0.99810
vt -0.62440 -0.70000
vt -0.62440 -0.50010
vt -0.62440 -0.82360
vt -0.62440 -0.99810
vt -1.74890 -0.70000
vt -1.74890 -0.50010
vt -1.74890 -0.82360
vt -1.74890 -0.99810
vt 0.25580 -0.82320
vt 0.16550 -1.00000
vt 0.16550 -0.82320
vt 0.25580 -1.00000
vt -0.00180 0.30970
vt 0.24900 0.49990
vt 0.24900 0.30970
vt -0.00180 0.49990
vt 0.75090 0.30970
vt 1.00180 0.49990
vt 1.00180 0.30970
vt 0.75090 0.49990
vt 0.50000 0.30970
vt 0.50000 0.49990
vt 0.25040 0.50120
vt 0.50170 0.31410
vt 0.25040 0.31410
vt 0.50170 0.50120
vt -0.00090 0.50120
vt -0.00090 0.31410
vt 1.02600 0.77920
vt 0.50590 -0.05870
vt 0.50590 1.05840
vt 1.02600 0.22060
vt -0.01410 0.77920
vt -0.01410 0.22060
vt 1.99880 1.99800
vt 2.99800 1.00190
vt 1.99880 1.00190
vt 2.99800 1.99800
vt -1.99800 1.00190
vt -0.99880 1.99800
vt -0.99880 1.00190
vt -1.99800 1.99800
vt 0.99960 1.00190
vt 0.99960 1.99800
vt 0.00030 1.00190
vt 0.00030 1.99800
vt 0.00190 1.99800
vt 0.99800 1.00190
vt 0.00190 1.00190
vt 0.99800 1.99800
vt 0.66360 -0.40150
vt 0.50430 -0.66370
vt 0.50430 -0.31400
vt 0.66360 -0.57630
vt 0.34500 -0.40150
vt 0.34500 -0.57630
# 575 texture vertices

g Object_2
usemtl texture0
f 1/3 2/2 3/1
f 2/2 4/4 3/1
f 3/7 5/6 1/5
f 5/6 6/8 1/5
f 3/11 4/10 5/9
f 4/10 7/12 5/9
f 6/15 8/14 1/13
f 8/14 2/16 1/13
f 7/19 4/18 8/17
f 4/18 2/20 8/17
f 5/6 9/21 6/8
f 9/21 10/22 6/8
f 5/9 7/12 9/23
f 7/12 11/24 9/23
f 10/26 12/25 6/15
f 12/25 8/14 6/15
f 11/28 7/19 12/27
f 7/19 8/17 12/27
f 13/31 14/30 15/29
f 14/30 16/32 15/29
f 15/35 17/34 13/33
f 17/34 18/36 13/33
f 15/39 16/38 17/37
f 16/38 19/40 17/37
f 18/43 20/42 13/41
f 20/42 14/44 13/41
f 19/47 16/46 20/45
f 16/46 14/48 20/45
f 9/21 21/49 10/22
f 21/49 22/50 10/22
f 9/23 11/24 21/51
f 11/24 23/52 21/51
f 22/54 24/53 10/26
f 24/53 12/25 10/26
f 23/56 11/28 24/55
f 11/28 12/27 24/55
f 17/34 25/57 18/36
f 25/57 26/58 18/36
f 17/37 19/40 25/59
f 19/40 27/60 25/59
f 26/62 28/61 18/43
f 28/61 20/42 18/43
f 27/64 19/47 28/63
f 19/47 20/45 28/63
f 21/49 29/65 22/50
f 29/65 30/66 22/50
f 21/51 23/52 29/67
f 23/52 31/68 29/67
f 30/70 32/69 22/54
f 32/69 24/53 22/54
f 31/72 23/56 32/71
f 23/56 24/55 32/71
f 25/57 33/73 26/58
f 33/73 34/74 26/58
f 25/59 27/60 33/75
f 27/60 35/76 33/75
f 34/78 36/77 26/62
f 36/77 28/61 26/62
f 35/80 27/64 36/79
f 27/64 28/63 36/79
f 29/65 37/81 30/66
f 37/81 38/82 30/66
f 29/67 31/68 37/83
f 31/68 39/84 37/83
f 38/86 40/85 30/70
f 40/85 32/69 30/70
f 39/88 31/72 40/87
f 31/72 32/71 40/87
f 37/91 39/90 38/89
f 39/90 40/92 38/89
f 33/73 41/93 34/74
f 41/93 42/94 34/74
f 33/75 35/76 41/95
f 35/76 43/96 41/95
f 42/98 44/97 34/78
f 44/97 36/77 34/78
f 43/100 35/80 44/99
f 35/80 36/79 44/99
f 41/93 45/101 42/94
f 45/101 46/102 42/94
f 41/95 43/96 45/103
f 43/96 47/104 45/103
f 46/106 48/105 42/98
f 48/105 44/97 42/98
f 47/108 43/100 48/107
f 43/100 44/99 48/107
f 45/111 47/110 46/109
f 47/110 48/112 46/109
f 49/3 50/2 51/1
f 50/2 52/4 51/1
f 51/7 53/6 49/5
f 53/6 54/8 49/5
f 51/11 52/10 53/9
f 52/10 55/12 53/9
f 54/15 56/14 49/13
f 56/14 50/16 49/13
f 55/19 52/18 56/17
f 52/18 50/20 56/17
f 53/6 57/21 54/8
f 57/21 58/22 54/8
f 53/9 55/12 57/23
f 55/12 59/24 57/23
f 58/26 60/25 54/15
f 60/25 56/14 54/15
f 59/28 55/19 60/27
f 55/19 56/17 60/27
f 61/31 62/30 63/29
f 62/30 64/32 63/29
f 63/35 65/34 61/33
f 65/34 66/36 61/33
f 66/43 67/42 61/41
f 67/42 62/44 61/41
f 63/39 64/38 65/37
f 64/38 68/40 65/37
f 68/47 64/46 67/45
f 64/46 62/48 67/45
f 57/21 69/49 58/22
f 69/49 70/50 58/22
f 57/23 59/24 69/51
f 59/24 71/52 69/51
f 70/54 72/53 58/26
f 72/53 60/25 58/26
f 71/56 59/28 72/55
f 59/28 60/27 72/55
f 65/34 73/57 66/36
f 73/57 74/58 66/36
f 65/37 68/40 73/59
f 68/40 75/60 73/59
f 74/62 76/61 66/43
f 76/61 67/42 66/43
f 75/64 68/47 76/63
f 68/47 67/45 76/63
f 69/49 77/65 70/50
f 77/65 78/66 70/50
f 69/51 71/52 77/67
f 71/52 79/68 77/67
f 78/70 80/69 70/54
f 80/69 72/53 70/54
f 79/72 71/56 80/71
f 71/56 72/55 80/71
f 73/57 81/73 74/58
f 81/73 82/74 74/58
f 73/59 75/60 81/75
f 75/60 83/76 81/75
f 82/78 84/77 74/62
f 84/77 76/61 74/62
f 83/80 75/64 84/79
f 75/64 76/63 84/79
f 77/65 85/81 78/66
f 85/81 86/82 78/66
f 86/86 87/85 78/70
f 87/85 80/69 78/70
f 77/67 79/68 85/83
f 79/68 88/84 85/83
f 88/88 79/72 87/87
f 79/72 80/71 87/87
f 85/91 88/90 86/89
f 88/90 87/92 86/89
f 81/73 89/93 82/74
f 89/93 90/94 82/74
f 81/75 83/76 89/95
f 83/76 91/96 89/95
f 90/98 92/97 82/78
f 92/97 84/77 82/78
f 91/100 83/80 92/99
f 83/80 84/79 92/99
f 89/93 93/101 90/94
f 93/101 94/102 90/94
f 89/95 91/96 93/103
f 91/96 95/104 93/103
f 94/106 96/105 90/98
f 96/105 92/97 90/98
f 95/108 91/100 96/107
f 91/100 92/99 96/107
f 93/111 95/110 94/109
f 95/110 96/112 94/109
usemtl texture1
f 97/115 98/114 99/113
f 98/114 100/116 99/113
f 98/114 101/117 100/116
f 101/117 102/118 100/116
f 101/117 103/119 102/118
f 103/119 104/120 102/118
f 105/115 106/114 107/113
f 106/114 108/116 107/113
f 106/114 109/117 108/116
f 109/117 110/118 108/116
f 109/117 111/119 110/118
f 111/119 112/120 110/118
f 113/115 114/114 115/113
f 114/114 116/116 115/113
f 114/114 117/117 116/116
f 117/117 118/118 116/116
f 117/117 119/119 118/118
f 119/119 120/120 118/118
f 121/115 122/114 123/113
f 122/114 124/116 123/113
f 122/114 125/117 124/116
f 125/117 126/118 124/116
f 125/117 127/119 126/118
f 127/119 128/120 126/118
f 129/115 130/114 131/113
f 130/114 132/116 131/113
f 130/114 133/117 132/116
f 133/117 134/118 132/116
f 133/117 135/119 134/118
f 135/119 136/120 134/118
f 137/115 138/114 139/113
f 138/114 140/116 139/113
f 138/114 141/117 140/116
f 141/117 142/118 140/116
f 141/117 143/119 142/118
f 143/119 144/120 142/118
f 145/115 146/114 147/113
f 146/114 148/116 147/113
f 146/114 149/117 148/116
f 149/117 150/118 148/116
f 149/117 151/119 150/118
f 151/119 152/120 150/118
f 153/115 154/114 155/113
f 154/114 156/116 155/113
f 154/114 157/117 156/116
f 157/117 158/118 156/116
f 157/117 159/119 158/118
f 159/119 160/120 158/118
f 161/115 162/114 163/113
f 162/114 164/116 163/113
f 162/114 165/117 164/116
f 165/117 166/118 164/116
f 165/117 167/119 166/118
f 167/119 168/120 166/118
f 169/115 170/114 171/113
f 170/114 172/116 171/113
f 170/114 173/117 172/116
f 173/117 174/118 172/116
f 173/117 175/119 174/118
f 175/119 176/120 174/118
f 177/115 178/114 179/113
f 178/114 180/116 179/113
f 178/114 181/117 180/116
f 181/117 182/118 180/116
f 181/117 183/119 182/118
f 183/119 184/120 182/118
f 185/115 186/114 187/113
f 186/114 188/116 187/113
f 186/114 189/117 188/116
f 189/117 190/118 188/116
f 189/117 191/119 190/118
f 191/119 192/120 190/118
usemtl texture2
f 99/123 100/122 193/121
f 100/122 194/124 193/121
f 100/122 102/125 194/124
f 102/125 195/126 194/124
f 102/125 104/127 195/126
f 104/127 196/128 195/126
f 107/131 108/130 197/129
f 108/130 198/132 197/129
f 108/130 110/133 198/132
f 110/133 199/134 198/132
f 110/133 112/135 199/134
f 112/135 200/136 199/134
f 115/131 116/130 201/137
f 116/130 202/138 201/137
f 116/130 118/133 202/138
f 118/133 203/139 202/138
f 118/133 120/135 203/139
f 120/135 204/140 203/139
f 123/131 124/130 205/137
f 124/130 206/138 205/137
f 124/130 126/133 206/138
f 126/133 207/139 206/138
f 126/133 128/135 207/139
f 128/135 208/140 207/139
f 131/142 132/141 209/137
f 132/141 210/138 209/137
f 132/141 134/143 210/138
f 134/143 211/139 210/138
f 134/143 136/144 211/139
f 136/144 212/140 211/139
f 139/146 140/145 213/137
f 140/145 214/138 213/137
f 140/145 142/147 214/138
f 142/147 215/139 214/138
f 142/147 144/148 215/139
f 144/148 216/140 215/139
f 193/151 196/150 99/149
f 196/150 104/152 99/149
f 197/151 200/150 107/149
f 200/150 112/152 107/149
f 201/151 204/150 115/149
f 204/150 120/152 115/149
f 205/151 208/150 123/149
f 208/150 128/152 123/149
f 209/151 212/150 131/149
f 212/150 136/152 131/149
f 213/151 216/150 139/149
f 216/150 144/152 139/149
f 147/123 148/122 217/121
f 148/122 218/124 217/121
f 148/122 150/125 218/124
f 150/125 219/126 218/124
f 150/125 152/127 219/126
f 152/127 220/128 219/126
f 155/131 156/130 221/129
f 156/130 222/132 221/129
f 156/130 158/133 222/132
f 158/133 223/134 222/132
f 158/133 160/135 223/134
f 160/135 224/136 223/134
f 163/131 164/130 225/137
f 164/130 226/138 225/137
f 164/130 166/133 226/138
f 166/133 227/139 226/138
f 166/133 168/135 227/139
f 168/135 228/140 227/139
f 171/131 172/130 229/137
f 172/130 230/138 229/137
f 172/130 174/133 230/138
f 174/133 231/139 230/138
f 174/133 176/135 231/139
f 176/135 232/140 231/139
f 179/142 180/141 233/137
f 180/141 234/138 233/137
f 180/141 182/143 234/138
f 182/143 235/139 234/138
f 182/143 184/144 235/139
f 184/144 236/140 235/139
f 187/146 188/145 237/137
f 188/145 238/138 237/137
f 188/145 190/147 238/138
f 190/147 239/139 238/138
f 190/147 192/148 239/139
f 192/148 240/140 239/139
f 217/151 220/150 147/149
f 220/150 152/152 147/149
f 221/151 224/150 155/149
f 224/150 160/152 155/149
f 225/151 228/150 163/149
f 228/150 168/152 163/149
f 229/151 232/150 171/149
f 232/150 176/152 171/149
f 233/151 236/150 179/149
f 236/150 184/152 179/149
f 237/151 240/150 187/149
f 240/150 192/152 187/149
usemtl texture3
f 196/155 193/154 195/153
f 193/154 194/156 195/153
f 197/156 198/154 200/153
f 198/154 199/155 200/153
f 204/155 201/154 203/153
f 201/154 202/156 203/153
f 205/156 206/154 208/153
f 206/154 207/155 208/153
f 209/154 210/156 212/155
f 210/156 211/153 212/155
f 216/155 213/154 215/153
f 213/154 214/156 215/153
f 220/155 217/154 219/153
f 217/154 218/156 219/153
f 221/156 222/154 224/153
f 222/154 223/155 224/153
f 228/155 225/154 227/153
f 225/154 226/156 227/153
f 229/156 230/154 232/153
f 230/154 231/155 232/153
f 233/154 234/156 236/155
f 234/156 235/153 236/155
f 240/155 237/154 239/153
f 237/154 238/156 239/153
usemtl texture4
f 99/115 104/113 97/119
f 104/113 103/120 97/119
f 107/120 112/113 105/119
f 112/113 111/115 105/119
f 115/120 120/113 113/119
f 120/113 119/115 113/119
f 123/120 128/113 121/119
f 128/113 127/115 121/119
f 131/120 136/113 129/119
f 136/113 135/115 129/119
f 139/120 144/113 137/119
f 144/113 143/115 137/119
f 147/115 152/113 145/119
f 152/113 151/120 145/119
f 155/120 160/113 153/119
f 160/113 159/115 153/119
f 163/120 168/113 161/119
f 168/113 167/115 161/119
f 171/120 176/113 169/119
f 176/113 175/115 169/119
f 179/120 184/113 177/119
f 184/113 183/115 177/119
f 187/120 192/113 185/119
f 192/113 191/115 185/119
usemtl texture5
f 241/159 242/158 243/157
f 243/157 244/160 241/159
f 245/163 246/162 247/161
f 243/157 248/164 244/160
f 245/163 249/165 246/162
f 246/162 249/165 250/166
f 248/164 243/157 251/167
f 243/157 252/168 251/167
f 244/160 248/164 245/163
f 248/164 249/165 245/163
f 253/171 254/170 255/169
f 254/170 256/172 255/169
f 257/175 255/174 258/173
f 255/174 259/176 258/173
f 260/171 261/169 254/170
f 261/169 256/172 254/170
f 262/175 263/173 264/174
f 259/176 264/174 263/173
f 265/175 266/173 261/174
f 267/176 261/174 266/173
f 268/171 264/169 269/170
f 264/169 270/172 269/170
f 271/175 272/174 266/173
f 272/174 267/176 266/173
f 271/171 273/170 272/169
f 273/170 270/172 272/169
f 274/171 275/170 276/169
f 275/170 277/172 276/169
f 274/175 276/174 278/173
f 276/174 279/176 278/173
f 280/171 281/169 275/170
f 281/169 277/172 275/170
f 282/175 283/173 284/174
f 279/176 284/174 283/173
f 280/175 285/173 281/174
f 286/176 281/174 285/173
f 282/171 284/169 287/170
f 284/169 288/172 287/170
f 289/175 290/174 285/173
f 290/174 286/176 285/173
f 291/171 292/170 290/169
f 292/170 288/172 290/169
f 293/157 294/168 295/167
f 296/164 293/157 295/167
f 297/162 298/165 299/166
f 300/163 298/165 297/162
f 293/157 296/164 301/160
f 300/163 297/162 302/161
f 293/157 301/160 303/159
f 303/159 304/158 293/157
f 301/160 296/164 300/163
f 296/164 298/165 300/163
f 305/171 306/170 307/169
f 306/170 308/172 307/169
f 305/175 307/174 309/173
f 307/174 310/176 309/173
f 311/171 312/169 306/170
f 312/169 308/172 306/170
f 313/175 314/173 315/174
f 316/176 315/174 314/173
f 311/175 317/173 312/174
f 318/176 312/174 317/173
f 313/171 315/169 319/170
f 315/169 320/172 319/170
f 321/175 322/174 317/173
f 322/174 318/176 317/173
f 321/171 323/170 322/169
f 323/170 320/172 322/169
usemtl texture6
f 324/179 325/178 326/177
f 325/178 327/180 326/177
f 326/177 327/180 328/181
f 327/180 329/182 328/181
f 325/178 242/183 327/180
f 327/180 242/183 241/184
f 330/186 324/179 331/185
f 324/179 326/177 331/185
f 327/180 241/184 329/182
f 329/182 241/184 244/187
f 331/185 326/177 332/188
f 326/177 328/181 332/188
f 330/186 331/185 333/179
f 333/179 331/185 334/177
f 331/185 332/188 334/177
f 334/177 332/188 335/181
f 334/177 335/181 336/180
f 335/181 337/182 336/180
f 333/179 334/177 338/178
f 334/177 336/180 338/178
f 336/180 337/182 251/184
f 337/182 248/187 251/184
f 338/178 336/180 252/183
f 336/180 251/184 252/183
f 339/191 340/190 341/189
f 340/190 342/192 341/189
f 341/189 343/193 339/191
f 343/193 344/194 339/191
f 345/196 346/195 340/190
f 346/195 342/192 340/190
f 343/193 347/197 344/194
f 347/197 348/198 344/194
f 346/195 345/196 349/199
f 345/196 350/200 349/199
f 351/202 352/201 347/197
f 352/201 348/198 347/197
f 353/204 349/199 354/203
f 349/199 350/200 354/203
f 351/206 353/204 352/205
f 353/204 354/203 352/205
f 355/191 356/190 357/189
f 356/190 358/192 357/189
f 357/189 359/193 355/191
f 359/193 360/194 355/191
f 361/196 362/195 356/190
f 362/195 358/192 356/190
f 359/193 363/197 360/194
f 363/197 364/198 360/194
f 362/195 361/196 365/199
f 361/196 366/200 365/199
f 367/202 368/201 363/197
f 368/201 364/198 363/197
f 369/204 365/199 370/203
f 365/199 366/200 370/203
f 367/206 369/204 368/205
f 369/204 370/203 368/205
f 371/178 372/180 294/183
f 372/180 295/184 294/183
f 372/180 373/182 295/184
f 373/182 296/187 295/184
f 374/179 375/177 371/178
f 375/177 372/180 371/178
f 375/177 376/181 372/180
f 376/181 373/182 372/180
f 377/185 378/188 375/177
f 375/177 378/188 376/181
f 379/186 377/185 374/179
f 374/179 377/185 375/177
f 377/185 380/177 378/188
f 380/177 381/181 378/188
f 382/180 303/184 383/182
f 383/182 303/184 301/187
f 379/186 384/179 377/185
f 384/179 380/177 377/185
f 385/178 304/183 382/180
f 382/180 304/183 303/184
f 380/177 382/180 381/181
f 382/180 383/182 381/181
f 384/179 385/178 380/177
f 385/178 382/180 380/177
f 386/191 387/190 388/189
f 387/190 389/192 388/189
f 388/189 390/193 386/191
f 390/193 391/194 386/191
f 392/196 393/195 387/190
f 393/195 389/192 387/190
f 390/193 394/197 391/194
f 394/197 395/198 391/194
f 393/195 392/196 396/199
f 392/196 397/200 396/199
f 398/202 399/201 394/197
f 399/201 395/198 394/197
f 400/204 396/199 401/203
f 396/199 397/200 401/203
f 398/206 400/204 399/205
f 400/204 401/203 399/205
usemtl texture7
f 402/209 403/208 404/207
f 405/208 406/209 407/207
f 328/211 329/210 403/208
f 329/210 404/212 403/208
f 244/215 245/214 329/213
f 404/216 329/213 245/214
f 403/208 408/217 328/211
f 408/217 332/218 328/211
f 402/209 409/219 403/208
f 409/219 408/217 403/208
f 245/221 247/220 404/207
f 247/220 402/209 404/207
f 405/208 335/211 408/217
f 408/217 335/211 332/218
f 246/222 409/219 247/220
f 409/219 402/209 247/220
f 406/209 405/208 409/219
f 409/219 405/208 408/217
f 335/211 405/208 337/210
f 337/210 405/208 407/223
f 246/222 250/220 409/219
f 409/219 250/220 406/209
f 249/221 407/207 250/220
f 250/220 407/207 406/209
f 248/215 337/213 249/214
f 407/216 249/214 337/213
f 410/208 411/209 412/207
f 413/209 414/208 415/207
f 296/215 373/213 298/214
f 412/216 298/214 373/213
f 298/221 412/207 299/220
f 299/220 412/207 411/209
f 297/222 299/220 416/219
f 416/219 299/220 411/209
f 376/211 410/208 373/210
f 373/210 410/208 412/223
f 411/209 410/208 416/219
f 416/219 410/208 417/217
f 297/222 416/219 302/220
f 416/219 413/209 302/220
f 410/208 376/211 417/217
f 417/217 376/211 378/218
f 300/221 302/220 415/207
f 302/220 413/209 415/207
f 413/209 416/219 414/208
f 416/219 417/217 414/208
f 414/208 417/217 381/211
f 417/217 378/218 381/211
f 301/215 300/214 383/213
f 415/216 383/213 300/214
f 381/211 383/210 414/208
f 383/210 415/212 414/208
usemtl texture8
f 418/226 419/225 420/224
f 418/226 420/224 421/227
f 419/229 418/226 422/228
f 422/228 418/226 421/227
f 419/230 423/231 420/230
f 424/232 420/230 423/231
f 423/231 419/230 425/232
f 420/230 426/231 421/230
f 426/231 420/230 424/232
f 427/232 421/230 426/231
f 428/231 429/232 430/230
f 431/232 428/231 432/230
f 432/230 428/231 430/230
f 433/231 431/232 432/230
f 434/232 433/231 435/230
f 430/229 436/228 437/226
f 436/228 435/227 437/226
f 437/226 432/224 430/225
f 435/230 433/231 432/230
f 437/226 435/227 432/224
f 438/231 425/232 422/233
f 425/232 419/234 422/233
f 438/231 422/233 427/232
f 422/233 421/230 427/232
f 439/231 436/233 429/232
f 429/232 436/233 430/234
f 439/231 434/232 436/233
f 434/232 435/230 436/233
f 440/236 441/235 442/235
f 443/235 441/235 440/236
f 442/235 443/235 440/236
f 441/235 444/237 442/235
f 441/235 445/237 446/238
f 443/235 445/237 441/235
f 444/237 441/235 446/238
f 442/235 447/237 443/235
f 448/238 442/235 444/237
f 445/237 443/235 256/238
f 447/237 442/235 448/238
f 256/238 443/235 447/237
f 449/237 270/238 450/235
f 451/238 449/237 452/235
f 453/237 450/235 270/238
f 451/238 452/235 454/237
f 452/235 449/237 450/235
f 455/235 456/238 454/237
f 450/235 453/237 455/235
f 455/235 453/237 456/238
f 455/235 454/237 452/235
f 452/235 450/235 457/236
f 450/235 455/235 457/236
f 455/235 452/235 457/236
f 458/236 459/235 460/235
f 461/235 459/235 458/236
f 460/235 461/235 458/236
f 459/235 462/237 460/235
f 459/235 463/237 464/238
f 461/235 463/237 459/235
f 462/237 459/235 464/238
f 460/235 465/237 461/235
f 466/238 460/235 462/237
f 463/237 461/235 277/238
f 465/237 460/235 466/238
f 277/238 461/235 465/237
f 467/237 288/238 468/235
f 469/238 467/237 470/235
f 471/237 468/235 288/238
f 469/238 470/235 472/237
f 470/235 467/237 468/235
f 473/235 474/238 472/237
f 468/235 471/237 473/235
f 473/235 471/237 474/238
f 473/235 472/237 470/235
f 470/235 468/235 475/236
f 468/235 473/235 475/236
f 473/235 470/235 475/236
f 476/226 477/227 478/224
f 477/230 479/231 478/230
f 476/226 478/224 480/225
f 481/228 477/227 476/226
f 480/229 481/228 476/226
f 482/232 479/231 477/230
f 479/231 483/232 478/230
f 478/230 484/231 480/230
f 483/232 484/231 478/230
f 484/231 485/232 480/230
f 486/232 487/230 488/231
f 488/231 489/230 490/232
f 489/230 488/231 487/230
f 491/231 492/230 493/232
f 490/232 489/230 491/231
f 492/230 491/231 489/230
f 494/228 495/226 487/227
f 492/229 495/226 494/228
f 495/226 489/224 487/227
f 495/226 492/225 489/224
f 496/231 482/232 481/233
f 482/232 477/230 481/233
f 496/231 481/233 485/232
f 485/232 481/233 480/234
f 497/231 494/233 486/232
f 494/233 487/230 486/232
f 497/231 493/232 494/233
f 493/232 492/234 494/233
f 498/236 499/235 500/235
f 501/235 499/235 498/236
f 500/235 501/235 498/236
f 499/235 502/237 500/235
f 499/235 503/237 504/238
f 501/235 503/237 499/235
f 502/237 499/235 504/238
f 500/235 505/237 501/235
f 506/238 500/235 502/237
f 503/237 501/235 308/238
f 505/237 500/235 506/238
f 308/238 501/235 505/237
f 507/237 320/238 508/235
f 509/238 507/237 510/235
f 511/237 508/235 320/238
f 509/238 510/235 512/237
f 510/235 507/237 508/235
f 513/235 514/238 512/237
f 508/235 511/237 513/235
f 513/235 511/237 514/238
f 513/235 512/237 510/235
f 510/235 508/235 515/236
f 508/235 513/235 515/236
f 513/235 510/235 515/236
usemtl texture9
f 516/241 340/240 339/239
f 344/244 348/243 517/242
f 345/240 518/241 350/239
f 352/243 354/244 519/242
f 520/247 521/246 522/245
f 521/246 523/248 522/245
f 517/242 516/241 344/244
f 344/244 516/241 339/239
f 253/245 263/248 516/247
f 263/248 524/246 516/247
f 516/251 518/250 340/249
f 340/249 518/250 345/252
f 525/247 526/245 521/246
f 526/245 523/248 521/246
f 524/246 263/248 518/247
f 263/248 262/245 518/247
f 517/247 527/246 265/245
f 527/246 266/248 265/245
f 528/247 529/245 530/246
f 529/245 531/248 530/246
f 519/255 517/254 352/253
f 352/253 517/254 348/256
f 527/246 519/247 266/248
f 519/247 271/245 266/248
f 518/241 519/242 350/239
f 350/239 519/242 354/244
f 532/247 533/246 534/245
f 533/246 535/248 534/245
f 536/241 356/240 355/239
f 360/244 364/243 537/242
f 361/240 538/241 366/239
f 368/243 370/244 539/242
f 540/247 541/246 542/245
f 541/246 543/248 542/245
f 537/242 536/241 360/244
f 360/244 536/241 355/239
f 274/245 278/248 536/247
f 278/248 544/246 536/247
f 536/251 538/250 356/249
f 356/249 538/250 361/252
f 545/247 546/245 547/246
f 546/245 275/248 547/246
f 544/246 278/248 538/247
f 278/248 282/245 538/247
f 537/247 548/246 280/245
f 548/246 285/248 280/245
f 549/247 550/245 551/246
f 550/245 552/248 551/246
f 539/255 537/254 368/253
f 368/253 537/254 364/256
f 548/246 539/247 285/248
f 539/247 289/245 285/248
f 538/241 539/242 366/239
f 366/239 539/242 370/244
f 553/247 554/246 555/245
f 554/246 556/248 555/245
f 557/241 387/240 386/239
f 391/244 395/243 558/242
f 392/240 559/241 397/239
f 399/243 401/244 560/242
f 561/247 562/246 563/245
f 562/246 564/248 563/245
f 558/242 557/241 391/244
f 391/244 557/241 386/239
f 565/245 566/248 557/247
f 566/248 567/246 557/247
f 557/251 559/250 387/249
f 387/249 559/250 392/252
f 568/247 569/245 570/246
f 569/245 571/248 570/246
f 567/246 566/248 559/247
f 566/248 313/245 559/247
f 558/247 572/246 573/245
f 572/246 574/248 573/245
f 575/247 576/245 577/246
f 576/245 578/248 577/246
f 560/255 558/254 399/253
f 399/253 558/254 395/256
f 572/246 560/247 574/248
f 560/247 579/245 574/248
f 559/241 560/242 397/239
f 397/239 560/242 401/244
f 580/247 581/246 582/245
f 581/246 583/248 582/245
usemtl texture10
f 272/259 264/258 261/257
f 264/258 255/260 261/257
f 290/259 284/258 281/257
f 284/258 276/260 281/257
f 322/259 315/258 312/257
f 315/258 307/260 312/257
g obj1
usemtl mat1
f 584/263 585/262 586/261
f 585/262 587/264 586/261
f 586/261 587/264 588/265
f 587/264 589/266 588/265
f 590/154 584/263 591/267
f 584/263 586/261 591/267
f 591/267 586/261 592/268
f 586/261 588/265 592/268
f 593/263 594/262 595/261
f 594/262 596/264 595/261
f 595/261 596/264 597/265
f 596/264 598/266 597/265
f 599/154 593/263 600/267
f 593/263 595/261 600/267
f 600/267 595/261 601/268
f 595/261 597/265 601/268
usemtl mat2
f 602/271 603/270 604/269
f 603/270 605/272 604/269
f 606/275 607/274 608/273
f 608/273 607/274 585/276
f 609/279 610/278 606/277
f 606/277 610/278 607/280
f 585/276 607/274 587/281
f 607/274 610/282 587/281
f 611/284 608/273 584/283
f 608/273 585/276 584/283
f 609/279 612/286 613/285
f 612/286 614/287 613/285
f 610/278 609/279 615/288
f 609/279 613/285 615/288
f 610/282 616/289 587/281
f 587/281 616/289 589/290
f 610/278 615/288 616/291
f 615/288 617/292 616/291
f 589/295 616/294 618/293
f 616/294 617/296 618/293
f 619/298 611/284 590/297
f 611/284 584/283 590/297
f 588/300 589/295 620/299
f 589/295 618/293 620/299
f 621/302 619/298 622/301
f 619/298 590/297 622/301
f 622/301 590/297 602/303
f 590/297 591/304 602/303
f 621/306 622/305 604/269
f 602/271 604/269 622/305
f 604/269 605/272 623/307
f 605/272 624/308 623/307
f 592/310 588/300 625/309
f 588/300 620/299 625/309
f 602/303 591/304 626/311
f 591/304 592/312 626/311
f 602/271 626/313 603/270
f 626/313 627/314 603/270
f 626/316 592/310 627/315
f 592/310 625/309 627/315
f 628/271 629/270 630/269
f 629/270 631/272 630/269
f 632/275 633/274 634/273
f 634/273 633/274 594/276
f 635/279 636/278 632/277
f 632/277 636/278 633/280
f 594/276 633/274 596/281
f 633/274 636/282 596/281
f 637/284 634/273 593/283
f 634/273 594/276 593/283
f 635/279 638/286 639/285
f 638/286 640/287 639/285
f 636/278 635/279 641/288
f 635/279 639/285 641/288
f 636/278 641/288 642/291
f 641/288 643/292 642/291
f 636/282 642/289 596/281
f 596/281 642/289 598/290
f 598/295 642/294 644/293
f 642/294 643/296 644/293
f 645/298 637/284 599/297
f 637/284 593/283 599/297
f 597/300 598/295 646/299
f 598/295 644/293 646/299
f 647/302 645/298 648/301
f 645/298 599/297 648/301
f 648/301 599/297 628/303
f 599/297 600/304 628/303
f 647/306 648/305 630/269
f 628/271 630/269 648/305
f 601/310 597/300 649/309
f 597/300 646/299 649/309
f 630/269 631/272 650/307
f 631/272 651/308 650/307
f 628/303 600/304 652/311
f 600/304 601/312 652/311
f 628/271 652/313 629/270
f 652/313 653/314 629/270
f 652/316 601/310 653/315
f 601/310 649/309 653/315
usemtl mat3
f 654/319 655/318 656/317
f 655/318 657/320 656/317
f 657/320 655/318 658/321
f 655/318 659/322 658/321
f 658/321 659/322 660/323
f 659/322 661/324 660/323
f 662/326 660/323 663/325
f 660/323 661/324 663/325
f 664/329 665/328 666/327
f 665/328 667/330 666/327
f 668/332 667/330 669/331
f 667/330 665/328 669/331
f 670/334 668/332 671/333
f 668/332 669/331 671/333
f 670/334 671/333 672/335
f 671/333 673/336 672/335
f 674/339 675/338 655/337
f 675/338 659/340 655/337
f 676/343 677/342 658/341
f 677/342 657/344 658/341
f 675/338 678/345 659/340
f 678/345 661/346 659/340
f 679/348 676/343 660/347
f 676/343 658/341 660/347
f 680/351 681/350 665/349
f 681/350 669/352 665/349
f 682/343 683/354 668/353
f 683/354 667/355 668/353
f 681/350 684/356 669/352
f 684/356 671/357 669/352
f 685/359 682/343 670/358
f 682/343 668/353 670/358
f 686/319 687/318 688/317
f 687/318 689/320 688/317
f 689/320 687/318 690/321
f 687/318 691/322 690/321
f 690/321 691/322 692/323
f 691/322 693/324 692/323
f 694/326 692/323 695/325
f 692/323 693/324 695/325
f 696/329 697/328 698/327
f 697/328 699/330 698/327
f 700/332 699/330 701/331
f 699/330 697/328 701/331
f 702/334 700/332 703/333
f 700/332 701/331 703/333
f 702/334 703/333 704/335
f 703/333 705/336 704/335
f 706/339 707/338 687/337
f 707/338 691/340 687/337
f 708/343 709/342 690/341
f 709/342 689/344 690/341
f 707/338 710/345 691/340
f 710/345 693/346 691/340
f 711/348 708/343 692/347
f 708/343 690/341 692/347
f 712/351 713/350 697/349
f 713/350 701/352 697/349
f 714/343 715/354 700/353
f 715/354 699/355 700/353
f 713/350 716/356 701/352
f 716/356 703/357 701/352
f 717/359 714/343 702/358
f 714/343 700/353 702/358
usemtl mat4
f 677/362 718/361 657/360
f 718/361 656/363 657/360
f 719/366 679/365 662/364
f 679/365 660/367 662/364
f 720/370 680/369 664/368
f 680/369 665/371 664/368
f 684/374 721/373 671/372
f 721/373 673/375 671/372
f 709/362 722/361 689/360
f 722/361 688/363 689/360
f 723/366 711/365 694/364
f 711/365 692/367 694/364
f 724/370 712/369 696/368
f 712/369 697/371 696/368
f 716/374 725/373 703/372
f 725/373 705/375 703/372
usemtl mat5
f 726/378 727/377 728/376
f 727/377 729/379 728/376
f 730/382 731/381 732/380
f 731/381 733/383 732/380
f 734/385 735/384 726/378
f 735/384 727/377 726/378
f 736/387 737/386 730/382
f 737/386 731/381 730/382
f 734/385 738/388 735/384
f 738/388 739/389 735/384
f 736/387 740/390 737/386
f 740/390 741/391 737/386
f 742/394 743/393 744/392
f 743/393 729/395 744/392
f 745/397 742/394 732/396
f 742/394 744/392 732/396
f 746/400 739/399 747/398
f 739/399 748/401 747/398
f 740/403 746/400 749/402
f 746/400 747/398 749/402
f 750/378 751/377 752/376
f 751/377 753/379 752/376
f 754/382 755/381 756/380
f 755/381 757/383 756/380
f 758/385 759/384 750/378
f 759/384 751/377 750/378
f 760/387 761/386 754/382
f 761/386 755/381 754/382
f 758/385 762/388 759/384
f 762/388 763/389 759/384
f 760/387 764/390 761/386
f 764/390 765/391 761/386
f 766/394 767/393 768/392
f 767/393 753/395 768/392
f 769/397 766/394 756/396
f 766/394 768/392 756/396
f 770/400 763/399 771/398
f 763/399 772/401 771/398
f 764/403 770/400 773/402
f 770/400 771/398 773/402
usemtl mat6
f 718/406 774/405 656/404
f 774/405 654/407 656/404
f 774/405 718/406 775/408
f 718/406 728/409 775/408
f 774/405 674/410 654/407
f 674/410 655/411 654/407
f 775/408 743/412 774/405
f 743/412 674/410 774/405
f 678/415 776/414 661/413
f 776/414 663/416 661/413
f 678/415 745/417 776/414
f 745/417 777/418 776/414
f 776/414 719/419 663/416
f 719/419 662/420 663/416
f 733/421 719/419 777/418
f 719/419 776/414 777/418
f 778/424 720/423 666/422
f 720/423 664/425 666/422
f 720/423 778/424 738/426
f 778/424 779/427 738/426
f 683/429 778/424 667/428
f 778/424 666/422 667/428
f 778/424 683/429 779/427
f 683/429 748/430 779/427
f 780/433 685/432 672/431
f 685/432 670/434 672/431
f 749/436 685/432 781/435
f 685/432 780/433 781/435
f 721/438 780/433 673/437
f 780/433 672/431 673/437
f 780/433 721/438 781/435
f 721/438 741/439 781/435
f 728/442 729/441 775/440
f 729/441 743/443 775/440
f 732/441 733/442 745/443
f 733/442 777/440 745/443
f 779/442 748/441 738/440
f 748/441 739/443 738/440
f 749/442 781/441 740/440
f 781/441 741/443 740/440
f 722/406 782/405 688/404
f 782/405 686/407 688/404
f 782/405 722/406 783/408
f 722/406 752/409 783/408
f 783/408 767/412 782/405
f 767/412 706/410 782/405
f 782/405 706/410 686/407
f 706/410 687/411 686/407
f 710/415 784/414 693/413
f 784/414 695/416 693/413
f 710/415 769/417 784/414
f 769/417 785/418 784/414
f 784/414 723/419 695/416
f 723/419 694/420 695/416
f 757/421 723/419 785/418
f 723/419 784/414 785/418
f 724/423 786/424 762/426
f 786/424 787/427 762/426
f 786/424 724/423 698/422
f 724/423 696/425 698/422
f 715/429 786/424 699/428
f 786/424 698/422 699/428
f 786/424 715/429 787/427
f 715/429 772/430 787/427
f 788/433 717/432 704/431
f 717/432 702/434 704/431
f 773/436 717/432 789/435
f 717/432 788/433 789/435
f 725/438 788/433 705/437
f 788/433 704/431 705/437
f 788/433 725/438 789/435
f 725/438 765/439 789/435
f 752/442 753/441 783/440
f 753/441 767/443 783/440
f 756/441 757/442 769/443
f 757/442 785/440 769/443
f 787/442 772/441 762/440
f 772/441 763/443 762/440
f 773/442 789/441 764/440
f 789/441 765/443 764/440
usemtl mat7
f 790/446 791/445 677/444
f 791/445 718/447 677/444
f 744/450 729/449 792/448
f 729/449 727/451 792/448
f 793/453 790/446 676/452
f 790/446 677/444 676/452
f 794/455 793/453 679/454
f 793/453 676/452 679/454
f 732/457 744/450 730/456
f 744/450 792/448 730/456
f 795/459 794/455 719/458
f 794/455 679/454 719/458
f 791/445 790/446 796/460
f 790/446 797/461 796/460
f 797/461 790/446 798/462
f 790/446 793/453 798/462
f 727/451 735/463 792/448
f 735/463 799/464 792/448
f 798/462 793/453 800/465
f 793/453 794/455 800/465
f 792/448 799/464 730/456
f 799/464 736/466 730/456
f 801/467 800/465 795/459
f 800/465 794/455 795/459
f 680/469 720/468 797/461
f 720/468 796/460 797/461
f 680/469 797/461 681/470
f 797/461 798/462 681/470
f 799/464 735/463 746/471
f 735/463 739/472 746/471
f 681/470 798/462 684/473
f 798/462 800/465 684/473
f 736/466 799/464 740/474
f 799/464 746/471 740/474
f 721/475 684/473 801/467
f 684/473 800/465 801/467
f 802/446 803/445 709/444
f 803/445 722/447 709/444
f 768/450 753/449 804/448
f 753/449 751/451 804/448
f 805/453 802/446 708/452
f 802/446 709/444 708/452
f 806/455 805/453 711/454
f 805/453 708/452 711/454
f 756/457 768/450 754/456
f 768/450 804/448 754/456
f 807/459 806/455 723/458
f 806/455 711/454 723/458
f 803/445 802/446 808/460
f 802/446 809/461 808/460
f 809/461 802/446 810/462
f 802/446 805/453 810/462
f 751/451 759/463 804/448
f 759/463 811/464 804/448
f 810/462 805/453 812/465
f 805/453 806/455 812/465
f 804/448 811/464 754/456
f 811/464 760/466 754/456
f 813/467 812/465 807/459
f 812/465 806/455 807/459
f 712/469 724/468 809/461
f 724/468 808/460 809/461
f 712/469 809/461 713/470
f 809/461 810/462 713/470
f 811/464 759/463 770/471
f 759/463 763/472 770/471
f 713/470 810/462 716/473
f 810/462 812/465 716/473
f 760/466 811/464 764/474
f 811/464 770/471 764/474
f 725/475 716/473 813/467
f 716/473 812/465 813/467
usemtl mat8
f 675/478 674/477 742/476
f 674/477 743/479 742/476
f 675/478 742/476 678/480
f 742/476 745/481 678/480
f 747/484 748/483 682/482
f 748/483 683/485 682/482
f 749/487 747/484 685/486
f 747/484 682/482 685/486
f 791/490 726/489 718/488
f 726/489 728/491 718/488
f 733/494 731/493 719/492
f 731/493 795/495 719/492
f 791/490 796/496 726/489
f 796/496 734/497 726/489
f 737/499 801/498 731/493
f 801/498 795/495 731/493
f 720/501 738/500 796/496
f 738/500 734/497 796/496
f 737/499 741/502 801/498
f 741/502 721/503 801/498
f 707/478 706/477 766/476
f 706/477 767/479 766/476
f 707/478 766/476 710/480
f 766/476 769/481 710/480
f 771/484 772/483 714/482
f 772/483 715/485 714/482
f 773/487 771/484 717/486
f 771/484 714/482 717/486
f 803/490 750/489 722/488
f 750/489 752/491 722/488
f 757/494 755/493 723/492
f 755/493 807/495 723/492
f 803/490 808/496 750/489
f 808/496 758/497 750/489
f 761/499 813/498 755/493
f 813/498 807/495 755/493
f 724/501 762/500 808/496
f 762/500 758/497 808/496
f 761/499 765/502 813/498
f 765/502 725/503 813/498
usemtl mat9
f 814/506 815/505 816/504
f 815/505 817/507 816/504
f 818/510 819/509 817/508
f 819/509 816/511 817/508
f 816/511 819/509 814/512
f 814/512 819/509 820/513
f 815/515 814/512 821/514
f 814/512 820/513 821/514
f 822/517 823/516 818/510
f 823/516 819/509 818/510
f 819/509 823/516 820/513
f 820/513 823/516 824/518
f 820/513 824/518 821/514
f 821/514 824/518 825/519
f 826/521 827/520 822/517
f 827/520 823/516 822/517
f 823/516 827/520 824/518
f 824/518 827/520 828/522
f 825/519 824/518 829/523
f 824/518 828/522 829/523
f 830/525 831/524 826/521
f 831/524 827/520 826/521
f 827/520 831/524 828/522
f 828/522 831/524 832/526
f 829/523 828/522 833/527
f 828/522 832/526 833/527
f 831/530 830/529 832/528
f 830/529 833/531 832/528
f 834/534 835/533 836/532
f 836/532 835/533 837/535
f 838/538 839/537 840/536
f 840/536 839/537 841/539
f 834/534 842/540 835/533
f 842/540 843/541 835/533
f 842/540 840/536 843/541
f 840/536 841/539 843/541
f 844/544 836/543 845/542
f 836/543 837/545 845/542
f 838/547 844/544 839/546
f 844/544 845/542 839/546
f 846/534 847/533 848/532
f 848/532 847/533 849/535
f 850/538 851/537 852/536
f 852/536 851/537 853/539
f 846/534 854/540 847/533
f 854/540 855/541 847/533
f 854/540 852/536 855/541
f 852/536 853/539 855/541
f 856/544 848/543 857/542
f 848/543 849/545 857/542
f 850/547 856/544 851/546
f 856/544 857/542 851/546
usemtl mat10
f 858/550 859/549 860/548
f 859/549 861/551 860/548
f 858/550 862/552 859/549
f 862/552 863/553 859/549
f 864/550 865/549 866/548
f 865/549 867/551 866/548
f 864/550 868/552 865/549
f 868/552 869/553 865/549
usemtl mat11
f 870/556 871/555 861/554
f 871/555 860/557 861/554
f 872/560 862/559 873/558
f 873/558 862/559 858/561
f 870/556 861/554 874/562
f 874/562 861/554 859/563
f 872/560 875/564 862/559
f 875/564 863/565 862/559
f 875/564 874/562 863/565
f 874/562 859/563 863/565
f 871/568 873/567 860/566
f 873/567 858/569 860/566
f 876/556 877/555 867/554
f 877/555 866/557 867/554
f 878/560 868/559 879/558
f 879/558 868/559 864/561
f 876/556 867/554 880/562
f 880/562 867/554 865/563
f 878/560 881/564 868/559
f 881/564 869/565 868/559
f 881/564 880/562 869/565
f 880/562 865/563 869/565
f 877/568 879/567 866/566
f 879/567 864/569 866/566
usemtl texture11
f 837/572 841/571 845/570
f 841/571 839/573 845/570
f 837/572 835/574 841/571
f 835/574 843/575 841/571
f 849/572 853/571 857/570
f 853/571 851/573 857/570
f 849/572 847/574 853/571
f 847/574 855/575 853/571
# 1326 elements

