# Created by Metasequoia

mtllib 2P_Bingo_highway1.mtl

v 8200.736328 -13948.109375 -21150.935547
v 8196.107422 -13955.281250 -21145.044922
v 8172.195313 -13955.921875 -21172.603516
v 8169.270996 -13963.722656 -21166.087891
v 8176.600098 -13982.394531 -21169.859375
v 8171.095703 -13974.687500 -21164.951172
v 8202.909180 -13974.111328 -21147.173828
v 8197.006836 -13966.050781 -21143.486328
v 8208.182617 -13948.738281 -21157.708984
v 8178.155273 -13955.857422 -21180.681641
v 8182.560547 -13982.330078 -21177.935547
v 8210.356445 -13974.740234 -21153.945313
v 8214.085938 -13956.798828 -21161.394531
v 8183.660156 -13963.564453 -21185.587891
v 8185.484863 -13974.529297 -21184.451172
v 8214.985352 -13967.568359 -21159.835938
v 8224.986328 -13940.310547 -21124.015625
v 8218.690430 -13946.431641 -21118.941406
v 8223.690430 -13965.470703 -21119.501953
v 8218.153320 -13956.853516 -21117.072266
v 8233.353516 -13942.074219 -21129.322266
v 8232.057617 -13967.234375 -21124.808594
v 8238.890625 -13950.691406 -21131.751953
v 8238.353516 -13961.113281 -21129.880859
v 8239.193359 -13956.666016 -21088.412109
v 8234.690430 -13947.445313 -21087.189453
v 8244.726563 -13932.925781 -21093.365234
v 8236.982422 -13937.611328 -21089.240234
v 8247.851563 -13959.873047 -21092.195313
v 8253.384766 -13936.132813 -21097.146484
v 8250.261719 -13947.828125 -21055.251953
v 8247.332031 -13938.166016 -21055.115234
v 8255.594727 -13955.187500 -21096.318359
v 8257.886719 -13945.355469 -21098.371094
v 8260.300781 -13926.341797 -21060.269531
v 8251.491211 -13929.265625 -21057.191406
v 8258.561523 -13952.593750 -21057.527344
v 8257.724609 -13938.986328 -21020.912109
v 8256.804688 -13929.248047 -21021.679688
v 8268.602539 -13931.105469 -21062.542969
v 8267.373047 -13949.667969 -21060.603516
v 8264.984375 -13945.255859 -21021.746094
v 8262.280273 -13929.927734 -20986.021484
v 8263.707031 -13920.634766 -20987.462891
v 8272.111328 -13920.871094 -21025.544922
v 8262.763672 -13921.744141 -21023.597656
v 8271.531250 -13940.767578 -21062.681641
v 8267.802734 -13937.500000 -20985.529297
v 8264.669922 -13919.744141 -20951.179688
v 8268.569336 -13911.355469 -20953.048828
v 8265.773438 -13811.292969 -20762.425781
v 8264.672852 -13803.388672 -20769.138672
v 8265.311523 -13782.800781 -20738.054688
v 8265.242188 -13775.156250 -20745.072266
v 8266.447266 -13838.910156 -20787.908203
v 8264.232422 -13830.792969 -20794.125000
v 8264.986328 -13753.816406 -20714.408203
v 8265.879883 -13746.441406 -20721.580078
v 8267.457031 -13865.066406 -20815.103516
v 8264.022461 -13856.867188 -20820.576172
v 8264.750977 -13724.601563 -20691.160156
v 8266.555664 -13717.490234 -20698.378906
v 8267.969727 -13928.304688 -20949.484375
v 8264.576172 -13695.294922 -20668.095703
v 8267.251953 -13688.433594 -20675.275391
v 8265.086914 -13900.753906 -20880.458984
v 8266.501953 -13891.556641 -20884.134766
v 8264.227539 -13880.644531 -20849.175781
v 8267.532227 -13871.894531 -20853.570313
v 8266.644531 -13916.445313 -20914.208984
v 8265.764648 -13907.308594 -20916.966797
v 8264.445313 -13665.992188 -20645.060547
v 8267.955078 -13659.359375 -20652.128906
v 8268.774414 -13848.851563 -20825.396484
v 8268.988281 -13888.632813 -20844.728516
v 8274.332031 -13944.380859 -21023.693359
v 8268.657227 -13630.343750 -20628.812500
v 8264.352539 -13636.781250 -20621.927734
v 8264.285156 -13607.757813 -20598.560547
v 8269.348633 -13601.476563 -20605.189453
v 8270.080078 -13823.589844 -20799.103516
v 8270.018555 -13572.850586 -20581.074219
v 8264.239258 -13579.031250 -20574.783203
v 8270.646484 -13544.638672 -20556.210938
v 8264.207031 -13550.799805 -20550.353516
v 8271.236328 -13907.990234 -20877.279297
v 8271.203125 -13517.252930 -20530.146484
v 8264.182617 -13523.514648 -20524.851563
v 8271.377930 -13796.984375 -20774.062500
v 8271.995117 -13900.144531 -20919.027344
v 8271.648438 -13492.083008 -20501.572266
v 8264.165039 -13498.588867 -20496.978516
v 8271.949219 -13471.521484 -20469.289063
v 8264.152344 -13478.366211 -20465.468750
v 8272.119141 -13456.879883 -20433.878906
v 8264.144531 -13464.073242 -20430.794922
v 8272.202148 -13447.350586 -20397.003906
v 8264.140625 -13454.838867 -20394.554688
v 8272.238281 -13441.323242 -20359.562500
v 8264.139648 -13449.041016 -20357.642578
v 8272.251953 -13437.584961 -20321.917969
v 8264.138672 -13445.471680 -20320.441406
v 8272.255859 -13435.274414 -20283.207031
v 8264.138672 -13443.333008 -20282.609375
v 8272.256836 -13433.399414 -20245.000000
v 8264.138672 -13441.518555 -20245.000000
v 8264.138672 -13452.998047 -20245.000000
v 8272.256836 -13461.116211 -20245.000000
v 8264.139648 -13454.727539 -20281.765625
v 8272.256836 -13462.786133 -20281.169922
v 8264.143555 -13456.621094 -20318.355469
v 8272.263672 -13464.502930 -20316.882813
v 8264.157227 -13459.942383 -20354.941406
v 8272.284180 -13467.641602 -20353.041016
v 8264.197266 -13465.390625 -20391.130859
v 8272.335938 -13472.824219 -20388.738281
v 8264.284180 -13474.148438 -20426.535156
v 8272.457031 -13481.204102 -20423.595703
v 8264.463867 -13487.829102 -20460.292969
v 8272.703125 -13494.367188 -20456.791016
v 8272.643555 -13769.498047 -20749.783203
v 8264.784180 -13507.357422 -20490.927734
v 8273.143555 -13513.252930 -20486.962891
v 8265.255859 -13531.624023 -20518.134766
v 8273.790039 -13536.831055 -20513.927734
v 8274.120117 -13922.201172 -20912.369141
v 8273.870117 -13741.468750 -20725.966797
v 8274.649414 -13885.785156 -20886.152344
v 8265.846680 -13558.371094 -20543.244141
v 8274.602539 -13562.917969 -20539.050781
v 8279.371094 -13927.138672 -21026.378906
v 8275.061523 -13713.160156 -20702.369141
v 8266.519531 -13586.183594 -20567.517578
v 8275.523438 -13590.115234 -20563.533203
v 8277.041016 -13938.914063 -20986.271484
v 8276.221680 -13684.710938 -20678.828125
v 8276.535156 -13932.023438 -20948.960938
v 8276.967773 -13867.509766 -20855.333984
v 8276.514648 -13617.906250 -20587.660156
v 8267.252930 -13614.564453 -20591.298828
v 8280.487305 -13916.480469 -20989.748047
v 8271.249023 -13915.064453 -20989.005859
v 8277.346680 -13656.212891 -20655.212891
v 8268.039063 -13643.287109 -20614.791016
v 8277.559570 -13646.052734 -20611.583984
v 8278.926758 -13845.710938 -20826.742188
v 8278.433594 -13627.746094 -20631.412109
v 8268.874023 -13672.228516 -20638.148438
v 8278.646484 -13674.414063 -20635.441406
v 8279.478516 -13599.400391 -20607.302734
v 8279.771484 -13702.871094 -20659.332031
v 8269.761719 -13701.275391 -20661.492188
v 8280.564453 -13821.521484 -20799.927734
v 8280.469727 -13571.260742 -20582.708984
v 8280.291016 -13936.876953 -21025.611328
v 8280.930664 -13731.314453 -20683.369141
v 8270.705078 -13730.326172 -20684.943359
v 8281.390625 -13543.498047 -20557.388672
v 8281.959961 -13795.832031 -20774.314453
v 8282.202148 -13516.506836 -20530.916016
v 8271.715820 -13759.271484 -20708.654297
v 8282.122070 -13759.613281 -20707.685547
v 8282.849609 -13491.652344 -20502.015625
v 8283.180664 -13769.136719 -20749.431641
v 8283.289063 -13471.304688 -20469.513672
v 8283.349609 -13787.591797 -20732.492188
v 8272.811523 -13787.951172 -20732.845703
v 8283.536133 -13456.782227 -20433.978516
v 8283.656250 -13447.312500 -20397.042969
v 8283.708984 -13441.310547 -20359.576172
v 8283.729492 -13437.582031 -20321.921875
v 8283.735352 -13435.274414 -20283.207031
v 8283.736328 -13433.399414 -20245.000000
v 8283.736328 -13461.116211 -20245.000000
v 8283.737305 -13462.785156 -20281.169922
v 8283.741211 -13464.500000 -20316.886719
v 8283.754883 -13467.627930 -20353.054688
v 8283.791016 -13472.785156 -20388.777344
v 8283.874023 -13481.106445 -20423.695313
v 8284.042969 -13494.149414 -20457.013672
v 8284.277344 -13741.810547 -20724.998047
v 8284.344727 -13512.822266 -20487.408203
v 8284.615234 -13814.914063 -20758.107422
v 8274.032227 -13816.066406 -20757.855469
v 8285.945313 -13911.769531 -20953.476563
v 8277.381836 -13908.050781 -20954.001953
v 8284.789063 -13536.084961 -20514.697266
v 8286.010742 -13924.052734 -20989.253906
v 8285.288086 -13714.146484 -20700.794922
v 8285.346680 -13561.776367 -20540.226563
v 8275.427734 -13843.187500 -20784.097656
v 8285.913086 -13841.119141 -20784.921875
v 8285.974609 -13588.525391 -20565.167969
v 8286.230469 -13686.306641 -20676.667969
v 8286.643555 -13615.828125 -20589.773438
v 8277.065430 -13868.644531 -20812.183594
v 8287.218750 -13865.505859 -20813.529297
v 8287.118164 -13658.398438 -20652.505859
v 8287.334961 -13643.455078 -20614.185547
v 8284.583008 -13933.343750 -20987.814453
v 8287.954102 -13630.511719 -20628.207031
v 8288.038086 -13671.269531 -20638.525391
v 8279.025391 -13891.181641 -20842.832031
v 8288.460938 -13886.794922 -20844.597656
v 8289.163086 -13904.906250 -20917.343750
v 8281.687500 -13899.150391 -20919.183594
v 8288.740234 -13602.742188 -20603.664063
v 8288.741211 -13699.148438 -20662.884766
v 8289.473633 -13575.192383 -20578.726563
v 8281.343750 -13909.027344 -20876.458984
v 8289.491211 -13903.255859 -20878.476563
v 8289.437500 -13726.982422 -20687.359375
v 8290.146484 -13548.044922 -20553.193359
v 8289.244141 -13920.330078 -20951.783203
v 8290.113281 -13754.640625 -20712.072266
v 8290.737305 -13521.712891 -20526.710938
v 8283.812500 -13921.205078 -20912.525391
v 8290.043945 -13914.041016 -20914.585938
v 8285.346680 -13928.720703 -20949.912109
v 8290.750977 -13781.931641 -20737.205078
v 8290.905273 -13894.058594 -20882.152344
v 8284.756836 -13886.822266 -20885.332031
v 8291.208984 -13497.547852 -20498.050781
v 8291.529297 -13477.841797 -20466.011719
v 8291.320313 -13808.509766 -20763.031250
v 8291.708984 -13463.837891 -20431.039063
v 8291.795898 -13454.745117 -20394.652344
v 8291.834961 -13449.008789 -20357.675781
v 8291.849609 -13445.463867 -20320.449219
v 8291.853516 -13443.332031 -20282.611328
v 8291.854492 -13441.518555 -20245.000000
v 8291.854492 -13452.998047 -20245.000000
v 8291.854492 -13454.727539 -20281.767578
v 8291.854492 -13456.613281 -20318.363281
v 8291.853516 -13459.910156 -20354.974609
v 8291.851563 -13465.296875 -20391.228516
v 8291.848633 -13473.913086 -20426.779297
v 8291.840820 -13487.304688 -20460.833984
v 8291.828125 -13506.316406 -20492.000000
v 8291.809570 -13529.822266 -20519.992188
v 8291.760742 -13833.916016 -20789.900391
v 8291.785156 -13555.616211 -20546.083984
v 8291.765625 -13878.046875 -20848.990234
v 8287.004883 -13870.056641 -20853.437500
v 8291.753906 -13582.343750 -20571.460938
v 8291.708008 -13609.546875 -20596.402344
v 8291.970703 -13857.488281 -20818.349609
v 8291.640625 -13637.017578 -20621.070313
v 8291.546875 -13664.634766 -20645.593750
v 8288.535156 -13849.289063 -20823.822266
v 8291.416992 -13692.287109 -20670.064453
v 8291.242188 -13719.873047 -20694.578125
v 8291.005859 -13747.267578 -20719.244141
v 8289.545898 -13825.798828 -20796.117188
v 8290.681641 -13774.289063 -20744.220703
v 8290.219727 -13800.605469 -20769.744141
v 8265.156250 -13453.887695 -20055.000000
v 8272.259766 -13460.119141 -20055.000000
v 8265.156250 -13454.012695 -20245.000000
v 8272.259766 -13461.115234 -20245.000000
v 8283.740234 -13461.115234 -20245.000000
v 8283.740234 -13460.119141 -20055.000000
v 8290.843750 -13454.012695 -20245.000000
v 8290.843750 -13453.887695 -20055.000000
v 8195.997070 -14052.997070 -20047.000000
v 8195.997070 -13219.997070 -20047.000000
v 8161.998535 -14035.998047 -20047.000000
v 8161.998535 -13202.998047 -20047.000000
v 8393.998047 -13202.998047 -20047.000000
v 8359.997070 -13219.997070 -20047.000000
v 8393.998047 -14035.997070 -20047.000000
v 8359.997070 -14052.997070 -20047.000000
v 8168.000488 -14057.999023 -19845.000000
v 8168.000488 -14057.999023 -19765.000000
v 8168.000488 -14082.999023 -19845.000000
v 8168.000488 -14082.999023 -19765.000000
v 8267.998047 -14057.995117 -19845.000000
v 8267.998047 -14082.995117 -19845.000000
v 8267.998047 -14057.995117 -19765.000000
v 8267.998047 -14082.995117 -19765.000000
v 8287.998047 -14057.995117 -19845.000000
v 8287.998047 -14057.995117 -19765.000000
v 8287.998047 -14082.995117 -19845.000000
v 8287.998047 -14082.995117 -19765.000000
v 8387.998047 -14057.995117 -19845.000000
v 8387.998047 -14082.995117 -19845.000000
v 8387.998047 -14057.995117 -19765.000000
v 8387.998047 -14082.995117 -19765.000000
v 8208.493164 -13266.532227 -20245.003906
v 8208.494141 -13410.467773 -20245.003906
v 8246.934570 -13304.946289 -20245.003906
v 8246.934570 -13372.053711 -20245.003906
v 8347.505859 -13266.532227 -20245.003906
v 8309.065430 -13304.946289 -20245.003906
v 8347.506836 -13410.467773 -20245.003906
v 8309.065430 -13372.053711 -20245.003906
v 8249.236328 -13160.630859 -20245.001953
v 8208.559570 -13201.278320 -20245.000000
v 8264.583008 -13197.807617 -20245.000000
v 8245.612305 -13216.769531 -20245.000000
v 8208.559570 -13258.721680 -20245.001953
v 8249.237305 -13299.369141 -20245.001953
v 8245.616211 -13243.230469 -20245.000000
v 8264.587891 -13262.192383 -20245.000000
v 8347.440430 -13201.278320 -20245.001953
v 8306.762695 -13160.630859 -20245.001953
v 8310.383789 -13216.769531 -20245.000000
v 8291.412109 -13197.807617 -20245.000000
v 8306.763672 -13299.369141 -20245.001953
v 8347.440430 -13258.721680 -20245.000000
v 8291.416992 -13262.192383 -20245.000000
v 8310.387695 -13243.230469 -20245.000000
v 8249.236328 -13377.630859 -20245.001953
v 8208.559570 -13418.278320 -20245.000000
v 8264.583008 -13414.807617 -20245.000000
v 8245.612305 -13433.769531 -20245.000000
v 8347.440430 -13418.278320 -20245.001953
v 8306.762695 -13377.630859 -20245.001953
v 8310.383789 -13433.769531 -20245.000000
v 8291.412109 -13414.807617 -20245.000000
v 7957.279297 -14249.416016 -20289.771484
v 7982.855957 -14249.416016 -20385.226563
v 8007.279297 -15299.415039 -20289.771484
v 8026.157227 -15299.415039 -20360.226563
v 8057.506348 -14249.416016 -20106.628906
v 7987.628906 -14249.416016 -20176.505859
v 8082.506348 -15299.415039 -20149.929688
v 8030.930176 -15299.415039 -20201.505859
v 8568.372070 -14249.416016 -20176.505859
v 8498.494141 -14249.416016 -20106.628906
v 8525.070313 -15299.416016 -20201.505859
v 8473.494141 -15299.416016 -20149.929688
v 8573.144531 -14249.416016 -20385.226563
v 8598.720703 -14249.416016 -20289.771484
v 8529.842773 -15299.416016 -20360.226563
v 8548.720703 -15299.416016 -20289.771484
v 7819.827148 -14252.999023 -20351.818359
v 7819.827148 -13203.000000 -20351.818359
v 7856.366211 -14252.999023 -20488.181641
v 7856.365723 -13203.000000 -20488.181641
v 7963.009277 -14252.999023 -20090.183594
v 7963.009277 -13203.000000 -20090.183594
v 7863.184082 -14252.999023 -20190.007813
v 7863.184082 -13203.000000 -20190.007813
v 8592.991211 -14253.000000 -20090.183594
v 8692.816406 -14253.000000 -20190.007813
v 8592.991211 -13203.000000 -20090.183594
v 8692.816406 -13203.000000 -20190.007813
v 8736.172852 -14253.000000 -20351.818359
v 8699.634766 -14253.000000 -20488.181641
v 8736.172852 -13203.000000 -20351.818359
v 8699.634766 -13203.000000 -20488.181641
v 8127.999023 -14052.998047 -20047.000000
v 8127.999023 -13219.998047 -20047.000000
v 8427.998047 -14052.998047 -20047.000000
v 8427.998047 -13219.998047 -20047.000000
v 8168.000488 -14057.999023 -19745.000000
v 8168.000488 -14057.999023 -19665.000000
v 8168.000488 -14082.999023 -19745.000000
v 8168.000488 -14082.999023 -19665.000000
v 8267.998047 -14057.995117 -19745.000000
v 8267.998047 -14082.995117 -19745.000000
v 8267.998047 -14057.995117 -19665.000000
v 8267.998047 -14082.995117 -19665.000000
v 8287.998047 -14057.995117 -19745.000000
v 8287.998047 -14057.995117 -19665.000000
v 8287.998047 -14082.995117 -19745.000000
v 8287.998047 -14082.995117 -19665.000000
v 8387.998047 -14057.995117 -19745.000000
v 8387.998047 -14082.995117 -19745.000000
v 8387.998047 -14057.995117 -19665.000000
v 8387.998047 -14082.995117 -19665.000000
v 8252.583008 -13304.946289 -20245.003906
v 8252.583008 -13355.277344 -20245.003906
v 8278.000000 -13321.723633 -20245.003906
v 8278.000000 -13372.053711 -20245.003906
v 8303.416992 -13304.946289 -20245.003906
v 8303.416992 -13355.277344 -20245.003906
v 7982.855957 -14249.416016 -20184.771484
v 7957.279297 -14249.416016 -20280.226563
v 8026.157227 -15299.415039 -20209.771484
v 8007.279297 -15299.415039 -20280.226563
v 8598.720703 -14249.416016 -20280.226563
v 8573.144531 -14249.416016 -20184.771484
v 8548.720703 -15299.416016 -20280.226563
v 8529.842773 -15299.416016 -20209.771484
v 7856.365723 -14252.999023 -20201.818359
v 7856.365723 -13203.000000 -20201.818359
v 7819.827148 -14252.999023 -20338.181641
v 7819.827148 -13203.000000 -20338.181641
v 8699.634766 -14253.000000 -20201.818359
v 8736.172852 -14253.000000 -20338.181641
v 8699.634766 -13203.000000 -20201.818359
v 8736.172852 -13203.000000 -20338.181641
v 8278.000000 -13453.887695 -20055.000000
v 8277.999023 -13952.999023 -20045.000000
v 8292.999023 -13932.999023 -20045.000000
v 8262.999023 -13932.999023 -20045.000000
v 8202.997070 -13952.997070 -20045.000000
v 8222.997070 -13932.997070 -20045.000000
v 8202.997070 -13932.997070 -20045.000000
v 8222.997070 -13707.997070 -20045.000000
v 8202.997070 -13687.997070 -20045.000000
v 8202.997070 -13707.997070 -20045.000000
v 8202.997070 -13607.997070 -20045.000000
v 8222.997070 -13587.997070 -20045.000000
v 8202.997070 -13587.997070 -20045.000000
v 8222.997070 -13572.997070 -20045.000000
v 8202.997070 -13552.997070 -20045.000000
v 8202.997070 -13572.997070 -20045.000000
v 8222.997070 -13452.997070 -20045.000000
v 8202.997070 -13452.997070 -20045.000000
v 8202.997070 -13472.997070 -20045.000000
v 8352.997070 -13952.997070 -20045.000000
v 8352.997070 -13932.997070 -20045.000000
v 8332.997070 -13932.997070 -20045.000000
v 8352.997070 -13707.997070 -20045.000000
v 8352.997070 -13687.997070 -20045.000000
v 8332.997070 -13707.997070 -20045.000000
v 8352.997070 -13607.997070 -20045.000000
v 8352.997070 -13587.997070 -20045.000000
v 8332.997070 -13587.997070 -20045.000000
v 8352.997070 -13572.997070 -20045.000000
v 8352.997070 -13552.997070 -20045.000000
v 8332.997070 -13572.997070 -20045.000000
v 8352.997070 -13472.997070 -20045.000000
v 8352.997070 -13452.997070 -20045.000000
v 8332.997070 -13452.997070 -20045.000000
v 8278.000000 -13230.000000 -20245.000000
v 8245.612305 -13452.997070 -20245.000000
v 8264.138672 -13441.514648 -20245.000000
v 8264.138672 -13452.995117 -20245.000000
v 8272.256836 -13433.396484 -20245.000000
v 8283.737305 -13433.396484 -20245.000000
v 8291.855469 -13441.514648 -20245.000000
v 8310.383789 -13452.997070 -20245.000000
v 8291.855469 -13452.995117 -20245.000000
v 8264.141602 -13452.997070 -20055.000000
v 8291.858398 -13452.997070 -20055.000000
v 8264.141602 -13452.997070 -20245.000000
v 8291.858398 -13452.997070 -20245.000000
v 8202.999023 -13782.999023 -20045.000000
v 8212.999023 -13792.997070 -20045.000000
v 8212.999023 -13782.999023 -20045.000000
v 8212.999023 -13772.999023 -20045.000000
v 8226.999023 -13597.999023 -20045.000000
v 8252.999023 -13597.999023 -20045.000000
v 8222.999023 -13587.999023 -20045.000000
v 8277.999023 -13772.999023 -20045.000000
v 8242.999023 -14002.999023 -20045.000000
v 8252.999023 -13992.999023 -20045.000000
v 8242.999023 -13982.998047 -20045.000000
v 8242.999023 -13657.999023 -20045.000000
v 8252.999023 -13647.999023 -20045.000000
v 8242.999023 -13637.998047 -20045.000000
v 8262.999023 -13587.999023 -20045.000000
v 8242.999023 -13502.998047 -20045.000000
v 8242.999023 -13522.998047 -20045.000000
v 8252.999023 -13512.999023 -20045.000000
v 8252.999023 -13637.999023 -20045.000000
v 8262.999023 -14002.998047 -20045.000000
v 8262.999023 -13982.999023 -20045.000000
v 8262.999023 -13647.998047 -20045.000000
v 8272.999023 -13597.998047 -20045.000000
v 8332.999023 -13587.999023 -20045.000000
v 8292.999023 -14002.998047 -20045.000000
v 8302.999023 -13992.999023 -20045.000000
v 8292.999023 -13982.999023 -20045.000000
v 8312.999023 -14002.999023 -20045.000000
v 8312.999023 -13982.998047 -20045.000000
v 8302.999023 -13637.998047 -20045.000000
v 8302.999023 -13647.999023 -20045.000000
v 8307.999023 -13642.999023 -20045.000000
v 8312.999023 -13657.999023 -20045.000000
v 8312.999023 -13637.998047 -20045.000000
v 8312.999023 -13522.998047 -20045.000000
v 8312.999023 -13502.998047 -20045.000000
v 8302.999023 -13512.999023 -20045.000000
v 8328.999023 -13597.999023 -20045.000000
v 8342.999023 -13792.999023 -20045.000000
v 8342.999023 -13782.999023 -20045.000000
v 8277.999023 -13792.999023 -20045.000000
v 8342.999023 -13772.997070 -20045.000000
v 8352.999023 -13782.999023 -20045.000000
v 8202.999023 -14052.999023 -20045.000000
v 8212.999023 -14042.998047 -20045.000000
v 8202.999023 -13952.999023 -20045.000000
v 8212.999023 -13956.999023 -20045.000000
v 8202.999023 -13917.999023 -20045.000000
v 8212.999023 -13907.999023 -20045.000000
v 8202.999023 -13857.999023 -20045.000000
v 8212.999023 -13867.999023 -20045.000000
v 8202.999023 -13842.999023 -20045.000000
v 8212.999023 -13832.999023 -20045.000000
v 8202.999023 -13722.999023 -20045.000000
v 8212.999023 -13732.999023 -20045.000000
v 8202.999023 -13687.999023 -20045.000000
v 8212.999023 -13683.999023 -20045.000000
v 8202.999023 -13607.999023 -20045.000000
v 8212.999023 -13611.999023 -20045.000000
v 8202.999023 -13552.999023 -20045.000000
v 8212.999023 -13548.999023 -20045.000000
v 8202.999023 -13472.999023 -20045.000000
v 8212.999023 -13476.999023 -20045.000000
v 8222.999023 -13932.999023 -20045.000000
v 8226.999023 -13942.999023 -20045.000000
v 8222.999023 -13707.999023 -20045.000000
v 8226.999023 -13697.999023 -20045.000000
v 8222.999023 -13572.999023 -20045.000000
v 8226.999023 -13562.999023 -20045.000000
v 8222.999023 -13452.999023 -20045.000000
v 8226.999023 -13462.999023 -20045.000000
v 8258.999023 -13942.999023 -20045.000000
v 8272.999023 -13647.999023 -20045.000000
v 8277.999023 -13966.998047 -20045.000000
v 8352.999023 -14052.999023 -20045.000000
v 8342.999023 -14042.998047 -20045.000000
v 8352.999023 -13917.999023 -20045.000000
v 8342.999023 -13907.999023 -20045.000000
v 8352.999023 -13857.999023 -20045.000000
v 8342.999023 -13867.999023 -20045.000000
v 8352.999023 -13842.999023 -20045.000000
v 8342.999023 -13832.999023 -20045.000000
v 8352.999023 -13722.999023 -20045.000000
v 8342.999023 -13732.999023 -20045.000000
v 8332.999023 -13707.999023 -20045.000000
v 8328.999023 -13697.999023 -20045.000000
v 8332.999023 -13572.999023 -20045.000000
v 8328.999023 -13562.999023 -20045.000000
v 8332.999023 -13452.999023 -20045.000000
v 8328.999023 -13462.999023 -20045.000000
v 8296.999023 -13942.999023 -20045.000000
v 8332.999023 -13932.999023 -20045.000000
v 8328.999023 -13942.999023 -20045.000000
v 8352.999023 -13952.999023 -20045.000000
v 8342.999023 -13956.999023 -20045.000000
v 8352.999023 -13687.999023 -20045.000000
v 8342.999023 -13683.999023 -20045.000000
v 8352.999023 -13607.999023 -20045.000000
v 8342.999023 -13611.999023 -20045.000000
v 8352.999023 -13552.999023 -20045.000000
v 8342.999023 -13548.999023 -20045.000000
v 8352.999023 -13472.999023 -20045.000000
v 8342.999023 -13476.999023 -20045.000000
v 8242.999023 -13637.997070 -20045.000000
v 8242.999023 -13522.997070 -20045.000000
v 8242.999023 -13502.997070 -20045.000000
v 8277.999023 -13792.998047 -20045.000000
v 8212.999023 -13792.998047 -20045.000000
v 8277.999023 -13772.998047 -20045.000000
v 8262.999023 -14002.997070 -20045.000000
v 8277.999023 -13966.997070 -20045.000000
v 8302.999023 -13637.997070 -20045.000000
v 8342.999023 -13772.998047 -20045.000000
v 8342.999023 -14042.997070 -20045.000000
v 8292.999023 -14002.997070 -20045.000000
v 8312.999023 -13982.997070 -20045.000000
v 8312.999023 -13637.997070 -20045.000000
v 8312.999023 -13522.997070 -20045.000000
v 8312.999023 -13502.997070 -20045.000000
v 8202.997070 -13917.997070 -20045.000000
v 8202.997070 -13722.997070 -20045.000000
v 8352.997070 -13917.997070 -20045.000000
v 8352.997070 -13722.997070 -20045.000000
v 8277.997070 -13857.997070 -20045.000000
v 8277.997070 -13842.997070 -20045.000000
v 8202.997070 -13857.997070 -20045.000000
v 8202.997070 -13842.997070 -20045.000000
v 8277.997070 -13917.997070 -20045.000000
v 8277.997070 -13932.997070 -20045.000000
v 8277.997070 -13722.997070 -20045.000000
v 8277.997070 -13707.997070 -20045.000000
v 8277.997070 -13587.997070 -20045.000000
v 8277.997070 -13572.997070 -20045.000000
v 8352.997070 -13857.997070 -20045.000000
v 8352.997070 -13842.997070 -20045.000000
v 8127.999512 -14052.999023 -20045.000000
v 8127.999512 -13627.999023 -20045.000000
v 8117.999512 -14052.999023 -20045.000000
v 8117.999512 -13627.999023 -20045.000000
v 8127.999512 -13202.999023 -20045.000000
v 8117.999512 -13202.999023 -20045.000000
v 8127.999512 -13627.999023 -20047.000000
v 8127.999512 -14052.999023 -20047.000000
v 8127.999512 -13202.999023 -20047.000000
v 8195.998047 -14052.997070 -20045.000000
v 8195.998047 -14052.998047 -20047.000000
v 8195.998047 -13627.998047 -20045.000000
v 8195.998047 -13627.998047 -20047.000000
v 8195.998047 -13202.998047 -20045.000000
v 8195.998047 -13202.998047 -20047.000000
v 8202.998047 -14052.998047 -20045.000000
v 8202.998047 -13627.998047 -20045.000000
v 8202.998047 -13202.998047 -20045.000000
v 8359.998047 -14052.997070 -20045.000000
v 8359.998047 -13627.998047 -20045.000000
v 8352.998047 -14052.998047 -20045.000000
v 8352.998047 -13627.998047 -20045.000000
v 8359.998047 -13202.998047 -20045.000000
v 8352.998047 -13202.998047 -20045.000000
v 8359.998047 -13627.998047 -20047.000000
v 8359.998047 -14052.998047 -20047.000000
v 8359.998047 -13202.998047 -20047.000000
v 8427.999023 -14052.999023 -20045.000000
v 8427.999023 -14052.999023 -20047.000000
v 8427.999023 -13627.999023 -20045.000000
v 8427.999023 -13627.999023 -20047.000000
v 8427.999023 -13202.999023 -20045.000000
v 8427.999023 -13202.999023 -20047.000000
v 8437.999023 -14052.999023 -20045.000000
v 8437.999023 -13627.999023 -20045.000000
v 8437.999023 -13202.999023 -20045.000000
v 8168.000488 -14053.000000 -19945.000000
v 8168.000488 -14053.000000 -19865.000000
v 8168.000488 -14057.999023 -19945.000000
v 8168.000488 -14057.999023 -19865.000000
v 8168.000488 -14053.000000 -19845.000000
v 8168.000488 -14053.000000 -19765.000000
v 8168.000488 -14053.000000 -19745.000000
v 8168.000488 -14053.000000 -19665.000000
v 8267.998047 -14052.996094 -19945.000000
v 8267.998047 -14057.995117 -19945.000000
v 8267.998047 -14052.996094 -19865.000000
v 8267.998047 -14057.995117 -19865.000000
v 8267.998047 -14052.996094 -19845.000000
v 8267.998047 -14052.996094 -19765.000000
v 8267.998047 -14052.996094 -19745.000000
v 8267.998047 -14052.995117 -19665.000000
v 8287.998047 -14052.995117 -19945.000000
v 8287.998047 -14052.995117 -19865.000000
v 8287.998047 -14057.995117 -19945.000000
v 8287.998047 -14057.995117 -19865.000000
v 8287.998047 -14052.995117 -19845.000000
v 8287.998047 -14052.995117 -19765.000000
v 8287.998047 -14052.995117 -19745.000000
v 8287.998047 -14052.995117 -19665.000000
v 8387.998047 -14052.995117 -19945.000000
v 8387.998047 -14057.995117 -19945.000000
v 8387.998047 -14052.995117 -19865.000000
v 8387.998047 -14057.995117 -19865.000000
v 8387.998047 -14052.995117 -19845.000000
v 8387.998047 -14052.995117 -19765.000000
v 8387.998047 -14052.995117 -19745.000000
v 8387.998047 -14052.995117 -19665.000000
v 8252.583008 -13372.053711 -20245.003906
v 8303.416992 -13372.053711 -20245.003906
v 8203.001953 -13261.044922 -20245.003906
v 8203.001953 -13415.955078 -20245.003906
v 8352.998047 -13261.044922 -20245.003906
v 8352.998047 -13415.955078 -20245.003906
v 8203.001953 -13198.955078 -20243.000000
v 8203.001953 -13261.043945 -20243.000000
v 8208.559570 -13201.278320 -20243.000000
v 8208.559570 -13258.721680 -20243.001953
v 8203.001953 -13261.044922 -20245.000000
v 8246.934570 -13304.946289 -20245.000000
v 8246.934570 -13304.946289 -20243.000000
v 8249.237305 -13299.369141 -20243.001953
v 8246.934570 -13155.053711 -20243.000000
v 8249.236328 -13160.630859 -20243.001953
v 8309.065430 -13304.946289 -20245.000000
v 8309.065430 -13304.946289 -20243.000000
v 8306.763672 -13299.369141 -20243.001953
v 8306.762695 -13160.630859 -20243.001953
v 8309.065430 -13155.053711 -20243.000000
v 8347.440430 -13201.278320 -20243.001953
v 8347.440430 -13258.721680 -20243.000000
v 8352.998047 -13261.043945 -20243.000000
v 8352.998047 -13198.955078 -20243.000000
v 8352.998047 -13261.044922 -20245.000000
v 8208.559570 -13452.997070 -20243.000000
v 8208.559570 -13452.997070 -20245.000000
v 8264.138672 -13452.995117 -20243.000000
v 8291.855469 -13452.995117 -20243.000000
v 8347.440430 -13452.997070 -20243.001953
v 8347.440430 -13452.997070 -20245.001953
v 8203.001953 -13415.956055 -20243.000000
v 8203.001953 -13452.997070 -20243.000000
v 8208.559570 -13418.278320 -20243.000000
v 8246.934570 -13372.053711 -20245.000000
v 8203.001953 -13415.955078 -20245.000000
v 8246.934570 -13372.053711 -20243.000000
v 8249.236328 -13377.630859 -20243.001953
v 8306.762695 -13377.630859 -20243.001953
v 8309.065430 -13372.053711 -20243.000000
v 8309.065430 -13372.053711 -20245.000000
v 8347.440430 -13418.278320 -20243.001953
v 8352.998047 -13415.956055 -20243.000000
v 8352.998047 -13415.955078 -20245.000000
v 8352.998047 -13452.997070 -20243.000000
v 8203.000000 -13453.000000 -20055.009766
v 8203.000000 -13411.333008 -20045.009766
v 8203.000000 -13453.000000 -20045.009766
v 8203.000000 -13411.333984 -20055.009766
v 8352.997070 -13411.331055 -20045.003906
v 8352.997070 -13452.997070 -20055.003906
v 8352.997070 -13452.997070 -20045.003906
v 8352.997070 -13411.331055 -20055.003906
v 8203.000000 -13453.000000 -20235.009766
v 8201.000000 -13453.000000 -20055.009766
v 8201.000000 -13453.000000 -20235.009766
v 8201.000000 -13411.333984 -20055.009766
v 8203.000000 -13411.333984 -20235.009766
v 8201.000000 -13411.333984 -20235.009766
v 8203.000000 -13203.000000 -20235.009766
v 8201.000000 -13203.000000 -20235.009766
v 8203.000000 -13203.000000 -20055.009766
v 8201.000000 -13203.000000 -20055.009766
v 8203.000000 -13411.333984 -20245.009766
v 8203.000000 -13453.000000 -20245.009766
v 8203.000000 -13203.000000 -20245.009766
v 8203.000000 -13203.000000 -20045.009766
v 8352.997070 -13202.997070 -20045.003906
v 8352.997070 -13202.997070 -20055.003906
v 8353.000000 -13411.333984 -20235.009766
v 8353.000000 -13411.333984 -20245.009766
v 8353.000000 -13453.000000 -20235.009766
v 8353.000000 -13453.000000 -20245.009766
v 8353.000000 -13203.000000 -20235.009766
v 8353.000000 -13203.000000 -20245.009766
v 8354.997070 -13452.997070 -20055.003906
v 8354.997070 -13411.331055 -20055.003906
v 8354.997070 -13202.997070 -20055.003906
v 8355.000000 -13453.000000 -20235.009766
v 8355.000000 -13411.333984 -20235.009766
v 8355.000000 -13203.000000 -20235.009766
v 8128.001465 -14053.000000 -19365.000000
v 8118.001465 -14053.000000 -19365.000000
v 8118.001465 -14062.998047 -19365.000000
v 8428.000000 -14052.998047 -19365.000000
v 8438.000000 -14062.997070 -19365.000000
v 8438.000000 -14052.998047 -19365.000000
v 8118.001465 -14252.999023 -20045.000000
v 8118.001465 -14252.999023 -19365.000000
v 8118.001465 -14242.999023 -20045.000000
v 8118.001465 -14242.999023 -19365.000000
v 8118.001465 -14202.999023 -20045.000000
v 8118.001465 -14202.999023 -19365.000000
v 8118.001465 -14192.999023 -20045.000000
v 8118.001465 -14192.999023 -19365.000000
v 8118.001465 -14062.999023 -20045.000000
v 8118.001465 -14053.000000 -20045.000000
v 8118.001465 -14043.000000 -20045.000000
v 8118.001465 -14043.000000 -19365.000000
v 8120.001465 -14242.999023 -19367.000000
v 8120.001465 -14242.999023 -20045.000000
v 8120.001465 -14202.999023 -20045.000000
v 8120.001465 -14202.999023 -19367.000000
v 8120.001465 -14192.999023 -19367.000000
v 8120.001465 -14192.999023 -20045.000000
v 8120.001465 -14062.999023 -20045.000000
v 8120.001465 -14062.999023 -19367.000000
v 8126.001465 -14043.000000 -19365.000000
v 8126.001465 -14043.000000 -20045.000000
v 8128.000977 -14052.999023 -20045.000000
v 8438.000000 -14242.997070 -19365.000000
v 8438.000000 -14252.997070 -19365.000000
v 8436.000000 -14242.997070 -19367.000000
v 8438.000000 -14202.997070 -19365.000000
v 8436.000000 -14202.997070 -19367.000000
v 8438.000000 -14192.997070 -19365.000000
v 8436.000000 -14192.997070 -19367.000000
v 8436.000000 -14062.997070 -19367.000000
v 8428.000000 -14052.998047 -20045.000000
v 8430.000000 -14042.998047 -20045.000000
v 8430.000000 -14042.997070 -19365.000000
v 8438.000000 -14042.997070 -19365.000000
v 8438.000000 -14042.998047 -20045.000000
v 8438.000000 -14242.997070 -20045.000000
v 8436.000000 -14242.997070 -20045.000000
v 8436.000000 -14202.997070 -20045.000000
v 8438.000000 -14202.997070 -20045.000000
v 8438.000000 -14192.997070 -20045.000000
v 8436.000000 -14192.997070 -20045.000000
v 8436.000000 -14062.997070 -20045.000000
v 8438.000000 -14062.997070 -20045.000000
v 8438.000000 -14252.997070 -20045.000000
v 8438.000000 -14052.998047 -20045.000000
v 7984.134766 -14249.416016 -20390.000000
v 8027.436035 -15299.415039 -20365.000000
v 8090.772949 -15299.415039 -20145.156250
v 8065.772949 -14249.416016 -20101.855469
v 8465.227539 -15299.416016 -20145.156250
v 8490.227539 -14249.416016 -20101.855469
v 8528.564453 -15299.416992 -20365.000000
v 8571.865234 -14249.416016 -20390.000000
v 7858.192383 -13203.000000 -20495.000000
v 7858.193359 -14252.999023 -20495.000000
v 7974.818359 -13203.000000 -20083.365234
v 7974.818359 -14252.999023 -20083.365234
v 8581.181641 -14253.000000 -20083.365234
v 8581.181641 -13203.000000 -20083.365234
v 8697.807617 -14253.000000 -20495.000000
v 8697.807617 -13203.000000 -20495.000000
v 8161.998535 -14052.998047 -20047.000000
v 8195.997070 -13202.997070 -20047.000000
v 8359.997070 -13202.997070 -20047.000000
v 8393.998047 -14052.998047 -20047.000000
v 8127.999023 -13202.998047 -20047.000000
v 8393.998047 -14035.998047 -20047.000000
v 8427.998047 -13202.998047 -20047.000000
v 8278.000000 -13304.946289 -20245.003906
v 8168.000488 -14082.999023 -19945.000000
v 8168.000488 -14082.999023 -19865.000000
v 8267.998047 -14082.995117 -19945.000000
v 8267.998047 -14082.995117 -19865.000000
v 8287.998047 -14082.995117 -19945.000000
v 8287.998047 -14082.995117 -19865.000000
v 8387.998047 -14082.995117 -19945.000000
v 8387.998047 -14082.995117 -19865.000000
v 8120.000488 -14242.999023 -20045.000000
v 8120.000488 -14242.999023 -19367.000000
v 8120.000488 -14202.999023 -20045.000000
v 8120.000488 -14202.999023 -19367.000000
v 8120.000488 -14192.999023 -20045.000000
v 8120.000488 -14192.999023 -19367.000000
v 8120.000488 -14062.999023 -20045.000000
v 8120.000488 -14062.999023 -19367.000000
v 8436.000000 -14202.999023 -19367.000000
v 8436.000000 -14242.999023 -19367.000000
v 8436.000000 -14062.999023 -19367.000000
v 8436.000000 -14192.999023 -19367.000000
v 8436.000000 -14242.999023 -20045.000000
v 8436.000000 -14202.999023 -20045.000000
v 8436.000000 -14192.999023 -20045.000000
v 8436.000000 -14062.999023 -20045.000000
v 8166.000000 -14249.415039 -20075.000000
v 8166.000977 -15299.414063 -20125.000000
v 8389.999023 -14249.415039 -20075.000000
v 8390.000000 -15299.412109 -20125.000000
v 8118.001465 -14252.997070 -20045.000000
v 8118.000000 -13202.999023 -20045.000000
v 8438.000000 -14252.996094 -20045.000000
v 8166.000000 -15299.417969 -20285.000000
v 8086.000000 -15299.415039 -20423.562500
v 8166.000000 -15299.415039 -20445.000000
v 8390.000000 -15299.417969 -20285.000000
v 8390.000000 -15299.416016 -20445.000000
v 8470.000000 -15299.416016 -20423.562500
v 8118.000488 -14252.999023 -20345.000000
v 7968.000488 -14252.999023 -20604.806641
v 8118.000488 -14252.999023 -20645.000000
v 8438.000000 -14252.999023 -20345.000000
v 8438.000000 -14253.000000 -20645.000000
v 8588.000000 -14253.000000 -20604.806641
v 8203.000000 -13453.000000 -20045.005859
v 8243.761719 -13452.999023 -20055.005859
v 8203.000000 -13453.000000 -20055.005859
v 8264.141602 -13452.997070 -20055.005859
v 8291.858398 -13452.997070 -20055.005859
v 8353.000000 -13453.000000 -20045.005859
v 8312.239258 -13452.999023 -20055.005859
v 8353.000000 -13453.000000 -20055.005859
v 8128.000488 -14053.000000 -19375.000000
v 8128.000488 -14053.000000 -19365.000000
v 8148.000488 -14053.000000 -19375.000000
v 8427.998047 -14052.995117 -19375.000000
v 8407.999023 -14052.995117 -19375.000000
v 8427.998047 -14052.995117 -19365.000000
v 8161.000977 -14053.000000 -19952.000000
v 8161.000977 -14053.000000 -19858.000000
v 8168.000488 -14053.000000 -19945.000000
v 8168.000488 -14053.000000 -19865.000000
v 8161.000977 -14053.000000 -19852.000000
v 8161.000488 -14053.000000 -19758.000000
v 8168.000488 -14053.000000 -19845.000000
v 8168.000488 -14053.000000 -19765.000000
v 8161.000977 -14053.000000 -19752.000000
v 8161.000488 -14053.000000 -19658.000000
v 8168.000488 -14053.000000 -19745.000000
v 8168.000488 -14053.000000 -19665.000000
v 8274.998047 -14052.997070 -19952.000000
v 8267.998047 -14052.996094 -19945.000000
v 8274.998047 -14052.997070 -19852.000000
v 8267.998047 -14052.996094 -19845.000000
v 8274.998047 -14052.995117 -19758.000000
v 8267.998047 -14052.996094 -19765.000000
v 8274.998047 -14052.995117 -19752.000000
v 8267.998047 -14052.996094 -19745.000000
v 8274.998047 -14052.995117 -19658.000000
v 8267.998047 -14052.995117 -19665.000000
v 8274.998047 -14052.997070 -19858.000000
v 8267.998047 -14052.996094 -19865.000000
v 8280.998047 -14052.997070 -19952.000000
v 8280.998047 -14052.995117 -19858.000000
v 8287.998047 -14052.995117 -19945.000000
v 8287.998047 -14052.995117 -19865.000000
v 8280.998047 -14052.995117 -19852.000000
v 8280.998047 -14052.995117 -19758.000000
v 8287.998047 -14052.995117 -19845.000000
v 8287.998047 -14052.995117 -19765.000000
v 8280.998047 -14052.995117 -19752.000000
v 8280.998047 -14052.995117 -19658.000000
v 8287.998047 -14052.995117 -19745.000000
v 8287.998047 -14052.995117 -19665.000000
v 8394.998047 -14052.995117 -19952.000000
v 8387.998047 -14052.995117 -19945.000000
v 8394.998047 -14052.995117 -19858.000000
v 8387.998047 -14052.995117 -19865.000000
v 8394.998047 -14052.995117 -19852.000000
v 8387.998047 -14052.995117 -19845.000000
v 8394.999023 -14052.995117 -19758.000000
v 8387.998047 -14052.995117 -19765.000000
v 8394.998047 -14052.995117 -19752.000000
v 8387.998047 -14052.995117 -19745.000000
v 8394.999023 -14052.995117 -19658.000000
v 8387.998047 -14052.995117 -19665.000000
v 8243.761719 -13452.999023 -20243.005859
v 8264.141602 -13452.998047 -20243.005859
v 8291.858398 -13452.998047 -20243.005859
v 8312.239258 -13452.999023 -20243.005859
v 8128.000488 -14053.000000 -20045.000000
v 8128.000488 -14053.000000 -19875.000000
v 8148.000000 -14052.999023 -20045.000000
v 8148.000000 -14052.999023 -19875.000000
v 8128.000488 -14053.000000 -19705.000000
v 8148.000000 -14053.000000 -19705.000000
v 8128.000488 -14053.000000 -19658.000000
v 8148.000000 -14053.000000 -19658.000000
v 8427.998047 -14052.995117 -20045.000000
v 8407.998047 -14052.995117 -20045.000000
v 8427.998047 -14052.995117 -19875.000000
v 8407.999023 -14052.994141 -19875.000000
v 8427.998047 -14052.995117 -19705.000000
v 8407.999023 -14052.995117 -19705.000000
v 8427.998047 -14052.995117 -19658.000000
v 8407.998047 -14052.995117 -19658.000000
v 8203.000000 -13453.000000 -20243.005859
v 8353.000000 -13453.000000 -20243.005859
v 8168.000488 -14082.999023 -19865.000000
v 8217.999023 -14082.997070 -19905.000000
v 8168.000488 -14082.999023 -19945.000000
v 8168.000488 -14082.999023 -19765.000000
v 8217.999023 -14082.997070 -19805.000000
v 8168.000488 -14082.999023 -19845.000000
v 8168.000488 -14082.999023 -19665.000000
v 8217.999023 -14082.997070 -19705.000000
v 8168.000488 -14082.999023 -19745.000000
v 8267.998047 -14082.995117 -19865.000000
v 8267.998047 -14082.995117 -19845.000000
v 8267.998047 -14082.995117 -19765.000000
v 8267.998047 -14082.995117 -19745.000000
v 8267.998047 -14082.995117 -19665.000000
v 8267.998047 -14082.995117 -19945.000000
v 8287.998047 -14082.995117 -19945.000000
v 8287.998047 -14082.995117 -19865.000000
v 8337.998047 -14082.995117 -19905.000000
v 8287.998047 -14082.995117 -19765.000000
v 8337.998047 -14082.995117 -19805.000000
v 8287.998047 -14082.995117 -19845.000000
v 8287.998047 -14082.995117 -19665.000000
v 8337.998047 -14082.995117 -19705.000000
v 8287.998047 -14082.995117 -19745.000000
v 8387.998047 -14082.995117 -19945.000000
v 8387.998047 -14082.995117 -19865.000000
v 8387.998047 -14082.995117 -19845.000000
v 8387.998047 -14082.995117 -19765.000000
v 8387.998047 -14082.995117 -19745.000000
v 8387.998047 -14082.995117 -19665.000000
v 8407.999023 -14052.995117 -19875.000000
# 960 vertices

vt 24.99990 -27.50010
vt 25.99990 -26.00010
vt 24.99990 -26.00010
vt 25.99990 -27.50010
vt 19.99990 -26.00010
vt 18.99990 -27.50010
vt 19.99990 -27.50010
vt 18.99990 -26.00010
vt 23.99990 -27.50010
vt 23.99990 -26.00010
vt 20.99990 -26.00010
vt 20.99990 -27.50010
vt 22.99990 -27.50010
vt 22.99990 -26.00010
vt 21.99990 -26.00010
vt 21.99990 -27.50010
vt 25.99990 -24.50010
vt 24.99990 -24.50010
vt 19.99990 -24.50010
vt 18.99990 -24.50010
vt 23.99990 -24.50010
vt 20.99990 -24.50010
vt 22.99990 -24.50010
vt 21.99990 -24.50010
vt 19.99990 -23.00010
vt 18.99990 -23.00010
vt 25.99990 -23.00010
vt 24.99990 -23.00010
vt 20.99990 -23.00010
vt 23.99990 -23.00010
vt 19.99990 -21.50010
vt 18.99990 -21.50010
vt 21.99990 -23.00010
vt 22.99990 -23.00010
vt 25.99990 -21.50010
vt 24.99990 -21.50010
vt 20.99990 -21.50010
vt 19.99990 -20.00010
vt 18.99990 -20.00010
vt 23.99990 -21.50010
vt 21.99990 -21.50010
vt 20.99990 -20.00010
vt 19.99990 -18.50010
vt 18.99990 -18.50010
vt 25.99990 -20.00010
vt 24.99990 -20.00010
vt 22.99990 -21.50010
vt 20.99990 -18.50010
vt 19.99990 -17.00010
vt 18.99990 -17.00010
vt 21.99990 -6.50010
vt 20.99990 -8.00010
vt 21.99990 -8.00010
vt 20.99990 -6.50010
vt 20.99990 -9.50010
vt 21.99990 -9.50010
vt 21.99990 -5.00010
vt 20.99990 -5.00010
vt 20.99990 -11.00010
vt 21.99990 -11.00010
vt 21.99990 -3.50010
vt 20.99990 -3.50010
vt 20.99990 -17.00010
vt 21.99990 -2.00010
vt 20.99990 -2.00010
vt 20.99990 -12.50010
vt 19.99990 -14.00010
vt 20.99990 -14.00010
vt 19.99990 -12.50010
vt 19.99990 -15.50010
vt 20.99990 -15.50010
vt 21.99990 -0.50010
vt 20.99990 -0.50010
vt 19.99990 -11.00010
vt 21.99990 -12.50010
vt 21.99990 -20.00010
vt 29.99990 -59.00000
vt 30.99990 -57.50010
vt 29.99990 -57.50010
vt 30.99990 -59.00000
vt 30.99990 -56.00010
vt 29.99990 -56.00010
vt 19.99990 -9.50010
vt 30.99990 -54.50010
vt 29.99990 -54.50010
vt 30.99990 -53.00010
vt 29.99990 -53.00010
vt 21.99990 -14.00010
vt 30.99990 -51.50010
vt 29.99990 -51.50010
vt 19.99990 -8.00010
vt 18.99990 -15.50010
vt 30.99990 -50.00010
vt 29.99990 -50.00010
vt 30.99990 -48.50010
vt 29.99990 -48.50010
vt 30.99990 -47.00010
vt 29.99990 -47.00010
vt 30.99990 -45.50010
vt 29.99990 -45.50010
vt 29.99990 -44.00010
vt 30.99990 -44.00010
vt 29.99990 -42.50010
vt 30.99990 -42.50010
vt 29.99990 -41.00010
vt 30.99990 -41.00010
vt 30.99990 -39.50010
vt 29.99990 -39.50010
vt 31.99990 -41.00010
vt 32.99990 -39.50010
vt 31.99990 -39.50010
vt 32.99990 -41.00010
vt 32.99990 -42.50010
vt 31.99990 -42.50010
vt 32.99990 -44.00010
vt 31.99990 -44.00010
vt 31.99990 -45.50010
vt 32.99990 -45.50010
vt 31.99990 -47.00010
vt 32.99990 -47.00010
vt 31.99990 -48.50010
vt 32.99990 -48.50010
vt 19.99990 -6.50010
vt 31.99990 -50.00010
vt 32.99990 -50.00010
vt 31.99990 -51.50010
vt 32.99990 -51.50010
vt 21.99990 -15.50010
vt 19.99990 -5.00010
vt 18.99990 -14.00010
vt 31.99990 -53.00010
vt 32.99990 -53.00010
vt 23.99990 -20.00010
vt 19.99990 -3.50010
vt 31.99990 -54.50010
vt 32.99990 -54.50010
vt 21.99990 -18.50010
vt 19.99990 -2.00010
vt 21.99990 -17.00010
vt 18.99990 -12.50010
vt 31.99990 -56.00010
vt 32.99990 -56.00010
vt 25.99990 -18.50010
vt 24.99990 -18.50010
vt 19.99990 -0.50010
vt 31.99990 -57.50010
vt 32.99990 -57.50010
vt 18.99990 -11.00010
vt 28.99990 -59.00000
vt 28.99990 -57.50010
vt 31.99990 -59.00000
vt 32.99990 -59.00000
vt 28.99990 -56.00010
vt 23.99990 -0.50010
vt 22.99990 -2.00010
vt 23.99990 -2.00010
vt 22.99990 -0.50010
vt 18.99990 -9.50010
vt 28.99990 -54.50010
vt 22.99990 -20.00010
vt 22.99990 -3.50010
vt 23.99990 -3.50010
vt 28.99990 -53.00010
vt 18.99990 -8.00010
vt 28.99990 -51.50010
vt 22.99990 -5.00010
vt 23.99990 -5.00010
vt 28.99990 -50.00010
vt 18.99990 -6.50010
vt 28.99990 -48.50010
vt 22.99990 -6.50010
vt 23.99990 -6.50010
vt 28.99990 -47.00010
vt 28.99990 -45.50010
vt 28.99990 -44.00010
vt 28.99990 -42.50010
vt 28.99990 -41.00010
vt 28.99990 -39.50010
vt 33.99990 -39.50010
vt 33.99990 -41.00010
vt 33.99990 -42.50010
vt 33.99990 -44.00010
vt 33.99990 -45.50010
vt 33.99990 -47.00010
vt 33.99990 -48.50010
vt 18.99990 -5.00010
vt 33.99990 -50.00010
vt 22.99990 -8.00010
vt 23.99990 -8.00010
vt 25.99990 -17.00010
vt 24.99990 -17.00010
vt 33.99990 -51.50010
vt 23.99990 -18.50010
vt 18.99990 -3.50010
vt 33.99990 -53.00010
vt 22.99990 -9.50010
vt 23.99990 -9.50010
vt 33.99990 -54.50010
vt 18.99990 -2.00010
vt 33.99990 -56.00010
vt 22.99990 -11.00010
vt 23.99990 -11.00010
vt 18.99990 -0.50010
vt 33.99990 -57.50010
vt 22.99990 -18.50010
vt 27.99990 -59.00000
vt 27.99990 -57.50010
vt 33.99990 -59.00000
vt 22.99990 -12.50010
vt 23.99990 -12.50010
vt 25.99990 -15.50010
vt 24.99990 -15.50010
vt 27.99990 -56.00010
vt 24.99990 -0.50010
vt 24.99990 -2.00010
vt 27.99990 -54.50010
vt 22.99990 -14.00010
vt 23.99990 -14.00010
vt 24.99990 -3.50010
vt 27.99990 -53.00010
vt 23.99990 -17.00010
vt 24.99990 -5.00010
vt 27.99990 -51.50010
vt 22.99990 -15.50010
vt 23.99990 -15.50010
vt 22.99990 -17.00010
vt 24.99990 -6.50010
vt 25.99990 -14.00010
vt 24.99990 -14.00010
vt 27.99990 -50.00010
vt 27.99990 -48.50010
vt 24.99990 -8.00010
vt 27.99990 -47.00010
vt 27.99990 -45.50010
vt 27.99990 -44.00010
vt 27.99990 -42.50010
vt 27.99990 -41.00010
vt 27.99990 -39.50010
vt 34.99990 -41.00010
vt 34.99990 -39.50010
vt 34.99990 -42.50010
vt 34.99990 -44.00010
vt 34.99990 -45.50010
vt 34.99990 -47.00010
vt 34.99990 -48.50010
vt 34.99990 -50.00010
vt 34.99990 -51.50010
vt 24.99990 -9.50010
vt 34.99990 -53.00010
vt 25.99990 -12.50010
vt 24.99990 -12.50010
vt 34.99990 -54.50010
vt 34.99990 -56.00010
vt 24.99990 -11.00010
vt 34.99990 -57.50010
vt 34.99990 -59.00000
vt 25.99990 -11.00010
vt 25.99990 -0.50010
vt 25.99990 -2.00010
vt 25.99990 -3.50010
vt 25.99990 -5.00010
vt 25.99990 -9.50010
vt 25.99990 -6.50010
vt 25.99990 -8.00010
vt 0.00000 0.99990
vt 0.99990 -9.00000
vt 0.00000 -9.00000
vt 0.99990 0.99990
vt 1.99990 0.99990
vt 1.99990 -9.00000
vt 2.99990 0.99990
vt 2.99990 -9.00000
vt 0.99990 -50.00010
vt 0.00000 -1.00010
vt 0.00000 -50.00010
vt 0.99990 -1.00010
vt 0.00000 1.50010
vt 3.99990 3.25010
vt 0.00000 3.25010
vt 3.99990 1.50010
vt 4.99990 1.50010
vt 4.99990 3.25010
vt 8.99990 1.50010
vt 8.99990 3.25010
vt 0.99990 -4.07390
vt 0.00000 3.76260
vt 0.00000 -4.76260
vt 0.99990 -0.09920
vt 0.99990 2.24990
vt 0.00000 0.00000
vt 0.99990 0.00000
vt 0.00000 2.24990
vt 0.00000 -48.00000
vt 0.99990 1.99990
vt 0.00000 1.99990
vt 0.99990 -48.00000
vt 17.99990 -27.50010
vt 17.99990 -26.00010
vt 17.99990 -24.50010
vt 17.99990 -23.00010
vt 17.99990 -21.50010
vt 17.99990 -20.00010
vt 17.99990 -18.50010
vt 17.99990 -17.00010
vt 17.99990 -15.50010
vt 17.99990 -14.00010
vt 17.99990 -12.50010
vt 17.99990 -11.00010
vt 17.99990 -9.50010
vt 17.99990 -8.00010
vt 17.99990 -6.50010
vt 17.99990 -5.00010
vt 17.99990 -3.50010
vt 17.99990 -2.00010
vt 17.99990 -0.50010
vt 26.99990 -59.00000
vt 26.99990 -57.50010
vt 26.99990 -56.00010
vt 26.99990 -54.50010
vt 26.99990 -53.00010
vt 26.99990 -51.50010
vt 26.99990 -50.00010
vt 26.99990 -48.50010
vt 26.99990 -47.00010
vt 26.99990 -45.50010
vt 26.99990 -44.00010
vt 26.99990 -42.50010
vt 26.99990 -41.00010
vt 26.99990 -39.50010
vt 2.99990 -1.99990
vt 1.99990 -1.99990
vt 1.89060 -10.99990
vt 1.03120 -10.99990
vt 1.03120 -10.12500
vt 3.98430 0.99990
vt 2.99990 1.98430
vt 0.98430 -1.00010
vt 0.00000 -0.01570
vt 0.99990 -1.99990
vt 0.03120 -1.99990
vt 0.99990 -2.96870
vt 0.74990 -2.74990
vt 0.00000 -1.99990
vt 0.99990 -2.74990
vt -0.99210 -3.00010
vt -0.92960 -3.00010
vt -0.92960 -3.50010
vt -0.99210 -4.00010
vt -0.92960 -4.00010
vt -0.92960 1.99990
vt -0.99210 1.99990
vt -0.99210 -9.00000
vt -0.92960 -9.00000
vt -3.99990 -0.99990
vt -3.99990 -1.99990
vt -2.99990 -0.99990
vt 0.99990 -0.99990
vt 0.00000 -0.99990
vt 0.49990 -1.99990
vt -3.77990 -1.99990
vt 7.99990 -1.99990
vt 0.99990 -3.99990
vt 0.00000 -2.99990
vt -0.99990 -3.99990
vt -2.49990 -1.99990
vt -3.49990 -0.99990
vt -4.49990 -1.99990
vt 1.49990 -0.99990
vt 10.99990 -2.99990
vt 11.99990 -3.99990
vt 9.99990 -3.99990
vt -3.49990 -1.99990
vt -2.49990 -0.99990
vt -4.49990 -0.99990
vt -25.99990 -0.99990
vt -20.49990 -0.99990
vt -24.99990 -1.99990
vt 0.99990 -1.49990
vt 0.49990 -0.99990
vt 2.49990 -1.99990
vt 5.99990 -2.99990
vt 6.99990 -3.99990
vt 4.99990 -3.99990
vt -20.79990 -1.99990
vt 10.49990 -1.99990
vt 11.49990 -0.99990
vt 1.80000 -1.99990
vt 5.99990 -0.99990
vt 4.99990 -1.99990
vt -7.99990 -1.99990
vt -8.99990 -0.99990
vt -1.50000 -0.99990
vt -8.77990 -1.99990
vt -1.80000 -1.99990
vt 30.50000 -0.99990
vt 22.79990 -1.99990
vt 22.49990 -0.99990
vt 30.20000 -1.99990
vt 3.70000 -1.99990
vt 3.99990 -0.99990
vt -6.80000 -1.99990
vt -6.49990 -0.99990
vt 24.70000 -1.99990
vt 24.99990 -0.99990
vt 27.99990 -0.99990
vt 28.29990 -1.99990
vt 0.30000 -1.99990
vt 5.99990 -1.99990
vt 7.69990 -1.99990
vt 5.49990 -0.99990
vt 4.49990 -1.99990
vt 7.99990 -0.99990
vt -17.99990 -0.99990
vt -4.00000 -1.99990
vt -16.99990 -1.99990
vt -8.00000 -1.99990
vt -17.20000 -1.99990
vt -17.49990 -0.99990
vt 14.30000 -1.99990
vt 13.99990 -0.99990
vt 0.00000 -3.99990
vt 0.99990 -2.99990
vt 10.99990 -0.99990
vt 10.69990 -1.99990
vt 4.30000 -1.99990
vt 6.50000 -0.99990
vt 6.19990 -1.99990
vt -15.30000 -1.99990
vt -14.99990 -0.99990
vt -22.70000 -1.99990
vt -22.99990 -0.99990
vt 16.19990 -1.99990
vt 16.49990 -0.99990
vt 8.49990 -0.99990
vt 8.80000 -1.99990
vt 2.14990 3.24990
vt 2.49990 2.90000
vt 1.49990 2.49990
vt 0.35000 3.24990
vt 0.99990 2.49990
vt 0.00000 2.85000
vt 2.49990 2.85000
vt 0.00000 2.90000
vt 0.34990 3.24990
vt 2.15000 3.24990
vt 0.99990 3.24990
vt 0.99990 1.62490
vt 0.00000 3.24990
vt 1.49990 3.24990
vt 2.49990 3.24990
vt 1.49990 1.62490
vt 2.49990 2.12490
vt 1.87490 1.62490
vt 1.49990 1.99990
vt 1.49990 1.24990
vt 2.49990 0.00000
vt 1.24990 1.74990
vt 2.49990 1.74990
vt 1.49990 0.99990
vt 2.49990 1.12490
vt 1.24990 0.99990
vt 1.49990 0.00000
vt 0.99990 1.24990
vt 0.99990 0.74990
vt 2.15000 0.00000
vt 1.49990 0.74990
vt 2.49990 0.34990
vt 0.35000 0.00000
vt 0.00000 0.34990
vt 2.14990 0.00000
vt 0.34990 0.00000
vt 2.49990 2.24990
vt 1.49990 2.24990
vt 0.00000 -1.87510
vt 0.00000 -1.62510
vt 0.26660 -1.87510
vt 0.26660 -1.62510
vt 0.99600 -1.62510
vt 0.99600 -1.87510
vt 0.00000 0.74610
vt 0.03330 0.86720
vt 0.03330 0.83600
vt 0.22660 0.86720
vt 0.22660 0.83600
vt 0.24990 0.75400
vt 0.74990 0.75400
vt 0.77330 0.86720
vt 0.77330 0.83600
vt 0.96660 0.86720
vt 0.96660 0.83600
vt 0.99990 0.74610
vt 1.99990 0.62500
vt 0.00000 0.75790
vt 1.99990 0.75790
vt 0.00000 0.62510
vt 1.99990 0.62510
vt 0.00000 0.62500
vt -0.99990 -0.12900
vt -0.99990 -0.24610
vt -1.24990 -0.12900
vt -2.99990 -0.12900
vt -0.89990 -0.24610
vt -3.09990 -0.24610
vt -1.99990 -0.24610
vt -1.99990 -0.12900
vt -0.90000 -0.24610
vt -3.10000 -0.24610
vt -0.99990 -0.13280
vt -1.27490 -0.24210
vt -0.99990 -0.24210
vt -1.24990 -0.13280
vt -0.99990 -0.16400
vt -1.24990 -0.16400
vt -1.41240 -0.21480
vt -1.27490 -0.21480
vt -1.41240 -0.24210
vt -1.37490 -0.13280
vt -0.49990 -0.13280
vt -0.45000 -0.24210
vt -1.37490 -0.16400
vt -0.49990 -0.16400
vt -1.48120 -0.21480
vt -1.48120 -0.24210
vt -1.43740 -0.13280
vt -1.43740 -0.16400
vt -1.49990 -0.16400
vt -1.49990 -0.13280
vt -1.54990 -0.24210
vt -1.54990 -0.21480
vt -0.44990 -0.24210
vt -0.33330 -0.16400
vt 0.00000 -0.13280
vt 0.00000 -0.16400
vt -0.33300 -0.16400
vt -0.45000 -0.21480
vt -0.44990 -0.21480
vt 0.00000 -19.24210
vt 0.50000 -19.24210
vt 0.00000 -19.13280
vt 0.50000 -19.13280
vt 0.00000 -19.16400
vt 1.99990 -19.13280
vt 1.99990 -19.16400
vt 0.50000 -19.16400
vt 2.49990 -19.13280
vt 2.49990 -19.16400
vt 4.99990 -19.13280
vt 4.99990 -19.16400
vt 2.99990 -19.16400
vt 2.99990 -19.13280
vt 1.99990 -19.24210
vt 2.49990 -19.24210
vt 4.99990 -19.24210
vt 2.99990 -19.24210
vt 7.99990 2.86720
vt 7.99990 2.75790
vt 8.10000 2.75790
vt 10.99990 2.75790
vt 10.99990 2.86720
vt 10.89990 2.75790
vt 0.00000 1.63290
vt 7.99990 1.74610
vt 0.00000 1.74610
vt 7.99990 1.63290
vt 0.00000 2.86720
vt 0.00000 2.75790
vt 0.00000 0.78910
vt 10.20000 0.62900
vt 0.00000 0.62900
vt 10.20000 0.78910
vt 7.99990 1.66020
vt 0.00000 1.66020
vt 0.00000 2.78520
vt 7.99990 2.78520
vt 7.99990 2.83600
vt 0.00000 2.83600
vt 0.00000 -1.12490
vt 7.99990 -1.24990
vt 7.99990 -1.12490
vt 0.00000 -1.24990
vt 9.99990 0.78910
vt 9.99990 0.62900
vt 10.99990 1.74610
vt 10.99990 1.63290
vt 10.99990 1.66020
vt 8.99990 2.78520
vt 8.99990 2.75790
vt 8.99990 2.86720
vt 8.99990 2.83600
vt 10.99990 2.83600
vt 10.19990 0.62900
vt 10.19990 0.78910
vt 18.99990 1.63290
vt 18.99990 1.66020
vt 18.99990 2.78520
vt 18.99990 2.75790
vt 10.99990 2.78520
vt 18.99990 2.86720
vt 18.99990 2.83600
vt 18.99990 1.74610
vt 0.00000 -49.24600
vt 7.99990 -49.12890
vt 0.00000 -49.12890
vt 7.99990 -49.24600
vt 0.99990 -51.00000
vt 0.00000 -0.00010
vt 1.99990 1.99990
vt 2.99990 -2.99990
vt 4.99990 -18.00000
vt 0.00000 -14.66670
vt 4.99990 -14.66670
vt 0.00000 -18.00000
vt 4.99990 1.99990
vt 0.00000 -5.75010
vt 8.00080 -8.00000
vt 0.00000 -8.00000
vt 8.00080 -5.75010
vt 8.00080 -0.00010
vt 11.99990 -8.00000
vt 4.99990 -5.75010
vt 11.99990 -5.75010
vt 4.99990 -8.00000
vt 4.99990 -0.00010
vt 11.99990 -0.00010
vt 19.99990 -8.00000
vt 19.99990 -5.75010
vt 19.99990 -0.00010
vt -2.11390 2.24630
vt 3.11390 4.75370
vt -2.11390 4.75370
vt 3.11390 2.24630
vt -6.99870 -47.52310
vt -2.11860 -47.50000
vt -6.99870 -47.47700
vt -6.40070 -47.01680
vt -6.40070 -47.98330
vt -6.37080 -46.99380
vt -6.28910 -48.02310
vt -4.57360 -46.62310
vt -4.65530 -48.36000
vt -4.46200 -48.38300
vt -2.11860 -46.48750
vt -2.11860 -48.51250
vt 3.11860 -48.51250
vt 5.46200 -48.38300
vt 3.11860 -47.50000
vt 5.57360 -46.62310
vt 3.11860 -46.48750
vt 5.65530 -48.36000
vt 7.37080 -46.99380
vt 7.28910 -48.02310
vt 7.40070 -47.98330
vt 7.40070 -47.01680
vt 7.99870 -47.52310
vt 7.99870 -47.47700
vt -0.57700 -14.24600
vt 0.00830 -14.24600
vt -0.57700 -14.13280
vt 0.30090 -14.24600
vt 0.99160 -14.24600
vt 1.57700 -14.13280
vt 0.69900 -14.24600
vt 1.57700 -14.24600
vt 0.99990 -59.24990
vt 0.00000 -59.13280
vt 0.00000 -59.24990
vt 2.99990 -59.13280
vt 2.99990 -59.24990
vt 1.99990 -58.24210
vt -0.09990 -58.12490
vt 2.09990 -58.12490
vt 0.00000 -58.24210
vt -0.10000 -58.12490
vt 2.10000 -58.12490
vt 0.00000 -13.00000
vt 0.99990 -13.00000
vt 0.99990 4.99990
vt 0.00000 -10.00010
vt 0.00000 4.99990
vt 0.99990 -10.00010
vt 0.00000 -25.00010
vt 0.99990 -25.00010
vt 0.00000 -29.28130
vt 0.99990 -29.28130
vt 0.00000 -55.00000
vt 0.99990 -55.00000
vt -1.64970 -10.97830
vt -0.48520 -13.52270
vt -1.64970 -13.52270
vt -0.48520 -10.97830
vt 1.47100 -10.97830
vt 2.63540 -13.52270
vt 1.47100 -13.52270
vt 2.63540 -10.97830
vt -4.68720 -53.57080
vt -5.25660 -54.46180
vt -5.25660 -52.49460
vt -5.25660 -56.42880
vt -4.68720 -55.81550
vt -5.25660 -56.97270
vt -4.68720 -56.97270
vt -4.68720 -55.88500
vt -4.68720 -54.65850
vt -4.68720 -54.72790
vt 9.99990 -53.00010
vt 12.99990 -53.75010
vt 9.99990 -54.50010
vt 0.30530 -53.57080
vt 15.99990 -54.50010
vt 15.99990 -53.00010
vt 5.56090 -53.57080
vt 0.56810 -53.57080
vt 6.13020 -52.49460
vt 5.56090 -54.65850
vt 6.13020 -54.46180
vt 5.56090 -54.72790
vt 5.56090 -55.81550
vt 5.56090 -55.88500
vt 6.13020 -56.42880
vt 5.56090 -56.97270
vt 6.13020 -56.97270
vt 0.30530 -54.72790
vt 0.30530 -54.65850
vt 0.30530 -55.88500
vt 0.30530 -55.81550
vt 0.56810 -54.65850
vt 0.56810 -54.72790
vt 0.56810 -55.81550
vt 0.56810 -55.88500
vt 0.56810 -56.97270
vt 0.30530 -56.97270
vt -1.49770 -56.49100
vt -1.49780 -52.50900
vt -1.29800 -52.50900
vt 0.45380 -52.50900
vt 2.29800 -52.50900
vt 2.49780 -56.49100
vt 0.54600 -52.50900
vt 2.49780 -52.50900
# 739 texture vertices

g Object_2
usemtl texture0
f 1/3 2/2 3/1
f 3/1 2/2 4/4
f 5/7 6/6 7/5
f 6/6 8/8 7/5
f 9/10 1/3 10/9
f 1/3 3/1 10/9
f 11/12 5/7 12/11
f 12/11 5/7 7/5
f 13/14 9/10 14/13
f 10/9 14/13 9/10
f 15/16 11/12 16/15
f 11/12 12/11 16/15
f 17/18 18/17 1/3
f 1/3 18/17 2/2
f 7/5 8/8 19/19
f 20/20 19/19 8/8
f 21/21 17/18 9/10
f 17/18 1/3 9/10
f 12/11 7/5 22/22
f 19/19 22/22 7/5
f 23/23 21/21 13/14
f 9/10 13/14 21/21
f 16/15 12/11 24/24
f 12/11 22/22 24/24
f 19/19 20/20 25/25
f 20/20 26/26 25/25
f 27/28 28/27 17/18
f 18/17 17/18 28/27
f 22/22 19/19 29/29
f 19/19 25/25 29/29
f 30/30 27/28 21/21
f 27/28 17/18 21/21
f 25/25 26/26 31/31
f 26/26 32/32 31/31
f 24/24 22/22 33/33
f 22/22 29/29 33/33
f 34/34 30/30 23/23
f 21/21 23/23 30/30
f 35/36 36/35 27/28
f 27/28 36/35 28/27
f 29/29 25/25 37/37
f 31/31 37/37 25/25
f 31/31 32/32 38/38
f 32/32 39/39 38/38
f 40/40 35/36 30/30
f 35/36 27/28 30/30
f 33/33 29/29 41/41
f 29/29 37/37 41/41
f 37/37 31/31 42/42
f 42/42 31/31 38/38
f 38/38 39/39 43/43
f 44/44 43/43 39/39
f 45/46 46/45 35/36
f 35/36 46/45 36/35
f 47/47 40/40 34/34
f 30/30 34/34 40/40
f 42/42 38/38 48/48
f 43/43 48/48 38/38
f 43/43 44/44 49/49
f 44/44 50/50 49/49
f 51/53 52/52 53/51
f 52/52 54/54 53/51
f 55/56 56/55 51/53
f 56/55 52/52 51/53
f 53/51 54/54 57/57
f 54/54 58/58 57/57
f 59/60 60/59 55/56
f 60/59 56/55 55/56
f 57/57 58/58 61/61
f 58/58 62/62 61/61
f 48/48 43/43 63/63
f 43/43 49/49 63/63
f 61/61 62/62 64/64
f 62/62 65/65 64/64
f 66/68 67/67 68/66
f 69/69 68/66 67/67
f 70/71 71/70 66/68
f 66/68 71/70 67/67
f 64/64 65/65 72/72
f 65/65 73/73 72/72
f 68/66 69/69 60/59
f 69/69 74/74 60/59
f 75/75 68/66 59/60
f 68/66 60/59 59/60
f 63/63 49/49 70/71
f 71/70 70/71 49/49
f 41/41 37/37 76/76
f 37/37 42/42 76/76
f 77/79 78/78 73/77
f 73/77 78/78 72/80
f 78/78 77/79 79/81
f 77/79 80/82 79/81
f 60/59 74/74 56/55
f 81/83 56/55 74/74
f 82/85 83/84 80/82
f 80/82 83/84 79/81
f 84/87 85/86 82/85
f 83/84 82/85 85/86
f 86/88 66/68 75/75
f 66/68 68/66 75/75
f 87/90 88/89 84/87
f 84/87 88/89 85/86
f 56/55 81/83 52/52
f 52/52 81/83 89/91
f 49/49 50/50 71/70
f 50/50 90/92 71/70
f 91/94 92/93 87/90
f 87/90 92/93 88/89
f 93/96 94/95 91/94
f 92/93 91/94 94/95
f 95/98 96/97 93/96
f 93/96 96/97 94/95
f 97/100 98/99 95/98
f 96/97 95/98 98/99
f 97/100 99/101 98/99
f 99/101 100/102 98/99
f 99/101 101/103 100/102
f 100/102 101/103 102/104
f 101/103 103/105 102/104
f 102/104 103/105 104/106
f 105/108 106/107 103/105
f 106/107 104/106 103/105
f 107/111 108/110 109/109
f 108/110 110/112 109/109
f 111/114 109/109 112/113
f 112/113 109/109 110/112
f 113/116 111/114 114/115
f 114/115 111/114 112/113
f 113/116 114/115 115/117
f 116/118 115/117 114/115
f 115/117 116/118 117/119
f 118/120 117/119 116/118
f 117/119 118/120 119/121
f 120/122 119/121 118/120
f 52/52 89/91 54/54
f 121/123 54/54 89/91
f 119/121 120/122 122/124
f 123/125 122/124 120/122
f 122/124 123/125 124/126
f 125/127 124/126 123/125
f 126/128 70/71 86/88
f 70/71 66/68 86/88
f 54/54 121/123 58/58
f 58/58 121/123 127/129
f 71/70 90/92 67/67
f 90/92 128/130 67/67
f 124/126 125/127 129/131
f 130/132 129/131 125/127
f 131/133 45/46 40/40
f 45/46 35/36 40/40
f 58/58 127/129 62/62
f 62/62 127/129 132/134
f 129/131 130/132 133/135
f 134/136 133/135 130/132
f 76/76 42/42 135/137
f 42/42 48/48 135/137
f 62/62 132/134 65/65
f 136/138 65/65 132/134
f 137/139 63/63 126/128
f 63/63 70/71 126/128
f 67/67 128/130 69/69
f 138/140 69/69 128/130
f 139/142 140/141 134/136
f 140/141 133/135 134/136
f 141/144 142/143 45/46
f 45/46 142/143 46/45
f 65/65 136/138 73/73
f 136/138 143/145 73/73
f 135/137 48/48 137/139
f 48/48 63/63 137/139
f 140/141 139/142 144/146
f 145/147 144/146 139/142
f 69/69 138/140 74/74
f 138/140 146/148 74/74
f 73/77 143/149 77/79
f 147/150 77/79 143/149
f 144/146 145/147 148/151
f 149/152 148/151 145/147
f 77/79 147/150 80/82
f 80/82 147/150 150/153
f 151/156 152/155 149/154
f 152/155 148/157 149/154
f 74/74 146/148 81/83
f 146/148 153/158 81/83
f 154/159 82/85 150/153
f 82/85 80/82 150/153
f 155/160 131/133 47/47
f 40/40 47/47 131/133
f 156/162 157/161 151/156
f 157/161 152/155 151/156
f 82/85 154/159 84/87
f 84/87 154/159 158/163
f 81/83 153/158 89/91
f 153/158 159/164 89/91
f 84/87 158/163 87/90
f 87/90 158/163 160/165
f 157/161 156/162 161/166
f 162/167 161/166 156/162
f 163/168 91/94 160/165
f 91/94 87/90 160/165
f 89/91 159/164 121/123
f 164/169 121/123 159/164
f 165/170 93/96 163/168
f 93/96 91/94 163/168
f 166/172 167/171 162/167
f 167/171 161/166 162/167
f 168/173 95/98 165/170
f 95/98 93/96 165/170
f 169/174 97/100 168/173
f 97/100 95/98 168/173
f 99/101 97/100 170/175
f 97/100 169/174 170/175
f 170/175 171/176 99/101
f 101/103 99/101 171/176
f 171/176 172/177 101/103
f 103/105 101/103 172/177
f 173/178 105/108 172/177
f 105/108 103/105 172/177
f 108/110 174/179 110/112
f 174/179 175/180 110/112
f 176/181 112/113 175/180
f 175/180 112/113 110/112
f 177/182 114/115 176/181
f 176/181 114/115 112/113
f 178/183 116/118 177/182
f 177/182 116/118 114/115
f 179/184 118/120 178/183
f 178/183 118/120 116/118
f 180/185 120/122 179/184
f 179/184 120/122 118/120
f 121/123 164/169 127/129
f 164/169 181/186 127/129
f 182/187 123/125 180/185
f 180/185 123/125 120/122
f 183/189 184/188 166/172
f 184/188 167/171 166/172
f 185/191 186/190 141/144
f 142/143 141/144 186/190
f 187/192 125/127 182/187
f 182/187 125/127 123/125
f 188/193 141/144 131/133
f 141/144 45/46 131/133
f 127/129 181/186 132/134
f 181/186 189/194 132/134
f 190/195 130/132 187/192
f 187/192 130/132 125/127
f 184/188 183/189 191/196
f 192/197 191/196 183/189
f 193/198 134/136 190/195
f 190/195 134/136 130/132
f 194/199 136/138 189/194
f 136/138 132/134 189/194
f 195/200 139/142 193/198
f 193/198 139/142 134/136
f 191/196 192/197 196/201
f 197/202 196/201 192/197
f 136/138 194/199 143/145
f 194/199 198/203 143/145
f 139/142 195/200 145/147
f 195/200 199/204 145/147
f 200/205 188/193 155/160
f 131/133 155/160 188/193
f 143/149 198/206 147/150
f 198/206 201/207 147/150
f 202/208 149/152 199/204
f 199/204 149/152 145/147
f 196/201 197/202 203/209
f 204/210 203/209 197/202
f 205/212 206/211 185/191
f 185/191 206/211 186/190
f 147/150 201/207 150/153
f 201/207 207/213 150/153
f 208/215 151/156 202/214
f 202/214 151/156 149/154
f 150/153 207/213 154/159
f 209/216 154/159 207/213
f 203/209 204/210 210/217
f 211/218 210/217 204/210
f 151/156 208/215 156/162
f 208/215 212/219 156/162
f 154/159 209/216 158/163
f 209/216 213/220 158/163
f 214/221 185/191 188/193
f 185/191 141/144 188/193
f 215/222 162/167 212/219
f 212/219 162/167 156/162
f 158/163 213/220 160/165
f 213/220 216/223 160/165
f 210/217 211/218 217/224
f 218/225 217/224 211/218
f 219/226 214/221 200/205
f 188/193 200/205 214/221
f 162/167 215/222 166/172
f 215/222 220/227 166/172
f 221/229 222/228 205/212
f 205/212 222/228 206/211
f 160/165 216/223 163/168
f 223/230 163/168 216/223
f 217/224 218/225 219/226
f 214/221 219/226 218/225
f 163/168 223/230 165/170
f 223/230 224/231 165/170
f 166/172 220/227 183/189
f 220/227 225/232 183/189
f 165/170 224/231 168/173
f 224/231 226/233 168/173
f 168/173 226/233 169/174
f 226/233 227/234 169/174
f 169/174 227/234 170/175
f 227/234 228/235 170/175
f 170/175 228/235 171/176
f 228/235 229/236 171/176
f 171/176 229/236 172/177
f 229/236 230/237 172/177
f 173/178 172/177 231/238
f 231/238 172/177 230/237
f 232/240 233/239 174/179
f 174/179 233/239 175/180
f 233/239 234/241 175/180
f 234/241 176/181 175/180
f 234/241 235/242 176/181
f 235/242 177/182 176/181
f 236/243 178/183 235/242
f 178/183 177/182 235/242
f 237/244 179/184 236/243
f 179/184 178/183 236/243
f 238/245 180/185 237/244
f 180/185 179/184 237/244
f 239/246 182/187 238/245
f 182/187 180/185 238/245
f 240/247 187/192 239/246
f 187/192 182/187 239/246
f 183/189 225/232 192/197
f 225/232 241/248 192/197
f 242/249 190/195 240/247
f 190/195 187/192 240/247
f 218/225 205/212 214/221
f 205/212 185/191 214/221
f 243/251 244/250 221/229
f 221/229 244/250 222/228
f 245/252 193/198 242/249
f 193/198 190/195 242/249
f 193/198 245/252 195/200
f 195/200 245/252 246/253
f 192/197 241/248 197/202
f 241/248 247/254 197/202
f 195/200 246/253 199/204
f 199/204 246/253 248/255
f 199/204 248/255 202/208
f 202/208 248/255 249/256
f 247/254 250/257 243/251
f 244/250 243/251 250/257
f 197/202 247/254 204/210
f 247/254 243/251 204/210
f 211/218 221/229 218/225
f 221/229 205/212 218/225
f 202/214 249/258 208/215
f 251/259 208/215 249/258
f 204/210 243/251 211/218
f 243/251 221/229 211/218
f 208/215 251/259 212/219
f 212/219 251/259 252/260
f 212/219 252/260 215/222
f 215/222 252/260 253/261
f 241/248 254/262 247/254
f 247/254 254/262 250/257
f 215/222 253/261 220/227
f 220/227 253/261 255/263
f 225/232 256/264 241/248
f 241/248 256/264 254/262
f 220/227 255/263 225/232
f 225/232 255/263 256/264
f 257/267 258/266 259/265
f 259/265 258/266 260/268
f 260/268 258/266 261/269
f 258/266 262/270 261/269
f 261/269 262/270 263/271
f 262/270 264/272 263/271
f 265/275 266/274 267/273
f 266/274 268/276 267/273
f 269/276 270/274 271/273
f 271/273 270/274 272/275
f 273/279 274/278 275/277
f 274/278 276/280 275/277
f 277/282 273/279 278/281
f 273/279 275/277 278/281
f 279/284 280/283 274/278
f 274/278 280/283 276/280
f 279/284 277/282 280/283
f 277/282 278/281 280/283
f 281/279 282/278 283/277
f 282/278 284/280 283/277
f 285/282 281/279 286/281
f 281/279 283/277 286/281
f 282/278 287/284 284/280
f 287/284 288/283 284/280
f 287/284 285/282 288/283
f 285/282 286/281 288/283
f 289/287 290/286 291/285
f 291/285 290/286 292/288
f 293/287 294/285 295/286
f 294/285 296/288 295/286
f 297/291 298/290 299/289
f 298/290 300/292 299/289
f 301/291 302/290 303/289
f 303/289 302/290 304/292
f 305/291 306/290 307/289
f 306/290 308/292 307/289
f 309/291 310/290 311/289
f 311/289 310/290 312/292
f 313/290 314/291 315/292
f 314/291 316/289 315/292
f 317/290 318/291 319/292
f 318/291 320/289 319/292
f 321/295 322/294 323/293
f 323/293 322/294 324/296
f 325/295 326/294 327/293
f 327/293 326/294 328/296
f 329/294 330/295 331/296
f 332/293 331/296 330/295
f 333/294 334/295 335/296
f 336/293 335/296 334/295
f 337/293 338/295 339/296
f 338/295 340/294 339/296
f 341/293 342/295 343/296
f 342/295 344/294 343/296
f 345/293 346/296 347/295
f 346/296 348/294 347/295
f 349/293 350/296 351/295
f 350/296 352/294 351/295
usemtl texture1
f 2/298 8/8 4/297
f 8/8 6/6 4/297
f 14/13 15/16 13/14
f 16/15 13/14 15/16
f 18/299 20/20 2/298
f 20/20 8/8 2/298
f 13/14 16/15 23/23
f 24/24 23/23 16/15
f 28/300 26/26 18/299
f 20/20 18/299 26/26
f 36/301 32/32 28/300
f 32/32 26/26 28/300
f 23/23 24/24 34/34
f 24/24 33/33 34/34
f 46/302 39/39 36/301
f 39/39 32/32 36/301
f 34/34 33/33 47/47
f 41/41 47/47 33/33
f 142/303 44/44 46/302
f 44/44 39/39 46/302
f 106/107 107/111 104/106
f 107/111 109/109 104/106
f 102/104 104/106 111/114
f 109/109 111/114 104/106
f 100/102 102/104 113/116
f 111/114 113/116 102/104
f 98/99 100/102 115/117
f 100/102 113/116 115/117
f 98/99 115/117 96/97
f 117/119 96/97 115/117
f 96/97 117/119 94/95
f 117/119 119/121 94/95
f 94/95 119/121 92/93
f 122/124 92/93 119/121
f 92/93 122/124 88/89
f 122/124 124/126 88/89
f 88/89 124/126 85/86
f 124/126 129/131 85/86
f 85/86 129/131 83/84
f 133/135 83/84 129/131
f 83/84 133/135 79/81
f 133/135 140/141 79/81
f 79/81 140/141 78/78
f 144/146 78/78 140/141
f 78/78 144/146 72/80
f 144/146 148/151 72/80
f 152/155 64/64 148/157
f 64/64 72/72 148/157
f 157/161 61/61 152/155
f 64/64 152/155 61/61
f 161/166 57/57 157/161
f 61/61 157/161 57/57
f 167/171 53/51 161/166
f 53/51 57/57 161/166
f 184/188 51/53 167/171
f 53/51 167/171 51/53
f 44/44 142/303 50/50
f 142/303 186/304 50/50
f 191/196 55/56 184/188
f 55/56 51/53 184/188
f 55/56 191/196 59/60
f 191/196 196/201 59/60
f 203/209 75/75 196/201
f 75/75 59/60 196/201
f 47/47 41/41 155/160
f 41/41 76/76 155/160
f 206/305 90/92 186/304
f 90/92 50/50 186/304
f 210/217 86/88 203/209
f 75/75 203/209 86/88
f 217/224 126/128 210/217
f 126/128 86/88 210/217
f 222/306 128/130 206/305
f 128/130 90/92 206/305
f 155/160 76/76 200/205
f 135/137 200/205 76/76
f 219/226 137/139 217/224
f 126/128 217/224 137/139
f 244/307 138/140 222/306
f 138/140 128/130 222/306
f 200/205 135/137 219/226
f 135/137 137/139 219/226
f 250/308 146/148 244/307
f 138/140 244/307 146/148
f 254/309 153/158 250/308
f 153/158 146/148 250/308
f 256/310 159/164 254/309
f 159/164 153/158 254/309
f 255/311 164/169 256/310
f 164/169 159/164 256/310
f 253/312 181/186 255/311
f 181/186 164/169 255/311
f 252/313 189/194 253/312
f 189/194 181/186 253/312
f 251/314 194/199 252/313
f 194/199 189/194 252/313
f 194/199 251/314 198/203
f 251/314 249/315 198/203
f 248/317 201/207 249/316
f 201/207 198/206 249/316
f 246/318 207/213 248/317
f 207/213 201/207 248/317
f 207/213 246/318 209/216
f 245/319 209/216 246/318
f 209/216 245/319 213/220
f 242/320 213/220 245/319
f 213/220 242/320 216/223
f 240/321 216/223 242/320
f 216/223 240/321 223/230
f 239/322 223/230 240/321
f 223/230 239/322 224/231
f 239/322 238/323 224/231
f 224/231 238/323 226/233
f 237/324 226/233 238/323
f 226/233 237/324 227/234
f 237/324 236/325 227/234
f 227/234 236/325 228/235
f 235/326 228/235 236/325
f 228/235 235/326 229/236
f 229/236 235/326 234/327
f 229/236 234/327 230/237
f 230/237 234/327 233/328
f 231/238 230/237 232/329
f 232/329 230/237 233/328
f 353/275 267/273 354/274
f 267/273 268/276 354/274
f 355/275 356/274 271/273
f 356/274 269/276 271/273
f 357/279 358/278 359/277
f 358/278 360/280 359/277
f 361/282 357/279 362/281
f 357/279 359/277 362/281
f 363/284 364/283 358/278
f 358/278 364/283 360/280
f 363/284 361/282 364/283
f 361/282 362/281 364/283
f 365/279 366/278 367/277
f 366/278 368/280 367/277
f 369/282 365/279 370/281
f 365/279 367/277 370/281
f 366/278 371/284 368/280
f 371/284 372/283 368/280
f 371/284 369/282 372/283
f 369/282 370/281 372/283
f 373/331 374/269 375/330
f 375/330 374/269 376/271
f 377/331 375/330 378/269
f 375/330 376/271 378/269
f 306/290 297/291 308/292
f 297/291 299/289 308/292
f 302/290 309/291 304/292
f 304/292 309/291 311/289
f 318/291 313/290 320/289
f 313/290 315/292 320/289
f 379/295 380/294 381/293
f 381/293 380/294 382/296
f 383/294 384/295 385/296
f 386/293 385/296 384/295
f 387/293 388/295 389/296
f 388/295 390/294 389/296
f 391/293 392/296 393/295
f 392/296 394/294 393/295
usemtl texture2
f 395/334 258/333 257/332
f 262/332 258/333 395/334
f 262/332 395/334 264/333
f 396/336 397/335 398/271
f 399/338 400/337 401/274
f 402/337 403/338 404/274
f 405/338 406/337 407/274
f 408/337 409/338 410/274
f 411/337 412/274 413/338
f 414/338 415/274 416/337
f 417/274 418/338 419/337
f 420/338 421/274 422/337
f 423/274 424/338 425/337
f 426/338 427/274 428/337
f 429/341 300/340 303/339
f 299/339 300/340 429/341
f 429/341 303/339 304/340
f 308/340 299/339 429/341
f 429/341 304/340 311/339
f 307/339 308/340 429/341
f 429/341 311/339 312/340
f 312/340 307/339 429/341
f 316/343 430/339 431/342
f 430/339 432/344 431/342
f 315/339 316/343 433/344
f 316/343 431/342 433/344
f 320/343 315/339 434/342
f 315/339 433/344 434/342
f 319/339 320/343 435/344
f 320/343 434/342 435/344
f 319/339 435/344 436/343
f 436/343 435/344 437/342
usemtl texture3
f 395/347 257/346 438/345
f 395/347 438/345 439/348
f 264/349 395/347 439/348
f 440/351 438/345 259/350
f 438/345 257/346 259/350
f 263/353 264/349 441/352
f 264/349 439/348 441/352
usemtl texture4
f 442/356 443/355 444/354
f 442/358 444/357 445/339
f 446/360 447/359 448/354
f 443/355 449/330 444/354
f 444/357 449/361 445/339
f 450/364 451/363 452/362
f 453/367 454/366 455/365
f 456/368 448/354 447/359
f 457/371 458/370 459/369
f 454/366 460/372 455/365
f 450/364 461/362 451/363
f 452/362 451/363 462/364
f 453/367 463/373 454/366
f 454/366 463/374 460/372
f 451/363 461/362 462/364
f 464/377 465/376 456/375
f 466/364 467/363 468/362
f 469/362 467/363 466/364
f 468/362 467/363 470/364
f 471/379 472/368 473/378
f 474/380 473/378 472/368
f 471/359 473/378 475/359
f 469/362 470/364 467/363
f 476/383 477/382 478/381
f 474/380 475/359 473/378
f 465/376 464/377 479/384
f 480/339 481/357 482/361
f 482/330 481/354 483/355
f 480/339 484/358 481/357
f 484/356 483/355 481/354
f 485/386 486/385 487/368
f 486/385 488/387 487/368
f 489/358 490/339 491/388
f 490/339 492/389 491/388
f 493/391 494/390 442/356
f 494/390 443/355 442/356
f 442/358 445/339 495/388
f 445/339 496/389 495/388
f 497/391 498/393 499/392
f 498/393 500/394 499/392
f 501/397 502/396 503/395
f 502/396 504/398 503/395
f 505/400 487/368 506/399
f 488/387 506/399 487/368
f 507/402 508/401 497/391
f 508/401 498/393 497/391
f 499/392 500/394 448/354
f 500/394 446/360 448/354
f 509/404 510/403 501/397
f 510/403 502/396 501/397
f 503/395 504/398 511/405
f 504/398 512/406 511/405
f 398/358 505/400 513/407
f 506/399 513/407 505/400
f 463/374 456/368 460/372
f 456/368 447/359 460/372
f 456/358 463/388 464/339
f 514/408 464/339 463/388
f 515/411 396/410 513/409
f 398/412 513/409 396/410
f 516/366 517/365 485/386
f 517/365 486/385 485/386
f 518/356 519/414 489/413
f 519/414 490/415 489/413
f 520/391 491/388 521/416
f 492/389 521/416 491/388
f 522/388 523/389 493/391
f 523/389 494/390 493/391
f 524/391 495/388 525/390
f 496/389 525/390 495/388
f 526/418 527/417 507/402
f 527/417 508/401 507/402
f 528/420 529/419 509/404
f 529/419 510/403 509/404
f 458/370 476/383 459/369
f 476/383 478/381 459/369
f 477/382 457/421 478/381
f 457/421 459/422 478/381
f 511/358 512/407 530/423
f 512/407 531/424 530/423
f 453/367 474/380 463/373
f 474/380 472/368 463/373
f 515/411 532/409 396/410
f 532/409 397/412 396/410
f 533/400 397/412 534/425
f 532/409 534/425 397/412
f 533/400 534/425 535/426
f 534/425 536/427 535/426
f 537/429 538/428 526/418
f 538/428 527/417 526/418
f 539/431 465/376 540/430
f 540/430 465/376 479/384
f 541/433 542/432 528/420
f 542/432 529/419 528/420
f 530/423 531/424 543/434
f 531/424 544/435 543/434
f 516/366 535/426 517/365
f 535/426 536/427 517/365
f 518/356 520/391 519/414
f 520/391 521/416 519/414
f 522/388 484/358 523/389
f 484/358 480/339 523/389
f 484/356 524/391 483/355
f 524/391 525/390 483/355
f 537/429 539/431 538/428
f 539/431 540/430 538/428
f 541/433 543/434 542/432
f 543/434 544/435 542/432
usemtl texture5
f 452/438 506/437 488/436
f 508/441 453/440 498/439
f 500/436 545/438 446/442
f 502/444 510/443 546/440
f 512/437 504/445 547/438
f 494/448 548/447 549/446
f 550/451 496/450 445/449
f 486/448 551/294 450/440
f 548/447 550/451 549/446
f 462/454 552/453 513/452
f 462/454 468/455 552/453
f 523/290 548/447 494/448
f 550/451 525/456 496/450
f 553/459 464/458 514/457
f 552/453 468/455 532/460
f 553/459 514/457 472/461
f 548/447 554/462 550/451
f 555/290 469/464 556/463
f 523/290 480/291 548/447
f 554/462 525/456 550/451
f 534/467 557/466 536/465
f 527/469 538/468 474/464
f 558/466 540/470 479/467
f 529/469 542/471 559/464
f 531/467 560/466 544/465
f 486/448 450/440 488/436
f 488/436 450/440 452/438
f 498/439 453/440 500/436
f 453/440 545/438 500/436
f 504/445 502/444 547/438
f 502/444 546/440 547/438
f 446/442 545/438 447/472
f 545/438 460/473 447/472
f 506/437 452/438 513/452
f 462/454 513/452 452/438
f 555/290 556/463 486/448
f 556/463 551/294 486/448
f 551/294 556/463 462/454
f 556/463 468/455 462/454
f 519/290 521/291 490/448
f 521/291 492/446 490/448
f 508/441 527/469 453/440
f 527/469 474/464 453/440
f 510/443 529/469 546/440
f 529/469 559/464 546/440
f 531/467 512/437 560/466
f 512/437 547/438 560/466
f 558/466 479/467 553/459
f 479/467 464/458 553/459
f 534/467 532/460 557/466
f 468/455 557/466 532/460
f 555/290 536/465 469/464
f 536/465 557/466 469/464
f 538/468 540/470 474/464
f 474/464 540/470 558/466
f 542/471 544/465 559/464
f 544/465 560/466 559/464
usemtl texture6
f 400/476 561/475 401/474
f 562/474 402/477 404/475
f 415/474 563/475 416/476
f 564/474 417/475 419/477
f 406/476 408/477 407/474
f 408/477 410/475 407/474
f 565/479 566/478 567/474
f 566/478 568/475 567/474
f 561/475 400/476 569/478
f 570/479 569/478 400/476
f 562/474 571/479 402/477
f 571/479 572/478 402/477
f 573/479 574/478 406/476
f 574/478 408/477 406/476
f 422/476 425/477 573/479
f 425/477 574/478 573/479
f 563/475 569/478 416/476
f 416/476 569/478 570/479
f 564/474 419/477 571/479
f 419/477 572/478 571/479
f 575/474 576/475 565/479
f 576/475 566/478 565/479
f 421/474 423/475 422/476
f 423/475 425/477 422/476
f 577/481 578/481 579/480
f 578/481 580/480 579/480
f 578/481 581/481 580/480
f 581/481 582/480 580/480
f 583/482 578/481 584/482
f 578/481 577/481 584/482
f 581/481 578/481 585/482
f 578/481 583/482 585/482
f 577/481 586/483 584/482
f 586/483 587/484 584/482
f 586/483 588/483 587/484
f 588/483 589/484 587/484
f 588/483 590/483 589/484
f 590/483 591/484 589/484
f 592/485 593/485 586/483
f 593/485 588/483 586/483
f 593/485 594/485 588/483
f 594/485 590/483 588/483
f 595/487 596/487 597/486
f 596/487 598/486 597/486
f 596/487 599/487 598/486
f 599/487 600/486 598/486
f 601/488 596/487 602/488
f 596/487 595/487 602/488
f 599/487 596/487 603/488
f 596/487 601/488 603/488
f 595/487 604/489 602/488
f 604/489 605/490 602/488
f 604/489 606/489 605/490
f 606/489 607/490 605/490
f 606/489 608/489 607/490
f 608/489 609/490 607/490
f 610/491 611/491 604/489
f 611/491 606/489 604/489
f 611/491 612/491 606/489
f 612/491 608/489 606/489
f 613/494 614/493 615/492
f 614/493 616/495 615/492
f 617/494 618/493 273/496
f 618/493 274/495 273/496
f 619/494 620/493 357/496
f 620/493 358/495 357/496
f 621/493 613/494 622/497
f 613/494 615/492 622/497
f 623/494 624/496 614/493
f 614/493 624/496 616/495
f 625/493 617/494 277/495
f 617/494 273/496 277/495
f 626/494 279/496 618/493
f 618/493 279/496 274/495
f 627/493 619/494 361/495
f 619/494 357/496 361/495
f 628/494 363/496 620/493
f 620/493 363/496 358/495
f 623/494 621/493 624/496
f 621/493 622/497 624/496
f 626/494 625/493 279/496
f 625/493 277/495 279/496
f 628/494 627/493 363/496
f 627/493 361/495 363/496
f 629/494 630/493 631/492
f 630/493 632/495 631/492
f 633/494 634/493 281/496
f 634/493 282/495 281/496
f 635/494 636/493 365/496
f 636/493 366/495 365/496
f 637/493 629/494 638/497
f 629/494 631/492 638/497
f 630/493 639/494 632/495
f 639/494 640/496 632/495
f 641/493 633/494 285/495
f 633/494 281/496 285/495
f 634/493 642/494 282/495
f 642/494 287/496 282/495
f 643/493 635/494 369/495
f 635/494 365/496 369/495
f 636/493 644/494 366/495
f 644/494 371/496 366/495
f 639/494 637/493 640/496
f 637/493 638/497 640/496
f 642/494 641/493 287/496
f 641/493 285/495 287/496
f 644/494 643/493 371/496
f 643/493 369/495 371/496
f 374/500 292/499 645/498
f 296/499 378/500 646/498
f 647/503 648/502 289/501
f 289/501 648/502 290/498
f 292/499 374/500 291/504
f 373/505 291/504 374/500
f 296/499 294/504 378/500
f 294/504 377/505 378/500
f 649/507 293/501 650/506
f 293/501 295/498 650/506
f 651/510 652/509 653/508
f 653/508 652/509 654/511
f 653/508 654/511 298/512
f 298/512 654/511 301/513
f 655/515 656/514 652/509
f 656/514 657/516 652/509
f 652/509 657/516 654/511
f 654/511 657/516 658/517
f 659/519 651/510 660/518
f 651/510 653/508 660/518
f 301/513 654/511 302/520
f 654/511 658/517 302/520
f 653/508 298/512 660/518
f 660/518 298/512 297/521
f 656/514 661/522 657/516
f 661/522 662/523 657/516
f 657/516 662/523 658/517
f 658/517 662/523 663/524
f 302/520 658/517 309/525
f 658/517 663/524 309/525
f 664/527 660/518 306/526
f 660/518 297/521 306/526
f 665/528 659/519 664/527
f 659/519 660/518 664/527
f 666/508 664/527 305/512
f 664/527 306/526 305/512
f 309/525 663/524 310/526
f 663/524 667/527 310/526
f 662/523 668/528 663/524
f 663/524 668/528 667/527
f 669/510 665/528 666/508
f 665/528 664/527 666/508
f 661/522 670/529 662/523
f 670/529 668/528 662/523
f 667/518 666/508 310/521
f 666/508 305/512 310/521
f 668/530 669/510 667/518
f 669/510 666/508 667/518
f 671/508 430/531 672/512
f 671/508 673/532 430/531
f 430/531 673/532 432/533
f 674/532 436/534 437/533
f 674/532 675/508 436/534
f 436/534 675/508 676/512
f 677/528 678/510 679/527
f 678/510 671/508 679/527
f 679/527 671/508 314/526
f 671/508 672/512 314/526
f 680/535 681/529 682/519
f 681/529 677/528 682/519
f 682/519 677/528 683/518
f 677/528 679/527 683/518
f 679/527 314/526 683/518
f 683/518 314/526 313/521
f 684/527 683/518 318/526
f 683/518 313/521 318/526
f 685/528 682/519 684/527
f 682/519 683/518 684/527
f 686/529 680/535 685/528
f 680/535 682/519 685/528
f 687/518 684/527 317/521
f 684/527 318/526 317/521
f 688/530 685/528 687/518
f 685/528 684/527 687/518
f 689/536 686/529 688/530
f 686/529 685/528 688/530
f 675/508 687/518 676/512
f 687/518 317/521 676/512
f 688/530 687/518 690/510
f 690/510 687/518 675/508
f 691/539 692/538 693/537
f 694/540 692/538 691/539
f 695/538 696/539 697/537
f 695/538 698/540 696/539
f 691/539 699/542 700/541
f 699/542 701/543 700/541
f 694/540 691/539 702/544
f 691/539 700/541 702/544
f 699/542 703/545 701/543
f 703/545 704/546 701/543
f 703/545 705/547 704/546
f 705/547 706/548 704/546
f 707/550 694/540 708/549
f 694/540 702/544 708/549
f 709/552 703/545 710/551
f 703/545 699/542 710/551
f 711/553 705/547 709/552
f 705/547 703/545 709/552
f 707/550 712/554 694/540
f 712/554 692/538 694/540
f 713/554 714/550 695/538
f 714/550 698/540 695/538
f 715/545 716/552 717/542
f 716/552 718/551 717/542
f 719/547 720/553 715/545
f 720/553 716/552 715/545
f 696/539 698/540 721/541
f 698/540 722/544 721/541
f 722/544 698/540 723/549
f 698/540 714/550 723/549
f 696/539 721/541 717/542
f 717/542 721/541 724/543
f 715/545 717/542 725/546
f 717/542 724/543 725/546
f 719/547 715/545 726/548
f 715/545 725/546 726/548
f 727/557 728/556 729/555
f 730/560 731/559 732/558
f 733/563 734/562 735/561
f 734/562 736/564 735/561
f 737/566 738/556 739/565
f 738/556 740/555 739/565
f 741/565 729/555 742/566
f 729/555 728/556 742/566
f 742/569 728/568 743/567
f 728/568 744/570 743/567
f 736/564 745/571 735/561
f 735/561 745/571 746/572
f 735/566 746/573 737/566
f 746/573 747/573 737/566
f 738/556 737/566 748/574
f 737/566 747/573 748/574
f 740/555 749/575 739/565
f 739/565 749/575 750/576
f 739/565 750/576 741/565
f 750/576 751/576 741/565
f 729/555 741/565 752/575
f 741/565 751/576 752/575
f 744/579 753/578 743/577
f 753/578 754/580 743/577
f 727/582 753/581 728/568
f 728/568 753/581 744/570
f 754/567 753/581 755/569
f 753/581 727/582 755/569
f 756/584 736/564 757/583
f 736/564 734/562 757/583
f 736/564 756/584 745/571
f 758/585 745/571 756/584
f 759/587 738/556 760/586
f 760/586 738/556 748/574
f 759/587 761/588 738/556
f 761/588 740/555 738/556
f 740/555 761/588 749/575
f 762/589 749/575 761/588
f 731/559 729/555 763/590
f 729/555 752/575 763/590
f 729/555 731/559 727/557
f 727/557 731/559 730/560
f 764/569 730/582 765/567
f 730/582 766/581 765/567
f 730/582 732/591 766/581
f 732/591 767/592 766/581
f 766/578 767/579 765/580
f 767/579 768/577 765/580
f 756/584 769/593 758/585
f 769/593 770/594 758/585
f 770/595 769/596 771/595
f 769/596 772/596 771/595
f 759/558 760/597 772/596
f 760/597 771/595 772/596
f 761/559 773/598 762/590
f 773/598 774/599 762/590
f 774/599 773/598 775/599
f 773/598 776/598 775/599
f 731/559 763/590 776/598
f 763/590 775/599 776/598
f 757/583 777/600 756/584
f 777/600 769/593 756/584
f 759/558 772/596 761/559
f 772/596 773/598 761/559
f 731/559 776/598 732/558
f 776/598 778/596 732/558
f 732/591 778/569 767/592
f 778/569 768/567 767/592
f 382/603 380/602 323/601
f 380/602 321/604 323/601
f 322/602 779/604 324/603
f 324/603 779/604 780/601
f 328/603 326/602 381/601
f 326/602 379/604 381/601
f 781/603 782/602 327/601
f 782/602 325/604 327/601
f 783/603 332/601 784/602
f 332/601 330/604 784/602
f 331/603 386/601 329/602
f 386/601 384/604 329/602
f 785/601 786/604 335/603
f 335/603 786/604 333/602
f 385/603 336/601 383/602
f 336/601 334/604 383/602
f 390/602 338/604 389/603
f 389/603 338/604 337/601
f 340/602 787/604 339/603
f 339/603 787/604 788/601
f 344/602 388/604 343/603
f 343/603 388/604 387/601
f 789/602 342/604 790/603
f 790/603 342/604 341/601
f 345/601 347/604 791/603
f 791/603 347/604 792/602
f 391/601 393/604 346/603
f 346/603 393/604 348/602
f 793/601 794/604 350/603
f 350/603 794/604 352/602
f 349/601 351/604 392/603
f 392/603 351/604 394/602
usemtl texture7
f 265/275 267/273 795/605
f 266/274 796/606 268/276
f 270/274 269/276 797/606
f 798/605 271/273 272/275
usemtl texture8
f 354/274 268/276 799/606
f 795/605 267/273 353/275
f 355/275 800/273 798/605
f 356/274 801/606 269/276
f 376/271 374/269 645/607
f 802/608 373/331 375/330
f 377/331 802/608 375/330
f 378/269 376/271 646/607
usemtl texture9
f 615/279 616/278 803/277
f 616/278 804/280 803/277
f 622/282 615/279 805/281
f 615/279 803/277 805/281
f 624/284 806/283 616/278
f 616/278 806/283 804/280
f 624/284 622/282 806/283
f 622/282 805/281 806/283
f 631/279 632/278 807/277
f 632/278 808/280 807/277
f 638/282 631/279 809/281
f 631/279 807/277 809/281
f 632/278 640/284 808/280
f 640/284 810/283 808/280
f 640/284 638/282 810/283
f 638/282 809/281 810/283
f 298/290 301/291 300/292
f 300/292 301/291 303/289
f 310/290 305/291 312/292
f 305/291 307/289 312/292
f 314/291 672/290 316/289
f 672/290 430/292 316/289
f 317/290 319/292 676/291
f 676/291 319/292 436/289
f 704/611 702/610 701/609
f 702/610 700/612 701/609
f 706/613 708/295 704/611
f 708/295 702/610 704/611
f 722/610 725/611 721/612
f 725/611 724/609 721/612
f 723/295 726/613 722/610
f 726/613 725/611 722/610
f 811/616 812/615 813/614
f 812/615 814/617 813/614
f 815/616 816/615 817/606
f 816/615 818/618 817/606
f 819/621 814/620 820/619
f 814/620 812/622 820/619
f 821/624 818/623 822/619
f 818/623 816/622 822/619
f 820/619 823/625 819/621
f 823/625 824/626 819/621
f 822/619 825/625 821/624
f 825/625 826/627 821/624
f 827/294 782/295 828/296
f 828/296 782/295 781/293
f 827/294 828/296 829/295
f 828/296 830/293 829/295
f 784/294 829/295 783/296
f 830/293 783/296 829/295
f 831/293 832/295 790/296
f 832/295 789/294 790/296
f 791/296 792/294 833/293
f 833/293 792/294 612/295
usemtl texture10
f 733/630 777/629 734/628
f 777/629 757/631 734/628
f 323/634 834/633 382/632
f 834/633 323/634 324/635
f 834/633 381/636 382/632
f 780/637 834/633 324/635
f 381/636 834/633 328/638
f 835/639 834/633 780/637
f 834/633 327/640 328/638
f 327/640 834/633 781/641
f 836/642 834/633 835/639
f 834/633 828/643 781/641
f 837/646 783/645 830/644
f 838/648 839/647 837/646
f 332/649 783/645 837/646
f 839/647 785/650 837/646
f 837/646 331/651 332/649
f 386/652 331/651 837/646
f 785/650 335/653 837/646
f 837/646 385/654 386/652
f 837/646 335/653 336/655
f 336/655 385/654 837/646
f 838/648 837/646 836/642
f 837/646 834/633 836/642
f 837/646 830/644 834/633
f 830/644 828/643 834/633
f 337/634 840/633 389/632
f 840/633 387/636 389/632
f 840/633 337/634 339/635
f 788/637 840/633 339/635
f 387/636 840/633 343/638
f 840/633 341/640 343/638
f 841/639 840/633 788/637
f 341/640 840/633 790/641
f 842/642 840/633 841/639
f 840/633 831/643 790/641
f 843/646 791/645 833/644
f 844/648 845/647 843/646
f 345/649 791/645 843/646
f 845/647 793/650 843/646
f 843/646 346/651 345/649
f 391/652 346/651 843/646
f 793/650 350/653 843/646
f 843/646 350/653 349/655
f 843/646 392/654 391/652
f 349/655 392/654 843/646
f 844/648 843/646 842/642
f 843/646 840/633 842/642
f 843/646 833/644 840/633
f 833/644 831/643 840/633
g obj1
usemtl mat1
f 846/658 847/657 848/656
f 846/658 849/659 847/657
f 850/662 851/661 852/660
f 852/660 851/661 853/663
f 846/658 851/661 849/659
f 851/661 850/662 849/659
f 854/666 855/665 856/664
f 857/668 858/664 859/667
f 860/671 861/670 862/669
f 861/670 863/672 862/669
f 864/671 865/670 866/669
f 865/670 867/672 866/669
f 868/671 869/670 870/669
f 869/670 871/672 870/669
f 872/670 860/671 873/672
f 862/669 873/672 860/671
f 874/670 864/671 875/672
f 866/669 875/672 864/671
f 865/670 876/671 867/672
f 876/671 877/669 867/672
f 878/670 868/671 879/672
f 870/669 879/672 868/671
f 869/670 880/671 871/672
f 880/671 881/669 871/672
f 861/670 882/671 863/672
f 882/671 883/669 863/672
f 882/671 872/670 883/669
f 873/672 883/669 872/670
f 876/671 874/670 877/669
f 874/670 875/672 877/669
f 880/671 878/670 881/669
f 878/670 879/672 881/669
f 855/665 859/667 856/664
f 858/664 856/664 859/667
f 884/671 885/673 886/669
f 885/673 887/672 886/669
f 888/671 889/673 890/669
f 890/669 889/673 891/672
f 892/671 893/673 894/669
f 894/669 893/673 895/672
f 896/673 884/671 897/672
f 884/671 886/669 897/672
f 885/673 898/674 887/672
f 899/669 887/672 898/674
f 900/673 888/671 901/672
f 888/671 890/669 901/672
f 889/673 902/674 891/672
f 903/669 891/672 902/674
f 904/673 892/671 905/672
f 892/671 894/669 905/672
f 893/673 906/674 895/672
f 895/672 906/674 907/669
f 898/674 896/673 899/669
f 897/672 899/669 896/673
f 902/674 900/673 903/669
f 900/673 901/672 903/669
f 906/674 904/673 907/669
f 904/673 905/672 907/669
usemtl mat2
f 847/676 849/675 908/294
f 849/675 909/295 908/294
f 850/675 852/676 910/295
f 852/676 911/294 910/295
f 912/679 913/678 914/677
f 913/678 915/680 914/677
f 913/678 916/681 915/680
f 916/681 917/682 915/680
f 916/681 918/683 917/682
f 918/683 919/684 917/682
f 918/683 854/685 919/684
f 854/685 856/686 919/684
f 920/679 921/677 922/678
f 921/677 923/680 922/678
f 922/678 923/680 924/681
f 923/680 925/682 924/681
f 924/681 925/682 926/683
f 925/682 927/684 926/683
f 926/683 927/684 857/685
f 927/684 858/686 857/685
usemtl mat3
f 848/689 847/688 928/687
f 847/688 908/690 928/687
f 852/693 853/692 911/691
f 853/692 929/694 911/691
f 914/697 915/696 860/695
f 865/699 915/696 917/698
f 869/701 917/698 919/700
f 865/699 917/698 868/702
f 860/695 915/696 861/703
f 861/703 915/696 864/704
f 864/704 915/696 865/699
f 868/702 917/698 869/701
f 930/707 931/706 932/705
f 933/707 934/706 935/705
f 936/707 937/706 938/705
f 914/697 860/695 872/708
f 930/707 939/709 931/706
f 934/706 940/710 935/705
f 933/707 941/709 934/706
f 937/706 942/710 938/705
f 936/707 943/709 937/706
f 932/705 931/706 944/710
f 931/706 939/709 944/710
f 934/706 941/709 940/710
f 937/706 943/709 942/710
f 945/705 946/707 947/706
f 948/707 949/706 950/705
f 951/707 952/706 953/705
f 945/705 947/706 954/710
f 947/706 946/707 955/709
f 956/710 950/705 949/706
f 957/709 949/706 948/707
f 958/710 953/705 952/706
f 959/709 952/706 951/707
f 921/713 884/712 896/711
f 954/710 947/706 955/709
f 956/710 949/706 957/709
f 958/710 952/706 959/709
f 960/715 896/711 898/714
f 960/715 898/714 900/716
f 900/716 902/717 923/715
f 925/719 902/717 904/718
f 925/719 904/718 906/720
f 921/713 896/711 923/715
f 960/715 902/717 925/719
f 906/720 927/721 925/719
f 864/704 874/722 861/703
f 874/722 882/723 861/703
f 868/702 878/724 865/699
f 878/724 876/725 865/699
f 914/697 872/708 921/713
f 872/708 884/712 921/713
f 872/708 882/723 884/712
f 882/723 885/726 884/712
f 885/726 882/723 888/727
f 882/723 874/722 888/727
f 888/727 874/722 889/728
f 874/722 876/725 889/728
f 889/728 876/725 892/729
f 876/725 878/724 892/729
f 892/729 878/724 893/730
f 878/724 880/731 893/730
f 898/714 885/726 900/716
f 885/726 888/727 900/716
f 902/717 889/728 904/718
f 889/728 892/729 904/718
usemtl mat4
f 869/734 919/733 856/732
f 869/734 856/732 880/735
f 893/738 858/737 906/736
f 906/736 858/737 927/739
f 880/735 856/732 893/738
f 856/732 858/737 893/738
# 1386 elements

