# Created by Metasequoia

mtllib Emperor32.mtl

v -1750.000000 172.359268 500.000000
v -1724.444824 172.359268 694.114075
v -1500.000000 172.359268 500.000000
v -1482.963135 172.359268 629.409363
v -1724.443848 172.359268 305.885803
v -1482.962646 172.359268 370.590485
v -1649.520020 172.359268 874.999878
v -1433.013428 172.359268 749.999878
v -1649.517822 172.359268 125.000092
v -1433.012207 172.359268 250.000107
v -1530.331543 172.359268 1030.329956
v -1353.553955 172.359268 853.553284
v -1530.328735 172.359268 -30.330080
v -1353.552246 172.359268 146.446686
v -1375.001831 172.359268 1149.518921
v -1250.001221 172.359268 933.012573
v -1374.998413 172.359268 -149.518921
v -1249.999023 172.359268 66.987396
v -1194.116211 172.359268 1224.444214
v -1129.410400 172.359268 982.962769
v -1194.112427 172.359268 -224.443970
v -1129.407959 172.359268 17.037291
v -1000.001953 172.359268 1249.999756
v -1000.001343 172.359268 999.999878
v -999.998169 172.359268 -249.999878
v -999.998840 172.359268 0.000090
v -805.887634 172.359268 1224.444214
v -870.592041 172.359268 982.962769
v -805.883911 172.359268 -224.444275
v -870.589661 172.359268 17.037109
v -625.001709 172.359268 1149.518921
v -750.001160 172.359268 933.012573
v -624.998413 172.359268 -149.518982
v -749.999023 172.359268 66.987396
v -469.671326 172.359268 1030.330078
v -646.447754 172.359268 853.553284
v -469.668640 172.359268 -30.330021
v -646.445435 172.359268 146.446686
v -350.481934 172.359268 874.999878
v -566.987915 172.359268 749.999878
v -350.480133 172.359268 125.000092
v -566.986755 172.359268 250.000107
v -275.556030 172.359268 694.114197
v -517.037415 172.359268 629.409485
v -275.555634 172.359268 305.885803
v -517.036865 172.359268 370.590485
v -249.999741 172.359268 500.000000
v -500.000031 172.359268 500.000000
v -249.999832 142.359268 490.000000
v -499.999847 142.359268 490.000000
v -249.999832 162.359268 490.000000
v -499.999847 162.359268 490.000000
v -499.999847 142.359268 509.999908
v -249.999832 142.359268 509.999908
v -499.999847 162.359268 509.999908
v -249.999832 162.359268 509.999908
v -476.740875 142.359268 -37.401070
v -653.517517 142.359268 139.375565
v -476.740875 162.359268 -37.401070
v -653.517517 162.359268 139.375565
v -462.598755 162.359268 -23.258930
v -639.375366 162.359268 153.517700
v -1009.999817 142.359268 -249.999878
v -1009.999817 142.359268 0.000090
v -1009.999817 162.359268 -249.999878
v -1009.999817 162.359268 0.000090
v -989.999817 162.359268 -249.999878
v -989.999817 162.359268 0.000090
v -989.999817 142.359268 0.000090
v -989.999817 142.359268 -249.999878
v -1537.401123 142.359268 -23.259010
v -1360.624390 142.359268 153.517685
v -1537.401123 162.359268 -23.259010
v -1360.624390 162.359268 153.517685
v -1523.259033 162.359268 -37.401150
v -1346.482300 162.359268 139.375549
v -1346.482300 142.359268 139.375549
v -1523.259033 142.359268 -37.401150
v -1499.999756 142.359268 490.000000
v -1749.999756 142.359268 490.000000
v -1499.999756 162.359268 490.000000
v -1749.999756 162.359268 490.000000
v -1749.999756 142.359268 509.999908
v -1499.999756 142.359268 509.999908
v -1749.999756 162.359268 509.999908
v -1499.999756 162.359268 509.999908
v -653.517639 142.359268 860.624451
v -476.740967 142.359268 1037.401123
v -653.517639 162.359268 860.624451
v -476.740967 162.359268 1037.401123
v -462.598907 162.359268 1023.258972
v -639.375549 162.359268 846.482300
v -462.598907 142.359268 1023.258972
v -639.375549 142.359268 846.482300
v -639.375366 142.359268 153.517700
v -462.598755 142.359268 -23.258930
v -1360.624146 142.359268 846.482239
v -1537.400879 142.359268 1023.258911
v -1360.624146 162.359268 846.482239
v -1537.400879 162.359268 1023.258911
v -1523.258911 162.359268 1037.401245
v -1346.482056 162.359268 860.624390
v -1523.258911 142.359268 1037.401245
v -1346.482056 142.359268 860.624390
v -1009.999817 142.359268 999.999878
v -1009.999817 142.359268 1249.999878
v -1009.999817 162.359268 999.999878
v -1009.999817 162.359268 1249.999878
v -989.999817 162.359268 1249.999878
v -989.999817 162.359268 999.999878
v -989.999817 142.359268 1249.999878
v -989.999817 142.359268 999.999878
v -502.000061 -332.748810 410.484222
v -517.833008 71.798317 410.484222
v -349.571411 -292.989929 410.484222
v -409.209808 42.692841 410.484131
v -502.000061 -332.748810 589.515869
v -349.571411 -292.989929 589.515808
v -517.833008 71.798317 589.515869
v -409.209808 42.692841 589.515808
v -1590.790161 42.692841 410.484131
v -1650.428467 -292.989929 410.484131
v -1590.790161 42.692841 589.515808
v -1650.428467 -292.989929 589.515808
v -1497.999756 -332.748810 410.484131
v -1482.166870 71.798317 410.484131
v -1497.999756 -332.748810 589.515808
v -1482.166870 71.798317 589.515808
v -1019.999756 93.359367 1489.999634
v -1019.999756 15.359380 1489.999512
v -1019.999756 93.359367 1574.913208
v -1019.999756 15.359380 1574.913208
v -1019.999756 176.359268 1522.737915
v -1019.999756 176.359268 1489.999634
v -979.999756 15.359380 1574.913208
v -979.999756 15.359380 1489.999512
v -979.999756 93.359367 1574.913208
v -979.999756 93.359367 1489.999512
v -979.999756 176.359268 1522.737915
v -979.999756 176.359268 1489.999512
v -1019.999756 218.359177 1489.999512
v -979.999756 218.359177 1489.999512
v -1019.999756 15.359380 -574.913208
v -1019.999756 15.359380 -490.000122
v -1019.999756 93.359367 -574.913208
v -1019.999756 93.359367 -490.000122
v -1019.999756 176.359268 -522.738403
v -1019.999756 176.359268 -490.000122
v -979.999756 93.359367 -490.000122
v -979.999756 15.359380 -490.000122
v -979.999756 93.359367 -574.913208
v -979.999756 15.359380 -574.913208
v -979.999756 176.359268 -522.738403
v -979.999756 176.359268 -490.000122
v -1019.999756 218.359268 -490.000122
v -979.999756 218.359268 -490.000122
v -1724.445068 172.359268 305.885803
v -1750.000244 172.359268 500.000000
v -1693.700928 15.146970 314.123596
v -1718.171631 15.146970 500.000000
v -1724.444092 172.359268 694.114075
v -1693.699951 15.146970 685.876282
v -1649.520020 172.359268 125.000092
v -1621.955322 15.146970 140.914398
v -1649.518311 172.359268 874.999756
v -1621.954346 15.146970 859.085571
v -1530.331299 172.359268 -30.329901
v -1507.825439 15.146970 -7.823790
v -1530.329224 172.359268 1030.329834
v -1507.822998 15.146970 1007.823792
v -1375.001587 172.359268 -149.518799
v -1359.087402 15.146970 -121.954590
v -1374.998657 172.359268 1149.518921
v -1359.084351 15.146970 1121.954712
v -1194.116211 172.359268 -224.443970
v -1185.877930 15.146970 -193.700073
v -1194.112915 172.359268 1224.444214
v -1185.875244 15.146970 1193.700317
v -1000.002014 172.359268 -249.999878
v -1000.001709 15.146970 -218.171387
v -999.998413 172.359268 1249.999756
v -999.998535 15.146970 1218.171265
v -805.887756 172.359268 -224.444214
v -814.125610 15.146970 -193.700317
v -805.884216 172.359268 1224.444214
v -814.121948 15.146970 1193.700317
v -625.001709 172.359268 -149.518921
v -640.916260 15.146970 -121.954712
v -624.998657 172.359268 1149.518921
v -640.913147 15.146970 1121.954712
v -469.671448 172.359268 -30.330021
v -492.177246 15.146970 -7.823910
v -469.668945 172.359268 1030.329834
v -492.175049 15.146970 1007.823792
v -350.482025 172.359268 125.000092
v -378.046234 15.146970 140.914307
v -350.480347 172.359268 874.999878
v -378.044525 15.146970 859.085693
v -275.556427 172.359268 305.885803
v -306.300842 15.146970 314.123596
v -275.555450 172.359268 694.114197
v -306.299042 15.146970 685.876404
v -250.000244 172.359268 500.000000
v -281.828644 15.146970 500.000000
v -969.925842 -279.233826 1128.395386
v -1030.073853 -279.233826 1128.395386
v -969.925842 -31.469730 1128.395386
v -1030.073853 -31.469730 1128.395386
v -969.925537 93.337173 1206.850708
v -1030.073730 93.337173 1206.850708
v -969.926025 156.492462 1256.079346
v -1030.074219 156.492462 1256.079346
v -1030.073853 -279.233826 -128.396118
v -969.925842 -279.233826 -128.396118
v -1030.073853 -31.469730 -128.396118
v -969.925842 -31.469730 -128.396118
v -969.925842 93.337173 -206.851074
v -1030.073853 93.337173 -206.851074
v -1030.073853 156.492462 -256.080200
v -969.925842 156.492462 -256.080200
v -1030.074219 -279.233826 1256.079346
v -1030.074219 -31.469730 1256.079346
v -1030.074219 93.337173 1256.079346
v -969.925537 -31.469730 1256.079224
v -969.926025 -279.233826 1256.079346
v -969.925537 93.337173 1256.079224
v -1030.073853 -31.469730 -256.079712
v -1030.073853 -279.233826 -256.080200
v -1030.073853 93.337173 -256.079712
v -969.925842 -279.233826 -256.080200
v -969.925842 -31.469730 -256.080200
v -969.925842 93.337173 -256.080200
v -1507.624756 12.359380 363.982300
v -1525.532227 12.359380 500.000000
v -1482.962646 172.359268 370.590485
v -1499.999756 172.359268 500.000000
v -1507.624756 12.359380 636.017700
v -1482.962646 172.359268 629.409363
v -1455.124023 12.359380 237.234100
v -1433.012451 172.359268 250.000107
v -1455.124023 12.359380 762.765869
v -1433.012451 172.359268 749.999878
v -1371.606934 12.359380 128.392792
v -1353.553223 172.359268 146.446686
v -1371.606934 12.359380 871.607178
v -1353.553223 172.359268 853.553284
v -1262.766113 12.359380 44.875889
v -1249.999756 172.359268 66.987488
v -1262.766113 12.359380 955.124084
v -1249.999756 172.359268 933.012573
v -1136.017334 12.359380 -7.624790
v -1129.409424 172.359268 17.037291
v -1136.017334 12.359380 1007.625000
v -1129.409424 172.359268 982.962769
v -999.999817 12.359380 -25.532101
v -999.999817 172.359268 0.000090
v -999.999817 12.359380 1025.532104
v -999.999817 172.359268 999.999878
v -863.982361 12.359380 -7.625090
v -870.590454 172.359268 17.037201
v -863.982361 12.359380 1007.625000
v -870.590454 172.359268 982.962769
v -737.233765 12.359380 44.875889
v -749.999817 172.359268 66.987396
v -737.233765 12.359380 955.124084
v -749.999817 172.359268 933.012573
v -628.392761 12.359380 871.607178
v -646.446655 172.359268 853.553284
v -628.392456 12.359380 128.392792
v -646.446411 172.359268 146.446686
v -544.875610 12.359380 762.766113
v -566.987244 172.359268 749.999878
v -544.875610 12.359380 237.233887
v -566.987244 172.359268 250.000107
v -492.375153 12.359380 363.982300
v -517.037048 172.359268 370.590485
v -492.374634 12.359380 636.017700
v -517.037048 172.359268 629.409485
v -474.467651 12.359380 500.000000
v -499.999847 172.359268 500.000000
v -2055.752930 15.146970 500.000000
v -2050.507813 93.359367 500.000000
v -2019.778809 15.146970 226.751099
v -2014.712402 93.359367 228.108704
v -2019.778809 15.146970 773.248901
v -2014.712402 93.359367 771.891174
v -1965.925537 172.359268 241.181091
v -1999.999756 172.359268 500.000000
v -1965.925537 172.359268 758.818909
v -1914.308350 15.146970 -27.876280
v -2019.778809 -47.640629 226.751099
v -1914.308350 -47.640629 -27.876280
v -1914.308472 15.146970 1027.876221
v -1914.307617 -47.640629 1027.876221
v -2019.778809 -47.640629 773.248901
v -1909.765991 93.359367 -25.253599
v -1909.766113 93.359367 1025.253662
v -1866.025146 172.359268 0.000210
v -1866.025146 172.359268 999.999756
v -1905.554932 172.359268 257.357178
v -1965.925537 176.359161 241.181091
v -1905.554932 176.359161 257.357178
v -1965.925537 176.359161 758.818787
v -1905.554932 172.359268 742.642822
v -1905.554932 176.359161 742.642700
v -1866.025146 176.359161 999.999756
v -1866.024902 176.359161 0.000210
v -1764.833740 15.146970 295.063385
v -1764.833740 -47.640629 295.063385
v -1764.833740 15.146970 704.936584
v -1764.833740 -47.640629 704.936584
v -1811.898438 172.359268 968.749756
v -1811.898438 176.359161 968.749756
v -1811.898438 172.359268 31.250210
v -1811.897949 176.359161 31.250210
v -1746.529663 15.146970 1246.529785
v -1742.820801 93.359367 1242.820923
v -1746.529541 15.146970 -246.529724
v -1742.820679 93.359367 -242.820801
v -1707.106445 172.359268 1207.106567
v -1707.106323 172.359268 -207.106628
v -1685.731445 15.146970 104.092796
v -1685.731445 -47.640629 104.092796
v -1685.731445 15.146970 895.907166
v -1685.731445 -47.640629 895.907166
v -1707.106445 176.359161 1207.106567
v -1707.106323 176.359161 -207.106628
v -1662.912476 172.359268 1162.912354
v -1662.912476 176.359161 1162.912354
v -1662.911987 172.359268 -162.912476
v -1662.911987 176.359161 -162.912476
v -1527.876343 15.146970 1414.308472
v -1525.253906 93.359367 1409.766113
v -1527.876099 15.146970 -414.308472
v -1525.253418 93.359367 -409.766113
v -1499.999878 172.359268 1366.025146
v -1499.999634 172.359268 -366.025085
v -1499.999878 176.359161 1366.025146
v -1499.999634 176.359161 -366.025085
v -1468.749878 172.359268 1311.898560
v -1468.749878 176.359161 1311.898560
v -1468.749634 172.359268 -311.898621
v -1468.749634 176.359161 -311.898621
v -1273.249023 15.146970 1519.778809
v -1271.891357 93.359367 1514.712402
v -1273.248535 15.146970 -519.778809
v -1271.890991 93.359367 -514.712097
v -1258.818970 172.359268 1465.925659
v -1258.818726 172.359268 -465.925476
v -1258.819336 176.359161 1465.925659
v -1258.818481 176.359161 -465.925476
v -1242.642822 172.359268 1405.555298
v -1242.642822 176.359161 1405.555420
v -1242.642700 172.359268 -405.555115
v -1242.642334 176.359161 -405.555115
v -1204.936646 15.146970 1264.834106
v -1273.249023 -47.640629 1519.778809
v -1204.936157 -47.640629 1264.834106
v -1273.248535 -47.640629 -519.778809
v -1204.936523 15.146970 -264.833923
v -1204.936523 -47.640629 -264.833923
v -999.999817 15.146970 1555.752563
v -999.999817 -47.640629 1555.752563
v -999.999817 15.146970 -555.752930
v -999.999817 -47.640629 -555.752930
v -999.999817 93.359367 1550.507446
v -999.999817 93.359367 -550.507813
v -999.999817 172.359268 1499.999756
v -999.999817 172.359268 -499.999878
v -1000.000366 176.359161 1499.999756
v -999.999817 176.359161 -499.999878
v -999.999817 172.359268 1437.499756
v -999.999817 176.359161 1437.499878
v -999.999817 172.359268 -437.499878
v -999.999634 176.359161 -437.499878
v -999.999817 15.146970 -291.814575
v -999.999817 -47.640629 -291.814575
v -999.999817 15.146970 1291.814453
v -999.999634 -47.640629 1291.814453
v -795.063110 15.146970 -264.834229
v -795.063110 -47.640629 -264.834229
v -795.063110 15.146970 1264.834106
v -795.063110 -47.640629 1264.834106
v -757.357056 172.359268 1405.555420
v -757.357361 176.359161 1405.555420
v -757.357056 172.359268 -405.555420
v -757.357056 176.359161 -405.555420
v -741.180847 172.359268 1465.925781
v -741.181213 176.359161 1465.925781
v -741.180847 172.359268 -465.925720
v -741.181030 176.359161 -465.925720
v -728.108521 93.359367 -514.712402
v -728.108521 93.359367 1514.712402
v -726.750854 15.146970 1519.778809
v -726.750854 15.146970 -519.778809
v -726.750854 -47.640629 1519.778809
v -726.750854 -47.640629 -519.778809
v -531.249817 172.359268 1311.898682
v -531.249817 176.359161 1311.898804
v -531.249817 172.359268 -311.898926
v -531.249634 176.359161 -311.898621
v -499.999847 172.359268 1366.025391
v -499.999847 176.359161 1366.025391
v -499.999634 176.359161 -366.025330
v -499.999847 172.359268 -366.025330
v -474.745941 93.359367 -409.766296
v -474.745941 93.359367 1409.766113
v -472.123444 15.146970 -414.308472
v -472.123444 15.146970 1414.308716
v -337.087341 172.359268 1162.912476
v -337.087341 176.359161 1162.912476
v -337.087341 172.359268 -162.912476
v -337.087341 176.359161 -162.912476
v -292.893250 172.359268 1207.106689
v -292.893250 176.359161 1207.106689
v -292.893250 172.359268 -207.106628
v -292.893250 176.359161 -207.106628
v -257.178833 93.359367 1242.820923
v -257.178833 93.359367 -242.820984
v -253.470139 15.146970 -246.530029
v -253.470139 15.146970 1246.529907
v -235.165634 15.146970 295.063385
v -314.268433 15.146970 104.092712
v -235.166138 -47.640629 295.063385
v -314.268433 -47.640629 104.092712
v -314.268433 15.146970 895.907227
v -235.165634 15.146970 704.936584
v -314.268951 -47.640629 895.907227
v -235.165634 -47.640629 704.936707
v -188.101242 172.359268 968.749878
v -188.101242 176.359161 968.749878
v -188.100937 172.359268 31.250090
v -188.100937 176.359161 31.250090
v -133.974533 172.359268 0.000090
v -133.974533 176.359161 0.000090
v -133.974533 172.359268 999.999878
v -133.974533 176.359161 999.999878
v -85.691338 15.146970 1027.876465
v -85.691742 -47.640629 1027.876465
v -85.691338 15.146970 -27.876400
v -85.691338 -47.640629 -27.876400
v -90.233543 93.359367 -25.253719
v -90.233543 93.359367 1025.253784
v -94.444443 172.359268 742.642822
v -94.444443 176.359161 742.642822
v -94.444443 172.359268 257.357178
v -94.444443 176.359161 257.357178
v 19.778860 15.146970 226.751099
v 19.778360 -47.640629 226.751099
v 19.778860 15.146970 773.248901
v 19.778860 -47.640629 773.249023
v -34.074139 172.359268 758.818909
v -34.074139 176.359161 758.818909
v -34.074139 172.359268 241.181091
v -34.074139 176.359161 241.181091
v 14.712460 93.359367 228.108704
v 14.712460 93.359367 771.891296
v 50.507858 93.359367 500.000000
v 0.000060 172.359268 500.000000
v 55.752960 15.146970 500.000000
v -1866.025146 176.359161 999.999878
v -1662.912476 176.359161 1162.912476
v -1258.819336 176.359161 1465.925781
v -1000.000366 176.359268 1499.999756
v -999.999817 176.359268 1437.499878
v -133.974533 176.359161 1000.000000
v -94.444542 176.359161 742.642883
v -1999.999756 172.359268 500.000000
v -1965.925537 172.359268 758.818909
v -1937.499756 172.359268 500.000000
v -1905.555054 172.359268 742.642761
v -1965.925537 172.359268 241.181000
v -1905.555054 172.359268 257.357178
v 0.000060 172.359268 500.000000
v -34.074139 172.359268 241.180908
v -62.499840 172.359268 500.000000
v -94.444443 172.359268 257.357178
v -34.074139 172.359268 758.818909
v -94.444443 172.359268 742.642822
v -1845.185059 172.359268 273.533295
v -1874.999634 172.359268 500.000000
v -1845.185059 172.359268 726.466492
v -1811.898438 172.359268 968.749756
v -1757.771729 172.359268 937.499756
v -1811.898438 172.359268 31.250090
v -1757.771729 172.359268 62.500092
v -1874.999756 172.359268 500.000000
v -1724.444336 172.359268 305.885803
v -1749.999756 172.359268 500.000000
v -1724.444336 172.359268 694.114075
v -1649.519043 172.359268 125.000092
v -1649.519043 172.359268 874.999878
v -1662.912476 172.359268 1162.912354
v -1618.718140 172.359268 1118.718262
v -1662.911987 172.359268 -162.912415
v -1618.718018 172.359268 -118.718323
v -1530.329956 172.359268 1030.329956
v -1530.329712 172.359268 -30.330080
v -1468.750366 172.359268 1311.898682
v -1437.500244 172.359268 1257.771973
v -1468.749634 172.359268 -311.898621
v -1437.499634 172.359268 -257.771973
v -1374.999878 172.359268 1149.518921
v -1374.999634 172.359268 -149.518921
v -1242.642822 172.359268 1405.555298
v -1226.466553 172.359268 1345.184814
v -1242.642334 172.359268 -405.555115
v -1226.466431 172.359268 -345.184814
v -1194.114258 172.359268 1224.444214
v -1194.114136 172.359268 -224.444092
v -999.999817 172.359268 1437.499756
v -999.999817 172.359268 1374.999756
v -999.999634 172.359268 -437.499878
v -999.999817 172.359268 -374.999878
v -1000.000122 172.359268 -250.000000
v -999.999817 172.359268 1249.999878
v -773.533325 172.359268 -345.184998
v -805.885620 172.359268 -224.444275
v -773.533325 172.359268 1345.184937
v -805.885620 172.359268 1224.444214
v -757.357361 172.359268 1405.555298
v -757.357056 172.359268 -405.555420
v -562.499756 172.359268 -257.772095
v -624.999634 172.359268 -149.518982
v -562.499817 172.359268 1257.772095
v -624.999817 172.359268 1149.518921
v -531.250122 172.359268 1311.898804
v -531.249756 172.359268 -311.898682
v -381.281647 172.359268 1118.718262
v -469.669830 172.359268 1030.330078
v -381.281647 172.359268 -118.718323
v -469.669830 172.359268 -30.330021
v -337.087341 172.359268 1162.912476
v -337.087341 172.359268 -162.912476
v -242.227646 172.359268 62.500092
v -350.481140 172.359268 125.000092
v -242.227646 172.359268 937.499756
v -350.480835 172.359268 874.999878
v -188.100937 172.359268 31.250090
v -188.100937 172.359268 968.749756
v -154.814743 172.359268 273.533386
v -275.555542 172.359268 305.885803
v -154.814835 172.359268 726.466614
v -275.555542 172.359268 694.114197
v -124.999840 172.359268 500.000000
v -249.999832 172.359268 500.000000
v -1866.024902 176.359161 0.000210
v -1965.925537 176.359161 241.181091
v -1811.897949 176.359161 31.250210
v -1905.554932 176.359161 257.357178
v -1707.106323 176.359161 -207.106628
v -1662.911987 176.359161 -162.912476
v -1499.999634 176.359161 -366.025085
v -1468.749634 176.359161 -311.898621
v -1258.818481 176.359161 -465.925720
v -1242.642334 176.359161 -405.555420
v -999.999817 176.359161 -499.999878
v -999.999634 176.359161 -437.499878
v -741.181030 176.359161 -465.925476
v -757.357056 176.359161 -405.555115
v -499.999634 176.359161 -366.025330
v -531.249634 176.359161 -311.898621
v -292.893250 176.359161 -207.106628
v -337.087341 176.359161 -162.912476
v -133.974442 176.359268 -0.000090
v -188.100937 176.359268 31.250090
v -34.074039 176.359161 241.181000
v -94.444443 176.359161 257.357117
v -1482.962769 172.359283 370.590698
v -1499.999878 172.359283 500.000214
v -1446.965698 172.359283 380.236206
v -1462.732910 172.359283 500.000214
v -1482.962769 172.359283 629.409119
v -1446.965698 172.359283 619.763794
v -1433.012573 172.359283 250.000305
v -1400.738159 172.359283 268.633911
v -1433.012573 172.359283 749.999695
v -1400.738159 172.359283 731.366089
v -1353.553101 172.359283 146.446899
v -1327.201050 172.359283 172.798798
v -1353.553101 172.359283 853.552917
v -1327.201050 172.359283 827.201050
v -1249.999878 172.359283 66.987610
v -1231.366089 172.359283 99.261902
v -1249.999878 172.359283 933.012451
v -1231.366089 172.359283 900.737915
v -1129.409058 172.359283 17.037411
v -1119.764038 172.359283 53.034611
v -1129.409058 172.359283 982.962646
v -1119.764038 172.359283 946.965515
v -1103.921753 172.359268 440.000275
v -1119.999878 172.359268 499.999908
v -1072.851440 172.359283 457.943115
v -1084.117065 172.359283 499.999695
v -1060.000854 172.359268 396.074005
v -1042.062378 172.359283 427.152008
v -999.999939 172.359283 0.000120
v -999.999939 172.359283 37.267208
v -999.999939 172.359283 999.999695
v -999.999939 172.359283 962.732605
v -999.999939 172.359268 379.999786
v -1000.007751 172.359283 415.880615
v -939.999023 172.359268 396.074005
v -957.945313 172.359283 427.148102
v -870.590820 172.359283 17.037201
v -880.235840 172.359283 53.034389
v -870.590820 172.359283 982.962646
v -880.235840 172.359283 946.965515
v -896.078125 172.359268 440.000275
v -927.148438 172.359283 457.941101
v -880.000061 172.359268 499.999908
v -915.882813 172.359283 499.999695
v -750.000061 172.359283 66.987610
v -768.633728 172.359283 99.261719
v -750.000061 172.359283 933.012451
v -768.633728 172.359283 900.738220
v -646.446777 172.359283 853.552917
v -672.798828 172.359283 827.201050
v -646.446228 172.359283 146.446899
v -672.798828 172.359283 172.798706
v -566.987305 172.359283 749.999695
v -599.261719 172.359283 731.366089
v -566.987305 172.359283 250.000412
v -599.261719 172.359283 268.633820
v -517.037109 172.359283 370.590729
v -553.034180 172.359283 380.236206
v -517.037109 172.359283 629.409302
v -553.034180 172.359283 619.763794
v -500.000031 172.359283 500.000000
v -537.267029 172.359283 500.000214
v -1103.921753 172.359268 559.999451
v -1072.851440 172.359283 542.058289
v -1060.000854 172.359268 603.925354
v -1042.054565 172.359283 572.843384
v -999.999939 172.359268 619.999695
v -999.992126 172.359283 584.116882
v -939.999512 172.359268 603.925354
v -957.945313 172.359283 572.849304
v -896.078125 172.359268 559.999329
v -927.156250 172.359283 542.060181
v -999.999878 172.359268 499.999664
# 641 vertices

vt 7.99990 12.33340
vt 5.92940 14.72740
vt 7.99990 14.99990
vt 6.61960 12.15170
vt 9.38030 12.15170
vt 10.07050 14.72740
vt 3.99990 13.92830
vt 5.33330 11.61890
vt 10.66660 11.61890
vt 11.99990 13.92820
vt 2.34310 12.65690
vt 4.22870 10.77130
vt 11.77120 10.77130
vt 13.65680 12.65690
vt 1.07170 11.00000
vt 3.38110 9.66670
vt 12.61880 9.66670
vt 14.92820 11.00000
vt 0.27250 9.07060
vt 2.84830 8.38040
vt 13.15160 8.38040
vt 15.72740 9.07060
vt 0.00000 7.00010
vt 2.66660 7.00010
vt 13.33330 7.00010
vt 15.99990 7.00010
vt 0.27250 4.92950
vt 2.84830 5.61970
vt 13.15160 5.61970
vt 15.72740 4.92950
vt 1.07170 3.00010
vt 3.38110 4.33340
vt 12.61880 4.33340
vt 14.92820 3.00010
vt 2.34310 1.34320
vt 4.22870 3.22880
vt 11.77120 3.22880
vt 13.65680 1.34320
vt 3.99990 0.07180
vt 5.33330 2.38120
vt 10.66660 2.38120
vt 11.99990 0.07180
vt 5.92940 -0.72740
vt 6.61960 1.84840
vt 9.38030 1.84840
vt 10.07050 -0.72730
vt 7.99990 -1.00000
vt 7.99990 1.66670
vt 0.99990 -0.46150
vt 1.99990 -0.61970
vt 0.99990 -0.61970
vt 1.99990 -0.46150
vt -0.99990 -0.46150
vt 0.00000 -0.61970
vt -0.99990 -0.61970
vt 0.00000 -0.46150
vt 0.00190 -0.86250
vt 0.99800 -0.99810
vt 0.99800 -0.86250
vt 0.00190 -0.99810
vt 0.00190 -0.45720
vt 0.99800 -0.61770
vt 0.00190 -0.61770
vt 0.99800 -0.45720
vt 0.99990 -0.46320
vt 1.99990 -0.62640
vt 0.99990 -0.62640
vt 1.99990 -0.46320
vt 0.00190 -0.86620
vt 0.99800 -0.86620
vt -0.99990 -0.45520
vt 0.00000 -0.62590
vt -0.99990 -0.62590
vt 0.00000 -0.45520
vt -0.49880 -0.45960
vt 0.49990 -0.63520
vt -0.49880 -0.63520
vt 0.49990 -0.45960
vt -0.49990 -0.46000
vt 0.49680 -0.63480
vt -0.49990 -0.63480
vt 0.49680 -0.46000
vt 0.00190 0.54020
vt 0.99800 0.38210
vt 0.00190 0.38210
vt 0.99800 0.54020
vt 0.99800 0.13780
vt 0.00190 -0.00620
vt 0.00190 0.13780
vt 0.99800 -0.00620
vt 0.00190 0.53860
vt 0.99800 0.37630
vt 0.00190 0.37630
vt 0.99800 0.53860
vt 0.00190 0.54110
vt 0.99800 0.37750
vt 0.00190 0.37750
vt 0.99800 0.54110
vt 0.00190 0.13400
vt 0.99800 -0.00240
vt 0.99800 0.13400
vt 0.00190 -0.00240
vt 0.00190 0.54210
vt 0.99800 0.38020
vt 0.00190 0.38020
vt 0.99800 0.54210
vt 0.99800 0.53970
vt 0.00190 0.37770
vt 0.99800 0.37770
vt 0.00190 0.53970
vt 0.99800 0.13330
vt 0.00190 -0.00170
vt 0.00190 0.13330
vt 0.99800 -0.00170
vt 0.00190 0.54340
vt 0.99800 0.37890
vt 0.00190 0.37890
vt 0.99800 0.54340
vt -0.37910 0.62740
vt 1.09380 -0.03970
vt -0.41600 -0.03970
vt 0.92290 0.45740
vt 0.92040 0.01300
vt -0.24920 0.80210
vt 0.92040 0.80210
vt -0.24920 0.01300
vt 1.03590 0.52950
vt 0.04310 0.00190
vt 1.03590 0.00190
vt 0.04310 0.52950
vt 1.23780 -0.04390
vt -0.18170 0.64240
vt -0.29280 -0.04390
vt 1.14840 0.45310
vt 0.25460 -0.54580
vt -0.21230 -0.12750
vt 0.25460 -0.12750
vt -0.21230 -0.54580
vt 0.75170 -0.28880
vt 0.75170 -0.12750
vt 1.00320 -0.12750
vt 0.45090 -1.54810
vt -0.05890 -1.12980
vt -0.05890 -1.54810
vt 0.45090 -1.12980
vt 0.99350 -1.29110
vt 0.99350 -1.12980
vt 1.26810 -1.12980
vt 0.99800 0.62490
vt 0.00190 0.00190
vt 0.00190 0.62490
vt 0.99800 0.00190
vt 10.74390 -0.28090
vt 10.99330 -0.03970
vt 10.74390 -0.03970
vt 10.99330 -0.28090
vt 5.00760 -0.28090
vt 5.25700 -0.03970
vt 5.00760 -0.03970
vt 5.25700 -0.28090
vt 10.49450 -0.28090
vt 10.49450 -0.03970
vt 5.50640 -0.03970
vt 5.50640 -0.28090
vt 10.24510 -0.28090
vt 10.24510 -0.03970
vt 5.75580 -0.03970
vt 5.75580 -0.28090
vt 9.99570 -0.28090
vt 9.99570 -0.03970
vt 6.00520 -0.03970
vt 6.00520 -0.28090
vt 9.74630 -0.28090
vt 9.74630 -0.03970
vt 6.25460 -0.03970
vt 6.25460 -0.28090
vt 9.49690 -0.28090
vt 9.49690 -0.03970
vt 6.50400 -0.03970
vt 6.50400 -0.28090
vt 9.24750 -0.28090
vt 9.24750 -0.03970
vt 6.75340 -0.03970
vt 6.75340 -0.28090
vt 8.99810 -0.28090
vt 8.99810 -0.03970
vt 7.00280 -0.03970
vt 7.00280 -0.28090
vt 8.74870 -0.28090
vt 8.74870 -0.03970
vt 7.25230 -0.03970
vt 7.25230 -0.28090
vt 8.49930 -0.28090
vt 8.49930 -0.03970
vt 7.50170 -0.03970
vt 7.50170 -0.28090
vt 8.24990 -0.28090
vt 8.24990 -0.03970
vt 7.75110 -0.03970
vt 7.75110 -0.28090
vt 8.00050 -0.28090
vt 8.00050 -0.03970
vt -1.74250 -0.00200
vt -4.74360 -0.99810
vt -4.74360 -0.00200
vt -1.74250 -0.99810
vt 0.99800 -0.00200
vt 0.01070 -0.99810
vt 0.01070 -0.00200
vt -0.37340 -0.00200
vt -1.24690 -0.99810
vt -1.24690 -0.00200
vt -0.37340 -0.99810
vt 1.02710 -0.99810
vt 1.02710 -0.00200
vt 1.69130 -0.99810
vt 2.24690 -0.00200
vt 2.24690 -0.99810
vt 1.69130 -0.00200
vt -1.49820 -1.00200
vt -3.24960 -1.99810
vt -3.24960 -1.00200
vt -1.49820 -1.99810
vt -0.00300 -1.99810
vt -0.00300 -1.00200
vt 0.99800 -1.00200
vt 0.99800 -1.99810
vt 0.00190 -1.99810
vt 0.00190 -1.00200
vt 2.24300 -1.99810
vt 2.24300 -1.00200
vt 2.99000 -1.00200
vt 2.99000 -1.99810
vt 3.74170 -1.00200
vt 3.74170 -1.99810
vt 0.46650 -0.00010
vt 1.17650 -0.38870
vt 1.17650 -0.00010
vt 0.46650 -0.38870
vt 0.10880 -0.38870
vt 0.10880 -0.23890
vt -0.07210 -0.38870
vt 0.44310 -0.99450
vt 1.18800 -1.37840
vt 0.44310 -1.37840
vt 1.18800 -0.99450
vt 0.06780 -1.37840
vt 0.06780 -1.23040
vt -0.12190 -1.37840
vt -1.58030 -0.00200
vt -1.99640 -0.99810
vt -1.58030 -0.99810
vt -1.99640 -0.00200
vt 2.99640 -0.00200
vt 2.58030 -0.99810
vt 2.99640 -0.99810
vt 2.58030 -0.00200
vt -1.16420 -0.00200
vt -1.16420 -0.99810
vt 2.16420 -0.99810
vt 2.16420 -0.00200
vt -0.74820 -0.00200
vt -0.74820 -0.99810
vt 1.74820 -0.99810
vt 1.74820 -0.00200
vt -0.33210 -0.00200
vt -0.33210 -0.99810
vt 1.33210 -0.99810
vt 1.33210 -0.00200
vt 0.08390 -0.00200
vt 0.08390 -0.99810
vt 0.91600 -0.99810
vt 0.91600 -0.00200
vt 0.50000 -0.00200
vt 0.50000 -0.99810
vt -0.06660 -0.63120
vt 0.49990 -0.33370
vt 0.49990 -0.63120
vt -0.06660 -0.33370
vt 1.06660 -0.63120
vt 1.06660 -0.33370
vt -0.06660 -0.00200
vt 0.49990 -0.00200
vt 1.06660 -0.00200
vt 0.24990 -0.99810
vt 0.75000 -0.66610
vt 0.24990 -0.66610
vt 0.75000 -0.99810
vt 0.24730 -0.99810
vt 0.75260 -0.66610
vt 0.24730 -0.66610
vt 0.75260 -0.99810
vt 0.75000 -0.33400
vt 0.24990 -0.33400
vt 0.75260 -0.33400
vt 0.24730 -0.33400
vt 0.75000 -0.00200
vt 0.24990 -0.00200
vt 0.24730 -0.00200
vt 0.75260 -0.00200
vt 2.99330 -0.24800
vt 3.49190 -0.31180
vt 2.99330 -0.31180
vt 3.49190 -0.24800
vt -2.48660 -0.31150
vt -1.98880 -0.25170
vt -1.98880 -0.31150
vt -2.48660 -0.25170
vt -1.49110 -0.25170
vt -1.49110 -0.31150
vt 2.49460 -0.24800
vt 2.49460 -0.31180
vt 0.70990 -0.66920
vt 1.28830 -0.99810
vt 1.28830 -0.66920
vt 0.70990 -0.99810
vt -0.29950 -0.99810
vt 0.28180 -0.66920
vt -0.29950 -0.66920
vt 0.28180 -0.99810
vt 2.89840 -0.25130
vt 3.49800 -0.31200
vt 2.89840 -0.31200
vt 3.49800 -0.25130
vt -2.49400 -0.24890
vt -1.89520 -0.31180
vt -2.49400 -0.31180
vt -1.89520 -0.24890
vt -0.25400 -0.63120
vt 0.24860 -0.33370
vt 0.24860 -0.63120
vt -0.25400 -0.33370
vt 0.74860 -0.33370
vt 1.24590 -0.63120
vt 0.74860 -0.63120
vt 1.24590 -0.33370
vt -0.25400 -0.00200
vt 0.24860 -0.00200
vt 0.74860 -0.00200
vt 1.24590 -0.00200
vt -0.28830 -0.99810
vt 0.29000 -0.66920
vt -0.28830 -0.66920
vt 0.29000 -0.99810
vt 0.71810 -0.66920
vt 1.29950 -0.99810
vt 1.29950 -0.66920
vt 0.71810 -0.99810
vt -0.99330 -0.31150
vt -0.99330 -0.25170
vt 1.99590 -0.24800
vt 1.99590 -0.31180
vt 2.29880 -0.25130
vt 2.29880 -0.31200
vt -1.29640 -0.31180
vt -1.29640 -0.24890
vt 0.75130 -0.63120
vt 0.75130 -0.33370
vt 0.25130 -0.33370
vt 0.25130 -0.63120
vt 0.75130 -0.00200
vt 0.25130 -0.00200
vt -0.49550 -0.31150
vt -0.49550 -0.25170
vt 1.49730 -0.24800
vt 1.49730 -0.31180
vt 1.69920 -0.25130
vt 1.69920 -0.31200
vt -0.69760 -0.31180
vt -0.69760 -0.24890
vt 1.25400 -0.63120
vt 1.25400 -0.33370
vt -0.24590 -0.63120
vt -0.24590 -0.33370
vt 1.25400 -0.00200
vt -0.24590 -0.00200
vt 0.00220 -0.31150
vt 0.00220 -0.25170
vt 0.99860 -0.31180
vt 0.99860 -0.24800
vt 1.09960 -0.25130
vt 1.09960 -0.31200
vt -0.09880 -0.31180
vt -0.09880 -0.24890
vt -0.43420 -0.99810
vt 0.12630 -0.68170
vt -0.43420 -0.68170
vt 0.12630 -0.99810
vt 1.06550 -0.60060
vt 1.86030 -0.99810
vt 1.86030 -0.60060
vt 1.06550 -0.99810
vt 0.99480 -0.99810
vt 1.55910 -0.66610
vt 0.99480 -0.66610
vt 1.55910 -0.99810
vt -0.56270 -0.66610
vt -0.00760 -0.99810
vt -0.00760 -0.66610
vt -0.56270 -0.99810
vt 1.55910 -0.33400
vt 0.99480 -0.33400
vt -0.56270 -0.33400
vt -0.00760 -0.33400
vt 1.55910 -0.00200
vt 0.99480 -0.00200
vt -0.00760 -0.00200
vt -0.56270 -0.00200
vt 0.50000 -0.25170
vt 0.50000 -0.31150
vt 0.50000 -0.24800
vt 0.49990 -0.31180
vt 0.50000 -0.25130
vt 0.50000 -0.31200
vt 0.50000 -0.31180
vt 0.50000 -0.24890
vt 0.49990 -0.99810
vt 0.49990 -0.60060
vt 0.49990 -0.68170
vt -0.06550 -0.99810
vt -0.06550 -0.60060
vt 0.87360 -0.68170
vt 0.87360 -0.99810
vt -0.09960 -0.25130
vt -0.09960 -0.31200
vt 1.09880 -0.31180
vt 1.09880 -0.24890
vt 0.99770 -0.25170
vt 0.99770 -0.31150
vt 0.00130 -0.24800
vt 0.00130 -0.31180
vt 0.54750 -0.00200
vt 0.54750 -0.33400
vt 0.43050 -0.33400
vt 0.43050 -0.00200
vt 0.43050 -0.66610
vt 0.54750 -0.66610
vt 0.43050 -0.99810
vt 0.54750 -0.99810
vt -0.86030 -0.99810
vt -0.86030 -0.60060
vt 1.43420 -0.99810
vt 1.43420 -0.68170
vt -0.69920 -0.25130
vt -0.69920 -0.31200
vt 1.69760 -0.31180
vt 1.69760 -0.24890
vt 1.49550 -0.25170
vt 1.49550 -0.31150
vt -0.49730 -0.24800
vt -0.49730 -0.31180
vt -0.25530 -0.00200
vt 0.24820 -0.33370
vt -0.25530 -0.33370
vt 0.24820 -0.00200
vt -0.25530 -0.63120
vt 0.24820 -0.63120
vt -1.29880 -0.25130
vt -1.29880 -0.31200
vt 2.29640 -0.31180
vt 2.29640 -0.24890
vt 1.99330 -0.31150
vt 1.99330 -0.25170
vt -0.99590 -0.24800
vt -0.99590 -0.31180
vt 0.75170 -0.33370
vt 0.75170 -0.00200
vt 0.75170 -0.63120
vt 0.22440 -0.99810
vt 0.77550 -0.68790
vt 0.22440 -0.68790
vt 0.77550 -0.99810
vt 0.28140 -0.99810
vt 0.71850 -0.68790
vt 0.28140 -0.68790
vt 0.71850 -0.99810
vt -1.89840 -0.25130
vt -1.89840 -0.31200
vt 2.89520 -0.31180
vt 2.89520 -0.24890
vt -1.49460 -0.24800
vt -1.49460 -0.31180
vt 2.49110 -0.31150
vt 2.49110 -0.25170
vt -0.30900 -0.99810
vt -0.30900 -0.68790
vt 1.32660 -0.99810
vt 1.32660 -0.68790
vt 1.25530 -0.33370
vt 1.25530 -0.00200
vt 1.25530 -0.63120
vt -2.49800 -0.25130
vt -2.49800 -0.31200
vt 3.49400 -0.31180
vt 3.49400 -0.24890
vt -0.32660 -0.99810
vt -0.32660 -0.68790
vt 1.30900 -0.99810
vt 1.30900 -0.68790
vt 2.98880 -0.31150
vt 2.98880 -0.25170
vt -1.99330 -0.31180
vt -1.99330 -0.24800
vt -2.49190 -0.31180
vt -2.49190 -0.24800
vt 3.48660 -0.31150
vt 3.48660 -0.25170
vt 0.24160 -0.33400
vt 0.75830 -0.00200
vt 0.75830 -0.33400
vt 0.24160 -0.00200
vt 0.24590 -0.00200
vt 0.75400 -0.33400
vt 0.24590 -0.33400
vt 0.75400 -0.00200
vt 0.75830 -0.66610
vt 0.24160 -0.66610
vt 0.75400 -0.66610
vt 0.24590 -0.66610
vt 0.75830 -0.99810
vt 0.24160 -0.99810
vt 0.75400 -0.99810
vt 0.24590 -0.99810
vt 1.06780 -0.00200
vt 1.06780 -0.33370
vt -0.06780 -0.00200
vt -0.06780 -0.33370
vt 1.06780 -0.63120
vt -0.06780 -0.63120
vt 0.00190 -3.00210
vt 0.18460 -2.50170
vt 0.18460 -3.00210
vt 0.00190 -2.50170
vt 0.18460 -2.00130
vt 0.00190 -2.00130
vt 0.18460 -1.50080
vt 0.00190 -1.50080
vt 0.18460 -1.00040
vt 0.00190 -1.00040
vt 0.18460 -0.50000
vt 0.00190 -0.50000
vt 0.18460 0.00040
vt 0.00190 0.00040
vt 0.18460 0.50080
vt 0.00190 0.50080
vt 0.18460 1.00130
vt 0.00190 1.00130
vt 0.18460 1.50170
vt 0.00190 1.50170
vt 0.18460 2.00210
vt 0.00190 2.00210
vt 2.00130 -0.00200
vt 2.00130 -0.99810
vt -1.00130 -0.99810
vt -1.00130 -0.00200
vt 1.99880 -0.00200
vt 1.99880 -0.99810
vt -0.99880 -0.99810
vt -0.99880 -0.00200
vt -3.75440 -0.62520
vt -3.04530 -0.89370
vt -3.75440 -0.89370
vt -3.04530 -0.62520
vt -2.33620 -0.89370
vt -2.33620 -0.62520
vt -1.62720 -0.89370
vt -1.62720 -0.62520
vt -3.75440 -0.00010
vt -3.04530 -0.00010
vt -2.33620 -0.00010
vt -1.62720 -0.00010
vt -0.91810 -0.89370
vt -0.91810 -0.62520
vt -0.91810 -0.00010
vt -0.20900 -0.89370
vt -0.20900 -0.62520
vt -0.20900 -0.00010
vt 0.49990 -0.89370
vt 0.49990 -0.62520
vt 0.49990 -0.00010
vt 1.20900 -0.89370
vt 1.20900 -0.62520
vt 1.20900 -0.00010
vt 1.91810 -0.62520
vt 1.91810 -0.00010
vt 1.91810 -0.89370
vt 2.62720 -0.62520
vt 2.62720 -0.00010
vt 2.62720 -0.89370
vt 3.33620 -0.62520
vt 3.33620 -0.00010
vt 3.33620 -0.89370
vt 4.04530 -0.62520
vt 4.04530 -0.00010
vt 4.04530 -0.89370
vt 4.75440 -0.62520
vt 4.75440 -0.00010
vt 4.75440 -0.89370
vt 0.00190 1.49910
vt 0.18350 1.99890
vt 0.18350 1.49910
vt 0.00190 1.99890
vt 0.00190 0.99930
vt 0.18350 0.99930
vt 0.00190 0.49950
vt 0.18350 0.49950
vt 0.00190 -0.00030
vt 0.18350 -0.00030
vt 0.00190 -0.50010
vt 0.18350 -0.50010
vt 0.00190 -0.99980
vt 0.18350 -0.99980
vt 0.00190 -1.49950
vt 0.18350 -1.49950
vt 0.00190 -1.99930
vt 0.18350 -1.99930
vt 0.00190 -2.49910
vt 0.18350 -2.49910
vt 0.00190 -2.99890
vt 0.18350 -2.99890
vt 4.66010 5.51340
vt 5.49210 5.99800
vt 4.66010 5.99800
vt 5.49210 5.51340
vt -4.49210 5.51340
vt -3.66010 5.99800
vt -4.49210 5.99800
vt -3.66010 5.51340
vt 3.82800 5.51340
vt 3.82800 5.99800
vt -2.82800 5.99800
vt -2.82800 5.51340
vt 2.99600 5.51340
vt 2.99600 5.99800
vt -1.99600 5.99800
vt -1.99600 5.51340
vt 2.16400 5.51340
vt 2.16400 5.99800
vt -1.16400 5.99800
vt -1.16400 5.51340
vt 1.33200 5.51340
vt 1.33200 5.99800
vt -0.33200 5.99800
vt -0.33200 5.51340
vt 1.16650 5.99800
vt 1.49980 5.74990
vt 1.16650 5.74990
vt 1.49980 5.99800
vt 0.83320 5.99800
vt 0.83320 5.74990
vt 0.50000 5.51340
vt 0.50000 5.99800
vt 0.49990 5.99800
vt 0.49990 5.74990
vt 0.16670 5.99800
vt 0.16670 5.74990
vt -0.16650 5.99800
vt -0.16650 5.74990
vt -0.49980 5.99800
vt -0.49980 5.74990
vt 2.99890 2.90210
vt 3.49100 2.83730
vt 2.99890 1.49370
vt 2.50680 2.83730
vt 3.94960 2.64730
vt 3.24540 1.42770
vt 2.75240 1.42770
vt 2.04820 2.64730
vt 4.34340 2.34510
vt 1.65440 2.34510
vt 4.64560 1.95140
vt 3.42590 1.24720
vt 1.35220 1.95140
vt 2.57190 1.24720
vt 4.83550 1.49280
vt 1.16230 1.49280
vt 3.49200 1.00060
vt 2.50580 1.00060
vt 4.90030 1.00060
vt 1.09750 1.00060
vt 4.83550 0.50850
vt 1.16230 0.50850
vt 2.57190 0.75410
vt 3.42590 0.75410
vt 1.35220 0.04990
vt 4.64560 0.04990
vt 1.65440 -0.34380
vt 2.75240 0.57360
vt 4.34340 -0.34380
vt 3.24540 0.57360
vt 2.99890 0.50760
vt 3.49100 -0.83600
vt 2.50680 -0.83600
vt 3.94960 -0.64600
vt 2.04820 -0.64600
vt 2.99890 -0.90080
vt 0.49990 5.49990
vt 0.05170 5.49990
vt 0.11170 5.72410
vt 0.11170 5.27580
vt 0.27580 5.88820
vt 0.27580 5.11170
vt 0.49990 5.94820
vt 0.50000 5.05170
vt 0.72410 5.88820
vt 0.72410 5.11170
vt 0.88820 5.27580
vt 0.88820 5.72410
vt 0.94820 5.49990
# 709 texture vertices

g Object_2
usemtl texture0
f 1/3 2/2 3/1
f 2/2 4/4 3/1
f 5/6 1/3 6/5
f 1/3 3/1 6/5
f 2/2 7/7 4/4
f 7/7 8/8 4/4
f 9/10 5/6 10/9
f 5/6 6/5 10/9
f 7/7 11/11 8/8
f 11/11 12/12 8/8
f 13/14 9/10 14/13
f 9/10 10/9 14/13
f 11/11 15/15 12/12
f 15/15 16/16 12/12
f 17/18 13/14 18/17
f 13/14 14/13 18/17
f 15/15 19/19 16/16
f 19/19 20/20 16/16
f 21/22 17/18 22/21
f 17/18 18/17 22/21
f 19/19 23/23 20/20
f 23/23 24/24 20/20
f 25/26 21/22 26/25
f 21/22 22/21 26/25
f 23/23 27/27 24/24
f 27/27 28/28 24/24
f 29/30 25/26 30/29
f 25/26 26/25 30/29
f 27/27 31/31 28/28
f 31/31 32/32 28/28
f 33/34 29/30 34/33
f 29/30 30/29 34/33
f 31/31 35/35 32/32
f 35/35 36/36 32/32
f 37/38 33/34 38/37
f 33/34 34/33 38/37
f 35/35 39/39 36/36
f 39/39 40/40 36/36
f 41/42 37/38 42/41
f 37/38 38/37 42/41
f 39/39 43/43 40/40
f 43/43 44/44 40/40
f 45/46 41/42 46/45
f 41/42 42/41 46/45
f 43/43 47/47 44/44
f 47/47 48/48 44/44
f 47/47 45/46 48/48
f 45/46 46/45 48/48
g obj1
usemtl mat1
f 49/51 50/50 51/49
f 50/50 52/52 51/49
f 53/55 54/54 55/53
f 54/54 56/56 55/53
f 56/59 51/58 55/57
f 51/58 52/60 55/57
f 57/63 58/62 59/61
f 58/62 60/64 59/61
f 61/57 59/60 62/59
f 59/60 60/58 62/59
f 63/63 64/62 65/61
f 64/62 66/64 65/61
f 67/57 65/60 68/59
f 65/60 66/58 68/59
f 69/63 70/62 68/61
f 70/62 67/64 68/61
f 71/67 72/66 73/65
f 72/66 74/68 73/65
f 75/70 73/58 76/69
f 73/58 74/60 76/69
f 77/73 78/72 76/71
f 78/72 75/74 76/71
f 79/77 80/76 81/75
f 80/76 82/78 81/75
f 83/81 84/80 85/79
f 84/80 86/82 85/79
f 82/70 85/58 81/69
f 85/58 86/60 81/69
f 87/85 88/84 89/83
f 88/84 90/86 89/83
f 90/89 91/88 89/87
f 91/88 92/90 89/87
f 93/93 94/92 91/91
f 94/92 92/94 91/91
usemtl texture1
f 95/63 96/62 62/61
f 96/62 61/64 62/61
f 97/97 98/96 99/95
f 98/96 100/98 99/95
f 100/101 101/100 99/99
f 101/100 102/102 99/99
f 103/105 104/104 101/103
f 104/104 102/106 101/103
f 105/109 106/108 107/107
f 106/108 108/110 107/107
f 108/113 109/112 107/111
f 109/112 110/114 107/111
f 111/117 112/116 109/115
f 112/116 110/118 109/115
usemtl texture2
f 113/121 114/120 115/119
f 114/120 116/122 115/119
f 117/121 118/119 119/120
f 118/119 120/122 119/120
f 120/125 118/124 116/123
f 118/124 115/126 116/123
f 121/129 122/128 123/127
f 122/128 124/130 123/127
f 125/133 122/132 126/131
f 122/132 121/134 126/131
f 127/133 128/131 124/132
f 128/131 123/134 124/132
f 129/137 130/136 131/135
f 131/135 130/136 132/138
f 131/135 133/139 129/137
f 133/139 134/140 129/137
f 135/138 136/136 137/135
f 136/136 138/137 137/135
f 137/135 138/137 139/139
f 138/137 140/140 139/139
f 134/140 133/139 141/141
f 139/139 140/140 142/141
f 143/144 144/143 145/142
f 144/143 146/145 145/142
f 145/142 146/145 147/146
f 146/145 148/147 147/146
f 149/145 150/143 151/142
f 151/142 150/143 152/144
f 151/142 153/146 149/145
f 153/146 154/147 149/145
f 147/146 148/147 155/148
f 154/147 153/146 156/148
usemtl texture3
f 119/151 120/150 114/149
f 120/150 116/152 114/149
f 126/149 121/152 128/151
f 121/152 123/150 128/151
usemtl texture4
f 157/155 158/154 159/153
f 158/154 160/156 159/153
f 158/159 161/158 160/157
f 161/158 162/160 160/157
f 163/162 157/155 164/161
f 157/155 159/153 164/161
f 161/158 165/163 162/160
f 165/163 166/164 162/160
f 167/166 163/162 168/165
f 163/162 164/161 168/165
f 165/163 169/167 166/164
f 169/167 170/168 166/164
f 171/170 167/166 172/169
f 167/166 168/165 172/169
f 169/167 173/171 170/168
f 173/171 174/172 170/168
f 175/174 171/170 176/173
f 171/170 172/169 176/173
f 173/171 177/175 174/172
f 177/175 178/176 174/172
f 179/178 175/174 180/177
f 175/174 176/173 180/177
f 177/175 181/179 178/176
f 181/179 182/180 178/176
f 183/182 179/178 184/181
f 179/178 180/177 184/181
f 181/179 185/183 182/180
f 185/183 186/184 182/180
f 187/186 183/182 188/185
f 183/182 184/181 188/185
f 185/183 189/187 186/184
f 189/187 190/188 186/184
f 191/190 187/186 192/189
f 187/186 188/185 192/189
f 189/187 193/191 190/188
f 193/191 194/192 190/188
f 195/194 191/190 196/193
f 191/190 192/189 196/193
f 193/191 197/195 194/192
f 197/195 198/196 194/192
f 199/198 195/194 200/197
f 195/194 196/193 200/197
f 197/195 201/199 198/196
f 201/199 202/200 198/196
f 203/202 199/198 204/201
f 199/198 200/197 204/201
f 201/199 203/202 202/200
f 203/202 204/201 202/200
usemtl texture5
f 205/205 206/204 207/203
f 206/204 208/206 207/203
f 209/209 210/208 211/207
f 210/208 212/58 211/207
f 132/212 135/211 131/210
f 135/211 137/213 131/210
f 137/213 139/214 131/210
f 139/214 133/215 131/210
f 140/218 134/217 142/216
f 134/217 141/219 142/216
f 133/215 139/214 141/219
f 139/214 142/216 141/219
f 208/206 210/208 207/203
f 210/208 209/209 207/203
f 213/222 214/221 215/220
f 214/221 216/223 215/220
f 216/223 217/224 215/220
f 217/224 218/225 215/220
f 218/225 217/224 219/226
f 217/224 220/227 219/226
f 152/229 143/228 151/226
f 143/228 145/227 151/226
f 145/227 147/230 151/226
f 147/230 153/231 151/226
f 153/231 147/230 156/232
f 147/230 155/233 156/232
f 148/235 154/234 155/233
f 154/234 156/232 155/233
usemtl texture6
f 206/238 221/237 208/236
f 221/237 222/239 208/236
f 222/239 223/240 208/236
f 208/236 223/240 210/241
f 224/239 225/237 207/236
f 207/236 225/237 205/238
f 224/239 207/236 226/240
f 207/236 209/241 226/240
f 210/241 223/240 212/242
f 226/240 209/241 211/242
f 227/245 228/244 215/243
f 215/243 228/244 213/246
f 227/245 215/243 229/247
f 215/243 218/248 229/247
f 214/246 230/244 216/243
f 230/244 231/245 216/243
f 231/245 232/247 216/243
f 216/243 232/247 217/248
f 229/247 218/248 219/249
f 217/248 232/247 220/249
usemtl texture7
f 233/252 234/251 235/250
f 236/253 235/250 234/251
f 234/256 237/255 236/254
f 238/257 236/254 237/255
f 239/259 233/252 240/258
f 235/250 240/258 233/252
f 237/255 241/260 238/257
f 242/261 238/257 241/260
f 243/263 239/259 244/262
f 240/258 244/262 239/259
f 241/260 245/264 242/261
f 246/265 242/261 245/264
f 247/267 243/263 248/266
f 244/262 248/266 243/263
f 245/264 249/268 246/265
f 250/269 246/265 249/268
f 251/271 247/267 252/270
f 248/266 252/270 247/267
f 249/268 253/272 250/269
f 254/273 250/269 253/272
f 255/275 251/271 256/274
f 252/270 256/274 251/271
f 253/272 257/275 254/273
f 258/274 254/273 257/275
f 259/272 255/275 260/273
f 256/274 260/273 255/275
f 257/275 261/271 258/274
f 262/270 258/274 261/271
f 263/268 259/272 264/269
f 260/273 264/269 259/272
f 261/271 265/267 262/270
f 266/266 262/270 265/267
f 265/267 267/263 266/266
f 268/262 266/266 267/263
f 269/264 263/268 270/265
f 264/269 270/265 263/268
f 267/263 271/259 268/262
f 272/258 268/262 271/259
f 273/260 269/264 274/261
f 270/265 274/261 269/264
f 275/255 273/260 276/257
f 274/261 276/257 273/260
f 271/259 277/252 272/258
f 278/250 272/258 277/252
f 279/256 275/255 280/254
f 276/257 280/254 275/255
f 277/252 279/251 278/250
f 280/253 278/250 279/251
usemtl texture8
f 281/278 282/277 283/276
f 283/276 282/277 284/279
f 281/278 285/280 282/277
f 285/280 286/281 282/277
f 284/279 282/277 287/282
f 282/277 288/283 287/282
f 286/281 289/284 282/277
f 282/277 289/284 288/283
f 283/287 290/286 291/285
f 290/286 292/288 291/285
f 293/291 285/290 294/289
f 285/290 295/292 294/289
f 290/286 283/287 296/293
f 283/287 284/294 296/293
f 285/290 293/291 286/295
f 293/291 297/296 286/295
f 296/293 284/294 298/297
f 284/294 287/298 298/297
f 297/296 299/299 286/295
f 286/295 299/299 289/300
f 287/303 300/302 301/301
f 300/302 302/304 301/301
f 289/307 303/306 304/305
f 304/305 303/306 305/308
f 299/310 306/309 289/307
f 289/307 306/309 303/306
f 301/301 307/311 287/303
f 298/312 287/303 307/311
f 283/315 291/314 308/313
f 308/313 291/314 309/316
f 285/319 310/318 295/317
f 310/318 311/320 295/317
f 312/323 304/322 313/321
f 304/322 305/324 313/321
f 300/327 314/326 302/325
f 314/326 315/328 302/325
f 316/331 317/330 293/329
f 293/329 317/330 297/332
f 318/335 290/334 319/333
f 290/334 296/336 319/333
f 297/332 317/330 299/337
f 317/330 320/338 299/337
f 319/333 296/336 321/339
f 296/336 298/340 321/339
f 290/343 322/342 292/341
f 322/342 323/344 292/341
f 293/347 294/346 324/345
f 324/345 294/346 325/348
f 299/310 320/349 306/309
f 320/349 326/350 306/309
f 321/352 298/312 327/351
f 298/312 307/311 327/351
f 328/354 312/323 329/353
f 312/323 313/321 329/353
f 314/326 330/355 315/328
f 330/355 331/356 315/328
f 310/318 324/345 311/320
f 324/345 325/348 311/320
f 322/342 308/313 323/344
f 308/313 309/316 323/344
f 316/331 332/357 317/330
f 332/357 333/358 317/330
f 334/360 318/335 335/359
f 318/335 319/333 335/359
f 317/330 333/358 320/338
f 333/358 336/361 320/338
f 335/359 319/333 337/362
f 319/333 321/339 337/362
f 320/349 336/363 326/350
f 336/363 338/364 326/350
f 337/366 321/352 339/365
f 321/352 327/351 339/365
f 340/368 328/354 341/367
f 328/354 329/353 341/367
f 330/355 342/369 331/356
f 342/369 343/370 331/356
f 332/357 344/371 333/358
f 344/371 345/372 333/358
f 334/360 335/359 346/373
f 346/373 335/359 347/374
f 333/358 345/372 336/361
f 345/372 348/375 336/361
f 347/374 335/359 349/376
f 335/359 337/362 349/376
f 336/363 348/377 338/364
f 348/377 350/378 338/364
f 337/366 339/365 349/379
f 349/379 339/365 351/380
f 352/382 340/368 353/381
f 340/368 341/367 353/381
f 342/369 354/383 343/370
f 354/383 355/384 343/370
f 344/387 356/386 357/385
f 356/386 358/388 357/385
f 346/391 359/390 360/389
f 360/389 359/390 361/392
f 362/395 344/394 363/393
f 344/394 357/396 363/393
f 364/399 365/398 346/397
f 346/397 365/398 359/400
f 344/394 362/395 345/401
f 362/395 366/402 345/401
f 346/397 347/403 364/399
f 364/399 347/403 367/404
f 345/401 366/402 348/405
f 366/402 368/406 348/405
f 367/404 347/403 369/407
f 347/403 349/408 369/407
f 368/410 370/409 348/377
f 348/377 370/409 350/378
f 369/412 349/379 371/411
f 349/379 351/380 371/411
f 372/414 352/382 373/413
f 352/382 353/381 373/413
f 354/383 374/415 355/384
f 374/415 375/416 355/384
f 376/418 360/389 377/417
f 360/389 361/392 377/417
f 356/386 378/419 358/388
f 378/419 379/417 358/388
f 380/421 376/418 381/420
f 376/418 377/417 381/420
f 378/419 382/422 379/417
f 382/422 383/423 379/417
f 384/425 372/414 385/424
f 372/414 373/413 385/424
f 374/415 386/426 375/416
f 386/426 387/427 375/416
f 388/429 389/428 368/410
f 368/410 389/428 370/409
f 390/431 369/412 391/430
f 369/412 371/411 391/430
f 392/433 367/404 390/432
f 367/404 369/407 390/432
f 366/402 393/434 368/406
f 393/434 388/435 368/406
f 394/436 393/434 362/395
f 362/395 393/434 366/402
f 395/437 364/399 392/433
f 364/399 367/404 392/433
f 362/395 363/393 394/436
f 394/436 363/393 396/438
f 364/399 395/437 365/398
f 395/437 397/439 365/398
f 395/441 380/421 397/440
f 380/421 381/420 397/440
f 394/443 396/442 382/422
f 382/422 396/442 383/423
f 398/445 384/425 399/444
f 384/425 385/424 399/444
f 386/426 400/446 387/427
f 400/446 401/447 387/427
f 402/449 403/448 388/429
f 388/429 403/448 389/428
f 391/430 404/450 390/431
f 405/451 390/431 404/450
f 406/358 392/372 405/361
f 392/372 390/375 405/361
f 393/454 407/453 388/452
f 407/453 402/455 388/452
f 408/357 395/371 406/358
f 395/371 392/372 406/358
f 409/457 407/453 394/456
f 394/456 407/453 393/454
f 410/459 398/445 411/458
f 398/445 399/444 411/458
f 400/446 412/460 401/447
f 412/460 413/461 401/447
f 402/449 414/462 403/448
f 414/462 415/463 403/448
f 416/465 405/451 417/464
f 405/451 404/450 417/464
f 407/453 418/466 402/455
f 418/466 414/467 402/455
f 419/330 406/358 416/338
f 406/358 405/361 416/338
f 420/331 408/357 419/330
f 408/357 406/358 419/330
f 409/457 421/468 407/453
f 421/468 418/466 407/453
f 422/471 423/470 424/469
f 423/470 425/472 424/469
f 426/475 427/474 428/473
f 427/474 429/476 428/473
f 430/478 410/459 431/477
f 410/459 411/458 431/477
f 412/460 432/479 413/461
f 432/479 433/480 413/461
f 434/482 416/465 435/481
f 416/465 417/464 435/481
f 414/462 436/483 415/463
f 436/483 437/484 415/463
f 438/486 426/475 439/485
f 426/475 428/473 439/485
f 440/488 441/487 423/470
f 423/470 441/487 425/472
f 442/332 419/330 434/337
f 419/330 416/338 434/337
f 418/466 443/489 414/467
f 443/489 436/490 414/467
f 420/331 419/330 440/329
f 440/329 419/330 442/332
f 421/468 438/491 418/466
f 438/491 443/489 418/466
f 444/493 430/478 445/492
f 430/478 431/477 445/492
f 432/479 446/494 433/480
f 446/494 447/495 433/480
f 448/497 422/471 449/496
f 422/471 424/469 449/496
f 450/499 451/498 427/474
f 427/474 451/498 429/476
f 436/483 452/500 437/484
f 452/500 453/501 437/484
f 434/482 435/481 454/502
f 454/502 435/481 455/503
f 454/502 455/503 446/504
f 446/504 455/503 447/505
f 452/500 444/506 453/501
f 444/506 445/507 453/501
f 442/510 434/509 456/508
f 456/508 434/509 454/511
f 443/514 457/513 436/512
f 457/513 452/515 436/512
f 448/517 440/516 456/508
f 440/516 442/510 456/508
f 438/519 450/518 443/514
f 450/518 457/513 443/514
f 440/516 448/517 441/520
f 448/517 449/521 441/520
f 450/518 438/519 451/522
f 438/519 439/523 451/522
f 456/525 454/524 458/277
f 458/277 454/524 459/283
f 457/527 458/277 452/526
f 458/277 459/283 452/526
f 460/278 448/528 458/277
f 448/528 456/525 458/277
f 460/278 458/277 450/529
f 450/529 458/277 457/527
usemtl texture9
f 303/532 461/531 305/530
f 461/531 313/533 305/530
f 461/531 326/534 313/533
f 326/534 462/535 313/533
f 326/534 338/536 462/535
f 338/536 341/537 462/535
f 338/536 463/538 341/537
f 463/538 353/539 341/537
f 463/538 464/540 353/539
f 464/540 465/541 353/539
f 464/540 389/542 465/541
f 389/542 385/543 465/541
f 389/542 403/544 385/543
f 403/544 399/545 385/543
f 403/544 415/546 399/545
f 415/546 411/547 399/545
f 415/546 466/548 411/547
f 466/548 431/549 411/547
f 466/548 453/550 431/549
f 453/550 467/551 431/549
g obj2
usemtl mat2
f 468/283 469/552 470/417
f 469/552 471/553 470/417
f 472/555 468/283 473/554
f 468/283 470/417 473/554
f 474/283 475/556 476/417
f 475/556 477/557 476/417
f 478/559 474/283 479/558
f 474/283 476/417 479/558
usemtl mat3
f 473/562 470/561 480/560
f 470/561 481/563 480/560
f 470/561 471/564 481/563
f 471/564 482/565 481/563
f 471/564 483/566 482/565
f 483/566 484/567 482/565
f 485/561 473/562 486/563
f 473/562 480/560 486/563
f 480/560 487/563 488/568
f 487/563 489/569 488/568
f 481/563 482/565 489/569
f 482/565 490/570 489/569
f 486/563 480/560 491/569
f 480/560 488/568 491/569
f 482/565 484/567 490/570
f 484/567 492/571 490/570
f 483/566 493/572 484/567
f 493/572 494/573 484/567
f 495/564 485/561 496/565
f 485/561 486/563 496/565
f 484/567 494/573 492/571
f 494/573 497/574 492/571
f 496/565 486/563 498/570
f 486/563 491/569 498/570
f 493/572 499/575 494/573
f 499/575 500/576 494/573
f 501/566 495/564 502/567
f 495/564 496/565 502/567
f 494/573 500/576 497/574
f 500/576 503/577 497/574
f 502/567 496/565 504/571
f 496/565 498/570 504/571
f 499/575 505/578 500/576
f 505/578 506/579 500/576
f 507/572 501/566 508/573
f 501/566 502/567 508/573
f 500/576 506/579 503/577
f 506/579 509/580 503/577
f 508/573 502/567 510/574
f 502/567 504/571 510/574
f 505/578 511/581 506/579
f 511/581 512/582 506/579
f 513/575 507/572 514/576
f 507/572 508/573 514/576
f 514/576 508/573 515/577
f 508/573 510/574 515/577
f 506/579 512/582 509/580
f 512/582 516/583 509/580
f 517/579 514/576 518/580
f 514/576 515/577 518/580
f 512/582 519/584 516/583
f 519/584 520/585 516/583
f 511/581 521/586 512/582
f 521/586 519/584 512/582
f 522/578 513/575 517/579
f 513/575 514/576 517/579
f 523/582 517/579 524/583
f 517/579 518/580 524/583
f 519/584 525/587 520/585
f 525/587 526/588 520/585
f 521/586 527/589 519/584
f 527/589 525/587 519/584
f 528/581 522/578 523/582
f 522/578 517/579 523/582
f 525/587 529/590 526/588
f 529/590 530/591 526/588
f 531/584 523/582 532/585
f 523/582 524/583 532/585
f 527/589 533/592 525/587
f 533/592 529/590 525/587
f 534/586 528/581 531/584
f 528/581 523/582 531/584
f 535/587 531/584 536/588
f 531/584 532/585 536/588
f 529/590 537/593 530/591
f 537/593 538/594 530/591
f 539/589 534/586 535/587
f 534/586 531/584 535/587
f 533/592 540/595 529/590
f 540/595 537/593 529/590
f 541/590 535/587 542/591
f 535/587 536/588 542/591
f 537/593 543/596 538/594
f 543/596 544/597 538/594
f 543/596 545/593 544/597
f 545/593 546/594 544/597
f 545/593 541/590 546/594
f 541/590 542/591 546/594
f 540/595 479/598 537/593
f 479/598 543/596 537/593
f 477/592 539/589 541/590
f 539/589 535/587 541/590
f 479/598 476/595 543/596
f 476/595 545/593 543/596
f 476/595 477/592 545/593
f 477/592 541/590 545/593
usemtl mat4
f 547/601 548/600 549/599
f 548/600 550/602 549/599
f 551/604 547/601 552/603
f 547/601 549/599 552/603
f 553/606 551/604 554/605
f 551/604 552/603 554/605
f 555/608 553/606 556/607
f 553/606 554/605 556/607
f 557/610 555/608 558/609
f 555/608 556/607 558/609
f 559/612 557/610 560/611
f 557/610 558/609 560/611
f 561/614 559/612 562/613
f 559/612 560/611 562/613
f 563/616 561/614 564/615
f 561/614 562/613 564/615
f 565/618 563/616 566/617
f 563/616 564/615 566/617
f 567/620 565/618 568/619
f 565/618 566/617 568/619
usemtl mat5
f 569/623 570/622 571/621
f 570/622 572/624 571/621
f 570/627 573/626 572/625
f 573/626 574/628 572/625
f 575/630 569/623 576/629
f 569/623 571/621 576/629
f 573/626 577/631 574/628
f 577/631 578/632 574/628
f 579/634 575/630 580/633
f 575/630 576/629 580/633
f 577/631 581/635 578/632
f 581/635 582/636 578/632
f 583/638 579/634 584/637
f 579/634 580/633 584/637
f 581/635 585/639 582/636
f 585/639 586/640 582/636
f 587/642 583/638 588/641
f 583/638 584/637 588/641
f 585/639 589/643 586/640
f 589/643 590/644 586/640
f 591/647 592/646 593/645
f 592/646 594/648 593/645
f 595/650 591/647 596/649
f 591/647 593/645 596/649
f 597/652 587/642 598/651
f 587/642 588/641 598/651
f 589/643 599/652 590/644
f 599/652 600/651 590/644
f 601/654 595/650 602/653
f 595/650 596/649 602/653
f 603/656 601/654 604/655
f 601/654 602/653 604/655
f 605/643 597/652 606/644
f 597/652 598/651 606/644
f 599/652 607/642 600/651
f 607/642 608/641 600/651
f 609/658 603/656 610/657
f 603/656 604/655 610/657
f 611/660 609/658 612/659
f 609/658 610/657 612/659
f 613/639 605/643 614/640
f 605/643 606/644 614/640
f 607/642 615/638 608/641
f 615/638 616/637 608/641
f 615/638 617/634 616/637
f 617/634 618/633 616/637
f 619/635 613/639 620/636
f 613/639 614/640 620/636
f 617/634 621/630 618/633
f 621/630 622/629 618/633
f 623/631 619/635 624/632
f 619/635 620/636 624/632
f 625/626 623/631 626/628
f 623/631 624/632 626/628
f 621/630 627/623 622/629
f 627/623 628/621 622/629
f 629/627 625/626 630/625
f 625/626 626/628 630/625
f 627/623 629/622 628/621
f 629/622 630/624 628/621
f 592/660 631/658 594/659
f 631/658 632/657 594/659
f 631/658 633/656 632/657
f 633/656 634/655 632/657
f 633/656 635/654 634/655
f 635/654 636/653 634/655
f 635/654 637/650 636/653
f 637/650 638/649 636/653
f 637/650 639/647 638/649
f 639/647 640/645 638/649
f 639/647 611/646 640/645
f 611/646 612/648 640/645
usemtl mat6
f 592/663 571/662 572/661
f 574/664 592/663 572/661
f 571/662 591/666 576/665
f 578/668 631/667 574/664
f 591/666 580/669 576/665
f 582/670 631/667 578/668
f 592/663 591/666 571/662
f 574/664 631/667 592/663
f 580/669 595/672 584/671
f 633/674 582/670 586/673
f 591/666 595/672 580/669
f 633/674 631/667 582/670
f 584/671 595/672 588/675
f 590/676 633/674 586/673
f 588/675 595/672 601/677
f 635/678 633/674 590/676
f 588/675 601/677 598/679
f 635/678 590/676 600/680
f 601/677 606/681 598/679
f 608/682 635/678 600/680
f 608/682 637/683 635/678
f 601/677 603/684 606/681
f 616/685 637/683 608/682
f 606/681 603/684 614/686
f 639/688 637/683 618/687
f 603/684 609/690 620/689
f 618/687 637/683 616/685
f 603/684 620/689 614/686
f 626/692 609/690 611/691
f 611/691 639/688 628/693
f 620/689 609/690 624/694
f 639/688 618/687 622/695
f 624/694 609/690 626/692
f 628/693 639/688 622/695
f 626/692 611/691 630/696
f 611/691 628/693 630/696
usemtl mat7
f 593/699 594/698 641/697
f 594/698 632/700 641/697
f 596/701 593/699 641/697
f 632/700 634/702 641/697
f 602/703 596/701 641/697
f 634/702 636/704 641/697
f 604/705 602/703 641/697
f 636/704 638/706 641/697
f 638/706 640/707 641/697
f 610/708 604/705 641/697
f 640/707 612/709 641/697
f 612/709 610/708 641/697
# 780 elements

