# Created by Metasequoia

mtllib Emperor8.mtl

v -1724.444336 172.359268 -29694.117188
v -1749.999878 172.359268 -29500.001953
v -1482.962891 172.359268 -29629.410156
v -1500.000000 172.359268 -29500.001953
v -1724.444336 172.359268 -29305.886719
v -1482.962891 172.359268 -29370.591797
v -1649.519043 172.359268 -29875.001953
v -1433.012695 172.359268 -29750.001953
v -1649.519043 172.359268 -29125.001953
v -1433.012695 172.359268 -29250.001953
v -1530.330078 172.359268 -30030.332031
v -1353.553345 172.359268 -29853.554688
v -1530.330078 172.359268 -28969.671875
v -1353.553345 172.359268 -29146.447266
v -1375.000000 172.359268 -30149.519531
v -1250.000000 172.359268 -29933.013672
v -1375.000000 172.359268 -28850.482422
v -1250.000000 172.359268 -29066.988281
v -1194.114258 172.359268 -28775.556641
v -1129.409546 172.359268 -29017.037109
v -1194.114136 172.359268 -30224.445313
v -1129.409424 172.359268 -29982.962891
v -1000.000061 172.359268 -30250.000000
v -1000.000061 172.359268 -30000.000000
v -1000.000061 172.359268 -28750.000000
v -1000.000061 172.359268 -29000.000000
v -805.885864 172.359268 -30224.443359
v -870.590576 172.359268 -29982.962891
v -805.885864 172.359268 -28775.556641
v -870.590576 172.359268 -29017.037109
v -625.000122 172.359268 -30149.517578
v -750.000183 172.359268 -29933.011719
v -625.000122 172.359268 -28850.480469
v -750.000183 172.359268 -29066.986328
v -469.669983 172.359268 -30030.328125
v -646.446777 172.359268 -29853.552734
v -469.670044 172.359268 -28969.667969
v -646.446777 172.359268 -29146.445313
v -350.481140 172.359268 -29874.998047
v -566.987427 172.359268 -29750.000000
v -350.481079 172.359268 -29124.998047
v -566.987427 172.359268 -29250.000000
v -275.556091 172.359268 -29694.113281
v -517.037354 172.359268 -29629.408203
v -275.555786 172.359268 -29305.884766
v -517.037170 172.359268 -29370.589844
v -250.000183 172.359268 -29499.998047
v -500.000153 172.359268 -29499.998047
v -1009.999939 142.359268 -29000.000000
v -1009.999939 142.359268 -28750.000000
v -1009.999939 162.359268 -29000.000000
v -1009.999939 162.359268 -28750.000000
v -990.000061 162.359268 -28750.000000
v -990.000061 162.359268 -29000.000000
v -990.000061 142.359268 -28750.000000
v -990.000061 142.359268 -29000.000000
v -476.741119 162.359268 -28962.599609
v -462.598999 162.359268 -28976.740234
v -653.517761 162.359268 -29139.375000
v -639.375610 162.359268 -29153.517578
v -462.598999 142.359268 -28976.740234
v -639.375610 142.359268 -29153.517578
v -250.000183 142.359268 -29510.000000
v -500.000153 142.359268 -29510.000000
v -250.000183 162.359268 -29510.000000
v -500.000153 162.359268 -29510.000000
v -500.000153 142.359268 -29490.000000
v -250.000183 142.359268 -29490.000000
v -500.000153 162.359268 -29490.000000
v -250.000183 162.359268 -29490.000000
v -476.741058 142.359268 -30037.400391
v -653.517761 142.359268 -29860.625000
v -476.741058 162.359268 -30037.400391
v -653.517761 162.359268 -29860.625000
v -462.598907 162.359268 -30023.259766
v -639.375610 162.359268 -29846.482422
v -639.375610 142.359268 -29846.482422
v -462.598907 142.359268 -30023.259766
v -1009.999939 142.359268 -30250.000000
v -1009.999939 142.359268 -30000.000000
v -1009.999939 162.359268 -30250.000000
v -1009.999939 162.359268 -30000.000000
v -990.000061 162.359268 -30250.000000
v -990.000061 162.359268 -30000.000000
v -990.000061 142.359268 -30000.000000
v -990.000061 142.359268 -30250.000000
v -1360.624512 142.359268 -29153.517578
v -1537.401245 142.359268 -28976.740234
v -1360.624512 162.359268 -29153.517578
v -1537.401245 162.359268 -28976.740234
v -1523.259033 162.359268 -28962.599609
v -1346.482422 162.359268 -29139.375000
v -1523.259033 142.359268 -28962.599609
v -1346.482422 142.359268 -29139.375000
v -653.517761 142.359268 -29139.375000
v -476.741119 142.359268 -28962.599609
v -1537.401245 142.359268 -30023.259766
v -1360.624390 142.359268 -29846.482422
v -1537.401245 162.359268 -30023.259766
v -1360.624390 162.359268 -29846.482422
v -1523.259033 162.359268 -30037.400391
v -1346.482300 162.359268 -29860.625000
v -1346.482300 142.359268 -29860.625000
v -1523.259033 142.359268 -30037.400391
v -1500.000000 142.359268 -29510.000000
v -1750.000000 142.359268 -29510.000000
v -1500.000000 162.359268 -29510.000000
v -1750.000000 162.359268 -29510.000000
v -1750.000000 142.359268 -29490.000000
v -1500.000000 142.359268 -29490.000000
v -1750.000000 162.359268 -29490.000000
v -1500.000000 162.359268 -29490.000000
v -1089.515869 -332.748810 -29002.000000
v -1089.515869 -292.989929 -28849.572266
v -1089.515869 71.798317 -29017.833984
v -1089.515869 42.692841 -28909.208984
v -910.484192 42.692841 -28909.208984
v -910.484253 -292.989929 -28849.572266
v -910.484253 -332.748810 -29002.000000
v -910.484253 71.798317 -29017.833984
v -1089.515869 -332.748810 -29998.000000
v -1089.515869 71.798317 -29982.166016
v -1089.515869 -292.989929 -30150.427734
v -1089.515869 42.692841 -30090.791016
v -910.484192 42.692841 -30090.791016
v -910.484192 -292.989929 -30150.427734
v -910.484192 -332.748810 -29998.000000
v -910.484192 71.798317 -29982.166016
v -1989.999756 93.359367 -29520.000000
v -1989.999634 15.359380 -29520.000000
v -2074.913330 93.359367 -29520.000000
v -2074.913330 15.359380 -29520.000000
v -2074.913330 15.359380 -29480.000000
v -1989.999634 15.359380 -29480.000000
v -2074.913330 93.359367 -29480.000000
v -1989.999634 93.359367 -29480.000000
v -2022.738037 176.359268 -29520.000000
v -1989.999634 176.359268 -29520.000000
v -2022.738037 176.359268 -29480.000000
v -1989.999634 176.359268 -29480.000000
v -1989.999634 218.359177 -29520.000000
v -1989.999634 218.359177 -29480.000000
v 22.738340 176.359268 -29520.000000
v -9.999940 176.359268 -29520.000000
v -9.999940 218.359268 -29520.000000
v -9.999940 176.359268 -29480.000000
v 22.738340 176.359268 -29480.000000
v -9.999940 218.359268 -29480.000000
v 74.913147 93.359367 -29520.000000
v -9.999940 93.359367 -29520.000000
v 74.913147 93.359367 -29480.000000
v -9.999940 93.359367 -29480.000000
v 74.913147 15.359380 -29520.000000
v -9.999940 15.359380 -29520.000000
v -9.999940 15.359380 -29480.000000
v 74.913147 15.359380 -29480.000000
v -1724.444336 172.359268 -29694.113281
v -1749.999878 172.359268 -29499.998047
v -1693.700439 15.146970 -29685.875000
v -1718.171387 15.146970 -29499.998047
v -1724.444336 172.359268 -29305.884766
v -1693.700439 15.146970 -29314.121094
v -1649.519043 172.359268 -29874.998047
v -1621.954834 15.146970 -29859.083984
v -1649.519043 172.359268 -29124.998047
v -1621.954834 15.146970 -29140.914063
v -1530.329834 172.359268 -28969.669922
v -1507.823853 15.146970 -28992.175781
v -1530.329956 172.359268 -30030.330078
v -1507.823853 15.146970 -30007.822266
v -1374.999878 172.359268 -30149.517578
v -1359.085693 15.146970 -30121.955078
v -1375.000000 172.359268 -28850.480469
v -1359.085693 15.146970 -28878.044922
v -1194.114136 172.359268 -30224.443359
v -1185.876343 15.146970 -30193.699219
v -1194.114258 172.359268 -28775.554688
v -1185.876465 15.146970 -28806.298828
v -1000.000061 172.359268 -30250.000000
v -1000.000061 15.146970 -30218.171875
v -1000.000061 172.359268 -28750.000000
v -1000.000061 15.146970 -28781.828125
v -805.885864 172.359268 -30224.445313
v -814.123657 15.146970 -30193.701172
v -805.885864 172.359268 -28775.556641
v -814.123657 15.146970 -28806.300781
v -625.000122 172.359268 -30149.519531
v -640.914429 15.146970 -30121.955078
v -625.000122 172.359268 -28850.482422
v -640.914368 15.146970 -28878.046875
v -469.670166 172.359268 -30030.332031
v -492.176270 15.146970 -30007.826172
v -469.670044 172.359268 -28969.671875
v -492.176147 15.146970 -28992.177734
v -350.481262 172.359268 -29875.001953
v -378.045471 15.146970 -29859.087891
v -350.481140 172.359268 -29125.001953
v -378.045349 15.146970 -29140.916016
v -275.556091 172.359268 -29694.117188
v -306.299988 15.146970 -29685.878906
v -275.555847 172.359268 -29305.888672
v -306.299744 15.146970 -29314.125000
v -250.000183 172.359268 -29500.001953
v -281.828674 15.146970 -29500.001953
v -1706.850830 93.337173 -29469.925781
v -1706.850830 93.337173 -29530.074219
v -1756.079468 156.492462 -29469.925781
v -1756.079468 156.492462 -29530.074219
v -1628.395508 -31.469730 -29530.074219
v -1628.395508 -31.469730 -29469.925781
v -1628.395508 -279.233826 -29469.925781
v -1628.395508 -279.233826 -29530.074219
v -371.603943 -279.233826 -29530.074219
v -371.603943 -279.233826 -29469.925781
v -371.603943 -31.469730 -29530.074219
v -371.603943 -31.469730 -29469.925781
v -293.148987 93.337173 -29469.925781
v -293.148987 93.337173 -29530.074219
v -243.919861 156.492462 -29530.074219
v -243.919861 156.492462 -29469.925781
v -1756.079468 -31.469730 -29530.074219
v -1756.079468 93.337173 -29530.074219
v -1756.079346 -31.469730 -29469.925781
v -1756.079346 93.337173 -29469.925781
v -1756.079468 -279.233826 -29530.074219
v -1756.079468 -279.233826 -29469.925781
v -243.920349 -31.469730 -29530.074219
v -243.919861 -279.233826 -29530.074219
v -243.919861 -279.233826 -29469.925781
v -243.919861 -31.469730 -29469.925781
v -243.920349 93.337173 -29530.074219
v -243.919861 93.337173 -29469.925781
v -1507.625000 12.359380 -29636.017578
v -1525.532227 12.359380 -29500.000000
v -1482.962891 172.359268 -29629.410156
v -1500.000000 172.359268 -29500.000000
v -1507.625000 12.359380 -29363.982422
v -1482.962891 172.359268 -29370.589844
v -1455.124146 12.359380 -29762.765625
v -1433.012695 172.359268 -29750.000000
v -1455.124146 12.359380 -29237.234375
v -1433.012695 172.359268 -29250.000000
v -1371.607300 12.359380 -29871.607422
v -1353.553345 172.359268 -29853.552734
v -1371.607300 12.359380 -29128.392578
v -1353.553345 172.359268 -29146.447266
v -1262.765991 12.359380 -29955.125000
v -1250.000000 172.359268 -29933.011719
v -1262.766113 12.359380 -29044.875000
v -1250.000000 172.359268 -29066.988281
v -1136.017822 12.359380 -30007.625000
v -1129.409424 172.359268 -29982.962891
v -1136.017822 12.359380 -28992.375000
v -1129.409546 172.359268 -29017.037109
v -1000.000061 12.359380 -28974.466797
v -1000.000061 172.359268 -29000.000000
v -1000.000061 12.359380 -30025.531250
v -1000.000061 172.359268 -30000.000000
v -863.982361 12.359380 -30007.625000
v -870.590576 172.359268 -29982.962891
v -863.982361 12.359380 -28992.375000
v -870.590576 172.359268 -29017.037109
v -737.234131 12.359380 -29955.125000
v -750.000183 172.359268 -29933.011719
v -737.233948 12.359380 -29044.875000
v -750.000183 172.359268 -29066.988281
v -628.392822 12.359380 -29871.607422
v -646.446777 172.359268 -29853.552734
v -628.392822 12.359380 -29128.392578
v -646.446777 172.359268 -29146.447266
v -544.875977 12.359380 -29762.765625
v -566.987549 172.359268 -29750.000000
v -544.875977 12.359380 -29237.234375
v -566.987427 172.359268 -29250.000000
v -492.375275 12.359380 -29636.017578
v -517.037354 172.359268 -29629.410156
v -492.374969 12.359380 -29363.982422
v -517.037231 172.359268 -29370.589844
v -474.467957 12.359380 -29500.000000
v -500.000153 172.359268 -29500.000000
v -2055.752686 15.146970 -29500.000000
v -2019.778809 15.146970 -29773.250000
v -2055.752686 -47.640629 -29500.000000
v -2019.778809 -47.640629 -29773.250000
v -2019.778809 15.146970 -29226.750000
v -2019.778809 -47.640629 -29226.750000
v -2014.712402 93.359367 -29228.109375
v -2050.507568 93.359367 -29500.000000
v -2014.712402 93.359367 -29771.890625
v -1965.925781 172.359268 -29758.818359
v -1999.999878 172.359268 -29500.000000
v -1965.925781 172.359268 -29241.181641
v -1999.999878 176.359161 -29500.000000
v -1965.925781 176.359161 -29758.820313
v -1965.925781 176.359161 -29241.181641
v -1914.308838 15.146970 -28972.123047
v -1909.766235 93.359367 -28974.746094
v -1914.308594 15.146970 -30027.876953
v -1909.766113 93.359367 -30025.253906
v -1866.025269 172.359268 -30000.000000
v -1866.025391 172.359268 -29000.000000
v -1937.499878 172.359268 -29500.000000
v -1905.555420 172.359268 -29742.642578
v -1937.500000 176.359161 -29500.000000
v -1905.555420 176.359161 -29742.642578
v -1905.555420 172.359268 -29257.357422
v -1905.555420 176.359161 -29257.357422
v -1866.025269 176.359161 -30000.000000
v -1866.025391 176.359161 -29000.000000
v -1764.834229 15.146970 -29704.937500
v -1764.834229 -47.640629 -29704.935547
v -1764.834229 15.146970 -29295.062500
v -1764.834229 -47.640629 -29295.062500
v -1811.898682 172.359268 -29031.250000
v -1811.898926 176.359161 -29031.250000
v -1811.898682 172.359268 -29968.750000
v -1811.898682 176.359161 -29968.750000
v -1746.530029 15.146970 -28753.470703
v -1742.821045 93.359367 -28757.179688
v -1746.529785 15.146970 -30246.529297
v -1742.821045 93.359367 -30242.820313
v -1707.106689 172.359268 -28792.892578
v -1707.106689 172.359268 -30207.105469
v -1707.106689 176.359161 -28792.892578
v -1707.106689 176.359161 -30207.105469
v -1791.814575 15.146970 -29500.000000
v -1791.814575 -47.640629 -29500.000000
v -1662.912598 172.359268 -28837.087891
v -1662.912598 176.359161 -28837.087891
v -1662.912476 172.359268 -30162.912109
v -1662.912476 176.359161 -30162.912109
v -1527.876465 15.146970 -28585.691406
v -1525.253906 93.359367 -28590.234375
v -1527.876221 15.146970 -30414.308594
v -1525.253784 93.359367 -30409.765625
v -1499.999878 172.359268 -30366.025391
v -1500.000000 172.359268 -28633.974609
v -1499.999878 176.359161 -30366.025391
v -1500.000000 176.359161 -28633.974609
v -1468.750000 172.359268 -28688.101563
v -1468.750000 176.359161 -28688.101563
v -1468.749878 172.359268 -30311.898438
v -1468.749878 176.359161 -30311.898438
v -1395.907227 15.146970 -28814.267578
v -1527.876465 -47.640629 -28585.691406
v -1395.907227 -47.640629 -28814.269531
v -1527.876221 -47.640629 -30414.308594
v -1395.907227 15.146970 -30185.730469
v -1395.907227 -47.640629 -30185.730469
v -1273.249023 15.146970 -28480.220703
v -1273.249023 -47.640629 -28480.220703
v -1273.249023 15.146970 -30519.779297
v -1273.249023 -47.640629 -30519.779297
v -1271.891357 93.359367 -28485.287109
v -1271.891235 93.359367 -30514.712891
v -1258.818970 172.359268 -28534.074219
v -1258.818970 172.359268 -30465.925781
v -1258.818848 176.359161 -30465.925781
v -1258.818970 176.359161 -28534.074219
v -1242.642822 172.359268 -30405.554688
v -1242.642822 176.359161 -30405.554688
v -1242.642822 172.359268 -28594.445313
v -1242.642822 176.359161 -28594.445313
v -1204.936646 15.146970 -30264.833984
v -1204.936646 -47.640629 -30264.833984
v -1204.936646 15.146970 -28735.166016
v -1204.936768 -47.640629 -28735.166016
v -1000.000061 15.146970 -28444.248047
v -1000.000061 93.359367 -28449.492188
v -1000.000061 15.146970 -30555.753906
v -1000.000061 93.359367 -30550.507813
v -1000.000061 172.359268 -30500.000000
v -1000.000061 172.359268 -28500.000000
v -728.108765 93.359367 -30514.712891
v -741.181152 172.359268 -30465.925781
v -728.108765 93.359367 -28485.287109
v -741.181152 172.359268 -28534.074219
v -726.751160 15.146970 -30519.779297
v -726.751160 15.146970 -28480.220703
v -726.751160 -47.640629 -30519.779297
v -795.063477 15.146970 -30264.833984
v -795.063477 -47.640629 -30264.833984
v -795.063477 15.146970 -28735.166016
v -726.751160 -47.640629 -28480.222656
v -795.063477 -47.640629 -28735.166016
v -757.357239 172.359268 -30405.554688
v -741.181152 176.359161 -30465.925781
v -757.357239 176.359161 -30405.554688
v -741.181152 176.359161 -28534.074219
v -757.357239 172.359268 -28594.445313
v -757.357239 176.359161 -28594.445313
v -604.092896 15.146970 -30185.730469
v -604.092896 -47.640629 -30185.730469
v -604.092773 15.146970 -28814.267578
v -604.092773 -47.640629 -28814.267578
v -531.250244 172.359268 -30311.898438
v -531.250244 176.359161 -30311.898438
v -531.250122 172.359268 -28688.101563
v -531.250122 176.359161 -28688.101563
v -500.000275 176.359161 -30366.025391
v -500.000275 172.359268 -30366.025391
v -500.000153 172.359268 -28633.974609
v -500.000153 176.359161 -28633.974609
v -474.746460 93.359367 -30409.765625
v -474.746338 93.359367 -28590.234375
v -472.123779 15.146970 -30414.308594
v -472.123657 15.146970 -28585.691406
v -472.123779 -47.640629 -30414.308594
v -472.123657 -47.640629 -28585.691406
v -337.087585 172.359268 -30162.912109
v -337.087585 176.359161 -30162.912109
v -337.087585 172.359268 -28837.087891
v -337.087585 176.359161 -28837.087891
v -292.893433 172.359268 -30207.105469
v -292.893433 176.359161 -30207.105469
v -292.893433 172.359268 -28792.892578
v -292.893433 176.359161 -28792.892578
v -257.179260 93.359367 -30242.820313
v -257.179077 93.359367 -28757.179688
v -253.470337 15.146970 -30246.529297
v -253.470032 15.146970 -28753.470703
v -188.101440 172.359268 -29968.750000
v -188.101440 176.359161 -29968.750000
v -188.101135 172.359268 -29031.250000
v -188.101440 176.359161 -29031.250000
v -208.185486 15.146970 -29500.000000
v -235.166138 15.146970 -29704.937500
v -208.185486 -47.640629 -29500.000000
v -235.166138 -47.640629 -29704.937500
v -235.165833 15.146970 -29295.062500
v -235.165833 -47.640629 -29295.062500
v -133.974976 172.359268 -30000.000000
v -133.974976 176.359161 -30000.000000
v -133.974731 172.359268 -29000.000000
v -133.974731 176.359161 -29000.000000
v -90.233948 93.359367 -30025.253906
v -90.233757 93.359367 -28974.746094
v -85.691589 15.146970 -30027.876953
v -85.691589 15.146970 -28972.123047
v -94.444946 172.359268 -29742.642578
v -94.444946 176.359161 -29742.642578
v -94.444641 172.359268 -29257.357422
v -94.444641 176.359161 -29257.357422
v 19.778749 15.146970 -29773.248047
v 19.778749 -47.640629 -29773.248047
v 19.778749 15.146970 -29226.750000
v 19.778749 -47.640629 -29226.750000
v -34.074581 172.359268 -29758.818359
v -34.074581 176.359161 -29758.818359
v -34.074341 176.359161 -29241.181641
v -34.074341 172.359268 -29241.181641
v -62.500179 172.359268 -29500.000000
v -62.500179 176.359161 -29500.000000
v 14.712040 93.359367 -29771.890625
v 14.712340 93.359367 -29228.109375
v -0.000180 172.359268 -29500.000000
v -0.000180 176.359161 -29500.000000
v 50.507751 93.359367 -29500.000000
v 55.752869 15.146970 -29500.000000
v 55.752869 -47.640629 -29500.000000
v -1999.999878 176.359268 -29500.000000
v -1937.500000 176.359268 -29500.000000
v -1662.912598 176.359161 -30162.912109
v -1500.000000 176.359161 -30366.025391
v -1258.819092 176.359161 -28534.074219
v -1242.642944 176.359161 -28594.445313
v -1000.000061 172.359268 -30500.000000
v -1258.818970 172.359268 -30465.925781
v -1000.000061 172.359268 -30437.500000
v -1242.642822 172.359268 -30405.554688
v -1258.818970 172.359268 -28534.074219
v -1000.000061 172.359268 -28500.000000
v -1242.642822 172.359268 -28594.445313
v -1000.000061 172.359268 -28562.500000
v -741.181030 172.359268 -30465.925781
v -757.357239 172.359268 -30405.554688
v -741.180969 172.359268 -28534.074219
v -757.357239 172.359268 -28594.445313
v -1905.555420 172.359268 -29742.642578
v -1937.499878 172.359268 -29500.000000
v -1845.184937 172.359268 -29726.466797
v -1874.999878 172.359268 -29500.000000
v -1905.555420 172.359268 -29257.357422
v -1845.185059 172.359268 -29273.533203
v -1811.898926 172.359268 -29031.250000
v -1757.772217 172.359268 -29062.500000
v -1811.898682 172.359268 -29968.750000
v -1757.771973 172.359268 -29937.500000
v -1750.000000 172.359268 -29500.000000
v -1724.444336 172.359268 -29305.884766
v -1724.444336 172.359268 -29694.113281
v -1649.519043 172.359268 -29125.000000
v -1649.519043 172.359268 -29875.000000
v -1662.912598 172.359268 -28837.087891
v -1618.718384 172.359268 -28881.281250
v -1662.912476 172.359268 -30162.912109
v -1618.718384 172.359268 -30118.718750
v -1530.330078 172.359268 -28969.669922
v -1530.330078 172.359268 -30030.330078
v -1468.749878 172.359268 -30311.898438
v -1437.499878 172.359268 -30257.771484
v -1468.749878 172.359268 -28688.101563
v -1437.499878 172.359268 -28742.228516
v -1375.000000 172.359268 -30149.519531
v -1375.000000 172.359268 -28850.480469
v -1226.466553 172.359268 -30345.185547
v -1226.466675 172.359268 -28654.814453
v -1194.114258 172.359268 -28775.554688
v -1194.114136 172.359268 -30224.445313
v -1000.000061 172.359268 -30375.000000
v -1000.000061 172.359268 -28625.000000
v -1000.000061 172.359268 -28750.000000
v -1000.000061 172.359268 -30250.000000
v -773.533325 172.359268 -30345.185547
v -805.885864 172.359268 -30224.445313
v -773.533447 172.359268 -28654.814453
v -805.885864 172.359268 -28775.554688
v -562.500122 172.359268 -30257.771484
v -625.000122 172.359268 -30149.519531
v -562.500122 172.359268 -28742.228516
v -625.000122 172.359268 -28850.480469
v -531.250122 172.359268 -28688.101563
v -531.250122 172.359268 -30311.898438
v -381.281738 172.359268 -28881.281250
v -469.670044 172.359268 -28969.669922
v -381.281738 172.359268 -30118.718750
v -469.669983 172.359268 -30030.330078
v -337.087646 172.359268 -30162.912109
v -337.087585 172.359268 -28837.087891
v -242.228088 172.359268 -29937.500000
v -350.481140 172.359268 -29875.000000
v -242.227966 172.359268 -29062.500000
v -350.481079 172.359268 -29125.000000
v -188.101440 172.359268 -29968.750000
v -188.101379 172.359268 -29031.250000
v -154.815247 172.359268 -29726.466797
v -275.555969 172.359268 -29694.113281
v -154.815063 172.359268 -29273.533203
v -275.555786 172.359268 -29305.884766
v -125.000183 172.359268 -29500.000000
v -250.000061 172.359268 -29500.000000
v -94.444946 172.359268 -29742.642578
v -94.444641 172.359268 -29257.357422
v -62.500179 172.359268 -29500.000000
v -500.000275 176.359161 -30366.025391
v -741.181152 176.359161 -30465.925781
v -531.250244 176.359161 -30311.898438
v -757.357239 176.359161 -30405.554688
v -741.181030 176.359161 -28534.074219
v -499.999969 176.359268 -28633.974609
v -757.357178 176.359161 -28594.445313
v -531.250122 176.359268 -28688.101563
v -292.893433 176.359161 -30207.105469
v -337.087585 176.359161 -30162.912109
v -292.893433 176.359161 -28792.892578
v -337.087585 176.359161 -28837.087891
v -133.974976 176.359161 -30000.000000
v -188.101440 176.359161 -29968.750000
v -133.974731 176.359161 -29000.000000
v -188.101440 176.359161 -29031.250000
v -34.074581 176.359161 -29241.181641
v -94.444946 176.359161 -29257.357422
v -34.074341 176.359161 -29758.818359
v -94.444641 176.359161 -29742.642578
v -0.000180 176.359161 -29500.000000
v -62.500179 176.359161 -29500.000000
v -1482.962646 172.359283 -29629.408203
v -1499.999756 172.359283 -29500.000000
v -1446.965576 172.359283 -29619.761719
v -1462.732666 172.359283 -29500.000000
v -1482.962646 172.359283 -29370.591797
v -1446.965576 172.359283 -29380.238281
v -1433.012451 172.359283 -29250.000000
v -1400.738281 172.359283 -29268.634766
v -1433.012451 172.359283 -29750.000000
v -1400.737915 172.359283 -29731.365234
v -1353.552979 172.359283 -29146.447266
v -1327.201172 172.359283 -29172.800781
v -1353.552979 172.359283 -29853.552734
v -1327.201172 172.359283 -29827.199219
v -1249.999756 172.359283 -29933.011719
v -1231.366089 172.359283 -29900.738281
v -1249.999756 172.359283 -29066.988281
v -1231.366089 172.359283 -29099.261719
v -1129.409302 172.359283 -29017.037109
v -1119.763794 172.359283 -29053.035156
v -1129.409180 172.359283 -29982.962891
v -1119.763794 172.359283 -29946.964844
v -1000.000244 172.359283 -30000.000000
v -1000.000244 172.359283 -29962.732422
v -1000.000061 172.359283 -29000.000000
v -1000.000244 172.359283 -29037.267578
v -940.000427 172.359268 -29603.921875
v -999.999939 172.359268 -29620.000000
v -957.943115 172.359283 -29572.851563
v -999.999756 172.359283 -29584.117188
v -999.999939 172.359268 -29380.000000
v -940.000427 172.359268 -29396.078125
v -999.999756 172.359283 -29415.882813
v -957.941162 172.359283 -29427.148438
v -870.590759 172.359283 -29982.962891
v -880.236206 172.359283 -29946.964844
v -870.590759 172.359283 -29017.037109
v -880.236206 172.359283 -29053.035156
v -896.074036 172.359268 -29560.000000
v -927.152039 172.359283 -29542.062500
v -896.074036 172.359268 -29440.000000
v -927.148132 172.359283 -29457.945313
v -879.999817 172.359268 -29500.000000
v -915.880615 172.359283 -29500.007813
v -750.000427 172.359283 -29066.988281
v -768.633850 172.359283 -29099.261719
v -750.000366 172.359283 -29933.011719
v -768.633911 172.359283 -29900.738281
v -646.446899 172.359283 -29853.552734
v -672.798828 172.359283 -29827.199219
v -646.446899 172.359283 -29146.445313
v -672.798706 172.359283 -29172.800781
v -566.987671 172.359283 -29750.000000
v -599.261963 172.359283 -29731.365234
v -566.987671 172.359283 -29250.000000
v -599.261719 172.359283 -29268.634766
v -517.037476 172.359283 -29629.408203
v -553.034668 172.359283 -29619.761719
v -517.037231 172.359283 -29370.591797
v -553.034424 172.359283 -29380.238281
v -500.000153 172.359283 -29500.000000
v -537.267212 172.359283 -29500.000000
v -1119.999878 172.359268 -29500.000000
v -1103.925415 172.359268 -29440.000000
v -1084.116943 172.359283 -29499.992188
v -1072.849365 172.359283 -29457.945313
v -1103.925415 172.359268 -29560.000000
v -1072.843384 172.359283 -29542.054688
v -1059.999390 172.359268 -29396.078125
v -1042.060181 172.359283 -29427.156250
v -1059.999390 172.359268 -29603.921875
v -1042.058350 172.359283 -29572.851563
v -999.999939 172.359268 -29500.000000
# 639 vertices

vt 2.84830 8.38040
vt 0.00000 7.00010
vt 0.27250 9.07060
vt 2.66660 7.00010
vt 0.27250 4.92950
vt 2.84830 5.61970
vt 3.38110 9.66670
vt 1.07170 11.00000
vt 1.07170 3.00010
vt 3.38110 4.33340
vt 4.22870 10.77130
vt 2.34310 12.65690
vt 2.34310 1.34320
vt 4.22870 3.22880
vt 5.33330 11.61890
vt 3.99990 13.92830
vt 3.99990 0.07180
vt 5.33330 2.38120
vt 5.92940 -0.72740
vt 6.61960 1.84840
vt 6.61960 12.15170
vt 5.92940 14.72740
vt 7.99990 12.33340
vt 7.99990 14.99990
vt 7.99990 -1.00000
vt 7.99990 1.66670
vt 9.38030 12.15170
vt 10.07050 14.72740
vt 10.07050 -0.72730
vt 9.38030 1.84840
vt 10.66660 11.61890
vt 11.99990 13.92820
vt 11.99990 0.07180
vt 10.66660 2.38120
vt 11.77120 10.77130
vt 13.65680 12.65690
vt 13.65680 1.34320
vt 11.77120 3.22880
vt 12.61880 9.66670
vt 14.92820 11.00000
vt 14.92820 3.00010
vt 12.61880 4.33340
vt 13.15160 8.38040
vt 15.72740 9.07060
vt 15.72740 4.92950
vt 13.15160 5.61970
vt 13.33330 7.00010
vt 15.99990 7.00010
vt -0.99990 -0.46150
vt 0.00000 -0.61970
vt -0.99990 -0.61970
vt 0.00000 -0.46150
vt 0.00190 -0.86250
vt 0.99800 -0.99810
vt 0.99800 -0.86250
vt 0.00190 -0.99810
vt 0.99990 -0.46150
vt 1.99990 -0.61970
vt 0.99990 -0.61970
vt 1.99990 -0.46150
vt 0.00190 -0.45720
vt 0.99800 -0.61770
vt 0.00190 -0.61770
vt 0.99800 -0.45720
vt 0.99990 -0.46320
vt 1.99990 -0.62640
vt 0.99990 -0.62640
vt 1.99990 -0.46320
vt 0.00190 -0.86620
vt 0.99800 -0.86620
vt -0.99990 -0.45520
vt 0.00000 -0.62590
vt -0.99990 -0.62590
vt 0.00000 -0.45520
vt -0.49990 -0.46000
vt 0.49680 -0.63480
vt -0.49990 -0.63480
vt 0.49680 -0.46000
vt -0.49880 -0.45960
vt 0.49990 -0.63520
vt -0.49880 -0.63520
vt 0.49990 -0.45960
vt 0.00190 0.54020
vt 0.99800 0.38210
vt 0.00190 0.38210
vt 0.99800 0.54020
vt 0.99800 0.13780
vt 0.00190 -0.00620
vt 0.00190 0.13780
vt 0.99800 -0.00620
vt 0.00190 0.53860
vt 0.99800 0.37630
vt 0.00190 0.37630
vt 0.99800 0.53860
vt 0.00190 0.54210
vt 0.99800 0.38020
vt 0.00190 0.38020
vt 0.99800 0.54210
vt 0.00190 0.13400
vt 0.99800 -0.00240
vt 0.99800 0.13400
vt 0.00190 -0.00240
vt 0.00190 0.54110
vt 0.99800 0.37750
vt 0.00190 0.37750
vt 0.99800 0.54110
vt 0.99800 0.53970
vt 0.00190 0.37770
vt 0.99800 0.37770
vt 0.00190 0.53970
vt 0.00190 0.54340
vt 0.99800 0.37890
vt 0.00190 0.37890
vt 0.99800 0.54340
vt 0.99800 0.13330
vt 0.00190 -0.00170
vt 0.00190 0.13330
vt 0.99800 -0.00170
vt 1.09380 -0.03970
vt -0.37910 0.62740
vt -0.41600 -0.03970
vt 0.92290 0.45740
vt 0.92040 0.01300
vt -0.24920 0.80210
vt 0.92040 0.80210
vt -0.24920 0.01300
vt -0.18170 0.64240
vt 1.23780 -0.04390
vt -0.29280 -0.04390
vt 1.14840 0.45310
vt 1.03590 0.52950
vt 0.04310 0.00190
vt 1.03590 0.00190
vt 0.04310 0.52950
vt 0.25460 -0.54580
vt -0.21230 -0.12750
vt 0.25460 -0.12750
vt -0.21230 -0.54580
vt 0.75170 -0.28880
vt 0.75170 -0.12750
vt 1.00320 -0.12750
vt 1.26810 -1.12980
vt 0.99350 -1.12980
vt 0.99350 -1.29110
vt 0.45090 -1.12980
vt 0.45090 -1.54810
vt -0.05890 -1.12980
vt -0.05890 -1.54810
vt 0.99800 0.62490
vt 0.00190 0.00190
vt 0.00190 0.62490
vt 0.99800 0.00190
vt 6.25460 -0.28090
vt 6.50400 -0.03970
vt 6.25460 -0.03970
vt 6.50400 -0.28090
vt 6.75340 -0.03970
vt 6.75340 -0.28090
vt 6.00520 -0.28090
vt 6.00520 -0.03970
vt 7.00280 -0.03970
vt 7.00280 -0.28090
vt 7.25230 -0.03970
vt 7.25230 -0.28090
vt 5.75580 -0.28090
vt 5.75580 -0.03970
vt 5.50640 -0.28090
vt 5.50640 -0.03970
vt 7.50170 -0.03970
vt 7.50170 -0.28090
vt 5.25700 -0.28090
vt 5.25700 -0.03970
vt 7.75110 -0.03970
vt 7.75110 -0.28090
vt 5.00760 -0.28090
vt 5.00760 -0.03970
vt 8.00050 -0.03970
vt 8.00050 -0.28090
vt 10.74390 -0.28090
vt 10.99330 -0.03970
vt 10.74390 -0.03970
vt 10.99330 -0.28090
vt 8.24990 -0.03970
vt 8.24990 -0.28090
vt 10.49450 -0.28090
vt 10.49450 -0.03970
vt 8.49930 -0.03970
vt 8.49930 -0.28090
vt 10.24510 -0.28090
vt 10.24510 -0.03970
vt 8.74870 -0.03970
vt 8.74870 -0.28090
vt 9.99570 -0.28090
vt 9.99570 -0.03970
vt 8.99810 -0.03970
vt 8.99810 -0.28090
vt 9.74630 -0.28090
vt 9.74630 -0.03970
vt 9.24750 -0.03970
vt 9.24750 -0.28090
vt 9.49690 -0.28090
vt 9.49690 -0.03970
vt -0.37340 -0.00200
vt -1.24690 -0.99810
vt -1.24690 -0.00200
vt -0.37340 -0.99810
vt 1.02710 -0.99810
vt 1.02710 -0.00200
vt 1.69130 -0.00200
vt 1.69130 -0.99810
vt 2.24690 -0.00200
vt 2.24690 -0.99810
vt 0.99800 -0.00200
vt 0.01070 -0.99810
vt 0.01070 -0.00200
vt -1.74250 -0.00200
vt -1.74250 -0.99810
vt -4.74360 -0.99810
vt -4.74360 -0.00200
vt -1.49820 -1.00200
vt -3.24960 -1.99810
vt -3.24960 -1.00200
vt -1.49820 -1.99810
vt -0.00300 -1.99810
vt -0.00300 -1.00200
vt 0.99800 -1.00200
vt 0.99800 -1.99810
vt 2.99000 -1.99810
vt 3.74170 -1.00200
vt 3.74170 -1.99810
vt 2.99000 -1.00200
vt 2.24300 -1.99810
vt 2.24300 -1.00200
vt 0.00190 -1.99810
vt 0.00190 -1.00200
vt 0.46650 -0.00010
vt 0.10880 -0.38870
vt 0.46650 -0.38870
vt 0.10880 -0.23890
vt 1.17650 -0.38870
vt 1.17650 -0.00010
vt -0.07210 -0.38870
vt 0.44310 -0.99450
vt 1.18800 -1.37840
vt 0.44310 -1.37840
vt 1.18800 -0.99450
vt 0.06780 -1.37840
vt 0.06780 -1.23040
vt -0.12190 -1.37840
vt 0.91600 -0.00200
vt 0.50000 -0.99810
vt 0.91600 -0.99810
vt 0.50000 -0.00200
vt 0.08390 -0.99810
vt 0.08390 -0.00200
vt 1.33210 -0.00200
vt 1.33210 -0.99810
vt -0.33210 -0.99810
vt -0.33210 -0.00200
vt 1.74820 -0.00200
vt 1.74820 -0.99810
vt -0.74820 -0.99810
vt -0.74820 -0.00200
vt 2.16420 -0.00200
vt 2.16420 -0.99810
vt -1.16420 -0.99810
vt -1.16420 -0.00200
vt 2.58030 -0.00200
vt 2.58030 -0.99810
vt -1.58030 -0.99810
vt -1.58030 -0.00200
vt -1.99640 -0.99810
vt -1.99640 -0.00200
vt 2.99640 -0.00200
vt 2.99640 -0.99810
vt 0.99480 -0.99810
vt 1.55910 -0.66610
vt 0.99480 -0.66610
vt 1.55910 -0.99810
vt 0.43050 -0.66610
vt 0.43050 -0.99810
vt 0.43050 -0.33400
vt 0.99480 -0.33400
vt 1.55910 -0.33400
vt 1.55910 -0.00200
vt 0.99480 -0.00200
vt 0.43050 -0.00200
vt 0.00220 -0.31150
vt 0.50000 -0.25170
vt 0.50000 -0.31150
vt 0.00220 -0.25170
vt 0.99770 -0.25170
vt 0.99770 -0.31150
vt -0.25530 -0.63120
vt 0.24820 -0.33370
vt 0.24820 -0.63120
vt -0.25530 -0.33370
vt 0.75130 -0.33370
vt 1.25400 -0.63120
vt 0.75130 -0.63120
vt 1.25400 -0.33370
vt 0.75130 -0.00200
vt 1.25400 -0.00200
vt -0.25530 -0.00200
vt 0.24820 -0.00200
vt 0.50000 -0.25130
vt 1.09960 -0.31200
vt 0.50000 -0.31200
vt 1.09960 -0.25130
vt -0.09960 -0.25130
vt -0.09960 -0.31200
vt -0.49550 -0.25170
vt -0.49550 -0.31150
vt 1.49550 -0.25170
vt 1.49550 -0.31150
vt -0.43420 -0.99810
vt 0.12630 -0.68170
vt -0.43420 -0.68170
vt 0.12630 -0.99810
vt 0.87360 -0.68170
vt 1.43420 -0.99810
vt 1.43420 -0.68170
vt 0.87360 -0.99810
vt -0.69920 -0.25130
vt -0.69920 -0.31200
vt 1.69920 -0.31200
vt 1.69920 -0.25130
vt 0.75170 -0.63120
vt 0.75170 -0.33370
vt 0.24860 -0.33370
vt 0.24860 -0.63120
vt 0.75170 -0.00200
vt 0.24860 -0.00200
vt 1.99330 -0.31150
vt 1.99330 -0.25170
vt -0.99330 -0.25170
vt -0.99330 -0.31150
vt 0.49990 -0.68170
vt 0.49990 -0.99810
vt -1.29880 -0.25130
vt -1.29880 -0.31200
vt 2.29880 -0.31200
vt 2.29880 -0.25130
vt 1.25530 -0.63120
vt 1.25530 -0.33370
vt -0.25400 -0.63120
vt -0.25400 -0.33370
vt -0.25400 -0.00200
vt 1.25530 -0.00200
vt -1.49110 -0.25170
vt -1.49110 -0.31150
vt 2.49110 -0.31150
vt 2.49110 -0.25170
vt -1.89840 -0.25130
vt -1.89840 -0.31200
vt 2.89840 -0.31200
vt 2.89840 -0.25130
vt -0.30900 -0.99810
vt 0.28140 -0.68790
vt -0.30900 -0.68790
vt 0.28140 -0.99810
vt 0.71810 -0.66920
vt 1.29950 -0.99810
vt 1.29950 -0.66920
vt 0.71810 -0.99810
vt 0.75400 -0.99810
vt 0.24590 -0.66610
vt 0.75400 -0.66610
vt 0.24590 -0.99810
vt 0.24730 -0.99810
vt 0.75260 -0.66610
vt 0.24730 -0.66610
vt 0.75260 -0.99810
vt 0.24590 -0.33400
vt 0.75400 -0.33400
vt 0.75260 -0.33400
vt 0.24730 -0.33400
vt 0.24590 -0.00200
vt 0.75400 -0.00200
vt 0.24730 -0.00200
vt 0.75260 -0.00200
vt -1.98880 -0.31150
vt -1.98880 -0.25170
vt 2.98880 -0.31150
vt 2.98880 -0.25170
vt 3.49800 -0.31200
vt 3.49800 -0.25130
vt -2.49800 -0.25130
vt -2.49800 -0.31200
vt 0.28180 -0.99810
vt 0.28180 -0.66920
vt 0.71850 -0.68790
vt 0.71850 -0.99810
vt -2.48660 -0.31150
vt -2.48660 -0.25170
vt 3.48660 -0.31150
vt 3.48660 -0.25170
vt -0.29950 -0.99810
vt -0.29950 -0.66920
vt 1.30900 -0.99810
vt 1.30900 -0.68790
vt -0.06780 -0.63120
vt 0.49990 -0.33370
vt 0.49990 -0.63120
vt -0.06780 -0.33370
vt 1.06660 -0.63120
vt 1.06660 -0.33370
vt 1.06660 -0.00200
vt 0.49990 -0.00200
vt -0.06780 -0.00200
vt -0.06660 -0.00200
vt -0.06660 -0.33370
vt 1.06780 -0.00200
vt 1.06780 -0.33370
vt -0.06660 -0.63120
vt 1.06780 -0.63120
vt 0.70990 -0.66920
vt 1.28830 -0.99810
vt 1.28830 -0.66920
vt 0.70990 -0.99810
vt -0.32660 -0.99810
vt 0.22440 -0.68790
vt -0.32660 -0.68790
vt 0.22440 -0.99810
vt 2.99330 -0.24800
vt 3.49190 -0.31180
vt 2.99330 -0.31180
vt 3.49190 -0.24800
vt -2.49190 -0.31180
vt -1.99330 -0.24800
vt -1.99330 -0.31180
vt -2.49190 -0.24800
vt 0.29000 -0.99810
vt 0.29000 -0.66920
vt 0.77550 -0.68790
vt 0.77550 -0.99810
vt -2.49400 -0.24890
vt -1.89520 -0.31180
vt -2.49400 -0.31180
vt -1.89520 -0.24890
vt 2.89520 -0.24890
vt 3.49400 -0.31180
vt 2.89520 -0.31180
vt 3.49400 -0.24890
vt 2.49460 -0.24800
vt 2.49460 -0.31180
vt -1.49460 -0.24800
vt -1.49460 -0.31180
vt 0.75000 -0.00200
vt 0.24990 -0.33400
vt 0.75000 -0.33400
vt 0.24990 -0.00200
vt 0.24160 -0.33400
vt 0.75830 -0.00200
vt 0.75830 -0.33400
vt 0.24160 -0.00200
vt 0.24990 -0.66610
vt 0.75000 -0.66610
vt 0.75830 -0.66610
vt 0.24160 -0.66610
vt 0.24990 -0.99810
vt 0.75000 -0.99810
vt 0.75830 -0.99810
vt 0.24160 -0.99810
vt -0.28830 -0.99810
vt -0.28830 -0.66920
vt 1.32660 -0.99810
vt 1.32660 -0.68790
vt -1.29640 -0.31180
vt -1.29640 -0.24890
vt 2.29640 -0.24890
vt 2.29640 -0.31180
vt 1.99590 -0.24800
vt 1.99590 -0.31180
vt -0.99590 -0.31180
vt -0.99590 -0.24800
vt 0.74860 -0.00200
vt 1.24590 -0.33370
vt 0.74860 -0.33370
vt 1.24590 -0.00200
vt 1.24590 -0.63120
vt 0.74860 -0.63120
vt -0.69760 -0.31180
vt -0.69760 -0.24890
vt 1.69760 -0.24890
vt 1.69760 -0.31180
vt 1.06550 -0.60060
vt 0.49990 -0.60060
vt 1.06550 -0.99810
vt -0.06550 -0.99810
vt -0.06550 -0.60060
vt 1.49730 -0.24800
vt 1.49730 -0.31180
vt -0.49730 -0.31180
vt -0.49730 -0.24800
vt 0.25130 -0.00200
vt 0.25130 -0.33370
vt 0.25130 -0.63120
vt -0.09880 -0.31180
vt -0.09880 -0.24890
vt 1.09880 -0.24890
vt 1.09880 -0.31180
vt 1.86030 -0.99810
vt 1.86030 -0.60060
vt -0.86030 -0.99810
vt -0.86030 -0.60060
vt 0.99860 -0.31180
vt 0.99860 -0.24800
vt 0.00130 -0.31180
vt 0.00130 -0.24800
vt 0.50000 -0.31180
vt 0.50000 -0.24890
vt -0.24590 -0.00200
vt -0.24590 -0.33370
vt -0.24590 -0.63120
vt 0.50000 -0.24800
vt 0.49990 -0.31180
vt -0.00760 -0.00200
vt -0.56270 -0.33400
vt -0.00760 -0.33400
vt -0.56270 -0.00200
vt 0.54750 -0.00200
vt 0.54750 -0.33400
vt -0.00760 -0.66610
vt -0.56270 -0.66610
vt 0.54750 -0.66610
vt -0.00760 -0.99810
vt -0.56270 -0.99810
vt 0.54750 -0.99810
vt 0.00190 -1.00040
vt 0.18460 -0.50000
vt 0.18460 -1.00040
vt 0.00190 -0.50000
vt 0.18460 0.00040
vt 0.00190 0.00040
vt 0.00190 -1.50080
vt 0.18460 -1.50080
vt 0.18460 0.50080
vt 0.00190 0.50080
vt 0.18460 1.00130
vt 0.00190 1.00130
vt 0.00190 -2.00130
vt 0.18460 -2.00130
vt 0.00190 -2.50170
vt 0.18460 -2.50170
vt 0.18460 1.50170
vt 0.00190 1.50170
vt 0.00190 -3.00210
vt 0.18460 -3.00210
vt 0.18460 2.00210
vt 0.00190 2.00210
vt 2.00130 -0.00200
vt 2.00130 -0.99810
vt -0.99880 -0.99810
vt -0.99880 -0.00200
vt -1.00130 -0.99810
vt -1.00130 -0.00200
vt 1.99880 -0.00200
vt 1.99880 -0.99810
vt 0.49990 -0.62520
vt 1.20900 -0.89370
vt 0.49990 -0.89370
vt 1.20900 -0.62520
vt 1.91810 -0.89370
vt 1.91810 -0.62520
vt 2.62720 -0.89370
vt 2.62720 -0.62520
vt -0.20900 -0.62520
vt -0.20900 -0.89370
vt 1.20900 -0.00010
vt 1.91810 -0.00010
vt 0.49990 -0.00010
vt 2.62720 -0.00010
vt -0.20900 -0.00010
vt 3.33620 -0.89370
vt 3.33620 -0.62520
vt -0.91810 -0.62520
vt -0.91810 -0.89370
vt 3.33620 -0.00010
vt -0.91810 -0.00010
vt -1.62720 -0.62520
vt -1.62720 -0.89370
vt 4.04530 -0.89370
vt 4.04530 -0.62520
vt -1.62720 -0.00010
vt 4.04530 -0.00010
vt -2.33620 -0.62520
vt -2.33620 -0.89370
vt 4.75440 -0.89370
vt 4.75440 -0.62520
vt 4.75440 -0.00010
vt -2.33620 -0.00010
vt -3.04530 -0.62520
vt -3.04530 -0.89370
vt -3.04530 -0.00010
vt -3.75440 -0.00010
vt -3.75440 -0.62520
vt -3.75440 -0.89370
vt 0.00190 1.49910
vt 0.18350 1.99890
vt 0.18350 1.49910
vt 0.00190 1.99890
vt 0.00190 -2.99890
vt 0.18350 -2.49910
vt 0.18350 -2.99890
vt 0.00190 -2.49910
vt 0.00190 0.99930
vt 0.18350 0.99930
vt 0.18350 -1.99930
vt 0.00190 -1.99930
vt 0.00190 0.49950
vt 0.18350 0.49950
vt 0.18350 -1.49950
vt 0.00190 -1.49950
vt 0.18350 -0.99980
vt 0.00190 -0.99980
vt 0.00190 -0.00030
vt 0.18350 -0.00030
vt 0.18350 -0.50010
vt 0.00190 -0.50010
vt -0.33200 5.51340
vt 0.50000 5.99800
vt -0.33200 5.99800
vt 0.50000 5.51340
vt 1.33200 5.99800
vt 1.33200 5.51340
vt 2.16400 5.99800
vt 2.16400 5.51340
vt -1.16400 5.51340
vt -1.16400 5.99800
vt 2.99600 5.99800
vt 2.99600 5.51340
vt -1.99600 5.51340
vt -1.99600 5.99800
vt -2.82800 5.51340
vt -2.82800 5.99800
vt 3.82800 5.99800
vt 3.82800 5.51340
vt 4.66010 5.99800
vt 4.66010 5.51340
vt -3.66010 5.51340
vt -3.66010 5.99800
vt -4.49210 5.51340
vt -4.49210 5.99800
vt 5.49210 5.99800
vt 5.49210 5.51340
vt 1.16650 5.99800
vt 1.49980 5.74990
vt 1.16650 5.74990
vt 1.49980 5.99800
vt -0.49980 5.99800
vt -0.16650 5.74990
vt -0.49980 5.74990
vt -0.16650 5.99800
vt 0.83320 5.99800
vt 0.83320 5.74990
vt 0.16670 5.74990
vt 0.16670 5.99800
vt 0.49990 5.99800
vt 0.49990 5.74990
vt 1.09750 1.00060
vt 1.16230 1.49280
vt 2.50580 1.00060
vt 1.16230 0.50850
vt 2.57190 0.75410
vt 1.35220 0.04990
vt 1.35220 1.95140
vt 2.57190 1.24720
vt 1.65440 -0.34380
vt 1.65440 2.34510
vt 2.04820 2.64730
vt 2.75240 1.42770
vt 2.04820 -0.64600
vt 2.75240 0.57360
vt 2.50680 2.83730
vt 2.50680 -0.83600
vt 2.99890 1.49370
vt 2.99890 0.50760
vt 2.99890 2.90210
vt 2.99890 -0.90080
vt 3.49100 2.83730
vt 3.49100 -0.83600
vt 3.24540 1.42770
vt 3.24540 0.57360
vt 3.94960 2.64730
vt 3.94960 -0.64600
vt 4.34340 2.34510
vt 3.42590 1.24720
vt 4.34340 -0.34380
vt 3.42590 0.75410
vt 3.49200 1.00060
vt 4.83550 1.49280
vt 4.83550 0.50850
vt 4.64560 1.95140
vt 4.64560 0.04990
vt 4.90030 1.00060
vt 0.49990 5.49990
vt 0.72410 5.11170
vt 0.50000 5.05170
vt 0.27580 5.11170
vt 0.88820 5.27580
vt 0.11170 5.27580
vt 0.94820 5.49990
vt 0.05170 5.49990
vt 0.11170 5.72410
vt 0.88820 5.72410
vt 0.27580 5.88820
vt 0.72410 5.88820
vt 0.49990 5.94820
# 709 texture vertices

g Object_2
usemtl texture0
f 1/3 2/2 3/1
f 2/2 4/4 3/1
f 2/2 5/5 4/4
f 5/5 6/6 4/4
f 7/8 1/3 8/7
f 1/3 3/1 8/7
f 5/5 9/9 6/6
f 9/9 10/10 6/6
f 11/12 7/8 12/11
f 7/8 8/7 12/11
f 9/9 13/13 10/10
f 13/13 14/14 10/10
f 15/16 11/12 16/15
f 11/12 12/11 16/15
f 13/13 17/17 14/14
f 17/17 18/18 14/14
f 17/17 19/19 18/18
f 19/19 20/20 18/18
f 21/22 15/16 22/21
f 15/16 16/15 22/21
f 23/24 21/22 24/23
f 21/22 22/21 24/23
f 19/19 25/25 20/20
f 25/25 26/26 20/20
f 27/28 23/24 28/27
f 23/24 24/23 28/27
f 25/25 29/29 26/26
f 29/29 30/30 26/26
f 31/32 27/28 32/31
f 27/28 28/27 32/31
f 29/29 33/33 30/30
f 33/33 34/34 30/30
f 35/36 31/32 36/35
f 31/32 32/31 36/35
f 33/33 37/37 34/34
f 37/37 38/38 34/34
f 39/40 35/36 40/39
f 35/36 36/35 40/39
f 37/37 41/41 38/38
f 41/41 42/42 38/38
f 43/44 39/40 44/43
f 39/40 40/39 44/43
f 41/41 45/45 42/42
f 45/45 46/46 42/42
f 47/48 43/44 48/47
f 43/44 44/43 48/47
f 45/45 47/48 46/46
f 47/48 48/47 46/46
g obj1
usemtl mat1
f 49/51 50/50 51/49
f 50/50 52/52 51/49
f 52/55 53/54 51/53
f 53/54 54/56 51/53
f 55/59 56/58 53/57
f 56/58 54/60 53/57
f 57/53 58/56 59/55
f 58/56 60/54 59/55
f 61/63 62/62 58/61
f 62/62 60/64 58/61
f 63/63 64/62 65/61
f 64/62 66/64 65/61
f 67/63 68/62 69/61
f 68/62 70/64 69/61
f 70/53 65/56 69/55
f 65/56 66/54 69/55
f 71/67 72/66 73/65
f 72/66 74/68 73/65
f 75/70 73/54 76/69
f 73/54 74/56 76/69
f 77/73 78/72 76/71
f 78/72 75/74 76/71
f 79/77 80/76 81/75
f 80/76 82/78 81/75
f 83/70 81/54 84/69
f 81/54 82/56 84/69
f 85/81 86/80 84/79
f 86/80 83/82 84/79
f 87/85 88/84 89/83
f 88/84 90/86 89/83
f 90/89 91/88 89/87
f 91/88 92/90 89/87
f 93/93 94/92 91/91
f 94/92 92/94 91/91
usemtl texture1
f 95/63 96/62 59/61
f 96/62 57/64 59/61
f 97/97 98/96 99/95
f 98/96 100/98 99/95
f 101/101 99/100 102/99
f 99/100 100/102 102/99
f 103/105 104/104 102/103
f 104/104 101/106 102/103
f 105/109 106/108 107/107
f 106/108 108/110 107/107
f 109/113 110/112 111/111
f 110/112 112/114 111/111
f 108/117 111/116 107/115
f 111/116 112/118 107/115
usemtl texture2
f 113/121 114/120 115/119
f 114/120 116/122 115/119
f 116/125 114/124 117/123
f 114/124 118/126 117/123
f 119/121 120/119 118/120
f 120/119 117/122 118/120
f 121/129 122/128 123/127
f 122/128 124/130 123/127
f 125/133 126/132 124/131
f 126/132 123/134 124/131
f 127/129 126/127 128/128
f 126/127 125/130 128/128
f 129/137 130/136 131/135
f 131/135 130/136 132/138
f 133/138 134/136 135/135
f 134/136 136/137 135/135
f 131/135 137/139 129/137
f 137/139 138/140 129/137
f 135/135 136/137 139/139
f 136/137 140/140 139/139
f 138/140 137/139 141/141
f 139/139 140/140 142/141
f 143/144 144/143 145/142
f 146/143 147/144 148/142
f 149/146 150/145 143/144
f 150/145 144/143 143/144
f 151/146 147/144 152/145
f 147/144 146/143 152/145
f 153/148 154/147 149/146
f 154/147 150/145 149/146
f 152/145 155/147 151/146
f 151/146 155/147 156/148
usemtl texture3
f 115/151 116/150 120/149
f 116/150 117/152 120/149
f 128/149 125/152 122/151
f 125/152 124/150 122/151
usemtl texture4
f 157/155 158/154 159/153
f 158/154 160/156 159/153
f 158/154 161/157 160/156
f 161/157 162/158 160/156
f 163/160 157/155 164/159
f 157/155 159/153 164/159
f 161/157 165/161 162/158
f 165/161 166/162 162/158
f 165/161 167/163 166/162
f 167/163 168/164 166/162
f 169/166 163/160 170/165
f 163/160 164/159 170/165
f 171/168 169/166 172/167
f 169/166 170/165 172/167
f 167/163 173/169 168/164
f 173/169 174/170 168/164
f 175/172 171/168 176/171
f 171/168 172/167 176/171
f 173/169 177/173 174/170
f 177/173 178/174 174/170
f 179/176 175/172 180/175
f 175/172 176/171 180/175
f 177/173 181/177 178/174
f 181/177 182/178 178/174
f 183/181 179/180 184/179
f 179/180 180/182 184/179
f 181/177 185/183 182/178
f 185/183 186/184 182/178
f 187/186 183/181 188/185
f 183/181 184/179 188/185
f 185/183 189/187 186/184
f 189/187 190/188 186/184
f 191/190 187/186 192/189
f 187/186 188/185 192/189
f 189/187 193/191 190/188
f 193/191 194/192 190/188
f 195/194 191/190 196/193
f 191/190 192/189 196/193
f 193/191 197/195 194/192
f 197/195 198/196 194/192
f 199/198 195/194 200/197
f 195/194 196/193 200/197
f 197/195 201/199 198/196
f 201/199 202/200 198/196
f 203/202 199/198 204/201
f 199/198 200/197 204/201
f 201/199 203/202 202/200
f 203/202 204/201 202/200
usemtl texture5
f 132/205 133/204 131/203
f 133/204 135/206 131/203
f 135/206 139/207 131/203
f 139/207 137/208 131/203
f 137/208 139/207 141/209
f 139/207 142/210 141/209
f 140/212 138/211 142/210
f 138/211 141/209 142/210
f 205/215 206/214 207/213
f 206/214 208/54 207/213
f 209/217 206/214 210/216
f 206/214 205/215 210/216
f 211/219 212/218 210/216
f 212/218 209/217 210/216
f 213/222 214/221 215/220
f 214/221 216/223 215/220
f 216/223 217/224 215/220
f 217/224 218/225 215/220
f 218/225 217/224 219/226
f 217/224 220/227 219/226
f 144/230 146/229 145/228
f 146/229 148/231 145/228
f 147/233 143/232 148/231
f 143/232 145/228 148/231
f 149/227 143/232 151/226
f 143/232 147/233 151/226
f 156/235 153/234 151/226
f 153/234 149/227 151/226
usemtl texture6
f 221/238 222/237 209/236
f 209/236 222/237 206/239
f 223/238 210/236 224/237
f 210/236 205/239 224/237
f 212/241 225/240 209/236
f 225/240 221/238 209/236
f 223/238 226/240 210/236
f 210/236 226/240 211/241
f 206/239 222/237 208/242
f 224/237 205/239 207/242
f 227/245 228/244 215/243
f 215/243 228/244 213/246
f 214/246 229/244 216/243
f 229/244 230/245 216/243
f 227/245 215/243 231/247
f 215/243 218/248 231/247
f 230/245 232/247 216/243
f 216/243 232/247 217/248
f 231/247 218/248 219/249
f 217/248 232/247 220/249
usemtl texture7
f 233/252 234/251 235/250
f 236/253 235/250 234/251
f 234/251 237/254 236/253
f 238/255 236/253 237/254
f 239/257 233/252 240/256
f 235/250 240/256 233/252
f 237/254 241/258 238/255
f 242/259 238/255 241/258
f 243/261 239/257 244/260
f 240/256 244/260 239/257
f 241/258 245/262 242/259
f 246/263 242/259 245/262
f 247/265 243/261 248/264
f 244/260 248/264 243/261
f 245/262 249/266 246/263
f 250/267 246/263 249/266
f 251/269 247/265 252/268
f 248/264 252/268 247/265
f 249/266 253/270 250/267
f 254/271 250/267 253/270
f 253/270 255/272 254/271
f 256/273 254/271 255/272
f 257/275 251/269 258/274
f 252/268 258/274 251/269
f 259/270 257/272 260/271
f 258/273 260/271 257/272
f 255/275 261/269 256/274
f 262/268 256/274 261/269
f 263/266 259/270 264/267
f 260/271 264/267 259/270
f 261/269 265/265 262/268
f 266/264 262/268 265/265
f 267/262 263/266 268/263
f 264/267 268/263 263/266
f 265/265 269/261 266/264
f 270/260 266/264 269/261
f 271/258 267/262 272/259
f 268/263 272/259 267/262
f 269/261 273/257 270/260
f 274/256 270/260 273/257
f 275/254 271/258 276/255
f 272/259 276/255 271/258
f 273/257 277/252 274/256
f 278/250 274/256 277/252
f 279/251 275/254 280/253
f 276/255 280/253 275/254
f 277/252 279/251 278/250
f 280/253 278/250 279/251
usemtl texture8
f 281/278 282/277 283/276
f 282/277 284/279 283/276
f 281/278 283/276 285/280
f 285/280 283/276 286/281
f 285/280 287/282 281/278
f 281/278 287/282 288/283
f 282/277 281/278 289/284
f 281/278 288/283 289/284
f 289/284 288/283 290/285
f 288/283 291/286 290/285
f 288/283 287/282 291/286
f 287/282 292/287 291/286
f 291/290 293/289 290/288
f 290/288 293/289 294/291
f 292/293 295/292 291/290
f 291/290 295/292 293/289
f 296/296 297/295 285/294
f 285/294 297/295 287/297
f 298/300 282/299 299/298
f 282/299 289/301 299/298
f 299/298 289/301 300/302
f 289/301 290/303 300/302
f 287/297 297/295 292/304
f 297/295 301/305 292/304
f 302/308 303/307 304/306
f 303/307 305/309 304/306
f 306/311 302/308 307/310
f 302/308 304/306 307/310
f 300/313 290/288 308/312
f 290/288 294/291 308/312
f 301/315 309/314 292/293
f 292/293 309/314 295/292
f 282/318 310/317 284/316
f 310/317 311/319 284/316
f 285/322 286/321 312/320
f 312/320 286/321 313/323
f 314/325 306/311 315/324
f 306/311 307/310 315/324
f 303/307 316/326 305/309
f 316/326 317/327 305/309
f 296/296 318/328 297/295
f 318/328 319/329 297/295
f 320/331 298/300 321/330
f 298/300 299/298 321/330
f 297/295 319/329 301/305
f 319/329 322/332 301/305
f 321/330 299/298 323/333
f 299/298 300/302 323/333
f 301/315 322/334 309/314
f 322/334 324/335 309/314
f 323/337 300/313 325/336
f 300/313 308/312 325/336
f 310/317 326/338 311/319
f 326/338 327/339 311/319
f 326/338 312/320 327/339
f 312/320 313/323 327/339
f 328/341 314/325 329/340
f 314/325 315/324 329/340
f 316/326 330/342 317/327
f 330/342 331/343 317/327
f 318/328 332/344 319/329
f 332/344 333/345 319/329
f 320/331 321/330 334/346
f 334/346 321/330 335/347
f 335/347 321/330 336/348
f 321/330 323/333 336/348
f 319/329 333/345 322/332
f 333/345 337/349 322/332
f 336/351 323/337 338/350
f 323/337 325/336 338/350
f 322/334 337/352 324/335
f 337/352 339/353 324/335
f 340/355 328/341 341/354
f 328/341 329/340 341/354
f 330/342 342/356 331/343
f 342/356 343/357 331/343
f 332/360 344/359 345/358
f 344/359 346/361 345/358
f 334/364 347/363 348/362
f 348/362 347/363 349/365
f 350/368 332/367 351/366
f 332/367 345/369 351/366
f 334/372 352/371 347/370
f 352/371 353/373 347/370
f 332/367 350/368 333/374
f 350/368 354/375 333/374
f 352/371 334/372 355/376
f 334/372 335/377 355/376
f 333/374 354/375 337/378
f 354/375 356/379 337/378
f 335/377 336/380 355/376
f 355/376 336/380 357/381
f 336/351 338/350 357/382
f 357/382 338/350 358/383
f 337/352 356/384 339/353
f 356/384 359/385 339/353
f 342/356 360/386 343/357
f 360/386 361/387 343/357
f 362/389 340/355 363/388
f 340/355 341/354 363/388
f 364/391 348/362 365/390
f 348/362 349/365 365/390
f 344/359 366/392 346/361
f 366/392 367/393 346/361
f 357/382 358/383 360/394
f 360/394 358/383 361/395
f 356/384 362/396 359/385
f 362/396 363/397 359/385
f 352/399 364/391 353/398
f 364/391 365/390 353/398
f 350/401 351/400 366/392
f 366/392 351/400 367/393
f 368/404 369/403 350/402
f 350/402 369/403 354/405
f 370/404 352/406 371/403
f 352/406 355/407 371/403
f 355/407 357/408 371/403
f 371/403 357/408 372/409
f 354/405 369/403 356/410
f 369/403 373/409 356/410
f 374/412 371/403 375/411
f 371/403 372/409 375/411
f 376/414 377/413 369/403
f 369/403 377/413 373/409
f 370/404 371/403 378/415
f 378/415 371/403 374/412
f 368/404 379/416 369/403
f 379/416 376/414 369/403
f 378/419 380/418 381/417
f 381/417 380/418 382/420
f 379/423 383/422 384/421
f 383/422 385/424 384/421
f 375/427 386/426 387/425
f 386/426 388/428 387/425
f 377/431 389/430 390/429
f 390/429 389/430 391/432
f 392/434 381/417 393/433
f 381/417 382/420 393/433
f 383/422 394/435 385/424
f 394/435 395/436 385/424
f 386/439 396/438 388/437
f 396/438 397/440 388/437
f 398/443 390/442 399/441
f 390/442 391/444 399/441
f 387/425 400/445 375/427
f 401/446 375/427 400/445
f 402/448 403/447 377/431
f 377/431 403/447 389/430
f 404/451 374/450 401/449
f 374/450 375/452 401/449
f 405/455 402/454 376/453
f 376/453 402/454 377/456
f 406/458 378/457 404/451
f 378/457 374/450 404/451
f 379/460 407/459 376/453
f 407/459 405/455 376/453
f 378/457 406/458 380/461
f 406/458 408/462 380/461
f 407/459 379/460 409/463
f 379/460 384/464 409/463
f 406/466 392/434 408/465
f 392/434 393/433 408/465
f 407/468 409/467 394/435
f 394/435 409/467 395/436
f 396/438 410/469 397/440
f 410/469 411/470 397/440
f 412/472 398/443 413/471
f 398/443 399/441 413/471
f 414/474 401/446 415/473
f 401/446 400/445 415/473
f 402/448 416/475 403/447
f 416/475 417/476 403/447
f 418/479 404/478 414/477
f 404/478 401/480 414/477
f 405/347 419/330 402/348
f 419/330 416/333 402/348
f 420/482 406/481 418/479
f 406/481 404/478 418/479
f 421/331 419/330 407/346
f 407/346 419/330 405/347
f 410/469 422/483 411/470
f 422/483 423/484 411/470
f 424/486 412/472 425/485
f 412/472 413/471 425/485
f 426/488 427/487 428/339
f 427/487 429/489 428/339
f 430/491 426/488 431/490
f 426/488 428/339 431/490
f 432/493 414/474 433/492
f 414/474 415/473 433/492
f 416/475 434/494 417/476
f 434/494 435/495 417/476
f 436/497 418/479 432/496
f 418/479 414/477 432/496
f 419/330 437/298 416/333
f 437/298 434/302 416/333
f 438/498 420/482 436/497
f 420/482 418/479 436/497
f 421/331 439/300 419/330
f 439/300 437/298 419/330
f 422/483 440/499 423/484
f 440/499 441/500 423/484
f 442/502 424/486 443/501
f 424/486 425/485 443/501
f 444/504 445/503 427/487
f 427/487 445/503 429/489
f 446/506 430/491 447/505
f 430/491 431/490 447/505
f 432/493 433/492 448/507
f 448/507 433/492 449/508
f 450/510 435/495 451/509
f 434/494 451/509 435/495
f 440/499 452/511 441/500
f 452/511 453/512 441/500
f 452/511 442/502 453/512
f 442/502 443/501 453/512
f 454/514 436/497 448/513
f 436/497 432/496 448/513
f 437/298 455/301 434/302
f 455/301 451/303 434/302
f 438/498 436/497 444/515
f 444/515 436/497 454/514
f 439/300 446/299 437/298
f 446/299 455/301 437/298
f 456/517 448/507 457/516
f 448/507 449/508 457/516
f 451/509 456/517 450/510
f 456/517 457/516 450/510
f 458/520 454/519 456/518
f 454/519 448/521 456/518
f 455/523 458/520 451/522
f 458/520 456/518 451/522
f 444/525 454/519 459/524
f 459/524 454/519 458/520
f 446/526 459/524 455/523
f 459/524 458/520 455/523
f 459/524 460/527 444/525
f 444/525 460/527 445/528
f 459/524 446/526 460/527
f 446/526 447/529 460/527
usemtl texture9
f 294/532 461/531 305/530
f 461/531 462/533 305/530
f 461/531 295/534 462/533
f 295/534 307/535 462/533
f 308/537 294/532 317/536
f 294/532 305/530 317/536
f 295/534 309/538 307/535
f 309/538 315/539 307/535
f 309/538 324/540 315/539
f 324/540 329/541 315/539
f 325/543 308/537 463/542
f 308/537 317/536 463/542
f 464/545 325/543 343/544
f 325/543 463/542 343/544
f 324/540 339/546 329/541
f 339/546 341/547 329/541
f 358/549 464/545 361/548
f 464/545 343/544 361/548
f 339/546 465/550 341/547
f 465/550 466/551 341/547
g obj2
usemtl mat2
f 467/409 468/552 469/339
f 468/552 470/553 469/339
f 471/555 472/409 473/554
f 472/409 474/339 473/554
f 475/557 467/409 476/556
f 467/409 469/339 476/556
f 472/409 477/558 474/339
f 477/558 478/559 474/339
usemtl mat3
f 479/562 480/561 481/560
f 480/561 482/563 481/560
f 480/561 483/564 482/563
f 483/564 484/565 482/563
f 483/564 485/566 484/565
f 485/566 486/567 484/565
f 487/569 479/562 488/568
f 479/562 481/560 488/568
f 482/563 484/565 489/570
f 484/565 490/571 489/570
f 481/560 482/563 491/572
f 482/563 489/570 491/572
f 484/565 486/567 490/571
f 486/567 492/573 490/571
f 488/568 481/560 493/574
f 481/560 491/572 493/574
f 485/566 494/575 486/567
f 494/575 495/576 486/567
f 496/578 487/569 497/577
f 487/569 488/568 497/577
f 486/567 495/576 492/573
f 495/576 498/579 492/573
f 497/577 488/568 499/580
f 488/568 493/574 499/580
f 500/582 496/578 501/581
f 496/578 497/577 501/581
f 494/575 502/583 495/576
f 502/583 503/584 495/576
f 501/581 497/577 504/585
f 497/577 499/580 504/585
f 495/576 503/584 498/579
f 503/584 505/586 498/579
f 470/588 500/582 506/587
f 500/582 501/581 506/587
f 502/583 473/589 503/584
f 473/589 507/590 503/584
f 503/584 507/590 505/586
f 507/590 508/591 505/586
f 506/587 501/581 509/592
f 501/581 504/585 509/592
f 469/594 470/588 510/593
f 470/588 506/587 510/593
f 473/589 474/583 507/590
f 474/583 511/584 507/590
f 507/590 511/584 508/591
f 511/584 512/586 508/591
f 510/593 506/587 513/595
f 506/587 509/592 513/595
f 514/597 510/593 515/596
f 510/593 513/595 515/596
f 511/584 516/576 512/586
f 516/576 517/579 512/586
f 476/598 469/594 514/597
f 469/594 510/593 514/597
f 474/583 478/575 511/584
f 478/575 516/576 511/584
f 518/593 514/597 519/595
f 514/597 515/596 519/595
f 516/576 520/567 517/579
f 520/567 521/573 517/579
f 478/575 522/566 516/576
f 522/566 520/567 516/576
f 523/594 476/598 518/593
f 476/598 514/597 518/593
f 520/567 524/565 521/573
f 524/565 525/571 521/573
f 526/587 518/593 527/592
f 518/593 519/595 527/592
f 528/588 523/594 526/587
f 523/594 518/593 526/587
f 522/566 529/564 520/567
f 529/564 524/565 520/567
f 530/581 526/587 531/585
f 526/587 527/592 531/585
f 524/565 532/563 525/571
f 532/563 533/570 525/571
f 534/582 528/588 530/581
f 528/588 526/587 530/581
f 529/564 535/561 524/565
f 535/561 532/563 524/565
f 536/577 530/581 537/580
f 530/581 531/585 537/580
f 532/563 538/560 533/570
f 538/560 539/572 533/570
f 540/568 536/577 541/574
f 536/577 537/580 541/574
f 538/560 540/568 539/572
f 540/568 541/574 539/572
f 542/578 534/582 536/577
f 534/582 530/581 536/577
f 535/561 543/562 532/563
f 543/562 538/560 532/563
f 544/569 542/578 540/568
f 542/578 536/577 540/568
f 543/562 544/569 538/560
f 544/569 540/568 538/560
usemtl mat4
f 545/601 546/600 547/599
f 546/600 548/602 547/599
f 549/605 550/604 551/603
f 550/604 552/606 551/603
f 553/608 545/601 554/607
f 545/601 547/599 554/607
f 550/604 555/609 552/606
f 555/609 556/610 552/606
f 557/612 553/608 558/611
f 553/608 554/607 558/611
f 555/609 559/613 556/610
f 559/613 560/614 556/610
f 559/613 561/615 560/614
f 561/615 562/616 560/614
f 563/618 557/612 564/617
f 557/612 558/611 564/617
f 561/615 565/619 562/616
f 565/619 566/620 562/616
f 565/619 563/618 566/620
f 563/618 564/617 566/620
usemtl mat5
f 567/623 568/622 569/621
f 568/622 570/624 569/621
f 568/622 571/625 570/624
f 571/625 572/626 570/624
f 571/625 573/627 572/626
f 573/627 574/628 572/626
f 575/630 567/623 576/629
f 567/623 569/621 576/629
f 573/627 577/631 574/628
f 577/631 578/632 574/628
f 579/634 575/630 580/633
f 575/630 576/629 580/633
f 581/636 579/634 582/635
f 579/634 580/633 582/635
f 577/631 583/637 578/632
f 583/637 584/638 578/632
f 583/637 585/639 584/638
f 585/639 586/640 584/638
f 587/642 581/636 588/641
f 581/636 582/635 588/641
f 589/644 587/642 590/643
f 587/642 588/641 590/643
f 585/639 591/645 586/640
f 591/645 592/646 586/640
f 593/649 594/648 595/647
f 594/648 596/650 595/647
f 597/653 598/652 599/651
f 598/652 600/654 599/651
f 601/639 589/645 602/640
f 589/645 590/646 602/640
f 591/644 603/642 592/643
f 603/642 604/641 592/643
f 605/656 593/649 606/655
f 593/649 595/647 606/655
f 598/652 607/657 600/654
f 607/657 608/658 600/654
f 609/660 605/656 610/659
f 605/656 606/655 610/659
f 607/657 609/660 608/658
f 609/660 610/659 608/658
f 603/642 611/636 604/641
f 611/636 612/635 604/641
f 613/637 601/639 614/638
f 601/639 602/640 614/638
f 615/631 613/637 616/632
f 613/637 614/638 616/632
f 611/636 617/634 612/635
f 617/634 618/633 612/635
f 619/627 615/631 620/628
f 615/631 616/632 620/628
f 617/634 621/630 618/633
f 621/630 622/629 618/633
f 623/625 619/627 624/626
f 619/627 620/628 624/626
f 621/630 625/623 622/629
f 625/623 626/621 622/629
f 627/622 623/625 628/624
f 623/625 624/626 628/624
f 625/623 627/622 626/621
f 627/622 628/624 626/621
f 629/660 630/656 631/659
f 630/656 632/655 631/659
f 633/657 629/660 634/658
f 629/660 631/659 634/658
f 630/656 635/649 632/655
f 635/649 636/647 632/655
f 637/652 633/657 638/654
f 633/657 634/658 638/654
f 635/649 597/648 636/647
f 597/648 599/650 636/647
f 594/653 637/652 596/651
f 637/652 638/654 596/651
usemtl mat6
f 629/663 569/662 570/661
f 572/664 629/663 570/661
f 574/666 630/665 572/664
f 569/662 633/668 576/667
f 578/669 630/665 574/666
f 633/668 580/670 576/667
f 572/664 630/665 629/663
f 629/663 633/668 569/662
f 580/670 637/672 582/671
f 635/674 578/669 584/673
f 633/668 637/672 580/670
f 635/674 630/665 578/669
f 582/671 637/672 588/675
f 586/676 635/674 584/673
f 588/675 637/672 594/677
f 597/678 635/674 586/676
f 588/675 594/677 590/679
f 597/678 586/676 592/680
f 594/677 602/681 590/679
f 604/682 597/678 592/680
f 594/677 593/683 602/681
f 604/682 598/684 597/678
f 602/681 593/683 614/685
f 612/686 598/684 604/682
f 593/683 605/688 616/687
f 607/690 598/684 618/689
f 593/683 616/687 614/685
f 618/689 598/684 612/686
f 624/692 605/688 609/691
f 609/691 607/690 626/693
f 616/687 605/688 620/694
f 607/690 618/689 622/695
f 620/694 605/688 624/692
f 626/693 607/690 622/695
f 624/692 609/691 628/696
f 609/691 626/693 628/696
usemtl mat7
f 631/699 632/698 639/697
f 634/700 631/699 639/697
f 632/698 636/701 639/697
f 638/702 634/700 639/697
f 636/701 599/703 639/697
f 596/704 638/702 639/697
f 595/705 596/704 639/697
f 599/703 600/706 639/697
f 606/707 595/705 639/697
f 600/706 608/708 639/697
f 610/709 606/707 639/697
f 608/708 610/709 639/697
# 780 elements

