# Created by Metasequoia

mtllib Emperor26.mtl

v 20775.556641 172.359268 305.885773
v 20750.000000 172.359268 499.999969
v 21017.037109 172.359268 370.590454
v 21000.000000 172.359268 499.999969
v 20775.554688 172.359268 694.114075
v 21017.037109 172.359268 629.409363
v 20850.482422 172.359268 125.000061
v 21066.988281 172.359268 250.000076
v 20850.480469 172.359268 874.999878
v 21066.986328 172.359268 749.999878
v 20969.667969 172.359268 1030.329956
v 21146.445313 172.359268 853.553284
v 20969.671875 172.359268 -30.330111
v 21146.447266 172.359268 146.446655
v 21124.998047 172.359268 1149.518921
v 21249.998047 172.359268 933.012573
v 21125.001953 172.359268 -149.518951
v 21250.000000 172.359268 66.987373
v 21305.882813 172.359268 1224.444214
v 21370.589844 172.359268 982.962769
v 21305.886719 172.359268 -224.444000
v 21370.591797 172.359268 17.037260
v 21499.998047 172.359268 1249.999756
v 21499.998047 172.359268 999.999878
v 21500.001953 172.359268 -249.999908
v 21500.001953 172.359268 0.000060
v 21694.113281 172.359268 1224.444214
v 21629.408203 172.359268 982.962769
v 21694.115234 172.359268 -224.444305
v 21629.410156 172.359268 17.037081
v 21874.998047 172.359268 1149.518921
v 21749.998047 172.359268 933.012573
v 21875.001953 172.359268 -149.519012
v 21750.000000 172.359268 66.987373
v 22030.328125 172.359268 1030.329956
v 21853.552734 172.359268 853.553284
v 22030.332031 172.359268 -30.330050
v 21853.554688 172.359268 146.446655
v 22149.517578 172.359268 874.999878
v 21933.011719 172.359268 749.999878
v 22149.519531 172.359268 125.000061
v 21933.013672 172.359268 250.000076
v 22224.443359 172.359268 305.885773
v 21982.962891 172.359268 370.590454
v 22224.443359 172.359268 694.114136
v 21982.962891 172.359268 629.409485
v 22250.000000 172.359268 499.999969
v 22000.000000 172.359268 499.999969
v 22250.000000 142.359268 489.999969
v 22000.000000 142.359268 489.999969
v 22250.000000 162.359268 489.999969
v 22000.000000 162.359268 489.999969
v 22000.000000 142.359268 509.999878
v 22250.000000 142.359268 509.999878
v 22000.000000 162.359268 509.999878
v 22250.000000 162.359268 509.999878
v 22023.259766 142.359268 -37.401100
v 21846.482422 142.359268 139.375534
v 22023.259766 162.359268 -37.401100
v 21846.482422 162.359268 139.375534
v 22037.400391 162.359268 -23.258961
v 21860.625000 162.359268 153.517670
v 21490.000000 142.359268 -249.999908
v 21490.000000 142.359268 0.000060
v 21490.000000 162.359268 -249.999908
v 21490.000000 162.359268 0.000060
v 21510.000000 162.359268 -249.999908
v 21510.000000 162.359268 0.000060
v 21510.000000 142.359268 0.000060
v 21510.000000 142.359268 -249.999908
v 20962.599609 142.359268 -23.259041
v 21139.375000 142.359268 153.517654
v 20962.599609 162.359268 -23.259041
v 21139.375000 162.359268 153.517654
v 20976.740234 162.359268 -37.401180
v 21153.517578 162.359268 139.375519
v 21153.517578 142.359268 139.375519
v 20976.740234 142.359268 -37.401180
v 21000.000000 142.359268 489.999969
v 20750.000000 142.359268 489.999969
v 21000.000000 162.359268 489.999969
v 20750.000000 162.359268 489.999969
v 20750.000000 142.359268 509.999878
v 21000.000000 142.359268 509.999878
v 20750.000000 162.359268 509.999878
v 21000.000000 162.359268 509.999878
v 21846.482422 142.359268 860.624451
v 22023.259766 142.359268 1037.401123
v 21846.482422 162.359268 860.624451
v 22023.259766 162.359268 1037.401123
v 22037.400391 162.359268 1023.258911
v 21860.625000 162.359268 846.482300
v 22037.400391 142.359268 1023.258911
v 21860.625000 142.359268 846.482300
v 21860.625000 142.359268 153.517670
v 22037.400391 142.359268 -23.258961
v 21139.375000 142.359268 846.482178
v 20962.599609 142.359268 1023.258911
v 21139.375000 162.359268 846.482178
v 20962.599609 162.359268 1023.258911
v 20976.740234 162.359268 1037.401245
v 21153.517578 162.359268 860.624329
v 20976.740234 142.359268 1037.401245
v 21153.517578 142.359268 860.624329
v 21490.000000 142.359268 999.999878
v 21490.000000 142.359268 1249.999878
v 21490.000000 162.359268 999.999878
v 21490.000000 162.359268 1249.999878
v 21510.000000 162.359268 1249.999878
v 21510.000000 162.359268 999.999878
v 21510.000000 142.359268 1249.999878
v 21510.000000 142.359268 999.999878
v 21998.000000 -332.748810 410.484192
v 21982.166016 71.798317 410.484192
v 22150.427734 -292.989929 410.484192
v 22090.791016 42.692841 410.484100
v 21998.000000 -332.748810 589.515808
v 22150.427734 -292.989929 589.515747
v 21982.166016 71.798317 589.515808
v 22090.791016 42.692841 589.515747
v 20909.208984 42.692841 410.484100
v 20849.572266 -292.989929 410.484100
v 20909.208984 42.692841 589.515747
v 20849.572266 -292.989929 589.515747
v 21002.000000 -332.748810 410.484100
v 21017.833984 71.798317 410.484100
v 21002.000000 -332.748810 589.515747
v 21017.833984 71.798317 589.515747
v 21480.000000 176.359268 1489.999634
v 21480.000000 176.359268 1522.737915
v 21480.000000 218.359177 1489.999512
v 21520.000000 176.359268 1522.737915
v 21520.000000 176.359268 1489.999512
v 21520.000000 218.359177 1489.999512
v 21480.000000 93.359367 1489.999634
v 21480.000000 15.359380 1489.999512
v 21480.000000 93.359367 1574.913208
v 21480.000000 15.359380 1574.913208
v 21520.000000 15.359380 1574.913208
v 21520.000000 15.359380 1489.999512
v 21520.000000 93.359367 1574.913208
v 21520.000000 93.359367 1489.999512
v 21480.000000 176.359268 -522.738403
v 21480.000000 176.359268 -490.000153
v 21480.000000 218.359268 -490.000153
v 21520.000000 176.359268 -490.000153
v 21520.000000 176.359268 -522.738403
v 21520.000000 218.359268 -490.000153
v 21480.000000 15.359380 -574.913208
v 21480.000000 15.359380 -490.000153
v 21480.000000 93.359367 -574.913208
v 21480.000000 93.359367 -490.000153
v 21520.000000 93.359367 -490.000153
v 21520.000000 15.359380 -490.000153
v 21520.000000 93.359367 -574.913208
v 21520.000000 15.359380 -574.913208
v 20775.554688 172.359268 305.885773
v 20750.000000 172.359268 499.999969
v 20806.298828 15.146970 314.123566
v 20781.828125 15.146970 499.999969
v 20775.556641 172.359268 694.114075
v 20806.300781 15.146970 685.876282
v 20850.480469 172.359268 125.000061
v 20878.044922 15.146970 140.914368
v 20850.482422 172.359268 874.999756
v 20878.044922 15.146970 859.085571
v 20969.667969 172.359268 -30.329929
v 20992.173828 15.146970 -7.823820
v 20969.669922 172.359268 1030.329834
v 20992.177734 15.146970 1007.823730
v 21124.998047 172.359268 -149.518829
v 21140.912109 15.146970 -121.954620
v 21125.001953 172.359268 1149.518921
v 21140.916016 15.146970 1121.954712
v 21305.882813 172.359268 -224.444000
v 21314.121094 15.146970 -193.700104
v 21305.886719 172.359268 1224.444214
v 21314.125000 15.146970 1193.700317
v 21499.998047 172.359268 -249.999908
v 21499.998047 15.146970 -218.171417
v 21500.001953 172.359268 1249.999756
v 21500.001953 15.146970 1218.171265
v 21694.111328 172.359268 -224.444244
v 21685.875000 15.146970 -193.700348
v 21694.115234 172.359268 1224.444214
v 21685.878906 15.146970 1193.700317
v 21874.998047 172.359268 -149.518951
v 21859.083984 15.146970 -121.954742
v 21875.001953 172.359268 1149.518921
v 21859.085938 15.146970 1121.954712
v 22030.328125 172.359268 -30.330050
v 22007.822266 15.146970 -7.823940
v 22030.330078 172.359268 1030.329712
v 22007.824219 15.146970 1007.823730
v 22149.517578 172.359268 125.000061
v 22121.953125 15.146970 140.914276
v 22149.519531 172.359268 874.999878
v 22121.955078 15.146970 859.085693
v 22224.443359 172.359268 305.885773
v 22193.699219 15.146970 314.123566
v 22224.445313 172.359268 694.114136
v 22193.701172 15.146970 685.876343
v 22250.000000 172.359268 499.999969
v 22218.171875 15.146970 499.999969
v 21530.074219 -279.233826 1128.395386
v 21469.925781 -279.233826 1128.395386
v 21530.074219 -31.469730 1128.395386
v 21469.925781 -31.469730 1128.395386
v 21469.925781 93.337173 1206.850708
v 21530.074219 93.337173 1206.850708
v 21530.074219 156.492462 1256.079346
v 21469.925781 156.492462 1256.079346
v 21469.925781 -279.233826 -128.396149
v 21530.074219 -279.233826 -128.396149
v 21469.925781 -31.469730 -128.396149
v 21530.074219 -31.469730 -128.396149
v 21530.074219 93.337173 -206.851105
v 21469.925781 93.337173 -206.851105
v 21469.925781 156.492462 -256.080231
v 21530.074219 156.492462 -256.080231
v 21469.925781 93.337173 1256.079346
v 21530.074219 93.337173 1256.079224
v 21469.925781 -279.233826 1256.079346
v 21469.925781 -31.469730 1256.079346
v 21530.074219 -31.469730 1256.079224
v 21530.074219 -279.233826 1256.079346
v 21469.925781 93.337173 -256.079742
v 21530.074219 93.337173 -256.080231
v 21469.925781 -31.469730 -256.079742
v 21469.925781 -279.233826 -256.080231
v 21530.074219 -279.233826 -256.080231
v 21530.074219 -31.469730 -256.080231
v 20992.375000 12.359380 363.982269
v 20974.468750 12.359380 499.999969
v 21017.037109 172.359268 370.590454
v 21000.000000 172.359268 499.999969
v 20992.375000 12.359380 636.017639
v 21017.037109 172.359268 629.409363
v 21044.875000 12.359380 237.234070
v 21066.988281 172.359268 250.000076
v 21044.875000 12.359380 762.765869
v 21066.988281 172.359268 749.999878
v 21128.392578 12.359380 128.392761
v 21146.447266 172.359268 146.446655
v 21128.392578 12.359380 871.607178
v 21146.447266 172.359268 853.553284
v 21237.234375 12.359380 44.875851
v 21250.000000 172.359268 66.987457
v 21237.234375 12.359380 955.124084
v 21250.000000 172.359268 933.012573
v 21363.982422 12.359380 -7.624820
v 21370.589844 172.359268 17.037260
v 21363.982422 12.359380 1007.624939
v 21370.589844 172.359268 982.962769
v 21500.000000 12.359380 -25.532141
v 21500.000000 172.359268 0.000060
v 21500.000000 12.359380 1025.532104
v 21500.000000 172.359268 999.999878
v 21636.017578 12.359380 -7.625120
v 21629.410156 172.359268 17.037170
v 21636.017578 12.359380 1007.624939
v 21629.410156 172.359268 982.962769
v 21762.765625 12.359380 44.875851
v 21750.000000 172.359268 66.987373
v 21762.765625 12.359380 955.124084
v 21750.000000 172.359268 933.012573
v 21871.607422 12.359380 128.392761
v 21853.552734 172.359268 146.446655
v 21871.607422 12.359380 871.607178
v 21853.552734 172.359268 853.553284
v 21955.125000 12.359380 237.233856
v 21933.011719 172.359268 250.000076
v 21955.125000 12.359380 762.766052
v 21933.011719 172.359268 749.999878
v 22007.625000 12.359380 363.982269
v 21982.962891 172.359268 370.590454
v 22007.625000 12.359380 636.017639
v 21982.962891 172.359268 629.409485
v 22025.533203 12.359380 499.999969
v 22000.000000 172.359268 499.999969
v 20444.246094 15.146970 499.999969
v 20449.492188 93.359367 499.999969
v 20480.220703 15.146970 226.751068
v 20485.287109 93.359367 228.108673
v 20480.220703 15.146970 773.248840
v 20485.287109 93.359367 771.891174
v 20534.074219 172.359268 241.181061
v 20500.000000 172.359268 499.999969
v 20534.074219 172.359268 758.818848
v 20585.691406 15.146970 -27.876310
v 20480.220703 -47.640629 226.751068
v 20585.691406 -47.640629 -27.876310
v 20585.691406 15.146970 1027.876221
v 20585.691406 -47.640629 1027.876221
v 20480.220703 -47.640629 773.248840
v 20590.234375 93.359367 -25.253630
v 20590.234375 93.359367 1025.253662
v 20633.974609 172.359268 0.000180
v 20633.974609 172.359268 999.999756
v 20594.445313 172.359268 257.357147
v 20534.074219 176.359161 241.181061
v 20594.445313 176.359161 257.357147
v 20534.074219 176.359161 758.818726
v 20594.445313 172.359268 742.642761
v 20594.445313 176.359161 742.642639
v 20633.974609 176.359161 0.000180
v 20633.974609 176.359161 999.999756
v 20735.166016 15.146970 295.063354
v 20735.166016 -47.640629 295.063354
v 20735.166016 15.146970 704.936584
v 20735.166016 -47.640629 704.936584
v 20688.101563 172.359268 31.250179
v 20688.101563 176.359161 31.250179
v 20688.101563 172.359268 968.749756
v 20688.101563 176.359161 968.749756
v 20753.470703 15.146970 -246.529755
v 20757.179688 93.359367 -242.820831
v 20753.470703 15.146970 1246.529785
v 20757.179688 93.359367 1242.820923
v 20792.894531 172.359268 -207.106659
v 20792.894531 172.359268 1207.106567
v 20814.269531 15.146970 104.092773
v 20814.269531 -47.640629 104.092773
v 20814.269531 15.146970 895.907166
v 20814.269531 -47.640629 895.907166
v 20792.894531 176.359161 -207.106659
v 20792.894531 176.359161 1207.106567
v 20837.087891 172.359268 -162.912506
v 20837.087891 176.359161 -162.912506
v 20837.087891 172.359268 1162.912354
v 20837.087891 176.359161 1162.912354
v 20972.123047 15.146970 -414.308502
v 20974.746094 93.359367 -409.766144
v 20972.123047 15.146970 1414.308472
v 20974.746094 93.359367 1409.766113
v 21000.000000 172.359268 -366.025116
v 21000.000000 172.359268 1366.025146
v 21000.000000 176.359161 -366.025116
v 21000.000000 176.359161 1366.025146
v 21031.250000 172.359268 -311.898651
v 21031.250000 176.359161 -311.898651
v 21031.250000 172.359268 1311.898560
v 21031.250000 176.359161 1311.898560
v 21226.751953 15.146970 -519.778870
v 21228.109375 93.359367 -514.712158
v 21226.750000 15.146970 1519.778809
v 21228.109375 93.359367 1514.712402
v 21241.181641 172.359268 -465.925507
v 21241.181641 172.359268 1465.925659
v 21241.181641 176.359161 -465.925507
v 21241.179688 176.359161 1465.925659
v 21257.357422 172.359268 -405.555145
v 21257.357422 176.359161 -405.555145
v 21257.357422 172.359268 1405.555298
v 21257.357422 176.359161 1405.555420
v 21226.751953 -47.640629 -519.778870
v 21295.062500 15.146970 -264.833954
v 21295.062500 -47.640629 -264.833954
v 21295.062500 15.146970 1264.834106
v 21226.750000 -47.640629 1519.778809
v 21295.064453 -47.640629 1264.834106
v 21500.000000 15.146970 -555.752991
v 21500.000000 -47.640629 -555.752991
v 21500.000000 15.146970 1555.752563
v 21500.000000 -47.640629 1555.752563
v 21500.000000 93.359367 -550.507874
v 21500.000000 93.359367 1550.507446
v 21500.000000 172.359268 -499.999908
v 21500.000000 172.359268 1499.999756
v 21500.000000 176.359161 -499.999908
v 21500.000000 176.359161 1499.999756
v 21500.000000 172.359268 -437.499908
v 21500.000000 176.359161 -437.499908
v 21500.000000 172.359268 1437.499756
v 21500.000000 176.359161 1437.499878
v 21500.000000 15.146970 -291.814606
v 21500.000000 -47.640629 -291.814606
v 21500.000000 15.146970 1291.814453
v 21500.000000 -47.640629 1291.814453
v 21704.937500 15.146970 -264.834259
v 21704.937500 -47.640629 -264.834259
v 21704.937500 15.146970 1264.834106
v 21704.937500 -47.640629 1264.834106
v 21742.642578 172.359268 -405.555450
v 21742.642578 176.359161 -405.555450
v 21742.642578 172.359268 1405.555420
v 21742.642578 176.359161 1405.555420
v 21758.818359 172.359268 -465.925751
v 21758.818359 176.359161 -465.925751
v 21758.818359 172.359268 1465.925659
v 21758.818359 176.359161 1465.925659
v 21771.890625 93.359367 -514.712463
v 21771.890625 93.359367 1514.712402
v 21773.250000 15.146970 -519.778870
v 21773.250000 15.146970 1519.778809
v 21773.250000 -47.640629 -519.778870
v 21773.250000 -47.640629 1519.778809
v 21968.750000 172.359268 -311.898956
v 21968.750000 176.359161 -311.898651
v 21968.750000 172.359268 1311.898682
v 21968.750000 176.359161 1311.898804
v 22000.000000 176.359161 -366.025360
v 22000.000000 172.359268 -366.025360
v 22000.000000 172.359268 1366.025269
v 22000.000000 176.359161 1366.025269
v 22025.253906 93.359367 -409.766327
v 22025.253906 93.359367 1409.766113
v 22027.876953 15.146970 -414.308502
v 22027.876953 15.146970 1414.308716
v 22162.912109 172.359268 -162.912506
v 22162.912109 176.359161 -162.912506
v 22162.912109 172.359268 1162.912476
v 22162.912109 176.359161 1162.912476
v 22207.107422 172.359268 -207.106659
v 22207.107422 176.359161 -207.106659
v 22207.107422 172.359268 1207.106567
v 22207.107422 176.359161 1207.106567
v 22242.820313 93.359367 1242.820923
v 22242.820313 93.359367 -242.821014
v 22246.529297 15.146970 -246.530060
v 22246.529297 15.146970 1246.529907
v 22185.732422 15.146970 895.907166
v 22264.833984 15.146970 704.936584
v 22185.730469 -47.640629 895.907166
v 22264.833984 -47.640629 704.936646
v 22264.833984 15.146970 295.063354
v 22185.732422 15.146970 104.092682
v 22264.833984 -47.640629 295.063354
v 22185.732422 -47.640629 104.092682
v 22311.898438 172.359268 31.250059
v 22311.898438 176.359161 31.250059
v 22311.898438 172.359268 968.749878
v 22311.898438 176.359161 968.749878
v 22366.025391 172.359268 0.000060
v 22366.025391 176.359161 0.000060
v 22366.025391 172.359268 999.999878
v 22366.025391 176.359161 999.999878
v 22414.308594 15.146970 -27.876431
v 22414.308594 -47.640629 -27.876431
v 22414.308594 15.146970 1027.876343
v 22414.308594 -47.640629 1027.876343
v 22409.765625 93.359367 -25.253750
v 22409.765625 93.359367 1025.253784
v 22405.554688 172.359268 257.357178
v 22405.554688 176.359161 257.357178
v 22405.554688 172.359268 742.642761
v 22405.554688 176.359161 742.642761
v 22519.779297 15.146970 226.751068
v 22519.777344 -47.640629 226.751068
v 22519.779297 15.146970 773.248901
v 22519.779297 -47.640629 773.248962
v 22465.925781 172.359268 758.818848
v 22465.925781 176.359161 758.818848
v 22465.925781 172.359268 241.181061
v 22465.925781 176.359161 241.181061
v 22514.712891 93.359367 228.108673
v 22514.712891 93.359367 771.891235
v 22550.507813 93.359367 499.999969
v 22500.000000 172.359268 499.999969
v 22555.751953 15.146970 499.999969
v 20633.974609 176.359161 999.999878
v 20837.087891 176.359161 1162.912476
v 21241.179688 176.359161 1465.925781
v 21500.000000 176.359268 1499.999756
v 21500.000000 176.359268 1437.499878
v 21758.818359 176.359161 1465.925781
v 22000.000000 176.359161 1366.025391
v 22366.025391 176.359161 1000.000000
v 22465.925781 176.359161 758.818970
v 22405.554688 176.359161 742.642883
v 20534.074219 172.359268 241.180969
v 20500.000000 172.359268 499.999969
v 20594.445313 172.359268 257.357147
v 20562.500000 172.359268 499.999969
v 20534.074219 172.359268 758.818848
v 20594.445313 172.359268 742.642639
v 22465.925781 172.359268 758.818848
v 22500.000000 172.359268 499.999969
v 22405.554688 172.359268 742.642761
v 22437.500000 172.359268 499.999969
v 22465.925781 172.359268 241.180878
v 22405.554688 172.359268 257.357178
v 20654.814453 172.359268 273.533264
v 20625.000000 172.359268 499.999969
v 20654.814453 172.359268 726.466492
v 20688.101563 172.359268 31.250059
v 20742.228516 172.359268 62.500061
v 20688.101563 172.359268 968.749756
v 20742.228516 172.359268 937.499756
v 20775.554688 172.359268 305.885773
v 20750.000000 172.359268 499.999969
v 20775.554688 172.359268 694.114075
v 20850.480469 172.359268 125.000061
v 20850.480469 172.359268 874.999878
v 20837.087891 172.359268 -162.912445
v 20881.281250 172.359268 -118.718353
v 20837.087891 172.359268 1162.912354
v 20881.281250 172.359268 1118.718262
v 20969.669922 172.359268 -30.330111
v 20969.669922 172.359268 1030.329956
v 21031.250000 172.359268 -311.898651
v 21062.500000 172.359268 -257.772003
v 21031.250000 172.359268 1311.898682
v 21062.500000 172.359268 1257.771973
v 21125.000000 172.359268 -149.518951
v 21125.000000 172.359268 1149.518921
v 21257.357422 172.359268 -405.555145
v 21273.533203 172.359268 -345.184845
v 21257.357422 172.359268 1405.555298
v 21273.533203 172.359268 1345.184814
v 21305.886719 172.359268 -224.444122
v 21305.886719 172.359268 1224.444214
v 21500.000000 172.359268 -437.499908
v 21500.000000 172.359268 -374.999908
v 21500.000000 172.359268 1437.499756
v 21500.000000 172.359268 1374.999756
v 21500.000000 172.359268 -250.000031
v 21500.000000 172.359268 1249.999878
v 21726.466797 172.359268 -345.185028
v 21694.115234 172.359268 -224.444305
v 21726.466797 172.359268 1345.184937
v 21694.115234 172.359268 1224.444214
v 21742.642578 172.359268 -405.555450
v 21742.642578 172.359268 1405.555298
v 21937.500000 172.359268 -257.772125
v 21875.000000 172.359268 -149.519012
v 21937.500000 172.359268 1257.772095
v 21875.000000 172.359268 1149.518921
v 21968.750000 172.359268 -311.898712
v 21968.750000 172.359268 1311.898804
v 22118.718750 172.359268 -118.718353
v 22030.330078 172.359268 -30.330050
v 22118.718750 172.359268 1118.718262
v 22030.330078 172.359268 1030.329956
v 22162.912109 172.359268 -162.912506
v 22162.912109 172.359268 1162.912476
v 22257.771484 172.359268 62.500061
v 22149.519531 172.359268 125.000061
v 22257.771484 172.359268 937.499756
v 22149.519531 172.359268 874.999878
v 22311.898438 172.359268 31.250059
v 22311.898438 172.359268 968.749756
v 22345.185547 172.359268 273.533386
v 22224.445313 172.359268 305.885773
v 22345.185547 172.359268 726.466553
v 22224.445313 172.359268 694.114136
v 22375.000000 172.359268 499.999969
v 22250.000000 172.359268 499.999969
v 20633.974609 176.359161 0.000180
v 20534.074219 176.359161 241.181061
v 20688.101563 176.359161 31.250179
v 20594.445313 176.359161 257.357147
v 20792.894531 176.359161 -207.106659
v 20837.087891 176.359161 -162.912506
v 21000.000000 176.359161 -366.025116
v 21031.250000 176.359161 -311.898651
v 21241.181641 176.359161 -465.925751
v 21257.357422 176.359161 -405.555450
v 21500.000000 176.359161 -499.999908
v 21500.000000 176.359161 -437.499908
v 21758.818359 176.359161 -465.925507
v 21742.642578 176.359161 -405.555145
v 22000.000000 176.359161 -366.025360
v 21968.750000 176.359161 -311.898651
v 22207.107422 176.359161 -207.106659
v 22162.912109 176.359161 -162.912506
v 22366.025391 176.359268 -0.000120
v 22311.898438 176.359268 31.250059
v 22465.925781 176.359161 241.180969
v 22405.554688 176.359161 257.357056
v 21017.037109 172.359283 370.590668
v 21000.000000 172.359283 500.000183
v 21053.035156 172.359283 380.236176
v 21037.267578 172.359283 500.000183
v 21017.037109 172.359283 629.409058
v 21053.035156 172.359283 619.763794
v 21066.988281 172.359283 250.000275
v 21099.261719 172.359283 268.633881
v 21066.988281 172.359283 749.999695
v 21099.261719 172.359283 731.366089
v 21146.447266 172.359283 146.446869
v 21172.798828 172.359283 172.798767
v 21146.447266 172.359283 853.552856
v 21172.798828 172.359283 827.201050
v 21250.000000 172.359283 66.987579
v 21268.634766 172.359283 99.261871
v 21250.000000 172.359283 933.012390
v 21268.634766 172.359283 900.737915
v 21370.591797 172.359283 17.037380
v 21380.236328 172.359283 53.034580
v 21370.591797 172.359283 982.962585
v 21380.236328 172.359283 946.965454
v 21396.078125 172.359268 440.000275
v 21380.000000 172.359268 499.999908
v 21427.148438 172.359283 457.943085
v 21415.882813 172.359283 499.999664
v 21440.000000 172.359268 396.073975
v 21457.937500 172.359283 427.151978
v 21500.000000 172.359283 0.000090
v 21500.000000 172.359283 37.267181
v 21500.000000 172.359283 999.999634
v 21500.000000 172.359283 962.732544
v 21500.000000 172.359268 379.999786
v 21499.992188 172.359283 415.880585
v 21560.000000 172.359268 396.073975
v 21542.054688 172.359283 427.148071
v 21629.408203 172.359283 17.037170
v 21619.763672 172.359283 53.034359
v 21629.408203 172.359283 982.962585
v 21619.763672 172.359283 946.965454
v 21603.921875 172.359268 440.000275
v 21572.851563 172.359283 457.941071
v 21620.000000 172.359268 499.999908
v 21584.117188 172.359283 499.999664
v 21750.000000 172.359283 66.987579
v 21731.365234 172.359283 99.261688
v 21750.000000 172.359283 933.012390
v 21731.365234 172.359283 900.738159
v 21853.554688 172.359283 146.446869
v 21827.201172 172.359283 172.798676
v 21853.552734 172.359283 853.552856
v 21827.201172 172.359283 827.201050
v 21933.011719 172.359283 250.000381
v 21900.738281 172.359283 268.633789
v 21933.011719 172.359283 749.999695
v 21900.738281 172.359283 731.366089
v 21982.962891 172.359283 629.409302
v 21946.964844 172.359283 619.763794
v 21982.962891 172.359283 370.590698
v 21946.964844 172.359283 380.236176
v 22000.000000 172.359283 499.999969
v 21962.732422 172.359283 500.000183
v 21396.078125 172.359268 559.999451
v 21427.148438 172.359283 542.058289
v 21440.000000 172.359268 603.925354
v 21457.945313 172.359283 572.843384
v 21500.000000 172.359268 619.999695
v 21500.007813 172.359283 584.116882
v 21560.000000 172.359268 603.925354
v 21542.054688 172.359283 572.849304
v 21603.921875 172.359268 559.999268
v 21572.843750 172.359283 542.060181
v 21946.962891 172.359299 380.236176
v 21946.962891 172.359299 619.763794
v 21500.000000 172.359268 499.999542
# 645 vertices

vt 9.38030 12.15170
vt 7.99990 14.99990
vt 10.07050 14.72740
vt 7.99990 12.33340
vt 5.92940 14.72740
vt 6.61960 12.15170
vt 10.66660 11.61890
vt 11.99990 13.92820
vt 3.99990 13.92830
vt 5.33330 11.61890
vt 2.34310 12.65690
vt 4.22870 10.77130
vt 11.77120 10.77130
vt 13.65680 12.65690
vt 1.07170 11.00000
vt 3.38110 9.66670
vt 12.61880 9.66670
vt 14.92820 11.00000
vt 0.27250 9.07060
vt 2.84830 8.38040
vt 13.15160 8.38040
vt 15.72740 9.07060
vt 0.00000 7.00010
vt 2.66660 7.00010
vt 13.33330 7.00010
vt 15.99990 7.00010
vt 0.27250 4.92950
vt 2.84830 5.61970
vt 13.15160 5.61970
vt 15.72740 4.92950
vt 1.07170 3.00010
vt 3.38110 4.33340
vt 12.61880 4.33340
vt 14.92820 3.00010
vt 2.34310 1.34320
vt 4.22870 3.22880
vt 11.77120 3.22880
vt 13.65680 1.34320
vt 3.99990 0.07180
vt 5.33330 2.38120
vt 10.66660 2.38120
vt 11.99990 0.07180
vt 9.38030 1.84840
vt 10.07050 -0.72730
vt 5.92940 -0.72740
vt 6.61960 1.84840
vt 7.99990 1.66670
vt 7.99990 -1.00000
vt 0.99990 -0.46150
vt 1.99990 -0.61970
vt 0.99990 -0.61970
vt 1.99990 -0.46150
vt -0.99990 -0.46150
vt 0.00000 -0.61970
vt -0.99990 -0.61970
vt 0.00000 -0.46150
vt 0.00190 -0.86250
vt 0.99800 -0.99810
vt 0.99800 -0.86250
vt 0.00190 -0.99810
vt 0.00190 -0.45720
vt 0.99800 -0.61770
vt 0.00190 -0.61770
vt 0.99800 -0.45720
vt 0.99990 -0.46320
vt 1.99990 -0.62640
vt 0.99990 -0.62640
vt 1.99990 -0.46320
vt 0.00190 -0.86620
vt 0.99800 -0.86620
vt -0.99990 -0.45520
vt 0.00000 -0.62590
vt -0.99990 -0.62590
vt 0.00000 -0.45520
vt -0.49880 -0.45960
vt 0.49990 -0.63520
vt -0.49880 -0.63520
vt 0.49990 -0.45960
vt -0.49990 -0.46000
vt 0.49680 -0.63480
vt -0.49990 -0.63480
vt 0.49680 -0.46000
vt 0.00190 0.54020
vt 0.99800 0.38210
vt 0.00190 0.38210
vt 0.99800 0.54020
vt 0.99800 0.13780
vt 0.00190 -0.00620
vt 0.00190 0.13780
vt 0.99800 -0.00620
vt 0.00190 0.53860
vt 0.99800 0.37630
vt 0.00190 0.37630
vt 0.99800 0.53860
vt 0.00190 0.54110
vt 0.99800 0.37750
vt 0.00190 0.37750
vt 0.99800 0.54110
vt 0.00190 0.13400
vt 0.99800 -0.00240
vt 0.99800 0.13400
vt 0.00190 -0.00240
vt 0.00190 0.54210
vt 0.99800 0.38020
vt 0.00190 0.38020
vt 0.99800 0.54210
vt 0.99800 0.53970
vt 0.00190 0.37770
vt 0.99800 0.37770
vt 0.00190 0.53970
vt 0.99800 0.13330
vt 0.00190 -0.00170
vt 0.00190 0.13330
vt 0.99800 -0.00170
vt 0.00190 0.54340
vt 0.99800 0.37890
vt 0.00190 0.37890
vt 0.99800 0.54340
vt -0.37910 0.62740
vt 1.09380 -0.03970
vt -0.41600 -0.03970
vt 0.92290 0.45740
vt 0.92040 0.01300
vt -0.24920 0.80210
vt 0.92040 0.80210
vt -0.24920 0.01300
vt 1.03590 0.52950
vt 0.04310 0.00190
vt 1.03590 0.00190
vt 0.04310 0.52950
vt 1.23780 -0.04390
vt -0.18170 0.64240
vt -0.29280 -0.04390
vt 1.14840 0.45310
vt 1.00320 -0.12750
vt 0.75170 -0.28880
vt 0.75170 -0.12750
vt 0.25460 -0.54580
vt -0.21230 -0.12750
vt 0.25460 -0.12750
vt -0.21230 -0.54580
vt 1.26810 -1.12980
vt 0.99350 -1.12980
vt 0.99350 -1.29110
vt 0.45090 -1.54810
vt -0.05890 -1.12980
vt -0.05890 -1.54810
vt 0.45090 -1.12980
vt 0.99800 0.62490
vt 0.00190 0.00190
vt 0.00190 0.62490
vt 0.99800 0.00190
vt 10.74390 -0.28090
vt 10.99330 -0.03970
vt 10.74390 -0.03970
vt 10.99330 -0.28090
vt 5.00760 -0.28090
vt 5.25700 -0.03970
vt 5.00760 -0.03970
vt 5.25700 -0.28090
vt 10.49450 -0.28090
vt 10.49450 -0.03970
vt 5.50640 -0.03970
vt 5.50640 -0.28090
vt 10.24510 -0.28090
vt 10.24510 -0.03970
vt 5.75580 -0.03970
vt 5.75580 -0.28090
vt 9.99570 -0.28090
vt 9.99570 -0.03970
vt 6.00520 -0.03970
vt 6.00520 -0.28090
vt 9.74630 -0.28090
vt 9.74630 -0.03970
vt 6.25460 -0.03970
vt 6.25460 -0.28090
vt 9.49690 -0.28090
vt 9.49690 -0.03970
vt 6.50400 -0.03970
vt 6.50400 -0.28090
vt 9.24750 -0.28090
vt 9.24750 -0.03970
vt 6.75340 -0.03970
vt 6.75340 -0.28090
vt 8.99810 -0.28090
vt 8.99810 -0.03970
vt 7.00280 -0.03970
vt 7.00280 -0.28090
vt 8.74870 -0.28090
vt 8.74870 -0.03970
vt 7.25230 -0.03970
vt 7.25230 -0.28090
vt 8.49930 -0.28090
vt 8.49930 -0.03970
vt 7.50170 -0.03970
vt 7.50170 -0.28090
vt 8.24990 -0.28090
vt 8.24990 -0.03970
vt 7.75110 -0.03970
vt 7.75110 -0.28090
vt 8.00050 -0.28090
vt 8.00050 -0.03970
vt -1.74250 -0.00200
vt -4.74360 -0.99810
vt -4.74360 -0.00200
vt -1.74250 -0.99810
vt 0.01070 -0.99810
vt 0.01070 -0.00200
vt -0.37340 -0.00200
vt -1.24690 -0.99810
vt -1.24690 -0.00200
vt -0.37340 -0.99810
vt 0.99800 -0.00200
vt 1.02710 -0.99810
vt 1.02710 -0.00200
vt 1.69130 -0.99810
vt 2.24690 -0.00200
vt 2.24690 -0.99810
vt 1.69130 -0.00200
vt -1.49820 -1.00200
vt -3.24960 -1.99810
vt -3.24960 -1.00200
vt -1.49820 -1.99810
vt -0.00300 -1.99810
vt -0.00300 -1.00200
vt 0.99800 -1.00200
vt 0.00190 -1.99810
vt 0.00190 -1.00200
vt 0.99800 -1.99810
vt 2.24300 -1.99810
vt 2.24300 -1.00200
vt 2.99000 -1.00200
vt 2.99000 -1.99810
vt 3.74170 -1.00200
vt 3.74170 -1.99810
vt -0.07210 -0.38870
vt 0.10880 -0.38870
vt 0.10880 -0.23890
vt 0.46650 -0.00010
vt 1.17650 -0.38870
vt 1.17650 -0.00010
vt 0.46650 -0.38870
vt -0.12190 -1.37840
vt 0.06780 -1.23040
vt 0.06780 -1.37840
vt 0.44310 -0.99450
vt 1.18800 -1.37840
vt 0.44310 -1.37840
vt 1.18800 -0.99450
vt -1.58030 -0.00200
vt -1.99640 -0.99810
vt -1.58030 -0.99810
vt -1.99640 -0.00200
vt 2.99640 -0.00200
vt 2.58030 -0.99810
vt 2.99640 -0.99810
vt 2.58030 -0.00200
vt -1.16420 -0.00200
vt -1.16420 -0.99810
vt 2.16420 -0.99810
vt 2.16420 -0.00200
vt -0.74820 -0.00200
vt -0.74820 -0.99810
vt 1.74820 -0.99810
vt 1.74820 -0.00200
vt -0.33210 -0.00200
vt -0.33210 -0.99810
vt 1.33210 -0.99810
vt 1.33210 -0.00200
vt 0.08390 -0.00200
vt 0.08390 -0.99810
vt 0.91600 -0.99810
vt 0.91600 -0.00200
vt 0.50000 -0.00200
vt 0.50000 -0.99810
vt -0.06660 -0.63120
vt 0.49990 -0.33370
vt 0.49990 -0.63120
vt -0.06660 -0.33370
vt 1.06660 -0.63120
vt 1.06660 -0.33370
vt -0.06660 -0.00200
vt 0.49990 -0.00200
vt 1.06660 -0.00200
vt 0.24990 -0.99810
vt 0.75000 -0.66610
vt 0.24990 -0.66610
vt 0.75000 -0.99810
vt 0.24730 -0.99810
vt 0.75260 -0.66610
vt 0.24730 -0.66610
vt 0.75260 -0.99810
vt 0.75000 -0.33400
vt 0.24990 -0.33400
vt 0.75260 -0.33400
vt 0.24730 -0.33400
vt 0.75000 -0.00200
vt 0.24990 -0.00200
vt 0.24730 -0.00200
vt 0.75260 -0.00200
vt 2.99330 -0.24800
vt 3.49190 -0.31180
vt 2.99330 -0.31180
vt 3.49190 -0.24800
vt -2.48660 -0.31150
vt -1.98880 -0.25170
vt -1.98880 -0.31150
vt -2.48660 -0.25170
vt 2.49460 -0.24800
vt 2.49460 -0.31180
vt -1.49110 -0.25170
vt -1.49110 -0.31150
vt 0.70990 -0.66920
vt 1.28830 -0.99810
vt 1.28830 -0.66920
vt 0.70990 -0.99810
vt -0.29950 -0.99810
vt 0.28180 -0.66920
vt -0.29950 -0.66920
vt 0.28180 -0.99810
vt -2.49400 -0.24890
vt -1.89520 -0.31180
vt -2.49400 -0.31180
vt -1.89520 -0.24890
vt 2.89840 -0.25130
vt 3.49800 -0.31200
vt 2.89840 -0.31200
vt 3.49800 -0.25130
vt 0.74860 -0.33370
vt 1.24590 -0.63120
vt 0.74860 -0.63120
vt 1.24590 -0.33370
vt -0.25400 -0.63120
vt 0.24860 -0.33370
vt 0.24860 -0.63120
vt -0.25400 -0.33370
vt 0.74860 -0.00200
vt 1.24590 -0.00200
vt -0.25400 -0.00200
vt 0.24860 -0.00200
vt -0.28830 -0.99810
vt 0.29000 -0.66920
vt -0.28830 -0.66920
vt 0.29000 -0.99810
vt 0.71810 -0.66920
vt 1.29950 -0.99810
vt 1.29950 -0.66920
vt 0.71810 -0.99810
vt 1.99590 -0.24800
vt 1.99590 -0.31180
vt -0.99330 -0.31150
vt -0.99330 -0.25170
vt -1.29640 -0.31180
vt -1.29640 -0.24890
vt 2.29880 -0.25130
vt 2.29880 -0.31200
vt 0.25130 -0.33370
vt 0.25130 -0.63120
vt 0.75130 -0.63120
vt 0.75130 -0.33370
vt 0.25130 -0.00200
vt 0.75130 -0.00200
vt 1.49730 -0.24800
vt 1.49730 -0.31180
vt -0.49550 -0.31150
vt -0.49550 -0.25170
vt -0.69760 -0.31180
vt -0.69760 -0.24890
vt 1.69920 -0.25130
vt 1.69920 -0.31200
vt -0.24590 -0.63120
vt -0.24590 -0.33370
vt 1.25400 -0.63120
vt 1.25400 -0.33370
vt -0.24590 -0.00200
vt 1.25400 -0.00200
vt 0.99860 -0.31180
vt 0.99860 -0.24800
vt 0.00220 -0.31150
vt 0.00220 -0.25170
vt -0.09880 -0.31180
vt -0.09880 -0.24890
vt 1.09960 -0.25130
vt 1.09960 -0.31200
vt 1.06550 -0.60060
vt 1.86030 -0.99810
vt 1.86030 -0.60060
vt 1.06550 -0.99810
vt -0.43420 -0.99810
vt 0.12630 -0.68170
vt -0.43420 -0.68170
vt 0.12630 -0.99810
vt -0.56270 -0.66610
vt -0.00760 -0.99810
vt -0.00760 -0.66610
vt -0.56270 -0.99810
vt 0.99480 -0.99810
vt 1.55910 -0.66610
vt 0.99480 -0.66610
vt 1.55910 -0.99810
vt -0.56270 -0.33400
vt -0.00760 -0.33400
vt 1.55910 -0.33400
vt 0.99480 -0.33400
vt -0.00760 -0.00200
vt -0.56270 -0.00200
vt 1.55910 -0.00200
vt 0.99480 -0.00200
vt 0.50000 -0.24800
vt 0.49990 -0.31180
vt 0.50000 -0.25170
vt 0.50000 -0.31150
vt 0.50000 -0.31180
vt 0.50000 -0.24890
vt 0.50000 -0.25130
vt 0.50000 -0.31200
vt 0.49990 -0.99810
vt 0.49990 -0.60060
vt 0.49990 -0.68170
vt -0.06550 -0.99810
vt -0.06550 -0.60060
vt 0.87360 -0.68170
vt 0.87360 -0.99810
vt 1.09880 -0.31180
vt 1.09880 -0.24890
vt -0.09960 -0.25130
vt -0.09960 -0.31200
vt 0.00130 -0.24800
vt 0.00130 -0.31180
vt 0.99770 -0.25170
vt 0.99770 -0.31150
vt 0.54750 -0.00200
vt 0.54750 -0.33400
vt 0.43050 -0.33400
vt 0.43050 -0.00200
vt 0.54750 -0.66610
vt 0.43050 -0.66610
vt 0.54750 -0.99810
vt 0.43050 -0.99810
vt -0.86030 -0.99810
vt -0.86030 -0.60060
vt 1.43420 -0.99810
vt 1.43420 -0.68170
vt 1.69760 -0.31180
vt 1.69760 -0.24890
vt -0.69920 -0.25130
vt -0.69920 -0.31200
vt -0.49730 -0.24800
vt -0.49730 -0.31180
vt 1.49550 -0.25170
vt 1.49550 -0.31150
vt -0.25530 -0.00200
vt 0.24820 -0.33370
vt -0.25530 -0.33370
vt 0.24820 -0.00200
vt -0.25530 -0.63120
vt 0.24820 -0.63120
vt 2.29640 -0.31180
vt 2.29640 -0.24890
vt -1.29880 -0.25130
vt -1.29880 -0.31200
vt -0.99590 -0.24800
vt -0.99590 -0.31180
vt 1.99330 -0.31150
vt 1.99330 -0.25170
vt 0.75170 -0.33370
vt 0.75170 -0.00200
vt 0.75170 -0.63120
vt 0.28140 -0.99810
vt 0.71850 -0.68790
vt 0.28140 -0.68790
vt 0.71850 -0.99810
vt 0.22440 -0.99810
vt 0.77550 -0.68790
vt 0.22440 -0.68790
vt 0.77550 -0.99810
vt 2.89520 -0.31180
vt 2.89520 -0.24890
vt -1.89840 -0.25130
vt -1.89840 -0.31200
vt -1.49460 -0.24800
vt -1.49460 -0.31180
vt 2.49110 -0.31150
vt 2.49110 -0.25170
vt 1.32660 -0.99810
vt 1.32660 -0.68790
vt -0.30900 -0.99810
vt -0.30900 -0.68790
vt 1.25530 -0.33370
vt 1.25530 -0.00200
vt 1.25530 -0.63120
vt 3.49400 -0.31180
vt 3.49400 -0.24890
vt -2.49800 -0.25130
vt -2.49800 -0.31200
vt -0.32660 -0.99810
vt -0.32660 -0.68790
vt 1.30900 -0.99810
vt 1.30900 -0.68790
vt 2.98880 -0.31150
vt 2.98880 -0.25170
vt -1.99330 -0.31180
vt -1.99330 -0.24800
vt 3.48660 -0.31150
vt 3.48660 -0.25170
vt -2.49190 -0.31180
vt -2.49190 -0.24800
vt 0.24160 -0.33400
vt 0.75830 -0.00200
vt 0.75830 -0.33400
vt 0.24160 -0.00200
vt 0.24590 -0.00200
vt 0.75400 -0.33400
vt 0.24590 -0.33400
vt 0.75400 -0.00200
vt 0.75830 -0.66610
vt 0.24160 -0.66610
vt 0.75400 -0.66610
vt 0.24590 -0.66610
vt 0.75830 -0.99810
vt 0.24160 -0.99810
vt 0.75400 -0.99810
vt 0.24590 -0.99810
vt 1.06780 -0.00200
vt 1.06780 -0.33370
vt -0.06780 -0.00200
vt -0.06780 -0.33370
vt 1.06780 -0.63120
vt -0.06780 -0.63120
vt 0.00190 -3.00210
vt 0.18460 -2.50170
vt 0.18460 -3.00210
vt 0.00190 -2.50170
vt 0.18460 -2.00130
vt 0.00190 -2.00130
vt 0.18460 -1.50080
vt 0.00190 -1.50080
vt 0.18460 -1.00040
vt 0.00190 -1.00040
vt 0.18460 -0.50000
vt 0.00190 -0.50000
vt 0.18460 0.00040
vt 0.00190 0.00040
vt 0.18460 0.50080
vt 0.00190 0.50080
vt 0.18460 1.00130
vt 0.00190 1.00130
vt 0.18460 1.50170
vt 0.00190 1.50170
vt 0.18460 2.00210
vt 0.00190 2.00210
vt -1.00130 -0.99810
vt -1.00130 -0.00200
vt 2.00130 -0.00200
vt 2.00130 -0.99810
vt -0.99880 -0.99810
vt -0.99880 -0.00200
vt 1.99880 -0.00200
vt 1.99880 -0.99810
vt -3.75440 -0.62520
vt -3.04530 -0.89370
vt -3.75440 -0.89370
vt -3.04530 -0.62520
vt -2.33620 -0.89370
vt -2.33620 -0.62520
vt -1.62720 -0.89370
vt -1.62720 -0.62520
vt -3.75440 -0.00010
vt -3.04530 -0.00010
vt -2.33620 -0.00010
vt -1.62720 -0.00010
vt -0.91810 -0.89370
vt -0.91810 -0.62520
vt -0.91810 -0.00010
vt -0.20900 -0.89370
vt -0.20900 -0.62520
vt -0.20900 -0.00010
vt 0.49990 -0.89370
vt 0.49990 -0.62520
vt 0.49990 -0.00010
vt 1.20900 -0.89370
vt 1.20900 -0.62520
vt 1.20900 -0.00010
vt 1.91810 -0.62520
vt 1.91810 -0.00010
vt 1.91810 -0.89370
vt 2.62720 -0.62520
vt 2.62720 -0.00010
vt 2.62720 -0.89370
vt 3.33620 -0.62520
vt 3.33620 -0.00010
vt 3.33620 -0.89370
vt 4.04530 -0.62520
vt 4.04530 -0.00010
vt 4.04530 -0.89370
vt 4.75440 -0.62520
vt 4.75440 -0.00010
vt 4.75440 -0.89370
vt 0.00190 1.49910
vt 0.18350 1.99890
vt 0.18350 1.49910
vt 0.00190 1.99890
vt 0.00190 0.99930
vt 0.18350 0.99930
vt 0.00190 0.49950
vt 0.18350 0.49950
vt 0.00190 -0.00030
vt 0.18350 -0.00030
vt 0.00190 -0.50010
vt 0.18350 -0.50010
vt 0.00190 -0.99980
vt 0.18350 -0.99980
vt 0.00190 -1.49950
vt 0.18350 -1.49950
vt 0.00190 -1.99930
vt 0.18350 -1.99930
vt 0.00190 -2.49910
vt 0.18350 -2.49910
vt 0.00190 -2.99890
vt 0.18350 -2.99890
vt 4.66010 5.51340
vt 5.49210 5.99800
vt 4.66010 5.99800
vt 5.49210 5.51340
vt -4.49210 5.51340
vt -3.66010 5.99800
vt -4.49210 5.99800
vt -3.66010 5.51340
vt 3.82800 5.51340
vt 3.82800 5.99800
vt -2.82800 5.99800
vt -2.82800 5.51340
vt 2.99600 5.51340
vt 2.99600 5.99800
vt -1.99600 5.99800
vt -1.99600 5.51340
vt 2.16400 5.51340
vt 2.16400 5.99800
vt -1.16400 5.99800
vt -1.16400 5.51340
vt 1.33200 5.51340
vt 1.33200 5.99800
vt -0.33200 5.99800
vt -0.33200 5.51340
vt 1.16650 5.99800
vt 1.49980 5.74990
vt 1.16650 5.74990
vt 1.49980 5.99800
vt 0.83320 5.99800
vt 0.83320 5.74990
vt 0.50000 5.51340
vt 0.50000 5.99800
vt 0.49990 5.99800
vt 0.49990 5.74990
vt 0.16670 5.99800
vt 0.16670 5.74990
vt -0.16650 5.99800
vt -0.16650 5.74990
vt -0.49980 5.99800
vt -0.49980 5.74990
vt 2.99890 2.90210
vt 3.49100 2.83730
vt 2.99890 1.49370
vt 2.50680 2.83730
vt 3.94960 2.64730
vt 3.24540 1.42770
vt 2.75240 1.42770
vt 2.04820 2.64730
vt 4.34340 2.34510
vt 1.65440 2.34510
vt 4.64560 1.95140
vt 3.42590 1.24720
vt 1.35220 1.95140
vt 2.57190 1.24720
vt 4.83550 1.49280
vt 1.16230 1.49280
vt 3.49200 1.00060
vt 2.50580 1.00060
vt 4.90030 1.00060
vt 1.09750 1.00060
vt 4.83550 0.50850
vt 1.16230 0.50850
vt 3.42590 0.75410
vt 2.57190 0.75410
vt 4.64560 0.04990
vt 1.35220 0.04990
vt 4.34340 -0.34380
vt 3.24540 0.57360
vt 1.65440 -0.34380
vt 2.75240 0.57360
vt 2.99890 0.50760
vt 3.49100 -0.83600
vt 2.50680 -0.83600
vt 3.94960 -0.64600
vt 2.04820 -0.64600
vt 2.99890 -0.90080
vt 0.49990 5.49990
vt 0.05170 5.49990
vt 0.11170 5.72410
vt 0.11170 5.27580
vt 0.27580 5.88820
vt 0.27580 5.11170
vt 0.49990 5.94820
vt 0.50000 5.05170
vt 0.72410 5.88820
vt 0.72410 5.11170
vt 0.88820 5.27580
vt 0.88820 5.72410
vt 0.94820 5.49990
# 709 texture vertices

g Object_2
usemtl texture0
f 1/3 2/2 3/1
f 2/2 4/4 3/1
f 2/2 5/5 4/4
f 5/5 6/6 4/4
f 7/8 1/3 8/7
f 1/3 3/1 8/7
f 5/5 9/9 6/6
f 9/9 10/10 6/6
f 9/9 11/11 10/10
f 11/11 12/12 10/10
f 13/14 7/8 14/13
f 7/8 8/7 14/13
f 11/11 15/15 12/12
f 15/15 16/16 12/12
f 17/18 13/14 18/17
f 13/14 14/13 18/17
f 15/15 19/19 16/16
f 19/19 20/20 16/16
f 21/22 17/18 22/21
f 17/18 18/17 22/21
f 19/19 23/23 20/20
f 23/23 24/24 20/20
f 25/26 21/22 26/25
f 21/22 22/21 26/25
f 23/23 27/27 24/24
f 27/27 28/28 24/24
f 29/30 25/26 30/29
f 25/26 26/25 30/29
f 27/27 31/31 28/28
f 31/31 32/32 28/28
f 33/34 29/30 34/33
f 29/30 30/29 34/33
f 31/31 35/35 32/32
f 35/35 36/36 32/32
f 37/38 33/34 38/37
f 33/34 34/33 38/37
f 35/35 39/39 36/36
f 39/39 40/40 36/36
f 41/42 37/38 42/41
f 37/38 38/37 42/41
f 43/44 41/42 44/43
f 41/42 42/41 44/43
f 39/39 45/45 40/40
f 45/45 46/46 40/40
f 47/48 43/44 48/47
f 43/44 44/43 48/47
f 45/45 47/48 46/46
f 47/48 48/47 46/46
g obj1
usemtl mat1
f 49/51 50/50 51/49
f 50/50 52/52 51/49
f 53/55 54/54 55/53
f 54/54 56/56 55/53
f 56/59 51/58 55/57
f 51/58 52/60 55/57
f 57/63 58/62 59/61
f 58/62 60/64 59/61
f 61/57 59/60 62/59
f 59/60 60/58 62/59
f 63/63 64/62 65/61
f 64/62 66/64 65/61
f 67/57 65/60 68/59
f 65/60 66/58 68/59
f 69/63 70/62 68/61
f 70/62 67/64 68/61
f 71/67 72/66 73/65
f 72/66 74/68 73/65
f 75/70 73/58 76/69
f 73/58 74/60 76/69
f 77/73 78/72 76/71
f 78/72 75/74 76/71
f 79/77 80/76 81/75
f 80/76 82/78 81/75
f 83/81 84/80 85/79
f 84/80 86/82 85/79
f 82/70 85/58 81/69
f 85/58 86/60 81/69
f 87/85 88/84 89/83
f 88/84 90/86 89/83
f 90/89 91/88 89/87
f 91/88 92/90 89/87
f 93/93 94/92 91/91
f 94/92 92/94 91/91
usemtl texture1
f 95/63 96/62 62/61
f 96/62 61/64 62/61
f 97/97 98/96 99/95
f 98/96 100/98 99/95
f 100/101 101/100 99/99
f 101/100 102/102 99/99
f 103/105 104/104 101/103
f 104/104 102/106 101/103
f 105/109 106/108 107/107
f 106/108 108/110 107/107
f 108/113 109/112 107/111
f 109/112 110/114 107/111
f 111/117 112/116 109/115
f 112/116 110/118 109/115
usemtl texture2
f 113/121 114/120 115/119
f 114/120 116/122 115/119
f 117/121 118/119 119/120
f 118/119 120/122 119/120
f 120/125 118/124 116/123
f 118/124 115/126 116/123
f 121/129 122/128 123/127
f 122/128 124/130 123/127
f 125/133 122/132 126/131
f 122/132 121/134 126/131
f 127/133 128/131 124/132
f 128/131 123/134 124/132
f 129/137 130/136 131/135
f 132/136 133/137 134/135
f 135/140 136/139 137/138
f 137/138 136/139 138/141
f 137/138 130/136 135/140
f 130/136 129/137 135/140
f 139/141 140/139 141/138
f 140/139 142/140 141/138
f 141/138 142/140 132/136
f 142/140 133/137 132/136
f 143/144 144/143 145/142
f 146/143 147/144 148/142
f 149/147 150/146 151/145
f 150/146 152/148 151/145
f 151/145 152/148 143/144
f 152/148 144/143 143/144
f 153/148 154/146 155/145
f 155/145 154/146 156/147
f 155/145 147/144 153/148
f 147/144 146/143 153/148
usemtl texture3
f 119/151 120/150 114/149
f 120/150 116/152 114/149
f 126/149 121/152 128/151
f 121/152 123/150 128/151
usemtl texture4
f 157/155 158/154 159/153
f 158/154 160/156 159/153
f 158/159 161/158 160/157
f 161/158 162/160 160/157
f 163/162 157/155 164/161
f 157/155 159/153 164/161
f 161/158 165/163 162/160
f 165/163 166/164 162/160
f 167/166 163/162 168/165
f 163/162 164/161 168/165
f 165/163 169/167 166/164
f 169/167 170/168 166/164
f 171/170 167/166 172/169
f 167/166 168/165 172/169
f 169/167 173/171 170/168
f 173/171 174/172 170/168
f 175/174 171/170 176/173
f 171/170 172/169 176/173
f 173/171 177/175 174/172
f 177/175 178/176 174/172
f 179/178 175/174 180/177
f 175/174 176/173 180/177
f 177/175 181/179 178/176
f 181/179 182/180 178/176
f 183/182 179/178 184/181
f 179/178 180/177 184/181
f 181/179 185/183 182/180
f 185/183 186/184 182/180
f 187/186 183/182 188/185
f 183/182 184/181 188/185
f 185/183 189/187 186/184
f 189/187 190/188 186/184
f 191/190 187/186 192/189
f 187/186 188/185 192/189
f 189/187 193/191 190/188
f 193/191 194/192 190/188
f 195/194 191/190 196/193
f 191/190 192/189 196/193
f 193/191 197/195 194/192
f 197/195 198/196 194/192
f 199/198 195/194 200/197
f 195/194 196/193 200/197
f 197/195 201/199 198/196
f 201/199 202/200 198/196
f 203/202 199/198 204/201
f 199/198 200/197 204/201
f 201/199 203/202 202/200
f 203/202 204/201 202/200
usemtl texture5
f 205/205 206/204 207/203
f 206/204 208/206 207/203
f 208/206 209/207 207/203
f 209/207 210/208 207/203
f 138/211 139/210 137/209
f 139/210 141/212 137/209
f 210/208 209/207 211/213
f 209/207 212/58 211/213
f 141/212 132/214 137/209
f 132/214 130/215 137/209
f 133/218 129/217 134/216
f 129/217 131/219 134/216
f 130/215 132/214 131/219
f 132/214 134/216 131/219
f 213/222 214/221 215/220
f 214/221 216/223 215/220
f 216/223 217/224 215/220
f 217/224 218/225 215/220
f 156/228 149/227 155/226
f 149/227 151/229 155/226
f 218/225 217/224 219/226
f 217/224 220/229 219/226
f 151/229 143/230 155/226
f 143/230 147/231 155/226
f 147/231 143/230 148/232
f 143/230 145/233 148/232
f 144/235 146/234 145/233
f 146/234 148/232 145/233
usemtl texture6
f 209/238 221/237 212/236
f 222/237 210/238 211/236
f 206/241 223/240 208/239
f 223/240 224/242 208/239
f 224/242 221/237 208/239
f 208/239 221/237 209/238
f 225/242 226/240 207/239
f 207/239 226/240 205/241
f 225/242 207/239 222/237
f 207/239 210/238 222/237
f 227/245 218/244 219/243
f 217/244 228/245 220/243
f 229/248 230/247 215/246
f 215/246 230/247 213/249
f 229/248 215/246 227/245
f 215/246 218/244 227/245
f 214/249 231/247 216/246
f 231/247 232/248 216/246
f 232/248 228/245 216/246
f 216/246 228/245 217/244
usemtl texture7
f 233/252 234/251 235/250
f 236/253 235/250 234/251
f 234/256 237/255 236/254
f 238/257 236/254 237/255
f 239/259 233/252 240/258
f 235/250 240/258 233/252
f 237/255 241/260 238/257
f 242/261 238/257 241/260
f 243/263 239/259 244/262
f 240/258 244/262 239/259
f 241/260 245/264 242/261
f 246/265 242/261 245/264
f 247/267 243/263 248/266
f 244/262 248/266 243/263
f 245/264 249/268 246/265
f 250/269 246/265 249/268
f 251/271 247/267 252/270
f 248/266 252/270 247/267
f 249/268 253/272 250/269
f 254/273 250/269 253/272
f 255/275 251/271 256/274
f 252/270 256/274 251/271
f 253/272 257/275 254/273
f 258/274 254/273 257/275
f 259/272 255/275 260/273
f 256/274 260/273 255/275
f 257/275 261/271 258/274
f 262/270 258/274 261/271
f 263/268 259/272 264/269
f 260/273 264/269 259/272
f 261/271 265/267 262/270
f 266/266 262/270 265/267
f 267/264 263/268 268/265
f 264/269 268/265 263/268
f 265/267 269/263 266/266
f 270/262 266/266 269/263
f 271/260 267/264 272/261
f 268/265 272/261 267/264
f 269/263 273/259 270/262
f 274/258 270/262 273/259
f 275/255 271/260 276/257
f 272/261 276/257 271/260
f 273/259 277/252 274/258
f 278/250 274/258 277/252
f 279/256 275/255 280/254
f 276/257 280/254 275/255
f 277/252 279/251 278/250
f 280/253 278/250 279/251
usemtl texture8
f 281/278 282/277 283/276
f 283/276 282/277 284/279
f 281/278 285/280 282/277
f 285/280 286/281 282/277
f 284/279 282/277 287/282
f 282/277 288/283 287/282
f 286/281 289/284 282/277
f 282/277 289/284 288/283
f 283/287 290/286 291/285
f 290/286 292/288 291/285
f 293/291 285/290 294/289
f 285/290 295/292 294/289
f 290/286 283/287 296/293
f 283/287 284/294 296/293
f 285/290 293/291 286/295
f 293/291 297/296 286/295
f 296/293 284/294 298/297
f 284/294 287/298 298/297
f 297/296 299/299 286/295
f 286/295 299/299 289/300
f 287/303 300/302 301/301
f 300/302 302/304 301/301
f 289/307 303/306 304/305
f 304/305 303/306 305/308
f 301/301 306/309 287/303
f 298/310 287/303 306/309
f 299/312 307/311 289/307
f 289/307 307/311 303/306
f 283/315 291/314 308/313
f 308/313 291/314 309/316
f 285/319 310/318 295/317
f 310/318 311/320 295/317
f 300/323 312/322 302/321
f 312/322 313/324 302/321
f 314/327 304/326 315/325
f 304/326 305/328 315/325
f 316/331 290/330 317/329
f 290/330 296/332 317/329
f 318/335 319/334 293/333
f 293/333 319/334 297/336
f 317/329 296/332 320/337
f 296/332 298/338 320/337
f 297/336 319/334 299/339
f 319/334 321/340 299/339
f 290/343 322/342 292/341
f 322/342 323/344 292/341
f 293/347 294/346 324/345
f 324/345 294/346 325/348
f 320/350 298/310 326/349
f 298/310 306/309 326/349
f 299/312 321/351 307/311
f 321/351 327/352 307/311
f 312/322 328/353 313/324
f 328/353 329/354 313/324
f 330/356 314/327 331/355
f 314/327 315/325 331/355
f 322/342 308/313 323/344
f 308/313 309/316 323/344
f 310/318 324/345 311/320
f 324/345 325/348 311/320
f 332/358 316/331 333/357
f 316/331 317/329 333/357
f 318/335 334/359 319/334
f 334/359 335/360 319/334
f 333/357 317/329 336/361
f 317/329 320/337 336/361
f 319/334 335/360 321/340
f 335/360 337/362 321/340
f 336/364 320/350 338/363
f 320/350 326/349 338/363
f 321/351 337/365 327/352
f 337/365 339/366 327/352
f 328/353 340/367 329/354
f 340/367 341/368 329/354
f 342/370 330/356 343/369
f 330/356 331/355 343/369
f 332/358 333/357 344/371
f 344/371 333/357 345/372
f 334/359 346/373 335/360
f 346/373 347/374 335/360
f 345/372 333/357 348/375
f 333/357 336/361 348/375
f 335/360 347/374 337/362
f 347/374 349/376 337/362
f 336/364 338/363 348/377
f 348/377 338/363 350/378
f 337/365 349/379 339/366
f 349/379 351/380 339/366
f 340/367 352/381 341/368
f 352/381 353/382 341/368
f 354/384 342/370 355/383
f 342/370 343/369 355/383
f 344/387 356/386 357/385
f 357/385 356/386 358/388
f 346/391 359/390 360/389
f 359/390 361/392 360/389
f 362/395 363/394 344/393
f 344/393 363/394 356/396
f 364/399 346/398 365/397
f 346/398 360/400 365/397
f 344/393 345/401 362/395
f 362/395 345/401 366/402
f 346/398 364/399 347/403
f 364/399 367/404 347/403
f 366/402 345/401 368/405
f 345/401 348/406 368/405
f 347/403 367/404 349/407
f 367/404 369/408 349/407
f 368/410 348/377 370/409
f 348/377 350/378 370/409
f 369/412 371/411 349/379
f 349/379 371/411 351/380
f 352/381 372/413 353/382
f 372/413 373/414 353/382
f 374/416 354/384 375/415
f 354/384 355/383 375/415
f 376/418 357/385 377/417
f 357/385 358/388 377/417
f 359/390 378/419 361/392
f 378/419 379/417 361/392
f 380/421 376/418 381/420
f 376/418 377/417 381/420
f 378/419 382/422 379/417
f 382/422 383/423 379/417
f 372/413 384/424 373/414
f 384/424 385/425 373/414
f 386/427 374/416 387/426
f 374/416 375/415 387/426
f 388/429 368/410 389/428
f 368/410 370/409 389/428
f 390/431 391/430 369/412
f 369/412 391/430 371/411
f 392/433 366/402 388/432
f 366/402 368/405 388/432
f 367/404 393/434 369/408
f 393/434 390/435 369/408
f 394/436 362/395 392/433
f 362/395 366/402 392/433
f 395/437 393/434 364/399
f 364/399 393/434 367/404
f 362/395 394/436 363/394
f 394/436 396/438 363/394
f 364/399 365/397 395/437
f 395/437 365/397 397/439
f 394/441 380/421 396/440
f 380/421 381/420 396/440
f 395/443 397/442 382/422
f 382/422 397/442 383/423
f 384/424 398/444 385/425
f 398/444 399/445 385/425
f 400/447 386/427 401/446
f 386/427 387/426 401/446
f 389/428 402/448 388/429
f 403/449 388/429 402/448
f 404/451 405/450 390/431
f 390/431 405/450 391/430
f 406/360 392/374 403/362
f 392/374 388/376 403/362
f 393/454 407/453 390/452
f 407/453 404/455 390/452
f 408/359 394/373 406/360
f 394/373 392/374 406/360
f 409/457 407/453 395/456
f 395/456 407/453 393/454
f 398/444 410/458 399/445
f 410/458 411/459 399/445
f 412/461 400/447 413/460
f 400/447 401/446 413/460
f 414/463 403/449 415/462
f 403/449 402/448 415/462
f 404/451 416/464 405/450
f 416/464 417/465 405/450
f 407/453 418/466 404/455
f 418/466 416/467 404/455
f 419/334 406/360 414/340
f 406/360 403/362 414/340
f 420/335 408/359 419/334
f 408/359 406/360 419/334
f 409/457 421/468 407/453
f 421/468 418/466 407/453
f 422/471 423/470 424/469
f 423/470 425/472 424/469
f 426/475 427/474 428/473
f 427/474 429/476 428/473
f 410/458 430/477 411/459
f 430/477 431/478 411/459
f 432/480 412/461 433/479
f 412/461 413/460 433/479
f 434/482 414/463 435/481
f 414/463 415/462 435/481
f 416/464 436/483 417/465
f 436/483 437/484 417/465
f 438/486 439/485 427/474
f 427/474 439/485 429/476
f 440/488 422/471 441/487
f 422/471 424/469 441/487
f 442/336 419/334 434/339
f 419/334 414/340 434/339
f 418/466 443/489 416/467
f 443/489 436/490 416/467
f 420/335 419/334 438/333
f 438/333 419/334 442/336
f 421/468 440/491 418/466
f 440/491 443/489 418/466
f 430/477 444/492 431/478
f 444/492 445/493 431/478
f 446/495 432/480 447/494
f 432/480 433/479 447/494
f 448/497 426/475 449/496
f 426/475 428/473 449/496
f 450/499 451/498 423/470
f 423/470 451/498 425/472
f 436/483 452/500 437/484
f 452/500 453/501 437/484
f 434/482 435/481 454/502
f 454/502 435/481 455/503
f 452/500 446/504 453/501
f 446/504 447/505 453/501
f 454/502 455/503 444/506
f 444/506 455/503 445/507
f 442/510 434/509 456/508
f 456/508 434/509 454/511
f 443/514 457/513 436/512
f 457/513 452/515 436/512
f 448/517 438/516 456/508
f 438/516 442/510 456/508
f 440/519 450/518 443/514
f 450/518 457/513 443/514
f 438/516 448/517 439/520
f 448/517 449/521 439/520
f 450/518 440/519 451/522
f 440/519 441/523 451/522
f 456/525 454/524 458/277
f 458/277 454/524 459/283
f 457/527 458/277 452/526
f 458/277 459/283 452/526
f 460/278 448/528 458/277
f 448/528 456/525 458/277
f 460/278 458/277 450/529
f 450/529 458/277 457/527
usemtl texture9
f 303/532 461/531 305/530
f 461/531 315/533 305/530
f 461/531 327/534 315/533
f 327/534 462/535 315/533
f 327/534 339/536 462/535
f 339/536 343/537 462/535
f 339/536 463/538 343/537
f 463/538 355/539 343/537
f 463/538 464/540 355/539
f 464/540 465/541 355/539
f 464/540 466/542 465/541
f 466/542 387/543 465/541
f 466/542 467/544 387/543
f 467/544 401/545 387/543
f 467/544 417/546 401/545
f 417/546 413/547 401/545
f 417/546 468/548 413/547
f 468/548 433/549 413/547
f 468/548 469/550 433/549
f 469/550 470/551 433/549
g obj2
usemtl mat2
f 471/553 472/283 473/552
f 472/283 474/417 473/552
f 472/283 475/554 474/417
f 475/554 476/555 474/417
f 477/557 478/283 479/556
f 478/283 480/417 479/556
f 478/283 481/558 480/417
f 481/558 482/559 480/417
usemtl mat3
f 473/562 474/561 483/560
f 474/561 484/563 483/560
f 474/561 476/564 484/563
f 476/564 485/565 484/563
f 486/561 473/562 487/563
f 473/562 483/560 487/563
f 476/564 488/566 485/565
f 488/566 489/567 485/565
f 483/560 484/563 490/568
f 484/563 491/569 490/568
f 484/563 485/565 491/569
f 485/565 492/570 491/569
f 487/563 483/560 493/569
f 483/560 490/568 493/569
f 485/565 489/567 492/570
f 489/567 494/571 492/570
f 495/564 486/561 496/565
f 486/561 487/563 496/565
f 488/566 497/572 489/567
f 497/572 498/573 489/567
f 496/565 487/563 499/570
f 487/563 493/569 499/570
f 489/567 498/573 494/571
f 498/573 500/574 494/571
f 501/566 495/564 502/567
f 495/564 496/565 502/567
f 497/572 503/575 498/573
f 503/575 504/576 498/573
f 502/567 496/565 505/571
f 496/565 499/570 505/571
f 498/573 504/576 500/574
f 504/576 506/577 500/574
f 507/572 501/566 508/573
f 501/566 502/567 508/573
f 503/575 509/578 504/576
f 509/578 510/579 504/576
f 508/573 502/567 511/574
f 502/567 505/571 511/574
f 504/576 510/579 506/577
f 510/579 512/580 506/577
f 513/575 507/572 514/576
f 507/572 508/573 514/576
f 509/578 515/581 510/579
f 515/581 516/582 510/579
f 514/576 508/573 517/577
f 508/573 511/574 517/577
f 510/579 516/582 512/580
f 516/582 518/583 512/580
f 519/579 514/576 520/580
f 514/576 517/577 520/580
f 516/582 521/584 518/583
f 521/584 522/585 518/583
f 523/578 513/575 519/579
f 513/575 514/576 519/579
f 515/581 524/586 516/582
f 524/586 521/584 516/582
f 525/582 519/579 526/583
f 519/579 520/580 526/583
f 521/584 527/587 522/585
f 527/587 528/588 522/585
f 529/581 523/578 525/582
f 523/578 519/579 525/582
f 524/586 530/589 521/584
f 530/589 527/587 521/584
f 531/584 525/582 532/585
f 525/582 526/583 532/585
f 527/587 533/590 528/588
f 533/590 534/591 528/588
f 535/586 529/581 531/584
f 529/581 525/582 531/584
f 530/589 536/592 527/587
f 536/592 533/590 527/587
f 537/587 531/584 538/588
f 531/584 532/585 538/588
f 533/590 539/593 534/591
f 539/593 540/594 534/591
f 541/589 535/586 537/587
f 535/586 531/584 537/587
f 536/592 542/595 533/590
f 542/595 539/593 533/590
f 543/590 537/587 544/591
f 537/587 538/588 544/591
f 539/593 545/596 540/594
f 545/596 546/597 540/594
f 547/593 543/590 548/594
f 543/590 544/591 548/594
f 545/596 547/593 546/597
f 547/593 548/594 546/597
f 482/592 541/589 543/590
f 541/589 537/587 543/590
f 542/595 479/598 539/593
f 479/598 545/596 539/593
f 480/595 482/592 547/593
f 482/592 543/590 547/593
f 479/598 480/595 545/596
f 480/595 547/593 545/596
usemtl mat4
f 549/601 550/600 551/599
f 550/600 552/602 551/599
f 553/604 549/601 554/603
f 549/601 551/599 554/603
f 555/606 553/604 556/605
f 553/604 554/603 556/605
f 557/608 555/606 558/607
f 555/606 556/605 558/607
f 559/610 557/608 560/609
f 557/608 558/607 560/609
f 561/612 559/610 562/611
f 559/610 560/609 562/611
f 563/614 561/612 564/613
f 561/612 562/611 564/613
f 565/616 563/614 566/615
f 563/614 564/613 566/615
f 567/618 565/616 568/617
f 565/616 566/615 568/617
f 569/620 567/618 570/619
f 567/618 568/617 570/619
usemtl mat5
f 571/623 572/622 573/621
f 572/622 574/624 573/621
f 572/627 575/626 574/625
f 575/626 576/628 574/625
f 577/630 571/623 578/629
f 571/623 573/621 578/629
f 575/626 579/631 576/628
f 579/631 580/632 576/628
f 581/634 577/630 582/633
f 577/630 578/629 582/633
f 579/631 583/635 580/632
f 583/635 584/636 580/632
f 585/638 581/634 586/637
f 581/634 582/633 586/637
f 583/635 587/639 584/636
f 587/639 588/640 584/636
f 589/642 585/638 590/641
f 585/638 586/637 590/641
f 587/639 591/643 588/640
f 591/643 592/644 588/640
f 593/647 594/646 595/645
f 594/646 596/648 595/645
f 597/650 593/647 598/649
f 593/647 595/645 598/649
f 599/652 589/642 600/651
f 589/642 590/641 600/651
f 591/643 601/652 592/644
f 601/652 602/651 592/644
f 603/654 597/650 604/653
f 597/650 598/649 604/653
f 605/656 603/654 606/655
f 603/654 604/653 606/655
f 607/643 599/652 608/644
f 599/652 600/651 608/644
f 601/652 609/642 602/651
f 609/642 610/641 602/651
f 611/658 605/656 612/657
f 605/656 606/655 612/657
f 613/660 611/658 614/659
f 611/658 612/657 614/659
f 615/639 607/643 616/640
f 607/643 608/644 616/640
f 609/642 617/638 610/641
f 617/638 618/637 610/641
f 619/635 615/639 620/636
f 615/639 616/640 620/636
f 617/638 621/634 618/637
f 621/634 622/633 618/637
f 623/631 619/635 624/632
f 619/635 620/636 624/632
f 621/634 625/630 622/633
f 625/630 626/629 622/633
f 625/630 627/623 626/629
f 627/623 628/621 626/629
f 629/626 623/631 630/628
f 623/631 624/632 630/628
f 631/627 629/626 632/625
f 629/626 630/628 632/625
f 627/623 631/622 628/621
f 631/622 632/624 628/621
f 594/660 633/658 596/659
f 633/658 634/657 596/659
f 633/658 635/656 634/657
f 635/656 636/655 634/657
f 635/656 637/654 636/655
f 637/654 638/653 636/655
f 637/654 639/650 638/653
f 639/650 640/649 638/653
f 639/650 641/647 640/649
f 641/647 642/645 640/649
f 641/647 613/646 642/645
f 613/646 614/648 642/645
usemtl mat6
f 594/663 573/662 574/661
f 576/664 594/663 574/661
f 573/662 593/666 578/665
f 580/668 633/667 576/664
f 593/666 582/669 578/665
f 584/670 633/667 580/668
f 594/663 593/666 573/662
f 576/664 633/667 594/663
f 582/669 597/672 586/671
f 635/674 584/670 588/673
f 593/666 597/672 582/669
f 635/674 633/667 584/670
f 586/671 597/672 590/675
f 592/676 635/674 588/673
f 590/675 597/672 603/677
f 637/678 635/674 592/676
f 590/675 603/677 600/679
f 637/678 592/676 602/680
f 603/677 608/681 600/679
f 610/682 637/678 602/680
f 603/677 605/683 608/681
f 610/682 639/684 637/678
f 608/681 605/683 616/685
f 618/686 639/684 610/682
f 605/683 611/688 620/687
f 641/690 639/684 622/689
f 605/683 620/687 616/685
f 622/689 639/684 618/686
f 643/692 611/688 613/691
f 613/691 641/690 644/693
f 620/687 611/688 624/694
f 641/690 622/689 626/695
f 644/693 641/690 626/695
f 624/694 611/688 643/692
f 643/692 613/691 632/696
f 613/691 644/693 632/696
usemtl mat7
f 595/699 596/698 645/697
f 596/698 634/700 645/697
f 598/701 595/699 645/697
f 634/700 636/702 645/697
f 604/703 598/701 645/697
f 636/702 638/704 645/697
f 606/705 604/703 645/697
f 638/704 640/706 645/697
f 640/706 642/707 645/697
f 612/708 606/705 645/697
f 642/707 614/709 645/697
f 614/709 612/708 645/697
# 780 elements

