# Created by Metasequoia

mtllib Emperor2.mtl

v -1724.444214 172.359268 -7194.116211
v -1749.999756 172.359268 -7000.001953
v -1482.962769 172.359268 -7129.410645
v -1499.999878 172.359268 -7000.001465
v -1724.444214 172.359268 -6805.887695
v -1482.962769 172.359268 -6870.592285
v -1649.518921 172.359268 -7375.001953
v -1433.012573 172.359268 -7250.000977
v -1649.518921 172.359268 -6625.001953
v -1433.012573 172.359268 -6750.000977
v -1530.330078 172.359268 -7530.331543
v -1353.553345 172.359268 -7353.554199
v -1530.330078 172.359268 -6469.671387
v -1353.553345 172.359268 -6646.447754
v -1374.999878 172.359268 -7649.520020
v -1249.999878 172.359268 -7433.013672
v -1374.999878 172.359268 -6350.481934
v -1249.999878 172.359268 -6566.987793
v -1194.114258 172.359268 -6275.556152
v -1129.409546 172.359268 -6517.037598
v -1194.114136 172.359268 -7724.444824
v -1129.409424 172.359268 -7482.963379
v -1000.000000 172.359268 -6250.000000
v -1000.000000 172.359268 -6500.000000
v -1000.000000 172.359268 -7750.000000
v -1000.000000 172.359268 -7500.000000
v -805.885803 172.359268 -7724.443848
v -870.590515 172.359268 -7482.962891
v -805.885803 172.359268 -6275.555664
v -870.590515 172.359268 -6517.037109
v -625.000122 172.359268 -6350.479980
v -750.000122 172.359268 -6566.986816
v -625.000122 172.359268 -7649.517578
v -750.000122 172.359268 -7433.012207
v -469.669983 172.359268 -6469.668945
v -646.446655 172.359268 -6646.445313
v -469.669922 172.359268 -7530.329102
v -646.446655 172.359268 -7353.552246
v -350.481079 172.359268 -7374.998535
v -566.987427 172.359268 -7249.999023
v -350.481018 172.359268 -6624.998535
v -566.987427 172.359268 -6749.999023
v -275.556030 172.359268 -7194.112305
v -517.037292 172.359268 -7129.408203
v -275.555725 172.359268 -6805.883789
v -517.037109 172.359268 -6870.589844
v -250.000122 172.359268 -6999.998047
v -500.000092 172.359268 -6999.999023
v -1009.999878 142.359268 -6500.000000
v -1009.999878 142.359268 -6250.000000
v -1009.999878 162.359268 -6500.000000
v -1009.999878 162.359268 -6250.000000
v -990.000000 162.359268 -6250.000000
v -990.000000 162.359268 -6500.000000
v -990.000000 142.359268 -6250.000000
v -990.000000 142.359268 -6500.000000
v -476.741058 162.359268 -6462.598633
v -462.598938 162.359268 -6476.740723
v -653.517700 162.359268 -6639.375488
v -639.375549 162.359268 -6653.517578
v -462.598938 142.359268 -6476.740723
v -639.375549 142.359268 -6653.517578
v -250.000122 142.359268 -7010.000000
v -500.000092 142.359268 -7010.000000
v -250.000122 162.359268 -7010.000000
v -500.000092 162.359268 -7010.000000
v -500.000092 142.359268 -6990.000000
v -250.000122 142.359268 -6990.000000
v -500.000092 162.359268 -6990.000000
v -250.000122 162.359268 -6990.000000
v -476.740997 142.359268 -7537.401367
v -653.517700 142.359268 -7360.624512
v -476.740997 162.359268 -7537.401367
v -653.517700 162.359268 -7360.624512
v -462.598846 162.359268 -7523.259277
v -639.375549 162.359268 -7346.482422
v -639.375549 142.359268 -7346.482422
v -462.598846 142.359268 -7523.259277
v -1009.999878 142.359268 -7750.000000
v -1009.999878 142.359268 -7500.000000
v -1009.999878 162.359268 -7750.000000
v -1009.999878 162.359268 -7500.000000
v -990.000000 162.359268 -7750.000000
v -990.000000 162.359268 -7500.000000
v -990.000000 142.359268 -7500.000000
v -990.000000 142.359268 -7750.000000
v -1360.624512 142.359268 -6653.517578
v -1537.401123 142.359268 -6476.741211
v -1360.624512 162.359268 -6653.517578
v -1537.401123 162.359268 -6476.741211
v -1523.258911 162.359268 -6462.599121
v -1346.482300 162.359268 -6639.375488
v -1523.258911 142.359268 -6462.599121
v -1346.482300 142.359268 -6639.375488
v -653.517700 142.359268 -6639.375488
v -476.741058 142.359268 -6462.598633
v -1537.401245 142.359268 -7523.258789
v -1360.624390 142.359268 -7346.481934
v -1537.401245 162.359268 -7523.258789
v -1360.624390 162.359268 -7346.481934
v -1523.258911 162.359268 -7537.400879
v -1346.482178 162.359268 -7360.624023
v -1346.482178 142.359268 -7360.624023
v -1523.258911 142.359268 -7537.400879
v -1499.999878 142.359268 -7010.000000
v -1749.999878 142.359268 -7010.000000
v -1499.999878 162.359268 -7010.000000
v -1749.999878 162.359268 -7010.000000
v -1749.999878 142.359268 -6990.000000
v -1499.999878 142.359268 -6990.000000
v -1749.999878 162.359268 -6990.000000
v -1499.999878 162.359268 -6990.000000
v -1089.515869 -332.748810 -6502.000000
v -1089.515747 -292.989929 -6349.571289
v -1089.515869 71.798317 -6517.833008
v -1089.515747 42.692841 -6409.209473
v -910.484131 42.692841 -6409.209473
v -910.484192 -292.989929 -6349.571289
v -910.484192 -332.748810 -6502.000000
v -910.484192 71.798317 -6517.833008
v -1089.515747 -332.748810 -7498.000000
v -1089.515747 71.798317 -7482.166992
v -1089.515747 -292.989929 -7650.428711
v -1089.515747 42.692841 -7590.790527
v -910.484131 42.692841 -7590.790527
v -910.484131 -292.989929 -7650.428711
v -910.484131 -332.748810 -7498.000000
v -910.484131 71.798317 -7482.166992
v -1989.999756 93.359367 -7020.000000
v -1989.999512 15.359380 -7020.000000
v -2074.913086 93.359367 -7020.000000
v -2074.913086 15.359380 -7020.000000
v -2074.913086 15.359380 -6980.000000
v -1989.999512 15.359380 -6980.000000
v -2074.913086 93.359367 -6980.000000
v -1989.999512 93.359367 -6980.000000
v -2022.738037 176.359268 -7020.000000
v -1989.999634 176.359268 -7020.000000
v -2022.738037 176.359268 -6980.000000
v -1989.999512 176.359268 -6980.000000
v -1989.999512 218.359177 -7020.000000
v -1989.999512 218.359177 -6980.000000
v 22.738400 176.359268 -7020.000000
v -9.999880 176.359268 -7020.000000
v -9.999880 218.359268 -7020.000000
v -9.999880 176.359268 -6980.000000
v 22.738400 176.359268 -6980.000000
v -9.999880 218.359268 -6980.000000
v 74.913208 93.359367 -7020.000000
v -9.999880 93.359367 -7020.000000
v 74.913208 93.359367 -6980.000000
v -9.999880 93.359367 -6980.000000
v 74.913208 15.359380 -7020.000000
v -9.999880 15.359380 -7020.000000
v -9.999880 15.359380 -6980.000000
v 74.913208 15.359380 -6980.000000
v -1724.444214 172.359268 -7194.112793
v -1749.999756 172.359268 -6999.998535
v -1693.700317 15.146970 -7185.875000
v -1718.171387 15.146970 -6999.998535
v -1724.444214 172.359268 -6805.884277
v -1693.700317 15.146970 -6814.122070
v -1649.518921 172.359268 -7374.998535
v -1621.954712 15.146970 -7359.084473
v -1649.518921 172.359268 -6624.998535
v -1621.954712 15.146970 -6640.913086
v -1530.329834 172.359268 -7530.329102
v -1507.823730 15.146970 -7507.823242
v -1530.329834 172.359268 -6469.668945
v -1507.823730 15.146970 -6492.175293
v -1374.999756 172.359268 -7649.518555
v -1359.085571 15.146970 -7621.954590
v -1374.999878 172.359268 -6350.480469
v -1359.085693 15.146970 -6378.044434
v -1194.114258 172.359268 -6275.555664
v -1185.876465 15.146970 -6306.299316
v -1194.114136 172.359268 -7724.444336
v -1185.876343 15.146970 -7693.700195
v -1000.000000 172.359268 -7750.000000
v -1000.000000 15.146970 -7718.171875
v -1000.000000 172.359268 -6250.000488
v -1000.000000 15.146970 -6281.828613
v -805.885803 172.359268 -7724.445313
v -814.123596 15.146970 -7693.701172
v -805.885803 172.359268 -6275.556641
v -814.123596 15.146970 -6306.300781
v -625.000122 172.359268 -7649.520020
v -640.914429 15.146970 -7621.955078
v -625.000122 172.359268 -6350.481934
v -640.914307 15.146970 -6378.046387
v -469.670105 172.359268 -7530.331543
v -492.176208 15.146970 -7507.825195
v -469.669983 172.359268 -6469.671387
v -492.176086 15.146970 -6492.177246
v -350.481201 172.359268 -7375.001953
v -378.045410 15.146970 -7359.087402
v -350.481079 172.359268 -6625.001953
v -378.045288 15.146970 -6640.916504
v -275.556030 172.359268 -7194.116211
v -306.299927 15.146970 -7185.877930
v -275.555786 172.359268 -6805.887695
v -306.299683 15.146970 -6814.125488
v -250.000122 172.359268 -7000.001953
v -281.828613 15.146970 -7000.001953
v -1706.850708 93.337173 -6969.925781
v -1706.850708 93.337173 -7030.073730
v -1756.079346 156.492462 -6969.926270
v -1756.079346 156.492462 -7030.074219
v -1628.395386 -31.469730 -7030.073730
v -1628.395386 -31.469730 -6969.925781
v -1628.395386 -279.233826 -6969.925781
v -1628.395386 -279.233826 -7030.073730
v -371.603882 -279.233826 -7030.073730
v -371.603882 -279.233826 -6969.925781
v -371.603882 -31.469730 -7030.073730
v -371.603882 -31.469730 -6969.925781
v -293.148926 93.337173 -6969.925781
v -293.148926 93.337173 -7030.073730
v -243.919800 156.492462 -7030.073730
v -243.919800 156.492462 -6969.925781
v -1756.079346 -31.469730 -7030.074219
v -1756.079346 93.337173 -7030.074219
v -1756.079224 -31.469730 -6969.925781
v -1756.079224 93.337173 -6969.925781
v -1756.079346 -279.233826 -7030.074219
v -1756.079346 -279.233826 -6969.926270
v -243.920288 -31.469730 -7030.073730
v -243.919800 -279.233826 -7030.073730
v -243.919800 -279.233826 -6969.925781
v -243.919800 -31.469730 -6969.925781
v -243.920288 93.337173 -7030.073730
v -243.919800 93.337173 -6969.925781
v -1507.625000 12.359380 -7136.017578
v -1525.532104 12.359380 -7000.000000
v -1482.962769 172.359268 -7129.409180
v -1499.999878 172.359268 -7000.000000
v -1507.625000 12.359380 -6863.982422
v -1482.962769 172.359268 -6870.590332
v -1455.124146 12.359380 -7262.766113
v -1433.012573 172.359268 -7250.000000
v -1455.124146 12.359380 -6737.233887
v -1433.012573 172.359268 -6750.000000
v -1371.607178 12.359380 -7371.606934
v -1353.553345 172.359268 -7353.553223
v -1371.607178 12.359380 -6628.392578
v -1353.553345 172.359268 -6646.446777
v -1262.766113 12.359380 -6544.875488
v -1249.999878 172.359268 -6566.987305
v -1262.765869 12.359380 -7455.124023
v -1249.999878 172.359268 -7433.012695
v -1136.017700 12.359380 -6492.374512
v -1129.409546 172.359268 -6517.037109
v -1136.017700 12.359380 -7507.625000
v -1129.409424 172.359268 -7482.962891
v -1000.000000 12.359380 -7525.532227
v -1000.000000 172.359268 -7500.000000
v -1000.000000 12.359380 -6474.467773
v -1000.000000 172.359268 -6500.000000
v -863.982300 12.359380 -7507.625000
v -870.590515 172.359268 -7482.962891
v -863.982300 12.359380 -6492.375000
v -870.590515 172.359268 -6517.037109
v -737.234131 12.359380 -7455.124023
v -750.000122 172.359268 -7433.012695
v -737.233887 12.359380 -6544.875488
v -750.000122 172.359268 -6566.987305
v -628.392822 12.359380 -7371.606934
v -646.446655 172.359268 -7353.553223
v -628.392822 12.359380 -6628.392578
v -646.446655 172.359268 -6646.446289
v -544.875854 12.359380 -7262.766113
v -566.987488 172.359268 -7250.000000
v -544.875854 12.359380 -6737.233887
v -566.987427 172.359268 -6750.000000
v -492.375214 12.359380 -7136.017578
v -517.037292 172.359268 -7129.409180
v -492.374908 12.359380 -6863.982422
v -517.037231 172.359268 -6870.590332
v -474.467896 12.359380 -7000.000000
v -500.000092 172.359268 -7000.000000
v -2055.752441 15.146970 -7000.000000
v -2019.778809 15.146970 -7273.249023
v -2055.752441 -47.640629 -7000.000000
v -2019.778809 -47.640629 -7273.249023
v -2019.778809 15.146970 -6726.750977
v -2019.778809 -47.640629 -6726.750977
v -2014.712402 93.359367 -7271.891602
v -2050.507324 93.359367 -7000.000000
v -2014.712402 93.359367 -6728.108398
v -1965.925781 172.359268 -7258.818848
v -1999.999756 172.359268 -7000.000000
v -1965.925781 172.359268 -6741.180664
v -1965.925781 176.359161 -6741.181152
v -1999.999756 176.359161 -7000.000488
v -1965.925781 176.359161 -7258.819336
v -1914.308472 15.146970 -7527.876465
v -1909.766113 93.359367 -7525.253906
v -1914.308716 15.146970 -6472.123535
v -1909.766113 93.359367 -6474.746094
v -1866.025146 172.359268 -7500.000000
v -1866.025391 172.359268 -6500.000000
v -1937.499756 172.359268 -7000.000000
v -1905.555298 172.359268 -7242.642578
v -1937.499878 176.359161 -7000.000000
v -1905.555420 176.359161 -7242.642578
v -1905.555420 172.359268 -6757.356934
v -1905.555420 176.359161 -6757.357422
v -1866.025146 176.359161 -7500.000000
v -1866.025391 176.359161 -6500.000000
v -1764.834106 15.146970 -7204.936523
v -1764.834106 -47.640629 -7204.936035
v -1764.834106 15.146970 -6795.062988
v -1764.834106 -47.640629 -6795.062988
v -1811.898682 172.359268 -6531.250000
v -1811.898804 176.359161 -6531.250000
v -1811.898682 172.359268 -7468.750000
v -1811.898682 176.359161 -7468.750000
v -1746.529907 15.146970 -6253.470215
v -1742.820923 93.359367 -6257.178711
v -1746.529785 15.146970 -7746.529785
v -1742.820923 93.359367 -7742.820801
v -1707.106689 172.359268 -7707.106445
v -1707.106689 172.359268 -6292.893555
v -1707.106689 176.359161 -6292.893555
v -1707.106689 176.359161 -7707.106445
v -1791.814453 15.146970 -7000.000000
v -1791.814453 -47.640629 -6999.999512
v -1662.912476 172.359268 -6337.087402
v -1662.912476 176.359161 -6337.087402
v -1662.912354 172.359268 -7662.912598
v -1662.912354 176.359161 -7662.912598
v -1527.876465 15.146970 -6085.691406
v -1525.253784 93.359367 -6090.233398
v -1527.876221 15.146970 -7914.308594
v -1525.253662 93.359367 -7909.766113
v -1499.999756 172.359268 -7866.025391
v -1499.999878 172.359268 -6133.974609
v -1499.999756 176.359161 -7866.025391
v -1499.999878 176.359161 -6133.974609
v -1468.749878 172.359268 -6188.101074
v -1468.749878 176.359161 -6188.101074
v -1468.749756 172.359268 -7811.898438
v -1468.749756 176.359161 -7811.898438
v -1395.907227 15.146970 -6314.268555
v -1527.876465 -47.640629 -6085.691895
v -1395.907227 -47.640629 -6314.269043
v -1527.876221 -47.640629 -7914.307617
v -1395.907227 15.146970 -7685.731445
v -1395.907227 -47.640629 -7685.731445
v -1273.248901 15.146970 -5980.221191
v -1273.249023 -47.640629 -5980.221191
v -1273.248901 15.146970 -8019.778809
v -1273.248901 -47.640629 -8019.778809
v -1271.891357 93.359367 -5985.287598
v -1271.891235 93.359367 -8014.712402
v -1258.818848 172.359268 -6034.074219
v -1258.818848 172.359268 -7965.925781
v -1258.818848 176.359161 -6034.074219
v -1258.818848 176.359161 -7965.925781
v -1242.642822 172.359268 -7905.555176
v -1242.642700 176.359161 -7905.555176
v -1242.642822 172.359268 -6094.444336
v -1242.642822 176.359161 -6094.444336
v -1204.936646 15.146970 -7764.833984
v -1204.936646 -47.640629 -7764.833984
v -1204.936646 15.146970 -6235.165527
v -1204.936768 -47.640629 -6235.165527
v -1000.000000 15.146970 -5944.247070
v -1000.000000 93.359367 -5949.492188
v -1000.000000 15.146970 -8055.752930
v -1000.000000 93.359367 -8050.507813
v -1000.000000 172.359268 -8000.000000
v -1000.000000 172.359268 -6000.000000
v -728.108704 93.359367 -8014.712402
v -741.181091 172.359268 -7965.925781
v -728.108704 93.359367 -5985.287598
v -741.181091 172.359268 -6034.074219
v -726.751099 15.146970 -5980.221191
v -726.751099 15.146970 -8019.778809
v -726.751099 -47.640629 -8019.778809
v -795.063416 15.146970 -7764.833984
v -795.063416 -47.640629 -7764.833984
v -795.063416 15.146970 -6235.165527
v -726.751099 -47.640629 -5980.221680
v -795.063416 -47.640629 -6235.166016
v -757.357178 172.359268 -7905.555176
v -741.181091 176.359161 -7965.925781
v -757.357178 176.359161 -7905.555176
v -741.181091 176.359161 -6034.074219
v -757.357178 172.359268 -6094.444336
v -757.357178 176.359161 -6094.444336
v -604.092773 15.146970 -7685.731445
v -604.092773 -47.640629 -7685.731445
v -604.092712 15.146970 -6314.268555
v -604.092712 -47.640629 -6314.268555
v -531.250244 172.359268 -7811.898438
v -531.250244 176.359161 -7811.897949
v -531.250122 172.359268 -6188.101074
v -531.250122 176.359161 -6188.101074
v -500.000214 176.359161 -7866.024902
v -500.000214 172.359268 -7866.025391
v -500.000092 172.359268 -6133.974609
v -500.000092 176.359161 -6133.974609
v -474.746399 93.359367 -7909.766113
v -474.746277 93.359367 -6090.233398
v -472.123718 15.146970 -7914.308594
v -472.123596 15.146970 -6085.691406
v -472.123718 -47.640629 -7914.308594
v -472.123596 -47.640629 -6085.691406
v -337.087524 172.359268 -7662.912109
v -337.087524 176.359161 -7662.912109
v -337.087524 172.359268 -6337.087402
v -337.087524 176.359161 -6337.087402
v -292.893372 172.359268 -7707.106445
v -292.893372 176.359161 -7707.106445
v -292.893372 172.359268 -6292.893555
v -292.893372 176.359161 -6292.893555
v -257.179199 93.359367 -7742.820801
v -257.179016 93.359367 -6257.178711
v -253.470276 15.146970 -7746.529785
v -253.469971 15.146970 -6253.470215
v -188.101379 172.359268 -7468.750000
v -188.101379 176.359161 -7468.750000
v -188.101074 172.359268 -6531.250000
v -188.101379 176.359161 -6531.249512
v -208.185425 15.146970 -7000.000000
v -235.166077 15.146970 -7204.936523
v -208.185425 -47.640629 -7000.000000
v -235.166077 -47.640629 -7204.936523
v -235.165771 15.146970 -6795.062988
v -235.165771 -47.640629 -6795.062988
v -133.974915 172.359268 -7500.000000
v -133.974915 176.359161 -7500.000000
v -133.974670 172.359268 -6500.000000
v -133.974670 176.359161 -6499.999512
v -90.233887 93.359367 -7525.253418
v -90.233704 93.359367 -6474.746094
v -85.691528 15.146970 -7527.875977
v -85.691528 15.146970 -6472.123535
v -94.444893 172.359268 -7242.642578
v -94.444893 176.359161 -7242.642578
v -94.444580 172.359268 -6757.356934
v -94.444580 176.359161 -6757.356934
v 19.778811 15.146970 -7273.248535
v 19.778811 -47.640629 -7273.248535
v 19.778811 15.146970 -6726.750977
v 19.778811 -47.640629 -6726.750977
v -34.074520 172.359268 -7258.818848
v -34.074520 176.359161 -7258.818359
v -34.074280 176.359161 -6741.181152
v -34.074280 172.359268 -6741.180664
v -62.500118 172.359268 -7000.000000
v -62.500118 176.359161 -6999.999512
v 14.712100 93.359367 -7271.891113
v 14.712400 93.359367 -6728.108398
v -0.000120 172.359268 -7000.000000
v -0.000120 176.359161 -7000.000000
v 50.507809 93.359367 -7000.000000
v 55.752930 15.146970 -7000.000000
v 55.752930 -47.640629 -7000.000000
v -1999.999756 176.359268 -7000.000488
v -1937.499878 176.359268 -7000.000000
v -1662.912476 176.359161 -7662.912598
v -1500.000000 176.359161 -6133.974609
v -1499.999878 176.359161 -7866.025391
v -1258.818970 176.359161 -6034.074219
v -1242.642944 176.359161 -6094.444824
v -1258.818848 172.359268 -6034.074219
v -1000.000000 172.359268 -6000.000000
v -1242.642822 172.359268 -6094.443848
v -1000.000000 172.359268 -6062.500000
v -1000.000000 172.359268 -8000.000000
v -1258.818848 172.359268 -7965.925781
v -1000.000000 172.359268 -7937.500000
v -1242.642700 172.359268 -7905.555176
v -741.181030 172.359268 -7965.925781
v -757.357178 172.359268 -7905.555176
v -741.180908 172.359268 -6034.074219
v -757.357178 172.359268 -6094.443848
v -1937.499756 172.359268 -7000.000000
v -1905.555298 172.359268 -6757.357422
v -1874.999756 172.359268 -7000.000000
v -1845.185059 172.359268 -6773.533203
v -1905.555298 172.359268 -7242.642578
v -1845.184814 172.359268 -7226.466797
v -1811.898804 172.359268 -6531.250000
v -1757.772095 172.359268 -6562.500000
v -1811.898682 172.359268 -7468.750488
v -1757.771973 172.359268 -7437.500000
v -1724.444214 172.359268 -7194.114258
v -1749.999878 172.359268 -7000.000000
v -1724.444336 172.359268 -6805.885742
v -1649.518921 172.359268 -6625.000000
v -1649.518921 172.359268 -7375.000000
v -1662.912354 172.359268 -7662.912598
v -1618.718262 172.359268 -7618.718262
v -1662.912476 172.359268 -6337.087402
v -1618.718262 172.359268 -6381.281738
v -1530.330078 172.359268 -7530.330078
v -1530.330078 172.359268 -6469.669922
v -1468.749756 172.359268 -6188.101074
v -1437.499756 172.359268 -6242.227539
v -1468.749756 172.359268 -7811.898438
v -1437.499756 172.359268 -7757.771973
v -1374.999878 172.359268 -7649.519043
v -1374.999878 172.359268 -6350.480957
v -1226.466553 172.359268 -7845.185059
v -1226.466553 172.359268 -6154.814941
v -1194.114136 172.359268 -7724.444336
v -1194.114258 172.359268 -6275.555664
v -1000.000000 172.359268 -7875.000000
v -1000.000000 172.359268 -6125.000000
v -1000.000000 172.359268 -6250.000000
v -1000.000000 172.359268 -7750.000000
v -773.533386 172.359268 -6154.814941
v -805.885803 172.359268 -6275.555664
v -773.533325 172.359268 -7845.185059
v -805.885803 172.359268 -7724.444336
v -562.500122 172.359268 -7757.771973
v -625.000122 172.359268 -7649.519043
v -562.500122 172.359268 -6242.227539
v -625.000122 172.359268 -6350.481445
v -531.250122 172.359268 -6188.101074
v -531.250122 172.359268 -7811.898438
v -381.281677 172.359268 -7618.718262
v -469.669922 172.359268 -7530.330078
v -381.281677 172.359268 -6381.281738
v -469.669983 172.359268 -6469.669922
v -337.087585 172.359268 -7662.912109
v -337.087524 172.359268 -6337.087402
v -242.228027 172.359268 -7437.500000
v -350.481079 172.359268 -7375.000000
v -242.227905 172.359268 -6562.500000
v -350.481018 172.359268 -6624.999512
v -188.101379 172.359268 -7468.750000
v -188.101318 172.359268 -6531.250000
v -154.815186 172.359268 -7226.466797
v -275.555908 172.359268 -7194.114258
v -154.815002 172.359268 -6773.533203
v -275.555725 172.359268 -6805.885742
v -125.000122 172.359268 -7000.000000
v -250.000000 172.359268 -7000.000000
v -94.444893 172.359268 -7242.642578
v -94.444580 172.359268 -6757.356934
v -62.500118 172.359268 -6999.999512
v -500.000214 176.359161 -7866.024902
v -741.181091 176.359161 -7965.925781
v -531.250244 176.359161 -7811.897949
v -757.357178 176.359161 -7905.555176
v -741.181030 176.359161 -6034.074219
v -499.999908 176.359268 -6133.974609
v -757.357117 176.359161 -6094.444336
v -531.250122 176.359268 -6188.101074
v -292.893372 176.359161 -7707.106445
v -337.087524 176.359161 -7662.912109
v -292.893372 176.359161 -6292.893555
v -337.087524 176.359161 -6337.087402
v -133.974915 176.359161 -7500.000000
v -188.101379 176.359161 -7468.750000
v -133.974670 176.359161 -6499.999512
v -188.101379 176.359161 -6531.249512
v -34.074520 176.359161 -6741.181152
v -94.444893 176.359161 -6757.356934
v -34.074280 176.359161 -7258.818359
v -94.444580 176.359161 -7242.642578
v -0.000120 176.359161 -7000.000000
v -62.500118 176.359161 -6999.999512
v -1482.962891 172.359253 -7129.409180
v -1500.000000 172.359253 -7000.000000
v -1446.965820 172.359253 -7119.764160
v -1462.732910 172.359253 -7000.000000
v -1482.962891 172.359253 -6870.590820
v -1446.965820 172.359253 -6880.235840
v -1433.012695 172.359253 -7250.000000
v -1400.738159 172.359253 -7231.366211
v -1433.012695 172.359253 -6750.000000
v -1400.738525 172.359253 -6768.633789
v -1353.553223 172.359253 -7353.553223
v -1327.201416 172.359253 -7327.201660
v -1353.553223 172.359253 -6646.446777
v -1327.201416 172.359253 -6672.798340
v -1250.000000 172.359253 -7433.012695
v -1231.366333 172.359253 -7400.738281
v -1250.000000 172.359253 -6566.987305
v -1231.366333 172.359253 -6599.261719
v -1129.409424 172.359253 -7482.962891
v -1119.764038 172.359253 -7446.965820
v -1129.409546 172.359253 -6517.037109
v -1119.764038 172.359253 -6553.034180
v -1000.000488 172.359253 -7500.000000
v -1000.000488 172.359253 -7462.732910
v -1000.000305 172.359253 -6500.000000
v -1000.000488 172.359253 -6537.267090
v -940.000549 172.359253 -7103.921875
v -1000.000183 172.359253 -7120.000000
v -957.943359 172.359253 -7072.851563
v -1000.000000 172.359253 -7084.117188
v -1000.000183 172.359253 -6880.000000
v -940.000549 172.359253 -6896.078125
v -1000.000000 172.359253 -6915.882813
v -957.941406 172.359253 -6927.148438
v -870.591003 172.359253 -7482.962891
v -880.236450 172.359253 -7446.965820
v -870.591003 172.359253 -6517.037109
v -880.236450 172.359253 -6553.034180
v -896.074280 172.359253 -7060.000488
v -927.152283 172.359253 -7042.062500
v -896.074280 172.359253 -6939.999512
v -927.148376 172.359253 -6957.945313
v -880.000061 172.359253 -7000.000000
v -915.880859 172.359253 -7000.007813
v -750.000610 172.359253 -7433.012695
v -768.634155 172.359253 -7400.738281
v -750.000671 172.359253 -6566.987305
v -768.634094 172.359253 -6599.261719
v -646.447144 172.359253 -7353.553223
v -672.799072 172.359253 -7327.201660
v -646.447144 172.359253 -6646.446289
v -672.798950 172.359253 -6672.798340
v -566.987915 172.359253 -7250.000000
v -599.262207 172.359253 -7231.366211
v -566.987915 172.359253 -6750.000000
v -599.261963 172.359253 -6768.633789
v -517.037720 172.359253 -7129.409180
v -553.034912 172.359253 -7119.764160
v -517.037476 172.359253 -6870.590820
v -553.034668 172.359253 -6880.235840
v -500.000397 172.359253 -7000.000000
v -537.267456 172.359253 -7000.000000
v -1120.000000 172.359253 -7000.000000
v -1103.925659 172.359253 -6939.999512
v -1084.117188 172.359253 -6999.992188
v -1072.849609 172.359253 -6957.945313
v -1103.925659 172.359253 -7060.000488
v -1072.843628 172.359253 -7042.054688
v -1059.999634 172.359253 -6896.078125
v -1042.060425 172.359253 -6927.156250
v -1059.999634 172.359253 -7103.921875
v -1042.058594 172.359253 -7072.851563
v -1119.764038 172.359253 -7446.966309
v -1119.764038 172.359253 -6553.033691
v -880.236511 172.359253 -7446.966309
v -880.236511 172.359253 -6553.033691
v -1000.000000 172.359253 -7000.000000
# 644 vertices

vt 2.84830 8.38040
vt 0.00000 7.00010
vt 0.27250 9.07060
vt 2.66660 7.00010
vt 0.27250 4.92950
vt 2.84830 5.61970
vt 3.38110 9.66670
vt 1.07170 11.00000
vt 1.07170 3.00010
vt 3.38110 4.33340
vt 4.22870 10.77130
vt 2.34310 12.65690
vt 2.34310 1.34320
vt 4.22870 3.22880
vt 5.33330 11.61890
vt 3.99990 13.92830
vt 3.99990 0.07180
vt 5.33330 2.38120
vt 5.92940 -0.72740
vt 6.61960 1.84840
vt 6.61960 12.15170
vt 5.92940 14.72740
vt 7.99990 -1.00000
vt 7.99990 1.66670
vt 7.99990 12.33340
vt 7.99990 14.99990
vt 9.38030 12.15170
vt 10.07050 14.72740
vt 10.07050 -0.72730
vt 9.38030 1.84840
vt 11.99990 0.07180
vt 10.66660 2.38120
vt 10.66660 11.61890
vt 11.99990 13.92820
vt 13.65680 1.34320
vt 11.77120 3.22880
vt 11.77120 10.77130
vt 13.65680 12.65690
vt 12.61880 9.66670
vt 14.92820 11.00000
vt 14.92820 3.00010
vt 12.61880 4.33340
vt 13.15160 8.38040
vt 15.72740 9.07060
vt 15.72740 4.92950
vt 13.15160 5.61970
vt 13.33330 7.00010
vt 15.99990 7.00010
vt -0.99990 -0.46150
vt 0.00000 -0.61970
vt -0.99990 -0.61970
vt 0.00000 -0.46150
vt 0.00190 -0.86250
vt 0.99800 -0.99810
vt 0.99800 -0.86250
vt 0.00190 -0.99810
vt 0.99990 -0.46150
vt 1.99990 -0.61970
vt 0.99990 -0.61970
vt 1.99990 -0.46150
vt 0.00190 -0.45720
vt 0.99800 -0.61770
vt 0.00190 -0.61770
vt 0.99800 -0.45720
vt 0.99990 -0.46320
vt 1.99990 -0.62640
vt 0.99990 -0.62640
vt 1.99990 -0.46320
vt 0.00190 -0.86620
vt 0.99800 -0.86620
vt -0.99990 -0.45520
vt 0.00000 -0.62590
vt -0.99990 -0.62590
vt 0.00000 -0.45520
vt -0.49990 -0.46000
vt 0.49680 -0.63480
vt -0.49990 -0.63480
vt 0.49680 -0.46000
vt -0.49880 -0.45960
vt 0.49990 -0.63520
vt -0.49880 -0.63520
vt 0.49990 -0.45960
vt 0.00190 0.54020
vt 0.99800 0.38210
vt 0.00190 0.38210
vt 0.99800 0.54020
vt 0.99800 0.13780
vt 0.00190 -0.00620
vt 0.00190 0.13780
vt 0.99800 -0.00620
vt 0.00190 0.53860
vt 0.99800 0.37630
vt 0.00190 0.37630
vt 0.99800 0.53860
vt 0.00190 0.54210
vt 0.99800 0.38020
vt 0.00190 0.38020
vt 0.99800 0.54210
vt 0.00190 0.13400
vt 0.99800 -0.00240
vt 0.99800 0.13400
vt 0.00190 -0.00240
vt 0.00190 0.54110
vt 0.99800 0.37750
vt 0.00190 0.37750
vt 0.99800 0.54110
vt 0.99800 0.53970
vt 0.00190 0.37770
vt 0.99800 0.37770
vt 0.00190 0.53970
vt 0.00190 0.54340
vt 0.99800 0.37890
vt 0.00190 0.37890
vt 0.99800 0.54340
vt 0.99800 0.13330
vt 0.00190 -0.00170
vt 0.00190 0.13330
vt 0.99800 -0.00170
vt 1.09380 -0.03970
vt -0.37910 0.62740
vt -0.41600 -0.03970
vt 0.92290 0.45740
vt 0.92040 0.01300
vt -0.24920 0.80210
vt 0.92040 0.80210
vt -0.24920 0.01300
vt -0.18170 0.64240
vt 1.23780 -0.04390
vt -0.29280 -0.04390
vt 1.14840 0.45310
vt 1.03590 0.52950
vt 0.04310 0.00190
vt 1.03590 0.00190
vt 0.04310 0.52950
vt 0.25460 -0.54580
vt -0.21230 -0.12750
vt 0.25460 -0.12750
vt -0.21230 -0.54580
vt 0.75170 -0.28880
vt 0.75170 -0.12750
vt 1.00320 -0.12750
vt 1.26810 -1.12980
vt 0.99350 -1.12980
vt 0.99350 -1.29110
vt 0.45090 -1.12980
vt 0.45090 -1.54810
vt -0.05890 -1.12980
vt -0.05890 -1.54810
vt 0.99800 0.62490
vt 0.00190 0.00190
vt 0.00190 0.62490
vt 0.99800 0.00190
vt 6.25460 -0.28090
vt 6.50400 -0.03970
vt 6.25460 -0.03970
vt 6.50400 -0.28090
vt 6.75340 -0.03970
vt 6.75340 -0.28090
vt 6.00520 -0.28090
vt 6.00520 -0.03970
vt 7.00280 -0.03970
vt 7.00280 -0.28090
vt 5.75580 -0.28090
vt 5.75580 -0.03970
vt 7.25230 -0.03970
vt 7.25230 -0.28090
vt 5.50640 -0.28090
vt 5.50640 -0.03970
vt 7.50170 -0.03970
vt 7.50170 -0.28090
vt 7.75110 -0.03970
vt 7.75110 -0.28090
vt 5.25700 -0.28090
vt 5.25700 -0.03970
vt 5.00760 -0.28090
vt 5.00760 -0.03970
vt 8.00050 -0.03970
vt 8.00050 -0.28090
vt 10.74390 -0.28090
vt 10.99330 -0.03970
vt 10.74390 -0.03970
vt 10.99330 -0.28090
vt 8.24990 -0.03970
vt 8.24990 -0.28090
vt 10.49450 -0.28090
vt 10.49450 -0.03970
vt 8.49930 -0.03970
vt 8.49930 -0.28090
vt 10.24510 -0.28090
vt 10.24510 -0.03970
vt 8.74870 -0.03970
vt 8.74870 -0.28090
vt 9.99570 -0.28090
vt 9.99570 -0.03970
vt 8.99810 -0.03970
vt 8.99810 -0.28090
vt 9.74630 -0.28090
vt 9.74630 -0.03970
vt 9.24750 -0.03970
vt 9.24750 -0.28090
vt 9.49690 -0.28090
vt 9.49690 -0.03970
vt -0.37340 -0.00200
vt -1.24690 -0.99810
vt -1.24690 -0.00200
vt -0.37340 -0.99810
vt 1.02710 -0.99810
vt 1.02710 -0.00200
vt 1.69130 -0.00200
vt 1.69130 -0.99810
vt 2.24690 -0.00200
vt 2.24690 -0.99810
vt 0.99800 -0.00200
vt 0.01070 -0.99810
vt 0.01070 -0.00200
vt -1.74250 -0.00200
vt -1.74250 -0.99810
vt -4.74360 -0.99810
vt -4.74360 -0.00200
vt -1.49820 -1.00200
vt -3.24960 -1.99810
vt -3.24960 -1.00200
vt -1.49820 -1.99810
vt -0.00300 -1.99810
vt -0.00300 -1.00200
vt 0.99800 -1.00200
vt 0.99800 -1.99810
vt 2.99000 -1.99810
vt 3.74170 -1.00200
vt 3.74170 -1.99810
vt 2.99000 -1.00200
vt 2.24300 -1.99810
vt 2.24300 -1.00200
vt 0.00190 -1.99810
vt 0.00190 -1.00200
vt 0.46650 -0.00010
vt 0.10880 -0.38870
vt 0.46650 -0.38870
vt 0.10880 -0.23890
vt 1.17650 -0.38870
vt 1.17650 -0.00010
vt -0.07210 -0.38870
vt 0.44310 -0.99450
vt 1.18800 -1.37840
vt 0.44310 -1.37840
vt 1.18800 -0.99450
vt 0.06780 -1.37840
vt 0.06780 -1.23040
vt -0.12190 -1.37840
vt 0.91600 -0.00200
vt 0.50000 -0.99810
vt 0.91600 -0.99810
vt 0.50000 -0.00200
vt 0.08390 -0.99810
vt 0.08390 -0.00200
vt 1.33210 -0.00200
vt 1.33210 -0.99810
vt -0.33210 -0.99810
vt -0.33210 -0.00200
vt 1.74820 -0.00200
vt 1.74820 -0.99810
vt -0.74820 -0.99810
vt -0.74820 -0.00200
vt -1.16420 -0.99810
vt -1.16420 -0.00200
vt 2.16420 -0.00200
vt 2.16420 -0.99810
vt -1.58030 -0.99810
vt -1.58030 -0.00200
vt 2.58030 -0.00200
vt 2.58030 -0.99810
vt 2.99640 -0.00200
vt 2.99640 -0.99810
vt -1.99640 -0.99810
vt -1.99640 -0.00200
vt 0.99480 -0.99810
vt 1.55910 -0.66610
vt 0.99480 -0.66610
vt 1.55910 -0.99810
vt 0.43050 -0.66610
vt 0.43050 -0.99810
vt 1.55910 -0.33400
vt 0.99480 -0.33400
vt 0.43050 -0.33400
vt 1.55910 -0.00200
vt 0.99480 -0.00200
vt 0.43050 -0.00200
vt 0.50000 -0.31150
vt 0.99770 -0.25170
vt 0.99770 -0.31150
vt 0.50000 -0.25170
vt 0.00220 -0.31150
vt 0.00220 -0.25170
vt 0.75130 -0.33370
vt 1.25400 -0.63120
vt 0.75130 -0.63120
vt 1.25400 -0.33370
vt -0.25530 -0.63120
vt 0.24820 -0.33370
vt 0.24820 -0.63120
vt -0.25530 -0.33370
vt 0.75130 -0.00200
vt 1.25400 -0.00200
vt -0.25530 -0.00200
vt 0.24820 -0.00200
vt 0.50000 -0.25130
vt 1.09960 -0.31200
vt 0.50000 -0.31200
vt 1.09960 -0.25130
vt -0.09960 -0.25130
vt -0.09960 -0.31200
vt -0.49550 -0.25170
vt -0.49550 -0.31150
vt 1.49550 -0.25170
vt 1.49550 -0.31150
vt -0.43420 -0.99810
vt 0.12630 -0.68170
vt -0.43420 -0.68170
vt 0.12630 -0.99810
vt 0.87360 -0.68170
vt 1.43420 -0.99810
vt 1.43420 -0.68170
vt 0.87360 -0.99810
vt -0.69920 -0.25130
vt -0.69920 -0.31200
vt 1.69920 -0.31200
vt 1.69920 -0.25130
vt 0.75170 -0.63120
vt 0.75170 -0.33370
vt 0.24860 -0.33370
vt 0.24860 -0.63120
vt 0.24860 -0.00200
vt 0.75170 -0.00200
vt 1.99330 -0.31150
vt 1.99330 -0.25170
vt -0.99330 -0.25170
vt -0.99330 -0.31150
vt 0.49990 -0.68170
vt 0.49990 -0.99810
vt -1.29880 -0.25130
vt -1.29880 -0.31200
vt 2.29880 -0.31200
vt 2.29880 -0.25130
vt 1.25530 -0.63120
vt 1.25530 -0.33370
vt -0.25400 -0.63120
vt -0.25400 -0.33370
vt -0.25400 -0.00200
vt 1.25530 -0.00200
vt -1.49110 -0.25170
vt -1.49110 -0.31150
vt 2.49110 -0.31150
vt 2.49110 -0.25170
vt -1.89840 -0.25130
vt -1.89840 -0.31200
vt 2.89840 -0.31200
vt 2.89840 -0.25130
vt -0.30900 -0.99810
vt 0.28140 -0.68790
vt -0.30900 -0.68790
vt 0.28140 -0.99810
vt 0.71810 -0.66920
vt 1.29950 -0.99810
vt 1.29950 -0.66920
vt 0.71810 -0.99810
vt 0.75400 -0.99810
vt 0.24590 -0.66610
vt 0.75400 -0.66610
vt 0.24590 -0.99810
vt 0.24730 -0.99810
vt 0.75260 -0.66610
vt 0.24730 -0.66610
vt 0.75260 -0.99810
vt 0.24590 -0.33400
vt 0.75400 -0.33400
vt 0.75260 -0.33400
vt 0.24730 -0.33400
vt 0.24590 -0.00200
vt 0.75400 -0.00200
vt 0.24730 -0.00200
vt 0.75260 -0.00200
vt 2.98880 -0.31150
vt 2.98880 -0.25170
vt -1.98880 -0.31150
vt -1.98880 -0.25170
vt 3.49800 -0.31200
vt 3.49800 -0.25130
vt -2.49800 -0.25130
vt -2.49800 -0.31200
vt 0.28180 -0.99810
vt 0.28180 -0.66920
vt 0.71850 -0.68790
vt 0.71850 -0.99810
vt -2.48660 -0.31150
vt -2.48660 -0.25170
vt 3.48660 -0.31150
vt 3.48660 -0.25170
vt -0.29950 -0.99810
vt -0.29950 -0.66920
vt 1.30900 -0.99810
vt 1.30900 -0.68790
vt -0.06780 -0.63120
vt 0.49990 -0.33370
vt 0.49990 -0.63120
vt -0.06780 -0.33370
vt 1.06660 -0.63120
vt 1.06660 -0.33370
vt 1.06660 -0.00200
vt 0.49990 -0.00200
vt -0.06780 -0.00200
vt -0.06660 -0.00200
vt -0.06660 -0.33370
vt 1.06780 -0.00200
vt 1.06780 -0.33370
vt 1.06780 -0.63120
vt -0.06660 -0.63120
vt 0.70990 -0.66920
vt 1.28830 -0.99810
vt 1.28830 -0.66920
vt 0.70990 -0.99810
vt -0.32660 -0.99810
vt 0.22440 -0.68790
vt -0.32660 -0.68790
vt 0.22440 -0.99810
vt 2.99330 -0.24800
vt 3.49190 -0.31180
vt 2.99330 -0.31180
vt 3.49190 -0.24800
vt -2.49190 -0.31180
vt -1.99330 -0.24800
vt -1.99330 -0.31180
vt -2.49190 -0.24800
vt 0.29000 -0.99810
vt 0.29000 -0.66920
vt 0.77550 -0.68790
vt 0.77550 -0.99810
vt -2.49400 -0.24890
vt -1.89520 -0.31180
vt -2.49400 -0.31180
vt -1.89520 -0.24890
vt 2.89520 -0.24890
vt 3.49400 -0.31180
vt 2.89520 -0.31180
vt 3.49400 -0.24890
vt 2.49460 -0.24800
vt 2.49460 -0.31180
vt -1.49460 -0.24800
vt -1.49460 -0.31180
vt 0.75000 -0.00200
vt 0.24990 -0.33400
vt 0.75000 -0.33400
vt 0.24990 -0.00200
vt 0.24160 -0.33400
vt 0.75830 -0.00200
vt 0.75830 -0.33400
vt 0.24160 -0.00200
vt 0.24990 -0.66610
vt 0.75000 -0.66610
vt 0.75830 -0.66610
vt 0.24160 -0.66610
vt 0.24990 -0.99810
vt 0.75000 -0.99810
vt 0.75830 -0.99810
vt 0.24160 -0.99810
vt -0.28830 -0.99810
vt -0.28830 -0.66920
vt 1.32660 -0.99810
vt 1.32660 -0.68790
vt -1.29640 -0.31180
vt -1.29640 -0.24890
vt 2.29640 -0.24890
vt 2.29640 -0.31180
vt 1.99590 -0.24800
vt 1.99590 -0.31180
vt -0.99590 -0.31180
vt -0.99590 -0.24800
vt 0.74860 -0.00200
vt 1.24590 -0.33370
vt 0.74860 -0.33370
vt 1.24590 -0.00200
vt 1.24590 -0.63120
vt 0.74860 -0.63120
vt -0.69760 -0.31180
vt -0.69760 -0.24890
vt 1.69760 -0.24890
vt 1.69760 -0.31180
vt 1.06550 -0.60060
vt 0.49990 -0.60060
vt 1.06550 -0.99810
vt -0.06550 -0.99810
vt -0.06550 -0.60060
vt 1.49730 -0.24800
vt 1.49730 -0.31180
vt -0.49730 -0.31180
vt -0.49730 -0.24800
vt 0.25130 -0.00200
vt 0.25130 -0.33370
vt 0.25130 -0.63120
vt -0.09880 -0.31180
vt -0.09880 -0.24890
vt 1.09880 -0.24890
vt 1.09880 -0.31180
vt 1.86030 -0.99810
vt 1.86030 -0.60060
vt -0.86030 -0.99810
vt -0.86030 -0.60060
vt 0.99860 -0.31180
vt 0.99860 -0.24800
vt 0.00130 -0.31180
vt 0.00130 -0.24800
vt 0.50000 -0.31180
vt 0.50000 -0.24890
vt -0.24590 -0.00200
vt -0.24590 -0.33370
vt -0.24590 -0.63120
vt 0.50000 -0.24800
vt 0.49990 -0.31180
vt -0.00760 -0.00200
vt -0.56270 -0.33400
vt -0.00760 -0.33400
vt -0.56270 -0.00200
vt 0.54750 -0.00200
vt 0.54750 -0.33400
vt -0.00760 -0.66610
vt -0.56270 -0.66610
vt 0.54750 -0.66610
vt -0.00760 -0.99810
vt -0.56270 -0.99810
vt 0.54750 -0.99810
vt 0.00190 -0.50000
vt 0.18460 0.00040
vt 0.18460 -0.50000
vt 0.00190 0.00040
vt 0.00190 -1.00040
vt 0.18460 -1.00040
vt 0.00190 -1.50080
vt 0.18460 -1.50080
vt 0.18460 0.50080
vt 0.00190 0.50080
vt 0.18460 1.00130
vt 0.00190 1.00130
vt 0.00190 -2.00130
vt 0.18460 -2.00130
vt 0.18460 1.50170
vt 0.00190 1.50170
vt 0.00190 -2.50170
vt 0.18460 -2.50170
vt 0.18460 2.00210
vt 0.00190 2.00210
vt 0.00190 -3.00210
vt 0.18460 -3.00210
vt -0.99880 -0.99810
vt -0.99880 -0.00200
vt 2.00130 -0.00200
vt 2.00130 -0.99810
vt -1.00130 -0.99810
vt -1.00130 -0.00200
vt 1.99880 -0.00200
vt 1.99880 -0.99810
vt 1.20900 -0.62520
vt 1.91810 -0.89370
vt 1.20900 -0.89370
vt 1.91810 -0.62520
vt 0.49990 -0.62520
vt 0.49990 -0.89370
vt 2.62720 -0.89370
vt 2.62720 -0.62520
vt -0.20900 -0.62520
vt -0.20900 -0.89370
vt 0.49990 -0.00010
vt 1.20900 -0.00010
vt 1.91810 -0.00010
vt 2.62720 -0.00010
vt -0.20900 -0.00010
vt -0.91810 -0.62520
vt -0.91810 -0.89370
vt 3.33620 -0.89370
vt 3.33620 -0.62520
vt -0.91810 -0.00010
vt 3.33620 -0.00010
vt 4.04530 -0.89370
vt 4.04530 -0.62520
vt -1.62720 -0.62520
vt -1.62720 -0.89370
vt -1.62720 -0.00010
vt 4.04530 -0.00010
vt -2.33620 -0.62520
vt -2.33620 -0.89370
vt 4.75440 -0.89370
vt 4.75440 -0.62520
vt -2.33620 -0.00010
vt 4.75440 -0.00010
vt -3.04530 -0.62520
vt -3.04530 -0.89370
vt -3.04530 -0.00010
vt -3.75440 -0.00010
vt -3.75440 -0.62520
vt -3.75440 -0.89370
vt 0.00190 1.49910
vt 0.18350 1.99890
vt 0.18350 1.49910
vt 0.00190 1.99890
vt 0.00190 -2.99890
vt 0.18350 -2.49910
vt 0.18350 -2.99890
vt 0.00190 -2.49910
vt 0.00190 0.99930
vt 0.18350 0.99930
vt 0.18350 -1.99930
vt 0.00190 -1.99930
vt 0.00190 0.49950
vt 0.18350 0.49950
vt 0.18350 -1.49950
vt 0.00190 -1.49950
vt 0.18350 -0.99980
vt 0.00190 -0.99980
vt 0.00190 -0.00030
vt 0.18350 -0.00030
vt 0.18350 -0.50010
vt 0.00190 -0.50010
vt -0.33200 5.51340
vt 0.50000 5.99800
vt -0.33200 5.99800
vt 0.50000 5.51340
vt 1.33200 5.99800
vt 1.33200 5.51340
vt -1.16400 5.51340
vt -1.16400 5.99800
vt 2.16400 5.99800
vt 2.16400 5.51340
vt -1.99600 5.51340
vt -1.99600 5.99800
vt 2.99600 5.99800
vt 2.99600 5.51340
vt -2.82800 5.51340
vt -2.82800 5.99800
vt 3.82800 5.99800
vt 3.82800 5.51340
vt -3.66010 5.51340
vt -3.66010 5.99800
vt 4.66010 5.99800
vt 4.66010 5.51340
vt -4.49210 5.51340
vt -4.49210 5.99800
vt 5.49210 5.99800
vt 5.49210 5.51340
vt 1.16650 5.99800
vt 1.49980 5.74990
vt 1.16650 5.74990
vt 1.49980 5.99800
vt -0.49980 5.99800
vt -0.16650 5.74990
vt -0.49980 5.74990
vt -0.16650 5.99800
vt 0.83320 5.99800
vt 0.83320 5.74990
vt 0.16670 5.74990
vt 0.16670 5.99800
vt 0.49990 5.99800
vt 0.49990 5.74990
vt 1.09750 1.00060
vt 1.16230 1.49280
vt 2.50580 1.00060
vt 1.16230 0.50850
vt 1.35220 1.95140
vt 2.57190 1.24720
vt 2.57190 0.75410
vt 1.35220 0.04990
vt 1.65440 -0.34380
vt 1.65440 2.34510
vt 2.04820 2.64730
vt 2.75240 1.42770
vt 2.04820 -0.64600
vt 2.75240 0.57360
vt 2.50680 2.83730
vt 2.50680 -0.83600
vt 2.99890 1.49370
vt 2.99890 0.50760
vt 2.99890 2.90210
vt 2.99890 -0.90080
vt 3.49100 2.83730
vt 3.49100 -0.83600
vt 3.24540 1.42770
vt 3.24540 0.57360
vt 3.94960 2.64730
vt 3.94960 -0.64600
vt 4.34340 2.34510
vt 3.42590 1.24720
vt 4.34340 -0.34380
vt 3.42590 0.75410
vt 3.49200 1.00060
vt 4.83550 1.49280
vt 4.83550 0.50850
vt 4.64560 1.95140
vt 4.64560 0.04990
vt 4.90030 1.00060
vt 0.49990 5.49990
vt 0.72410 5.11170
vt 0.50000 5.05170
vt 0.27580 5.11170
vt 0.88820 5.27580
vt 0.11170 5.27580
vt 0.94820 5.49990
vt 0.05170 5.49990
vt 0.11170 5.72410
vt 0.88820 5.72410
vt 0.27580 5.88820
vt 0.72410 5.88820
vt 0.49990 5.94820
# 709 texture vertices

g Object_2
usemtl texture0
f 1/3 2/2 3/1
f 2/2 4/4 3/1
f 2/2 5/5 4/4
f 5/5 6/6 4/4
f 7/8 1/3 8/7
f 1/3 3/1 8/7
f 5/5 9/9 6/6
f 9/9 10/10 6/6
f 11/12 7/8 12/11
f 7/8 8/7 12/11
f 9/9 13/13 10/10
f 13/13 14/14 10/10
f 15/16 11/12 16/15
f 11/12 12/11 16/15
f 13/13 17/17 14/14
f 17/17 18/18 14/14
f 17/17 19/19 18/18
f 19/19 20/20 18/18
f 21/22 15/16 22/21
f 15/16 16/15 22/21
f 19/19 23/23 20/20
f 23/23 24/24 20/20
f 25/26 21/22 26/25
f 21/22 22/21 26/25
f 27/28 25/26 28/27
f 25/26 26/25 28/27
f 23/23 29/29 24/24
f 29/29 30/30 24/24
f 29/29 31/31 30/30
f 31/31 32/32 30/30
f 33/34 27/28 34/33
f 27/28 28/27 34/33
f 31/31 35/35 32/32
f 35/35 36/36 32/32
f 37/38 33/34 38/37
f 33/34 34/33 38/37
f 39/40 37/38 40/39
f 37/38 38/37 40/39
f 35/35 41/41 36/36
f 41/41 42/42 36/36
f 43/44 39/40 44/43
f 39/40 40/39 44/43
f 41/41 45/45 42/42
f 45/45 46/46 42/42
f 47/48 43/44 48/47
f 43/44 44/43 48/47
f 45/45 47/48 46/46
f 47/48 48/47 46/46
g obj1
usemtl mat1
f 49/51 50/50 51/49
f 50/50 52/52 51/49
f 52/55 53/54 51/53
f 53/54 54/56 51/53
f 55/59 56/58 53/57
f 56/58 54/60 53/57
f 57/53 58/56 59/55
f 58/56 60/54 59/55
f 61/63 62/62 58/61
f 62/62 60/64 58/61
f 63/63 64/62 65/61
f 64/62 66/64 65/61
f 67/63 68/62 69/61
f 68/62 70/64 69/61
f 70/53 65/56 69/55
f 65/56 66/54 69/55
f 71/67 72/66 73/65
f 72/66 74/68 73/65
f 75/70 73/54 76/69
f 73/54 74/56 76/69
f 77/73 78/72 76/71
f 78/72 75/74 76/71
f 79/77 80/76 81/75
f 80/76 82/78 81/75
f 83/70 81/54 84/69
f 81/54 82/56 84/69
f 85/81 86/80 84/79
f 86/80 83/82 84/79
f 87/85 88/84 89/83
f 88/84 90/86 89/83
f 90/89 91/88 89/87
f 91/88 92/90 89/87
f 93/93 94/92 91/91
f 94/92 92/94 91/91
usemtl texture1
f 95/63 96/62 59/61
f 96/62 57/64 59/61
f 97/97 98/96 99/95
f 98/96 100/98 99/95
f 101/101 99/100 102/99
f 99/100 100/102 102/99
f 103/105 104/104 102/103
f 104/104 101/106 102/103
f 105/109 106/108 107/107
f 106/108 108/110 107/107
f 109/113 110/112 111/111
f 110/112 112/114 111/111
f 108/117 111/116 107/115
f 111/116 112/118 107/115
usemtl texture2
f 113/121 114/120 115/119
f 114/120 116/122 115/119
f 116/125 114/124 117/123
f 114/124 118/126 117/123
f 119/121 120/119 118/120
f 120/119 117/122 118/120
f 121/129 122/128 123/127
f 122/128 124/130 123/127
f 125/133 126/132 124/131
f 126/132 123/134 124/131
f 127/129 126/127 128/128
f 126/127 125/130 128/128
f 129/137 130/136 131/135
f 131/135 130/136 132/138
f 133/138 134/136 135/135
f 134/136 136/137 135/135
f 131/135 137/139 129/137
f 137/139 138/140 129/137
f 135/135 136/137 139/139
f 136/137 140/140 139/139
f 138/140 137/139 141/141
f 139/139 140/140 142/141
f 143/144 144/143 145/142
f 146/143 147/144 148/142
f 149/146 150/145 143/144
f 150/145 144/143 143/144
f 151/146 147/144 152/145
f 147/144 146/143 152/145
f 153/148 154/147 149/146
f 154/147 150/145 149/146
f 152/145 155/147 151/146
f 151/146 155/147 156/148
usemtl texture3
f 115/151 116/150 120/149
f 116/150 117/152 120/149
f 128/149 125/152 122/151
f 125/152 124/150 122/151
usemtl texture4
f 157/155 158/154 159/153
f 158/154 160/156 159/153
f 158/154 161/157 160/156
f 161/157 162/158 160/156
f 163/160 157/155 164/159
f 157/155 159/153 164/159
f 161/157 165/161 162/158
f 165/161 166/162 162/158
f 167/164 163/160 168/163
f 163/160 164/159 168/163
f 165/161 169/165 166/162
f 169/165 170/166 166/162
f 171/168 167/164 172/167
f 167/164 168/163 172/167
f 169/165 173/169 170/166
f 173/169 174/170 170/166
f 173/169 175/171 174/170
f 175/171 176/172 174/170
f 177/174 171/168 178/173
f 171/168 172/167 178/173
f 179/176 177/174 180/175
f 177/174 178/173 180/175
f 175/171 181/177 176/172
f 181/177 182/178 176/172
f 183/181 179/180 184/179
f 179/180 180/182 184/179
f 181/177 185/183 182/178
f 185/183 186/184 182/178
f 187/186 183/181 188/185
f 183/181 184/179 188/185
f 185/183 189/187 186/184
f 189/187 190/188 186/184
f 191/190 187/186 192/189
f 187/186 188/185 192/189
f 189/187 193/191 190/188
f 193/191 194/192 190/188
f 195/194 191/190 196/193
f 191/190 192/189 196/193
f 193/191 197/195 194/192
f 197/195 198/196 194/192
f 199/198 195/194 200/197
f 195/194 196/193 200/197
f 197/195 201/199 198/196
f 201/199 202/200 198/196
f 203/202 199/198 204/201
f 199/198 200/197 204/201
f 201/199 203/202 202/200
f 203/202 204/201 202/200
usemtl texture5
f 132/205 133/204 131/203
f 133/204 135/206 131/203
f 135/206 139/207 131/203
f 139/207 137/208 131/203
f 137/208 139/207 141/209
f 139/207 142/210 141/209
f 140/212 138/211 142/210
f 138/211 141/209 142/210
f 205/215 206/214 207/213
f 206/214 208/54 207/213
f 209/217 206/214 210/216
f 206/214 205/215 210/216
f 211/219 212/218 210/216
f 212/218 209/217 210/216
f 213/222 214/221 215/220
f 214/221 216/223 215/220
f 216/223 217/224 215/220
f 217/224 218/225 215/220
f 218/225 217/224 219/226
f 217/224 220/227 219/226
f 144/230 146/229 145/228
f 146/229 148/231 145/228
f 147/233 143/232 148/231
f 143/232 145/228 148/231
f 149/227 143/232 151/226
f 143/232 147/233 151/226
f 156/235 153/234 151/226
f 153/234 149/227 151/226
usemtl texture6
f 221/238 222/237 209/236
f 209/236 222/237 206/239
f 223/238 210/236 224/237
f 210/236 205/239 224/237
f 212/241 225/240 209/236
f 225/240 221/238 209/236
f 223/238 226/240 210/236
f 210/236 226/240 211/241
f 206/239 222/237 208/242
f 224/237 205/239 207/242
f 227/245 228/244 215/243
f 215/243 228/244 213/246
f 214/246 229/244 216/243
f 229/244 230/245 216/243
f 227/245 215/243 231/247
f 215/243 218/248 231/247
f 230/245 232/247 216/243
f 216/243 232/247 217/248
f 231/247 218/248 219/249
f 217/248 232/247 220/249
usemtl texture7
f 233/252 234/251 235/250
f 236/253 235/250 234/251
f 234/251 237/254 236/253
f 238/255 236/253 237/254
f 239/257 233/252 240/256
f 235/250 240/256 233/252
f 237/254 241/258 238/255
f 242/259 238/255 241/258
f 243/261 239/257 244/260
f 240/256 244/260 239/257
f 241/258 245/262 242/259
f 246/263 242/259 245/262
f 245/262 247/264 246/263
f 248/265 246/263 247/264
f 249/267 243/261 250/266
f 244/260 250/266 243/261
f 247/264 251/268 248/265
f 252/269 248/265 251/268
f 253/271 249/267 254/270
f 250/266 254/270 249/267
f 255/273 253/271 256/272
f 254/270 256/272 253/271
f 251/268 257/274 252/269
f 258/275 252/269 257/274
f 259/268 255/274 260/269
f 256/275 260/269 255/274
f 257/273 261/271 258/272
f 262/270 258/272 261/271
f 263/264 259/268 264/265
f 260/269 264/265 259/268
f 261/271 265/267 262/270
f 266/266 262/270 265/267
f 267/262 263/264 268/263
f 264/265 268/263 263/264
f 265/267 269/261 266/266
f 270/260 266/266 269/261
f 271/258 267/262 272/259
f 268/263 272/259 267/262
f 269/261 273/257 270/260
f 274/256 270/260 273/257
f 275/254 271/258 276/255
f 272/259 276/255 271/258
f 273/257 277/252 274/256
f 278/250 274/256 277/252
f 279/251 275/254 280/253
f 276/255 280/253 275/254
f 277/252 279/251 278/250
f 280/253 278/250 279/251
usemtl texture8
f 281/278 282/277 283/276
f 282/277 284/279 283/276
f 281/278 283/276 285/280
f 285/280 283/276 286/281
f 282/277 281/278 287/282
f 281/278 288/283 287/282
f 285/280 289/284 281/278
f 281/278 289/284 288/283
f 287/282 288/283 290/285
f 288/283 291/286 290/285
f 288/283 289/284 291/286
f 289/284 292/287 291/286
f 292/290 293/289 291/288
f 291/288 293/289 294/291
f 291/288 294/291 290/292
f 290/292 294/291 295/293
f 296/296 282/295 297/294
f 282/295 287/297 297/294
f 298/300 299/299 285/298
f 285/298 299/299 289/301
f 297/294 287/297 300/302
f 287/297 290/303 300/302
f 289/301 299/299 292/304
f 299/299 301/305 292/304
f 302/308 303/307 304/306
f 303/307 305/309 304/306
f 306/311 302/308 307/310
f 302/308 304/306 307/310
f 300/313 290/292 308/312
f 290/292 295/293 308/312
f 301/315 309/314 292/290
f 292/290 309/314 293/289
f 282/318 310/317 284/316
f 310/317 311/319 284/316
f 285/322 286/321 312/320
f 312/320 286/321 313/323
f 314/325 306/311 315/324
f 306/311 307/310 315/324
f 303/307 316/326 305/309
f 316/326 317/327 305/309
f 298/300 318/328 299/299
f 318/328 319/329 299/299
f 320/331 296/296 321/330
f 296/296 297/294 321/330
f 321/330 297/294 322/332
f 297/294 300/302 322/332
f 299/299 319/329 301/305
f 319/329 323/333 301/305
f 301/315 323/334 309/314
f 323/334 324/335 309/314
f 322/337 300/313 325/336
f 300/313 308/312 325/336
f 310/317 326/338 311/319
f 326/338 327/339 311/319
f 326/338 312/320 327/339
f 312/320 313/323 327/339
f 328/341 314/325 329/340
f 314/325 315/324 329/340
f 316/326 330/342 317/327
f 330/342 331/343 317/327
f 318/328 332/344 319/329
f 332/344 333/345 319/329
f 320/331 321/330 334/346
f 334/346 321/330 335/347
f 335/347 321/330 336/348
f 321/330 322/332 336/348
f 319/329 333/345 323/333
f 333/345 337/349 323/333
f 336/351 322/337 338/350
f 322/337 325/336 338/350
f 323/334 337/352 324/335
f 337/352 339/353 324/335
f 340/355 328/341 341/354
f 328/341 329/340 341/354
f 330/342 342/356 331/343
f 342/356 343/357 331/343
f 332/360 344/359 345/358
f 344/359 346/361 345/358
f 334/364 347/363 348/362
f 348/362 347/363 349/365
f 350/368 332/367 351/366
f 332/367 345/369 351/366
f 334/372 352/371 347/370
f 352/371 353/373 347/370
f 332/367 350/368 333/374
f 350/368 354/375 333/374
f 352/371 334/372 355/376
f 334/372 335/377 355/376
f 333/374 354/375 337/378
f 354/375 356/379 337/378
f 335/377 336/380 355/376
f 355/376 336/380 357/381
f 337/352 356/382 339/353
f 356/382 358/383 339/353
f 336/351 338/350 357/384
f 357/384 338/350 359/385
f 342/356 360/386 343/357
f 360/386 361/387 343/357
f 362/389 340/355 363/388
f 340/355 341/354 363/388
f 364/391 348/362 365/390
f 348/362 349/365 365/390
f 344/359 366/392 346/361
f 366/392 367/393 346/361
f 357/384 359/385 360/394
f 360/394 359/385 361/395
f 356/382 362/396 358/383
f 362/396 363/397 358/383
f 352/399 364/391 353/398
f 364/391 365/390 353/398
f 350/401 351/400 366/392
f 366/392 351/400 367/393
f 368/404 369/403 350/402
f 350/402 369/403 354/405
f 370/404 352/406 371/403
f 352/406 355/407 371/403
f 355/407 357/408 371/403
f 371/403 357/408 372/409
f 354/405 369/403 356/410
f 369/403 373/409 356/410
f 374/412 371/403 375/411
f 371/403 372/409 375/411
f 376/414 377/413 369/403
f 369/403 377/413 373/409
f 368/404 378/415 369/403
f 378/415 376/414 369/403
f 370/404 371/403 379/416
f 379/416 371/403 374/412
f 379/419 380/418 381/417
f 381/417 380/418 382/420
f 378/423 383/422 384/421
f 383/422 385/424 384/421
f 375/427 386/426 387/425
f 386/426 388/428 387/425
f 377/431 389/430 390/429
f 390/429 389/430 391/432
f 392/434 381/417 393/433
f 381/417 382/420 393/433
f 383/422 394/435 385/424
f 394/435 395/436 385/424
f 386/439 396/438 388/437
f 396/438 397/440 388/437
f 398/443 390/442 399/441
f 390/442 391/444 399/441
f 387/425 400/445 375/427
f 401/446 375/427 400/445
f 402/448 403/447 377/431
f 377/431 403/447 389/430
f 404/451 374/450 401/449
f 374/450 375/452 401/449
f 405/455 402/454 376/453
f 376/453 402/454 377/456
f 406/458 379/457 404/451
f 379/457 374/450 404/451
f 378/460 407/459 376/453
f 407/459 405/455 376/453
f 379/457 406/458 380/461
f 406/458 408/462 380/461
f 407/459 378/460 409/463
f 378/460 384/464 409/463
f 406/466 392/434 408/465
f 392/434 393/433 408/465
f 407/468 409/467 394/435
f 394/435 409/467 395/436
f 396/438 410/469 397/440
f 410/469 411/470 397/440
f 412/472 398/443 413/471
f 398/443 399/441 413/471
f 414/474 401/446 415/473
f 401/446 400/445 415/473
f 402/448 416/475 403/447
f 416/475 417/476 403/447
f 418/479 404/478 414/477
f 404/478 401/480 414/477
f 405/347 419/330 402/348
f 419/330 416/332 402/348
f 420/482 406/481 418/479
f 406/481 404/478 418/479
f 421/331 419/330 407/346
f 407/346 419/330 405/347
f 410/469 422/483 411/470
f 422/483 423/484 411/470
f 424/486 412/472 425/485
f 412/472 413/471 425/485
f 426/488 427/487 428/339
f 427/487 429/489 428/339
f 430/491 426/488 431/490
f 426/488 428/339 431/490
f 432/493 414/474 433/492
f 414/474 415/473 433/492
f 416/475 434/494 417/476
f 434/494 435/495 417/476
f 436/497 418/479 432/496
f 418/479 414/477 432/496
f 419/330 437/294 416/332
f 437/294 434/302 416/332
f 438/498 420/482 436/497
f 420/482 418/479 436/497
f 421/331 439/296 419/330
f 439/296 437/294 419/330
f 422/483 440/499 423/484
f 440/499 441/500 423/484
f 442/502 424/486 443/501
f 424/486 425/485 443/501
f 444/504 445/503 427/487
f 427/487 445/503 429/489
f 446/506 430/491 447/505
f 430/491 431/490 447/505
f 432/493 433/492 448/507
f 448/507 433/492 449/508
f 450/510 435/495 451/509
f 434/494 451/509 435/495
f 440/499 452/511 441/500
f 452/511 453/512 441/500
f 452/511 442/502 453/512
f 442/502 443/501 453/512
f 454/514 436/497 448/513
f 436/497 432/496 448/513
f 437/294 455/297 434/302
f 455/297 451/303 434/302
f 438/498 436/497 444/515
f 444/515 436/497 454/514
f 439/296 446/295 437/294
f 446/295 455/297 437/294
f 456/517 448/507 457/516
f 448/507 449/508 457/516
f 451/509 456/517 450/510
f 456/517 457/516 450/510
f 458/520 454/519 456/518
f 454/519 448/521 456/518
f 455/523 458/520 451/522
f 458/520 456/518 451/522
f 444/525 454/519 459/524
f 459/524 454/519 458/520
f 446/526 459/524 455/523
f 459/524 458/520 455/523
f 459/524 460/527 444/525
f 444/525 460/527 445/528
f 459/524 446/526 460/527
f 446/526 447/529 460/527
usemtl texture9
f 461/532 293/531 462/530
f 293/531 307/533 462/530
f 295/535 461/532 305/534
f 461/532 462/530 305/534
f 308/537 295/535 317/536
f 295/535 305/534 317/536
f 293/531 309/538 307/533
f 309/538 315/539 307/533
f 309/538 324/540 315/539
f 324/540 329/541 315/539
f 325/543 308/537 463/542
f 308/537 317/536 463/542
f 324/540 464/544 329/541
f 464/544 341/545 329/541
f 465/547 325/543 343/546
f 325/543 463/542 343/546
f 464/544 466/548 341/545
f 466/548 467/549 341/545
f 359/551 465/547 361/550
f 465/547 343/546 361/550
g obj2
usemtl mat2
f 468/553 469/409 470/552
f 469/409 471/339 470/552
f 472/409 473/554 474/339
f 473/554 475/555 474/339
f 476/557 472/409 477/556
f 472/409 474/339 477/556
f 469/409 478/558 471/339
f 478/558 479/559 471/339
usemtl mat3
f 480/562 481/561 482/560
f 481/561 483/563 482/560
f 484/565 480/562 485/564
f 480/562 482/560 485/564
f 481/561 486/566 483/563
f 486/566 487/567 483/563
f 488/569 484/565 489/568
f 484/565 485/564 489/568
f 485/564 482/560 490/570
f 482/560 491/571 490/570
f 482/560 483/563 491/571
f 483/563 492/572 491/571
f 483/563 487/567 492/572
f 487/567 493/573 492/572
f 489/568 485/564 494/574
f 485/564 490/570 494/574
f 495/576 488/569 496/575
f 488/569 489/568 496/575
f 486/566 497/577 487/567
f 497/577 498/578 487/567
f 496/575 489/568 499/579
f 489/568 494/574 499/579
f 487/567 498/578 493/573
f 498/578 500/580 493/573
f 497/577 501/581 498/578
f 501/581 502/582 498/578
f 503/584 495/576 504/583
f 495/576 496/575 504/583
f 504/583 496/575 505/585
f 496/575 499/579 505/585
f 498/578 502/582 500/580
f 502/582 506/586 500/580
f 475/588 503/584 507/587
f 503/584 504/583 507/587
f 501/581 470/589 502/582
f 470/589 508/590 502/582
f 507/587 504/583 509/591
f 504/583 505/585 509/591
f 502/582 508/590 506/586
f 508/590 510/592 506/586
f 474/594 475/588 511/593
f 475/588 507/587 511/593
f 470/589 471/581 508/590
f 471/581 512/582 508/590
f 508/590 512/582 510/592
f 512/582 513/586 510/592
f 511/593 507/587 514/595
f 507/587 509/591 514/595
f 512/582 515/578 513/586
f 515/578 516/580 513/586
f 517/597 511/593 518/596
f 511/593 514/595 518/596
f 477/598 474/594 517/597
f 474/594 511/593 517/597
f 471/581 479/577 512/582
f 479/577 515/578 512/582
f 519/593 517/597 520/595
f 517/597 518/596 520/595
f 515/578 521/567 516/580
f 521/567 522/573 516/580
f 479/577 523/566 515/578
f 523/566 521/567 515/578
f 524/594 477/598 519/593
f 477/598 517/597 519/593
f 525/587 519/593 526/591
f 519/593 520/595 526/591
f 521/567 527/563 522/573
f 527/563 528/572 522/573
f 529/588 524/594 525/587
f 524/594 519/593 525/587
f 523/566 530/561 521/567
f 530/561 527/563 521/567
f 531/583 525/587 532/585
f 525/587 526/591 532/585
f 527/563 533/560 528/572
f 533/560 534/571 528/572
f 535/584 529/588 531/583
f 529/588 525/587 531/583
f 530/561 536/562 527/563
f 536/562 533/560 527/563
f 537/575 531/583 538/579
f 531/583 532/585 538/579
f 533/560 539/564 534/571
f 539/564 540/570 534/571
f 541/568 537/575 542/574
f 537/575 538/579 542/574
f 539/564 541/568 540/570
f 541/568 542/574 540/570
f 543/576 535/584 537/575
f 535/584 531/583 537/575
f 536/562 544/565 533/560
f 544/565 539/564 533/560
f 545/569 543/576 541/568
f 543/576 537/575 541/568
f 544/565 545/569 539/564
f 545/569 541/568 539/564
usemtl mat4
f 546/601 547/600 548/599
f 547/600 549/602 548/599
f 550/605 551/604 552/603
f 551/604 553/606 552/603
f 554/608 546/601 555/607
f 546/601 548/599 555/607
f 551/604 556/609 553/606
f 556/609 557/610 553/606
f 558/612 554/608 559/611
f 554/608 555/607 559/611
f 556/609 560/613 557/610
f 560/613 561/614 557/610
f 560/613 562/615 561/614
f 562/615 563/616 561/614
f 564/618 558/612 565/617
f 558/612 559/611 565/617
f 562/615 566/619 563/616
f 566/619 567/620 563/616
f 566/619 564/618 567/620
f 564/618 565/617 567/620
usemtl mat5
f 568/623 569/622 570/621
f 569/622 571/624 570/621
f 569/622 572/625 571/624
f 572/625 573/626 571/624
f 574/628 568/623 575/627
f 568/623 570/621 575/627
f 572/625 576/629 573/626
f 576/629 577/630 573/626
f 578/632 574/628 579/631
f 574/628 575/627 579/631
f 576/629 580/633 577/630
f 580/633 581/634 577/630
f 582/636 578/632 583/635
f 578/632 579/631 583/635
f 580/633 584/637 581/634
f 584/637 585/638 581/634
f 586/640 582/636 587/639
f 582/636 583/635 587/639
f 584/637 588/641 585/638
f 588/641 589/642 585/638
f 590/644 586/640 591/643
f 586/640 587/639 591/643
f 588/641 592/645 589/642
f 592/645 593/646 589/642
f 594/649 595/648 596/647
f 595/648 597/650 596/647
f 598/653 599/652 600/651
f 599/652 601/654 600/651
f 602/641 590/645 603/642
f 590/645 591/646 603/642
f 592/644 604/640 593/643
f 604/640 605/639 593/643
f 606/656 594/649 607/655
f 594/649 596/647 607/655
f 599/652 608/657 601/654
f 608/657 609/658 601/654
f 610/660 606/656 611/659
f 606/656 607/655 611/659
f 608/657 610/660 609/658
f 610/660 611/659 609/658
f 612/637 602/641 613/638
f 602/641 603/642 613/638
f 604/640 614/636 605/639
f 614/636 615/635 605/639
f 616/633 612/637 617/634
f 612/637 613/638 617/634
f 614/636 618/632 615/635
f 618/632 619/631 615/635
f 620/629 616/633 621/630
f 616/633 617/634 621/630
f 618/632 622/628 619/631
f 622/628 623/627 619/631
f 624/625 620/629 625/626
f 620/629 621/630 625/626
f 622/628 626/623 623/627
f 626/623 627/621 623/627
f 628/622 624/625 629/624
f 624/625 625/626 629/624
f 626/623 628/622 627/621
f 628/622 629/624 627/621
f 630/660 631/656 632/659
f 631/656 633/655 632/659
f 634/657 630/660 635/658
f 630/660 632/659 635/658
f 631/656 636/649 633/655
f 636/649 637/647 633/655
f 638/652 634/657 639/654
f 634/657 635/658 639/654
f 636/649 598/648 637/647
f 598/648 600/650 637/647
f 595/653 638/652 597/651
f 638/652 639/654 597/651
usemtl mat6
f 630/663 570/662 571/661
f 573/664 630/663 571/661
f 570/662 634/666 575/665
f 577/668 631/667 573/664
f 581/669 631/667 577/668
f 634/666 579/670 575/665
f 630/663 634/666 570/662
f 573/664 631/667 630/663
f 579/670 638/672 583/671
f 636/674 581/669 585/673
f 634/666 638/672 579/670
f 636/674 631/667 581/669
f 583/671 638/672 640/675
f 641/676 636/674 585/673
f 640/675 638/672 595/677
f 598/678 636/674 641/676
f 640/675 595/677 591/679
f 598/678 641/676 593/680
f 595/677 642/681 591/679
f 643/682 598/678 593/680
f 595/677 594/683 642/681
f 643/682 599/684 598/678
f 642/681 594/683 613/685
f 615/686 599/684 643/682
f 594/683 606/688 617/687
f 608/690 599/684 619/689
f 594/683 617/687 613/685
f 619/689 599/684 615/686
f 625/692 606/688 610/691
f 610/691 608/690 627/693
f 617/687 606/688 621/694
f 608/690 619/689 623/695
f 621/694 606/688 625/692
f 627/693 608/690 623/695
f 625/692 610/691 629/696
f 610/691 627/693 629/696
usemtl mat7
f 632/699 633/698 644/697
f 635/700 632/699 644/697
f 633/698 637/701 644/697
f 639/702 635/700 644/697
f 637/701 600/703 644/697
f 597/704 639/702 644/697
f 596/705 597/704 644/697
f 600/703 601/706 644/697
f 607/707 596/705 644/697
f 601/706 609/708 644/697
f 611/709 607/707 644/697
f 609/708 611/709 644/697
# 780 elements

