# Created by Metasequoia

mtllib Emperor10.mtl

v 5775.556152 172.359268 -29694.113281
v 5750.000000 172.359268 -29500.000000
v 6017.037598 172.359268 -29629.410156
v 6000.000000 172.359268 -29500.000000
v 5775.555664 172.359268 -29305.886719
v 6017.037109 172.359268 -29370.589844
v 5850.479980 172.359268 -29125.000000
v 6066.986816 172.359268 -29250.000000
v 5850.481934 172.359268 -29875.000000
v 6066.987793 172.359268 -29750.000000
v 5969.668945 172.359268 -28969.669922
v 6146.445313 172.359268 -29146.447266
v 5969.671387 172.359268 -30030.330078
v 6146.447754 172.359268 -29853.552734
v 6124.998535 172.359268 -28850.480469
v 6249.999023 172.359268 -29066.988281
v 6125.001953 172.359268 -30149.519531
v 6250.000977 172.359268 -29933.011719
v 6305.883789 172.359268 -28775.556641
v 6370.589844 172.359268 -29017.037109
v 6305.887695 172.359268 -30224.443359
v 6370.592285 172.359268 -29982.962891
v 6499.998047 172.359268 -28750.000000
v 6499.999023 172.359268 -29000.000000
v 6500.001953 172.359268 -30250.000000
v 6500.001465 172.359268 -30000.000000
v 6694.112305 172.359268 -28775.556641
v 6629.408203 172.359268 -29017.037109
v 6694.116211 172.359268 -30224.443359
v 6629.410645 172.359268 -29982.962891
v 6874.998535 172.359268 -28850.480469
v 6749.999023 172.359268 -29066.988281
v 6875.001953 172.359268 -30149.519531
v 6750.000977 172.359268 -29933.011719
v 7030.329102 172.359268 -28969.669922
v 6853.552246 172.359268 -29146.447266
v 7030.331543 172.359268 -30030.330078
v 6853.554199 172.359268 -29853.552734
v 7149.517578 172.359268 -29125.000000
v 6933.012207 172.359268 -29250.000000
v 7149.520020 172.359268 -29875.000000
v 6933.013672 172.359268 -29750.000000
v 7224.443848 172.359268 -29305.886719
v 6982.962891 172.359268 -29370.589844
v 7224.444824 172.359268 -29694.113281
v 6982.963379 172.359268 -29629.410156
v 7250.000000 172.359268 -29500.000000
v 7000.000000 172.359268 -29500.000000
v 6000.000000 142.359268 -29510.000000
v 5750.000000 142.359268 -29510.000000
v 6000.000000 162.359268 -29510.000000
v 5750.000000 162.359268 -29510.000000
v 5750.000000 142.359268 -29490.000000
v 6000.000000 142.359268 -29490.000000
v 5750.000000 162.359268 -29490.000000
v 6000.000000 162.359268 -29490.000000
v 5962.598633 162.359268 -28976.740234
v 5976.740723 162.359268 -28962.599609
v 6139.375488 162.359268 -29153.517578
v 6153.517578 162.359268 -29139.375000
v 5976.740723 142.359268 -28962.599609
v 6153.517578 142.359268 -29139.375000
v 6490.000000 142.359268 -29000.000000
v 6490.000000 142.359268 -28750.000000
v 6490.000000 162.359268 -29000.000000
v 6490.000000 162.359268 -28750.000000
v 6510.000000 162.359268 -28750.000000
v 6510.000000 162.359268 -29000.000000
v 6510.000000 142.359268 -28750.000000
v 6510.000000 142.359268 -29000.000000
v 6846.482422 142.359268 -29139.375000
v 7023.259277 142.359268 -28962.599609
v 6846.482422 162.359268 -29139.375000
v 7023.259277 162.359268 -28962.599609
v 7037.401367 162.359268 -28976.740234
v 6860.624512 162.359268 -29153.517578
v 7037.401367 142.359268 -28976.740234
v 6860.624512 142.359268 -29153.517578
v 7250.000000 142.359268 -29510.000000
v 7000.000000 142.359268 -29510.000000
v 7250.000000 162.359268 -29510.000000
v 7000.000000 162.359268 -29510.000000
v 7000.000000 142.359268 -29490.000000
v 7250.000000 142.359268 -29490.000000
v 7000.000000 162.359268 -29490.000000
v 7250.000000 162.359268 -29490.000000
v 5962.599121 142.359268 -30023.259766
v 6139.375488 142.359268 -29846.482422
v 5962.599121 162.359268 -30023.259766
v 6139.375488 162.359268 -29846.482422
v 5976.741211 162.359268 -30037.400391
v 6153.517578 162.359268 -29860.625000
v 6153.517578 142.359268 -29860.625000
v 5976.741211 142.359268 -30037.400391
v 6139.375488 142.359268 -29153.517578
v 5962.598633 142.359268 -28976.740234
v 7023.258789 142.359268 -30037.400391
v 6846.481934 142.359268 -29860.625000
v 7023.258789 162.359268 -30037.400391
v 6846.481934 162.359268 -29860.625000
v 7037.400879 162.359268 -30023.259766
v 6860.624023 162.359268 -29846.482422
v 6860.624023 142.359268 -29846.482422
v 7037.400879 142.359268 -30023.259766
v 6490.000000 142.359268 -30250.000000
v 6490.000000 142.359268 -30000.000000
v 6490.000000 162.359268 -30250.000000
v 6490.000000 162.359268 -30000.000000
v 6510.000000 162.359268 -30250.000000
v 6510.000000 162.359268 -30000.000000
v 6510.000000 142.359268 -30000.000000
v 6510.000000 142.359268 -30250.000000
v 5909.209473 42.692841 -29589.515625
v 5849.571289 -292.989929 -29589.515625
v 5909.209473 42.692841 -29410.484375
v 5849.571289 -292.989929 -29410.484375
v 6002.000000 -332.748810 -29589.515625
v 6017.833008 71.798317 -29589.515625
v 6002.000000 -332.748810 -29410.484375
v 6017.833008 71.798317 -29410.484375
v 6998.000000 -332.748810 -29589.515625
v 6982.166992 71.798317 -29589.515625
v 7150.428711 -292.989929 -29589.515625
v 7090.790527 42.692841 -29589.515625
v 6998.000000 -332.748810 -29410.484375
v 7150.428711 -292.989929 -29410.484375
v 6982.166992 71.798317 -29410.484375
v 7090.790527 42.692841 -29410.484375
v 6480.000000 176.359268 -30522.738281
v 6480.000000 176.359268 -30490.000000
v 6480.000000 218.359177 -30490.000000
v 6520.000000 176.359268 -30490.000000
v 6520.000000 176.359268 -30522.738281
v 6520.000000 218.359177 -30490.000000
v 6480.000000 15.359380 -30574.914063
v 6480.000000 15.359380 -30490.000000
v 6480.000000 93.359367 -30574.914063
v 6480.000000 93.359367 -30490.000000
v 6520.000000 93.359367 -30490.000000
v 6520.000000 15.359380 -30490.000000
v 6520.000000 93.359367 -30574.914063
v 6520.000000 15.359380 -30574.914063
v 6480.000000 176.359268 -28510.000000
v 6480.000000 176.359268 -28477.261719
v 6480.000000 218.359268 -28510.000000
v 6520.000000 176.359268 -28477.261719
v 6520.000000 176.359268 -28510.000000
v 6520.000000 218.359268 -28510.000000
v 6480.000000 93.359367 -28510.000000
v 6480.000000 15.359380 -28510.000000
v 6480.000000 93.359367 -28425.085938
v 6480.000000 15.359380 -28425.085938
v 6520.000000 15.359380 -28425.085938
v 6520.000000 15.359380 -28510.000000
v 6520.000000 93.359367 -28425.085938
v 6520.000000 93.359367 -28510.000000
v 5775.555664 172.359268 -29694.113281
v 5750.000488 172.359268 -29500.000000
v 5806.299316 15.146970 -29685.876953
v 5781.828613 15.146970 -29500.000000
v 5775.556641 172.359268 -29305.886719
v 5806.300781 15.146970 -29314.123047
v 5850.480469 172.359268 -29875.000000
v 5878.044434 15.146970 -29859.085938
v 5850.481934 172.359268 -29125.000000
v 5878.046387 15.146970 -29140.914063
v 5969.668945 172.359268 -30030.330078
v 5992.175293 15.146970 -30007.824219
v 5969.671387 172.359268 -28969.669922
v 5992.177246 15.146970 -28992.175781
v 6124.998535 172.359268 -30149.519531
v 6140.913086 15.146970 -30121.955078
v 6125.001953 172.359268 -28850.480469
v 6140.916504 15.146970 -28878.044922
v 6305.884277 172.359268 -30224.443359
v 6314.122070 15.146970 -30193.701172
v 6305.887695 172.359268 -28775.556641
v 6314.125488 15.146970 -28806.298828
v 6499.998535 172.359268 -30250.000000
v 6499.998535 15.146970 -30218.171875
v 6500.001953 172.359268 -28750.000000
v 6500.001953 15.146970 -28781.828125
v 6694.112793 172.359268 -30224.443359
v 6685.875000 15.146970 -30193.701172
v 6694.116211 172.359268 -28775.556641
v 6685.877930 15.146970 -28806.300781
v 6874.998535 172.359268 -30149.519531
v 6859.084473 15.146970 -30121.955078
v 6875.001953 172.359268 -28850.480469
v 6859.087402 15.146970 -28878.044922
v 7030.329102 172.359268 -30030.330078
v 7007.823242 15.146970 -30007.824219
v 7030.331543 172.359268 -28969.669922
v 7007.825195 15.146970 -28992.175781
v 7149.518555 172.359268 -29875.000000
v 7121.954590 15.146970 -29859.085938
v 7149.520020 172.359268 -29125.000000
v 7121.955078 15.146970 -29140.914063
v 7224.444336 172.359268 -29694.113281
v 7193.700195 15.146970 -29685.876953
v 7224.445313 172.359268 -29305.886719
v 7193.701172 15.146970 -29314.123047
v 7250.000000 172.359268 -29500.000000
v 7218.171875 15.146970 -29500.000000
v 6469.925781 -279.233826 -30128.394531
v 6530.073730 -279.233826 -30128.394531
v 6469.925781 -31.469730 -30128.394531
v 6530.073730 -31.469730 -30128.394531
v 6530.073730 93.337173 -30206.851563
v 6469.925781 93.337173 -30206.851563
v 6469.926270 156.492462 -30256.080078
v 6530.074219 156.492462 -30256.080078
v 6530.073730 -279.233826 -28871.603516
v 6469.925781 -279.233826 -28871.603516
v 6530.073730 -31.469730 -28871.603516
v 6469.925781 -31.469730 -28871.603516
v 6469.925781 93.337173 -28793.148438
v 6530.073730 93.337173 -28793.148438
v 6530.073730 156.492462 -28743.919922
v 6469.925781 156.492462 -28743.919922
v 6469.925781 93.337173 -30256.080078
v 6530.074219 93.337173 -30256.080078
v 6469.925781 -31.469730 -30256.080078
v 6469.926270 -279.233826 -30256.080078
v 6530.074219 -279.233826 -30256.080078
v 6530.074219 -31.469730 -30256.080078
v 6469.925781 93.337173 -28743.919922
v 6530.073730 93.337173 -28743.919922
v 6469.925781 -279.233826 -28743.919922
v 6469.925781 -31.469730 -28743.919922
v 6530.073730 -31.469730 -28743.919922
v 6530.073730 -279.233826 -28743.919922
v 5992.374512 12.359380 -29636.017578
v 5974.467773 12.359380 -29500.000000
v 6017.037109 172.359268 -29629.410156
v 6000.000000 172.359268 -29500.000000
v 5992.375000 12.359380 -29363.982422
v 6017.037109 172.359268 -29370.589844
v 6044.875488 12.359380 -29237.234375
v 6066.987305 172.359268 -29250.000000
v 6044.875488 12.359380 -29762.765625
v 6066.987305 172.359268 -29750.000000
v 6128.392578 12.359380 -29871.607422
v 6146.446777 172.359268 -29853.552734
v 6128.392578 12.359380 -29128.392578
v 6146.446289 172.359268 -29146.447266
v 6237.233887 12.359380 -29955.125000
v 6250.000000 172.359268 -29933.011719
v 6237.233887 12.359380 -29044.875000
v 6250.000000 172.359268 -29066.988281
v 6363.982422 12.359380 -30007.625000
v 6370.590332 172.359268 -29982.962891
v 6363.982422 12.359380 -28992.375000
v 6370.590332 172.359268 -29017.037109
v 6500.000000 12.359380 -30025.531250
v 6500.000000 172.359268 -30000.000000
v 6500.000000 12.359380 -28974.468750
v 6500.000000 172.359268 -29000.000000
v 6636.017578 12.359380 -30007.625000
v 6629.409180 172.359268 -29982.962891
v 6636.017578 12.359380 -28992.375000
v 6629.409180 172.359268 -29017.037109
v 6762.766113 12.359380 -29044.875000
v 6750.000000 172.359268 -29066.988281
v 6762.766113 12.359380 -29955.125000
v 6750.000000 172.359268 -29933.011719
v 6871.606934 12.359380 -29871.607422
v 6853.553223 172.359268 -29853.552734
v 6871.606934 12.359380 -29128.392578
v 6853.553223 172.359268 -29146.447266
v 6955.124023 12.359380 -29237.234375
v 6933.012695 172.359268 -29250.000000
v 6955.124023 12.359380 -29762.765625
v 6933.012695 172.359268 -29750.000000
v 7007.625000 12.359380 -29363.982422
v 6982.962891 172.359268 -29370.589844
v 7007.625000 12.359380 -29636.017578
v 6982.962891 172.359268 -29629.410156
v 7025.532227 12.359380 -29500.000000
v 7000.000000 172.359268 -29500.000000
v 5444.247070 15.146970 -29500.000000
v 5449.492188 93.359367 -29500.000000
v 5480.221191 15.146970 -29773.248047
v 5485.287598 93.359367 -29771.890625
v 5480.221191 15.146970 -29226.751953
v 5485.287598 93.359367 -29228.109375
v 5534.074219 172.359268 -29758.818359
v 5500.000000 172.359268 -29500.000000
v 5534.074219 172.359268 -29241.181641
v 5585.691406 15.146970 -30027.876953
v 5480.221191 -47.640629 -29773.248047
v 5585.691895 -47.640629 -30027.876953
v 5585.691406 15.146970 -28972.123047
v 5585.691406 -47.640629 -28972.123047
v 5480.221680 -47.640629 -29226.751953
v 5590.233398 93.359367 -28974.746094
v 5590.233398 93.359367 -30025.253906
v 5633.974609 172.359268 -30000.000000
v 5633.974609 172.359268 -29000.000000
v 5594.444336 172.359268 -29742.642578
v 5534.074219 176.359161 -29758.818359
v 5594.444336 176.359161 -29742.642578
v 5534.074219 176.359161 -29241.181641
v 5594.444336 172.359268 -29257.357422
v 5594.444336 176.359161 -29257.357422
v 5633.974609 176.359161 -30000.000000
v 5633.974609 176.359161 -29000.000000
v 5735.165527 15.146970 -29704.937500
v 5735.165527 -47.640629 -29704.937500
v 5735.165527 15.146970 -29295.062500
v 5735.166016 -47.640629 -29295.062500
v 5688.101074 172.359268 -29968.750000
v 5688.101074 176.359161 -29968.750000
v 5688.101074 172.359268 -29031.250000
v 5688.101074 176.359161 -29031.250000
v 5753.470215 15.146970 -30246.529297
v 5757.178711 93.359367 -30242.820313
v 5753.470215 15.146970 -28753.470703
v 5757.178711 93.359367 -28757.179688
v 5792.893555 172.359268 -28792.892578
v 5792.893555 172.359268 -30207.107422
v 5814.268555 15.146970 -29895.906250
v 5814.269043 -47.640629 -29895.906250
v 5814.268555 15.146970 -29104.091797
v 5814.268555 -47.640629 -29104.091797
v 5792.893555 176.359161 -28792.892578
v 5792.893555 176.359161 -30207.107422
v 5837.087402 172.359268 -30162.912109
v 5837.087402 176.359161 -30162.912109
v 5837.087402 172.359268 -28837.087891
v 5837.087402 176.359161 -28837.087891
v 5972.123535 15.146970 -30414.308594
v 5974.746094 93.359367 -30409.765625
v 5972.123535 15.146970 -28585.691406
v 5974.746094 93.359367 -28590.234375
v 6000.000000 172.359268 -30366.025391
v 6000.000000 172.359268 -28633.974609
v 5999.999512 176.359161 -28633.974609
v 6000.000000 176.359161 -30366.025391
v 6031.250000 172.359268 -30311.898438
v 6031.250000 176.359161 -30311.898438
v 6031.250000 172.359268 -28688.101563
v 6031.249512 176.359161 -28688.101563
v 6226.750977 15.146970 -30519.779297
v 6228.108398 93.359367 -30514.712891
v 6226.750977 15.146970 -28480.220703
v 6228.108398 93.359367 -28485.287109
v 6241.180664 172.359268 -30465.925781
v 6241.180664 172.359268 -28534.074219
v 6241.181152 176.359161 -30465.925781
v 6241.181152 176.359161 -28534.074219
v 6257.356934 172.359268 -30405.554688
v 6257.357422 176.359161 -30405.554688
v 6257.356934 172.359268 -28594.445313
v 6257.356934 176.359161 -28594.445313
v 6226.750977 -47.640629 -30519.779297
v 6295.062988 15.146970 -30264.833984
v 6295.062988 -47.640629 -30264.833984
v 6295.062988 15.146970 -28735.166016
v 6226.750977 -47.640629 -28480.220703
v 6295.062988 -47.640629 -28735.166016
v 6500.000000 15.146970 -30555.751953
v 6500.000000 -47.640629 -30555.751953
v 6500.000000 15.146970 -28444.246094
v 6500.000000 -47.640629 -28444.246094
v 6500.000000 93.359367 -30550.507813
v 6500.000000 93.359367 -28449.492188
v 6500.000000 172.359268 -30500.000000
v 6500.000000 172.359268 -28500.000000
v 6500.000488 176.359161 -30500.000000
v 6500.000000 176.359161 -28500.000000
v 6500.000000 172.359268 -30437.500000
v 6500.000000 176.359161 -30437.500000
v 6500.000000 172.359268 -28562.500000
v 6499.999512 176.359161 -28562.500000
v 6500.000000 15.146970 -30291.814453
v 6499.999512 -47.640629 -30291.814453
v 6500.000000 15.146970 -28708.185547
v 6500.000000 -47.640629 -28708.185547
v 6704.936523 15.146970 -30264.833984
v 6704.936035 -47.640629 -30264.833984
v 6704.936523 15.146970 -28735.166016
v 6704.936523 -47.640629 -28735.166016
v 6742.642578 172.359268 -30405.554688
v 6742.642578 176.359161 -30405.554688
v 6742.642578 172.359268 -28594.445313
v 6742.642578 176.359161 -28594.445313
v 6758.818848 172.359268 -30465.925781
v 6758.819336 176.359161 -30465.925781
v 6758.818848 172.359268 -28534.074219
v 6758.818359 176.359161 -28534.074219
v 6771.891602 93.359367 -30514.712891
v 6771.891113 93.359367 -28485.287109
v 6773.248535 15.146970 -28480.220703
v 6773.249023 15.146970 -30519.779297
v 6773.248535 -47.640629 -28480.220703
v 6773.249023 -47.640629 -30519.779297
v 6968.750000 172.359268 -30311.898438
v 6968.750000 176.359161 -30311.898438
v 6968.750000 172.359268 -28688.101563
v 6968.750000 176.359161 -28688.101563
v 7000.000000 172.359268 -30366.025391
v 7000.000000 176.359161 -30366.025391
v 7000.000000 172.359268 -28633.974609
v 7000.000000 176.359161 -28633.974609
v 7025.253418 93.359367 -28590.234375
v 7025.253906 93.359367 -30409.765625
v 7027.876465 15.146970 -30414.308594
v 7027.875977 15.146970 -28585.691406
v 7162.912598 172.359268 -30162.912109
v 7162.912598 176.359161 -30162.912109
v 7162.912109 172.359268 -28837.087891
v 7162.912109 176.359161 -28837.087891
v 7207.106445 172.359268 -30207.107422
v 7207.106445 176.359161 -30207.107422
v 7207.106445 172.359268 -28792.892578
v 7207.106445 176.359161 -28792.892578
v 7242.820801 93.359367 -30242.820313
v 7242.820801 93.359367 -28757.179688
v 7246.529785 15.146970 -30246.529297
v 7246.529785 15.146970 -28753.470703
v 7185.731445 15.146970 -29104.093750
v 7264.833984 15.146970 -29295.062500
v 7185.731445 -47.640629 -29104.093750
v 7264.833984 -47.640629 -29295.062500
v 7264.833984 15.146970 -29704.937500
v 7185.731445 15.146970 -29895.906250
v 7264.833984 -47.640629 -29704.937500
v 7185.731445 -47.640629 -29895.906250
v 7311.898438 172.359268 -29968.750000
v 7311.898438 176.359161 -29968.750000
v 7311.898438 172.359268 -29031.250000
v 7311.897949 176.359161 -29031.250000
v 7366.025391 172.359268 -29000.000000
v 7366.024902 176.359161 -29000.000000
v 7366.025391 172.359268 -30000.000000
v 7366.025391 176.359161 -30000.000000
v 7414.308594 15.146970 -30027.876953
v 7414.307617 -47.640629 -30027.876953
v 7414.308594 15.146970 -28972.123047
v 7414.308594 -47.640629 -28972.123047
v 7409.766113 93.359367 -30025.253906
v 7409.766113 93.359367 -28974.746094
v 7405.555176 172.359268 -29742.642578
v 7405.555176 176.359161 -29742.642578
v 7405.555176 172.359268 -29257.357422
v 7405.555176 176.359161 -29257.357422
v 7519.778809 15.146970 -29773.248047
v 7519.778809 -47.640629 -29773.248047
v 7519.778809 15.146970 -29226.751953
v 7519.778809 -47.640629 -29226.751953
v 7465.925781 172.359268 -29758.818359
v 7465.925781 176.359161 -29758.818359
v 7465.925781 176.359161 -29241.181641
v 7465.925781 172.359268 -29241.181641
v 7514.712402 93.359367 -29771.890625
v 7514.712402 93.359367 -29228.109375
v 7550.507813 93.359367 -29500.000000
v 7500.000000 172.359268 -29500.000000
v 7555.752930 15.146970 -29500.000000
v 5594.444824 176.359161 -29742.642578
v 6500.000488 176.359268 -30500.000000
v 6500.000000 176.359268 -30437.500000
v 5534.074219 172.359268 -29758.818359
v 5500.000000 172.359268 -29500.000000
v 5594.443848 172.359268 -29742.642578
v 5562.500000 172.359268 -29500.000000
v 5534.074219 172.359268 -29241.181641
v 5594.443848 172.359268 -29257.357422
v 7500.000000 172.359268 -29500.000000
v 7465.925781 172.359268 -29758.818359
v 7437.500000 172.359268 -29500.000000
v 7405.555176 172.359268 -29742.642578
v 7465.925781 172.359268 -29241.181641
v 7405.555176 172.359268 -29257.357422
v 5654.814941 172.359268 -29726.466797
v 5625.000000 172.359268 -29500.000000
v 5654.814941 172.359268 -29273.533203
v 5688.101074 172.359268 -29968.750000
v 5742.227539 172.359268 -29937.500000
v 5688.101074 172.359268 -29031.250000
v 5742.227539 172.359268 -29062.500000
v 5775.555664 172.359268 -29694.113281
v 5750.000000 172.359268 -29500.000000
v 5775.555664 172.359268 -29305.886719
v 5850.480957 172.359268 -29875.000000
v 5850.481445 172.359268 -29125.000000
v 5837.087402 172.359268 -30162.912109
v 5881.281738 172.359268 -30118.718750
v 5837.087402 172.359268 -28837.087891
v 5881.281738 172.359268 -28881.281250
v 5969.669922 172.359268 -30030.330078
v 5969.669922 172.359268 -28969.669922
v 6031.250000 172.359268 -30311.898438
v 6062.500000 172.359268 -30257.771484
v 6031.250000 172.359268 -28688.101563
v 6062.500000 172.359268 -28742.228516
v 6125.000000 172.359268 -30149.519531
v 6124.999512 172.359268 -28850.480469
v 6257.357422 172.359268 -30405.554688
v 6273.533203 172.359268 -30345.185547
v 6257.356934 172.359268 -28594.445313
v 6273.533203 172.359268 -28654.814453
v 6305.885742 172.359268 -30224.443359
v 6305.885742 172.359268 -28775.556641
v 6499.999512 172.359268 -28562.500000
v 6500.000000 172.359268 -28625.000000
v 6500.000000 172.359268 -30437.500000
v 6500.000000 172.359268 -30375.000000
v 6500.000000 172.359268 -30250.000000
v 6500.000000 172.359268 -28750.000000
v 6726.466797 172.359268 -30345.185547
v 6694.114258 172.359268 -30224.443359
v 6726.466797 172.359268 -28654.814453
v 6694.114258 172.359268 -28775.556641
v 6742.642578 172.359268 -30405.554688
v 6742.642578 172.359268 -28594.445313
v 6937.500000 172.359268 -30257.771484
v 6875.000000 172.359268 -30149.519531
v 6937.500000 172.359268 -28742.228516
v 6875.000000 172.359268 -28850.480469
v 6968.750488 172.359268 -30311.898438
v 6968.750000 172.359268 -28688.101563
v 7118.718262 172.359268 -30118.718750
v 7030.330078 172.359268 -30030.330078
v 7118.718262 172.359268 -28881.281250
v 7030.330078 172.359268 -28969.669922
v 7162.912109 172.359268 -28837.087891
v 7162.912598 172.359268 -30162.912109
v 7257.771973 172.359268 -29937.500000
v 7149.519043 172.359268 -29875.000000
v 7257.771973 172.359268 -29062.500000
v 7149.519043 172.359268 -29125.000000
v 7311.898438 172.359268 -29968.750000
v 7311.898438 172.359268 -29031.250000
v 7345.185059 172.359268 -29726.466797
v 7224.444336 172.359268 -29694.113281
v 7345.185059 172.359268 -29273.533203
v 7224.444336 172.359268 -29305.886719
v 7375.000000 172.359268 -29500.000000
v 7250.000000 172.359268 -29500.000000
v 5534.074219 176.359161 -29241.181641
v 5633.974609 176.359268 -29000.000000
v 5594.444336 176.359161 -29257.357422
v 5688.101074 176.359268 -29031.250000
v 5792.893555 176.359161 -28792.892578
v 5837.087402 176.359161 -28837.087891
v 5999.999512 176.359161 -28633.974609
v 6031.249512 176.359161 -28688.101563
v 6241.181152 176.359161 -28534.074219
v 6257.356934 176.359161 -28594.445313
v 6500.000000 176.359161 -28500.000000
v 6499.999512 176.359161 -28562.500000
v 6758.818359 176.359161 -28534.074219
v 6742.642578 176.359161 -28594.445313
v 7000.000000 176.359161 -28633.974609
v 6968.750000 176.359161 -28688.101563
v 7207.106445 176.359161 -28792.892578
v 7162.912109 176.359161 -28837.087891
v 7366.024902 176.359161 -29000.000000
v 7311.897949 176.359161 -29031.250000
v 7465.925781 176.359161 -29241.181641
v 7405.555176 176.359161 -29257.357422
v 6000.000000 172.359283 -29500.000000
v 6017.037109 172.359283 -29370.589844
v 6037.267090 172.359283 -29500.000000
v 6053.034180 172.359283 -29380.238281
v 6017.037109 172.359283 -29629.410156
v 6053.034180 172.359283 -29619.761719
v 6066.987305 172.359283 -29750.000000
v 6099.261719 172.359283 -29731.365234
v 6066.987305 172.359283 -29250.000000
v 6099.261719 172.359283 -29268.634766
v 6146.446777 172.359283 -29853.552734
v 6172.798828 172.359283 -29827.199219
v 6146.446289 172.359283 -29146.447266
v 6172.798828 172.359283 -29172.800781
v 6250.000000 172.359283 -29933.011719
v 6268.633789 172.359283 -29900.738281
v 6250.000000 172.359283 -29066.988281
v 6268.633789 172.359283 -29099.261719
v 6370.590820 172.359283 -29982.962891
v 6380.235840 172.359283 -29946.964844
v 6370.590820 172.359283 -29017.037109
v 6380.235840 172.359283 -29053.035156
v 6380.000000 172.359268 -29500.000000
v 6396.078125 172.359268 -29440.000000
v 6415.882813 172.359283 -29500.000000
v 6427.148438 172.359283 -29457.941406
v 6439.999512 172.359268 -29396.076172
v 6457.945313 172.359283 -29427.148438
v 6500.000000 172.359283 -30000.000000
v 6500.000000 172.359283 -29962.732422
v 6500.000000 172.359283 -29000.000000
v 6500.000000 172.359283 -29037.267578
v 6500.000000 172.359268 -29380.000000
v 6500.007813 172.359283 -29415.880859
v 6560.000488 172.359268 -29396.076172
v 6542.062500 172.359283 -29427.152344
v 6629.409180 172.359283 -29982.962891
v 6619.764160 172.359283 -29946.964844
v 6629.409180 172.359283 -29017.037109
v 6619.764160 172.359283 -29053.035156
v 6603.921875 172.359268 -29440.000000
v 6572.851563 172.359283 -29457.943359
v 6620.000000 172.359268 -29500.000000
v 6584.117188 172.359283 -29500.000000
v 6750.000000 172.359283 -29933.011719
v 6731.366211 172.359283 -29900.738281
v 6750.000000 172.359283 -29066.988281
v 6731.366211 172.359283 -29099.261719
v 6853.553223 172.359283 -29853.552734
v 6827.201660 172.359283 -29827.199219
v 6853.553223 172.359283 -29146.447266
v 6827.201660 172.359283 -29172.800781
v 6933.012695 172.359283 -29750.000000
v 6900.738281 172.359283 -29731.365234
v 6933.012695 172.359283 -29250.000000
v 6900.738281 172.359283 -29268.634766
v 6982.962891 172.359283 -29629.410156
v 6946.965820 172.359283 -29619.761719
v 6982.962891 172.359283 -29370.589844
v 6946.965820 172.359283 -29380.238281
v 7000.000000 172.359283 -29500.000000
v 6962.732910 172.359283 -29500.000000
v 6396.078125 172.359268 -29560.000000
v 6427.156250 172.359283 -29542.060547
v 6439.999512 172.359268 -29603.923828
v 6457.945313 172.359283 -29572.849609
v 6500.000000 172.359268 -29620.000000
v 6499.992188 172.359283 -29584.117188
v 6560.000488 172.359268 -29603.923828
v 6542.054688 172.359283 -29572.843750
v 6603.921875 172.359268 -29560.000000
v 6572.851563 172.359283 -29542.058594
v 6500.000000 172.359268 -29500.000000
# 636 vertices

vt 6.61960 1.84840
vt 7.99990 -1.00000
vt 5.92940 -0.72740
vt 7.99990 1.66670
vt 10.07050 -0.72730
vt 9.38030 1.84840
vt 11.99990 0.07180
vt 10.66660 2.38120
vt 5.33330 2.38120
vt 3.99990 0.07180
vt 13.65680 1.34320
vt 11.77120 3.22880
vt 4.22870 3.22880
vt 2.34310 1.34320
vt 14.92820 3.00010
vt 12.61880 4.33340
vt 3.38110 4.33340
vt 1.07170 3.00010
vt 15.72740 4.92950
vt 13.15160 5.61970
vt 2.84830 5.61970
vt 0.27250 4.92950
vt 15.99990 7.00010
vt 13.33330 7.00010
vt 2.66660 7.00010
vt 0.00000 7.00010
vt 15.72740 9.07060
vt 13.15160 8.38040
vt 2.84830 8.38040
vt 0.27250 9.07060
vt 14.92820 11.00000
vt 12.61880 9.66670
vt 3.38110 9.66670
vt 1.07170 11.00000
vt 13.65680 12.65690
vt 11.77120 10.77130
vt 4.22870 10.77130
vt 2.34310 12.65690
vt 11.99990 13.92820
vt 10.66660 11.61890
vt 5.33330 11.61890
vt 3.99990 13.92830
vt 10.07050 14.72740
vt 9.38030 12.15170
vt 6.61960 12.15170
vt 5.92940 14.72740
vt 7.99990 14.99990
vt 7.99990 12.33340
vt -0.99990 -0.46150
vt 0.00000 -0.61970
vt -0.99990 -0.61970
vt 0.00000 -0.46150
vt 0.99990 -0.46150
vt 1.99990 -0.61970
vt 0.99990 -0.61970
vt 1.99990 -0.46150
vt 0.00190 -0.86250
vt 0.99800 -0.99810
vt 0.99800 -0.86250
vt 0.00190 -0.99810
vt 0.00190 -0.45720
vt 0.99800 -0.61770
vt 0.00190 -0.61770
vt 0.99800 -0.45720
vt -0.99990 -0.45520
vt 0.00000 -0.62590
vt -0.99990 -0.62590
vt 0.00000 -0.45520
vt 0.00190 -0.86620
vt 0.99800 -0.86620
vt 0.99990 -0.46320
vt 1.99990 -0.62640
vt 0.99990 -0.62640
vt 1.99990 -0.46320
vt -0.49990 -0.46000
vt 0.49680 -0.63480
vt -0.49990 -0.63480
vt 0.49680 -0.46000
vt -0.49880 -0.45960
vt 0.49990 -0.63520
vt -0.49880 -0.63520
vt 0.49990 -0.45960
vt 0.00190 0.53860
vt 0.99800 0.37630
vt 0.00190 0.37630
vt 0.99800 0.53860
vt 0.99800 0.13780
vt 0.00190 -0.00620
vt 0.00190 0.13780
vt 0.99800 -0.00620
vt 0.00190 0.54020
vt 0.99800 0.38210
vt 0.00190 0.38210
vt 0.99800 0.54020
vt 0.00190 0.54210
vt 0.99800 0.38020
vt 0.00190 0.38020
vt 0.99800 0.54210
vt 0.00190 0.13400
vt 0.99800 -0.00240
vt 0.99800 0.13400
vt 0.00190 -0.00240
vt 0.00190 0.54110
vt 0.99800 0.37750
vt 0.00190 0.37750
vt 0.99800 0.54110
vt 0.00190 0.54340
vt 0.99800 0.37890
vt 0.00190 0.37890
vt 0.99800 0.54340
vt 0.99800 0.13330
vt 0.00190 -0.00170
vt 0.00190 0.13330
vt 0.99800 -0.00170
vt 0.99800 0.53970
vt 0.00190 0.37770
vt 0.99800 0.37770
vt 0.00190 0.53970
vt 0.92040 0.01300
vt -0.24920 0.80210
vt 0.92040 0.80210
vt -0.24920 0.01300
vt 1.09380 -0.03970
vt -0.37910 0.62740
vt -0.41600 -0.03970
vt 0.92290 0.45740
vt -0.18170 0.64240
vt 1.23780 -0.04390
vt -0.29280 -0.04390
vt 1.14840 0.45310
vt 1.03590 0.52950
vt 0.04310 0.00190
vt 1.03590 0.00190
vt 0.04310 0.52950
vt 1.00320 -0.12750
vt 0.75170 -0.12750
vt 0.75170 -0.28880
vt 0.25460 -0.54580
vt -0.21230 -0.12750
vt -0.21230 -0.54580
vt 0.25460 -0.12750
vt 1.26810 -1.12980
vt 0.99350 -1.29110
vt 0.99350 -1.12980
vt 0.45090 -1.54810
vt -0.05890 -1.12980
vt 0.45090 -1.12980
vt -0.05890 -1.54810
vt 0.99800 0.62490
vt 0.00190 0.00190
vt 0.00190 0.62490
vt 0.99800 0.00190
vt 7.75110 -0.28090
vt 8.00050 -0.03970
vt 7.75110 -0.03970
vt 8.00050 -0.28090
vt 8.24990 -0.03970
vt 8.24990 -0.28090
vt 7.50170 -0.28090
vt 7.50170 -0.03970
vt 8.49930 -0.03970
vt 8.49930 -0.28090
vt 7.25230 -0.28090
vt 7.25230 -0.03970
vt 8.74870 -0.03970
vt 8.74870 -0.28090
vt 7.00280 -0.28090
vt 7.00280 -0.03970
vt 8.99810 -0.03970
vt 8.99810 -0.28090
vt 6.75340 -0.28090
vt 6.75340 -0.03970
vt 9.24750 -0.03970
vt 9.24750 -0.28090
vt 6.50400 -0.28090
vt 6.50400 -0.03970
vt 9.49690 -0.03970
vt 9.49690 -0.28090
vt 6.25460 -0.28090
vt 6.25460 -0.03970
vt 9.74630 -0.03970
vt 9.74630 -0.28090
vt 6.00520 -0.28090
vt 6.00520 -0.03970
vt 9.99570 -0.03970
vt 9.99570 -0.28090
vt 5.75580 -0.28090
vt 5.75580 -0.03970
vt 10.24510 -0.03970
vt 10.24510 -0.28090
vt 5.50640 -0.28090
vt 5.50640 -0.03970
vt 10.49450 -0.03970
vt 10.49450 -0.28090
vt 5.25700 -0.28090
vt 5.25700 -0.03970
vt 10.74390 -0.03970
vt 10.74390 -0.28090
vt 5.00760 -0.28090
vt 5.00760 -0.03970
vt 10.99330 -0.03970
vt 10.99330 -0.28090
vt -1.74250 -0.00200
vt -4.74360 -0.99810
vt -4.74360 -0.00200
vt -1.74250 -0.99810
vt 0.01070 -0.99810
vt 0.01070 -0.00200
vt -0.37340 -0.00200
vt -1.24690 -0.99810
vt -1.24690 -0.00200
vt -0.37340 -0.99810
vt 0.99800 -0.00200
vt 1.02710 -0.99810
vt 1.02710 -0.00200
vt 1.69130 -0.00200
vt 1.69130 -0.99810
vt 2.24690 -0.00200
vt 2.24690 -0.99810
vt -1.49820 -1.00200
vt -3.24960 -1.99810
vt -3.24960 -1.00200
vt -1.49820 -1.99810
vt -0.00300 -1.99810
vt -0.00300 -1.00200
vt 0.99800 -1.00200
vt 0.00190 -1.99810
vt 0.00190 -1.00200
vt 0.99800 -1.99810
vt 2.24300 -1.99810
vt 2.24300 -1.00200
vt 2.99000 -1.99810
vt 3.74170 -1.00200
vt 3.74170 -1.99810
vt 2.99000 -1.00200
vt -0.07210 -0.38870
vt 0.10880 -0.23890
vt 0.10880 -0.38870
vt 0.46650 -0.00010
vt 1.17650 -0.38870
vt 0.46650 -0.38870
vt 1.17650 -0.00010
vt -0.12190 -1.37840
vt 0.06780 -1.37840
vt 0.06780 -1.23040
vt 0.44310 -0.99450
vt 1.18800 -1.37840
vt 1.18800 -0.99450
vt 0.44310 -1.37840
vt -1.58030 -0.00200
vt -1.99640 -0.99810
vt -1.58030 -0.99810
vt -1.99640 -0.00200
vt 2.99640 -0.00200
vt 2.58030 -0.99810
vt 2.99640 -0.99810
vt 2.58030 -0.00200
vt 2.16420 -0.99810
vt 2.16420 -0.00200
vt -1.16420 -0.00200
vt -1.16420 -0.99810
vt -0.74820 -0.00200
vt -0.74820 -0.99810
vt 1.74820 -0.99810
vt 1.74820 -0.00200
vt -0.33210 -0.00200
vt -0.33210 -0.99810
vt 1.33210 -0.99810
vt 1.33210 -0.00200
vt 0.08390 -0.00200
vt 0.08390 -0.99810
vt 0.91600 -0.99810
vt 0.91600 -0.00200
vt 0.50000 -0.00200
vt 0.50000 -0.99810
vt -0.06780 -0.63120
vt 0.49990 -0.33370
vt 0.49990 -0.63120
vt -0.06780 -0.33370
vt 1.06780 -0.63120
vt 1.06780 -0.33370
vt -0.06780 -0.00200
vt 0.49990 -0.00200
vt 1.06780 -0.00200
vt 0.75400 -0.99810
vt 0.24590 -0.66610
vt 0.75400 -0.66610
vt 0.24590 -0.99810
vt 0.75830 -0.99810
vt 0.24160 -0.66610
vt 0.75830 -0.66610
vt 0.24160 -0.99810
vt 0.24160 -0.33400
vt 0.75830 -0.33400
vt 0.24590 -0.33400
vt 0.75400 -0.33400
vt 0.24590 -0.00200
vt 0.75400 -0.00200
vt 0.75830 -0.00200
vt 0.24160 -0.00200
vt 2.98880 -0.25170
vt 3.48660 -0.31150
vt 2.98880 -0.31150
vt 3.48660 -0.25170
vt -2.49190 -0.31180
vt -1.99330 -0.24800
vt -1.99330 -0.31180
vt -2.49190 -0.24800
vt 2.49110 -0.25170
vt 2.49110 -0.31150
vt -1.49460 -0.24800
vt -1.49460 -0.31180
vt 0.71850 -0.68790
vt 1.30900 -0.99810
vt 1.30900 -0.68790
vt 0.71850 -0.99810
vt -0.32660 -0.99810
vt 0.22440 -0.68790
vt -0.32660 -0.68790
vt 0.22440 -0.99810
vt -2.49800 -0.25130
vt -1.89840 -0.31200
vt -2.49800 -0.31200
vt -1.89840 -0.25130
vt 2.89520 -0.24890
vt 3.49400 -0.31180
vt 2.89520 -0.31180
vt 3.49400 -0.24890
vt 0.75170 -0.33370
vt 1.25530 -0.63120
vt 0.75170 -0.63120
vt 1.25530 -0.33370
vt -0.25400 -0.63120
vt 0.24860 -0.33370
vt 0.24860 -0.63120
vt -0.25400 -0.33370
vt -0.25400 -0.00200
vt 0.24860 -0.00200
vt 0.75170 -0.00200
vt 1.25530 -0.00200
vt -0.30900 -0.99810
vt 0.28140 -0.68790
vt -0.30900 -0.68790
vt 0.28140 -0.99810
vt 0.77550 -0.68790
vt 1.32660 -0.99810
vt 1.32660 -0.68790
vt 0.77550 -0.99810
vt -0.99590 -0.31180
vt -0.99590 -0.24800
vt 1.99330 -0.25170
vt 1.99330 -0.31150
vt -1.29880 -0.31200
vt -1.29880 -0.25130
vt 2.29640 -0.24890
vt 2.29640 -0.31180
vt 0.24820 -0.33370
vt 0.24820 -0.63120
vt 0.75130 -0.63120
vt 0.75130 -0.33370
vt 0.24820 -0.00200
vt 0.75130 -0.00200
vt -0.49730 -0.31180
vt -0.49730 -0.24800
vt 1.49550 -0.25170
vt 1.49550 -0.31150
vt -0.69920 -0.31200
vt -0.69920 -0.25130
vt 1.69760 -0.24890
vt 1.69760 -0.31180
vt -0.25530 -0.63120
vt -0.25530 -0.33370
vt 1.25400 -0.63120
vt 1.25400 -0.33370
vt -0.25530 -0.00200
vt 1.25400 -0.00200
vt 0.99770 -0.31150
vt 0.99770 -0.25170
vt 0.00130 -0.31180
vt 0.00130 -0.24800
vt -0.09960 -0.31200
vt -0.09960 -0.25130
vt 1.09880 -0.24890
vt 1.09880 -0.31180
vt 0.87360 -0.68170
vt 1.43420 -0.99810
vt 1.43420 -0.68170
vt 0.87360 -0.99810
vt -0.86030 -0.99810
vt -0.06550 -0.60060
vt -0.86030 -0.60060
vt -0.06550 -0.99810
vt 0.43050 -0.66610
vt 0.99480 -0.99810
vt 0.99480 -0.66610
vt 0.43050 -0.99810
vt -0.00760 -0.99810
vt 0.54750 -0.66610
vt -0.00760 -0.66610
vt 0.54750 -0.99810
vt 0.43050 -0.33400
vt 0.99480 -0.33400
vt 0.54750 -0.33400
vt -0.00760 -0.33400
vt 0.99480 -0.00200
vt 0.43050 -0.00200
vt 0.54750 -0.00200
vt -0.00760 -0.00200
vt 0.50000 -0.31150
vt 0.50000 -0.25170
vt 0.49990 -0.31180
vt 0.50000 -0.24800
vt 0.50000 -0.31200
vt 0.50000 -0.25130
vt 0.50000 -0.24890
vt 0.50000 -0.31180
vt 0.49990 -0.99810
vt 0.49990 -0.68170
vt 0.49990 -0.60060
vt 0.12630 -0.99810
vt 0.12630 -0.68170
vt 1.06550 -0.60060
vt 1.06550 -0.99810
vt 1.09960 -0.31200
vt 1.09960 -0.25130
vt -0.09880 -0.24890
vt -0.09880 -0.31180
vt 0.00220 -0.31150
vt 0.00220 -0.25170
vt 0.99860 -0.31180
vt 0.99860 -0.24800
vt 1.55910 -0.00200
vt 1.55910 -0.33400
vt -0.56270 -0.33400
vt -0.56270 -0.00200
vt -0.56270 -0.66610
vt 1.55910 -0.66610
vt -0.56270 -0.99810
vt 1.55910 -0.99810
vt -0.43420 -0.99810
vt -0.43420 -0.68170
vt 1.86030 -0.99810
vt 1.86030 -0.60060
vt 1.69920 -0.31200
vt 1.69920 -0.25130
vt -0.69760 -0.24890
vt -0.69760 -0.31180
vt -0.49550 -0.25170
vt -0.49550 -0.31150
vt 1.49730 -0.24800
vt 1.49730 -0.31180
vt -0.24590 -0.00200
vt 0.25130 -0.33370
vt -0.24590 -0.33370
vt 0.25130 -0.00200
vt -0.24590 -0.63120
vt 0.25130 -0.63120
vt 2.29880 -0.31200
vt 2.29880 -0.25130
vt -1.29640 -0.24890
vt -1.29640 -0.31180
vt -0.99330 -0.25170
vt -0.99330 -0.31150
vt 1.99590 -0.31180
vt 1.99590 -0.24800
vt 0.74860 -0.33370
vt 0.74860 -0.00200
vt 0.74860 -0.63120
vt 0.29000 -0.99810
vt 0.70990 -0.66920
vt 0.29000 -0.66920
vt 0.70990 -0.99810
vt 0.28180 -0.99810
vt 0.71810 -0.66920
vt 0.28180 -0.66920
vt 0.71810 -0.99810
vt 2.89840 -0.31200
vt 2.89840 -0.25130
vt -1.89520 -0.24890
vt -1.89520 -0.31180
vt 2.49460 -0.31180
vt 2.49460 -0.24800
vt -1.49110 -0.25170
vt -1.49110 -0.31150
vt 1.29950 -0.99810
vt 1.29950 -0.66920
vt -0.28830 -0.99810
vt -0.28830 -0.66920
vt 1.24590 -0.33370
vt 1.24590 -0.00200
vt 1.24590 -0.63120
vt 3.49800 -0.31200
vt 3.49800 -0.25130
vt -2.49400 -0.24890
vt -2.49400 -0.31180
vt -0.29950 -0.99810
vt -0.29950 -0.66920
vt 1.28830 -0.99810
vt 1.28830 -0.66920
vt -1.98880 -0.31150
vt -1.98880 -0.25170
vt 2.99330 -0.31180
vt 2.99330 -0.24800
vt -2.48660 -0.31150
vt -2.48660 -0.25170
vt 3.49190 -0.31180
vt 3.49190 -0.24800
vt 0.75260 -0.33400
vt 0.24730 -0.00200
vt 0.24730 -0.33400
vt 0.75260 -0.00200
vt 0.75000 -0.00200
vt 0.24990 -0.33400
vt 0.75000 -0.33400
vt 0.24990 -0.00200
vt 0.24730 -0.66610
vt 0.75260 -0.66610
vt 0.24990 -0.66610
vt 0.75000 -0.66610
vt 0.24730 -0.99810
vt 0.75260 -0.99810
vt 0.24990 -0.99810
vt 0.75000 -0.99810
vt 1.06660 -0.00200
vt 1.06660 -0.33370
vt -0.06660 -0.00200
vt -0.06660 -0.33370
vt 1.06660 -0.63120
vt -0.06660 -0.63120
vt 0.00190 1.50170
vt 0.18460 2.00210
vt 0.18460 1.50170
vt 0.00190 2.00210
vt 0.00190 1.00130
vt 0.18460 1.00130
vt 0.00190 0.50080
vt 0.18460 0.50080
vt 0.00190 0.00040
vt 0.18460 0.00040
vt 0.00190 -0.50000
vt 0.18460 -0.50000
vt 0.00190 -1.00040
vt 0.18460 -1.00040
vt 0.00190 -1.50080
vt 0.18460 -1.50080
vt 0.00190 -2.00130
vt 0.18460 -2.00130
vt 0.00190 -2.50170
vt 0.18460 -2.50170
vt 0.00190 -3.00210
vt 0.18460 -3.00210
vt -0.99880 -0.99810
vt -0.99880 -0.00200
vt 1.99880 -0.00200
vt 1.99880 -0.99810
vt 2.00130 -0.00200
vt 2.00130 -0.99810
vt -1.00130 -0.99810
vt -1.00130 -0.00200
vt 4.75440 -0.62520
vt 4.04530 -0.89370
vt 4.75440 -0.89370
vt 4.04530 -0.62520
vt 3.33620 -0.89370
vt 3.33620 -0.62520
vt 2.62720 -0.89370
vt 2.62720 -0.62520
vt 4.75440 -0.00010
vt 4.04530 -0.00010
vt 3.33620 -0.00010
vt 2.62720 -0.00010
vt 1.91810 -0.89370
vt 1.91810 -0.62520
vt 1.91810 -0.00010
vt 1.20900 -0.89370
vt 1.20900 -0.62520
vt 1.20900 -0.00010
vt 0.49990 -0.89370
vt 0.49990 -0.62520
vt 0.49990 -0.00010
vt -0.20900 -0.89370
vt -0.20900 -0.62520
vt -0.20900 -0.00010
vt -0.91810 -0.62520
vt -0.91810 -0.00010
vt -0.91810 -0.89370
vt -1.62720 -0.62520
vt -1.62720 -0.00010
vt -1.62720 -0.89370
vt -2.33620 -0.62520
vt -2.33620 -0.00010
vt -2.33620 -0.89370
vt -3.04530 -0.62520
vt -3.04530 -0.00010
vt -3.04530 -0.89370
vt -3.75440 -0.62520
vt -3.75440 -0.00010
vt -3.75440 -0.89370
vt 0.00190 -2.99890
vt 0.18350 -2.49910
vt 0.18350 -2.99890
vt 0.00190 -2.49910
vt 0.18350 -1.99930
vt 0.00190 -1.99930
vt 0.18350 -1.49950
vt 0.00190 -1.49950
vt 0.18350 -0.99980
vt 0.00190 -0.99980
vt 0.18350 -0.50010
vt 0.00190 -0.50010
vt 0.18350 -0.00030
vt 0.00190 -0.00030
vt 0.18350 0.49950
vt 0.00190 0.49950
vt 0.18350 0.99930
vt 0.00190 0.99930
vt 0.18350 1.49910
vt 0.00190 1.49910
vt 0.18350 1.99890
vt 0.00190 1.99890
vt -4.49210 5.51340
vt -3.66010 5.99800
vt -4.49210 5.99800
vt -3.66010 5.51340
vt 4.66010 5.51340
vt 5.49210 5.99800
vt 4.66010 5.99800
vt 5.49210 5.51340
vt 3.82800 5.51340
vt 3.82800 5.99800
vt -2.82800 5.99800
vt -2.82800 5.51340
vt 2.99600 5.51340
vt 2.99600 5.99800
vt -1.99600 5.99800
vt -1.99600 5.51340
vt 2.16400 5.51340
vt 2.16400 5.99800
vt -1.16400 5.99800
vt -1.16400 5.51340
vt 1.33200 5.51340
vt 1.33200 5.99800
vt -0.33200 5.99800
vt -0.33200 5.51340
vt -0.49980 5.99800
vt -0.16650 5.74990
vt -0.49980 5.74990
vt -0.16650 5.99800
vt 0.16670 5.74990
vt 0.16670 5.99800
vt 0.50000 5.51340
vt 0.50000 5.99800
vt 0.49990 5.74990
vt 0.49990 5.99800
vt 0.83320 5.74990
vt 0.83320 5.99800
vt 1.16650 5.74990
vt 1.16650 5.99800
vt 1.49980 5.74990
vt 1.49980 5.99800
vt 2.99890 -0.90080
vt 2.50680 -0.83600
vt 2.99890 0.50760
vt 3.49100 -0.83600
vt 2.04820 -0.64600
vt 2.75240 0.57360
vt 3.24540 0.57360
vt 3.94960 -0.64600
vt 1.65440 -0.34380
vt 4.34340 -0.34380
vt 1.35220 0.04990
vt 2.57190 0.75410
vt 4.64560 0.04990
vt 3.42590 0.75410
vt 1.16230 0.50850
vt 4.83550 0.50850
vt 2.50580 1.00060
vt 3.49200 1.00060
vt 1.09750 1.00060
vt 4.90030 1.00060
vt 1.16230 1.49280
vt 4.83550 1.49280
vt 2.57190 1.24720
vt 3.42590 1.24720
vt 1.35220 1.95140
vt 4.64560 1.95140
vt 1.65440 2.34510
vt 2.75240 1.42770
vt 4.34340 2.34510
vt 3.24540 1.42770
vt 2.99890 1.49370
vt 2.50680 2.83730
vt 3.49100 2.83730
vt 2.04820 2.64730
vt 3.94960 2.64730
vt 2.99890 2.90210
vt 0.49990 5.49990
vt 0.88820 5.72410
vt 0.94820 5.49990
vt 0.88820 5.27580
vt 0.72410 5.88820
vt 0.72410 5.11170
vt 0.50000 5.05170
vt 0.49990 5.94820
vt 0.27580 5.11170
vt 0.27580 5.88820
vt 0.11170 5.27580
vt 0.11170 5.72410
vt 0.05170 5.49990
# 709 texture vertices

g Object_2
usemtl texture0
f 1/3 2/2 3/1
f 2/2 4/4 3/1
f 2/2 5/5 4/4
f 5/5 6/6 4/4
f 5/5 7/7 6/6
f 7/7 8/8 6/6
f 9/10 1/3 10/9
f 1/3 3/1 10/9
f 7/7 11/11 8/8
f 11/11 12/12 8/8
f 13/14 9/10 14/13
f 9/10 10/9 14/13
f 11/11 15/15 12/12
f 15/15 16/16 12/12
f 17/18 13/14 18/17
f 13/14 14/13 18/17
f 15/15 19/19 16/16
f 19/19 20/20 16/16
f 21/22 17/18 22/21
f 17/18 18/17 22/21
f 19/19 23/23 20/20
f 23/23 24/24 20/20
f 25/26 21/22 26/25
f 21/22 22/21 26/25
f 23/23 27/27 24/24
f 27/27 28/28 24/24
f 29/30 25/26 30/29
f 25/26 26/25 30/29
f 27/27 31/31 28/28
f 31/31 32/32 28/28
f 33/34 29/30 34/33
f 29/30 30/29 34/33
f 31/31 35/35 32/32
f 35/35 36/36 32/32
f 37/38 33/34 38/37
f 33/34 34/33 38/37
f 35/35 39/39 36/36
f 39/39 40/40 36/36
f 41/42 37/38 42/41
f 37/38 38/37 42/41
f 39/39 43/43 40/40
f 43/43 44/44 40/40
f 45/46 41/42 46/45
f 41/42 42/41 46/45
f 43/43 47/47 44/44
f 47/47 48/48 44/44
f 47/47 45/46 48/48
f 45/46 46/45 48/48
g obj1
usemtl mat1
f 49/51 50/50 51/49
f 50/50 52/52 51/49
f 53/55 54/54 55/53
f 54/54 56/56 55/53
f 52/59 55/58 51/57
f 55/58 56/60 51/57
f 57/57 58/60 59/59
f 58/60 60/58 59/59
f 61/63 62/62 58/61
f 62/62 60/64 58/61
f 63/63 64/62 65/61
f 64/62 66/64 65/61
f 66/57 67/60 65/59
f 67/60 68/58 65/59
f 69/63 70/62 67/61
f 70/62 68/64 67/61
f 71/67 72/66 73/65
f 72/66 74/68 73/65
f 74/70 75/58 73/69
f 75/58 76/60 73/69
f 77/73 78/72 75/71
f 78/72 76/74 75/71
f 79/77 80/76 81/75
f 80/76 82/78 81/75
f 83/81 84/80 85/79
f 84/80 86/82 85/79
f 86/70 81/58 85/69
f 81/58 82/60 85/69
f 87/85 88/84 89/83
f 88/84 90/86 89/83
f 91/89 89/88 92/87
f 89/88 90/90 92/87
f 93/93 94/92 92/91
f 94/92 91/94 92/91
usemtl texture1
f 95/63 96/62 59/61
f 96/62 57/64 59/61
f 97/97 98/96 99/95
f 98/96 100/98 99/95
f 101/101 99/100 102/99
f 99/100 100/102 102/99
f 103/105 104/104 102/103
f 104/104 101/106 102/103
f 105/109 106/108 107/107
f 106/108 108/110 107/107
f 109/113 107/112 110/111
f 107/112 108/114 110/111
f 111/117 112/116 110/115
f 112/116 109/118 110/115
usemtl texture2
f 113/121 114/120 115/119
f 114/120 116/122 115/119
f 117/125 114/124 118/123
f 114/124 113/126 118/123
f 119/125 120/123 116/124
f 120/123 115/126 116/124
f 121/129 122/128 123/127
f 122/128 124/130 123/127
f 125/129 126/127 127/128
f 126/127 128/130 127/128
f 128/133 126/132 124/131
f 126/132 123/134 124/131
f 129/137 130/136 131/135
f 132/136 133/137 134/135
f 135/140 136/139 137/138
f 136/139 138/141 137/138
f 137/138 138/141 129/137
f 138/141 130/136 129/137
f 139/141 140/139 141/138
f 141/138 140/139 142/140
f 141/138 133/137 139/141
f 133/137 132/136 139/141
f 143/144 144/143 145/142
f 146/143 147/144 148/142
f 149/147 150/146 151/145
f 151/145 150/146 152/148
f 151/145 144/143 149/147
f 144/143 143/144 149/147
f 153/148 154/146 155/145
f 154/146 156/147 155/145
f 155/145 156/147 146/143
f 156/147 147/144 146/143
usemtl texture3
f 118/151 113/150 120/149
f 113/150 115/152 120/149
f 127/149 128/152 122/151
f 128/152 124/150 122/151
usemtl texture4
f 157/155 158/154 159/153
f 158/154 160/156 159/153
f 158/154 161/157 160/156
f 161/157 162/158 160/156
f 163/160 157/155 164/159
f 157/155 159/153 164/159
f 161/157 165/161 162/158
f 165/161 166/162 162/158
f 167/164 163/160 168/163
f 163/160 164/159 168/163
f 165/161 169/165 166/162
f 169/165 170/166 166/162
f 171/168 167/164 172/167
f 167/164 168/163 172/167
f 169/165 173/169 170/166
f 173/169 174/170 170/166
f 175/172 171/168 176/171
f 171/168 172/167 176/171
f 173/169 177/173 174/170
f 177/173 178/174 174/170
f 179/176 175/172 180/175
f 175/172 176/171 180/175
f 177/173 181/177 178/174
f 181/177 182/178 178/174
f 183/180 179/176 184/179
f 179/176 180/175 184/179
f 181/177 185/181 182/178
f 185/181 186/182 182/178
f 187/184 183/180 188/183
f 183/180 184/179 188/183
f 185/181 189/185 186/182
f 189/185 190/186 186/182
f 191/188 187/184 192/187
f 187/184 188/183 192/187
f 189/185 193/189 190/186
f 193/189 194/190 190/186
f 195/192 191/188 196/191
f 191/188 192/187 196/191
f 193/189 197/193 194/190
f 197/193 198/194 194/190
f 199/196 195/192 200/195
f 195/192 196/191 200/195
f 197/193 201/197 198/194
f 201/197 202/198 198/194
f 203/200 199/196 204/199
f 199/196 200/195 204/199
f 201/197 203/201 202/198
f 203/201 204/202 202/198
usemtl texture5
f 205/205 206/204 207/203
f 206/204 208/206 207/203
f 208/206 209/207 207/203
f 209/207 210/208 207/203
f 142/211 135/210 141/209
f 135/210 137/212 141/209
f 210/208 209/207 211/213
f 209/207 212/58 211/213
f 137/212 129/214 141/209
f 129/214 133/215 141/209
f 133/215 129/214 134/216
f 129/214 131/217 134/216
f 130/219 132/218 131/217
f 132/218 134/216 131/217
f 213/222 214/221 215/220
f 214/221 216/223 215/220
f 216/223 217/224 215/220
f 217/224 218/225 215/220
f 152/228 153/227 151/226
f 153/227 155/229 151/226
f 218/225 217/224 219/226
f 217/224 220/229 219/226
f 155/229 146/230 151/226
f 146/230 144/231 151/226
f 147/234 143/233 148/232
f 143/233 145/235 148/232
f 144/231 146/230 145/235
f 146/230 148/232 145/235
usemtl texture6
f 221/238 210/237 211/236
f 209/237 222/238 212/236
f 223/241 224/240 207/239
f 207/239 224/240 205/242
f 223/241 207/239 221/238
f 207/239 210/237 221/238
f 206/242 225/240 208/239
f 225/240 226/241 208/239
f 226/241 222/238 208/239
f 208/239 222/238 209/237
f 217/245 227/244 220/243
f 228/244 218/245 219/243
f 214/248 229/247 216/246
f 229/247 230/249 216/246
f 230/249 227/244 216/246
f 216/246 227/244 217/245
f 231/249 232/247 215/246
f 215/246 232/247 213/248
f 231/249 215/246 228/244
f 215/246 218/245 228/244
usemtl texture7
f 233/252 234/251 235/250
f 236/253 235/250 234/251
f 234/256 237/255 236/254
f 238/257 236/254 237/255
f 237/255 239/258 238/257
f 240/259 238/257 239/258
f 241/261 233/252 242/260
f 235/250 242/260 233/252
f 243/263 241/261 244/262
f 242/260 244/262 241/261
f 239/258 245/264 240/259
f 246/265 240/259 245/264
f 247/267 243/263 248/266
f 244/262 248/266 243/263
f 245/264 249/268 246/265
f 250/269 246/265 249/268
f 251/271 247/267 252/270
f 248/266 252/270 247/267
f 249/268 253/272 250/269
f 254/273 250/269 253/272
f 255/275 251/271 256/274
f 252/270 256/274 251/271
f 253/272 257/275 254/273
f 258/274 254/273 257/275
f 259/272 255/275 260/273
f 256/274 260/273 255/275
f 257/275 261/271 258/274
f 262/270 258/274 261/271
f 261/271 263/267 262/270
f 264/266 262/270 263/267
f 265/268 259/272 266/269
f 260/273 266/269 259/272
f 267/264 265/268 268/265
f 266/269 268/265 265/268
f 263/267 269/263 264/266
f 270/262 264/266 269/263
f 269/263 271/261 270/262
f 272/260 270/262 271/261
f 273/258 267/264 274/259
f 268/265 274/259 267/264
f 271/261 275/252 272/260
f 276/250 272/260 275/252
f 277/255 273/258 278/257
f 274/259 278/257 273/258
f 279/256 277/255 280/254
f 278/257 280/254 277/255
f 275/252 279/251 276/250
f 280/253 276/250 279/251
usemtl texture8
f 281/278 282/277 283/276
f 283/276 282/277 284/279
f 281/278 285/280 282/277
f 285/280 286/281 282/277
f 284/279 282/277 287/282
f 282/277 288/283 287/282
f 286/281 289/284 282/277
f 282/277 289/284 288/283
f 283/287 290/286 291/285
f 290/286 292/288 291/285
f 293/291 285/290 294/289
f 285/290 295/292 294/289
f 285/290 293/291 286/293
f 293/291 296/294 286/293
f 290/286 283/287 297/295
f 283/287 284/296 297/295
f 297/295 284/296 298/297
f 284/296 287/298 298/297
f 296/294 299/299 286/293
f 286/293 299/299 289/300
f 287/303 300/302 301/301
f 300/302 302/304 301/301
f 289/307 303/306 304/305
f 304/305 303/306 305/308
f 298/310 287/303 306/309
f 287/303 301/301 306/309
f 299/312 307/311 289/307
f 289/307 307/311 303/306
f 283/315 291/314 308/313
f 308/313 291/314 309/316
f 285/319 310/318 295/317
f 310/318 311/320 295/317
f 300/323 312/322 302/321
f 312/322 313/324 302/321
f 314/327 304/326 315/325
f 304/326 305/328 315/325
f 316/331 290/330 317/329
f 290/330 297/332 317/329
f 318/335 319/334 293/333
f 293/333 319/334 296/336
f 296/336 319/334 299/337
f 319/334 320/338 299/337
f 317/329 297/332 321/339
f 297/332 298/340 321/339
f 290/343 322/342 292/341
f 322/342 323/344 292/341
f 293/347 294/346 324/345
f 324/345 294/346 325/348
f 299/312 320/349 307/311
f 320/349 326/350 307/311
f 321/352 298/310 327/351
f 298/310 306/309 327/351
f 312/322 328/353 313/324
f 328/353 329/354 313/324
f 330/356 314/327 331/355
f 314/327 315/325 331/355
f 322/342 308/313 323/344
f 308/313 309/316 323/344
f 310/318 324/345 311/320
f 324/345 325/348 311/320
f 332/358 316/331 333/357
f 316/331 317/329 333/357
f 318/335 334/359 319/334
f 334/359 335/360 319/334
f 333/357 317/329 336/361
f 317/329 321/339 336/361
f 319/334 335/360 320/338
f 335/360 337/362 320/338
f 320/349 337/363 326/350
f 337/363 338/364 326/350
f 336/366 321/352 339/365
f 321/352 327/351 339/365
f 328/353 340/367 329/354
f 340/367 341/368 329/354
f 342/370 330/356 343/369
f 330/356 331/355 343/369
f 332/358 333/357 344/371
f 344/371 333/357 345/372
f 334/359 346/373 335/360
f 346/373 347/374 335/360
f 345/372 333/357 348/375
f 333/357 336/361 348/375
f 335/360 347/374 337/362
f 347/374 349/376 337/362
f 336/366 339/365 348/377
f 348/377 339/365 350/378
f 351/380 338/364 349/379
f 337/363 349/379 338/364
f 340/367 352/381 341/368
f 352/381 353/382 341/368
f 354/384 342/370 355/383
f 342/370 343/369 355/383
f 344/387 356/386 357/385
f 357/385 356/386 358/388
f 346/391 359/390 360/389
f 359/390 361/392 360/389
f 362/395 363/394 344/393
f 344/393 363/394 356/396
f 364/399 346/398 365/397
f 346/398 360/400 365/397
f 344/393 345/401 362/395
f 362/395 345/401 366/402
f 346/398 364/399 347/403
f 364/399 367/404 347/403
f 366/402 345/401 368/405
f 345/401 348/406 368/405
f 347/403 367/404 349/407
f 367/404 369/408 349/407
f 348/377 350/378 368/409
f 368/409 350/378 370/410
f 349/379 369/411 351/380
f 369/411 371/412 351/380
f 352/381 372/413 353/382
f 372/413 373/414 353/382
f 374/416 354/384 375/415
f 354/384 355/383 375/415
f 376/418 357/385 377/417
f 357/385 358/388 377/417
f 359/390 378/419 361/392
f 378/419 379/417 361/392
f 380/421 376/418 381/420
f 376/418 377/417 381/420
f 378/419 382/422 379/417
f 382/422 383/423 379/417
f 372/413 384/424 373/414
f 384/424 385/425 373/414
f 386/427 374/416 387/426
f 374/416 375/415 387/426
f 368/409 370/410 388/428
f 388/428 370/410 389/429
f 369/411 390/430 371/412
f 390/430 391/431 371/412
f 392/433 366/402 388/432
f 366/402 368/405 388/432
f 367/404 393/434 369/408
f 393/434 390/435 369/408
f 394/436 393/434 364/399
f 364/399 393/434 367/404
f 395/437 362/395 392/433
f 362/395 366/402 392/433
f 364/399 365/397 394/436
f 394/436 365/397 396/438
f 362/395 395/437 363/394
f 395/437 397/439 363/394
f 395/441 380/421 397/440
f 380/421 381/420 397/440
f 394/443 396/442 382/422
f 382/422 396/442 383/423
f 384/424 398/444 385/425
f 398/444 399/445 385/425
f 400/447 386/427 401/446
f 386/427 387/426 401/446
f 402/449 388/428 403/448
f 388/428 389/429 403/448
f 404/451 405/450 390/430
f 390/430 405/450 391/431
f 393/454 406/453 390/452
f 406/453 404/455 390/452
f 407/360 392/374 402/362
f 392/374 388/376 402/362
f 408/359 395/373 407/360
f 395/373 392/374 407/360
f 409/457 406/453 394/456
f 394/456 406/453 393/454
f 398/444 410/458 399/445
f 410/458 411/459 399/445
f 412/461 400/447 413/460
f 400/447 401/446 413/460
f 414/463 402/449 415/462
f 402/449 403/448 415/462
f 404/451 416/464 405/450
f 416/464 417/465 405/450
f 418/334 407/360 414/338
f 407/360 402/362 414/338
f 406/453 419/466 404/455
f 419/466 416/467 404/455
f 420/335 408/359 418/334
f 408/359 407/360 418/334
f 409/457 421/468 406/453
f 421/468 419/466 406/453
f 422/471 423/470 424/469
f 423/470 425/472 424/469
f 426/475 427/474 428/473
f 427/474 429/476 428/473
f 410/458 430/477 411/459
f 430/477 431/478 411/459
f 432/480 412/461 433/479
f 412/461 413/460 433/479
f 416/464 434/481 417/465
f 434/481 435/482 417/465
f 436/484 414/463 437/483
f 414/463 415/462 437/483
f 438/486 439/485 427/474
f 427/474 439/485 429/476
f 440/488 422/471 441/487
f 422/471 424/469 441/487
f 442/336 418/334 436/337
f 418/334 414/338 436/337
f 419/466 443/489 416/467
f 443/489 434/490 416/467
f 420/335 418/334 438/333
f 438/333 418/334 442/336
f 421/468 440/491 419/466
f 440/491 443/489 419/466
f 430/477 444/492 431/478
f 444/492 445/493 431/478
f 446/495 432/480 447/494
f 432/480 433/479 447/494
f 448/497 426/475 449/496
f 426/475 428/473 449/496
f 450/499 451/498 423/470
f 423/470 451/498 425/472
f 436/484 437/483 452/500
f 452/500 437/483 453/501
f 454/503 435/482 455/502
f 434/481 455/502 435/482
f 452/500 453/501 444/504
f 444/504 453/501 445/505
f 455/502 446/506 454/503
f 446/506 447/507 454/503
f 442/510 436/509 456/508
f 456/508 436/509 452/511
f 443/514 457/513 434/512
f 457/513 455/515 434/512
f 448/517 438/516 456/508
f 438/516 442/510 456/508
f 440/519 450/518 443/514
f 450/518 457/513 443/514
f 438/516 448/517 439/520
f 448/517 449/521 439/520
f 450/518 440/519 451/522
f 440/519 441/523 451/522
f 456/525 452/524 458/277
f 458/277 452/524 459/283
f 457/527 458/277 455/526
f 458/277 459/283 455/526
f 460/278 448/528 458/277
f 448/528 456/525 458/277
f 460/278 458/277 450/529
f 450/529 458/277 457/527
usemtl texture9
f 306/532 301/531 313/530
f 301/531 461/533 313/530
f 327/535 306/532 329/534
f 306/532 313/530 329/534
f 339/537 327/535 341/536
f 327/535 329/534 341/536
f 350/539 339/537 353/538
f 339/537 341/536 353/538
f 462/541 350/539 463/540
f 350/539 353/538 463/540
f 389/543 462/541 385/542
f 462/541 463/540 385/542
f 403/545 389/543 399/544
f 389/543 385/542 399/544
f 415/547 403/545 411/546
f 403/545 399/544 411/546
f 437/549 415/547 431/548
f 415/547 411/546 431/548
f 453/551 437/549 445/550
f 437/549 431/548 445/550
g obj2
usemtl mat2
f 464/553 465/283 466/552
f 465/283 467/417 466/552
f 465/283 468/554 467/417
f 468/554 469/555 467/417
f 470/283 471/556 472/417
f 471/556 473/557 472/417
f 474/559 470/283 475/558
f 470/283 472/417 475/558
usemtl mat3
f 466/562 467/561 476/560
f 467/561 477/563 476/560
f 467/561 469/564 477/563
f 469/564 478/565 477/563
f 479/561 466/562 480/563
f 466/562 476/560 480/563
f 469/564 481/566 478/565
f 481/566 482/567 478/565
f 476/560 477/563 483/568
f 477/563 484/569 483/568
f 477/563 478/565 484/569
f 478/565 485/570 484/569
f 480/563 476/560 486/569
f 476/560 483/568 486/569
f 478/565 482/567 485/570
f 482/567 487/571 485/570
f 488/564 479/561 489/565
f 479/561 480/563 489/565
f 481/566 490/572 482/567
f 490/572 491/573 482/567
f 489/565 480/563 492/570
f 480/563 486/569 492/570
f 482/567 491/573 487/571
f 491/573 493/574 487/571
f 494/566 488/564 495/567
f 488/564 489/565 495/567
f 490/572 496/575 491/573
f 496/575 497/576 491/573
f 495/567 489/565 498/571
f 489/565 492/570 498/571
f 491/573 497/576 493/574
f 497/576 499/577 493/574
f 500/572 494/566 501/573
f 494/566 495/567 501/573
f 496/575 502/578 497/576
f 502/578 503/579 497/576
f 501/573 495/567 504/574
f 495/567 498/571 504/574
f 497/576 503/579 499/577
f 503/579 505/580 499/577
f 502/578 506/581 503/579
f 506/581 507/582 503/579
f 508/575 500/572 509/576
f 500/572 501/573 509/576
f 509/576 501/573 510/577
f 501/573 504/574 510/577
f 503/579 507/582 505/580
f 507/582 511/583 505/580
f 512/579 509/576 513/580
f 509/576 510/577 513/580
f 507/582 514/584 511/583
f 514/584 515/585 511/583
f 516/578 508/575 512/579
f 508/575 509/576 512/579
f 506/581 517/586 507/582
f 517/586 514/584 507/582
f 518/582 512/579 519/583
f 512/579 513/580 519/583
f 514/584 520/587 515/585
f 520/587 521/588 515/585
f 522/581 516/578 518/582
f 516/578 512/579 518/582
f 517/586 523/589 514/584
f 523/589 520/587 514/584
f 524/584 518/582 525/585
f 518/582 519/583 525/585
f 520/587 526/590 521/588
f 526/590 527/591 521/588
f 523/589 528/592 520/587
f 528/592 526/590 520/587
f 529/586 522/581 524/584
f 522/581 518/582 524/584
f 530/587 524/584 531/588
f 524/584 525/585 531/588
f 526/590 532/593 527/591
f 532/593 533/594 527/591
f 534/589 529/586 530/587
f 529/586 524/584 530/587
f 528/592 535/595 526/590
f 535/595 532/593 526/590
f 536/590 530/587 537/591
f 530/587 531/588 537/591
f 532/593 538/596 533/594
f 538/596 539/597 533/594
f 540/593 536/590 541/594
f 536/590 537/591 541/594
f 538/596 540/593 539/597
f 540/593 541/594 539/597
f 473/592 534/589 536/590
f 534/589 530/587 536/590
f 535/595 475/598 532/593
f 475/598 538/596 532/593
f 472/595 473/592 540/593
f 473/592 536/590 540/593
f 475/598 472/595 538/596
f 472/595 540/593 538/596
usemtl mat4
f 542/601 543/600 544/599
f 543/600 545/602 544/599
f 543/600 546/603 545/602
f 546/603 547/604 545/602
f 546/603 548/605 547/604
f 548/605 549/606 547/604
f 548/605 550/607 549/606
f 550/607 551/608 549/606
f 550/607 552/609 551/608
f 552/609 553/610 551/608
f 552/609 554/611 553/610
f 554/611 555/612 553/610
f 554/611 556/613 555/612
f 556/613 557/614 555/612
f 556/613 558/615 557/614
f 558/615 559/616 557/614
f 558/615 560/617 559/616
f 560/617 561/618 559/616
f 560/617 562/619 561/618
f 562/619 563/620 561/618
usemtl mat5
f 564/623 565/622 566/621
f 565/622 567/624 566/621
f 568/627 564/626 569/625
f 564/626 566/628 569/625
f 570/630 568/627 571/629
f 568/627 569/625 571/629
f 565/622 572/631 567/624
f 572/631 573/632 567/624
f 574/634 570/630 575/633
f 570/630 571/629 575/633
f 572/631 576/635 573/632
f 576/635 577/636 573/632
f 578/638 574/634 579/637
f 574/634 575/633 579/637
f 576/635 580/639 577/636
f 580/639 581/640 577/636
f 582/642 578/638 583/641
f 578/638 579/637 583/641
f 580/639 584/643 581/640
f 584/643 585/644 581/640
f 586/647 587/646 588/645
f 587/646 589/648 588/645
f 587/646 590/649 589/648
f 590/649 591/650 589/648
f 592/652 582/642 593/651
f 582/642 583/641 593/651
f 584/643 594/652 585/644
f 594/652 595/651 585/644
f 590/649 596/653 591/650
f 596/653 597/654 591/650
f 596/653 598/655 597/654
f 598/655 599/656 597/654
f 600/643 592/652 601/644
f 592/652 593/651 601/644
f 594/652 602/642 595/651
f 602/642 603/641 595/651
f 598/655 604/657 599/656
f 604/657 605/658 599/656
f 604/657 606/659 605/658
f 606/659 607/660 605/658
f 608/639 600/643 609/640
f 600/643 601/644 609/640
f 602/642 610/638 603/641
f 610/638 611/637 603/641
f 612/635 608/639 613/636
f 608/639 609/640 613/636
f 610/638 614/634 611/637
f 614/634 615/633 611/637
f 616/631 612/635 617/632
f 612/635 613/636 617/632
f 614/634 618/630 615/633
f 618/630 619/629 615/633
f 620/622 616/631 621/624
f 616/631 617/632 621/624
f 618/630 622/627 619/629
f 622/627 623/625 619/629
f 622/627 624/626 623/625
f 624/626 625/628 623/625
f 624/623 620/622 625/621
f 620/622 621/624 625/621
f 626/657 586/659 627/658
f 586/659 588/660 627/658
f 628/655 626/657 629/656
f 626/657 627/658 629/656
f 630/653 628/655 631/654
f 628/655 629/656 631/654
f 632/649 630/653 633/650
f 630/653 631/654 633/650
f 634/646 632/649 635/648
f 632/649 633/650 635/648
f 606/647 634/646 607/645
f 634/646 635/648 607/645
usemtl mat6
f 586/663 569/662 566/661
f 567/664 586/663 566/661
f 569/662 626/666 571/665
f 573/668 587/667 567/664
f 626/666 575/669 571/665
f 577/670 587/667 573/668
f 586/663 626/666 569/662
f 567/664 587/667 586/663
f 575/669 628/672 579/671
f 590/674 577/670 581/673
f 626/666 628/672 575/669
f 590/674 587/667 577/670
f 579/671 628/672 583/675
f 585/676 590/674 581/673
f 583/675 628/672 630/677
f 596/678 590/674 585/676
f 583/675 630/677 593/679
f 596/678 585/676 595/680
f 630/677 601/681 593/679
f 603/682 596/678 595/680
f 630/677 632/683 601/681
f 603/682 598/684 596/678
f 601/681 632/683 609/685
f 611/686 598/684 603/682
f 632/683 634/688 613/687
f 604/690 598/684 615/689
f 632/683 613/687 609/685
f 615/689 598/684 611/686
f 621/692 634/688 606/691
f 606/691 604/690 623/693
f 613/687 634/688 617/694
f 604/690 615/689 619/695
f 617/694 634/688 621/692
f 623/693 604/690 619/695
f 621/692 606/691 625/696
f 606/691 623/693 625/696
usemtl mat7
f 588/699 589/698 636/697
f 627/700 588/699 636/697
f 589/698 591/701 636/697
f 629/702 627/700 636/697
f 631/703 629/702 636/697
f 591/701 597/704 636/697
f 633/705 631/703 636/697
f 597/704 599/706 636/697
f 635/707 633/705 636/697
f 599/706 605/708 636/697
f 607/709 635/707 636/697
f 605/708 607/709 636/697
# 780 elements

