# Created by Metasequoia

mtllib Emperor12.mtl

v 13275.555664 172.359268 -29694.113281
v 13250.000000 172.359268 -29500.000000
v 13517.037109 172.359268 -29629.410156
v 13500.000000 172.359268 -29500.000000
v 13275.555664 172.359268 -29305.886719
v 13517.037109 172.359268 -29370.589844
v 13350.480469 172.359268 -29125.000000
v 13566.986328 172.359268 -29250.000000
v 13350.482422 172.359268 -29875.000000
v 13566.988281 172.359268 -29750.000000
v 13469.668945 172.359268 -28969.669922
v 13646.445313 172.359268 -29146.447266
v 13469.671875 172.359268 -30030.330078
v 13646.448242 172.359268 -29853.552734
v 13624.998047 172.359268 -28850.480469
v 13749.999023 172.359268 -29066.988281
v 13625.001953 172.359268 -30149.519531
v 13750.000977 172.359268 -29933.011719
v 13805.883789 172.359268 -28775.556641
v 13870.589844 172.359268 -29017.037109
v 13805.887695 172.359268 -30224.443359
v 13870.591797 172.359268 -29982.962891
v 13999.998047 172.359268 -28750.000000
v 13999.999023 172.359268 -29000.000000
v 14000.001953 172.359268 -30250.000000
v 14000.000977 172.359268 -30000.000000
v 14194.112305 172.359268 -28775.556641
v 14129.408203 172.359268 -29017.037109
v 14194.116211 172.359268 -30224.443359
v 14129.410156 172.359268 -29982.962891
v 14374.998047 172.359268 -28850.480469
v 14249.999023 172.359268 -29066.988281
v 14375.001953 172.359268 -30149.519531
v 14250.000977 172.359268 -29933.011719
v 14530.329102 172.359268 -28969.669922
v 14353.552734 172.359268 -29146.447266
v 14530.332031 172.359268 -30030.330078
v 14353.553711 172.359268 -29853.552734
v 14649.517578 172.359268 -29125.000000
v 14433.011719 172.359268 -29250.000000
v 14649.519531 172.359268 -29875.000000
v 14433.013672 172.359268 -29750.000000
v 14724.443359 172.359268 -29305.886719
v 14482.962891 172.359268 -29370.589844
v 14724.445313 172.359268 -29694.113281
v 14482.962891 172.359268 -29629.410156
v 14750.000000 172.359268 -29500.000000
v 14500.000000 172.359268 -29500.000000
v 13500.000000 142.359268 -29510.000000
v 13250.000000 142.359268 -29510.000000
v 13500.000000 162.359268 -29510.000000
v 13250.000000 162.359268 -29510.000000
v 13250.000000 142.359268 -29490.000000
v 13500.000000 142.359268 -29490.000000
v 13250.000000 162.359268 -29490.000000
v 13500.000000 162.359268 -29490.000000
v 13462.598633 162.359268 -28976.740234
v 13476.741211 162.359268 -28962.599609
v 13639.375000 162.359268 -29153.517578
v 13653.517578 162.359268 -29139.375000
v 13476.741211 142.359268 -28962.599609
v 13653.517578 142.359268 -29139.375000
v 13990.000000 142.359268 -29000.000000
v 13990.000000 142.359268 -28750.000000
v 13990.000000 162.359268 -29000.000000
v 13990.000000 162.359268 -28750.000000
v 14010.000000 162.359268 -28750.000000
v 14010.000000 162.359268 -29000.000000
v 14010.000000 142.359268 -28750.000000
v 14010.000000 142.359268 -29000.000000
v 14346.482422 142.359268 -29139.375000
v 14523.258789 142.359268 -28962.599609
v 14346.482422 162.359268 -29139.375000
v 14523.258789 162.359268 -28962.599609
v 14537.401367 162.359268 -28976.740234
v 14360.624023 162.359268 -29153.517578
v 14537.401367 142.359268 -28976.740234
v 14360.624023 142.359268 -29153.517578
v 14750.000000 142.359268 -29510.000000
v 14500.000000 142.359268 -29510.000000
v 14750.000000 162.359268 -29510.000000
v 14500.000000 162.359268 -29510.000000
v 14500.000000 142.359268 -29490.000000
v 14750.000000 142.359268 -29490.000000
v 14500.000000 162.359268 -29490.000000
v 14750.000000 162.359268 -29490.000000
v 13462.598633 142.359268 -30023.259766
v 13639.375977 142.359268 -29846.482422
v 13462.598633 162.359268 -30023.259766
v 13639.375977 162.359268 -29846.482422
v 13476.741211 162.359268 -30037.400391
v 13653.517578 162.359268 -29860.625000
v 13653.517578 142.359268 -29860.625000
v 13476.741211 142.359268 -30037.400391
v 13639.375000 142.359268 -29153.517578
v 13462.598633 142.359268 -28976.740234
v 14523.258789 142.359268 -30037.400391
v 14346.482422 142.359268 -29860.625000
v 14523.258789 162.359268 -30037.400391
v 14346.482422 162.359268 -29860.625000
v 14537.401367 162.359268 -30023.259766
v 14360.624023 162.359268 -29846.482422
v 14360.624023 142.359268 -29846.482422
v 14537.401367 142.359268 -30023.259766
v 13990.000000 142.359268 -30250.000000
v 13990.000000 142.359268 -30000.000000
v 13990.000000 162.359268 -30250.000000
v 13990.000000 162.359268 -30000.000000
v 14010.000000 162.359268 -30250.000000
v 14010.000000 162.359268 -30000.000000
v 14010.000000 142.359268 -30000.000000
v 14010.000000 142.359268 -30250.000000
v 13409.209961 42.692841 -29589.515625
v 13349.571289 -292.989929 -29589.515625
v 13409.209961 42.692841 -29410.484375
v 13349.571289 -292.989929 -29410.484375
v 13502.000000 -332.748810 -29589.515625
v 13517.833008 71.798317 -29589.515625
v 13502.000000 -332.748810 -29410.484375
v 13517.833008 71.798317 -29410.484375
v 14498.000000 -332.748810 -29589.515625
v 14482.166992 71.798317 -29589.515625
v 14650.428711 -292.989929 -29589.515625
v 14590.790039 42.692841 -29589.515625
v 14498.000000 -332.748810 -29410.484375
v 14650.428711 -292.989929 -29410.484375
v 14482.166992 71.798317 -29410.484375
v 14590.790039 42.692841 -29410.484375
v 13980.000000 176.359268 -30522.738281
v 13980.000000 176.359268 -30490.000000
v 13980.000000 218.359177 -30490.000000
v 14020.000000 176.359268 -30490.000000
v 14020.000000 176.359268 -30522.738281
v 14020.000000 218.359177 -30490.000000
v 13980.000000 15.359380 -30574.914063
v 13980.000000 15.359380 -30490.000000
v 13980.000000 93.359367 -30574.914063
v 13980.000000 93.359367 -30490.000000
v 14020.000000 93.359367 -30490.000000
v 14020.000000 15.359380 -30490.000000
v 14020.000000 93.359367 -30574.914063
v 14020.000000 15.359380 -30574.914063
v 13980.000000 176.359268 -28510.000000
v 13980.000000 176.359268 -28477.261719
v 13980.000000 218.359268 -28510.000000
v 14020.000000 176.359268 -28477.261719
v 14020.000000 176.359268 -28510.000000
v 14020.000000 218.359268 -28510.000000
v 13980.000000 93.359367 -28510.000000
v 13980.000000 15.359380 -28510.000000
v 13980.000000 93.359367 -28425.085938
v 13980.000000 15.359380 -28425.085938
v 14020.000000 15.359380 -28425.085938
v 14020.000000 15.359380 -28510.000000
v 14020.000000 93.359367 -28425.085938
v 14020.000000 93.359367 -28510.000000
v 13275.555664 172.359268 -29694.113281
v 13250.000000 172.359268 -29500.000000
v 13306.298828 15.146970 -29685.876953
v 13281.829102 15.146970 -29500.000000
v 13275.556641 172.359268 -29305.886719
v 13306.300781 15.146970 -29314.123047
v 13350.480469 172.359268 -29875.000000
v 13378.044922 15.146970 -29859.085938
v 13350.482422 172.359268 -29125.000000
v 13378.045898 15.146970 -29140.914063
v 13469.668945 172.359268 -30030.330078
v 13492.174805 15.146970 -30007.824219
v 13469.671875 172.359268 -28969.669922
v 13492.177734 15.146970 -28992.175781
v 13624.999023 172.359268 -30149.519531
v 13640.913086 15.146970 -30121.955078
v 13625.001953 172.359268 -28850.480469
v 13640.916016 15.146970 -28878.044922
v 13805.884766 172.359268 -30224.443359
v 13814.122070 15.146970 -30193.701172
v 13805.887695 172.359268 -28775.556641
v 13814.125977 15.146970 -28806.298828
v 13999.998047 172.359268 -30250.000000
v 13999.999023 15.146970 -30218.171875
v 14000.001953 172.359268 -28750.000000
v 14000.001953 15.146970 -28781.828125
v 14194.113281 172.359268 -30224.443359
v 14185.875000 15.146970 -30193.701172
v 14194.116211 172.359268 -28775.556641
v 14185.877930 15.146970 -28806.300781
v 14374.999023 172.359268 -30149.519531
v 14359.083984 15.146970 -30121.955078
v 14375.001953 172.359268 -28850.480469
v 14359.087891 15.146970 -28878.044922
v 14530.329102 172.359268 -30030.330078
v 14507.823242 15.146970 -30007.824219
v 14530.331055 172.359268 -28969.669922
v 14507.825195 15.146970 -28992.175781
v 14649.518555 172.359268 -29875.000000
v 14621.954102 15.146970 -29859.085938
v 14649.520508 172.359268 -29125.000000
v 14621.955078 15.146970 -29140.914063
v 14724.444336 172.359268 -29694.113281
v 14693.700195 15.146970 -29685.876953
v 14724.445313 172.359268 -29305.886719
v 14693.701172 15.146970 -29314.123047
v 14750.000000 172.359268 -29500.000000
v 14718.171875 15.146970 -29500.000000
v 13969.925781 -279.233826 -30128.394531
v 14030.074219 -279.233826 -30128.394531
v 13969.925781 -31.469730 -30128.394531
v 14030.074219 -31.469730 -30128.394531
v 14030.074219 93.337173 -30206.851563
v 13969.925781 93.337173 -30206.851563
v 13969.925781 156.492462 -30256.080078
v 14030.074219 156.492462 -30256.080078
v 14030.074219 -279.233826 -28871.603516
v 13969.925781 -279.233826 -28871.603516
v 14030.074219 -31.469730 -28871.603516
v 13969.925781 -31.469730 -28871.603516
v 13969.925781 93.337173 -28793.148438
v 14030.074219 93.337173 -28793.148438
v 14030.074219 156.492462 -28743.919922
v 13969.925781 156.492462 -28743.919922
v 13969.925781 93.337173 -30256.080078
v 14030.074219 93.337173 -30256.080078
v 13969.925781 -31.469730 -30256.080078
v 13969.925781 -279.233826 -30256.080078
v 14030.074219 -279.233826 -30256.080078
v 14030.074219 -31.469730 -30256.080078
v 13969.925781 93.337173 -28743.919922
v 14030.074219 93.337173 -28743.919922
v 13969.925781 -279.233826 -28743.919922
v 13969.925781 -31.469730 -28743.919922
v 14030.074219 -31.469730 -28743.919922
v 14030.074219 -279.233826 -28743.919922
v 13474.467773 12.359380 -29500.000000
v 13492.375000 12.359380 -29363.982422
v 13500.000000 172.359268 -29500.000000
v 13517.037109 172.359268 -29370.589844
v 13492.375000 12.359380 -29636.017578
v 13517.037109 172.359268 -29629.410156
v 13544.875977 12.359380 -29762.765625
v 13566.987305 172.359268 -29750.000000
v 13544.875977 12.359380 -29237.234375
v 13566.987305 172.359268 -29250.000000
v 13628.392578 12.359380 -29871.607422
v 13646.446289 172.359268 -29853.552734
v 13628.392578 12.359380 -29128.392578
v 13646.446289 172.359268 -29146.447266
v 13737.233398 12.359380 -29955.125000
v 13750.000000 172.359268 -29933.011719
v 13737.233398 12.359380 -29044.875000
v 13750.000000 172.359268 -29066.988281
v 13863.982422 12.359380 -30007.625000
v 13870.590820 172.359268 -29982.962891
v 13863.982422 12.359380 -28992.375000
v 13870.590820 172.359268 -29017.037109
v 14000.000000 12.359380 -30025.531250
v 14000.000000 172.359268 -30000.000000
v 14000.000000 12.359380 -28974.468750
v 14000.000000 172.359268 -29000.000000
v 14136.017578 12.359380 -30007.625000
v 14129.409180 172.359268 -29982.962891
v 14136.017578 12.359380 -28992.375000
v 14129.409180 172.359268 -29017.037109
v 14262.765625 12.359380 -29955.125000
v 14250.000000 172.359268 -29933.011719
v 14262.765625 12.359380 -29044.875000
v 14250.000000 172.359268 -29066.988281
v 14371.607422 12.359380 -29871.607422
v 14353.552734 172.359268 -29853.552734
v 14371.607422 12.359380 -29128.392578
v 14353.552734 172.359268 -29146.447266
v 14455.124023 12.359380 -29762.765625
v 14433.012695 172.359268 -29750.000000
v 14455.124023 12.359380 -29237.234375
v 14433.012695 172.359268 -29250.000000
v 14507.625000 12.359380 -29636.017578
v 14482.962891 172.359268 -29629.410156
v 14507.625000 12.359380 -29363.982422
v 14482.962891 172.359268 -29370.589844
v 14525.532227 12.359380 -29500.000000
v 14500.000000 172.359268 -29500.000000
v 12944.247070 15.146970 -29500.000000
v 12949.492188 93.359367 -29500.000000
v 12980.221680 15.146970 -29773.248047
v 12985.288086 93.359367 -29771.890625
v 12980.221680 15.146970 -29226.751953
v 12985.288086 93.359367 -29228.109375
v 13034.074219 172.359268 -29758.818359
v 13000.000000 172.359268 -29500.000000
v 13034.074219 172.359268 -29241.181641
v 13085.691406 15.146970 -30027.876953
v 12980.221680 -47.640629 -29773.248047
v 13085.691406 -47.640629 -30027.876953
v 13085.691406 15.146970 -28972.123047
v 13085.691406 -47.640629 -28972.123047
v 12980.221680 -47.640629 -29226.751953
v 13090.233398 93.359367 -30025.253906
v 13090.233398 93.359367 -28974.746094
v 13133.974609 172.359268 -30000.000000
v 13133.974609 172.359268 -29000.000000
v 13094.444336 172.359268 -29742.642578
v 13034.074219 176.359161 -29758.818359
v 13094.444336 176.359161 -29742.642578
v 13034.074219 176.359161 -29241.181641
v 13094.444336 172.359268 -29257.357422
v 13094.444336 176.359161 -29257.357422
v 13133.974609 176.359161 -29000.000000
v 13133.974609 176.359161 -30000.000000
v 13235.166016 15.146970 -29704.937500
v 13235.166016 -47.640629 -29704.937500
v 13235.166016 15.146970 -29295.062500
v 13235.166016 -47.640629 -29295.062500
v 13188.100586 172.359268 -29031.250000
v 13188.100586 176.359161 -29031.250000
v 13188.101563 172.359268 -29968.750000
v 13188.101563 176.359161 -29968.750000
v 13253.469727 15.146970 -30246.529297
v 13257.178711 93.359367 -30242.820313
v 13253.469727 15.146970 -28753.470703
v 13257.178711 93.359367 -28757.179688
v 13292.893555 172.359268 -30207.107422
v 13292.893555 172.359268 -28792.892578
v 13314.268555 15.146970 -29895.906250
v 13314.268555 -47.640629 -29895.906250
v 13314.268555 15.146970 -29104.091797
v 13314.268555 -47.640629 -29104.091797
v 13292.893555 176.359161 -28792.892578
v 13292.893555 176.359161 -30207.107422
v 13337.087891 172.359268 -28837.087891
v 13337.087891 176.359161 -28837.087891
v 13337.087891 172.359268 -30162.912109
v 13337.087891 176.359161 -30162.912109
v 13472.123047 15.146970 -30414.308594
v 13474.746094 93.359367 -30409.765625
v 13472.123047 15.146970 -28585.691406
v 13474.746094 93.359367 -28590.234375
v 13500.000000 172.359268 -30366.025391
v 13500.000000 172.359268 -28633.974609
v 13500.000000 176.359161 -30366.025391
v 13500.000000 176.359161 -28633.974609
v 13531.250000 172.359268 -30311.898438
v 13531.250000 176.359161 -30311.898438
v 13531.250000 172.359268 -28688.101563
v 13531.250000 176.359161 -28688.101563
v 13726.750977 15.146970 -30519.779297
v 13728.108398 93.359367 -30514.712891
v 13726.750977 15.146970 -28480.220703
v 13728.108398 93.359367 -28485.287109
v 13741.180664 172.359268 -30465.925781
v 13741.180664 172.359268 -28534.074219
v 13741.181641 176.359161 -30465.925781
v 13741.180664 176.359161 -28534.074219
v 13757.357422 172.359268 -30405.554688
v 13757.357422 176.359161 -30405.554688
v 13757.357422 172.359268 -28594.445313
v 13757.357422 176.359161 -28594.445313
v 13726.750977 -47.640629 -30519.779297
v 13795.063477 15.146970 -30264.833984
v 13795.063477 -47.640629 -30264.833984
v 13795.063477 15.146970 -28735.166016
v 13726.750977 -47.640629 -28480.220703
v 13795.063477 -47.640629 -28735.166016
v 14000.000000 15.146970 -30555.751953
v 14000.000000 -47.640629 -30555.751953
v 14000.000000 15.146970 -28444.246094
v 14000.000000 -47.640629 -28444.246094
v 14000.000000 93.359367 -30550.507813
v 14000.000000 93.359367 -28449.492188
v 14000.000000 172.359268 -30500.000000
v 14000.000000 172.359268 -28500.000000
v 14000.000000 176.359161 -30500.000000
v 14000.000000 176.359161 -28500.000000
v 14000.000000 172.359268 -28562.500000
v 14000.000000 176.359161 -28562.500000
v 14000.000000 172.359268 -30437.500000
v 14000.000000 176.359161 -30437.500000
v 14000.000000 15.146970 -30291.814453
v 14000.000000 -47.640629 -30291.814453
v 14000.000000 15.146970 -28708.185547
v 14000.000000 -47.640629 -28708.185547
v 14204.936523 15.146970 -30264.833984
v 14204.936523 -47.640629 -30264.833984
v 14204.936523 15.146970 -28735.166016
v 14204.936523 -47.640629 -28735.166016
v 14242.642578 172.359268 -28594.445313
v 14242.642578 176.359161 -28594.445313
v 14242.642578 172.359268 -30405.554688
v 14242.642578 176.359161 -30405.554688
v 14258.818359 172.359268 -28534.074219
v 14258.818359 176.359161 -28534.074219
v 14258.819336 172.359268 -30465.925781
v 14258.819336 176.359161 -30465.925781
v 14271.891602 93.359367 -30514.712891
v 14271.890625 93.359367 -28485.287109
v 14273.249023 15.146970 -30519.779297
v 14273.249023 15.146970 -28480.220703
v 14273.249023 -47.640629 -30519.779297
v 14273.249023 -47.640629 -28480.220703
v 14468.750000 172.359268 -30311.898438
v 14468.750000 176.359161 -30311.898438
v 14468.750000 172.359268 -28688.101563
v 14468.750000 176.359161 -28688.101563
v 14500.000000 172.359268 -30366.025391
v 14500.000000 176.359161 -30366.025391
v 14500.000000 172.359268 -28633.974609
v 14500.000000 176.359161 -28633.974609
v 14525.253906 93.359367 -28590.234375
v 14525.253906 93.359367 -30409.765625
v 14527.875977 15.146970 -30414.308594
v 14527.875977 15.146970 -28585.691406
v 14662.912109 172.359268 -30162.912109
v 14662.912109 176.359161 -30162.912109
v 14662.912109 172.359268 -28837.087891
v 14662.912109 176.359161 -28837.087891
v 14707.106445 172.359268 -30207.107422
v 14707.106445 176.359161 -30207.107422
v 14707.106445 172.359268 -28792.892578
v 14707.106445 176.359161 -28792.892578
v 14742.820313 93.359367 -30242.820313
v 14742.820313 93.359367 -28757.179688
v 14746.529297 15.146970 -30246.529297
v 14746.529297 15.146970 -28753.470703
v 14685.731445 15.146970 -29104.093750
v 14764.833984 15.146970 -29295.062500
v 14685.731445 -47.640629 -29104.093750
v 14764.833984 -47.640629 -29295.062500
v 14764.833984 15.146970 -29704.937500
v 14685.731445 15.146970 -29895.906250
v 14764.833984 -47.640629 -29704.937500
v 14685.731445 -47.640629 -29895.906250
v 14811.898438 172.359268 -29031.250000
v 14811.898438 176.359161 -29031.250000
v 14811.898438 172.359268 -29968.750000
v 14811.898438 176.359161 -29968.750000
v 14866.025391 172.359268 -29000.000000
v 14866.025391 176.359161 -29000.000000
v 14866.025391 172.359268 -30000.000000
v 14866.025391 176.359161 -30000.000000
v 14914.308594 15.146970 -30027.876953
v 14914.307617 -47.640629 -30027.876953
v 14914.308594 15.146970 -28972.123047
v 14914.308594 -47.640629 -28972.123047
v 14909.765625 93.359367 -28974.746094
v 14909.765625 93.359367 -30025.253906
v 14905.554688 172.359268 -29742.642578
v 14905.554688 176.359161 -29742.642578
v 14905.554688 172.359268 -29257.357422
v 14905.554688 176.359161 -29257.357422
v 15019.779297 15.146970 -29773.248047
v 15019.779297 -47.640629 -29773.248047
v 15019.779297 15.146970 -29226.751953
v 15019.779297 -47.640629 -29226.751953
v 14965.925781 176.359161 -29241.181641
v 14965.925781 172.359268 -29241.181641
v 14965.925781 172.359268 -29758.818359
v 14965.925781 176.359161 -29758.818359
v 15014.712891 93.359367 -29771.890625
v 15014.712891 93.359367 -29228.109375
v 15050.507813 93.359367 -29500.000000
v 15000.000000 172.359268 -29500.000000
v 15055.752930 15.146970 -29500.000000
v 14000.000000 176.359268 -30500.000000
v 14000.000000 176.359268 -30437.500000
v 13034.074219 172.359268 -29758.818359
v 13000.000000 172.359268 -29500.000000
v 13094.444336 172.359268 -29742.642578
v 13062.500000 172.359268 -29500.000000
v 13034.074219 172.359268 -29241.181641
v 13094.444336 172.359268 -29257.357422
v 15000.000000 172.359268 -29500.000000
v 14965.925781 172.359268 -29758.818359
v 14937.500000 172.359268 -29500.000000
v 14905.554688 172.359268 -29742.642578
v 14965.925781 172.359268 -29241.181641
v 14905.554688 172.359268 -29257.357422
v 13154.814453 172.359268 -29726.466797
v 13125.000000 172.359268 -29500.000000
v 13154.814453 172.359268 -29273.533203
v 13188.100586 172.359268 -29968.750000
v 13242.227539 172.359268 -29937.500000
v 13188.100586 172.359268 -29031.250000
v 13242.227539 172.359268 -29062.500000
v 13275.555664 172.359268 -29694.113281
v 13250.000000 172.359268 -29500.000000
v 13275.555664 172.359268 -29305.886719
v 13350.480469 172.359268 -29875.000000
v 13350.481445 172.359268 -29125.000000
v 13337.087891 172.359268 -30162.912109
v 13381.281250 172.359268 -30118.718750
v 13337.087891 172.359268 -28837.087891
v 13381.281250 172.359268 -28881.281250
v 13469.669922 172.359268 -30030.330078
v 13469.669922 172.359268 -28969.669922
v 13531.250000 172.359268 -30311.898438
v 13562.500000 172.359268 -30257.771484
v 13531.250000 172.359268 -28688.101563
v 13562.500000 172.359268 -28742.228516
v 13625.000000 172.359268 -30149.519531
v 13625.000000 172.359268 -28850.480469
v 13757.357422 172.359268 -30405.554688
v 13773.533203 172.359268 -30345.185547
v 13757.357422 172.359268 -28594.445313
v 13773.533203 172.359268 -28654.814453
v 13805.885742 172.359268 -30224.443359
v 13805.885742 172.359268 -28775.556641
v 14000.000000 172.359268 -30437.500000
v 14000.000000 172.359268 -30375.000000
v 14000.000000 172.359268 -28562.500000
v 14000.000000 172.359268 -28625.000000
v 14000.000000 172.359268 -30250.000000
v 14000.000000 172.359268 -28750.000000
v 14226.466797 172.359268 -30345.185547
v 14194.114258 172.359268 -30224.443359
v 14226.466797 172.359268 -28654.814453
v 14194.114258 172.359268 -28775.556641
v 14242.642578 172.359268 -30405.554688
v 14242.642578 172.359268 -28594.445313
v 14437.500000 172.359268 -30257.771484
v 14375.000000 172.359268 -30149.519531
v 14437.500000 172.359268 -28742.228516
v 14375.000000 172.359268 -28850.480469
v 14468.750000 172.359268 -30311.898438
v 14468.750000 172.359268 -28688.101563
v 14618.717773 172.359268 -30118.718750
v 14530.330078 172.359268 -30030.330078
v 14618.717773 172.359268 -28881.281250
v 14530.330078 172.359268 -28969.669922
v 14662.912109 172.359268 -28837.087891
v 14662.912109 172.359268 -30162.912109
v 14757.771484 172.359268 -29062.500000
v 14649.519531 172.359268 -29125.000000
v 14757.771484 172.359268 -29937.500000
v 14649.519531 172.359268 -29875.000000
v 14811.898438 172.359268 -29968.750000
v 14811.898438 172.359268 -29031.250000
v 14845.185547 172.359268 -29726.466797
v 14724.444336 172.359268 -29694.113281
v 14845.185547 172.359268 -29273.533203
v 14724.444336 172.359268 -29305.886719
v 14875.000000 172.359268 -29500.000000
v 14750.000000 172.359268 -29500.000000
v 13034.074219 176.359161 -29241.181641
v 13133.974609 176.359268 -29000.000000
v 13094.444336 176.359161 -29257.357422
v 13188.100586 176.359268 -29031.250000
v 13292.893555 176.359161 -28792.892578
v 13337.087891 176.359161 -28837.087891
v 13500.000000 176.359161 -28633.974609
v 13531.250000 176.359161 -28688.101563
v 13741.180664 176.359161 -28534.074219
v 13757.357422 176.359161 -28594.445313
v 14000.000000 176.359161 -28500.000000
v 14000.000000 176.359161 -28562.500000
v 14258.818359 176.359161 -28534.074219
v 14242.642578 176.359161 -28594.445313
v 14500.000000 176.359161 -28633.974609
v 14468.750000 176.359161 -28688.101563
v 14707.106445 176.359161 -28792.892578
v 14662.912109 176.359161 -28837.087891
v 14866.025391 176.359161 -29000.000000
v 14811.898438 176.359161 -29031.250000
v 14965.925781 176.359161 -29241.181641
v 14905.554688 176.359161 -29257.357422
v 13500.000000 172.359283 -29500.000000
v 13517.037109 172.359283 -29370.589844
v 13537.267578 172.359283 -29500.000000
v 13553.034180 172.359283 -29380.238281
v 13517.037109 172.359283 -29629.410156
v 13553.034180 172.359283 -29619.761719
v 13566.987305 172.359283 -29750.000000
v 13599.261719 172.359283 -29731.365234
v 13566.987305 172.359283 -29250.000000
v 13599.261719 172.359283 -29268.634766
v 13646.447266 172.359283 -29853.552734
v 13672.798828 172.359283 -29827.199219
v 13646.446289 172.359283 -29146.447266
v 13672.798828 172.359283 -29172.800781
v 13750.000000 172.359283 -29066.988281
v 13768.633789 172.359283 -29099.261719
v 13750.000000 172.359283 -29933.011719
v 13768.633789 172.359283 -29900.738281
v 13870.590820 172.359283 -29982.962891
v 13880.236328 172.359283 -29946.964844
v 13870.590820 172.359283 -29017.037109
v 13880.236328 172.359283 -29053.035156
v 13880.000000 172.359268 -29500.000000
v 13896.078125 172.359268 -29440.000000
v 13915.882813 172.359283 -29500.000000
v 13927.148438 172.359283 -29457.941406
v 13939.999023 172.359268 -29396.076172
v 13957.945313 172.359283 -29427.148438
v 14000.000000 172.359283 -30000.000000
v 14000.000000 172.359283 -29962.732422
v 14000.000000 172.359283 -29000.000000
v 14000.000000 172.359283 -29037.267578
v 14000.000000 172.359268 -29380.000000
v 14000.007813 172.359283 -29415.880859
v 14060.000977 172.359268 -29396.076172
v 14042.062500 172.359283 -29427.152344
v 14129.409180 172.359283 -29982.962891
v 14119.763672 172.359283 -29946.964844
v 14129.409180 172.359283 -29017.037109
v 14119.763672 172.359283 -29053.035156
v 14103.921875 172.359268 -29440.000000
v 14072.851563 172.359283 -29457.943359
v 14120.000000 172.359268 -29500.000000
v 14084.117188 172.359283 -29500.000000
v 14250.000000 172.359283 -29933.011719
v 14231.366211 172.359283 -29900.738281
v 14250.000000 172.359283 -29066.988281
v 14231.366211 172.359283 -29099.261719
v 14353.552734 172.359283 -29853.552734
v 14327.201172 172.359283 -29827.199219
v 14353.552734 172.359283 -29146.447266
v 14327.201172 172.359283 -29172.800781
v 14433.012695 172.359283 -29750.000000
v 14400.738281 172.359283 -29731.365234
v 14433.012695 172.359283 -29250.000000
v 14400.738281 172.359283 -29268.634766
v 14482.962891 172.359283 -29629.410156
v 14446.965820 172.359283 -29619.761719
v 14482.962891 172.359283 -29370.589844
v 14446.965820 172.359283 -29380.238281
v 14500.000000 172.359283 -29500.000000
v 14462.732422 172.359283 -29500.000000
v 13896.078125 172.359268 -29560.000000
v 13927.156250 172.359283 -29542.060547
v 13940.000000 172.359268 -29603.923828
v 13957.945313 172.359283 -29572.849609
v 14000.000000 172.359268 -29620.000000
v 13999.992188 172.359283 -29584.117188
v 14060.000977 172.359268 -29603.923828
v 14042.054688 172.359283 -29572.843750
v 14103.921875 172.359268 -29560.000000
v 14072.851563 172.359283 -29542.058594
v 14000.000000 172.359268 -29500.000000
# 635 vertices

vt 6.61960 1.84840
vt 7.99990 -1.00000
vt 5.92940 -0.72740
vt 7.99990 1.66670
vt 10.07050 -0.72730
vt 9.38030 1.84840
vt 11.99990 0.07180
vt 10.66660 2.38120
vt 5.33330 2.38120
vt 3.99990 0.07180
vt 13.65680 1.34320
vt 11.77120 3.22880
vt 4.22870 3.22880
vt 2.34310 1.34320
vt 14.92820 3.00010
vt 12.61880 4.33340
vt 3.38110 4.33340
vt 1.07170 3.00010
vt 15.72740 4.92950
vt 13.15160 5.61970
vt 2.84830 5.61970
vt 0.27250 4.92950
vt 15.99990 7.00010
vt 13.33330 7.00010
vt 2.66660 7.00010
vt 0.00000 7.00010
vt 15.72740 9.07060
vt 13.15160 8.38040
vt 2.84830 8.38040
vt 0.27250 9.07060
vt 14.92820 11.00000
vt 12.61880 9.66670
vt 3.38110 9.66670
vt 1.07170 11.00000
vt 13.65680 12.65690
vt 11.77120 10.77130
vt 4.22870 10.77130
vt 2.34310 12.65690
vt 11.99990 13.92820
vt 10.66660 11.61890
vt 5.33330 11.61890
vt 3.99990 13.92830
vt 10.07050 14.72740
vt 9.38030 12.15170
vt 6.61960 12.15170
vt 5.92940 14.72740
vt 7.99990 12.33340
vt 7.99990 14.99990
vt -0.99990 -0.46150
vt 0.00000 -0.61970
vt -0.99990 -0.61970
vt 0.00000 -0.46150
vt 0.99990 -0.46150
vt 1.99990 -0.61970
vt 0.99990 -0.61970
vt 1.99990 -0.46150
vt 0.00190 -0.86250
vt 0.99800 -0.99810
vt 0.99800 -0.86250
vt 0.00190 -0.99810
vt 0.00190 -0.45720
vt 0.99800 -0.61770
vt 0.00190 -0.61770
vt 0.99800 -0.45720
vt -0.99990 -0.45520
vt 0.00000 -0.62590
vt -0.99990 -0.62590
vt 0.00000 -0.45520
vt 0.00190 -0.86620
vt 0.99800 -0.86620
vt 0.99990 -0.46320
vt 1.99990 -0.62640
vt 0.99990 -0.62640
vt 1.99990 -0.46320
vt -0.49990 -0.46000
vt 0.49680 -0.63480
vt -0.49990 -0.63480
vt 0.49680 -0.46000
vt -0.49880 -0.45960
vt 0.49990 -0.63520
vt -0.49880 -0.63520
vt 0.49990 -0.45960
vt 0.00190 0.53860
vt 0.99800 0.37630
vt 0.00190 0.37630
vt 0.99800 0.53860
vt 0.99800 0.13780
vt 0.00190 -0.00620
vt 0.00190 0.13780
vt 0.99800 -0.00620
vt 0.00190 0.54020
vt 0.99800 0.38210
vt 0.00190 0.38210
vt 0.99800 0.54020
vt 0.00190 0.54210
vt 0.99800 0.38020
vt 0.00190 0.38020
vt 0.99800 0.54210
vt 0.00190 0.13400
vt 0.99800 -0.00240
vt 0.99800 0.13400
vt 0.00190 -0.00240
vt 0.00190 0.54110
vt 0.99800 0.37750
vt 0.00190 0.37750
vt 0.99800 0.54110
vt 0.00190 0.54340
vt 0.99800 0.37890
vt 0.00190 0.37890
vt 0.99800 0.54340
vt 0.99800 0.13330
vt 0.00190 -0.00170
vt 0.00190 0.13330
vt 0.99800 -0.00170
vt 0.99800 0.53970
vt 0.00190 0.37770
vt 0.99800 0.37770
vt 0.00190 0.53970
vt 0.92040 0.01300
vt -0.24920 0.80210
vt 0.92040 0.80210
vt -0.24920 0.01300
vt 1.09380 -0.03970
vt -0.37910 0.62740
vt -0.41600 -0.03970
vt 0.92290 0.45740
vt -0.18170 0.64240
vt 1.23780 -0.04390
vt -0.29280 -0.04390
vt 1.14840 0.45310
vt 1.03590 0.52950
vt 0.04310 0.00190
vt 1.03590 0.00190
vt 0.04310 0.52950
vt 1.00320 -0.12750
vt 0.75170 -0.12750
vt 0.75170 -0.28880
vt 0.25460 -0.54580
vt -0.21230 -0.12750
vt -0.21230 -0.54580
vt 0.25460 -0.12750
vt 1.26810 -1.12980
vt 0.99350 -1.29110
vt 0.99350 -1.12980
vt 0.45090 -1.54810
vt -0.05890 -1.12980
vt 0.45090 -1.12980
vt -0.05890 -1.54810
vt 0.99800 0.62490
vt 0.00190 0.00190
vt 0.00190 0.62490
vt 0.99800 0.00190
vt 7.75110 -0.28090
vt 8.00050 -0.03970
vt 7.75110 -0.03970
vt 8.00050 -0.28090
vt 8.24990 -0.03970
vt 8.24990 -0.28090
vt 7.50170 -0.28090
vt 7.50170 -0.03970
vt 8.49930 -0.03970
vt 8.49930 -0.28090
vt 7.25230 -0.28090
vt 7.25230 -0.03970
vt 8.74870 -0.03970
vt 8.74870 -0.28090
vt 7.00280 -0.28090
vt 7.00280 -0.03970
vt 8.99810 -0.03970
vt 8.99810 -0.28090
vt 6.75340 -0.28090
vt 6.75340 -0.03970
vt 9.24750 -0.03970
vt 9.24750 -0.28090
vt 6.50400 -0.28090
vt 6.50400 -0.03970
vt 9.49690 -0.03970
vt 9.49690 -0.28090
vt 6.25460 -0.28090
vt 6.25460 -0.03970
vt 9.74630 -0.03970
vt 9.74630 -0.28090
vt 6.00520 -0.28090
vt 6.00520 -0.03970
vt 9.99570 -0.03970
vt 9.99570 -0.28090
vt 5.75580 -0.28090
vt 5.75580 -0.03970
vt 10.24510 -0.03970
vt 10.24510 -0.28090
vt 5.50640 -0.28090
vt 5.50640 -0.03970
vt 10.49450 -0.03970
vt 10.49450 -0.28090
vt 5.25700 -0.28090
vt 5.25700 -0.03970
vt 10.74390 -0.03970
vt 10.74390 -0.28090
vt 5.00760 -0.28090
vt 5.00760 -0.03970
vt 10.99330 -0.03970
vt 10.99330 -0.28090
vt -1.74250 -0.00200
vt -4.74360 -0.99810
vt -4.74360 -0.00200
vt -1.74250 -0.99810
vt 0.01070 -0.99810
vt 0.01070 -0.00200
vt -0.37340 -0.00200
vt -1.24690 -0.99810
vt -1.24690 -0.00200
vt -0.37340 -0.99810
vt 0.99800 -0.00200
vt 1.02710 -0.99810
vt 1.02710 -0.00200
vt 1.69130 -0.00200
vt 1.69130 -0.99810
vt 2.24690 -0.00200
vt 2.24690 -0.99810
vt -1.49820 -1.00200
vt -3.24960 -1.99810
vt -3.24960 -1.00200
vt -1.49820 -1.99810
vt -0.00300 -1.99810
vt -0.00300 -1.00200
vt 0.99800 -1.00200
vt 0.00190 -1.99810
vt 0.00190 -1.00200
vt 0.99800 -1.99810
vt 2.24300 -1.99810
vt 2.24300 -1.00200
vt 2.99000 -1.99810
vt 3.74170 -1.00200
vt 3.74170 -1.99810
vt 2.99000 -1.00200
vt -0.07210 -0.38870
vt 0.10880 -0.23890
vt 0.10880 -0.38870
vt 0.46650 -0.00010
vt 1.17650 -0.38870
vt 0.46650 -0.38870
vt 1.17650 -0.00010
vt -0.12190 -1.37840
vt 0.06780 -1.37840
vt 0.06780 -1.23040
vt 0.44310 -0.99450
vt 1.18800 -1.37840
vt 1.18800 -0.99450
vt 0.44310 -1.37840
vt 2.99640 -0.00200
vt 2.58030 -0.99810
vt 2.99640 -0.99810
vt 2.58030 -0.00200
vt -1.58030 -0.00200
vt -1.99640 -0.99810
vt -1.58030 -0.99810
vt -1.99640 -0.00200
vt -1.16420 -0.00200
vt -1.16420 -0.99810
vt 2.16420 -0.99810
vt 2.16420 -0.00200
vt -0.74820 -0.00200
vt -0.74820 -0.99810
vt 1.74820 -0.99810
vt 1.74820 -0.00200
vt -0.33210 -0.00200
vt -0.33210 -0.99810
vt 1.33210 -0.99810
vt 1.33210 -0.00200
vt 0.08390 -0.00200
vt 0.08390 -0.99810
vt 0.91600 -0.99810
vt 0.91600 -0.00200
vt 0.50000 -0.00200
vt 0.50000 -0.99810
vt -0.06780 -0.63120
vt 0.49990 -0.33370
vt 0.49990 -0.63120
vt -0.06780 -0.33370
vt 1.06780 -0.63120
vt 1.06780 -0.33370
vt -0.06780 -0.00200
vt 0.49990 -0.00200
vt 1.06780 -0.00200
vt 0.75400 -0.99810
vt 0.24590 -0.66610
vt 0.75400 -0.66610
vt 0.24590 -0.99810
vt 0.75830 -0.99810
vt 0.24160 -0.66610
vt 0.75830 -0.66610
vt 0.24160 -0.99810
vt 0.24590 -0.33400
vt 0.75400 -0.33400
vt 0.24160 -0.33400
vt 0.75830 -0.33400
vt 0.24590 -0.00200
vt 0.75400 -0.00200
vt 0.75830 -0.00200
vt 0.24160 -0.00200
vt 2.98880 -0.25170
vt 3.48660 -0.31150
vt 2.98880 -0.31150
vt 3.48660 -0.25170
vt -2.49190 -0.31180
vt -1.99330 -0.24800
vt -1.99330 -0.31180
vt -2.49190 -0.24800
vt -1.49460 -0.24800
vt -1.49460 -0.31180
vt 2.49110 -0.25170
vt 2.49110 -0.31150
vt 0.71850 -0.68790
vt 1.30900 -0.99810
vt 1.30900 -0.68790
vt 0.71850 -0.99810
vt -0.32660 -0.99810
vt 0.22440 -0.68790
vt -0.32660 -0.68790
vt 0.22440 -0.99810
vt 2.89520 -0.24890
vt 3.49400 -0.31180
vt 2.89520 -0.31180
vt 3.49400 -0.24890
vt -2.49800 -0.25130
vt -1.89840 -0.31200
vt -2.49800 -0.31200
vt -1.89840 -0.25130
vt 0.75170 -0.33370
vt 1.25530 -0.63120
vt 0.75170 -0.63120
vt 1.25530 -0.33370
vt -0.25400 -0.63120
vt 0.24860 -0.33370
vt 0.24860 -0.63120
vt -0.25400 -0.33370
vt 0.75170 -0.00200
vt 1.25530 -0.00200
vt -0.25400 -0.00200
vt 0.24860 -0.00200
vt -0.30900 -0.99810
vt 0.28140 -0.68790
vt -0.30900 -0.68790
vt 0.28140 -0.99810
vt 0.77550 -0.68790
vt 1.32660 -0.99810
vt 1.32660 -0.68790
vt 0.77550 -0.99810
vt -0.99590 -0.31180
vt -0.99590 -0.24800
vt 1.99330 -0.25170
vt 1.99330 -0.31150
vt 2.29640 -0.24890
vt 2.29640 -0.31180
vt -1.29880 -0.31200
vt -1.29880 -0.25130
vt 0.24820 -0.33370
vt 0.24820 -0.63120
vt 0.75130 -0.63120
vt 0.75130 -0.33370
vt 0.24820 -0.00200
vt 0.75130 -0.00200
vt 1.49550 -0.25170
vt 1.49550 -0.31150
vt -0.49730 -0.31180
vt -0.49730 -0.24800
vt -0.69920 -0.31200
vt -0.69920 -0.25130
vt 1.69760 -0.24890
vt 1.69760 -0.31180
vt -0.25530 -0.63120
vt -0.25530 -0.33370
vt 1.25400 -0.63120
vt 1.25400 -0.33370
vt -0.25530 -0.00200
vt 1.25400 -0.00200
vt 0.99770 -0.31150
vt 0.99770 -0.25170
vt 0.00130 -0.31180
vt 0.00130 -0.24800
vt -0.09960 -0.31200
vt -0.09960 -0.25130
vt 1.09880 -0.24890
vt 1.09880 -0.31180
vt 0.87360 -0.68170
vt 1.43420 -0.99810
vt 1.43420 -0.68170
vt 0.87360 -0.99810
vt -0.86030 -0.99810
vt -0.06550 -0.60060
vt -0.86030 -0.60060
vt -0.06550 -0.99810
vt 0.43050 -0.66610
vt 0.99480 -0.99810
vt 0.99480 -0.66610
vt 0.43050 -0.99810
vt -0.00760 -0.99810
vt 0.54750 -0.66610
vt -0.00760 -0.66610
vt 0.54750 -0.99810
vt 0.43050 -0.33400
vt 0.99480 -0.33400
vt 0.54750 -0.33400
vt -0.00760 -0.33400
vt 0.99480 -0.00200
vt 0.43050 -0.00200
vt 0.54750 -0.00200
vt -0.00760 -0.00200
vt 0.50000 -0.31150
vt 0.50000 -0.25170
vt 0.49990 -0.31180
vt 0.50000 -0.24800
vt 0.50000 -0.24890
vt 0.50000 -0.31180
vt 0.50000 -0.31200
vt 0.50000 -0.25130
vt 0.49990 -0.99810
vt 0.49990 -0.68170
vt 0.49990 -0.60060
vt 0.12630 -0.99810
vt 0.12630 -0.68170
vt 1.06550 -0.60060
vt 1.06550 -0.99810
vt -0.09880 -0.24890
vt -0.09880 -0.31180
vt 1.09960 -0.31200
vt 1.09960 -0.25130
vt 0.99860 -0.31180
vt 0.99860 -0.24800
vt 0.00220 -0.31150
vt 0.00220 -0.25170
vt 1.55910 -0.00200
vt 1.55910 -0.33400
vt -0.56270 -0.33400
vt -0.56270 -0.00200
vt 1.55910 -0.66610
vt -0.56270 -0.66610
vt 1.55910 -0.99810
vt -0.56270 -0.99810
vt -0.43420 -0.99810
vt -0.43420 -0.68170
vt 1.86030 -0.99810
vt 1.86030 -0.60060
vt 1.69920 -0.31200
vt 1.69920 -0.25130
vt -0.69760 -0.24890
vt -0.69760 -0.31180
vt -0.49550 -0.25170
vt -0.49550 -0.31150
vt 1.49730 -0.24800
vt 1.49730 -0.31180
vt -0.24590 -0.00200
vt 0.25130 -0.33370
vt -0.24590 -0.33370
vt 0.25130 -0.00200
vt -0.24590 -0.63120
vt 0.25130 -0.63120
vt 2.29880 -0.31200
vt 2.29880 -0.25130
vt -1.29640 -0.24890
vt -1.29640 -0.31180
vt -0.99330 -0.25170
vt -0.99330 -0.31150
vt 1.99590 -0.31180
vt 1.99590 -0.24800
vt 0.74860 -0.33370
vt 0.74860 -0.00200
vt 0.74860 -0.63120
vt 0.29000 -0.99810
vt 0.70990 -0.66920
vt 0.29000 -0.66920
vt 0.70990 -0.99810
vt 0.28180 -0.99810
vt 0.71810 -0.66920
vt 0.28180 -0.66920
vt 0.71810 -0.99810
vt -1.89520 -0.24890
vt -1.89520 -0.31180
vt 2.89840 -0.31200
vt 2.89840 -0.25130
vt 2.49460 -0.31180
vt 2.49460 -0.24800
vt -1.49110 -0.25170
vt -1.49110 -0.31150
vt 1.29950 -0.99810
vt 1.29950 -0.66920
vt -0.28830 -0.99810
vt -0.28830 -0.66920
vt 1.24590 -0.33370
vt 1.24590 -0.00200
vt 1.24590 -0.63120
vt 3.49800 -0.31200
vt 3.49800 -0.25130
vt -2.49400 -0.24890
vt -2.49400 -0.31180
vt -0.29950 -0.99810
vt -0.29950 -0.66920
vt 1.28830 -0.99810
vt 1.28830 -0.66920
vt 2.99330 -0.31180
vt 2.99330 -0.24800
vt -1.98880 -0.31150
vt -1.98880 -0.25170
vt -2.48660 -0.31150
vt -2.48660 -0.25170
vt 3.49190 -0.31180
vt 3.49190 -0.24800
vt 0.75260 -0.33400
vt 0.24730 -0.00200
vt 0.24730 -0.33400
vt 0.75260 -0.00200
vt 0.75000 -0.00200
vt 0.24990 -0.33400
vt 0.75000 -0.33400
vt 0.24990 -0.00200
vt 0.24730 -0.66610
vt 0.75260 -0.66610
vt 0.24990 -0.66610
vt 0.75000 -0.66610
vt 0.24730 -0.99810
vt 0.75260 -0.99810
vt 0.24990 -0.99810
vt 0.75000 -0.99810
vt -0.06660 -0.00200
vt -0.06660 -0.33370
vt 1.06660 -0.00200
vt 1.06660 -0.33370
vt 1.06660 -0.63120
vt -0.06660 -0.63120
vt 0.00190 1.50170
vt 0.18460 2.00210
vt 0.18460 1.50170
vt 0.00190 2.00210
vt 0.00190 1.00130
vt 0.18460 1.00130
vt 0.00190 0.50080
vt 0.18460 0.50080
vt 0.00190 0.00040
vt 0.18460 0.00040
vt 0.00190 -0.50000
vt 0.18460 -0.50000
vt 0.00190 -1.00040
vt 0.18460 -1.00040
vt 0.00190 -1.50080
vt 0.18460 -1.50080
vt 0.00190 -2.00130
vt 0.18460 -2.00130
vt 0.00190 -2.50170
vt 0.18460 -2.50170
vt 0.00190 -3.00210
vt 0.18460 -3.00210
vt -0.99880 -0.99810
vt -0.99880 -0.00200
vt 1.99880 -0.00200
vt 1.99880 -0.99810
vt 2.00130 -0.00200
vt 2.00130 -0.99810
vt -1.00130 -0.99810
vt -1.00130 -0.00200
vt 4.75440 -0.62520
vt 4.04530 -0.89370
vt 4.75440 -0.89370
vt 4.04530 -0.62520
vt 3.33620 -0.89370
vt 3.33620 -0.62520
vt 2.62720 -0.89370
vt 2.62720 -0.62520
vt 4.75440 -0.00010
vt 4.04530 -0.00010
vt 3.33620 -0.00010
vt 2.62720 -0.00010
vt 1.91810 -0.89370
vt 1.91810 -0.62520
vt 1.91810 -0.00010
vt 1.20900 -0.89370
vt 1.20900 -0.62520
vt 1.20900 -0.00010
vt 0.49990 -0.89370
vt 0.49990 -0.62520
vt 0.49990 -0.00010
vt -0.20900 -0.89370
vt -0.20900 -0.62520
vt -0.20900 -0.00010
vt -0.91810 -0.62520
vt -0.91810 -0.00010
vt -0.91810 -0.89370
vt -1.62720 -0.62520
vt -1.62720 -0.00010
vt -1.62720 -0.89370
vt -2.33620 -0.62520
vt -2.33620 -0.00010
vt -2.33620 -0.89370
vt -3.04530 -0.62520
vt -3.04530 -0.00010
vt -3.04530 -0.89370
vt -3.75440 -0.62520
vt -3.75440 -0.00010
vt -3.75440 -0.89370
vt 0.00190 -2.99890
vt 0.18350 -2.49910
vt 0.18350 -2.99890
vt 0.00190 -2.49910
vt 0.18350 -1.99930
vt 0.00190 -1.99930
vt 0.18350 -1.49950
vt 0.00190 -1.49950
vt 0.18350 -0.99980
vt 0.00190 -0.99980
vt 0.18350 -0.50010
vt 0.00190 -0.50010
vt 0.18350 -0.00030
vt 0.00190 -0.00030
vt 0.18350 0.49950
vt 0.00190 0.49950
vt 0.18350 0.99930
vt 0.00190 0.99930
vt 0.18350 1.49910
vt 0.00190 1.49910
vt 0.18350 1.99890
vt 0.00190 1.99890
vt -4.49210 5.51340
vt -3.66010 5.99800
vt -4.49210 5.99800
vt -3.66010 5.51340
vt 4.66010 5.51340
vt 5.49210 5.99800
vt 4.66010 5.99800
vt 5.49210 5.51340
vt 3.82800 5.51340
vt 3.82800 5.99800
vt -2.82800 5.99800
vt -2.82800 5.51340
vt 2.99600 5.51340
vt 2.99600 5.99800
vt -1.99600 5.99800
vt -1.99600 5.51340
vt -1.16400 5.99800
vt -1.16400 5.51340
vt 2.16400 5.51340
vt 2.16400 5.99800
vt 1.33200 5.51340
vt 1.33200 5.99800
vt -0.33200 5.99800
vt -0.33200 5.51340
vt -0.49980 5.99800
vt -0.16650 5.74990
vt -0.49980 5.74990
vt -0.16650 5.99800
vt 0.16670 5.74990
vt 0.16670 5.99800
vt 0.50000 5.51340
vt 0.50000 5.99800
vt 0.49990 5.74990
vt 0.49990 5.99800
vt 0.83320 5.74990
vt 0.83320 5.99800
vt 1.16650 5.74990
vt 1.16650 5.99800
vt 1.49980 5.74990
vt 1.49980 5.99800
vt 2.99890 -0.90080
vt 2.50680 -0.83600
vt 2.99890 0.50760
vt 3.49100 -0.83600
vt 2.04820 -0.64600
vt 2.75240 0.57360
vt 3.24540 0.57360
vt 3.94960 -0.64600
vt 1.65440 -0.34380
vt 4.34340 -0.34380
vt 4.64560 0.04990
vt 3.42590 0.75410
vt 1.35220 0.04990
vt 2.57190 0.75410
vt 1.16230 0.50850
vt 4.83550 0.50850
vt 2.50580 1.00060
vt 3.49200 1.00060
vt 1.09750 1.00060
vt 4.90030 1.00060
vt 1.16230 1.49280
vt 4.83550 1.49280
vt 2.57190 1.24720
vt 3.42590 1.24720
vt 1.35220 1.95140
vt 4.64560 1.95140
vt 1.65440 2.34510
vt 2.75240 1.42770
vt 4.34340 2.34510
vt 3.24540 1.42770
vt 2.99890 1.49370
vt 2.50680 2.83730
vt 3.49100 2.83730
vt 2.04820 2.64730
vt 3.94960 2.64730
vt 2.99890 2.90210
vt 0.49990 5.49990
vt 0.88820 5.72410
vt 0.94820 5.49990
vt 0.88820 5.27580
vt 0.72410 5.88820
vt 0.72410 5.11170
vt 0.50000 5.05170
vt 0.49990 5.94820
vt 0.27580 5.11170
vt 0.27580 5.88820
vt 0.11170 5.27580
vt 0.11170 5.72410
vt 0.05170 5.49990
# 709 texture vertices

g Object_2
usemtl texture0
f 1/3 2/2 3/1
f 2/2 4/4 3/1
f 2/2 5/5 4/4
f 5/5 6/6 4/4
f 5/5 7/7 6/6
f 7/7 8/8 6/6
f 9/10 1/3 10/9
f 1/3 3/1 10/9
f 7/7 11/11 8/8
f 11/11 12/12 8/8
f 13/14 9/10 14/13
f 9/10 10/9 14/13
f 11/11 15/15 12/12
f 15/15 16/16 12/12
f 17/18 13/14 18/17
f 13/14 14/13 18/17
f 15/15 19/19 16/16
f 19/19 20/20 16/16
f 21/22 17/18 22/21
f 17/18 18/17 22/21
f 19/19 23/23 20/20
f 23/23 24/24 20/20
f 25/26 21/22 26/25
f 21/22 22/21 26/25
f 23/23 27/27 24/24
f 27/27 28/28 24/24
f 29/30 25/26 30/29
f 25/26 26/25 30/29
f 27/27 31/31 28/28
f 31/31 32/32 28/28
f 33/34 29/30 34/33
f 29/30 30/29 34/33
f 31/31 35/35 32/32
f 35/35 36/36 32/32
f 37/38 33/34 38/37
f 33/34 34/33 38/37
f 35/35 39/39 36/36
f 39/39 40/40 36/36
f 41/42 37/38 42/41
f 37/38 38/37 42/41
f 39/39 43/43 40/40
f 43/43 44/44 40/40
f 45/46 41/42 46/45
f 41/42 42/41 46/45
f 47/48 45/46 48/47
f 45/46 46/45 48/47
f 43/43 47/48 44/44
f 47/48 48/47 44/44
g obj1
usemtl mat1
f 49/51 50/50 51/49
f 50/50 52/52 51/49
f 53/55 54/54 55/53
f 54/54 56/56 55/53
f 52/59 55/58 51/57
f 55/58 56/60 51/57
f 57/57 58/60 59/59
f 58/60 60/58 59/59
f 61/63 62/62 58/61
f 62/62 60/64 58/61
f 63/63 64/62 65/61
f 64/62 66/64 65/61
f 66/57 67/60 65/59
f 67/60 68/58 65/59
f 69/63 70/62 67/61
f 70/62 68/64 67/61
f 71/67 72/66 73/65
f 72/66 74/68 73/65
f 74/70 75/58 73/69
f 75/58 76/60 73/69
f 77/73 78/72 75/71
f 78/72 76/74 75/71
f 79/77 80/76 81/75
f 80/76 82/78 81/75
f 83/81 84/80 85/79
f 84/80 86/82 85/79
f 86/70 81/58 85/69
f 81/58 82/60 85/69
f 87/85 88/84 89/83
f 88/84 90/86 89/83
f 91/89 89/88 92/87
f 89/88 90/90 92/87
f 93/93 94/92 92/91
f 94/92 91/94 92/91
usemtl texture1
f 95/63 96/62 59/61
f 96/62 57/64 59/61
f 97/97 98/96 99/95
f 98/96 100/98 99/95
f 101/101 99/100 102/99
f 99/100 100/102 102/99
f 103/105 104/104 102/103
f 104/104 101/106 102/103
f 105/109 106/108 107/107
f 106/108 108/110 107/107
f 109/113 107/112 110/111
f 107/112 108/114 110/111
f 111/117 112/116 110/115
f 112/116 109/118 110/115
usemtl texture2
f 113/121 114/120 115/119
f 114/120 116/122 115/119
f 117/125 114/124 118/123
f 114/124 113/126 118/123
f 119/125 120/123 116/124
f 120/123 115/126 116/124
f 121/129 122/128 123/127
f 122/128 124/130 123/127
f 125/129 126/127 127/128
f 126/127 128/130 127/128
f 128/133 126/132 124/131
f 126/132 123/134 124/131
f 129/137 130/136 131/135
f 132/136 133/137 134/135
f 135/140 136/139 137/138
f 136/139 138/141 137/138
f 137/138 138/141 129/137
f 138/141 130/136 129/137
f 139/141 140/139 141/138
f 141/138 140/139 142/140
f 141/138 133/137 139/141
f 133/137 132/136 139/141
f 143/144 144/143 145/142
f 146/143 147/144 148/142
f 149/147 150/146 151/145
f 151/145 150/146 152/148
f 151/145 144/143 149/147
f 144/143 143/144 149/147
f 153/148 154/146 155/145
f 154/146 156/147 155/145
f 155/145 156/147 146/143
f 156/147 147/144 146/143
usemtl texture3
f 118/151 113/150 120/149
f 113/150 115/152 120/149
f 127/149 128/152 122/151
f 128/152 124/150 122/151
usemtl texture4
f 157/155 158/154 159/153
f 158/154 160/156 159/153
f 158/154 161/157 160/156
f 161/157 162/158 160/156
f 163/160 157/155 164/159
f 157/155 159/153 164/159
f 161/157 165/161 162/158
f 165/161 166/162 162/158
f 167/164 163/160 168/163
f 163/160 164/159 168/163
f 165/161 169/165 166/162
f 169/165 170/166 166/162
f 171/168 167/164 172/167
f 167/164 168/163 172/167
f 169/165 173/169 170/166
f 173/169 174/170 170/166
f 175/172 171/168 176/171
f 171/168 172/167 176/171
f 173/169 177/173 174/170
f 177/173 178/174 174/170
f 179/176 175/172 180/175
f 175/172 176/171 180/175
f 177/173 181/177 178/174
f 181/177 182/178 178/174
f 183/180 179/176 184/179
f 179/176 180/175 184/179
f 181/177 185/181 182/178
f 185/181 186/182 182/178
f 187/184 183/180 188/183
f 183/180 184/179 188/183
f 185/181 189/185 186/182
f 189/185 190/186 186/182
f 191/188 187/184 192/187
f 187/184 188/183 192/187
f 189/185 193/189 190/186
f 193/189 194/190 190/186
f 195/192 191/188 196/191
f 191/188 192/187 196/191
f 193/189 197/193 194/190
f 197/193 198/194 194/190
f 199/196 195/192 200/195
f 195/192 196/191 200/195
f 197/193 201/197 198/194
f 201/197 202/198 198/194
f 203/200 199/196 204/199
f 199/196 200/195 204/199
f 201/197 203/201 202/198
f 203/201 204/202 202/198
usemtl texture5
f 205/205 206/204 207/203
f 206/204 208/206 207/203
f 208/206 209/207 207/203
f 209/207 210/208 207/203
f 142/211 135/210 141/209
f 135/210 137/212 141/209
f 210/208 209/207 211/213
f 209/207 212/58 211/213
f 137/212 129/214 141/209
f 129/214 133/215 141/209
f 133/215 129/214 134/216
f 129/214 131/217 134/216
f 130/219 132/218 131/217
f 132/218 134/216 131/217
f 213/222 214/221 215/220
f 214/221 216/223 215/220
f 216/223 217/224 215/220
f 217/224 218/225 215/220
f 152/228 153/227 151/226
f 153/227 155/229 151/226
f 218/225 217/224 219/226
f 217/224 220/229 219/226
f 155/229 146/230 151/226
f 146/230 144/231 151/226
f 147/234 143/233 148/232
f 143/233 145/235 148/232
f 144/231 146/230 145/235
f 146/230 148/232 145/235
usemtl texture6
f 221/238 210/237 211/236
f 209/237 222/238 212/236
f 223/241 224/240 207/239
f 207/239 224/240 205/242
f 223/241 207/239 221/238
f 207/239 210/237 221/238
f 206/242 225/240 208/239
f 225/240 226/241 208/239
f 226/241 222/238 208/239
f 208/239 222/238 209/237
f 217/245 227/244 220/243
f 228/244 218/245 219/243
f 214/248 229/247 216/246
f 229/247 230/249 216/246
f 230/249 227/244 216/246
f 216/246 227/244 217/245
f 231/249 232/247 215/246
f 215/246 232/247 213/248
f 231/249 215/246 228/244
f 215/246 218/245 228/244
usemtl texture7
f 233/252 234/251 235/250
f 236/253 235/250 234/251
f 237/256 233/255 238/254
f 235/257 238/254 233/255
f 239/259 237/256 240/258
f 238/254 240/258 237/256
f 234/251 241/260 236/253
f 242/261 236/253 241/260
f 243/263 239/259 244/262
f 240/258 244/262 239/259
f 241/260 245/264 242/261
f 246/265 242/261 245/264
f 247/267 243/263 248/266
f 244/262 248/266 243/263
f 245/264 249/268 246/265
f 250/269 246/265 249/268
f 251/271 247/267 252/270
f 248/266 252/270 247/267
f 249/268 253/272 250/269
f 254/273 250/269 253/272
f 255/275 251/271 256/274
f 252/270 256/274 251/271
f 253/272 257/275 254/273
f 258/274 254/273 257/275
f 259/272 255/275 260/273
f 256/274 260/273 255/275
f 257/275 261/271 258/274
f 262/270 258/274 261/271
f 263/268 259/272 264/269
f 260/273 264/269 259/272
f 261/271 265/267 262/270
f 266/266 262/270 265/267
f 267/264 263/268 268/265
f 264/269 268/265 263/268
f 265/267 269/263 266/266
f 270/262 266/266 269/263
f 271/260 267/264 272/261
f 268/265 272/261 267/264
f 269/263 273/259 270/262
f 274/258 270/262 273/259
f 275/251 271/260 276/253
f 272/261 276/253 271/260
f 273/259 277/256 274/258
f 278/254 274/258 277/256
f 277/256 279/255 278/254
f 280/257 278/254 279/255
f 279/252 275/251 280/250
f 276/253 280/250 275/251
usemtl texture8
f 281/278 282/277 283/276
f 283/276 282/277 284/279
f 281/278 285/280 282/277
f 285/280 286/281 282/277
f 284/279 282/277 287/282
f 282/277 288/283 287/282
f 286/281 289/284 282/277
f 282/277 289/284 288/283
f 283/287 290/286 291/285
f 290/286 292/288 291/285
f 293/291 285/290 294/289
f 285/290 295/292 294/289
f 290/286 283/287 296/293
f 283/287 284/294 296/293
f 285/290 293/291 286/295
f 293/291 297/296 286/295
f 296/293 284/294 298/297
f 284/294 287/298 298/297
f 297/296 299/299 286/295
f 286/295 299/299 289/300
f 287/303 300/302 301/301
f 300/302 302/304 301/301
f 289/307 303/306 304/305
f 304/305 303/306 305/308
f 299/310 306/309 289/307
f 289/307 306/309 303/306
f 298/312 287/303 307/311
f 287/303 301/301 307/311
f 283/315 291/314 308/313
f 308/313 291/314 309/316
f 285/319 310/318 295/317
f 310/318 311/320 295/317
f 312/323 304/322 313/321
f 304/322 305/324 313/321
f 300/327 314/326 302/325
f 314/326 315/328 302/325
f 316/331 290/330 317/329
f 290/330 296/332 317/329
f 318/335 319/334 293/333
f 293/333 319/334 297/336
f 317/329 296/332 320/337
f 296/332 298/338 320/337
f 297/336 319/334 299/339
f 319/334 321/340 299/339
f 290/343 322/342 292/341
f 322/342 323/344 292/341
f 293/347 294/346 324/345
f 324/345 294/346 325/348
f 299/310 321/349 306/309
f 321/349 326/350 306/309
f 320/352 298/312 327/351
f 298/312 307/311 327/351
f 328/354 312/323 329/353
f 312/323 313/321 329/353
f 314/326 330/355 315/328
f 330/355 331/356 315/328
f 310/318 324/345 311/320
f 324/345 325/348 311/320
f 322/342 308/313 323/344
f 308/313 309/316 323/344
f 332/358 316/331 333/357
f 316/331 317/329 333/357
f 318/335 334/359 319/334
f 334/359 335/360 319/334
f 333/357 317/329 336/361
f 317/329 320/337 336/361
f 319/334 335/360 321/340
f 335/360 337/362 321/340
f 336/364 320/352 338/363
f 320/352 327/351 338/363
f 321/349 337/365 326/350
f 337/365 339/366 326/350
f 330/355 340/367 331/356
f 340/367 341/368 331/356
f 342/370 328/354 343/369
f 328/354 329/353 343/369
f 332/358 333/357 344/371
f 344/371 333/357 345/372
f 334/359 346/373 335/360
f 346/373 347/374 335/360
f 345/372 333/357 348/375
f 333/357 336/361 348/375
f 335/360 347/374 337/362
f 347/374 349/376 337/362
f 336/364 338/363 348/377
f 348/377 338/363 350/378
f 351/380 339/366 349/379
f 337/365 349/379 339/366
f 340/367 352/381 341/368
f 352/381 353/382 341/368
f 354/384 342/370 355/383
f 342/370 343/369 355/383
f 344/387 356/386 357/385
f 357/385 356/386 358/388
f 346/391 359/390 360/389
f 359/390 361/392 360/389
f 362/395 363/394 344/393
f 344/393 363/394 356/396
f 364/399 346/398 365/397
f 346/398 360/400 365/397
f 344/393 345/401 362/395
f 362/395 345/401 366/402
f 346/398 364/399 347/403
f 364/399 367/404 347/403
f 366/402 345/401 368/405
f 345/401 348/406 368/405
f 347/403 367/404 349/407
f 367/404 369/408 349/407
f 348/377 350/378 368/409
f 368/409 350/378 370/410
f 349/379 369/411 351/380
f 369/411 371/412 351/380
f 372/414 354/384 373/413
f 354/384 355/383 373/413
f 352/381 374/415 353/382
f 374/415 375/416 353/382
f 376/418 357/385 377/417
f 357/385 358/388 377/417
f 359/390 378/419 361/392
f 378/419 379/417 361/392
f 380/421 376/418 381/420
f 376/418 377/417 381/420
f 378/419 382/422 379/417
f 382/422 383/423 379/417
f 384/425 372/414 385/424
f 372/414 373/413 385/424
f 374/415 386/426 375/416
f 386/426 387/427 375/416
f 369/411 388/428 371/412
f 388/428 389/429 371/412
f 368/409 370/410 390/430
f 390/430 370/410 391/431
f 392/433 366/402 390/432
f 366/402 368/405 390/432
f 367/404 393/434 369/408
f 393/434 388/435 369/408
f 394/436 362/395 392/433
f 362/395 366/402 392/433
f 395/437 393/434 364/399
f 364/399 393/434 367/404
f 362/395 394/436 363/394
f 394/436 396/438 363/394
f 364/399 365/397 395/437
f 395/437 365/397 397/439
f 394/441 380/421 396/440
f 380/421 381/420 396/440
f 395/443 397/442 382/422
f 382/422 397/442 383/423
f 386/426 398/444 387/427
f 398/444 399/445 387/427
f 400/447 384/425 401/446
f 384/425 385/424 401/446
f 402/449 390/430 403/448
f 390/430 391/431 403/448
f 404/451 405/450 388/428
f 388/428 405/450 389/429
f 393/454 406/453 388/452
f 406/453 404/455 388/452
f 407/360 392/374 402/362
f 392/374 390/376 402/362
f 408/359 394/373 407/360
f 394/373 392/374 407/360
f 409/457 406/453 395/456
f 395/456 406/453 393/454
f 398/444 410/458 399/445
f 410/458 411/459 399/445
f 412/461 400/447 413/460
f 400/447 401/446 413/460
f 414/463 402/449 415/462
f 402/449 403/448 415/462
f 404/451 416/464 405/450
f 416/464 417/465 405/450
f 418/334 407/360 414/340
f 407/360 402/362 414/340
f 406/453 419/466 404/455
f 419/466 416/467 404/455
f 420/335 408/359 418/334
f 408/359 407/360 418/334
f 409/457 421/468 406/453
f 421/468 419/466 406/453
f 422/471 423/470 424/469
f 423/470 425/472 424/469
f 426/475 427/474 428/473
f 427/474 429/476 428/473
f 430/478 412/461 431/477
f 412/461 413/460 431/477
f 410/458 432/479 411/459
f 432/479 433/480 411/459
f 416/464 434/481 417/465
f 434/481 435/482 417/465
f 436/484 414/463 437/483
f 414/463 415/462 437/483
f 438/486 439/485 427/474
f 427/474 439/485 429/476
f 440/488 422/471 441/487
f 422/471 424/469 441/487
f 419/466 442/489 416/467
f 442/489 434/490 416/467
f 443/336 418/334 436/339
f 418/334 414/340 436/339
f 420/335 418/334 438/333
f 438/333 418/334 443/336
f 421/468 440/491 419/466
f 440/491 442/489 419/466
f 432/479 444/492 433/480
f 444/492 445/493 433/480
f 446/495 430/478 447/494
f 430/478 431/477 447/494
f 448/497 426/475 449/496
f 426/475 428/473 449/496
f 450/499 451/498 423/470
f 423/470 451/498 425/472
f 452/501 435/482 453/500
f 434/481 453/500 435/482
f 436/484 437/483 454/502
f 454/502 437/483 455/503
f 454/502 455/503 444/504
f 444/504 455/503 445/505
f 453/500 446/506 452/501
f 446/506 447/507 452/501
f 443/510 436/509 456/508
f 456/508 436/509 454/511
f 442/514 457/513 434/512
f 457/513 453/515 434/512
f 448/517 438/516 456/508
f 438/516 443/510 456/508
f 440/519 450/518 442/514
f 450/518 457/513 442/514
f 438/516 448/517 439/520
f 448/517 449/521 439/520
f 450/518 440/519 451/522
f 440/519 441/523 451/522
f 457/525 458/277 453/524
f 458/277 459/283 453/524
f 456/527 454/526 458/277
f 458/277 454/526 459/283
f 460/278 448/528 458/277
f 448/528 456/527 458/277
f 460/278 458/277 450/529
f 450/529 458/277 457/525
usemtl texture9
f 307/532 301/531 315/530
f 301/531 302/533 315/530
f 327/535 307/532 331/534
f 307/532 315/530 331/534
f 338/537 327/535 341/536
f 327/535 331/534 341/536
f 350/539 338/537 353/538
f 338/537 341/536 353/538
f 461/541 350/539 462/540
f 350/539 353/538 462/540
f 391/543 461/541 387/542
f 461/541 462/540 387/542
f 403/545 391/543 399/544
f 391/543 387/542 399/544
f 415/547 403/545 411/546
f 403/545 399/544 411/546
f 437/549 415/547 433/548
f 415/547 411/546 433/548
f 455/551 437/549 445/550
f 437/549 433/548 445/550
g obj2
usemtl mat2
f 463/553 464/283 465/552
f 464/283 466/417 465/552
f 464/283 467/554 466/417
f 467/554 468/555 466/417
f 469/283 470/556 471/417
f 470/556 472/557 471/417
f 473/559 469/283 474/558
f 469/283 471/417 474/558
usemtl mat3
f 465/562 466/561 475/560
f 466/561 476/563 475/560
f 466/561 468/564 476/563
f 468/564 477/565 476/563
f 478/561 465/562 479/563
f 465/562 475/560 479/563
f 468/564 480/566 477/565
f 480/566 481/567 477/565
f 475/560 476/563 482/568
f 476/563 483/569 482/568
f 476/563 477/565 483/569
f 477/565 484/570 483/569
f 479/563 475/560 485/569
f 475/560 482/568 485/569
f 477/565 481/567 484/570
f 481/567 486/571 484/570
f 487/564 478/561 488/565
f 478/561 479/563 488/565
f 480/566 489/572 481/567
f 489/572 490/573 481/567
f 488/565 479/563 491/570
f 479/563 485/569 491/570
f 481/567 490/573 486/571
f 490/573 492/574 486/571
f 493/566 487/564 494/567
f 487/564 488/565 494/567
f 489/572 495/575 490/573
f 495/575 496/576 490/573
f 494/567 488/565 497/571
f 488/565 491/570 497/571
f 490/573 496/576 492/574
f 496/576 498/577 492/574
f 499/572 493/566 500/573
f 493/566 494/567 500/573
f 495/575 501/578 496/576
f 501/578 502/579 496/576
f 500/573 494/567 503/574
f 494/567 497/571 503/574
f 496/576 502/579 498/577
f 502/579 504/580 498/577
f 505/575 499/572 506/576
f 499/572 500/573 506/576
f 501/578 507/581 502/579
f 507/581 508/582 502/579
f 506/576 500/573 509/577
f 500/573 503/574 509/577
f 502/579 508/582 504/580
f 508/582 510/583 504/580
f 511/579 506/576 512/580
f 506/576 509/577 512/580
f 508/582 513/584 510/583
f 513/584 514/585 510/583
f 515/578 505/575 511/579
f 505/575 506/576 511/579
f 507/581 516/586 508/582
f 516/586 513/584 508/582
f 517/582 511/579 518/583
f 511/579 512/580 518/583
f 513/584 519/587 514/585
f 519/587 520/588 514/585
f 521/581 515/578 517/582
f 515/578 511/579 517/582
f 516/586 522/589 513/584
f 522/589 519/587 513/584
f 523/584 517/582 524/585
f 517/582 518/583 524/585
f 519/587 525/590 520/588
f 525/590 526/591 520/588
f 522/589 527/592 519/587
f 527/592 525/590 519/587
f 528/586 521/581 523/584
f 521/581 517/582 523/584
f 525/590 529/593 526/591
f 529/593 530/594 526/591
f 531/587 523/584 532/588
f 523/584 524/585 532/588
f 533/589 528/586 531/587
f 528/586 523/584 531/587
f 527/592 534/595 525/590
f 534/595 529/593 525/590
f 535/590 531/587 536/591
f 531/587 532/588 536/591
f 529/593 537/596 530/594
f 537/596 538/597 530/594
f 539/593 535/590 540/594
f 535/590 536/591 540/594
f 537/596 539/593 538/597
f 539/593 540/594 538/597
f 472/592 533/589 535/590
f 533/589 531/587 535/590
f 534/595 474/598 529/593
f 474/598 537/596 529/593
f 471/595 472/592 539/593
f 472/592 535/590 539/593
f 474/598 471/595 537/596
f 471/595 539/593 537/596
usemtl mat4
f 541/601 542/600 543/599
f 542/600 544/602 543/599
f 542/600 545/603 544/602
f 545/603 546/604 544/602
f 545/603 547/605 546/604
f 547/605 548/606 546/604
f 547/605 549/607 548/606
f 549/607 550/608 548/606
f 549/607 551/609 550/608
f 551/609 552/610 550/608
f 551/609 553/611 552/610
f 553/611 554/612 552/610
f 553/611 555/613 554/612
f 555/613 556/614 554/612
f 555/613 557/615 556/614
f 557/615 558/616 556/614
f 557/615 559/617 558/616
f 559/617 560/618 558/616
f 559/617 561/619 560/618
f 561/619 562/620 560/618
usemtl mat5
f 563/623 564/622 565/621
f 564/622 566/624 565/621
f 567/627 563/626 568/625
f 563/626 565/628 568/625
f 569/630 567/627 570/629
f 567/627 568/625 570/629
f 564/622 571/631 566/624
f 571/631 572/632 566/624
f 573/634 569/630 574/633
f 569/630 570/629 574/633
f 571/631 575/635 572/632
f 575/635 576/636 572/632
f 575/635 577/637 576/636
f 577/637 578/638 576/636
f 579/640 573/634 580/639
f 573/634 574/633 580/639
f 581/642 579/640 582/641
f 579/640 580/639 582/641
f 577/637 583/643 578/638
f 583/643 584/644 578/638
f 585/647 586/646 587/645
f 586/646 588/648 587/645
f 586/646 589/649 588/648
f 589/649 590/650 588/648
f 591/652 581/642 592/651
f 581/642 582/641 592/651
f 583/643 593/652 584/644
f 593/652 594/651 584/644
f 589/649 595/653 590/650
f 595/653 596/654 590/650
f 595/653 597/655 596/654
f 597/655 598/656 596/654
f 599/643 591/652 600/644
f 591/652 592/651 600/644
f 593/652 601/642 594/651
f 601/642 602/641 594/651
f 597/655 603/657 598/656
f 603/657 604/658 598/656
f 603/657 605/659 604/658
f 605/659 606/660 604/658
f 607/637 599/643 608/638
f 599/643 600/644 608/638
f 601/642 609/640 602/641
f 609/640 610/639 602/641
f 611/635 607/637 612/636
f 607/637 608/638 612/636
f 609/640 613/634 610/639
f 613/634 614/633 610/639
f 615/631 611/635 616/632
f 611/635 612/636 616/632
f 613/634 617/630 614/633
f 617/630 618/629 614/633
f 619/622 615/631 620/624
f 615/631 616/632 620/624
f 617/630 621/627 618/629
f 621/627 622/625 618/629
f 621/627 623/626 622/625
f 623/626 624/628 622/625
f 623/623 619/622 624/621
f 619/622 620/624 624/621
f 625/657 585/659 626/658
f 585/659 587/660 626/658
f 627/655 625/657 628/656
f 625/657 626/658 628/656
f 629/653 627/655 630/654
f 627/655 628/656 630/654
f 631/649 629/653 632/650
f 629/653 630/654 632/650
f 633/646 631/649 634/648
f 631/649 632/650 634/648
f 605/647 633/646 606/645
f 633/646 634/648 606/645
usemtl mat6
f 585/663 568/662 565/661
f 566/664 585/663 565/661
f 568/662 625/666 570/665
f 572/668 586/667 566/664
f 625/666 574/669 570/665
f 576/670 586/667 572/668
f 585/663 625/666 568/662
f 566/664 586/667 585/663
f 589/672 576/670 578/671
f 574/669 627/674 580/673
f 625/666 627/674 574/669
f 589/672 586/667 576/670
f 580/673 627/674 582/675
f 584/676 589/672 578/671
f 582/675 627/674 629/677
f 595/678 589/672 584/676
f 582/675 629/677 592/679
f 595/678 584/676 594/680
f 629/677 600/681 592/679
f 602/682 595/678 594/680
f 629/677 631/683 600/681
f 602/682 597/684 595/678
f 600/681 631/683 608/685
f 610/686 597/684 602/682
f 631/683 633/688 612/687
f 603/690 597/684 614/689
f 631/683 612/687 608/685
f 614/689 597/684 610/686
f 620/692 633/688 605/691
f 605/691 603/690 622/693
f 612/687 633/688 616/694
f 603/690 614/689 618/695
f 616/694 633/688 620/692
f 622/693 603/690 618/695
f 620/692 605/691 624/696
f 605/691 622/693 624/696
usemtl mat7
f 587/699 588/698 635/697
f 626/700 587/699 635/697
f 588/698 590/701 635/697
f 628/702 626/700 635/697
f 630/703 628/702 635/697
f 590/701 596/704 635/697
f 632/705 630/703 635/697
f 596/704 598/706 635/697
f 634/707 632/705 635/697
f 598/706 604/708 635/697
f 606/709 634/707 635/697
f 604/708 606/709 635/697
# 780 elements

