# Created by Metasequoia

mtllib Emperor18.mtl

v 28275.556641 172.359268 -22194.115234
v 28250.000000 172.359268 -22000.001953
v 28517.037109 172.359268 -22129.410156
v 28500.000000 172.359268 -22000.001953
v 28275.556641 172.359268 -21805.886719
v 28517.037109 172.359268 -21870.591797
v 28350.480469 172.359268 -22375.001953
v 28566.988281 172.359268 -22250.000000
v 28350.480469 172.359268 -21625.001953
v 28566.988281 172.359268 -21750.000000
v 28469.669922 172.359268 -21469.671875
v 28646.447266 172.359268 -21646.447266
v 28469.669922 172.359268 -22530.332031
v 28646.447266 172.359268 -22353.554688
v 28625.000000 172.359268 -22649.519531
v 28750.000000 172.359268 -22433.013672
v 28625.000000 172.359268 -21350.482422
v 28750.000000 172.359268 -21566.988281
v 28805.886719 172.359268 -21275.556641
v 28870.589844 172.359268 -21517.037109
v 28805.886719 172.359268 -22724.443359
v 28870.589844 172.359268 -22482.962891
v 29000.000000 172.359268 -22750.000000
v 29000.000000 172.359268 -22500.000000
v 29000.000000 172.359268 -21250.000000
v 29000.000000 172.359268 -21500.000000
v 29194.113281 172.359268 -22724.443359
v 29129.410156 172.359268 -22482.962891
v 29194.113281 172.359268 -21275.554688
v 29129.410156 172.359268 -21517.037109
v 29375.000000 172.359268 -21350.480469
v 29250.000000 172.359268 -21566.986328
v 29375.000000 172.359268 -22649.517578
v 29250.000000 172.359268 -22433.011719
v 29530.330078 172.359268 -22530.328125
v 29353.552734 172.359268 -22353.552734
v 29530.330078 172.359268 -21469.667969
v 29353.552734 172.359268 -21646.445313
v 29649.519531 172.359268 -21624.998047
v 29433.011719 172.359268 -21749.998047
v 29649.519531 172.359268 -22374.998047
v 29433.011719 172.359268 -22249.998047
v 29724.443359 172.359268 -22194.113281
v 29482.962891 172.359268 -22129.408203
v 29724.443359 172.359268 -21805.882813
v 29482.962891 172.359268 -21870.589844
v 29750.000000 172.359268 -21999.998047
v 29500.000000 172.359268 -21999.998047
v 28990.000000 142.359268 -22750.000000
v 28990.000000 142.359268 -22500.000000
v 28990.000000 162.359268 -22750.000000
v 28990.000000 162.359268 -22500.000000
v 29010.000000 162.359268 -22750.000000
v 29010.000000 162.359268 -22500.000000
v 29010.000000 142.359268 -22500.000000
v 29010.000000 142.359268 -22750.000000
v 28462.599609 142.359268 -22523.259766
v 28639.375000 142.359268 -22346.482422
v 28462.599609 162.359268 -22523.259766
v 28639.375000 162.359268 -22346.482422
v 28476.740234 162.359268 -22537.400391
v 28653.517578 162.359268 -22360.625000
v 28500.000000 142.359268 -22010.000000
v 28250.000000 142.359268 -22010.000000
v 28500.000000 162.359268 -22010.000000
v 28250.000000 162.359268 -22010.000000
v 28250.000000 142.359268 -21990.000000
v 28500.000000 142.359268 -21990.000000
v 28250.000000 162.359268 -21990.000000
v 28500.000000 162.359268 -21990.000000
v 28639.375000 142.359268 -21653.517578
v 28462.599609 142.359268 -21476.740234
v 28639.375000 162.359268 -21653.517578
v 28462.599609 162.359268 -21476.740234
v 28476.740234 162.359268 -21462.599609
v 28653.517578 162.359268 -21639.375000
v 28476.740234 142.359268 -21462.599609
v 28653.517578 142.359268 -21639.375000
v 28990.000000 142.359268 -21500.000000
v 28990.000000 142.359268 -21250.000000
v 28990.000000 162.359268 -21500.000000
v 28990.000000 162.359268 -21250.000000
v 29010.000000 162.359268 -21250.000000
v 29010.000000 162.359268 -21500.000000
v 29010.000000 142.359268 -21250.000000
v 29010.000000 142.359268 -21500.000000
v 29523.259766 142.359268 -22537.400391
v 29346.482422 142.359268 -22360.625000
v 29523.259766 162.359268 -22537.400391
v 29346.482422 162.359268 -22360.625000
v 29537.400391 162.359268 -22523.259766
v 29360.625000 162.359268 -22346.482422
v 29360.625000 142.359268 -22346.482422
v 29537.400391 142.359268 -22523.259766
v 28653.517578 142.359268 -22360.625000
v 28476.740234 142.359268 -22537.400391
v 29346.482422 142.359268 -21639.375000
v 29523.259766 142.359268 -21462.599609
v 29346.482422 162.359268 -21639.375000
v 29523.259766 162.359268 -21462.599609
v 29537.400391 162.359268 -21476.740234
v 29360.625000 162.359268 -21653.517578
v 29537.400391 142.359268 -21476.740234
v 29360.625000 142.359268 -21653.517578
v 29750.000000 142.359268 -22010.000000
v 29500.000000 142.359268 -22010.000000
v 29750.000000 162.359268 -22010.000000
v 29500.000000 162.359268 -22010.000000
v 29500.000000 142.359268 -21990.000000
v 29750.000000 142.359268 -21990.000000
v 29500.000000 162.359268 -21990.000000
v 29750.000000 162.359268 -21990.000000
v 28910.484375 -332.748810 -22498.000000
v 28910.484375 71.798317 -22482.166016
v 28910.484375 -292.989929 -22650.427734
v 28910.484375 42.692841 -22590.791016
v 29089.515625 42.692841 -22590.791016
v 29089.515625 -292.989929 -22650.427734
v 29089.515625 -332.748810 -22498.000000
v 29089.515625 71.798317 -22482.166016
v 28910.484375 -332.748810 -21502.000000
v 28910.484375 -292.989929 -21349.572266
v 28910.484375 71.798317 -21517.833984
v 28910.484375 42.692841 -21409.208984
v 29089.515625 42.692841 -21409.208984
v 29089.515625 -292.989929 -21349.572266
v 29089.515625 -332.748810 -21502.000000
v 29089.515625 71.798317 -21517.833984
v 30022.738281 176.359268 -22020.000000
v 29990.000000 176.359268 -22020.000000
v 29990.000000 218.359177 -22020.000000
v 29990.000000 176.359268 -21980.000000
v 30022.738281 176.359268 -21980.000000
v 29990.000000 218.359177 -21980.000000
v 30074.914063 93.359367 -22020.000000
v 29990.000000 93.359367 -22020.000000
v 30074.914063 93.359367 -21980.000000
v 29990.000000 93.359367 -21980.000000
v 30074.914063 15.359380 -22020.000000
v 29990.000000 15.359380 -22020.000000
v 29990.000000 15.359380 -21980.000000
v 30074.914063 15.359380 -21980.000000
v 28010.000000 176.359268 -22020.000000
v 27977.261719 176.359268 -22020.000000
v 28010.000000 218.359268 -22020.000000
v 27977.261719 176.359268 -21980.000000
v 28010.000000 176.359268 -21980.000000
v 28010.000000 218.359268 -21980.000000
v 28010.000000 93.359367 -22020.000000
v 28010.000000 15.359380 -22020.000000
v 27925.085938 93.359367 -22020.000000
v 27925.085938 15.359380 -22020.000000
v 27925.085938 15.359380 -21980.000000
v 28010.000000 15.359380 -21980.000000
v 27925.085938 93.359367 -21980.000000
v 28010.000000 93.359367 -21980.000000
v 28275.556641 172.359268 -22194.111328
v 28250.000000 172.359268 -21999.998047
v 28306.298828 15.146970 -22185.875000
v 28281.828125 15.146970 -21999.998047
v 28275.556641 172.359268 -21805.882813
v 28306.300781 15.146970 -21814.121094
v 28350.480469 172.359268 -22374.998047
v 28378.044922 15.146970 -22359.083984
v 28350.480469 172.359268 -21624.998047
v 28378.044922 15.146970 -21640.912109
v 28469.669922 172.359268 -22530.328125
v 28492.175781 15.146970 -22507.822266
v 28469.669922 172.359268 -21469.667969
v 28492.175781 15.146970 -21492.173828
v 28625.000000 172.359268 -22649.517578
v 28640.914063 15.146970 -22621.953125
v 28625.000000 172.359268 -21350.480469
v 28640.914063 15.146970 -21378.044922
v 28805.886719 172.359268 -22724.443359
v 28814.123047 15.146970 -22693.699219
v 28805.886719 172.359268 -21275.554688
v 28814.123047 15.146970 -21306.298828
v 29000.000000 172.359268 -22750.000000
v 29000.000000 15.146970 -22718.171875
v 29000.000000 172.359268 -21250.000000
v 29000.000000 15.146970 -21281.828125
v 29194.113281 172.359268 -22724.445313
v 29185.876953 15.146970 -22693.701172
v 29194.113281 172.359268 -21275.556641
v 29185.876953 15.146970 -21306.300781
v 29375.000000 172.359268 -22649.519531
v 29359.085938 15.146970 -22621.955078
v 29375.000000 172.359268 -21350.482422
v 29359.085938 15.146970 -21378.044922
v 29530.330078 172.359268 -22530.330078
v 29507.824219 15.146970 -22507.824219
v 29530.330078 172.359268 -21469.669922
v 29507.824219 15.146970 -21492.177734
v 29649.519531 172.359268 -22375.001953
v 29621.955078 15.146970 -22359.085938
v 29649.519531 172.359268 -21625.001953
v 29621.955078 15.146970 -21640.916016
v 29724.443359 172.359268 -22194.115234
v 29693.701172 15.146970 -22185.878906
v 29724.443359 172.359268 -21805.886719
v 29693.701172 15.146970 -21814.125000
v 29750.000000 172.359268 -22000.001953
v 29718.171875 15.146970 -22000.001953
v 29628.394531 -279.233826 -22030.074219
v 29628.394531 -279.233826 -21969.925781
v 29628.394531 -31.469730 -22030.074219
v 29628.394531 -31.469730 -21969.925781
v 29706.851563 93.337173 -21969.925781
v 29706.851563 93.337173 -22030.074219
v 29756.080078 156.492462 -22030.074219
v 29756.080078 156.492462 -21969.925781
v 28293.148438 93.337173 -21969.925781
v 28293.148438 93.337173 -22030.074219
v 28243.919922 156.492462 -21969.925781
v 28243.919922 156.492462 -22030.074219
v 28371.603516 -31.469730 -22030.074219
v 28371.603516 -31.469730 -21969.925781
v 28371.603516 -279.233826 -21969.925781
v 28371.603516 -279.233826 -22030.074219
v 29756.080078 93.337173 -22030.074219
v 29756.080078 93.337173 -21969.925781
v 29756.080078 -31.469730 -22030.074219
v 29756.080078 -279.233826 -22030.074219
v 29756.080078 -279.233826 -21969.925781
v 29756.080078 -31.469730 -21969.925781
v 28243.919922 93.337173 -22030.074219
v 28243.919922 93.337173 -21969.925781
v 28243.919922 -31.469730 -22030.074219
v 28243.919922 -31.469730 -21969.925781
v 28243.919922 -279.233826 -22030.074219
v 28243.919922 -279.233826 -21969.925781
v 28492.375000 12.359380 -22136.017578
v 28474.468750 12.359380 -22000.000000
v 28517.037109 172.359268 -22129.410156
v 28500.000000 172.359268 -22000.000000
v 28492.375000 12.359380 -21863.982422
v 28517.037109 172.359268 -21870.589844
v 28544.875000 12.359380 -22262.765625
v 28566.988281 172.359268 -22250.000000
v 28544.875000 12.359380 -21737.234375
v 28566.988281 172.359268 -21750.000000
v 28628.392578 12.359380 -22371.607422
v 28646.447266 172.359268 -22353.552734
v 28628.392578 12.359380 -21628.392578
v 28646.447266 172.359268 -21646.447266
v 28737.234375 12.359380 -22455.125000
v 28750.000000 172.359268 -22433.011719
v 28737.234375 12.359380 -21544.875000
v 28750.000000 172.359268 -21566.988281
v 28863.982422 12.359380 -22507.625000
v 28870.589844 172.359268 -22482.962891
v 28863.982422 12.359380 -21492.375000
v 28870.589844 172.359268 -21517.037109
v 29000.000000 12.359380 -21474.468750
v 29000.000000 172.359268 -21500.000000
v 29000.000000 12.359380 -22525.533203
v 29000.000000 172.359268 -22500.000000
v 29136.017578 12.359380 -21492.375000
v 29129.410156 172.359268 -21517.037109
v 29136.017578 12.359380 -22507.625000
v 29129.410156 172.359268 -22482.962891
v 29262.765625 12.359380 -22455.125000
v 29250.000000 172.359268 -22433.011719
v 29262.765625 12.359380 -21544.875000
v 29250.000000 172.359268 -21566.988281
v 29371.607422 12.359380 -22371.607422
v 29353.552734 172.359268 -22353.552734
v 29371.607422 12.359380 -21628.392578
v 29353.552734 172.359268 -21646.447266
v 29455.125000 12.359380 -22262.765625
v 29433.011719 172.359268 -22250.000000
v 29455.125000 12.359380 -21737.234375
v 29433.011719 172.359268 -21750.000000
v 29507.625000 12.359380 -22136.017578
v 29482.962891 172.359268 -22129.410156
v 29507.625000 12.359380 -21863.982422
v 29482.962891 172.359268 -21870.589844
v 29525.531250 12.359380 -22000.000000
v 29500.000000 172.359268 -22000.000000
v 27944.246094 15.146970 -22000.000000
v 27980.220703 15.146970 -22273.250000
v 27944.246094 -47.640629 -22000.000000
v 27980.220703 -47.640629 -22273.250000
v 27980.220703 15.146970 -21726.751953
v 27980.220703 -47.640629 -21726.751953
v 27985.287109 93.359367 -22271.890625
v 27949.492188 93.359367 -22000.000000
v 27985.287109 93.359367 -21728.109375
v 28034.074219 172.359268 -22258.818359
v 28000.000000 172.359268 -22000.000000
v 28034.074219 172.359268 -21741.181641
v 28000.000000 176.359161 -22000.000000
v 28034.074219 176.359161 -21741.181641
v 28034.074219 176.359161 -22258.818359
v 28085.691406 15.146970 -22527.876953
v 28090.234375 93.359367 -22525.253906
v 28085.691406 15.146970 -21472.123047
v 28090.234375 93.359367 -21474.746094
v 28133.974609 172.359268 -22500.000000
v 28133.974609 172.359268 -21500.000000
v 28062.500000 172.359268 -22000.000000
v 28094.445313 172.359268 -22242.642578
v 28062.500000 176.359161 -22000.000000
v 28094.445313 176.359161 -22242.642578
v 28094.445313 172.359268 -21757.357422
v 28094.445313 176.359161 -21757.357422
v 28133.974609 176.359161 -21500.000000
v 28133.974609 176.359161 -22500.000000
v 28235.166016 15.146970 -22204.937500
v 28235.166016 -47.640629 -22204.937500
v 28235.166016 15.146970 -21795.062500
v 28235.166016 -47.640629 -21795.062500
v 28188.101563 172.359268 -22468.750000
v 28188.101563 176.359161 -22468.750000
v 28188.101563 172.359268 -21531.250000
v 28188.101563 176.359161 -21531.250000
v 28253.470703 15.146970 -22746.529297
v 28257.179688 93.359367 -22742.820313
v 28253.470703 15.146970 -21253.470703
v 28257.179688 93.359367 -21257.179688
v 28292.892578 172.359268 -22707.107422
v 28292.892578 172.359268 -21292.894531
v 28292.892578 176.359161 -22707.107422
v 28292.892578 176.359161 -21292.894531
v 28208.185547 15.146970 -22000.000000
v 28208.185547 -47.640629 -22000.000000
v 28337.087891 172.359268 -22662.912109
v 28337.087891 176.359161 -22662.912109
v 28337.087891 172.359268 -21337.087891
v 28337.087891 176.359161 -21337.087891
v 28472.123047 15.146970 -22914.308594
v 28474.746094 93.359367 -22909.765625
v 28472.123047 15.146970 -21085.691406
v 28474.746094 93.359367 -21090.234375
v 28500.000000 172.359268 -21133.974609
v 28500.000000 172.359268 -22866.025391
v 28500.000000 176.359161 -22866.025391
v 28500.000000 176.359161 -21133.974609
v 28531.250000 172.359268 -22811.898438
v 28531.250000 176.359161 -22811.898438
v 28531.250000 172.359268 -21188.101563
v 28531.250000 176.359161 -21188.101563
v 28472.123047 -47.640629 -22914.308594
v 28604.091797 15.146970 -22685.732422
v 28604.091797 -47.640629 -22685.732422
v 28604.093750 15.146970 -21314.269531
v 28472.123047 -47.640629 -21085.691406
v 28604.093750 -47.640629 -21314.269531
v 28726.751953 15.146970 -23019.779297
v 28726.751953 -47.640629 -23019.777344
v 28726.751953 15.146970 -20980.220703
v 28726.751953 -47.640629 -20980.220703
v 28728.109375 93.359367 -23014.712891
v 28728.109375 93.359367 -20985.287109
v 28741.181641 172.359268 -22965.925781
v 28741.181641 172.359268 -21034.074219
v 28741.181641 176.359161 -22965.925781
v 28741.181641 176.359161 -21034.074219
v 28757.357422 172.359268 -22905.554688
v 28757.357422 176.359161 -22905.554688
v 28757.357422 172.359268 -21094.445313
v 28757.357422 176.359161 -21094.445313
v 28795.062500 15.146970 -22764.833984
v 28795.062500 -47.640629 -22764.833984
v 28795.062500 15.146970 -21235.166016
v 28795.062500 -47.640629 -21235.166016
v 29000.000000 15.146970 -23055.751953
v 29000.000000 93.359367 -23050.507813
v 29000.000000 15.146970 -20944.246094
v 29000.000000 93.359367 -20949.492188
v 29000.000000 172.359268 -23000.000000
v 29000.000000 172.359268 -21000.000000
v 29271.890625 93.359367 -23014.712891
v 29258.818359 172.359268 -22965.925781
v 29271.890625 93.359367 -20985.287109
v 29258.818359 172.359268 -21034.074219
v 29273.248047 15.146970 -23019.779297
v 29273.248047 15.146970 -20980.220703
v 29273.248047 -47.640629 -23019.779297
v 29204.937500 15.146970 -22764.833984
v 29204.937500 -47.640629 -22764.833984
v 29204.937500 15.146970 -21235.166016
v 29273.248047 -47.640629 -20980.220703
v 29204.937500 -47.640629 -21235.166016
v 29242.642578 172.359268 -22905.554688
v 29258.818359 176.359161 -22965.925781
v 29242.642578 176.359161 -22905.554688
v 29258.818359 176.359161 -21034.074219
v 29242.642578 172.359268 -21094.445313
v 29242.642578 176.359161 -21094.445313
v 29395.906250 15.146970 -22685.732422
v 29395.906250 -47.640629 -22685.730469
v 29395.906250 15.146970 -21314.269531
v 29395.906250 -47.640629 -21314.269531
v 29468.750000 172.359268 -22811.898438
v 29468.750000 176.359161 -22811.898438
v 29468.750000 172.359268 -21188.101563
v 29468.750000 176.359161 -21188.101563
v 29500.000000 172.359268 -22866.025391
v 29500.000000 176.359161 -22866.025391
v 29500.000000 172.359268 -21133.974609
v 29500.000000 176.359161 -21133.974609
v 29525.253906 93.359367 -22909.765625
v 29525.253906 93.359367 -21090.234375
v 29527.876953 15.146970 -22914.308594
v 29527.876953 15.146970 -21085.691406
v 29527.876953 -47.640629 -22914.308594
v 29527.876953 -47.640629 -21085.691406
v 29662.912109 172.359268 -22662.912109
v 29662.912109 176.359161 -22662.912109
v 29662.912109 172.359268 -21337.087891
v 29662.912109 176.359161 -21337.087891
v 29707.107422 172.359268 -22707.107422
v 29707.107422 176.359161 -22707.107422
v 29707.107422 172.359268 -21292.894531
v 29707.107422 176.359161 -21292.894531
v 29742.820313 93.359367 -21257.179688
v 29742.820313 93.359367 -22742.820313
v 29746.529297 15.146970 -22746.529297
v 29746.529297 15.146970 -21253.470703
v 29811.898438 172.359268 -22468.750000
v 29811.898438 176.359161 -22468.750000
v 29811.898438 172.359268 -21531.250000
v 29811.898438 176.359161 -21531.250000
v 29791.814453 15.146970 -22000.000000
v 29764.833984 15.146970 -22204.937500
v 29791.814453 -47.640629 -22000.000000
v 29764.833984 -47.640629 -22204.937500
v 29764.833984 15.146970 -21795.062500
v 29764.833984 -47.640629 -21795.064453
v 29866.025391 172.359268 -22500.000000
v 29866.025391 176.359161 -22500.000000
v 29866.025391 172.359268 -21500.000000
v 29866.025391 176.359161 -21500.000000
v 29909.765625 93.359367 -22525.253906
v 29909.765625 93.359367 -21474.746094
v 29914.308594 15.146970 -22527.876953
v 29914.308594 15.146970 -21472.123047
v 29905.554688 172.359268 -22242.642578
v 29905.554688 176.359161 -22242.642578
v 29905.554688 172.359268 -21757.357422
v 29905.554688 176.359161 -21757.357422
v 30019.779297 15.146970 -22273.250000
v 30019.779297 -47.640629 -22273.250000
v 30019.779297 15.146970 -21726.750000
v 30019.779297 -47.640629 -21726.750000
v 29965.925781 172.359268 -21741.181641
v 29965.925781 176.359161 -21741.179688
v 29965.925781 172.359268 -22258.818359
v 29965.925781 176.359161 -22258.818359
v 29937.500000 172.359268 -22000.000000
v 29937.500000 176.359161 -22000.000000
v 30014.712891 93.359367 -22271.890625
v 30014.712891 93.359367 -21728.109375
v 30000.000000 172.359268 -22000.000000
v 30000.000000 176.359161 -22000.000000
v 30050.507813 93.359367 -22000.000000
v 30055.751953 15.146970 -22000.000000
v 30055.751953 -47.640629 -22000.000000
v 30000.000000 176.359268 -22000.000000
v 29937.500000 176.359268 -22000.000000
v 29000.000000 172.359268 -23000.000000
v 28741.181641 172.359268 -22965.925781
v 29000.000000 172.359268 -22937.500000
v 28757.357422 172.359268 -22905.554688
v 28741.181641 172.359268 -21034.074219
v 29000.000000 172.359268 -21000.000000
v 28757.357422 172.359268 -21094.445313
v 29000.000000 172.359268 -21062.500000
v 29258.818359 172.359268 -22965.925781
v 29242.642578 172.359268 -22905.554688
v 29258.818359 172.359268 -21034.074219
v 29242.642578 172.359268 -21094.445313
v 28094.445313 172.359268 -22242.642578
v 28062.500000 172.359268 -22000.000000
v 28154.814453 172.359268 -22226.466797
v 28125.000000 172.359268 -22000.000000
v 28094.445313 172.359268 -21757.357422
v 28154.814453 172.359268 -21773.533203
v 28188.101563 172.359268 -22468.750000
v 28242.228516 172.359268 -22437.500000
v 28188.101563 172.359268 -21531.250000
v 28242.228516 172.359268 -21562.500000
v 28275.556641 172.359268 -22194.115234
v 28250.000000 172.359268 -22000.000000
v 28275.556641 172.359268 -21805.886719
v 28350.480469 172.359268 -22375.000000
v 28350.480469 172.359268 -21625.000000
v 28337.087891 172.359268 -22662.912109
v 28381.281250 172.359268 -22618.718750
v 28337.087891 172.359268 -21337.087891
v 28381.281250 172.359268 -21381.281250
v 28469.669922 172.359268 -22530.330078
v 28469.669922 172.359268 -21469.669922
v 28531.250000 172.359268 -22811.898438
v 28562.500000 172.359268 -22757.771484
v 28531.250000 172.359268 -21188.101563
v 28562.500000 172.359268 -21242.228516
v 28625.000000 172.359268 -22649.519531
v 28625.000000 172.359268 -21350.480469
v 28773.533203 172.359268 -22845.185547
v 28773.533203 172.359268 -21154.814453
v 28805.886719 172.359268 -22724.445313
v 28805.886719 172.359268 -21275.554688
v 29000.000000 172.359268 -22875.000000
v 29000.000000 172.359268 -21125.000000
v 29000.000000 172.359268 -22750.000000
v 29000.000000 172.359268 -21250.000000
v 29226.466797 172.359268 -22845.185547
v 29194.113281 172.359268 -22724.445313
v 29226.466797 172.359268 -21154.814453
v 29194.113281 172.359268 -21275.554688
v 29437.500000 172.359268 -22757.771484
v 29375.000000 172.359268 -22649.519531
v 29437.500000 172.359268 -21242.228516
v 29375.000000 172.359268 -21350.480469
v 29468.750000 172.359268 -22811.898438
v 29468.750000 172.359268 -21188.101563
v 29618.718750 172.359268 -22618.718750
v 29530.330078 172.359268 -22530.330078
v 29618.718750 172.359268 -21381.281250
v 29530.330078 172.359268 -21469.669922
v 29662.912109 172.359268 -22662.912109
v 29662.912109 172.359268 -21337.087891
v 29757.771484 172.359268 -22437.500000
v 29649.519531 172.359268 -22375.000000
v 29757.771484 172.359268 -21562.500000
v 29649.519531 172.359268 -21625.000000
v 29811.898438 172.359268 -22468.750000
v 29811.898438 172.359268 -21531.250000
v 29845.185547 172.359268 -22226.466797
v 29724.443359 172.359268 -22194.115234
v 29845.185547 172.359268 -21773.533203
v 29724.443359 172.359268 -21805.886719
v 29875.000000 172.359268 -22000.000000
v 29750.000000 172.359268 -22000.000000
v 29905.554688 172.359268 -22242.642578
v 29905.554688 172.359268 -21757.357422
v 29937.500000 172.359268 -22000.000000
v 28000.000000 176.359161 -22000.000000
v 28034.074219 176.359161 -21741.181641
v 28062.500000 176.359161 -22000.000000
v 28094.445313 176.359161 -21757.357422
v 28034.074219 176.359161 -22258.818359
v 28094.445313 176.359161 -22242.642578
v 28133.974609 176.359161 -22500.000000
v 28188.101563 176.359161 -22468.750000
v 28133.974609 176.359161 -21500.000000
v 28188.101563 176.359161 -21531.250000
v 28292.892578 176.359161 -22707.107422
v 28337.087891 176.359161 -22662.912109
v 28292.892578 176.359161 -21292.894531
v 28337.087891 176.359161 -21337.087891
v 28500.000000 176.359161 -21133.974609
v 28531.250000 176.359161 -21188.101563
v 28500.000000 176.359268 -22866.025391
v 28531.250000 176.359268 -22811.898438
v 28741.181641 176.359161 -21034.074219
v 28757.357422 176.359161 -21094.445313
v 28741.181641 176.359161 -22965.925781
v 28757.357422 176.359161 -22905.554688
v 28517.037109 172.359283 -22129.408203
v 28500.000000 172.359283 -22000.000000
v 28553.035156 172.359283 -22119.763672
v 28537.267578 172.359283 -22000.000000
v 28517.037109 172.359283 -21870.591797
v 28553.035156 172.359283 -21880.236328
v 28566.988281 172.359283 -21750.000000
v 28599.261719 172.359283 -21768.634766
v 28566.988281 172.359283 -22250.000000
v 28599.261719 172.359283 -22231.365234
v 28646.447266 172.359283 -22353.554688
v 28672.800781 172.359283 -22327.201172
v 28646.447266 172.359283 -21646.447266
v 28672.800781 172.359283 -21672.798828
v 28750.000000 172.359283 -21566.988281
v 28768.634766 172.359283 -21599.261719
v 28750.000000 172.359283 -22433.011719
v 28768.634766 172.359283 -22400.738281
v 28870.589844 172.359283 -21517.037109
v 28880.238281 172.359283 -21553.035156
v 28870.589844 172.359283 -22482.962891
v 28880.238281 172.359283 -22446.964844
v 28896.076172 172.359268 -22060.000000
v 28880.000000 172.359268 -22000.000000
v 28927.148438 172.359283 -22042.054688
v 28915.880859 172.359283 -21999.992188
v 28896.076172 172.359268 -21940.000000
v 28927.152344 172.359283 -21957.937500
v 28940.000000 172.359268 -22103.921875
v 28957.941406 172.359283 -22072.851563
v 28940.000000 172.359268 -21896.078125
v 28957.943359 172.359283 -21927.148438
v 29000.000000 172.359283 -22500.000000
v 29000.000000 172.359283 -22462.732422
v 29000.000000 172.359283 -21500.000000
v 29000.000000 172.359283 -21537.267578
v 29000.000000 172.359268 -22120.000000
v 29000.000000 172.359283 -22084.117188
v 29000.000000 172.359268 -21880.000000
v 29000.000000 172.359283 -21915.882813
v 29129.410156 172.359283 -22482.962891
v 29119.761719 172.359283 -22446.964844
v 29129.410156 172.359283 -21517.037109
v 29119.761719 172.359283 -21553.035156
v 29250.000000 172.359283 -21566.988281
v 29231.365234 172.359283 -21599.261719
v 29250.000000 172.359283 -22433.011719
v 29231.365234 172.359283 -22400.738281
v 29353.552734 172.359283 -21646.447266
v 29327.199219 172.359283 -21672.798828
v 29353.552734 172.359283 -22353.552734
v 29327.199219 172.359283 -22327.201172
v 29433.011719 172.359283 -22250.000000
v 29400.738281 172.359283 -22231.365234
v 29433.011719 172.359283 -21750.000000
v 29400.738281 172.359283 -21768.634766
v 29482.962891 172.359283 -21870.591797
v 29446.964844 172.359283 -21880.236328
v 29482.962891 172.359283 -22129.408203
v 29446.964844 172.359283 -22119.763672
v 29500.000000 172.359283 -22000.000000
v 29462.732422 172.359283 -22000.000000
v 29060.000000 172.359268 -22103.921875
v 29042.060547 172.359283 -22072.843750
v 29060.000000 172.359268 -21896.078125
v 29042.058594 172.359283 -21927.148438
v 29103.923828 172.359268 -21940.000000
v 29072.843750 172.359283 -21957.945313
v 29103.923828 172.359268 -22060.000000
v 29072.849609 172.359283 -22042.054688
v 29120.000000 172.359268 -22000.000000
v 29084.117188 172.359283 -22000.007813
v 29000.000000 172.359268 -22000.000000
# 635 vertices

vt 13.15160 5.61970
vt 15.99990 7.00010
vt 15.72740 4.92950
vt 13.33330 7.00010
vt 15.72740 9.07060
vt 13.15160 8.38040
vt 12.61880 4.33340
vt 14.92820 3.00010
vt 14.92820 11.00000
vt 12.61880 9.66670
vt 13.65680 12.65690
vt 11.77120 10.77130
vt 11.77120 3.22880
vt 13.65680 1.34320
vt 10.66660 2.38120
vt 11.99990 0.07180
vt 11.99990 13.92820
vt 10.66660 11.61890
vt 10.07050 14.72740
vt 9.38030 12.15170
vt 9.38030 1.84840
vt 10.07050 -0.72730
vt 7.99990 1.66670
vt 7.99990 -1.00000
vt 7.99990 14.99990
vt 7.99990 12.33340
vt 6.61960 1.84840
vt 5.92940 -0.72740
vt 5.92940 14.72740
vt 6.61960 12.15170
vt 3.99990 13.92830
vt 5.33330 11.61890
vt 5.33330 2.38120
vt 3.99990 0.07180
vt 4.22870 3.22880
vt 2.34310 1.34320
vt 2.34310 12.65690
vt 4.22870 10.77130
vt 1.07170 11.00000
vt 3.38110 9.66670
vt 3.38110 4.33340
vt 1.07170 3.00010
vt 2.84830 5.61970
vt 0.27250 4.92950
vt 0.27250 9.07060
vt 2.84830 8.38040
vt 2.66660 7.00010
vt 0.00000 7.00010
vt 0.99990 -0.46150
vt 1.99990 -0.61970
vt 0.99990 -0.61970
vt 1.99990 -0.46150
vt 0.00190 -0.86250
vt 0.99800 -0.99810
vt 0.99800 -0.86250
vt 0.00190 -0.99810
vt -0.99990 -0.46150
vt 0.00000 -0.61970
vt -0.99990 -0.61970
vt 0.00000 -0.46150
vt 0.00190 -0.45720
vt 0.99800 -0.61770
vt 0.00190 -0.61770
vt 0.99800 -0.45720
vt -0.99990 -0.45520
vt 0.00000 -0.62590
vt -0.99990 -0.62590
vt 0.00000 -0.45520
vt 0.00190 -0.86620
vt 0.99800 -0.86620
vt 0.99990 -0.46320
vt 1.99990 -0.62640
vt 0.99990 -0.62640
vt 1.99990 -0.46320
vt -0.49880 -0.45960
vt 0.49990 -0.63520
vt -0.49880 -0.63520
vt 0.49990 -0.45960
vt -0.49990 -0.46000
vt 0.49680 -0.63480
vt -0.49990 -0.63480
vt 0.49680 -0.46000
vt 0.00190 0.53860
vt 0.99800 0.37630
vt 0.00190 0.37630
vt 0.99800 0.53860
vt 0.99800 0.13780
vt 0.00190 -0.00620
vt 0.00190 0.13780
vt 0.99800 -0.00620
vt 0.00190 0.54020
vt 0.99800 0.38210
vt 0.00190 0.38210
vt 0.99800 0.54020
vt 0.00190 0.54110
vt 0.99800 0.37750
vt 0.00190 0.37750
vt 0.99800 0.54110
vt 0.00190 0.13400
vt 0.99800 -0.00240
vt 0.99800 0.13400
vt 0.00190 -0.00240
vt 0.00190 0.54210
vt 0.99800 0.38020
vt 0.00190 0.38020
vt 0.99800 0.54210
vt 0.00190 0.54340
vt 0.99800 0.37890
vt 0.00190 0.37890
vt 0.99800 0.54340
vt 0.99800 0.53970
vt 0.00190 0.37770
vt 0.99800 0.37770
vt 0.00190 0.53970
vt 0.99800 0.13330
vt 0.00190 -0.00170
vt 0.00190 0.13330
vt 0.99800 -0.00170
vt -0.37910 0.62740
vt 1.09380 -0.03970
vt -0.41600 -0.03970
vt 0.92290 0.45740
vt 0.92040 0.01300
vt -0.24920 0.80210
vt 0.92040 0.80210
vt -0.24920 0.01300
vt 1.23780 -0.04390
vt -0.18170 0.64240
vt -0.29280 -0.04390
vt 1.14840 0.45310
vt 1.03590 0.52950
vt 0.04310 0.00190
vt 1.03590 0.00190
vt 0.04310 0.52950
vt 1.00320 -0.12750
vt 0.75170 -0.12750
vt 0.75170 -0.28880
vt 0.25460 -0.12750
vt 0.25460 -0.54580
vt -0.21230 -0.12750
vt -0.21230 -0.54580
vt 1.26810 -1.12980
vt 0.99350 -1.29110
vt 0.99350 -1.12980
vt 0.45090 -1.54810
vt -0.05890 -1.12980
vt 0.45090 -1.12980
vt -0.05890 -1.54810
vt 0.99800 0.62490
vt 0.00190 0.00190
vt 0.00190 0.62490
vt 0.99800 0.00190
vt 9.24750 -0.28090
vt 9.49690 -0.03970
vt 9.24750 -0.03970
vt 9.49690 -0.28090
vt 9.74630 -0.03970
vt 9.74630 -0.28090
vt 8.99810 -0.28090
vt 8.99810 -0.03970
vt 9.99570 -0.03970
vt 9.99570 -0.28090
vt 8.74870 -0.28090
vt 8.74870 -0.03970
vt 10.24510 -0.03970
vt 10.24510 -0.28090
vt 8.49930 -0.28090
vt 8.49930 -0.03970
vt 10.49450 -0.03970
vt 10.49450 -0.28090
vt 8.24990 -0.28090
vt 8.24990 -0.03970
vt 10.74390 -0.03970
vt 10.74390 -0.28090
vt 8.00050 -0.28090
vt 8.00050 -0.03970
vt 10.99330 -0.03970
vt 10.99330 -0.28090
vt 7.75110 -0.28090
vt 7.75110 -0.03970
vt 5.00760 -0.28090
vt 5.25700 -0.03970
vt 5.00760 -0.03970
vt 5.25700 -0.28090
vt 7.50170 -0.28090
vt 7.50170 -0.03970
vt 5.50640 -0.03970
vt 5.50640 -0.28090
vt 7.25230 -0.28090
vt 7.25230 -0.03970
vt 5.75580 -0.03970
vt 5.75580 -0.28090
vt 7.00280 -0.28090
vt 7.00280 -0.03970
vt 6.00520 -0.03970
vt 6.00520 -0.28090
vt 6.75340 -0.28090
vt 6.75340 -0.03970
vt 6.25460 -0.03970
vt 6.25460 -0.28090
vt 6.50400 -0.28090
vt 6.50400 -0.03970
vt -1.74250 -0.00200
vt -4.74360 -0.99810
vt -4.74360 -0.00200
vt -1.74250 -0.99810
vt 0.01070 -0.99810
vt 0.01070 -0.00200
vt 0.99800 -0.00200
vt 1.69130 -0.99810
vt 2.24690 -0.00200
vt 2.24690 -0.99810
vt 1.69130 -0.00200
vt 1.02710 -0.99810
vt 1.02710 -0.00200
vt -0.37340 -0.00200
vt -0.37340 -0.99810
vt -1.24690 -0.99810
vt -1.24690 -0.00200
vt 0.99800 -1.00200
vt 0.00190 -1.99810
vt 0.00190 -1.00200
vt 0.99800 -1.99810
vt 2.24300 -1.99810
vt 2.24300 -1.00200
vt 2.99000 -1.00200
vt 2.99000 -1.99810
vt 3.74170 -1.00200
vt 3.74170 -1.99810
vt -0.00300 -1.99810
vt -0.00300 -1.00200
vt -1.49820 -1.00200
vt -1.49820 -1.99810
vt -3.24960 -1.99810
vt -3.24960 -1.00200
vt -0.07210 -0.38870
vt 0.10880 -0.23890
vt 0.10880 -0.38870
vt 0.46650 -0.00010
vt 1.17650 -0.38870
vt 0.46650 -0.38870
vt 1.17650 -0.00010
vt -0.12190 -1.37840
vt 0.06780 -1.37840
vt 0.06780 -1.23040
vt 0.44310 -0.99450
vt 0.44310 -1.37840
vt 1.18800 -1.37840
vt 1.18800 -0.99450
vt 0.91600 -0.00200
vt 0.50000 -0.99810
vt 0.91600 -0.99810
vt 0.50000 -0.00200
vt 0.08390 -0.99810
vt 0.08390 -0.00200
vt 1.33210 -0.00200
vt 1.33210 -0.99810
vt -0.33210 -0.99810
vt -0.33210 -0.00200
vt 1.74820 -0.00200
vt 1.74820 -0.99810
vt -0.74820 -0.99810
vt -0.74820 -0.00200
vt 2.16420 -0.00200
vt 2.16420 -0.99810
vt -1.16420 -0.99810
vt -1.16420 -0.00200
vt 2.58030 -0.00200
vt 2.58030 -0.99810
vt -1.58030 -0.99810
vt -1.58030 -0.00200
vt -1.99640 -0.99810
vt -1.99640 -0.00200
vt 2.99640 -0.00200
vt 2.99640 -0.99810
vt -0.00760 -0.99810
vt 0.54750 -0.66610
vt -0.00760 -0.66610
vt 0.54750 -0.99810
vt -0.56270 -0.66610
vt -0.56270 -0.99810
vt 0.54750 -0.33400
vt -0.00760 -0.33400
vt -0.56270 -0.33400
vt 0.54750 -0.00200
vt -0.00760 -0.00200
vt -0.56270 -0.00200
vt 0.50000 -0.24800
vt 0.99860 -0.31180
vt 0.49990 -0.31180
vt 0.99860 -0.24800
vt 0.00130 -0.24800
vt 0.00130 -0.31180
vt 0.75130 -0.33370
vt 1.25400 -0.63120
vt 0.75130 -0.63120
vt 1.25400 -0.33370
vt -0.24590 -0.63120
vt 0.25130 -0.33370
vt 0.25130 -0.63120
vt -0.24590 -0.33370
vt 0.75130 -0.00200
vt 1.25400 -0.00200
vt -0.24590 -0.00200
vt 0.25130 -0.00200
vt 0.50000 -0.24890
vt 1.09880 -0.31180
vt 0.50000 -0.31180
vt 1.09880 -0.24890
vt -0.09880 -0.24890
vt -0.09880 -0.31180
vt 1.49730 -0.24800
vt 1.49730 -0.31180
vt -0.49730 -0.24800
vt -0.49730 -0.31180
vt -0.86030 -0.99810
vt -0.06550 -0.60060
vt -0.86030 -0.60060
vt -0.06550 -0.99810
vt 1.06550 -0.60060
vt 1.86030 -0.99810
vt 1.86030 -0.60060
vt 1.06550 -0.99810
vt 1.69760 -0.31180
vt 1.69760 -0.24890
vt -0.69760 -0.24890
vt -0.69760 -0.31180
vt 0.24860 -0.33370
vt 0.24860 -0.63120
vt 0.74860 -0.63120
vt 0.74860 -0.33370
vt 0.24860 -0.00200
vt 0.74860 -0.00200
vt -0.99590 -0.24800
vt -0.99590 -0.31180
vt 1.99590 -0.31180
vt 1.99590 -0.24800
vt 0.49990 -0.60060
vt 0.49990 -0.99810
vt 2.29640 -0.31180
vt 2.29640 -0.24890
vt -1.29640 -0.24890
vt -1.29640 -0.31180
vt -0.25400 -0.63120
vt -0.25400 -0.33370
vt 1.24590 -0.63120
vt 1.24590 -0.33370
vt 1.24590 -0.00200
vt -0.25400 -0.00200
vt -1.49460 -0.24800
vt -1.49460 -0.31180
vt 2.49460 -0.31180
vt 2.49460 -0.24800
vt 2.89520 -0.31180
vt 2.89520 -0.24890
vt -1.89520 -0.24890
vt -1.89520 -0.31180
vt 0.77550 -0.68790
vt 1.32660 -0.99810
vt 1.32660 -0.68790
vt 0.77550 -0.99810
vt -0.28830 -0.99810
vt 0.29000 -0.66920
vt -0.28830 -0.66920
vt 0.29000 -0.99810
vt 0.75830 -0.99810
vt 0.24160 -0.66610
vt 0.75830 -0.66610
vt 0.24160 -0.99810
vt 0.24990 -0.99810
vt 0.75000 -0.66610
vt 0.24990 -0.66610
vt 0.75000 -0.99810
vt 0.24160 -0.33400
vt 0.75830 -0.33400
vt 0.75000 -0.33400
vt 0.24990 -0.33400
vt 0.75830 -0.00200
vt 0.24160 -0.00200
vt 0.75000 -0.00200
vt 0.24990 -0.00200
vt -1.99330 -0.31180
vt -1.99330 -0.24800
vt 2.99330 -0.31180
vt 2.99330 -0.24800
vt 3.49400 -0.31180
vt 3.49400 -0.24890
vt -2.49400 -0.24890
vt -2.49400 -0.31180
vt 0.22440 -0.99810
vt 0.22440 -0.68790
vt 0.70990 -0.66920
vt 0.70990 -0.99810
vt -2.49190 -0.31180
vt -2.49190 -0.24800
vt 3.49190 -0.31180
vt 3.49190 -0.24800
vt -0.32660 -0.99810
vt -0.32660 -0.68790
vt 1.28830 -0.99810
vt 1.28830 -0.66920
vt 0.49990 -0.33370
vt 1.06780 -0.63120
vt 0.49990 -0.63120
vt 1.06780 -0.33370
vt -0.06660 -0.63120
vt -0.06660 -0.33370
vt 1.06780 -0.00200
vt 0.49990 -0.00200
vt -0.06660 -0.00200
vt -0.06780 -0.00200
vt -0.06780 -0.33370
vt 1.06660 -0.00200
vt 1.06660 -0.33370
vt -0.06780 -0.63120
vt 1.06660 -0.63120
vt 0.71850 -0.68790
vt 1.30900 -0.99810
vt 1.30900 -0.68790
vt 0.71850 -0.99810
vt -0.29950 -0.99810
vt 0.28180 -0.66920
vt -0.29950 -0.66920
vt 0.28180 -0.99810
vt 2.98880 -0.25170
vt 3.48660 -0.31150
vt 2.98880 -0.31150
vt 3.48660 -0.25170
vt -2.48660 -0.31150
vt -1.98880 -0.25170
vt -1.98880 -0.31150
vt -2.48660 -0.25170
vt 0.28140 -0.99810
vt 0.28140 -0.68790
vt 0.71810 -0.66920
vt 0.71810 -0.99810
vt -2.49800 -0.25130
vt -1.89840 -0.31200
vt -2.49800 -0.31200
vt -1.89840 -0.25130
vt 2.89840 -0.25130
vt 3.49800 -0.31200
vt 2.89840 -0.31200
vt 3.49800 -0.25130
vt 2.49110 -0.25170
vt 2.49110 -0.31150
vt -1.49110 -0.25170
vt -1.49110 -0.31150
vt 0.24590 -0.00200
vt 0.75400 -0.33400
vt 0.24590 -0.33400
vt 0.75400 -0.00200
vt 0.75260 -0.33400
vt 0.24730 -0.00200
vt 0.24730 -0.33400
vt 0.75260 -0.00200
vt 0.75400 -0.66610
vt 0.24590 -0.66610
vt 0.24730 -0.66610
vt 0.75260 -0.66610
vt 0.75400 -0.99810
vt 0.24590 -0.99810
vt 0.24730 -0.99810
vt 0.75260 -0.99810
vt -0.30900 -0.99810
vt -0.30900 -0.68790
vt 1.29950 -0.99810
vt 1.29950 -0.66920
vt -1.29880 -0.31200
vt -1.29880 -0.25130
vt 2.29880 -0.25130
vt 2.29880 -0.31200
vt 1.99330 -0.25170
vt 1.99330 -0.31150
vt -0.99330 -0.31150
vt -0.99330 -0.25170
vt 0.75170 -0.00200
vt 1.25530 -0.33370
vt 0.75170 -0.33370
vt 1.25530 -0.00200
vt 1.25530 -0.63120
vt 0.75170 -0.63120
vt -0.69920 -0.31200
vt -0.69920 -0.25130
vt 1.69920 -0.25130
vt 1.69920 -0.31200
vt 0.87360 -0.68170
vt 0.49990 -0.68170
vt 0.87360 -0.99810
vt 0.12630 -0.99810
vt 0.12630 -0.68170
vt 1.49550 -0.25170
vt 1.49550 -0.31150
vt -0.49550 -0.31150
vt -0.49550 -0.25170
vt 0.24820 -0.00200
vt 0.24820 -0.33370
vt 0.24820 -0.63120
vt -0.09960 -0.31200
vt -0.09960 -0.25130
vt 1.09960 -0.25130
vt 1.09960 -0.31200
vt 1.43420 -0.99810
vt 1.43420 -0.68170
vt -0.43420 -0.99810
vt -0.43420 -0.68170
vt 0.00220 -0.31150
vt 0.00220 -0.25170
vt 0.99770 -0.31150
vt 0.99770 -0.25170
vt 0.50000 -0.31200
vt 0.50000 -0.25130
vt -0.25530 -0.00200
vt -0.25530 -0.33370
vt -0.25530 -0.63120
vt 0.50000 -0.25170
vt 0.50000 -0.31150
vt 0.99480 -0.00200
vt 0.43050 -0.33400
vt 0.99480 -0.33400
vt 0.43050 -0.00200
vt 1.55910 -0.00200
vt 1.55910 -0.33400
vt 0.99480 -0.66610
vt 0.43050 -0.66610
vt 1.55910 -0.66610
vt 0.99480 -0.99810
vt 0.43050 -0.99810
vt 1.55910 -0.99810
vt 0.00190 1.50170
vt 0.18460 2.00210
vt 0.18460 1.50170
vt 0.00190 2.00210
vt 0.00190 -3.00210
vt 0.18460 -2.50170
vt 0.18460 -3.00210
vt 0.00190 -2.50170
vt 0.00190 1.00130
vt 0.18460 1.00130
vt 0.18460 -2.00130
vt 0.00190 -2.00130
vt 0.00190 0.50080
vt 0.18460 0.50080
vt 0.18460 -1.50080
vt 0.00190 -1.50080
vt 0.00190 0.00040
vt 0.18460 0.00040
vt 0.18460 -1.00040
vt 0.00190 -1.00040
vt 0.18460 -0.50000
vt 0.00190 -0.50000
vt 1.99880 -0.00200
vt 1.99880 -0.99810
vt -1.00130 -0.99810
vt -1.00130 -0.00200
vt -0.99880 -0.99810
vt -0.99880 -0.00200
vt 2.00130 -0.00200
vt 2.00130 -0.99810
vt 0.49990 -0.62520
vt -0.20900 -0.89370
vt 0.49990 -0.89370
vt -0.20900 -0.62520
vt -0.91810 -0.89370
vt -0.91810 -0.62520
vt 1.20900 -0.62520
vt 1.20900 -0.89370
vt -1.62720 -0.89370
vt -1.62720 -0.62520
vt 0.49990 -0.00010
vt -0.20900 -0.00010
vt -0.91810 -0.00010
vt 1.20900 -0.00010
vt -1.62720 -0.00010
vt 1.91810 -0.62520
vt 1.91810 -0.89370
vt -2.33620 -0.89370
vt -2.33620 -0.62520
vt 1.91810 -0.00010
vt -2.33620 -0.00010
vt 2.62720 -0.62520
vt 2.62720 -0.89370
vt -3.04530 -0.89370
vt -3.04530 -0.62520
vt 2.62720 -0.00010
vt -3.04530 -0.00010
vt 3.33620 -0.62520
vt 3.33620 -0.89370
vt -3.75440 -0.89370
vt -3.75440 -0.62520
vt 3.33620 -0.00010
vt -3.75440 -0.00010
vt 4.04530 -0.62520
vt 4.04530 -0.89370
vt 4.04530 -0.00010
vt 4.75440 -0.00010
vt 4.75440 -0.62520
vt 4.75440 -0.89370
vt 0.00190 -0.50010
vt 0.18350 -0.00030
vt 0.18350 -0.50010
vt 0.00190 -0.00030
vt 0.00190 -0.99980
vt 0.18350 -0.99980
vt 0.00190 -1.49950
vt 0.18350 -1.49950
vt 0.18350 0.49950
vt 0.00190 0.49950
vt 0.00190 -1.99930
vt 0.18350 -1.99930
vt 0.18350 0.99930
vt 0.00190 0.99930
vt 0.18350 1.49910
vt 0.00190 1.49910
vt 0.00190 -2.49910
vt 0.18350 -2.49910
vt 0.18350 1.99890
vt 0.00190 1.99890
vt 0.00190 -2.99890
vt 0.18350 -2.99890
vt -0.33200 5.51340
vt 0.50000 5.99800
vt -0.33200 5.99800
vt 0.50000 5.51340
vt 1.33200 5.99800
vt 1.33200 5.51340
vt 2.16400 5.99800
vt 2.16400 5.51340
vt -1.16400 5.51340
vt -1.16400 5.99800
vt -1.99600 5.51340
vt -1.99600 5.99800
vt 2.99600 5.99800
vt 2.99600 5.51340
vt 3.82800 5.99800
vt 3.82800 5.51340
vt -2.82800 5.51340
vt -2.82800 5.99800
vt 4.66010 5.99800
vt 4.66010 5.51340
vt -3.66010 5.51340
vt -3.66010 5.99800
vt 0.16670 5.99800
vt 0.49990 5.74990
vt 0.16670 5.74990
vt 0.49990 5.99800
vt 0.83320 5.74990
vt 0.83320 5.99800
vt -0.16650 5.99800
vt -0.16650 5.74990
vt 1.16650 5.74990
vt 1.16650 5.99800
vt -4.49210 5.51340
vt -4.49210 5.99800
vt 5.49210 5.99800
vt 5.49210 5.51340
vt -0.49980 5.99800
vt -0.49980 5.74990
vt 1.49980 5.74990
vt 1.49980 5.99800
vt 4.90030 1.00060
vt 4.83550 0.50850
vt 3.49200 1.00060
vt 4.83550 1.49280
vt 4.64560 0.04990
vt 3.42590 0.75410
vt 3.42590 1.24720
vt 4.64560 1.95140
vt 4.34340 -0.34380
vt 4.34340 2.34510
vt 3.94960 -0.64600
vt 3.24540 0.57360
vt 3.94960 2.64730
vt 3.24540 1.42770
vt 3.49100 -0.83600
vt 3.49100 2.83730
vt 2.99890 0.50760
vt 2.99890 1.49370
vt 2.99890 -0.90080
vt 2.99890 2.90210
vt 2.50680 -0.83600
vt 2.50680 2.83730
vt 2.75240 0.57360
vt 2.75240 1.42770
vt 2.04820 -0.64600
vt 2.04820 2.64730
vt 1.65440 -0.34380
vt 2.57190 0.75410
vt 1.65440 2.34510
vt 2.57190 1.24720
vt 2.50580 1.00060
vt 1.16230 0.50850
vt 1.16230 1.49280
vt 1.35220 0.04990
vt 1.35220 1.95140
vt 1.09750 1.00060
vt 0.49990 5.49990
vt 0.49990 5.94820
vt 0.72410 5.88820
vt 0.27580 5.88820
vt 0.88820 5.72410
vt 0.11170 5.72410
vt 0.94820 5.49990
vt 0.05170 5.49990
vt 0.88820 5.27580
vt 0.11170 5.27580
vt 0.72410 5.11170
vt 0.27580 5.11170
vt 0.50000 5.05170
# 709 texture vertices

g Object_2
usemtl texture0
f 1/3 2/2 3/1
f 2/2 4/4 3/1
f 2/2 5/5 4/4
f 5/5 6/6 4/4
f 7/8 1/3 8/7
f 1/3 3/1 8/7
f 5/5 9/9 6/6
f 9/9 10/10 6/6
f 9/9 11/11 10/10
f 11/11 12/12 10/10
f 13/14 7/8 14/13
f 7/8 8/7 14/13
f 15/16 13/14 16/15
f 13/14 14/13 16/15
f 11/11 17/17 12/12
f 17/17 18/18 12/12
f 17/17 19/19 18/18
f 19/19 20/20 18/18
f 21/22 15/16 22/21
f 15/16 16/15 22/21
f 23/24 21/22 24/23
f 21/22 22/21 24/23
f 19/19 25/25 20/20
f 25/25 26/26 20/20
f 27/28 23/24 28/27
f 23/24 24/23 28/27
f 25/25 29/29 26/26
f 29/29 30/30 26/26
f 29/29 31/31 30/30
f 31/31 32/32 30/30
f 33/34 27/28 34/33
f 27/28 28/27 34/33
f 35/36 33/34 36/35
f 33/34 34/33 36/35
f 31/31 37/37 32/32
f 37/37 38/38 32/32
f 37/37 39/39 38/38
f 39/39 40/40 38/38
f 41/42 35/36 42/41
f 35/36 36/35 42/41
f 43/44 41/42 44/43
f 41/42 42/41 44/43
f 39/39 45/45 40/40
f 45/45 46/46 40/40
f 47/48 43/44 48/47
f 43/44 44/43 48/47
f 45/45 47/48 46/46
f 47/48 48/47 46/46
g obj1
usemtl mat1
f 49/51 50/50 51/49
f 50/50 52/52 51/49
f 53/55 51/54 54/53
f 51/54 52/56 54/53
f 55/59 56/58 54/57
f 56/58 53/60 54/57
f 57/63 58/62 59/61
f 58/62 60/64 59/61
f 61/53 59/56 62/55
f 59/56 60/54 62/55
f 63/63 64/62 65/61
f 64/62 66/64 65/61
f 67/63 68/62 69/61
f 68/62 70/64 69/61
f 66/53 69/56 65/55
f 69/56 70/54 65/55
f 71/67 72/66 73/65
f 72/66 74/68 73/65
f 74/70 75/54 73/69
f 75/54 76/56 73/69
f 77/73 78/72 75/71
f 78/72 76/74 75/71
f 79/77 80/76 81/75
f 80/76 82/78 81/75
f 82/70 83/54 81/69
f 83/54 84/56 81/69
f 85/81 86/80 83/79
f 86/80 84/82 83/79
f 87/85 88/84 89/83
f 88/84 90/86 89/83
f 91/89 89/88 92/87
f 89/88 90/90 92/87
f 93/93 94/92 92/91
f 94/92 91/94 92/91
usemtl texture1
f 95/63 96/62 62/61
f 96/62 61/64 62/61
f 97/97 98/96 99/95
f 98/96 100/98 99/95
f 100/101 101/100 99/99
f 101/100 102/102 99/99
f 103/105 104/104 101/103
f 104/104 102/106 101/103
f 105/109 106/108 107/107
f 106/108 108/110 107/107
f 109/113 110/112 111/111
f 110/112 112/114 111/111
f 112/117 107/116 111/115
f 107/116 108/118 111/115
usemtl texture2
f 113/121 114/120 115/119
f 114/120 116/122 115/119
f 117/125 118/124 116/123
f 118/124 115/126 116/123
f 119/121 118/119 120/120
f 118/119 117/122 120/120
f 121/129 122/128 123/127
f 122/128 124/130 123/127
f 124/133 122/132 125/131
f 122/132 126/134 125/131
f 127/129 128/127 126/128
f 128/127 125/130 126/128
f 129/137 130/136 131/135
f 132/136 133/137 134/135
f 135/139 136/138 129/137
f 136/138 130/136 129/137
f 137/139 133/137 138/138
f 133/137 132/136 138/138
f 139/141 140/140 135/139
f 140/140 136/138 135/139
f 138/138 141/140 137/139
f 137/139 141/140 142/141
f 143/144 144/143 145/142
f 146/143 147/144 148/142
f 149/147 150/146 151/145
f 151/145 150/146 152/148
f 153/148 154/146 155/145
f 154/146 156/147 155/145
f 151/145 144/143 149/147
f 144/143 143/144 149/147
f 155/145 156/147 146/143
f 156/147 147/144 146/143
usemtl texture3
f 120/151 117/150 114/149
f 117/150 116/152 114/149
f 123/149 124/152 128/151
f 124/152 125/150 128/151
usemtl texture4
f 157/155 158/154 159/153
f 158/154 160/156 159/153
f 158/154 161/157 160/156
f 161/157 162/158 160/156
f 163/160 157/155 164/159
f 157/155 159/153 164/159
f 161/157 165/161 162/158
f 165/161 166/162 162/158
f 167/164 163/160 168/163
f 163/160 164/159 168/163
f 165/161 169/165 166/162
f 169/165 170/166 166/162
f 171/168 167/164 172/167
f 167/164 168/163 172/167
f 169/165 173/169 170/166
f 173/169 174/170 170/166
f 175/172 171/168 176/171
f 171/168 172/167 176/171
f 173/169 177/173 174/170
f 177/173 178/174 174/170
f 179/176 175/172 180/175
f 175/172 176/171 180/175
f 177/173 181/177 178/174
f 181/177 182/178 178/174
f 183/180 179/176 184/179
f 179/176 180/175 184/179
f 181/183 185/182 182/181
f 185/182 186/184 182/181
f 187/186 183/180 188/185
f 183/180 184/179 188/185
f 185/182 189/187 186/184
f 189/187 190/188 186/184
f 191/190 187/186 192/189
f 187/186 188/185 192/189
f 189/187 193/191 190/188
f 193/191 194/192 190/188
f 195/194 191/190 196/193
f 191/190 192/189 196/193
f 193/191 197/195 194/192
f 197/195 198/196 194/192
f 199/198 195/194 200/197
f 195/194 196/193 200/197
f 197/195 201/199 198/196
f 201/199 202/200 198/196
f 203/202 199/198 204/201
f 199/198 200/197 204/201
f 201/199 203/202 202/200
f 203/202 204/201 202/200
usemtl texture5
f 205/205 206/204 207/203
f 206/204 208/206 207/203
f 208/206 209/207 207/203
f 209/207 210/208 207/203
f 210/208 209/207 211/209
f 209/207 212/54 211/209
f 130/212 132/211 131/210
f 132/211 134/213 131/210
f 133/215 129/214 134/213
f 129/214 131/210 134/213
f 135/217 129/214 137/216
f 129/214 133/215 137/216
f 142/219 139/218 137/216
f 139/218 135/217 137/216
f 152/222 153/221 151/220
f 153/221 155/223 151/220
f 155/223 146/224 151/220
f 146/224 144/225 151/220
f 144/225 146/224 145/226
f 146/224 148/227 145/226
f 147/229 143/228 148/227
f 143/228 145/226 148/227
f 213/231 214/230 215/220
f 214/230 216/223 215/220
f 217/233 214/230 218/232
f 214/230 213/231 218/232
f 219/235 220/234 218/232
f 220/234 217/233 218/232
usemtl texture6
f 221/238 210/237 211/236
f 209/237 222/238 212/236
f 223/241 224/240 207/239
f 207/239 224/240 205/242
f 206/242 225/240 208/239
f 225/240 226/241 208/239
f 223/241 207/239 221/238
f 207/239 210/237 221/238
f 226/241 222/238 208/239
f 208/239 222/238 209/237
f 214/245 227/244 216/243
f 228/244 213/245 215/243
f 229/247 227/244 217/246
f 217/246 227/244 214/245
f 230/247 218/246 228/244
f 218/246 213/245 228/244
f 220/249 231/248 217/246
f 231/248 229/247 217/246
f 230/247 232/248 218/246
f 218/246 232/248 219/249
usemtl texture7
f 233/252 234/251 235/250
f 236/253 235/250 234/251
f 234/251 237/254 236/253
f 238/255 236/253 237/254
f 239/257 233/252 240/256
f 235/250 240/256 233/252
f 237/254 241/258 238/255
f 242/259 238/255 241/258
f 243/261 239/257 244/260
f 240/256 244/260 239/257
f 241/258 245/262 242/259
f 246/263 242/259 245/262
f 247/265 243/261 248/264
f 244/260 248/264 243/261
f 245/262 249/266 246/263
f 250/267 246/263 249/266
f 251/269 247/265 252/268
f 248/264 252/268 247/265
f 249/266 253/270 250/267
f 254/271 250/267 253/270
f 253/270 255/272 254/271
f 256/273 254/271 255/272
f 257/275 251/269 258/274
f 252/268 258/274 251/269
f 255/275 259/269 256/274
f 260/268 256/274 259/269
f 261/270 257/272 262/271
f 258/273 262/271 257/272
f 263/266 261/270 264/267
f 262/271 264/267 261/270
f 259/269 265/265 260/268
f 266/264 260/268 265/265
f 267/262 263/266 268/263
f 264/267 268/263 263/266
f 265/265 269/261 266/264
f 270/260 266/264 269/261
f 271/258 267/262 272/259
f 268/263 272/259 267/262
f 269/261 273/257 270/260
f 274/256 270/260 273/257
f 275/254 271/258 276/255
f 272/259 276/255 271/258
f 273/257 277/252 274/256
f 278/250 274/256 277/252
f 279/251 275/254 280/253
f 276/255 280/253 275/254
f 277/252 279/251 278/250
f 280/253 278/250 279/251
usemtl texture8
f 281/278 282/277 283/276
f 282/277 284/279 283/276
f 281/278 283/276 285/280
f 285/280 283/276 286/281
f 282/277 281/278 287/282
f 281/278 288/283 287/282
f 285/280 289/284 281/278
f 281/278 289/284 288/283
f 287/282 288/283 290/285
f 288/283 291/286 290/285
f 288/283 289/284 291/286
f 289/284 292/287 291/286
f 291/290 292/289 293/288
f 292/289 294/291 293/288
f 290/293 291/290 295/292
f 291/290 293/288 295/292
f 296/296 282/295 297/294
f 282/295 287/297 297/294
f 298/300 299/299 285/298
f 285/298 299/299 289/301
f 297/294 287/297 300/302
f 287/297 290/303 300/302
f 289/301 299/299 292/304
f 299/299 301/305 292/304
f 302/308 303/307 304/306
f 303/307 305/309 304/306
f 306/311 302/308 307/310
f 302/308 304/306 307/310
f 301/313 308/312 292/289
f 292/289 308/312 294/291
f 295/292 309/314 290/293
f 300/315 290/293 309/314
f 282/318 310/317 284/316
f 310/317 311/319 284/316
f 285/322 286/321 312/320
f 312/320 286/321 313/323
f 303/307 314/324 305/309
f 314/324 315/325 305/309
f 316/327 306/311 317/326
f 306/311 307/310 317/326
f 318/329 296/296 319/328
f 296/296 297/294 319/328
f 298/300 320/330 299/299
f 320/330 321/331 299/299
f 319/328 297/294 322/332
f 297/294 300/302 322/332
f 299/299 321/331 301/305
f 321/331 323/333 301/305
f 322/335 300/315 324/334
f 300/315 309/314 324/334
f 301/313 323/336 308/312
f 323/336 325/337 308/312
f 310/317 326/338 311/319
f 326/338 327/339 311/319
f 326/338 312/320 327/339
f 312/320 313/323 327/339
f 314/324 328/340 315/325
f 328/340 329/341 315/325
f 330/343 316/327 331/342
f 316/327 317/326 331/342
f 318/329 319/328 332/344
f 332/344 319/328 333/345
f 320/330 334/346 321/331
f 334/346 335/347 321/331
f 321/331 335/347 323/333
f 335/347 336/348 323/333
f 333/345 319/328 337/349
f 319/328 322/332 337/349
f 337/351 322/335 338/350
f 322/335 324/334 338/350
f 323/336 336/352 325/337
f 336/352 339/353 325/337
f 328/340 340/354 329/341
f 340/354 341/355 329/341
f 342/357 330/343 343/356
f 330/343 331/342 343/356
f 332/360 344/359 345/358
f 345/358 344/359 346/361
f 334/364 347/363 348/362
f 347/363 349/365 348/362
f 332/368 350/367 344/366
f 350/367 351/369 344/366
f 352/372 334/371 353/370
f 334/371 348/373 353/370
f 350/367 332/368 354/374
f 332/368 333/375 354/374
f 334/371 352/372 335/376
f 352/372 355/377 335/376
f 333/375 337/378 354/374
f 354/374 337/378 356/379
f 335/376 355/377 336/380
f 355/377 357/381 336/380
f 337/351 338/350 356/382
f 356/382 338/350 358/383
f 359/385 339/353 357/384
f 336/352 357/384 339/353
f 340/354 360/386 341/355
f 360/386 361/387 341/355
f 362/389 342/357 363/388
f 342/357 343/356 363/388
f 364/391 345/358 365/390
f 345/358 346/361 365/390
f 347/363 366/392 349/365
f 366/392 367/393 349/365
f 356/382 358/383 360/394
f 360/394 358/383 361/395
f 357/384 362/396 359/385
f 362/396 363/397 359/385
f 350/399 364/391 351/398
f 364/391 365/390 351/398
f 352/401 353/400 366/392
f 366/392 353/400 367/393
f 368/404 350/403 369/402
f 350/403 354/405 369/402
f 370/404 371/402 352/406
f 352/406 371/402 355/407
f 354/405 356/408 369/402
f 369/402 356/408 372/409
f 355/407 371/402 357/410
f 371/402 373/409 357/410
f 374/412 369/402 375/411
f 369/402 372/409 375/411
f 376/414 377/413 371/402
f 371/402 377/413 373/409
f 368/404 369/402 378/415
f 378/415 369/402 374/412
f 370/404 379/416 371/402
f 379/416 376/414 371/402
f 378/419 380/418 381/417
f 381/417 380/418 382/420
f 379/423 383/422 384/421
f 383/422 385/424 384/421
f 375/427 386/426 387/425
f 386/426 388/428 387/425
f 377/431 389/430 390/429
f 390/429 389/430 391/432
f 392/434 381/417 393/433
f 381/417 382/420 393/433
f 383/422 394/435 385/424
f 394/435 395/436 385/424
f 386/439 396/438 388/437
f 396/438 397/440 388/437
f 398/443 390/442 399/441
f 390/442 391/444 399/441
f 400/446 375/427 401/445
f 375/427 387/425 401/445
f 402/448 403/447 377/431
f 377/431 403/447 389/430
f 404/451 374/450 400/449
f 374/450 375/452 400/449
f 405/455 402/454 376/453
f 376/453 402/454 377/456
f 406/458 378/457 404/451
f 378/457 374/450 404/451
f 379/460 407/459 376/453
f 407/459 405/455 376/453
f 378/457 406/458 380/461
f 406/458 408/462 380/461
f 407/459 379/460 409/463
f 379/460 384/464 409/463
f 406/466 392/434 408/465
f 392/434 393/433 408/465
f 407/468 409/467 394/435
f 394/435 409/467 395/436
f 396/438 410/469 397/440
f 410/469 411/470 397/440
f 412/472 398/443 413/471
f 398/443 399/441 413/471
f 414/474 400/446 415/473
f 400/446 401/445 415/473
f 402/448 416/475 403/447
f 416/475 417/476 403/447
f 405/345 418/328 402/349
f 418/328 416/332 402/349
f 419/479 404/478 414/477
f 404/478 400/480 414/477
f 420/482 406/481 419/479
f 406/481 404/478 419/479
f 421/329 418/328 407/344
f 407/344 418/328 405/345
f 410/469 422/483 411/470
f 422/483 423/484 411/470
f 424/486 412/472 425/485
f 412/472 413/471 425/485
f 426/488 427/487 428/339
f 427/487 429/489 428/339
f 430/491 426/488 431/490
f 426/488 428/339 431/490
f 432/493 414/474 433/492
f 414/474 415/473 433/492
f 416/475 434/494 417/476
f 434/494 435/495 417/476
f 436/497 419/479 432/496
f 419/479 414/477 432/496
f 418/328 437/294 416/332
f 437/294 434/302 416/332
f 438/498 420/482 436/497
f 420/482 419/479 436/497
f 421/329 439/296 418/328
f 439/296 437/294 418/328
f 422/483 440/499 423/484
f 440/499 441/500 423/484
f 442/502 424/486 443/501
f 424/486 425/485 443/501
f 444/504 445/503 427/487
f 427/487 445/503 429/489
f 446/506 430/491 447/505
f 430/491 431/490 447/505
f 434/494 448/507 435/495
f 448/507 449/508 435/495
f 432/493 433/492 450/509
f 450/509 433/492 451/510
f 440/499 452/511 441/500
f 452/511 453/512 441/500
f 452/511 442/502 453/512
f 442/502 443/501 453/512
f 454/514 436/497 450/513
f 436/497 432/496 450/513
f 437/294 455/297 434/302
f 455/297 448/303 434/302
f 438/498 436/497 444/515
f 444/515 436/497 454/514
f 439/296 446/295 437/294
f 446/295 455/297 437/294
f 456/517 457/516 448/507
f 448/507 457/516 449/508
f 450/509 451/510 456/517
f 456/517 451/510 457/516
f 458/520 454/519 456/518
f 454/519 450/521 456/518
f 455/523 458/520 448/522
f 458/520 456/518 448/522
f 444/525 454/519 459/524
f 459/524 454/519 458/520
f 446/526 459/524 455/523
f 459/524 458/520 455/523
f 459/524 460/527 444/525
f 444/525 460/527 445/528
f 459/524 446/526 460/527
f 446/526 447/529 460/527
usemtl texture9
f 401/532 387/531 397/530
f 387/531 388/533 397/530
f 389/536 403/535 391/534
f 403/535 399/537 391/534
f 415/539 401/532 411/538
f 401/532 397/530 411/538
f 403/535 417/540 399/537
f 417/540 413/541 399/537
f 433/543 415/539 423/542
f 415/539 411/538 423/542
f 417/540 435/544 413/541
f 435/544 425/545 413/541
f 451/547 433/543 441/546
f 433/543 423/542 441/546
f 435/544 449/548 425/545
f 449/548 443/549 425/545
f 449/548 461/550 443/549
f 461/550 462/551 443/549
f 461/550 451/547 462/551
f 451/547 441/546 462/551
g obj2
usemtl mat2
f 463/409 464/552 465/339
f 464/552 466/553 465/339
f 467/555 468/409 469/554
f 468/409 470/339 469/554
f 471/557 463/409 472/556
f 463/409 465/339 472/556
f 468/409 473/558 470/339
f 473/558 474/559 470/339
usemtl mat3
f 475/562 476/561 477/560
f 476/561 478/563 477/560
f 476/561 479/564 478/563
f 479/564 480/565 478/563
f 481/567 475/562 482/566
f 475/562 477/560 482/566
f 479/564 483/568 480/565
f 483/568 484/569 480/565
f 477/560 478/563 485/570
f 478/563 486/571 485/570
f 478/563 480/565 486/571
f 480/565 487/572 486/571
f 482/566 477/560 488/573
f 477/560 485/570 488/573
f 480/565 484/569 487/572
f 484/569 489/574 487/572
f 490/576 481/567 491/575
f 481/567 482/566 491/575
f 483/568 492/577 484/569
f 492/577 493/578 484/569
f 491/575 482/566 494/579
f 482/566 488/573 494/579
f 484/569 493/578 489/574
f 493/578 495/580 489/574
f 496/582 490/576 497/581
f 490/576 491/575 497/581
f 492/577 498/583 493/578
f 498/583 499/584 493/578
f 497/581 491/575 500/585
f 491/575 494/579 500/585
f 493/578 499/584 495/580
f 499/584 501/586 495/580
f 466/588 496/582 502/587
f 496/582 497/581 502/587
f 498/583 469/589 499/584
f 469/589 503/590 499/584
f 502/587 497/581 504/591
f 497/581 500/585 504/591
f 499/584 503/590 501/586
f 503/590 505/592 501/586
f 465/594 466/588 506/593
f 466/588 502/587 506/593
f 469/589 470/583 503/590
f 470/583 507/584 503/590
f 506/593 502/587 508/595
f 502/587 504/591 508/595
f 503/590 507/584 505/592
f 507/584 509/586 505/592
f 510/597 506/593 511/596
f 506/593 508/595 511/596
f 507/584 512/578 509/586
f 512/578 513/580 509/586
f 472/598 465/594 510/597
f 465/594 506/593 510/597
f 470/583 474/577 507/584
f 474/577 512/578 507/584
f 514/593 510/597 515/595
f 510/597 511/596 515/595
f 512/578 516/569 513/580
f 516/569 517/574 513/580
f 518/594 472/598 514/593
f 472/598 510/597 514/593
f 474/577 519/568 512/578
f 519/568 516/569 512/578
f 520/587 514/593 521/591
f 514/593 515/595 521/591
f 516/569 522/565 517/574
f 522/565 523/572 517/574
f 524/588 518/594 520/587
f 518/594 514/593 520/587
f 519/568 525/564 516/569
f 525/564 522/565 516/569
f 526/581 520/587 527/585
f 520/587 521/591 527/585
f 522/565 528/563 523/572
f 528/563 529/571 523/572
f 530/582 524/588 526/581
f 524/588 520/587 526/581
f 525/564 531/561 522/565
f 531/561 528/563 522/565
f 532/575 526/581 533/579
f 526/581 527/585 533/579
f 528/563 534/560 529/571
f 534/560 535/570 529/571
f 536/566 532/575 537/573
f 532/575 533/579 537/573
f 534/560 536/566 535/570
f 536/566 537/573 535/570
f 538/576 530/582 532/575
f 530/582 526/581 532/575
f 531/561 539/562 528/563
f 539/562 534/560 528/563
f 540/567 538/576 536/566
f 538/576 532/575 536/566
f 539/562 540/567 534/560
f 540/567 536/566 534/560
usemtl mat4
f 541/601 542/600 543/599
f 542/600 544/602 543/599
f 545/604 541/601 546/603
f 541/601 543/599 546/603
f 547/606 545/604 548/605
f 545/604 546/603 548/605
f 542/600 549/607 544/602
f 549/607 550/608 544/602
f 551/610 547/606 552/609
f 547/606 548/605 552/609
f 549/607 553/611 550/608
f 553/611 554/612 550/608
f 553/611 555/613 554/612
f 555/613 556/614 554/612
f 557/616 551/610 558/615
f 551/610 552/609 558/615
f 555/613 559/617 556/614
f 559/617 560/618 556/614
f 561/620 557/616 562/619
f 557/616 558/615 562/619
usemtl mat5
f 563/623 564/622 565/621
f 564/622 566/624 565/621
f 564/622 567/625 566/624
f 567/625 568/626 566/624
f 567/625 569/627 568/626
f 569/627 570/628 568/626
f 571/630 563/623 572/629
f 563/623 565/621 572/629
f 573/632 571/630 574/631
f 571/630 572/629 574/631
f 569/627 575/633 570/628
f 575/633 576/634 570/628
f 575/633 577/635 576/634
f 577/635 578/636 576/634
f 579/638 573/632 580/637
f 573/632 574/631 580/637
f 577/635 581/639 578/636
f 581/639 582/640 578/636
f 583/642 579/638 584/641
f 579/638 580/637 584/641
f 585/645 586/644 587/643
f 586/644 588/646 587/643
f 586/644 589/647 588/646
f 589/647 590/648 588/646
f 591/650 585/645 592/649
f 585/645 587/643 592/649
f 589/647 593/651 590/648
f 593/651 594/652 590/648
f 595/654 583/642 596/653
f 583/642 584/641 596/653
f 581/639 597/655 582/640
f 597/655 598/656 582/640
f 599/658 591/650 600/657
f 591/650 592/649 600/657
f 593/651 601/659 594/652
f 601/659 602/660 594/652
f 603/639 595/655 604/640
f 595/655 596/656 604/640
f 597/654 605/642 598/653
f 605/642 606/641 598/653
f 605/642 607/638 606/641
f 607/638 608/637 606/641
f 609/635 603/639 610/636
f 603/639 604/640 610/636
f 607/638 611/632 608/637
f 611/632 612/631 608/637
f 613/633 609/635 614/634
f 609/635 610/636 614/634
f 615/627 613/633 616/628
f 613/633 614/634 616/628
f 611/632 617/630 612/631
f 617/630 618/629 612/631
f 617/630 619/623 618/629
f 619/623 620/621 618/629
f 621/625 615/627 622/626
f 615/627 616/628 622/626
f 623/622 621/625 624/624
f 621/625 622/626 624/624
f 619/623 623/622 620/621
f 623/622 624/624 620/621
f 625/651 599/659 626/652
f 599/659 600/660 626/652
f 601/658 627/650 602/657
f 627/650 628/649 602/657
f 627/650 629/645 628/649
f 629/645 630/643 628/649
f 631/647 625/651 632/648
f 625/651 626/652 632/648
f 629/645 633/644 630/643
f 633/644 634/646 630/643
f 633/644 631/647 634/646
f 631/647 632/648 634/646
usemtl mat6
f 586/663 565/662 566/661
f 568/664 586/663 566/661
f 565/662 585/666 572/665
f 570/668 589/667 568/664
f 585/666 574/669 572/665
f 576/670 589/667 570/668
f 586/663 585/666 565/662
f 568/664 589/667 586/663
f 574/669 591/672 580/671
f 593/674 576/670 578/673
f 585/666 591/672 574/669
f 593/674 589/667 576/670
f 580/671 591/672 584/675
f 582/676 593/674 578/673
f 584/675 591/672 599/677
f 601/678 593/674 582/676
f 584/675 599/677 596/679
f 601/678 582/676 598/680
f 599/677 604/681 596/679
f 606/682 601/678 598/680
f 599/677 625/683 604/681
f 606/682 627/684 601/678
f 604/681 625/683 610/685
f 608/686 627/684 606/682
f 625/683 631/688 614/687
f 629/690 627/684 612/689
f 625/683 614/687 610/685
f 612/689 627/684 608/686
f 622/692 631/688 633/691
f 633/691 629/690 620/693
f 614/687 631/688 616/694
f 629/690 612/689 618/695
f 616/694 631/688 622/692
f 620/693 629/690 618/695
f 622/692 633/691 624/696
f 633/691 620/693 624/696
usemtl mat7
f 587/699 588/698 635/697
f 588/698 590/700 635/697
f 592/701 587/699 635/697
f 590/700 594/702 635/697
f 600/703 592/701 635/697
f 594/702 602/704 635/697
f 626/705 600/703 635/697
f 602/704 628/706 635/697
f 632/707 626/705 635/697
f 628/706 630/708 635/697
f 630/708 634/709 635/697
f 634/709 632/707 635/697
# 780 elements

