# Model created using BSP2OBJ v0.2.1 by DCx Demo*
# http://devilclanthps3.weebly.com/

mtllib Skybox2.obj.mtl
# Object number 1
# 661 faces
# 879 vertices

v -49999.99219 -4000.00000 -7000.01514
v -46193.97656 -4000.00000 12134.15625
v -36418.99219 -4000.00000 -7000.01074
v -33646.76563 -4000.00000 6936.93652
v -46193.96094 -4000.00000 -26134.18359
v -33646.75391 -4000.00000 -20936.95508
v -35355.34375 -4000.00000 28355.32813
v -25752.12500 -4000.00000 18752.11328
v -35355.31641 -4000.00000 -42355.34375
v -25752.10547 -4000.00000 -32752.12500
v -28909.79688 -4000.00000 -7000.00879
v -26709.17188 -4000.00000 4063.29395
v -26709.16602 -4000.00000 -18063.30859
v -20442.32031 -4000.00000 13442.31055
v -20442.30664 -4000.00000 -27442.32031
v -22643.21875 -4000.00000 -7000.00732
v -20919.61133 -4000.00000 1665.17969
v -20919.60352 -4000.00000 -15665.19141
v -19134.17969 -4000.00000 39193.96875
v -13936.95215 -4000.00000 26646.76172
v -19134.14844 -4000.00000 -53193.97266
v -13936.92969 -4000.00000 -40646.76563
v -16011.17676 -4000.00000 9011.17090
v -16011.16699 -4000.00000 -23011.17578
v -18541.30078 -4000.00000 -7000.00684
v -17129.93359 -4000.00000 95.44336
v -17129.92773 -4000.00000 -14095.45703
v -11063.30762 -4000.00000 19709.16992
v -11063.28809 -4000.00000 -33709.17188
v -13110.68652 -4000.00000 6110.67578
v -13110.67578 -4000.00000 -20110.68750
v -11063.30664 -4000.00000 19709.16992
v -8665.18945 -4000.00000 13919.60645
v -8665.17676 -4000.00000 -27919.61133
v -8665.18945 -4000.00000 13919.60742
v -7095.45459 -4000.00000 10129.92969
v -7095.44238 -4000.00000 -24129.93359
v -0.00800 -4000.00000 42999.99609
v -0.00540 -4000.00000 29418.99609
v 0.02220 -4000.00000 -56999.98438
v 0.01650 -4000.00000 -43418.98828
v -0.00470 -4000.00000 21909.80273
v 0.01270 -4000.00000 -35909.79297
v -0.00470 -4000.00000 21909.80078
v -0.00380 -4000.00000 15643.22266
v 0.00980 -4000.00000 -29643.21875
v -0.00420 -4000.00000 11541.30078
v 0.00690 -4000.00000 -25541.30078
v 8665.18359 -4000.00000 13919.61328
v 7095.44336 -4000.00000 10129.93359
v 8665.19336 -4000.00000 -27919.60156
v 0.00980 -4000.00000 -29643.21875
v 7095.45557 -4000.00000 -24129.92578
v 0.00690 -4000.00000 -25541.30078
v 11063.29883 -4000.00000 19709.17578
v 11063.31152 -4000.00000 -33709.16406
v 0.01270 -4000.00000 -35909.79297
v 13936.94336 -4000.00000 26646.76953
v 13936.95996 -4000.00000 -40646.75000
v 0.01650 -4000.00000 -43418.98828
v 19134.16602 -4000.00000 39193.97656
v 19134.18750 -4000.00000 -53193.95313
v 0.02220 -4000.00000 -56999.98438
v 16011.17676 -4000.00000 9011.17871
v 13110.68262 -4000.00000 6110.68359
v 16011.17871 -4000.00000 -23011.16406
v 13110.68555 -4000.00000 -20110.67383
v 20442.31641 -4000.00000 13442.32031
v 20442.32227 -4000.00000 -27442.30273
v 20919.60938 -4000.00000 1665.18652
v 17129.93164 -4000.00000 95.44922
v 20919.60938 -4000.00000 -15665.17285
v 17129.93164 -4000.00000 -14095.44141
v 25752.11719 -4000.00000 18752.12305
v 25752.12695 -4000.00000 -32752.10156
v 22643.22266 -4000.00000 -7000.00000
v 18541.30078 -4000.00000 -7000.00098
v 26709.17188 -4000.00000 -18063.28516
v 26709.17383 -4000.00000 4063.30371
v 35355.33594 -4000.00000 28355.33984
v 35355.34766 -4000.00000 -42355.31250
v 28909.80078 -4000.00000 -7000.00000
v 33646.76563 -4000.00000 6936.94824
v 33646.76563 -4000.00000 -20936.92578
v 36419.00000 -4000.00000 -6999.99951
v 46193.97656 -4000.00000 12134.17188
v 46193.97266 -4000.00000 -26134.14063
v 50000.00000 -4000.00000 -7000.00000
v -49999.99609 -4000.00000 -7000.01514
v -48780.82813 2147.77441 -7000.01514
v -46193.98047 -4000.00000 12134.15625
v -45067.61328 2147.77441 11667.60352
v -46193.96094 -4000.00000 -26134.18359
v -45067.60156 2147.77441 -25667.62891
v -35355.34375 -4000.00000 28355.32813
v -34493.26563 2147.77441 27493.24609
v -35355.31641 -4000.00000 -42355.34375
v -34493.23828 2147.77441 -41493.26563
v -19134.17969 -4000.00000 39193.96875
v -18667.62500 2147.77441 38067.61328
v -19134.14844 -4000.00000 -53193.98047
v -18667.59375 2147.77441 -52067.61328
v -0.00800 -4000.00000 42999.99609
v -0.00800 2147.77441 41780.83594
v 0.02220 -4000.00000 -56999.98438
v 0.02150 2147.77441 -55780.82031
v -0.00800 -4000.00000 42999.99609
v -0.00800 2147.77441 41780.83594
v 19134.16602 -4000.00000 39193.98047
v 18667.61133 2147.77441 38067.61719
v 19134.18750 -4000.00000 -53193.95313
v 18667.63281 2147.77441 -52067.59375
v 35355.33594 -4000.00000 28355.33984
v 34493.25391 2147.77441 27493.26172
v 35355.34766 -4000.00000 -42355.31250
v 34493.26563 2147.77441 -41493.23438
v 46193.98047 -4000.00000 12134.17188
v 45067.61328 2147.77441 11667.61719
v 46193.98047 -4000.00000 -26134.14063
v 45067.61328 2147.77441 -25667.58984
v 50000.00000 -4000.00000 -7000.00000
v 48780.83594 2147.77441 -7000.00049
v 6257.53125 -1499.99976 -5105.09961
v 6257.53125 -1499.99976 -7373.61572
v 5669.66748 -1499.99963 -5499.82275
v 5669.66748 -1499.99963 -6978.89307
v 1916.10889 -2035.74915 -4601.00146
v 1309.89111 -2035.74939 -4601.00146
v 1613.00000 -2035.74939 -4426.00146
v 1309.89124 -2035.74939 -5951.00146
v 1916.10876 -2035.74915 -5951.00146
v 1613.00000 -2035.74915 -6126.00146
v 1916.10876 -2035.74915 -5951.00146
v 1309.89124 -2035.74939 -5951.00146
v 1916.10889 -2035.74915 -4601.00146
v 1309.89111 -2035.74939 -4601.00146
v -2681.84985 -4000.00073 -9199.84668
v -3100.00000 -4000.00024 -9000.00000
v -2623.10815 -4000.00000 -8700.00000
v -1674.24036 -4000.00000 -8628.23633
v -2319.99951 -4000.00000 -8525.00000
v -1529.99988 -4000.00024 -8047.21729
v -1074.70764 -4000.00000 -8408.73145
v -700.58478 -4000.00000 -7239.99805
v -700.58472 -3999.99976 -8200.00000
v -825.29218 -4000.00000 -7455.99805
v -825.29242 -3999.99976 -7983.50049
v -1074.70764 -4000.00000 -7984.50049
v -1072.19556 -4000.00000 -9154.60352
v -1274.99976 -4000.00000 -9025.60938
v -1071.80115 -4000.00000 -9025.58691
v -477.90381 -4000.00000 -8425.00000
v -464.80780 -3999.99854 -7180.00000
v -825.29230 -3999.99976 -8416.00000
v -724.04901 -3999.99878 -7030.12354
v -470.65561 -3999.99854 -7615.83398
v -464.80780 -3999.99854 -7180.00000
v 99.32870 -4000.00024 -7615.28857
v 99.78280 -4000.00000 -6855.00146
v 186.99989 -4000.00000 -8830.00000
v 1051.87341 -4000.00000 -9392.21387
v 185.84801 -4000.00049 -9392.21582
v 250.00011 -4000.00049 -8184.81836
v 1133.39075 -4000.00049 -8186.15918
v 249.99989 -4000.00000 -6970.00000
v 1129.99988 -4000.00000 -6970.00000
v 2016.78125 -4000.00024 -8187.50098
v 1626.89111 -4000.00073 -9573.67969
v 2009.99988 -4000.00000 -6970.00000
v -4435.55127 -2035.74939 -8187.34619
v -4890.21484 -2035.74915 -8974.84570
v -4890.21484 -2035.74902 -8449.84570
v -3136.51392 -2035.74902 -9987.34570
v -2681.85059 -2035.74939 -9199.84570
v -2681.85059 -2035.74927 -9724.84570
v -4069.99951 -3390.00000 -3363.75024
v -3545.42480 -3390.00000 -3668.75024
v -4069.99951 -3150.00000 -3668.74878
v -45067.61328 2147.77441 11667.60352
v -48780.82813 2147.77441 -7000.01514
v -37664.92578 14321.12891 8601.30859
v -40768.21094 14321.12793 -7000.01270
v -45067.60156 2147.77441 -25667.62891
v -37664.91016 14321.12891 -22601.33398
v -34493.26563 2147.77441 27493.24609
v -28827.48828 14321.12793 21827.47852
v -34493.23828 2147.77441 -41493.26563
v -28827.46875 14321.12793 -35827.48828
v -18667.62500 2147.77441 38067.61328
v -15601.33008 14321.12891 30664.91797
v -28827.49023 14321.12793 21827.47852
v -18667.59375 2147.77441 -52067.61328
v -15601.30371 14321.12891 -44664.92188
v -21667.63477 22804.47070 1975.02051
v -21667.62695 22804.47070 -15975.03320
v -21667.62695 22804.47070 -15975.03223
v -8975.03027 22804.47070 14667.62500
v -8975.01660 22804.47070 -28667.63477
v -0.00800 2147.77441 41780.83594
v -0.00710 14321.12793 33768.21484
v 0.02150 2147.77441 -55780.82031
v 0.01750 14321.12793 -47768.20703
v 0.00000 25219.63867 -7000.00000
v 8975.02344 22804.47070 14667.63379
v 8975.03418 22804.47070 -28667.62305
v 15601.31738 14321.12891 30664.92188
v 15601.33691 14321.12891 -44664.90625
v 21667.63477 22804.47070 1975.02734
v 21667.63477 22804.47070 -15975.01270
v 18667.61133 2147.77441 38067.61719
v 18667.63281 2147.77441 -52067.59375
v 28827.48047 14321.12793 21827.48828
v 28827.49023 14321.12793 -35827.46094
v 40768.21875 14321.12793 -7000.00098
v 37664.91797 14321.12891 -22601.29883
v 37664.92188 14321.12891 8601.32227
v 40768.21875 14321.12793 -7000.00146
v 34493.25391 2147.77441 27493.26172
v 34493.26563 2147.77441 -41493.23438
v 45067.61328 2147.77441 11667.61719
v 45067.61328 2147.77441 -25667.58984
v 48780.83594 2147.77441 -7000.00049
v 14091.97559 -4000.00000 -2813.63086
v 14091.97559 -1743.49792 -2813.63086
v 14161.06445 -4000.00000 -3473.28784
v 14161.06445 -1743.49792 -3473.28784
v 14564.97559 -4000.00000 -2434.43213
v 14564.97559 -1743.49792 -2434.43213
v 14700.38965 -4000.00000 -3727.35986
v 14700.38965 -1743.49792 -3727.35986
v 5960.21240 -1531.89160 -6870.91357
v 5869.77588 -1531.89160 -6781.88232
v 5960.21240 -268.60498 -6870.91357
v 5869.77588 -268.60498 -6781.88232
v 5960.21240 -1531.89160 -6692.85107
v 5960.21240 -268.60498 -6692.85107
v 5960.21240 -1531.89160 -5791.74902
v 5869.77588 -1531.89160 -5702.71777
v 5960.21240 -268.60498 -5791.74902
v 5869.77588 -268.60498 -5702.71777
v 5960.21240 -1531.89160 -5613.68652
v 5960.21240 -268.60498 -5613.68652
v 5960.21240 -1499.99976 -6328.38965
v 5869.77588 -1499.99976 -6239.35840
v 5960.21240 13.23145 -6328.38965
v 5869.77588 13.23145 -6239.35840
v 5960.21240 -1499.99976 -6150.32715
v 5960.21240 13.23145 -6150.32715
v 5973.61182 -1531.89160 -7031.88232
v 5960.21240 -1531.89160 -6870.91357
v 5973.61182 -268.60547 -7031.88232
v 5960.21240 -268.60498 -6870.91357
v 5973.61182 -1531.89160 -6531.88232
v 5973.61182 -268.60547 -6531.88232
v 5973.61182 -1531.89160 -5952.71777
v 5960.21240 -1531.89160 -5791.74902
v 5973.61182 -268.60547 -5952.71777
v 5960.21240 -268.60498 -5791.74902
v 5973.61182 -1531.89160 -5452.71777
v 5973.61182 -268.60547 -5452.71777
v 5973.61182 -1499.99976 -6489.35840
v 5960.21240 -1499.99976 -6328.38965
v 5973.61182 13.23120 -6489.35840
v 5960.21240 13.23145 -6328.38965
v 5973.61182 -1499.99976 -5989.35840
v 5973.61182 13.23120 -5989.35840
v 13638.21387 -4000.00024 -1603.70129
v 13777.13281 -4000.00024 -815.85510
v 13638.21387 -3313.73071 -1603.70129
v 13777.13281 -3313.73071 -815.85516
v 14426.06055 -3313.73071 -1742.61975
v 14426.06055 -4000.00024 -1742.61975
v 13638.21387 -3313.73071 -1603.70129
v 14564.97852 -3313.73071 -954.77368
v 14426.06055 -3313.73071 -1742.61975
v 14564.97852 -4000.00024 -954.77368
v 14564.97852 -3313.73071 -954.77368
v 8452.12598 -3625.99756 -5274.42871
v 8643.13867 -3625.99756 -4191.14014
v 8452.12598 -2991.84058 -5274.42871
v 8643.13867 -2991.84058 -4191.14014
v 9239.97266 -2991.84058 -5413.34717
v 9239.97266 -3625.99756 -5413.34717
v 8452.12598 -2991.84058 -5274.42871
v 9430.98535 -2991.84058 -4330.05859
v 9239.97266 -2991.84058 -5413.34717
v 7308.56299 -4000.00024 -3446.72217
v 7447.48145 -4000.00024 -2658.87598
v 7308.56299 -3238.95898 -3446.72192
v 7447.48145 -3238.95898 -2658.87598
v 8096.40918 -3238.95898 -3585.64063
v 8096.40918 -4000.00024 -3585.64063
v 7308.56299 -3238.95898 -3446.72192
v 8235.32715 -3238.95898 -2797.79443
v 8096.40918 -3238.95898 -3585.64063
v 3610.00000 -4000.00024 -6430.00000
v 3610.00000 -4000.00024 -5430.00000
v 3610.00000 -3238.95898 -6430.00000
v 3610.00000 -3238.95898 -5430.00000
v 4210.00000 -3238.95898 -6430.00000
v 4210.00000 -4000.00024 -6430.00000
v 3610.00000 -3238.95898 -6430.00000
v 4210.00000 -3238.95898 -5430.00000
v 4210.00000 -3238.95898 -6430.00000
v 11085.20898 -4000.00024 -13312.51270
v 11224.12793 -4000.00024 -12524.66699
v 11085.20898 -3056.37988 -13312.51270
v 11224.12793 -3056.37988 -12524.66699
v 12011.97363 -3056.37988 -12663.58496
v 11873.05566 -3056.37988 -13451.43066
v 13254.05859 -3509.29126 -1619.93628
v 13384.00098 -3692.91724 -1746.81177
v 13088.55859 -3692.91724 -1694.71716
v 13262.20703 -4000.00024 -709.90955
v 13262.20703 -3692.91724 -709.90955
v 13088.55859 -4000.00024 -1694.71716
v 13088.55859 -3692.91724 -1694.71716
v 13384.00098 -4000.00024 -1746.81177
v 13392.14941 -3509.29126 -836.78510
v 13254.05859 -3509.29126 -1619.93628
v 13077.39746 -3509.29126 -2639.13086
v 13207.33984 -3692.91724 -2766.00635
v 12911.89746 -3692.91724 -2713.91162
v 13085.54590 -4000.00024 -1729.10400
v 13085.54590 -3692.91724 -1729.10400
v 12911.89746 -4000.00024 -2713.91162
v 12911.89746 -3692.91724 -2713.91162
v 13207.33984 -4000.00024 -2766.00635
v 13215.48828 -3509.29126 -1855.97961
v 13077.39746 -3509.29126 -2639.13086
v 12893.39844 -3509.29126 -3651.12720
v 13023.34082 -3692.91724 -3778.00269
v 12727.89844 -3692.91724 -3725.90796
v 12901.54688 -4000.00024 -2741.10034
v 12901.54688 -3692.91724 -2741.10034
v 12727.89844 -4000.00024 -3725.90796
v 12727.89844 -3692.91724 -3725.90796
v 13023.34082 -4000.00024 -3778.00269
v 13031.48926 -3509.29126 -2867.97583
v 12893.39844 -3509.29126 -3651.12720
v 6535.71240 -3612.21875 -3990.34888
v 6665.65479 -3736.78613 -4117.22412
v 6370.21240 -3736.78613 -4065.12964
v 6543.86084 -4000.00000 -3080.32202
v 6543.86084 -3736.78613 -3080.32202
v 6370.21240 -4000.00000 -4065.12964
v 6370.21240 -3736.78613 -4065.12964
v 6665.65479 -4000.00000 -4117.22412
v 6673.80322 -3612.21875 -3207.19751
v 6535.71240 -3612.21875 -3990.34888
v 5958.80664 -3612.21875 -5118.01172
v 6088.74902 -3736.78613 -5244.88721
v 5793.30664 -3736.78613 -5192.79248
v 5966.95508 -4000.00000 -4207.98486
v 5966.95508 -3736.78613 -4207.98486
v 5793.30664 -4000.00000 -5192.79248
v 5793.30664 -3736.78613 -5192.79248
v 6088.74902 -4000.00000 -5244.88721
v 6096.89746 -3612.21875 -4334.86035
v 5958.80664 -3612.21875 -5118.01172
v 5526.57227 -3612.21875 -5820.65527
v 5676.57227 -3736.78613 -5923.03906
v 5376.57227 -3736.78613 -5923.03906
v 5376.57227 -4000.00000 -4923.03906
v 5376.57227 -3736.78613 -4923.03906
v 5376.57227 -4000.00000 -5923.03906
v 5376.57227 -3736.78613 -5923.03906
v 5526.57227 -3612.21875 -5025.42285
v 5526.57227 -3612.21875 -5820.65527
v 5676.57227 -4000.00000 -5923.03906
v 1310.00000 -3999.99976 -6969.99951
v 1310.00000 -3999.99976 -6125.35596
v 1310.00012 -3499.99976 -6969.99951
v 1310.00012 -3499.99976 -6125.35596
v 2009.99988 -3500.00000 -6970.00000
v 2009.99988 -4000.00000 -6970.00000
v 1310.00012 -3499.99976 -6969.99951
v 2009.99988 -4000.00000 -6125.35596
v 2009.99988 -3500.00000 -6125.35596
v 3515.57397 -4000.00000 -7726.24658
v 3905.28516 -300.00064 -7501.24707
v 3515.57397 -371.75656 -7726.24658
v 4294.99658 -300.00064 -7276.24707
v 4684.70801 -4000.00000 -7051.24707
v 4684.70801 -371.75656 -7051.24707
v 3765.57397 -371.75656 -8159.25928
v 3765.57397 -4000.00000 -8159.25928
v -3545.42480 -4000.00000 -4313.60742
v -3545.42480 -3390.00000 -4313.60693
v -3545.42480 -4000.00000 -3668.75024
v -3545.42480 -3390.00000 -3668.75024
v 11897.09766 -4000.00024 -4062.57251
v 12178.34766 -4000.00024 -3575.43335
v 11897.09766 -2210.21680 -4062.57251
v 12178.34766 -2210.21680 -3575.43335
v 12373.41211 -4000.00024 -4337.57227
v 12373.41211 -2210.21680 -4337.57227
v 9110.48828 -4000.00024 -2775.45142
v 9336.23047 -4000.00024 -1495.20154
v 9110.48828 -3371.41821 -2775.45142
v 9336.23047 -3371.41821 -1495.20154
v 10292.25781 -3371.41821 -2983.82910
v 10292.25781 -4000.00024 -2983.82935
v 9110.48828 -3371.41821 -2775.45142
v 10518.00000 -3371.41821 -1703.57935
v 10292.25781 -3371.41821 -2983.82910
v 6941.47607 -4000.00024 -4347.68066
v 7080.39453 -4000.00024 -3559.83472
v 6941.47607 -3371.41821 -4347.68066
v 7080.39453 -3371.41821 -3559.83472
v 8123.24512 -3371.41821 -4556.05859
v 8123.24512 -4000.00024 -4556.05859
v 6941.47607 -3371.41821 -4347.68066
v 8262.16406 -3371.41821 -3768.21240
v 8123.24512 -3371.41821 -4556.05859
v 6771.35107 -4000.00024 -5283.36914
v 6910.26953 -4000.00024 -4495.52295
v 6771.35107 -3200.00024 -5283.36914
v 6910.26953 -3200.00024 -4495.52295
v 8092.03857 -3200.00024 -4703.90039
v 7953.12012 -3200.00024 -5491.74658
v -10574.68848 -3200.00024 -14103.52344
v -11702.31934 -3200.00024 -14513.94824
v -10916.70801 -3200.00024 -13163.83105
v -12044.33887 -3200.00024 -13574.25586
v -10916.70801 -4000.00024 -13163.83105
v -10574.68848 -4000.00024 -14103.52344
v 9851.49902 -1312.00049 -3009.64160
v 9276.88965 -1312.00049 -4050.67700
v 9472.24316 -1312.00049 -2942.76855
v 9656.04004 -1312.00049 -4117.53174
v 9472.24316 -4000.00049 -2942.76855
v 9276.88965 -4000.00049 -4050.67725
v 9656.04004 -4000.00049 -4117.53174
v 9656.04004 -1312.00049 -4117.53174
v 9276.88965 -1312.00049 -4050.67725
v 8247.10547 -4000.00049 -9152.04492
v 7913.68555 -4000.00049 -8959.54492
v 8247.10547 -1312.00049 -9152.04492
v 7913.68555 -1312.00049 -8959.54492
v 8476.18555 -4000.00049 -7985.26611
v 8476.18555 -1312.00049 -7985.26611
v 6555.43604 -4000.00073 -11111.45703
v 7005.43604 -774.40045 -10332.03418
v 6555.43604 -774.40045 -11111.45703
v 7005.43604 -4000.00049 -10332.03418
v 6988.88184 -4000.00049 -11361.70703
v 6988.88184 -774.40045 -11361.70703
v -8206.14063 -4000.00049 -9983.84863
v -8206.14063 -1312.00049 -9983.84863
v -7643.64014 -4000.00049 -9009.57031
v -7643.64014 -1312.00049 -9009.57031
v -7977.06006 -4000.00049 -8817.07031
v -7977.06006 -1312.00049 -8817.07031
v -7643.64014 -1312.00049 -9009.57031
v -8539.65234 -1312.00049 -9791.29590
v -7643.64014 -1312.00049 -9009.57031
v -8206.14063 -1312.00049 -9983.84863
v -7977.06006 -1312.00049 -8817.07031
v -3715.34058 -4000.00049 2064.31445
v -4280.95898 -4000.00049 1814.85156
v -3715.34058 -1636.74475 2064.31445
v -4280.95898 -1636.74475 1814.85156
v 5669.66748 -1499.99963 -6489.35791
v 5516.70947 -1200.00000 -6369.85791
v 5669.66748 -1200.00000 -6489.35840
v 5516.70947 -1200.00000 -6108.85791
v 5669.66748 -1499.99963 -5989.35791
v 5669.66748 -1200.00000 -5989.35840
v 5516.70947 -3999.99976 -6369.85791
v 5516.70947 -3999.99976 -6108.85840
v 5516.70947 -1200.00000 -6369.85791
v 5516.70947 -3999.99976 -6369.85791
v 5669.66748 -3999.99976 -6489.35840
v 5669.66748 -3999.99976 -5989.35840
v 5669.66748 -3999.99976 -6978.89307
v 5669.66748 -1499.99963 -6978.89307
v 5669.66748 -1499.99963 -6489.35791
v 5669.66748 -3999.99976 -5499.82324
v 5669.66748 -1499.99963 -5989.35791
v 5669.66748 -1499.99963 -5499.82275
v 5669.66748 -1499.99963 -6978.89307
v 6257.53125 -1499.99976 -7373.61572
v 6257.53125 -3999.99976 -7373.61572
v 6257.53125 -3999.99976 -5105.09961
v 6257.53125 -1499.99976 -5105.09961
v 7760.50684 -970.66248 -12387.29883
v 7760.50684 -970.66248 -12177.61133
v 7942.10107 -741.23608 -12282.45508
v 7760.50684 -970.66248 -12177.61133
v 7942.10107 -970.66248 -12072.76758
v 7942.10107 -741.23608 -12282.45508
v 7639.99658 -4000.00000 -12456.87500
v 7639.99609 -4000.00000 -12108.03516
v 7682.29346 -1975.19373 -12432.45508
v 7682.29346 -1975.19373 -12132.45508
v 7731.06006 -1863.77075 -12404.29980
v 7731.06006 -1863.77075 -12160.61035
v 7942.10107 -4000.00000 -11933.61426
v 7942.10107 -1975.19373 -11982.45508
v 7639.99609 -4000.00000 -12108.03516
v 7682.29346 -1975.19373 -12132.45508
v 7731.06006 -1863.77075 -12160.61035
v 7942.10059 -1863.77075 -12038.76660
v 3671.47314 -615.30896 1520.91687
v 3131.47412 -615.30859 1832.68555
v 3671.47314 -438.75537 1520.91687
v 3131.47412 -438.75391 1832.68555
v 2010.00012 -4000.00000 -4831.64844
v 3610.00000 -4000.00000 -4831.64844
v 2010.00012 -4000.00000 -6431.64844
v 3610.00000 -4000.00000 -6431.64844
v 2974.69312 -4000.00000 -5922.58740
v 2974.69312 -4000.00000 -5155.62305
v 2974.69312 -3700.00000 -5922.58740
v 2974.69312 -3700.00000 -5155.62305
v 3343.07446 -3700.00000 -5922.58740
v 3343.07446 -4000.00000 -5922.58740
v 3343.07446 -4000.00000 -5155.62305
v 3343.07446 -3700.00000 -5155.62305
v 3343.07446 -3700.00000 -5155.62305
v 3343.07446 -3700.00000 -5922.58740
v 3607.61572 -4000.00000 -3573.32910
v 5607.61572 -4000.00000 -3573.32910
v 3607.61572 -4000.00000 -5573.32910
v 5607.61572 -4000.00000 -5573.32910
v 4813.48193 -4000.00000 -4937.00293
v 4813.48193 -4000.00000 -3978.29736
v 4813.48193 -3700.00000 -4937.00293
v 4813.48193 -3700.00000 -3978.29736
v 5273.95898 -3700.00000 -4937.00293
v 5273.95898 -4000.00000 -4937.00293
v 5273.95898 -3700.00000 -3978.29736
v 5273.95898 -3700.00000 -4937.00293
v 3671.46997 -3999.99976 1520.91687
v 3131.47412 -3999.99878 1832.68555
v 3671.47314 -615.30896 1520.91687
v 3131.47412 -615.30859 1832.68555
v 2521.79663 -4000.00000 -3920.79053
v 246.13010 -4000.00000 -2706.50024
v 246.89101 -4000.00122 -2399.43140
v 1614.43591 -4000.00122 -1500.00781
v 3671.46997 -3999.99976 1520.91663
v 3140.34106 -4000.00049 1147.77087
v 3131.47363 -3999.99854 1832.68542
v -1475.41614 -4000.00000 -10009.77832
v -2319.99951 -4000.00000 -8525.00000
v -1275.06177 -4000.00000 -9209.25488
v -1674.24036 -4000.00000 -8628.23633
v -2196.80298 -4000.00122 -9935.78320
v -1074.70764 -4000.00000 -8408.73145
v 1788.07703 -1059.99963 -4031.77466
v 1837.48657 -984.94330 -4060.30127
v 1788.07727 -1059.99963 -4530.60498
v 1837.48657 -984.94330 -4502.07861
v 2220.07666 -1059.99963 -4780.02002
v 1788.07727 -1059.99963 -4530.60498
v 2220.07690 -984.94330 -4722.96729
v 1837.48657 -984.94330 -4502.07861
v 2220.07666 -1059.99963 -4780.02002
v 2220.07690 -984.94330 -4722.96729
v 2652.07593 -1059.99963 -4530.60498
v 2602.66626 -984.94330 -4502.07813
v -4152.02441 -359.99957 -3428.95801
v -4650.85449 -359.99957 -3428.95801
v -4180.55078 -284.94336 -3379.54834
v -4622.32813 -284.94336 -3379.54810
v -4152.02490 -359.99957 -2564.95825
v -3902.60962 -359.99957 -2996.95825
v -4180.55127 -284.94336 -2614.36792
v -3959.66309 -284.94336 -2996.95825
v -3902.60962 -359.99957 -2996.95825
v -4152.02441 -359.99957 -3428.95801
v -3959.66309 -284.94336 -2996.95825
v -4180.55078 -284.94336 -3379.54834
v -5283.02148 -1059.99963 -9143.16699
v -4851.02197 -1059.99963 -9392.58203
v -5283.02148 -984.94330 -9200.21973
v -4900.43115 -984.94330 -9421.10840
v -4851.02148 -1059.99963 -9891.41211
v -4900.43115 -984.94330 -9862.88574
v -4851.02197 -1059.99963 -9392.58203
v -4900.43115 -984.94330 -9421.10840
v 1788.07617 -4000.00000 -4530.60498
v 1788.07593 -4000.00000 -4031.77466
v 1788.07727 -1059.99963 -4530.60498
v 1788.07703 -1059.99963 -4031.77466
v 2220.07593 -4000.00000 -4780.02002
v 1788.07617 -4000.00000 -4530.60498
v 2220.07666 -1059.99963 -4780.02002
v 1788.07727 -1059.99963 -4530.60498
v 2652.07520 -4000.00000 -4530.60498
v 2220.07593 -4000.00000 -4780.02002
v 2652.07593 -1059.99963 -4530.60498
v 2220.07666 -1059.99963 -4780.02002
v -4152.02490 -4000.00000 -3428.95825
v -4650.85547 -4000.00000 -3428.95825
v -4152.02441 -359.99957 -3428.95801
v -4650.85449 -359.99957 -3428.95801
v -3902.61035 -4000.00000 -2996.95874
v -4152.02490 -4000.00000 -3428.95825
v -3902.60962 -359.99957 -2996.95825
v -4152.02441 -359.99957 -3428.95801
v -4152.02539 -4000.00000 -2564.95850
v -4152.02490 -359.99957 -2564.95825
v -3902.60962 -359.99957 -2996.95825
v -5283.02051 -4000.00000 -9143.16699
v -4851.02051 -4000.00000 -9392.58203
v -5283.02148 -1059.99963 -9143.16699
v -4851.02197 -1059.99963 -9392.58203
v -4851.02051 -4000.00000 -9392.58203
v -4851.02051 -4000.00000 -9891.41211
v -4851.02197 -1059.99963 -9392.58203
v -4851.02148 -1059.99963 -9891.41211
v 1837.48657 -984.94330 -4502.07861
v 1837.48657 -984.94330 -4060.30127
v 2220.07690 -984.94330 -3839.41260
v 2220.07690 -984.94330 -4722.96729
v 2602.66626 -984.94330 -4502.07813
v 2602.66650 -984.94330 -4060.30103
v 1310.00012 -3499.99976 -6125.35596
v 2009.99988 -3500.00000 -6125.35596
v 1310.00012 -3499.99976 -6969.99951
v 2009.99988 -3500.00000 -6970.00000
v -4622.32813 -284.94336 -3379.54810
v -4843.21680 -284.94336 -2996.95825
v -4622.32813 -284.94336 -2614.36768
v -4180.55078 -284.94336 -3379.54834
v -4180.55127 -284.94336 -2614.36792
v -3959.66309 -284.94336 -2996.95825
v 1309.89124 -4000.00073 -5951.00146
v 1309.89111 -4000.00073 -4601.00146
v 1309.89111 -2158.81982 -4601.00146
v 1309.89124 -2158.81982 -5951.00146
v 1613.00000 -4000.00049 -4426.00146
v 1613.00000 -2158.81982 -4426.00146
v 1309.89124 -2158.81982 -5951.00146
v 1612.99988 -4000.00049 -6126.00146
v 1613.00000 -2158.81934 -6126.00146
v 1916.10852 -4000.00049 -5951.00146
v 1612.99988 -4000.00049 -6126.00146
v 1916.10876 -2158.81934 -5951.00146
v 1613.00000 -2158.81934 -6126.00146
v 1626.89111 -4000.00073 -9573.67969
v 1626.89111 -4000.00049 -8055.00146
v 1626.89111 -2317.02954 -8055.00146
v 1626.89111 -2317.02954 -9573.67969
v 1930.00000 -4000.00073 -7880.00146
v 2233.10889 -2317.02905 -8055.00146
v 1930.00000 -2317.02954 -7880.00195
v 2233.10889 -4000.00049 -8055.00146
v 1929.99976 -4000.00049 -9748.67969
v 1930.00000 -2317.02905 -9748.67969
v 1930.00000 -2317.02954 -7880.00195
v 2233.10864 -4000.00049 -9573.67969
v 1929.99976 -4000.00049 -9748.67969
v 2233.10889 -2317.02905 -9573.67969
v 1930.00000 -2317.02905 -9748.67969
v 2233.10889 -2317.02905 -9573.67969
v 2233.10889 -2317.02905 -8055.00146
v -9996.81836 -4000.00073 -7600.31104
v -9996.81836 -4000.00073 -8950.31152
v -9996.81836 -2594.53418 -8950.31055
v -9996.81836 -2594.53418 -7600.31104
v -4663.78223 -4000.00049 -3410.00342
v -4663.78223 -4000.00049 -4181.43164
v -4663.78223 -1896.28638 -3410.00342
v -4663.78223 -1896.28638 -4181.43164
v 1309.89124 -2158.81982 -5951.00146
v 1309.89111 -2158.81982 -4601.00146
v 1309.89124 -2035.74939 -5951.00146
v 1309.89111 -2035.74939 -4601.00146
v 1613.00000 -2158.81982 -4426.00146
v 1613.00000 -2035.74939 -4426.00146
v 1613.00000 -2158.81934 -6126.00146
v 1309.89124 -2158.81982 -5951.00146
v 1613.00000 -2035.74915 -6126.00146
v 1309.89124 -2035.74939 -5951.00146
v 1613.00000 -2158.81934 -6126.00146
v 1613.00000 -2035.74915 -6126.00146
v 1916.10876 -2158.81934 -5951.00146
v 1916.10876 -2035.74915 -5951.00146
v 1626.89111 -2317.02954 -9573.67969
v 1626.89111 -2317.02954 -8055.00146
v 1626.89111 -2218.57324 -9573.67969
v 1626.89111 -2218.57324 -8055.00146
v 1930.00000 -2317.02905 -9748.67969
v 1930.00000 -2218.57275 -9748.67969
v 1930.00000 -2317.02954 -7880.00195
v 1930.00000 -2218.57324 -7880.00195
v 1930.00000 -2317.02954 -7880.00195
v 2233.10889 -2317.02905 -8055.00146
v 1930.00000 -2218.57324 -7880.00195
v 2233.10889 -2218.57275 -8055.00146
v 1930.00000 -2317.02905 -9748.67969
v 1930.00000 -2218.57275 -9748.67969
v 2233.10889 -2317.02905 -9573.67969
v 2233.10889 -2218.57275 -9573.67969
v 2233.10889 -2317.02905 -8055.00146
v 2233.10889 -2317.02905 -9573.67969
v 2233.10889 -2218.57275 -8055.00146
v 2233.10889 -2218.57275 -9573.67969
v -9996.81836 -2594.53418 -7600.31104
v -9996.81836 -2594.53418 -8950.31055
v -9996.81836 -2471.46362 -7600.31104
v -9996.81836 -2471.46362 -8950.31055
v -4663.78223 -1896.28638 -4181.43164
v -4663.78223 -1773.21606 -4181.43164
v -4663.78223 -1896.28638 -3410.00342
v -4663.78223 -1773.21619 -3410.00317
v 4336.42773 -3999.99976 -7050.72412
v 4336.42773 -3999.99976 -6215.19141
v 4336.42773 -3180.93262 -7050.72412
v 4336.42773 -3180.93262 -6215.19141
v 4490.50439 -2945.07788 -6897.46680
v 4490.50439 -2945.07788 -6368.44775
v 5176.42773 -4000.00000 -6215.19141
v 5176.42773 -3180.93311 -6215.19141
v 5022.35107 -2945.07813 -6368.44873
v 5022.35107 -2945.07813 -6368.44873
v 5022.35107 -2945.07813 -6897.46729
v 4490.50439 -2945.07788 -6368.44775
v 4490.50439 -2945.07788 -6897.46680
v 2233.10889 -2218.57275 -8055.00146
v 1626.89111 -2218.57324 -8055.00146
v 1930.00000 -2218.57324 -7880.00195
v 1626.89111 -2218.57324 -9573.67969
v 2233.10889 -2218.57275 -9573.67969
v 1930.00000 -2218.57275 -9748.67969
v -3136.51392 -2035.74902 -9987.34570
v -4890.21484 -2035.74915 -8974.84570
v -2681.85059 -2035.74939 -9199.84570
v -4435.55127 -2035.74939 -8187.34619
v -10603.03516 -2471.46338 -8950.31152
v -10603.03516 -2471.46338 -7600.31055
v -9996.81836 -2471.46362 -8950.31055
v -9996.81836 -2471.46362 -7600.31104
v -4663.78223 -1773.21619 -3410.00317
v -5876.21777 -1773.21655 -3410.00342
v -5270.00000 -1773.21655 -3060.00342
v -4663.78223 -1773.21606 -4181.43164
v -4435.55127 -4000.00049 -8187.34619
v -2681.85059 -2158.81982 -9199.84570
v -4435.55127 -2158.81982 -8187.34619
v -2681.84961 -4000.00049 -9199.84570
v -4435.55127 -2158.81982 -8187.34619
v -2681.85059 -2158.81982 -9199.84570
v -4435.55127 -2035.74939 -8187.34619
v -2681.85059 -2035.74939 -9199.84570
v -4069.99951 -3150.00000 -3668.74878
v -3545.42480 -3390.00000 -3668.75024
v -4069.99951 -3150.00000 -4313.60840
v -3545.42480 -3390.00000 -4313.60693
v -3586.14160 -4000.00000 -1175.56702
v -3586.14160 -4000.00000 -1575.56702
v -3386.14160 -4000.00000 -1175.56702
v -3386.14160 -4000.00000 -1575.56702
v -4586.14160 999.99939 -1775.56702
v -4186.14160 999.99939 -1775.56702
v -4586.14160 -1500.00049 -1775.56702
v -4186.14160 -1500.00049 -1775.56702
v -3986.14160 999.99939 -1775.56702
v -3586.14160 999.99939 -1775.56702
v -3986.14160 -1500.00049 -1775.56702
v -3586.14160 -1500.00049 -1775.56702
v -3386.14160 -4000.00000 -575.56726
v -3386.14160 -4000.00000 -975.56726
v -3386.14160 999.99939 -575.56726
v -3386.14160 999.99939 -975.56726
v -3386.14160 -1500.00049 -1175.56702
v -3386.14160 -1500.00049 -1575.56702
v -3386.14160 999.99939 -1175.56702
v -3386.14160 999.99939 -1575.56702
v -4186.14160 999.99939 -1575.56702
v -3986.14160 999.99939 -1575.56702
v -4186.14160 -1500.00049 -1575.56702
v -3986.14160 -1500.00049 -1575.56702
v -4186.14160 999.99939 -1575.56702
v -4186.14160 -1500.00049 -1575.56702
v -4186.14160 999.99939 -1775.56702
v -4186.14160 -1500.00049 -1775.56702
v -3586.14160 999.99939 -1575.56702
v -3586.14160 -1500.00049 -1575.56702
v -3586.14160 999.99939 -1775.56702
v -3586.14160 -1500.00049 -1775.56702
v -3586.14160 -4000.00000 -975.56726
v -3586.14160 999.99939 -975.56726
v -3386.14160 -4000.00000 -975.56726
v -3386.14160 999.99939 -975.56726
v -3586.14160 -1500.00049 -1575.56702
v -3586.14160 999.99939 -1575.56702
v -3386.14160 -1500.00049 -1575.56702
v -3386.14160 999.99939 -1575.56702
v -3683.49365 -4000.00024 1598.16943
v -3683.49365 -4000.00024 540.45740
v -3683.49365 -1005.72699 1598.16931
v -3683.49365 -1005.72693 540.45728
v -3683.49365 -1005.72693 540.45728
v -4116.50635 -4000.00000 540.45740
v -4116.50635 -1005.72662 540.45728
v -3683.49365 -4000.00024 540.45740
v -4116.50635 -1005.72662 540.45728
v -4116.50635 -841.01465 540.45728
v -3683.49365 -1005.72693 540.45728
v -3683.49365 -841.01538 540.45728
v -3683.49365 -1005.72699 1598.16931
v -3683.49365 -841.01538 1598.16931
v -3299.21533 -1000.00000 1413.05334
v -3299.21533 -800.00000 1413.05334
v -2630.78467 -1000.00000 1413.05334
v -2630.78467 -800.00000 1413.05334
v -3200.19409 -800.00000 1572.42834
v -3200.19409 -600.00000 1572.42834
v -2729.80591 -800.00000 1572.42834
v -2729.80591 -600.00000 1572.42834
v -2729.80591 -600.00000 1572.42834
v -2729.80591 -800.00000 3002.75098
v -2729.80591 -600.00000 3002.75098
v -2630.78467 -800.00000 1413.05334
v -2630.78467 -1000.00000 3002.75098
v -2630.78442 -800.00000 3002.75098
v -3534.21533 -1000.00000 -3412.50000
v -3534.21533 -800.00000 -3412.50000
v -2865.78467 -1000.00000 -3412.50000
v -2865.78467 -800.00000 -3412.50000
v -3435.19409 -800.00000 -3253.12500
v -3435.19409 -600.00000 -3253.12500
v -2964.80591 -800.00000 -3253.12500
v -2964.80591 -600.00000 -3253.12500
v -2964.80591 -800.00000 -2589.24097
v -3200.00000 -800.00000 -2589.24097
v -2964.80566 -600.00000 -2589.24072
v -3200.00000 -600.00000 -2589.24097
v -2865.78467 -1000.00000 -2589.24097
v -3200.00024 -1000.00000 -2589.24097
v -2964.80591 -800.00000 -2589.24097
v -3200.00000 -800.00000 -2589.24097
v -2964.80591 -600.00000 -3253.12500
v -2964.80591 -800.00000 -2860.75903
v -2964.80591 -600.00000 -2860.75903
v -2964.80566 -800.00000 -2196.87476
v -2964.80566 -600.00000 -2196.87476
v -2964.80566 -600.00000 -2589.24072
v -2865.78467 -800.00000 -3412.50000
v -2865.78467 -1000.00000 -2860.75903
v -2865.78442 -800.00000 -2860.75903
v -2865.78442 -1000.00000 -2037.50012
v -2865.78467 -1000.00000 -2589.24097
v -2865.78442 -800.00000 -2037.50012
v -2865.78467 -800.00000 -2589.24121
v -3390.00000 -3999.99976 1200.55334
v -3390.00000 -1000.00000 1200.55334
v -2540.00000 -4000.00000 1200.55334
v -2540.00000 -1000.00000 1200.55334
v -2540.00000 -1000.00000 1200.55334
v -2540.00000 -4000.00000 3002.75098
v -2540.00000 -1000.00000 3002.75098
v -3625.00000 -3999.99976 -3625.00000
v -3625.00000 -1000.00000 -3625.00000
v -2775.00000 -4000.00000 -3625.00000
v -2775.00000 -1000.00000 -3625.00000
v -2865.78467 -1000.00000 -2589.24097
v -2775.00000 -1000.00000 -2589.24072
v -2865.78467 -4000.00000 -2589.24072
v -2775.00000 -4000.00000 -2589.24072
v -2775.00000 -1000.00000 -3625.00000
v -2775.00000 -4000.00000 -2860.75903
v -2775.00000 -1000.00000 -2860.75903
v -2775.00000 -4000.00000 -1825.00012
v -2775.00000 -1000.00000 -1825.00012
v -2775.00000 -1000.00000 -2589.24072
v -3266.03979 -4000.00049 3126.75464
v -4041.57593 -4000.00049 2990.00684
v -3266.03979 -1312.00049 3126.75464
v -4041.57593 -1312.00049 2990.00684
v -2865.78467 -1000.00000 -2589.24097
v -2865.78467 -4000.00000 -2589.24072
v -2865.78467 -1000.00000 -2860.75903
v -2865.78467 -4000.00000 -2860.75903

vt 4.49990 -0.12510 
vt 4.12490 -0.12510 
vt 4.49990 -0.18760 
vt 4.12490 -0.18760 
vt 4.87490 -0.12510 
vt 4.87490 -0.18760 
vt 3.74990 -0.12510 
vt 3.75000 -0.18760 
vt 5.24990 -0.12510 
vt 5.24990 -0.18760 
vt 4.49990 -0.25010 
vt 4.12490 -0.25010 
vt 4.87490 -0.25010 
vt 3.74990 -0.25010 
vt 5.24990 -0.25010 
vt 4.49990 -0.31450 
vt 4.12490 -0.31450 
vt 4.87490 -0.31450 
vt 3.37490 -0.12510 
vt 3.37500 -0.18760 
vt 5.62490 -0.12510 
vt 5.62490 -0.18760 
vt 3.75000 -0.31450 
vt 5.24990 -0.31450 
vt 4.49990 -0.37310 
vt 4.12490 -0.37310 
vt 4.87490 -0.37310 
vt 3.37500 -0.25010 
vt 5.62490 -0.25010 
vt 3.74990 -0.37310 
vt 5.24990 -0.37310 
vt 3.37500 -0.25010 
vt 3.37490 -0.31450 
vt 5.62490 -0.31450 
vt 3.37490 -0.31450 
vt 3.37490 -0.37310 
vt 5.62490 -0.37310 
vt 2.99990 -0.12510 
vt 2.99990 -0.18760 
vt 5.99990 -0.12510 
vt 5.99990 -0.18760 
vt 2.99990 -0.25010 
vt 5.99990 -0.25010 
vt 2.99990 -0.25010 
vt 2.99990 -0.31450 
vt 5.99990 -0.31450 
vt 2.99990 -0.37310 
vt 5.99990 -0.37310 
vt 2.62490 -0.31450 
vt 2.62490 -0.37310 
vt 0.37490 -0.31450 
vt 0.00000 -0.31450 
vt 0.37490 -0.37310 
vt 0.00000 -0.37310 
vt 2.62490 -0.25010 
vt 0.37490 -0.25010 
vt 0.00000 -0.25010 
vt 2.62490 -0.18760 
vt 0.37490 -0.18760 
vt 0.00000 -0.18760 
vt 2.62490 -0.12510 
vt 0.37490 -0.12510 
vt 0.00000 -0.12510 
vt 2.24990 -0.31450 
vt 2.24990 -0.37310 
vt 0.74990 -0.31450 
vt 0.74990 -0.37310 
vt 2.24990 -0.25010 
vt 0.74990 -0.25010 
vt 1.87490 -0.31450 
vt 1.87490 -0.37310 
vt 1.12490 -0.31450 
vt 1.12490 -0.37310 
vt 2.24990 -0.18760 
vt 0.75000 -0.18760 
vt 1.49990 -0.31450 
vt 1.49990 -0.37310 
vt 1.12490 -0.25010 
vt 1.87490 -0.25010 
vt 2.24990 -0.12510 
vt 0.74990 -0.12510 
vt 1.49990 -0.25010 
vt 1.87490 -0.18760 
vt 1.12490 -0.18760 
vt 1.49990 -0.18760 
vt 1.87490 -0.12510 
vt 1.12490 -0.12510 
vt 1.49990 -0.12510 
vt 4.49990 1.87690 
vt 4.49990 1.99800 
vt 4.87490 1.87690 
vt 4.87490 1.99800 
vt 4.12490 1.87690 
vt 4.12490 1.99800 
vt 5.24990 1.87690 
vt 5.24990 1.99800 
vt 3.74990 1.87690 
vt 3.74990 1.99800 
vt 5.62490 1.87690 
vt 5.62490 1.99800 
vt 3.37490 1.87690 
vt 3.37490 1.99800 
vt 5.99990 1.87690 
vt 5.99990 1.99800 
vt 2.99990 1.87690 
vt 2.99990 1.99800 
vt 0.00000 1.87690 
vt 0.00000 1.99800 
vt 0.37490 1.87690 
vt 0.37490 1.99800 
vt 2.62490 1.87690 
vt 2.62490 1.99800 
vt 0.74990 1.87690 
vt 0.74990 1.99800 
vt 2.24990 1.87690 
vt 2.24990 1.99800 
vt 1.12490 1.87690 
vt 1.12490 1.99800 
vt 1.87490 1.87690 
vt 1.87490 1.99800 
vt 1.49990 1.87690 
vt 1.49990 1.99800 
vt -0.24990 -0.37700 
vt 0.00000 -0.37700 
vt -0.20070 -0.56060 
vt -0.04780 -0.56060 
vt 0.74800 -10.48640 
vt 0.63860 -10.37700 
vt 0.74800 -10.37700 
vt 0.74800 -10.48640 
vt 0.63860 -10.37700 
vt 0.74800 -10.37700 
vt 0.99800 -10.56060 
vt 0.99800 -10.37700 
vt 0.75190 -10.56060 
vt 0.75190 -10.37700 
vt 1.62100 -1.93560 
vt 1.74800 -1.87700 
vt 1.74800 -1.99810 
vt 1.55850 -1.88290 
vt 1.50390 -1.99810 
vt 1.65620 -1.99810 
vt 1.74800 -1.87700 
vt 0.02730 -1.43560 
vt 0.42380 -1.43560 
vt 0.11910 -1.37700 
vt 0.31640 -1.37700 
vt 1.74800 -1.99810 
vt 1.74990 -1.55860 
vt 1.66990 -1.50200 
vt 1.74990 -1.50200 
vt 0.49800 -1.37700 
vt 0.00190 -1.37700 
vt 0.49800 -1.43560 
vt 0.11320 -1.43560 
vt -0.24800 -1.81260 
vt -0.11710 -1.81260 
vt -0.24800 -1.93170 
vt -0.00780 -1.93170 
vt -0.12490 -1.99810 
vt -0.24800 -1.81260 
vt -0.24800 -1.99810 
vt -0.00190 -1.99810 
vt -0.00190 -1.81260 
vt -0.24800 -1.99810 
vt -0.24800 -1.81260 
vt -0.00190 -1.99810 
vt -0.24800 -1.99810 
vt -0.24800 -1.99810 
vt 0.63860 -10.37700 
vt 0.74800 -10.48640 
vt 0.74800 -10.37700 
vt 0.74800 -10.48640 
vt 0.63860 -10.37700 
vt 0.74800 -10.37700 
vt 1.62300 -0.49810 
vt 1.74800 -0.49810 
vt 1.62300 -0.37510 
vt 0.04930 0.28370 
vt 0.01210 0.47030 
vt 0.12330 0.31430 
vt 0.09230 0.47030 
vt 0.04930 0.65700 
vt 0.12330 0.62640 
vt 0.15500 0.12540 
vt 0.21170 0.18210 
vt 0.15500 0.81530 
vt 0.21170 0.75860 
vt 0.31330 0.01970 
vt 0.34390 0.09370 
vt 0.21170 0.18210 
vt 0.31330 0.92100 
vt 0.34390 0.84700 
vt 0.28330 0.38060 
vt 0.28330 0.56010 
vt 0.28330 0.56010 
vt 0.41020 0.25370 
vt 0.41020 0.68700 
vt 0.49990 -0.01750 
vt 0.49990 0.06270 
vt 0.50000 0.95820 
vt 0.50000 0.87800 
vt 0.49990 0.47030 
vt 0.58970 0.25370 
vt 0.58970 0.68700 
vt 0.65600 0.09370 
vt 0.65600 0.84700 
vt 0.71660 0.38060 
vt 0.71660 0.56010 
vt 0.68660 0.01970 
vt 0.68660 0.92100 
vt 0.78820 0.18210 
vt 0.78820 0.75860 
vt 0.90760 0.47030 
vt 0.87660 0.62640 
vt 0.87660 0.31430 
vt 0.90760 0.47030 
vt 0.84490 0.12540 
vt 0.84490 0.81530 
vt 0.95060 0.28370 
vt 0.95060 0.65700 
vt 0.98780 0.47030 
vt 0.35660 -1.00000 
vt 0.35660 -0.00790 
vt 0.60370 -1.00000 
vt 0.60370 -0.00790 
vt 0.25780 -1.00000 
vt 0.25780 -0.00790 
vt 0.74210 -1.00000 
vt 0.74210 -0.00790 
vt -0.08590 -2.00000 
vt -0.12490 -2.00000 
vt -0.08590 -1.00790 
vt -0.12490 -1.00790 
vt -0.17180 -2.00000 
vt -0.17180 -1.00790 
vt -0.08590 -2.00000 
vt -0.12490 -2.00000 
vt -0.08590 -1.00790 
vt -0.12490 -1.00790 
vt -0.17180 -2.00000 
vt -0.17180 -1.00790 
vt -0.08590 -2.00000 
vt -0.12490 -2.00000 
vt -0.08590 -1.00790 
vt -0.12490 -1.00790 
vt -0.17180 -2.00000 
vt -0.17180 -1.00790 
vt -0.00780 -2.00000 
vt -0.08590 -2.00000 
vt -0.00780 -1.00790 
vt -0.08590 -1.00790 
vt -0.24210 -2.00000 
vt -0.24210 -1.00790 
vt -0.00780 -2.00000 
vt -0.08590 -2.00000 
vt -0.00780 -1.00790 
vt -0.08590 -1.00790 
vt -0.24210 -2.00000 
vt -0.24210 -1.00790 
vt -0.00780 -2.00000 
vt -0.08590 -2.00000 
vt -0.00780 -1.00790 
vt -0.08590 -1.00790 
vt -0.24210 -2.00000 
vt -0.24210 -1.00790 
vt 0.49990 -1.00000 
vt 0.24990 -1.00000 
vt 0.49990 -0.87510 
vt 0.24990 -0.87510 
vt 0.24990 -0.87510 
vt 0.24990 -1.00000 
vt 0.49990 -0.87510 
vt 0.24990 -0.75790 
vt 0.49990 -0.75790 
vt 0.49990 -1.00000 
vt 0.49990 -0.87510 
vt 1.00000 -1.00000 
vt 0.49990 -1.00000 
vt 1.00000 -0.75010 
vt 0.49990 -0.75010 
vt 0.49990 -0.75010 
vt 0.49990 -1.00000 
vt 1.00000 -0.75010 
vt 0.49990 -0.50790 
vt 1.00000 -0.50790 
vt 1.00000 -1.00000 
vt 0.49990 -1.00000 
vt 1.00000 -0.75010 
vt 0.49990 -0.75010 
vt 0.49990 -0.75010 
vt 0.49990 -1.00000 
vt 1.00000 -0.75010 
vt 0.49990 -0.50790 
vt 1.00000 -0.50790 
vt 0.49990 -1.00000 
vt 0.99990 -1.00000 
vt 0.49990 -0.75010 
vt 0.99990 -0.75010 
vt 0.99990 -0.75010 
vt 0.99990 -1.00000 
vt 0.49990 -0.75010 
vt 0.99990 -0.50790 
vt 0.49990 -0.50790 
vt 0.49990 -1.00000 
vt 0.24990 -1.00000 
vt 0.49990 -0.87510 
vt 0.24990 -0.87510 
vt 0.24990 -0.75790 
vt 0.49990 -0.75790 
vt 0.98040 -0.25400 
vt 0.94530 -0.30080 
vt 0.99990 -0.30080 
vt 0.80070 -0.37110 
vt 0.80070 -0.30080 
vt 0.99990 -0.37110 
vt 0.99990 -0.30080 
vt 0.94530 -0.37110 
vt 0.82030 -0.25400 
vt 0.98040 -0.25400 
vt 0.98040 -0.25400 
vt 0.94530 -0.30080 
vt 0.99990 -0.30080 
vt 0.80070 -0.37110 
vt 0.80070 -0.30080 
vt 0.99990 -0.37110 
vt 0.99990 -0.30080 
vt 0.94530 -0.37110 
vt 0.82030 -0.25400 
vt 0.98040 -0.25400 
vt 0.98040 -0.25400 
vt 0.94530 -0.30080 
vt 0.99990 -0.30080 
vt 0.80070 -0.37110 
vt 0.80070 -0.30080 
vt 0.99990 -0.37110 
vt 0.99990 -0.30080 
vt 0.94530 -0.37110 
vt 0.82030 -0.25400 
vt 0.98040 -0.25400 
vt 0.98040 -0.25400 
vt 0.94530 -0.30080 
vt 0.99990 -0.30080 
vt 0.80070 -0.37110 
vt 0.80070 -0.30080 
vt 0.99990 -0.37110 
vt 0.99990 -0.30080 
vt 0.94530 -0.37110 
vt 0.82030 -0.25400 
vt 0.98040 -0.25400 
vt 0.98040 -0.25400 
vt 0.94530 -0.30080 
vt 0.99990 -0.30080 
vt 0.80070 -0.37110 
vt 0.80070 -0.30080 
vt 0.99990 -0.37110 
vt 0.99990 -0.30080 
vt 0.94530 -0.37110 
vt 0.82030 -0.25400 
vt 0.98040 -0.25400 
vt 0.98040 -0.25400 
vt 0.94530 -0.30080 
vt 0.99990 -0.30080 
vt 0.80070 -0.37110 
vt 0.80070 -0.30080 
vt 0.99990 -0.37110 
vt 0.99990 -0.30080 
vt 0.82030 -0.25400 
vt 0.98040 -0.25400 
vt 0.94530 -0.37110 
vt 0.99600 -1.00000 
vt 0.50390 -1.00000 
vt 0.99600 -0.50400 
vt 0.50390 -0.50400 
vt 0.50390 -0.50400 
vt 0.50390 -1.00000 
vt 0.99600 -0.50400 
vt 0.99600 -1.00000 
vt 0.99600 -0.50400 
vt 0.08200 -1.00000 
vt 0.22000 -0.00000 
vt 0.08200 -0.01180 
vt 0.35800 -0.00000 
vt 0.49600 -1.00000 
vt 0.49600 -0.01960 
vt 0.00000 -0.01180 
vt 0.00000 -1.00000 
vt 0.50390 -1.00000 
vt 0.50390 -0.50010 
vt 0.99600 -1.00000 
vt 0.99600 -0.50010 
vt 0.85930 -1.00000 
vt 0.51560 -0.95320 
vt 0.85930 -0.03130 
vt 0.51560 -0.00010 
vt 0.98430 -0.96880 
vt 0.98430 -0.00010 
vt 1.00000 -1.00000 
vt 0.00000 -1.00000 
vt 1.00000 -0.64070 
vt 0.00000 -0.64070 
vt 0.00000 -0.64070 
vt 0.00000 -1.00000 
vt 1.00000 -0.64070 
vt 0.00000 -0.00010 
vt 1.00000 -0.00010 
vt 1.00000 -1.00000 
vt 0.00000 -1.00000 
vt 1.00000 -0.64070 
vt 0.00000 -0.64070 
vt 0.00000 -0.64070 
vt 0.00000 -1.00000 
vt 1.00000 -0.64070 
vt 0.00000 -0.00010 
vt 1.00000 -0.00010 
vt 1.00000 -1.00000 
vt 0.00000 -1.00000 
vt 1.00000 -0.64070 
vt 0.00000 -0.64070 
vt 0.00000 -0.00010 
vt 1.00000 -0.00010 
vt 0.00000 -0.64070 
vt 0.00000 -0.00010 
vt 1.00000 -0.64070 
vt 1.00000 -0.00010 
vt 1.00000 -1.00000 
vt 0.00000 -1.00000 
vt 0.00780 -0.07820 
vt 0.44530 -0.00790 
vt 0.00780 -0.00790 
vt 0.44530 -0.07820 
vt 0.00780 -1.00000 
vt 0.44530 -1.00000 
vt 0.49210 -1.00000 
vt 0.49210 -0.00790 
vt 0.44530 -0.00790 
vt 0.49210 -1.00000 
vt 0.44530 -1.00000 
vt 0.49210 -0.00790 
vt 0.44530 -0.00790 
vt 0.00780 -1.00000 
vt 0.00780 -0.00790 
vt 0.60930 -1.00000 
vt 0.99210 -0.00790 
vt 0.60930 -0.00790 
vt 0.99210 -1.00000 
vt 0.50780 -1.00000 
vt 0.50780 -0.00790 
vt 0.00780 -1.00000 
vt 0.00780 -0.00790 
vt 0.44530 -1.00000 
vt 0.44530 -0.00790 
vt 0.49210 -1.00000 
vt 0.49210 -0.00790 
vt 0.44530 -0.00790 
vt 0.00780 -0.07820 
vt 0.44530 -0.00790 
vt 0.00780 -0.00790 
vt 0.44530 -0.07820 
vt 0.49210 -1.00000 
vt 0.00780 -1.00000 
vt 0.49210 -0.00790 
vt 0.00780 -0.00790 
vt -0.80460 -1.11720 
vt -0.89840 -1.00790 
vt -0.80460 -1.00790 
vt -0.89840 -1.00790 
vt -0.80460 -1.11720 
vt -0.80460 -1.00790 
vt -0.99210 -2.00000 
vt -0.89840 -2.00000 
vt -0.99210 -1.00790 
vt -0.89840 -2.00000 
vt -0.80460 -2.00000 
vt -0.80460 -2.00000 
vt -0.50780 -2.00000 
vt -0.50780 -1.00790 
vt -0.80460 -1.00790 
vt -0.50780 -2.00000 
vt -0.80460 -1.00790 
vt -0.50780 -1.00790 
vt -0.50780 -1.00790 
vt -0.78900 -1.00790 
vt -0.78900 -2.00000 
vt -0.78900 -2.00000 
vt -0.78900 -1.00790 
vt 0.66400 -0.06260 
vt 0.58590 -0.06260 
vt 0.62490 -0.00010 
vt 0.50780 -0.06260 
vt 0.58590 -0.06260 
vt 0.54680 -0.00010 
vt 0.66400 -1.00000 
vt 0.58590 -1.00000 
vt 0.66400 -0.41410 
vt 0.58590 -0.41410 
vt 0.66400 -0.38290 
vt 0.58590 -0.38290 
vt 0.58590 -1.00000 
vt 0.58590 -0.41410 
vt 0.50780 -1.00000 
vt 0.50780 -0.41410 
vt 0.50780 -0.38290 
vt 0.58590 -0.38290 
vt -0.49210 -3.00010 
vt -0.49210 -3.50010 
vt -0.37490 -3.00010 
vt -0.37490 -3.50010 
vt 0.99990 -0.99220 
vt 0.99990 -0.50790 
vt 0.00000 -0.99220 
vt 0.00000 -0.50790 
vt 0.49210 -0.49220 
vt 0.00780 -0.49220 
vt 0.49210 -0.35940 
vt 0.00780 -0.35940 
vt 0.00780 -0.35940 
vt 0.00780 -0.49220 
vt 0.49210 -0.49220 
vt 0.49210 -0.35940 
vt 0.00780 -0.00010 
vt 0.49210 -0.00010 
vt 0.99990 -0.99220 
vt 0.99990 -0.50790 
vt 0.00000 -0.99220 
vt 0.00000 -0.50790 
vt 0.49210 -0.49220 
vt 0.00780 -0.49220 
vt 0.49210 -0.35940 
vt 0.00780 -0.35940 
vt 0.00780 -0.35940 
vt 0.00780 -0.49220 
vt 0.00780 -0.00010 
vt 0.49210 -0.00010 
vt 0.00000 -4.00000 
vt 0.99990 -4.00000 
vt 0.00000 -0.00010 
vt 0.99990 -0.00010 
vt 1.08180 2.50370 
vt -1.27010 1.23580 
vt -1.26930 0.91520 
vt 0.14400 -0.02400 
vt 2.27010 -3.17820 
vt 1.72120 -2.78860 
vt 1.71200 -3.50370 
vt 0.89880 0.10660 
vt -0.61890 -2.24840 
vt 1.25890 -1.16320 
vt 1.02980 -2.08470 
vt -0.39750 -0.01080 
vt 1.61890 -2.43290 
vt 3.95310 -14.99990 
vt 3.74210 -13.75390 
vt 0.03900 -14.99990 
vt 0.26560 -13.75390 
vt 3.95310 -14.99990 
vt 0.03900 -14.99990 
vt 3.74210 -13.75390 
vt 0.26560 -13.75390 
vt 3.95310 -14.99990 
vt 3.74210 -13.75390 
vt 0.03900 -14.99990 
vt 0.26560 -13.75390 
vt 3.95310 -14.99990 
vt 0.03900 -14.99990 
vt 3.74210 -13.75390 
vt 0.26560 -13.75390 
vt 3.95310 -14.99990 
vt 0.03900 -14.99990 
vt 3.74210 -13.75390 
vt 0.26560 -13.75390 
vt 0.03900 -14.99990 
vt 3.95310 -14.99990 
vt 0.26560 -13.75390 
vt 3.74210 -13.75390 
vt 3.95310 -14.99990 
vt 0.03900 -14.99990 
vt 3.74210 -13.75390 
vt 0.26560 -13.75390 
vt 3.95310 -14.99990 
vt 3.74210 -13.75390 
vt 0.03900 -14.99990 
vt 0.26560 -13.75390 
vt 0.00000 -13.00000 
vt 2.99990 -13.00000 
vt 0.00000 1.99990 
vt 2.99990 1.99990 
vt 2.99990 -13.00000 
vt 0.00000 -13.00000 
vt 2.99990 1.99990 
vt 0.00000 1.99990 
vt 0.00000 -13.00000 
vt 2.99990 -13.00000 
vt 0.00000 1.99990 
vt 2.99990 1.99990 
vt 2.99990 -13.00000 
vt 0.00000 -13.00000 
vt 2.99990 1.99990 
vt 0.00000 1.99990 
vt 0.00000 -13.00000 
vt 2.99990 -13.00000 
vt 0.00000 1.99990 
vt 2.99990 1.99990 
vt 2.99990 -13.00000 
vt 2.99990 1.99990 
vt 0.00000 1.99990 
vt 2.99990 -13.00000 
vt 0.00000 -13.00000 
vt 2.99990 1.99990 
vt 0.00000 1.99990 
vt 0.00000 -13.00000 
vt 2.99990 -13.00000 
vt 0.00000 1.99990 
vt 2.99990 1.99990 
vt 0.25000 -12.00010 
vt 0.00000 -12.50010 
vt 0.25000 -13.00000 
vt 0.75000 -12.00010 
vt 1.00000 -12.50000 
vt 0.75000 -13.00000 
vt 0.00000 -1.00000 
vt 0.99990 -1.00000 
vt 0.00000 -0.00010 
vt 0.99990 -0.00010 
vt 0.25000 -12.00010 
vt 0.00000 -12.50010 
vt 0.25000 -13.00000 
vt 0.75000 -12.00010 
vt 0.75000 -13.00000 
vt 1.00000 -12.50000 
vt 1.99990 -11.00000 
vt 7.99990 -11.00000 
vt 7.99990 -0.93760 
vt 1.99990 -0.93760 
vt 9.99990 -11.00000 
vt 9.99990 -0.93760 
vt 1.99990 -0.93760 
vt 0.00000 -11.00000 
vt 0.00000 -0.93760 
vt 18.99990 -11.00000 
vt 20.99990 -11.00000 
vt 18.99990 -0.93760 
vt 20.99990 -0.93760 
vt 2.99990 -11.00000 
vt 10.99990 -11.00000 
vt 10.99990 -0.93760 
vt 2.99990 -0.93760 
vt 13.99990 -11.00000 
vt 16.99990 -0.93760 
vt 13.99990 -0.93760 
vt 16.99990 -11.00000 
vt 0.00000 -11.00000 
vt 0.00000 -0.93760 
vt 13.99990 -0.93760 
vt 24.99990 -11.00000 
vt 27.99990 -11.00000 
vt 24.99990 -0.93760 
vt 27.99990 -0.93760 
vt 24.99990 -0.93760 
vt 16.99990 -0.93760 
vt 1.99990 -11.00000 
vt 7.99990 -11.00000 
vt 7.99990 -0.93760 
vt 1.99990 -0.93760 
vt 16.99990 -11.00000 
vt 19.28570 -11.00000 
vt 16.99990 -0.93760 
vt 19.28570 -0.93760 
vt 1.99990 -0.93760 
vt 7.99990 -0.93760 
vt 1.99990 -0.00010 
vt 7.99990 -0.00010 
vt 9.99990 -0.93760 
vt 9.99990 -0.00010 
vt 0.00000 -0.93760 
vt 1.99990 -0.93760 
vt 0.00000 -0.00010 
vt 1.99990 -0.00010 
vt 20.99990 -0.93760 
vt 20.99990 -0.00010 
vt 18.99990 -0.93760 
vt 18.99990 -0.00010 
vt 2.99990 -0.93760 
vt 10.99990 -0.93760 
vt 2.99990 -0.00010 
vt 10.99990 -0.00010 
vt 0.00000 -0.93760 
vt 0.00000 -0.00010 
vt 13.99990 -0.93760 
vt 13.99990 -0.00010 
vt 13.99990 -0.93760 
vt 16.99990 -0.93760 
vt 13.99990 -0.00010 
vt 16.99990 -0.00010 
vt 27.99990 -0.93760 
vt 27.99990 -0.00010 
vt 24.99990 -0.93760 
vt 24.99990 -0.00010 
vt 16.99990 -0.93760 
vt 24.99990 -0.93760 
vt 16.99990 -0.00010 
vt 24.99990 -0.00010 
vt 1.99990 -0.93760 
vt 7.99990 -0.93760 
vt 1.99990 -0.00010 
vt 7.99990 -0.00010 
vt 19.28570 -0.93760 
vt 19.28570 -0.00010 
vt 16.99990 -0.93760 
vt 16.99990 -0.00010 
vt 2.99990 -1.00000 
vt 1.99990 -1.00000 
vt 2.99990 -0.29690 
vt 1.99990 -0.29690 
vt 2.82810 -0.00010 
vt 2.18740 -0.00010 
vt 2.99990 -1.00000 
vt 2.99990 -0.29690 
vt 2.82810 -0.00010 
vt 0.99990 -1.00000 
vt 0.99990 -0.00010 
vt 0.00000 -1.00000 
vt 0.00000 -0.00010 
vt 0.99990 -10.89710 
vt 0.00000 -10.89710 
vt 0.49990 -11.00000 
vt 0.00000 -10.10300 
vt 0.99990 -10.10300 
vt 0.49990 -10.00000 
vt 1.00000 -11.00000 
vt 1.00000 -10.00010 
vt 0.00000 -11.00000 
vt 0.00000 -10.00010 
vt 1.00000 -10.89710 
vt 1.00000 -10.10300 
vt 0.00000 -10.89710 
vt 0.00000 -10.10300 
vt 0.99990 -10.89710 
vt 0.00000 -10.89710 
vt 0.49990 -11.00000 
vt 0.99990 -10.67020 
vt 1.99990 -11.00000 
vt 12.99990 -0.93760 
vt 1.99990 -0.93760 
vt 12.99990 -11.00000 
vt 1.99990 -0.93760 
vt 12.99990 -0.93760 
vt 1.99990 -0.00010 
vt 12.99990 -0.00010 
vt 2.36710 -0.00400 
vt 2.36710 -0.24610 
vt 2.00390 -0.00400 
vt 2.00390 -0.24610 
vt 0.00000 -0.00000 
vt 0.00000 -0.00000 
vt 0.00000 -0.00000 
vt 0.00000 -0.00000 
vt 0.00000 -10.00010 
vt 0.99990 -10.00010 
vt 0.00000 -15.00010 
vt 0.99990 -15.00010 
vt 0.99990 -10.00010 
vt 0.00000 -10.00010 
vt 0.99990 -15.00010 
vt 0.00000 -15.00010 
vt 0.00000 -20.00000 
vt 0.99990 -20.00000 
vt 0.00000 -10.00010 
vt 0.99990 -10.00010 
vt 0.99990 -15.00010 
vt 0.00000 -15.00010 
vt 0.99990 -10.00010 
vt 0.00000 -10.00010 
vt 5.99990 -0.00010 
vt 4.99990 -0.00010 
vt 5.99990 -10.00010 
vt 4.99990 -10.00010 
vt 1.99990 -0.00010 
vt 1.99990 -10.00010 
vt 2.99990 -0.00010 
vt 2.99990 -10.00010 
vt 1.99990 -0.00010 
vt 1.99990 -10.00010 
vt 2.99990 -0.00010 
vt 2.99990 -10.00010 
vt 1.99990 -20.00000 
vt 1.99990 -0.00010 
vt 2.99990 -20.00000 
vt 2.99990 -0.00010 
vt 1.99990 -10.00010 
vt 1.99990 -0.00010 
vt 2.99990 -10.00010 
vt 2.99990 -0.00010 
vt 1.99990 -5.00010 
vt 0.00000 -5.00010 
vt 1.99990 -0.00010 
vt 0.00000 -0.00010 
vt 9.99990 -0.00010 
vt 10.99990 -5.00010 
vt 10.99990 -0.00010 
vt 9.99990 -5.00010 
vt 5.99990 -6.98440 
vt 5.99990 -6.50010 
vt 4.99990 -6.98440 
vt 4.99990 -6.50010 
vt 2.99990 -6.98440 
vt 2.99990 -6.50010 
vt 0.00000 -13.92190 
vt 0.00000 -13.53130 
vt 0.89840 -13.92190 
vt 0.89840 -13.53130 
vt 0.00000 -13.46880 
vt 0.00000 -13.00010 
vt 0.79680 -13.46880 
vt 0.79680 -13.00010 
vt 0.79680 -13.00010 
vt 0.00000 -13.46880 
vt 0.00000 -13.00010 
vt 0.89840 -13.53130 
vt 0.00000 -13.92190 
vt 0.00000 -13.53130 
vt 0.00000 -13.92190 
vt 0.00000 -13.53130 
vt 0.89840 -13.92190 
vt 0.89840 -13.53130 
vt 0.00000 -13.46880 
vt 0.00000 -13.00010 
vt 0.79680 -13.46880 
vt 0.79680 -13.00010 
vt 0.00000 -13.46880 
vt 0.39840 -13.46880 
vt 0.00000 -13.00010 
vt 0.39840 -13.00010 
vt 0.00000 -13.92190 
vt 0.44920 -13.92190 
vt 0.17180 -13.53130 
vt 0.46480 -13.53130 
vt 0.79680 -13.00010 
vt 0.00000 -13.46880 
vt 0.00000 -13.00010 
vt 0.79680 -13.46880 
vt 0.79680 -13.00010 
vt 0.00000 -13.00010 
vt 0.89840 -13.53130 
vt 0.00000 -13.92190 
vt 0.00000 -13.53130 
vt 0.89840 -13.92190 
vt 0.00000 -13.92190 
vt 0.89840 -13.53130 
vt 0.00000 -13.53130 
vt 5.99990 -14.00000 
vt 5.99990 -0.00010 
vt 6.99990 -14.00000 
vt 6.99990 -0.00010 
vt 6.99990 -0.00010 
vt 7.99990 -14.00000 
vt 7.99990 -0.00010 
vt 5.99990 -14.00000 
vt 5.99990 -0.00010 
vt 6.99990 -14.00000 
vt 6.99990 -0.00010 
vt 8.20310 -0.00010 
vt 7.99990 -0.00010 
vt 8.20310 -14.00000 
vt 7.99990 -14.00000 
vt 6.99990 -0.00010 
vt 7.99990 -14.00000 
vt 7.99990 -0.00010 
vt 6.99990 -14.00000 
vt 6.99990 -0.00010 
vt 7.99990 -0.00010 
vt 0.32030 -1.00000 
vt 0.00780 -1.00000 
vt 0.32030 -0.00790 
vt 0.00780 -0.00790 
vt 3.99990 -0.00010 
vt 3.99990 -14.00000 
vt 2.99990 -0.00010 
vt 2.99990 -14.00000 

s 1

g Object_2

usemtl texture0

f 1/1 2/2 3/3
f 2/2 4/4 3/3
f 5/5 1/1 6/6
f 1/1 3/3 6/6
f 2/2 7/7 4/4
f 7/7 8/8 4/4
f 9/9 5/5 10/10
f 5/5 6/6 10/10
f 3/3 4/4 11/11
f 4/4 12/12 11/11
f 6/6 3/3 13/13
f 3/3 11/11 13/13
f 4/4 8/8 12/12
f 8/8 14/14 12/12
f 10/10 6/6 15/15
f 6/6 13/13 15/15
f 11/11 12/12 16/16
f 12/12 17/17 16/16
f 13/13 11/11 18/18
f 11/11 16/16 18/18
f 7/7 19/19 8/8
f 19/19 20/20 8/8
f 21/21 9/9 22/22
f 9/9 10/10 22/22
f 12/12 14/14 17/17
f 14/14 23/23 17/17
f 15/15 13/13 24/24
f 13/13 18/18 24/24
f 16/16 17/17 25/25
f 17/17 26/26 25/25
f 18/18 16/16 27/27
f 16/16 25/25 27/27
f 8/8 20/20 14/14
f 20/20 28/28 14/14
f 22/22 10/10 29/29
f 10/10 15/15 29/29
f 17/17 23/23 26/26
f 23/23 30/30 26/26
f 24/24 18/18 31/31
f 18/18 27/27 31/31
f 14/14 32/32 23/23
f 32/32 33/33 23/23
f 29/29 15/15 34/34
f 15/15 24/24 34/34
f 23/23 35/35 30/30
f 35/35 36/36 30/30
f 34/34 24/24 37/37
f 24/24 31/31 37/37
f 19/19 38/38 20/20
f 38/38 39/39 20/20
f 40/40 21/21 41/41
f 21/21 22/22 41/41
f 20/20 39/39 28/28
f 39/39 42/42 28/28
f 41/41 22/22 43/43
f 22/22 29/29 43/43
f 28/28 44/44 33/33
f 44/44 45/45 33/33
f 43/43 29/29 46/46
f 29/29 34/34 46/46
f 33/33 45/45 36/36
f 45/45 47/47 36/36
f 46/46 34/34 48/48
f 34/34 37/37 48/48
f 45/45 49/49 47/47
f 49/49 50/50 47/47
f 51/51 52/52 53/53
f 52/52 54/54 53/53
f 42/42 55/55 45/45
f 55/55 49/49 45/45
f 56/56 57/57 51/51
f 57/57 52/52 51/51
f 39/39 58/58 42/42
f 58/58 55/55 42/42
f 59/59 60/60 56/56
f 60/60 57/57 56/56
f 38/38 61/61 39/39
f 61/61 58/58 39/39
f 62/62 63/63 59/59
f 63/63 60/60 59/59
f 49/49 64/64 50/50
f 64/64 65/65 50/50
f 66/66 51/51 67/67
f 51/51 53/53 67/67
f 55/55 68/68 49/49
f 68/68 64/64 49/49
f 69/69 56/56 66/66
f 56/56 51/51 66/66
f 64/64 70/70 65/65
f 70/70 71/71 65/65
f 72/72 66/66 73/73
f 66/66 67/67 73/73
f 58/58 74/74 55/55
f 74/74 68/68 55/55
f 75/75 59/59 69/69
f 59/59 56/56 69/69
f 76/76 72/72 77/77
f 72/72 73/73 77/77
f 70/70 76/76 71/71
f 76/76 77/77 71/71
f 78/78 69/69 72/72
f 69/69 66/66 72/72
f 68/68 79/79 64/64
f 79/79 70/70 64/64
f 61/61 80/80 58/58
f 80/80 74/74 58/58
f 81/81 62/62 75/75
f 62/62 59/59 75/75
f 82/82 78/78 76/76
f 78/78 72/72 76/76
f 79/79 82/82 70/70
f 82/82 76/76 70/70
f 74/74 83/83 68/68
f 83/83 79/79 68/68
f 84/84 75/75 78/78
f 75/75 69/69 78/78
f 85/85 84/84 82/82
f 84/84 78/78 82/82
f 83/83 85/85 79/79
f 85/85 82/82 79/79
f 80/80 86/86 74/74
f 86/86 83/83 74/74
f 87/87 81/81 84/84
f 81/81 75/75 84/84
f 88/88 87/87 85/85
f 87/87 84/84 85/85
f 86/86 88/88 83/83
f 88/88 85/85 83/83
f 89/89 90/90 91/91
f 90/90 92/92 91/91
f 93/93 94/94 89/89
f 94/94 90/90 89/89
f 91/91 92/92 95/95
f 92/92 96/96 95/95
f 97/97 98/98 93/93
f 98/98 94/94 93/93
f 95/95 96/96 99/99
f 96/96 100/100 99/99
f 101/101 102/102 97/97
f 102/102 98/98 97/97
f 99/99 100/100 103/103
f 100/100 104/104 103/103
f 105/105 106/106 101/101
f 106/106 102/102 101/101
f 107/107 108/108 109/109
f 108/108 110/110 109/109
f 111/111 112/112 105/105
f 112/112 106/106 105/105
f 109/109 110/110 113/113
f 110/110 114/114 113/113
f 115/115 116/116 111/111
f 116/116 112/112 111/111
f 113/113 114/114 117/117
f 114/114 118/118 117/117
f 119/119 120/120 115/115
f 120/120 116/116 115/115
f 121/121 122/122 119/119
f 122/122 120/120 119/119
f 117/117 118/118 121/121
f 118/118 122/122 121/121
f 123/123 124/124 125/125
f 125/125 124/124 126/126
f 127/127 128/128 129/129
f 130/130 131/131 132/132
f 133/133 134/134 135/135
f 135/135 134/134 136/136
f 137/137 138/138 139/139
f 140/140 141/141 142/142
f 143/143 140/140 142/142
f 144/144 145/145 146/146
f 146/146 145/145 147/147
f 143/143 142/142 148/148
f 149/149 150/150 151/151
f 152/152 145/145 153/153
f 144/144 153/153 145/145
f 145/145 152/152 154/154
f 144/144 155/155 153/153
f 156/156 157/157 158/158
f 158/158 157/157 159/159
f 160/160 161/161 162/162
f 163/163 164/164 160/160
f 160/160 164/164 161/161
f 165/165 166/166 163/163
f 166/166 164/164 163/163
f 167/167 168/168 164/164
f 164/164 168/168 161/161
f 166/166 169/169 164/164
f 169/169 167/167 164/164
f 170/170 171/171 172/172
f 173/173 174/174 175/175
f 176/176 177/177 178/178

usemtl texture1

f 179/179 180/180 181/181
f 180/180 182/182 181/181
f 183/183 184/184 180/180
f 184/184 182/182 180/180
f 179/179 181/181 185/185
f 181/181 186/186 185/185
f 183/183 187/187 184/184
f 187/187 188/188 184/184
f 189/189 185/185 190/190
f 185/185 191/191 190/190
f 192/192 193/193 187/187
f 193/193 188/188 187/187
f 182/182 194/194 181/181
f 184/184 195/195 182/182
f 181/181 194/194 191/191
f 188/188 196/196 184/184
f 182/182 195/195 194/194
f 191/191 194/194 197/197
f 188/188 198/198 195/195
f 186/186 197/197 190/190
f 193/193 198/198 188/188
f 189/189 190/190 199/199
f 190/190 200/200 199/199
f 192/192 201/201 193/193
f 201/201 202/202 193/193
f 195/195 203/203 194/194
f 194/194 203/203 197/197
f 198/198 203/203 195/195
f 190/190 197/197 200/200
f 202/202 198/198 193/193
f 200/200 197/197 204/204
f 197/197 203/203 204/204
f 205/205 203/203 198/198
f 202/202 205/205 198/198
f 200/200 204/204 206/206
f 207/207 205/205 202/202
f 204/204 203/203 208/208
f 209/209 203/203 205/205
f 208/208 203/203 209/209
f 210/210 199/199 206/206
f 199/199 200/200 206/206
f 211/211 207/207 201/201
f 207/207 202/202 201/201
f 206/206 204/204 212/212
f 213/213 205/205 207/207
f 212/212 204/204 208/208
f 213/213 209/209 205/205
f 214/214 208/208 209/209
f 215/215 209/209 213/213
f 212/212 208/208 216/216
f 214/214 209/209 215/215
f 216/216 208/208 217/217
f 210/210 206/206 218/218
f 206/206 212/212 218/218
f 211/211 219/219 207/207
f 219/219 213/213 207/207
f 220/220 218/218 216/216
f 218/218 212/212 216/216
f 221/221 215/215 219/219
f 215/215 213/213 219/219
f 221/221 222/222 215/215
f 222/222 217/217 215/215
f 220/220 216/216 222/222
f 216/216 217/217 222/222

usemtl texture3

f 267/267 268/268 269/269
f 268/268 270/270 269/269
f 271/271 272/272 273/273
f 273/273 272/272 267/267
f 270/270 274/274 269/269
f 274/274 275/275 269/269
f 268/268 276/276 270/270
f 276/276 277/277 270/270
f 278/278 279/279 280/280
f 279/279 281/281 280/280
f 282/282 283/283 284/284
f 284/284 283/283 278/278
f 281/281 285/285 280/280
f 285/285 286/286 280/280
f 287/287 288/288 289/289
f 288/288 290/290 289/289
f 291/291 292/292 293/293
f 293/293 292/292 287/287
f 290/290 294/294 289/289
f 294/294 295/295 289/289
f 296/296 297/297 298/298
f 297/297 299/299 298/298
f 300/300 301/301 302/302
f 302/302 301/301 296/296
f 299/299 303/303 298/298
f 303/303 304/304 298/298
f 305/305 306/306 307/307
f 306/306 308/308 307/307
f 308/308 309/309 307/307
f 309/309 310/310 307/307

usemtl texture4

f 311/311 312/312 313/313
f 314/314 315/315 316/316
f 316/316 315/315 317/317
f 313/313 312/312 316/316
f 312/312 318/318 316/316
f 315/315 319/319 317/317
f 319/319 320/320 317/317
f 321/321 322/322 323/323
f 324/324 325/325 326/326
f 326/326 325/325 327/327
f 323/323 322/322 326/326
f 322/322 328/328 326/326
f 325/325 329/329 327/327
f 329/329 330/330 327/327
f 331/331 332/332 333/333
f 334/334 335/335 336/336
f 336/336 335/335 337/337
f 333/333 332/332 336/336
f 332/332 338/338 336/336
f 335/335 339/339 337/337
f 339/339 340/340 337/337
f 341/341 342/342 343/343
f 344/344 345/345 346/346
f 346/346 345/345 347/347
f 342/342 348/348 343/343
f 343/343 348/348 346/346
f 345/345 349/349 347/347
f 349/349 350/350 347/347
f 351/351 352/352 353/353
f 354/354 355/355 356/356
f 356/356 355/355 357/357
f 352/352 358/358 353/353
f 353/353 358/358 356/356
f 355/355 359/359 357/357
f 359/359 360/360 357/357
f 361/361 362/362 363/363
f 364/364 365/365 366/366
f 366/366 365/365 367/367
f 365/365 368/368 367/367
f 368/368 369/369 367/367
f 362/362 370/370 363/363
f 363/363 370/370 366/366
f 371/371 372/372 373/373
f 372/372 374/374 373/373
f 375/375 376/376 377/377
f 377/377 376/376 371/371
f 372/372 378/378 374/374
f 378/378 379/379 374/374
f 380/380 381/381 382/382
f 383/383 384/384 385/385
f 386/386 387/387 382/382
f 382/382 387/387 380/380
f 383/383 381/381 384/384
f 380/380 384/384 381/381
f 388/388 389/389 390/390
f 390/390 389/389 391/391

usemtl texture6

f 398/398 399/399 400/400
f 399/399 401/401 400/400
f 402/402 403/403 404/404
f 404/404 403/403 398/398
f 401/401 405/405 400/400
f 405/405 406/406 400/400
f 407/407 408/408 409/409
f 408/408 410/410 409/409
f 411/411 412/412 413/413
f 413/413 412/412 407/407
f 410/410 414/414 409/409
f 414/414 415/415 409/409
f 416/416 417/417 418/418
f 417/417 419/419 418/418
f 419/419 420/420 418/418
f 420/420 421/421 418/418
f 422/422 423/423 424/424
f 423/423 425/425 424/424
f 426/426 427/427 424/424
f 427/427 422/422 424/424

usemtl texture7

f 428/428 429/429 430/430
f 431/431 429/429 428/428
f 432/432 430/430 433/433
f 433/433 430/430 429/429
f 434/434 433/433 435/435
f 433/433 436/436 435/435
f 437/437 438/438 439/439
f 438/438 440/440 439/439
f 438/438 441/441 440/440
f 441/441 442/442 440/440
f 443/443 444/444 445/445
f 443/443 446/446 444/444
f 447/447 443/443 448/448
f 443/443 445/445 448/448
f 449/449 450/450 451/451
f 451/451 450/450 452/452
f 453/453 451/451 454/454
f 451/451 455/455 454/454
f 456/456 457/457 458/458
f 459/459 457/457 456/456
f 460/460 461/461 462/462
f 461/461 463/463 462/462

usemtl texture8

f 464/464 465/465 466/466
f 467/467 468/468 469/469
f 470/470 471/471 472/472
f 471/471 467/467 472/472
f 465/465 464/464 473/473
f 474/474 473/473 464/464
f 467/467 471/471 468/468
f 471/471 475/475 468/468
f 476/476 474/474 477/477
f 474/474 478/478 477/477
f 475/475 479/479 480/480
f 479/479 481/481 480/480
f 482/482 483/483 476/476
f 483/483 484/484 476/476
f 479/479 485/485 481/481
f 485/485 486/486 481/481
f 487/487 488/488 489/489
f 490/490 491/491 492/492
f 493/493 494/494 495/495
f 494/494 496/496 495/495
f 495/495 496/496 497/497
f 496/496 498/498 497/497
f 497/497 498/498 487/487
f 498/498 488/488 487/487
f 499/499 500/500 501/501
f 501/501 500/500 502/502
f 502/502 500/500 503/503
f 500/500 504/504 503/503
f 504/504 491/491 503/503
f 503/503 491/491 490/490

usemtl texture9

f 505/505 506/506 507/507
f 506/506 508/508 507/507
f 509/509 510/510 511/511
f 510/510 512/512 511/511
f 513/513 514/514 515/515
f 514/514 516/516 515/515
f 517/517 518/518 515/515
f 515/515 518/518 513/513
f 514/514 519/519 516/516
f 519/519 520/520 516/516
f 516/516 521/521 515/515
f 521/521 522/522 515/515
f 523/523 524/524 525/525
f 524/524 526/526 525/525
f 527/527 528/528 529/529
f 528/528 530/530 529/529
f 531/531 532/532 529/529
f 529/529 532/532 527/527
f 530/530 533/533 529/529
f 533/533 534/534 529/529

usemtl texture10

f 535/535 536/536 537/537
f 536/536 538/538 537/537

usemtl texture11

f 539/539 540/540 541/541
f 539/539 541/541 542/542
f 543/543 544/544 545/545
f 546/546 547/547 548/548
f 547/547 549/549 548/548
f 550/550 547/547 546/546
f 548/548 549/549 551/551

usemtl texture12

f 552/552 553/553 554/554
f 554/554 553/553 555/555
f 556/556 557/557 558/558
f 557/557 559/559 558/558
f 560/560 561/561 562/562
f 562/562 561/561 563/563
f 564/564 565/565 566/566
f 565/565 567/567 566/566
f 568/568 569/569 570/570
f 569/569 571/571 570/570
f 572/572 573/573 574/574
f 573/573 575/575 574/574
f 576/576 577/577 578/578
f 577/577 579/579 578/578
f 580/580 581/581 582/582
f 582/582 581/581 583/583

usemtl texture13

f 584/584 585/585 586/586
f 585/585 587/587 586/586
f 588/588 589/589 590/590
f 589/589 591/591 590/590
f 592/592 593/593 594/594
f 593/593 595/595 594/594
f 596/596 597/597 598/598
f 597/597 599/599 598/598
f 600/600 601/601 602/602
f 601/601 603/603 602/602
f 604/604 600/600 605/605
f 600/600 606/606 605/605
f 607/607 608/608 609/609
f 608/608 610/610 609/609
f 611/611 612/612 613/613
f 612/612 614/614 613/613

usemtl texture14

f 615/615 616/616 617/617
f 618/618 615/615 617/617
f 619/619 618/618 617/617
f 620/620 619/619 617/617
f 621/621 622/622 623/623
f 622/622 624/624 623/623
f 625/625 626/626 627/627
f 628/628 625/625 627/627
f 629/629 630/630 627/627
f 630/630 628/628 627/627

usemtl texture15

f 631/631 632/632 633/633
f 631/631 633/633 634/634
f 635/635 636/636 632/632
f 632/632 636/636 633/633
f 631/631 637/637 638/638
f 638/638 637/637 639/639
f 640/640 641/641 642/642
f 641/641 643/643 642/642
f 644/644 645/645 646/646
f 644/644 646/646 647/647
f 648/648 649/649 650/650
f 648/648 651/651 649/649
f 644/644 647/647 652/652
f 652/652 647/647 653/653
f 648/648 654/654 645/645
f 645/645 654/654 646/646
f 655/655 656/656 657/657
f 656/656 658/658 657/657
f 655/655 659/659 651/651
f 651/651 659/659 660/660
f 661/661 662/662 663/663
f 661/661 663/663 664/664
f 665/665 666/666 667/667
f 666/666 668/668 667/667

usemtl texture16

f 669/669 670/670 671/671
f 670/670 672/672 671/671
f 670/670 673/673 672/672
f 673/673 674/674 672/672
f 675/675 676/676 677/677
f 676/676 678/678 677/677
f 679/679 680/680 681/681
f 681/681 680/680 682/682
f 683/683 684/684 685/685
f 684/684 686/686 685/685
f 687/687 683/683 688/688
f 683/683 685/685 688/688
f 689/689 690/690 684/684
f 684/684 690/690 686/686
f 691/691 692/692 693/693
f 692/692 694/694 693/693
f 695/695 696/696 697/697
f 697/697 696/696 698/698
f 699/699 700/700 701/701
f 700/700 702/702 701/701
f 703/703 704/704 705/705
f 704/704 706/706 705/705
f 707/707 708/708 709/709
f 709/709 708/708 710/710

usemtl texture17

f 711/711 712/712 713/713
f 712/712 714/714 713/713
f 713/713 714/714 715/715
f 714/714 716/716 715/715
f 717/717 718/718 712/712
f 712/712 718/718 714/714
f 718/718 719/719 714/714
f 714/714 719/719 716/716

usemtl texture18

f 720/720 721/721 722/722
f 722/722 721/721 723/723

usemtl texture19

f 724/724 725/725 726/726
f 727/727 728/728 729/729
f 724/724 728/728 725/725
f 728/728 727/727 725/725
f 730/730 731/731 732/732
f 731/731 733/733 732/732
f 734/734 735/735 736/736
f 735/735 737/737 736/736
f 738/738 739/739 740/740
f 738/738 741/741 739/739

usemtl texture20

f 742/742 743/743 744/744
f 742/742 745/745 743/743

usemtl texture21

f 746/746 747/747 748/748
f 747/747 749/749 748/748

usemtl texture22

f 750/750 751/751 752/752
f 751/751 753/753 752/752

usemtl texture23

f 754/754 755/755 756/756
f 755/755 757/757 756/756

usemtl texture24

f 758/758 759/759 760/760
f 759/759 761/761 760/760
f 762/762 763/763 764/764
f 763/763 765/765 764/764
f 766/766 767/767 768/768
f 767/767 769/769 768/768
f 770/770 771/771 772/772
f 771/771 773/773 772/772

usemtl texture25

f 774/774 775/775 776/776
f 775/775 777/777 776/776

usemtl texture26

f 778/778 779/779 780/780
f 779/779 781/781 780/780
f 782/782 783/783 784/784
f 783/783 785/785 784/784
f 786/786 787/787 788/788
f 787/787 789/789 788/788
f 790/790 791/791 792/792
f 791/791 793/793 792/792

usemtl texture27

f 794/794 795/795 796/796
f 795/795 797/797 796/796
f 798/798 799/799 800/800
f 801/801 799/799 798/798

usemtl texture28

f 802/802 803/803 804/804
f 804/804 803/803 805/805
f 804/804 805/805 806/806
f 806/806 805/805 807/807

usemtl texture29

f 808/808 809/809 810/810
f 809/809 811/811 810/810
f 812/812 813/813 814/814
f 813/813 815/815 814/814
f 814/814 816/816 817/817
f 816/816 818/818 817/817
f 810/810 819/819 820/820
f 819/819 821/821 820/820
f 822/822 823/823 824/824
f 823/823 825/825 824/824
f 826/826 827/827 828/828
f 827/827 829/829 828/828
f 830/830 831/831 832/832
f 831/831 833/833 832/832
f 834/834 835/835 836/836
f 835/835 837/837 836/836
f 828/828 838/838 839/839
f 838/838 840/840 839/839
f 841/841 830/830 842/842
f 830/830 843/843 842/842
f 824/824 844/844 845/845
f 844/844 846/846 845/845
f 847/847 848/848 849/849
f 848/848 850/850 849/849
f 834/834 836/836 850/850

usemtl texture30

f 851/851 852/852 853/853
f 852/852 854/854 853/853
f 853/853 855/855 856/856
f 855/855 857/857 856/856
f 858/858 859/859 860/860
f 859/859 861/861 860/860
f 862/862 863/863 864/864
f 863/863 865/865 864/864
f 860/860 866/866 867/867
f 866/866 868/868 867/867
f 869/869 865/865 870/870
f 865/865 871/871 870/870

usemtl texture32

f 876/876 877/877 878/878
f 877/877 879/879 878/878

usemtl texture2

f 223/223 224/224 225/225
f 224/224 226/226 225/225
f 227/227 228/228 223/223
f 228/228 224/224 223/223
f 225/225 226/226 229/229
f 226/226 230/230 229/229
f 231/231 232/232 233/233
f 232/232 234/234 233/233
f 232/232 235/235 234/234
f 235/235 236/236 234/234
f 237/237 238/238 239/239
f 238/238 240/240 239/239
f 238/238 241/241 240/240
f 241/241 242/242 240/240
f 243/243 244/244 245/245
f 244/244 246/246 245/245
f 244/244 247/247 246/246
f 247/247 248/248 246/246
f 249/249 250/250 251/251
f 250/250 252/252 251/251
f 235/235 253/253 236/236
f 253/253 254/254 236/236
f 255/255 256/256 257/257
f 256/256 258/258 257/257
f 241/241 259/259 242/242
f 259/259 260/260 242/242
f 261/261 262/262 263/263
f 262/262 264/264 263/263
f 247/247 265/265 248/248
f 265/265 266/266 248/248

usemtl texture5

f 392/392 393/393 394/394
f 393/393 395/395 394/394
f 396/396 392/392 397/397
f 392/392 394/394 397/397

usemtl texture31

f 872/872 873/873 874/874
f 873/873 875/875 874/874

