# Wavefront OBJ exported by MilkShape 3D

mtllib Mystic Mansion - Switch Pad.mtl

v 4.999900 0.000000 0.000000
v 4.777900 0.999900 -0.000000
v 4.045000 0.000000 2.938904
v 4.045000 -0.000000 -2.938904
v 3.865400 0.999901 2.808403
v 3.865400 0.999901 -2.808402
v 1.545000 0.000001 4.755203
v 1.545000 -0.000001 -4.755203
v 1.476400 0.999900 4.544102
v 1.476400 0.999901 -4.544103
v 0.000000 1.999901 0.000000
v 0.000000 1.999901 0.000000
v 0.000000 1.999901 0.000000
v 0.000000 1.999901 0.000000
v 0.000000 1.999901 0.000000
v -1.476400 0.999900 4.544102
v -1.476400 0.999901 -4.544103
v -1.545000 0.000001 4.755203
v -1.545000 -0.000001 -4.755203
v -3.865400 0.999901 2.808403
v -3.865400 0.999901 2.808403
v -3.865400 0.999901 -2.808402
v -4.045000 0.000000 2.938904
v -4.045000 0.000000 2.938904
v -4.045000 -0.000000 -2.938904
v -4.777900 0.999900 -0.000000
v -4.777900 0.999900 -0.000000
v -4.999900 0.000000 0.000000
# 28 vertices

vt -0.496500 0.000000
vt -0.996300 0.085900
vt -0.996300 0.000000
vt -0.496500 0.085900
vt 0.003600 0.000000
vt 0.003600 0.085900
vt -1.496800 0.085900
vt -1.496800 0.000000
vt 0.503800 0.000000
vt 0.503800 0.085900
vt -1.253800 0.993000
vt -0.253800 0.993000
vt -1.996300 0.085900
vt -1.996300 0.000000
vt 1.003600 0.000000
vt 1.003600 0.085900
vt -2.253800 0.993000
vt 0.746100 0.993000
vt -2.496300 0.085900
vt 1.504100 0.085900
vt 2.503600 0.085900
vt 1.746100 0.993000
vt 2.003600 0.085900
vt -2.496300 0.000000
vt 1.504100 0.000000
vt 2.503600 0.000000
vt 2.003600 0.000000
# 27 texture coordinates

vn 0.970817 0.215543 0.105145
vn 0.671969 0.624893 0.397451
vn 0.723601 0.215538 0.655702
vn 0.777252 0.624891 -0.073428
vn 0.847208 0.215547 -0.485569
vn 0.585648 0.624888 -0.516266
vn 0.310017 0.624882 0.716528
vn 0.199996 0.215512 0.955801
vn 0.399994 0.215525 -0.890816
vn 0.170351 0.624875 -0.761913
vn 0.165733 0.978792 0.120412
vn 0.165733 0.978792 -0.120412
vn -0.170351 0.624876 0.761913
vn -0.399994 0.215525 0.890816
vn -0.199996 0.215511 -0.955802
vn -0.310017 0.624882 -0.716528
vn -0.063304 0.978792 0.194831
vn -0.063304 0.978792 -0.194831
vn -0.495082 0.539019 0.681434
vn -0.671969 0.624893 -0.397451
vn -0.675356 0.704090 0.219435
vn -0.204858 0.978792 0.000000
vn -0.680750 0.709713 0.181351
vn -0.575091 0.206607 0.791570
vn -0.723601 0.215538 -0.655702
vn -0.930538 0.206601 0.302348
vn -0.970817 0.215543 -0.105145
vn -0.930538 0.206600 -0.302349
# 28 normals

g default
usemtl material_0
s 1
f 1/1/1 5/2/2 3/3/3
f 2/4/4 5/2/2 1/1/1
f 4/5/5 2/4/4 1/1/1
f 6/6/6 2/4/4 4/5/5
f 3/3/3 9/7/7 7/8/8
f 5/2/2 9/7/7 3/3/3
f 8/9/9 6/6/6 4/5/5
f 10/10/10 6/6/6 8/9/9
f 2/4/4 12/11/11 5/2/2
f 6/6/6 13/12/12 2/4/4
f 5/2/2 12/11/11 9/7/7
f 10/10/10 13/12/12 6/6/6
f 7/8/8 16/13/13 18/14/14
f 9/7/7 16/13/13 7/8/8
f 19/15/15 10/10/10 8/9/9
f 17/16/16 10/10/10 19/15/15
f 9/7/7 11/17/17 16/13/13
f 17/16/16 14/18/18 10/10/10
f 16/13/13 11/17/17 20/19/19
f 22/20/20 14/18/18 17/16/16
f 21/21/21 15/22/22 27/23/23
f 27/23/23 15/22/22 22/20/20
f 18/14/14 20/19/19 23/24/24
f 16/13/13 20/19/19 18/14/14
f 25/25/25 17/16/16 19/15/15
f 22/20/20 17/16/16 25/25/25
f 24/26/26 27/23/23 28/27/27
f 21/21/21 27/23/23 24/26/26
f 28/27/27 22/20/20 25/25/25
f 26/23/28 22/20/20 28/27/27
# 30 triangles in group

# 30 triangles total

