# Wavefront OBJ exported by MilkShape 3D

mtllib Mystic Mansion - Switch Effect.mtl

v 19.999901 0.000000 0.000000
v 19.615601 3.901800 0.000000
v 19.615601 -3.901800 0.000000
v 18.477501 7.653600 0.000000
v 18.477501 -7.653600 0.000000
v 16.629299 11.111300 0.000000
v 16.629299 -11.111400 0.000000
v 14.142100 14.142100 0.000000
v 14.142100 -14.142100 0.000000
v 13.281400 1.175200 0.000000
v 13.255500 -1.438400 0.000000
v 12.796900 3.743700 0.000000
v 12.720100 -3.996800 0.000000
v 11.820700 6.168300 0.000000
v 11.696000 -6.401600 0.000000
v 11.111400 16.629299 0.000000
v 11.111300 -16.629299 0.000000
v 10.390100 8.355900 0.000000
v 10.222300 -8.560300 0.000000
v 9.700100 0.010400 0.000000
v 8.560300 10.222300 0.000000
v 8.355900 -10.390100 0.000000
v 7.753601 1.054200 0.000000
v 7.653600 18.477501 0.000000
v 7.653600 -18.477501 0.000000
v 7.209100 -1.852700 0.000000
v 6.686600 0.006700 0.000000
v 6.401600 11.696000 0.000000
v 6.168300 -11.820700 0.000000
v 5.647800 3.196900 0.000000
v 5.101200 -3.499900 0.000000
v 5.048800 -1.204200 0.000000
v 5.039800 0.870800 0.000000
v 3.996800 12.720100 0.000000
v 3.901800 19.615601 0.000000
v 3.901800 -19.615601 0.000000
v 3.869000 -2.232000 0.000000
v 3.852500 1.807200 0.000000
v 3.743700 -12.796900 0.000000
v 3.197800 4.500100 0.000000
v 2.781100 -4.492199 0.000000
v 2.100200 -2.919900 0.000000
v 2.078600 2.724600 0.000000
v 1.438400 13.255499 0.000000
v 1.175200 -13.281400 0.000000
v 0.017800 -4.866600 0.000000
v 0.011700 -3.163300 0.000000
v 0.000000 19.999901 0.000000
v 0.000000 -0.100200 0.000000
v 0.000000 -19.999901 0.000000
v -0.011700 3.163300 0.000000
v -0.018000 4.866600 0.000000
v -1.175200 13.281400 0.000000
v -1.438400 -13.255499 0.000000
v -2.078600 -2.925100 0.000000
v -2.100200 2.719400 0.000000
v -2.747800 -4.500100 0.000000
v -2.981400 4.450500 0.000000
v -3.743700 12.796900 0.000000
v -3.852500 -2.241500 0.000000
v -3.869000 2.064900 0.000000
v -3.901800 19.615601 0.000000
v -3.901800 -19.615601 0.000000
v -3.996800 -12.720100 0.000000
v -4.976600 -3.448600 0.000000
v -5.039800 -1.216800 0.000000
v -5.048800 0.984100 0.000000
v -5.494500 3.400500 0.000000
v -6.168300 11.820700 0.000000
v -6.401600 -11.696000 0.000000
v -6.718100 -0.006700 0.000000
v -7.125500 -1.872000 0.000000
v -7.642500 1.285600 0.000000
v -7.653600 18.477501 0.000000
v -7.653600 -18.477501 0.000000
v -8.355900 10.390100 0.000000
v -8.560300 -10.222300 0.000000
v -9.880401 -0.010400 0.000000
v -10.222400 8.560300 0.000000
v -10.390100 -8.355900 0.000000
v -11.111300 -16.629299 0.000000
v -11.111400 16.629299 0.000000
v -11.696000 6.401600 0.000000
v -11.820700 -6.168300 0.000000
v -12.720100 3.996800 0.000000
v -12.796900 -3.743700 0.000000
v -13.255500 1.438400 0.000000
v -13.281400 -1.175200 0.000000
v -14.142100 14.142100 0.000000
v -14.142100 -14.142100 0.000000
v -16.629299 11.111400 0.000000
v -16.629299 -11.111300 0.000000
v -18.477501 7.653600 0.000000
v -18.477501 -7.653600 0.000000
v -19.615601 -3.901700 0.000000
v -19.615700 3.901800 0.000000
v -19.999901 0.000000 0.000000
# 97 vertices

vt 0.953691 0.597545
vt 0.811173 0.464040
vt 0.799176 0.400079
vt 0.928189 0.691341
vt 0.962303 0.500000
vt 0.776227 0.339959
vt 0.811753 0.529380
vt 0.886774 0.777784
vt 0.953691 0.402454
vt 0.743204 0.285991
vt 0.800896 0.593593
vt 0.831040 0.853554
vt 0.928189 0.308659
vt 0.701382 0.240246
vt 0.779022 0.654208
vt 0.763127 0.915735
vt 0.886774 0.222214
vt 0.652362 0.204481
vt 0.746964 0.708899
vt 0.685644 0.961940
vt 0.831040 0.146446
vt 0.598030 0.180076
vt 0.705962 0.755559
vt 0.601573 0.990392
vt 0.763125 0.084265
vt 0.540475 0.167963
vt 0.687885 0.526355
vt 0.663975 0.500168
vt 0.731503 0.500260
vt 0.627074 0.521770
vt 0.675684 0.453682
vt 0.627276 0.469895
vt 0.628449 0.412502
vt 0.640698 0.579923
vt 0.600469 0.545180
vt 0.600838 0.444200
vt 0.657589 0.792401
vt 0.514141 1.000000
vt 0.576460 0.387694
vt 0.685644 0.038060
vt 0.481909 0.168611
vt 0.585798 0.612503
vt 0.560719 0.568115
vt 0.561203 0.427002
vt 0.603702 0.818004
vt 0.514540 0.378334
vt 0.514141 0.497495
vt 0.546373 0.831389
vt 0.426709 0.990392
vt 0.601573 0.009608
vt 0.424580 0.181996
vt 0.513738 0.621666
vt 0.513879 0.579083
vt 0.514403 0.420917
vt 0.487807 0.832037
vt 0.452568 0.387497
vt 0.430251 0.819924
vt 0.467563 0.426872
vt 0.467079 0.567985
vt 0.427813 0.443962
vt 0.427444 0.551623
vt 0.447333 0.611263
vt 0.342637 0.961940
vt 0.514141 0.000000
vt 0.370693 0.207599
vt 0.401208 0.469580
vt 0.401006 0.524603
vt 0.402624 0.413785
vt 0.375920 0.795519
vt 0.326900 0.759754
vt 0.363600 0.499833
vt 0.354471 0.453200
vt 0.391019 0.585013
vt 0.252054 0.660041
vt 0.285075 0.714009
vt 0.322320 0.244441
vt 0.265154 0.915735
vt 0.426709 0.009608
vt 0.281317 0.291101
vt 0.217109 0.535960
vt 0.342886 0.532140
vt 0.292739 0.499740
vt 0.229106 0.599920
vt 0.249260 0.345792
vt 0.227385 0.406407
vt 0.216528 0.470620
vt 0.197242 0.853554
vt 0.342637 0.038060
vt 0.141508 0.777786
vt 0.265156 0.084265
vt 0.100093 0.691341
vt 0.197242 0.146446
vt 0.074588 0.597545
vt 0.141508 0.222216
vt 0.065979 0.500000
vt 0.100093 0.308659
vt 0.074590 0.402457
# 97 texture coordinates

vn 0.000000 0.000000 1.000000
# 1 normals

g default
usemtl material_0
s 1
f 2/1/1 11/2/1 13/3/1
f 4/4/1 11/2/1 2/1/1
f 1/5/1 13/3/1 15/6/1
f 2/1/1 13/3/1 1/5/1
f 4/4/1 10/7/1 11/2/1
f 6/8/1 10/7/1 4/4/1
f 3/9/1 15/6/1 19/10/1
f 1/5/1 15/6/1 3/9/1
f 6/8/1 12/11/1 10/7/1
f 8/12/1 12/11/1 6/8/1
f 5/13/1 19/10/1 22/14/1
f 3/9/1 19/10/1 5/13/1
f 8/12/1 14/15/1 12/11/1
f 16/16/1 14/15/1 8/12/1
f 7/17/1 22/14/1 29/18/1
f 5/13/1 22/14/1 7/17/1
f 16/16/1 18/19/1 14/15/1
f 24/20/1 18/19/1 16/16/1
f 9/21/1 29/18/1 39/22/1
f 7/17/1 29/18/1 9/21/1
f 24/20/1 21/23/1 18/19/1
f 35/24/1 21/23/1 24/20/1
f 17/25/1 39/22/1 45/26/1
f 9/21/1 39/22/1 17/25/1
f 23/27/1 27/28/1 20/29/1
f 33/30/1 27/28/1 23/27/1
f 27/28/1 26/31/1 20/29/1
f 27/28/1 32/32/1 26/31/1
f 11/2/1 10/7/1 20/29/1
f 10/7/1 12/11/1 20/29/1
f 12/11/1 14/15/1 20/29/1
f 14/15/1 18/19/1 20/29/1
f 13/3/1 11/2/1 31/33/1
f 11/2/1 20/29/1 26/31/1
f 30/34/1 33/30/1 23/27/1
f 38/35/1 33/30/1 30/34/1
f 15/6/1 13/3/1 31/33/1
f 32/32/1 31/33/1 26/31/1
f 32/32/1 37/36/1 31/33/1
f 20/29/1 18/19/1 23/27/1
f 18/19/1 21/23/1 23/27/1
f 31/33/1 11/2/1 26/31/1
f 35/24/1 28/37/1 21/23/1
f 48/38/1 28/37/1 35/24/1
f 19/10/1 15/6/1 41/39/1
f 25/40/1 45/26/1 54/41/1
f 17/25/1 45/26/1 25/40/1
f 21/23/1 28/37/1 23/27/1
f 22/14/1 19/10/1 41/39/1
f 23/27/1 28/37/1 30/34/1
f 40/42/1 38/35/1 30/34/1
f 43/43/1 38/35/1 40/42/1
f 41/39/1 15/6/1 31/33/1
f 37/36/1 41/39/1 31/33/1
f 37/36/1 42/44/1 41/39/1
f 28/37/1 34/45/1 30/34/1
f 29/18/1 22/14/1 46/46/1
f 32/32/1 27/28/1 49/47/1
f 27/28/1 33/30/1 49/47/1
f 46/46/1 22/14/1 41/39/1
f 34/45/1 44/48/1 30/34/1
f 30/34/1 44/48/1 40/42/1
f 39/22/1 29/18/1 46/46/1
f 37/36/1 32/32/1 49/47/1
f 33/30/1 38/35/1 49/47/1
f 48/38/1 34/45/1 28/37/1
f 62/49/1 34/45/1 48/38/1
f 36/50/1 54/41/1 64/51/1
f 25/40/1 54/41/1 36/50/1
f 52/52/1 43/43/1 40/42/1
f 51/53/1 43/43/1 52/52/1
f 42/44/1 46/46/1 41/39/1
f 42/44/1 47/54/1 46/46/1
f 42/44/1 37/36/1 49/47/1
f 38/35/1 43/43/1 49/47/1
f 44/48/1 53/55/1 40/42/1
f 45/26/1 39/22/1 57/56/1
f 49/47/1 47/54/1 42/44/1
f 43/43/1 51/53/1 49/47/1
f 57/56/1 39/22/1 46/46/1
f 40/42/1 59/57/1 52/52/1
f 53/55/1 59/57/1 40/42/1
f 47/54/1 49/47/1 55/58/1
f 51/53/1 56/59/1 49/47/1
f 54/41/1 45/26/1 57/56/1
f 60/60/1 55/58/1 49/47/1
f 49/47/1 56/59/1 61/61/1
f 46/46/1 55/58/1 57/56/1
f 47/54/1 55/58/1 46/46/1
f 56/59/1 52/52/1 58/62/1
f 56/59/1 51/53/1 52/52/1
f 62/49/1 44/48/1 34/45/1
f 74/63/1 44/48/1 62/49/1
f 50/64/1 64/51/1 70/65/1
f 36/50/1 64/51/1 50/64/1
f 66/66/1 60/60/1 49/47/1
f 49/47/1 61/61/1 67/67/1
f 65/68/1 54/41/1 57/56/1
f 59/57/1 69/69/1 52/52/1
f 64/51/1 54/41/1 65/68/1
f 52/52/1 76/70/1 58/62/1
f 66/66/1 49/47/1 71/71/1
f 49/47/1 67/67/1 71/71/1
f 69/69/1 76/70/1 52/52/1
f 70/65/1 64/51/1 65/68/1
f 57/56/1 60/60/1 65/68/1
f 55/58/1 60/60/1 57/56/1
f 72/72/1 70/65/1 65/68/1
f 61/61/1 58/62/1 68/73/1
f 61/61/1 56/59/1 58/62/1
f 58/62/1 83/74/1 68/73/1
f 76/70/1 79/75/1 58/62/1
f 77/76/1 70/65/1 72/72/1
f 74/63/1 53/55/1 44/48/1
f 82/77/1 53/55/1 74/63/1
f 79/75/1 83/74/1 58/62/1
f 63/78/1 70/65/1 77/76/1
f 50/64/1 70/65/1 63/78/1
f 80/79/1 77/76/1 72/72/1
f 68/73/1 87/80/1 73/81/1
f 78/82/1 80/79/1 72/72/1
f 65/68/1 66/66/1 72/72/1
f 60/60/1 66/66/1 65/68/1
f 67/67/1 68/73/1 73/81/1
f 67/67/1 61/61/1 68/73/1
f 83/74/1 85/83/1 68/73/1
f 87/80/1 78/82/1 73/81/1
f 85/83/1 87/80/1 68/73/1
f 84/84/1 80/79/1 78/82/1
f 86/85/1 84/84/1 78/82/1
f 88/86/1 86/85/1 78/82/1
f 87/80/1 88/86/1 78/82/1
f 72/72/1 71/71/1 78/82/1
f 66/66/1 71/71/1 72/72/1
f 71/71/1 73/81/1 78/82/1
f 71/71/1 67/67/1 73/81/1
f 82/77/1 59/57/1 53/55/1
f 89/87/1 59/57/1 82/77/1
f 75/88/1 77/76/1 80/79/1
f 63/78/1 77/76/1 75/88/1
f 89/87/1 69/69/1 59/57/1
f 91/89/1 69/69/1 89/87/1
f 81/90/1 80/79/1 84/84/1
f 75/88/1 80/79/1 81/90/1
f 91/89/1 76/70/1 69/69/1
f 93/91/1 76/70/1 91/89/1
f 90/92/1 84/84/1 86/85/1
f 81/90/1 84/84/1 90/92/1
f 93/91/1 79/75/1 76/70/1
f 96/93/1 79/75/1 93/91/1
f 92/94/1 86/85/1 88/86/1
f 90/92/1 86/85/1 92/94/1
f 96/93/1 83/74/1 79/75/1
f 97/95/1 83/74/1 96/93/1
f 94/96/1 88/86/1 87/80/1
f 92/94/1 88/86/1 94/96/1
f 97/95/1 85/83/1 83/74/1
f 95/97/1 85/83/1 97/95/1
f 95/97/1 87/80/1 85/83/1
f 94/96/1 87/80/1 95/97/1
# 160 triangles in group

# 160 triangles total

