# Wavefront OBJ exported by MilkShape 3D

mtllib Mystic Mansion - Switch Off.mtl

v 4.999900 0.000000 0.000000
v 4.999900 5.999905 -0.000000
v 4.777900 0.999901 -0.000000
v 4.619300 4.086504 0.000000
v 4.619300 4.086504 0.000000
v 4.619300 7.913410 0.000000
v 4.619300 7.913410 0.000000
v 4.045000 0.000000 2.938903
v 4.045000 -0.000000 -2.938903
v 4.045000 5.999906 2.938902
v 4.045000 5.999907 -2.938903
v 3.865400 0.999901 2.808404
v 3.865400 0.999901 -2.808404
v 3.737100 4.086503 2.715201
v 3.737100 4.086503 2.715201
v 3.737100 4.086504 -2.715202
v 3.737100 4.086504 -2.715202
v 3.737100 7.913407 2.715206
v 3.737100 7.913407 2.715206
v 3.737100 7.913407 -2.715205
v 3.737100 7.913407 -2.715205
v 3.535500 2.464402 0.000000
v 3.535500 9.535505 0.000002
v 2.860300 2.464403 2.078103
v 2.860300 2.464402 -2.078102
v 2.860300 9.535513 2.078101
v 2.860300 9.535508 -2.078103
v 1.913400 1.380601 -0.000000
v 1.913400 10.619308 0.000002
v 1.913400 10.619308 0.000002
v 1.547900 1.380602 1.124602
v 1.547900 1.380602 -1.124602
v 1.547900 10.619309 1.124598
v 1.547900 10.619309 1.124598
v 1.547900 10.619310 -1.124600
v 1.547900 10.619310 -1.124600
v 1.545000 0.000000 4.755202
v 1.545000 -0.000000 -4.755202
v 1.545000 5.999905 4.755204
v 1.545000 5.999905 -4.755207
v 1.476400 0.999901 4.544106
v 1.476400 0.999903 -4.544106
v 1.427400 4.086504 4.393304
v 1.427400 4.086504 4.393304
v 1.427400 4.086506 -4.393304
v 1.427400 4.086506 -4.393304
v 1.427400 7.913408 4.393306
v 1.427400 7.913408 4.393306
v 1.427400 7.913402 -4.393301
v 1.427400 7.913402 -4.393301
v 1.092500 2.464405 3.362406
v 1.092500 2.464404 -3.362403
v 1.092500 9.535507 3.362406
v 1.092500 9.535517 -3.362403
v 0.591200 1.380601 1.819701
v 0.591200 1.380602 -1.819701
v 0.591200 10.619310 1.819700
v 0.591200 10.619310 1.819700
v 0.591200 10.619312 -1.819703
v 0.591200 10.619312 -1.819703
v 0.000000 1.999902 0.000000
v 0.000000 1.999902 0.000000
v 0.000000 1.999902 0.000000
v 0.000000 1.999902 0.000000
v 0.000000 1.999902 0.000000
v 0.000000 10.999918 0.000003
v -0.591200 1.380601 1.819701
v -0.591200 1.380602 -1.819701
v -0.591200 10.619310 1.819700
v -0.591200 10.619310 1.819700
v -0.591200 10.619312 -1.819703
v -0.591200 10.619312 -1.819703
v -1.092500 2.464405 3.362406
v -1.092500 2.464404 -3.362403
v -1.092500 9.535507 3.362406
v -1.092500 9.535517 -3.362403
v -1.427400 4.086504 4.393304
v -1.427400 4.086504 4.393304
v -1.427400 4.086506 -4.393304
v -1.427400 4.086506 -4.393304
v -1.427400 7.913408 4.393306
v -1.427400 7.913408 4.393306
v -1.427400 7.913402 -4.393301
v -1.427400 7.913402 -4.393301
v -1.476400 0.999901 4.544106
v -1.476400 0.999903 -4.544106
v -1.545000 0.000000 4.755202
v -1.545000 -0.000000 -4.755202
v -1.545000 5.999905 4.755204
v -1.545000 5.999905 -4.755207
v -1.547900 1.380602 1.124602
v -1.547900 1.380602 1.124602
v -1.547900 1.380602 -1.124602
v -1.547900 10.619309 1.124598
v -1.547900 10.619309 1.124598
v -1.547900 10.619309 1.124598
v -1.547900 10.619309 1.124598
v -1.547900 10.619310 -1.124600
v -1.547900 10.619310 -1.124600
v -1.913400 1.380601 -0.000000
v -1.913400 10.619308 0.000002
v -1.913400 10.619308 0.000002
v -2.860300 2.464403 2.078103
v -2.860300 2.464403 2.078103
v -2.860300 2.464402 -2.078102
v -2.860300 9.535513 2.078101
v -2.860300 9.535513 2.078101
v -2.860300 9.535508 -2.078103
v -3.535500 2.464402 0.000000
v -3.535500 9.535505 0.000002
v -3.737100 4.086503 2.715201
v -3.737100 4.086503 2.715201
v -3.737100 4.086503 2.715201
v -3.737100 4.086503 2.715201
v -3.737100 4.086504 -2.715202
v -3.737100 4.086504 -2.715202
v -3.737100 7.913407 2.715206
v -3.737100 7.913407 2.715206
v -3.737100 7.913407 2.715206
v -3.737100 7.913407 2.715206
v -3.737100 7.913407 -2.715205
v -3.737100 7.913407 -2.715205
v -3.865400 0.999901 2.808404
v -3.865400 0.999901 2.808404
v -3.865400 0.999901 -2.808404
v -4.045000 0.000000 2.938903
v -4.045000 0.000000 2.938903
v -4.045000 -0.000000 -2.938903
v -4.045000 5.999906 2.938902
v -4.045000 5.999906 2.938902
v -4.045000 5.999907 -2.938903
v -4.619300 4.086504 0.000000
v -4.619300 4.086504 0.000000
v -4.619300 7.913410 0.000000
v -4.619300 7.913410 0.000000
v -4.777900 0.999901 -0.000000
v -4.999900 0.000000 0.000000
v -4.999900 5.999905 -0.000000
# 138 vertices

vt -0.496500 1.000000
vt -0.996300 1.085900
vt -0.996300 1.000000
vt -0.496500 1.085900
vt 0.003600 1.000000
vt 0.003600 1.085900
vt 0.199700 2.785900
vt -0.100500 2.593700
vt -0.100500 2.785900
vt 0.199700 2.593700
vt 0.199700 2.999900
vt -0.100500 2.999900
vt 0.499900 2.999900
vt 0.499900 2.785900
vt 0.499900 2.593700
vt -0.400000 0.593800
vt -0.200000 0.789100
vt -0.200000 0.593800
vt -0.400000 0.789100
vt 0.000000 0.789100
vt 0.000000 0.593800
vt 0.199800 1.593700
vt 0.400000 1.789000
vt 0.400000 1.593700
vt 0.199800 1.789000
vt 0.000000 1.593700
vt 0.000000 1.789000
vt -1.496800 1.085900
vt -1.496800 1.000000
vt 0.503800 1.000000
vt 0.503800 1.085900
vt 0.800200 2.785900
vt 0.800200 2.593700
vt -0.400800 2.785900
vt -0.400800 2.999900
vt 0.800200 2.999900
vt -0.400800 2.593700
vt 0.400000 1.999900
vt 0.199800 1.999900
vt -0.200000 1.000000
vt -0.400000 1.000000
vt 0.000000 1.000000
vt 0.000000 1.999900
vt -0.600000 0.593800
vt -0.600000 0.789100
vt 0.200300 0.789100
vt 0.200300 0.593800
vt -0.200000 1.593700
vt -0.200000 1.789000
vt 0.600000 1.789000
vt 0.600000 1.593700
vt -1.253800 1.993000
vt -0.253800 1.993000
vt -0.600000 1.000000
vt 0.200300 1.000000
vt 0.600000 1.999900
vt -0.200000 1.999900
vt -0.158600 -0.408500
vt -0.001000 -0.240100
vt 0.002700 -0.408500
vt 0.174600 -0.408500
vt -1.996300 1.085900
vt -1.996300 1.000000
vt 1.003600 1.000000
vt 1.003600 1.085900
vt -2.253800 1.993000
vt 0.746100 1.993000
vt -0.800000 0.789100
vt -0.800000 1.000000
vt 0.400000 1.000000
vt 0.400000 0.789100
vt -0.800000 0.593800
vt 0.400000 0.593800
vt -0.701100 2.785900
vt -0.701100 2.999900
vt 1.100500 2.999900
vt 1.100500 2.785900
vt -0.701100 2.593700
vt 1.100500 2.593700
vt 0.800000 1.789000
vt 0.800000 1.593700
vt -0.400000 1.593700
vt -0.400000 1.789000
vt 0.800000 1.999900
vt -0.400000 1.999900
vt -2.496300 1.085900
vt 1.504100 1.085900
vt -0.999900 0.789100
vt -0.999900 1.000000
vt 0.600000 1.000000
vt 0.600000 0.789100
vt 0.999900 1.999900
vt 0.999900 1.789000
vt -0.600000 1.789000
vt -0.600000 1.999900
vt 2.503600 1.085900
vt 1.746100 1.993000
vt 2.003600 1.085900
vt -0.600000 1.593700
vt -0.999900 0.593800
vt 0.600000 0.593800
vt 0.999900 1.593700
vt 0.800000 0.789100
vt 0.999900 1.000000
vt 0.999900 0.789100
vt 0.800000 1.000000
vt -0.999900 1.789000
vt -0.800000 1.999900
vt -0.800000 1.789000
vt -0.999900 1.999900
vt -0.999900 2.785900
vt -0.999900 2.999900
vt 1.400800 2.999900
vt 1.400800 2.785900
vt 1.400800 2.593700
vt -0.999900 2.593700
vt -2.496300 1.000000
vt 1.504100 1.000000
vt -0.999900 1.593700
vt -0.800000 1.593700
vt 0.800000 0.593800
vt 0.999900 0.593800
vt 1.701100 2.785900
vt 1.999900 2.999900
vt 1.999900 2.785900
vt 1.701100 2.999900
vt 1.701100 2.593700
vt 1.999900 2.593700
vt 2.503600 1.000000
vt 2.003600 1.000000
# 130 texture coordinates

vn 0.970817 0.215543 0.105145
vn 0.671969 0.624892 0.397451
vn 0.723602 0.215535 0.655702
vn 0.777252 0.624890 -0.073428
vn 0.847209 0.215546 -0.485570
vn 0.585649 0.624887 -0.516266
vn 1.000000 -0.000005 0.000000
vn 0.851126 0.193984 0.487807
vn 0.809015 -0.000011 0.587788
vn 0.975301 0.193986 -0.105631
vn 0.975299 -0.193997 0.105630
vn 0.726945 -0.193983 0.658727
vn 0.851124 -0.193994 -0.487806
vn 0.809016 -0.000000 -0.587787
vn 0.726946 0.193974 -0.658729
vn 0.722691 -0.553318 0.414194
vn 0.705679 -0.708384 0.014491
vn 0.828131 -0.553312 -0.089690
vn 0.562366 -0.708397 0.426518
vn 0.579420 -0.708392 -0.403055
vn 0.617240 -0.553331 -0.559320
vn 0.828131 0.553313 0.089689
vn 0.579419 0.708393 0.403053
vn 0.617240 0.553331 0.559320
vn 0.705678 0.708384 -0.014492
vn 0.722691 0.553319 -0.414194
vn 0.562367 0.708397 -0.426518
vn 0.310018 0.624880 0.716529
vn 0.199996 0.215507 0.955802
vn 0.399995 0.215521 -0.890817
vn 0.170352 0.624873 -0.761915
vn 0.309013 -0.000000 -0.951058
vn 0.200924 0.193957 -0.960214
vn 0.309012 -0.000010 0.951058
vn 0.200925 -0.193963 0.960212
vn 0.401843 -0.193974 -0.894928
vn 0.401844 0.193962 0.894930
vn 0.483929 0.829989 0.277365
vn 0.554535 0.829991 -0.060055
vn 0.554534 -0.829991 0.060055
vn 0.413311 -0.829991 0.374551
vn 0.483928 -0.829988 -0.277367
vn 0.413312 0.829992 -0.374549
vn 0.341193 -0.553349 0.759863
vn 0.204266 -0.708404 0.675603
vn 0.231845 -0.708395 -0.666652
vn 0.170599 -0.553362 -0.815283
vn 0.341194 0.553347 -0.759865
vn 0.204268 0.708403 -0.675603
vn 0.231845 0.708395 0.666651
vn 0.170599 0.553363 0.815283
vn 0.165733 0.978792 0.120412
vn 0.165734 0.978792 -0.120412
vn 0.114245 -0.829981 0.545967
vn 0.228477 -0.829988 -0.508841
vn 0.228476 0.829989 0.508839
vn 0.114245 0.829982 -0.545965
vn 0.195096 0.980784 0.000001
vn -0.000000 1.000000 0.000001
vn 0.157840 0.980782 0.114685
vn 0.157840 0.980783 -0.114684
vn 0.060292 0.980783 0.185552
vn 0.060292 0.980783 -0.185550
vn -0.170352 0.624873 0.761915
vn -0.399995 0.215521 0.890817
vn -0.199996 0.215506 -0.955803
vn -0.310018 0.624880 -0.716529
vn -0.063304 0.978792 0.194831
vn -0.063304 0.978792 -0.194830
vn -0.231845 -0.708395 0.666652
vn -0.228477 -0.829988 0.508841
vn -0.114245 -0.829981 -0.545967
vn -0.204266 -0.708404 -0.675603
vn -0.170599 -0.553362 0.815283
vn -0.341193 -0.553349 -0.759863
vn -0.309012 -0.000001 0.951058
vn -0.401843 -0.193973 0.894928
vn -0.200924 -0.193965 -0.960212
vn -0.309013 -0.000009 -0.951058
vn -0.060292 0.980783 0.185552
vn -0.060292 0.980783 -0.185550
vn -0.200925 0.193952 0.960214
vn -0.401843 0.193965 -0.894930
vn -0.204266 0.708405 0.675602
vn -0.341193 0.553350 0.759863
vn -0.170599 0.553358 -0.815286
vn -0.231846 0.708395 -0.666652
vn -0.114245 0.829981 0.545966
vn -0.228478 0.829989 -0.508838
vn -0.120343 0.978818 0.165631
vn -0.157840 0.980783 -0.114684
vn -0.194705 0.978819 0.063279
vn -0.195096 0.980784 0.000001
vn -0.495083 0.539017 0.681435
vn -0.671969 0.624892 -0.397451
vn -0.397374 -0.736838 0.546959
vn -0.337879 -0.818276 0.465040
vn -0.413310 -0.829992 -0.374551
vn -0.562366 -0.708397 -0.426519
vn -0.337877 0.818267 0.465057
vn -0.451017 0.641245 0.620797
vn -0.579420 0.708393 -0.403053
vn -0.483930 0.829988 -0.277365
vn -0.675356 0.704090 0.219435
vn -0.204858 0.978792 0.000000
vn -0.777252 0.624890 0.073428
vn -0.617241 0.553330 -0.559321
vn -0.496079 -0.536349 0.682814
vn -0.722691 -0.553318 -0.414194
vn -0.496094 0.536338 0.682812
vn -0.705679 -0.708384 -0.014491
vn -0.546703 -0.818263 0.177656
vn -0.729796 -0.641228 0.237119
vn -0.554534 -0.829991 -0.060056
vn -0.642979 0.736836 0.208927
vn -0.554534 0.829991 0.060055
vn -0.705679 0.708384 0.014491
vn -0.546667 0.818284 0.177669
vn -0.586613 -0.062927 0.807419
vn -0.577544 -0.185873 0.794918
vn -0.726945 -0.193983 -0.658727
vn -0.809015 -0.000010 -0.587788
vn -0.851125 0.193984 -0.487807
vn -0.577540 0.185849 0.794926
vn -0.575091 0.206606 0.791571
vn -0.723602 0.215536 -0.655702
vn -0.802705 0.536324 0.260808
vn -0.828130 0.553313 -0.089689
vn -0.828131 -0.553312 0.089690
vn -0.802705 -0.536325 0.260808
vn -1.000000 -0.000005 -0.000000
vn -0.934484 -0.185877 0.303627
vn -0.949173 0.062927 0.308401
vn -0.975299 -0.193997 -0.105630
vn -0.975301 0.193986 0.105631
vn -0.934487 0.185863 0.303625
vn -0.930538 0.206600 0.302348
vn -0.970817 0.215543 -0.105145
# 138 normals

g default
usemtl material_0
s 1
f 1/1/1 12/2/2 8/3/3
f 3/4/4 12/2/2 1/1/1
f 9/5/5 3/4/4 1/1/1
f 13/6/6 3/4/4 9/5/5
f 2/7/7 18/8/8 10/9/9
f 6/10/10 18/8/8 2/7/7
f 10/9/9 5/11/11 2/7/7
f 5/11/11 10/9/9 15/12/12
f 2/7/7 17/13/13 11/14/14
f 17/13/13 2/7/7 5/11/11
f 11/14/14 6/10/10 2/7/7
f 21/15/15 6/10/10 11/14/14
f 14/16/16 22/17/17 4/18/18
f 22/17/17 14/16/16 24/19/19
f 4/18/18 25/20/20 16/21/21
f 25/20/20 4/18/18 22/17/17
f 7/22/22 26/23/23 19/24/24
f 23/25/25 26/23/23 7/22/22
f 20/26/26 23/25/25 7/22/22
f 27/27/27 23/25/25 20/26/26
f 8/3/3 41/28/28 37/29/29
f 12/2/2 41/28/28 8/3/3
f 38/30/30 13/6/6 9/5/5
f 42/31/31 13/6/6 38/30/30
f 40/32/32 21/15/15 11/14/14
f 50/33/33 21/15/15 40/32/32
f 39/34/34 15/12/12 10/9/9
f 15/12/12 39/34/34 44/35/35
f 11/14/14 46/36/36 40/32/32
f 46/36/36 11/14/14 17/13/13
f 10/9/9 47/37/37 39/34/34
f 18/8/8 47/37/37 10/9/9
f 23/25/25 34/38/38 26/23/23
f 30/39/39 34/38/38 23/25/25
f 24/19/19 28/40/40 22/17/17
f 28/40/40 24/19/19 31/41/41
f 22/17/17 32/42/42 25/20/20
f 32/42/42 22/17/17 28/40/40
f 27/27/27 30/39/39 23/25/25
f 35/43/43 30/39/39 27/27/27
f 43/44/44 24/19/19 14/16/16
f 24/19/19 43/44/44 51/45/45
f 16/21/21 52/46/46 45/47/47
f 52/46/46 16/21/21 25/20/20
f 49/48/48 27/27/27 20/26/26
f 54/49/49 27/27/27 49/48/48
f 19/24/24 53/50/50 48/51/51
f 26/23/23 53/50/50 19/24/24
f 3/4/4 62/52/52 12/2/2
f 13/6/6 63/53/53 3/4/4
f 51/45/45 31/41/41 24/19/19
f 31/41/41 51/45/45 55/54/54
f 25/20/20 56/55/55 52/46/46
f 56/55/55 25/20/20 32/42/42
f 26/23/23 58/56/56 53/50/50
f 34/38/38 58/56/56 26/23/23
f 54/49/49 35/43/43 27/27/27
f 59/57/57 35/43/43 54/49/49
f 12/2/2 62/52/52 41/28/28
f 42/31/31 63/53/53 13/6/6
f 29/58/58 66/59/59 33/60/60
f 36/60/61 66/59/59 29/58/58
f 33/60/60 66/59/59 57/61/62
f 60/61/63 66/59/59 36/60/61
f 37/29/29 85/62/64 87/63/65
f 41/28/28 85/62/64 37/29/29
f 88/64/66 42/31/31 38/30/30
f 86/65/67 42/31/31 88/64/66
f 41/28/28 61/66/68 85/62/64
f 86/65/67 64/67/69 42/31/31
f 73/68/70 55/54/54 51/45/45
f 55/54/54 73/68/70 67/69/71
f 52/46/46 68/70/72 74/71/73
f 68/70/72 52/46/46 56/55/55
f 77/72/74 51/45/45 43/44/44
f 51/45/45 77/72/74 73/68/70
f 45/47/47 74/71/73 79/73/75
f 74/71/73 45/47/47 52/46/46
f 89/74/76 44/35/35 39/34/34
f 44/35/35 89/74/76 78/75/77
f 40/32/32 80/76/78 90/77/79
f 80/76/78 40/32/32 46/36/36
f 57/61/62 66/59/59 69/60/80
f 72/60/81 66/59/59 60/61/63
f 39/34/34 81/78/82 89/74/76
f 47/37/37 81/78/82 39/34/34
f 90/77/79 50/33/33 40/32/32
f 84/79/83 50/33/33 90/77/79
f 48/51/51 75/80/84 82/81/85
f 53/50/50 75/80/84 48/51/51
f 83/82/86 54/49/49 49/48/48
f 76/83/87 54/49/49 83/82/86
f 53/50/50 70/84/88 75/80/84
f 58/56/56 70/84/88 53/50/50
f 76/83/87 59/57/57 54/49/49
f 71/85/89 59/57/57 76/83/87
f 69/60/80 66/59/59 95/58/90
f 99/58/91 66/59/59 72/60/81
f 96/61/92 66/59/59 102/60/93
f 102/60/93 66/59/59 99/58/91
f 85/62/64 61/66/68 123/86/94
f 125/87/95 64/67/69 86/65/67
f 103/88/96 67/69/71 73/68/70
f 67/69/71 103/88/96 91/89/97
f 74/71/73 93/90/98 105/91/99
f 93/90/98 74/71/73 68/70/72
f 75/80/84 97/92/100 107/93/101
f 70/84/88 97/92/100 75/80/84
f 108/94/102 71/85/89 76/83/87
f 98/95/103 71/85/89 108/94/102
f 124/96/104 65/97/105 136/98/106
f 136/98/106 65/97/105 125/87/95
f 121/99/107 76/83/87 83/82/86
f 108/94/102 76/83/87 121/99/107
f 112/100/108 73/68/70 77/72/74
f 73/68/70 112/100/108 103/88/96
f 79/73/75 105/91/99 115/101/109
f 105/91/99 79/73/75 74/71/73
f 82/81/85 107/93/101 119/102/110
f 75/80/84 107/93/101 82/81/85
f 109/103/111 92/104/112 104/105/113
f 92/104/112 109/103/111 100/106/114
f 105/91/99 100/106/114 109/103/111
f 100/106/114 105/91/99 93/90/98
f 106/107/115 101/108/116 110/109/117
f 94/110/118 101/108/116 106/107/115
f 110/109/117 98/95/103 108/94/102
f 101/108/116 98/95/103 110/109/117
f 129/111/119 78/75/77 89/74/76
f 78/75/77 129/111/119 111/112/120
f 90/77/79 116/113/121 131/114/122
f 116/113/121 90/77/79 80/76/78
f 131/114/122 84/79/83 90/77/79
f 122/115/123 84/79/83 131/114/122
f 89/74/76 117/116/124 129/111/119
f 81/78/82 117/116/124 89/74/76
f 87/63/65 123/86/94 126/117/125
f 85/62/64 123/86/94 87/63/65
f 128/118/126 86/65/67 88/64/66
f 125/87/95 86/65/67 128/118/126
f 118/119/127 110/109/117 134/120/128
f 106/107/115 110/109/117 118/119/127
f 134/120/128 108/94/102 121/99/107
f 110/109/117 108/94/102 134/120/128
f 132/121/129 104/105/113 113/122/130
f 104/105/113 132/121/129 109/103/111
f 115/101/109 109/103/111 132/121/129
f 109/103/111 115/101/109 105/91/99
f 138/123/131 114/124/132 130/125/133
f 114/124/132 138/123/131 133/126/134
f 131/114/122 133/126/134 138/123/131
f 133/126/134 131/114/122 116/113/121
f 130/125/133 135/127/135 138/123/131
f 120/128/136 135/127/135 130/125/133
f 138/123/131 122/115/123 131/114/122
f 135/127/135 122/115/123 138/123/131
f 127/129/137 136/98/106 137/130/138
f 124/96/104 136/98/106 127/129/137
f 137/130/138 125/87/95 128/118/126
f 136/98/106 125/87/95 137/130/138
# 160 triangles in group

# 160 triangles total

