# Object Export From Tinkercad Server 2015

mtllib obj.mtl

o obj_0
v 41 		-22 		45
v 41 		-22 		0
v 41 		38 		0
v 41 		38 		45
v -28 		38 		45
v -28 		38 		0
v -28 		-22 		0
v -28 		-22 		45
v -28 		39 		45
v 6.5 		39 		64
v 41 		39 		45
v 21 		-23.8162 		21.736
v 21 		-23.8163 		21.7356
v 41 		-24 		45
v 6.5 		-24 		64
v -28 		-24 		45
v 21.191 		-23.147 		21.736
v -24 		-24 		45
v -4 		-24 		45
v 1 		-24 		45
v 21 		-24 		45
v 21 		-22.8769 		23.232
v 21 		-22.8773 		23.2314
v 33.7368 		5.2034 		49
v 34.19 		4.734 		49
v 35.562 		1.922 		49
v 17.441 		-29.593 		21.736
v 18.353 		-28.993 		21.736
v 18.129 		-27.486 		25
v 35.997 		-1.176 		49
v 35.454 		-4.257 		49
v 33.985 		-7.02 		49
v 33.7368 		-7.2596 		49
v 17.397 		-28.993 		23.42
v 12.6771 		-26 		20.8139
v 12.7395 		-26 		21.736
v 18.882 		-26.625 		25
v 26.173 		8.997 		97
v 23.075 		8.562 		97
v 20.263 		7.19 		97
v 18.012 		5.017 		97
v 16.543 		2.254 		97
v 35.562 		1.922 		97
v 34.19 		4.734 		97
v 32.017 		6.985 		97
v 29.254 		8.454 		97
v 19.2456 		-26 		25
v 35.997 		-1.176 		97
v 16 		-0.827 		97
v 16.435 		-3.925 		97
v 17.807 		-6.737 		97
v 12.6219 		-26 		20
v 16.5 		-29.795 		21.736
v 19.98 		-8.988 		97
v 22.743 		-10.457 		97
v 25.824 		-11 		97
v 28.922 		-10.565 		97
v 31.734 		-9.193 		97
v 33.985 		-7.02 		97
v 35.454 		-4.257 		97
v 12.622 		-26 		19.9985
v 15.6073 		-26 		26.8431
v 15.1428 		-26 		26.624
v 15.8173 		-26 		26.9425
v 12.686 		-26 		19.0525
v 16.2121 		-26 		27.0056
v 16.384 		-26 		27.0329
v 12.7281 		-26 		18.432
v 15.089 		-26 		26.598
v 15.059 		-26.218 		26.428
v 15.0913 		-26 		26.5997
v 12.7395 		-26 		18.264
v 15.0266 		-26 		26.5499
v 13.0892 		-26 		16.58
v 14.8685 		-26 		26.428
v 13.0242 		-26 		16.8932
v 19.25 		-28.191 		20
v 13.0893 		-26 		16.5799
v 15.768 		-26.684 		26.428
v 20.035 		-26.842 		20
v 14.0255 		-26 		25.4051
v 13.7544 		-26 		25
v 14.118 		-26.625 		25
v 13.7539 		-26 		24.9987
v 19.7476 		-26 		16.128
v 19.4339 		-26 		15.4234
v 19.2456 		-26 		15
v 14.265 		-26 		25.7635
v 14.2644 		-26 		25.7626
v 20.3781 		-26 		20
v 20.3456 		-26 		20.48
v 14.871 		-27.486 		25
v 14.5211 		-26 		26.0453
v 19.208 		-28.014 		18.264
v 19.245 		-26 		14.9992
v 19.84 		-26 		16.384
v 19.982 		-26.684 		18.264
v 18.9745 		-26 		14.5949
v 18.8015 		-26 		14.336
v 15.673 		-28.014 		25
v 13.1456 		-26 		23.5764
v 20.2605 		-26 		18.264
v 20.3229 		-26 		19.1861
v 20.2602 		-26 		18.2623
v 18.268 		-28.421 		16.58
v 18.735 		-26 		14.2365
v 18.734 		-26 		14.2355
v 18.4789 		-26 		13.9547
v 18.1315 		-26 		13.572
v 13.5661 		-26 		24.5766
v 13.5658 		-26 		24.576
v 18.1305 		-26 		13.5712
v 19.084 		-27.486 		16.58
v 16.5 		-26 		12.9486
v 16.384 		-26 		12.9671
v 17.1827 		-26 		13.0575
v 17.1818 		-26 		13.0574
v 16.7879 		-26 		12.9944
v 17.9087 		-26 		13.4003
v 17.3927 		-26 		13.1569
v 17.9734 		-26 		13.4501
v 19.822 		-26.218 		16.58
v 20.1427 		-26 		17.6966
v 13.2524 		-26 		16.128
v 19.9108 		-26 		16.58
v 13.7544 		-26 		15
v 21 		-23.5402 		22.1754
v 21 		-22.7728 		23.3542
v 21.4089 		-22 		21.736
v 21.2642 		-22 		22.6296
v 32.017 		6.985 		49.9472
v 29.254 		8.454 		51.4688
v 26.173 		8.997 		53.1656
v 21.409 		-22 		21.735
v 23.075 		8.562 		54.8717
v 21.1363 		-22 		23.42
v 21 		-22.7168 		23.42
v 14.265 		-26 		14.2365
v 20.263 		7.19 		56.4204
v 21 		-24.0193 		20.7436
v 21 		-24.0734 		20.48
v 18.012 		5.017 		57.6601
v 19.8544 		-26 		16.4236
v 16.543 		2.254 		58.4691
v 16.5 		-30 		20
v 25.824 		-11 		53.3578
v 21.475 		-22 		20.48
v 28.922 		-10.565 		51.6517
v 21.4605 		-22 		20.7551
v 31.734 		-9.193 		50.103
v 21 		-24.1719 		20
v 21.263 		-23.25 		20
v 21 		-24.1717 		19.9989
v 17.455 		-29.795 		20
v 18.268 		-28.421 		23.42
v 21.5003 		-22 		20
v 18.381 		-29.186 		20
v 21.5003 		-22 		19.9989
v 16 		-0.827 		58.7681
v 16.435 		-3.925 		58.5285
v 21 		-23.9585 		18.9577
v 21.191 		-23.147 		18.264
v 17.807 		-6.737 		57.773
v 21 		-23.8162 		18.264
v 19.98 		-8.988 		56.5762
v 21.4485 		-22 		19.015
v 16.5 		-29.795 		18.264
v 19.084 		-27.486 		23.42
v 22.743 		-10.457 		55.0546
v 21.4089 		-22 		18.264
v 21 		-22.8769 		16.768
v 21.2735 		-22 		17.4271
v 21 		-22.7168 		16.58
v 21.1363 		-22 		16.58
v 21 		-22.426 		16.384
v 21.081 		-22 		16.384
v 19.7472 		-26 		23.8729
v 19.822 		-26.218 		23.42
v 19.7476 		-26 		23.872
v 17.441 		-29.593 		18.264
v 21 		-22 		16.0969
v 21 		-26 		0
v 21 		-22 		0
v 21 		-26 		45
v 21 		-22 		45
v 19.9108 		-26 		23.42
v 21 		-22 		23.9033
v 18.353 		-28.993 		18.264
v 19.9109 		-26 		23.4194
v 19.208 		-28.014 		21.736
v 19.982 		-26.684 		21.736
v -4 		-22 		45
v 1 		-22 		45
v -24 		-22 		45
v -24 		-28 		45
v -4 		-28 		45
v 1 		-26 		45
v 1 		-26 		0
v 1 		-22 		0
v 16.5 		-29.186 		16.58
v 14.619 		-29.186 		20
v 20.2605 		-26 		21.736
v 19.9758 		-26 		23.1068
v -4 		-28 		25
v -4 		-22 		25
v 17.397 		-28.993 		16.58
v -24 		-22 		25
v -24 		-28 		25
v 20.2606 		-26 		21.7354
v 15.545 		-29.795 		20
v 16.5 		-26 		27.0514
v 16.4993 		-26 		27.0513
v 16.8995 		-26 		26.9876
v 17.1827 		-26 		26.9425
v 17.7872 		-26 		26.6572
v 17.8573 		-26 		26.624
v 20.314 		-26 		20.9475
v 16.5 		-26.842 		26.428
v 14.647 		-28.993 		18.264
v 16.5 		-29.186 		23.42
v 15.559 		-29.593 		18.264
v 17.232 		-26.684 		26.428
v 13.0892 		-26 		23.42
v 13.178 		-26.218 		23.42
v 17.9073 		-26 		26.6004
v 13.2524 		-26 		23.872
v 13.2511 		-26 		23.8685
v 17.941 		-26.218 		26.428
v 17.9087 		-26 		26.5997
v 13.916 		-27.486 		23.42
v 18.1315 		-26 		26.428
v 18.1325 		-26 		26.4269
v 14.732 		-28.421 		23.42
v 16.5 		-28.191 		25
v 17.327 		-28.014 		25
v 14.8685 		-26 		13.572
v 18.735 		-26 		25.7635
v 15.0913 		-26 		13.4003
v 15.8173 		-26 		13.0575
v 15.8167 		-26 		13.0578
v 15.2128 		-26 		13.3428
v 12.8573 		-26 		22.3034
v 13.018 		-26.684 		21.736
v 15.603 		-28.993 		16.58
v 16.1005 		-26 		13.0124
v 13.792 		-28.014 		21.736
v 16.5 		-28.191 		15
v 17.327 		-28.014 		15
v 18.129 		-27.486 		15
v 14.871 		-27.486 		15
v 15.673 		-28.014 		15
v 18.882 		-26.625 		15
v 15.059 		-26.218 		13.572
v 15.603 		-28.993 		23.42
v 16.5 		-26.842 		13.572
v 15.768 		-26.684 		13.572
v 17.232 		-26.684 		13.572
v 14.647 		-28.993 		21.736
v 17.941 		-26.218 		13.572
v 15.559 		-29.593 		21.736
v 12.965 		-26.842 		20
v 13.75 		-28.191 		20
v 14.118 		-26.625 		15
v 13.018 		-26.684 		18.264
v 13.792 		-28.014 		18.264
v 13.178 		-26.218 		16.58
v 13.916 		-27.486 		16.58
v 14.732 		-28.421 		16.58
# 268 vertices

g group_0_40919

usemtl color_40919
s 0

f 17 	22 	23
f 178 	177 	37
f 66 	218 	67
f 64 	79 	66
f 71 	69 	70
f 73 	70 	69
f 70 	73 	75
f 71 	70 	63
f 70 	79 	63
f 62 	63 	79
f 62 	79 	64
f 218 	66 	79
f 81 	82 	83
f 82 	84 	83
f 89 	83 	88
f 83 	89 	81
f 91 	80 	90
f 93 	88 	92
f 83 	92 	88
f 84 	110 	83
f 157 	94 	77
f 70 	75 	92
f 93 	92 	75
f 77 	97 	80
f 70 	100 	79
f 77 	94 	97
f 102 	103 	97
f 80 	97 	103
f 92 	100 	70
f 102 	97 	104
f 123 	104 	97
f 80 	103 	90
f 110 	111 	230
f 230 	83 	110
f 94 	122 	97
f 94 	113 	122
f 123 	97 	122
f 125 	123 	122
f 17 	23 	127
f 129 	130 	17
f 22 	17 	130
f 128 	22 	130
f 13 	17 	12
f 134 	129 	17
f 136 	137 	130
f 128 	130 	137
f 140 	141 	152
f 122 	143 	125
f 13 	140 	17
f 96 	143 	122
f 152 	17 	140
f 17 	152 	149
f 17 	149 	134
f 141 	151 	152
f 151 	153 	152
f 53 	154 	27
f 53 	145 	154
f 147 	149 	152
f 156 	147 	152
f 153 	161 	152
f 27 	157 	28
f 158 	156 	152
f 27 	154 	157
f 162 	152 	161
f 161 	164 	162
f 157 	77 	28
f 152 	166 	158
f 29 	155 	168
f 170 	166 	162
f 152 	162 	166
f 155 	190 	168
f 164 	171 	162
f 162 	172 	170
f 174 	172 	173
f 171 	173 	172
f 162 	171 	172
f 168 	37 	29
f 176 	174 	175
f 173 	175 	174
f 177 	178 	179
f 145 	167 	180
f 175 	181 	176
f 47 	37 	177
f 178 	37 	168
f 178 	186 	179
f 145 	180 	154
f 154 	180 	188
f 186 	178 	189
f 203 	189 	178
f 34 	28 	155
f 154 	188 	157
f 94 	157 	188
f 190 	155 	28
f 168 	190 	191
f 137 	136 	187
f 190 	80 	191
f 127 	12 	17
f 221 	200 	167
f 168 	191 	178
f 202 	203 	191
f 178 	191 	203
f 167 	200 	206
f 202 	191 	209
f 217 	209 	191
f 201 	221 	210
f 201 	219 	221
f 167 	206 	180
f 67 	218 	212
f 211 	212 	218
f 77 	190 	28
f 211 	218 	213
f 105 	188 	180
f 80 	190 	77
f 105 	180 	206
f 188 	105 	113
f 201 	262 	219
f 188 	113 	94
f 217 	191 	80
f 91 	217 	80
f 210 	167 	145
f 213 	218 	222
f 210 	221 	167
f 234 	220 	34
f 222 	214 	213
f 224 	226 	227
f 224 	227 	101
f 225 	228 	229
f 111 	226 	230
f 224 	230 	226
f 225 	216 	228
f 215 	228 	216
f 101 	223 	224
f 214 	222 	215
f 215 	222 	228
f 228 	231 	229
f 231 	228 	232
f 37 	237 	228
f 79 	100 	234
f 220 	27 	34
f 233 	92 	83
f 79 	234 	218
f 220 	53 	27
f 218 	235 	222
f 230 	233 	83
f 34 	27 	28
f 218 	234 	235
f 222 	235 	29
f 222 	29 	228
f 232 	228 	237
f 29 	37 	228
f 37 	47 	237
f 34 	235 	234
f 235 	155 	29
f 235 	34 	155
f 243 	224 	242
f 224 	223 	242
f 242 	36 	243
f 219 	244 	221
f 224 	246 	230
f 200 	221 	244
f 243 	246 	224
f 246 	258 	230
f 230 	258 	233
f 252 	113 	105
f 105 	249 	252
f 258 	260 	233
f 87 	86 	252
f 113 	252 	86
f 244 	251 	247
f 95 	87 	252
f 36 	35 	243
f 113 	86 	85
f 113 	85 	122
f 85 	96 	122
f 247 	200 	244
f 259 	109 	249
f 262 	201 	246
f 201 	258 	246
f 107 	106 	249
f 108 	107 	249
f 92 	233 	254
f 98 	252 	99
f 138 	236 	253
f 252 	98 	95
f 233 	260 	254
f 250 	253 	256
f 92 	254 	100
f 220 	234 	100
f 253 	241 	256
f 247 	255 	257
f 238 	241 	253
f 220 	100 	254
f 250 	256 	251
f 247 	257 	248
f 249 	248 	259
f 251 	255 	247
f 255 	251 	256
f 257 	259 	248
f 236 	238 	253
f 108 	249 	109
f 239 	256 	240
f 240 	256 	241
f 112 	109 	259
f 254 	260 	53
f 256 	239 	245
f 252 	249 	106
f 115 	255 	245
f 99 	252 	106
f 260 	145 	53
f 53 	220 	254
f 114 	255 	115
f 256 	245 	255
f 116 	257 	117
f 117 	257 	118
f 255 	118 	257
f 255 	114 	118
f 258 	201 	210
f 257 	116 	120
f 257 	120 	119
f 257 	119 	259
f 259 	121 	112
f 258 	210 	260
f 259 	119 	121
f 260 	210 	145
f 261 	35 	52
f 200 	248 	206
f 52 	61 	261
f 247 	248 	200
f 249 	206 	248
f 35 	261 	243
f 249 	105 	206
f 243 	262 	246
f 261 	262 	243
f 124 	126 	263
f 263 	250 	267
f 138 	263 	126
f 263 	253 	250
f 138 	253 	263
f 61 	65 	261
f 265 	262 	261
f 264 	261 	65
f 65 	68 	264
f 72 	264 	68
f 264 	265 	261
f 264 	267 	265
f 265 	219 	262
f 76 	74 	266
f 266 	264 	76
f 76 	264 	72
f 266 	267 	264
f 265 	268 	219
f 267 	268 	265
f 268 	244 	219
f 74 	78 	266
f 124 	266 	78
f 266 	263 	267
f 124 	263 	266
f 250 	268 	267
f 268 	251 	244
f 268 	250 	251
# 260 faces

g group_0_3888547

usemtl color_3888547
s 0

f 9 	10 	11
f 16 	18 	15
f 18 	19 	15
f 19 	20 	15
f 20 	21 	15
f 14 	15 	21
f 159 	10 	15
f 1 	148 	146
f 169 	15 	146
f 15 	169 	165
f 165 	163 	15
f 1 	146 	15
f 14 	1 	15
f 33 	1 	24
f 1 	4 	24
f 133 	4 	10
f 24 	4 	131
f 131 	4 	132
f 11 	10 	4
f 132 	4 	133
f 133 	10 	135
f 135 	10 	139
f 139 	10 	142
f 142 	10 	144
f 1 	150 	148
f 33 	150 	1
f 159 	144 	10
f 159 	15 	160
f 160 	15 	163
f 10 	9 	5
f 10 	5 	8
f 16 	15 	8
f 10 	8 	15
f 14 	21 	1
f 21 	185 	1
f 20 	19 	192
f 20 	192 	193
f 18 	16 	8
f 18 	8 	194
f 5 	9 	11
f 5 	11 	4
# 41 faces

g group_0_4634441

usemtl color_4634441
s 0

f 195 	196 	19
f 195 	19 	18
f 205 	19 	204
f 192 	19 	205
f 196 	204 	19
f 208 	18 	207
f 195 	18 	208
f 194 	207 	18
f 204 	208 	207
f 204 	207 	205
f 195 	208 	204
f 195 	204 	196
# 12 faces

g group_0_9444435

usemtl color_9444435
s 0

f 26 	33 	25
f 24 	25 	33
f 32 	33 	31
f 30 	31 	33
f 26 	30 	33
f 43 	44 	40
f 41 	48 	40
f 42 	48 	41
f 39 	40 	44
f 38 	39 	44
f 45 	46 	44
f 38 	44 	46
f 49 	48 	42
f 43 	40 	48
f 48 	49 	50
f 48 	50 	51
f 48 	51 	54
f 48 	54 	55
f 48 	55 	56
f 48 	56 	57
f 48 	57 	58
f 59 	60 	58
f 48 	58 	60
f 26 	43 	48
f 43 	26 	44
f 25 	44 	26
f 25 	24 	44
f 45 	44 	131
f 131 	132 	45
f 46 	45 	132
f 38 	46 	133
f 132 	133 	46
f 133 	135 	38
f 139 	142 	40
f 42 	41 	144
f 142 	144 	41
f 144 	159 	42
f 148 	57 	146
f 56 	146 	57
f 58 	57 	148
f 31 	60 	59
f 31 	48 	60
f 160 	50 	159
f 49 	159 	50
f 50 	160 	51
f 163 	51 	160
f 163 	54 	51
f 55 	169 	56
f 131 	44 	24
f 39 	38 	135
f 40 	39 	139
f 135 	139 	39
f 41 	40 	142
f 49 	42 	159
f 148 	150 	58
f 58 	150 	59
f 32 	59 	33
f 33 	59 	150
f 32 	31 	59
f 31 	30 	48
f 48 	30 	26
f 54 	163 	165
f 165 	169 	55
f 165 	55 	54
f 146 	56 	169
# 65 faces

g group_0_15277357

usemtl color_15277357
s 0

f 3 	1 	2
f 4 	1 	3
f 5 	6 	7
f 5 	7 	8
f 6 	3 	199
f 7 	6 	199
f 183 	199 	3
f 2 	183 	3
f 156 	2 	1
f 136 	130 	1
f 185 	187 	1
f 136 	1 	187
f 130 	129 	1
f 129 	134 	1
f 134 	149 	1
f 147 	1 	149
f 147 	156 	1
f 166 	2 	158
f 156 	158 	2
f 172 	2 	170
f 172 	174 	2
f 176 	2 	174
f 166 	170 	2
f 176 	181 	2
f 181 	183 	2
f 7 	199 	205
f 199 	193 	205
f 192 	205 	193
f 8 	7 	207
f 8 	207 	194
f 205 	207 	7
f 4 	3 	6
f 4 	6 	5
# 33 faces

g group_0_16768282

usemtl color_16768282
s 0

f 35 	197 	52
f 36 	197 	35
f 52 	198 	61
f 61 	198 	65
f 65 	198 	68
f 68 	198 	72
f 124 	78 	198
f 72 	198 	76
f 74 	76 	198
f 74 	198 	78
f 95 	182 	87
f 86 	87 	182
f 85 	86 	182
f 182 	95 	98
f 99 	182 	98
f 114 	182 	118
f 121 	119 	182
f 120 	182 	119
f 108 	109 	182
f 109 	112 	182
f 108 	182 	107
f 121 	182 	112
f 106 	107 	182
f 99 	106 	182
f 115 	245 	182
f 117 	182 	116
f 118 	182 	117
f 116 	182 	120
f 236 	198 	238
f 198 	138 	126
f 137 	187 	184
f 185 	21 	187
f 23 	184 	127
f 21 	184 	187
f 127 	184 	12
f 12 	184 	13
f 137 	184 	128
f 13 	184 	140
f 140 	184 	141
f 141 	184 	151
f 161 	153 	182
f 151 	182 	153
f 161 	182 	164
f 184 	21 	197
f 21 	20 	197
f 182 	198 	199
f 182 	199 	183
f 182 	151 	184
f 22 	128 	184
f 23 	22 	184
f 171 	164 	182
f 171 	182 	173
f 173 	182 	175
f 181 	175 	182
f 183 	181 	182
f 198 	20 	199
f 197 	20 	198
f 193 	199 	20
f 138 	198 	236
f 240 	198 	239
f 114 	115 	182
f 241 	198 	240
f 182 	239 	198
f 238 	198 	241
f 239 	182 	245
f 126 	124 	198
f 47 	184 	237
f 212 	211 	184
f 197 	64 	184
f 213 	214 	184
f 225 	229 	184
f 212 	184 	67
f 213 	184 	211
f 216 	225 	184
f 215 	216 	184
f 214 	215 	184
f 231 	232 	184
f 229 	231 	184
f 237 	184 	232
f 62 	64 	197
f 71 	63 	197
f 66 	184 	64
f 66 	67 	184
f 71 	197 	69
f 69 	197 	73
f 73 	197 	75
f 62 	197 	63
f 226 	111 	197
f 226 	197 	227
f 82 	81 	197
f 89 	197 	81
f 88 	197 	89
f 93 	197 	88
f 197 	110 	84
f 82 	197 	84
f 75 	197 	93
f 189 	203 	184
f 91 	90 	184
f 47 	177 	184
f 179 	186 	184
f 189 	184 	186
f 179 	184 	177
f 202 	184 	203
f 184 	202 	209
f 209 	217 	184
f 91 	184 	217
f 182 	184 	90
f 182 	90 	103
f 102 	104 	182
f 103 	102 	182
f 123 	125 	182
f 104 	123 	182
f 125 	143 	182
f 143 	96 	182
f 85 	182 	96
f 242 	223 	197
f 198 	52 	197
f 227 	197 	101
f 110 	197 	111
f 101 	197 	223
f 197 	36 	242
# 121 faces

 #end of obj_0

