# Created by Metasequoia

mtllib Skybox.mtl

v -19437.332031 0.001100 -18627.251953
v -20573.183594 0.001100 -10000.006836
v -7821.114258 0.001100 -15514.696289
v -8547.161133 0.001100 -10000.050781
v -16107.314453 0.001100 6666.586914
v -5692.486328 0.001100 653.546265
v -19437.412109 0.001100 -1372.765625
v -7821.224121 0.001100 -4485.345215
v -16107.383789 0.001100 -26666.597656
v -5692.565918 0.001100 -20653.544922
v -10810.162109 0.001100 -33570.109375
v -2306.535889 0.001100 -25066.443359
v -10810.101563 0.001100 13570.171875
v -2306.455566 0.001100 5066.532227
v -3906.597168 0.001100 -38867.367188
v 2106.453125 0.001100 -28452.492188
v -3906.577881 0.001100 18867.412109
v 2106.449463 0.001100 8452.562500
v 4132.748047 0.001100 22197.353516
v 7245.303711 0.001100 10581.100586
v 4132.778320 0.001100 -42197.421875
v 7245.347168 0.001100 -30581.244141
v 12759.977539 0.001100 23333.201172
v 12759.944336 0.001100 11307.161133
v 12760.007813 0.001100 -43333.191406
v 12760.044922 0.001100 -31307.146484
v 21387.240234 0.001100 22197.423828
v 18274.646484 0.001100 10581.234375
v 21387.257813 0.001100 -42197.355469
v 18274.687500 0.001100 -30581.111328
v 44957.347656 0.001100 -1372.749146
v 33341.097656 0.001100 -4485.314453
v 31212.546875 0.001100 653.531250
v 41627.414063 0.001100 6666.598633
v 29426.574219 0.001100 18867.355469
v 23413.539063 0.001100 8452.482422
v 29426.595703 0.001100 -38867.390625
v 23413.541016 0.001100 -28452.576172
v 36330.125000 0.001100 -33570.167969
v 27826.441406 0.001100 -25066.550781
v 36330.175781 0.001100 13570.119141
v 27826.542969 0.001100 5066.439453
v 41627.363281 0.001100 -26666.578125
v 31212.478516 0.001100 -20653.554688
v 44957.429688 0.001100 -18627.238281
v 33341.230469 0.001100 -15514.661133
v 46093.210938 0.001100 -9999.990234
v 34067.144531 0.001100 -9999.965820
v -29441.570313 12633.189453 33570.792969
v -29525.671875 15745.831055 32948.324219
v -24355.218750 13693.347656 35426.265625
v -24410.677734 15745.832031 35015.804688
v -29032.656250 18858.472656 32559.123047
v -24085.580078 17798.316406 34759.167969
v -28783.576172 9640.166016 34402.617188
v -23921.335938 11719.740234 35974.773438
v -27981.457031 21851.498047 32418.156250
v -23392.417969 19771.923828 34666.210938
v -27576.978516 6881.779297 35411.828125
v -23125.703125 9900.851563 36640.246094
v -26412.484375 24609.886719 32530.833984
v -22357.832031 21590.812500 34740.511719
v -25868.142578 4464.032715 36559.640625
v -21998.890625 8306.583008 37397.117188
v -24386.021484 27027.634766 32892.828125
v -21021.578125 23185.082031 34979.210938
v -23722.742188 2479.841553 37801.941406
v -20584.208984 6998.201172 38216.296875
v -21979.955078 29011.826172 33490.230469
v -19435.009766 24493.466797 35373.140625
v -21223.222656 1005.453247 39090.996094
v -18936.019531 6025.985840 39066.300781
v -19286.740234 30486.216797 34300.078125
v -17659.097656 25465.679688 35907.156250
v -18465.638672 97.532288 40377.265625
v -17117.660156 5427.300781 39914.472656
v -16409.880859 31394.140625 35291.253906
v -15762.086914 26064.369141 36560.742188
v -15555.963867 -209.036285 41611.316406
v -15199.012695 5225.148438 40728.207031
v -13459.928711 31700.710938 36425.667969
v -13816.881836 26266.523438 37308.773438
v -12606.013672 97.534119 42745.726563
v -13253.808594 5427.301758 41476.242188
v -10550.252930 31394.144531 37659.718750
v -11898.232422 26064.369141 38122.511719
v -9729.155273 1005.458374 43736.902344
v -11356.799805 6025.989258 42129.824219
v -7792.668457 30486.220703 38945.988281
v -10079.874023 25465.683594 38970.683594
v -7035.943359 2479.846924 44546.750000
v -9580.887695 6998.205078 42663.839844
v -5293.147949 29011.832031 40235.042969
v -8431.683594 24493.468750 39820.687500
v -4629.874512 4464.041992 45144.152344
v -7994.320313 8306.587891 43057.769531
v -3147.747314 27027.640625 41477.343750
v -7017.000000 23185.085938 40639.867188
v -2603.415527 6881.788574 45506.148438
v -6658.066895 9900.857422 43296.468750
v -1438.912109 24609.892578 42625.156250
v -5890.190430 21590.816406 41396.738281
v -1034.440186 9640.174805 45618.824219
v -5623.480957 11719.744141 43370.769531
v -232.311523 21851.503906 43634.367188
v -5094.554199 19771.929688 42062.214844
v 16.753229 12633.198242 45477.855469
v -4930.321777 13693.353516 43277.812500
v 425.683563 18858.478516 44466.191406
v -4660.671875 17798.320313 42610.718750
v 509.786713 15745.834961 45088.664063
v -4605.211914 15745.833984 43021.179688
v -19437.392578 0.000900 -18627.265625
v -20573.156250 0.000900 -10000.000000
v -7855.386719 -999.999939 -15523.875977
v -8582.618164 -999.999939 -10000.000977
v -19437.392578 0.000900 -1372.739258
v -7855.386719 -999.999939 -4476.123047
v -16107.431641 0.000900 6666.562500
v -5723.252930 -999.999939 671.309570
v -16107.431641 0.000900 -26666.585938
v -5723.250000 -999.999939 -20671.310547
v -10810.101563 0.000900 13570.121094
v -2331.510742 -1087.441040 5091.509766
v -10810.101563 0.000900 -33570.105469
v -2331.509766 -999.999939 -25091.513672
v -3906.580078 0.000900 -38867.437500
v 2088.691406 -999.999939 -28483.250000
v -3906.572266 0.000900 18867.421875
v 2088.689453 -1148.315430 8483.250000
v -2331.509766 -999.999878 -12614.396484
v -2331.509766 -999.999878 -7416.399414
v -2331.509766 -999.999878 -2249.196289
v -2331.509766 -1042.189941 -17843.187500
v -2331.509766 -1110.935059 -10000.000977
v -2331.509766 -1037.026245 -11307.199219
v -2331.072266 -1111.110840 -8708.213867
v -2332.214844 -1085.725342 -15228.624023
v -2334.816406 -1071.656372 -16549.976563
v -2331.509766 -999.999878 -13921.593750
v -2331.509766 -962.242126 -3540.997070
v -2331.509766 -926.186096 -6124.598633
v -2331.509766 -852.372192 -4832.797852
v -2331.509766 -999.999939 2712.957031
v -2331.509766 -999.999878 -957.395508
v -2331.509766 -999.999878 334.405273
v -2331.509766 -999.999878 -19150.384766
v -2331.509766 -999.999939 -22774.546875
v -2331.509766 -999.999878 -20457.582031
v -121.409180 -1050.177856 -15221.641602
v -121.409180 -1155.489746 -16527.050781
v -121.409180 -1260.801514 -17832.460938
v -121.410156 -923.035583 -13916.231445
v -121.410156 -1288.299316 -10000.000000
v -121.410156 -1033.917358 -11305.411133
v -121.410156 -1126.915649 -2259.920898
v -121.410156 -1063.457764 -969.908203
v -121.410156 -1055.532959 -3549.934570
v -121.410156 -999.999878 320.105469
v -121.410156 -866.750793 -12610.821289
v -121.410156 -957.619080 -6129.960938
v -121.410156 -1050.177856 -7419.974121
v -121.410156 -902.550110 -4839.947754
v -121.409180 -1232.405762 -19137.871094
v -121.409180 -1204.010254 -20443.281250
v -121.410156 -1222.382446 -8709.987305
v -1226.459961 -1043.720459 3958.174805
v -1226.458984 -999.999878 -24004.367188
v 120.892578 -1120.091309 -21350.246094
v 217.812500 -1047.946777 1347.085938
v -121.410156 -1087.441040 5203.392578
v -121.409180 -999.999939 -25234.187500
v 363.194336 -1036.172363 -22257.210938
v 557.035156 -1095.893677 2374.065430
v 1225.943359 -1209.686646 -22580.066406
v 1322.862305 -1095.893677 2592.302734
v 2088.691406 -1050.177856 -20428.982422
v 2088.689453 -1050.177856 305.804688
v 2088.691406 -1046.671021 -25376.863281
v 2088.689453 -1198.252563 5315.273926
v 2088.689453 -1256.588257 -8711.774414
v 2088.689453 -1054.475830 -7423.548340
v 2088.689453 -1101.318970 -2270.646484
v 2088.689453 -1075.748535 -982.420898
v 2088.689453 -1080.930542 -3558.872070
v 2088.689453 -1021.125305 -6135.323242
v 2088.689453 -1026.162842 -4847.097656
v 2088.690430 -1339.440430 -10000.000000
v 2088.691406 -1178.439209 -11303.623047
v 2088.691406 -1101.318970 -12607.245117
v 2088.691406 -1065.890259 -13910.868164
v 2088.691406 -1101.318970 -15214.490234
v 2088.691406 -1234.071655 -19125.359375
v 2088.691406 -1417.965454 -17821.736328
v 2088.691406 -1259.642334 -16518.113281
v 2088.691406 -1276.271851 -22902.921875
v 2088.689453 -1095.893677 2810.539063
v 3375.547607 -1073.035767 2813.539063
v 3375.547852 -1075.748535 325.968750
v 3375.549805 -1180.038452 -20418.351563
v 3375.549805 -1023.335510 -25419.992188
v 4662.406250 -1149.494141 5286.948730
v 4662.407715 -999.999878 -25463.123047
v 7236.124512 -1101.318970 -9999.999023
v 7236.124512 -1101.319214 -4806.770020
v 7236.124512 -1101.319214 -15193.230469
v 4662.406250 -1084.052246 2816.540039
v 4132.731445 0.000900 22197.384766
v 7236.121582 -999.999939 10615.386719
v 4132.739258 0.000900 -42197.414063
v 7236.124512 -999.999939 -30615.388672
v 4662.406250 -1135.193359 346.132813
v 4662.407715 -1380.608032 -20407.718750
v 3375.549805 -1163.224854 -22919.171875
v 5949.264648 -1099.240723 5272.785156
v 5949.264648 -1075.098145 366.296875
v 5949.265625 -1240.963623 -20397.089844
v 5949.265625 -1098.794556 -25506.251953
v 7236.123047 -1082.861450 5258.622070
v 7236.123047 -1048.877319 386.459961
v 7236.124023 -1259.015747 -25549.382813
v 7236.124023 -1101.318970 -20386.457031
v 4662.407715 -1050.177856 -22935.421875
v 8617.091797 -1131.960327 5251.867188
v 8617.092773 -1101.318970 -20384.980469
v 8617.091797 -1037.588013 384.982422
v 8617.093750 -1172.045044 -25542.626953
v 9998.060547 -1228.227661 5245.111328
v 9998.061523 -1073.467163 383.503906
v 9998.062500 -1101.318970 -20383.501953
v 9998.062500 -999.999878 -25535.871094
v 5949.264648 -1023.956970 2819.541016
v 5949.265625 -1128.399536 -22951.669922
v 12759.999023 -999.999939 11342.621094
v 12760.000000 -1413.037964 -15190.272461
v 12760.000000 -1101.318970 -4809.726074
v 12760.000000 -999.999939 -31342.623047
v 11379.030273 -1242.126465 5238.355469
v 11379.031250 -1013.294495 -20382.023438
v 11379.030273 -1125.785400 382.026367
v 11379.031250 -962.262878 -25529.115234
v 7236.123047 -997.736206 2822.541016
v 7236.124023 -1275.525757 -22967.919922
v 12759.999023 -1179.240967 5231.600586
v 12760.000000 -1000.744019 -20380.544922
v 12759.999023 -1101.318970 380.548828
v 12760.000000 -999.999878 -25522.359375
v 14140.968750 -955.303772 -20382.023438
v 14140.968750 -1058.269653 5238.355469
v 14140.968750 -958.166321 382.026367
v 14140.968750 -999.999878 -25529.115234
v 8617.091797 -1000.372803 2818.423828
v 8617.092773 -1224.477539 -22963.802734
v 15521.895508 -941.587524 -20383.640625
v 15521.895508 -1031.723877 -25536.011719
v 15521.937500 -1018.740112 5245.108398
v 15521.937500 -896.455444 383.500977
v 18283.875000 -1101.319214 -15193.230469
v 18283.875000 -999.999939 -30615.388672
v 18283.875000 -1101.319214 -4806.770020
v 18283.875000 -999.999939 10615.386719
v 12759.998047 0.000900 23333.132813
v 12759.997070 0.000900 -43333.148438
v 9998.060547 -1050.177856 2814.307617
v 9998.062500 -1050.177856 -22959.685547
v 16902.906250 -1060.946045 -20384.980469
v 16902.906250 -999.999878 -25542.628906
v 16902.906250 -1009.369995 5251.864258
v 16902.906250 -933.497986 384.979492
v 12760.000000 -1101.318970 -9999.998047
v 18283.875000 -1212.028809 -20386.457031
v 18283.875000 -999.999878 -25549.382813
v 18283.875000 -985.245300 5258.619141
v 18283.875000 -955.786011 386.457031
v 19570.734375 -1171.955444 -20397.089844
v 19570.734375 -1035.929932 397.087891
v 19570.734375 -1015.281616 -25457.792969
v 19570.734375 -999.999878 5263.950195
v 11379.030273 -1178.190552 2810.191406
v 11379.031250 -1033.037354 -22955.568359
v 20857.591797 -1101.318970 -20407.718750
v 20857.593750 -1132.329346 407.718750
v 20857.593750 -1031.010254 5269.280273
v 20857.591797 -999.999878 -25366.203125
v 18283.875000 -1101.318970 -10000.000977
v 23431.308594 -874.538208 -12607.246094
v 23431.310547 -1101.318970 -7392.756348
v 23431.308594 -1294.421021 -17821.734375
v 23431.310547 -999.999939 -28483.248047
v 23431.310547 -1101.318970 -2178.264648
v 23431.310547 -999.999939 8483.250977
v 12759.999023 -1229.418945 2806.074219
v 12760.000000 -1091.370850 -22951.453125
v 23431.308594 -1227.451416 -16518.113281
v 23431.308594 -1110.843750 -15214.491211
v 23431.310547 -1092.840820 -8696.377930
v 23431.308594 -1021.654724 -10000.000977
v 23431.308594 -956.976624 -13910.869141
v 23431.308594 -925.684326 -11303.624023
v 23431.310547 -1083.777710 -3481.887695
v 23431.310547 -1017.195618 -4785.510254
v 23431.310547 -1033.039429 -6089.132813
v 22144.449219 -985.238525 -25274.609375
v 22144.451172 -999.999878 5274.610352
v 23431.308594 -999.999878 -25183.019531
v 22144.449219 -1112.352539 -20418.351563
v 23431.308594 -1262.759766 -19125.359375
v 23431.310547 -1152.908813 -20428.982422
v 23431.310547 -1050.177856 428.980469
v 23431.310547 -1052.381958 -874.641602
v 22144.451172 -1075.748535 418.349609
v 23431.310547 -999.999878 5279.941406
v 24245.597656 -963.361450 -22476.582031
v 23431.308594 -926.722900 -22806.000000
v 24245.597656 -1035.628418 2592.180664
v 23431.310547 -933.433777 2854.460938
v 14140.968750 -1110.440430 2810.191406
v 14140.968750 -1092.622803 -22955.568359
v 25641.408203 -999.999939 -25137.265625
v 25641.408203 -999.999939 5185.726074
v 25059.888672 -1137.822876 2329.899414
v 25059.884766 -999.999939 -22147.158203
v 25350.646484 -1069.950317 -21233.632813
v 25350.648438 -1137.822876 1386.589844
v 25641.410156 -1139.900635 -20320.105469
v 25641.410156 -1137.822876 443.280273
v 27851.509766 -999.999939 -25091.507813
v 27851.513672 -999.999939 5091.508301
v 26746.458984 -999.999878 -23894.316406
v 26746.460938 -1047.617554 3980.135742
v 27851.509766 -999.999939 -22651.367188
v 27851.513672 -1095.235229 2774.544922
v 27851.509766 -999.999878 -20211.226563
v 27851.511719 -1099.609375 457.581055
v 15521.895508 -1146.761353 -22959.824219
v 15521.937500 -1072.903809 2814.304688
v 16902.906250 -1127.381104 -22963.804688
v 16902.906250 -996.151611 2818.420898
v 21387.255859 0.000900 22197.384766
v 21387.261719 0.000900 -42197.414063
v 27851.509766 -1039.094849 -18934.824219
v 31243.248047 -999.999939 -20671.310547
v 27851.509766 -999.999878 -17658.421875
v 31243.251953 -999.999939 671.307617
v 27851.511719 -1026.438110 -849.616211
v 27851.511719 -999.999878 -2156.814453
v 27851.509766 -1024.818848 -16382.019531
v 33375.378906 -999.999939 -15523.875977
v 27851.509766 -999.999878 -15105.616211
v 27851.509766 -964.285522 -13829.211914
v 27851.509766 -999.999878 -12552.808594
v 33375.386719 -999.999939 -4476.126953
v 27851.511719 -1078.620972 -7385.605469
v 27851.511719 -1013.092529 -6078.407715
v 27851.511719 -1024.520264 -3464.012207
v 27851.511719 -999.999878 -4771.209961
v 27851.511719 -1130.684570 -8692.803711
v 34102.621094 -999.999939 -10000.003906
v 27851.511719 -1120.040527 -10000.000977
v 27851.509766 -1037.608032 -11276.404297
v 18283.875000 -1160.887573 -22967.921875
v 18283.875000 -904.644775 2822.538086
v 19570.734375 -1084.175903 -22927.441406
v 19570.734375 -949.546875 2830.518555
v 20857.591797 -976.900818 -22886.960938
v 20857.593750 -1010.704773 2838.499023
v 22144.449219 -937.050415 -22846.480469
v 22144.451172 -956.564209 2846.479492
v 29426.572266 0.000900 18867.414063
v 29426.576172 0.000900 -38867.437500
v 25641.410156 -1243.279907 -17740.078125
v 25641.410156 -1230.685303 -19030.089844
v 25641.410156 -1206.682739 -16450.066406
v 25641.410156 -1120.447510 -15160.053711
v 25641.410156 -1187.449951 -8694.590820
v 25641.410156 -1183.393066 -10000.000977
v 25641.410156 -1105.134155 -6083.770508
v 25641.410156 -1128.798950 -7389.180664
v 25641.410156 -1049.598145 -13870.040039
v 25641.410156 -1094.373413 -11290.014648
v 25641.410156 -1050.177856 -12580.027344
v 25641.410156 -1050.177856 -2167.540039
v 25641.410156 -1116.561768 -3472.950195
v 25641.410156 -1133.904907 -4778.360352
v 25641.410156 -1070.633911 -862.129883
v 36330.097656 0.000900 -33570.093750
v 36330.097656 0.000900 13570.048828
v 41627.429688 0.000900 -26666.585938
v 41627.429688 0.000900 6666.554688
v 44957.406250 0.000900 -18627.251953
v 44957.406250 0.000900 -1372.763672
v 46093.152344 0.000900 -10000.008789
v 30619.451172 0.000000 -34231.539063
v 32580.845703 0.000000 -29066.570313
v 31848.898438 489.634888 -34011.925781
v 32052.210938 9693.906250 -36015.632813
v 32905.140625 10417.193359 -34905.476563
v 32033.689453 10166.294922 -36098.824219
v 32165.191406 10638.683594 -35941.148438
v 32364.816406 10648.018555 -36573.839844
v 32754.568359 10925.613281 -36464.710938
v 32539.972656 1331.995117 -34385.601563
v 32517.666016 1422.132446 -32960.105469
v 32334.421875 1633.133667 -34348.664063
v 32475.601563 1030.856445 -34562.476563
v 32505.833984 1030.856445 -33561.847656
v 33544.386719 2383.768555 -29162.996094
v 32517.667969 1422.132568 -32960.105469
v 32877.382813 2153.983643 -32832.718750
v 32572.011719 6830.166992 -35115.820313
v 34156.531250 9328.463867 -33367.703125
v 32452.820313 8476.025391 -35390.113281
v 35160.476563 7954.234863 -32115.257813
v 41438.882813 17041.095703 -21809.685547
v 42314.652344 17322.222656 -19627.267578
v 41453.660156 18046.750000 -21823.851563
v 42002.250000 18367.976563 -22033.281250
v 41838.203125 18100.423828 -22413.066406
v 42614.605469 11186.178711 -17991.400391
v 41578.441406 13312.379883 -21444.234375
v 41424.113281 11189.563477 -21795.525391
v 44010.328125 12642.644531 -15210.142578
v 41568.042969 15144.200195 -21457.541016
v 43658.164063 14495.992188 -16092.566406
v 43069.664063 16192.694336 -17675.664063
v 41176.503906 0.000000 -7711.064941
v 44177.148438 0.000000 -6135.276367
v 44082.535156 678.143677 -6598.737305
v 42172.613281 2415.771973 -8390.258789
v 44078.367188 1424.269775 -6773.673340
v 44178.828125 2415.771973 -6628.756836
v 44379.582031 10222.123047 -14338.920898
v 30597.888672 0.000000 -35754.480469
v 31815.800781 489.634888 -35098.660156
v 32545.710938 489.634888 -35977.183594
v 31190.302734 0.000000 -36843.230469
v 32185.583984 10129.097656 -36747.925781
v 32156.378906 9610.175781 -36681.144531
v 32926.828125 1633.133667 -35437.414063
v 32267.574219 2017.165649 -36211.375000
v 31675.154297 2017.165649 -35122.625000
v 32593.431641 8398.521484 -36093.535156
v 32388.564453 3035.491211 -36261.011719
v 31729.191406 3081.860840 -35104.097656
v 32741.427734 4940.482910 -35851.445313
v 32559.654297 4999.306152 -35017.722656
v 33205.492188 1030.856445 -35441.011719
v 32749.080078 6758.890625 -35857.148438
v 33225.421875 1331.995117 -35315.082031
v 33577.460938 10694.840820 -35288.167969
v 32634.792969 0.000000 -23368.355469
v 33131.843750 2472.059082 -23659.919922
v 34461.082031 0.000000 -17580.277344
v 34822.632813 3188.520020 -18122.542969
v 34884.382813 9549.944336 -33507.546875
v 35774.992188 6432.709473 -31396.892578
v 36280.781250 4796.347168 -30719.421875
v 35854.667969 8055.198242 -32218.707031
v 36553.214844 6325.519531 -31370.113281
v 38548.324219 3188.520020 -14143.038086
v 37605.636719 0.000000 -13540.957031
v 37092.570313 4685.489746 -30581.542969
v 40183.316406 2561.386230 -10338.050781
v 39210.906250 0.000000 -9528.327148
v 41845.929688 17014.109375 -22401.091797
v 41951.207031 13283.333984 -22036.470703
v 41785.433594 11027.762695 -22388.054688
v 41952.234375 15115.839844 -22049.515625
v 42849.503906 17524.564453 -19751.587891
v 43630.464844 16324.077148 -17721.457031
v 44244.914063 14556.416016 -16059.845703
v 44623.027344 12632.108398 -15098.898438
v 45018.257813 10067.726563 -14149.144531
v 47234.175781 678.143677 -5965.988281
v 47172.187500 1424.269775 -6181.011719
v 47157.007813 2415.771973 -6116.223145
v 47386.609375 0.000000 -5462.460938
v 36808.242188 1247.145630 7790.502930
v 37182.843750 980.985718 9416.245117
v 37247.242188 1551.582642 9161.763672
v 41332.152344 702.128479 268.139160
v 38995.855469 1000.979004 544.327393
v 41245.750000 1331.000244 428.529053
v 36786.777344 0.000400 10068.117188
v 36373.851563 0.000400 8335.964844
v 36796.222656 0.000400 6146.115723
v 37307.234375 1197.684448 5813.471680
v 36775.839844 0.000400 2866.476807
v 36669.382813 0.000400 4506.296387
v 37027.207031 1137.244141 2908.996094
v 37050.574219 1167.464355 4361.233887
v 36797.605469 2048.646973 3180.408691
v 36864.992188 1961.447266 4256.325684
v 36718.742188 2090.924805 7454.758789
v 37119.371094 2103.063721 9153.248047
v 37165.675781 2066.646973 5332.243652
v 37655.652344 0.000400 1148.850952
v 37823.167969 1069.111572 1475.510742
v 37688.546875 1915.346558 1668.000366
v 38206.078125 0.000400 10548.733398
v 38563.835938 967.528015 9790.458984
v 38526.394531 2115.202637 9600.198242
v 38627.394531 1562.538940 9540.433594
v 38912.187500 0.000400 -66.473572
v 38956.214844 1782.046143 657.894409
v 41335.574219 1967.281372 171.299469
v 41403.828125 0.000400 -476.496155
v 45130.984375 0.000400 9820.815430
v 45212.007813 920.255920 9231.576172
v 45247.800781 1874.913940 9168.160156
v 45241.214844 1382.322632 9068.403320
v 44158.460938 1208.545532 1349.424438
v 44121.488281 485.276093 1146.764404
v 44186.121094 0.000400 271.336456
v 44333.992188 1684.190918 1081.939209
v 46508.125000 725.700378 2443.116455
v 46465.531250 1417.614258 2641.263672
v 46507.000000 1918.492676 2602.234863
v 46677.390625 0.000400 1809.645264
v -22467.052734 7087.757324 -11676.457031
v -22615.380859 7911.145508 -11882.128906
v -21849.261719 7212.505371 -11808.469727
v -21943.113281 7854.114746 -11944.076172
v -21877.556641 4754.447754 -12028.002930
v -22540.236328 4796.275391 -11881.773438
v -21850.316406 5877.129883 -11804.350586
v -22435.369141 5905.628906 -11665.300781
v -21921.871094 7788.930664 -10577.676758
v -21452.957031 7640.522949 -11100.325195
v -22470.625000 8145.275879 -11566.643555
v -21101.166016 7123.661133 -10365.148438
v -21529.423828 7219.911133 -9849.306641
v -20613.103516 5591.898926 -9281.541992
v -20801.359375 6354.077637 -9716.634766
v -21188.988281 6398.167480 -9207.634766
v -20981.087891 5643.969727 -8703.692383
v -20695.205078 4485.413086 -8069.729004
v -20424.857422 4829.719727 -8846.450195
v -18280.160156 11575.551758 -5318.229980
v -18737.052734 11678.416016 -5250.468750
v -18240.830078 12186.760742 -5252.651367
v -18732.382813 12228.588867 -5177.934570
v -18499.775391 10674.063477 -4895.959473
v -18071.445313 10659.780273 -4970.288574
v -18447.708984 9177.032227 -4645.729004
v -17928.158203 9285.082031 -4731.456543
v -17824.158203 6993.342773 -4886.391113
v -18694.814453 6677.550781 -4563.147949
v -18128.433594 12294.584961 -4133.971191
v -17692.232422 12146.502930 -4297.779785
v -16926.371094 11486.635742 -3020.429443
v -17313.357422 11591.354492 -2754.014648
v -15977.496094 9771.304688 -1397.611084
v -15336.377930 6993.342773 -82.667633
v -16370.641602 9663.255859 -894.396973
v -15765.167969 6707.894531 576.278015
v -61940.628906 0.000000 -30015.972656
v -56643.648438 19768.582031 -28596.656250
v -64575.777344 0.000000 -10000.001953
v -59091.933594 19768.582031 -9999.999023
v -61940.625000 0.000000 10015.968750
v -56643.644531 19768.582031 8596.644531
v -54214.757813 0.000000 28667.886719
v -49465.601563 19768.582031 25925.968750
v -54214.734375 0.000000 -48667.882813
v -49122.222656 19875.228516 -45741.617188
v -41924.660156 0.000000 44684.652344
v -38047.000000 19768.582031 40806.996094
v -41924.640625 0.000000 -64684.648438
v -38046.980469 19768.582031 -60806.976563
v -19437.328125 0.001100 -18627.250000
v -20573.183594 0.001100 -10000.005859
v -54214.761719 0.000000 28667.884766
v -19437.412109 0.001100 -1372.765625
v -16107.314453 0.001100 6666.586914
v -16107.381836 0.001100 -26666.595703
v -25907.900391 0.000000 56974.753906
v -23165.976563 19768.582031 52225.597656
v -25907.884766 0.000000 -76974.742188
v -23165.957031 19768.582031 -72225.601563
v -10810.160156 0.001100 -33570.109375
v -3906.595459 0.001100 -38867.363281
v -10810.101563 0.001100 13570.171875
v -3906.578857 0.001100 18867.410156
v -7255.980957 0.000000 64700.625000
v -5836.664551 19768.582031 59403.636719
v -7255.958008 0.000000 -84700.609375
v -5836.633789 19768.582031 -79403.640625
v 4132.746582 0.001100 22197.351563
v 4132.779785 0.001100 -42197.421875
v 12759.991211 0.000000 67335.773438
v 12759.987305 19768.582031 61851.949219
v 12760.016602 0.000000 -87335.757813
v 12760.017578 19768.582031 -81851.921875
v 12759.976563 0.001100 23333.199219
v 12760.009766 0.001100 -43333.191406
v 32775.968750 0.000000 64700.617188
v 21387.238281 0.001100 22197.421875
v 32775.988281 0.000000 -84700.640625
v 21387.259766 0.001100 -42197.355469
v 45453.808594 0.000700 -42693.832031
v 29426.599609 0.001100 -38867.390625
v 36330.125000 0.001100 -33570.167969
v 31356.644531 19768.582031 59403.644531
v 31356.662109 19768.582031 -79403.648438
v 41627.363281 0.001100 -26666.580078
v 51427.910156 0.000000 -76974.757813
v 36330.175781 0.001100 13570.116211
v 53728.785156 0.000700 13653.334961
v 41627.414063 0.001100 6666.596191
v 44957.425781 0.001100 -18627.240234
v 51331.832031 0.000800 -32269.455078
v 44957.347656 0.001100 -1372.751343
v 49027.828125 0.001000 -19717.900391
v 56401.425781 0.000800 1693.679321
v 46093.207031 0.001100 -9999.991211
v 52148.195313 0.000900 -9999.993164
v 67444.656250 0.000000 44684.652344
v 67444.671875 0.000000 -64684.664063
v 79734.765625 0.000000 -48667.894531
v 51427.886719 0.000000 56974.746094
v 29426.572266 0.001100 18867.353516
v 87460.648438 0.000000 -30015.974609
v 87460.632813 0.000000 10015.966797
v 90095.789063 0.000000 -10000.007813
v 79734.757813 0.000000 28667.892578
v 48685.968750 19768.582031 52225.593750
v 48685.980469 19768.582031 -72225.601563
v 63566.996094 19768.582031 40806.984375
v 63567.003906 19768.582031 -60807.000000
v 74985.617188 19768.582031 25925.970703
v 74985.632813 19768.582031 -45925.980469
v 82163.648438 19768.582031 8596.648438
v 87460.640625 0.000000 -30015.974609
v 82163.664063 19768.582031 -28596.650391
v 90095.796875 0.000000 -10000.007813
v 84611.953125 19768.582031 -10000.001953
v 33251.382813 3040.374512 -32754.150391
v 35106.613281 3824.107666 -30382.814453
v 34860.511719 3641.903076 -28842.625000
v 35836.847656 5908.906250 -26314.453125
v 34122.429688 4573.307617 -23748.976563
v 35711.218750 4900.038086 -28467.664063
v 35746.421875 6674.556152 -23912.330078
v 36968.449219 5515.567871 -29645.095703
v 40536.519531 10546.051758 -23381.990234
v 37016.753906 7894.712402 -19463.074219
v 39648.929688 9569.388672 -24968.455078
v 39102.957031 5409.073730 -14642.627930
v 39102.957031 5409.073730 -14642.626953
v 41519.539063 6630.264648 -11794.966797
v 39657.589844 7629.627441 -15142.214844
v 43407.789063 6173.705078 -9890.503906
v 46129.113281 6132.841309 -8882.274414
v 45250.226563 8739.309570 -12009.287109
v 35691.371094 5541.616211 -18766.027344
v 37946.230469 6843.849121 -28111.484375
v 38833.496094 8205.613281 -26602.177734
v 37360.214844 2413.335449 8870.060547
v 37637.101563 2355.605225 5093.090332
v 37197.003906 2546.420166 6924.086426
v 38308.375000 2797.025635 4967.433594
v 38979.652344 3149.701172 4841.776367
v 37601.062500 2641.827881 8476.803711
v 40224.191406 3327.411377 5930.028320
v 39011.496094 2737.235596 8777.992188
v 40571.015625 3590.515625 4875.151855
v 41013.875000 3703.499512 3251.676270
v 41527.242188 3383.653076 2641.194336
v 39869.277344 3135.858398 2468.915039
v 44428.214844 3281.364258 3188.447998
v 41473.101563 3108.459229 1834.094727
v 37196.699219 2646.266846 3122.441650
v 37300.253906 2407.825684 4107.766113
v 38032.761719 2613.560791 1933.364380
v 38105.882813 2971.081299 3289.727539
v 38090.484375 2837.498291 4128.580566
v 38768.945313 2467.108887 9244.130859
v 38690.378906 2936.905029 2401.073486
v 39245.554688 2565.938232 1246.589233
v 39015.066406 3207.150879 3457.012939
v 38880.710938 3178.426025 4149.395020
v 39347.992188 3171.504639 2868.782471
v 39557.414063 2895.270752 1857.751953
v 40566.722656 3757.515625 4320.244141
v 40679.082031 3795.683105 3765.336426
v 40807.597656 3749.591309 3430.739990
v 41418.960938 2744.520996 1026.995239
v 45398.613281 2295.761230 8666.381836
v 45549.421875 2634.829102 8054.530762
v 45967.710938 3047.675049 6480.747559
v 44375.472656 2897.853027 2129.366943
v 46301.679688 2702.035156 3230.072998
v 46096.363281 3018.134766 3857.924316
v -25665.332031 -0.082200 -18308.716797
v -29341.525391 -0.083800 -16761.480469
v -24645.986328 394.021698 -16617.857422
v -27403.117188 621.865906 -15457.429688
v -25461.945313 1873.173462 -14115.734375
v -23623.808594 1709.168213 -14889.345703
v -23729.669922 3914.041016 -12562.776367
v -22479.271484 3729.121094 -13022.697266
v -20917.623047 865.670410 -15578.033203
v -22259.298828 -0.081000 -18010.935547
v -17685.851563 1780.245483 -12860.834961
v -20110.701172 429.338989 -16017.133789
v -19435.822266 3714.773926 -12174.952148
v -19895.396484 -0.081000 -16184.534180
v -17255.226563 -0.081000 -13195.648438
v -14081.827148 6403.451660 -580.996460
v -16570.380859 6329.731445 -5631.871094
v -12991.066406 -0.081000 -7865.173340
v -13888.731445 3062.984375 -7286.916992
v -17685.851563 1780.245361 -12860.834961
v -15316.604492 5666.119629 -6377.351074
v -12827.278320 5813.561035 -1079.327881
v -14559.827148 6104.169434 1736.960327
v -14081.827148 6403.452148 -580.996460
v -13408.067383 5579.681641 1277.369873
v -13783.276367 5509.465820 3556.588135
v -12734.306641 5180.489746 3135.736328
v -10987.557617 3062.984375 -1411.444824
v -12256.308594 5128.899414 817.778931
v -12240.657227 5069.944824 4604.973145
v -13326.578125 5346.041992 4833.022461
v -11747.012695 4546.095215 6074.208496
v -12869.880859 5030.822266 6109.456543
v -11685.336914 4455.855469 2714.886230
v -11154.739258 4132.167480 4376.922852
v -9842.732422 -0.081000 -1320.206787
v -10998.936523 2515.360107 9955.526367
v -10437.501953 2236.710938 9937.901367
v -10624.142578 3780.794189 6038.960938
v -19178.605469 2574.364258 -6175.581055
v -10089.987305 2656.715332 4490.605469
v -10677.465820 3155.439697 2570.982666
v -17925.724609 4176.634277 -10216.828125
v -19435.822266 3714.773682 -12174.952148
v -19829.376953 5010.165527 -9492.614258
v -9876.067383 1725.107056 9920.278320
v -18834.347656 6540.577637 -6033.501465
v -9564.066406 2373.649414 6410.232910
v -9419.462891 1328.550049 4604.290527
v -9915.400391 1690.595337 2427.076660
v -9876.067383 1725.107178 9920.278320
v -9097.336914 1104.159546 9591.224609
v -8923.525391 966.504822 6781.503906
v -8626.108398 483.211792 9262.170898
v -9127.992188 -0.102000 13801.595703
v -8287.958008 -0.081000 6792.725586
v -8328.691406 -0.081000 11742.838867
v -33714.285156 37439.765625 -22452.748047
v -49122.222656 19875.228516 -45741.613281
v -28907.701172 37439.765625 14056.868164
v -11296.860352 37439.765625 -51667.710938
v 307.244171 37439.765625 36474.285156
v 12760.000000 44220.652344 -10000.000000
v -5836.634277 19768.582031 -79403.640625
v 25212.761719 37439.765625 -56474.285156
v 31356.646484 19768.582031 59403.644531
v 36816.863281 37439.765625 31667.705078
v 54427.722656 37439.765625 -34056.863281
v 59234.285156 37439.765625 2452.745850
v -24744.634766 13293.947266 34183.699219
v -24804.039063 15492.513672 33744.027344
v -14196.500977 15492.507813 38031.613281
v -24455.802734 17691.080078 33469.125000
v -24279.869141 11179.872070 34771.246094
v -23713.306641 19805.156250 33369.550781
v -23427.607422 9231.527344 35484.085938
v -22605.085938 21753.500000 33449.140625
v -22220.597656 7523.790039 36294.824219
v -21173.728516 23461.238281 33704.832031
v -20705.228516 6122.287109 37172.308594
v -19474.238281 24862.744141 34126.796875
v -18939.732422 5080.875977 38082.812500
v -17571.927734 25904.154297 34698.820313
v -16991.955078 4439.580078 38991.347656
v -15539.901367 26545.453125 35398.921875
v -14936.751953 4223.040527 39863.000000
v -13456.250000 26761.996094 36200.195313
v -12853.101563 4439.581543 40664.273438
v -11401.044922 26545.453125 37071.847656
v -10821.076172 5080.879395 41364.375000
v -9453.268555 25904.156250 37980.382813
v -8918.767578 6122.291504 41936.398438
v -7687.770996 24862.746094 38890.890625
v -7219.279297 7523.794922 42358.363281
v -6172.400391 23461.242188 39768.371094
v -5787.920898 9231.534180 42614.050781
v -4965.392578 21753.503906 40579.109375
v -4679.700195 11179.876953 42693.640625
v -4113.128418 19805.160156 41291.949219
v -3937.206543 13293.954102 42594.066406
v -3648.364258 17691.082031 41879.496094
v -3588.958008 15492.515625 42319.167969
# 796 vertices

vt 2.91650 0.25200
vt 2.74990 0.32620
vt 2.91650 0.32620
vt 2.74990 0.25200
vt 2.58290 0.32620
vt 2.41650 0.25200
vt 2.41650 0.32620
vt 2.58290 0.25200
vt 3.08330 0.32620
vt 3.08330 0.25200
vt 3.24990 0.32620
vt 3.24990 0.25200
vt 2.24990 0.32620
vt 2.24990 0.25200
vt 3.41650 0.25200
vt 3.41650 0.32620
vt 2.08330 0.25200
vt 2.08330 0.32620
vt 1.91600 0.25200
vt 1.91600 0.32620
vt 3.58290 0.32620
vt 3.58290 0.25200
vt 1.74990 0.32620
vt 1.74990 0.25200
vt 3.74990 0.25200
vt 3.74990 0.32620
vt 1.58300 0.32620
vt 1.58300 0.25200
vt 3.91590 0.25200
vt 3.91590 0.32620
vt 5.08330 0.25200
vt 4.91590 0.25200
vt 4.91590 0.32620
vt 5.08330 0.32620
vt 1.41660 0.25200
vt 1.41660 0.32620
vt 4.08330 0.32620
vt 4.08330 0.25200
vt 4.24990 0.32620
vt 4.24990 0.25200
vt 1.24990 0.32620
vt 1.24990 0.25200
vt 4.41650 0.25200
vt 4.41650 0.32620
vt 5.24990 0.32620
vt 5.24990 0.25200
vt 4.58290 0.32620
vt 4.58290 0.25200
vt 4.74990 0.32620
vt 4.74990 0.25200
vt 0.86850 -0.57340
vt 0.99990 -0.50010
vt 0.99030 -0.59760
vt 0.87570 -0.50010
vt 0.99030 -0.40250
vt 0.86850 -0.42670
vt 0.84710 -0.64380
vt 0.96190 -0.69140
vt 0.96190 -0.30870
vt 0.84710 -0.35630
vt 0.81240 -0.70880
vt 0.91570 -0.77780
vt 0.91570 -0.22230
vt 0.81240 -0.29130
vt 0.76560 -0.76570
vt 0.85350 -0.85360
vt 0.85350 -0.14650
vt 0.76560 -0.23440
vt 0.70870 -0.81250
vt 0.77770 -0.91580
vt 0.77770 -0.08430
vt 0.70870 -0.18760
vt 0.64370 -0.84720
vt 0.69130 -0.96200
vt 0.69130 -0.03810
vt 0.64370 -0.15290
vt 0.57330 -0.86860
vt 0.59750 -0.99040
vt 0.59750 -0.00970
vt 0.57330 -0.13150
vt 0.50000 -0.87580
vt 0.49990 -1.00000
vt 0.49990 -0.00010
vt 0.50000 -0.12430
vt 0.42660 -0.86860
vt 0.40240 -0.99040
vt 0.40240 -0.00970
vt 0.42660 -0.13150
vt 0.35620 -0.84720
vt 0.30860 -0.96200
vt 0.30860 -0.03810
vt 0.35620 -0.15290
vt 0.29120 -0.81250
vt 0.22220 -0.91580
vt 0.22220 -0.08430
vt 0.29120 -0.18760
vt 0.23430 -0.76570
vt 0.14640 -0.85360
vt 0.14640 -0.14650
vt 0.23430 -0.23440
vt 0.18750 -0.70880
vt 0.08420 -0.77780
vt 0.08420 -0.22230
vt 0.18750 -0.29130
vt 0.15280 -0.64380
vt 0.03800 -0.69140
vt 0.03800 -0.30870
vt 0.15280 -0.35630
vt 0.13140 -0.57340
vt 0.00960 -0.59760
vt 0.00960 -0.40250
vt 0.13140 -0.42670
vt 0.12420 -0.50010
vt 0.00000 -0.50010
vt 1.90700 -5.82900
vt 0.66900 -7.50100
vt 0.17000 -6.29500
vt 2.22700 -6.60100
vt 1.46400 -8.53600
vt 2.73600 -7.26400
vt 2.49900 -9.33100
vt 3.39900 -7.77300
vt 1.79800 -5.00100
vt 0.00000 -5.00100
vt 3.70500 -9.83000
vt 4.17100 -8.09300
vt 1.90700 -4.17200
vt 0.17000 -3.70600
vt 2.22700 -3.40000
vt 0.66900 -2.50000
vt 5.00000 -10.00000
vt 5.00000 -8.20200
vt 2.84300 -5.79300
vt 3.23300 -6.46800
vt 3.62000 -7.13900
vt 2.45100 -5.11400
vt 2.94100 -5.96300
vt 3.03900 -6.13200
vt 3.13600 -6.30000
vt 2.54700 -5.28200
vt 2.64700 -5.45300
vt 2.74500 -5.62300
vt 3.52300 -6.97100
vt 3.33000 -6.63600
vt 3.42700 -6.80400
vt 3.99300 -7.78400
vt 3.71700 -7.30700
vt 3.81400 -7.47500
vt 2.35300 -4.94400
vt 2.08100 -4.47300
vt 2.25500 -4.77400
vt 2.83700 -5.11900
vt 2.93500 -5.28800
vt 2.73900 -4.94900
vt 3.03200 -5.45800
vt 3.22800 -5.79700
vt 3.32600 -5.96700
vt 4.00300 -7.14000
vt 3.90700 -6.97200
vt 3.81000 -6.80500
vt 4.10000 -7.30700
vt 3.13000 -5.62700
vt 3.61600 -6.46900
vt 3.52000 -6.30200
vt 3.71300 -6.63700
vt 2.64100 -4.78000
vt 2.54300 -4.61000
vt 3.42300 -6.13400
vt 4.22900 -7.86300
vt 2.13200 -4.23000
vt 2.50600 -4.47400
vt 4.22100 -7.41500
vt 4.46600 -7.94200
vt 2.18400 -3.98800
vt 2.47000 -4.33800
vt 4.34200 -7.52300
vt 2.55800 -4.23100
vt 4.45800 -7.49400
vt 2.83100 -4.44600
vt 4.38600 -7.14000
vt 2.46000 -3.80300
vt 4.76200 -7.79000
vt 3.80600 -6.13600
vt 3.71000 -5.96800
vt 4.29000 -6.97200
vt 4.19300 -6.80500
vt 4.09600 -6.63800
vt 3.90300 -6.30300
vt 4.00000 -6.47000
vt 3.61300 -5.80100
vt 3.51500 -5.63200
vt 3.41800 -5.46200
vt 3.32000 -5.29300
vt 3.22200 -5.12300
vt 2.92900 -4.61500
vt 3.02700 -4.78500
vt 3.12400 -4.95400
vt 2.64600 -4.12500
vt 4.57400 -7.46500
vt 4.74100 -7.36900
vt 4.55500 -7.04600
vt 2.99900 -4.35100
vt 2.62400 -3.70100
vt 5.09400 -7.59400
vt 2.78800 -3.59900
vt 4.28200 -5.41500
vt 4.67100 -6.08900
vt 3.89200 -4.74000
vt 4.90900 -7.27300
vt 6.29400 -9.83000
vt 5.82800 -8.09300
vt 2.73600 -2.73700
vt 1.46400 -1.46500
vt 4.72400 -6.95200
vt 3.16700 -4.25600
vt 2.81100 -4.02600
vt 5.26000 -7.49500
vt 4.89200 -6.85800
vt 3.33500 -4.16100
vt 2.95200 -3.49700
vt 5.42600 -7.39700
vt 5.06100 -6.76400
vt 3.11600 -3.39500
vt 3.50300 -4.06600
vt 2.97700 -3.92700
vt 5.60500 -7.29300
vt 3.68200 -3.96200
vt 5.24000 -6.66000
vt 3.29600 -3.29200
vt 5.78400 -7.18800
vt 5.41900 -6.55700
vt 3.86200 -3.85900
vt 3.47600 -3.18900
vt 5.07600 -7.17700
vt 3.14300 -3.82900
vt 6.60000 -7.77300
vt 4.61000 -4.32600
vt 5.38900 -5.67500
vt 3.39900 -2.22800
vt 5.96300 -7.08400
vt 4.04100 -3.75500
vt 5.59900 -6.45300
vt 3.65500 -3.08700
vt 5.24400 -7.08100
vt 3.30900 -3.73000
vt 6.14200 -6.97900
vt 4.22100 -3.65200
vt 5.77800 -6.34900
vt 3.83500 -2.98400
vt 4.40000 -3.54800
vt 6.32200 -6.87600
vt 5.95800 -6.24600
vt 4.01400 -2.88000
vt 5.42300 -6.97600
vt 3.48900 -3.62700
vt 4.58000 -3.44400
vt 4.19300 -2.77500
vt 6.50200 -6.77400
vt 6.13700 -6.14200
vt 5.32800 -3.91200
vt 4.17100 -1.90800
vt 6.10700 -5.26100
vt 7.26300 -7.26400
vt 7.50000 -9.33100
vt 2.50000 -0.67000
vt 5.60200 -6.87200
vt 3.66900 -3.52400
vt 4.75900 -3.34100
vt 4.37200 -2.67100
vt 6.68200 -6.67100
vt 6.31700 -6.03900
vt 5.00000 -5.00100
vt 4.93800 -3.23700
vt 4.55100 -2.56600
vt 6.86100 -6.56800
vt 6.49600 -5.93500
vt 5.10400 -3.13900
vt 6.66400 -5.84000
vt 4.72500 -2.48200
vt 7.02900 -6.47300
vt 5.78100 -6.76800
vt 3.84800 -3.42100
vt 5.27100 -3.04100
vt 6.83200 -5.74500
vt 7.19700 -6.37700
vt 4.89900 -2.39700
vt 6.19000 -3.86100
vt 5.71700 -4.58600
vt 6.58100 -4.53900
vt 5.79900 -3.18400
vt 5.00000 -1.79900
vt 6.97200 -5.21600
vt 7.77200 -6.60100
vt 5.96000 -6.66400
vt 4.02800 -3.31800
vt 5.89700 -3.35300
vt 5.99500 -3.52300
vt 6.38600 -4.20000
vt 6.48400 -4.36900
vt 6.09200 -3.69200
vt 6.28800 -4.03100
vt 6.87500 -5.04700
vt 6.77700 -4.87800
vt 6.67900 -4.70800
vt 5.07300 -2.31200
vt 7.36400 -6.28100
vt 5.24700 -2.22800
vt 5.60400 -2.84500
vt 5.70100 -3.01500
vt 5.43700 -2.94300
vt 7.00000 -5.65000
vt 7.07000 -5.38600
vt 7.16800 -5.55500
vt 7.53200 -6.18500
vt 5.42500 -2.53700
vt 5.55600 -2.51800
vt 7.35000 -5.87000
vt 7.43600 -5.77500
vt 6.14000 -6.56100
vt 4.20700 -3.21400
vt 5.53800 -2.06800
vt 7.81200 -6.00700
vt 7.52200 -5.68000
vt 5.68600 -2.50000
vt 5.79300 -2.59700
vt 7.48900 -5.53500
vt 5.89900 -2.69400
vt 7.45600 -5.39100
vt 5.82800 -1.90800
vt 8.09200 -5.82900
vt 5.77400 -2.14700
vt 7.86500 -5.76800
vt 6.01100 -2.22500
vt 7.91800 -5.52800
vt 6.19400 -2.54200
vt 7.74400 -5.22700
vt 4.38600 -3.11000
vt 6.31900 -6.45800
vt 4.56500 -3.00600
vt 6.49900 -6.35500
vt 8.53500 -8.53600
vt 3.70500 -0.17100
vt 6.60000 -2.22800
vt 6.29000 -2.70800
vt 6.38600 -2.87400
vt 8.20100 -5.00100
vt 7.64600 -5.05700
vt 7.54800 -4.88700
vt 7.26300 -2.73700
vt 6.48100 -3.04000
vt 6.57700 -3.20500
vt 6.67300 -3.37100
vt 6.76800 -3.53700
vt 7.25400 -4.37800
vt 7.15600 -4.20800
vt 8.09200 -4.17200
vt 7.35200 -4.54800
vt 7.45000 -4.71800
vt 6.96000 -3.86900
vt 7.77200 -3.40000
vt 7.05800 -4.03800
vt 6.86400 -3.70300
vt 4.74400 -2.90200
vt 6.67900 -6.25200
vt 4.91500 -2.81000
vt 6.84700 -6.15600
vt 5.08500 -2.71900
vt 7.01400 -6.06100
vt 5.25500 -2.62800
vt 7.18200 -5.96500
vt 9.33000 -7.50100
vt 4.99900 0.00000
vt 5.99600 -2.86100
vt 6.09200 -3.02900
vt 6.18900 -3.19600
vt 6.28600 -3.36400
vt 6.67300 -4.03400
vt 6.77100 -4.20400
vt 6.86900 -4.37400
vt 6.96700 -4.54300
vt 6.38300 -3.53200
vt 6.57600 -3.86700
vt 6.47900 -3.69900
vt 7.16200 -4.88200
vt 7.26000 -5.05200
vt 7.06400 -4.71300
vt 7.35800 -5.22100
vt 6.29400 -0.17100
vt 9.82900 -6.29500
vt 7.50000 -0.67000
vt 10.00000 -5.00000
vt 8.53500 -1.46500
vt 9.82900 -3.70600
vt 9.33000 -2.50100
vt 0.25190 -0.96870
vt 0.49990 -0.99800
vt 0.25190 -0.99800
vt -1.98000 0.21460
vt -1.89010 0.22050
vt -1.98000 0.19900
vt -1.98000 0.23030
vt -1.98430 0.24990
vt -1.99750 0.23030
vt 0.81830 -0.90620
vt 0.87490 -0.90620
vt 0.81830 -0.92280
vt 0.87490 -0.93940
vt 0.81830 -0.93940
vt 0.25190 -0.90620
vt 0.49990 -0.87690
vt 0.25190 -0.93940
vt 0.25190 -0.87690
vt -1.97020 0.16190
vt -1.83150 0.18340
vt -1.97020 0.10920
vt -1.79250 0.14240
vt -0.98240 0.23240
vt -0.89250 0.22650
vt -0.98240 0.20110
vt -0.99800 0.23430
vt -0.98630 0.24990
vt -0.98430 0.00190
vt -0.97650 0.07220
vt -0.87520 0.00190
vt -0.76750 0.07220
vt -0.83000 0.18740
vt -0.79100 0.14060
vt -0.97650 0.14060
vt 0.74800 -0.96280
vt 0.74800 -0.99800
vt 0.66210 -0.99800
vt 0.74800 -0.87690
vt 0.74800 -0.92570
vt 0.66210 -0.87690
vt -0.76750 0.00190
vt 0.81830 -0.96870
vt 0.87490 -0.99800
vt 0.81830 -0.99800
vt 0.87490 -0.96870
vt 0.75190 -0.99800
vt 0.75190 -0.96870
vt -1.99750 0.19900
vt -1.99750 0.21460
vt 0.75190 -0.87690
vt 0.75190 -0.90620
vt 0.81830 -0.87690
vt -1.98970 0.16190
vt 0.87490 -0.87690
vt -1.99020 0.06440
vt -1.97650 0.01750
vt -1.99800 0.01750
vt -1.96940 0.06200
vt 0.75190 -0.93940
vt -1.98970 0.10920
vt 0.75190 -0.92280
vt -1.88670 0.24020
vt -1.82030 0.19920
vt -1.76710 0.07200
vt -1.76710 0.00170
vt -1.77730 0.14840
vt -1.75190 0.07220
vt -1.75190 0.00190
vt -0.99800 0.20110
vt -0.99800 0.00190
vt -0.99020 0.07220
vt -0.99020 0.14060
vt -0.88670 0.24020
vt -0.82030 0.19920
vt -0.77730 0.14840
vt -0.75190 0.07100
vt -0.75190 0.00190
vt 0.87490 -0.92570
vt 0.99800 -0.96280
vt 0.87490 -0.96280
vt 0.99800 -0.92570
vt 0.99800 -0.87690
vt 0.99800 -0.99800
vt 2.68740 -0.91790
vt 2.68740 -0.95700
vt 2.57420 -0.92960
vt 2.43940 -0.91790
vt 2.57220 -0.92960
vt 2.43940 -0.95700
vt 2.57420 -0.99600
vt 2.68740 -0.99600
vt 2.44530 -0.99600
vt 2.44530 -0.92960
vt 2.25190 -0.92960
vt 2.34860 -0.99600
vt 2.25190 -0.99600
vt 2.34860 -0.92960
vt 2.25190 -0.87690
vt 2.34860 -0.87690
vt 2.68740 -0.87690
vt 2.57420 -0.87690
vt 2.44530 -0.87690
vt 2.66010 -0.92960
vt 2.74800 -0.99600
vt 2.66010 -0.99600
vt 2.74800 -0.92960
vt 2.74800 -0.87690
vt 2.66010 -0.87690
vt 2.74800 -0.95700
vt 2.74800 -0.91790
vt 2.57220 -0.99600
vt 2.57220 -0.87690
vt 2.43940 -0.87690
vt 2.43940 -0.99600
vt 2.87490 -0.95700
vt 2.99800 -0.99800
vt 2.87490 -0.99800
vt 2.99800 -0.95700
vt 2.99800 -0.87690
vt 2.87490 -0.91790
vt 2.87490 -0.87690
vt 2.99800 -0.91790
vt 2.25190 -0.95700
vt 2.25190 -0.91790
vt 2.35150 -0.95700
vt 2.35150 -0.91790
vt 2.35150 -0.87690
vt 2.35150 -0.99600
vt 3.02730 -0.83210
vt 3.00190 -0.76960
vt 3.00740 -0.83160
vt 3.02140 -0.76760
vt 3.02530 -0.91220
vt 2.99990 -0.99810
vt 3.01950 -0.99810
vt 3.00740 -0.91070
vt 3.01950 -0.75010
vt 3.10540 -0.77150
vt 3.11320 -0.75980
vt 3.16990 -0.81260
vt 3.18160 -0.80280
vt 3.20990 -0.85670
vt 3.23890 -0.93190
vt 3.22260 -0.85160
vt 3.24800 -0.92780
vt 3.23820 -0.99810
vt 3.24800 -0.99810
vt 2.01950 -0.75010
vt 2.00190 -0.78720
vt 2.01950 -0.78720
vt 2.00190 -0.76760
vt 2.02920 -0.81450
vt 2.00970 -0.81060
vt 2.03510 -0.90040
vt 2.01170 -0.90040
vt 2.00190 -0.99810
vt 2.03120 -0.99810
vt 2.11130 -0.75790
vt 2.10930 -0.77540
vt 2.18550 -0.80670
vt 2.17570 -0.82040
vt 2.23630 -0.89070
vt 2.24990 -0.99810
vt 2.21870 -0.89070
vt 2.23240 -0.99810
vt 0.99990 -0.49810
vt 0.74990 -0.09380
vt 0.74990 -0.49810
vt 0.99990 -0.09380
vt 1.24990 -0.09380
vt 1.24990 -0.49810
vt 1.49990 -0.09380
vt 1.49990 -0.49810
vt 0.49990 -0.49810
vt 0.49990 -0.09380
vt 1.74990 -0.49810
vt 1.74990 -0.09380
vt 0.24990 -0.09380
vt 0.24990 -0.49810
vt 2.91650 -1.67380
vt 2.74990 -1.49990
vt 2.91650 -1.49990
vt 2.74990 -1.67380
vt 2.58290 -1.67380
vt 2.41650 -1.49990
vt 2.58290 -1.49990
vt 2.41650 -1.67380
vt 3.08330 -1.67380
vt 3.08330 -1.49990
vt 1.99990 -0.49810
vt 1.99990 -0.09380
vt 0.00000 -0.09380
vt 0.00000 -0.49810
vt 3.24990 -1.67380
vt 3.24990 -1.49990
vt 3.41650 -1.49990
vt 3.41650 -1.67380
vt 2.24990 -1.67380
vt 2.08330 -1.49990
vt 2.24990 -1.49990
vt 2.08330 -1.67380
vt 2.24990 -0.09380
vt 2.24990 -0.49810
vt 5.99990 -0.09380
vt 5.74990 -0.49810
vt 5.99990 -0.49810
vt 5.74990 -0.09380
vt 1.91600 -1.49990
vt 1.91600 -1.67380
vt 3.58290 -1.67380
vt 3.58290 -1.49990
vt 2.49990 -0.49810
vt 2.49990 -0.09380
vt 5.49990 -0.09380
vt 5.49990 -0.49810
vt 1.74990 -1.49990
vt 1.74990 -1.67380
vt 3.74990 -1.67380
vt 3.74990 -1.49990
vt 1.58300 -1.49990
vt 1.58300 -1.67380
vt 3.91590 -1.67380
vt 3.91590 -1.49990
vt 4.24990 -1.67380
vt 4.08330 -1.67380
vt 4.24990 -1.62280
vt 2.74990 -0.49810
vt 2.74990 -0.09380
vt 5.24990 -0.09380
vt 5.24990 -0.49810
vt 4.41650 -1.67380
vt 4.08330 -1.49990
vt 5.08330 -1.67380
vt 5.08330 -1.61860
vt 5.24990 -1.67380
vt 4.41650 -1.62950
vt 4.58290 -1.67380
vt 4.91590 -1.67380
vt 4.58290 -1.65710
vt 4.74990 -1.67380
vt 4.91590 -1.62700
vt 4.74990 -1.64990
vt 5.24990 -1.49990
vt 4.24990 -1.49990
vt 4.41650 -1.49990
vt 1.41660 -1.49990
vt 1.41660 -1.67380
vt 4.58290 -1.49990
vt 4.91590 -1.49990
vt 4.74990 -1.49990
vt 5.08330 -1.49990
vt 2.99990 -0.09380
vt 2.99990 -0.49810
vt 4.99990 -0.09380
vt 4.99990 -0.49810
vt 1.24990 -1.49990
vt 1.24990 -1.67380
vt 3.24990 -0.09380
vt 3.24990 -0.49810
vt 4.74990 -0.49810
vt 4.74990 -0.09380
vt 3.49990 -0.49810
vt 3.49990 -0.09380
vt 4.49990 -0.09380
vt 4.49990 -0.49810
vt 3.74990 -0.09380
vt 3.74990 -0.49810
vt 4.24990 -0.49810
vt 4.24990 -0.09380
vt 3.99990 -0.49810
vt 3.99990 -0.09380
vt 0.00030 0.27810
vt 0.21090 0.00780
vt 0.04290 0.00780
vt -0.01160 0.42420
vt -0.13280 0.24210
vt 0.08180 0.37210
vt 0.18710 0.23690
vt 0.34660 0.27340
vt 0.25260 0.50250
vt 0.16340 0.46610
vt 0.34170 0.53900
vt 0.06640 0.54410
vt 0.49410 0.54680
vt 0.38330 0.88960
vt 0.28510 0.80460
vt 0.67080 0.24210
vt 0.78320 0.00780
vt 0.68160 0.00780
vt 0.48820 0.96870
vt 0.66010 0.47650
vt 0.77340 0.46870
vt 0.85540 0.70310
vt 0.94330 0.40620
vt 0.86710 0.46090
vt 1.03320 0.00780
vt 0.96870 0.00780
vt -0.09570 0.00780
vt -0.21090 0.16400
vt -0.20310 0.00780
vt 0.35150 0.00780
vt 0.49410 0.27730
vt 0.49410 0.00780
vt 0.14450 0.66400
vt 0.21670 0.73430
vt 0.62490 0.96870
vt 0.87300 0.00780
vt 0.74020 0.81240
vt 0.75640 0.12350
vt 0.75780 0.00780
vt 0.73240 0.00780
vt 0.67620 0.37490
vt 0.72700 0.24020
vt 0.68160 0.50780
vt 0.78320 0.46870
vt 0.75510 0.23920
vt 0.78320 0.23820
vt 0.69330 0.69530
vt 0.50970 0.49210
vt 0.39450 0.51560
vt 0.53120 0.63280
vt 0.39450 0.39550
vt 0.29290 0.49990
vt 0.58250 0.25970
vt 0.63470 0.00780
vt 0.58780 0.00780
vt 0.62670 0.25090
vt 0.53830 0.26850
vt 0.54100 0.00780
vt 0.59000 0.38760
vt 0.63310 0.38130
vt 0.78320 0.12300
vt 0.54600 0.38620
vt 0.59760 0.51560
vt 0.63960 0.51170
vt 0.55370 0.50390
vt 0.50190 0.38470
vt 0.66110 0.70700
vt 0.62890 0.71870
vt 0.58000 0.67570
vt 0.39450 0.27530
vt 0.39450 0.00780
vt 0.96670 0.12100
vt 0.96670 0.00780
vt 0.96670 0.23430
vt 0.96670 0.46090
vt 0.29100 0.27440
vt 0.29100 0.00780
vt 0.19530 0.49990
vt 0.18940 0.27340
vt 0.18940 0.00780
vt -0.06440 -0.76370
vt -0.18740 -0.91410
vt -0.16010 -0.99220
vt -0.08490 -0.70510
vt 0.01750 -0.49610
vt 0.03120 -0.53520
vt 0.10350 -0.32820
vt 0.12690 -0.32820
vt -0.07030 -0.99220
vt 0.07910 -0.62900
vt 0.22260 -0.08600
vt 0.26950 -0.22660
vt 0.08440 -0.81450
vt 0.23920 -0.63680
vt 0.08980 -0.99220
vt 0.24990 -0.99220
vt 0.64250 -0.02350
vt 0.46380 -0.08990
vt 0.64160 -0.08990
vt 0.46480 -0.02350
vt 0.45700 -0.46880
vt 0.45700 -0.99220
vt 0.64060 -0.15630
vt 0.46280 -0.15630
vt 0.68940 -0.07820
vt 0.69280 -0.12180
vt 0.73630 -0.13290
vt 0.73240 -0.18760
vt 0.65230 -0.46100
vt 0.69300 -0.17190
vt 0.79680 -0.19930
vt 0.79100 -0.25790
vt 0.85740 -0.26570
vt 0.83590 -0.32040
vt 0.73040 -0.21880
vt 0.78900 -0.32040
vt 0.64840 -0.99220
vt 0.28320 -0.08600
vt 0.93740 -0.53910
vt 0.93210 -0.57430
vt 0.82420 -0.39850
vt 0.32810 -0.17970
vt 0.74260 -0.41020
vt 0.78390 -0.46880
vt 0.32220 -0.14850
vt 0.34570 -0.21100
vt 0.92670 -0.60940
vt 0.41890 -0.07230
vt 0.82510 -0.52740
vt 0.73330 -0.55470
vt 0.77390 -0.60160
vt 0.91060 -0.68950
vt 0.81440 -0.64850
vt 0.89450 -0.76960
vt 1.01750 -0.81260
vt 0.82610 -0.99220
vt 0.97460 -0.89070
vt -1.69060 -0.50000
vt -0.82780 -0.14430
vt -1.61600 0.06690
vt -1.61600 -1.06690
vt -1.38660 0.58970
vt -1.39710 -1.59530
vt -0.69050 -1.18730
vt -1.04900 -2.04900
vt -1.04900 1.04900
vt -0.18730 0.69050
vt -0.59530 -2.39710
vt -0.59530 1.39710
vt 0.14420 -1.82780
vt 0.49990 -0.50000
vt -0.06690 1.61600
vt -0.06690 -2.61600
vt 0.49990 -2.69060
vt 0.85570 0.82780
vt 0.50000 1.69060
vt 1.06690 -2.61600
vt 1.18730 -1.69050
vt 1.06690 1.61600
vt 1.69050 0.18730
vt 1.59530 1.39710
vt 1.82780 -0.85580
vt 1.59530 -2.39710
vt 2.04900 -2.04900
vt 2.04900 1.04900
vt 2.39710 -1.59530
vt 2.39710 0.59530
vt 2.61600 0.06690
vt 2.61600 -1.06690
vt 2.69060 -0.50000
vt 0.50000 -0.50010
vt 0.89280 -0.50010
vt 0.88530 -0.57670
vt 0.88530 -0.42340
vt 0.86290 -0.65040
vt 0.86290 -0.34970
vt 0.82660 -0.71830
vt 0.82660 -0.28180
vt 0.77780 -0.77790
vt 0.77780 -0.22220
vt 0.71820 -0.82670
vt 0.71820 -0.17340
vt 0.65030 -0.86300
vt 0.65030 -0.13710
vt 0.57660 -0.88540
vt 0.57660 -0.11470
vt 0.50000 -0.89290
vt 0.50000 -0.10720
vt 0.42330 -0.88540
vt 0.42330 -0.11470
vt 0.34960 -0.86300
vt 0.34960 -0.13710
vt 0.28170 -0.82670
vt 0.28170 -0.17340
vt 0.22210 -0.77790
vt 0.22210 -0.22220
vt 0.17330 -0.71830
vt 0.17330 -0.28180
vt 0.13700 -0.65040
vt 0.13700 -0.34970
vt 0.11460 -0.57670
vt 0.11460 -0.42340
vt 0.10710 -0.50010
# 868 texture vertices

g Object_2
usemtl texture0
f 1/3 2/2 3/1
f 3/1 2/2 4/4
f 5/7 6/6 7/5
f 6/6 8/8 7/5
f 1/3 3/1 9/9
f 3/1 10/10 9/9
f 8/8 2/2 7/5
f 9/9 10/10 11/11
f 10/10 12/12 11/11
f 5/7 13/13 6/6
f 6/6 13/13 14/14
f 4/4 2/2 8/8
f 15/16 11/11 16/15
f 16/15 11/11 12/12
f 17/18 18/17 13/13
f 13/13 18/17 14/14
f 19/20 20/19 17/18
f 20/19 18/17 17/18
f 15/16 16/15 21/21
f 16/15 22/22 21/21
f 19/20 23/23 20/19
f 20/19 23/23 24/24
f 25/26 21/21 26/25
f 26/25 21/21 22/22
f 23/23 27/27 24/24
f 24/24 27/27 28/28
f 29/30 25/26 30/29
f 30/29 25/26 26/25
f 31/33 32/32 33/31
f 31/33 33/31 34/34
f 35/36 36/35 27/27
f 36/35 28/28 27/27
f 29/30 30/29 37/37
f 30/29 38/38 37/37
f 37/37 38/38 39/39
f 38/38 40/40 39/39
f 35/36 41/41 36/35
f 36/35 41/41 42/42
f 43/44 39/39 44/43
f 44/43 39/39 40/40
f 34/34 33/31 41/45
f 33/31 42/46 41/45
f 43/44 44/43 45/47
f 44/43 46/48 45/47
f 31/33 47/49 32/32
f 32/32 47/49 48/50
f 47/49 45/47 48/50
f 48/50 45/47 46/48
usemtl texture1
f 49/53 50/52 51/51
f 50/52 52/54 51/51
f 50/52 53/55 52/54
f 53/55 54/56 52/54
f 55/58 49/53 56/57
f 49/53 51/51 56/57
f 53/55 57/59 54/56
f 57/59 58/60 54/56
f 59/62 55/58 60/61
f 55/58 56/57 60/61
f 57/59 61/63 58/60
f 61/63 62/64 58/60
f 63/66 59/62 64/65
f 59/62 60/61 64/65
f 61/63 65/67 62/64
f 65/67 66/68 62/64
f 67/70 63/66 68/69
f 63/66 64/65 68/69
f 65/67 69/71 66/68
f 69/71 70/72 66/68
f 71/74 67/70 72/73
f 67/70 68/69 72/73
f 69/71 73/75 70/72
f 73/75 74/76 70/72
f 75/78 71/74 76/77
f 71/74 72/73 76/77
f 73/75 77/79 74/76
f 77/79 78/80 74/76
f 79/82 75/78 80/81
f 75/78 76/77 80/81
f 77/79 81/83 78/80
f 81/83 82/84 78/80
f 83/86 79/82 84/85
f 79/82 80/81 84/85
f 81/83 85/87 82/84
f 85/87 86/88 82/84
f 87/90 83/86 88/89
f 83/86 84/85 88/89
f 85/87 89/91 86/88
f 89/91 90/92 86/88
f 91/94 87/90 92/93
f 87/90 88/89 92/93
f 89/91 93/95 90/92
f 93/95 94/96 90/92
f 95/98 91/94 96/97
f 91/94 92/93 96/97
f 93/95 97/99 94/96
f 97/99 98/100 94/96
f 99/102 95/98 100/101
f 95/98 96/97 100/101
f 97/99 101/103 98/100
f 101/103 102/104 98/100
f 103/106 99/102 104/105
f 99/102 100/101 104/105
f 101/103 105/107 102/104
f 105/107 106/108 102/104
f 107/110 103/106 108/109
f 103/106 104/105 108/109
f 105/107 109/111 106/108
f 109/111 110/112 106/108
f 111/114 107/110 112/113
f 107/110 108/109 112/113
f 109/111 111/114 110/112
f 111/114 112/113 110/112
g obj1
usemtl mat1
f 113/117 114/116 115/115
f 114/116 116/118 115/115
f 114/116 117/119 116/118
f 117/119 118/120 116/118
f 117/119 119/121 118/120
f 119/121 120/122 118/120
f 121/124 113/117 122/123
f 113/117 115/115 122/123
f 119/121 123/125 120/122
f 123/125 124/126 120/122
f 125/128 121/124 126/127
f 121/124 122/123 126/127
f 127/130 125/128 128/129
f 125/128 126/127 128/129
f 123/125 129/131 124/126
f 129/131 130/132 124/126
f 116/118 131/133 115/115
f 118/120 132/134 116/118
f 120/122 133/135 118/120
f 115/115 134/136 122/123
f 135/138 136/137 116/118
f 116/118 136/137 131/133
f 137/139 135/138 116/118
f 132/134 137/139 116/118
f 115/115 138/141 139/140
f 115/115 139/140 134/136
f 140/142 138/141 115/115
f 131/133 140/142 115/115
f 133/135 141/143 118/120
f 118/120 142/144 132/134
f 141/143 143/145 118/120
f 143/145 142/144 118/120
f 124/126 144/146 120/122
f 145/147 133/135 120/122
f 146/148 145/147 120/122
f 144/146 146/148 120/122
f 122/123 134/136 147/149
f 148/150 126/127 122/123
f 149/151 148/150 122/123
f 122/123 147/149 149/151
f 150/153 151/152 138/141
f 138/141 151/152 139/140
f 151/152 152/154 139/140
f 139/140 152/154 134/136
f 153/155 150/153 140/142
f 150/153 138/141 140/142
f 154/157 155/156 135/138
f 155/156 136/137 135/138
f 156/159 133/135 157/158
f 157/158 133/135 145/147
f 158/160 141/143 156/159
f 156/159 141/143 133/135
f 157/158 145/147 159/161
f 159/161 145/147 146/148
f 160/162 131/133 155/156
f 136/137 155/156 131/133
f 142/144 161/163 132/134
f 161/163 162/164 132/134
f 160/162 153/155 131/133
f 153/155 140/142 131/133
f 158/160 163/165 141/143
f 163/165 143/145 141/143
f 161/163 142/144 163/165
f 163/165 142/144 143/145
f 152/154 164/166 134/136
f 134/136 164/166 147/149
f 164/166 165/167 147/149
f 147/149 165/167 149/151
f 154/157 135/138 166/168
f 166/168 135/138 137/139
f 166/168 137/139 162/164
f 162/164 137/139 132/134
f 124/126 167/169 144/146
f 148/150 168/170 126/127
f 149/151 169/171 148/150
f 144/146 170/172 146/148
f 171/173 167/169 124/126
f 168/170 172/174 126/127
f 173/175 168/170 148/150
f 167/169 174/176 144/146
f 165/167 169/171 149/151
f 170/172 159/161 146/148
f 169/171 173/175 148/150
f 174/176 170/172 144/146
f 173/175 172/174 168/170
f 171/173 174/176 167/169
f 130/132 171/173 124/126
f 172/174 128/129 126/127
f 175/177 172/174 173/175
f 171/173 176/178 174/176
f 177/179 169/171 165/167
f 170/172 178/180 159/161
f 177/179 173/175 169/171
f 174/176 178/180 170/172
f 175/177 179/181 172/174
f 180/182 176/178 171/173
f 177/179 175/177 173/175
f 176/178 178/180 174/176
f 130/132 180/182 171/173
f 179/181 128/129 172/174
f 181/184 166/168 182/183
f 182/183 166/168 162/164
f 183/186 156/159 184/185
f 184/185 156/159 157/158
f 185/187 158/160 183/186
f 183/186 158/160 156/159
f 184/185 157/158 178/180
f 178/180 157/158 159/161
f 161/163 186/188 162/164
f 186/188 182/183 162/164
f 187/189 163/165 185/187
f 185/187 163/165 158/160
f 186/188 161/163 187/189
f 187/189 161/163 163/165
f 188/190 154/157 181/184
f 181/184 154/157 166/168
f 188/190 189/191 154/157
f 189/191 155/156 154/157
f 189/191 190/192 155/156
f 155/156 190/192 160/162
f 190/192 191/193 160/162
f 191/193 153/155 160/162
f 150/153 153/155 192/194
f 191/193 192/194 153/155
f 164/166 152/154 193/195
f 152/154 194/196 193/195
f 194/196 152/154 195/197
f 152/154 151/152 195/197
f 165/167 164/166 177/179
f 164/166 193/195 177/179
f 151/152 150/153 195/197
f 150/153 192/194 195/197
f 177/179 196/198 175/177
f 196/198 179/181 175/177
f 180/182 197/199 176/178
f 197/199 178/180 176/178
f 180/182 198/200 197/199
f 199/201 184/185 178/180
f 193/195 200/202 177/179
f 201/203 128/129 179/181
f 130/132 202/204 180/182
f 202/204 198/200 180/182
f 203/205 128/129 201/203
f 182/183 204/206 181/184
f 183/186 205/207 185/187
f 185/187 205/207 187/189
f 205/207 182/183 186/188
f 205/207 186/188 187/189
f 181/184 204/206 188/190
f 204/206 189/191 188/190
f 195/197 206/208 194/196
f 192/194 206/208 195/197
f 204/206 190/192 189/191
f 191/193 206/208 192/194
f 190/192 206/208 191/193
f 202/204 207/209 198/200
f 129/131 208/210 130/132
f 208/210 209/211 130/132
f 210/213 127/130 211/212
f 127/130 128/129 211/212
f 209/211 202/204 130/132
f 212/214 205/207 183/186
f 194/196 206/208 213/215
f 203/205 211/212 128/129
f 198/200 199/201 197/199
f 199/201 178/180 197/199
f 200/202 214/216 177/179
f 214/216 196/198 177/179
f 201/203 179/181 214/216
f 214/216 179/181 196/198
f 212/214 183/186 199/201
f 183/186 184/185 199/201
f 194/196 213/215 193/195
f 213/215 200/202 193/195
f 205/207 204/206 182/183
f 204/206 206/208 190/192
f 209/211 215/217 202/204
f 216/218 205/207 212/214
f 213/215 206/208 217/219
f 218/220 211/212 203/205
f 209/211 219/221 215/217
f 220/222 205/207 216/218
f 221/223 211/212 218/220
f 217/219 206/208 222/224
f 207/209 212/214 198/200
f 212/214 199/201 198/200
f 213/215 223/225 200/202
f 223/225 214/216 200/202
f 203/205 201/203 223/225
f 223/225 201/203 214/216
f 209/211 224/226 219/221
f 206/208 225/227 222/224
f 226/228 205/207 220/222
f 227/229 211/212 221/223
f 209/211 228/230 224/226
f 229/231 205/207 226/228
f 206/208 230/232 225/227
f 231/233 211/212 227/229
f 207/209 202/204 232/234
f 215/217 232/234 202/204
f 232/234 216/218 207/209
f 216/218 212/214 207/209
f 233/235 223/225 217/219
f 217/219 223/225 213/215
f 218/220 203/205 233/235
f 233/235 203/205 223/225
f 234/236 228/230 209/211
f 206/208 235/237 230/232
f 229/231 236/238 205/207
f 231/233 237/239 211/212
f 234/236 238/240 228/230
f 230/232 235/237 239/241
f 240/242 236/238 229/231
f 241/243 237/239 231/233
f 232/234 215/217 242/244
f 219/221 242/244 215/217
f 242/244 220/222 232/234
f 220/222 216/218 232/234
f 221/223 218/220 243/245
f 243/245 218/220 233/235
f 222/224 243/245 217/219
f 243/245 233/235 217/219
f 234/236 244/246 238/240
f 239/241 235/237 245/247
f 246/248 236/238 240/242
f 247/249 237/239 241/243
f 235/237 248/250 245/247
f 234/236 249/251 244/246
f 250/252 236/238 246/248
f 251/253 237/239 247/249
f 252/254 242/244 224/226
f 224/226 242/244 219/221
f 226/228 220/222 252/254
f 252/254 220/222 242/244
f 225/227 253/255 222/224
f 253/255 243/245 222/224
f 253/255 227/229 243/245
f 227/229 221/223 243/245
f 235/237 254/256 248/250
f 255/257 237/239 251/253
f 234/236 256/258 249/251
f 257/259 236/238 250/252
f 235/237 258/260 254/256
f 255/257 259/261 237/239
f 257/259 260/262 236/238
f 261/263 256/258 234/236
f 208/210 262/264 209/211
f 262/264 234/236 209/211
f 263/265 210/213 237/239
f 210/213 211/212 237/239
f 228/230 264/266 224/226
f 264/266 252/254 224/226
f 229/231 226/228 264/266
f 264/266 226/228 252/254
f 253/255 225/227 265/267
f 230/232 265/267 225/227
f 265/267 231/233 253/255
f 231/233 227/229 253/255
f 254/256 258/260 266/268
f 267/269 259/261 255/257
f 261/263 268/270 256/258
f 269/271 260/262 257/259
f 235/237 206/208 270/272
f 270/272 206/208 204/206
f 270/272 204/206 236/238
f 236/238 204/206 205/207
f 266/268 258/260 271/273
f 272/274 259/261 267/269
f 261/263 273/275 268/270
f 274/276 260/262 269/271
f 258/260 275/277 271/273
f 276/278 260/262 274/276
f 277/279 259/261 272/274
f 261/263 278/280 273/275
f 264/266 228/230 279/281
f 238/240 279/281 228/230
f 264/266 279/281 229/231
f 279/281 240/242 229/231
f 239/241 280/282 230/232
f 280/282 265/267 230/232
f 280/282 241/243 265/267
f 241/243 231/233 265/267
f 258/260 281/283 275/277
f 282/284 260/262 276/278
f 261/263 283/285 278/280
f 284/286 259/261 277/279
f 285/288 286/287 258/260
f 260/262 287/289 285/288
f 258/260 288/290 281/283
f 284/286 289/291 259/261
f 290/292 260/262 282/284
f 291/293 283/285 261/263
f 292/294 279/281 244/246
f 244/246 279/281 238/240
f 246/248 240/242 292/294
f 292/294 240/242 279/281
f 245/247 293/295 239/241
f 293/295 280/282 239/241
f 293/295 247/249 280/282
f 247/249 241/243 280/282
f 258/260 294/296 288/290
f 258/260 295/297 294/296
f 296/299 297/298 285/288
f 298/300 295/297 258/260
f 297/298 299/301 285/288
f 286/287 298/300 258/260
f 285/288 299/301 286/287
f 287/289 296/299 285/288
f 290/292 300/302 260/262
f 300/302 301/303 260/262
f 301/303 302/304 260/262
f 260/262 302/304 287/289
f 303/305 289/291 284/286
f 291/293 304/306 283/285
f 305/307 289/291 303/305
f 306/310 307/309 308/308
f 309/313 310/312 311/311
f 291/293 312/314 304/306
f 308/308 313/316 314/315
f 315/318 309/313 316/317
f 312/314 315/318 316/317
f 313/316 305/307 314/315
f 249/251 317/319 244/246
f 317/319 292/294 244/246
f 250/252 246/248 317/319
f 317/319 246/248 292/294
f 251/253 247/249 318/320
f 318/320 247/249 293/295
f 248/250 318/320 245/247
f 318/320 293/295 245/247
f 305/307 319/321 289/291
f 320/322 312/314 291/293
f 321/323 309/313 315/318
f 308/308 322/324 313/316
f 313/316 319/321 305/307
f 320/322 315/318 312/314
f 323/325 322/324 308/308
f 321/323 324/326 309/313
f 325/327 323/325 308/308
f 324/326 326/328 309/313
f 320/322 321/323 315/318
f 322/324 319/321 313/316
f 289/291 319/321 327/329
f 328/330 320/322 291/293
f 329/331 319/321 322/324
f 320/322 330/332 321/323
f 323/325 331/333 322/324
f 332/334 324/326 321/323
f 333/335 323/325 325/327
f 324/326 334/336 326/328
f 255/257 251/253 335/337
f 335/337 251/253 318/320
f 335/337 318/320 254/256
f 254/256 318/320 248/250
f 256/258 336/338 249/251
f 336/338 317/319 249/251
f 336/338 257/259 317/319
f 257/259 250/252 317/319
f 331/333 329/331 322/324
f 330/332 332/334 321/323
f 329/331 327/329 319/321
f 328/330 330/332 320/322
f 333/335 331/333 323/325
f 332/334 334/336 324/326
f 331/333 327/329 329/331
f 328/330 332/334 330/332
f 235/237 270/272 258/260
f 285/288 258/260 270/272
f 260/262 285/288 236/238
f 285/288 270/272 236/238
f 267/269 255/257 337/339
f 337/339 255/257 335/337
f 337/339 335/337 266/268
f 266/268 335/337 254/256
f 268/270 338/340 256/258
f 338/340 336/338 256/258
f 338/340 269/271 336/338
f 269/271 257/259 336/338
f 262/264 339/341 234/236
f 339/341 261/263 234/236
f 340/342 263/265 259/261
f 263/265 237/239 259/261
f 341/344 342/343 333/335
f 343/345 342/343 341/344
f 342/343 327/329 331/333
f 342/343 331/333 333/335
f 344/346 334/336 332/334
f 344/346 345/347 334/336
f 344/346 332/334 328/330
f 344/346 346/348 345/347
f 347/350 348/349 343/345
f 349/351 348/349 347/350
f 350/352 348/349 349/351
f 351/353 348/349 350/352
f 352/356 353/355 354/354
f 355/358 352/356 356/357
f 346/348 352/356 355/358
f 352/356 354/354 356/357
f 357/361 358/360 359/359
f 353/355 358/360 357/361
f 358/360 360/362 359/359
f 358/360 351/353 360/362
f 343/345 348/349 342/343
f 344/346 352/356 346/348
f 271/273 361/363 266/268
f 361/363 337/339 266/268
f 272/274 267/269 361/363
f 361/363 267/269 337/339
f 273/275 362/364 268/270
f 362/364 338/340 268/270
f 362/364 274/276 338/340
f 274/276 269/271 338/340
f 358/360 348/349 351/353
f 352/356 358/360 353/355
f 361/363 271/273 363/365
f 275/277 363/365 271/273
f 272/274 361/363 277/279
f 363/365 277/279 361/363
f 364/366 276/278 362/364
f 276/278 274/276 362/364
f 278/280 364/366 273/275
f 364/366 362/364 273/275
f 363/365 275/277 365/367
f 281/283 365/367 275/277
f 366/368 282/284 364/366
f 282/284 276/278 364/366
f 277/279 363/365 284/286
f 365/367 284/286 363/365
f 283/285 366/368 278/280
f 366/368 364/366 278/280
f 365/367 281/283 367/369
f 306/310 367/369 281/283
f 284/286 365/367 303/305
f 367/369 303/305 365/367
f 368/370 311/311 366/368
f 311/311 282/284 366/368
f 304/306 368/370 283/285
f 368/370 366/368 283/285
f 281/283 288/290 306/310
f 288/290 307/309 306/310
f 290/292 282/284 310/312
f 310/312 282/284 311/311
f 367/369 306/310 314/315
f 308/308 314/315 306/310
f 303/305 367/369 305/307
f 314/315 305/307 367/369
f 316/317 309/313 368/370
f 309/313 311/311 368/370
f 312/314 316/317 304/306
f 316/317 368/370 304/306
f 339/341 369/371 261/263
f 369/371 291/293 261/263
f 370/372 340/342 289/291
f 340/342 259/261 289/291
f 371/374 372/373 288/290
f 288/290 372/373 307/309
f 288/290 294/296 371/374
f 294/296 373/375 371/374
f 372/373 325/327 307/309
f 307/309 325/327 308/308
f 294/296 295/297 373/375
f 295/297 374/376 373/375
f 375/378 376/377 296/299
f 376/377 297/298 296/299
f 377/380 378/379 302/304
f 302/304 378/379 287/289
f 379/381 374/376 298/300
f 374/376 295/297 298/300
f 376/377 380/382 297/298
f 380/382 299/301 297/298
f 380/382 381/383 299/301
f 299/301 381/383 286/287
f 381/383 379/381 286/287
f 379/381 298/300 286/287
f 378/379 375/378 287/289
f 375/378 296/299 287/289
f 382/385 383/384 290/292
f 383/384 300/302 290/292
f 383/384 384/386 300/302
f 384/386 301/303 300/302
f 326/328 385/387 309/313
f 385/387 310/312 309/313
f 384/386 377/380 301/303
f 377/380 302/304 301/303
f 385/387 382/385 310/312
f 382/385 290/292 310/312
f 372/373 371/374 341/344
f 341/344 371/374 343/345
f 371/374 373/375 343/345
f 343/345 373/375 347/350
f 325/327 372/373 333/335
f 372/373 341/344 333/335
f 373/375 374/376 347/350
f 347/350 374/376 349/351
f 357/361 359/359 375/378
f 359/359 376/377 375/378
f 353/355 357/361 378/379
f 357/361 375/378 378/379
f 380/382 376/377 360/362
f 359/359 360/362 376/377
f 334/336 345/347 326/328
f 345/347 385/387 326/328
f 354/354 353/355 377/380
f 377/380 353/355 378/379
f 355/358 356/357 383/384
f 356/357 384/386 383/384
f 356/357 354/354 384/386
f 354/354 377/380 384/386
f 346/348 355/358 382/385
f 355/358 383/384 382/385
f 360/362 351/353 380/382
f 380/382 351/353 381/383
f 345/347 346/348 385/387
f 346/348 382/385 385/387
f 350/352 349/351 379/381
f 349/351 374/376 379/381
f 351/353 350/352 381/383
f 350/352 379/381 381/383
f 386/388 370/372 327/329
f 370/372 289/291 327/329
f 369/371 387/389 291/293
f 387/389 328/330 291/293
f 388/390 386/388 342/343
f 386/388 327/329 342/343
f 387/389 389/391 328/330
f 389/391 344/346 328/330
f 390/392 388/390 348/349
f 388/390 342/343 348/349
f 389/391 391/393 344/346
f 391/393 352/356 344/346
f 392/394 390/392 358/360
f 390/392 348/349 358/360
f 391/393 392/394 352/356
f 392/394 358/360 352/356
usemtl mat2
f 393/397 394/396 395/395
f 396/400 397/399 398/398
f 398/398 397/399 399/401
f 400/403 399/401 401/402
f 402/406 403/405 404/404
f 405/408 406/407 402/406
f 402/406 406/407 403/405
f 406/411 407/410 408/409
f 408/409 407/410 409/412
f 410/415 411/414 412/413
f 410/415 413/416 411/414
f 414/419 415/418 416/417
f 416/417 417/421 418/420
f 419/424 420/423 421/422
f 419/424 422/425 420/423
f 423/428 424/427 425/426
f 426/431 427/430 428/429
f 429/434 430/433 431/432
f 419/424 432/435 422/425
f 433/438 393/437 434/436
f 393/437 395/439 434/436
f 435/441 436/440 434/436
f 436/440 433/438 434/436
f 437/443 438/442 398/398
f 396/400 398/398 438/442
f 434/436 395/439 405/408
f 395/439 406/407 405/408
f 400/403 437/443 399/401
f 398/398 399/401 437/443
f 439/445 404/404 440/444
f 404/404 441/446 440/444
f 442/447 412/413 438/442
f 412/413 396/400 438/442
f 441/446 404/404 409/448
f 404/404 403/405 409/448
f 443/451 444/450 445/449
f 444/450 446/452 445/449
f 435/441 434/436 447/453
f 434/436 405/408 447/453
f 410/415 412/413 448/454
f 412/413 442/447 448/454
f 395/395 394/396 406/411
f 394/396 407/410 406/411
f 445/449 446/452 448/454
f 446/452 410/415 448/454
f 404/404 439/445 402/406
f 449/455 402/406 439/445
f 401/402 399/401 450/456
f 450/456 399/401 397/399
f 402/406 449/455 405/408
f 447/453 405/408 449/455
f 411/414 397/399 412/413
f 412/413 397/399 396/400
f 394/396 451/430 407/410
f 451/430 452/432 407/410
f 453/396 454/410 451/397
f 451/397 454/410 452/412
f 450/456 397/399 455/457
f 455/457 397/399 411/414
f 446/452 456/458 410/415
f 456/458 413/416 410/415
f 444/450 457/459 446/452
f 457/459 456/458 446/452
f 458/460 455/457 413/416
f 455/457 411/414 413/416
f 458/460 413/416 459/461
f 459/461 413/416 456/458
f 460/432 454/410 461/430
f 453/396 461/430 454/410
f 459/461 456/458 462/462
f 462/462 456/458 457/459
f 460/412 461/397 463/410
f 461/397 464/396 463/410
f 463/410 464/396 429/434
f 464/396 426/431 429/434
f 465/463 414/419 418/420
f 416/417 418/420 414/419
f 466/465 467/464 420/423
f 420/423 467/464 421/422
f 465/463 468/466 414/419
f 414/419 468/466 423/428
f 423/428 468/466 420/423
f 468/466 466/465 420/423
f 425/426 415/418 423/428
f 423/428 415/418 414/419
f 469/467 417/421 415/418
f 417/421 416/417 415/418
f 420/423 422/425 423/428
f 422/425 424/427 423/428
f 429/434 426/431 430/433
f 426/431 428/429 430/433
f 470/468 469/467 425/426
f 469/467 415/418 425/426
f 470/468 425/426 471/469
f 471/469 425/426 424/427
f 471/469 424/427 472/470
f 472/470 424/427 422/425
f 473/471 472/470 432/435
f 472/470 422/425 432/435
f 428/474 474/473 430/472
f 474/473 475/475 430/472
f 430/472 475/475 431/448
f 475/475 476/476 431/448
f 477/477 474/473 427/437
f 427/437 474/473 428/474
f 478/480 479/479 480/478
f 481/483 482/482 483/481
f 484/485 479/479 485/484
f 485/484 479/479 478/480
f 485/484 478/480 486/486
f 486/486 478/480 487/487
f 488/490 489/489 490/488
f 489/489 491/491 490/488
f 490/488 491/491 492/492
f 491/491 493/493 492/492
f 489/489 486/486 491/491
f 486/486 487/487 491/491
f 494/495 478/480 495/494
f 478/480 480/478 495/494
f 494/495 496/496 478/480
f 487/487 478/480 496/496
f 487/487 496/496 491/491
f 493/493 491/491 496/496
f 497/499 488/498 498/497
f 488/498 490/500 498/497
f 499/502 498/497 492/501
f 498/497 490/500 492/501
f 484/485 500/498 479/479
f 500/498 501/503 479/479
f 495/494 480/478 502/501
f 480/478 503/504 502/501
f 501/503 503/504 479/479
f 479/479 503/504 480/478
f 504/505 497/499 482/482
f 497/499 498/497 482/482
f 499/502 505/506 498/497
f 482/482 498/497 505/506
f 505/506 506/507 482/482
f 483/481 482/482 506/507
f 507/508 504/505 481/483
f 504/505 482/482 481/483
f 500/511 508/510 501/509
f 508/510 509/512 501/509
f 502/515 503/514 510/513
f 503/514 511/516 510/513
f 501/509 509/512 503/514
f 509/512 511/516 503/514
f 512/518 513/517 483/481
f 513/517 481/483 483/481
f 481/483 513/517 507/508
f 514/490 507/508 513/517
f 506/507 515/492 483/481
f 512/518 483/481 515/492
f 513/517 512/518 516/519
f 516/519 512/518 517/520
f 512/518 515/492 517/520
f 517/520 515/492 518/521
f 514/490 513/517 519/522
f 519/522 513/517 516/519
f 520/525 521/524 522/523
f 521/524 523/526 522/523
f 524/529 525/528 526/527
f 525/528 527/530 526/527
f 526/527 527/530 522/523
f 522/523 527/530 520/525
f 528/533 529/532 530/531
f 529/532 523/526 530/531
f 531/534 526/527 529/532
f 529/532 526/527 522/523
f 528/533 532/535 529/532
f 532/535 531/534 529/532
f 533/537 524/529 534/536
f 524/529 526/527 534/536
f 532/535 535/538 531/534
f 535/538 534/536 531/534
f 535/538 536/539 534/536
f 534/536 536/539 533/537
f 537/541 538/540 536/539
f 533/537 536/539 538/540
f 539/544 540/543 541/542
f 541/542 540/543 542/545
f 543/547 540/543 544/546
f 540/543 539/544 544/546
f 545/549 543/547 546/548
f 544/546 546/548 543/547
f 547/551 548/550 546/548
f 548/550 545/549 546/548
f 549/553 550/552 542/545
f 550/552 541/542 542/545
f 551/554 544/546 550/552
f 544/546 539/544 550/552
f 552/555 551/554 549/553
f 551/554 550/552 549/553
f 553/556 546/548 551/554
f 546/548 544/546 551/554
f 554/557 547/551 553/556
f 547/551 546/548 553/556
f 555/558 553/556 552/555
f 553/556 551/554 552/555
f 556/559 554/557 555/558
f 553/556 555/558 554/557
f 530/531 523/526 521/524
f 523/526 529/532 522/523
f 526/527 531/534 534/536
f 538/540 524/529 533/537
f 550/552 539/544 541/542
f 557/562 558/561 559/560
f 558/561 560/563 559/560
f 561/565 559/560 562/564
f 559/560 560/563 562/564
f 563/567 561/565 564/566
f 562/564 564/566 561/565
f 557/562 565/568 558/561
f 566/569 558/561 565/568
f 563/567 564/566 567/570
f 564/566 568/571 567/570
f 569/573 570/572 565/568
f 570/572 566/569 565/568
f 557/576 559/575 571/574
f 571/574 559/575 572/577
f 561/580 573/579 574/578
f 573/579 575/581 574/578
f 565/583 557/576 576/582
f 557/576 571/574 576/582
f 567/570 568/571 577/584
f 568/571 578/585 577/584
f 579/587 580/586 569/573
f 580/586 570/572 569/573
f 569/589 565/583 581/588
f 565/583 576/582 581/588
f 572/577 559/575 561/580
f 569/589 581/588 579/590
f 582/591 579/590 581/588
f 567/594 577/593 583/592
f 577/593 584/595 583/592
f 583/592 573/579 567/594
f 572/577 561/580 574/578
f 585/597 577/584 586/596
f 578/585 586/596 577/584
f 579/600 587/599 580/598
f 588/601 580/598 587/599
f 575/581 573/579 583/592
f 577/593 585/602 584/595
f 585/602 589/603 584/595
f 587/605 579/590 590/604
f 579/590 582/591 590/604
f 585/597 586/596 591/606
f 586/596 592/607 591/606
f 593/609 594/608 587/599
f 594/608 588/601 587/599
f 585/602 591/610 589/603
f 589/603 591/610 595/611
f 593/613 587/605 596/612
f 596/612 587/605 590/604
f 591/610 597/614 595/611
f 595/611 597/614 598/615
f 599/617 593/613 600/616
f 600/616 593/613 596/612
f 601/620 602/619 603/618
f 591/606 592/607 597/621
f 592/607 604/622 597/621
f 599/624 605/623 593/609
f 605/623 594/608 593/609
f 606/625 601/620 603/618
f 601/620 607/626 602/619
f 608/629 609/628 610/627
f 611/631 612/630 606/625
f 606/625 612/630 601/620
f 609/628 613/632 610/627
f 614/633 612/630 611/631
f 613/632 615/635 616/634
f 616/634 615/635 617/636
f 609/628 615/635 613/632
f 618/637 609/628 608/629
f 619/638 607/626 601/620
f 612/630 620/639 601/620
f 597/614 621/640 598/615
f 621/640 622/641 598/615
f 599/617 600/616 607/626
f 607/626 600/616 602/619
f 623/642 612/630 614/633
f 601/620 620/639 619/638
f 609/628 624/643 615/635
f 615/635 625/644 617/636
f 618/637 626/645 609/628
f 623/642 620/639 612/630
f 621/647 597/621 627/646
f 604/622 627/646 597/621
f 607/649 628/648 599/624
f 628/648 605/623 599/624
f 626/645 624/643 609/628
f 615/635 624/643 625/644
f 621/640 618/650 622/641
f 622/641 618/650 608/651
f 617/636 614/633 616/634
f 616/634 614/633 611/631
f 618/653 621/647 629/652
f 621/647 627/646 629/652
f 607/649 619/654 628/648
f 630/655 628/648 619/654
f 625/644 623/642 617/636
f 617/636 623/642 614/633
f 618/653 629/652 626/656
f 629/652 631/657 626/656
f 620/659 632/658 619/654
f 632/658 630/655 619/654
f 624/661 626/656 633/660
f 631/657 633/660 626/656
f 620/659 634/662 632/658
f 635/663 632/658 634/662
f 624/661 633/660 636/664
f 633/660 637/665 636/664
f 636/664 637/665 634/662
f 637/665 635/663 634/662
usemtl texture2
f 409/668 407/667 638/666
f 444/670 638/666 457/669
f 638/666 407/667 639/671
f 639/671 407/667 640/672
f 639/671 457/669 638/666
f 641/674 640/672 642/673
f 639/671 640/672 643/675
f 641/674 642/673 644/676
f 641/674 643/675 640/672
f 639/671 645/677 457/669
f 646/679 644/676 647/678
f 646/679 648/680 644/676
f 460/683 463/682 649/681
f 421/684 646/679 647/678
f 650/681 651/686 652/685
f 649/681 463/682 651/686
f 653/689 654/688 655/687
f 431/691 476/690 654/688
f 444/670 443/693 441/692
f 440/694 441/692 443/693
f 638/666 444/670 409/668
f 441/692 409/668 444/670
f 452/695 642/673 407/667
f 642/673 640/672 407/667
f 454/697 656/696 452/695
f 656/696 642/673 452/695
f 656/696 647/678 642/673
f 647/678 644/676 642/673
f 657/698 645/677 643/675
f 643/675 645/677 639/671
f 454/697 460/683 656/696
f 460/683 649/681 656/696
f 658/699 657/698 641/674
f 657/698 643/675 641/674
f 644/676 648/680 641/674
f 648/680 658/699 641/674
f 650/681 652/685 656/696
f 656/696 652/685 647/678
f 652/685 419/700 647/678
f 647/678 419/700 421/684
f 463/682 429/701 651/686
f 429/701 653/689 651/686
f 419/700 652/685 432/702
f 651/686 432/702 652/685
f 651/686 653/689 432/702
f 653/689 655/687 432/702
f 431/691 654/688 429/701
f 429/701 654/688 653/689
f 494/705 495/704 659/703
f 660/681 661/707 662/706
f 662/706 661/707 663/708
f 661/707 664/710 665/709
f 661/707 665/709 663/708
f 664/710 666/711 665/709
f 663/708 665/709 667/712
f 668/715 669/714 670/713
f 669/714 671/717 672/716
f 492/720 493/719 673/718
f 493/719 674/721 673/718
f 494/705 661/707 496/683
f 496/683 661/707 660/681
f 494/705 659/703 661/707
f 659/703 664/710 661/707
f 496/683 660/681 493/719
f 674/721 493/719 660/681
f 499/723 492/720 675/722
f 675/722 492/720 673/718
f 673/718 674/721 676/724
f 674/721 677/725 676/724
f 674/721 660/681 677/725
f 662/706 677/725 660/681
f 502/682 678/726 495/704
f 495/704 678/726 659/703
f 675/722 673/718 679/727
f 676/724 679/727 673/718
f 659/703 678/726 664/710
f 678/726 666/711 664/710
f 499/723 675/722 505/697
f 505/697 675/722 680/696
f 676/724 677/725 681/728
f 677/725 682/729 681/728
f 662/706 663/708 677/725
f 682/729 677/725 663/708
f 676/724 681/728 679/727
f 683/730 679/727 681/728
f 675/722 679/727 680/696
f 680/696 679/727 684/731
f 679/727 683/730 684/731
f 684/731 683/730 670/713
f 682/729 663/708 685/732
f 685/732 663/708 667/712
f 682/729 685/732 681/728
f 681/728 685/732 686/733
f 681/728 686/733 683/730
f 687/734 683/730 686/733
f 506/736 505/697 688/735
f 680/696 688/735 505/697
f 683/730 687/734 670/713
f 670/713 687/734 668/715
f 680/696 684/731 688/735
f 684/731 672/716 688/735
f 684/731 670/713 672/716
f 670/713 669/714 672/716
f 510/738 689/737 502/682
f 502/682 689/737 678/726
f 689/737 690/739 678/726
f 678/726 690/739 666/711
f 665/709 666/711 691/740
f 666/711 690/739 691/740
f 515/742 506/736 692/741
f 688/735 692/741 506/736
f 692/741 688/735 671/717
f 672/716 671/717 688/735
f 693/744 692/741 694/743
f 671/717 694/743 692/741
f 692/741 693/744 515/742
f 693/744 518/745 515/742
f 695/748 696/747 697/746
f 696/747 698/749 697/746
f 698/749 699/750 697/746
f 697/746 699/750 700/751
f 699/750 701/752 700/751
f 700/751 701/752 702/753
f 703/755 704/754 700/751
f 704/754 697/746 700/751
f 701/752 525/756 702/753
f 702/753 525/756 524/756
f 705/759 706/758 707/757
f 706/758 703/755 707/757
f 706/758 705/759 708/760
f 708/760 705/759 709/761
f 710/764 711/763 554/762
f 711/763 547/765 554/762
f 712/767 709/761 713/766
f 709/761 714/759 713/766
f 715/769 711/763 716/768
f 711/763 710/764 716/768
f 554/762 717/770 718/764
f 719/771 718/764 717/770
f 717/770 720/772 719/771
f 721/773 719/771 720/772
f 704/754 695/748 697/746
f 722/774 713/766 716/768
f 713/766 715/769 716/768
f 716/768 710/764 723/775
f 723/775 710/764 719/771
f 724/777 721/773 725/776
f 721/773 720/772 725/776
f 703/755 700/751 702/753
f 726/779 724/777 727/778
f 724/777 725/776 727/778
f 728/780 723/775 721/773
f 723/775 719/771 721/773
f 707/757 702/753 524/756
f 729/781 728/780 724/777
f 728/780 721/773 724/777
f 730/782 712/767 722/774
f 712/767 713/766 722/774
f 704/754 703/755 706/758
f 703/755 702/753 707/757
f 704/754 706/758 708/760
f 707/757 524/756 538/783
f 727/778 731/784 726/779
f 732/785 726/779 731/784
f 729/781 724/777 733/786
f 733/786 724/777 726/779
f 707/757 538/783 734/787
f 735/789 736/788 729/781
f 736/788 728/780 729/781
f 737/791 738/757 739/790
f 733/786 726/779 740/792
f 740/792 726/779 732/785
f 741/793 737/791 739/790
f 735/789 729/781 742/794
f 742/794 729/781 733/786
f 714/759 738/757 737/791
f 743/796 744/795 735/789
f 744/795 736/788 735/789
f 711/763 741/793 547/765
f 745/792 746/797 733/786
f 742/794 733/786 746/797
f 715/769 737/791 741/793
f 715/769 741/793 711/763
f 747/798 743/796 742/794
f 743/796 735/789 742/794
f 705/759 737/791 713/766
f 742/794 746/797 747/798
f 747/798 746/797 748/799
f 713/766 737/791 715/769
f 722/774 716/768 723/775
f 736/788 723/775 728/780
f 736/788 722/774 723/775
f 744/795 722/774 736/788
f 730/782 722/774 744/795
f 749/800 732/785 731/784
f 749/800 740/792 732/785
f 746/797 740/792 749/800
f 730/782 744/795 750/801
f 750/801 744/795 743/796
f 750/801 743/796 747/798
f 751/802 746/797 749/800
f 748/799 746/797 751/802
f 750/801 747/798 748/799
f 750/801 748/799 751/802
usemtl texture3
f 558/805 752/804 560/803
f 560/803 752/804 562/806
f 752/804 558/805 753/807
f 754/809 564/808 562/806
f 752/804 754/809 562/806
f 564/808 754/809 568/810
f 755/812 753/807 570/811
f 755/812 752/804 753/807
f 754/809 578/813 568/810
f 580/814 755/812 570/811
f 754/809 756/815 578/813
f 752/804 757/816 754/809
f 755/812 580/814 758/817
f 757/816 752/804 755/812
f 756/815 586/818 578/813
f 757/816 756/815 754/809
f 586/818 756/815 592/819
f 759/820 755/812 758/817
f 759/820 757/816 755/812
f 594/821 759/820 758/817
f 592/819 756/815 760/822
f 756/815 757/816 761/823
f 756/815 761/823 760/822
f 605/824 759/820 594/821
f 757/816 759/820 762/825
f 759/820 605/824 628/826
f 757/816 763/827 761/823
f 761/823 627/828 760/822
f 763/827 757/816 762/825
f 762/825 759/820 628/826
f 627/828 761/823 629/829
f 762/825 628/826 630/830
f 761/823 763/827 631/831
f 761/823 631/831 629/829
f 632/832 762/825 630/830
f 763/827 762/825 635/833
f 762/825 632/832 635/833
f 763/827 633/834 631/831
f 633/834 763/827 637/835
f 637/835 763/827 635/833
usemtl texture4
f 764/838 765/837 766/836
f 765/837 767/839 766/836
f 768/840 764/838 766/836
f 767/839 769/841 766/836
f 770/842 768/840 766/836
f 769/841 771/843 766/836
f 772/844 770/842 766/836
f 771/843 773/845 766/836
f 774/846 772/844 766/836
f 773/845 775/847 766/836
f 776/848 774/846 766/836
f 775/847 777/849 766/836
f 778/850 776/848 766/836
f 777/849 779/851 766/836
f 780/852 778/850 766/836
f 779/851 781/853 766/836
f 782/854 780/852 766/836
f 781/853 783/855 766/836
f 784/856 782/854 766/836
f 783/855 785/857 766/836
f 786/858 784/856 766/836
f 785/857 787/859 766/836
f 788/860 786/858 766/836
f 787/859 789/861 766/836
f 790/862 788/860 766/836
f 789/861 791/863 766/836
f 792/864 790/862 766/836
f 791/863 793/865 766/836
f 794/866 792/864 766/836
f 793/865 795/867 766/836
f 796/868 794/866 766/836
f 795/867 796/868 766/836
# 1236 elements

