# Object Export From Tinkercad Server 2015

mtllib obj.mtl

o obj_0
v -1.138 		-20.038 		7.5
v -0.198 		-16.96 		6.71
v -1.138 		-18.302 		6.71
v -0.5 		-18.67 		7.5
v -1.83 		-19.786 		6.71
v -0.544 		-16.67 		5.868
v -1.529 		-18.076 		5.868
v -2.254 		-19.632 		5.868
v -0.66 		-16.572 		5
v -1.66 		-18 		5
v -2.397 		-19.58 		5
v -0.544 		-16.67 		4.132
v -1.529 		-18.076 		4.132
v -2.254 		-19.632 		4.132
v -1.529 		-24.504 		7.5
v -1.66 		-23 		7.5
v -1.529 		-21.496 		7.5
v -2.397 		-23 		6.71
v -2.254 		-21.368 		6.71
v -2.848 		-23 		5.868
v -2.698 		-21.29 		5.868
v -3 		-23 		5
v -2.848 		-21.264 		5
v -2.848 		-23 		4.132
v -2.698 		-21.29 		4.132
v -0.198 		-16.96 		3.29
v -1.138 		-18.302 		3.29
v -1.83 		-19.786 		3.29
v -0.5 		-18.67 		2.5
v -1.138 		-20.038 		2.5
v -0.198 		-20.38 		1.786
v -2.397 		-23 		3.29
v -2.254 		-21.368 		3.29
v -1.529 		-24.504 		2.5
v -1.66 		-23 		2.5
v -1.529 		-21.496 		2.5
v -0.66 		-23 		1.786
v -0.544 		-24.33 		1.786
v -0.544 		-21.67 		1.786
v -0.198 		-25.62 		8.214
v -1.138 		-25.962 		7.5
v -0.5 		-27.33 		7.5
v -2.254 		-24.632 		6.71
v -1.83 		-26.214 		6.71
v -1.138 		-27.698 		6.71
v -2.698 		-24.71 		5.868
v -2.254 		-26.368 		5.868
v -1.529 		-27.924 		5.868
v -2.848 		-24.736 		5
v -2.397 		-26.42 		5
v -1.66 		-28 		5
v -2.698 		-24.71 		4.132
v -2.254 		-26.368 		4.132
v -1.529 		-27.924 		4.132
v 10.83 		-16.366 		8.214
v 16.848 		-23 		4.132
v 17 		-23 		5
v 16.698 		-21.29 		4.132
v 16.397 		-19.58 		5
v 9.5 		-18.67 		0.67
v 7 		-23 		10
v 8.71 		-20.038 		0.302
v 9.198 		-20.38 		0.302
v 16.254 		-21.368 		3.29
v 9.62 		-15.802 		8.214
v 8.33 		-15.456 		8.214
v 7 		-23 		0
v 16.397 		-23 		3.29
v -0.198 		-29.04 		6.71
v -0.544 		-29.33 		5.868
v 15.529 		-24.504 		2.5
v -0.66 		-29.428 		5
v -0.544 		-29.33 		4.132
v 15.66 		-23 		2.5
v -2.254 		-24.632 		3.29
v -1.83 		-26.214 		3.29
v 16.698 		-24.71 		5.868
v 16.397 		-26.42 		5
v -1.138 		-27.698 		3.29
v 16.848 		-24.736 		5
v -0.198 		-29.04 		3.29
v 16.698 		-24.71 		4.132
v 12.567 		-19.786 		8.83
v 14.198 		-20.38 		8.214
v 13.634 		-19.17 		8.214
v 12.868 		-18.076 		8.214
v 8.71 		-18.302 		9.33
v 11.132 		-18.076 		8.83
v 10.214 		-17.433 		8.83
v 9.198 		-16.96 		8.83
v 11.924 		-17.132 		8.214
v 15.529 		-21.496 		2.5
v 12.567 		-16.366 		7.5
v 13.04 		-15.802 		6.71
v 13.33 		-15.456 		5.868
v 13.428 		-15.34 		5
v 14.544 		-24.33 		1.786
v 14.66 		-23 		1.786
v 13.33 		-15.456 		4.132
v 8.632 		-32.254 		6.71
v 9.198 		-20.38 		9.698
v 4.38 		-30.198 		8.214
v 8.71 		-20.038 		9.698
v 7 		-30.66 		8.214
v 11.33 		-15.5 		7.5
v 10.83 		-19.786 		9.33
v 9.962 		-14.862 		7.5
v 2.076 		-28.868 		8.214
v 10.214 		-19.17 		9.33
v 3.17 		-29.634 		8.214
v 8.504 		-14.471 		7.5
v 9.5 		-18.67 		9.33
v -1.138 		-25.962 		2.5
v 0.366 		-28.567 		7.5
v -0.5 		-27.33 		2.5
v 11.924 		-18.868 		8.83
v 5.496 		-31.529 		7.5
v -0.198 		-25.62 		1.786
v 7 		-31.66 		7.5
v 13.33 		-24.116 		8.83
v 5.368 		-32.254 		6.71
v 13.428 		-23 		8.83
v 7 		-32.397 		6.71
v 13.33 		-21.884 		8.83
v 7 		-32.848 		5.868
v 5.264 		-32.848 		5
v 13.04 		-20.802 		8.83
v 14.544 		-24.33 		8.214
v 7 		-33 		5
v 14.66 		-23 		8.214
v 8.736 		-32.848 		5
v 5.29 		-32.698 		5.868
v 7 		-32.848 		4.132
v 14.544 		-21.67 		8.214
v 14.544 		-21.67 		1.786
v 8.504 		-31.529 		7.5
v 10.214 		-31.83 		6.71
v 11.698 		-31.138 		6.71
v 11.33 		-30.5 		7.5
v 13.33 		-24.116 		1.17
v 13.428 		-23 		1.17
v 13.33 		-21.884 		1.17
v 13.04 		-20.802 		1.17
v 8.71 		-32.698 		5.868
v 10.368 		-32.254 		5.868
v 11.924 		-31.529 		5.868
v 11.924 		-22.132 		0.67
v 10.42 		-32.397 		5
v 11.698 		-21.29 		0.67
v 12 		-31.66 		5
v 11.33 		-20.5 		0.67
v 8.71 		-32.698 		4.132
v 10.368 		-22.406 		0.302
v 10.368 		-32.254 		4.132
v 11.924 		-31.529 		4.132
v 10.214 		-21.83 		0.302
v 9.962 		-21.29 		0.302
v 9.62 		-20.802 		0.302
v 15.138 		-27.698 		3.29
v 8.632 		-22.406 		0.076
v 15.83 		-26.214 		3.29
v 16.254 		-24.632 		3.29
v 8.504 		-22.132 		0.076
v 13.634 		-28.567 		2.5
v 14.5 		-27.33 		2.5
v 15.138 		-25.962 		2.5
v 10.368 		-22.406 		9.698
v 11.924 		-22.132 		9.33
v 11.698 		-21.29 		9.33
v 11.33 		-20.5 		9.33
v 12.868 		-27.924 		1.786
v 13.634 		-26.83 		1.786
v 14.198 		-25.62 		1.786
v 8.33 		-21.884 		0.076
v 11.698 		-14.862 		6.71
v 12.567 		-26.214 		1.17
v 10.214 		-14.17 		6.71
v 13.04 		-25.198 		1.17
v 8.632 		-13.746 		6.71
v 11.924 		-23.868 		0.67
v 7 		-33.5 		10
v 15.66 		-18.5 		10
v 8.632 		-22.406 		9.924
v 8.504 		-22.132 		9.924
v 8.33 		-21.884 		9.924
v 11.924 		-14.471 		5.868
v 10.368 		-13.746 		5.868
v 10.214 		-21.83 		9.698
v 9.962 		-21.29 		9.698
v 8.71 		-13.302 		5.868
v 9.62 		-20.802 		9.698
v 12 		-14.34 		5
v 10.42 		-13.603 		5
v 8.736 		-13.152 		5
v 10.368 		-23.594 		9.698
v 11.924 		-14.471 		4.132
v 10.42 		-23 		9.698
v 10.368 		-13.746 		4.132
v 11.924 		-23.868 		9.33
v 12 		-23 		9.33
v 8.71 		-13.302 		4.132
v 13.04 		-15.802 		3.29
v 8.33 		-24.116 		9.924
v 8.504 		-23.868 		9.924
v 8.632 		-23.594 		9.924
v 8.71 		-23.302 		9.924
v 12.567 		-16.366 		2.5
v 8.736 		-23 		9.924
v 8.71 		-22.698 		9.924
v 11.698 		-14.862 		3.29
v 10.214 		-14.17 		3.29
v 8.632 		-13.746 		3.29
v 10.214 		-24.17 		9.698
v 11.33 		-15.5 		2.5
v 9.962 		-14.862 		2.5
v 8.504 		-14.471 		2.5
v 15.138 		-20.038 		7.5
v 10.83 		-16.366 		1.786
v 14.5 		-18.67 		7.5
v 9.62 		-15.802 		1.786
v 13.634 		-17.433 		7.5
v 8.33 		-15.456 		1.786
v 7 		-15.34 		8.214
v 5.67 		-15.456 		8.214
v 4.38 		-15.802 		8.214
v 7.868 		-24.504 		9.924
v 8.116 		-24.33 		9.924
v 3.17 		-16.366 		8.214
v 5.264 		-23 		9.924
v 5.29 		-23.302 		9.924
v 7 		-14.34 		7.5
v 5.496 		-14.471 		7.5
v 7 		-13.603 		6.71
v 5.368 		-13.746 		6.71
v 7 		-13.152 		5.868
v 5.29 		-13.302 		5.868
v 7 		-13 		5
v 5.264 		-13.152 		5
v 7 		-13.152 		4.132
v 5.29 		-32.698 		4.132
v 1.433 		-29.634 		7.5
v 2.67 		-30.5 		7.5
v -1.66 		-18.5 		10
v -1.66 		-18.5 		30
v 7 		-33.5 		30
v 15.66 		-18.5 		30
v 4.038 		-31.138 		7.5
v 12 		-23 		0.67
v 0.96 		-30.198 		6.71
v 2.302 		-31.138 		6.71
v 7.868 		-24.504 		0.076
v 10.368 		-23.594 		0.302
v 10.42 		-23 		0.302
v 8.116 		-24.33 		0.076
v 10.214 		-24.17 		0.302
v 8.33 		-24.116 		0.076
v 8.504 		-23.868 		0.076
v 8.632 		-23.594 		0.076
v 8.71 		-23.302 		0.076
v 5.29 		-23.302 		0.076
v 5.264 		-23 		0.076
v 5.368 		-23.594 		0.076
v 8.736 		-23 		0.076
v 8.71 		-22.698 		0.076
v 3.786 		-31.83 		6.71
v 7.868 		-18.076 		9.33
v 7 		-18 		9.33
v 6.132 		-18.076 		9.33
v 5.29 		-18.302 		9.33
v 0.67 		-30.544 		5.868
v 2.076 		-31.529 		5.868
v 8.116 		-16.67 		8.83
v 7 		-16.572 		8.83
v 3.632 		-32.254 		5.868
v 5.884 		-16.67 		8.83
v 4.802 		-16.96 		8.83
v 0.572 		-30.66 		5
v 2 		-31.66 		5
v 3.58 		-32.397 		5
v 0.67 		-30.544 		4.132
v 2.076 		-31.529 		4.132
v 8.17 		-19.786 		9.698
v 3.632 		-32.254 		4.132
v 7.594 		-19.632 		9.698
v 7 		-19.58 		9.698
v 6.406 		-19.632 		9.698
v 6.406 		-26.368 		0.302
v 5.83 		-19.786 		9.698
v 5.29 		-20.038 		9.698
v 7 		-26.42 		0.302
v 4.802 		-20.38 		9.698
v 4.5 		-18.67 		9.33
v 7.594 		-26.368 		0.302
v 8.17 		-26.214 		0.302
v 3.786 		-17.433 		8.83
v 6.406 		-24.632 		0.076
v 2.868 		-18.076 		8.83
v 6.698 		-24.71 		0.076
v 2.076 		-17.132 		8.214
v 1.132 		-18.076 		8.214
v 7 		-24.736 		0.076
v 7.302 		-24.71 		0.076
v 7.594 		-24.632 		0.076
v 4.38 		-25.198 		0.302
v 4.802 		-25.62 		0.302
v 5.29 		-25.962 		0.302
v 5.83 		-26.214 		0.302
v 4.5 		-27.33 		0.67
v 5.29 		-27.698 		0.67
v 6.132 		-27.924 		0.67
v 7 		-28 		0.67
v 10.83 		-26.214 		0.67
v 5.368 		-23.594 		9.924
v 5.496 		-23.868 		9.924
v 11.33 		-25.5 		0.67
v 5.67 		-24.116 		9.924
v 5.884 		-24.33 		9.924
v 6.132 		-24.504 		9.924
v 11.698 		-24.71 		0.67
v 5.29 		-22.698 		9.924
v 8.71 		-25.962 		0.302
v 9.198 		-25.62 		0.302
v 9.62 		-25.198 		0.302
v 9.962 		-24.71 		0.302
v 4.038 		-21.29 		9.698
v 3.786 		-21.83 		9.698
v 3.632 		-22.406 		9.698
v 2.67 		-20.5 		9.33
v 2.302 		-21.29 		9.33
v 2.076 		-22.132 		9.33
v 10.214 		-28.567 		1.17
v 0.96 		-20.802 		8.83
v 11.132 		-27.924 		1.17
v 0.67 		-21.884 		8.83
v 11.924 		-27.132 		1.17
v 8.71 		-27.698 		0.67
v 9.5 		-27.33 		0.67
v 3.58 		-23 		9.698
v 3.632 		-23.594 		9.698
v 10.214 		-26.83 		0.67
v 3.786 		-24.17 		9.698
v 2 		-23 		9.33
v 2.076 		-23.868 		9.33
v 13.04 		-30.198 		3.29
v 14.198 		-29.04 		3.29
v 0.572 		-23 		8.83
v 0.67 		-24.116 		8.83
v 12.567 		-29.634 		2.5
v 8.632 		-32.254 		3.29
v 10.214 		-31.83 		3.29
v 0.366 		-17.433 		7.5
v 11.698 		-31.138 		3.29
v 5.496 		-23.868 		0.076
v 8.116 		-16.67 		1.17
v 7 		-16.572 		1.17
v 5.67 		-24.116 		0.076
v 5.884 		-16.67 		1.17
v 5.884 		-24.33 		0.076
v 6.132 		-24.504 		0.076
v 4.802 		-16.96 		1.17
v 5.29 		-22.698 		0.076
v 7.868 		-18.076 		0.67
v 7 		-18 		0.67
v 6.132 		-18.076 		0.67
v 5.29 		-18.302 		0.67
v 0.96 		-20.802 		1.17
v 0.67 		-21.884 		1.17
v 2.67 		-20.5 		0.67
v 2.302 		-21.29 		0.67
v 2.076 		-22.132 		0.67
v 4.038 		-21.29 		0.302
v 3.786 		-21.83 		0.302
v 3.632 		-22.406 		0.302
v 0.572 		-23 		1.17
v 0.67 		-24.116 		1.17
v 2.076 		-23.868 		0.67
v 2 		-23 		0.67
v 15.83 		-19.786 		6.71
v 15.138 		-18.302 		6.71
v 14.198 		-16.96 		6.71
v 16.254 		-19.632 		5.868
v 15.529 		-18.076 		5.868
v 14.544 		-16.67 		5.868
v 15.66 		-18 		5
v 14.66 		-16.572 		5
v 16.254 		-19.632 		4.132
v 15.529 		-18.076 		4.132
v 14.544 		-16.67 		4.132
v 15.529 		-24.504 		7.5
v 15.66 		-23 		7.5
v 15.529 		-21.496 		7.5
v 16.254 		-21.368 		6.71
v 15.83 		-19.786 		3.29
v 15.138 		-18.302 		3.29
v 14.198 		-16.96 		3.29
v 15.138 		-20.038 		2.5
v 5.29 		-13.302 		4.132
v 4.038 		-14.862 		7.5
v 2.67 		-15.5 		7.5
v 1.433 		-16.366 		7.5
v 3.786 		-14.17 		6.71
v 2.302 		-14.862 		6.71
v 0.96 		-15.802 		6.71
v 3.632 		-13.746 		5.868
v 2.076 		-14.471 		5.868
v 0.67 		-15.456 		5.868
v 3.58 		-13.603 		5
v 2 		-14.34 		5
v 0.572 		-15.34 		5
v 3.632 		-13.746 		4.132
v 2.076 		-14.471 		4.132
v 0.67 		-15.456 		4.132
v 7 		-13.603 		3.29
v 5.368 		-13.746 		3.29
v 7 		-14.34 		2.5
v 5.496 		-14.471 		2.5
v 7 		-15.34 		1.786
v 5.67 		-15.456 		1.786
v 8.504 		-31.529 		2.5
v 8.17 		-19.786 		0.302
v 9.962 		-31.138 		2.5
v 7.594 		-19.632 		0.302
v 11.33 		-30.5 		2.5
v 7 		-19.58 		0.302
v 6.406 		-19.632 		0.302
v 8.33 		-30.544 		1.786
v 4.5 		-18.67 		0.67
v 9.62 		-30.198 		1.786
v 5.83 		-19.786 		0.302
v 10.83 		-29.634 		1.786
v 5.29 		-20.038 		0.302
v 11.924 		-28.868 		1.786
v 4.802 		-20.38 		0.302
v 9.198 		-29.04 		1.17
v 0.366 		-17.433 		2.5
v 2.076 		-17.132 		1.786
v 6.406 		-24.632 		9.924
v 6.698 		-24.71 		9.924
v 1.132 		-18.076 		1.786
v 7 		-24.736 		9.924
v 3.786 		-17.433 		1.17
v 7.302 		-24.71 		9.924
v 7.594 		-24.632 		9.924
v 2.868 		-18.076 		1.17
v 6.406 		-26.368 		9.698
v 7 		-26.42 		9.698
v 7.594 		-26.368 		9.698
v 0.366 		-19.17 		1.786
v 2.076 		-18.868 		1.17
v 1.433 		-19.786 		1.17
v 8.17 		-26.214 		9.698
v 3.786 		-19.17 		0.67
v 3.17 		-19.786 		0.67
v 8.116 		-21.67 		0.076
v 7.868 		-21.496 		0.076
v 7.594 		-21.368 		0.076
v 7.302 		-21.29 		0.076
v 7 		-21.264 		0.076
v 6.698 		-21.29 		0.076
v 3.632 		-23.594 		0.302
v 6.406 		-21.368 		0.076
v 3.58 		-23 		0.302
v 3.786 		-24.17 		0.302
v 12.567 		-26.214 		8.83
v 13.04 		-25.198 		8.83
v 4.38 		-20.802 		0.302
v 12.868 		-27.924 		8.214
v 6.132 		-21.496 		0.076
v 13.634 		-26.83 		8.214
v 5.884 		-21.67 		0.076
v 14.198 		-25.62 		8.214
v 5.67 		-21.884 		0.076
v 5.496 		-22.132 		0.076
v 5.368 		-22.406 		0.076
v 8.71 		-25.962 		9.698
v 9.198 		-25.62 		9.698
v 9.62 		-25.198 		9.698
v 9.962 		-24.71 		9.698
v 10.83 		-26.214 		9.33
v 11.33 		-25.5 		9.33
v 11.698 		-24.71 		9.33
v 8.71 		-27.698 		9.33
v 9.5 		-27.33 		9.33
v 10.214 		-26.83 		9.33
v 7.868 		-27.924 		0.67
v 3.786 		-19.17 		9.33
v 3.17 		-19.786 		9.33
v 2.076 		-18.868 		8.83
v 1.433 		-19.786 		8.83
v 0.366 		-19.17 		8.214
v 0.366 		-28.567 		2.5
v 8.116 		-21.67 		9.924
v 7.868 		-21.496 		9.924
v 7.594 		-21.368 		9.924
v 7.302 		-21.29 		9.924
v 0.96 		-25.198 		1.17
v 7 		-21.264 		9.924
v 6.698 		-21.29 		9.924
v 1.433 		-26.214 		1.17
v 6.406 		-21.368 		9.924
v 2.302 		-24.71 		0.67
v 2.67 		-25.5 		0.67
v 3.17 		-26.214 		0.67
v 4.038 		-24.71 		0.302
v 6.132 		-21.496 		9.924
v 5.884 		-21.67 		9.924
v 5.67 		-21.884 		9.924
v 5.496 		-22.132 		9.924
v 5.368 		-22.406 		9.924
v 0.366 		-26.83 		1.786
v 4.38 		-20.802 		9.698
v 1.132 		-27.924 		1.786
v 2.076 		-27.132 		1.17
v 2.868 		-27.924 		1.17
v 3.786 		-28.567 		1.17
v 3.786 		-26.83 		0.67
v 5.368 		-32.254 		3.29
v 7 		-32.397 		3.29
v 14.5 		-18.67 		2.5
v 13.634 		-17.433 		2.5
v 14.198 		-20.38 		1.786
v 13.634 		-19.17 		1.786
v 12.868 		-18.076 		1.786
v 12.567 		-19.786 		1.17
v 11.924 		-17.132 		1.786
v 11.132 		-18.076 		1.17
v 10.214 		-17.433 		1.17
v 9.198 		-16.96 		1.17
v 8.71 		-18.302 		0.67
v 11.924 		-18.868 		1.17
v 10.83 		-19.786 		0.67
v 10.214 		-19.17 		0.67
v 4.38 		-15.802 		1.786
v 3.786 		-14.17 		3.29
v 2.302 		-14.862 		3.29
v 0.96 		-15.802 		3.29
v 4.038 		-14.862 		2.5
v 2.67 		-15.5 		2.5
v 1.433 		-16.366 		2.5
v 3.17 		-16.366 		1.786
v 16.397 		-23 		6.71
v 16.848 		-23 		5.868
v 16.698 		-21.29 		5.868
v 16.848 		-21.264 		5
v 4.38 		-25.198 		9.698
v 4.802 		-25.62 		9.698
v 5.29 		-25.962 		9.698
v 5.83 		-26.214 		9.698
v 4.5 		-27.33 		9.33
v 5.29 		-27.698 		9.33
v 6.132 		-27.924 		9.33
v 7 		-28 		9.33
v 7.868 		-27.924 		9.33
v 4.038 		-24.71 		9.698
v 2.302 		-24.71 		9.33
v 2.67 		-25.5 		9.33
v 3.17 		-26.214 		9.33
v 0.96 		-25.198 		8.83
v 1.433 		-26.214 		8.83
v 3.786 		-26.83 		9.33
v 2.076 		-27.132 		8.83
v 2.868 		-27.924 		8.83
v 3.786 		-28.567 		8.83
v 0.366 		-26.83 		8.214
v 1.132 		-27.924 		8.214
v 4.802 		-29.04 		8.83
v 5.884 		-29.33 		8.83
v 7 		-29.428 		8.83
v 8.116 		-29.33 		8.83
v 5.67 		-30.544 		8.214
v 5.496 		-31.529 		2.5
v 7 		-31.66 		2.5
v 4.38 		-30.198 		1.786
v 5.67 		-30.544 		1.786
v 7 		-30.66 		1.786
v 4.802 		-29.04 		1.17
v 5.884 		-29.33 		1.17
v 7 		-29.428 		1.17
v 8.116 		-29.33 		1.17
v 0.96 		-30.198 		3.29
v 2.302 		-31.138 		3.29
v 3.786 		-31.83 		3.29
v 1.433 		-29.634 		2.5
v 2.67 		-30.5 		2.5
v 4.038 		-31.138 		2.5
v 2.076 		-28.868 		1.786
v 3.17 		-29.634 		1.786
v -0.544 		-24.33 		8.214
v -0.66 		-23 		8.214
v -0.198 		-20.38 		8.214
v -0.544 		-21.67 		8.214
v 10.214 		-28.567 		8.83
v 11.132 		-27.924 		8.83
v 11.924 		-27.132 		8.83
v 9.198 		-29.04 		8.83
v 8.33 		-30.544 		8.214
v 9.62 		-30.198 		8.214
v 10.83 		-29.634 		8.214
v 11.924 		-28.868 		8.214
v 13.634 		-28.567 		7.5
v 14.5 		-27.33 		7.5
v 15.138 		-25.962 		7.5
v 15.138 		-27.698 		6.71
v 15.83 		-26.214 		6.71
v 16.254 		-24.632 		6.71
v 15.529 		-27.924 		5.868
v 16.254 		-26.368 		5.868
v 15.66 		-28 		5
v 15.529 		-27.924 		4.132
v 16.254 		-26.368 		4.132
v 12.567 		-29.634 		7.5
v 13.04 		-30.198 		6.71
v 14.198 		-29.04 		6.71
v 13.33 		-30.544 		5.868
v 14.544 		-29.33 		5.868
v 13.428 		-30.66 		5
v 14.66 		-29.428 		5
v 13.33 		-30.544 		4.132
v 14.544 		-29.33 		4.132
v 9.962 		-31.138 		7.5
# 620 vertices

g group_0_16711680

usemtl color_16711680
s 0

f 3 	5 	4
f 2 	7 	3
f 2 	6 	7
f 8 	3 	7
f 7 	11 	8
f 5 	3 	8
f 406 	409 	6
f 9 	10 	6
f 7 	6 	10
f 10 	11 	7
f 9 	13 	10
f 12 	13 	9
f 13 	14 	10
f 10 	14 	11
f 26 	27 	12
f 12 	27 	13
f 1 	5 	19
f 17 	1 	19
f 17 	18 	16
f 19 	18 	17
f 21 	19 	5
f 19 	20 	18
f 21 	20 	19
f 20 	46 	18
f 21 	5 	8
f 23 	21 	8
f 8 	11 	23
f 23 	22 	21
f 20 	21 	22
f 14 	25 	11
f 25 	23 	11
f 23 	24 	22
f 25 	24 	23
f 33 	32 	25
f 25 	32 	24
f 26 	29 	27
f 13 	28 	14
f 13 	27 	28
f 27 	30 	28
f 29 	30 	27
f 29 	31 	30
f 33 	25 	14
f 14 	28 	33
f 32 	35 	34
f 28 	36 	33
f 30 	36 	28
f 36 	35 	33
f 36 	37 	35
f 39 	37 	36
f 33 	35 	32
f 35 	37 	38
f 37 	375 	38
f 35 	38 	34
f 30 	39 	36
f 31 	39 	30
f 367 	39 	31
f 41 	42 	40
f 16 	18 	43
f 43 	15 	16
f 44 	41 	15
f 43 	44 	15
f 41 	45 	42
f 41 	44 	45
f 43 	47 	44
f 44 	48 	45
f 46 	43 	18
f 46 	47 	43
f 47 	48 	44
f 70 	45 	48
f 49 	46 	20
f 20 	22 	49
f 49 	50 	46
f 49 	53 	50
f 46 	50 	47
f 50 	51 	47
f 47 	51 	48
f 48 	72 	70
f 51 	72 	48
f 22 	24 	52
f 52 	49 	22
f 52 	53 	49
f 50 	54 	51
f 53 	54 	50
f 75 	76 	52
f 76 	79 	53
f 79 	54 	53
f 56 	64 	58
f 45 	69 	42
f 69 	45 	70
f 70 	270 	69
f 54 	73 	51
f 51 	73 	72
f 54 	81 	73
f 64 	56 	68
f 67 	257 	256
f 58 	64 	393
f 75 	52 	24
f 32 	75 	24
f 67 	264 	263
f 67 	160 	264
f 53 	52 	76
f 67 	163 	160
f 67 	456 	455
f 67 	457 	456
f 67 	458 	457
f 78 	610 	82
f 67 	459 	458
f 78 	82 	80
f 67 	461 	459
f 82 	610 	162
f 82 	162 	68
f 82 	68 	56
f 320 	229 	61
f 67 	472 	470
f 67 	473 	472
f 67 	474 	473
f 67 	361 	474
f 67 	260 	261
f 84 	219 	85
f 262 	260 	67
f 67 	353 	262
f 85 	86 	83
f 353 	67 	356
f 67 	358 	356
f 84 	217 	219
f 85 	221 	86
f 361 	67 	261
f 88 	116 	91
f 55 	88 	91
f 55 	89 	88
f 90 	89 	65
f 55 	65 	89
f 68 	92 	64
f 65 	66 	90
f 68 	74 	92
f 396 	64 	92
f 359 	358 	67
f 74 	135 	92
f 71 	166 	97
f 95 	383 	96
f 98 	74 	71
f 385 	388 	96
f 55 	107 	65
f 105 	107 	55
f 107 	111 	65
f 106 	109 	101
f 109 	112 	101
f 177 	107 	105
f 107 	179 	111
f 65 	111 	66
f 101 	112 	103
f 111 	231 	66
f 112 	87 	103
f 79 	81 	54
f 108 	242 	110
f 580 	280 	81
f 103 	87 	282
f 34 	75 	32
f 113 	75 	34
f 76 	75 	113
f 42 	69 	114
f 113 	115 	76
f 83 	86 	116
f 76 	115 	79
f 79 	491 	81
f 116 	88 	106
f 109 	106 	88
f 115 	491 	79
f 109 	89 	112
f 38 	118 	34
f 88 	89 	109
f 89 	90 	112
f 34 	118 	113
f 112 	90 	87
f 86 	91 	116
f 117 	123 	119
f 496 	118 	38
f 38 	375 	496
f 199 	120 	122
f 117 	121 	123
f 119 	123 	100
f 496 	499 	118
f 126 	133 	129
f 121 	125 	123
f 132 	125 	121
f 120 	128 	130
f 125 	129 	131
f 120 	130 	122
f 122 	134 	124
f 129 	133 	152
f 130 	134 	122
f 134 	84 	124
f 144 	125 	131
f 98 	71 	97
f 135 	74 	98
f 119 	100 	136
f 136 	100 	137
f 521 	92 	135
f 142 	135 	98
f 135 	143 	521
f 135 	142 	143
f 97 	141 	98
f 97 	140 	141
f 100 	145 	137
f 98 	141 	142
f 137 	146 	138
f 137 	145 	146
f 123 	125 	144
f 123 	144 	100
f 248 	141 	140
f 145 	100 	144
f 142 	149 	143
f 144 	131 	148
f 147 	142 	141
f 144 	148 	145
f 149 	142 	147
f 145 	148 	150
f 145 	150 	146
f 143 	149 	151
f 146 	150 	616
f 152 	131 	129
f 148 	131 	154
f 131 	152 	154
f 148 	155 	150
f 154 	155 	148
f 156 	149 	147
f 147 	153 	156
f 149 	156 	157
f 149 	157 	151
f 157 	158 	151
f 157 	174 	158
f 151 	158 	531
f 156 	153 	160
f 153 	264 	160
f 156 	160 	163
f 163 	157 	156
f 127 	124 	84
f 84 	85 	127
f 127 	85 	83
f 159 	166 	161
f 159 	165 	166
f 130 	128 	390
f 162 	161 	71
f 134 	130 	391
f 390 	391 	130
f 71 	161 	166
f 162 	71 	74
f 162 	74 	68
f 197 	168 	167
f 167 	168 	169
f 165 	173 	166
f 172 	165 	164
f 170 	106 	189
f 168 	127 	169
f 172 	164 	171
f 124 	127 	168
f 173 	165 	172
f 170 	169 	83
f 174 	157 	163
f 175 	105 	93
f 63 	158 	454
f 174 	454 	158
f 166 	173 	97
f 63 	455 	62
f 94 	175 	93
f 175 	177 	105
f 171 	176 	172
f 454 	455 	63
f 172 	176 	178
f 177 	179 	107
f 172 	178 	173
f 177 	190 	179
f 173 	178 	140
f 178 	180 	140
f 173 	140 	97
f 127 	83 	169
f 83 	116 	170
f 170 	116 	106
f 177 	187 	190
f 175 	94 	186
f 95 	186 	94
f 186 	187 	175
f 167 	188 	209
f 167 	169 	188
f 192 	193 	186
f 189 	184 	183
f 175 	187 	177
f 183 	188 	189
f 184 	191 	185
f 187 	186 	193
f 189 	191 	184
f 101 	492 	191
f 185 	191 	492
f 96 	192 	95
f 101 	103 	492
f 186 	95 	192
f 492 	103 	493
f 187 	194 	190
f 188 	170 	189
f 169 	170 	188
f 193 	194 	187
f 106 	191 	189
f 106 	101 	191
f 96 	196 	192
f 99 	196 	96
f 196 	198 	192
f 192 	198 	193
f 195 	200 	197
f 198 	201 	193
f 195 	199 	200
f 168 	197 	200
f 193 	201 	194
f 481 	120 	199
f 199 	122 	200
f 124 	200 	122
f 200 	124 	168
f 395 	202 	99
f 99 	388 	395
f 99 	202 	210
f 202 	395 	207
f 207 	395 	520
f 99 	210 	196
f 196 	211 	198
f 210 	211 	196
f 212 	201 	198
f 198 	211 	212
f 204 	213 	205
f 205 	195 	206
f 212 	413 	201
f 205 	213 	195
f 206 	197 	208
f 206 	195 	197
f 207 	214 	202
f 208 	197 	167
f 202 	214 	210
f 210 	215 	211
f 208 	167 	209
f 210 	214 	215
f 209 	188 	183
f 212 	211 	216
f 215 	216 	211
f 213 	199 	195
f 213 	481 	199
f 216 	415 	212
f 217 	84 	134
f 207 	218 	214
f 218 	220 	214
f 219 	221 	85
f 214 	220 	215
f 221 	93 	86
f 215 	222 	216
f 220 	222 	215
f 218 	525 	527
f 354 	222 	220
f 66 	272 	90
f 66 	223 	272
f 476 	227 	226
f 223 	66 	231
f 223 	232 	224
f 476 	477 	227
f 231 	232 	223
f 398 	225 	224
f 233 	231 	111
f 111 	179 	233
f 233 	234 	231
f 231 	234 	232
f 179 	235 	233
f 235 	179 	190
f 235 	236 	233
f 233 	236 	234
f 236 	404 	234
f 190 	194 	237
f 237 	235 	190
f 238 	236 	235
f 237 	238 	235
f 239 	237 	194
f 132 	126 	129
f 132 	129 	125
f 240 	126 	279
f 240 	133 	126
f 240 	517 	518
f 240 	518 	133
f 565 	114 	108
f 241 	108 	114
f 242 	108 	241
f 110 	247 	102
f 110 	242 	247
f 140 	180 	248
f 247 	117 	102
f 114 	69 	241
f 249 	241 	69
f 147 	141 	248
f 241 	250 	242
f 249 	250 	241
f 180 	252 	253
f 252 	259 	263
f 252 	263 	253
f 180 	253 	248
f 248 	153 	147
f 248 	253 	153
f 264 	153 	253
f 67 	298 	296
f 301 	298 	67
f 67 	302 	301
f 67 	251 	303
f 255 	258 	259
f 255 	259 	252
f 264 	253 	263
f 242 	250 	265
f 250 	274 	265
f 242 	265 	247
f 247 	265 	121
f 121 	265 	132
f 121 	117 	247
f 266 	267 	284
f 273 	267 	266
f 265 	274 	132
f 275 	268 	267
f 249 	69 	270
f 87 	90 	272
f 249 	271 	250
f 272 	266 	87
f 249 	270 	271
f 250 	271 	274
f 272 	273 	266
f 271 	279 	274
f 273 	275 	267
f 273 	224 	275
f 268 	276 	269
f 275 	276 	268
f 270 	70 	277
f 72 	277 	70
f 270 	277 	278
f 271 	270 	278
f 272 	223 	273
f 279 	271 	278
f 274 	126 	132
f 223 	224 	273
f 274 	279 	126
f 224 	225 	275
f 280 	277 	73
f 72 	73 	277
f 275 	225 	276
f 225 	228 	276
f 277 	281 	278
f 277 	280 	281
f 278 	281 	283
f 282 	284 	494
f 278 	283 	279
f 279 	283 	240
f 268 	286 	285
f 283 	517 	240
f 282 	266 	284
f 280 	581 	281
f 87 	266 	282
f 267 	285 	284
f 267 	268 	285
f 286 	268 	269
f 286 	269 	288
f 287 	301 	290
f 292 	289 	288
f 288 	269 	292
f 289 	486 	291
f 292 	486 	289
f 269 	295 	292
f 276 	295 	269
f 292 	295 	297
f 276 	228 	295
f 295 	299 	297
f 299 	295 	228
f 300 	488 	299
f 301 	287 	298
f 290 	302 	293
f 290 	301 	302
f 293 	303 	294
f 293 	302 	303
f 294 	303 	251
f 359 	67 	296
f 359 	306 	305
f 307 	306 	296
f 307 	296 	298
f 298 	287 	307
f 176 	335 	315
f 176 	319 	178
f 176 	315 	319
f 178 	319 	180
f 314 	545 	316
f 316 	545 	317
f 546 	317 	545
f 321 	254 	322
f 340 	322 	312
f 323 	312 	322
f 312 	324 	315
f 312 	323 	324
f 319 	315 	255
f 315 	324 	255
f 319 	255 	252
f 319 	252 	180
f 251 	321 	294
f 254 	321 	251
f 322 	254 	323
f 256 	323 	254
f 328 	329 	325
f 323 	257 	324
f 323 	256 	257
f 489 	332 	328
f 328 	332 	329
f 324 	258 	255
f 325 	329 	326
f 326 	330 	327
f 324 	257 	258
f 329 	330 	326
f 331 	333 	430
f 332 	334 	329
f 329 	334 	330
f 333 	335 	171
f 176 	171 	335
f 434 	336 	337
f 338 	339 	229
f 338 	343 	339
f 331 	340 	333
f 229 	339 	230
f 331 	337 	340
f 339 	341 	230
f 312 	333 	340
f 335 	333 	312
f 335 	312 	315
f 230 	341 	313
f 485 	294 	336
f 338 	229 	320
f 338 	320 	327
f 336 	294 	321
f 338 	342 	343
f 337 	336 	321
f 342 	346 	347
f 342 	347 	343
f 337 	321 	322
f 337 	322 	340
f 347 	558 	343
f 327 	342 	338
f 345 	165 	159
f 330 	342 	327
f 352 	348 	344
f 344 	348 	345
f 164 	345 	348
f 165 	345 	164
f 330 	346 	342
f 330 	334 	346
f 171 	164 	348
f 588 	347 	346
f 346 	589 	588
f 349 	152 	133
f 152 	349 	350
f 589 	346 	334
f 351 	4 	300
f 152 	350 	154
f 154 	350 	352
f 351 	400 	2
f 351 	3 	4
f 2 	3 	351
f 154 	352 	155
f 355 	364 	357
f 363 	364 	355
f 305 	304 	358
f 356 	358 	304
f 358 	359 	305
f 359 	296 	306
f 362 	363 	354
f 354 	363 	355
f 364 	365 	357
f 357 	365 	360
f 360 	365 	427
f 31 	366 	367
f 366 	370 	367
f 369 	370 	366
f 370 	377 	367
f 368 	372 	369
f 371 	372 	368
f 372 	373 	369
f 369 	373 	370
f 371 	474 	372
f 37 	374 	375
f 37 	39 	374
f 39 	367 	374
f 374 	376 	375
f 376 	374 	377
f 217 	379 	219
f 378 	379 	217
f 379 	380 	219
f 219 	380 	221
f 221 	380 	93
f 94 	93 	380
f 378 	382 	379
f 378 	381 	382
f 379 	382 	383
f 382 	385 	383
f 382 	384 	385
f 379 	383 	380
f 383 	95 	380
f 94 	380 	95
f 59 	387 	384
f 382 	381 	384
f 385 	96 	383
f 386 	59 	544
f 386 	387 	59
f 384 	387 	388
f 384 	388 	385
f 99 	96 	388
f 58 	393 	386
f 386 	394 	387
f 387 	395 	388
f 91 	86 	93
f 105 	91 	93
f 91 	105 	55
f 390 	128 	389
f 391 	217 	134
f 390 	392 	391
f 391 	378 	217
f 391 	392 	378
f 392 	381 	378
f 393 	64 	396
f 386 	393 	394
f 393 	519 	394
f 395 	387 	394
f 92 	521 	396
f 194 	201 	239
f 239 	397 	237
f 237 	397 	238
f 398 	224 	232
f 225 	398 	399
f 225 	399 	228
f 228 	400 	299
f 399 	400 	228
f 232 	401 	398
f 232 	234 	401
f 398 	402 	399
f 398 	401 	402
f 402 	403 	399
f 399 	403 	400
f 2 	400 	403
f 234 	404 	401
f 405 	406 	402
f 401 	405 	402
f 401 	404 	405
f 405 	409 	406
f 402 	406 	403
f 403 	406 	2
f 238 	407 	236
f 236 	407 	404
f 407 	408 	404
f 408 	405 	404
f 408 	409 	405
f 407 	238 	410
f 397 	410 	238
f 407 	411 	408
f 410 	411 	407
f 411 	412 	408
f 408 	412 	409
f 412 	12 	409
f 536 	26 	412
f 212 	415 	413
f 239 	201 	413
f 414 	397 	239
f 413 	414 	239
f 413 	416 	414
f 415 	416 	413
f 418 	533 	416
f 216 	417 	415
f 222 	417 	216
f 417 	418 	415
f 363 	425 	364
f 352 	344 	155
f 364 	429 	365
f 518 	419 	349
f 349 	419 	421
f 60 	62 	420
f 419 	428 	421
f 529 	420 	422
f 350 	349 	421
f 350 	421 	423
f 529 	422 	362
f 422 	424 	362
f 350 	423 	352
f 422 	458 	424
f 348 	352 	423
f 362 	424 	363
f 424 	425 	363
f 424 	459 	425
f 419 	572 	426
f 426 	428 	419
f 364 	425 	429
f 365 	429 	431
f 421 	430 	423
f 430 	421 	428
f 423 	430 	432
f 427 	365 	431
f 431 	433 	427
f 423 	432 	348
f 432 	171 	348
f 429 	425 	461
f 426 	434 	428
f 428 	331 	430
f 431 	470 	433
f 428 	434 	331
f 430 	333 	432
f 435 	29 	26
f 333 	171 	432
f 436 	439 	435
f 434 	579 	336
f 448 	29 	435
f 434 	337 	331
f 448 	435 	439
f 533 	360 	441
f 437 	445 	438
f 439 	436 	449
f 444 	449 	436
f 446 	440 	438
f 441 	360 	427
f 441 	452 	444
f 446 	438 	445
f 427 	452 	441
f 440 	446 	447
f 452 	453 	444
f 29 	448 	31
f 440 	447 	442
f 439 	450 	448
f 442 	447 	451
f 449 	450 	439
f 450 	366 	448
f 442 	451 	443
f 366 	31 	448
f 443 	475 	226
f 449 	444 	453
f 453 	368 	449
f 368 	450 	449
f 552 	446 	445
f 450 	369 	366
f 369 	450 	368
f 427 	433 	452
f 452 	433 	453
f 446 	553 	447
f 453 	371 	368
f 447 	482 	451
f 62 	456 	420
f 554 	314 	313
f 62 	455 	456
f 456 	457 	420
f 420 	457 	422
f 457 	458 	422
f 367 	377 	374
f 458 	459 	424
f 376 	377 	460
f 377 	462 	460
f 425 	459 	461
f 460 	463 	376
f 370 	373 	462
f 462 	377 	370
f 462 	260 	460
f 462 	261 	260
f 460 	262 	463
f 260 	262 	460
f 262 	353 	463
f 361 	261 	373
f 261 	462 	373
f 453 	433 	466
f 464 	471 	465
f 466 	371 	453
f 429 	461 	468
f 468 	431 	429
f 468 	470 	431
f 471 	464 	469
f 433 	470 	466
f 472 	466 	470
f 465 	128 	120
f 466 	473 	371
f 472 	473 	466
f 471 	128 	465
f 473 	474 	371
f 474 	361 	372
f 469 	602 	471
f 373 	372 	361
f 471 	389 	128
f 443 	451 	475
f 226 	475 	476
f 203 	227 	477
f 67 	303 	302
f 203 	477 	478
f 254 	251 	67
f 254 	67 	256
f 478 	204 	203
f 478 	213 	204
f 67 	258 	257
f 259 	258 	67
f 477 	476 	479
f 484 	479 	476
f 477 	479 	480
f 67 	454 	174
f 454 	67 	455
f 477 	480 	478
f 478 	480 	481
f 478 	481 	213
f 594 	479 	593
f 484 	593 	479
f 468 	67 	470
f 464 	480 	479
f 594 	464 	479
f 480 	464 	465
f 480 	465 	481
f 481 	465 	120
f 451 	483 	475
f 67 	468 	461
f 451 	482 	483
f 475 	484 	476
f 300 	299 	351
f 400 	351 	299
f 578 	311 	485
f 516 	305 	306
f 309 	308 	307
f 306 	307 	308
f 292 	297 	486
f 309 	307 	287
f 487 	297 	488
f 486 	297 	487
f 487 	489 	328
f 488 	489 	487
f 310 	309 	287
f 287 	290 	310
f 297 	299 	488
f 488 	300 	490
f 290 	311 	310
f 311 	293 	485
f 488 	490 	489
f 311 	290 	293
f 485 	293 	294
f 510 	115 	113
f 512 	115 	510
f 115 	512 	491
f 375 	376 	501
f 501 	496 	375
f 501 	502 	496
f 501 	504 	502
f 496 	502 	499
f 499 	503 	513
f 493 	103 	282
f 502 	503 	499
f 493 	282 	494
f 494 	284 	495
f 463 	501 	376
f 495 	285 	497
f 501 	463 	504
f 284 	285 	495
f 285 	286 	497
f 497 	286 	498
f 502 	504 	304
f 286 	288 	498
f 498 	288 	500
f 353 	356 	504
f 356 	304 	504
f 502 	304 	503
f 516 	503 	305
f 304 	305 	503
f 508 	509 	61
f 504 	463 	353
f 509 	320 	61
f 500 	289 	505
f 500 	288 	289
f 291 	506 	505
f 289 	291 	505
f 118 	510 	113
f 507 	506 	511
f 291 	511 	506
f 511 	325 	507
f 583 	491 	586
f 508 	507 	325
f 499 	510 	118
f 325 	326 	508
f 513 	510 	499
f 508 	326 	509
f 510 	513 	512
f 320 	509 	327
f 326 	327 	509
f 512 	513 	586
f 514 	586 	513
f 486 	487 	291
f 511 	291 	487
f 487 	328 	511
f 511 	328 	325
f 513 	503 	514
f 516 	514 	503
f 514 	516 	308
f 514 	308 	515
f 308 	309 	515
f 306 	308 	516
f 517 	571 	572
f 517 	572 	518
f 519 	393 	396
f 394 	520 	395
f 394 	519 	520
f 520 	523 	207
f 61 	493 	494
f 495 	61 	494
f 396 	522 	519
f 521 	522 	396
f 519 	522 	523
f 505 	61 	500
f 61 	505 	506
f 519 	523 	520
f 525 	207 	523
f 521 	524 	522
f 521 	143 	524
f 61 	208 	209
f 209 	183 	61
f 61 	183 	184
f 524 	143 	151
f 61 	184 	185
f 207 	525 	218
f 492 	61 	185
f 523 	526 	525
f 61 	492 	493
f 526 	527 	525
f 527 	528 	218
f 497 	61 	495
f 527 	529 	528
f 498 	61 	497
f 61 	498 	500
f 218 	528 	220
f 528 	354 	220
f 507 	61 	506
f 508 	61 	507
f 230 	61 	229
f 527 	526 	60
f 230 	313 	61
f 313 	314 	61
f 527 	60 	529
f 314 	316 	61
f 528 	362 	354
f 316 	317 	61
f 529 	362 	528
f 61 	317 	318
f 60 	420 	529
f 318 	437 	61
f 437 	438 	61
f 524 	530 	522
f 438 	440 	61
f 522 	530 	523
f 440 	442 	61
f 526 	523 	530
f 442 	443 	61
f 443 	226 	61
f 530 	524 	531
f 226 	227 	61
f 524 	151 	531
f 227 	203 	61
f 203 	204 	61
f 532 	526 	531
f 531 	526 	530
f 532 	60 	526
f 204 	205 	61
f 205 	206 	61
f 206 	208 	61
f 532 	531 	63
f 158 	63 	531
f 532 	62 	60
f 63 	62 	532
f 259 	67 	263
f 415 	418 	416
f 67 	174 	163
f 355 	417 	222
f 222 	354 	355
f 355 	357 	417
f 418 	417 	357
f 360 	533 	418
f 357 	360 	418
f 414 	534 	397
f 534 	410 	397
f 534 	535 	410
f 534 	538 	535
f 410 	535 	411
f 411 	536 	412
f 535 	536 	411
f 416 	537 	414
f 414 	537 	534
f 537 	538 	534
f 535 	539 	536
f 538 	539 	535
f 26 	536 	539
f 435 	26 	539
f 533 	537 	416
f 540 	538 	537
f 533 	540 	537
f 540 	436 	538
f 538 	436 	539
f 436 	435 	539
f 533 	441 	540
f 444 	540 	441
f 540 	444 	436
f 389 	541 	390
f 389 	605 	541
f 541 	392 	390
f 605 	542 	541
f 541 	542 	543
f 543 	392 	541
f 543 	381 	392
f 77 	80 	57
f 57 	542 	77
f 542 	544 	543
f 542 	57 	544
f 543 	544 	59
f 58 	544 	57
f 58 	386 	544
f 543 	59 	381
f 59 	384 	381
f 56 	57 	80
f 80 	82 	56
f 57 	56 	58
f 313 	341 	554
f 554 	545 	314
f 317 	546 	547
f 317 	547 	318
f 547 	548 	318
f 318 	548 	437
f 548 	445 	437
f 557 	546 	545
f 547 	550 	548
f 546 	549 	547
f 549 	550 	547
f 551 	445 	548
f 548 	550 	551
f 552 	445 	551
f 446 	552 	553
f 552 	569 	553
f 482 	447 	553
f 550 	567 	551
f 569 	552 	568
f 339 	343 	555
f 555 	341 	339
f 556 	554 	341
f 341 	555 	556
f 554 	557 	545
f 556 	557 	554
f 546 	560 	549
f 343 	558 	555
f 555 	559 	556
f 558 	559 	555
f 559 	561 	556
f 556 	561 	557
f 40 	558 	347
f 564 	558 	40
f 40 	42 	564
f 558 	564 	559
f 557 	560 	546
f 560 	557 	562
f 562 	557 	561
f 560 	563 	549
f 560 	562 	563
f 559 	565 	561
f 559 	564 	565
f 565 	108 	561
f 562 	561 	108
f 562 	108 	110
f 562 	110 	563
f 564 	114 	565
f 42 	114 	564
f 563 	566 	549
f 563 	102 	566
f 566 	550 	549
f 566 	567 	550
f 568 	552 	551
f 568 	551 	567
f 595 	553 	569
f 563 	110 	102
f 570 	567 	566
f 566 	102 	570
f 567 	570 	104
f 117 	570 	102
f 570 	117 	119
f 570 	119 	104
f 104 	568 	567
f 349 	133 	518
f 582 	571 	517
f 518 	572 	419
f 571 	585 	574
f 573 	574 	585
f 571 	575 	572
f 574 	575 	571
f 575 	426 	572
f 576 	573 	587
f 576 	577 	573
f 573 	577 	574
f 578 	575 	574
f 577 	578 	574
f 575 	578 	579
f 575 	579 	426
f 579 	434 	426
f 576 	310 	577
f 309 	310 	576
f 577 	310 	311
f 577 	311 	578
f 485 	579 	578
f 336 	579 	485
f 73 	81 	280
f 581 	280 	580
f 582 	283 	281
f 281 	581 	582
f 517 	283 	582
f 580 	81 	583
f 491 	583 	81
f 583 	584 	580
f 580 	584 	581
f 581 	585 	582
f 584 	585 	581
f 571 	582 	585
f 512 	586 	491
f 587 	584 	583
f 586 	587 	583
f 584 	587 	573
f 584 	573 	585
f 586 	515 	587
f 514 	515 	586
f 576 	587 	515
f 515 	309 	576
f 406 	6 	2
f 9 	6 	409
f 409 	12 	9
f 12 	412 	26
f 588 	40 	347
f 590 	332 	489
f 489 	490 	590
f 334 	332 	591
f 590 	591 	332
f 591 	589 	334
f 17 	16 	591
f 591 	16 	589
f 588 	589 	15
f 589 	16 	15
f 588 	41 	40
f 15 	41 	588
f 590 	17 	591
f 490 	300 	4
f 590 	490 	1
f 490 	4 	1
f 1 	17 	590
f 5 	1 	4
f 475 	483 	484
f 482 	553 	595
f 482 	592 	483
f 595 	592 	482
f 483 	592 	593
f 483 	593 	484
f 595 	598 	592
f 467 	594 	593
f 594 	467 	469
f 469 	464 	594
f 599 	611 	467
f 596 	569 	568
f 568 	104 	596
f 569 	596 	597
f 569 	597 	595
f 595 	597 	598
f 592 	599 	593
f 592 	598 	599
f 599 	467 	593
f 597 	596 	620
f 467 	600 	601
f 600 	603 	601
f 467 	601 	469
f 602 	469 	601
f 389 	471 	602
f 389 	602 	605
f 601 	603 	604
f 604 	602 	601
f 605 	602 	604
f 604 	77 	605
f 604 	607 	77
f 77 	542 	605
f 603 	606 	607
f 606 	78 	607
f 606 	608 	78
f 607 	604 	603
f 606 	615 	608
f 607 	80 	77
f 607 	78 	80
f 608 	609 	610
f 608 	610 	78
f 610 	609 	161
f 159 	161 	609
f 610 	161 	162
f 139 	138 	612
f 611 	139 	612
f 600 	611 	613
f 612 	613 	611
f 613 	603 	600
f 613 	606 	603
f 613 	615 	606
f 614 	138 	146
f 146 	616 	614
f 138 	614 	612
f 612 	614 	613
f 615 	613 	614
f 616 	617 	615
f 615 	614 	616
f 608 	615 	617
f 150 	155 	618
f 618 	616 	150
f 617 	616 	619
f 618 	619 	616
f 617 	609 	608
f 617 	619 	609
f 344 	618 	155
f 344 	345 	618
f 619 	618 	345
f 619 	345 	159
f 609 	619 	159
f 136 	596 	104
f 104 	119 	136
f 596 	136 	620
f 597 	620 	139
f 137 	620 	136
f 620 	138 	139
f 620 	137 	138
f 139 	598 	597
f 611 	599 	598
f 611 	598 	139
f 600 	467 	611
# 1224 faces

g group_0_16777215

usemtl color_16777215
s 0

f 61 	182 	181
f 182 	61 	243
f 243 	61 	181
f 244 	245 	246
f 182 	246 	181
f 245 	181 	246
f 246 	182 	244
f 243 	244 	182
f 245 	244 	243
f 181 	245 	243
# 10 faces

 #end of obj_0

