# Created by Metasequoia

mtllib Heavy-Egg_Hammer.mtl

v -12.017683 26.299934 -1.024797
v -8.503004 26.299934 7.460348
v -10.410093 22.216141 -1.024801
v -7.366202 22.216137 6.323559
v -8.503004 26.299934 -9.509935
v -7.366213 22.216141 -8.373140
v -7.366202 29.002533 6.323559
v -10.410093 29.002529 -1.024805
v -7.366213 29.002533 -8.373144
v -8.428396 25.501434 7.832649
v -8.103603 24.017838 8.352638
v -8.998091 23.288338 5.691254
v -8.400497 22.864136 7.236357
v -8.516802 23.843346 4.989656
v -7.947101 26.056335 7.131052
v -6.607810 21.265343 5.730759
v -7.154505 21.809540 7.256855
v -6.126509 21.820240 5.029165
v -5.686014 24.846138 9.195534
v -6.674010 23.676235 9.063038
v -6.087407 22.311443 8.385948
v -6.017716 18.687443 -1.024790
v -4.260425 18.687447 3.217764
v -4.260427 18.687450 -5.267382
v -5.204717 25.401134 8.494041
v -4.560820 22.228142 7.896545
v -4.079523 22.783039 7.194948
v -0.017845 26.299934 10.975029
v -0.017841 22.216137 9.367443
v -0.017839 26.299934 -13.024622
v -0.017847 22.216141 -11.417025
v -0.017841 29.002533 9.367439
v -0.017847 29.002533 -11.417025
v -0.017850 18.687443 4.975065
v -0.017848 18.687447 -7.024664
v -0.017837 17.395844 -1.024790
v 4.224740 18.687447 3.217775
v 4.224736 18.687447 -5.267366
v 5.982020 18.687447 -1.024782
v 7.330522 22.216137 6.323559
v 7.330515 22.216141 -8.373152
v 8.467316 26.299934 7.460350
v 8.467312 26.299931 -9.509939
v 7.330522 29.002533 6.323559
v 7.330515 29.002529 -8.373148
v 8.364815 22.864136 7.236351
v 6.638323 23.676235 9.063042
v 8.067915 24.017838 8.352646
v 5.650324 24.846138 9.195534
v 4.525137 22.228142 7.896545
v 5.169030 25.401134 8.494041
v 4.043835 22.783039 7.194948
v 6.090827 21.820240 5.029161
v 6.572119 21.265343 5.730751
v 6.051724 22.311440 8.385942
v 7.118820 21.809540 7.256855
v 7.911415 26.056335 7.131052
v 8.392714 25.501434 7.832649
v 10.374399 22.216145 -1.024790
v 8.481115 23.843338 4.989664
v 8.962410 23.288338 5.691254
v 11.981993 26.299931 -1.024786
v 10.374399 29.002533 -1.024790
v 2.873644 19.924442 -1.024797
v 4.982031 19.924442 1.083590
v 4.112838 16.049850 -1.024794
v 4.982029 16.049850 -0.155592
v 4.982033 19.924446 -3.133188
v 4.982031 16.049850 -1.893984
v 4.982029 21.511536 -1.024794
v 4.982029 15.246655 -1.024794
v 5.851328 16.049850 -1.024797
v 7.090519 19.924442 -1.024797
v -7.126202 19.924446 -1.024794
v -5.017721 19.924442 1.083590
v -5.887012 16.049847 -1.024794
v -5.017719 16.049850 -0.155600
v -5.017713 19.924442 -3.133177
v -5.017721 16.049847 -1.893991
v -5.017713 21.511543 -1.024790
v -5.017713 15.246651 -1.024786
v -4.148521 16.049850 -1.024797
v -2.909326 19.924446 -1.024790
v -10.358389 26.962135 9.315735
v -14.641672 26.962139 -1.024794
v -9.908587 30.800634 8.976341
v -14.005484 31.492937 -0.901205
v -10.358397 26.962135 -11.365335
v -9.908594 32.095337 -10.778536
v -8.590300 36.029953 -6.773363
v -12.141191 33.270752 0.677794
v -13.209776 24.439835 -1.059191
v -8.724596 26.287735 -9.731535
v -11.276178 23.765438 -1.059187
v -8.724592 26.287735 7.681957
v -5.582216 33.672348 8.780441
v -7.887103 35.950752 3.703779
v -5.582218 38.229141 -1.372683
v -8.287304 33.196449 -14.538219
v -8.274006 35.557747 -12.955820
v -8.688097 30.982536 -11.230928
v -8.674898 33.343849 -9.648642
v -8.249790 38.868240 -10.737726
v -8.650599 36.654350 -7.430544
v -7.457704 40.178741 -9.181036
v -7.761909 38.498749 -6.671556
v -5.577818 26.980434 12.896515
v -5.577814 29.952433 12.222820
v -5.577814 25.644432 12.752022
v -5.577814 24.784439 10.842430
v -5.404417 35.340752 -5.497461
v -5.298614 37.502045 -5.204668
v -4.640215 34.096855 -15.912304
v -4.626917 36.458153 -14.329998
v -4.602718 39.768646 -12.111925
v -4.690218 40.861946 -10.223833
v -12.331175 26.287735 -1.024797
v -0.017843 26.962132 -15.648594
v -0.017850 32.487442 -14.869907
v -0.017841 23.196136 -14.577297
v -0.017847 22.278339 -12.817217
v -0.017843 37.492752 -10.186239
v -5.041116 32.710640 -12.335321
v -4.989822 39.997543 -7.167749
v -1.757434 36.241051 -6.871664
v -2.531230 38.185249 -6.247461
v -0.017843 39.172935 -3.475481
v -0.017841 28.093933 -1.400686
v -1.356538 38.455040 -10.178831
v -2.227035 39.865242 -8.756941
v -1.380834 35.144554 -12.396921
v -1.394033 32.783241 -13.979313
v -0.017843 29.599428 13.067715
v -0.017843 32.728539 10.883232
v -0.017837 23.840233 11.642830
v -0.017841 24.825832 13.310017
v -0.017841 26.962132 13.599010
v -0.017848 26.287735 11.288521
v -0.017839 33.720055 3.703474
v -0.017843 26.287735 -13.338129
v -1.781631 32.930649 -9.089731
v 8.688913 26.287735 -9.731535
v 1.745953 32.930649 -9.089731
v 1.358349 32.783241 -13.979313
v 1.345147 35.144554 -12.396921
v 5.542128 24.784439 10.842430
v 5.546529 33.672356 8.780437
v 5.546528 38.229149 -1.372694
v 1.721743 36.241051 -6.871664
v 1.320848 38.455040 -10.178835
v 8.688910 26.287735 7.681946
v 2.495544 38.185249 -6.247458
v 2.191344 39.865242 -8.756933
v 4.954134 39.997543 -7.167753
v 10.322708 26.962135 -11.365335
v 4.604537 34.096855 -15.912304
v 5.005428 32.710640 -12.335321
v 4.654528 40.861946 -10.223841
v 5.262926 37.502045 -5.204668
v 7.851410 35.950752 3.703768
v 5.542130 25.644432 12.752022
v 5.542128 26.980434 12.896515
v 5.542126 29.952433 12.222820
v 4.591233 36.458153 -14.330021
v 4.567032 39.768654 -12.111940
v 7.422016 40.178749 -9.181028
v 8.251619 33.196449 -14.538219
v 7.726216 38.498749 -6.671545
v 8.554609 36.029945 -6.773348
v 5.368725 35.340752 -5.497461
v 9.872906 30.800634 8.976341
v 10.322704 26.962135 9.315739
v 8.652414 30.982536 -11.230928
v 8.639214 33.343849 -9.648642
v 8.614916 36.654350 -7.430548
v 9.872910 32.095337 -10.778528
v 11.240503 23.765438 -1.059195
v 12.295492 26.287735 -1.024782
v 8.214113 38.868248 -10.737734
v 8.238314 35.557747 -12.955820
v 12.105494 33.270752 0.677797
v 13.969786 31.492929 -0.901194
v 14.605982 26.962139 -1.024794
v 13.174089 24.439835 -1.059191
v 12.697691 29.151131 1.258387
v 12.697689 29.151131 -3.307978
v 10.104105 32.220139 -1.024794
v 10.720404 32.575943 3.541578
v 10.720404 32.575935 -5.591162
v 8.743013 36.000847 1.258394
v 8.743013 36.000847 -3.307978
v 16.091873 28.288532 2.669481
v 16.091873 28.288536 -4.719072
v 12.892490 33.830055 6.363861
v 12.892494 33.830055 -8.413450
v 9.693108 39.371544 2.669485
v 9.693110 39.371544 -4.719069
v 12.445688 35.158852 5.288265
v 10.694904 38.153351 3.314386
v 12.331491 37.311951 6.638256
v 11.456099 38.809044 5.651360
v 12.445692 35.158859 -7.337858
v 12.331486 37.311943 -8.687849
v 10.694902 38.153343 -5.363970
v 11.456100 38.809044 -7.700945
v 14.051783 38.323051 6.646156
v 13.176390 39.820145 5.659260
v 14.051786 38.323044 -8.695738
v 13.176390 39.820145 -7.708849
v 14.135580 40.175644 3.330175
v 14.135586 40.175644 -5.379778
v 15.886574 37.181244 5.304070
v 15.886578 37.181244 -7.353643
v 20.071552 30.586134 2.669481
v 20.071552 30.586134 -4.719072
v 16.872169 36.127647 6.363853
v 16.872169 36.127655 -8.413443
v 13.672787 41.669250 2.669485
v 13.672787 41.669243 -4.719072
v 21.907738 34.468552 -3.307978
v 21.907738 34.468552 1.258390
v 21.098545 38.567749 -1.024794
v 19.930454 37.893349 3.541574
v 19.930454 37.893349 -5.591162
v 17.953068 41.318245 1.258394
v 17.953064 41.318237 -3.307966
v 13.817087 41.547943 -3.012274
v 14.972082 43.572243 -2.018480
v 13.817085 41.547943 0.962694
v 14.972082 43.572243 -0.031099
v 19.386555 32.520744 3.420378
v 17.991467 34.999557 5.106262
v 20.745152 33.538452 4.669367
v 20.047550 34.777954 5.512268
v 19.386559 32.520737 -5.469961
v 20.745148 33.538452 -6.718950
v 17.991467 34.999557 -7.155855
v 20.047550 34.777954 -7.561838
v 21.272240 34.691849 1.788492
v 21.687840 34.624153 3.853373
v 21.272240 34.691849 -3.838068
v 21.687840 34.624153 -5.902960
v 19.877151 37.170753 3.474382
v 20.990345 35.863556 4.696363
v 19.877151 37.170753 -5.523962
v 20.990337 35.863548 -6.745951
v 17.779964 41.238144 0.962698
v 16.953667 43.417336 -0.031088
v 17.779964 41.238144 -3.012285
v 16.953671 43.417328 -2.018476
v 16.266075 29.045731 -0.024801
v 17.982063 30.036432 1.956682
v 19.920956 24.801735 -0.024801
v 20.733448 25.270844 0.913294
v 17.982063 30.036432 -2.006292
v 20.733448 25.270836 -0.963007
v 21.055748 24.712639 -0.024900
v 19.698158 31.027237 -0.024897
v 21.545940 25.739937 -0.024904
v 23.669025 17.155342 2.769979
v 22.271629 16.348549 -0.024801
v 20.655350 23.975140 1.384306
v 19.950752 23.568336 -0.024794
v 23.669025 17.155350 -2.819582
v 20.655350 23.975136 -1.433882
v 20.424248 25.061832 0.789892
v 20.016853 24.826637 -0.024794
v 20.424248 25.061836 -0.839594
v 25.776917 16.731445 -0.024897
v 20.555347 25.775436 -0.024801
v 26.463810 18.768944 2.769979
v 22.064537 24.788738 1.384287
v 26.463818 18.768944 -2.819582
v 22.064537 24.788738 -1.433886
v 21.238945 25.532234 0.789888
v 21.238941 25.532242 -0.839594
v 21.646343 25.767437 -0.024797
v 27.861206 19.575741 -0.024900
v 22.769135 25.195538 -0.024805
v 27.646801 1.765671 -4.278070
v 24.340424 6.574558 -4.159376
v 28.286301 1.440968 4.057173
v 24.710323 6.238859 3.777876
v 25.909012 7.758055 -4.108374
v 26.154316 7.651455 3.612173
v 24.098621 11.139450 4.224672
v 22.574230 10.259356 -0.024897
v 21.257843 16.059849 4.224676
v 19.733452 15.179749 -0.024900
v 24.098625 11.139448 -4.274271
v 21.257847 16.059849 -4.274275
v 28.126102 5.511059 4.938471
v 28.167912 5.729063 -5.592165
v 25.155720 8.976154 5.180462
v 22.929726 6.956758 8.061356
v 23.937325 5.137066 7.190754
v 26.778111 7.777555 8.391144
v 25.075317 10.279453 7.505054
v 25.458721 12.674549 2.378687
v 25.431618 12.560150 -3.518763
v 33.946983 4.304264 4.299772
v 32.963581 3.660961 -4.556475
v 27.778709 13.264149 5.984859
v 24.937923 18.184647 5.984863
v 27.778706 13.264153 -6.034456
v 24.937927 18.184647 -6.034460
v 27.778706 13.264153 -0.024904
v 24.937923 18.184650 -0.024908
v 29.880093 10.373356 7.622253
v 29.560390 14.680653 -3.517775
v 30.778687 15.420654 2.875280
v 34.115578 6.787758 -4.999472
v 35.445381 7.593859 3.854174
v 33.258888 9.971756 -5.002371
v 31.458889 15.388947 4.224669
v 31.458881 15.388947 -4.274271
v 28.618103 20.309345 4.224665
v 28.618099 20.309334 -4.274271
v 34.557976 10.848753 3.599771
v 32.983280 16.269047 -0.024897
v 30.142494 21.189445 -0.024900
v -17.815762 41.238144 0.962698
v -17.815765 41.238144 -3.012285
v -16.989368 43.417336 -0.031099
v -16.989372 43.417336 -2.018484
v -19.912849 37.170753 3.474379
v -21.026047 35.863556 4.696363
v -21.307934 34.691849 1.788492
v -21.723541 34.624153 3.853373
v -19.912846 37.170753 -5.523962
v -21.307945 34.691856 -3.838079
v -21.026047 35.863548 -6.745951
v -21.723545 34.624153 -5.902967
v -15.007772 43.572243 -2.018480
v -15.007769 43.572243 -0.031099
v -20.780853 33.538452 -6.718943
v -20.083252 34.777954 -7.561850
v -20.780853 33.538460 4.669363
v -20.083252 34.777954 5.512257
v -13.852781 41.547943 0.962694
v -13.852777 41.547943 -3.012285
v -18.027157 34.999557 5.106258
v -18.027157 34.999550 -7.155844
v -19.422256 32.520744 3.420374
v -19.422249 32.520744 -5.469957
v -20.107246 30.586134 2.669470
v -20.107246 30.586134 -4.719053
v -21.943443 34.468552 1.258390
v -21.943443 34.468552 -3.307993
v -16.907864 36.127655 6.363859
v -19.966148 37.893349 3.541574
v -16.907864 36.127647 -8.413450
v -19.966145 37.893341 -5.591162
v -13.708479 41.669250 2.669485
v -17.988766 41.318245 1.258394
v -13.708475 41.669243 -4.719072
v -17.988762 41.318245 -3.307978
v -14.171274 40.175644 3.330175
v -13.212072 39.820145 5.659260
v -15.922270 37.181244 5.304070
v -14.087477 38.323051 6.646160
v -14.171274 40.175644 -5.379755
v -15.922274 37.181252 -7.353647
v -13.212072 39.820145 -7.708849
v -14.087481 38.323044 -8.695745
v -21.134247 38.567749 -1.024797
v -16.127571 28.288536 2.669485
v -16.127571 28.288536 -4.719072
v -12.928183 33.830055 6.363861
v -12.928190 33.830048 -8.413435
v -9.728792 39.371544 2.669497
v -9.728788 39.371544 -4.719069
v -12.481382 35.158852 5.288265
v -12.367182 37.311958 6.638241
v -12.481386 35.158852 -7.337851
v -12.367182 37.311951 -8.687834
v -10.730589 38.153351 3.314386
v -11.491785 38.809044 5.651360
v -10.730581 38.153343 -5.363955
v -11.491785 38.809044 -7.700956
v -12.733377 29.151131 1.258394
v -12.733381 29.151123 -3.307981
v -10.756086 32.575943 3.541578
v -10.756083 32.575935 -5.591162
v -8.778696 36.000847 1.258394
v -8.778696 36.000847 -3.307978
v -10.139791 32.220146 -1.024790
v -19.733860 31.027237 -0.024897
v -18.017761 30.036432 1.956682
v -21.581646 25.739937 -0.024908
v -20.769161 25.270836 0.913290
v -18.017761 30.036432 -2.006296
v -20.769150 25.270840 -0.962999
v -21.091454 24.712631 -0.024912
v -16.301765 29.045731 -0.024809
v -19.956650 24.801739 -0.024813
v -27.896923 19.575745 -0.024908
v -22.804840 25.195534 -0.024805
v -26.499531 18.768944 2.769976
v -22.100250 24.788738 1.384287
v -26.499531 18.768948 -2.819574
v -22.100227 24.788738 -1.433886
v -21.682037 25.767437 -0.024805
v -21.274651 25.532238 0.789896
v -21.274651 25.532242 -0.839602
v -25.812626 16.731449 -0.024889
v -20.591042 25.775436 -0.024794
v -20.459953 25.061832 0.789892
v -20.459946 25.061840 -0.839598
v -23.704727 17.155342 2.769979
v -23.704742 17.155342 -2.819590
v -20.691040 23.975136 1.384279
v -20.691051 23.975140 -1.433901
v -20.052551 24.826637 -0.024809
v -22.307343 16.348549 -0.024809
v -19.986443 23.568336 -0.024794
v -33.018990 16.269051 -0.024897
v -30.178200 21.189442 -0.024908
v -31.494595 15.388947 4.224669
v -28.653812 20.309345 4.224665
v -31.494579 15.388947 -4.274256
v -28.653805 20.309349 -4.274275
v -35.481071 7.593859 3.854174
v -34.151268 6.787758 -4.999472
v -34.593681 10.848751 3.599764
v -33.294586 9.971756 -5.002371
v -29.596115 14.680550 -3.517775
v -30.814400 15.420650 2.875299
v -27.814419 13.264149 5.984859
v -24.973629 18.184544 5.984852
v -27.814419 13.264153 -6.034456
v -24.973614 18.184547 -6.034464
v -27.814411 13.264156 -0.024900
v -24.973629 18.184544 -0.024897
v -29.915817 10.373354 7.622250
v -33.982674 4.304260 4.299780
v -32.999298 3.660961 -4.556479
v -28.203510 5.729063 -5.592165
v -28.161823 5.511059 4.938471
v -25.111027 10.279453 7.505054
v -25.494427 12.674549 2.378687
v -25.467319 12.560150 -3.518766
v -24.134338 11.139454 4.224665
v -24.134331 11.139450 -4.274267
v -21.293537 16.059845 4.224669
v -21.293549 16.059849 -4.274275
v -26.813831 7.777458 8.391148
v -28.322018 1.440968 4.057169
v -27.682522 1.765671 -4.278070
v -22.609924 10.259356 -0.024889
v -19.769157 15.179749 -0.024900
v -25.191418 8.976156 5.180470
v -26.190029 7.651360 3.612173
v -24.746029 6.238859 3.777876
v -24.376125 6.574558 -4.159376
v -25.944729 7.758055 -4.108374
v -23.973034 5.137062 7.190746
v -22.965439 6.956757 8.061340
v -3.554224 39.028343 6.368656
v -3.280124 39.512848 7.352745
v -3.748724 37.746849 7.398849
v -3.443824 38.316750 8.110542
v -2.279935 37.178352 8.485542
v -2.302637 37.647644 8.842140
v -2.045835 39.694847 6.067959
v -1.975339 40.039948 7.125950
v -0.851541 37.740654 8.627436
v -0.506139 39.141754 7.113861
v -2.159235 39.036446 8.361843
v -0.997835 38.174858 8.970345
v -0.763441 39.370949 7.656946
v -0.899438 36.240349 7.502552
v -1.444334 37.872551 7.116959
v -0.607942 37.139252 9.528439
v -0.972641 38.231644 9.270332
v -0.017847 38.881248 6.878651
v -0.017845 38.906746 9.110840
v -0.017845 38.800949 13.062716
v 0.572251 37.139252 9.528444
v 0.863751 36.240349 7.502552
v 0.936949 38.231651 9.270336
v 1.408649 37.872551 7.116959
v 0.727750 39.370949 7.656952
v 2.123545 39.036446 8.361847
v 0.962152 38.174858 8.970345
v 0.815852 37.740654 8.627439
v 0.470457 39.141754 7.113853
v 1.939650 40.039948 7.125950
v 2.266943 37.647644 8.842140
v 2.010149 39.694839 6.067955
v 3.244441 39.512840 7.352757
v 3.408137 38.316750 8.110542
v 2.244243 37.178352 8.485542
v 3.518536 39.028351 6.368660
v 3.713037 37.746849 7.398857
v 2.358643 11.730453 -1.024797
v 3.279639 16.052448 -1.024782
v 3.793333 11.730453 1.460184
v 4.130837 16.052448 0.449488
v 3.793341 11.730457 -3.509783
v 4.130835 16.052444 -2.499094
v 5.228131 10.596157 -1.024797
v 4.982029 17.085747 -1.024797
v 5.833331 16.052448 0.449488
v 5.833325 16.052452 -2.499090
v 6.662821 11.730453 1.460184
v 6.662823 11.730457 -3.509783
v 6.684519 16.052448 -1.024797
v 8.097511 11.730453 -1.024809
v -1.775432 0.047169 3.922174
v -2.142232 0.047169 -4.938761
v -1.141435 3.836765 3.925184
v -1.545036 3.836761 -4.669771
v 0.401859 0.047169 -8.866339
v 1.040453 3.836868 -8.151346
v 0.582951 6.670057 4.037271
v 0.640452 7.480757 -1.267691
v 0.854451 0.047169 11.990818
v 0.829957 3.836760 10.965630
v 4.958828 7.480761 -6.008173
v 2.667545 7.521658 3.899881
v -0.259943 7.521656 -1.170687
v 2.857245 11.736851 3.728876
v 0.112656 11.736855 -1.024790
v 2.667548 7.521658 -6.241365
v 2.857237 11.736851 -5.778475
v 0.686648 5.543259 8.696543
v 4.958833 7.480762 4.195379
v 5.033334 6.048061 9.525940
v 4.913433 0.047169 -11.992731
v 4.913434 3.836859 -11.122133
v 5.026129 3.836765 13.903011
v 5.026128 0.047169 15.170204
v 5.957324 7.521656 -1.170687
v 5.601824 11.736855 -1.024794
v 10.552206 0.047169 11.990818
v 11.254902 0.047173 -8.887342
v 8.346413 11.736855 3.728884
v 8.346415 11.736851 -5.778475
v 8.522615 7.521654 3.899866
v 8.522610 7.521658 -6.241362
v 7.507717 6.369259 -7.573057
v 13.172791 0.047169 3.975279
v 13.548988 0.047176 -4.938768
v 10.783602 3.836864 -8.155653
v 11.090998 11.736855 -1.024790
v 11.450195 7.521654 -1.170702
v 10.504303 5.524260 8.754538
v 10.408007 6.661362 4.009573
v 10.707802 3.836760 10.965630
v 9.670706 7.480757 -1.267691
v 10.541397 6.650158 -2.873980
v 12.538792 3.836761 3.978273
v 12.951790 3.836765 -4.669779
v -6.698506 11.730453 1.460196
v -8.133202 11.730453 -1.024797
v -5.869013 16.052444 0.449499
v -6.720210 16.052448 -1.024797
v -6.698508 11.730457 -3.509783
v -5.869011 16.052444 -2.499079
v -5.263814 10.596161 -1.024782
v -5.017713 17.085747 -1.024794
v -3.829025 11.730450 1.460188
v -3.829027 11.730453 -3.509790
v -4.166523 16.052448 0.449484
v -4.166528 16.052444 -2.499094
v -3.315328 16.052448 -1.024782
v -2.394323 11.730453 -1.024797
v -13.208483 0.047169 3.975279
v -13.584681 0.047176 -4.938768
v -12.574476 3.836758 3.978273
v -12.987486 3.836765 -4.669779
v -11.290579 0.047173 -8.887342
v -10.819288 3.836864 -8.155649
v -10.587889 0.047169 11.990826
v -10.743483 3.836765 10.965641
v -10.443689 6.661362 4.009573
v -10.577089 6.650158 -2.873980
v -7.543409 6.369263 -7.573057
v -8.558298 7.521654 3.899866
v -11.485888 7.521656 -1.170687
v -8.382103 11.736855 3.728884
v -11.126684 11.736855 -1.024794
v -8.558302 7.521658 -6.241365
v -8.382103 11.736855 -5.778463
v -9.706392 7.480755 -1.267694
v -4.994516 7.480759 4.195368
v -10.539991 5.524261 8.754547
v -4.994516 7.480761 -6.008173
v -4.949125 0.047169 -11.992739
v -4.949117 3.836863 -11.122110
v -5.061819 3.836765 13.903011
v -5.061819 0.047169 15.170197
v -5.069017 6.048061 9.525940
v -5.993018 7.521656 -1.170687
v -5.637514 11.736855 -1.024790
v 2.106549 0.047169 -4.938761
v -0.437540 0.047169 -8.866339
v 1.739747 0.047169 3.922174
v -0.890140 0.047169 11.990826
v -2.703226 7.521654 3.899866
v -2.892931 11.736855 3.728884
v -2.703228 7.521658 -6.241362
v -2.892927 11.736855 -5.778463
v -1.076139 3.836863 -8.151346
v -0.148340 11.736855 -1.024790
v 0.224253 7.521656 -1.170687
v -0.618635 6.670059 4.037279
v -0.676141 7.480757 -1.267691
v -0.865640 3.836760 10.965630
v -0.722337 5.543259 8.696543
v 1.105748 3.836765 3.925173
v 1.509346 3.836765 -4.669779
v -1.720136 41.753220 4.674749
v -2.425230 41.753220 2.972357
v -0.017843 42.799492 2.969629
v -1.720136 41.753220 1.270067
v -0.017842 41.753220 5.379850
v -0.017841 41.753197 0.562258
v 1.684450 41.753220 4.674757
v 1.684442 41.753220 1.270067
v 2.389544 41.753220 2.972357
v -6.670111 36.918251 2.978476
v -4.721716 36.918251 7.682453
v -6.099314 34.570343 2.978476
v -4.318124 34.570351 7.278847
v -4.721716 36.918243 -1.725290
v -4.318122 34.570351 -1.321688
v -3.760625 38.534050 6.721359
v -5.311019 38.534050 2.978479
v -3.760620 38.534050 -0.764288
v -2.415235 39.688644 5.375965
v -3.408227 39.688644 2.978483
v -2.415229 39.688644 0.581095
v -0.017837 36.918251 9.630838
v -0.017850 34.570351 9.060047
v -0.017841 36.918251 -3.673685
v -0.017843 34.570351 -3.102877
v -0.017847 38.534050 8.271748
v -0.017841 38.534050 -2.314589
v -0.017843 33.117447 2.978483
v -0.017843 39.688652 6.368954
v -0.017843 39.688644 -0.411894
v 4.282435 34.570351 7.278847
v 4.282429 34.570351 -1.321688
v 3.724936 38.534050 6.721359
v 2.379545 39.688644 5.375965
v 3.724940 38.534050 -0.764288
v 2.379542 39.688644 0.581095
v 6.063623 34.570343 2.978476
v 4.686033 36.918251 7.682446
v 4.686035 36.918251 -1.725279
v 5.275332 38.534050 2.978479
v 3.372537 39.688644 2.978483
v 6.634423 36.918251 2.978479
v -2.139127 41.079041 5.096478
v -3.017725 41.079041 2.975088
v -2.139129 41.079041 0.853796
v -0.017845 41.079041 5.975060
v -0.017837 41.079033 -0.024794
v -0.017845 41.753242 0.567698
v 2.103443 41.079041 5.096458
v 2.103442 41.079041 0.853796
v 2.982039 41.079041 2.975088
v -4.063928 41.975891 0.948320
v -2.878829 42.318199 3.809298
v -6.588715 40.554398 0.948309
v -5.881516 40.522095 3.281801
v -5.173116 39.388405 -4.206942
v -2.878833 41.975891 -1.912565
v -2.624631 40.565796 7.987370
v -4.203123 39.935791 5.095289
v -0.017847 39.388405 -6.342340
v -0.017845 41.975891 -3.097662
v -0.017841 42.455101 4.994402
v -0.017843 40.782089 9.141466
v -0.017843 42.899391 0.948320
v -0.017847 39.183006 10.167156
v -0.017841 38.892006 7.815571
v 2.588940 40.565796 7.987370
v 2.843138 41.975891 -1.912565
v 2.843146 42.318199 3.809298
v 4.167430 39.935791 5.095282
v 4.028231 41.975891 0.948317
v 5.137433 39.388405 -4.206945
v 5.845829 40.522095 3.281801
v 6.553023 40.554398 0.948324
v -7.947701 35.332405 0.948317
v -9.109297 36.470604 0.948313
v -8.046101 34.819908 3.809389
v -8.702402 35.552101 3.783083
v -7.180808 36.470604 -5.480242
v -5.698217 35.332405 -4.384951
v -4.153120 34.132919 8.958160
v -5.729811 35.216911 8.069466
v -4.257421 36.881798 8.671368
v -3.311430 41.177689 -1.178572
v -5.815310 37.275505 8.058670
v -0.017841 36.470604 -8.143019
v -0.017843 35.332405 -6.594141
v 3.275738 41.177689 -1.178576
v 5.662526 35.332405 -4.384951
v 8.010409 34.819908 3.809397
v 4.221735 36.881798 8.671368
v 4.117433 34.132919 8.958160
v 7.145117 36.470604 -5.480242
v 5.779630 37.275505 8.058676
v 8.666710 35.552101 3.783083
v 5.694127 35.216911 8.069466
v 7.912016 35.332405 0.948317
v 9.073610 36.470604 0.948313
v -0.017845 44.682182 -6.489637
v -1.281141 42.588799 -5.322439
v -0.017843 41.726700 -11.938608
v -1.198841 41.151199 -8.300417
v -0.998846 47.301796 -2.280558
v -0.017839 49.461189 -3.665255
v -0.017843 52.806908 2.708006
v -0.017839 50.316978 12.853239
v -0.957040 49.775993 2.198313
v -1.008531 47.820885 9.678768
v 1.163151 41.151199 -8.300417
v 0.972849 47.820885 9.678757
v 0.963154 47.301796 -2.280558
v 0.921351 49.775993 2.198313
v 1.245446 42.588799 -5.322443
v -0.831140 42.282097 0.938223
v -0.831140 40.495499 -4.155256
v -0.831136 41.255295 5.921875
v 0.795455 40.495499 -4.155256
v 0.795451 41.255280 5.921883
v 0.795452 42.282097 0.938223
v 26.147507 2.342472 -18.881983
v 23.348930 7.189758 -18.881983
v 27.978207 5.513363 -8.014845
v 27.010311 7.189764 -8.014833
v 28.946091 7.189770 -24.076551
v 27.978207 5.513359 11.023825
v 27.010307 7.189758 11.023829
v 31.744678 2.342464 -18.881975
v 29.913990 5.513367 -8.014837
v 26.147507 12.037052 -18.881975
v 27.978207 8.866259 -8.014841
v 29.913994 5.513359 11.023834
v 27.978207 8.866257 11.023827
v 30.881889 7.189762 -8.014845
v 30.881889 7.189760 11.023830
v 29.913990 8.866158 -8.014849
v 29.913994 8.866154 11.023829
v 34.543274 7.189758 -18.881983
v 31.744678 12.037048 -18.881975
v 30.537598 -19.710705 59.975105
v 30.537601 -19.710705 49.974480
v 27.492409 -14.436310 59.975113
v 27.492413 -14.436317 49.974487
v 6.445422 22.018333 49.974480
v 6.445428 22.018333 59.975113
v 9.490807 16.743546 49.974495
v 9.490803 16.743546 59.975105
v 23.463142 -5.486332 59.567032
v 23.463131 -5.486332 50.382584
v 15.226875 8.779350 50.382576
v 15.226881 8.779354 59.567017
v 33.779587 -20.497208 50.974480
v 33.779587 -20.497204 58.975128
v 7.385324 25.219135 58.975121
v 7.385321 25.219135 50.974480
v 25.033928 0.169262 57.832130
v 25.033928 0.169270 52.117477
v 20.910152 7.311954 52.117470
v 20.910145 7.311958 57.832130
v 36.661865 -16.174915 42.902832
v 33.616684 -10.900417 42.902817
v 12.569691 25.554134 42.902824
v 15.615076 20.279335 42.902832
v 36.661865 -16.174923 67.046761
v 33.616692 -10.900421 67.046761
v 12.569691 25.554127 67.046761
v 15.615074 20.279335 67.046761
v 29.087296 -2.239132 43.888313
v 20.851044 12.026550 43.888321
v 29.087303 -2.239128 66.061287
v 20.851048 12.026550 66.061287
v 12.284597 28.047829 45.317207
v 38.678864 -17.668606 64.632401
v 38.678848 -17.668606 45.317207
v 12.284588 28.047829 64.632401
v 28.533493 2.189762 48.076492
v 24.409718 9.332453 48.076485
v 28.533508 2.189770 61.873108
v 24.409729 9.332455 61.873108
v 40.586739 -12.972523 54.974731
v 17.305462 27.352032 54.974747
v 25.711220 7.189758 48.027084
v 27.328606 4.388359 48.027084
v 25.917816 7.189754 39.980637
v 27.431900 4.567261 39.980644
v 27.346210 7.189655 34.894882
v 28.146103 5.804157 34.894890
v 28.146103 5.804161 10.974232
v 27.346203 7.189659 10.974230
v 30.563587 4.388260 48.027084
v 30.460289 4.567160 39.980644
v 27.328709 9.991251 48.027084
v 27.432007 9.812353 39.980652
v 29.746094 5.804159 34.894882
v 28.146103 8.575459 34.894882
v 29.746094 5.804161 10.974232
v 28.146103 8.575459 10.974228
v 45.607620 -13.668316 45.317215
v 19.213360 32.048126 45.317207
v 45.607620 -13.668312 64.632385
v 19.213364 32.048126 64.632401
v 45.322517 -11.174625 42.902824
v 42.277321 -5.900127 42.902824
v 21.230343 30.554426 42.902832
v 24.275723 25.279633 42.902824
v 37.041168 2.353062 43.888329
v 28.804893 16.618744 43.888321
v 33.482491 5.047062 48.076492
v 29.358704 12.189747 48.076492
v 29.358704 12.189751 61.873123
v 33.482475 5.047058 61.873108
v 37.041176 2.353062 66.061287
v 28.804905 16.618744 66.061302
v 45.322517 -11.174618 67.046761
v 21.230347 30.554426 67.046776
v 42.277328 -5.900127 67.046761
v 24.275726 25.279629 67.046761
v 30.546089 7.189760 10.974228
v 30.546097 7.189756 34.894882
v 29.746094 8.575357 10.974234
v 29.746094 8.575356 34.894882
v 31.974388 7.189856 39.980644
v 30.460289 9.812351 39.980644
v 32.180992 7.189861 48.027092
v 30.563587 9.991251 48.027084
v 50.506882 -10.839619 50.974464
v 24.112625 34.876747 50.974487
v 50.506897 -10.839622 58.975128
v 24.112633 34.876747 58.975121
v 32.858295 14.210247 52.117477
v 36.982063 7.067551 52.117477
v 32.858280 14.210243 57.832130
v 36.982071 7.067553 57.832130
v 42.665321 5.600159 50.382576
v 34.429085 19.865841 50.382584
v 42.665337 5.600159 59.567032
v 34.429077 19.865837 59.567024
v 27.354610 34.090347 49.974480
v 51.446793 -7.638725 59.975121
v 51.446800 -7.638725 49.974487
v 27.354618 34.090340 59.975128
v 48.401611 -2.364330 49.974480
v 30.399998 28.815529 49.974495
v 30.399994 28.815529 59.975136
v 48.401604 -2.364330 59.975121
v 28.866997 -13.750916 48.543289
v 31.771286 -18.781406 48.543274
v 29.012100 -14.773312 46.802902
v 30.958389 -18.144501 46.802887
v 7.867112 22.622036 48.543297
v 10.771393 17.591545 48.543289
v 8.012216 21.599636 46.802902
v 9.958611 18.228439 46.802902
v 31.771297 -18.781410 61.406311
v 28.867012 -13.750919 61.406311
v 30.958393 -18.144512 63.146675
v 29.012100 -14.773315 63.146675
v 10.771503 17.591545 61.406311
v 7.867119 22.622032 61.406311
v 9.958603 18.228443 63.146690
v 8.012210 21.599632 63.146690
v 35.328377 -16.727711 44.435921
v 33.342186 -16.768211 44.050423
v 32.424091 -11.697220 44.435921
v 31.395782 -13.397015 44.050415
v 14.328581 19.645241 44.435913
v 12.342293 19.604736 44.050423
v 11.424196 24.675735 44.435913
v 10.396004 22.975838 44.050423
v 35.328369 -16.727711 65.513680
v 33.342178 -16.768211 65.899193
v 32.424084 -11.697227 65.513695
v 31.395794 -13.397015 65.899193
v 14.328577 19.645241 65.513695
v 12.342291 19.604740 65.899208
v 11.424204 24.675732 65.513695
v 10.396006 22.975830 65.899208
v 28.423397 -17.360607 42.246933
v 7.423617 19.012238 42.246941
v 28.423401 -17.360607 67.702644
v 7.423626 19.012241 67.702690
v 45.549911 -5.225128 44.050415
v 47.496201 -8.596325 44.050415
v 50.468597 -4.632725 42.246925
v 24.550022 31.147730 44.050415
v 26.496410 27.776630 44.050423
v 29.468796 31.740133 42.246933
v 47.496201 -8.596325 65.899162
v 45.549919 -5.225132 65.899193
v 50.468582 -4.632729 67.702660
v 26.496407 27.776630 65.899208
v 24.550026 31.147730 65.899193
v 29.468796 31.740133 67.702660
v 49.879990 -7.220127 46.802895
v 47.933594 -3.848927 46.802895
v 28.880108 29.152824 46.802910
v 26.933807 32.524040 46.802902
v 49.880005 -7.220127 63.146675
v 47.933609 -3.848934 63.146690
v 28.880096 29.152824 63.146690
v 26.933811 32.524033 63.146690
v 43.563637 -5.265728 44.435921
v 46.468002 -10.296223 44.435913
v 22.563831 31.107231 44.435913
v 25.468121 26.076729 44.435913
v 46.468018 -10.296215 65.513695
v 43.563622 -5.265728 65.513680
v 25.468117 26.076733 65.513695
v 22.563843 31.107224 65.513710
v 50.025093 -8.242523 48.543282
v 47.120811 -3.212032 48.543289
v 29.025299 28.130424 48.543289
v 26.120918 33.160942 48.543297
v 50.025078 -8.242523 61.406311
v 47.120811 -3.212032 61.406326
v 29.025311 28.130421 61.406311
v 26.120914 33.160942 61.406311
# 929 vertices

vt 0.71230 0.51860
vt 0.71230 0.32520
vt 0.97460 0.51860
vt 0.97460 0.32520
vt 0.84450 0.83700
vt 0.84450 0.99310
vt 0.70920 0.83700
vt 0.70920 0.99310
vt 0.97980 0.94210
vt 0.87980 0.94210
vt 0.97980 0.83150
vt 0.87980 0.83150
vt 0.77660 0.47780
vt 0.77660 0.57780
vt 0.92660 0.47780
vt 0.92660 0.57780
vt 0.88500 0.82700
vt 0.89110 0.78970
vt 0.98610 0.82700
vt 0.97990 0.78970
vt 0.70420 0.67030
vt 0.70420 0.34310
vt 0.98290 0.67030
vt 0.98290 0.34310
vt 0.93550 0.78970
vt 0.95570 0.55140
vt 0.85130 0.37900
vt 0.74690 0.55140
vt 0.88500 0.82660
vt 0.93550 0.78920
vt 0.98610 0.82660
vt 0.89110 0.78920
vt 0.97990 0.78920
vt 0.75210 1.23190
vt 0.75210 0.99820
vt 0.69720 1.23190
vt 0.74670 0.99820
vt 0.92580 1.23190
vt 0.87620 0.99820
vt 0.74990 1.26990
vt 0.90160 1.27040
vt 0.76000 1.31660
vt 0.90160 1.02590
vt 0.74990 1.02640
vt 0.76000 1.00250
vt 0.00000 1.00000
vt 0.20820 0.00000
vt 0.20820 0.21880
vt 0.50330 0.00000
vt 0.50330 0.13460
vt 0.55740 0.00000
vt 0.55740 0.19470
vt 0.20820 0.19470
vt 0.53000 0.03910
vt 0.24990 0.13460
vt 0.49990 0.21990
vt 0.24990 0.21860
vt 0.71760 0.13670
vt 0.71760 0.00000
vt 0.81760 0.13670
vt 0.81760 0.00000
vt 0.69990 0.55980
vt 0.70000 0.69690
vt 0.91540 0.55980
vt 0.91540 0.69690
vt 0.95000 0.00000
vt 0.70000 0.00000
vt 0.95000 0.16140
vt 0.70000 0.16140
vt 0.52160 0.00170
vt 0.67160 0.00170
vt 0.52160 0.14010
vt 0.67160 0.14010
vt 0.74990 0.55000
vt 0.89990 0.55000
vt 0.74990 0.69990
vt 0.90000 0.69990
vt 0.64990 0.00000
vt 0.34990 0.09990
vt 0.67370 0.22060
vt 0.34990 0.22060
vt 0.84990 0.15880
vt 0.78880 0.07280
vt 0.72820 0.14470
vt 0.79990 0.55000
vt 0.94990 0.55000
vt 0.82490 0.62490
vt 0.89990 0.62490
vt 0.50330 0.21860
vt 0.94990 0.00000
vt 0.69990 0.16140
vt 0.79990 0.15550
vt 0.74990 0.03740
vt 0.69990 0.15550
vt 0.79990 0.15580
vt 0.71110 0.15550
vt 0.69990 0.03740
vt 0.62660 0.04210
vt 0.20820 0.04210
vt 0.57890 0.21990
vt 0.69990 0.89250
vt 0.85000 0.89250
vt 0.77820 0.71120
vt 0.35000 0.00000
vt 0.34990 0.10000
vt 0.68280 0.70000
vt 0.74370 0.69990
vt 0.68280 0.55000
vt 0.87980 0.75470
vt 0.97980 0.75470
vt 0.93580 0.82980
vt 0.24990 0.10000
vt 0.60000 0.10000
vt 0.44990 0.64990
vt 0.89990 0.16140
vt 0.89990 0.00000
vt 0.69990 0.00000
vt 0.61420 0.51500
vt 0.31460 0.56010
vt 0.61420 0.73000
vt 0.31460 0.73000
vt 0.20820 0.14990
vt 0.54500 0.09990
vt 0.49500 0.00000
vt 0.20820 0.10230
vt 0.49500 0.22060
vt 0.20820 0.22060
vt 0.70600 0.95350
vt 0.77970 0.61260
vt 0.86040 0.95350
vt 0.95000 0.55000
vt 0.59990 0.10000
vt 0.45000 0.65000
vt 0.71460 0.03580
vt 0.80060 0.03690
vt 0.78700 0.03180
vt 0.78670 0.15320
vt 0.70900 0.15320
vt 0.45000 0.64990
vt 0.59990 0.09990
vt 0.94990 0.16140
vt 0.79990 0.15050
vt 0.74990 0.15550
vt 0.60000 0.09990
vt 0.67510 0.03910
vt 0.64500 0.21990
vt 0.39500 0.13460
vt 0.39500 0.21860
vt 0.71540 1.71420
vt 0.77890 1.56480
vt 0.85000 1.71400
vt 0.70280 1.99490
vt 0.73320 1.75760
vt 0.85280 1.99490
vt 0.82050 1.75760
vt 0.88830 1.72730
vt 0.88830 1.93170
vt 0.97700 1.72730
vt 0.97700 1.93170
vt 0.96790 1.97950
vt 0.89960 1.97950
vt 0.96790 1.99380
vt 0.89960 1.99380
vt 0.66670 1.18910
vt 0.66670 1.00130
vt 0.45340 1.18910
vt 0.45340 1.00130
vt 0.90550 0.84820
vt 0.93330 0.91830
vt 0.96850 0.84820
vt 0.44760 1.00320
vt 0.44760 1.21800
vt 0.66090 1.00320
vt 0.66090 1.21800
vt 0.70000 0.24990
vt 0.80000 0.24990
vt 0.79990 0.00000
vt 0.73530 0.02060
vt 0.74740 0.00280
vt 0.72330 0.02060
vt 0.74740 0.02060
vt 0.77830 0.19100
vt 0.98880 0.19180
vt 0.84890 0.19180
vt 0.91880 0.19180
vt 0.77150 0.02060
vt 0.75940 0.02060
vt 0.89990 0.24990
vt 0.50350 0.00290
vt 0.50350 0.25700
vt 0.40270 0.00290
vt 0.40270 0.25700
vt 0.82490 0.98290
vt 0.82490 0.87900
vt 0.72410 0.98290
vt 0.72410 0.87900
vt 0.00000 0.43300
vt 0.25000 0.86600
vt 0.49990 0.43300
vt 0.74990 0.86600
vt 0.82490 0.00290
vt 0.77440 0.13070
vt 0.72410 0.00480
vt 0.25000 0.00000
vt 0.99990 0.43300
vt 0.74990 0.00000
vt 0.00580 1.00870
vt 0.18550 1.00870
vt 0.00580 1.15930
vt 0.18550 1.15930
vt 0.00490 1.00510
vt 0.18630 1.00510
vt 0.00490 1.01770
vt 0.18630 1.01770
vt 0.90000 0.75560
vt 0.90000 0.92970
vt 0.98330 0.75560
vt 0.98330 0.92970
vt 0.18640 1.05090
vt 0.00250 1.05090
vt 0.18640 1.12540
vt 0.00250 1.12520
vt 0.71240 1.24130
vt 0.79500 1.25620
vt 0.79390 1.21880
vt 0.80000 1.20000
vt 0.69340 1.28020
vt 0.80000 1.24990
vt 0.73290 1.30430
vt 0.69340 1.20000
vt 0.85050 1.20820
vt 0.71240 1.27430
vt 0.79500 1.23860
vt 0.71260 1.20120
vt 0.44990 1.71090
vt 0.44990 1.55000
vt 0.60000 1.71090
vt 0.60000 1.55000
vt 0.69340 1.22190
vt 0.71750 1.31310
vt 0.85050 1.23020
vt 0.71530 1.20000
vt 0.18550 1.21200
vt 0.18550 1.00430
vt 0.00580 1.21200
vt 0.00580 1.00430
vt 0.73180 1.24720
vt 0.83390 1.22680
vt 0.83020 1.27990
vt 0.73930 1.16380
vt 0.78990 1.23340
vt 0.84560 1.20520
vt 0.50770 1.22190
vt 0.68870 1.32120
vt 0.68900 1.44990
vt 0.68850 1.22190
vt 0.90550 0.84440
vt 0.93330 0.96290
vt 0.96850 0.84440
vt 0.89810 0.97780
vt 0.92590 1.18140
vt 0.96110 0.97780
vt 0.69170 1.31310
vt 0.90160 1.31310
vt 0.69110 1.17800
vt 0.88240 1.31530
vt 0.69440 1.31310
vt 0.69390 1.22190
vt 0.70600 1.14280
vt 0.77960 1.07230
vt 0.77580 1.16580
vt 0.73290 1.14500
vt 0.82410 1.16580
vt 0.78050 1.07230
vt 0.54940 1.50110
vt 0.62250 1.54510
vt 0.68460 1.22130
vt 0.89990 1.30380
vt 0.89990 1.66310
vt 0.74990 1.30380
vt 0.74990 1.66310
vt 0.90000 1.30380
vt 0.75460 1.35450
vt 0.94220 1.35830
vt 0.79670 1.48230
vt 0.89050 1.48420
vt 0.30080 1.72040
vt 0.40080 1.72040
vt 0.30080 1.78830
vt 0.40080 1.78830
vt 0.44990 1.72040
vt 0.45000 1.78830
vt 0.35000 1.72040
vt 0.35000 1.78830
vt 0.27300 1.99110
vt 0.22600 1.95550
vt 0.11390 1.99930
vt 0.11560 1.97010
vt 0.35000 1.76560
vt 0.45000 1.76560
vt 0.18000 1.92070
vt 0.21900 1.94990
vt 0.12950 1.98110
vt 0.16280 1.99970
vt 0.27270 1.81180
vt 0.13270 1.87090
vt 0.23450 1.96090
vt 0.15720 1.72180
vt 0.13120 1.86740
vt 0.00850 1.92450
vt 0.02850 1.91300
vt 0.02360 1.76810
vt 0.88510 1.74790
vt 0.88510 1.83990
vt 0.98490 1.74790
vt 0.98510 1.83990
vt 0.01300 1.76200
vt 0.03860 1.78260
vt 0.88510 1.99990
vt 0.74990 1.74790
vt 0.74990 1.83990
vt 0.90000 1.74790
vt 0.84990 1.83990
vt 0.38940 1.01670
vt 0.55790 1.01670
vt 0.38940 1.23970
vt 0.55790 1.23970
vt 0.34060 1.02030
vt 0.44860 1.02030
vt 0.39460 0.89690
vt 0.72610 0.99440
vt 0.80610 0.99440
vt 0.75320 1.09880
vt 0.91540 1.55980
vt 0.91540 1.69690
vt 0.69990 1.55980
vt 0.70000 1.69690
vt 0.60000 1.20000
vt 0.49990 1.32240
vt 0.40000 1.20000
vt 0.44990 1.37240
vt 0.60000 1.37240
vt 0.49990 1.37240
vt 0.87580 0.76210
vt 0.87580 0.92590
vt 0.98270 0.76210
vt 0.98270 0.92590
vt 0.44610 1.27240
vt 0.21350 1.32240
vt 0.21350 1.20000
vt 0.44610 1.20000
vt 0.60000 1.60000
vt 0.40000 1.60000
vt 0.60000 1.40000
vt 0.40000 1.40000
vt 0.60000 1.31510
vt 0.40000 1.27240
vt 0.39990 1.40000
vt 0.60000 1.39990
vt 0.49990 1.60000
vt 0.94990 0.97940
vt 0.89990 0.97940
vt 0.89990 1.21200
vt 0.89990 1.17110
vt 0.40000 1.19900
vt 0.60000 1.19900
vt 0.72410 1.36630
vt 0.93960 1.36630
vt 0.83180 1.50340
vt 0.64990 1.37240
vt 0.49990 1.20000
vt 0.93960 1.50340
vt 0.72410 1.50340
vt 0.55000 1.32240
vt 0.44990 1.20000
vt 0.39990 1.60000
vt 0.40000 1.32240
vt 0.60000 1.19710
vt 0.40000 1.19710
vt 0.40000 1.20090
vt 0.60000 1.20090
vt 0.40000 1.32330
vt 0.60000 1.32330
vt 0.32740 0.14800
vt 0.47800 0.61490
vt 0.62870 0.14800
vt 0.67290 1.99990
vt 0.65460 1.74990
vt 0.31050 1.99990
vt 0.32880 1.74990
vt 0.99460 1.55960
vt 0.99460 1.69890
vt 0.69990 1.55960
vt 0.69990 1.69890
vt 0.25420 1.00460
vt 0.25420 1.22160
vt 0.38610 1.00460
vt 0.38610 1.22160
vt 0.44990 1.74990
vt 0.49990 1.71410
vt 0.55000 1.74990
vt -0.22150 0.72630
vt -0.22150 0.98700
vt -0.29270 0.72630
vt -0.29270 0.98700
vt -0.12240 0.75480
vt -0.11680 0.84560
vt -0.01360 0.75480
vt -0.01920 0.84560
vt 0.88650 0.84360
vt 0.88650 0.76550
vt 0.92860 0.84360
vt 0.92860 0.76550
vt 0.98650 0.75770
vt 0.98650 0.84360
vt 0.93100 0.83440
vt 0.90970 0.75770
vt 0.98090 0.75700
vt 0.90560 0.79370
vt 0.97110 0.84080
vt 0.95830 0.76480
vt 0.88650 0.75770
vt 0.95760 0.84360
vt 0.92680 0.84360
vt 0.95760 0.77540
vt 0.92680 0.77540
vt 0.89990 0.75820
vt 0.94990 0.75820
vt 0.92670 0.87260
vt 0.94150 0.82050
vt 0.98230 0.82100
vt 0.88230 0.75820
vt 0.92950 0.83400
vt 0.88230 0.81890
vt 0.93230 0.77890
vt 0.98230 0.81890
vt 0.84580 0.30040
vt 0.11300 0.30040
vt 0.84580 0.51500
vt 0.24750 0.51500
vt 0.10000 0.91980
vt 0.48030 0.91980
vt 0.10000 0.20000
vt 0.48030 0.20000
vt 0.39930 0.20000
vt 1.44710 0.20000
vt 0.64930 0.91980
vt 1.44710 0.91980
vt 0.25180 0.27360
vt 0.71380 0.27360
vt 0.24750 0.71420
vt 0.70940 0.71850
vt 0.75610 0.92800
vt 0.09560 0.92800
vt 0.75610 0.47730
vt 0.09560 0.47730
vt 0.03900 0.47730
vt 0.03900 0.92800
vt -0.36580 0.47730
vt -0.36580 0.92800
vt 0.89990 0.91980
vt 0.53860 0.20000
vt -0.17190 0.91980
vt 0.27180 0.52690
vt 0.78770 0.52690
vt 0.15590 0.34190
vt 0.78770 0.34190
vt -0.20000 0.20000
vt 0.80000 0.20000
vt -0.20000 0.91980
vt 0.80000 0.91980
vt 0.25500 0.21400
vt 0.17860 0.34930
vt 0.10500 0.21400
vt 0.47840 0.69030
vt 0.71650 0.23310
vt 0.71890 0.76660
vt 0.18890 0.23310
vt 0.18750 0.75380
vt 0.99990 0.20210
vt 0.99990 0.91980
vt 0.00000 0.20210
vt 0.00000 0.91980
vt 0.47150 0.91980
vt 0.24990 0.91980
vt 0.34740 0.20000
vt 0.30000 0.91980
vt 0.57080 0.20210
vt 0.67930 0.49640
vt 0.97360 0.49640
vt 0.67930 0.90510
vt 0.97360 0.90510
vt 0.50160 0.88670
vt 0.50160 0.53670
vt 1.04010 0.88670
vt 1.04010 0.53670
vt -0.25690 0.91980
vt -0.25690 0.20210
vt 0.14300 0.91980
vt 0.14300 0.20210
vt 0.94990 0.30000
vt 0.80000 0.30000
vt 0.94990 0.16130
vt 0.80000 0.16130
vt 0.89990 0.30000
vt 0.89990 0.16130
vt 0.85000 0.16130
vt 0.66970 0.90580
vt 0.14820 0.90580
vt 0.71730 0.22530
vt 0.18900 0.59960
vt 0.14820 0.20640
vt 0.66970 0.20640
vt 0.40900 0.59760
vt 0.13290 0.59500
vt 0.97750 0.75420
vt 0.97750 0.84850
vt 0.89770 0.75420
vt 0.89770 0.84870
vt 0.58970 0.79570
vt 0.54980 0.71940
vt 0.50990 0.79570
vt 0.82750 0.30840
vt 0.82750 0.69810
vt 0.78940 0.30840
vt 0.78940 0.69810
vt 0.80230 -0.30110
vt 0.80230 -0.44580
vt 0.76420 -0.30110
vt 0.76420 -0.44580
vt 0.58540 0.21930
vt 0.58540 0.00070
vt 0.41440 0.21930
vt 0.41440 0.00070
vt 0.76690 -0.30030
vt 0.76690 -0.44100
vt 0.80500 -0.30030
vt 0.80500 -0.44100
vt 0.83270 0.97850
vt 0.80570 0.73260
vt 0.71680 0.97850
vt 0.74390 0.73260
vt 0.85300 0.55600
vt 0.85300 0.69810
vt 0.81490 0.55600
vt 0.81490 0.69810
vt 0.80750 1.31560
vt 0.78840 1.06240
vt 0.76940 1.31560
vt 0.76940 0.70720
vt 0.76940 0.55600
vt 0.80750 0.70720
vt 0.80750 0.55600
vt 0.47810 0.79460
vt 0.47810 0.70350
vt 0.51620 0.79460
vt 0.51620 0.70350
vt 0.81110 1.00400
vt 0.81110 1.30610
vt 0.77850 1.00400
vt 0.77850 1.30610
vt 0.80750 0.63480
vt 0.80750 0.70590
vt 0.76940 0.63480
vt 0.76940 0.70590
vt 0.50000 -0.99990
vt 0.00000 -0.50000
vt 0.99990 -0.49990
vt 0.49990 0.00000
vt 0.49990 0.49990
vt 0.62490 0.49990
vt 0.80750 0.99660
vt 0.78840 1.30800
vt 0.76940 0.99660
# 574 texture vertices

usemtl en_wall
f 1/1 3/2 2/3
f 4/4 2/3 3/2
f 5/1 6/2 1/3
f 3/4 1/3 6/2
f 2/5 7/6 1/7
f 1/7 7/6 8/8
f 1/5 8/6 5/7
f 5/7 8/6 9/8
f 10/9 12/10 11/11
f 12/10 13/12 11/11
f 14/13 12/14 15/15
f 15/15 12/14 10/16
f 16/10 17/12 12/9
f 12/9 17/12 13/11
f 18/13 16/14 14/15
f 14/15 16/14 12/16
f 10/10 11/12 19/9
f 19/9 11/12 20/11
f 20/17 13/18 21/19
f 21/19 13/18 17/20
f 3/21 22/22 4/23
f 23/24 4/23 22/22
f 6/21 24/22 3/23
f 22/24 3/23 24/22
f 15/13 10/14 25/15
f 25/15 10/14 19/16
f 26/10 21/12 16/9
f 16/9 21/12 17/11
f 26/9 19/10 21/11
f 19/10 20/12 21/11
f 27/13 26/14 18/15
f 18/15 26/14 16/16
f 27/15 25/13 26/16
f 25/13 19/14 26/16
f 13/17 20/25 11/19
f 2/1 4/2 28/3
f 29/4 28/3 4/2
f 30/1 31/2 5/3
f 6/4 5/3 31/2
f 28/5 32/6 2/7
f 2/7 32/6 7/8
f 5/5 9/6 30/7
f 30/7 9/6 33/8
f 4/21 23/22 29/23
f 34/24 29/23 23/22
f 31/21 35/22 6/23
f 24/24 6/23 35/22
f 22/26 36/27 23/28
f 24/26 36/27 22/28
f 23/26 36/27 34/28
f 35/26 36/27 24/28
f 34/26 36/27 37/28
f 38/26 36/27 35/28
f 37/26 36/27 39/28
f 39/26 36/27 38/28
f 29/21 34/22 40/23
f 37/24 40/23 34/22
f 41/21 38/22 31/23
f 35/24 31/23 38/22
f 28/1 29/2 42/3
f 40/4 42/3 29/2
f 43/1 41/2 30/3
f 31/4 30/3 41/2
f 42/5 44/6 28/7
f 28/7 44/6 32/8
f 30/5 33/6 43/7
f 43/7 33/6 45/8
f 46/29 48/30 47/31
f 49/16 51/15 50/14
f 51/15 52/13 50/14
f 52/15 53/13 50/16
f 50/16 53/13 54/14
f 50/10 55/12 49/9
f 49/9 55/12 47/11
f 50/9 54/10 55/11
f 55/11 54/10 56/12
f 57/15 51/13 58/16
f 58/16 51/13 49/14
f 40/21 37/22 59/23
f 39/24 59/23 37/22
f 59/21 39/22 41/23
f 38/24 41/23 39/22
f 47/29 55/32 46/31
f 46/31 55/32 56/33
f 58/9 49/10 48/11
f 48/11 49/10 47/12
f 53/15 60/13 54/16
f 54/16 60/13 61/14
f 54/9 61/10 56/11
f 56/11 61/10 46/12
f 60/15 57/13 61/16
f 61/16 57/13 58/14
f 58/10 48/12 61/9
f 61/9 48/12 46/11
f 42/1 40/2 62/3
f 59/4 62/3 40/2
f 62/1 59/2 43/3
f 41/4 43/3 59/2
f 62/5 63/6 42/7
f 42/7 63/6 44/8
f 43/5 45/6 62/7
f 62/7 45/6 63/8
f 64/34 66/35 65/36
f 66/35 67/37 65/36
f 68/38 69/39 64/34
f 69/39 66/35 64/34
f 64/40 65/41 70/42
f 68/41 64/40 70/42
f 67/43 66/44 71/45
f 66/44 69/43 71/45
f 72/44 67/43 71/45
f 69/43 72/44 71/45
f 73/40 68/41 70/42
f 65/36 67/37 73/34
f 67/37 72/35 73/34
f 73/34 72/35 68/38
f 72/35 69/39 68/38
f 65/46 73/46 70/46
f 74/34 76/35 75/36
f 77/37 75/36 76/35
f 78/38 79/39 74/34
f 76/35 74/34 79/39
f 74/40 80/42 78/41
f 76/44 81/45 77/43
f 79/43 81/45 76/44
f 77/43 81/45 82/44
f 82/44 81/45 79/43
f 83/40 80/42 75/41
f 78/41 80/42 83/40
f 75/36 77/37 83/34
f 82/35 83/34 77/37
f 83/34 82/35 78/38
f 79/39 78/38 82/35
f 75/46 80/46 74/46
f 84/47 86/48 85/49
f 85/49 86/48 87/50
f 88/51 85/47 89/52
f 85/47 87/53 89/52
f 89/54 87/55 90/56
f 87/55 91/57 90/56
f 88/58 93/59 92/60
f 94/61 92/60 93/59
f 84/60 92/58 95/61
f 95/61 92/58 94/59
f 86/62 96/63 91/64
f 91/64 96/63 97/65
f 90/64 91/62 98/65
f 91/62 97/63 98/65
f 99/66 101/67 100/68
f 100/68 101/67 102/69
f 100/70 102/71 103/72
f 103/72 102/71 104/73
f 103/74 104/75 105/76
f 105/76 104/75 106/77
f 84/78 107/79 86/80
f 107/79 108/81 86/80
f 84/58 95/59 109/60
f 110/61 109/60 95/59
f 85/82 92/83 84/84
f 88/84 92/83 85/82
f 104/85 111/86 106/87
f 106/87 111/86 112/88
f 86/48 91/89 87/50
f 113/67 99/90 114/91
f 114/91 99/90 100/68
f 115/72 114/70 103/73
f 114/70 100/71 103/73
f 115/85 103/86 116/87
f 116/87 103/86 105/88
f 95/92 94/93 117/94
f 117/92 94/93 93/94
f 93/95 95/96 94/97
f 88/47 89/53 118/51
f 118/51 89/53 119/52
f 88/60 120/58 93/61
f 93/61 120/58 121/59
f 119/98 89/99 122/100
f 89/99 90/48 122/100
f 102/70 111/73 104/72
f 101/101 99/102 123/103
f 84/78 109/104 107/105
f 108/106 96/107 86/108
f 105/109 106/110 124/111
f 111/85 125/86 112/87
f 112/87 125/86 126/88
f 122/64 90/62 127/65
f 90/62 98/63 127/65
f 106/109 112/110 124/111
f 99/101 113/102 123/103
f 95/112 93/113 128/114
f 116/109 105/110 124/111
f 129/85 115/86 130/87
f 130/87 115/86 116/88
f 131/115 132/116 114/91
f 132/116 113/117 114/91
f 129/72 131/70 115/73
f 131/70 114/71 115/73
f 108/118 133/119 96/120
f 133/119 134/121 96/120
f 135/61 136/60 110/59
f 110/59 136/60 109/58
f 137/122 107/123 136/47
f 109/124 136/47 107/123
f 107/123 137/125 108/126
f 137/125 133/127 108/126
f 138/92 110/93 95/94
f 96/128 139/129 97/130
f 97/128 139/129 98/130
f 112/109 126/110 124/111
f 130/109 116/110 124/111
f 113/101 132/102 123/103
f 129/131 130/88 125/85
f 125/85 130/88 126/87
f 118/82 120/83 88/84
f 126/109 130/110 124/111
f 93/92 121/93 140/94
f 138/112 95/132 128/133
f 125/72 141/70 129/73
f 141/70 131/71 129/73
f 134/128 139/129 96/130
f 98/128 139/129 127/130
f 138/92 135/134 110/135
f 141/91 132/116 131/115
f 121/136 142/137 93/138
f 128/139 93/112 142/140
f 143/91 145/141 144/90
f 143/91 145/115 144/116
f 138/95 146/135 135/134
f 134/128 147/130 139/129
f 148/128 127/130 139/129
f 143/70 149/72 145/71
f 145/71 149/72 150/73
f 143/71 149/73 145/70
f 145/70 149/73 150/72
f 142/142 140/143 121/97
f 138/112 128/114 151/144
f 152/109 154/111 153/110
f 118/82 155/84 120/83
f 150/131 149/85 153/88
f 149/85 152/87 153/88
f 156/101 157/103 144/102
f 153/109 154/111 158/110
f 159/109 154/111 152/110
f 147/128 160/130 139/129
f 160/128 148/130 139/129
f 138/95 151/96 146/97
f 135/61 146/59 136/60
f 136/60 146/59 161/58
f 137/122 136/47 162/123
f 161/124 162/123 136/47
f 162/123 163/126 137/125
f 137/125 163/126 133/127
f 163/118 147/120 133/119
f 133/119 147/120 134/121
f 164/71 145/70 165/73
f 145/70 150/72 165/73
f 156/117 144/116 164/91
f 144/116 145/115 164/91
f 165/86 150/85 158/88
f 150/85 153/87 158/88
f 158/109 154/111 166/110
f 128/114 142/112 151/140
f 167/101 157/103 156/102
f 168/109 154/111 159/110
f 122/64 127/65 169/62
f 169/62 127/65 148/63
f 170/85 159/87 149/86
f 149/86 159/87 152/88
f 166/109 154/111 168/110
f 163/106 171/108 147/107
f 172/78 162/105 161/104
f 173/101 157/103 167/102
f 174/70 175/72 170/73
f 119/98 122/100 176/99
f 176/99 122/100 169/48
f 155/60 142/61 120/58
f 142/61 121/59 120/58
f 155/47 118/51 176/53
f 176/53 118/51 119/52
f 151/95 142/96 177/97
f 151/95 178/96 177/97
f 178/95 142/96 177/97
f 165/85 158/87 179/86
f 179/86 158/87 166/88
f 180/71 164/70 179/73
f 164/70 165/72 179/73
f 156/67 164/91 167/90
f 167/90 164/91 180/68
f 171/48 182/50 181/89
f 175/85 168/87 170/86
f 170/86 168/87 159/88
f 183/82 172/84 184/83
f 155/84 183/82 184/83
f 172/58 161/60 151/59
f 146/61 151/59 161/60
f 172/78 171/80 162/79
f 162/79 171/80 163/81
f 179/74 166/76 175/75
f 175/75 166/76 168/77
f 180/70 179/72 174/71
f 174/71 179/72 175/73
f 167/66 180/68 173/67
f 173/67 180/68 174/69
f 169/64 148/65 181/62
f 181/62 148/65 160/63
f 171/62 181/64 147/63
f 147/63 181/64 160/65
f 172/60 151/61 184/58
f 151/61 177/59 184/58
f 155/58 184/60 142/59
f 177/61 142/59 184/60
f 176/145 169/146 182/147
f 182/147 169/146 181/148
f 172/47 183/49 171/48
f 171/48 183/49 182/50
f 155/51 176/52 183/47
f 183/47 176/52 182/53
f 185/149 187/150 186/151
f 188/149 187/150 185/151
f 186/149 187/150 189/151
f 190/149 187/150 188/151
f 189/149 187/150 191/151
f 191/149 187/150 190/151
f 192/152 185/153 193/154
f 193/154 185/153 186/155
f 194/152 188/153 192/154
f 192/154 188/153 185/155
f 193/152 186/153 195/154
f 195/154 186/153 189/155
f 196/152 190/153 194/154
f 194/154 190/153 188/155
f 195/152 189/153 197/154
f 197/154 189/153 191/155
f 197/152 191/153 196/154
f 196/154 191/153 190/155
f 198/156 200/157 199/158
f 199/158 200/157 201/159
f 202/158 204/156 203/159
f 203/159 204/156 205/157
f 206/160 207/161 200/162
f 200/162 207/161 201/163
f 208/160 203/161 209/162
f 209/162 203/161 205/163
f 199/156 201/157 210/158
f 210/158 201/157 207/159
f 204/158 211/156 205/159
f 205/159 211/156 209/157
f 212/156 206/157 198/158
f 198/158 206/157 200/159
f 213/158 202/156 208/159
f 208/159 202/156 203/157
f 214/164 192/165 215/166
f 215/166 192/165 193/167
f 216/164 194/165 214/166
f 214/166 194/165 192/167
f 215/164 193/165 217/166
f 217/166 193/165 195/167
f 218/164 196/165 216/166
f 216/166 196/165 194/167
f 217/164 195/165 219/166
f 219/166 195/165 197/167
f 219/164 197/165 218/166
f 218/166 197/165 196/167
f 220/168 222/169 221/170
f 221/168 222/169 223/170
f 224/168 222/169 220/170
f 223/168 222/169 225/170
f 226/168 222/169 224/170
f 225/168 222/169 226/170
f 210/156 207/157 212/158
f 212/158 207/157 206/159
f 211/158 213/156 209/159
f 209/159 213/156 208/157
f 227/158 229/156 228/159
f 228/159 229/156 230/157
f 231/156 233/157 232/158
f 232/158 233/157 234/159
f 235/158 237/156 236/159
f 236/159 237/156 238/157
f 215/171 220/172 214/173
f 221/174 214/173 220/172
f 214/171 221/172 216/173
f 223/174 216/173 221/172
f 217/171 224/172 215/173
f 220/174 215/173 224/172
f 216/171 223/172 218/173
f 225/174 218/173 223/172
f 219/171 226/172 217/173
f 224/174 217/173 226/172
f 218/171 225/172 219/173
f 226/174 219/173 225/172
f 239/156 240/157 231/158
f 231/158 240/157 233/159
f 241/158 235/156 242/159
f 242/159 235/156 236/157
f 232/156 234/157 243/158
f 243/158 234/157 244/159
f 237/158 245/156 238/159
f 238/159 245/156 246/157
f 229/158 247/156 230/159
f 230/159 247/156 248/157
f 249/158 227/156 250/159
f 250/159 227/156 228/157
f 242/160 236/161 246/162
f 246/162 236/161 238/163
f 240/160 244/161 233/162
f 233/162 244/161 234/163
f 250/160 228/161 248/162
f 248/162 228/161 230/163
f 243/156 244/157 239/158
f 239/158 244/157 240/159
f 245/158 241/156 246/159
f 246/159 241/156 242/157
f 247/158 249/156 248/159
f 248/159 249/156 250/157
f 251/175 253/117 252/176
f 254/177 252/176 253/117
f 255/176 256/177 251/175
f 253/117 251/175 256/177
f 253/178 257/179 254/180
f 256/181 257/179 253/178
f 251/182 252/183 255/184
f 255/184 252/183 258/185
f 254/186 257/179 259/187
f 259/187 257/179 256/181
f 252/176 254/177 258/188
f 259/116 258/188 254/177
f 258/188 259/116 255/176
f 256/177 255/176 259/116
f 260/189 262/190 261/191
f 261/191 262/190 263/192
f 261/189 263/190 264/191
f 264/191 263/190 265/192
f 262/193 266/194 263/195
f 263/195 266/194 267/196
f 263/193 267/194 265/195
f 265/195 267/194 268/196
f 260/197 261/198 269/199
f 261/198 264/200 269/199
f 266/201 270/202 267/203
f 267/201 270/202 268/203
f 271/189 272/190 260/191
f 260/191 272/190 262/192
f 264/189 265/190 273/191
f 273/191 265/190 274/192
f 272/193 275/194 262/195
f 262/195 275/194 266/196
f 265/193 268/194 274/195
f 274/195 268/194 276/196
f 271/204 260/197 269/199
f 264/200 273/205 269/199
f 275/201 270/202 266/203
f 268/201 270/202 276/203
f 277/201 270/202 275/203
f 276/201 270/202 277/203
f 271/204 269/199 278/206
f 269/199 273/205 278/206
f 279/193 277/194 272/195
f 272/195 277/194 275/196
f 274/193 276/194 279/195
f 279/195 276/194 277/196
f 278/189 279/190 271/191
f 271/191 279/190 272/192
f 273/189 274/190 278/191
f 278/191 274/190 279/192
f 280/207 282/208 281/209
f 281/209 282/208 283/210
f 281/211 283/212 284/213
f 283/212 285/214 284/213
f 286/215 288/216 287/217
f 287/217 288/216 289/218
f 287/215 289/216 290/217
f 290/217 289/216 291/218
f 292/219 293/220 285/221
f 285/221 293/220 284/222
f 294/223 296/224 295/225
f 296/226 297/227 295/228
f 293/229 280/230 281/231
f 294/232 295/233 298/234
f 292/235 299/236 293/237
f 293/237 299/236 300/238
f 292/232 296/233 294/234
f 282/239 292/240 283/241
f 295/226 297/227 298/242
f 292/242 297/227 296/226
f 301/243 282/244 302/245
f 302/245 282/244 280/246
f 293/247 281/248 284/249
f 292/250 285/251 283/252
f 303/215 304/216 286/217
f 286/217 304/216 288/218
f 290/215 291/216 305/217
f 305/217 291/216 306/218
f 299/253 294/254 298/255
f 299/253 292/256 294/254
f 287/257 307/258 286/259
f 290/257 307/258 287/259
f 288/260 308/261 289/262
f 289/260 308/261 291/262
f 293/263 302/264 280/265
f 301/266 292/267 282/268
f 298/269 297/270 309/271
f 292/272 309/273 297/274
f 286/257 307/258 303/259
f 305/257 307/258 290/259
f 304/260 308/261 288/262
f 291/260 308/261 306/262
f 293/235 300/238 310/237
f 311/275 299/276 298/277
f 293/278 312/279 302/280
f 298/255 309/256 311/253
f 292/278 313/279 309/280
f 292/278 301/280 313/279
f 293/278 314/279 312/281
f 293/280 310/282 314/279
f 303/257 307/258 315/259
f 316/257 307/258 305/259
f 317/260 308/261 304/262
f 306/260 308/261 318/262
f 309/278 319/279 311/280
f 301/280 302/278 313/281
f 302/278 312/279 313/281
f 313/279 319/279 309/280
f 315/257 307/258 320/259
f 320/257 307/258 316/259
f 321/260 308/261 317/262
f 318/260 308/261 321/262
f 315/215 317/216 303/217
f 303/217 317/216 304/218
f 305/215 306/216 316/217
f 316/217 306/216 318/218
f 314/281 310/280 319/279
f 319/279 310/280 311/278
f 313/283 312/284 319/285
f 312/284 314/286 319/285
f 320/215 321/216 315/217
f 315/217 321/216 317/218
f 316/215 318/216 320/217
f 320/217 318/216 321/218
f 322/158 324/159 323/156
f 323/156 324/159 325/157
f 326/156 328/158 327/157
f 327/157 328/158 329/159
f 330/158 332/159 331/156
f 331/156 332/159 333/157
f 325/160 324/162 334/161
f 334/161 324/162 335/163
f 333/160 332/162 336/161
f 336/161 332/162 337/163
f 329/160 338/162 327/161
f 327/161 338/162 339/163
f 340/158 335/159 322/156
f 322/156 335/159 324/157
f 323/158 325/159 341/156
f 341/156 325/159 334/157
f 342/156 326/158 339/157
f 339/157 326/158 327/159
f 343/158 337/159 330/156
f 330/156 337/159 332/157
f 328/156 344/158 329/157
f 329/157 344/158 338/159
f 331/158 333/159 345/156
f 345/156 333/159 336/157
f 346/173 348/174 347/171
f 348/174 349/172 347/171
f 350/173 351/174 346/171
f 351/174 348/172 346/171
f 347/173 349/174 352/171
f 349/174 353/172 352/171
f 354/173 355/174 350/171
f 355/174 351/172 350/171
f 352/173 353/174 356/171
f 353/174 357/172 356/171
f 356/173 357/174 354/171
f 357/174 355/172 354/171
f 344/156 342/158 338/157
f 338/157 342/158 339/159
f 345/158 336/159 343/156
f 343/156 336/159 337/157
f 341/158 334/159 340/156
f 340/156 334/159 335/157
f 358/156 360/158 359/157
f 359/157 360/158 361/159
f 362/158 364/159 363/156
f 363/156 364/159 365/157
f 349/168 348/170 366/169
f 348/168 351/170 366/169
f 353/168 349/170 366/169
f 351/168 355/170 366/169
f 357/168 353/170 366/169
f 355/168 357/170 366/169
f 346/164 347/166 367/165
f 367/165 347/166 368/167
f 350/164 346/166 369/165
f 369/165 346/166 367/167
f 347/164 352/166 368/165
f 368/165 352/166 370/167
f 354/164 350/166 371/165
f 371/165 350/166 369/167
f 352/164 356/166 370/165
f 370/165 356/166 372/167
f 356/164 354/166 372/165
f 372/165 354/166 371/167
f 360/156 373/158 361/157
f 361/157 373/158 374/159
f 363/158 365/159 375/156
f 375/156 365/159 376/157
f 377/156 358/158 378/157
f 378/157 358/158 359/159
f 379/158 380/159 362/156
f 362/156 380/159 364/157
f 361/160 374/162 359/161
f 359/161 374/162 378/163
f 365/160 364/162 376/161
f 376/161 364/162 380/163
f 373/156 377/158 374/157
f 374/157 377/158 378/159
f 375/158 376/159 379/156
f 379/156 376/159 380/157
f 367/152 368/154 381/153
f 381/153 368/154 382/155
f 369/152 367/154 383/153
f 383/153 367/154 381/155
f 368/152 370/154 382/153
f 382/153 370/154 384/155
f 371/152 369/154 385/153
f 385/153 369/154 383/155
f 370/152 372/154 384/153
f 384/153 372/154 386/155
f 372/152 371/154 386/153
f 386/153 371/154 385/155
f 381/149 382/151 387/150
f 383/149 381/151 387/150
f 382/149 384/151 387/150
f 385/149 383/151 387/150
f 384/149 386/151 387/150
f 386/149 385/151 387/150
f 388/188 390/116 389/176
f 390/116 391/177 389/176
f 392/176 393/177 388/188
f 393/177 390/116 388/188
f 391/186 390/187 394/179
f 390/187 393/181 394/179
f 395/182 392/184 389/183
f 389/183 392/184 388/185
f 396/178 391/180 394/179
f 393/181 396/178 394/179
f 389/176 391/177 395/175
f 391/177 396/117 395/175
f 395/175 396/117 392/176
f 396/117 393/177 392/176
f 397/189 399/191 398/190
f 398/190 399/191 400/192
f 401/189 397/191 402/190
f 402/190 397/191 398/192
f 398/193 400/195 403/194
f 403/194 400/195 404/196
f 402/193 398/195 405/194
f 405/194 398/195 403/196
f 399/204 397/206 406/199
f 406/199 397/206 401/205
f 403/201 404/203 407/202
f 405/201 403/203 407/202
f 404/201 408/203 407/202
f 409/201 405/203 407/202
f 399/204 406/199 410/197
f 411/200 406/199 401/205
f 400/193 412/195 404/194
f 404/194 412/195 408/196
f 413/193 402/195 409/194
f 409/194 402/195 405/196
f 399/189 410/191 400/190
f 400/190 410/191 412/192
f 411/189 401/191 413/190
f 413/190 401/191 402/192
f 408/201 414/203 407/202
f 414/201 409/203 407/202
f 410/197 406/199 415/198
f 415/198 406/199 411/200
f 412/193 416/195 408/194
f 408/194 416/195 414/196
f 416/193 413/195 414/194
f 414/194 413/195 409/196
f 410/189 415/191 412/190
f 412/190 415/191 416/192
f 415/189 411/191 416/190
f 416/190 411/191 413/192
f 417/215 419/217 418/216
f 418/216 419/217 420/218
f 421/215 417/217 422/216
f 422/216 417/217 418/218
f 423/283 425/285 424/284
f 424/284 425/285 426/286
f 426/281 425/279 427/280
f 427/280 425/279 428/278
f 419/215 429/217 420/216
f 420/216 429/217 430/218
f 431/215 421/217 432/216
f 432/216 421/217 422/218
f 419/257 417/259 433/258
f 417/257 421/259 433/258
f 418/260 420/262 434/261
f 422/260 418/262 434/261
f 423/279 435/280 425/279
f 436/280 423/281 437/278
f 437/278 423/281 424/279
f 435/278 428/280 425/279
f 429/257 419/259 433/258
f 421/257 431/259 433/258
f 420/260 430/262 434/261
f 432/260 422/262 434/261
f 438/280 426/279 427/282
f 438/278 424/281 426/279
f 439/278 423/279 436/280
f 439/278 435/280 423/279
f 440/255 428/253 435/256
f 438/278 437/280 424/279
f 428/275 440/277 441/276
f 438/235 427/237 442/238
f 443/257 429/259 433/258
f 431/257 444/259 433/258
f 430/260 445/262 434/261
f 446/260 432/262 434/261
f 439/272 447/274 435/273
f 440/269 435/271 447/270
f 436/266 448/268 439/267
f 438/263 449/265 437/264
f 450/257 443/259 433/258
f 444/257 450/259 433/258
f 445/260 451/262 434/261
f 451/260 446/262 434/261
f 441/253 452/254 439/256
f 441/253 440/255 452/254
f 429/215 443/217 430/216
f 430/216 443/217 445/218
f 444/215 431/217 446/216
f 446/216 431/217 432/218
f 439/250 454/252 453/251
f 438/247 456/249 455/248
f 436/243 437/245 448/244
f 437/245 449/246 448/244
f 439/242 457/226 447/227
f 458/226 440/242 447/227
f 448/239 454/241 439/240
f 439/232 452/234 457/233
f 439/235 438/237 441/236
f 438/237 442/238 441/236
f 452/232 440/234 458/233
f 438/229 455/231 449/230
f 457/226 458/228 447/227
f 452/223 458/225 457/224
f 439/219 453/221 438/220
f 438/220 453/221 456/222
f 443/215 450/217 445/216
f 445/216 450/217 451/218
f 450/215 444/217 451/216
f 451/216 444/217 446/218
f 455/211 456/213 454/212
f 454/212 456/213 453/214
f 449/207 455/209 448/208
f 448/208 455/209 454/210
f 459/287 461/288 460/289
f 460/289 461/288 462/290
f 463/291 464/292 461/293
f 461/293 464/292 462/294
f 459/295 460/296 465/297
f 465/297 460/296 466/298
f 467/299 463/293 459/300
f 463/293 461/291 459/300
f 467/301 459/302 468/303
f 459/302 465/304 468/303
f 462/305 469/306 460/307
f 467/287 470/289 463/288
f 463/288 470/289 464/290
f 464/308 469/306 462/305
f 460/296 469/309 466/298
f 468/310 465/297 471/311
f 471/311 465/297 466/298
f 464/308 470/312 469/306
f 472/313 474/314 473/315
f 473/315 474/314 475/316
f 466/298 469/309 471/311
f 467/317 468/310 470/318
f 470/318 468/310 471/311
f 471/311 469/309 470/318
f 473/313 475/314 476/315
f 476/315 475/314 477/316
f 474/314 478/319 475/316
f 475/314 478/319 477/316
f 479/314 478/319 474/316
f 480/320 479/321 472/322
f 472/322 479/321 474/323
f 477/314 478/319 481/316
f 481/314 478/319 479/316
f 476/313 477/314 482/315
f 482/315 477/314 481/316
f 483/311 485/318 484/309
f 486/317 485/318 487/310
f 487/310 485/318 483/311
f 488/298 483/311 484/309
f 482/313 481/314 480/315
f 480/315 481/314 479/316
f 489/308 484/306 485/312
f 487/310 483/311 490/297
f 490/297 483/311 488/298
f 491/296 488/298 484/309
f 489/308 492/305 484/306
f 486/287 493/288 485/289
f 493/288 489/290 485/289
f 492/305 491/307 484/306
f 486/301 487/303 494/302
f 494/302 487/303 490/304
f 486/299 494/300 493/293
f 493/293 494/300 495/291
f 494/295 490/297 491/296
f 490/297 488/298 491/296
f 493/291 495/293 489/292
f 495/293 492/294 489/292
f 494/287 491/289 495/288
f 495/288 491/289 492/290
f 496/324 498/325 497/326
f 497/326 498/325 499/327
f 496/325 497/327 500/324
f 500/324 497/327 501/326
f 498/328 496/329 502/330
f 496/328 500/329 502/330
f 497/331 499/332 503/333
f 501/331 497/332 503/333
f 499/331 504/332 503/333
f 505/331 501/332 503/333
f 498/324 506/325 499/326
f 499/326 506/325 504/327
f 500/325 501/327 507/324
f 507/324 501/327 505/326
f 506/328 498/329 502/330
f 500/328 507/329 502/330
f 504/331 508/332 503/333
f 508/331 505/332 503/333
f 509/328 506/329 502/330
f 507/328 509/329 502/330
f 506/324 509/325 504/326
f 504/326 509/325 508/327
f 507/325 505/327 509/324
f 509/324 505/327 508/326
f 510/334 512/335 511/336
f 511/336 512/335 513/337
f 511/334 513/335 514/336
f 514/336 513/335 515/337
f 512/338 516/339 513/340
f 513/340 516/339 517/341
f 510/336 518/334 512/337
f 512/337 518/334 519/335
f 520/342 515/338 517/343
f 517/343 515/338 513/340
f 521/344 523/345 522/346
f 522/346 523/345 524/347
f 522/344 524/345 525/346
f 525/346 524/345 526/347
f 527/348 516/349 512/350
f 527/348 512/350 519/351
f 528/352 516/353 529/354
f 527/355 529/354 516/353
f 514/334 515/335 530/336
f 530/336 515/335 531/337
f 529/356 527/357 532/338
f 519/340 532/338 527/357
f 518/336 533/334 519/337
f 519/337 533/334 532/335
f 516/358 528/359 517/360
f 521/361 522/362 534/363
f 522/361 525/362 534/363
f 524/361 523/362 535/364
f 526/361 524/362 535/364
f 531/365 515/366 520/341
f 518/367 536/368 533/369
f 530/367 537/368 514/369
f 523/361 538/362 535/364
f 539/361 526/362 535/364
f 540/361 521/362 534/363
f 525/361 541/362 534/363
f 520/341 542/370 531/371
f 521/346 540/344 523/347
f 523/347 540/344 538/345
f 541/346 525/344 539/347
f 539/347 525/344 526/345
f 543/368 536/372 510/367
f 510/367 536/372 518/373
f 544/368 543/372 511/367
f 511/367 543/372 510/373
f 544/372 511/373 537/368
f 514/367 537/368 511/373
f 531/338 542/374 545/375
f 538/361 546/362 535/364
f 546/361 539/362 535/364
f 547/361 540/362 534/363
f 541/361 547/362 534/363
f 529/355 548/354 528/376
f 528/376 548/354 549/352
f 529/356 532/338 548/357
f 532/338 550/340 548/357
f 532/337 533/336 550/335
f 533/336 536/334 550/335
f 537/336 530/334 545/337
f 545/337 530/334 531/335
f 520/352 551/353 542/354
f 552/355 542/354 551/353
f 553/350 549/349 548/348
f 553/350 548/348 550/351
f 552/353 551/355 549/352
f 551/355 528/354 549/352
f 540/346 547/344 538/347
f 538/347 547/344 546/345
f 547/346 541/344 546/347
f 546/347 541/344 539/345
f 542/374 552/377 545/378
f 554/379 545/378 552/377
f 553/380 554/381 549/382
f 549/382 554/381 552/383
f 543/334 553/335 536/336
f 536/336 553/335 550/337
f 544/336 537/334 554/337
f 554/337 537/334 545/335
f 543/336 544/334 553/337
f 553/337 544/334 554/335
f 555/324 557/326 556/325
f 556/325 557/326 558/327
f 559/325 556/324 560/327
f 556/324 558/326 560/327
f 556/328 561/330 555/329
f 559/328 561/330 556/329
f 557/331 562/333 558/332
f 558/331 562/333 560/332
f 555/328 561/330 563/329
f 564/328 561/330 559/329
f 563/324 565/326 555/325
f 555/325 565/326 557/327
f 564/325 559/324 566/327
f 559/324 560/326 566/327
f 565/331 562/333 557/332
f 560/331 562/333 566/332
f 567/331 562/333 565/332
f 566/331 562/333 567/332
f 563/328 561/330 568/329
f 568/328 561/330 564/329
f 568/325 564/324 567/327
f 564/324 566/326 567/327
f 568/324 567/326 563/325
f 563/325 567/326 565/327
f 569/336 571/337 570/334
f 570/334 571/337 572/335
f 570/336 572/337 573/334
f 573/334 572/337 574/335
f 569/334 575/336 571/335
f 575/336 576/337 571/335
f 571/380 577/382 572/381
f 572/381 577/382 578/383
f 579/374 574/378 578/377
f 572/379 578/377 574/378
f 580/346 582/347 581/344
f 581/344 582/347 583/345
f 581/346 583/347 584/344
f 584/344 583/347 585/345
f 578/353 577/352 586/355
f 586/355 577/352 587/354
f 571/350 576/351 588/348
f 571/350 588/348 577/349
f 589/352 579/354 586/353
f 578/355 586/353 579/354
f 573/336 574/337 590/334
f 590/334 574/337 591/335
f 592/337 576/335 593/336
f 593/336 576/335 575/334
f 594/356 588/357 592/338
f 592/338 588/357 576/340
f 594/355 587/376 588/354
f 588/354 587/376 577/352
f 581/361 595/363 580/362
f 584/361 595/363 581/362
f 582/361 596/364 583/362
f 583/361 596/364 585/362
f 591/338 574/375 579/374
f 570/372 573/368 597/373
f 598/367 597/373 573/368
f 570/368 597/367 569/372
f 597/367 599/373 569/372
f 569/368 599/367 575/372
f 599/367 600/373 575/372
f 601/346 602/347 580/344
f 580/344 602/347 582/345
f 584/346 585/347 603/344
f 603/344 585/347 604/345
f 589/341 591/371 579/370
f 580/361 595/363 601/362
f 603/361 595/363 584/362
f 602/361 596/364 582/362
f 585/361 596/364 604/362
f 590/367 598/369 573/368
f 600/367 593/369 575/368
f 591/365 589/341 605/366
f 606/361 596/364 602/362
f 604/361 596/364 606/362
f 601/361 595/363 607/362
f 607/361 595/363 603/362
f 608/358 609/360 587/359
f 600/336 610/337 593/334
f 593/334 610/337 592/335
f 594/356 592/338 611/357
f 610/340 611/357 592/338
f 598/334 590/336 605/335
f 590/336 591/337 605/335
f 587/352 594/354 608/353
f 611/355 608/353 594/354
f 611/348 610/351 612/350
f 611/348 612/350 608/349
f 601/344 607/346 602/345
f 607/346 606/347 602/345
f 607/344 603/346 606/345
f 603/346 604/347 606/345
f 589/342 609/343 605/338
f 605/338 609/343 613/340
f 599/336 612/337 600/334
f 600/334 612/337 610/335
f 612/338 613/340 608/339
f 613/340 609/341 608/339
f 597/334 598/336 613/335
f 598/336 605/337 613/335
f 599/334 597/336 612/335
f 597/336 613/337 612/335
usemtl o_on
f 614/384 616/385 615/386
f 615/384 616/385 617/386
f 618/384 616/385 614/386
f 617/384 616/385 619/386
f 620/384 616/385 618/386
f 619/384 616/385 621/386
f 622/384 616/385 620/386
f 621/384 616/385 622/386
usemtl en_wall
f 623/387 625/388 624/389
f 626/390 624/389 625/388
f 627/389 628/390 623/387
f 625/388 623/387 628/390
f 624/391 629/392 623/393
f 623/393 629/392 630/394
f 623/391 630/392 627/393
f 627/393 630/392 631/394
f 629/395 632/396 630/397
f 630/397 632/396 633/398
f 630/395 633/396 631/397
f 631/397 633/396 634/398
f 624/389 626/390 635/387
f 636/388 635/387 626/390
f 637/387 638/388 627/389
f 628/390 627/389 638/388
f 635/391 639/392 624/393
f 624/393 639/392 629/394
f 627/391 631/392 637/393
f 637/393 631/392 640/394
f 625/399 641/400 626/401
f 628/399 641/400 625/401
f 639/395 642/396 629/397
f 629/397 642/396 632/398
f 631/395 634/396 640/397
f 640/397 634/396 643/398
f 626/399 641/400 636/401
f 638/399 641/400 628/401
f 636/399 641/400 644/401
f 645/399 641/400 638/401
f 646/395 647/396 639/397
f 639/397 647/396 642/398
f 640/395 643/396 648/397
f 648/397 643/396 649/398
f 644/399 641/400 650/401
f 650/399 641/400 645/401
f 651/391 646/392 635/393
f 635/393 646/392 639/394
f 637/391 640/392 652/393
f 652/393 640/392 648/394
f 635/387 636/388 651/389
f 644/390 651/389 636/388
f 652/389 645/390 637/387
f 638/388 637/387 645/390
f 653/395 654/396 646/397
f 646/397 654/396 647/398
f 648/395 649/396 653/397
f 653/397 649/396 654/398
f 655/391 653/392 651/393
f 651/393 653/392 646/394
f 652/391 648/392 655/393
f 655/393 648/392 653/394
f 651/389 644/390 655/387
f 650/388 655/387 644/390
f 655/387 650/388 652/389
f 645/390 652/389 650/388
f 632/402 656/403 633/404
f 633/404 656/403 657/405
f 633/404 657/405 634/402
f 634/402 657/405 658/403
f 656/406 614/407 657/408
f 657/408 614/407 615/409
f 657/406 615/407 658/408
f 658/408 615/407 617/409
f 642/404 659/405 632/402
f 632/402 659/405 656/403
f 634/402 658/403 643/404
f 643/404 658/403 660/405
f 659/406 618/407 656/408
f 656/408 618/407 614/409
f 658/406 617/407 660/408
f 660/408 617/407 661/409
f 662/406 620/407 659/408
f 659/408 620/407 618/409
f 660/406 661/407 663/408
f 663/408 661/407 621/409
f 647/402 662/403 642/404
f 642/404 662/403 659/405
f 643/404 660/405 649/402
f 649/402 660/405 663/403
f 664/406 622/407 662/408
f 662/408 622/407 620/409
f 663/406 621/407 664/408
f 664/408 621/407 622/409
f 654/404 664/405 647/402
f 647/402 664/405 662/403
f 649/402 663/403 654/404
f 654/404 663/403 664/405
f 665/410 667/411 666/412
f 666/412 667/411 668/413
f 669/414 667/411 670/415
f 670/415 667/411 665/410
f 671/416 668/417 672/418
f 671/419 666/420 668/421
f 673/422 669/414 674/410
f 674/410 669/414 670/415
f 675/423 666/424 676/425
f 666/424 671/426 676/425
f 670/427 665/428 677/429
f 665/427 666/428 677/429
f 672/418 678/430 671/431
f 679/432 678/433 672/418
f 674/427 670/428 677/429
f 677/429 666/427 675/428
f 676/434 671/435 678/436
f 676/434 678/436 680/435
f 674/427 677/429 681/428
f 677/429 675/428 682/427
f 679/432 683/418 678/433
f 683/418 680/431 678/430
f 681/427 677/429 684/428
f 684/427 677/429 682/428
f 675/423 676/425 682/424
f 682/424 676/425 680/426
f 673/422 674/410 685/414
f 685/414 674/410 681/415
f 680/419 686/421 682/420
f 680/416 683/418 686/417
f 685/414 681/415 687/411
f 687/411 681/415 684/410
f 684/410 682/412 687/411
f 687/411 682/412 686/413
usemtl en_wallg
f 688/437 690/438 689/439
f 689/439 690/438 691/440
f 668/441 667/442 691/443
f 667/442 689/444 691/443
f 689/440 692/439 688/438
f 693/437 688/438 692/439
f 692/445 689/446 669/447
f 669/447 689/446 667/448
f 694/440 695/439 690/438
f 691/437 690/438 695/439
f 688/449 672/450 690/451
f 672/450 696/452 690/451
f 697/449 672/450 693/451
f 672/450 688/452 693/451
f 668/453 698/454 672/455
f 672/455 698/454 696/456
f 696/457 698/458 694/459
f 694/459 698/458 695/460
f 668/461 691/462 698/441
f 698/463 691/443 695/441
f 692/464 699/465 693/466
f 700/467 693/466 699/465
f 699/468 692/469 673/470
f 673/470 692/469 669/471
f 690/472 696/473 694/474
f 697/450 693/475 700/449
f 700/450 701/475 697/449
f 679/450 672/475 683/449
f 683/476 672/477 701/478
f 701/478 672/477 697/479
f 701/450 700/449 702/475
usemtl en_wall
f 703/472 705/474 704/473
usemtl en_wallg
f 699/480 673/481 706/482
f 706/482 673/481 685/483
f 706/440 702/438 699/439
f 700/437 699/439 702/438
f 707/484 709/485 708/486
f 686/487 707/461 708/488
f 704/489 705/490 707/491
f 707/491 705/490 709/492
f 686/493 683/494 707/495
f 707/495 683/494 704/496
f 701/449 702/451 683/450
f 683/450 702/451 710/452
f 710/449 703/451 683/450
f 683/450 703/451 704/452
f 705/440 703/438 709/439
f 708/437 709/439 703/438
f 706/480 685/481 711/482
f 711/482 685/481 687/483
f 711/440 710/438 706/439
f 702/437 706/439 710/438
f 686/497 708/498 687/499
f 687/499 708/498 711/500
f 710/437 711/439 703/438
f 703/438 711/439 708/440
usemtl en_wall
f 712/501 714/502 713/503
f 715/504 713/503 714/502
f 713/504 716/503 712/502
f 716/503 717/501 712/502
f 718/502 720/504 719/501
f 721/503 719/501 720/504
f 717/502 716/504 718/501
f 720/503 718/501 716/504
f 714/505 722/506 715/507
f 723/503 719/501 721/504
f 717/501 718/502 724/503
f 725/504 724/503 718/502
f 718/501 719/502 725/503
f 723/504 725/503 719/502
f 726/503 712/501 724/504
f 724/504 712/501 717/502
f 712/502 726/504 714/501
f 722/503 714/501 726/504
usemtl en_wallg
f 716/508 713/509 727/510
f 727/510 713/509 728/511
f 720/509 727/512 721/508
f 729/513 721/508 727/512
f 728/514 713/508 715/509
f 727/512 720/508 716/509
f 715/508 722/509 728/514
f 728/514 722/509 730/515
f 721/508 729/512 723/509
f 729/512 731/512 723/509
f 732/512 724/508 725/509
f 730/514 722/508 726/509
f 725/508 723/509 732/513
f 731/512 732/513 723/509
f 724/509 732/512 726/508
f 732/512 730/513 726/508
usemtl en_wall
f 733/516 735/517 734/518
f 734/518 735/517 736/519
f 734/520 737/521 733/522
f 735/523 738/524 736/525
f 736/525 738/524 739/526
f 740/516 741/517 733/518
f 733/518 741/517 735/519
f 734/516 736/517 742/518
f 742/518 736/517 743/519
f 733/520 737/521 740/522
f 742/520 737/521 734/522
f 741/523 744/524 735/525
f 735/525 744/524 738/526
f 736/523 739/524 743/525
f 743/525 739/524 745/526
f 746/523 747/524 741/525
f 741/525 747/524 744/526
f 743/523 745/524 748/525
f 748/525 745/524 749/526
f 740/520 737/521 750/522
f 751/520 737/521 742/522
f 750/516 746/517 740/518
f 740/518 746/517 741/519
f 742/516 743/517 751/518
f 751/518 743/517 748/519
f 748/523 749/524 746/525
f 746/525 749/524 747/526
f 750/520 737/521 751/522
f 751/516 748/517 750/518
f 750/518 748/517 746/519
f 752/527 754/528 753/529
f 753/529 754/528 755/530
f 756/527 758/528 757/529
f 757/529 758/528 759/530
f 754/531 760/532 755/533
f 755/533 760/532 761/534
f 758/531 762/532 759/533
f 759/533 762/532 763/534
f 753/535 764/536 752/537
f 765/538 752/537 764/536
f 757/535 766/536 756/537
f 767/538 756/537 766/536
f 760/539 768/540 761/541
f 761/541 768/540 769/542
f 762/539 770/540 763/541
f 763/541 770/540 771/542
f 753/527 755/528 772/529
f 772/529 755/528 773/530
f 774/527 775/528 756/529
f 756/529 775/528 758/530
f 776/527 777/528 752/529
f 752/529 777/528 754/530
f 757/527 759/528 778/529
f 778/529 759/528 779/530
f 755/531 761/532 773/533
f 773/533 761/532 780/534
f 775/531 781/532 758/533
f 758/533 781/532 762/534
f 777/531 782/532 754/533
f 754/533 782/532 760/534
f 759/531 763/532 779/533
f 779/533 763/532 783/534
f 756/535 767/536 774/537
f 784/538 774/537 767/536
f 752/535 765/536 776/537
f 785/538 776/537 765/536
f 772/535 786/536 753/537
f 764/538 753/537 786/536
f 778/535 787/536 757/537
f 766/538 757/537 787/536
f 770/543 769/544 771/545
f 771/545 769/544 768/546
f 761/539 769/540 780/541
f 780/541 769/540 788/542
f 781/539 789/540 762/541
f 762/541 789/540 770/542
f 782/539 790/540 760/541
f 760/541 790/540 768/542
f 763/539 771/540 783/541
f 783/541 771/540 791/542
f 789/543 788/544 770/545
f 770/545 788/544 769/546
f 771/543 768/544 791/545
f 791/545 768/544 790/546
f 764/547 792/548 765/549
f 766/547 793/548 767/549
f 794/550 796/551 795/552
f 797/553 795/552 796/551
f 786/547 792/548 764/549
f 767/547 793/548 784/549
f 765/547 792/548 785/549
f 787/547 793/548 766/549
f 796/554 798/555 797/556
f 799/557 797/556 798/555
f 800/558 799/559 801/560
f 801/560 799/559 798/561
f 795/550 797/551 802/552
f 803/553 802/552 797/551
f 804/550 805/551 794/552
f 796/553 794/552 805/551
f 797/554 799/555 803/556
f 806/557 803/556 799/555
f 805/554 807/555 796/556
f 798/557 796/556 807/555
f 808/558 806/559 800/560
f 800/560 806/559 799/561
f 801/558 798/559 809/560
f 809/560 798/559 807/561
f 810/547 792/548 786/549
f 784/547 793/548 811/549
f 785/547 792/548 812/549
f 813/547 793/548 787/549
f 772/527 773/528 814/529
f 814/529 773/528 815/530
f 816/527 817/528 774/529
f 774/529 817/528 775/530
f 773/531 780/532 815/533
f 815/533 780/532 818/534
f 817/531 819/532 775/533
f 775/533 819/532 781/534
f 814/535 810/536 772/537
f 786/538 772/537 810/536
f 774/535 784/536 816/537
f 811/538 816/537 784/536
f 780/539 788/540 818/541
f 818/541 788/540 820/542
f 819/539 821/540 781/541
f 781/541 821/540 789/542
f 821/543 820/544 789/545
f 789/545 820/544 788/546
f 791/543 790/544 822/545
f 822/545 790/544 823/546
f 824/539 823/540 782/541
f 782/541 823/540 790/542
f 783/539 791/540 825/541
f 825/541 791/540 822/542
f 776/535 785/536 826/537
f 812/538 826/537 785/536
f 827/535 813/536 778/537
f 787/538 778/537 813/536
f 828/531 824/532 777/533
f 777/533 824/532 782/534
f 779/531 783/532 829/533
f 829/533 783/532 825/534
f 826/527 828/528 776/529
f 776/529 828/528 777/530
f 778/527 779/528 827/529
f 827/529 779/528 829/530
f 830/558 831/559 808/560
f 808/560 831/559 806/561
f 809/558 807/559 832/560
f 832/560 807/559 833/561
f 803/554 806/555 834/556
f 831/557 834/556 806/555
f 835/554 833/555 805/556
f 807/557 805/556 833/555
f 802/550 803/551 836/552
f 834/553 836/552 803/551
f 837/550 835/551 804/552
f 805/553 804/552 835/551
f 832/558 833/559 830/560
f 830/560 833/559 831/561
f 834/554 831/555 835/556
f 833/557 835/556 831/555
f 838/547 792/548 810/549
f 811/547 793/548 839/549
f 812/547 792/548 840/549
f 841/547 793/548 813/549
f 836/550 834/551 837/552
f 835/553 837/552 834/551
f 840/547 792/548 838/549
f 839/547 793/548 841/549
f 842/543 843/544 821/545
f 821/545 843/544 820/546
f 822/543 823/544 844/545
f 844/545 823/544 845/546
f 818/539 820/540 846/541
f 846/541 820/540 843/542
f 847/539 842/540 819/541
f 819/541 842/540 821/542
f 848/539 845/540 824/541
f 824/541 845/540 823/542
f 825/539 822/540 849/541
f 849/541 822/540 844/542
f 844/543 845/544 842/545
f 842/545 845/544 843/546
f 816/535 811/536 850/537
f 839/538 850/537 811/536
f 826/535 812/536 851/537
f 840/538 851/537 812/536
f 852/535 838/536 814/537
f 810/538 814/537 838/536
f 853/535 841/536 827/537
f 813/538 827/537 841/536
f 815/531 818/532 854/533
f 854/533 818/532 846/534
f 855/531 847/532 817/533
f 817/533 847/532 819/534
f 829/531 825/532 856/533
f 856/533 825/532 849/534
f 857/531 848/532 828/533
f 828/533 848/532 824/534
f 814/527 815/528 852/529
f 852/529 815/528 854/530
f 850/527 855/528 816/529
f 816/529 855/528 817/530
f 851/527 857/528 826/529
f 826/529 857/528 828/530
f 827/527 829/528 853/529
f 853/529 829/528 856/530
f 849/539 844/540 847/541
f 847/541 844/540 842/542
f 846/539 843/540 848/541
f 848/541 843/540 845/542
f 851/535 840/536 852/537
f 838/538 852/537 840/536
f 850/535 839/536 853/537
f 841/538 853/537 839/536
f 854/531 846/532 857/533
f 857/533 846/532 848/534
f 856/531 849/532 855/533
f 855/533 849/532 847/534
f 852/527 854/528 851/529
f 851/529 854/528 857/530
f 853/527 856/528 850/529
f 850/529 856/528 855/530
f 858/562 860/563 859/564
f 859/564 860/563 861/565
f 862/562 864/563 863/564
f 863/564 864/563 865/565
f 866/562 868/563 867/564
f 867/564 868/563 869/565
f 870/562 872/563 871/564
f 871/564 872/563 873/565
f 859/562 861/563 874/564
f 874/564 861/563 875/565
f 876/562 877/563 858/564
f 858/564 877/563 860/565
f 863/562 865/563 878/564
f 878/564 865/563 879/565
f 880/562 881/563 862/564
f 862/564 881/563 864/565
f 882/562 883/563 866/564
f 866/564 883/563 868/565
f 867/562 869/563 884/564
f 884/564 869/563 885/565
f 886/562 887/563 870/564
f 870/564 887/563 872/565
f 871/562 873/563 888/564
f 888/564 873/563 889/565
f 874/566 876/567 859/568
f 859/568 876/567 858/569
f 878/566 880/567 863/568
f 863/568 880/567 862/569
f 866/566 867/567 882/568
f 882/568 867/567 884/569
f 870/566 871/567 886/568
f 886/568 871/567 888/569
f 874/562 875/563 876/564
f 876/564 875/563 877/565
f 878/562 879/563 880/564
f 880/564 879/563 881/565
f 884/569 885/570 882/206
f 882/206 885/570 883/571
f 888/562 889/563 886/564
f 886/564 889/563 887/565
f 860/572 890/573 861/574
f 864/572 891/573 865/574
f 868/572 892/573 869/574
f 872/572 893/573 873/574
f 861/572 890/573 875/574
f 877/572 890/573 860/574
f 865/572 891/573 879/574
f 881/572 891/573 864/574
f 883/572 892/573 868/574
f 869/572 892/573 885/574
f 887/572 893/573 872/574
f 873/572 893/573 889/574
f 875/572 890/573 877/574
f 879/572 891/573 881/574
f 885/572 892/573 883/574
f 889/572 893/573 887/574
f 894/572 896/573 895/574
f 897/572 899/573 898/574
f 900/572 902/573 901/574
f 903/572 905/573 904/574
f 895/572 896/573 906/574
f 907/572 896/573 894/574
f 898/572 899/573 908/574
f 909/572 899/573 897/574
f 910/572 902/573 900/574
f 901/572 902/573 911/574
f 912/572 905/573 903/574
f 904/572 905/573 913/574
f 906/572 896/573 907/574
f 908/572 899/573 909/574
f 911/572 902/573 910/574
f 913/572 905/573 912/574
f 914/562 894/563 915/564
f 915/564 894/563 895/565
f 916/562 897/563 917/564
f 917/564 897/563 898/565
f 918/562 900/563 919/564
f 919/564 900/563 901/565
f 920/562 903/563 921/564
f 921/564 903/563 904/565
f 922/566 923/567 915/568
f 915/568 923/567 914/569
f 924/566 925/567 917/568
f 917/568 925/567 916/569
f 918/566 919/567 926/568
f 926/568 919/567 927/569
f 920/566 921/567 928/568
f 928/568 921/567 929/569
f 915/562 895/563 922/564
f 922/564 895/563 906/565
f 923/562 907/563 914/564
f 914/564 907/563 894/565
f 917/562 898/563 924/564
f 924/564 898/563 908/565
f 925/562 909/563 916/564
f 916/564 909/563 897/565
f 926/562 910/563 918/564
f 918/564 910/563 900/565
f 919/562 901/563 927/564
f 927/564 901/563 911/565
f 928/562 912/563 920/564
f 920/564 912/563 903/565
f 921/562 904/563 929/564
f 929/564 904/563 913/565
f 922/562 906/563 923/564
f 923/564 906/563 907/565
f 924/562 908/563 925/564
f 925/564 908/563 909/565
f 927/562 911/563 926/564
f 926/564 911/563 910/565
f 929/562 913/563 928/564
f 928/564 913/563 912/565
# 1586 elements

