# Blender v2.66 (sub 1) OBJ File: ''
# www.blender.org
mtllib Cameron.mtl
o noname_2
v -3.982710 18.823538 -5.650210
v -3.982710 18.823538 -5.650210
v -2.869607 18.062639 -4.042311
v -2.869607 18.062639 -4.042311
v -2.869607 18.062639 -4.042311
v -2.869607 18.062639 -4.042311
v 2.869593 18.062639 -4.042318
v 2.869593 18.062639 -4.042318
v 2.869593 18.062639 -4.042318
v 2.869593 18.062639 -4.042318
v 3.982691 18.823538 -5.650221
v 3.982691 18.823538 -5.650221
v -6.444199 18.823542 2.157994
v -6.444199 18.823542 2.157994
v -4.643100 18.062643 1.583592
v -4.643100 18.062643 1.583592
v -4.643100 18.062643 1.583592
v -4.643100 18.062643 1.583592
v 0.000007 18.823545 6.983785
v 0.000007 18.823545 6.983785
v 0.000005 18.062645 5.060686
v 0.000005 18.062645 5.060686
v 0.000005 18.062645 5.060686
v 0.000005 18.062645 5.060686
v 6.444201 18.823542 2.157976
v 6.444201 18.823542 2.157976
v 4.643100 18.062643 1.583579
v 4.643100 18.062643 1.583579
v 4.643100 18.062643 1.583579
v 4.643100 18.062643 1.583579
v 0.000016 14.119250 13.688989
v 7.744513 10.390548 10.896680
v 7.744513 10.390548 10.896680
v -7.744488 10.390548 10.896701
v -7.744488 10.390548 10.896701
v 9.090081 5.069433 -12.555518
v 9.090081 5.069433 -12.555518
v -0.000023 5.178632 -15.317107
v 13.537492 5.178638 -4.733325
v 13.537492 5.178638 -4.733325
v 14.327505 5.069444 4.739174
v 14.327505 5.069444 4.739174
v 7.877315 5.178649 12.391582
v 7.877315 5.178649 12.391582
v 7.877315 5.178649 12.391582
v -9.090119 5.069433 -12.555494
v -9.090119 5.069433 -12.555494
v -13.537509 5.178638 -4.733288
v -13.537509 5.178638 -4.733288
v -14.327496 5.069444 4.739213
v -14.327496 5.069444 4.739213
v -7.877285 5.178649 12.391604
v -7.877285 5.178649 12.391604
v -7.877285 5.178649 12.391604
v 6.668305 1.254145 5.258187
v 6.668305 1.254145 5.258187
v 6.668305 1.254145 5.258187
v 6.027611 9.651848 9.975983
v 6.027611 9.651848 9.975983
v 6.027611 9.651848 9.975983
v 6.027611 9.651848 9.975983
v 0.000015 12.658249 12.404288
v 0.000015 12.658249 12.404288
v 0.000003 0.246944 4.010697
v 0.000003 0.246944 4.010697
v 0.000007 9.914746 6.686091
v 0.000007 9.914746 6.686091
v 0.000007 9.914746 6.686091
v 6.246513 5.010649 10.919386
v 6.246513 5.010649 10.919386
v 6.246513 5.010649 10.919386
v 0.000013 1.384249 11.328596
v 0.000013 1.384249 11.328596
v 0.000010 1.778647 9.137996
v 0.000010 1.778647 9.137996
v 0.000007 4.743646 6.568194
v 0.000007 4.743646 6.568194
v 0.000007 4.743646 6.568194
v -0.000013 0.552936 -8.032003
v -0.000013 0.552936 -8.032003
v 6.631590 1.254138 -5.525612
v 6.631590 1.254138 -5.525612
v 6.631590 1.254138 -5.525612
v 6.631590 1.254138 -5.525612
v -6.668295 1.254145 5.258205
v -6.668295 1.254145 5.258205
v -6.668295 1.254145 5.258205
v -6.027588 9.651848 9.975999
v -6.027588 9.651848 9.975999
v -6.027588 9.651848 9.975999
v -6.246487 5.010649 10.919402
v -6.246487 5.010649 10.919402
v -6.246487 5.010649 10.919402
v -6.246487 5.010649 10.919402
v -6.631609 1.254138 -5.525595
v -6.631609 1.254138 -5.525595
v -6.631609 1.254138 -5.525595
v -6.631609 1.254138 -5.525595
v -0.000002 19.440842 -0.000115
v -0.000002 19.440842 -0.000115
v -3.982710 18.823538 -5.650210
v -3.982710 18.823538 -5.650210
v 3.982691 18.823538 -5.650221
v 3.982691 18.823538 -5.650221
v -6.444199 18.823542 2.157994
v -6.444199 18.823542 2.157994
v 0.000007 18.823545 6.983785
v 0.000007 18.823545 6.983785
v 6.444201 18.823542 2.157976
v 6.444201 18.823542 2.157976
v 7.749683 14.119235 -11.101322
v 7.749683 14.119235 -11.101322
v 7.749683 14.119235 -11.101322
v 7.749683 14.119235 -11.101322
v 7.749683 14.119235 -11.101322
v 7.749683 14.119235 -11.101322
v -7.749717 14.119235 -11.101302
v -7.749717 14.119235 -11.101302
v -7.749717 14.119235 -11.101302
v -7.749717 14.119235 -11.101302
v -7.749717 14.119235 -11.101302
v -7.749717 14.119235 -11.101302
v -0.000021 10.484833 -14.035009
v -0.000021 10.484833 -14.035009
v -0.000021 10.484833 -14.035009
v 12.539304 14.119245 4.219871
v 12.539304 14.119245 4.219871
v 12.539304 14.119245 4.219871
v 12.539304 14.119245 4.219871
v 12.539304 14.119245 4.219871
v 12.539304 14.119245 4.219871
v 12.530993 10.390538 -4.162326
v 12.530993 10.390538 -4.162326
v 12.530993 10.390538 -4.162326
v 0.000016 14.119250 13.688989
v 0.000016 14.119250 13.688989
v 0.000016 14.119250 13.688989
v 0.000016 14.119250 13.688989
v 7.744513 10.390548 10.896680
v 7.744513 10.390548 10.896680
v -12.539296 14.119245 4.219904
v -12.539296 14.119245 4.219904
v -12.539296 14.119245 4.219904
v -12.539296 14.119245 4.219904
v -12.539296 14.119245 4.219904
v -12.539296 14.119245 4.219904
v -7.744488 10.390548 10.896701
v -7.744488 10.390548 10.896701
v -12.531008 10.390538 -4.162293
v -12.531008 10.390538 -4.162293
v -12.531008 10.390538 -4.162293
v 9.090081 5.069433 -12.555518
v 9.090081 5.069433 -12.555518
v -0.000023 5.178632 -15.317107
v -0.000023 5.178632 -15.317107
v 13.537492 5.178638 -4.733325
v 13.537492 5.178638 -4.733325
v 14.327505 5.069444 4.739174
v 14.327505 5.069444 4.739174
v 7.877315 5.178649 12.391582
v -9.090119 5.069433 -12.555494
v -9.090119 5.069433 -12.555494
v -13.537509 5.178638 -4.733288
v -13.537509 5.178638 -4.733288
v -14.327496 5.069444 4.739213
v -14.327496 5.069444 4.739213
v -7.877285 5.178649 12.391604
vt 0.999900 0.999900
vt 0.999900 0.100000
vt 0.000000 0.100000
vt 0.000000 0.999900
vt 0.999900 0.000000
vt 0.999900 0.975100
vt 0.030300 0.000000
vt 0.000000 0.000000
vt 0.539600 0.665300
vt 0.962100 0.665300
vt 0.901700 0.403000
vt 0.600000 0.403000
vt 0.499900 0.681600
vt 0.804200 0.681600
vt 0.804200 0.399900
vt 0.499900 0.400000
vt 0.999900 0.681600
vt 0.999900 0.400000
vt 0.749900 0.685400
vt 0.549900 1.102700
vt 0.949900 1.102700
vt 0.550000 -0.016900
vt 0.949900 -0.016900
vt 0.549900 0.528700
vt 0.550000 0.685400
vt 0.949900 0.685400
vt 0.994800 0.157000
vt 0.505100 0.157000
vt 0.505100 0.388000
vt 0.994800 0.388000
vt 0.949900 0.528700
vt 0.549900 -0.016900
vt 0.550000 0.528700
vt 0.749900 -0.016900
vt 0.599900 -0.013700
vt 0.749900 0.349900
vt 0.899900 -0.013700
vt 0.600000 -0.013700
vt 0.900000 -0.013700
vt 0.749900 0.350000
usemtl g7m0
s off
f 104/1 116/2 118/3
f 118/3 101/4 104/1
f 125/5 121/6 113/7
f 110/1 131/2 112/3
f 112/3 103/4 110/1
f 134/5 115/6 128/7
f 108/1 138/2 127/3
f 127/3 109/4 108/1
f 140/5 130/6 136/7
f 146/2 135/3 107/4
f 146/2 107/4 106/1
f 148/5 137/6 143/7
f 122/2 142/3 105/4
f 122/2 105/4 102/1
f 151/5 145/6 119/7
f 123/4 114/1 153/5
f 123/4 153/5 154/8
f 152/8 111/4 133/1
f 152/8 133/1 157/5
f 132/4 129/1 159/5
f 132/4 159/5 156/8
f 158/8 126/4 139/1
f 158/8 139/1 160/5
f 161/8 117/4 124/1
f 161/8 124/1 155/5
f 149/4 120/1 162/5
f 149/4 162/5 163/8
f 165/8 141/4 150/1
f 165/8 150/1 164/5
f 147/4 144/1 166/5
f 167/8 147/4 166/5
usemtl g7m1
f 11/9 2/10 6/11
f 11/9 6/11 7/12
f 4/12 1/9 14/10
f 4/12 14/10 18/11
f 15/12 13/9 20/10
f 15/12 20/10 24/11
f 25/9 12/10 10/11
f 25/9 10/11 28/12
f 19/9 26/10 30/11
f 19/9 30/11 21/12
f 43/13 33/14 60/15
f 69/16 43/13 60/15
f 74/16 72/13 45/17
f 74/16 45/17 71/18
f 58/16 32/13 31/17
f 58/16 31/17 63/18
f 67/19 59/20 62/21
f 75/21 70/20 77/19
f 64/22 56/23 73/24
f 76/25 70/20 61/21
f 76/25 61/21 68/26
f 65/27 79/28 81/29
f 81/29 57/30 65/27
f 42/31 56/23 82/32
f 39/33 42/31 82/32
f 80/22 38/33 37/31
f 37/31 84/23 80/22
f 36/33 40/31 83/34
f 41/33 44/31 55/34
f 90/15 35/14 52/13
f 90/15 52/13 91/16
f 54/17 72/13 74/16
f 54/17 74/16 94/18
f 31/17 34/13 88/16
f 63/18 31/17 88/16
f 62/21 89/20 67/19
f 77/19 92/20 75/21
f 73/24 53/31 86/23
f 89/20 93/21 78/26
f 66/25 89/20 78/26
f 95/29 79/28 65/27
f 65/27 87/30 95/29
f 96/32 86/23 51/31
f 96/32 51/31 48/33
f 47/31 38/33 80/22
f 80/22 98/23 47/31
f 97/34 49/31 46/33
f 85/34 53/31 50/33
f 56/23 44/31 73/24
f 64/22 73/24 86/23
f 27/35 100/36 23/37
f 8/38 100/36 29/37
f 3/35 100/36 9/37
f 5/39 16/38 100/36
f 99/40 17/37 22/38
o noname_8
v 3.635983 0.001149 12.363782
v 12.659296 0.001147 8.659167
v 12.659296 0.001147 8.659167
v 12.659296 0.001147 8.659167
v 7.340644 0.001144 3.340529
v 7.340644 0.001144 3.340529
v 7.340644 0.001144 3.340529
v 7.092246 2.596347 8.907508
v 11.280862 3.113246 7.994770
v 11.280862 3.113246 7.994770
v 8.004973 3.113245 4.718890
v 8.004973 3.113245 4.718890
v 12.091624 1.932644 3.908116
v -3.636097 0.001149 12.363933
v -7.340712 0.001144 3.340620
v -7.340712 0.001144 3.340620
v -7.340712 0.001144 3.340620
v -12.659349 0.001147 8.659272
v -12.659349 0.001147 8.659272
v -12.659349 0.001147 8.659272
v -7.092369 2.596347 8.907669
v -8.005107 3.113244 4.719052
v -8.005107 3.113244 4.719052
v -11.280987 3.113246 7.994941
v -11.280987 3.113246 7.994941
v -12.091761 1.932644 3.908291
v 1.636093 0.001133 -13.364138
v 5.340705 0.001139 -4.340823
v 5.340705 0.001139 -4.340823
v 5.340705 0.001139 -4.340823
v 10.659344 0.001135 -9.659474
v 10.659344 0.001135 -9.659474
v 10.659344 0.001135 -9.659474
v 5.092363 2.596335 -9.907876
v 6.005101 3.113238 -5.719260
v 6.005101 3.113238 -5.719260
v 9.280982 3.113235 -8.995148
v 9.280982 3.113235 -8.995148
v 10.091755 1.932638 -4.908495
v -1.635989 0.001133 -13.363990
v -10.659302 0.001135 -9.659373
v -10.659302 0.001135 -9.659373
v -10.659302 0.001135 -9.659373
v -5.340649 0.001139 -4.340737
v -5.340649 0.001139 -4.340737
v -5.340649 0.001139 -4.340737
v -5.092251 2.596335 -9.907720
v -9.280867 3.113235 -8.994980
v -9.280867 3.113235 -8.994980
v -6.004978 3.113238 -5.719102
v -6.004978 3.113238 -5.719102
v -10.091629 1.932638 -4.908326
vt 0.249900 1.569200
vt 0.015800 1.005500
vt 0.163400 1.004200
vt 0.254700 1.236200
vt 0.682400 1.059700
vt 0.569100 1.059800
vt 0.751200 0.686600
vt 0.345300 1.004900
vt 0.493400 1.006600
vt 0.937600 1.059500
vt 0.824900 1.059400
vt 0.187400 1.004000
vt 0.320600 1.004100
usemtl g6m0
s off
f 168/41 169/42 176/43
f 175/44 168/41 176/43
f 177/45 171/46 180/47
f 178/48 173/49 168/41
f 178/48 168/41 175/44
f 180/47 171/46 174/50
f 175/44 176/43 178/48
f 179/51 180/47 174/50
f 179/51 177/45 180/47
f 170/52 168/41 172/53
usemtl g5m0
f 181/41 182/42 189/43
f 188/44 181/41 189/43
f 190/45 184/46 193/47
f 191/48 186/49 181/41
f 191/48 181/41 188/44
f 193/47 184/46 187/50
f 188/44 189/43 191/48
f 192/51 193/47 187/50
f 192/51 190/45 193/47
f 183/52 181/41 185/53
usemtl g4m0
f 194/41 195/42 202/43
f 201/44 194/41 202/43
f 203/45 197/46 206/47
f 204/48 199/49 194/41
f 204/48 194/41 201/44
f 206/47 197/46 200/50
f 201/44 202/43 204/48
f 205/51 206/47 200/50
f 205/51 203/45 206/47
f 196/52 194/41 198/53
usemtl g3m0
f 207/41 208/42 215/43
f 214/44 207/41 215/43
f 216/45 210/46 219/47
f 217/48 212/49 207/41
f 217/48 207/41 214/44
f 219/47 210/46 213/50
f 214/44 215/43 217/48
f 218/51 219/47 213/50
f 218/51 216/45 219/47
f 209/52 207/41 211/53
o noname_4
v 2.912320 10.700352 16.049688
v 2.912320 10.700352 16.049688
v 2.118823 7.768353 18.583488
v 2.118823 7.768353 18.583488
v 2.893922 4.021853 17.578691
v 2.893922 4.021853 17.578691
v 2.893922 4.021853 17.578691
v 2.893922 4.021853 17.578691
v 2.893922 4.021853 17.578691
v 4.462517 3.207350 14.039989
v 4.462517 3.207350 14.039989
v 4.462517 3.207350 14.039989
v 4.462517 3.207350 14.039989
v 5.256013 6.139349 11.506086
v 5.256013 6.139349 11.506086
v 5.256013 6.139349 11.506086
v 5.256013 6.139349 11.506086
v 5.256013 6.139349 11.506086
v 4.480915 9.885749 12.510884
v 4.480915 9.885749 12.510884
v 5.117420 9.448352 16.470884
v 5.117420 9.448352 16.470884
v 5.117420 9.448352 16.470884
v 4.627022 7.636253 18.036886
v 4.627022 7.636253 18.036886
v 4.627022 7.636253 18.036886
v 5.106021 5.320852 17.415888
v 5.106021 5.320852 17.415888
v 5.106021 5.320852 17.415888
v 5.106021 5.320852 17.415888
v 6.075519 4.817451 15.228786
v 6.075519 4.817451 15.228786
v 6.075519 4.817451 15.228786
v 6.565916 6.629450 13.662785
v 6.565916 6.629450 13.662785
v 6.565916 6.629450 13.662785
v 6.086917 8.944951 14.283784
v 6.086917 8.944951 14.283784
v 6.086917 8.944951 14.283784
v 6.086917 8.944951 14.283784
v 6.325620 7.201252 16.157284
v 6.325620 7.201252 16.157284
v 0.000020 0.235052 16.031597
v 0.000020 0.235052 16.031597
v 2.603123 1.938354 18.661394
v 2.603123 1.938354 18.661394
v 2.603123 1.938354 18.661394
v 2.603123 1.938354 18.661394
v 1.485926 6.435555 20.939692
v 1.485926 6.435555 20.939692
v 1.485926 6.435555 20.939692
v 1.853824 9.461254 19.019489
v 1.853824 9.461254 19.019489
v 1.853824 9.461254 19.019489
v 1.853824 9.461254 19.019489
v 1.853824 9.461254 19.019489
v 0.000008 7.446446 7.594293
v 0.000008 7.446446 7.594293
v 0.000012 2.001048 10.400896
v 0.000019 1.129651 15.600497
v 4.078416 12.009050 13.131385
v 4.078416 12.009050 13.131385
v 4.078416 12.009050 13.131385
v 0.000016 13.249351 13.537889
v 0.000016 13.249351 13.537889
v -2.912281 10.700352 16.049696
v -2.912281 10.700352 16.049696
v -2.118777 7.768353 18.583494
v -2.118777 7.768353 18.583494
v -2.893878 4.021853 17.578699
v -2.893878 4.021853 17.578699
v -2.893878 4.021853 17.578699
v -2.893878 4.021853 17.578699
v -2.893878 4.021853 17.578699
v -4.462483 3.207350 14.040002
v -4.462483 3.207350 14.040002
v -4.462483 3.207350 14.040002
v -4.462483 3.207350 14.040002
v -5.255987 6.139349 11.506101
v -5.255987 6.139349 11.506101
v -5.255987 6.139349 11.506101
v -5.255987 6.139349 11.506101
v -5.255987 6.139349 11.506101
v -4.480885 9.885749 12.510897
v -4.480885 9.885749 12.510897
v -5.117380 9.448352 16.470900
v -5.117380 9.448352 16.470900
v -5.117380 9.448352 16.470900
v -4.626977 7.636253 18.036900
v -4.626977 7.636253 18.036900
v -4.626977 7.636253 18.036900
v -5.105978 5.320852 17.415901
v -5.105978 5.320852 17.415901
v -5.105978 5.320852 17.415901
v -5.105978 5.320852 17.415901
v -6.075481 4.817451 15.228803
v -6.075481 4.817451 15.228803
v -6.075481 4.817451 15.228803
v -6.565884 6.629450 13.662802
v -6.565884 6.629450 13.662802
v -6.565884 6.629450 13.662802
v -6.086883 8.944951 14.283800
v -6.086883 8.944951 14.283800
v -6.086883 8.944951 14.283800
v -6.086883 8.944951 14.283800
v -6.325581 7.201252 16.157301
v -6.325581 7.201252 16.157301
v -2.603077 1.938354 18.661400
v -2.603077 1.938354 18.661400
v -2.603077 1.938354 18.661400
v -2.603077 1.938354 18.661400
v -1.485874 6.435555 20.939695
v -1.485874 6.435555 20.939695
v -1.485874 6.435555 20.939695
v -1.853777 9.461254 19.019493
v -1.853777 9.461254 19.019493
v -1.853777 9.461254 19.019493
v -1.853777 9.461254 19.019493
v -4.078384 12.009050 13.131395
v -4.078384 12.009050 13.131395
v -4.078384 12.009050 13.131395
vt 0.423300 1.204400
vt 0.489300 1.000000
vt 0.154000 1.000000
vt 0.220100 1.204400
vt 0.252800 1.013900
vt 0.208300 1.143200
vt 0.297300 1.143200
vt 0.341900 1.016400
vt 0.212300 1.840100
vt 0.011200 1.702200
vt 0.226500 1.585800
vt 0.454800 1.709000
vt 0.468100 1.938800
vt 0.163800 1.016400
vt 0.763700 0.700000
vt 0.755100 1.048000
vt 0.574400 1.048000
vt 0.700000 1.818200
vt 0.984800 1.818200
vt 0.984800 1.999900
vt 0.699900 1.999900
vt 0.499900 1.999900
vt 0.099900 1.499900
vt 0.049900 1.350000
vt 0.449900 1.350000
vt 0.140900 1.265300
vt 0.023200 1.000000
vt 0.489800 1.000000
vt 0.376800 1.265300
vt 0.400000 1.499900
vt 0.050000 1.536200
vt 0.027000 1.000000
vt 0.328000 1.000000
vt 0.320000 1.536200
vt 0.926200 1.048000
vt 0.301900 0.999000
vt 0.100000 1.536200
vt 0.015400 0.999000
vt 0.170400 1.265300
vt 0.261400 1.000000
vt 0.150000 1.499900
vt 0.099900 1.349900
vt 0.399900 1.499900
vt 0.099900 1.350000
vt 0.400000 1.536200
usemtl g2m0
s off
f 242/54 221/55 222/56
f 242/54 222/56 243/57
f 245/54 223/55 225/56
f 245/54 225/56 247/57
f 228/55 229/56 250/57
f 249/54 228/55 250/57
f 230/55 234/56 253/57
f 252/54 230/55 253/57
f 254/54 235/55 238/56
f 254/54 238/56 257/57
f 258/54 239/55 220/56
f 258/54 220/56 241/57
f 261/58 240/59 244/60
f 261/58 244/60 248/61
f 260/62 246/63 251/64
f 260/62 251/64 255/65
f 260/62 255/65 259/66
f 261/58 256/67 240/59
f 276/68 282/69 236/70
f 278/71 277/72 237/73
f 232/74 278/71 237/73
f 232/74 279/75 278/71
f 268/76 264/77 227/78
f 265/79 262/80 231/81
f 226/82 265/79 231/81
f 268/76 227/78 275/83
f 224/84 233/85 281/86
f 281/86 272/87 224/84
f 284/88 282/69 276/68
f 283/89 271/90 280/91
f 287/56 286/55 307/54
f 287/56 307/54 308/57
f 290/56 288/55 310/54
f 290/56 310/54 312/57
f 315/57 294/56 293/55
f 315/57 293/55 314/54
f 318/57 299/56 295/55
f 318/57 295/55 317/54
f 303/56 300/55 319/54
f 303/56 319/54 322/57
f 285/56 304/55 323/54
f 285/56 323/54 306/57
f 309/60 305/59 326/58
f 313/61 309/60 326/58
f 316/64 311/63 325/62
f 320/65 316/64 325/62
f 324/66 320/65 325/62
f 305/59 321/67 326/58
f 301/70 340/69 276/68
f 302/73 277/72 278/71
f 302/73 278/71 297/74
f 278/71 279/75 297/74
f 292/78 327/77 331/76
f 296/81 262/80 329/79
f 296/81 329/79 291/82
f 337/83 292/78 331/76
f 339/86 298/85 289/84
f 289/84 336/87 339/86
f 330/92 263/93 266/82
f 333/94 328/95 267/78
f 333/94 267/78 269/83
f 270/78 273/96 335/94
f 335/94 332/97 270/78
f 276/68 340/69 284/88
f 338/91 334/90 283/89
f 283/89 334/90 274/98
o noname_3
v 2.606301 22.139343 1.896279
v 2.606301 22.139343 1.896279
v 2.606301 22.139343 1.896279
v 2.606296 22.139341 -1.896521
v 2.606296 22.139341 -1.896521
v 2.606296 22.139341 -1.896521
v 2.869593 18.062639 -4.042318
v 2.869593 18.062639 -4.042318
v 2.397802 18.063644 3.190482
v 2.397802 18.063644 3.190482
v 4.643100 18.062643 1.583579
v 4.643100 18.062643 1.583579
v 0.000001 18.071642 2.473685
v 0.000000 21.023342 1.537884
v -0.000004 21.023441 -1.538116
v -0.000006 18.071638 -3.076115
v -2.606300 22.139343 1.896286
v -2.606300 22.139343 1.896286
v -2.606300 22.139343 1.896286
v -2.606305 22.139341 -1.896514
v -2.606305 22.139341 -1.896514
v -2.606305 22.139341 -1.896514
v -2.869607 18.062639 -4.042311
v -2.869607 18.062639 -4.042311
v -2.397798 18.063644 3.190489
v -2.397798 18.063644 3.190489
v -4.643100 18.062643 1.583592
v -4.643100 18.062643 1.583592
vt 0.738800 1.368600
vt 0.902600 1.037500
vt 0.562000 1.037500
vt 0.741800 1.368600
vt 0.899900 0.850000
vt 0.900000 1.050000
vt 0.800000 1.050000
vt 0.800000 0.850000
vt 0.699900 1.049900
vt 0.699900 0.850100
vt 0.600000 1.049900
vt 0.600000 0.850000
usemtl g1m0
s off
f 351/99 346/100 341/101
f 351/99 348/100 344/101
f 352/102 343/100 349/101
f 353/103 350/104 342/105
f 353/103 342/105 354/106
f 354/106 342/105 345/107
f 354/106 345/107 355/108
f 355/108 345/107 347/109
f 355/108 347/109 356/110
f 357/101 362/100 367/99
f 360/101 364/100 367/99
f 365/101 359/100 368/102
f 358/105 366/104 353/103
f 358/105 353/103 354/106
f 361/107 358/105 354/106
f 355/108 361/107 354/106
f 363/109 361/107 355/108
f 356/110 363/109 355/108
o noname_9
v 1.503115 26.604650 12.821278
v 1.503115 26.604650 12.821278
v 1.503115 26.604650 12.821278
v 1.503115 26.604650 12.821278
v 3.006315 24.001150 12.821278
v 3.006315 24.001150 12.821278
v 3.006315 24.001150 12.821278
v 3.006315 24.001150 12.821278
v 1.503115 21.397551 12.821281
v 1.503115 21.397551 12.821281
v 1.503115 21.397551 12.821281
v 1.503115 21.397551 12.821281
v -1.503085 21.397551 12.821285
v -1.503085 21.397551 12.821285
v -1.503085 21.397551 12.821285
v -1.503085 21.397551 12.821285
v -3.006285 24.001051 12.821285
v -3.006285 24.001051 12.821285
v -3.006285 24.001051 12.821285
v -3.006285 24.001051 12.821285
v -1.503085 26.604650 12.821281
v -1.503085 26.604650 12.821281
v -1.503085 26.604650 12.821281
v -1.503085 26.604650 12.821281
v 1.164205 26.017647 5.197679
v 1.164205 26.017647 5.197679
v 1.164205 26.017647 5.197679
v 1.164205 26.017647 5.197679
v 2.328505 24.001146 5.197679
v 2.328505 24.001146 5.197679
v 2.328505 24.001146 5.197679
v 2.328505 24.001146 5.197679
v 1.164205 21.984547 5.197681
v 1.164205 21.984547 5.197681
v 1.164205 21.984547 5.197681
v 1.164205 21.984547 5.197681
v -1.164195 21.984446 5.197685
v -1.164195 21.984446 5.197685
v -1.164195 21.984446 5.197685
v -1.164195 21.984446 5.197685
v -2.328495 24.001047 5.197685
v -2.328495 24.001047 5.197685
v -2.328495 24.001047 5.197685
v -2.328495 24.001047 5.197685
v -1.164195 26.017647 5.197682
v -1.164195 26.017647 5.197682
v -1.164195 26.017647 5.197682
v -1.164195 26.017647 5.197682
v 1.736701 27.009245 2.214478
v 1.736701 27.009245 2.214478
v 1.736701 27.009245 2.214478
v 1.736701 27.009245 2.214478
v 1.736701 27.009245 2.214478
v 3.473501 24.001045 2.214477
v 3.473501 24.001045 2.214477
v 3.473501 24.001045 2.214477
v 3.473501 24.001045 2.214477
v 1.736701 20.992945 2.214481
v 1.736701 20.992945 2.214481
v 1.736701 20.992945 2.214481
v 1.736701 20.992945 2.214481
v -1.736699 20.992945 2.214486
v -1.736699 20.992945 2.214486
v -1.736699 20.992945 2.214486
v -1.736699 20.992945 2.214486
v -3.473499 24.001045 2.214486
v -3.473499 24.001045 2.214486
v -3.473499 24.001045 2.214486
v -3.473499 24.001045 2.214486
v -1.736699 27.009245 2.214482
v -1.736699 27.009245 2.214482
v -1.736699 27.009245 2.214482
v -1.736699 27.009245 2.214482
v -1.736699 27.009245 2.214482
v 1.501693 26.602140 -3.461722
v 1.501693 26.602140 -3.461722
v 1.501693 26.602140 -3.461722
v 1.501693 26.602140 -3.461722
v 1.501693 26.602140 -3.461722
v 3.003393 24.001141 -3.461722
v 3.003393 24.001141 -3.461722
v 3.003393 24.001141 -3.461722
v 3.003393 24.001141 -3.461722
v 1.501693 21.400040 -3.461719
v 1.501693 21.400040 -3.461719
v 1.501693 21.400040 -3.461719
v 1.501693 21.400040 -3.461719
v -1.501707 21.400040 -3.461715
v -1.501707 21.400040 -3.461715
v -1.501707 21.400040 -3.461715
v -1.501707 21.400040 -3.461715
v -3.003407 24.001041 -3.461715
v -3.003407 24.001041 -3.461715
v -3.003407 24.001041 -3.461715
v -3.003407 24.001041 -3.461715
v -1.501707 26.602140 -3.461718
v -1.501707 26.602140 -3.461718
v -1.501707 26.602140 -3.461718
v -1.501707 26.602140 -3.461718
v -1.501707 26.602140 -3.461718
v 0.000013 24.001051 11.053282
v -0.000009 24.001040 -4.988618
v -1.150100 30.680044 1.541679
v -1.150100 30.680044 1.541679
v -1.150100 30.680044 1.541679
v 1.150100 30.680044 1.541676
v 1.150100 30.680044 1.541676
v 1.150100 30.680044 1.541676
v 1.174595 30.031141 -2.131624
v 1.174595 30.031141 -2.131624
v 1.174595 30.031141 -2.131624
v -1.174605 30.031141 -2.131621
v -1.174605 30.031141 -2.131621
v -1.174605 30.031141 -2.131621
v 0.000015 24.001051 12.999782
v 2.034807 27.525446 7.040777
v 2.034807 27.525446 7.040777
v 4.069608 24.001047 7.040776
v 4.069608 24.001047 7.040776
v 2.034807 20.476646 7.040781
v 2.034807 20.476646 7.040781
v -2.034793 20.476746 7.040787
v -2.034793 20.476746 7.040787
v -4.069592 24.001047 7.040787
v -4.069592 24.001047 7.040787
v -2.034793 27.525446 7.040782
v -2.034793 27.525446 7.040782
vt 0.579300 -0.013700
vt 0.579300 0.499900
vt 0.920600 0.499900
vt 0.920600 -0.013700
vt 0.211400 0.326300
vt 0.261400 0.000000
vt 0.000000 0.000000
vt 0.050000 0.326300
vt 0.348700 0.561100
vt 0.348700 0.150300
vt 0.148700 0.150300
vt 0.148700 0.561100
vt 0.567600 -0.022400
vt 0.567600 -0.196700
vt 0.767600 -0.196700
vt 0.767600 -0.022400
vt 0.749900 0.730700
vt 0.667400 0.471600
vt 0.832500 0.471600
vt 0.254500 0.452000
vt 0.345700 0.002900
vt 0.178100 0.002900
vt 0.694000 -0.316900
vt 0.710100 -0.530000
vt 0.610200 -0.530000
vt 0.619700 -0.316900
vt 0.691000 -0.022400
vt 0.491000 -0.022400
vt 0.491000 -0.323500
vt 0.691000 -0.199700
vt 0.767600 -0.058900
vt 0.767600 -0.350100
vt 0.567600 -0.350100
vt 0.567600 -0.058900
vt 0.893800 0.445300
vt 0.749900 1.085900
vt 0.606100 0.445300
usemtl g0m0
s off
f 395/111 369/112 374/113
f 395/111 374/113 400/114
f 399/111 373/112 378/113
f 399/111 378/113 404/114
f 403/111 377/112 384/113
f 403/111 384/113 408/114
f 407/111 383/112 388/113
f 407/111 388/113 412/114
f 411/111 387/112 392/113
f 411/111 392/113 416/114
f 415/111 391/112 370/113
f 415/111 370/113 396/114
f 398/115 424/116 419/117
f 419/117 393/118 398/115
f 402/115 428/116 422/117
f 422/117 397/118 402/115
f 406/115 432/116 426/117
f 426/117 401/118 406/115
f 410/115 436/116 430/117
f 430/117 405/118 410/115
f 440/116 434/117 409/118
f 440/116 409/118 414/115
f 394/115 420/116 438/117
f 438/117 413/118 394/115
f 447/119 421/120 423/121
f 447/119 423/121 448/122
f 451/119 425/120 427/121
f 451/119 427/121 452/122
f 455/119 429/120 431/121
f 455/119 431/121 456/122
f 459/119 433/120 435/121
f 459/119 435/121 460/122
f 463/119 437/120 439/121
f 463/119 439/121 464/122
f 474/123 477/124 482/125
f 482/125 473/126 474/123
f 469/127 375/128 372/129
f 469/127 379/128 376/129
f 469/127 381/128 380/129
f 469/127 385/128 382/129
f 469/127 389/128 386/129
f 469/127 371/128 390/129
f 470/130 446/131 449/132
f 470/130 450/131 453/132
f 470/130 454/131 457/132
f 470/130 458/131 461/132
f 470/130 462/131 465/132
f 470/130 466/131 445/132
f 472/133 442/134 418/135
f 472/133 418/135 475/136
f 476/137 417/138 443/139
f 476/137 443/139 478/140
f 479/141 444/142 468/143
f 479/141 468/143 480/144
f 467/139 441/138 471/137
f 481/140 467/139 471/137
f 485/145 483/146 486/147
f 487/145 483/146 488/147
f 489/145 483/146 490/147
f 491/145 483/146 492/147
f 493/145 483/146 494/147
f 495/145 483/146 484/147
