# Created by Metasequoia

mtllib 2PEgg_fleet2.mtl

v 599.956543 2077.488525 429.293518
v 608.976990 2101.509766 438.313904
v 617.997803 2077.488525 429.293518
v 617.997803 2077.488525 447.334320
v 599.956543 2077.488525 447.334320
v -497.196503 2007.487793 430.019226
v -488.176025 2031.509033 439.039612
v -479.155212 2007.487793 430.019226
v -479.155212 2007.487793 448.060028
v -497.196503 2007.487793 448.060028
v 577.997925 1937.488525 652.890015
v 597.997925 1937.488647 652.890015
v 577.997925 1887.488525 652.890015
v 597.997925 1907.488647 652.890015
v 577.997925 1937.488525 697.919373
v 577.997925 1887.488525 697.919373
v 597.997925 1937.488647 697.919373
v 597.997925 1907.488647 697.919373
v -519.155029 1937.487671 653.615723
v -499.155060 1937.487671 653.615723
v -519.155029 1887.487671 653.615723
v -499.155029 1907.487671 653.615723
v -519.155029 1937.487671 698.645081
v -519.155029 1887.487671 698.645081
v -499.155060 1937.487671 698.645081
v -499.155029 1907.487671 698.645081
v 40.000000 1547.795166 546.292542
v 59.999981 1547.795288 546.292542
v 40.000000 1497.795166 546.292542
v 60.000000 1517.795288 546.292542
v 40.000000 1547.795166 591.321899
v 40.000000 1497.795166 591.321899
v 59.999981 1547.795288 591.321899
v 60.000000 1517.795288 591.321899
v 608.976990 2094.488525 434.960815
v 605.857117 2094.488525 440.364716
v 608.976990 2442.210938 438.563324
v 612.096680 2094.488525 440.364716
v -488.176025 2024.487793 435.686523
v -491.295898 2024.487793 441.090424
v -488.176025 2372.210205 439.288971
v -485.056305 2024.487793 441.090424
v 656.451904 1819.579834 668.293518
v 656.451904 1819.579834 688.293518
v 582.844604 1894.459717 668.293518
v 582.844604 1894.459717 678.293518
v 661.871582 1824.907349 668.293518
v 588.264282 1899.786987 668.293518
v 661.871582 1824.907349 688.293518
v 588.264282 1899.786987 678.293518
v 687.997925 1787.488770 668.293518
v 687.997925 1787.488770 728.293518
v 693.417542 1792.816040 668.293518
v 693.417542 1792.816040 728.293518
v 740.277771 1805.281982 766.861816
v 715.718079 1805.281982 766.861877
v 738.702759 1800.434448 766.109985
v 717.293152 1800.434448 766.109985
v 741.566528 1809.248169 759.091980
v 714.429382 1809.248169 759.091980
v 742.712036 1812.773682 734.027588
v 713.283875 1812.773682 734.027588
v 737.973267 1798.189575 648.453186
v 718.022583 1798.189575 648.453186
v 756.023438 1787.850220 766.109985
v 754.113770 1786.462769 648.453186
v 738.702759 1734.542480 766.109985
v 756.023438 1747.126709 766.109985
v 737.973328 1736.787598 648.453186
v 754.113770 1748.514282 648.453186
v 740.277832 1729.694946 766.861877
v 760.146973 1744.130859 766.861877
v 760.147034 1790.846191 766.861877
v 741.566467 1725.728760 759.091980
v 763.520874 1741.679443 759.091980
v 763.520874 1793.297363 759.091980
v 742.712036 1722.203369 734.027588
v 766.519897 1739.500732 734.027588
v 766.519897 1795.476318 734.027588
v 762.639343 1767.488525 766.109985
v 760.278870 1767.488525 648.453186
v 767.736389 1767.488525 766.861816
v 771.906616 1767.488525 759.091919
v 775.613647 1767.488525 734.027588
v 680.382202 1767.488525 734.027588
v 689.476074 1739.500610 734.027588
v 684.089111 1767.488525 759.091980
v 692.474976 1741.679565 759.091980
v 689.476013 1795.476318 734.027588
v 692.474976 1793.297363 759.091980
v 688.259521 1767.488525 766.861877
v 695.848877 1744.130859 766.861877
v 695.848877 1790.846191 766.861877
v 693.356689 1767.488525 766.110046
v 699.972473 1747.126709 766.109985
v 699.972778 1787.850098 766.110107
v 695.717041 1767.488525 648.453186
v 701.882202 1748.514160 648.453186
v 701.882080 1786.462769 648.453186
v 713.283936 1722.203247 734.027588
v 714.429443 1725.728882 759.091980
v 715.718140 1729.694946 766.861877
v 717.293213 1734.542480 766.109985
v 718.022644 1736.787476 648.453186
v 714.071411 1810.349854 656.327454
v 741.924438 1810.349976 656.327454
v 716.791870 1801.977173 624.019836
v 739.203979 1801.977173 624.019836
v 764.458069 1793.978271 656.327454
v 757.335693 1788.803711 624.019836
v 764.458069 1740.998657 656.327454
v 741.924438 1724.627075 656.327454
v 757.335693 1746.173462 624.019836
v 739.203979 1733.000000 624.019836
v 773.065125 1767.488525 656.327454
v 764.261414 1767.488525 624.019836
v 691.537842 1740.998657 656.327454
v 682.930725 1767.488525 656.327454
v 698.660278 1746.173462 624.019836
v 691.734497 1767.488525 624.019836
v 691.537842 1793.978394 656.327454
v 698.660156 1788.803589 624.019836
v 714.071472 1724.627075 656.327454
v 716.791992 1733.000000 624.019836
v -440.701111 1819.579102 669.019226
v -440.701111 1819.579102 689.019226
v -514.308411 1894.458984 669.019226
v -514.308411 1894.458984 679.019226
v -435.281433 1824.906616 669.019226
v -508.888733 1899.786255 669.019226
v -435.281433 1824.906616 689.019226
v -508.888733 1899.786255 679.019226
v -409.155121 1787.488037 669.019226
v -409.155121 1787.488037 729.019226
v -403.735474 1792.815308 669.019226
v -403.735474 1792.815308 729.019226
v -355.586456 1809.247314 759.817688
v -382.723572 1809.247314 759.817688
v -356.875214 1805.281128 767.587524
v -381.434906 1805.281128 767.587585
v -358.450226 1800.433594 766.835693
v -379.859802 1800.433594 766.835693
v -359.179657 1798.188721 649.178894
v -379.130402 1798.188721 649.178894
v -354.440918 1812.772827 734.753296
v -383.869110 1812.772827 734.753296
v -358.450226 1734.541626 766.835693
v -341.129517 1747.125854 766.835693
v -359.179657 1736.786743 649.178894
v -343.039154 1748.513428 649.178894
v -341.129486 1787.849365 766.835693
v -343.039215 1786.461914 649.178894
v -356.875122 1729.694092 767.587585
v -337.005951 1744.130005 767.587585
v -337.005920 1790.845337 767.587585
v -355.586487 1725.727905 759.817688
v -333.632050 1741.678589 759.817688
v -333.632050 1793.296509 759.817688
v -354.440948 1722.202515 734.753296
v -330.633057 1739.499878 734.753296
v -330.633057 1795.475464 734.753296
v -334.513611 1767.487671 766.835693
v -336.874115 1767.487671 649.178894
v -329.416595 1767.487671 767.587524
v -325.246307 1767.487671 759.817627
v -321.539276 1767.487671 734.753296
v -416.770721 1767.487671 734.753296
v -407.676880 1739.499756 734.753296
v -413.063812 1767.487671 759.817688
v -404.677948 1741.678711 759.817688
v -407.676941 1795.475464 734.753296
v -404.677979 1793.296509 759.817688
v -408.893463 1767.487671 767.587585
v -401.304077 1744.130005 767.587585
v -401.304108 1790.845337 767.587585
v -403.796295 1767.487671 766.835754
v -397.180511 1747.125854 766.835693
v -397.180206 1787.849243 766.835815
v -401.435913 1767.487671 649.178894
v -395.270782 1748.513306 649.178894
v -395.270844 1786.461914 649.178894
v -383.869019 1722.202393 734.753296
v -382.723541 1725.728027 759.817688
v -381.434814 1729.694092 767.587585
v -379.859711 1734.541626 766.835693
v -379.130310 1736.786621 649.178894
v -383.081543 1810.348999 657.053162
v -355.228485 1810.349121 657.053162
v -380.361053 1801.976318 624.745544
v -357.949005 1801.976318 624.745544
v -332.694885 1740.997803 657.053162
v -355.228485 1724.626221 657.053162
v -339.817230 1746.172607 624.745544
v -357.949005 1732.999146 624.745544
v -332.694885 1793.977417 657.053162
v -339.817261 1788.802856 624.745544
v -324.087830 1767.487671 657.053162
v -332.891571 1767.487671 624.745544
v -414.222229 1767.487671 657.053162
v -405.615143 1793.977539 657.053162
v -405.418488 1767.487671 624.745544
v -398.492798 1788.802734 624.745544
v -405.615082 1740.997803 657.053162
v -398.492706 1746.172607 624.745544
v -383.081482 1724.626221 657.053162
v -380.360962 1732.999146 624.745544
v 118.453934 1429.886475 561.696045
v 118.453934 1429.886475 581.696045
v 44.846630 1504.766357 561.696045
v 44.846630 1504.766357 571.696045
v 123.873611 1435.213989 561.696045
v 50.266300 1510.093628 561.696045
v 123.873611 1435.213989 581.696045
v 50.266300 1510.093628 571.696045
v 149.999924 1397.795410 561.696045
v 149.999924 1397.795410 621.696045
v 155.419571 1403.122681 561.696045
v 155.419571 1403.122681 621.696045
v 202.279831 1415.588623 660.264343
v 177.720139 1415.588623 660.264404
v 200.704803 1410.741089 659.512512
v 179.295242 1410.741089 659.512512
v 199.975357 1408.496216 541.855713
v 180.024628 1408.496216 541.855713
v 203.568573 1419.554810 652.494507
v 176.431473 1419.554810 652.494507
v 204.714111 1423.080322 627.430115
v 175.285934 1423.080322 627.430115
v 200.704803 1344.849121 659.512512
v 218.025513 1357.433350 659.512512
v 199.975388 1347.094238 541.855713
v 216.115860 1358.820923 541.855713
v 218.025528 1398.156860 659.512512
v 216.115814 1396.769409 541.855713
v 202.279907 1340.001587 660.264404
v 222.149063 1354.437500 660.264404
v 222.149124 1401.152832 660.264404
v 203.568558 1336.035400 652.494507
v 225.522964 1351.986084 652.494507
v 225.522964 1403.604004 652.494507
v 204.714081 1332.510010 627.430115
v 228.521973 1349.807373 627.430115
v 228.521973 1405.782959 627.430115
v 224.641434 1377.795166 659.512512
v 222.280930 1377.795166 541.855713
v 229.738449 1377.795166 660.264343
v 233.908707 1377.795166 652.494446
v 237.615738 1377.795166 627.430115
v 142.384293 1377.795166 627.430115
v 151.478149 1349.807251 627.430115
v 146.091202 1377.795166 652.494507
v 154.477066 1351.986206 652.494507
v 151.478104 1405.782959 627.430115
v 154.477051 1403.604004 652.494507
v 157.850922 1401.152832 660.264404
v 150.261566 1377.795166 660.264404
v 157.850952 1354.437500 660.264404
v 155.358734 1377.795166 659.512573
v 161.974533 1357.433350 659.512512
v 161.974823 1398.156738 659.512634
v 157.719116 1377.795166 541.855713
v 163.884247 1358.820801 541.855713
v 163.884171 1396.769409 541.855713
v 175.286011 1332.509888 627.430115
v 176.431488 1336.035522 652.494507
v 177.720215 1340.001587 660.264404
v 179.295303 1344.849121 659.512512
v 180.024734 1347.094116 541.855713
v 176.073486 1420.656494 549.729980
v 203.926529 1420.656616 549.729980
v 178.793961 1412.283813 517.422363
v 201.206024 1412.283813 517.422363
v 226.460159 1351.305298 549.729980
v 203.926529 1334.933716 549.729980
v 219.337784 1356.480103 517.422363
v 201.206024 1343.306641 517.422363
v 226.460159 1404.284912 549.729980
v 219.337769 1399.110352 517.422363
v 235.067215 1377.795166 549.729980
v 226.263474 1377.795166 517.422363
v 144.932800 1377.795166 549.729980
v 153.539886 1404.285034 549.729980
v 153.736542 1377.795166 517.422363
v 160.662231 1399.110229 517.422363
v 153.539932 1351.305298 549.729980
v 160.662323 1356.480103 517.422363
v 176.073563 1334.933716 549.729980
v 178.794067 1343.306641 517.422363
v -4.242710 1687.037842 292.695923
v -6.000090 1682.795166 292.695923
v -4.242710 1687.037842 331.695923
v -6.000090 1682.795288 331.695923
v -0.000090 1688.795166 292.695923
v -0.000090 1688.795166 331.695923
v 4.242610 1687.037842 292.695923
v 4.242610 1687.037842 331.695923
v 5.999910 1682.795166 292.695923
v 5.999910 1682.795288 331.695923
v -4.242710 1678.552490 292.695923
v -4.242710 1678.552490 331.695923
v -0.000090 1676.795166 292.695923
v -0.000090 1676.795166 331.695923
v 4.242610 1678.552490 292.695923
v 4.242610 1678.552490 331.695923
v -0.000090 1682.795166 331.695923
v -1.000090 1688.190430 341.695923
v 0.999910 1688.190430 341.695923
v -1.000090 1688.242798 331.695923
v 0.999910 1688.242798 331.695923
v 707.760498 1767.064331 599.796692
v 717.734558 1784.339844 599.796692
v 727.708557 1767.064331 578.251221
v 737.682678 1784.339966 599.796692
v 747.656738 1767.064331 599.796692
v 687.812317 1767.064331 656.136414
v 707.760498 1801.615479 656.136414
v 747.656799 1801.615479 656.136414
v 767.604919 1767.064331 656.136414
v 717.734558 1749.788696 599.796692
v 737.682678 1749.788696 599.796692
v 707.760437 1732.513062 656.136414
v 747.656738 1732.513062 656.136414
v -409.340698 1767.063477 656.862122
v -389.392517 1801.614624 656.862122
v -389.392517 1767.063477 600.522400
v -379.418457 1784.338989 600.522400
v -349.496216 1801.614624 656.862122
v -359.470276 1784.339111 600.522400
v -329.548035 1767.063477 656.862122
v -349.496216 1767.063477 600.522400
v -369.444366 1767.063477 578.976990
v -389.392548 1732.512207 656.862122
v -379.418457 1749.787842 600.522400
v -349.496216 1732.512207 656.862122
v -359.470276 1749.787842 600.522400
v 169.762527 1377.370850 493.199310
v 179.736588 1394.646362 493.199310
v 189.710678 1377.370972 471.653809
v 199.684738 1394.646484 493.199280
v 209.658798 1377.370850 493.199280
v 149.814346 1377.370850 549.539001
v 169.762527 1411.921997 549.539001
v 209.658829 1411.921997 549.539001
v 229.606979 1377.370850 549.539001
v 179.736588 1360.095215 493.199310
v 199.684738 1360.095215 493.199280
v 169.762482 1342.819580 549.539001
v 209.658798 1342.819580 549.539001
v 707.760437 1732.513062 732.468811
v 727.708557 1767.064331 720.471863
v 687.812317 1767.064331 732.468811
v 707.760498 1801.615479 732.468811
v 747.656738 1732.513062 732.468689
v 747.656799 1801.615479 732.468811
v 767.604919 1767.064331 732.468689
v -389.392548 1732.512207 733.194519
v -369.444366 1767.063477 721.197571
v -409.340698 1767.063477 733.194519
v -389.392517 1801.614624 733.194519
v -349.496216 1732.512207 733.194397
v -349.496216 1801.614624 733.194519
v -329.548035 1767.063477 733.194397
v 169.762482 1342.819580 625.871399
v 189.710678 1377.370972 613.874451
v 149.814346 1377.370850 625.871399
v 169.762527 1411.921997 625.871399
v 209.658798 1342.819580 625.871277
v 209.658829 1411.921997 625.871399
v 229.606979 1377.370850 625.871277
v -0.000090 1682.795044 292.695953
v -10.000090 1688.242920 331.695923
v -10.000090 1688.190430 341.695923
v -10.000090 1688.295166 311.195923
v -1.000090 1688.295166 311.195923
v 9.999910 1688.242920 331.695923
v 9.999910 1688.190430 341.695923
v 0.999910 1688.295166 311.195923
v 9.999910 1688.295166 311.195923
v -10.000090 1682.714111 311.195923
v -1.000090 1682.714111 311.195923
v 1.000000 1682.713867 311.195923
v 10.000000 1682.713867 311.195923
v -5.335100 1654.288086 167.977371
v -3.559800 1649.546021 170.962357
v -5.765900 1679.932983 228.218674
v -3.947200 1674.507813 229.563370
v -3.736700 390.071625 -421.725830
v -3.705500 421.482330 -365.859558
v -5.549100 395.331024 -423.624023
v -5.531500 425.895630 -369.285767
v -3.474200 378.824951 -485.656860
v -5.290100 384.414551 -485.745850
v -3.485000 467.499634 -318.883545
v -5.326700 471.092743 -323.155243
v -4.746700 1684.329224 292.695984
v -2.953100 1678.778931 292.695984
v -3.243300 521.505432 -279.770447
v -5.086900 524.505859 -284.476563
v -3.083000 387.704742 -551.352539
v -4.908500 393.077148 -549.818054
v -3.101000 578.121643 -247.322144
v -4.934700 580.693604 -252.279037
v -4.592700 1611.968384 119.142647
v -2.832500 1608.393066 123.463364
v -3.049200 1431.078735 53.539261
v -4.920100 1432.515381 48.155460
v -3.139400 1368.510010 35.584660
v -4.935100 1370.137817 30.229759
v -3.032200 636.151611 -219.668335
v -4.859000 638.411255 -224.777740
v -3.027600 1307.235107 16.165260
v -4.802600 1308.968872 10.836760
v -2.984100 695.391113 -194.806549
v -4.811500 697.483521 -199.986450
v -2.973000 999.866577 -84.402740
v -2.975100 1061.198975 -64.211441
v -4.778000 1001.628052 -89.711937
v -4.797500 1062.934814 -69.523239
v -2.924800 755.657715 -171.063538
v -4.754400 757.664917 -176.276337
v -2.909600 1122.940430 -44.114342
v -4.745600 1124.666382 -49.424541
v -2.794100 415.307251 -611.579773
v -4.620000 419.965454 -608.494934
v -2.920900 938.803833 -104.932640
v -4.723000 940.607666 -110.228638
v -2.883800 1246.255493 -3.917440
v -4.680200 1248.005981 -9.233140
v -2.751600 1494.721313 70.372757
v -4.660000 1496.247437 65.026962
v -2.877500 816.597168 -148.140442
v -4.702500 818.527954 -153.383545
v -4.755200 517.340149 -771.303833
v -2.938900 511.750031 -771.303833
v -4.680600 499.912231 -708.040283
v -2.870300 495.073029 -710.842834
v -2.873000 877.758057 -126.097939
v -4.685600 879.619995 -131.370239
v -4.678500 1186.501953 -29.343740
v -2.851300 1184.770996 -24.032040
v -4.577300 460.917542 -658.031677
v -2.765800 456.775452 -661.788025
v -4.416800 1557.652100 86.360260
v -2.585600 1555.388672 91.466461
v -1.012100 1683.286011 227.377151
v -0.555000 1657.218628 166.213760
v -0.791400 398.581421 -424.784851
v -0.782100 428.623138 -371.419617
v -0.587100 473.313354 -325.830017
v -0.534600 387.869141 -485.768311
v 0.019500 1687.759399 292.695984
v -0.348500 526.360229 -287.419037
v -0.158900 396.397430 -548.834961
v -0.190200 582.283203 -255.363144
v 0.196700 1614.177979 116.548973
v -0.198800 1433.403198 44.768661
v -0.167200 1371.143799 26.942860
v -0.110100 639.807739 -227.947540
v -0.021900 1310.040283 7.589160
v -0.063000 698.776733 -203.200348
v 0.037500 1497.190796 61.622162
v -0.015700 1002.716675 -92.980537
v -0.046000 1064.007690 -72.812737
v -0.007300 758.905518 -179.512939
v -0.002500 1125.733154 -52.728241
v 0.129200 422.844330 -606.570129
v 0.041100 941.722534 -113.485939
v 0.087300 1249.088013 -12.496440
v 0.047400 819.721313 -156.633743
v 0.078400 502.902954 -706.320984
v 0.000000 520.795044 -771.303833
v 0.069900 1187.571777 -32.638641
v 0.071900 880.770874 -134.624435
v 0.180900 463.477539 -655.717651
v 0.329200 1559.051025 83.187363
v 2.317400 1649.546021 171.043564
v 1.930500 1674.507813 229.552963
v 2.172200 421.482330 -365.876038
v 2.141000 390.071625 -421.713440
v 2.403500 378.824951 -485.624329
v 2.392600 467.499634 -318.918243
v 2.921500 1678.778931 292.695984
v 2.634400 521.505432 -279.804321
v 2.794600 387.704742 -551.317749
v 3.044800 1608.393066 123.539963
v 2.776700 578.121643 -247.342636
v 2.738300 1368.510010 35.607361
v 2.828200 1431.078735 53.479858
v 2.850000 1307.235107 16.210859
v 2.845500 636.151611 -219.680344
v 2.893600 695.391113 -194.818939
v 2.902700 1061.198975 -64.218140
v 2.904700 999.866577 -84.390137
v 2.993900 1246.255493 -3.895340
v 2.952900 755.657715 -171.078537
v 2.956800 938.803833 -104.916740
v 2.968100 1122.940430 -44.136040
v 3.083600 415.307251 -611.561462
v 2.938900 511.750031 -771.303833
v 3.007500 495.073029 -710.855530
v 3.000300 816.597168 -148.150146
v 3.125300 1494.721313 70.271873
v 3.004700 877.758057 -126.093727
v 3.026500 1184.770996 -24.044140
v 3.112000 456.775452 -661.795654
v 3.292100 1555.388672 91.449364
v 4.174500 1654.288086 168.108749
v 3.744500 1679.932983 228.201859
v 3.961300 395.331024 -423.604065
v 3.979000 425.895630 -369.312317
v 4.183600 471.092743 -323.211426
v 4.220300 384.414551 -485.693237
v 4.758700 1684.329224 292.695984
v 4.423400 524.505859 -284.531433
v 4.601800 393.077148 -549.761719
v 4.575700 580.693604 -252.312347
v 4.917000 1611.968384 119.266663
v 4.575200 1370.137817 30.266359
v 4.589900 1432.515381 48.059361
v 4.651500 638.411255 -224.797134
v 4.707600 1308.968872 10.910560
v 4.699000 697.483521 -200.006638
v 4.849100 1496.247437 64.863663
v 4.713000 1062.934814 -69.534142
v 4.732400 1001.628052 -89.691643
v 4.756000 757.664917 -176.300446
v 4.764800 1124.666382 -49.459740
v 4.890400 419.965454 -608.465332
v 4.787500 940.607666 -110.202942
v 4.830200 1248.005981 -9.197440
v 4.808000 818.527954 -153.399231
v 4.755200 517.340149 -771.303833
v 4.829900 499.912231 -708.060852
v 4.831900 1186.501953 -29.363340
v 4.824800 879.619995 -131.363434
v 4.933200 460.917542 -658.043884
v 5.093600 1557.652100 86.332657
v 617.997803 2077.488525 418.293579
v 617.997803 2077.488525 458.293579
v 629.997803 2077.488525 430.293579
v 629.997803 2077.488525 446.293579
v 617.997803 2057.488525 418.293579
v 617.997803 2057.488525 458.293579
v 577.997803 2057.488525 418.293579
v 577.997803 2057.488525 458.293579
v 629.997803 2057.488525 430.293579
v 629.997803 2057.488525 446.293579
v 557.997803 2057.488525 418.293549
v 557.997803 2057.488525 493.293579
v 497.997925 2057.488525 418.293579
v 497.997925 2057.488525 493.293579
v 557.997803 2057.488525 568.293579
v 497.997925 2057.488525 568.293579
v 557.997803 2057.488525 643.293457
v 497.997925 2057.488525 643.293457
v 557.997803 2057.488525 718.293457
v 497.997925 2057.488525 718.293457
v -539.155151 2057.487793 419.019287
v -539.155151 2057.487793 494.019287
v -599.155029 2057.487793 419.019287
v -599.155029 2057.487793 494.019287
v -539.155151 2057.487793 569.019287
v -599.155029 2057.487793 569.019287
v -539.155151 2057.487793 644.019165
v -599.155029 2057.487793 644.019165
v -539.155151 2057.487793 719.019165
v -599.155029 2057.487793 719.019226
v -479.155121 2007.487549 419.019287
v -479.155121 2007.487549 459.019287
v -467.155121 2007.487671 431.019287
v -467.155121 2007.487671 447.019287
v -479.155121 1987.487549 419.019287
v -479.155121 1987.487549 459.019287
v -519.155151 1987.487549 419.019287
v -519.155151 1987.487549 459.019287
v -467.155121 1987.487671 431.019287
v -467.155121 1987.487671 447.019287
v 19.999920 1667.795288 311.696075
v 19.999920 1667.795288 386.696075
v -39.999981 1667.795288 311.696075
v -39.999981 1667.795288 386.696075
v 19.999920 1667.795288 461.696075
v -39.999981 1667.795288 461.696075
v 19.999920 1667.795288 536.695984
v -39.999981 1667.795288 536.695984
v 19.999920 1667.795288 611.695984
v -39.999981 1667.795288 611.695984
v 577.997803 2077.488525 418.293579
v 577.997803 2077.488525 458.293579
v 497.997925 2077.488525 418.293579
v 497.997925 2077.488525 493.293579
v 497.997925 2077.488525 568.293579
v 497.997925 2077.488525 643.293457
v 497.997925 2077.488525 718.293457
v 557.997803 2077.488525 418.293579
v 557.997803 2077.488525 718.293457
v 577.997803 2077.488525 718.293457
v 577.997803 2057.488525 718.293457
v 577.997803 2077.488525 493.293579
v 577.997803 2057.488525 493.293579
v 577.997803 2077.488525 568.293396
v 577.997803 2057.488525 568.293396
v 577.997803 2077.488525 643.293457
v 577.997803 2057.488525 643.293457
v -599.155029 2077.487793 419.019287
v -599.155029 2077.487793 494.019287
v -599.155029 2077.487793 569.019287
v -599.155029 2077.487793 644.019165
v -599.155029 2077.487793 719.019226
v -539.155151 2077.487793 419.019287
v -539.155151 2077.487793 719.019165
v -519.155151 2057.487793 419.019287
v -519.155151 2077.487793 419.019287
v -519.155151 2077.487793 719.019226
v -519.155151 2057.487793 719.019165
v -519.155151 2077.487793 494.019287
v -519.155151 2057.487793 494.019287
v -519.155151 2077.487793 569.019104
v -519.155151 2057.487793 569.019104
v -519.155151 2077.487793 644.019165
v -519.155151 2057.487793 644.019165
v -519.155151 2007.487549 459.019287
v -519.155151 2007.487549 419.019287
v -39.999981 1687.795166 386.696075
v -39.999981 1687.795166 461.696075
v -39.999981 1687.795166 536.695984
v -39.999981 1687.795288 611.695984
v -39.999981 1687.795288 311.696075
v 19.999920 1687.795166 311.696075
v 19.999920 1687.795166 611.695984
v 39.999920 1667.795288 311.696075
v 39.999920 1687.795288 311.696075
v 39.999920 1687.795288 611.695984
v 39.999920 1667.795288 611.695984
v 39.999920 1687.795166 461.695862
v 39.999920 1667.795288 461.695862
v 39.999920 1687.795166 386.696075
v 39.999920 1667.795288 386.696075
v 39.999920 1687.795166 536.695984
v 39.999920 1667.795288 536.695984
v -41.134769 1693.294922 380.695923
v -41.134769 1693.294922 318.695923
v -42.000488 1691.794922 380.695923
v -42.000488 1691.794922 318.695923
v -41.134769 1693.294922 454.695923
v -41.134769 1693.294922 392.695923
v -42.000488 1691.794922 454.695923
v -42.000488 1691.794922 392.695923
v -41.134769 1693.294922 528.695923
v -41.134769 1693.294922 466.695923
v -42.000488 1691.794922 528.695923
v -42.000488 1691.794922 466.695923
v -41.134769 1693.294922 601.696045
v -41.134769 1693.294922 540.695923
v -42.000488 1691.794922 601.696045
v -42.000488 1691.794922 540.695923
v -40.268551 1691.794922 380.695923
v -40.268551 1691.794922 318.695923
v -40.268551 1691.794922 454.695923
v -40.268551 1691.794922 392.695923
v -40.268551 1691.794922 528.695923
v -40.268551 1691.794922 466.695923
v -40.268551 1691.794922 601.696045
v -40.268551 1691.794922 540.695923
v 557.997803 2077.488525 493.293579
v 557.997803 2077.488525 568.293396
v 557.997803 2077.488525 643.293457
v -539.155151 2077.487793 494.019287
v -539.155151 2077.487793 569.019104
v -539.155151 2077.487793 644.019165
v 19.999920 1687.795166 386.696075
v 19.999920 1687.795166 461.695862
v 19.999920 1687.795166 536.695984
v 557.997803 1877.488647 493.293579
v 557.997803 1977.488647 493.293579
v 557.997803 1877.488647 418.293579
v 557.997803 1977.488647 418.293579
v 557.997803 1877.488647 568.293579
v 557.997803 1977.488647 568.293579
v 557.997803 1877.488647 643.293457
v 557.997803 1977.488647 643.293457
v 557.997803 1877.488647 718.293457
v 557.997803 1977.488647 718.293457
v 577.997803 1877.488647 493.293579
v 577.997803 1877.488647 418.293579
v 577.997803 1977.488647 493.293579
v 577.997803 1977.488647 418.293579
v 577.997803 1977.488647 568.293579
v 577.997803 1877.488647 568.293579
v 577.997803 1977.488647 643.293457
v 577.997803 1877.488647 643.293457
v 577.997803 1877.488647 718.293457
v 577.997803 1977.488647 718.293457
v -539.155151 1877.487915 494.019287
v -539.155151 1977.487915 494.019287
v -539.155151 1877.487915 419.019287
v -539.155151 1977.487915 419.019287
v -539.155151 1877.487915 569.019287
v -539.155151 1977.487915 569.019287
v -539.155151 1877.487915 644.019165
v -539.155151 1977.487915 644.019165
v -539.155151 1877.487915 719.019226
v -539.155151 1977.487915 719.019165
v -519.155151 1877.487915 494.019287
v -519.155151 1877.487915 419.019287
v -519.155151 1977.487915 494.019287
v -519.155151 1977.487915 419.019287
v -519.155151 1977.487915 569.019287
v -519.155151 1877.487915 569.019287
v -519.155151 1977.487915 644.019165
v -519.155151 1877.487915 644.019165
v -519.155151 1877.487915 719.019226
v -519.155151 1977.487915 719.019165
v 19.999920 1487.795288 386.696075
v 19.999920 1587.795288 386.696075
v 19.999920 1487.795288 311.696075
v 19.999920 1587.795288 311.696075
v 19.999920 1487.795288 461.696075
v 19.999920 1587.795288 461.696075
v 19.999920 1487.795288 536.695984
v 19.999920 1587.795288 536.695984
v 19.999920 1487.795288 611.695984
v 19.999920 1587.795288 611.695984
v 39.999920 1487.795288 386.696075
v 39.999920 1487.795288 311.696075
v 39.999920 1587.795288 386.696075
v 39.999920 1587.795288 311.696075
v 39.999920 1587.795288 461.696075
v 39.999920 1487.795288 461.696075
v 39.999920 1587.795288 536.695984
v 39.999920 1487.795288 536.695984
v 39.999920 1487.795288 611.695984
v 39.999920 1587.795288 611.695984
v -42.000488 1681.794922 313.695923
v -42.000488 1681.794922 318.695923
v -42.000488 1693.794922 313.695923
v -42.000488 1693.794922 318.695923
v -42.000488 1681.794922 380.695923
v -42.000488 1681.794922 385.695923
v -42.000488 1693.794922 380.695923
v -42.000488 1693.794922 385.695923
v -42.000488 1681.794922 387.695923
v -42.000488 1681.794922 392.695923
v -42.000488 1693.794922 387.695923
v -42.000488 1693.794922 392.695923
v -42.000488 1681.794922 454.695923
v -42.000488 1681.794922 459.695923
v -42.000488 1693.794922 454.695923
v -42.000488 1693.794922 459.695923
v -42.000488 1681.794922 461.695923
v -42.000488 1681.794922 466.695923
v -42.000488 1693.794922 461.695923
v -42.000488 1693.794922 466.695923
v -42.000488 1681.794922 528.695923
v -42.000488 1681.794922 533.695923
v -42.000488 1693.794922 528.695923
v -42.000488 1693.794922 533.695923
v -42.000488 1681.794922 535.695923
v -42.000488 1681.794922 540.695923
v -42.000488 1693.794922 535.695923
v -42.000488 1693.794922 540.695923
v -42.000488 1681.794922 601.696045
v -42.000488 1681.794922 606.696045
v -42.000488 1693.794922 601.696045
v -42.000488 1693.794922 606.696045
v -40.000000 1681.794922 318.695923
v -40.000000 1681.794922 313.695923
v -40.000000 1693.794922 318.695923
v -40.000000 1693.794922 313.695923
v -40.000000 1681.794922 385.695923
v -40.000000 1681.794922 380.695923
v -40.000000 1693.794922 385.695923
v -40.000000 1693.794922 380.695923
v -40.000000 1681.794922 392.695923
v -40.000000 1681.794922 387.695923
v -40.000000 1693.794922 392.695923
v -40.000000 1693.794922 387.695923
v -40.000000 1681.794922 459.695923
v -40.000000 1681.794922 454.695923
v -40.000000 1693.794922 459.695923
v -40.000000 1693.794922 454.695923
v -40.000000 1681.794922 466.695923
v -40.000000 1681.794922 461.695923
v -40.000000 1693.794922 466.695923
v -40.000000 1693.794922 461.695923
v -40.000000 1681.794922 533.695923
v -40.000000 1681.794922 528.695923
v -40.000000 1693.794922 533.695923
v -40.000000 1693.794922 528.695923
v -40.000000 1681.794922 540.695923
v -40.000000 1681.794922 535.695923
v -40.000000 1693.794922 540.695923
v -40.000000 1693.794922 535.695923
v -40.000000 1681.794922 606.696045
v -40.000000 1681.794922 601.696045
v -40.000000 1693.794922 606.696045
v -40.000000 1693.794922 601.696045
# 797 vertices

vt 0.91750 0.38410
vt 0.49990 0.99990
vt 0.08240 0.38410
vt 0.50000 0.99990
vt 0.00000 -1.00000
vt 0.49710 -0.00010
vt 0.00000 -0.00010
vt 0.49710 -0.60010
vt 0.99800 -0.99810
vt 0.00190 -0.59650
vt 0.00190 -0.99810
vt 0.99800 -0.59650
vt 0.00190 -0.00200
vt 0.99800 -0.00200
vt 7.40600 0.24430
vt -6.19420 0.49960
vt -6.19420 0.24430
vt -6.19420 -0.01080
vt 1.80210 -0.16880
vt 0.74620 -0.41590
vt 0.74620 -0.16880
vt 1.80210 -0.29830
vt 0.11160 -0.98240
vt 0.11160 -0.16880
vt 0.39590 -1.64700
vt 0.00000 -1.74520
vt 0.39590 -1.74520
vt 0.00000 -1.64700
vt 0.00000 -1.54210
vt 0.39590 -1.54210
vt 0.00000 -0.99950
vt 0.39590 -0.99950
vt 0.39590 -0.74360
vt 0.00000 -0.74360
vt 0.83010 -0.74360
vt 0.83010 -1.64700
vt 1.99990 -0.74360
vt 1.61400 -1.64700
vt 1.99990 -1.64700
vt 1.61400 -0.74360
vt 1.61400 -1.74520
vt 1.99990 -1.74520
vt 0.83010 -1.74520
vt 1.61400 -1.54210
vt 1.99990 -1.54210
vt 0.83010 -1.54210
vt 1.61400 -0.99950
vt 1.99990 -0.99950
vt 0.83010 -0.99950
vt 1.23800 -1.64700
vt 1.23800 -0.74360
vt 1.23800 -1.74520
vt 1.23800 -1.54210
vt 1.23800 -0.99950
vt 1.23800 -1.54220
vt 0.83010 -1.54220
vt 1.61400 -1.54220
vt 1.99990 -1.54220
vt 0.39590 -1.54220
vt 0.00000 -1.54220
vt 1.49900 -1.75010
vt 1.09940 -1.00200
vt 1.49900 -1.00200
vt 1.09940 -1.75010
vt 0.69980 -1.00200
vt 0.69980 -1.75010
vt -0.09940 -1.75010
vt -0.49900 -1.00200
vt -0.09940 -1.00200
vt -0.49900 -1.75010
vt 0.30010 -1.75010
vt 0.30010 -1.00200
vt 1.09600 -1.00200
vt 1.49330 -1.14100
vt 1.09600 -1.14100
vt 1.49330 -1.00200
vt -0.49330 -1.00200
vt -0.09600 -1.14100
vt -0.49330 -1.14100
vt -0.09600 -1.00200
vt 0.69860 -1.00200
vt 0.69860 -1.14100
vt 0.30130 -1.00200
vt 0.30130 -1.14100
vt 0.74900 -0.12550
vt 0.99800 0.99800
vt 0.74900 0.99800
vt 0.99800 -0.12550
vt 0.49990 -0.12550
vt 0.49990 0.99800
vt 0.25090 -0.12550
vt 0.25090 0.99800
vt 0.00190 -0.12550
vt 0.00190 0.99800
vt -0.22530 0.52740
vt -0.22530 0.78560
vt -0.04270 0.71000
vt 0.03280 0.52740
vt -0.04270 0.34490
vt -0.22530 0.26920
vt 0.00190 2.44830
vt 0.99800 -1.68470
vt 0.99800 2.44830
vt 0.00190 -1.68470
vt 0.00190 -2.74990
vt 0.99800 0.67620
vt 0.99800 -2.74990
vt 0.00190 0.67620
vt 0.00190 1.74990
vt 0.99800 1.74990
vt 0.00190 -3.44830
vt 0.99800 -3.44830
vt 0.99800 0.00190
vt 0.00190 0.00190
vt 1.99260 -1.00010
vt 1.59490 -1.99810
vt 1.59490 -1.00010
vt 1.99260 -1.99810
vt 0.40190 -1.99810
vt 0.00430 -1.00010
vt 0.40190 -1.00010
vt 0.00430 -1.99810
vt 1.19720 -1.99810
vt 1.19720 -1.00010
vt 0.79960 -1.00010
vt 0.79960 -1.99810
vt 0.00330 -0.36850
vt -0.24440 -0.09880
vt -0.49220 -0.09880
vt 0.25110 -0.09880
vt 0.49890 -0.09880
vt -0.49220 0.78890
vt -0.98780 0.78890
vt 0.49890 0.78890
vt 0.99450 0.78890
vt 0.49930 0.86050
vt 0.49930 0.50030
vt 0.18740 0.68040
vt 0.81130 0.68040
vt 0.18740 0.32020
vt 0.81130 0.32020
vt 0.49930 0.14010
vt 0.50050 0.88010
vt 0.50050 0.50250
vt 0.17350 0.69130
vt 0.82750 0.69130
vt 0.17350 0.31370
vt 0.82750 0.31370
vt 0.50050 0.12490
vt 0.49750 0.86990
vt 0.49750 0.50100
vt 0.17790 0.68540
vt 0.81700 0.68540
vt 0.17790 0.31650
vt 0.81700 0.31650
vt 0.49750 0.13200
vt 0.49890 0.50020
vt 0.17380 0.50020
vt 0.26900 0.73010
vt 0.26900 0.27030
vt 0.49890 0.82530
vt 0.49890 0.17510
vt 0.72880 0.73010
vt 0.72880 0.27030
vt 0.82400 0.50020
vt 0.87320 0.51040
vt 1.37120 0.13540
vt 0.87320 0.13540
vt 1.37120 0.51040
vt -0.08450 0.51040
vt -0.08450 0.13540
vt 0.00340 0.85940
vt 0.50230 0.49990
vt 0.50230 0.85940
vt 0.00340 0.49990
vt 1.43670 0.85940
vt 1.43670 0.49990
vt -1.00270 0.00000
vt -0.31960 0.63030
vt -1.00270 0.63030
vt -0.31970 0.00000
vt 1.27620 0.00000
vt 2.00270 0.63030
vt 1.27620 0.63030
vt 2.00270 0.00000
vt -0.25720 -0.80010
vt 0.47890 -0.60010
vt 0.47890 -0.80010
vt -0.25720 -0.60010
vt 16.67580 -0.80010
vt 15.93950 -0.60010
vt 16.67580 -0.60010
vt 15.93950 -0.80010
vt 17.41200 -0.60010
vt 17.41200 -0.80010
vt 15.20330 -0.60010
vt 15.20330 -0.80010
vt -0.99340 -0.80010
vt -0.99340 -0.60010
vt 14.46710 -0.80010
vt 14.46710 -0.60010
vt 18.14820 -0.80010
vt 18.14820 -0.60010
vt 13.73090 -0.60010
vt 13.73090 -0.80010
vt 1.21520 -0.80010
vt 1.21520 -0.60010
vt 4.16000 -0.60010
vt 3.42380 -0.80010
vt 3.42380 -0.60010
vt 4.16000 -0.80010
vt 12.99470 -0.60010
vt 12.99470 -0.80010
vt 4.89630 -0.60010
vt 4.89630 -0.80010
vt 12.25840 -0.60010
vt 12.25840 -0.80010
vt 8.57730 -0.80010
vt 7.84110 -0.60010
vt 8.57730 -0.60010
vt 7.84110 -0.80010
vt 11.52220 -0.60010
vt 11.52220 -0.80010
vt 7.10490 -0.60010
vt 7.10490 -0.80010
vt 18.88440 -0.80010
vt 18.88440 -0.60010
vt 9.31360 -0.80010
vt 9.31360 -0.60010
vt 5.63250 -0.80010
vt 5.63250 -0.60010
vt 2.68760 -0.60010
vt 2.68760 -0.80010
vt 10.78600 -0.60010
vt 10.78600 -0.80010
vt 20.35690 -0.80010
vt 21.54810 -0.60010
vt 21.54810 -0.80010
vt 20.35690 -0.60010
vt 10.04980 -0.80010
vt 10.04980 -0.60010
vt 6.36870 -0.80010
vt 6.36870 -0.60010
vt 19.62060 -0.80010
vt 19.62060 -0.60010
vt 1.95140 -0.80010
vt 1.95140 -0.60010
vt 0.47890 -1.00000
vt -0.25720 -1.00000
vt 16.67580 -1.00000
vt 15.93950 -1.00000
vt 15.20330 -1.00000
vt 17.41200 -1.00000
vt -0.99340 -1.00000
vt 14.46710 -1.00000
vt 18.14820 -1.00000
vt 13.73090 -1.00000
vt 1.21520 -1.00000
vt 3.42380 -1.00000
vt 4.16000 -1.00000
vt 12.99470 -1.00000
vt 4.89630 -1.00000
vt 12.25840 -1.00000
vt 2.68760 -1.00000
vt 8.57730 -1.00000
vt 7.84110 -1.00000
vt 11.52220 -1.00000
vt 7.10490 -1.00000
vt 18.88440 -1.00000
vt 9.31360 -1.00000
vt 5.63250 -1.00000
vt 10.78600 -1.00000
vt 21.54810 -1.00000
vt 20.35690 -1.00000
vt 6.36870 -1.00000
vt 10.04980 -1.00000
vt 19.62060 -1.00000
vt 1.95140 -1.00000
vt 0.47890 -0.40000
vt -0.25720 -0.40000
vt 15.93950 -0.40000
vt 16.67580 -0.40000
vt 17.41200 -0.40000
vt 15.20330 -0.40000
vt -0.99340 -0.40000
vt 14.46710 -0.40000
vt 18.14820 -0.40000
vt 1.21520 -0.40000
vt 13.73090 -0.40000
vt 4.16000 -0.40000
vt 3.42380 -0.40000
vt 4.89630 -0.40000
vt 12.99470 -0.40000
vt 12.25840 -0.40000
vt 7.84110 -0.40000
vt 8.57730 -0.40000
vt 5.63250 -0.40000
vt 11.52220 -0.40000
vt 9.31360 -0.40000
vt 7.10490 -0.40000
vt 18.88440 -0.40000
vt 21.54810 -0.40000
vt 20.35690 -0.40000
vt 10.78600 -0.40000
vt 2.68760 -0.40000
vt 10.04980 -0.40000
vt 6.36870 -0.40000
vt 19.62060 -0.40000
vt 1.95140 -0.40000
vt 0.47890 -0.20000
vt -0.25720 -0.00010
vt 0.47890 -0.00010
vt -0.25720 -0.20000
vt 15.93950 -0.20000
vt 16.67580 -0.00010
vt 16.67580 -0.20000
vt 15.93950 -0.00010
vt 15.20330 -0.20000
vt 15.20330 -0.00010
vt 17.41200 -0.20000
vt 17.41200 -0.00010
vt -0.99340 -0.00010
vt -0.99340 -0.20000
vt 14.46710 -0.20000
vt 14.46710 -0.00010
vt 18.14820 -0.00010
vt 18.14820 -0.20000
vt 13.73090 -0.00010
vt 13.73090 -0.20000
vt 1.21520 -0.20000
vt 1.21520 -0.00010
vt 3.42380 -0.20000
vt 4.16000 -0.00010
vt 4.16000 -0.20000
vt 3.42380 -0.00010
vt 12.99470 -0.00010
vt 12.99470 -0.20000
vt 4.89630 -0.00010
vt 4.89630 -0.20000
vt 12.25840 -0.00010
vt 12.25840 -0.20000
vt 2.68760 -0.20000
vt 2.68760 -0.00010
vt 7.84110 -0.00010
vt 8.57730 -0.20000
vt 7.84110 -0.20000
vt 8.57730 -0.00010
vt 11.52220 -0.20000
vt 11.52220 -0.00010
vt 7.10490 -0.00010
vt 7.10490 -0.20000
vt 18.88440 -0.20000
vt 18.88440 -0.00010
vt 9.31360 -0.20000
vt 9.31360 -0.00010
vt 5.63250 -0.20000
vt 5.63250 -0.00010
vt 10.78600 -0.00010
vt 10.78600 -0.20000
vt 21.54810 -0.20000
vt 20.35690 -0.00010
vt 21.54810 -0.00010
vt 20.35690 -0.20000
vt 6.36870 -0.00010
vt 6.36870 -0.20000
vt 10.04980 -0.00010
vt 10.04980 -0.20000
vt 19.62060 -0.00010
vt 19.62060 -0.20000
vt 1.95140 -0.00010
vt 1.95140 -0.20000
vt 0.26200 -0.80460
vt -0.00010 -0.18610
vt 0.26200 -0.18610
vt -0.00010 -0.80460
vt 0.07880 11.25930
vt 0.77600 10.97560
vt -0.21990 10.97560
vt 0.47720 11.25930
vt 10.86520 -0.05110
vt 10.11770 0.59640
vt 10.86520 0.59640
vt 10.11770 -0.05110
vt 10.64090 0.83320
vt 10.34190 0.83320
vt -0.50910 -0.80740
vt -0.00780 -0.16980
vt -0.50910 -0.16980
vt -0.00780 -0.80740
vt 0.49340 -0.16980
vt 0.49340 -0.80740
vt 0.99480 -0.16980
vt 0.99480 -0.80740
vt 1.49610 -0.16980
vt 1.49610 -0.80740
vt 3.49760 11.99800
vt 2.23400 11.00190
vt 2.23400 11.99800
vt 3.49760 11.00190
vt 0.71510 11.99800
vt -0.43350 11.00190
vt -0.43350 11.99800
vt 0.71510 11.00190
vt 1.66460 11.00190
vt 1.66460 11.99800
vt 1.17310 11.99800
vt 1.17310 11.00190
vt -0.99990 -0.00200
vt 0.99990 -0.99810
vt -0.99990 -0.99810
vt 0.99990 -0.00200
vt 2.49210 -0.99810
vt 2.49210 -0.00200
vt 4.19070 -0.99810
vt 4.19070 -0.00200
vt 6.00550 -0.99810
vt 6.00550 -0.00200
vt 0.13730 -1.00000
vt 1.99990 0.00000
vt 1.99990 -1.00000
vt 0.13730 0.00000
vt 8.00680 -0.99810
vt 8.00680 -0.00200
vt -0.51430 -1.00000
vt -0.51430 0.00000
vt 8.75140 -0.00200
vt 8.75140 -0.99810
vt 15.50560 -0.00200
vt 13.74890 -0.99810
vt 13.74890 -0.00200
vt 15.50560 -0.99810
vt 12.23690 -0.99810
vt 12.23690 -0.00200
vt 10.75270 -0.99810
vt 10.75270 -0.00200
vt 7.18350 -0.84510
vt 12.39590 -0.15490
vt 7.18350 -0.15490
vt 12.39590 -0.84510
vt 0.96230 -0.84510
vt 6.17470 -0.15490
vt 0.96230 -0.15490
vt 6.17470 -0.84510
vt -5.25880 -0.84510
vt -0.04640 -0.15490
vt -5.25880 -0.15490
vt -0.04640 -0.84510
vt -11.39590 -0.84510
vt -6.26760 -0.15490
vt -11.39590 -0.15490
vt -6.26760 -0.84510
vt -6.02250 -0.83490
vt -11.10920 -0.16520
vt -6.02250 -0.16520
vt -11.10920 -0.83490
vt 0.04870 -0.83490
vt -5.03790 -0.16520
vt 0.04870 -0.16520
vt -5.03790 -0.83490
vt 6.12000 -0.83490
vt 1.03320 -0.16520
vt 6.12000 -0.16520
vt 1.03320 -0.83490
vt 12.10920 -0.83490
vt 7.10450 -0.16520
vt 12.10920 -0.16520
vt 7.10450 -0.83490
vt 3.82370 9.08630
vt 2.72490 7.91700
vt 3.82370 7.91700
vt 2.72490 9.08630
vt 0.00000 1.99620
vt 1.00000 0.74810
vt 0.00000 0.74810
vt 1.00000 1.99620
vt 0.00000 -0.50000
vt 1.00000 -0.50000
vt 0.00000 -1.74810
vt 1.00000 -1.74810
vt 0.00000 -2.99620
vt 1.00000 -2.99620
vt 1.25010 0.00000
vt 2.00020 -0.50000
vt 1.25010 -0.50000
vt 2.00020 0.00000
vt 0.50000 -0.50010
vt 0.50000 0.00000
vt -0.25010 -0.50010
vt -0.25010 0.00000
vt -1.00020 -0.50010
vt -1.00020 0.00000
vt 1.20070 -0.99240
vt 0.68220 0.10610
vt 0.68220 -0.99240
vt 1.20070 0.10610
vt 0.13580 -0.99240
vt 0.13580 0.10610
vt -0.42930 -0.99240
vt -0.42930 0.10610
vt -0.94770 0.10610
vt -0.94770 -0.99240
vt 0.68220 0.99490
vt 1.20070 0.99490
vt 0.13580 0.99490
vt -0.42930 0.99490
vt -0.94770 0.99490
vt 1.49450 0.10610
vt 2.05010 -0.99240
vt 1.49450 -0.99240
vt 2.05010 0.10610
vt 0.93890 -0.99240
vt 0.93890 0.10610
vt 0.38330 -0.99240
vt 0.38330 0.10610
vt -0.17220 -0.99240
vt -0.17220 0.10610
vt 2.05010 0.99490
vt 1.49450 0.99490
vt 0.93890 0.99490
vt 0.38330 0.99490
vt -0.17220 0.99490
vt -0.74620 -0.26650
vt -0.06170 -0.00010
vt -0.06170 -0.26650
vt -0.74620 -0.00010
vt 0.62260 -0.00010
vt 0.62260 -0.26650
vt 1.30700 -0.00010
vt 1.30700 -0.26650
vt 1.99140 -0.26650
vt 1.99140 -0.00010
vt -0.05520 -0.99140
vt -0.28750 0.10460
vt -0.28750 -0.99140
vt -0.05520 0.10460
vt 0.05290 0.10460
vt 0.34130 -0.99140
vt 0.05290 -0.99140
vt 0.34130 0.10460
vt -0.28750 0.99150
vt -0.05520 0.99150
vt 0.34130 0.99150
vt 0.05290 0.99150
vt 0.54240 -0.06380
vt 1.16740 -0.35400
vt 1.16740 -0.06380
vt 0.54240 -0.35400
vt 1.04900 -0.09640
vt 0.44550 -0.32140
vt 0.44550 -0.09640
vt 1.04900 -0.32140
vt -6.40310 -0.02210
vt -6.16750 -0.06740
vt -6.16750 -0.02210
vt -6.40310 -0.06740
vt -3.24600 -0.02210
vt -3.01040 -0.06740
vt -3.01040 -0.02210
vt -3.24600 -0.06740
vt -2.91620 -0.02210
vt -2.68060 -0.06740
vt -2.68060 -0.02210
vt -2.91620 -0.06740
vt 0.24080 -0.02210
vt 0.47640 -0.06740
vt 0.47640 -0.02210
vt 0.24080 -0.06740
vt 0.57060 -0.02210
vt 0.80620 -0.06740
vt 0.80620 -0.02210
vt 0.57060 -0.06740
vt 3.72770 -0.02210
vt 3.96330 -0.06740
vt 3.96330 -0.02210
vt 3.72770 -0.06740
vt 4.05760 -0.02210
vt 4.29320 -0.06740
vt 4.29320 -0.02210
vt 4.05760 -0.06740
vt 7.16750 -0.02210
vt 7.40310 -0.06740
vt 7.40310 -0.02210
vt 7.16750 -0.06740
vt -3.23190 -0.01830
vt -3.36380 -0.07220
vt -3.36380 -0.01830
vt -3.23190 -0.07220
vt -1.46480 -0.01830
vt -1.59670 -0.07220
vt -1.59670 -0.01830
vt -1.46480 -0.07220
vt -1.28020 -0.01830
vt -1.41210 -0.07220
vt -1.41210 -0.01830
vt -1.28020 -0.07220
vt 0.48680 -0.01830
vt 0.35490 -0.07220
vt 0.35490 -0.01830
vt 0.48680 -0.07220
vt 0.67140 -0.01830
vt 0.53950 -0.07220
vt 0.53950 -0.01830
vt 0.67140 -0.07220
vt 2.43850 -0.01830
vt 2.30660 -0.07220
vt 2.30660 -0.01830
vt 2.43850 -0.07220
vt 2.62310 -0.01830
vt 2.49120 -0.07220
vt 2.49120 -0.01830
vt 2.62310 -0.07220
vt 4.36380 -0.01830
vt 4.23190 -0.07220
vt 4.23190 -0.01830
vt 4.36380 -0.07220
# 615 texture vertices

g Object_2
usemtl texture0
f 1/3 2/2 3/1
f 4/1 2/2 5/3
f 5/3 2/4 1/1
f 3/1 2/4 4/3
f 6/3 7/2 8/1
f 9/1 7/2 10/3
f 10/3 7/4 6/1
f 8/1 7/4 9/3
f 11/7 12/6 13/5
f 12/6 14/8 13/5
f 15/7 16/5 17/6
f 16/5 18/8 17/6
f 13/11 14/10 16/9
f 14/10 18/12 16/9
f 14/10 12/13 18/12
f 12/13 17/14 18/12
f 19/7 20/6 21/5
f 20/6 22/8 21/5
f 23/7 24/5 25/6
f 24/5 26/8 25/6
f 21/11 22/10 24/9
f 22/10 26/12 24/9
f 22/10 20/13 26/12
f 20/13 25/14 26/12
f 27/7 28/6 29/5
f 28/6 30/8 29/5
f 31/7 32/5 33/6
f 32/5 34/8 33/6
f 29/11 30/10 32/9
f 30/10 34/12 32/9
f 30/10 28/13 34/12
f 28/13 33/14 34/12
usemtl texture1
f 35/17 36/16 37/15
f 36/16 38/18 37/15
f 38/18 35/17 37/15
f 39/17 40/16 41/15
f 40/16 42/18 41/15
f 42/18 39/17 41/15
usemtl texture2
f 43/21 44/20 45/19
f 45/19 44/20 46/22
f 47/21 48/19 49/20
f 50/22 49/20 48/19
f 51/24 52/23 43/21
f 44/20 43/21 52/23
f 53/24 47/21 54/23
f 49/20 54/23 47/21
f 55/27 56/26 57/25
f 56/26 58/28 57/25
f 59/30 60/29 55/27
f 60/29 56/26 55/27
f 61/32 62/31 59/30
f 62/31 60/29 59/30
f 57/25 58/28 63/33
f 64/34 63/33 58/28
f 65/36 57/25 66/35
f 63/33 66/35 57/25
f 67/39 68/38 69/37
f 70/40 69/37 68/38
f 71/42 72/41 67/39
f 72/41 68/38 67/39
f 73/43 55/27 65/36
f 55/27 57/25 65/36
f 74/45 75/44 71/42
f 75/44 72/41 71/42
f 76/46 59/30 73/43
f 59/30 55/27 73/43
f 77/48 78/47 74/45
f 78/47 75/44 74/45
f 79/49 61/32 76/46
f 61/32 59/30 76/46
f 68/38 80/50 70/40
f 81/51 70/40 80/50
f 80/50 65/36 81/51
f 66/35 81/51 65/36
f 72/41 82/52 68/38
f 82/52 80/50 68/38
f 82/52 73/43 80/50
f 73/43 65/36 80/50
f 75/44 83/53 72/41
f 83/53 82/52 72/41
f 83/53 76/46 82/52
f 76/46 73/43 82/52
f 78/47 84/54 75/44
f 84/54 83/53 75/44
f 84/54 79/49 83/53
f 79/49 76/46 83/53
f 85/54 86/49 87/55
f 86/49 88/56 87/55
f 89/47 85/54 90/57
f 85/54 87/55 90/57
f 87/55 88/56 91/52
f 88/56 92/43 91/52
f 90/57 87/55 93/41
f 87/55 91/52 93/41
f 91/52 92/43 94/50
f 92/43 95/36 94/50
f 93/41 91/52 96/38
f 91/52 94/50 96/38
f 94/50 95/36 97/51
f 98/35 97/51 95/36
f 96/38 94/50 99/40
f 97/51 99/40 94/50
f 62/48 89/47 60/58
f 89/47 90/57 60/58
f 86/49 100/32 88/56
f 100/32 101/59 88/56
f 60/58 90/57 56/42
f 90/57 93/41 56/42
f 88/56 101/59 92/43
f 101/59 102/27 92/43
f 92/43 102/27 95/36
f 102/27 103/25 95/36
f 56/42 93/41 58/39
f 93/41 96/38 58/39
f 95/36 103/25 98/35
f 104/33 98/35 103/25
f 58/39 96/38 64/37
f 99/40 64/37 96/38
f 100/32 77/31 101/59
f 74/60 101/59 77/31
f 101/59 74/60 102/27
f 71/26 102/27 74/60
f 102/27 71/26 103/25
f 67/28 103/25 71/26
f 67/28 69/34 103/25
f 69/34 104/33 103/25
f 105/63 106/62 107/61
f 108/64 107/61 106/62
f 106/62 109/65 108/64
f 110/66 108/64 109/65
f 111/69 112/68 113/67
f 114/70 113/67 112/68
f 115/72 111/69 116/71
f 113/67 116/71 111/69
f 109/65 115/72 110/66
f 116/71 110/66 115/72
f 117/65 118/72 119/66
f 120/71 119/66 118/72
f 118/72 121/69 120/71
f 122/67 120/71 121/69
f 121/69 105/68 122/67
f 107/70 122/67 105/68
f 123/62 117/65 124/64
f 119/66 124/64 117/65
f 112/63 123/62 114/61
f 123/62 124/64 114/61
f 114/75 124/74 69/73
f 124/74 104/76 69/73
f 108/79 110/78 63/77
f 66/80 63/77 110/78
f 113/82 114/75 70/81
f 69/73 70/81 114/75
f 116/84 113/82 81/83
f 70/81 81/83 113/82
f 110/78 116/84 66/80
f 81/83 66/80 116/84
f 120/82 122/84 97/81
f 99/83 97/81 122/84
f 119/75 120/82 98/73
f 97/81 98/73 120/82
f 124/74 119/75 104/76
f 98/73 104/76 119/75
f 122/84 107/78 99/83
f 64/80 99/83 107/78
f 107/78 108/79 64/80
f 63/77 64/80 108/79
f 125/21 126/20 127/19
f 127/19 126/20 128/22
f 129/21 130/19 131/20
f 132/22 131/20 130/19
f 133/24 134/23 125/21
f 126/20 125/21 134/23
f 135/24 129/21 136/23
f 131/20 136/23 129/21
f 137/30 138/29 139/27
f 138/29 140/26 139/27
f 141/25 142/28 143/33
f 144/34 143/33 142/28
f 139/27 140/26 141/25
f 140/26 142/28 141/25
f 145/32 146/31 137/30
f 146/31 138/29 137/30
f 147/39 148/38 149/37
f 150/40 149/37 148/38
f 151/36 141/25 152/35
f 143/33 152/35 141/25
f 153/42 154/41 147/39
f 154/41 148/38 147/39
f 155/43 139/27 151/36
f 139/27 141/25 151/36
f 156/45 157/44 153/42
f 157/44 154/41 153/42
f 158/46 137/30 155/43
f 137/30 139/27 155/43
f 159/48 160/47 156/45
f 160/47 157/44 156/45
f 161/49 145/32 158/46
f 145/32 137/30 158/46
f 148/38 162/50 150/40
f 163/51 150/40 162/50
f 162/50 151/36 163/51
f 152/35 163/51 151/36
f 154/41 164/52 148/38
f 164/52 162/50 148/38
f 164/52 155/43 162/50
f 155/43 151/36 162/50
f 157/44 165/53 154/41
f 165/53 164/52 154/41
f 165/53 158/46 164/52
f 158/46 155/43 164/52
f 160/47 166/54 157/44
f 166/54 165/53 157/44
f 166/54 161/49 165/53
f 161/49 158/46 165/53
f 167/54 168/49 169/55
f 168/49 170/56 169/55
f 171/47 167/54 172/57
f 167/54 169/55 172/57
f 169/55 170/56 173/52
f 170/56 174/43 173/52
f 172/57 169/55 175/41
f 169/55 173/52 175/41
f 173/52 174/43 176/50
f 174/43 177/36 176/50
f 175/41 173/52 178/38
f 173/52 176/50 178/38
f 176/50 177/36 179/51
f 180/35 179/51 177/36
f 178/38 176/50 181/40
f 179/51 181/40 176/50
f 146/48 171/47 138/58
f 171/47 172/57 138/58
f 168/49 182/32 170/56
f 182/32 183/59 170/56
f 138/58 172/57 140/42
f 172/57 175/41 140/42
f 170/56 183/59 174/43
f 183/59 184/27 174/43
f 174/43 184/27 177/36
f 184/27 185/25 177/36
f 140/42 175/41 142/39
f 175/41 178/38 142/39
f 177/36 185/25 180/35
f 186/33 180/35 185/25
f 142/39 178/38 144/37
f 181/40 144/37 178/38
f 182/32 159/31 183/59
f 156/60 183/59 159/31
f 147/28 149/34 185/25
f 149/34 186/33 185/25
f 183/59 156/60 184/27
f 153/26 184/27 156/60
f 184/27 153/26 185/25
f 147/28 185/25 153/26
f 187/63 188/62 189/61
f 190/64 189/61 188/62
f 191/69 192/68 193/67
f 194/70 193/67 192/68
f 188/62 195/65 190/64
f 196/66 190/64 195/65
f 195/65 197/72 196/66
f 198/71 196/66 197/72
f 197/72 191/69 198/71
f 193/67 198/71 191/69
f 199/72 200/69 201/71
f 202/67 201/71 200/69
f 203/65 199/72 204/66
f 201/71 204/66 199/72
f 200/69 187/68 202/67
f 189/70 202/67 187/68
f 205/62 203/65 206/64
f 204/66 206/64 203/65
f 192/63 205/62 194/61
f 205/62 206/64 194/61
f 194/75 206/74 149/73
f 206/74 186/76 149/73
f 190/79 196/78 143/77
f 152/80 143/77 196/78
f 193/82 194/75 150/81
f 149/73 150/81 194/75
f 196/78 198/84 152/80
f 163/83 152/80 198/84
f 198/84 193/82 163/83
f 150/81 163/83 193/82
f 201/82 202/84 179/81
f 181/83 179/81 202/84
f 204/75 201/82 180/73
f 179/81 180/73 201/82
f 202/84 189/78 181/83
f 144/80 181/83 189/78
f 206/74 204/75 186/76
f 180/73 186/76 204/75
f 189/78 190/79 144/80
f 143/77 144/80 190/79
f 207/21 208/20 209/19
f 209/19 208/20 210/22
f 211/21 212/19 213/20
f 214/22 213/20 212/19
f 215/24 216/23 207/21
f 208/20 207/21 216/23
f 217/24 211/21 218/23
f 213/20 218/23 211/21
f 219/27 220/26 221/25
f 220/26 222/28 221/25
f 221/25 222/28 223/33
f 224/34 223/33 222/28
f 225/30 226/29 219/27
f 226/29 220/26 219/27
f 227/32 228/31 225/30
f 228/31 226/29 225/30
f 229/39 230/38 231/37
f 232/40 231/37 230/38
f 233/36 221/25 234/35
f 223/33 234/35 221/25
f 235/42 236/41 229/39
f 236/41 230/38 229/39
f 237/43 219/27 233/36
f 219/27 221/25 233/36
f 238/45 239/44 235/42
f 239/44 236/41 235/42
f 240/46 225/30 237/43
f 225/30 219/27 237/43
f 241/48 242/47 238/45
f 242/47 239/44 238/45
f 243/49 227/32 240/46
f 227/32 225/30 240/46
f 244/50 233/36 245/51
f 234/35 245/51 233/36
f 230/38 244/50 232/40
f 245/51 232/40 244/50
f 236/41 246/52 230/38
f 246/52 244/50 230/38
f 246/52 237/43 244/50
f 237/43 233/36 244/50
f 239/44 247/53 236/41
f 247/53 246/52 236/41
f 247/53 240/46 246/52
f 240/46 237/43 246/52
f 242/47 248/54 239/44
f 248/54 247/53 239/44
f 248/54 243/49 247/53
f 243/49 240/46 247/53
f 249/54 250/49 251/55
f 250/49 252/56 251/55
f 253/47 249/54 254/57
f 249/54 251/55 254/57
f 254/57 251/55 255/41
f 251/55 256/52 255/41
f 251/55 252/56 256/52
f 252/56 257/43 256/52
f 256/52 257/43 258/50
f 257/43 259/36 258/50
f 255/41 256/52 260/38
f 256/52 258/50 260/38
f 258/50 259/36 261/51
f 262/35 261/51 259/36
f 260/38 258/50 263/40
f 261/51 263/40 258/50
f 228/48 253/47 226/58
f 253/47 254/57 226/58
f 250/49 264/32 252/56
f 264/32 265/59 252/56
f 226/58 254/57 220/42
f 254/57 255/41 220/42
f 252/56 265/59 257/43
f 265/59 266/27 257/43
f 257/43 266/27 259/36
f 266/27 267/25 259/36
f 220/42 255/41 222/39
f 255/41 260/38 222/39
f 259/36 267/25 262/35
f 268/33 262/35 267/25
f 222/39 260/38 224/37
f 263/40 224/37 260/38
f 264/32 241/31 265/59
f 238/60 265/59 241/31
f 265/59 238/60 266/27
f 235/26 266/27 238/60
f 229/28 231/34 267/25
f 231/34 268/33 267/25
f 266/27 235/26 267/25
f 229/28 267/25 235/26
f 269/63 270/62 271/61
f 272/64 271/61 270/62
f 273/69 274/68 275/67
f 276/70 275/67 274/68
f 270/62 277/65 272/64
f 278/66 272/64 277/65
f 279/72 273/69 280/71
f 275/67 280/71 273/69
f 277/65 279/72 278/66
f 280/71 278/66 279/72
f 281/72 282/69 283/71
f 284/67 283/71 282/69
f 285/65 281/72 286/66
f 283/71 286/66 281/72
f 282/69 269/68 284/67
f 271/70 284/67 269/68
f 287/62 285/65 288/64
f 286/66 288/64 285/65
f 274/63 287/62 276/61
f 287/62 288/64 276/61
f 276/75 288/74 231/73
f 288/74 268/76 231/73
f 275/82 276/75 232/81
f 231/73 232/81 276/75
f 272/79 278/78 223/77
f 234/80 223/77 278/78
f 278/78 280/84 234/80
f 245/83 234/80 280/84
f 280/84 275/82 245/83
f 232/81 245/83 275/82
f 283/82 284/84 261/81
f 263/83 261/81 284/84
f 286/75 283/82 262/73
f 261/81 262/73 283/82
f 284/84 271/78 263/83
f 224/80 263/83 271/78
f 288/74 286/75 268/76
f 262/73 268/76 286/75
f 271/78 272/79 224/80
f 223/77 224/80 272/79
f 289/87 290/86 291/85
f 290/86 292/88 291/85
f 293/90 289/87 294/89
f 289/87 291/85 294/89
f 295/92 293/90 296/91
f 293/90 294/89 296/91
f 297/94 295/92 298/93
f 295/92 296/91 298/93
f 290/94 299/92 292/93
f 299/92 300/91 292/93
f 299/92 301/90 300/91
f 301/90 302/89 300/91
f 301/90 303/87 302/89
f 303/87 304/85 302/89
f 303/87 297/86 304/85
f 297/86 298/88 304/85
f 291/97 292/96 305/95
f 294/98 291/97 305/95
f 296/99 294/98 305/95
f 298/100 296/99 305/95
usemtl texture3
f 46/103 44/102 50/101
f 44/102 49/104 50/101
f 48/107 47/106 45/105
f 47/106 43/108 45/105
f 43/108 47/106 51/109
f 47/106 53/110 51/109
f 49/104 44/102 54/111
f 44/102 52/112 54/111
f 130/107 129/106 127/105
f 129/106 125/108 127/105
f 128/103 126/102 132/101
f 126/102 131/104 132/101
f 125/108 129/106 133/109
f 129/106 135/110 133/109
f 131/104 126/102 136/111
f 126/102 134/112 136/111
f 210/103 208/102 214/101
f 208/102 213/104 214/101
f 212/107 211/106 209/105
f 211/106 207/108 209/105
f 213/104 208/102 218/111
f 208/102 216/112 218/111
f 207/108 211/106 215/109
f 211/106 217/110 215/109
f 306/86 307/94 308/113
f 307/94 309/114 308/113
usemtl texture4
f 61/117 106/116 62/115
f 106/116 105/118 62/115
f 78/121 77/120 111/119
f 112/122 111/119 77/120
f 79/124 109/123 61/117
f 109/123 106/116 61/117
f 78/121 111/119 84/125
f 111/119 115/126 84/125
f 84/125 115/126 79/124
f 115/126 109/123 79/124
f 89/121 121/119 85/125
f 121/119 118/126 85/125
f 85/125 118/126 86/124
f 118/126 117/123 86/124
f 62/120 105/122 89/121
f 105/122 121/119 89/121
f 86/124 117/123 100/117
f 117/123 123/116 100/117
f 100/117 123/116 77/115
f 123/116 112/118 77/115
f 145/117 188/116 146/115
f 188/116 187/118 146/115
f 160/121 159/120 191/119
f 192/122 191/119 159/120
f 161/124 195/123 145/117
f 195/123 188/116 145/117
f 160/121 191/119 166/125
f 191/119 197/126 166/125
f 166/125 197/126 161/124
f 197/126 195/123 161/124
f 171/121 200/119 167/125
f 200/119 199/126 167/125
f 167/125 199/126 168/124
f 199/126 203/123 168/124
f 146/120 187/122 171/121
f 187/122 200/119 171/121
f 168/124 203/123 182/117
f 203/123 205/116 182/117
f 182/117 205/116 159/115
f 205/116 192/118 159/115
f 227/117 270/116 228/115
f 270/116 269/118 228/115
f 243/124 277/123 227/117
f 277/123 270/116 227/117
f 242/121 241/120 273/119
f 274/122 273/119 241/120
f 242/121 273/119 248/125
f 273/119 279/126 248/125
f 248/125 279/126 243/124
f 279/126 277/123 243/124
f 253/121 282/119 249/125
f 282/119 281/126 249/125
f 249/125 281/126 250/124
f 281/126 285/123 250/124
f 228/120 269/122 253/121
f 269/122 282/119 253/121
f 250/124 285/123 264/117
f 285/123 287/116 264/117
f 264/117 287/116 241/115
f 287/116 274/118 241/115
usemtl texture5
f 310/129 311/128 312/127
f 311/128 313/130 312/127
f 313/130 314/131 312/127
f 315/133 316/132 310/129
f 311/128 310/129 316/132
f 316/132 317/134 311/128
f 313/130 311/128 317/134
f 317/134 318/135 313/130
f 314/131 313/130 318/135
f 319/128 310/129 312/127
f 320/130 319/128 312/127
f 314/131 320/130 312/127
f 321/132 315/133 319/128
f 310/129 319/128 315/133
f 322/134 321/132 320/130
f 319/128 320/130 321/132
f 318/135 322/134 314/131
f 320/130 314/131 322/134
f 323/133 324/132 325/129
f 326/128 325/129 324/132
f 324/132 327/134 326/128
f 328/130 326/128 327/134
f 327/134 329/135 328/130
f 330/131 328/130 329/135
f 325/129 326/128 331/127
f 326/128 328/130 331/127
f 328/130 330/131 331/127
f 332/132 323/133 333/128
f 325/129 333/128 323/133
f 334/134 332/132 335/130
f 333/128 335/130 332/132
f 329/135 334/134 330/131
f 335/130 330/131 334/134
f 333/128 325/129 331/127
f 335/130 333/128 331/127
f 330/131 335/130 331/127
f 336/129 337/128 338/127
f 337/128 339/130 338/127
f 339/130 340/131 338/127
f 341/133 342/132 336/129
f 337/128 336/129 342/132
f 342/132 343/134 337/128
f 339/130 337/128 343/134
f 343/134 344/135 339/130
f 340/131 339/130 344/135
f 345/128 336/129 338/127
f 346/130 345/128 338/127
f 340/131 346/130 338/127
f 347/132 341/133 345/128
f 336/129 345/128 341/133
f 348/134 347/132 346/130
f 345/128 346/130 347/132
f 344/135 348/134 340/131
f 346/130 340/131 348/134
usemtl texture6
f 349/138 350/137 351/136
f 351/136 350/137 352/139
f 353/140 350/137 349/138
f 352/139 350/137 354/141
f 355/142 350/137 353/140
f 354/141 350/137 355/142
f 356/145 357/144 358/143
f 358/143 357/144 359/146
f 360/147 357/144 356/145
f 359/146 357/144 361/148
f 362/149 357/144 360/147
f 361/148 357/144 362/149
f 363/152 364/151 365/150
f 365/150 364/151 366/153
f 367/154 364/151 363/152
f 366/153 364/151 368/155
f 369/156 364/151 367/154
f 368/155 364/151 369/156
f 299/159 290/158 370/157
f 290/158 289/160 370/157
f 301/161 299/159 370/157
f 289/160 293/162 370/157
f 303/163 301/161 370/157
f 293/162 295/164 370/157
f 297/165 303/163 370/157
f 295/164 297/165 370/157
usemtl texture7
f 371/168 372/167 308/166
f 372/167 306/169 308/166
f 373/171 371/168 374/170
f 371/168 308/166 374/170
f 375/174 309/173 376/172
f 309/173 307/175 376/172
f 377/177 309/173 378/176
f 309/173 375/174 378/176
usemtl texture8
f 373/180 374/179 379/178
f 374/179 380/181 379/178
f 377/184 378/183 381/182
f 378/183 382/185 381/182
usemtl texture9
f 383/188 384/187 385/186
f 384/187 386/189 385/186
f 387/192 388/191 389/190
f 389/190 388/191 390/193
f 387/192 389/190 391/194
f 391/194 389/190 392/195
f 388/191 393/196 390/193
f 393/196 394/197 390/193
f 385/186 386/189 395/198
f 386/189 396/199 395/198
f 397/201 398/200 393/196
f 394/197 393/196 398/200
f 399/203 391/194 400/202
f 400/202 391/194 392/195
f 397/201 401/204 398/200
f 401/204 402/205 398/200
f 383/188 403/206 384/187
f 403/206 404/207 384/187
f 405/210 406/209 407/208
f 408/211 407/208 406/209
f 401/204 409/212 402/205
f 402/205 409/212 410/213
f 407/208 408/211 411/214
f 411/214 408/211 412/215
f 409/212 413/216 410/213
f 413/216 414/217 410/213
f 415/220 416/219 417/218
f 417/218 416/219 418/221
f 413/216 419/222 414/217
f 414/217 419/222 420/223
f 416/219 421/224 418/221
f 421/224 422/225 418/221
f 423/227 399/203 424/226
f 399/203 400/202 424/226
f 425/229 415/220 426/228
f 415/220 417/218 426/228
f 427/231 411/214 428/230
f 428/230 411/214 412/215
f 405/210 429/232 406/209
f 429/232 430/233 406/209
f 419/222 431/234 420/223
f 431/234 432/235 420/223
f 433/238 434/237 435/236
f 434/237 436/239 435/236
f 437/241 425/229 438/240
f 438/240 425/229 426/228
f 422/225 421/224 439/242
f 421/224 440/243 439/242
f 431/234 437/241 432/235
f 432/235 437/241 438/240
f 428/230 439/242 427/231
f 440/243 427/231 439/242
f 435/236 436/239 441/244
f 436/239 442/245 441/244
f 423/227 424/226 442/245
f 441/244 442/245 424/226
f 403/206 443/246 404/207
f 444/247 404/207 443/246
f 443/246 430/233 444/247
f 430/233 429/232 444/247
f 445/249 446/248 385/186
f 446/248 383/188 385/186
f 389/190 390/193 447/250
f 448/251 447/250 390/193
f 390/193 394/197 448/251
f 449/252 448/251 394/197
f 392/195 389/190 450/253
f 447/250 450/253 389/190
f 445/249 385/186 451/254
f 451/254 385/186 395/198
f 394/197 398/200 449/252
f 452/255 449/252 398/200
f 400/202 392/195 453/256
f 450/253 453/256 392/195
f 398/200 402/205 452/255
f 454/257 452/255 402/205
f 455/258 403/206 446/248
f 446/248 403/206 383/188
f 406/209 456/259 408/211
f 456/259 457/260 408/211
f 402/205 410/213 454/257
f 458/261 454/257 410/213
f 408/211 457/260 412/215
f 457/260 459/262 412/215
f 410/213 414/217 458/261
f 460/263 458/261 414/217
f 461/264 456/259 430/233
f 456/259 406/209 430/233
f 417/218 418/221 462/265
f 463/266 462/265 418/221
f 414/217 420/223 460/263
f 464/267 460/263 420/223
f 418/221 422/225 463/266
f 465/268 463/266 422/225
f 424/226 400/202 466/269
f 453/256 466/269 400/202
f 426/228 417/218 467/270
f 462/265 467/270 417/218
f 468/271 428/230 459/262
f 459/262 428/230 412/215
f 420/223 432/235 464/267
f 469/272 464/267 432/235
f 470/274 471/273 435/236
f 471/273 433/238 435/236
f 472/275 465/268 439/242
f 465/268 422/225 439/242
f 438/240 426/228 473/276
f 467/270 473/276 426/228
f 432/235 438/240 469/272
f 473/276 469/272 438/240
f 468/271 472/275 428/230
f 472/275 439/242 428/230
f 470/274 435/236 474/277
f 474/277 435/236 441/244
f 424/226 466/269 441/244
f 466/269 474/277 441/244
f 475/278 461/264 443/246
f 461/264 430/233 443/246
f 455/258 475/278 403/206
f 475/278 443/246 403/206
f 384/187 476/279 386/189
f 476/279 477/280 386/189
f 388/191 387/192 478/281
f 387/192 479/282 478/281
f 387/192 391/194 479/282
f 480/283 479/282 391/194
f 393/196 388/191 481/284
f 481/284 388/191 478/281
f 482/285 396/199 477/280
f 477/280 396/199 386/189
f 393/196 481/284 397/201
f 481/284 483/286 397/201
f 484/287 480/283 399/203
f 399/203 480/283 391/194
f 485/288 476/279 404/207
f 404/207 476/279 384/187
f 483/286 486/289 397/201
f 486/289 401/204 397/201
f 407/208 487/290 405/210
f 487/290 488/291 405/210
f 411/214 489/292 407/208
f 487/290 407/208 489/292
f 486/289 490/293 401/204
f 409/212 401/204 490/293
f 413/216 409/212 491/294
f 491/294 409/212 490/293
f 416/219 415/220 492/295
f 415/220 493/296 492/295
f 494/297 489/292 427/231
f 411/214 427/231 489/292
f 413/216 491/294 419/222
f 491/294 495/298 419/222
f 415/220 425/229 493/296
f 496/299 493/296 425/229
f 421/224 416/219 497/300
f 497/300 416/219 492/295
f 484/287 399/203 498/301
f 399/203 423/227 498/301
f 434/237 499/302 436/239
f 499/302 500/303 436/239
f 495/298 501/304 419/222
f 501/304 431/234 419/222
f 502/305 429/232 488/291
f 488/291 429/232 405/210
f 503/306 496/299 437/241
f 437/241 496/299 425/229
f 497/300 504/307 421/224
f 421/224 504/307 440/243
f 501/304 503/306 431/234
f 503/306 437/241 431/234
f 504/307 494/297 440/243
f 494/297 427/231 440/243
f 500/303 505/308 436/239
f 505/308 442/245 436/239
f 505/308 498/301 442/245
f 423/227 442/245 498/301
f 506/309 485/288 444/247
f 485/288 404/207 444/247
f 502/305 506/309 429/232
f 444/247 429/232 506/309
f 446/312 445/311 507/310
f 445/311 508/313 507/310
f 509/316 447/315 510/314
f 447/315 448/317 510/314
f 510/314 448/317 511/318
f 448/317 449/319 511/318
f 509/316 512/320 447/315
f 450/321 447/315 512/320
f 445/311 451/322 508/313
f 451/322 513/323 508/313
f 511/318 449/319 514/324
f 449/319 452/325 514/324
f 515/327 453/326 512/320
f 453/326 450/321 512/320
f 516/329 514/324 454/328
f 452/325 454/328 514/324
f 455/331 446/312 517/330
f 517/330 446/312 507/310
f 518/334 457/333 519/332
f 457/333 456/335 519/332
f 520/337 516/329 458/336
f 454/328 458/336 516/329
f 521/339 459/338 518/334
f 459/338 457/333 518/334
f 522/341 520/337 460/340
f 458/336 460/340 520/337
f 461/343 523/342 456/335
f 456/335 523/342 519/332
f 524/346 525/345 463/344
f 462/347 463/344 525/345
f 522/341 460/340 526/348
f 460/340 464/349 526/348
f 527/351 524/346 465/350
f 463/344 465/350 524/346
f 515/327 528/352 453/326
f 466/353 453/326 528/352
f 525/345 529/354 462/347
f 467/355 462/347 529/354
f 521/339 530/356 459/338
f 468/357 459/338 530/356
f 531/359 526/348 469/358
f 464/349 469/358 526/348
f 471/362 470/361 532/360
f 532/360 470/361 533/363
f 465/350 472/364 527/351
f 527/351 472/364 534/365
f 535/367 473/366 529/354
f 473/366 467/355 529/354
f 535/367 531/359 473/366
f 469/358 473/366 531/359
f 472/364 468/357 534/365
f 468/357 530/356 534/365
f 470/361 474/368 533/363
f 474/368 536/369 533/363
f 528/352 536/369 466/353
f 474/368 466/353 536/369
f 461/343 475/370 523/342
f 475/370 537/371 523/342
f 475/370 455/331 537/371
f 455/331 517/330 537/371
f 508/313 477/280 507/310
f 507/310 477/280 476/279
f 479/282 509/316 478/281
f 478/281 509/316 510/314
f 480/283 512/320 479/282
f 512/320 509/316 479/282
f 478/281 510/314 481/284
f 511/318 481/284 510/314
f 508/313 513/323 477/280
f 513/323 482/285 477/280
f 483/286 481/284 514/324
f 481/284 511/318 514/324
f 484/287 515/327 480/283
f 515/327 512/320 480/283
f 486/289 483/286 516/329
f 514/324 516/329 483/286
f 517/330 507/310 485/288
f 485/288 507/310 476/279
f 487/290 518/334 488/291
f 518/334 519/332 488/291
f 486/289 516/329 490/293
f 490/293 516/329 520/337
f 489/292 521/339 487/290
f 518/334 487/290 521/339
f 491/294 490/293 522/341
f 522/341 490/293 520/337
f 492/295 493/296 524/346
f 493/296 525/345 524/346
f 491/294 522/341 495/298
f 522/341 526/348 495/298
f 497/300 492/295 527/351
f 527/351 492/295 524/346
f 484/287 498/301 515/327
f 515/327 498/301 528/352
f 493/296 496/299 525/345
f 529/354 525/345 496/299
f 489/292 494/297 521/339
f 494/297 530/356 521/339
f 523/342 502/305 519/332
f 519/332 502/305 488/291
f 501/304 495/298 531/359
f 526/348 531/359 495/298
f 532/360 533/363 499/302
f 499/302 533/363 500/303
f 503/306 535/367 496/299
f 535/367 529/354 496/299
f 527/351 534/365 497/300
f 497/300 534/365 504/307
f 503/306 501/304 535/367
f 535/367 501/304 531/359
f 534/365 530/356 504/307
f 530/356 494/297 504/307
f 533/363 536/369 500/303
f 536/369 505/308 500/303
f 505/308 536/369 498/301
f 498/301 536/369 528/352
f 537/371 517/330 506/309
f 517/330 485/288 506/309
f 523/342 537/371 502/305
f 506/309 502/305 537/371
usemtl texture10
f 12/374 11/373 17/372
f 11/373 15/375 17/372
f 20/374 19/373 25/372
f 19/373 23/375 25/372
f 28/374 27/373 33/372
f 27/373 31/375 33/372
g obj1
usemtl mat1
f 538/378 539/377 540/376
f 541/379 540/376 539/377
f 542/382 543/381 544/380
f 543/381 545/383 544/380
f 542/382 546/384 543/381
f 546/384 547/385 543/381
f 548/388 549/387 550/386
f 549/387 551/389 550/386
f 549/387 552/390 551/389
f 552/390 553/391 551/389
f 552/390 554/392 553/391
f 554/392 555/393 553/391
f 554/392 556/394 555/393
f 556/394 557/395 555/393
f 558/388 559/387 560/386
f 559/387 561/389 560/386
f 559/387 562/390 561/389
f 562/390 563/391 561/389
f 562/390 564/392 563/391
f 564/392 565/393 563/391
f 564/392 566/394 565/393
f 566/394 567/395 565/393
f 568/378 569/377 570/376
f 571/379 570/376 569/377
f 572/382 573/381 574/380
f 573/381 575/383 574/380
f 572/382 576/384 573/381
f 576/384 577/385 573/381
f 578/388 579/387 580/386
f 579/387 581/389 580/386
f 579/387 582/390 581/389
f 582/390 583/391 581/389
f 582/390 584/392 583/391
f 584/392 585/393 583/391
f 584/392 586/394 585/393
f 586/394 587/395 585/393
usemtl mat2
f 538/398 542/397 588/396
f 542/397 544/399 588/396
f 589/402 545/401 539/400
f 545/401 543/403 539/400
f 540/405 546/404 538/398
f 546/404 542/397 538/398
f 539/400 543/403 541/406
f 543/403 547/407 541/406
f 541/406 547/407 540/405
f 547/407 546/404 540/405
f 550/410 551/409 590/408
f 551/409 591/411 590/408
f 551/409 553/412 591/411
f 553/412 592/413 591/411
f 553/412 555/414 592/413
f 555/414 593/415 592/413
f 555/414 557/416 593/415
f 557/416 594/417 593/415
f 550/420 590/419 548/418
f 548/418 590/419 595/421
f 596/423 594/417 556/422
f 594/417 557/416 556/422
f 548/418 595/421 544/424
f 544/424 595/421 588/425
f 596/423 556/422 597/426
f 556/422 598/427 597/426
f 599/430 600/429 588/428
f 600/429 544/431 588/428
f 601/433 602/432 599/430
f 602/432 600/429 599/430
f 603/435 604/434 601/433
f 604/434 602/432 601/433
f 598/427 604/434 597/426
f 604/434 603/435 597/426
f 560/410 561/409 605/408
f 561/409 606/411 605/408
f 561/409 563/412 606/411
f 563/412 607/413 606/411
f 563/412 565/414 607/413
f 565/414 608/415 607/413
f 565/414 567/416 608/415
f 567/416 609/417 608/415
f 560/420 605/419 558/418
f 558/418 605/419 610/421
f 611/423 609/417 566/422
f 609/417 567/416 566/422
f 558/418 610/421 612/424
f 612/424 610/421 613/425
f 611/423 566/422 614/426
f 566/422 615/427 614/426
f 616/430 617/429 613/428
f 617/429 612/431 613/428
f 618/433 619/432 616/430
f 619/432 617/429 616/430
f 620/435 621/434 618/433
f 621/434 619/432 618/433
f 615/427 621/434 614/426
f 621/434 620/435 614/426
f 622/402 575/401 569/400
f 575/401 573/403 569/400
f 568/398 572/397 623/396
f 572/397 574/399 623/396
f 570/405 576/404 568/398
f 576/404 572/397 568/398
f 569/400 573/403 571/406
f 573/403 577/407 571/406
f 571/406 577/407 570/405
f 577/407 576/404 570/405
f 581/409 583/412 624/411
f 583/412 625/413 624/411
f 583/412 585/414 625/413
f 585/414 626/415 625/413
f 585/414 587/416 626/415
f 587/416 627/417 626/415
f 580/410 581/409 628/408
f 581/409 624/411 628/408
f 580/420 628/419 578/418
f 578/418 628/419 629/421
f 630/423 627/417 586/422
f 627/417 587/416 586/422
f 578/418 629/421 631/424
f 631/424 629/421 632/425
f 630/423 586/422 633/426
f 586/422 634/427 633/426
f 635/433 636/432 637/430
f 636/432 638/429 637/430
f 639/435 640/434 635/433
f 640/434 636/432 635/433
f 637/430 638/429 632/428
f 638/429 631/431 632/428
f 634/427 640/434 633/426
f 640/434 639/435 633/426
f 641/438 642/437 643/436
f 642/437 644/439 643/436
f 645/442 646/441 647/440
f 646/441 648/443 647/440
f 649/446 650/445 651/444
f 650/445 652/447 651/444
f 653/450 654/449 655/448
f 654/449 656/451 655/448
f 657/436 658/439 641/438
f 658/439 642/437 641/438
f 659/440 660/443 645/442
f 660/443 646/441 645/442
f 661/444 662/447 649/446
f 662/447 650/445 649/446
f 663/448 664/451 653/450
f 664/451 654/449 653/450
f 643/454 644/453 657/452
f 644/453 658/455 657/452
f 647/458 648/457 659/456
f 648/457 660/459 659/456
f 651/462 652/461 661/460
f 652/461 662/463 661/460
f 655/466 656/465 663/464
f 656/465 664/467 663/464
usemtl mat3
f 538/470 588/469 539/468
f 588/469 589/471 539/468
f 568/470 623/469 569/468
f 623/469 622/471 569/468
usemtl mat4
f 591/474 665/473 590/472
f 590/472 665/473 595/475
f 591/474 592/476 665/473
f 592/476 666/477 665/473
f 592/476 593/478 666/477
f 593/478 667/479 666/477
f 593/478 594/480 667/479
f 594/480 596/481 667/479
f 606/474 668/473 605/472
f 605/472 668/473 610/475
f 606/474 607/476 668/473
f 607/476 669/477 668/473
f 607/476 608/478 669/477
f 608/478 670/479 669/477
f 608/478 609/480 670/479
f 609/480 611/481 670/479
f 624/474 671/473 628/472
f 628/472 671/473 629/475
f 624/474 625/476 671/473
f 625/476 672/477 671/473
f 625/476 626/478 672/477
f 626/478 673/479 672/477
f 626/478 627/480 673/479
f 627/480 630/481 673/479
usemtl mat5
f 599/484 588/483 665/482
f 665/482 588/483 595/485
f 666/487 601/486 665/482
f 601/486 599/484 665/482
f 667/489 603/488 666/487
f 603/488 601/486 666/487
f 596/491 597/490 667/489
f 597/490 603/488 667/489
f 616/484 613/483 668/482
f 668/482 613/483 610/485
f 669/487 618/486 668/482
f 618/486 616/484 668/482
f 670/489 620/488 669/487
f 620/488 618/486 669/487
f 611/491 614/490 670/489
f 614/490 620/488 670/489
f 637/484 632/483 671/482
f 671/482 632/483 629/485
f 672/487 635/486 671/482
f 635/486 637/484 671/482
f 673/489 639/488 672/487
f 639/488 635/486 672/487
f 630/491 633/490 673/489
f 633/490 639/488 673/489
usemtl mat6
f 674/494 675/493 676/492
f 676/492 675/493 677/495
f 674/494 678/496 675/493
f 678/496 679/497 675/493
f 678/496 680/498 679/497
f 680/498 681/499 679/497
f 682/501 683/500 680/498
f 680/498 683/500 681/499
f 675/493 549/502 677/495
f 677/495 549/502 548/503
f 675/493 679/497 549/502
f 679/497 552/504 549/502
f 679/497 681/499 552/504
f 681/499 554/505 552/504
f 681/499 683/500 554/505
f 683/500 556/506 554/505
f 684/509 685/508 686/507
f 686/507 685/508 687/510
f 688/512 689/511 686/507
f 689/511 684/509 686/507
f 690/514 691/513 688/512
f 691/513 689/511 688/512
f 691/513 690/514 692/515
f 692/515 690/514 693/516
f 600/518 686/507 544/517
f 686/507 687/510 544/517
f 602/519 688/512 600/518
f 688/512 686/507 600/518
f 604/520 690/514 602/519
f 690/514 688/512 602/519
f 693/516 690/514 598/521
f 690/514 604/520 598/521
f 684/524 674/523 685/522
f 674/523 676/525 685/522
f 689/527 678/526 684/524
f 678/526 674/523 684/524
f 691/529 680/528 689/527
f 680/528 678/526 689/527
f 682/531 680/528 692/530
f 680/528 691/529 692/530
f 676/534 677/533 685/532
f 677/533 687/535 685/532
f 682/538 692/537 683/536
f 683/536 692/537 693/539
f 544/541 687/535 548/540
f 687/535 677/533 548/540
f 556/543 683/536 598/542
f 683/536 693/539 598/542
f 694/494 695/493 696/492
f 696/492 695/493 697/495
f 694/494 698/496 695/493
f 698/496 699/497 695/493
f 698/496 700/498 699/497
f 700/498 701/499 699/497
f 702/501 703/500 700/498
f 700/498 703/500 701/499
f 695/493 559/502 697/495
f 697/495 559/502 558/503
f 695/493 699/497 559/502
f 699/497 562/504 559/502
f 699/497 701/499 562/504
f 701/499 564/505 562/504
f 701/499 703/500 564/505
f 703/500 566/506 564/505
f 704/509 705/508 706/507
f 706/507 705/508 707/510
f 708/512 709/511 706/507
f 709/511 704/509 706/507
f 710/514 711/513 708/512
f 711/513 709/511 708/512
f 711/513 710/514 712/515
f 712/515 710/514 713/516
f 617/518 706/507 612/517
f 706/507 707/510 612/517
f 619/519 708/512 617/518
f 708/512 706/507 617/518
f 621/520 710/514 619/519
f 710/514 708/512 619/519
f 713/516 710/514 615/521
f 710/514 621/520 615/521
f 704/524 694/523 705/522
f 694/523 696/525 705/522
f 709/527 698/526 704/524
f 698/526 694/523 704/524
f 711/529 700/528 709/527
f 700/528 698/526 709/527
f 702/531 700/528 712/530
f 700/528 711/529 712/530
f 696/534 697/533 705/532
f 697/533 707/535 705/532
f 702/538 712/537 703/536
f 703/536 712/537 713/539
f 612/541 707/535 558/540
f 707/535 697/533 558/540
f 566/543 703/536 615/542
f 703/536 713/539 615/542
f 714/494 715/493 716/492
f 716/492 715/493 717/495
f 714/494 718/496 715/493
f 718/496 719/497 715/493
f 718/496 720/498 719/497
f 720/498 721/499 719/497
f 722/501 723/500 720/498
f 720/498 723/500 721/499
f 715/493 579/502 717/495
f 717/495 579/502 578/503
f 715/493 719/497 579/502
f 719/497 582/504 579/502
f 719/497 721/499 582/504
f 721/499 584/505 582/504
f 721/499 723/500 584/505
f 723/500 586/506 584/505
f 724/509 725/508 726/507
f 726/507 725/508 727/510
f 728/512 729/511 726/507
f 729/511 724/509 726/507
f 730/514 731/513 728/512
f 731/513 729/511 728/512
f 731/513 730/514 732/515
f 732/515 730/514 733/516
f 638/518 726/507 631/517
f 726/507 727/510 631/517
f 636/519 728/512 638/518
f 728/512 726/507 638/518
f 640/520 730/514 636/519
f 730/514 728/512 636/519
f 733/516 730/514 634/521
f 730/514 640/520 634/521
f 724/524 714/523 725/522
f 714/523 716/525 725/522
f 729/527 718/526 724/524
f 718/526 714/523 724/524
f 731/529 720/528 729/527
f 720/528 718/526 729/527
f 722/531 720/528 732/530
f 720/528 731/529 732/530
f 716/534 717/533 725/532
f 717/533 727/535 725/532
f 722/538 732/537 723/536
f 723/536 732/537 733/539
f 631/541 727/535 578/540
f 727/535 717/533 578/540
f 586/543 723/536 634/542
f 723/536 733/539 634/542
usemtl mat7
f 734/546 735/545 736/544
f 735/545 737/547 736/544
f 738/546 739/545 740/544
f 739/545 741/547 740/544
f 742/546 743/545 744/544
f 743/545 745/547 744/544
f 746/546 747/545 748/544
f 747/545 749/547 748/544
f 750/546 751/545 752/544
f 751/545 753/547 752/544
f 754/546 755/545 756/544
f 755/545 757/547 756/544
f 758/546 759/545 760/544
f 759/545 761/547 760/544
f 762/546 763/545 764/544
f 763/545 765/547 764/544
f 766/546 767/545 768/544
f 767/545 769/547 768/544
f 770/546 771/545 772/544
f 771/545 773/547 772/544
f 774/546 775/545 776/544
f 775/545 777/547 776/544
f 778/546 779/545 780/544
f 779/545 781/547 780/544
f 782/546 783/545 784/544
f 783/545 785/547 784/544
f 786/546 787/545 788/544
f 787/545 789/547 788/544
f 790/546 791/545 792/544
f 791/545 793/547 792/544
f 794/546 795/545 796/544
f 795/545 797/547 796/544
f 767/550 734/549 769/548
f 734/549 736/551 769/548
f 768/548 737/551 766/550
f 737/551 735/549 766/550
f 771/550 738/549 773/548
f 738/549 740/551 773/548
f 772/548 741/551 770/550
f 741/551 739/549 770/550
f 775/550 742/549 777/548
f 742/549 744/551 777/548
f 776/548 745/551 774/550
f 745/551 743/549 774/550
f 779/550 746/549 781/548
f 746/549 748/551 781/548
f 780/548 749/551 778/550
f 749/551 747/549 778/550
f 783/550 750/549 785/548
f 750/549 752/551 785/548
f 784/548 753/551 782/550
f 753/551 751/549 782/550
f 787/550 754/549 789/548
f 754/549 756/551 789/548
f 788/548 757/551 786/550
f 757/551 755/549 786/550
f 791/550 758/549 793/548
f 758/549 760/551 793/548
f 792/548 761/551 790/550
f 761/551 759/549 790/550
f 795/550 762/549 797/548
f 762/549 764/551 797/548
f 796/548 765/551 794/550
f 765/551 763/549 794/550
f 766/554 735/553 767/552
f 735/553 734/555 767/552
f 770/558 739/557 771/556
f 739/557 738/559 771/556
f 774/562 743/561 775/560
f 743/561 742/563 775/560
f 778/566 747/565 779/564
f 747/565 746/567 779/564
f 782/570 751/569 783/568
f 751/569 750/571 783/568
f 786/574 755/573 787/572
f 755/573 754/575 787/572
f 790/578 759/577 791/576
f 759/577 758/579 791/576
f 794/582 763/581 795/580
f 763/581 762/583 795/580
f 769/586 736/585 768/584
f 736/585 737/587 768/584
f 773/590 740/589 772/588
f 740/589 741/591 772/588
f 777/594 744/593 776/592
f 744/593 745/595 776/592
f 781/598 748/597 780/596
f 748/597 749/599 780/596
f 785/602 752/601 784/600
f 752/601 753/603 784/600
f 789/606 756/605 788/604
f 756/605 757/607 788/604
f 793/610 760/609 792/608
f 760/609 761/611 792/608
f 797/614 764/613 796/612
f 764/613 765/615 796/612
# 1370 elements

