# Model created using BSP2OBJ v0.2.1 by DCx Demo*
# http://devilclanthps3.weebly.com/

mtllib Skybox.obj.mtl
# Object number 1
# 884 faces
# 654 vertices

v -10910.14746 -17000.00000 -0.00090
v -15313.87305 -17000.00000 -2016.11133
v -15450.08789 -17000.00000 -0.00190
v -15313.87402 -17000.00000 2016.10828
v -10910.14746 -17000.00000 -0.00090
v -15450.08789 -17000.00000 -0.00190
v -14923.63867 -17000.00000 3998.77539
v -14923.63574 -17000.00000 -3998.77832
v -14270.25879 -17000.00000 5910.93262
v -14270.25586 -17000.00000 -5910.93555
v -13380.16797 -17000.00000 7725.04297
v -13380.16699 -17000.00000 -7725.04395
v -12254.14941 -17000.00000 -9402.94043
v -12254.14941 -17000.00000 9402.94043
v -10924.86426 -17000.00000 -10924.86426
v -10924.86328 -17000.00000 10924.86328
v 0.00000 -17000.00000 -10911.04590
v -9402.94238 -17000.00000 -12254.15137
v -10924.86426 -17000.00000 -10924.86426
v 0.00000 -17000.00000 10946.36621
v -10924.86328 -17000.00000 10924.86328
v -9402.93945 -17000.00000 12254.15039
v -7725.04541 -17000.00000 -13380.17188
v -7725.04395 -17000.00000 13380.16699
v -5910.93652 -17000.00000 -14270.26270
v -5910.93457 -17000.00000 14270.25879
v -3998.77734 -17000.00000 -14923.64258
v -3998.77734 -17000.00000 14923.63867
v -2016.11035 -17000.00000 -15313.87793
v -2016.10925 -17000.00000 15313.87500
v 0.00000 -17000.00000 -15450.09180
v 0.00000 -17000.00000 15450.08984
v 2016.10925 -17000.00000 15313.87500
v 0.00000 -17000.00000 10946.36621
v 0.00000 -17000.00000 15450.08984
v 0.00000 -17000.00000 -10911.04590
v 2016.11133 -17000.00000 -15313.87695
v 0.00000 -17000.00000 -15450.09180
v 3998.77734 -17000.00000 14923.63867
v 3998.77930 -17000.00000 -14923.64258
v 5910.93555 -17000.00000 14270.25977
v 5910.93750 -17000.00000 -14270.26270
v 7725.04590 -17000.00000 13380.17090
v 7725.04688 -17000.00000 -13380.17188
v 9402.94141 -17000.00000 -12254.15234
v 9402.94141 -17000.00000 12254.14941
v 10924.86426 -17000.00000 -10924.86230
v 10924.86426 -17000.00000 10924.86230
v 10924.86426 -17000.00000 -10924.86230
v 10946.36621 -17000.00000 0.00000
v 12254.15137 -17000.00000 -9402.94238
v 10946.36621 -17000.00000 0.00000
v 10924.86426 -17000.00000 10924.86230
v 12254.15137 -17000.00000 9402.94043
v 13380.17188 -17000.00000 -7725.04492
v 13380.17188 -17000.00000 7725.04590
v 14270.26270 -17000.00000 -5910.93555
v 14270.26270 -17000.00000 5910.93652
v 14923.64063 -17000.00000 -3998.77734
v 14923.64063 -17000.00000 3998.77734
v 15313.87598 -17000.00000 -2016.11035
v 15313.87695 -17000.00000 2016.11035
v 15450.09082 -17000.00000 0.00000
v 15450.09082 -17000.00000 0.00000
v -74999.99219 -17000.00000 -0.00390
v -73735.45313 -7417.01660 -0.00390
v -72444.42188 -17000.00000 19411.42188
v -71222.98438 -7417.01660 19084.14063
v -72444.41406 -17000.00000 -19411.42773
v -71222.96875 -7417.01660 -19084.14258
v -64951.89453 -17000.00000 37499.99609
v -63856.79297 -7417.01660 36867.72656
v -64951.88672 -17000.00000 -37499.99219
v -63856.77344 -7417.01660 -36867.73438
v -53033.00391 -17000.00000 53033.00000
v -52138.84375 -7417.01660 52138.84766
v -53032.99219 -17000.00000 -53033.00391
v -52138.83984 -7417.01660 -52138.84375
v -37499.99219 -17000.00000 64951.89453
v -36867.73438 -7417.01660 63856.78906
v -37499.98828 -17000.00000 -64951.89063
v -36867.71875 -7417.01660 -63856.78125
v -19411.42773 -17000.00000 72444.43750
v -19084.14648 -7417.01660 71222.98438
v -19411.41797 -17000.00000 -72444.41406
v -19084.13281 -7417.01660 -71222.97656
v 0.00000 -17000.00000 74999.99219
v 0.00000 -7417.01660 73735.46875
v 0.00000 -17000.00000 -75000.00000
v 0.00000 -7417.01660 -73735.46875
v 19411.42578 -17000.00000 72444.43750
v 19084.14453 -7417.01660 71223.00000
v 19411.42773 -17000.00000 -72444.43750
v 19084.14648 -7417.01660 -71222.99219
v 37499.99219 -17000.00000 64951.89844
v 36867.73438 -7417.01660 63856.79688
v 37500.00000 -17000.00000 -64951.90625
v 36867.73438 -7417.01660 -63856.78906
v 53033.00000 -17000.00000 53033.00391
v 52138.84766 -7417.01660 52138.84375
v 53033.00781 -17000.00000 -53033.01172
v 52138.85156 -7417.01660 -52138.85156
v 64951.89844 -17000.00000 37499.99609
v 63856.78906 -7417.01660 36867.73438
v 64951.91406 -17000.00000 -37500.00000
v 63856.79688 -7417.01660 -36867.73438
v 72444.43750 -17000.00000 19411.42773
v 71222.99219 -7417.01660 19084.14648
v 72444.43750 -17000.00000 -19411.42578
v 71223.00000 -7417.01660 -19084.14453
v 74999.99219 -17000.00000 0.00390
v 73735.46875 -7417.01660 0.00390
v 74999.99219 -17000.00000 0.00390
v 73735.46875 -7417.01660 0.00390
v -72444.41406 -17000.00000 -19411.42969
v -74999.98438 -17000.00000 -0.00780
v -58778.78125 -17000.00000 -15749.34375
v -60850.79297 -17000.00000 1.44920
v -72444.42188 -17000.00000 19411.42188
v -58778.78125 -17000.00000 15749.33594
v -64951.89063 -17000.00000 37499.98438
v -52699.76563 -17000.00000 30425.38281
v -64951.88281 -17000.00000 -37499.99219
v -52699.75781 -17000.00000 -30425.38867
v -49235.21875 -17000.00000 -13216.21875
v -51063.54297 -17000.00000 -88.36320
v -49235.21875 -17000.00000 13216.21094
v -53033.00781 -17000.00000 -53033.00781
v -43029.44922 -17000.00000 -43028.00391
v -53033.00391 -17000.00000 53032.99609
v -43029.44922 -17000.00000 43027.99609
v -44133.94922 -17000.00000 25531.76172
v -44133.94531 -17000.00000 -25531.76563
v -43385.16797 -17000.00000 -43.28900
v -41863.54688 -17000.00000 -11229.02441
v -41863.54688 -17000.00000 11229.01953
v -36019.01172 -17000.00000 36107.36328
v -36019.01563 -17000.00000 -36107.37500
v -37529.30859 -17000.00000 -21692.80469
v -37529.30859 -17000.00000 21692.79883
v -37500.00000 -17000.00000 -64951.90625
v -30426.83984 -17000.00000 -52698.33203
v -37499.99219 -17000.00000 64951.89063
v -30426.83594 -17000.00000 52698.32031
v -34724.59375 -17000.00000 14383.39453
v -36222.21094 -17000.00000 9705.71094
v -30634.53125 -17000.00000 -30678.26563
v -30634.53125 -17000.00000 30678.25195
v -25443.41016 -17000.00000 -44222.32422
v -25443.40234 -17000.00000 44222.31641
v -37264.07813 -17000.00000 -4905.91211
v -37499.99219 -17000.00000 -0.00390
v -29536.11523 -17000.00000 -3888.50586
v -29801.94922 -17000.00000 -0.00390
v -37264.07813 -17000.00000 4905.90625
v -29536.11914 -17000.00000 3888.50000
v -36222.21094 -17000.00000 9705.71094
v -28786.47070 -17000.00000 7713.30859
v -36222.20703 -17000.00000 -9705.71484
v -28786.46484 -17000.00000 -7713.31396
v -34724.59375 -17000.00000 14383.39453
v -27523.28125 -17000.00000 11400.51563
v -34724.58984 -17000.00000 -14383.39844
v -27523.27930 -17000.00000 -11400.51758
v -32475.94531 -17000.00000 18749.99219
v -25809.24414 -17000.00000 14900.97070
v -32475.94141 -17000.00000 -18749.99609
v -25809.24023 -17000.00000 -14900.97363
v -21649.07617 -17000.00000 -37573.05078
v -21649.07031 -17000.00000 37573.03516
v -29818.68359 -17000.00000 -22880.68359
v -32475.94336 -17000.00000 -18749.99609
v -23634.77734 -17000.00000 -18135.60547
v -25809.24023 -17000.00000 -14900.97461
v -29818.68359 -17000.00000 22880.67969
v -23634.77930 -17000.00000 18135.60156
v -32475.94531 -17000.00000 18749.99219
v -25809.24414 -17000.00000 14900.97070
v -19411.42969 -17000.00000 -72444.43750
v -15750.79297 -17000.00000 -58777.34766
v -19411.42578 -17000.00000 72444.42188
v -15750.78906 -17000.00000 58777.32813
v -26516.50391 -17000.00000 -26516.50391
v -21073.16211 -17000.00000 -21073.16602
v -26516.50391 -17000.00000 26516.49609
v -24698.59375 -17000.00000 28167.58984
v -23794.83203 -17000.00000 23794.83203
v -22151.48828 -17000.00000 25260.78125
v -22281.93555 -17000.00000 9229.47754
v -20859.50000 -17000.00000 12043.23438
v -37264.07813 -17000.00000 -4905.91211
v -37264.07813 -17000.00000 4905.90625
v -22880.68359 -17000.00000 29818.68359
v -20508.14453 -17000.00000 26726.73047
v -20859.50000 -17000.00000 12043.23438
v -19133.93164 -17000.00000 14681.98242
v -19133.92969 -17000.00000 -14681.98340
v -20859.49609 -17000.00000 -12043.23730
v -19343.44531 -17000.00000 -0.00190
v -23911.45898 -17000.00000 -3148.00586
v -21714.96094 -17000.00000 -0.00190
v -24086.47461 -17000.00000 -0.00190
v -37499.99219 -17000.00000 -0.00390
v -22880.68555 -17000.00000 -29818.69141
v -18135.60547 -17000.00000 -23634.78125
v -21073.16406 -17000.00000 21073.16406
v -19604.38477 -17000.00000 22353.96680
v -36222.20703 -17000.00000 -9705.71484
v -34724.58984 -17000.00000 -14383.39844
v -18684.33398 -17000.00000 5006.45117
v -20975.04297 -17000.00000 5620.24414
v -23265.75000 -17000.00000 6234.03711
v -13127.85547 -17000.00000 -49323.59375
v -13127.85156 -17000.00000 49323.58203
v -22281.93164 -17000.00000 -9229.48047
v -23265.74805 -17000.00000 -6234.04102
v -17842.11523 -17000.00000 -7390.44824
v -18684.33008 -17000.00000 -5006.45410
v -17031.71289 -17000.00000 17031.70898
v -18135.60547 -17000.00000 23634.77734
v -17842.11914 -17000.00000 7390.44531
v -16751.91406 -17000.00000 9671.72070
v -20859.49609 -17000.00000 -12043.23730
v -16751.91211 -17000.00000 -9671.72266
v -18750.00000 -17000.00000 -32475.95313
v -14900.97656 -17000.00000 -25809.25000
v -15321.37402 -17000.00000 11756.50488
v -16751.91406 -17000.00000 9671.72070
v -11185.29102 -17000.00000 -41907.28516
v -11185.28906 -17000.00000 41907.28125
v -15450.08789 -17000.00000 -0.00190
v -19146.94922 -17000.00000 -2520.74609
v -15313.87305 -17000.00000 -2016.11133
v -14923.63574 -17000.00000 -3998.77832
v -14923.63867 -17000.00000 3998.77539
v -14270.25879 -17000.00000 5910.93262
v -14270.25586 -17000.00000 -5910.93555
v -13677.88379 -17000.00000 13677.88184
v -13380.16797 -17000.00000 7725.04297
v -13380.16699 -17000.00000 -7725.04395
v -23911.46680 -17000.00000 3148.00195
v -14383.39844 -17000.00000 -34724.60156
v -11400.51953 -17000.00000 -27523.28320
v -14383.39648 -17000.00000 34724.59375
v -11400.51563 -17000.00000 27523.28125
v -18749.99609 -17000.00000 32475.94336
v -14900.97559 -17000.00000 25809.24414
v -13380.16797 -17000.00000 7725.04297
v -12254.14941 -17000.00000 9402.94043
v -19146.95313 -17000.00000 2520.74219
v -13195.86133 -17000.00000 17180.88672
v -12038.36230 -17000.00000 17946.53125
v -11756.50488 -17000.00000 15321.37402
v -10714.11328 -17000.00000 16036.64355
v -13677.88379 -17000.00000 -13677.88379
v -10924.86426 -17000.00000 -10924.86426
v -11756.50586 -17000.00000 -15321.37695
v -9402.94238 -17000.00000 -12254.15137
v -10924.86328 -17000.00000 10924.86328
v -9402.93945 -17000.00000 12254.15137
v -10880.86328 -17000.00000 18712.17578
v -9671.72266 -17000.00000 16751.91406
v -9705.71289 -17000.00000 36222.21094
v -7713.31250 -17000.00000 28786.47070
v -17031.71289 -17000.00000 -17031.71289
v -16751.91211 -17000.00000 -9671.72266
v -16315.26367 -17000.00000 21290.82227
v -14681.98535 -17000.00000 -19133.93555
v -15313.87402 -17000.00000 2016.10828
v -15856.84668 -17000.00000 18082.82031
v -15321.37305 -17000.00000 -11756.50586
v -10830.45703 -17000.00000 -18724.63867
v -9671.72461 -17000.00000 -16751.91797
v -9570.21094 -17000.00000 -19339.28320
v -8531.08594 -17000.00000 -17297.01953
v -7725.04541 -17000.00000 -13380.17188
v -14870.30371 -17000.00000 22242.45117
v 0.00000 -17000.00000 -75000.00000
v -1.44920 -17000.00000 -60850.79297
v 0.00000 -17000.00000 74999.99219
v -1.44920 -17000.00000 60850.78516
v -14681.98340 -17000.00000 19133.92969
v -13335.06445 -17000.00000 -23197.33398
v -8309.96484 -17000.00000 -19953.93359
v -7390.44922 -17000.00000 -17842.12305
v -12254.14941 -17000.00000 -9402.94043
v -13425.34082 -17000.00000 23194.07422
v -13362.61035 -17000.00000 19996.71484
v -13380.16699 -17000.00000 -7725.04395
v -7390.44678 -17000.00000 17842.11914
v -7725.04443 -17000.00000 13380.16699
v -5910.93457 -17000.00000 14270.25879
v -12043.23730 -17000.00000 20859.50000
v -12043.23828 -17000.00000 -20859.50195
v -11770.21289 -17000.00000 -23940.34180
v 88.36320 -17000.00000 -51063.54297
v 88.36320 -17000.00000 51063.53516
v -12044.55859 -17000.00000 -35473.41016
v -4905.90820 -17000.00000 37264.07813
v -3888.50391 -17000.00000 29536.11719
v -9229.47949 -17000.00000 22281.93750
v -10636.35938 -17000.00000 -21570.72266
v -10205.36523 -17000.00000 -24683.34570
v -9556.91406 -17000.00000 -28154.88086
v -9705.71484 -17000.00000 -36222.21875
v 43.73430 -17000.00000 -43385.62109
v 43.73430 -17000.00000 43385.61328
v -9229.48047 -17000.00000 -22281.93945
v -5006.45313 -17000.00000 -18684.33789
v -3998.77734 -17000.00000 -14923.64258
v -5910.93604 -17000.00000 -14270.26270
v -5006.45264 -17000.00000 18684.33398
v -3998.77734 -17000.00000 14923.63867
v -7713.31299 -17000.00000 -28786.48242
v -7731.75928 -17000.00000 -22773.84570
v -4905.91016 -17000.00000 -37264.08984
v -6234.04102 -17000.00000 -23265.75195
v -6234.03906 -17000.00000 23265.75000
v -2520.74414 -17000.00000 -19146.95508
v -2016.11035 -17000.00000 -15313.87793
v -3148.00391 -17000.00000 -23911.46680
v -3148.00391 -17000.00000 23911.46289
v -3888.50586 -17000.00000 -29536.12109
v -2520.74414 -17000.00000 19146.95313
v 0.00000 -17000.00000 -37500.00000
v 0.00000 -17000.00000 -29801.95508
v 0.00000 -17000.00000 37499.99609
v 0.00000 -17000.00000 29801.94922
v -2016.10925 -17000.00000 15313.87500
v 0.00000 -17000.00000 -24086.48047
v 0.00000 -17000.00000 24086.47656
v 0.00000 -17000.00000 -19343.44922
v 0.00000 -17000.00000 19343.44727
v 0.00000 -17000.00000 -15450.09180
v 0.00000 -17000.00000 15450.08984
v 0.00000 -17000.00000 29801.94727
v 3148.00391 -17000.00000 23911.46289
v 0.00000 -17000.00000 24086.47656
v 43.73430 -17000.00000 43385.61328
v 4905.91016 -17000.00000 37264.07813
v 0.00000 -17000.00000 37499.99609
v 4905.91211 -17000.00000 -37264.08594
v 0.00000 -17000.00000 19343.44727
v 2520.74414 -17000.00000 19146.95313
v 0.00000 -17000.00000 15450.08984
v 2016.10925 -17000.00000 15313.87500
v 0.00000 -17000.00000 -19343.44922
v 0.00000 -17000.00000 -15450.09180
v 2520.74609 -17000.00000 -19146.95703
v 2016.11133 -17000.00000 -15313.87695
v 3888.50391 -17000.00000 29536.11719
v 3148.00586 -17000.00000 -23911.46680
v 0.00000 -17000.00000 -24086.48047
v 3888.50586 -17000.00000 -29536.12305
v 0.00000 -17000.00000 -29801.95508
v 5006.45508 -17000.00000 -18684.33789
v 4905.91016 -17000.00000 37264.07813
v 0.00000 -17000.00000 37499.99609
v 4905.91211 -17000.00000 -37264.08594
v 0.00000 -17000.00000 -37500.00000
v 5620.24902 -17000.00000 -20975.04688
v 7713.31250 -17000.00000 28786.47266
v 7713.31641 -17000.00000 -28786.47461
v 5910.93750 -17000.00000 -14270.26270
v 3998.77930 -17000.00000 -14923.64258
v 6234.04297 -17000.00000 -23265.75391
v 11272.75781 -17000.00000 41907.28125
v 11272.76465 -17000.00000 -41907.28516
v 6234.03906 -17000.00000 23265.75000
v 7390.45166 -17000.00000 -17842.12305
v 5006.45117 -17000.00000 18684.33398
v 3998.77734 -17000.00000 14923.63867
v 7390.44922 -17000.00000 17842.11914
v 9229.48438 -17000.00000 -22281.93945
v 9229.48047 -17000.00000 22281.93750
v 9671.72656 -17000.00000 -16751.91992
v 7725.04688 -17000.00000 -13380.17188
v 11400.51563 -17000.00000 27523.28125
v 9705.71094 -17000.00000 36222.21094
v 9705.71680 -17000.00000 -36222.21875
v 9671.72559 -17000.00000 16751.91602
v 9402.94141 -17000.00000 12254.14941
v 7725.04590 -17000.00000 13380.17090
v 10857.48438 -17000.00000 -18805.71094
v 11400.52051 -17000.00000 -27523.28516
v 5910.93555 -17000.00000 14270.25977
v 11756.50684 -17000.00000 15321.37500
v 12043.24219 -17000.00000 -20859.50195
v 10857.48242 -17000.00000 18805.70898
v 12043.24121 -17000.00000 20859.50195
v 13304.57422 -17000.00000 49323.58594
v 88.36320 -17000.00000 51063.53516
v 13304.58203 -17000.00000 -49323.59375
v 13677.88281 -17000.00000 13677.88281
v 10924.86426 -17000.00000 10924.86230
v 9705.71094 -17000.00000 36222.21094
v 9705.71680 -17000.00000 -36222.21875
v 14383.39844 -17000.00000 34724.59766
v 14383.40332 -17000.00000 -34724.60156
v 11756.50781 -17000.00000 -15321.37500
v 14681.98633 -17000.00000 -19133.93555
v 14681.98535 -17000.00000 19133.93164
v 14900.97852 -17000.00000 25809.24805
v 14900.97949 -17000.00000 -25809.25000
v -1.44920 -17000.00000 60850.78516
v 15747.89453 -17000.00000 58777.33203
v 15747.89844 -17000.00000 -58777.35156
v 15354.79688 -17000.00000 15354.79688
v 17031.71289 -17000.00000 -17031.71289
v 13677.88477 -17000.00000 -13677.88281
v 14270.26270 -17000.00000 -5910.93555
v 16751.91992 -17000.00000 -9671.72559
v 13380.17188 -17000.00000 -7725.04492
v 18135.60352 -17000.00000 23634.77930
v 18135.60742 -17000.00000 -23634.78320
v 13380.17188 -17000.00000 7725.04590
v 17842.11914 -17000.00000 7390.44922
v 14270.26270 -17000.00000 5910.93652
v 0.00000 -17000.00000 74999.99219
v 19411.42188 -17000.00000 72444.42188
v 19411.43359 -17000.00000 -72444.43750
v 17031.71094 -17000.00000 17031.71094
v 21736.54492 -17000.00000 37573.04688
v 21736.54688 -17000.00000 -37573.05078
v 18684.33398 -17000.00000 -5006.45313
v 14923.64063 -17000.00000 -3998.77734
v 16751.91797 -17000.00000 9671.72559
v 19133.93555 -17000.00000 14681.98535
v 15321.37598 -17000.00000 11756.50684
v 17842.11914 -17000.00000 -7390.44922
v 15313.87793 -17000.00000 2016.11035
v 19245.20117 -17000.00000 1260.37097
v 15450.09082 -17000.00000 0.00000
v 9402.94141 -17000.00000 -12254.15234
v 21073.16211 -17000.00000 21073.16211
v 19146.95313 -17000.00000 2520.74414
v 19343.44922 -17000.00000 0.00000
v 18749.99805 -17000.00000 32475.95117
v 18750.00195 -17000.00000 -32475.95117
v 21073.16602 -17000.00000 -21073.16211
v 22281.93945 -17000.00000 -9229.48340
v 22281.94141 -17000.00000 9229.48242
v 19133.93555 -17000.00000 -14681.98535
v 14383.39844 -17000.00000 34724.59766
v 14383.40332 -17000.00000 -34724.60156
v 18684.33398 -17000.00000 5006.45313
v 21385.10547 -17000.00000 2798.34766
v 23265.75195 -17000.00000 -6234.03906
v 20859.50391 -17000.00000 -12043.24219
v 20859.50391 -17000.00000 12043.24121
v 21570.86133 -17000.00000 0.00000
v 19146.95313 -17000.00000 -2520.74414
v 10924.86426 -17000.00000 -10924.86230
v 23911.46680 -17000.00000 -3148.00391
v 22880.68164 -17000.00000 29818.68750
v 22880.68750 -17000.00000 -29818.68750
v 23588.60938 -17000.00000 4691.02148
v 23634.78125 -17000.00000 -18135.60547
v 23634.78125 -17000.00000 18135.60547
v 23265.75195 -17000.00000 6234.03906
v 25809.25000 -17000.00000 -14900.97656
v 20859.50391 -17000.00000 -12043.24219
v 21477.98438 -17000.00000 1399.17383
v 23911.46680 -17000.00000 3148.00391
v 24086.47852 -17000.00000 0.00000
v 23998.97266 -17000.00000 1574.00195
v 12254.15137 -17000.00000 9402.94043
v 15321.37695 -17000.00000 -11756.50586
v 12254.15137 -17000.00000 -9402.94238
v 26543.66211 -17000.00000 3482.22852
v 28786.47461 -17000.00000 -7713.31250
v 26653.87305 -17000.00000 1741.11316
v 26764.08398 -17000.00000 0.00000
v 30721.99414 -17000.00000 30678.25977
v 30722.00000 -17000.00000 -30678.26367
v 29161.29883 -17000.00000 5800.90820
v 16751.91797 -17000.00000 9671.72559
v 13380.17188 -17000.00000 7725.04590
v 16751.91992 -17000.00000 -9671.72559
v 13380.17188 -17000.00000 -7725.04492
v 27523.28516 -17000.00000 -11400.51953
v 18749.99805 -17000.00000 32475.95117
v 18750.00195 -17000.00000 -32475.95117
v 26516.50000 -17000.00000 26516.50000
v 26516.50391 -17000.00000 -26516.50000
v 29536.12109 -17000.00000 -3888.50391
v 28786.47461 -17000.00000 7713.31250
v 29536.12305 -17000.00000 3888.50391
v 29801.95313 -17000.00000 0.00000
v 29818.68750 -17000.00000 22880.68164
v 29818.69336 -17000.00000 -22880.68164
v 14923.64063 -17000.00000 3998.77734
v 15313.87598 -17000.00000 -2016.11035
v 36743.15234 -17000.00000 7305.81250
v 25620.13281 -17000.00000 44222.32031
v 25620.13672 -17000.00000 -44222.32422
v 20859.50391 -17000.00000 12043.24121
v 37616.78125 -17000.00000 21692.81055
v 37616.78516 -17000.00000 -21692.81055
v 22880.68359 -17000.00000 29818.68750
v 22880.68750 -17000.00000 -29818.68750
v 32475.95117 -17000.00000 18750.00195
v 32475.95313 -17000.00000 -18750.00000
v 36222.21484 -17000.00000 9705.71484
v 37264.08203 -17000.00000 4905.91016
v 34724.60156 -17000.00000 14383.40039
v 34724.60156 -17000.00000 -14383.39844
v 41951.01953 -17000.00000 -11229.02344
v 36222.21484 -17000.00000 -9705.71094
v 41951.01953 -17000.00000 11229.02344
v 30423.94922 -17000.00000 52698.32422
v 30423.95117 -17000.00000 -52698.32813
v 37264.08203 -17000.00000 -4905.91016
v 26516.50000 -17000.00000 26516.50000
v 26516.50391 -17000.00000 -26516.50000
v 43429.34766 -17000.00000 0.00000
v 37499.99609 -17000.00000 0.00000
v 25809.24805 -17000.00000 14900.97852
v 25809.24805 -17000.00000 14900.97852
v 27523.28516 -17000.00000 11400.51855
v 25809.25000 -17000.00000 -14900.97656
v 29818.68750 -17000.00000 22880.68359
v 29818.69141 -17000.00000 -22880.68164
v 37499.99609 -17000.00000 64951.90234
v 37500.00391 -17000.00000 -64951.90234
v 32475.95313 -17000.00000 -18750.00000
v 32475.95117 -17000.00000 18750.00195
v 36195.72656 -17000.00000 36107.36719
v 36195.73828 -17000.00000 -36107.37109
v 43026.55078 -17000.00000 43027.99609
v 43026.55859 -17000.00000 -43028.00391
v 44310.68750 -17000.00000 25531.77344
v 44310.68750 -17000.00000 -25531.77344
v 53033.00000 -17000.00000 53033.00000
v 53033.00781 -17000.00000 -53033.00000
v 49411.94922 -17000.00000 -13216.21484
v 49411.94922 -17000.00000 13216.21484
v 52696.88281 -17000.00000 30425.39648
v 52696.88281 -17000.00000 -30425.39844
v 51151.89453 -17000.00000 0.00000
v 58775.89063 -17000.00000 15749.34375
v 58775.89063 -17000.00000 -15749.34375
v 64951.90234 -17000.00000 37500.00391
v 64951.90625 -17000.00000 -37500.00000
v 60849.33594 -17000.00000 0.00000
v 72444.42969 -17000.00000 19411.42969
v 72444.42969 -17000.00000 -19411.42188
v 74999.99219 -17000.00000 0.00000
v 0.00010 -17000.00000 -0.00010
v -10924.86426 -17000.00000 -10924.86426
v -10910.14746 -17000.00000 -0.00090
v -10910.14746 -17000.00000 -0.00090
v -10924.86328 -17000.00000 10924.86328
v 0.00000 -17000.00000 -10911.04492
v 0.00000 -17000.00000 10946.36523
v 10924.86426 -17000.00000 -10924.86230
v 0.00000 -17000.00000 -10911.04492
v 0.00000 -17000.00000 10946.36523
v 10924.86426 -17000.00000 10924.86230
v 10946.36523 -17000.00000 0.00000
v 10946.36523 -17000.00000 0.00000
v -52485.10547 18795.78320 -30302.29102
v -31137.56250 38575.34375 -17977.28125
v -60604.58203 18795.78320 0.00000
v -35954.56250 38575.34375 0.00000
v -52485.10547 18795.78320 30302.28711
v -31137.56250 38575.34375 17977.28125
v -73735.45313 -7417.01660 -0.00390
v -71222.98438 -7417.01660 19084.14063
v -71222.96875 -7417.01660 -19084.14258
v -63856.79297 -7417.01660 36867.72656
v -63856.77344 -7417.01660 -36867.73438
v -30302.29102 18795.78320 52485.10547
v -17977.28320 38575.34375 31137.56250
v -30302.28125 18795.78320 -52485.10547
v -17977.27734 38575.34766 -31137.56250
v -52138.84375 -7417.01660 52138.84766
v -52138.83984 -7417.01660 -52138.84375
v -36867.73438 -7417.01660 63856.78906
v -36867.71875 -7417.01660 -63856.78125
v -19084.14648 -7417.01660 71222.98438
v -19084.13281 -7417.01660 -71222.97656
v -0.00060 47660.12109 0.00050
v 0.00000 18795.78320 60604.58203
v -0.00190 38575.34375 35954.56250
v 0.00000 18795.78320 -60604.58984
v 0.00000 38575.34766 -35954.56641
v 0.00000 -7417.01660 73735.46875
v 0.00000 -7417.01660 -73735.46875
v 17977.28125 38575.34375 31137.57031
v 17977.28320 38575.34766 -31137.56641
v 19084.14453 -7417.01660 71223.00000
v 19084.14648 -7417.01660 -71222.99219
v 31137.56641 38575.34375 17977.28320
v 31137.57031 38575.34375 -17977.28125
v 30302.28711 18795.78320 52485.10547
v 30302.29492 18795.78320 -52485.11328
v 35954.56641 38575.34375 0.00190
v 36867.73438 -7417.01660 63856.79688
v 36867.73438 -7417.01660 -63856.78906
v 52138.84766 -7417.01660 52138.84375
v 52138.85156 -7417.01660 -52138.85156
v 52485.10547 18795.78320 30302.29102
v 52485.11328 18795.78320 -30302.28711
v 63856.79688 -7417.01660 -36867.73438
v 63856.78906 -7417.01660 36867.73438
v 71222.99219 -7417.01660 19084.14648
v 60604.58203 18795.78320 0.00000
v 71223.00000 -7417.01660 -19084.14453
v 73735.46875 -7417.01660 0.00390
v -18121.88477 -16890.00000 457.17960
v -17551.66211 -16890.00000 841.78711
v -15886.81738 -16890.00000 -236.34270
v -15779.76367 -16890.00000 267.24991
v -13598.57910 -16890.00000 -236.34270
v -13598.57910 -16890.00000 267.24991
v -14457.71191 -16890.00000 -8305.22363
v -14575.66309 -16890.00000 -7765.72754
v -11478.06445 -16890.00000 -6714.07471
v -11659.37305 -16890.00000 -6337.95898
v -12948.37109 -16890.00000 -9303.18555
v -11128.11914 -16890.00000 -7780.66211
v -12556.88770 -16890.00000 -9659.12012
v -10714.69434 -16890.00000 -8196.98730
v -10300.26367 -16890.00000 9000.98242
v -10544.18848 -16890.00000 8783.33887
v -11957.76953 -16890.00000 10250.14453
v -12185.78809 -16890.00000 10027.77441
v -6441.83789 -16890.00000 -10133.89258
v -10290.56934 -16890.00000 -13706.42090
v -6720.49707 -16890.00000 -9968.74902
v -10568.20703 -16890.00000 -13449.67773
v -7856.26758 -16890.00000 11400.18164
v -8333.51465 -16890.00000 11269.05176
v -8423.38281 -16890.00000 13143.58203
v -8756.78516 -16890.00000 13035.42578
v -5.94430 -16890.00000 14965.62305
v -1922.92566 -16890.00000 15485.45117
v 104.16790 -16890.00000 15643.71582
v -1828.26746 -16890.00000 16140.56641
v -258.81049 -16890.00000 -13061.54492
v 243.99120 -16890.00000 -13089.66406
v -92.03320 -16890.00000 -16577.29688
v 404.80069 -16890.00000 -16541.29102
v 8959.37891 -16890.00000 -16081.23828
v 8414.80078 -16890.00000 -16172.91406
v 6854.14258 -16890.00000 -11766.26563
v 6469.68066 -16890.00000 -11929.14160
v 17269.81836 -16890.00000 -182.25191
v 13635.19141 -16890.00000 -370.32419
v 17154.86914 -16890.00000 329.85931
v 13666.02344 -16890.00000 199.10350
v 19540.10156 -16890.00000 436.70499
v 19230.36328 -16890.00000 900.40820

vt 1.00390 -0.00390 
vt 1.18740 -0.30460 
vt 1.00390 -0.31240 
vt 1.81240 -0.19530 
vt 1.99990 -0.49600 
vt 1.99600 -0.18740 
vt 1.63280 -0.22260 
vt 1.36710 -0.27730 
vt 1.46090 -0.26560 
vt 1.53900 -0.23430 
vt 1.29290 -0.32810 
vt 1.70700 -0.17180 
vt 1.85930 -0.09370 
vt 1.14060 -0.40620 
vt 1.99600 -0.00390 
vt 1.00390 -0.49600 
vt 1.99990 -0.49600 
vt 1.14060 -0.40620 
vt 1.00390 -0.49600 
vt 1.00390 -0.00390 
vt 1.99600 -0.00390 
vt 1.85930 -0.09370 
vt 1.33200 -0.31640 
vt 1.70700 -0.17180 
vt 1.53900 -0.24990 
vt 1.53900 -0.23430 
vt 1.67960 -0.22650 
vt 1.36710 -0.27730 
vt 1.79680 -0.20700 
vt 1.18740 -0.30460 
vt 1.99600 -0.18740 
vt 1.00390 -0.31240 
vt 1.85540 -0.21090 
vt 1.99990 -0.49600 
vt 1.99600 -0.18740 
vt 1.00390 -0.00390 
vt 1.18740 -0.30460 
vt 1.00390 -0.31240 
vt 1.68350 -0.22650 
vt 1.36710 -0.27730 
vt 1.46090 -0.26560 
vt 1.53900 -0.23430 
vt 1.29290 -0.32810 
vt 1.70700 -0.17180 
vt 1.85930 -0.09370 
vt 1.14060 -0.40620 
vt 1.99600 -0.00390 
vt 1.00390 -0.49600 
vt 1.00390 -0.49600 
vt 1.99990 -0.49600 
vt 1.14060 -0.40620 
vt 1.00390 -0.00390 
vt 1.99600 -0.00390 
vt 1.85930 -0.09370 
vt 1.28510 -0.33590 
vt 1.70700 -0.17180 
vt 1.43350 -0.28120 
vt 1.53900 -0.23430 
vt 1.63280 -0.22260 
vt 1.36710 -0.27730 
vt 1.81240 -0.19530 
vt 1.18740 -0.30460 
vt 1.99600 -0.18740 
vt 1.00390 -0.31240 
vt 2.99990 -3.99600 
vt 2.99990 -3.75390 
vt 3.24990 -3.99600 
vt 3.24990 -3.75390 
vt 2.74990 -3.99600 
vt 2.74990 -3.75390 
vt 3.49990 -3.99600 
vt 3.49990 -3.75390 
vt 2.49990 -3.99600 
vt 2.49990 -3.75390 
vt 3.74990 -3.99600 
vt 3.74990 -3.75390 
vt 2.24990 -3.99600 
vt 2.24990 -3.75390 
vt 3.99990 -3.99600 
vt 3.99990 -3.75390 
vt 1.99990 -3.99600 
vt 1.99990 -3.75390 
vt 4.24990 -3.99600 
vt 4.24990 -3.75390 
vt 1.74990 -3.99600 
vt 1.74990 -3.75390 
vt 4.49990 -3.99600 
vt 4.49990 -3.75390 
vt 1.49990 -3.99600 
vt 1.49990 -3.75390 
vt 4.74990 -3.99600 
vt 4.74990 -3.75390 
vt 1.24990 -3.99600 
vt 1.24990 -3.75390 
vt 4.99990 -3.99600 
vt 4.99990 -3.75390 
vt 0.99990 -3.99600 
vt 0.99990 -3.75390 
vt 5.24990 -3.99600 
vt 5.24990 -3.75390 
vt 0.74990 -3.99600 
vt 0.74990 -3.75390 
vt 5.49990 -3.99600 
vt 5.49990 -3.75390 
vt 0.49990 -3.99600 
vt 0.49990 -3.75390 
vt 5.74990 -3.99600 
vt 5.74990 -3.75390 
vt 0.24990 -3.99600 
vt 0.24990 -3.75390 
vt 0.00000 -3.99600 
vt 0.00000 -3.75390 
vt 5.99990 -3.99600 
vt 5.99990 -3.75390 
vt 1.74990 1.99800 
vt 1.49990 1.99800 
vt 1.74990 1.93550 
vt 1.49990 1.93550 
vt 1.24990 1.99800 
vt 1.24990 1.93550 
vt 0.99990 1.99800 
vt 0.99990 1.93550 
vt 1.99990 1.99800 
vt 1.99990 1.93550 
vt 1.74990 1.87300 
vt 1.49990 1.87300 
vt 1.24990 1.87300 
vt 2.24990 1.99800 
vt 2.24990 1.93550 
vt 0.74990 1.99800 
vt 0.74990 1.93550 
vt 0.99990 1.87300 
vt 1.99990 1.87300 
vt 1.49990 1.81050 
vt 1.74990 1.81050 
vt 1.24990 1.81050 
vt 0.74990 1.87300 
vt 2.24990 1.87300 
vt 1.99990 1.81050 
vt 0.99990 1.81050 
vt 2.49990 1.99800 
vt 2.49990 1.93550 
vt 0.49990 1.99800 
vt 0.49990 1.93550 
vt 1.12490 1.74800 
vt 1.24990 1.74800 
vt 2.24990 1.81050 
vt 0.74990 1.81050 
vt 2.49990 1.87300 
vt 0.49990 1.87300 
vt 0.62490 1.37300 
vt 0.49990 1.37300 
vt 0.62490 1.28020 
vt 0.49990 1.28020 
vt 0.37490 1.37300 
vt 0.37490 1.28020 
vt 0.24990 1.37300 
vt 0.24990 1.28020 
vt 0.74990 1.37300 
vt 0.74990 1.28020 
vt 0.12490 1.37300 
vt 0.12490 1.28020 
vt 0.87490 1.37300 
vt 0.87490 1.28020 
vt 0.00000 1.37300 
vt 0.00000 1.28020 
vt 0.99990 1.37300 
vt 0.99990 1.28020 
vt 2.49990 1.81050 
vt 0.49990 1.81050 
vt 2.12490 1.74800 
vt 1.99990 1.74800 
vt 2.12490 1.65620 
vt 1.99990 1.65620 
vt 0.87490 1.74800 
vt 0.87490 1.65620 
vt 0.99990 1.74800 
vt 0.99990 1.65620 
vt 2.74990 1.99800 
vt 2.74990 1.93550 
vt 0.24990 1.99800 
vt 0.24990 1.93550 
vt 2.24990 1.74800 
vt 2.24990 1.65620 
vt 0.74990 1.74800 
vt 0.68740 1.74800 
vt 0.74990 1.70210 
vt 0.68740 1.70210 
vt 0.12490 1.18740 
vt 0.00000 1.18740 
vt 1.62490 1.74800 
vt 1.37490 1.74800 
vt 0.62490 1.74800 
vt 0.62490 1.70210 
vt 0.99990 1.56440 
vt 0.87490 1.56440 
vt 2.12490 1.56440 
vt 1.99990 1.56440 
vt 0.49990 1.09470 
vt 0.62490 1.18740 
vt 0.49990 1.14110 
vt 0.49990 1.18740 
vt 1.49990 1.74800 
vt 2.37490 1.74800 
vt 2.37490 1.65620 
vt 0.74990 1.65620 
vt 0.68740 1.65620 
vt 1.74990 1.74800 
vt 1.87490 1.74800 
vt 0.24990 1.09470 
vt 0.24990 1.14110 
vt 0.24990 1.18740 
vt 2.74990 1.87300 
vt 0.24990 1.87300 
vt 0.87490 1.18740 
vt 0.74990 1.18740 
vt 0.87490 1.09470 
vt 0.74990 1.09470 
vt 0.74990 1.56440 
vt 0.62490 1.65620 
vt 0.12490 1.09470 
vt 0.00000 1.09470 
vt 0.99990 1.18740 
vt 0.99990 1.09470 
vt 2.49990 1.74800 
vt 2.49990 1.65620 
vt 0.87490 1.47260 
vt 0.99990 1.47260 
vt 2.74990 1.81050 
vt 0.24990 1.81050 
vt 0.49990 1.00190 
vt 0.62490 1.09470 
vt 0.62490 1.00190 
vt 0.74990 1.00190 
vt 0.24990 1.00190 
vt 0.12490 1.00190 
vt 0.87490 1.00190 
vt 0.74990 1.47260 
vt 0.00000 1.00190 
vt 0.99990 1.00190 
vt 0.37490 1.18740 
vt 2.62490 1.74800 
vt 2.62490 1.65620 
vt 0.37490 1.74800 
vt 0.37490 1.65620 
vt 0.49990 1.74800 
vt 0.49990 1.65620 
vt 0.99990 1.38080 
vt 0.87490 1.38080 
vt 0.37490 1.09470 
vt 0.62490 1.51850 
vt 0.56240 1.51850 
vt 0.62490 1.47260 
vt 0.56240 1.47260 
vt 2.24990 1.47260 
vt 2.24990 1.38080 
vt 2.37490 1.47260 
vt 2.37490 1.38080 
vt 0.74990 1.38080 
vt 0.62490 1.38080 
vt 0.49990 1.51850 
vt 0.49990 1.47260 
vt 0.24990 1.74800 
vt 0.24990 1.65620 
vt 2.24990 1.56440 
vt 1.99990 1.47260 
vt 0.62490 1.61030 
vt 2.37490 1.56440 
vt 0.37490 1.00190 
vt 0.68740 1.56440 
vt 2.12490 1.47260 
vt 2.49990 1.51850 
vt 2.49990 1.47260 
vt 2.56240 1.51850 
vt 2.56240 1.47260 
vt 2.49990 1.38080 
vt 0.56240 1.61030 
vt 2.99990 1.99800 
vt 2.99990 1.93550 
vt 0.00000 1.99800 
vt 0.00000 1.93550 
vt 0.62490 1.56440 
vt 2.49990 1.61030 
vt 2.62490 1.51850 
vt 2.62490 1.47260 
vt 2.12490 1.38080 
vt 0.49990 1.61030 
vt 0.56240 1.56440 
vt 1.99990 1.38080 
vt 0.37490 1.47260 
vt 0.49990 1.38080 
vt 0.37490 1.38080 
vt 0.49990 1.56440 
vt 2.49990 1.56440 
vt 2.56240 1.61030 
vt 2.99990 1.87300 
vt 0.00000 1.87300 
vt 2.68740 1.74800 
vt 0.12490 1.74800 
vt 0.12490 1.65620 
vt 0.37490 1.56440 
vt 2.56240 1.56440 
vt 2.62490 1.61030 
vt 2.68740 1.65620 
vt 2.74990 1.74800 
vt 2.99990 1.81050 
vt 0.00000 1.81050 
vt 2.62490 1.56440 
vt 2.74990 1.47260 
vt 2.74990 1.38080 
vt 2.62490 1.38080 
vt 0.24990 1.47260 
vt 0.24990 1.38080 
vt 2.74990 1.65620 
vt 2.68740 1.56440 
vt 2.87490 1.74800 
vt 2.74990 1.56440 
vt 0.24990 1.56440 
vt 2.87490 1.47260 
vt 2.87490 1.38080 
vt 2.87490 1.56440 
vt 0.12490 1.56440 
vt 2.87490 1.65620 
vt 0.12490 1.47260 
vt 2.99990 1.74800 
vt 2.99990 1.65620 
vt 0.00000 1.74800 
vt 0.00000 1.65620 
vt 0.12490 1.38080 
vt 2.99990 1.56440 
vt 0.00000 1.56440 
vt 2.99990 1.47260 
vt 0.00000 1.47260 
vt 2.99990 1.38080 
vt 0.00000 1.38080 
vt 0.99990 1.28020 
vt 0.87490 1.18740 
vt 0.99990 1.18740 
vt 5.99990 1.81050 
vt 5.87490 1.74800 
vt 5.99990 1.74800 
vt 3.12490 1.74800 
vt 0.99990 1.09470 
vt 0.87490 1.09470 
vt 0.99990 1.00190 
vt 0.87490 1.00190 
vt 0.00000 1.09470 
vt 0.00000 1.00190 
vt 0.12490 1.09470 
vt 0.12490 1.00190 
vt 0.87490 1.28020 
vt 0.12490 1.18740 
vt 0.00000 1.18740 
vt 0.12490 1.28020 
vt 0.00000 1.28020 
vt 0.24990 1.09470 
vt 0.87490 1.37300 
vt 0.99990 1.37300 
vt 0.12490 1.37300 
vt 0.00000 1.37300 
vt 0.24990 1.14110 
vt 0.74990 1.28020 
vt 0.24990 1.28020 
vt 0.37490 1.00190 
vt 0.24990 1.00190 
vt 0.24990 1.18740 
vt 5.74990 1.81050 
vt 3.24990 1.81050 
vt 0.74990 1.18740 
vt 0.37490 1.09470 
vt 0.74990 1.09470 
vt 0.74990 1.00190 
vt 0.62490 1.09470 
vt 0.37490 1.18740 
vt 0.62490 1.18740 
vt 0.49990 1.09470 
vt 0.49990 1.00190 
vt 0.62490 1.28020 
vt 5.74990 1.74800 
vt 3.24990 1.74800 
vt 0.49990 1.09470 
vt 0.37490 1.00190 
vt 0.49990 1.00190 
vt 0.49990 1.14110 
vt 0.37490 1.28020 
vt 0.62490 1.00190 
vt 0.37490 1.09470 
vt 0.49990 1.18740 
vt 0.49990 1.14110 
vt 0.49990 1.18740 
vt 5.74990 1.87300 
vt 5.99990 1.87300 
vt 3.24990 1.87300 
vt 0.24990 1.09470 
vt 0.24990 1.00190 
vt 0.74990 1.37300 
vt 0.24990 1.37300 
vt 5.62490 1.74800 
vt 3.37490 1.74800 
vt 0.62490 1.09470 
vt 0.62490 1.18740 
vt 0.37490 1.18740 
vt 0.49990 1.28020 
vt 0.49990 1.28020 
vt 5.99990 1.93550 
vt 5.74990 1.93550 
vt 3.24990 1.93550 
vt 0.24990 1.14110 
vt 0.74990 1.18740 
vt 0.74990 1.09470 
vt 4.12490 1.38080 
vt 3.99990 1.47260 
vt 3.99990 1.38080 
vt 0.37490 1.28020 
vt 0.62490 1.28020 
vt 4.99990 1.38080 
vt 4.87490 1.47260 
vt 4.87490 1.38080 
vt 5.99990 1.99800 
vt 5.74990 1.99800 
vt 3.24990 1.99800 
vt 0.24990 1.18740 
vt 5.49990 1.81050 
vt 3.49990 1.81050 
vt 4.24990 1.47260 
vt 4.24990 1.38080 
vt 4.99990 1.47260 
vt 0.12490 1.18740 
vt 0.12490 1.09470 
vt 4.12490 1.47260 
vt 4.62490 1.38080 
vt 4.56240 1.47260 
vt 4.49990 1.38080 
vt 0.62490 1.00190 
vt 0.24990 1.28020 
vt 4.62490 1.47260 
vt 4.49990 1.47260 
vt 5.49990 1.74800 
vt 3.49990 1.74800 
vt 0.74990 1.28020 
vt 4.12490 1.56440 
vt 4.87490 1.56440 
vt 0.87490 1.18740 
vt 0.62490 1.37300 
vt 0.37490 1.37300 
vt 4.74990 1.47260 
vt 4.62490 1.51850 
vt 4.24990 1.56440 
vt 3.99990 1.56440 
vt 4.99990 1.56440 
vt 4.49990 1.51850 
vt 4.37490 1.47260 
vt 0.74990 1.00190 
vt 4.37490 1.56440 
vt 5.37490 1.74800 
vt 3.62490 1.74800 
vt 4.68740 1.56440 
vt 0.87490 1.28020 
vt 0.12490 1.28020 
vt 4.74990 1.56440 
vt 0.99990 1.28020 
vt 0.99990 1.18740 
vt 4.56240 1.51850 
vt 4.62490 1.56440 
vt 4.49990 1.56440 
vt 4.56240 1.56440 
vt 0.12490 1.00190 
vt 0.87490 1.09470 
vt 0.87490 1.00190 
vt 4.62490 1.61030 
vt 4.24990 1.65620 
vt 4.56240 1.61030 
vt 4.49990 1.61030 
vt 5.24990 1.81050 
vt 3.74990 1.81050 
vt 4.68740 1.65620 
vt 0.00000 1.09470 
vt 0.00000 1.00190 
vt 0.99990 1.09470 
vt 0.99990 1.00190 
vt 4.12490 1.65620 
vt 0.49990 1.37300 
vt 0.49990 1.37300 
vt 5.24990 1.74800 
vt 3.74990 1.74800 
vt 4.37490 1.65620 
vt 4.74990 1.65620 
vt 4.62490 1.65620 
vt 4.49990 1.65620 
vt 5.12490 1.74800 
vt 3.87490 1.74800 
vt 4.74990 1.38080 
vt 4.37490 1.38080 
vt 4.68740 1.74800 
vt 5.49990 1.87300 
vt 3.49990 1.87300 
vt 0.00000 1.18740 
vt 4.99990 1.81050 
vt 3.99990 1.81050 
vt 0.37490 1.37300 
vt 0.62490 1.37300 
vt 4.99990 1.74800 
vt 3.99990 1.74800 
vt 4.74990 1.74800 
vt 4.62490 1.74800 
vt 4.87490 1.74800 
vt 4.12490 1.74800 
vt 4.24990 1.81050 
vt 4.24990 1.74800 
vt 4.74990 1.81050 
vt 5.49990 1.93550 
vt 3.49990 1.93550 
vt 4.37490 1.74800 
vt 0.24990 1.37300 
vt 0.74990 1.37300 
vt 4.49990 1.81050 
vt 4.49990 1.74800 
vt 0.00000 1.28020 
vt 4.99990 1.65620 
vt 4.87490 1.65620 
vt 3.99990 1.65620 
vt 0.12490 1.37300 
vt 0.87490 1.37300 
vt 5.49990 1.99800 
vt 3.49990 1.99800 
vt 0.99990 1.37300 
vt 0.00000 1.37300 
vt 5.24990 1.87300 
vt 3.74990 1.87300 
vt 5.24990 1.93550 
vt 3.74990 1.93550 
vt 4.99990 1.87300 
vt 3.99990 1.87300 
vt 5.24990 1.99800 
vt 3.74990 1.99800 
vt 4.24990 1.87300 
vt 4.74990 1.87300 
vt 4.99990 1.93550 
vt 3.99990 1.93550 
vt 4.49990 1.87300 
vt 4.74990 1.93550 
vt 4.24990 1.93550 
vt 4.99990 1.99800 
vt 3.99990 1.99800 
vt 4.49990 1.93550 
vt 4.74990 1.99800 
vt 4.24990 1.99800 
vt 4.49990 1.99800 
vt -0.00390 -0.99600 
vt -0.99600 -0.00390 
vt -0.99600 -0.99600 
vt -0.00390 -0.00390 
vt -0.99600 -0.00390 
vt -0.00390 -0.00390 
vt -0.99600 -0.99600 
vt -0.99600 -0.00390 
vt -0.99600 -0.99600 
vt -0.00390 -0.00390 
vt -0.99600 -0.00390 
vt -0.00390 -0.00390 
vt -0.99600 -0.99600 
vt 1.39770 1.97760 
vt 0.95480 1.24850 
vt 0.49990 2.39950 
vt 0.49990 1.36430 
vt -0.39770 1.97760 
vt 0.04510 1.24850 
vt 0.49990 3.04000 
vt -0.19180 2.95350 
vt 1.19180 2.95350 
vt -0.83640 2.69970 
vt 1.83640 2.69970 
vt -1.05500 1.35310 
vt -0.28770 0.93210 
vt 2.05500 1.35310 
vt 1.28770 0.93210 
vt -1.39000 2.29610 
vt 2.39000 2.29610 
vt -1.81480 1.77000 
vt 2.81480 1.77000 
vt -2.08190 1.15740 
vt 3.08190 1.15740 
vt 0.49990 0.50000 
vt -1.29550 0.50000 
vt -0.40960 0.50000 
vt 2.29550 0.50000 
vt 1.40960 0.50000 
vt -2.17290 0.50000 
vt 3.17290 0.50000 
vt -0.28770 0.06780 
vt 1.28770 0.06780 
vt -2.08190 -0.15740 
vt 3.08190 -0.15740 
vt 0.04510 -0.24850 
vt 0.95480 -0.24850 
vt -1.05500 -0.35310 
vt 2.05500 -0.35310 
vt 0.49990 -0.36430 
vt -1.81480 -0.77000 
vt 2.81480 -0.77000 
vt -1.39000 -1.29610 
vt 2.39000 -1.29610 
vt -0.39770 -0.97760 
vt 1.39770 -0.97760 
vt 1.83640 -1.69970 
vt -0.83640 -1.69970 
vt -0.19180 -1.95350 
vt 0.49990 -1.20620 
vt 1.19180 -1.95350 
vt 0.49990 -2.04000 
vt 0.24990 -0.00010 
vt 0.00000 -0.00010 
vt 0.24990 -0.50010 
vt 0.00000 -0.50010 
vt 0.24990 -1.00000 
vt 0.00000 -1.00000 
vt 0.37490 -0.75010 
vt 0.49990 -0.75010 
vt 0.37490 -1.24990 
vt 0.49990 -1.24990 
vt 0.49990 -0.26570 
vt 0.49990 -0.89070 
vt 0.37490 -0.26570 
vt 0.37490 -0.89070 
vt 0.49990 -0.75010 
vt 0.37490 -0.75010 
vt 0.49990 -0.26570 
vt 0.37490 -0.26570 
vt 0.37490 -1.24990 
vt 0.37490 -0.26570 
vt 0.49990 -1.24990 
vt 0.49990 -0.26570 
vt 0.49990 -0.75010 
vt 0.37490 -0.75010 
vt 0.49990 -0.26570 
vt 0.37490 -0.26570 
vt 0.37490 -0.95320 
vt 0.37490 -0.26570 
vt 0.49990 -0.95320 
vt 0.49990 -0.26570 
vt 0.00000 -1.21870 
vt 0.24990 -1.21870 
vt 0.00000 -0.50010 
vt 0.24990 -0.50010 
vt 0.37490 -0.39070 
vt 0.49990 -0.39070 
vt 0.37490 -1.24990 
vt 0.49990 -1.24990 
vt 0.24990 -0.42190 
vt 0.24990 0.15620 
vt 0.00000 -0.42190 
vt 0.00000 0.15620 
vt 0.24990 -0.90630 
vt 0.00000 -0.90630 

s 1

g Object_2

usemtl texture0

f 1/1 2/2 3/3
f 4/4 5/5 6/6
f 7/7 5/5 4/4
f 1/1 8/8 2/2
f 9/9 5/5 7/7
f 1/1 10/10 8/8
f 11/11 5/5 9/9
f 1/1 12/12 10/10
f 1/1 13/13 12/12
f 14/14 5/5 11/11
f 1/1 15/15 13/13
f 16/16 5/5 14/14
f 17/17 18/18 19/19
f 20/20 21/21 22/22
f 17/17 23/23 18/18
f 20/20 22/22 24/24
f 17/17 25/25 23/23
f 20/20 24/24 26/26
f 17/17 27/27 25/25
f 20/20 26/26 28/28
f 17/17 29/29 27/27
f 20/20 28/28 30/30
f 17/17 31/31 29/29
f 20/20 30/30 32/32
f 33/33 34/34 35/35
f 36/36 37/37 38/38
f 39/39 34/34 33/33
f 36/36 40/40 37/37
f 41/41 34/34 39/39
f 36/36 42/42 40/40
f 43/43 34/34 41/41
f 36/36 44/44 42/42
f 36/36 45/45 44/44
f 46/46 34/34 43/43
f 36/36 47/47 45/45
f 48/48 34/34 46/46
f 49/49 50/50 51/51
f 52/52 53/53 54/54
f 51/51 50/50 55/55
f 52/52 54/54 56/56
f 55/55 50/50 57/57
f 52/52 56/56 58/58
f 57/57 50/50 59/59
f 52/52 58/58 60/60
f 59/59 50/50 61/61
f 52/52 60/60 62/62
f 61/61 50/50 63/63
f 52/52 62/62 64/64
f 65/65 66/66 67/67
f 66/66 68/68 67/67
f 69/69 70/70 65/65
f 70/70 66/66 65/65
f 67/67 68/68 71/71
f 68/68 72/72 71/71
f 73/73 74/74 69/69
f 74/74 70/70 69/69
f 71/71 72/72 75/75
f 72/72 76/76 75/75
f 77/77 78/78 73/73
f 78/78 74/74 73/73
f 75/75 76/76 79/79
f 76/76 80/80 79/79
f 81/81 82/82 77/77
f 82/82 78/78 77/77
f 79/79 80/80 83/83
f 80/80 84/84 83/83
f 85/85 86/86 81/81
f 86/86 82/82 81/81
f 83/83 84/84 87/87
f 84/84 88/88 87/87
f 89/89 90/90 85/85
f 90/90 86/86 85/85
f 87/87 88/88 91/91
f 88/88 92/92 91/91
f 93/93 94/94 89/89
f 94/94 90/90 89/89
f 91/91 92/92 95/95
f 92/92 96/96 95/95
f 97/97 98/98 93/93
f 98/98 94/94 93/93
f 95/95 96/96 99/99
f 96/96 100/100 99/99
f 101/101 102/102 97/97
f 102/102 98/98 97/97
f 99/99 100/100 103/103
f 100/100 104/104 103/103
f 105/105 106/106 101/101
f 106/106 102/102 101/101
f 103/103 104/104 107/107
f 104/104 108/108 107/107
f 109/109 110/110 105/105
f 110/110 106/106 105/105
f 111/111 112/112 109/109
f 112/112 110/110 109/109
f 107/107 108/108 113/113
f 108/108 114/114 113/113

usemtl texture1

f 115/115 116/116 117/117
f 116/116 118/118 117/117
f 116/116 119/119 118/118
f 119/119 120/120 118/118
f 119/119 121/121 120/120
f 121/121 122/122 120/120
f 123/123 115/115 124/124
f 115/115 117/117 124/124
f 117/117 118/118 125/125
f 118/118 126/126 125/125
f 120/120 127/127 118/118
f 118/118 127/127 126/126
f 128/128 123/123 129/129
f 123/123 124/124 129/129
f 121/121 130/130 122/122
f 130/130 131/131 122/122
f 120/120 122/122 127/127
f 122/122 132/132 127/127
f 124/124 117/117 133/133
f 117/117 125/125 133/133
f 126/126 134/134 125/125
f 125/125 134/134 135/135
f 126/126 127/127 134/134
f 127/127 136/136 134/134
f 122/122 131/131 132/132
f 131/131 137/137 132/132
f 124/124 133/133 129/129
f 129/129 133/133 138/138
f 133/133 125/125 139/139
f 125/125 135/135 139/139
f 127/127 132/132 136/136
f 132/132 140/140 136/136
f 141/141 128/128 142/142
f 128/128 129/129 142/142
f 130/130 143/143 131/131
f 143/143 144/144 131/131
f 140/140 145/145 136/136
f 136/136 145/145 146/146
f 138/138 133/133 147/147
f 133/133 139/139 147/147
f 132/132 137/137 140/140
f 137/137 148/148 140/140
f 129/129 138/138 142/142
f 142/142 138/138 149/149
f 131/131 144/144 137/137
f 144/144 150/150 137/137
f 151/151 152/152 153/153
f 153/153 152/152 154/154
f 155/155 156/156 152/152
f 152/152 156/156 154/154
f 155/155 157/157 156/156
f 157/157 158/158 156/156
f 151/151 153/153 159/159
f 159/159 153/153 160/160
f 161/161 162/162 157/157
f 157/157 162/162 158/158
f 163/163 159/159 164/164
f 164/164 159/159 160/160
f 161/161 165/165 162/162
f 162/162 165/165 166/166
f 163/163 164/164 167/167
f 167/167 164/164 168/168
f 149/149 138/138 169/169
f 138/138 147/147 169/169
f 137/137 150/150 148/148
f 150/150 170/170 148/148
f 171/171 172/172 173/173
f 173/173 172/172 174/174
f 175/175 176/176 177/177
f 177/177 176/176 178/178
f 179/179 141/141 180/180
f 141/141 142/142 180/180
f 143/143 181/181 144/144
f 181/181 182/182 144/144
f 171/171 173/173 183/183
f 183/183 173/173 184/184
f 185/185 186/186 187/187
f 186/186 188/188 187/187
f 162/162 166/166 189/189
f 189/189 166/166 190/190
f 135/135 134/134 191/191
f 134/134 136/136 192/192
f 193/193 194/194 186/186
f 186/186 194/194 188/188
f 178/178 176/176 195/195
f 176/176 196/196 195/195
f 173/173 174/174 197/197
f 197/197 174/174 198/198
f 199/199 200/200 201/201
f 200/200 202/202 201/201
f 191/191 134/134 203/203
f 134/134 192/192 203/203
f 204/204 183/183 205/205
f 205/205 183/183 184/184
f 187/187 188/188 206/206
f 188/188 207/207 206/206
f 135/135 191/191 208/208
f 192/192 136/136 146/146
f 139/139 135/135 209/209
f 210/210 211/211 189/189
f 212/212 189/189 211/211
f 142/142 149/149 180/180
f 180/180 149/149 213/213
f 144/144 182/182 150/150
f 182/182 214/214 150/150
f 209/209 135/135 208/208
f 215/215 216/216 217/217
f 217/217 216/216 218/218
f 176/176 206/206 196/196
f 196/196 206/206 219/219
f 194/194 220/220 188/188
f 188/188 220/220 207/207
f 145/145 140/140 177/177
f 139/139 209/209 172/172
f 189/189 190/190 221/221
f 221/221 190/190 222/222
f 215/215 217/217 223/223
f 223/223 217/217 224/224
f 171/171 139/139 172/172
f 140/140 175/175 177/177
f 204/204 205/205 225/225
f 225/225 205/205 226/226
f 147/147 139/139 171/171
f 140/140 148/148 175/175
f 196/196 227/227 195/195
f 195/195 227/227 228/228
f 213/213 149/149 229/229
f 149/149 169/169 229/229
f 150/150 214/214 170/170
f 214/214 230/230 170/170
f 199/199 231/231 232/232
f 233/233 232/232 231/231
f 218/218 232/232 234/234
f 232/232 233/233 234/234
f 210/210 221/221 235/235
f 221/221 236/236 235/235
f 218/218 234/234 217/217
f 237/237 217/217 234/234
f 147/147 171/171 183/183
f 175/175 148/148 185/185
f 196/196 219/219 227/227
f 227/227 219/219 238/238
f 154/154 156/156 202/202
f 202/202 153/153 154/154
f 222/222 239/239 221/221
f 236/236 221/221 239/239
f 224/224 217/217 240/240
f 217/217 237/237 240/240
f 156/156 158/158 241/241
f 148/148 186/186 185/185
f 160/160 153/153 216/216
f 204/204 147/147 183/183
f 175/175 185/185 176/176
f 242/242 225/225 243/243
f 225/225 226/226 243/243
f 244/244 245/245 246/246
f 246/246 245/245 247/247
f 158/158 162/162 189/189
f 215/215 164/164 160/160
f 148/148 193/193 186/186
f 202/202 156/156 241/241
f 200/200 153/153 202/202
f 228/228 227/227 248/248
f 227/227 249/249 248/248
f 216/216 153/153 200/200
f 241/241 158/158 212/212
f 168/168 164/164 215/215
f 169/169 147/147 204/204
f 148/148 170/170 193/193
f 158/158 189/189 212/212
f 215/215 160/160 216/216
f 185/185 187/187 176/176
f 202/202 241/241 201/201
f 168/168 215/215 223/223
f 176/176 187/187 206/206
f 241/241 212/212 211/211
f 216/216 200/200 232/232
f 201/201 241/241 250/250
f 241/241 211/211 250/250
f 184/184 173/173 197/197
f 251/251 252/252 253/253
f 253/253 252/252 254/254
f 169/169 204/204 225/225
f 193/193 170/170 246/246
f 232/232 200/200 199/199
f 194/194 193/193 246/246
f 216/216 232/232 218/218
f 255/255 256/256 257/257
f 258/258 257/257 256/256
f 238/238 253/253 259/259
f 253/253 260/260 259/259
f 201/201 250/250 199/199
f 210/210 189/189 221/221
f 250/250 211/211 210/210
f 261/261 262/262 252/252
f 254/254 252/252 262/262
f 219/219 206/206 207/207
f 244/244 263/263 245/245
f 245/245 263/263 264/264
f 184/184 197/197 265/265
f 266/266 197/197 198/198
f 242/242 169/169 225/225
f 170/170 244/244 246/246
f 247/247 194/194 246/246
f 207/207 220/220 267/267
f 268/268 205/205 184/184
f 199/199 250/250 269/269
f 220/220 194/194 247/247
f 250/250 210/210 269/269
f 268/268 184/184 265/265
f 219/219 207/207 270/270
f 270/270 207/207 267/267
f 265/265 197/197 271/271
f 272/272 273/273 274/274
f 275/275 274/274 273/273
f 273/273 257/257 276/276
f 257/257 258/258 276/276
f 271/271 197/197 266/266
f 199/199 269/269 231/231
f 267/267 220/220 277/277
f 269/269 210/210 235/235
f 277/277 220/220 247/247
f 229/229 169/169 242/242
f 170/170 230/230 244/244
f 278/278 179/179 279/279
f 179/179 180/180 279/279
f 181/181 280/280 182/182
f 280/280 281/281 182/182
f 270/270 267/267 282/282
f 219/219 270/270 238/238
f 226/226 205/205 283/283
f 283/283 205/205 268/268
f 265/265 271/271 255/255
f 282/282 267/267 277/277
f 255/255 268/268 265/265
f 284/284 274/274 285/285
f 285/285 274/274 275/275
f 286/286 271/271 266/266
f 251/251 270/270 282/282
f 277/277 247/247 287/287
f 282/282 277/277 288/288
f 238/238 270/270 251/251
f 286/286 266/266 289/289
f 255/255 271/271 286/286
f 249/249 227/227 238/238
f 262/262 290/290 291/291
f 290/290 292/292 291/291
f 293/293 277/277 287/287
f 288/288 277/277 293/293
f 257/257 268/268 255/255
f 252/252 282/282 288/288
f 283/283 268/268 294/294
f 295/295 226/226 283/283
f 251/251 282/282 252/252
f 247/247 245/245 287/287
f 238/238 251/251 253/253
f 180/180 213/213 279/279
f 279/279 213/213 296/296
f 182/182 281/281 214/214
f 281/281 297/297 214/214
f 295/295 243/243 226/226
f 298/298 242/242 243/243
f 229/229 242/242 298/298
f 294/294 268/268 272/272
f 252/252 288/288 293/293
f 272/272 268/268 257/257
f 294/294 295/295 283/283
f 255/255 286/286 256/256
f 249/249 238/238 259/259
f 244/244 230/230 263/263
f 252/252 293/293 261/261
f 299/299 300/300 263/263
f 263/263 300/300 264/264
f 287/287 301/301 293/293
f 302/302 295/295 294/294
f 287/287 245/245 301/301
f 303/303 243/243 295/295
f 298/298 243/243 304/304
f 229/229 298/298 305/305
f 274/274 294/294 272/272
f 272/272 257/257 273/273
f 274/274 302/302 294/294
f 296/296 213/213 306/306
f 213/213 229/229 306/306
f 297/297 307/307 214/214
f 214/214 307/307 230/230
f 293/293 301/301 261/261
f 260/260 253/253 254/254
f 308/308 295/295 302/302
f 308/308 303/303 295/295
f 303/303 304/304 243/243
f 309/309 285/285 310/310
f 285/285 311/311 310/310
f 312/312 313/313 290/290
f 292/292 290/290 313/313
f 305/305 298/298 314/314
f 274/274 308/308 302/302
f 314/314 298/298 304/304
f 301/301 245/245 264/264
f 291/291 254/254 262/262
f 261/261 290/290 262/262
f 260/260 254/254 291/291
f 261/261 301/301 290/290
f 315/315 304/304 303/303
f 315/315 303/303 308/308
f 284/284 308/308 274/274
f 276/276 275/275 273/273
f 316/316 229/229 305/305
f 230/230 299/299 263/263
f 284/284 315/315 308/308
f 317/317 304/304 315/315
f 317/317 314/314 304/304
f 301/301 264/264 318/318
f 314/314 316/316 305/305
f 311/311 275/275 276/276
f 285/285 275/275 311/311
f 290/290 301/301 312/312
f 309/309 315/315 284/284
f 309/309 284/284 285/285
f 312/312 301/301 318/318
f 317/317 315/315 309/309
f 309/309 310/310 319/319
f 320/320 319/319 310/310
f 321/321 314/314 317/317
f 264/264 322/322 318/318
f 323/323 316/316 314/314
f 306/306 229/229 316/316
f 230/230 307/307 299/299
f 321/321 323/323 314/314
f 264/264 300/300 322/322
f 319/319 317/317 309/309
f 318/318 324/324 312/312
f 319/319 321/321 317/317
f 318/318 322/322 324/324
f 316/316 323/323 325/325
f 325/325 323/323 326/326
f 299/299 327/327 300/300
f 300/300 327/327 328/328
f 312/312 329/329 313/313
f 312/312 324/324 329/329
f 326/326 323/323 330/330
f 323/323 321/321 330/330
f 300/300 328/328 322/322
f 322/322 328/328 331/331
f 332/332 321/321 319/319
f 324/324 322/322 333/333
f 306/306 316/316 325/325
f 299/299 307/307 327/327
f 334/334 319/319 320/320
f 329/329 324/324 333/333
f 330/330 321/321 332/332
f 333/333 322/322 331/331
f 332/332 319/319 334/334
f 329/329 333/333 335/335
f 336/336 337/337 338/338
f 339/339 340/340 341/341
f 342/342 306/306 325/325
f 343/343 344/344 345/345
f 344/344 346/346 345/345
f 347/347 348/348 349/349
f 350/350 349/349 348/348
f 336/336 351/351 337/337
f 337/337 344/344 338/338
f 338/338 344/344 343/343
f 352/352 353/353 349/349
f 349/349 353/353 347/347
f 354/354 355/355 352/352
f 352/352 355/355 353/353
f 356/356 352/352 349/349
f 357/357 351/351 358/358
f 358/358 351/351 336/336
f 359/359 360/360 354/354
f 354/354 360/360 355/355
f 356/356 361/361 352/352
f 337/337 351/351 362/362
f 363/363 354/354 352/352
f 364/364 356/356 365/365
f 366/366 352/352 361/361
f 339/339 367/367 340/340
f 368/368 306/306 342/342
f 337/337 362/362 369/369
f 363/363 352/352 366/366
f 370/370 361/361 356/356
f 371/371 372/372 344/344
f 346/346 344/344 372/372
f 356/356 349/349 365/365
f 349/349 350/350 365/365
f 364/364 370/370 356/356
f 369/369 373/373 371/371
f 361/361 374/374 366/366
f 370/370 374/374 361/361
f 337/337 369/369 344/344
f 344/344 369/369 371/371
f 369/369 375/375 373/373
f 376/376 370/370 364/364
f 374/374 363/363 366/366
f 376/376 364/364 377/377
f 362/362 378/378 369/369
f 340/340 367/367 379/379
f 368/368 342/342 380/380
f 373/373 375/375 381/381
f 381/381 382/382 383/383
f 369/369 378/378 375/375
f 384/384 374/374 370/370
f 384/384 370/370 376/376
f 374/374 385/385 363/363
f 371/371 373/373 372/372
f 373/373 386/386 372/372
f 381/381 387/387 382/382
f 388/388 374/374 384/384
f 389/389 387/387 381/381
f 375/375 378/378 390/390
f 388/388 385/385 374/374
f 391/391 367/367 392/392
f 392/392 367/367 339/339
f 393/393 296/296 368/368
f 296/296 306/306 368/368
f 382/382 394/394 395/395
f 382/382 387/387 394/394
f 357/357 396/396 351/351
f 351/351 396/396 362/362
f 359/359 354/354 397/397
f 397/397 354/354 363/363
f 367/367 398/398 379/379
f 399/399 368/368 380/380
f 400/400 401/401 376/376
f 389/389 402/402 387/387
f 390/390 402/402 389/389
f 390/390 378/378 403/403
f 404/404 385/385 388/388
f 405/405 406/406 392/392
f 406/406 391/391 392/392
f 279/279 296/296 407/407
f 407/407 296/296 393/393
f 387/387 408/408 394/394
f 381/381 383/383 373/373
f 386/386 373/373 383/383
f 387/387 402/402 408/408
f 409/409 400/400 410/410
f 409/409 401/401 400/400
f 411/411 412/412 413/413
f 390/390 414/414 402/402
f 401/401 415/415 388/388
f 403/403 414/414 390/390
f 388/388 415/415 404/404
f 416/416 417/417 418/418
f 419/419 420/420 405/405
f 420/420 406/406 405/405
f 421/421 278/278 407/407
f 278/278 279/279 407/407
f 408/408 402/402 422/422
f 367/367 423/423 398/398
f 424/424 368/368 399/399
f 425/425 411/411 426/426
f 427/427 417/417 416/416
f 394/394 428/428 429/429
f 411/411 430/430 412/412
f 409/409 415/415 401/401
f 431/431 432/432 433/433
f 425/425 430/430 411/411
f 376/376 377/377 400/400
f 434/434 400/400 377/377
f 402/402 435/435 422/422
f 431/431 436/436 432/432
f 402/402 414/414 435/435
f 433/433 432/432 437/437
f 398/398 423/423 438/438
f 424/424 399/399 439/439
f 381/381 375/375 389/389
f 375/375 390/390 389/389
f 440/440 415/415 409/409
f 430/430 441/441 412/412
f 427/427 442/442 417/417
f 435/435 428/428 422/422
f 443/443 440/440 409/409
f 444/444 378/378 396/396
f 396/396 378/378 362/362
f 445/445 397/397 385/385
f 385/385 397/397 363/363
f 446/446 447/447 436/436
f 448/448 430/430 425/425
f 412/412 441/441 449/449
f 450/450 442/442 427/427
f 451/451 452/452 437/437
f 410/410 400/400 453/453
f 400/400 434/434 453/453
f 452/452 454/454 425/425
f 376/376 401/401 384/384
f 401/401 388/388 384/384
f 423/423 455/455 438/438
f 456/456 424/424 439/439
f 448/448 441/441 430/430
f 446/446 457/457 447/447
f 458/458 440/440 443/443
f 435/435 459/459 428/428
f 451/451 454/454 452/452
f 460/460 457/457 446/446
f 461/461 443/443 462/462
f 425/425 454/454 448/448
f 463/463 447/447 464/464
f 451/451 463/463 465/465
f 461/461 458/458 443/443
f 447/447 457/457 464/464
f 463/463 464/464 466/466
f 465/465 463/463 466/466
f 465/465 454/454 451/451
f 394/394 429/429 395/395
f 429/429 467/467 395/395
f 410/410 453/453 468/468
f 469/469 468/468 453/453
f 457/457 470/470 464/464
f 471/471 441/441 448/448
f 464/464 472/472 466/466
f 466/466 472/472 465/465
f 473/473 454/454 465/465
f 423/423 474/474 455/455
f 475/475 424/424 456/456
f 454/454 471/471 448/448
f 460/460 476/476 457/457
f 477/477 478/478 429/429
f 467/467 429/429 478/478
f 479/479 468/468 480/480
f 468/468 469/469 480/480
f 470/470 472/472 464/464
f 465/465 472/472 473/473
f 471/471 481/481 441/441
f 444/444 482/482 378/378
f 378/378 482/482 403/403
f 445/445 385/385 483/483
f 483/483 385/385 404/404
f 457/457 476/476 470/470
f 455/455 474/474 484/484
f 475/475 456/456 485/485
f 473/473 486/486 454/454
f 460/460 487/487 476/476
f 454/454 486/486 471/471
f 470/470 488/488 472/472
f 472/472 489/489 473/473
f 470/470 476/476 488/488
f 472/472 488/488 489/489
f 489/489 486/486 473/473
f 443/443 409/409 468/468
f 468/468 409/409 410/410
f 394/394 408/408 428/428
f 422/422 428/428 408/408
f 474/474 490/490 484/484
f 491/491 475/475 485/485
f 446/446 492/492 417/417
f 418/418 417/417 492/492
f 425/425 426/426 452/452
f 493/493 452/452 426/426
f 446/446 436/436 492/492
f 436/436 431/431 492/492
f 437/437 452/452 433/433
f 452/452 493/493 433/433
f 487/487 494/494 476/476
f 476/476 494/494 488/488
f 495/495 423/423 391/391
f 391/391 423/423 367/367
f 496/496 393/393 424/424
f 393/393 368/368 424/424
f 443/443 468/468 462/462
f 462/462 468/468 479/479
f 428/428 497/497 429/429
f 429/429 497/497 477/477
f 474/474 498/498 490/490
f 499/499 475/475 491/491
f 500/500 414/414 482/482
f 482/482 414/414 403/403
f 501/501 483/483 415/415
f 415/415 483/483 404/404
f 490/490 498/498 502/502
f 499/499 491/491 503/503
f 504/504 494/494 487/487
f 488/488 494/494 505/505
f 498/498 506/506 502/502
f 507/507 499/499 503/503
f 447/447 463/463 436/436
f 436/436 463/463 432/432
f 451/451 437/437 463/463
f 432/432 463/463 437/437
f 442/442 460/460 417/417
f 417/417 460/460 446/446
f 508/508 507/507 509/509
f 506/506 510/510 504/504
f 406/406 511/511 391/391
f 511/511 495/495 391/391
f 407/407 393/393 512/512
f 512/512 393/393 496/496
f 498/498 510/510 506/506
f 508/508 499/499 507/507
f 510/510 494/494 504/504
f 513/513 508/508 509/509
f 510/510 505/505 494/494
f 500/500 514/514 414/414
f 414/414 514/514 435/435
f 501/501 415/415 515/515
f 515/515 415/415 440/440
f 516/516 513/513 517/517
f 505/505 516/516 517/517
f 459/459 518/518 428/428
f 428/428 518/518 497/497
f 516/516 508/508 513/513
f 510/510 516/516 505/505
f 519/519 520/520 450/450
f 520/520 442/442 450/450
f 481/481 521/521 441/441
f 441/441 521/521 449/449
f 522/522 459/459 514/514
f 514/514 459/459 435/435
f 523/523 515/515 458/458
f 458/458 515/515 440/440
f 520/520 487/487 442/442
f 442/442 487/487 460/460
f 420/420 524/524 406/406
f 524/524 511/511 406/406
f 525/525 421/421 512/512
f 421/421 407/407 512/512
f 523/523 458/458 526/526
f 526/526 458/458 461/461
f 522/522 527/527 459/459
f 459/459 527/527 518/518
f 495/495 528/528 423/423
f 528/528 474/474 423/423
f 529/529 496/496 475/475
f 496/496 424/424 475/475
f 507/507 503/503 481/481
f 481/481 503/503 521/521
f 506/506 520/520 502/502
f 502/502 520/520 519/519
f 507/507 481/481 509/509
f 509/509 481/481 471/471
f 506/506 504/504 520/520
f 520/520 504/504 487/487
f 513/513 509/509 486/486
f 486/486 509/509 471/471
f 513/513 486/486 517/517
f 517/517 486/486 489/489
f 505/505 517/517 488/488
f 488/488 517/517 489/489
f 511/511 530/530 495/495
f 530/530 528/528 495/495
f 512/512 496/496 531/531
f 531/531 496/496 529/529
f 528/528 532/532 474/474
f 532/532 498/498 474/474
f 533/533 529/529 499/499
f 529/529 475/475 499/499
f 524/524 534/534 511/511
f 534/534 530/530 511/511
f 535/535 525/525 531/531
f 525/525 512/512 531/531
f 536/536 533/533 508/508
f 533/533 499/499 508/508
f 532/532 537/537 498/498
f 537/537 510/510 498/498
f 530/530 538/538 528/528
f 538/538 532/532 528/528
f 539/539 531/531 533/533
f 531/531 529/529 533/533
f 540/540 536/536 516/516
f 536/536 508/508 516/516
f 537/537 540/540 510/510
f 540/540 516/516 510/510
f 538/538 541/541 532/532
f 541/541 537/537 532/532
f 542/542 539/539 536/536
f 539/539 533/533 536/536
f 534/534 543/543 530/530
f 543/543 538/538 530/530
f 544/544 535/535 539/539
f 535/535 531/531 539/539
f 545/545 542/542 540/540
f 542/542 536/536 540/540
f 541/541 545/545 537/537
f 545/545 540/540 537/537
f 543/543 546/546 538/538
f 546/546 541/541 538/538
f 547/547 544/544 542/542
f 544/544 539/539 542/542
f 546/546 548/548 541/541
f 548/548 545/545 541/541
f 548/548 547/547 545/545
f 547/547 542/542 545/545

usemtl texture2

f 549/549 550/550 551/551
f 549/549 552/552 553/553
f 549/549 554/554 550/550
f 549/549 553/553 555/555
f 549/549 556/556 557/557
f 549/549 558/558 559/559
f 549/549 560/560 556/556
f 549/549 559/559 561/561

usemtl texture3

f 562/562 563/563 564/564
f 563/563 565/565 564/564
f 564/564 565/565 566/566
f 565/565 567/567 566/566
f 568/568 564/564 569/569
f 570/570 564/564 568/568
f 569/569 566/566 571/571
f 572/572 562/562 570/570
f 570/570 562/562 564/564
f 569/569 564/564 566/566
f 566/566 567/567 573/573
f 567/567 574/574 573/573
f 575/575 576/576 562/562
f 576/576 563/563 562/562
f 571/571 566/566 577/577
f 578/578 562/562 572/572
f 577/577 566/566 573/573
f 578/578 575/575 562/562
f 577/577 573/573 579/579
f 580/580 575/575 578/578
f 579/579 573/573 581/581
f 582/582 575/575 580/580
f 563/563 583/583 565/565
f 565/565 583/583 567/567
f 573/573 574/574 584/584
f 574/574 585/585 584/584
f 586/586 587/587 575/575
f 587/587 576/576 575/575
f 581/581 573/573 584/584
f 582/582 586/586 575/575
f 567/567 583/583 574/574
f 576/576 583/583 563/563
f 581/581 584/584 588/588
f 589/589 586/586 582/582
f 574/574 583/583 585/585
f 587/587 583/583 576/576
f 585/585 583/583 590/590
f 591/591 583/583 587/587
f 588/588 584/584 592/592
f 593/593 586/586 589/589
f 590/590 583/583 594/594
f 595/595 583/583 591/591
f 592/592 584/584 596/596
f 593/593 597/597 586/586
f 584/584 585/585 596/596
f 585/585 590/590 596/596
f 597/597 591/591 586/586
f 591/591 587/587 586/586
f 594/594 583/583 598/598
f 598/598 583/583 595/595
f 592/592 596/596 599/599
f 600/600 597/597 593/593
f 599/599 596/596 601/601
f 602/602 597/597 600/600
f 601/601 596/596 603/603
f 602/602 604/604 597/597
f 605/605 604/604 602/602
f 601/601 603/603 606/606
f 596/596 590/590 603/603
f 590/590 594/594 603/603
f 604/604 595/595 597/597
f 595/595 591/591 597/597
f 607/607 603/603 608/608
f 609/609 608/608 604/604
f 606/606 603/603 607/607
f 609/609 604/604 605/605
f 610/610 608/608 609/609
f 607/607 608/608 610/610
f 603/603 594/594 608/608
f 594/594 598/598 608/608
f 608/608 598/598 604/604
f 598/598 595/595 604/604

usemtl texture4

f 611/611 612/612 613/613
f 614/614 613/613 612/612
f 613/613 614/614 615/615
f 616/616 615/615 614/614
f 617/617 618/618 619/619
f 620/620 619/619 618/618
f 621/621 622/622 623/623
f 622/622 624/624 623/623
f 625/625 626/626 627/627
f 626/626 628/628 627/627
f 629/629 630/630 631/631
f 631/631 630/630 632/632
f 633/633 634/634 635/635
f 634/634 636/636 635/635
f 637/637 638/638 639/639
f 639/639 638/638 640/640
f 641/641 642/642 643/643
f 642/642 644/644 643/643
f 645/645 646/646 647/647
f 648/648 647/647 646/646
f 649/649 650/650 651/651
f 651/651 650/650 652/652
f 653/653 649/649 654/654
f 654/654 649/649 651/651

