# Object Export From Tinkercad Server 2015

mtllib obj.mtl

o obj_0
v 12 		-19.848 		1.736
v 2.923 		-13.304 		2.588
v 4.34 		-3.572 		0
v 3.635 		-14.83 		2.588
v 3.17 		-13.214 		3.42
v 12 		-19.962 		0.872
v 5.572 		-2.34 		0
v 7 		-1.34 		0
v 15.215 		-8.829 		9.399
v 8.58 		-19.397 		0
v 14.963 		-8.289 		9.399
v 8.593 		-19.361 		0.872
v 3.862 		-14.698 		3.42
v 14.433 		-9.114 		9.662
v 3.34 		-5 		0
v 2.603 		-6.58 		0
v 18.964 		-8.772 		7.071
v 10.264 		-19.848 		0
v 12 		-20 		0
v 7.076 		-4.132 		6.428
v 2.746 		-13.368 		1.736
v 8.17 		-16.634 		6.428
v 3.471 		-14.924 		1.736
v 14.589 		-10 		9.662
v 8.825 		-9.873 		9.4732
v 7.904 		-17.094 		5.736
v 14.55 		-9.55 		9.662
v 18.33 		-8.884 		7.66
v 7.67 		-17.5 		5
v 2.639 		-13.407 		0.872
v 19.544 		-8.67 		6.428
v 3.373 		-14.981 		0.872
v 2 		-10 		0
v 2.152 		-11.736 		0
v 7.468 		-17.849 		4.226
v 2.152 		-8.264 		0
v 2.603 		-13.42 		0
v 13.505 		-9.131 		9.85
v 3.34 		-15 		0
v 7.302 		-18.138 		3.42
v 7 		-18.66 		0
v 5.572 		-17.66 		0
v 13.331 		-8.883 		9.85
v 4.34 		-16.428 		0
v 6.61 		-8.038 		8.192
v 6.433 		-16.634 		5
v 7.17 		-18.365 		2.588
v 6.735 		-3.725 		5.736
v 14.243 		-8.705 		9.662
v 6.174 		-16.943 		4.226
v 13.984 		-8.335 		9.662
v 6.433 		-3.366 		5
v 7.076 		-18.529 		1.736
v 6.174 		-3.057 		4.226
v 5.96 		-17.198 		3.42
v 5.791 		-17.399 		2.588
v 7.019 		-18.627 		0.872
v 12.299 		-9.18 		9.964
v 6.998 		-6.099 		7.713
v 5.67 		-17.544 		1.736
v 13.117 		-8.669 		9.85
v 6.583 		-5.455 		7.071
v 4.369 		-16.403 		0.872
v 17 		-1.34 		0
v 18.428 		-2.34 		0
v 12.869 		-8.495 		9.85
v 5.597 		-17.631 		0.872
v 19.66 		-3.572 		0
v 20.66 		-5 		0
v 21.397 		-6.58 		0
v 6.132 		-5.076 		6.428
v 12.595 		-8.367 		9.85
v 21.848 		-11.736 		0
v 21.848 		-8.264 		0
v 22 		-10 		0
v 21.397 		-13.42 		0
v 12.302 		-8.289 		9.85
v 20.66 		-15 		0
v 13.736 		-0.152 		0
v 15.42 		-0.603 		0
v 10.264 		-0.152 		0
v 12 		0 		0
v 8.58 		-0.603 		0
v 17 		-18.66 		0
v 19.66 		-16.428 		0
v 18.428 		-17.66 		0
v 6.433 		-6.786 		7.66
v 13.736 		-19.848 		0
v 15.42 		-19.397 		0
v 19.544 		-3.67 		1.736
v 13.737 		-10 		9.85
v 18.33 		-2.456 		1.736
v 16.924 		-1.471 		1.736
v 5.96 		-7.802 		7.66
v 19.631 		-3.597 		0.872
v 16.545 		-15.417 		7.071
v 13.711 		-9.698 		9.85
v 18.403 		-2.369 		0.872
v 16.981 		-1.373 		0.872
v 16.924 		-15.868 		6.428
v 13.633 		-9.405 		9.85
v 5.876 		-6.464 		7.071
v 5.355 		-7.582 		7.071
v 17.265 		-16.275 		5.736
v 18.275 		-15.265 		5.736
v 5.366 		-6.17 		6.428
v 18.634 		-15.567 		5
v 21.254 		-6.632 		1.736
v 4.802 		-7.38 		6.428
v 20.529 		-5.076 		1.736
v 18.943 		-15.826 		4.226
v 21.361 		-6.593 		0.872
v 5.725 		-4.735 		5.736
v 4.906 		-5.904 		5.736
v 12.859 		-10.151 		9.964
v 20.627 		-5.019 		0.872
v 4.302 		-7.198 		5.736
v 12.872 		-10 		9.964
v 19.198 		-16.04 		3.42
v 12.859 		-9.848 		9.964
v 19.399 		-16.209 		2.588
v 12.82 		-9.701 		9.964
v 12.755 		-9.564 		9.964
v 19.544 		-16.33 		1.736
v 12.668 		-9.439 		9.964
v 12.561 		-9.332 		9.964
v 5.366 		-4.433 		5
v 12.436 		-9.245 		9.964
v 4.5 		-5.67 		5
v 21.698 		-11.71 		1.736
v 12.996 		-15.649 		8.192
v 7.302 		-1.862 		3.42
v 13.962 		-15.39 		8.192
v 5.057 		-4.174 		4.226
v 4.151 		-5.468 		4.226
v 14.417 		-15.003 		8.2929
v 7.17 		-1.635 		2.588
v 12 		-15 		8.66
v 14.433 		-10.885 		9.662
v 10.038 		-15.39 		8.192
v 14.55 		-10.449 		9.662
v 21.848 		-10 		1.736
v 11.004 		-15.649 		8.192
v 12 		-15.736 		8.192
v 21.698 		-8.29 		1.736
v 14.966 		-11.7036 		9.399
v 15.05 		-11.2 		9.4424
v 12.9907 		-5.2751 		8.747
v 13.1355 		-5.1455 		8.662
v 13.4104 		-4.8996 		8.4645
v 13.7886 		-4.5613 		8.193
v 13.116 		-16.33 		7.66
v 21.811 		-11.73 		0.872
v 12.3966 		-5.8065 		9.065
v 14.198 		-16.04 		7.66
v 12.8043 		-5.4418 		8.8565
v 21.962 		-10 		0.872
v 13.331 		-11.116 		9.85
v 13.505 		-10.868 		9.85
v 15.214 		-15.567 		7.66
v 21.811 		-8.27 		0.872
v 13.633 		-10.594 		9.85
v 12.5717 		-5.6499 		8.9755
v 13.711 		-10.301 		9.85
v 12.1666 		-6.0123 		9.1585
v 15.536 		-16.124 		7.071
v 12 		-6.1613 		9.2264
v 19.003 		-9.5 		1.998
v 11.7813 		-6.357 		9.2995
v 20.529 		-14.924 		1.736
v 14.3735 		-4.038 		7.661
v 21.254 		-13.368 		1.736
v 12.299 		-10.819 		9.964
v 12.436 		-10.755 		9.964
v 12.561 		-10.667 		9.964
v 3.862 		-7.038 		5
v 12.668 		-10.56 		9.964
v 12.755 		-10.436 		9.964
v 12.82 		-10.298 		9.964
v 20.627 		-14.981 		0.872
v 3.483 		-6.9 		4.226
v 8.786 		-15.567 		7.66
v 21.361 		-13.407 		0.872
v 9.802 		-16.04 		7.66
v 10.884 		-16.33 		7.66
v 5.96 		-2.802 		3.42
v 4.802 		-3.96 		3.42
v 5.791 		-2.601 		2.588
v 15.368 		-0.746 		1.736
v 13.984 		-11.664 		9.662
v 8.464 		-16.124 		7.071
v 4.601 		-3.791 		2.588
v 14.243 		-11.294 		9.662
v 13.71 		-0.302 		1.736
v 5.67 		-2.456 		1.736
v 4.456 		-3.67 		1.736
v 14.417 		-15.003 		1.998
v 12.302 		-11.71 		9.85
v 5.597 		-2.369 		0.872
v 4.369 		-3.597 		0.872
v 7.455 		-15.417 		7.071
v 15.407 		-0.639 		0.872
v 12.595 		-11.632 		9.85
v 21.513 		-11.677 		2.588
v 13.73 		-0.189 		0.872
v 7.076 		-15.868 		6.428
v 12.869 		-11.504 		9.85
v 13.117 		-11.33 		9.85
v 20.83 		-13.214 		3.42
v 17.567 		-16.634 		5
v 14.417 		-3.998 		1.998
v 16.532 		-17.849 		4.226
v 21.077 		-13.304 		2.588
v 12.152 		-9.141 		9.964
v 12 		-0.152 		1.736
v 17.826 		-16.943 		4.226
v 12 		-9.128 		9.964
v 11.849 		-9.141 		9.964
v 11.702 		-9.18 		9.964
v 10.29 		-0.302 		1.736
v 12 		-8.263 		9.85
v 8.632 		-0.746 		1.736
v 16.698 		-18.138 		3.42
v 12 		-0.038 		0.872
v 11.699 		-8.289 		9.85
v 20.138 		-14.698 		3.42
v 14.416 		-4 		7.6127
v 10.27 		-0.189 		0.872
v 8.593 		-0.639 		0.872
v 11.406 		-8.367 		9.85
v 14.0725 		-4.3073 		7.9473
v 13.862 		-4.4956 		8.1295
v 8.3615 		-10.6415 		9.2857
v 14.2945 		-4.1087 		7.7361
v 20.365 		-14.83 		2.588
v 8.6005 		-10.2453 		9.399
v 14.8883 		-12.1761 		9.3108
v 15.66 		-12.113 		9.063
v 19.003 		-9.5 		7.0934
v 14.416 		-4 		2
v 14.9656 		-11.7121 		9.3953
v 17.6228 		-8.9063 		8.192
v 18.7026 		-9.3708 		7.3582
v 18.1886 		-9.1497 		7.7866
v 14.7199 		-5.8213 		8.662
v 17.7916 		-8.9789 		8.0806
v 14.501 		-5.668 		8.662
v 17.6737 		-8.9282 		8.1584
v 20.192 		-10 		5.736
v 14.9662 		-11.7089 		9.3956
v 9.05 		-9.5 		2
v 14.651 		-5.4084 		8.4709
v 7.9814 		-11.2717 		9.065
v 14.5643 		-4.8887 		8.193
v 7.8344 		-11.5155 		8.9579
v 20.067 		-8.578 		5.736
v 7.4821 		-12.0997 		8.662
v 13.446 		-6.027 		9.065
v 12.735 		-5.836 		9.065
v 13.711 		-5.3 		8.662
v 14.717 		-13.237 		9.063
v 14.7123 		-13.2315 		9.066
v 14.7117 		-13.2355 		9.0648
v 14.7107 		-13.2414 		9.063
v 15.237 		-12.717 		9.063
v 14.8521 		-12.3932 		9.2714
v 7.0262 		-12.8556 		8.193
v 7.0403 		-12.8322 		8.2075
v 14.6276 		-13.7395 		8.8746
v 15.214 		-13.83 		8.66
v 14.5331 		-14.3069 		8.66
v 21.397 		-10 		3.42
v 15.83 		-13.214 		8.66
v 18.04 		-17.198 		3.42
v 21.254 		-8.368 		3.42
v 16.33 		-12.5 		8.66
v 7 		-12.899 		8.1591
v 7.0116 		-12.8798 		8.1749
v 21.659 		-10 		2.588
v 16.83 		-18.365 		2.588
v 21.513 		-8.323 		2.588
v 14.5289 		-14.3316 		8.6486
v 18.209 		-17.399 		2.588
v 7 		-12.899 		2
v 10.29 		-12.962 		9.397
v 10.6397 		-12.356 		9.6172
v 10.3162 		-12.4044 		9.5462
v 16.924 		-18.529 		1.736
v 10.7191 		-12.3441 		9.6312
v 10.83 		-13.214 		9.397
v 14.4396 		-14.8675 		8.3651
v 14.868 		-14.967 		8.192
v 18.33 		-17.544 		1.736
v 14.5227 		-14.3692 		8.6312
v 15.687 		-14.394 		8.192
v 16.981 		-18.627 		0.872
v 14.7217 		-5.8252 		8.66
v 18.403 		-17.631 		0.872
v 15.687 		-5.606 		8.192
v 19.631 		-16.403 		0.872
v 16.132 		-14.924 		7.66
v 14.868 		-5.033 		8.192
v 14.6519 		-5.407 		8.4668
v 14.5661 		-4.892 		8.192
v 13.228 		-16.964 		7.071
v 14.965 		-11.7095 		9.3983
v 14.9647 		-11.711 		9.3982
v 3.862 		-5.302 		3.42
v 14.418 		-16.645 		7.071
v 3.17 		-6.786 		3.42
v 14.887 		-12.177 		9.3137
v 13.33 		-17.544 		6.428
v 3.635 		-5.17 		2.588
v 14.62 		-17.198 		6.428
v 2.923 		-6.696 		2.588
v 15.83 		-16.634 		6.428
v 14.5274 		-14.3324 		8.6516
v 14.7113 		-13.23 		9.0693
v 14.7103 		-13.2359 		9.0676
v 14.7089 		-13.2444 		9.065
v 14.8511 		-12.3919 		9.2746
v 11.132 		-8.495 		9.85
v 3.471 		-5.076 		1.736
v 14.5311 		-14.3099 		8.662
v 14.6262 		-13.7401 		8.8775
v 10.884 		-8.669 		9.85
v 2.746 		-6.632 		1.736
v 10.67 		-8.883 		9.85
v 10.496 		-9.131 		9.85
v 13.422 		-18.067 		5.736
v 14.802 		-17.698 		5.736
v 14.5216 		-14.3668 		8.6357
v 3.373 		-5.019 		0.872
v 14.4379 		-14.8689 		8.3676
v 14.416 		-15 		8.2974
v 16.096 		-17.094 		5.736
v 2.639 		-6.593 		0.872
v 13.504 		-18.529 		5
v 14.962 		-18.138 		5
v 14.416 		-15 		2
v 14.621 		-12.199 		9.399
v 16.33 		-17.5 		5
v 14.963 		-11.71 		9.399
v 6.998 		-6.099 		1.998
v 13.574 		-18.925 		4.226
v 7 		-10 		8.66
v 15.1 		-18.517 		4.226
v 11.565 		-9.245 		9.964
v 6.264 		-10 		8.192
v 11.44 		-9.332 		9.964
v 13.665 		-11.983 		9.662
v 11.333 		-9.439 		9.964
v 6.351 		-9.004 		8.192
v 6.351 		-10.996 		8.192
v 6.61 		-11.962 		8.192
v 5.572 		-10 		7.66
v 12 		-16.428 		7.66
v 13.295 		-12.242 		9.662
v 9.582 		-16.645 		7.071
v 10.772 		-16.964 		7.071
v 5.67 		-8.884 		7.66
v 15.66 		-7.887 		9.063
v 15.4863 		-7.9873 		9.1461
v 15.5912 		-8.0324 		9.1145
v 15.7619 		-8.1058 		9.063
v 14.9983 		-7.4838 		9.1922
v 15.051 		-7.8 		9.2497
v 15.0911 		-7.8172 		9.2402
v 15.237 		-7.283 		9.063
v 14.9103 		-6.9563 		9.063
v 12 		-17.071 		7.071
v 16.33 		-7.5 		8.66
v 4.929 		-10 		7.071
v 5.036 		-8.772 		7.071
v 15.83 		-6.786 		8.66
v 14.8514 		-6.6027 		8.9541
v 15.214 		-6.17 		8.66
v 9.38 		-17.198 		6.428
v 4.34 		-10 		6.428
v 10.67 		-17.544 		6.428
v 12 		-17.66 		6.428
v 4.456 		-8.67 		6.428
v 11.341 		-6.749 		1.998
v 15.051 		-7.8 		1.998
v 14.4286 		-4.0673 		7.66
v 7.076 		-1.471 		1.736
v 15.536 		-3.876 		7.071
v 5.67 		-11.116 		7.66
v 14.417 		-3.998 		7.6067
v 5.96 		-12.198 		7.66
v 14.418 		-3.355 		7.071
v 7.019 		-1.373 		0.872
v 5.036 		-11.228 		7.071
v 9.198 		-17.698 		5.736
v 15.83 		-3.366 		6.428
v 14.62 		-2.802 		6.428
v 10.578 		-18.067 		5.736
v 15.051 		-11.2 		1.998
v 12 		-18.192 		5.736
v 11.341 		-12.251 		1.998
v 4.456 		-11.33 		6.428
v 9.048 		-9.5 		1.998
v 9.038 		-18.138 		5
v 10.496 		-18.529 		5
v 12 		-18.66 		5
v 16.096 		-2.906 		5.736
v 14.802 		-2.302 		5.736
v 15.05 		-7.8 		2
v 8.9 		-18.517 		4.226
v 11.342 		-6.75 		2
v 7 		-6.101 		2
v 16.33 		-2.5 		5
v 10.426 		-18.925 		4.226
v 3.808 		-10 		5.736
v 3.933 		-11.422 		5.736
v 11.342 		-12.25 		2
v 12 		-19.063 		4.226
v 14.962 		-1.862 		5
v 19 		-9.5 		2
v 15.05 		-11.2 		2
v 3.933 		-8.578 		5.736
v 3.471 		-11.504 		5
v 17.39 		-8.038 		8.192
v 15.1 		-1.483 		4.226
v 3.34 		-10 		5
v 16.967 		-7.132 		8.192
v 16.394 		-6.313 		8.192
v 3.471 		-8.496 		5
v 17.265 		-3.725 		5.736
v 13.632 		-19.254 		3.42
v 17.567 		-3.366 		5
v 15.214 		-18.83 		3.42
v 2.937 		-10 		4.226
v 3.075 		-11.574 		4.226
v 17.826 		-3.057 		4.226
v 16.532 		-2.151 		4.226
v 16.132 		-5.076 		7.66
v 13.677 		-19.513 		2.588
v 15.214 		-4.433 		7.66
v 15.304 		-19.077 		2.588
v 3.075 		-8.426 		4.226
v 14.4881 		-4.4247 		7.8904
v 20.517 		-6.9 		4.226
v 13.71 		-19.698 		1.736
v 16.924 		-5.868 		7.66
v 15.368 		-19.254 		1.736
v 17.417 		-5.455 		7.071
v 6.433 		-13.214 		7.66
v 15.214 		-1.17 		3.42
v 13.73 		-19.811 		0.872
v 16.545 		-4.583 		7.071
v 17.868 		-5.076 		6.428
v 15.407 		-19.361 		0.872
v 16.924 		-4.132 		6.428
v 15.304 		-0.923 		2.588
v 11.342 		-12.25 		9.714
v 18.04 		-7.802 		7.66
v 17.567 		-6.786 		7.66
v 16.0776 		-8.2416 		8.9433
v 14.501 		-14.331 		8.662
v 18.645 		-7.582 		7.071
v 18.124 		-6.464 		7.071
v 12.45 		-12.549 		9.662
v 12.886 		-12.432 		9.662
v 12 		-10 		10.003
v 14.8503 		-6.6031 		8.9577
v 14.9974 		-7.4845 		9.1956
v 15.05 		-7.8 		9.2528
v 6.998 		-12.901 		8.1553
v 12.595 		-13.369 		9.399
v 14.9084 		-6.9514 		9.065
v 12.593 		-13.3692 		9.399
v 13.171 		-13.215 		9.399
v 13.711 		-12.963 		9.399
v 5.355 		-12.418 		7.071
v 14.4265 		-4.0628 		7.661
v 5.876 		-13.536 		7.071
v 14.2 		-12.62 		9.399
v 12.5954 		-13.3713 		9.398
v 14.4852 		-4.4149 		7.8878
v 13.3082 		-14.009 		9.065
v 13.446 		-13.972 		9.065
v 14.114 		-13.661 		9.065
v 4.802 		-12.62 		6.428
v 5.366 		-13.83 		6.428
v 12.3929 		-5.8083 		9.063
v 13.5325 		-14.2096 		8.9335
v 12.9887 		-5.2754 		8.7443
v 13.1323 		-5.147 		8.66
v 12.868 		-5.076 		8.66
v 12.8039 		-5.4407 		8.8529
v 12.5695 		-5.6502 		8.9727
v 13.4083 		-4.9001 		8.4622
v 13.7856 		-4.5627 		8.192
v 12.996 		-4.351 		8.192
v 13.9539 		-14.5866 		8.662
v 14.2103 		-14.816 		8.4598
v 11.5681 		-12.4522 		9.6837
v 12 		-5.774 		9.063
v 12.1649 		-6.0122 		9.1557
v 11.5304 		-12.4185 		9.6888
v 11.6901 		-12.5614 		9.662
v 12 		-12.589 		9.662
v 11.266 		-5.838 		9.063
v 6.583 		-14.545 		7.071
v 12 		-12.8386 		9.5831
v 6.132 		-14.924 		6.428
v 12 		-5 		8.66
v 11.132 		-5.076 		8.66
v 4.302 		-12.802 		5.736
v 10.29 		-5.302 		8.66
v 8.786 		-18.83 		3.42
v 4.906 		-14.096 		5.736
v 10.368 		-19.254 		3.42
v 5.725 		-15.265 		5.736
v 12 		-19.397 		3.42
v 12 		-4.264 		8.192
v 11.004 		-4.351 		8.192
v 6.735 		-16.275 		5.736
v 10.038 		-4.61 		8.192
v 8.696 		-19.077 		2.588
v 9.132 		-5.033 		8.192
v 11.1177 		-12.2835 		9.6921
v 19.198 		-7.38 		6.428
v 11.172 		-12.2754 		9.6988
v 12 		-6.1596 		9.2228
v 11.7794 		-6.357 		9.2966
v 18.634 		-6.17 		6.428
v 10.8738 		-12.32 		9.662
v 14.37 		-4.0401 		7.66
v 14.198 		-3.96 		7.66
v 10.555 		-13.971 		9.063
v 13.116 		-3.67 		7.66
v 11.266 		-14.162 		9.063
v 16.924 		-10.868 		8.66
v 13.228 		-3.036 		7.071
v 16.9671 		-10.3758 		8.66
v 17.649 		-10.996 		8.192
v 19.698 		-7.198 		5.736
v 17.7319 		-10.0468 		8.192
v 17.6655 		-10.0753 		8.2326
v 9.9349 		-12.4614 		9.4622
v 9.6814 		-12.4994 		9.397
v 19.094 		-5.904 		5.736
v 9.802 		-12.62 		9.397
v 8.763 		-12.717 		9.063
v 8.8789 		-12.6195 		9.1258
v 8.7858 		-12.6334 		9.0907
v 13.33 		-2.456 		6.428
v 8.7122 		-12.6444 		9.063
v 9.283 		-13.237 		9.063
v 9.887 		-13.66 		9.063
v 18.275 		-4.735 		5.736
v 17.8407 		-10 		8.1115
v 18.428 		-10 		7.66
v 20.138 		-7.038 		5
v 8.2472 		-12.714 		8.843
v 18.4066 		-9.7565 		7.66
v 8.786 		-13.83 		8.66
v 13.422 		-1.933 		5.736
v 19.5 		-5.67 		5
v 9.5 		-14.33 		8.66
v 18.634 		-4.433 		5
v 19.071 		-10 		7.071
v 13.504 		-1.471 		5
v 18.5638 		-9.6889 		7.5108
v 19.66 		-10 		6.428
v 19.849 		-5.468 		4.226
v 18.943 		-4.174 		4.226
v 13.574 		-1.075 		4.226
v 10.29 		-14.698 		8.66
v 11.132 		-14.924 		8.66
v 18.33 		-11.116 		7.66
v 12 		-3.572 		7.66
v 19.198 		-3.96 		3.42
v 18.04 		-2.802 		3.42
v 10.884 		-3.67 		7.66
v 16.698 		-1.862 		3.42
v 19.399 		-3.791 		2.588
v 8.313 		-14.394 		8.192
v 12 		-2.929 		7.071
v 18.209 		-2.601 		2.588
v 9.132 		-14.967 		8.192
v 16.83 		-1.635 		2.588
v 10.772 		-3.036 		7.071
v 12 		-2.34 		6.428
v 10.67 		-2.456 		6.428
v 10.323 		-19.513 		2.588
v 20.83 		-6.786 		3.42
v 20.138 		-5.302 		3.42
v 8.17 		-13.214 		8.66
v 7.8604 		-12.7719 		8.66
v 12 		-19.659 		2.588
v 7.6537 		-12.8029 		8.5406
v 7.606 		-13.687 		8.192
v 7.0506 		-12.8931 		8.192
v 7.0339 		-12.8956 		8.1804
v 7.076 		-14.132 		7.66
v 21.077 		-6.696 		2.588
v 20.365 		-5.17 		2.588
v 9.802 		-3.96 		7.66
v 7.868 		-14.924 		7.66
v 9.582 		-3.355 		7.071
v 8.632 		-19.254 		1.736
v 8.464 		-3.876 		7.071
v 10.29 		-19.698 		1.736
v 10.6409 		-12.3548 		9.6209
v 10.3163 		-12.4033 		9.5492
v 10.7189 		-12.3431 		9.6347
v 9.38 		-2.802 		6.428
v 10.27 		-19.811 		0.872
v 9.9351 		-12.4603 		9.4649
v 9.6795 		-12.4985 		9.399
v 16.4231 		-8.3902 		8.8124
v 16.6009 		-8.4667 		8.733
v 16.698 		-8.29 		8.66
v 16.7643 		-8.537 		8.66
v 8.8801 		-12.618 		9.1288
v 8.7852 		-12.6322 		9.0931
v 8.7104 		-12.6433 		9.065
v 17.1135 		-8.6872 		8.4697
v 8.2465 		-12.7127 		8.8457
v 20.66 		-10 		5
v 20.529 		-8.496 		5
v 12 		-1.808 		5.736
v 21.063 		-10 		4.226
v 13.963 		-4.608 		8.193
v 20.925 		-8.426 		4.226
v 10.578 		-1.933 		5.736
v 9.198 		-2.302 		5.736
v 15.0815 		-11.1869 		9.4327
v 15.051 		-11.2 		9.4397
v 14.9682 		-11.6967 		9.397
v 15.214 		-11.17 		9.397
v 14.718 		-6.761 		9.065
v 15.1635 		-11.1516 		9.4139
v 18.3598 		-9.2233 		7.66
v 15.2261 		-11.1247 		9.397
v 12 		-1.34 		5
v 13.711 		-7.037 		9.399
v 15.971 		-11.445 		9.063
v 10.496 		-1.471 		5
v 13.171 		-6.785 		9.399
v 16.1424 		-10.7305 		9.0713
v 12.595 		-6.63 		9.399
v 16.162 		-10.734 		9.063
v 9.038 		-1.862 		5
v 14.114 		-6.338 		9.065
v 16.1631 		-10.7216 		9.063
v 4.5 		-14.33 		5
v 5.366 		-15.567 		5
v 12 		-0.937 		4.226
v 10.426 		-1.075 		4.226
v 4.151 		-14.532 		4.226
v 16.1887 		-10.7106 		9.0502
v 5.057 		-15.826 		4.226
v 8.9 		-1.483 		4.226
v 14.2 		-7.379 		9.399
v 17.7341 		-10.0448 		8.193
v 17.6704 		-10.0722 		8.232
v 3.862 		-12.962 		5
v 16.9692 		-10.374 		8.662
v 3.483 		-13.1 		4.226
v 19 		-9.5 		7.0985
v 18.5667 		-9.6865 		7.5105
v 14.2917 		-4.1101 		7.7344
v 17.8382 		-10 		8.1159
v 14.0723 		-4.3063 		7.9435
v 18.4087 		-9.7545 		7.661
v 13.8597 		-4.4964 		8.1277
v 2.746 		-11.632 		3.42
v 2.603 		-10 		3.42
v 7.8583 		-12.7707 		8.662
v 8.786 		-4.433 		7.66
v 2.746 		-8.368 		3.42
v 7.6528 		-12.8014 		8.543
v 7.0486 		-12.8917 		8.193
v 16.1652 		-10.72 		9.065
v 16.1418 		-10.7301 		9.0743
v 7.0329 		-12.8941 		8.182
v 15.1634 		-11.1512 		9.4163
v 15.0796 		-11.1873 		9.4357
v 2.487 		-11.677 		2.588
v 15.2275 		-11.1236 		9.399
v 2.341 		-10 		2.588
v 2.487 		-8.323 		2.588
v 13.632 		-0.746 		3.42
v 8.7484 		-10 		9.4526
v 9.05 		-9.5 		9.534
v 10.336 		-11.983 		9.662
v 16.1942 		-10.7076 		9.0505
v 13.677 		-0.487 		2.588
v 2.152 		-10 		1.736
v 2.302 		-11.71 		1.736
v 9.451 		-10.449 		9.662
v 2.302 		-8.29 		1.736
v 12 		-0.603 		3.42
v 17.002 		-10 		8.662
v 9.568 		-10.885 		9.662
v 10.368 		-0.746 		3.42
v 2.189 		-11.73 		0.872
v 16.926 		-9.131 		8.662
v 2.038 		-10 		0.872
v 8.786 		-1.17 		3.42
v 16.4218 		-8.3904 		8.8162
v 16.6018 		-8.4679 		8.7358
v 8.631 		-10.594 		9.399
v 16.7671 		-8.539 		8.662
v 8.785 		-11.17 		9.399
v 2.189 		-8.27 		0.872
v 17.738 		-10 		8.193
v 12 		-0.341 		2.588
v 17.651 		-9.003 		8.193
v 10.323 		-0.487 		2.588
v 17.1145 		-8.6885 		8.4723
v 17.6257 		-8.9085 		8.193
v 8.696 		-0.923 		2.588
v 9.758 		-11.294 		9.662
v 17.7889 		-8.9787 		8.0855
v 18.19 		-9.1514 		7.7888
v 10.017 		-11.664 		9.662
v 18.3628 		-9.2257 		7.661
v 17.6749 		-8.9297 		8.1606
v 4.802 		-16.04 		3.42
v 9.037 		-11.71 		9.399
v 18.7037 		-9.3725 		7.3598
v 4.601 		-16.209 		2.588
v 15.5922 		-8.0333 		9.1172
v 9.38 		-12.199 		9.399
v 15.7653 		-8.1078 		9.065
v 4.456 		-16.33 		1.736
v 15.973 		-8.554 		9.065
v 8.339 		-12.113 		9.065
v 8.17 		-3.366 		6.428
v 16.0789 		-8.2428 		8.9461
v 15.422 		-10 		9.399
v 6.998 		-12.901 		1.998
v 7.904 		-2.906 		5.736
v 15.37 		-9.405 		9.399
v 7.67 		-2.5 		5
v 16.228 		-10 		9.065
v 8.028 		-11.445 		9.065
v 16.164 		-9.265 		9.065
v 7.468 		-2.151 		4.226
v 7.669 		-12.5 		8.662
v 7.032 		-12.868 		8.193
v 15.37 		-10.594 		9.399
v 8.9356 		-9.3104 		9.4845
v 9.0359 		-9.4766 		9.5289
v 14.621 		-7.8 		9.399
v 15.4858 		-7.9876 		9.1492
v 15.0921 		-7.8181 		9.2428
v 11.341 		-12.251 		9.711
v 13.665 		-8.016 		9.662
v 11.1177 		-12.2844 		9.6891
v 13.295 		-7.757 		9.662
v 11.1716 		-12.2764 		9.6958
v 12.886 		-7.567 		9.662
v 12.5899 		-13.3684 		9.397
v 12.45 		-7.45 		9.662
v 12.5948 		-13.3728 		9.395
v 12.734 		-14.162 		9.063
v 13.3054 		-14.0085 		9.063
v 12 		-6.578 		9.399
v 13.5328 		-14.212 		8.9294
v 11.4344 		-6.6673 		9.4116
v 11.4838 		-6.6232 		9.399
v 11.4156 		-6.6842 		9.4164
v 11.342 		-6.75 		9.4305
v 12 		-7.411 		9.662
v 12.868 		-14.924 		8.66
v 10.555 		-6.029 		9.063
v 11.551 		-7.45 		9.662
v 13.71 		-14.698 		8.66
v 13.9507 		-14.5859 		8.66
v 11.115 		-7.567 		9.662
v 9.5 		-5.67 		8.66
v 10.706 		-7.757 		9.662
v 14.2045 		-14.8129 		8.4602
v 10.336 		-8.016 		9.662
v 8.313 		-5.606 		8.192
v 10.8763 		-12.3206 		9.659
v 11.115 		-12.432 		9.659
v 11.4327 		-6.667 		9.4088
v 11.479 		-6.6256 		9.397
v 11.406 		-6.632 		9.397
v 11.551 		-12.549 		9.659
v 11.5677 		-12.4538 		9.6804
v 11.5307 		-12.4207 		9.6854
v 11.415 		-6.6828 		9.4133
v 11.1021 		-6.7133 		9.397
v 11.341 		-6.749 		9.4274
v 11.6873 		-12.5608 		9.659
v 10.7864 		-6.666 		9.344
v 10.479 		-6.62 		9.2727
v 12 		-12.8406 		9.5795
v 9.887 		-6.34 		9.063
v 10.0079 		-6.5495 		9.1632
v 11.406 		-13.368 		9.397
v 9.6618 		-6.4977 		9.063
v 8.786 		-6.17 		8.66
v 8.9744 		-6.3948 		8.8128
v 12 		-13.42 		9.397
v 8.615 		-6.341 		8.66
v 12 		-14.226 		9.063
v 7.713 		-6.206 		8.192
v 7.868 		-5.076 		7.66
v 7.076 		-5.868 		7.66
v 7.455 		-4.583 		7.071
v 7.4277 		-6.1633 		8.013
v 11.0965 		-6.7133 		9.399
v 10.7872 		-6.6671 		9.347
v 10.4864 		-6.6221 		9.2773
v 11.129 		-10 		9.964
v 11.142 		-10.151 		9.964
v 11.245 		-9.564 		9.964
v 11.181 		-9.701 		9.964
v 11.142 		-9.848 		9.964
v 10.263 		-10 		9.85
v 10.0097 		-6.5509 		9.1667
v 9.6581 		-6.4983 		9.065
v 8.9769 		-6.3965 		8.8173
v 8.6114 		-6.3419 		8.662
v 10.368 		-9.405 		9.85
v 10.29 		-9.698 		9.85
v 10.017 		-8.335 		9.662
v 9.758 		-8.705 		9.662
v 9.568 		-9.114 		9.662
v 7.7098 		-6.2071 		8.193
v 8.0491 		-6.2578 		8.3695
v 7 		-6.101 		7.7175
v 7.4308 		-6.1654 		8.0181
v 9.411 		-10 		9.662
v 9.451 		-9.55 		9.662
v 8.2248 		-8.1344 		9.063
v 7.824 		-7.4694 		8.7168
v 7.7627 		-7.3676 		8.66
v 11.333 		-10.56 		9.964
v 7.67 		-7.5 		8.66
v 11.44 		-10.667 		9.964
v 7.9346 		-7.6528 		8.8192
v 11.565 		-10.755 		9.964
v 8.1259 		-7.9701 		8.9799
v 11.702 		-10.819 		9.964
v 16.698 		-11.71 		8.66
v 11.849 		-10.858 		9.964
v 12 		-10.871 		9.964
v 7.5296 		-6.9809 		8.3964
v 7.3487 		-6.6808 		8.192
v 7.033 		-7.132 		8.192
v 12.152 		-10.858 		9.964
v 16.394 		-13.687 		8.192
v 16.967 		-12.868 		8.192
v 7.2207 		-6.4684 		8.0172
v 17.39 		-11.962 		8.192
v 20.529 		-11.504 		5
v 11.181 		-10.298 		9.964
v 11.245 		-10.436 		9.964
v 8.7424 		-8.993 		9.397
v 10.29 		-10.301 		9.85
v 10.368 		-10.594 		9.85
v 8.417 		-8.4531 		9.1914
v 20.925 		-11.574 		4.226
v 10.496 		-10.868 		9.85
v 8.6044 		-8.764 		9.3169
v 10.67 		-11.116 		9.85
v 8.6749 		-8.8811 		9.3579
v 18.04 		-12.198 		7.66
v 11.406 		-11.632 		9.85
v 11.699 		-11.71 		9.85
v 12 		-11.737 		9.85
v 8.029 		-8.555 		9.063
v 18.964 		-11.228 		7.071
v 7.838 		-9.266 		9.063
v 19.544 		-11.33 		6.428
v 10.884 		-11.33 		9.85
v 11.132 		-11.504 		9.85
v 7.302 		-8.29 		8.66
v 10.706 		-12.242 		9.662
v 7.076 		-9.132 		8.66
v 20.067 		-11.422 		5.736
v 20.517 		-13.1 		4.226
v 8.2247 		-8.1316 		9.065
v 16.924 		-14.132 		7.66
v 17.567 		-13.214 		7.66
v 7.7626 		-7.3654 		8.662
v 7.8245 		-7.4681 		8.7194
v 7.5298 		-6.9795 		8.3984
v 7.3484 		-6.6787 		8.193
v 7.9363 		-7.6534 		8.8228
v 18.124 		-13.536 		7.071
v 8.1263 		-7.9685 		8.9825
v 18.645 		-12.418 		7.071
v 18.634 		-13.83 		6.428
v 19.198 		-12.62 		6.428
v 7.2207 		-6.467 		8.0187
v 8.7421 		-8.9895 		9.399
v 8.4177 		-8.4517 		9.194
v 17.417 		-14.545 		7.071
v 17.868 		-14.924 		6.428
v 8.6061 		-8.764 		9.3201
v 8.6756 		-8.8793 		9.3605
v 19.094 		-14.096 		5.736
v 19.698 		-12.802 		5.736
v 19.5 		-14.33 		5
v 10.83 		-6.785 		9.399
v 20.138 		-12.962 		5
v 10.29 		-7.037 		9.399
v 9.801 		-7.379 		9.399
v 9.38 		-7.8 		9.399
v 19.849 		-14.532 		4.226
v 9.283 		-6.761 		9.065
v 8.762 		-7.282 		9.065
v 8.339 		-7.886 		9.065
v 21.254 		-11.632 		3.42
v 8.169 		-6.785 		8.662
v 7.605 		-6.312 		8.193
v 9.037 		-8.289 		9.399
v 8.785 		-8.829 		9.399
v 8.7466 		-10 		9.4495
v 8.58 		-10 		9.397
v 8.9346 		-9.3119 		9.4817
v 8.632 		-9.406 		9.397
v 9.0343 		-9.4772 		9.5257
v 8.8217 		-9.8754 		9.4697
v 9.048 		-9.5 		9.5306
v 8.6011 		-10.2414 		9.397
v 8.3596 		-10.642 		9.2824
v 7.774 		-10 		9.063
v 7.838 		-10.734 		9.063
v 7.9817 		-11.269 		9.063
v 7.076 		-10.868 		8.66
v 7.8324 		-11.5167 		8.954
v 7.302 		-11.71 		8.66
v 7.4824 		-12.0973 		8.66
v 7.0264 		-12.8539 		8.192
v 7.0425 		-12.8272 		8.2085
v 7.0098 		-12.8813 		8.1715
# 938 vertices

g group_0_15277357

usemtl color_15277357
s 0

f 2 	4 	5
f 5 	4 	13
f 12 	10 	18
f 12 	18 	611
f 3 	74 	15
f 6 	19 	88
f 23 	4 	2
f 21 	23 	2
f 23 	731 	4
f 394 	22 	26
f 30 	21 	694
f 30 	32 	21
f 8 	74 	7
f 21 	32 	23
f 15 	74 	16
f 36 	16 	74
f 33 	36 	74
f 37 	34 	74
f 37 	39 	30
f 34 	33 	74
f 39 	37 	74
f 30 	39 	32
f 47 	56 	53
f 35 	29 	46
f 46 	50 	35
f 113 	48 	127
f 52 	127 	48
f 50 	40 	35
f 54 	134 	52
f 50 	55 	40
f 53 	57 	12
f 55 	47 	40
f 47 	55 	56
f 731 	60 	56
f 808 	87 	59
f 57 	10 	12
f 56 	60 	53
f 57 	41 	10
f 731 	63 	60
f 67 	60 	63
f 65 	68 	64
f 60 	67 	57
f 70 	8 	69
f 60 	57 	53
f 78 	85 	73
f 75 	73 	84
f 71 	106 	62
f 67 	63 	42
f 44 	42 	63
f 71 	114 	106
f 67 	42 	41
f 73 	76 	78
f 41 	57 	67
f 84 	74 	75
f 80 	64 	69
f 68 	69 	64
f 82 	69 	81
f 42 	74 	41
f 44 	74 	42
f 18 	10 	74
f 79 	69 	82
f 80 	69 	79
f 84 	73 	86
f 81 	69 	83
f 8 	83 	69
f 85 	86 	73
f 8 	70 	74
f 44 	39 	74
f 19 	18 	74
f 7 	74 	3
f 88 	74 	89
f 88 	19 	74
f 74 	84 	89
f 93 	582 	92
f 41 	74 	10
f 102 	103 	87
f 850 	94 	45
f 90 	95 	92
f 98 	92 	95
f 98 	99 	92
f 103 	94 	87
f 100 	900 	96
f 92 	99 	93
f 102 	87 	808
f 99 	202 	93
f 900 	100 	105
f 104 	105 	100
f 62 	102 	808
f 68 	95 	116
f 95 	68 	98
f 65 	98 	68
f 98 	65 	64
f 98 	64 	99
f 107 	105 	210
f 105 	104 	210
f 106 	102 	62
f 102 	109 	103
f 106 	109 	102
f 210 	216 	107
f 106 	117 	109
f 116 	110 	108
f 48 	113 	71
f 113 	114 	71
f 108 	112 	116
f 274 	119 	111
f 112 	69 	116
f 114 	117 	106
f 110 	95 	90
f 110 	116 	95
f 69 	112 	70
f 127 	129 	113
f 68 	116 	69
f 113 	129 	114
f 176 	114 	129
f 20 	71 	62
f 48 	71 	20
f 127 	52 	134
f 127 	135 	129
f 134 	135 	127
f 137 	188 	132
f 136 	779 	133
f 292 	136 	133
f 134 	308 	135
f 137 	132 	704
f 131 	138 	144
f 131 	155 	133
f 131 	152 	155
f 130 	153 	157
f 130 	157 	142
f 133 	160 	292
f 142 	161 	145
f 133 	155 	160
f 142 	157 	161
f 145 	161 	112
f 145 	112 	108
f 183 	73 	153
f 153 	75 	157
f 153 	73 	75
f 157 	75 	74
f 157 	74 	161
f 166 	160 	155
f 161 	70 	112
f 96 	160 	166
f 161 	74 	70
f 100 	96 	166
f 301 	160 	96
f 121 	124 	170
f 96 	884 	301
f 170 	183 	172
f 114 	176 	117
f 130 	172 	153
f 124 	300 	180
f 129 	181 	176
f 180 	170 	124
f 135 	181 	129
f 183 	170 	180
f 153 	172 	183
f 300 	78 	180
f 180 	76 	183
f 181 	135 	310
f 140 	184 	185
f 180 	78 	76
f 184 	360 	185
f 183 	76 	73
f 140 	185 	143
f 143 	357 	144
f 143 	185 	357
f 187 	134 	186
f 144 	152 	131
f 93 	202 	189
f 132 	188 	186
f 188 	192 	187
f 188 	187 	186
f 182 	359 	184
f 182 	191 	359
f 188 	137 	195
f 189 	205 	194
f 195 	192 	188
f 360 	184 	359
f 192 	195 	196
f 196 	195 	200
f 199 	200 	195
f 201 	507 	206
f 201 	206 	22
f 205 	189 	202
f 205 	224 	194
f 79 	205 	202
f 22 	191 	201
f 206 	26 	22
f 99 	80 	202
f 64 	80 	99
f 80 	79 	202
f 100 	316 	104
f 209 	213 	204
f 212 	274 	216
f 692 	194 	215
f 215 	220 	712
f 111 	107 	216
f 209 	204 	915
f 235 	170 	172
f 172 	213 	235
f 216 	274 	111
f 213 	172 	130
f 213 	130 	204
f 224 	215 	194
f 228 	220 	215
f 226 	111 	119
f 224 	228 	215
f 228 	229 	220
f 213 	209 	226
f 119 	235 	226
f 119 	121 	235
f 226 	235 	213
f 235 	121 	170
f 241 	237 	238
f 637 	384 	243
f 246 	384 	244
f 248 	384 	246
f 238 	641 	241
f 263 	262 	398
f 250 	398 	241
f 261 	262 	263
f 263 	264 	261
f 266 	262 	265
f 261 	265 	262
f 168 	398 	239
f 237 	266 	238
f 265 	238 	266
f 243 	384 	239
f 264 	269 	270
f 264 	270 	261
f 269 	271 	270
f 223 	274 	212
f 265 	261 	273
f 270 	273 	261
f 265 	273 	276
f 223 	283 	274
f 265 	276 	238
f 272 	281 	275
f 280 	223 	432
f 272 	279 	281
f 270 	271 	295
f 282 	295 	271
f 283 	223 	280
f 280 	288 	293
f 293 	283 	280
f 119 	274 	121
f 283 	121 	274
f 131 	771 	138
f 295 	852 	270
f 285 	286 	287
f 279 	145 	281
f 293 	124 	283
f 285 	290 	286
f 289 	286 	290
f 269 	398 	271
f 237 	398 	266
f 262 	266 	398
f 136 	292 	291
f 145 	279 	142
f 291 	294 	398
f 292 	294 	291
f 292 	295 	294
f 282 	294 	295
f 121 	283 	124
f 294 	282 	398
f 282 	271 	398
f 446 	296 	288
f 288 	298 	293
f 303 	384 	297
f 288 	296 	298
f 292 	160 	301
f 124 	293 	300
f 298 	300 	293
f 392 	7 	199
f 392 	8 	7
f 292 	301 	295
f 3 	200 	7
f 302 	304 	303
f 7 	200 	199
f 301 	884 	295
f 296 	86 	298
f 296 	84 	86
f 85 	300 	86
f 300 	298 	86
f 300 	85 	78
f 3 	15 	200
f 264 	398 	269
f 136 	291 	398
f 54 	186 	134
f 305 	152 	357
f 152 	305 	309
f 187 	308 	134
f 310 	135 	308
f 305 	312 	314
f 305 	314 	309
f 152 	309 	155
f 309 	166 	155
f 371 	312 	305
f 187 	313 	308
f 192 	313 	187
f 312 	331 	314
f 312 	330 	331
f 308 	315 	310
f 309 	314 	316
f 313 	315 	308
f 309 	316 	166
f 100 	166 	316
f 192 	323 	313
f 196 	323 	192
f 323 	327 	313
f 333 	337 	323
f 336 	104 	316
f 327 	315 	313
f 327 	696 	315
f 337 	327 	323
f 333 	196 	200
f 200 	15 	333
f 314 	331 	336
f 196 	333 	323
f 314 	336 	316
f 399 	338 	330
f 333 	16 	337
f 330 	338 	339
f 15 	16 	333
f 330 	339 	331
f 331 	342 	336
f 331 	339 	342
f 336 	210 	104
f 336 	342 	210
f 810 	59 	383
f 405 	345 	338
f 338 	347 	339
f 349 	354 	346
f 338 	345 	347
f 339 	347 	212
f 342 	339 	212
f 342 	212 	216
f 342 	216 	210
f 345 	430 	432
f 345 	432 	347
f 349 	356 	388
f 152 	144 	357
f 304 	384 	303
f 45 	94 	361
f 362 	363 	364
f 364 	365 	362
f 361 	353 	45
f 366 	367 	368
f 366 	368 	369
f 353 	356 	349
f 368 	363 	369
f 362 	369 	363
f 185 	360 	371
f 369 	370 	366
f 361 	356 	353
f 360 	381 	371
f 360 	380 	381
f 374 	361 	94
f 357 	185 	371
f 365 	372 	362
f 220 	229 	222
f 362 	375 	369
f 372 	375 	362
f 357 	371 	305
f 94 	103 	374
f 374 	373 	361
f 377 	376 	375
f 375 	376 	370
f 375 	370 	369
f 359 	191 	378
f 376 	377 	297
f 361 	373 	356
f 22 	378 	191
f 205 	82 	224
f 359 	380 	360
f 297 	377 	303
f 302 	303 	377
f 359 	378 	380
f 82 	205 	79
f 82 	81 	224
f 224 	81 	228
f 372 	427 	375
f 426 	427 	372
f 83 	229 	228
f 371 	381 	312
f 81 	83 	228
f 374 	103 	382
f 377 	375 	299
f 427 	299 	375
f 103 	109 	382
f 374 	379 	373
f 299 	302 	377
f 382 	379 	374
f 370 	384 	366
f 376 	384 	370
f 297 	384 	376
f 383 	398 	384
f 378 	394 	397
f 383 	384 	211
f 378 	397 	380
f 388 	354 	349
f 386 	195 	137
f 354 	390 	355
f 388 	390 	354
f 229 	392 	222
f 381 	399 	330
f 381 	330 	312
f 386 	222 	392
f 386 	199 	195
f 356 	393 	388
f 392 	199 	386
f 22 	394 	378
f 83 	8 	229
f 356 	373 	393
f 229 	8 	392
f 393 	475 	388
f 387 	396 	391
f 395 	396 	387
f 394 	404 	397
f 403 	404 	394
f 383 	344 	402
f 388 	475 	390
f 380 	399 	381
f 136 	398 	197
f 379 	401 	373
f 380 	397 	399
f 26 	29 	403
f 401 	393 	373
f 242 	384 	248
f 403 	394 	26
f 398 	383 	400
f 402 	400 	383
f 384 	398 	168
f 400 	197 	398
f 397 	404 	405
f 397 	405 	399
f 395 	407 	396
f 379 	382 	414
f 399 	405 	338
f 406 	407 	395
f 415 	401 	379
f 409 	403 	29
f 415 	510 	401
f 35 	409 	29
f 403 	409 	413
f 109 	421 	382
f 403 	413 	404
f 415 	379 	414
f 404 	417 	405
f 412 	418 	406
f 414 	422 	415
f 414 	425 	422
f 404 	413 	417
f 405 	417 	345
f 406 	418 	407
f 109 	117 	421
f 421 	414 	382
f 412 	424 	418
f 422 	661 	415
f 436 	424 	412
f 616 	426 	372
f 413 	514 	516
f 413 	516 	417
f 428 	421 	117
f 428 	117 	176
f 428 	425 	421
f 417 	430 	345
f 417 	516 	430
f 421 	425 	414
f 431 	412 	429
f 425 	433 	434
f 429 	412 	406
f 223 	212 	347
f 347 	432 	223
f 425 	434 	422
f 431 	436 	412
f 435 	436 	431
f 427 	445 	299
f 437 	299 	445
f 439 	302 	299
f 176 	181 	441
f 430 	440 	432
f 437 	439 	299
f 435 	578 	436
f 439 	385 	442
f 439 	442 	302
f 176 	441 	428
f 576 	578 	435
f 430 	438 	440
f 428 	433 	425
f 391 	389 	439
f 441 	433 	428
f 432 	440 	280
f 302 	442 	304
f 445 	451 	437
f 437 	387 	439
f 451 	387 	437
f 385 	439 	389
f 387 	391 	439
f 438 	446 	440
f 395 	387 	451
f 438 	444 	446
f 368 	384 	363
f 288 	280 	440
f 442 	384 	304
f 389 	384 	385
f 442 	385 	384
f 440 	446 	288
f 578 	449 	436
f 447 	451 	445
f 450 	444 	1
f 436 	449 	424
f 1 	6 	450
f 444 	450 	453
f 451 	447 	454
f 452 	454 	447
f 455 	449 	578
f 454 	395 	451
f 444 	453 	446
f 455 	692 	449
f 446 	453 	296
f 453 	89 	84
f 453 	84 	296
f 93 	189 	584
f 452 	553 	454
f 584 	189 	455
f 454 	406 	395
f 189 	194 	455
f 429 	406 	454
f 457 	423 	242
f 458 	426 	423
f 389 	211 	384
f 168 	239 	384
f 367 	384 	368
f 457 	458 	423
f 367 	366 	384
f 458 	445 	426
f 459 	365 	384
f 365 	459 	372
f 364 	384 	365
f 427 	426 	445
f 617 	384 	621
f 363 	384 	364
f 28 	461 	457
f 461 	462 	457
f 524 	528 	461
f 462 	458 	457
f 936 	355 	938
f 448 	938 	355
f 355 	390 	448
f 448 	469 	938
f 475 	477 	390
f 448 	390 	477
f 448 	477 	505
f 393 	401 	484
f 484 	475 	393
f 475 	484 	485
f 488 	489 	490
f 490 	491 	488
f 475 	485 	477
f 490 	508 	491
f 485 	507 	477
f 493 	494 	495
f 489 	493 	495
f 489 	495 	490
f 492 	383 	491
f 500 	486 	499
f 448 	505 	598
f 505 	201 	598
f 527 	526 	504
f 477 	507 	505
f 499 	486 	508
f 462 	447 	458
f 492 	508 	486
f 6 	88 	450
f 492 	491 	508
f 515 	507 	485
f 89 	453 	450
f 508 	509 	499
f 519 	206 	515
f 507 	515 	206
f 508 	518 	509
f 26 	206 	519
f 89 	450 	88
f 499 	509 	504
f 484 	401 	510
f 35 	40 	512
f 513 	484 	510
f 409 	35 	512
f 509 	511 	504
f 510 	650 	513
f 413 	409 	514
f 520 	511 	509
f 484 	513 	485
f 409 	512 	514
f 513 	515 	485
f 495 	517 	490
f 513 	651 	515
f 490 	517 	508
f 514 	593 	516
f 517 	518 	508
f 521 	512 	40
f 518 	520 	509
f 415 	661 	510
f 528 	462 	461
f 520 	522 	511
f 290 	285 	532
f 511 	522 	777
f 458 	447 	445
f 17 	31 	524
f 500 	383 	486
f 499 	526 	500
f 786 	785 	504
f 17 	524 	461
f 499 	504 	526
f 527 	383 	526
f 530 	389 	531
f 289 	400 	286
f 462 	452 	447
f 462 	528 	452
f 670 	668 	533
f 531 	533 	668
f 534 	290 	532
f 391 	531 	389
f 544 	528 	524
f 528 	544 	553
f 531 	536 	533
f 553 	452 	528
f 532 	571 	572
f 391 	536 	531
f 31 	539 	524
f 532 	572 	534
f 536 	581 	533
f 538 	540 	541
f 538 	541 	535
f 539 	31 	256
f 542 	543 	545
f 535 	541 	537
f 524 	539 	544
f 287 	542 	285
f 545 	285 	542
f 539 	561 	544
f 546 	547 	548
f 549 	536 	391
f 548 	550 	546
f 391 	396 	549
f 545 	543 	551
f 543 	547 	551
f 546 	551 	547
f 545 	551 	552
f 544 	563 	553
f 545 	552 	285
f 429 	454 	553
f 552 	532 	285
f 540 	538 	554
f 557 	591 	550
f 666 	668 	383
f 555 	558 	554
f 556 	539 	256
f 551 	546 	559
f 560 	396 	407
f 555 	566 	558
f 591 	559 	546
f 396 	560 	549
f 561 	539 	556
f 551 	559 	562
f 563 	544 	561
f 560 	625 	549
f 563 	431 	553
f 429 	553 	431
f 551 	562 	552
f 565 	560 	407
f 17 	239 	564
f 564 	566 	555
f 407 	418 	565
f 556 	443 	568
f 565 	639 	560
f 556 	568 	561
f 559 	591 	595
f 561 	568 	569
f 564 	567 	31
f 418 	424 	570
f 559 	583 	562
f 561 	569 	563
f 418 	570 	565
f 564 	31 	17
f 431 	563 	435
f 569 	435 	563
f 543 	400 	547
f 548 	400 	550
f 547 	400 	548
f 287 	286 	400
f 571 	532 	552
f 256 	567 	249
f 552 	562 	571
f 567 	256 	31
f 554 	558 	398
f 558 	566 	398
f 855 	573 	538
f 575 	576 	569
f 555 	554 	538
f 138 	534 	572
f 573 	555 	538
f 580 	559 	595
f 579 	582 	576
f 579 	576 	575
f 583 	559 	580
f 573 	564 	555
f 576 	584 	578
f 533 	581 	574
f 582 	584 	576
f 574 	585 	577
f 584 	455 	578
f 562 	140 	571
f 581 	585 	574
f 583 	140 	562
f 585 	603 	577
f 90 	92 	579
f 571 	140 	143
f 571 	143 	572
f 572 	143 	144
f 572 	144 	138
f 541 	540 	398
f 586 	581 	536
f 580 	595 	602
f 582 	579 	92
f 567 	875 	249
f 536 	549 	586
f 582 	93 	584
f 580 	182 	583
f 586 	587 	581
f 875 	881 	249
f 602 	182 	580
f 583 	182 	184
f 40 	47 	521
f 512 	521 	588
f 583 	184 	140
f 542 	287 	400
f 557 	550 	400
f 590 	568 	443
f 581 	587 	585
f 543 	542 	400
f 443 	589 	590
f 546 	550 	591
f 588 	514 	512
f 592 	591 	557
f 593 	514 	588
f 592 	594 	595
f 592 	595 	591
f 568 	590 	575
f 594 	596 	595
f 557 	400 	592
f 516 	438 	430
f 579 	575 	590
f 448 	598 	469
f 597 	469 	598
f 516 	593 	438
f 569 	568 	575
f 625 	586 	549
f 597 	400 	469
f 576 	435 	569
f 596 	597 	598
f 596 	598 	595
f 599 	589 	275
f 602 	595 	598
f 629 	587 	586
f 275 	281 	599
f 589 	599 	600
f 594 	400 	596
f 596 	400 	597
f 1 	444 	593
f 589 	600 	590
f 201 	602 	598
f 593 	444 	438
f 590 	600 	579
f 602 	191 	182
f 47 	53 	604
f 602 	201 	191
f 505 	507 	201
f 577 	603 	601
f 594 	592 	400
f 603 	605 	601
f 47 	604 	521
f 521 	604 	606
f 281 	108 	599
f 521 	606 	588
f 281 	145 	108
f 588 	1 	593
f 588 	606 	1
f 110 	600 	599
f 587 	610 	585
f 599 	108 	110
f 53 	12 	604
f 600 	110 	90
f 611 	606 	604
f 585 	610 	603
f 600 	90 	579
f 614 	615 	616
f 615 	617 	616
f 12 	611 	604
f 614 	372 	459
f 616 	372 	614
f 606 	611 	6
f 617 	423 	616
f 611 	19 	6
f 621 	423 	617
f 18 	19 	611
f 423 	621 	242
f 606 	6 	1
f 423 	426 	616
f 610 	587 	630
f 621 	384 	242
f 615 	614 	384
f 615 	384 	617
f 459 	384 	614
f 881 	623 	249
f 249 	624 	256
f 249 	623 	624
f 540 	554 	398
f 537 	541 	398
f 556 	256 	624
f 623 	626 	628
f 625 	629 	586
f 204 	142 	279
f 623 	628 	624
f 624 	443 	556
f 204 	130 	142
f 628 	443 	624
f 566 	239 	398
f 631 	632 	633
f 631 	633 	634
f 626 	275 	628
f 630 	587 	629
f 250 	641 	633
f 626 	272 	275
f 632 	398 	633
f 628 	275 	589
f 647 	630 	629
f 628 	589 	443
f 244 	637 	28
f 634 	636 	631
f 634 	638 	636
f 244 	384 	637
f 246 	244 	28
f 242 	248 	457
f 638 	398 	636
f 248 	246 	457
f 28 	457 	246
f 639 	625 	560
f 250 	241 	641
f 28 	637 	17
f 243 	17 	637
f 625 	642 	629
f 634 	633 	641
f 566 	564 	239
f 639 	642 	625
f 17 	243 	239
f 642 	647 	629
f 634 	646 	644
f 634 	644 	638
f 17 	461 	28
f 642 	657 	647
f 634 	641 	646
f 646 	649 	644
f 510 	661 	650
f 650 	651 	513
f 515 	651 	519
f 565 	652 	639
f 46 	519 	651
f 519 	46 	29
f 565 	570 	652
f 519 	29 	26
f 652 	653 	639
f 845 	535 	641
f 641 	535 	646
f 646 	655 	649
f 639 	653 	642
f 654 	656 	650
f 537 	655 	535
f 646 	535 	655
f 237 	241 	398
f 633 	398 	250
f 264 	263 	398
f 724 	656 	654
f 650 	656 	651
f 653 	657 	642
f 398 	632 	631
f 398 	631 	636
f 398 	638 	644
f 644 	649 	398
f 398 	649 	655
f 656 	50 	651
f 46 	651 	50
f 398 	655 	537
f 654 	13 	724
f 656 	724 	50
f 737 	469 	400
f 652 	700 	653
f 422 	663 	661
f 434 	663 	422
f 704 	132 	657
f 663 	654 	661
f 666 	530 	531
f 666 	383 	530
f 668 	666 	531
f 661 	654 	650
f 670 	494 	383
f 434 	5 	663
f 670 	533 	494
f 495 	494 	533
f 433 	671 	434
f 495 	574 	517
f 533 	574 	495
f 574 	577 	517
f 672 	671 	433
f 517 	577 	518
f 5 	434 	671
f 683 	671 	672
f 601 	520 	518
f 683 	2 	671
f 601 	518 	577
f 520 	674 	522
f 675 	441 	181
f 601 	674 	520
f 181 	310 	675
f 675 	672 	441
f 441 	672 	433
f 605 	674 	601
f 672 	685 	683
f 310 	315 	686
f 488 	383 	489
f 785 	383 	527
f 493 	489 	383
f 668 	670 	383
f 493 	383 	494
f 686 	675 	310
f 570 	424 	687
f 686 	685 	675
f 424 	449 	687
f 687 	697 	570
f 675 	685 	672
f 683 	21 	2
f 455 	194 	692
f 687 	449 	692
f 693 	685 	686
f 696 	693 	686
f 694 	685 	693
f 693 	701 	694
f 693 	703 	701
f 685 	694 	683
f 21 	683 	694
f 389 	530 	383
f 315 	696 	686
f 652 	570 	697
f 700 	652 	697
f 700 	704 	653
f 701 	30 	694
f 714 	700 	697
f 701 	37 	30
f 653 	704 	657
f 710 	696 	327
f 687 	692 	712
f 327 	337 	710
f 710 	703 	696
f 712 	697 	687
f 710 	33 	703
f 712 	714 	697
f 717 	704 	700
f 696 	703 	693
f 703 	33 	34
f 714 	717 	700
f 703 	34 	701
f 717 	137 	704
f 34 	37 	701
f 386 	137 	717
f 337 	16 	36
f 36 	710 	337
f 36 	33 	710
f 663 	13 	654
f 55 	50 	724
f 717 	222 	386
f 4 	727 	13
f 215 	712 	692
f 4 	731 	727
f 13 	727 	724
f 55 	724 	56
f 727 	56 	724
f 220 	714 	712
f 717 	714 	222
f 220 	222 	714
f 56 	727 	731
f 23 	63 	731
f 211 	389 	383
f 32 	63 	23
f 603 	610 	734
f 32 	44 	63
f 734 	605 	603
f 39 	44 	32
f 734 	20 	605
f 610 	630 	738
f 402 	737 	400
f 610 	738 	734
f 734 	738 	48
f 48 	738 	52
f 5 	13 	663
f 734 	48 	20
f 2 	5 	671
f 740 	738 	630
f 630 	647 	740
f 740 	52 	738
f 647 	657 	744
f 744 	740 	647
f 740 	744 	54
f 740 	54 	52
f 744 	657 	132
f 744 	132 	186
f 54 	744 	186
f 605 	809 	674
f 20 	809 	605
f 753 	400 	757
f 759 	803 	761
f 762 	763 	761
f 774 	765 	762
f 765 	775 	400
f 763 	762 	765
f 779 	400 	775
f 774 	762 	771
f 774 	775 	765
f 504 	511 	772
f 511 	777 	772
f 771 	133 	774
f 771 	131 	133
f 772 	777 	797
f 774 	133 	779
f 774 	779 	775
f 777 	781 	801
f 522 	781 	777
f 197 	400 	136
f 755 	782 	783
f 784 	785 	786
f 783 	757 	755
f 787 	788 	789
f 786 	790 	784
f 786 	791 	792
f 786 	792 	790
f 789 	753 	783
f 757 	783 	753
f 789 	783 	787
f 787 	793 	788
f 527 	504 	785
f 782 	289 	290
f 290 	783 	782
f 772 	786 	504
f 794 	791 	772
f 786 	772 	791
f 783 	799 	787
f 797 	795 	772
f 772 	795 	794
f 787 	803 	793
f 795 	798 	383
f 794 	795 	383
f 755 	400 	782
f 526 	383 	500
f 784 	383 	785
f 795 	797 	798
f 761 	763 	400
f 788 	793 	400
f 796 	400 	793
f 796 	759 	400
f 761 	400 	759
f 783 	290 	799
f 797 	800 	798
f 799 	290 	534
f 797 	801 	802
f 797 	802 	800
f 796 	793 	803
f 777 	801 	797
f 799 	803 	787
f 801 	804 	802
f 803 	759 	796
f 804 	801 	781
f 799 	534 	805
f 802 	804 	383
f 806 	810 	383
f 534 	138 	805
f 799 	805 	803
f 762 	761 	803
f 805 	762 	803
f 807 	781 	522
f 771 	762 	805
f 798 	800 	383
f 791 	794 	383
f 790 	383 	784
f 492 	486 	383
f 488 	491 	383
f 805 	138 	771
f 792 	791 	383
f 792 	383 	790
f 755 	757 	400
f 781 	806 	804
f 753 	789 	400
f 522 	674 	807
f 765 	400 	763
f 674 	809 	807
f 289 	782 	400
f 789 	788 	400
f 808 	810 	807
f 781 	807 	806
f 779 	136 	400
f 59 	810 	808
f 807 	809 	62
f 808 	807 	62
f 20 	62 	809
f 806 	807 	810
f 800 	802 	383
f 344 	383 	59
f 804 	806 	383
f 59 	854 	402
f 836 	837 	839
f 839 	841 	836
f 839 	878 	841
f 845 	641 	238
f 848 	849 	850
f 850 	839 	848
f 837 	848 	839
f 845 	238 	276
f 45 	839 	850
f 535 	845 	538
f 836 	402 	837
f 841 	402 	836
f 843 	402 	841
f 862 	402 	835
f 273 	270 	852
f 852 	853 	273
f 273 	853 	276
f 87 	850 	854
f 849 	854 	850
f 59 	87 	854
f 845 	276 	855
f 87 	94 	850
f 276 	853 	855
f 538 	845 	855
f 849 	848 	402
f 344 	59 	402
f 626 	623 	856
f 856 	907 	863
f 626 	856 	863
f 843 	835 	402
f 868 	855 	853
f 855 	868 	573
f 859 	402 	867
f 854 	849 	402
f 865 	402 	862
f 867 	402 	865
f 862 	835 	872
f 873 	573 	868
f 872 	865 	862
f 873 	564 	573
f 867 	865 	874
f 872 	874 	865
f 873 	567 	564
f 880 	874 	872
f 873 	875 	567
f 875 	895 	881
f 843 	878 	835
f 872 	835 	878
f 843 	841 	878
f 878 	880 	872
f 346 	929 	874
f 856 	881 	904
f 907 	856 	904
f 880 	346 	874
f 881 	856 	623
f 839 	45 	878
f 878 	45 	353
f 880 	878 	353
f 907 	882 	863
f 353 	349 	880
f 882 	915 	863
f 880 	349 	346
f 882 	209 	915
f 295 	884 	852
f 852 	885 	853
f 884 	885 	852
f 853 	885 	868
f 893 	868 	885
f 885 	891 	893
f 884 	891 	885
f 893 	873 	868
f 891 	895 	893
f 891 	894 	895
f 893 	875 	873
f 893 	895 	875
f 899 	884 	96
f 899 	891 	884
f 96 	900 	899
f 899 	900 	894
f 899 	894 	891
f 903 	894 	900
f 894 	904 	895
f 894 	903 	904
f 881 	895 	904
f 903 	905 	907
f 905 	882 	907
f 903 	907 	904
f 903 	900 	105
f 105 	107 	905
f 905 	903 	105
f 911 	905 	107
f 107 	111 	911
f 911 	882 	905
f 226 	911 	111
f 911 	226 	209
f 911 	209 	882
f 863 	915 	272
f 915 	204 	279
f 915 	279 	272
f 272 	626 	863
f 922 	859 	923
f 926 	402 	924
f 922 	402 	859
f 867 	874 	859
f 921 	920 	925
f 923 	924 	922
f 923 	921 	925
f 926 	924 	925
f 923 	925 	924
f 923 	859 	874
f 874 	929 	923
f 923 	929 	921
f 924 	402 	922
f 928 	931 	402
f 921 	927 	920
f 935 	937 	402
f 933 	935 	402
f 848 	837 	402
f 932 	929 	346
f 928 	927 	930
f 921 	930 	927
f 929 	930 	921
f 930 	931 	928
f 934 	933 	930
f 920 	927 	402
f 346 	354 	932
f 932 	930 	929
f 931 	930 	933
f 932 	934 	930
f 934 	935 	933
f 932 	355 	934
f 354 	355 	932
f 937 	935 	934
f 931 	933 	402
f 936 	938 	402
f 937 	936 	402
f 934 	355 	937
f 936 	937 	355
f 927 	928 	402
f 938 	469 	402
f 926 	925 	402
f 737 	402 	469
f 925 	920 	402
# 1262 faces

g group_0_16768282

usemtl color_16768282
s 0

f 751 	11 	9
f 739 	27 	24
f 27 	739 	9
f 49 	38 	101
f 14 	49 	101
f 38 	51 	43
f 49 	51 	38
f 14 	11 	49
f 49 	750 	51
f 11 	750 	49
f 123 	38 	43
f 214 	58 	77
f 72 	77 	58
f 754 	61 	43
f 72 	66 	758
f 91 	27 	97
f 164 	24 	91
f 91 	24 	27
f 115 	91 	118
f 118 	91 	97
f 118 	97 	120
f 120 	97 	101
f 122 	120 	101
f 122 	38 	123
f 122 	101 	38
f 123 	43 	125
f 125 	43 	126
f 61 	126 	43
f 126 	66 	128
f 61 	66 	126
f 66 	72 	128
f 128 	72 	58
f 24 	164 	141
f 146 	147 	193
f 141 	736 	24
f 148 	149 	410
f 150 	151 	410
f 164 	91 	115
f 156 	148 	410
f 151 	232 	410
f 193 	682 	139
f 159 	139 	162
f 162 	141 	164
f 162 	139 	141
f 165 	410 	167
f 173 	207 	174
f 174 	208 	175
f 174 	207 	208
f 158 	177 	208
f 177 	175 	208
f 177 	158 	178
f 159 	178 	158
f 178 	159 	162
f 178 	162 	179
f 164 	115 	179
f 179 	162 	164
f 208 	351 	158
f 190 	158 	351
f 158 	190 	193
f 158 	193 	159
f 139 	159 	193
f 203 	207 	173
f 203 	358 	207
f 207 	351 	208
f 214 	221 	217
f 77 	221 	214
f 221 	225 	217
f 217 	225 	218
f 225 	230 	218
f 25 	251 	688
f 231 	234 	410
f 240 	410 	227
f 688 	251 	236
f 149 	150 	410
f 232 	231 	410
f 234 	171 	410
f 171 	227 	410
f 163 	156 	410
f 251 	253 	233
f 233 	236 	251
f 252 	247 	245
f 254 	627 	252
f 260 	149 	258
f 148 	156 	258
f 255 	251 	257
f 154 	645 	259
f 257 	251 	268
f 277 	278 	251
f 251 	255 	253
f 148 	258 	149
f 278 	267 	251
f 268 	251 	267
f 277 	251 	284
f 218 	230 	219
f 77 	770 	221
f 311 	321 	420
f 773 	776 	225
f 225 	776 	230
f 230 	322 	219
f 325 	324 	420
f 317 	332 	420
f 332 	334 	420
f 319 	320 	420
f 318 	319 	420
f 324 	317 	420
f 334 	335 	420
f 326 	322 	780
f 326 	826 	328
f 320 	325 	420
f 340 	420 	335
f 146 	306 	420
f 343 	190 	341
f 343 	193 	190
f 193 	343 	146
f 311 	307 	341
f 343 	341 	307
f 343 	307 	306
f 343 	306 	146
f 322 	348 	219
f 322 	326 	348
f 478 	351 	358
f 478 	341 	351
f 348 	326 	350
f 190 	351 	341
f 203 	198 	464
f 358 	203 	464
f 358 	351 	207
f 410 	240 	408
f 416 	284 	251
f 408 	420 	410
f 419 	420 	408
f 420 	416 	410
f 340 	416 	420
f 416 	251 	410
f 411 	410 	251
f 341 	478 	321
f 311 	341 	321
f 325 	483 	324
f 460 	317 	324
f 464 	198 	463
f 245 	408 	252
f 463 	473 	464
f 245 	466 	408
f 471 	408 	466
f 471 	467 	408
f 473 	463 	470
f 464 	473 	474
f 473 	483 	474
f 468 	408 	467
f 358 	464 	474
f 474 	478 	358
f 177 	178 	465
f 178 	179 	465
f 479 	470 	472
f 252 	408 	254
f 480 	254 	408
f 179 	115 	465
f 481 	482 	479
f 470 	479 	482
f 118 	465 	115
f 118 	120 	465
f 473 	470 	482
f 120 	122 	465
f 480 	408 	476
f 483 	473 	482
f 122 	123 	465
f 478 	474 	318
f 319 	318 	474
f 240 	227 	408
f 123 	125 	465
f 319 	474 	320
f 483 	320 	474
f 227 	476 	408
f 318 	321 	478
f 125 	126 	465
f 126 	128 	465
f 487 	482 	481
f 128 	58 	465
f 496 	460 	487
f 482 	487 	460
f 58 	214 	465
f 482 	460 	483
f 214 	217 	465
f 483 	325 	320
f 460 	324 	483
f 217 	218 	465
f 334 	332 	497
f 218 	219 	465
f 460 	496 	332
f 496 	497 	332
f 219 	348 	465
f 334 	497 	335
f 317 	460 	332
f 348 	350 	465
f 350 	352 	465
f 498 	870 	501
f 352 	816 	465
f 503 	870 	502
f 498 	502 	870
f 816 	817 	465
f 506 	503 	502
f 470 	463 	503
f 472 	470 	506
f 503 	506 	470
f 465 	814 	815
f 465 	858 	838
f 465 	838 	840
f 465 	840 	842
f 523 	416 	525
f 456 	525 	416
f 416 	523 	529
f 529 	609 	416
f 609 	607 	416
f 608 	612 	416
f 607 	608 	416
f 612 	613 	416
f 619 	416 	618
f 260 	150 	149
f 259 	258 	156
f 163 	154 	259
f 163 	259 	156
f 627 	260 	247
f 247 	252 	627
f 150 	260 	151
f 627 	151 	260
f 231 	627 	480
f 467 	750 	468
f 635 	658 	471
f 648 	658 	635
f 466 	635 	471
f 635 	466 	247
f 245 	247 	466
f 648 	258 	640
f 648 	260 	258
f 643 	640 	258
f 258 	259 	643
f 643 	259 	645
f 648 	635 	247
f 648 	247 	260
f 658 	648 	640
f 467 	471 	658
f 165 	645 	154
f 167 	645 	165
f 167 	764 	645
f 234 	476 	171
f 227 	171 	476
f 660 	420 	659
f 480 	234 	231
f 254 	480 	627
f 476 	234 	480
f 232 	627 	231
f 151 	627 	232
f 659 	420 	667
f 618 	416 	613
f 416 	619 	620
f 620 	622 	416
f 667 	420 	669
f 662 	420 	660
f 665 	420 	664
f 676 	416 	673
f 676 	677 	416
f 622 	673 	416
f 680 	416 	677
f 277 	416 	680
f 284 	416 	277
f 147 	420 	682
f 681 	420 	684
f 688 	236 	833
f 707 	833 	236
f 25 	834 	689
f 834 	25 	833
f 688 	833 	25
f 608 	607 	690
f 679 	420 	678
f 682 	420 	681
f 679 	684 	420
f 669 	420 	665
f 662 	691 	420
f 691 	678 	420
f 419 	664 	420
f 698 	713 	702
f 695 	709 	699
f 659 	711 	660
f 707 	709 	695
f 660 	711 	698
f 711 	713 	698
f 702 	715 	708
f 715 	702 	716
f 713 	716 	702
f 233 	707 	236
f 662 	660 	698
f 667 	711 	659
f 719 	713 	711
f 719 	711 	720
f 667 	720 	711
f 669 	722 	667
f 720 	667 	722
f 716 	713 	723
f 723 	713 	719
f 709 	725 	699
f 664 	726 	665
f 709 	733 	725
f 669 	665 	722
f 726 	722 	665
f 699 	725 	718
f 725 	729 	718
f 718 	729 	721
f 729 	613 	721
f 690 	721 	612
f 728 	9 	730
f 732 	743 	705
f 742 	733 	709
f 705 	735 	732
f 732 	735 	730
f 141 	747 	736
f 736 	739 	24
f 612 	608 	690
f 736 	743 	739
f 741 	743 	736
f 612 	721 	613
f 725 	619 	618
f 725 	618 	729
f 733 	620 	619
f 733 	619 	725
f 613 	729 	618
f 620 	733 	622
f 745 	673 	733
f 707 	233 	742
f 253 	742 	233
f 709 	707 	742
f 747 	741 	736
f 255 	742 	253
f 742 	255 	745
f 255 	257 	745
f 733 	742 	745
f 743 	732 	739
f 257 	268 	745
f 715 	408 	708
f 622 	733 	673
f 698 	702 	741
f 268 	746 	745
f 741 	702 	743
f 267 	746 	268
f 706 	705 	743
f 745 	676 	673
f 676 	745 	677
f 746 	677 	745
f 706 	743 	708
f 702 	708 	743
f 681 	139 	682
f 682 	193 	147
f 139 	747 	141
f 267 	278 	746
f 723 	408 	716
f 719 	408 	723
f 139 	681 	747
f 684 	747 	681
f 680 	746 	278
f 680 	278 	277
f 677 	746 	680
f 679 	747 	684
f 679 	678 	741
f 747 	679 	741
f 698 	741 	691
f 691 	741 	678
f 662 	698 	691
f 419 	408 	664
f 306 	307 	420
f 307 	311 	420
f 748 	251 	749
f 715 	716 	408
f 321 	318 	420
f 147 	146 	420
f 751 	9 	728
f 732 	730 	9
f 752 	11 	751
f 730 	735 	408
f 251 	689 	749
f 752 	468 	11
f 750 	11 	468
f 728 	730 	408
f 720 	722 	408
f 754 	43 	51
f 719 	720 	408
f 61 	754 	756
f 658 	754 	51
f 726 	664 	408
f 61 	756 	66
f 756 	758 	66
f 760 	77 	72
f 72 	758 	760
f 735 	705 	408
f 705 	706 	408
f 750 	658 	51
f 640 	754 	658
f 754 	640 	756
f 706 	708 	408
f 756 	643 	758
f 643 	756 	640
f 758 	645 	760
f 643 	645 	758
f 726 	408 	722
f 750 	467 	658
f 760 	645 	764
f 766 	770 	767
f 764 	169 	767
f 468 	752 	408
f 752 	751 	408
f 751 	728 	408
f 764 	167 	169
f 77 	760 	770
f 770 	773 	221
f 773 	225 	221
f 778 	322 	230
f 776 	778 	230
f 778 	780 	322
f 826 	326 	780
f 764 	770 	760
f 764 	767 	770
f 773 	770 	768
f 766 	768 	770
f 769 	811 	773
f 768 	769 	773
f 776 	773 	906
f 780 	909 	826
f 97 	27 	14
f 27 	9 	14
f 14 	101 	97
f 739 	732 	9
f 9 	11 	14
f 173 	174 	465
f 465 	818 	814
f 465 	846 	847
f 851 	465 	847
f 173 	465 	851
f 811 	410 	812
f 465 	817 	818
f 472 	416 	479
f 479 	416 	481
f 813 	812 	410
f 769 	410 	811
f 481 	416 	487
f 815 	861 	857
f 352 	350 	328
f 350 	326 	328
f 328 	329 	352
f 352 	329 	816
f 824 	817 	329
f 816 	329 	817
f 817 	825 	818
f 824 	825 	817
f 818 	819 	814
f 825 	819 	818
f 821 	410 	822
f 329 	828 	824
f 823 	822 	410
f 821 	820 	410
f 813 	410 	820
f 328 	826 	827
f 496 	416 	497
f 328 	827 	329
f 823 	410 	830
f 827 	828 	329
f 411 	831 	410
f 487 	416 	496
f 826 	918 	827
f 910 	918 	826
f 919 	897 	828
f 501 	416 	498
f 695 	819 	833
f 824 	834 	825
f 830 	410 	829
f 828 	834 	824
f 416 	472 	506
f 832 	829 	410
f 834 	833 	825
f 832 	410 	831
f 825 	833 	819
f 707 	695 	833
f 828 	749 	834
f 416 	506 	502
f 502 	498 	416
f 748 	749 	828
f 749 	689 	834
f 501 	456 	416
f 497 	416 	335
f 340 	335 	416
f 465 	842 	844
f 465 	844 	846
f 465 	174 	175
f 175 	177 	465
f 842 	877 	844
f 871 	847 	846
f 203 	173 	851
f 815 	857 	465
f 857 	858 	465
f 814 	819 	860
f 860 	815 	814
f 860 	861 	815
f 861 	864 	857
f 857 	864 	858
f 858 	866 	838
f 864 	866 	858
f 840 	866 	876
f 840 	838 	866
f 860 	699 	861
f 864 	721 	866
f 869 	844 	877
f 870 	846 	844
f 844 	869 	870
f 871 	846 	870
f 198 	847 	871
f 871 	463 	198
f 198 	851 	847
f 198 	203 	851
f 501 	870 	869
f 501 	869 	456
f 870 	503 	871
f 871 	503 	463
f 840 	876 	877
f 840 	877 	842
f 876 	721 	690
f 876 	866 	721
f 876 	690 	879
f 879 	877 	876
f 879 	529 	877
f 879 	690 	607
f 869 	877 	525
f 523 	525 	877
f 525 	456 	869
f 529 	879 	609
f 879 	607 	609
f 695 	860 	819
f 860 	695 	699
f 861 	718 	864
f 718 	861 	699
f 864 	718 	721
f 523 	877 	529
f 888 	251 	886
f 889 	251 	888
f 892 	890 	251
f 890 	887 	251
f 887 	886 	251
f 251 	831 	411
f 901 	898 	251
f 902 	251 	897
f 748 	897 	251
f 898 	883 	251
f 892 	251 	883
f 902 	901 	251
f 896 	251 	889
f 831 	251 	896
f 811 	906 	773
f 906 	811 	812
f 906 	813 	908
f 812 	813 	906
f 906 	908 	776
f 776 	908 	778
f 778 	909 	780
f 909 	778 	908
f 910 	826 	909
f 820 	908 	813
f 821 	912 	908
f 821 	908 	820
f 909 	908 	912
f 910 	909 	913
f 912 	913 	909
f 913 	914 	910
f 821 	822 	912
f 912 	822 	916
f 823 	916 	822
f 912 	916 	913
f 916 	887 	913
f 887 	890 	913
f 887 	916 	886
f 914 	913 	890
f 883 	914 	892
f 892 	914 	890
f 917 	916 	830
f 916 	823 	830
f 829 	917 	830
f 917 	889 	888
f 917 	888 	916
f 916 	888 	886
f 832 	917 	829
f 889 	917 	896
f 896 	917 	832
f 896 	832 	831
f 828 	827 	919
f 918 	919 	827
f 748 	828 	897
f 910 	914 	918
f 898 	918 	883
f 914 	883 	918
f 918 	898 	901
f 918 	901 	919
f 902 	897 	919
f 902 	919 	901
f 767 	410 	766
f 768 	410 	769
f 169 	167 	410
f 154 	410 	165
f 768 	766 	410
f 767 	169 	410
f 154 	163 	410
f 251 	25 	689
# 606 faces

 #end of obj_0

