# Model created using BSP2OBJ v0.2.1 by DCx Demo*
# http://devilclanthps3.weebly.com/

mtllib S23_ONS_13.obj.mtl
# Object number 1
# 132 faces
# 224 vertices

v -15651.38281 0.00000 -13055.67188
v -15653.59277 0.00000 -13030.41406
v -15623.48047 0.00000 -13050.75293
v -15625.67090 0.00000 -13025.71777
v -15507.01465 0.00000 -13594.46191
v -15513.57715 0.00000 -13569.97070
v -15480.39063 0.00000 -13584.77051
v -15486.89453 0.00000 -13560.49707
v -15344.45020 0.00000 -13001.55176
v -15346.44629 0.00000 -12978.75391
v -15214.14453 0.00000 -13487.86621
v -15220.06738 0.00000 -13465.76074
v -15316.54883 0.00000 -12996.63184
v -15318.52344 0.00000 -12974.05762
v -15271.28027 0.00000 -14099.99707
v -15281.99512 0.00000 -14077.01855
v -15246.74316 0.00000 -14085.83105
v -15257.36328 0.00000 -14063.05469
v -15187.51953 0.00000 -13478.17480
v -15193.38477 0.00000 -13456.28711
v -15001.37012 0.00000 -13944.16406
v -15011.04199 0.00000 -13923.42480
v -14976.83203 0.00000 -13929.99805
v -14986.40820 0.00000 -13909.45996
v -14951.34180 0.00000 -14556.91797
v -14965.88477 0.00000 -14536.14844
v -14929.63672 0.00000 -14538.70605
v -14944.05078 0.00000 -14518.12012
v -14712.59082 0.00000 -14356.58301
v -14725.71777 0.00000 -14337.83594
v -14690.88672 0.00000 -14338.37012
v -14703.88477 0.00000 -14319.80762
v -14556.92090 0.00000 -14951.33984
v -14574.84863 0.00000 -14933.41113
v -14538.70801 0.00000 -14929.63574
v -14556.47754 0.00000 -14911.86426
v -14356.58496 0.00000 -14712.58887
v -14372.76855 0.00000 -14696.40625
v -14338.37305 0.00000 -14690.88477
v -14354.39648 0.00000 -14674.86133
v -14100.00000 0.00000 -15271.27930
v -14120.76953 0.00000 -15256.73633
v -14085.83301 0.00000 -15246.74121
v -14106.41895 0.00000 -15232.32715
v -13944.16699 0.00000 -15001.36719
v -13962.91406 0.00000 -14988.24121
v -13930.00098 0.00000 -14976.83008
v -13948.56348 0.00000 -14963.83301
v -13594.46484 0.00000 -15507.01367
v -13617.44434 0.00000 -15496.29883
v -13584.77637 0.00000 -15480.38965
v -13607.55078 0.00000 -15469.76953
v -13487.87012 0.00000 -15214.14355
v -13508.61035 0.00000 -15204.47168
v -13478.17871 0.00000 -15187.51855
v -13498.71582 0.00000 -15177.94238
v -13055.67578 0.00000 -15651.38281
v -13080.16602 0.00000 -15644.82031
v -13050.75488 0.00000 -15623.48047
v -13075.02832 0.00000 -15616.97559
v -13001.55469 0.00000 -15344.45020
v -13023.66016 0.00000 -15338.52832
v -12996.63477 0.00000 -15316.54883
v -13018.52344 0.00000 -15310.68359
v -15669.47656 0.00000 -12525.03418
v -15697.79004 0.00000 -12525.25781
v -15671.66699 0.00000 -12500.00000
v -15700.00000 0.00000 -12500.00000
v -15386.33887 0.00000 -12522.79785
v -15388.33398 0.00000 -12500.00000
v -15358.02441 0.00000 -12522.57422
v -15360.00000 0.00000 -12500.00000
v -12500.00098 0.00000 -15699.99805
v -12525.25977 0.00000 -15697.78809
v -12500.00098 0.00000 -15671.66504
v -12525.03613 0.00000 -15669.47363
v -12500.00098 0.00000 -15388.33203
v -12522.79980 0.00000 -15386.33691
v -12500.00098 0.00000 -15359.99805
v -12522.57520 0.00000 -15358.02344
v -15653.59277 0.00000 -13030.41406
v -15697.79004 0.00000 -12525.25781
v -15625.67090 0.00000 -13025.71777
v -15669.47656 0.00000 -12525.03418
v -15651.38281 0.00000 -13055.67188
v -15623.48047 0.00000 -13050.75293
v -15513.57715 0.00000 -13569.97070
v -15486.89453 0.00000 -13560.49707
v -15507.01465 0.00000 -13594.46191
v -15480.39063 0.00000 -13584.77051
v -15281.99512 0.00000 -14077.01855
v -15257.36328 0.00000 -14063.05469
v -15386.33887 0.00000 -12522.79785
v -15358.02441 0.00000 -12522.57422
v -15346.44629 0.00000 -12978.75391
v -15318.52344 0.00000 -12974.05762
v -15344.45020 0.00000 -13001.55176
v -15316.54883 0.00000 -12996.63184
v -15220.06738 0.00000 -13465.76074
v -15193.38477 0.00000 -13456.28711
v -15271.28027 0.00000 -14099.99707
v -15246.74316 0.00000 -14085.83105
v -14965.88477 0.00000 -14536.14844
v -14944.05078 0.00000 -14518.12012
v -15214.14453 0.00000 -13487.86621
v -15187.51953 0.00000 -13478.17480
v -15011.04199 0.00000 -13923.42480
v -14986.40820 0.00000 -13909.45996
v -15001.37012 0.00000 -13944.16406
v -14976.83203 0.00000 -13929.99805
v -14725.71777 0.00000 -14337.83594
v -14703.88477 0.00000 -14319.80762
v -14951.34180 0.00000 -14556.91797
v -14929.63672 0.00000 -14538.70605
v -14574.84863 0.00000 -14933.41113
v -14556.47754 0.00000 -14911.86426
v -14712.59082 0.00000 -14356.58301
v -14690.88672 0.00000 -14338.37012
v -14372.76855 0.00000 -14696.40625
v -14354.39648 0.00000 -14674.86133
v -14556.92090 0.00000 -14951.33984
v -14538.70801 0.00000 -14929.63574
v -14120.76953 0.00000 -15256.73633
v -14106.41895 0.00000 -15232.32715
v -14356.58496 0.00000 -14712.58887
v -14338.37305 0.00000 -14690.88477
v -13962.91406 0.00000 -14988.24121
v -13948.56348 0.00000 -14963.83301
v -14100.00000 0.00000 -15271.27930
v -14085.83301 0.00000 -15246.74121
v -13617.44434 0.00000 -15496.29883
v -13607.55078 0.00000 -15469.76953
v -13944.16699 0.00000 -15001.36719
v -13930.00098 0.00000 -14976.83008
v -13508.61035 0.00000 -15204.47168
v -13498.71582 0.00000 -15177.94238
v -13594.46484 0.00000 -15507.01367
v -13584.77637 0.00000 -15480.38965
v -13080.16602 0.00000 -15644.82031
v -13075.02832 0.00000 -15616.97559
v -13487.87012 0.00000 -15214.14355
v -13478.17871 0.00000 -15187.51855
v -13023.66016 0.00000 -15338.52832
v -13018.52344 0.00000 -15310.68359
v -13055.67578 0.00000 -15651.38281
v -13050.75488 0.00000 -15623.48047
v -12525.25977 0.00000 -15697.78809
v -12525.03613 0.00000 -15669.47363
v -13001.55469 0.00000 -15344.45020
v -12996.63477 0.00000 -15316.54883
v -12522.79980 0.00000 -15386.33691
v -12522.57520 0.00000 -15358.02344
v -15649.25195 0.00000 -12524.87402
v -15543.07520 0.00000 -12524.03613
v -15605.72656 0.00000 -13022.36230
v -15501.01660 0.00000 -13004.75098
v -15603.54980 0.00000 -13047.23730
v -15498.91406 0.00000 -13028.78711
v -15467.83496 0.00000 -13553.73047
v -15367.77539 0.00000 -13518.20410
v -15512.73926 0.00000 -12523.79590
v -15406.56250 0.00000 -12522.95703
v -15471.09961 0.00000 -12999.71973
v -15366.39063 0.00000 -12982.10840
v -15339.18652 0.00000 -13508.05371
v -15469.01758 0.00000 -13023.51563
v -15239.12598 0.00000 -13472.52734
v -15364.38184 0.00000 -13005.06543
v -15461.37305 0.00000 -13577.84961
v -15361.53027 0.00000 -13541.50977
v -15239.76953 0.00000 -14053.08105
v -15147.39746 0.00000 -14000.71973
v -15121.00586 0.00000 -13985.75879
v -15333.00391 0.00000 -13531.12695
v -15028.63477 0.00000 -13933.39746
v -15233.16211 0.00000 -13494.78711
v -15229.21680 0.00000 -14075.71094
v -15137.20117 0.00000 -14022.58691
v -14928.45605 0.00000 -14505.24219
v -14846.58105 0.00000 -14437.63574
v -14823.18750 0.00000 -14418.31934
v -15110.91211 0.00000 -14007.40820
v -14741.31250 0.00000 -14350.71387
v -15018.89648 0.00000 -13954.28320
v -14914.13477 0.00000 -14525.69629
v -14832.74219 0.00000 -14457.40039
v -14543.35547 0.00000 -14896.47559
v -14474.46387 0.00000 -14815.67871
v -14454.78125 0.00000 -14792.59375
v -14809.48633 0.00000 -14437.88672
v -14385.88965 0.00000 -14711.79688
v -14728.09473 0.00000 -14369.59082
v -14525.69922 0.00000 -14914.13184
v -14457.40332 0.00000 -14832.73926
v -14096.16797 0.00000 -15214.89258
v -14042.35352 0.00000 -15123.36035
v -14026.97852 0.00000 -15097.20801
v -14437.89063 0.00000 -14809.48438
v -13973.16406 0.00000 -15005.67578
v -14369.59375 0.00000 -14728.09180
v -14075.71484 0.00000 -15229.21484
v -14022.58984 0.00000 -15137.19922
v -13600.48340 0.00000 -15450.81934
v -13563.38086 0.00000 -15351.33301
v -13552.77930 0.00000 -15322.90820
v -14007.41113 0.00000 -15110.91016
v -13515.67676 0.00000 -15223.42188
v -13954.28613 0.00000 -15018.89453
v -13577.85352 0.00000 -15461.37207
v -13541.51367 0.00000 -15361.52930
v -13071.35938 0.00000 -15597.08691
v -13052.09668 0.00000 -15492.66895
v -13046.59277 0.00000 -15462.83496
v -13531.13086 0.00000 -15333.00391
v -13027.32910 0.00000 -15358.41797
v -13494.79102 0.00000 -15233.16113
v -13047.24121 0.00000 -15603.54883
v -13028.79102 0.00000 -15498.91406
v -12524.87598 0.00000 -15649.25000
v -12524.03711 0.00000 -15543.07422
v -12523.79785 0.00000 -15512.73730
v -13023.51953 0.00000 -15469.01758
v -12522.95898 0.00000 -15406.56055
v -13005.06934 0.00000 -15364.38184

vt 8.02550 2.99800 
vt 8.02550 2.00190 
vt 7.00440 2.99800 
vt 7.00440 2.00190 
vt 9.28330 2.00190 
vt 9.28330 2.99800 
vt 8.30040 2.00190 
vt 8.30040 2.99800 
vt 0.99570 2.99800 
vt 0.99570 2.00190 
vt 0.97060 2.00190 
vt 0.97060 2.99800 
vt 0.00190 2.99800 
vt 0.00190 2.00190 
vt 9.72830 2.00190 
vt 9.72830 2.99800 
vt 8.76630 2.00190 
vt 8.76630 2.99800 
vt 0.00190 2.00190 
vt 0.00190 2.99800 
vt 0.99140 2.00190 
vt 0.99140 2.99800 
vt 0.00190 2.00190 
vt 0.00190 2.99800 
vt 8.75310 2.00190 
vt 8.75310 2.99800 
vt 7.75290 2.00190 
vt 7.75290 2.99800 
vt 0.98190 2.00190 
vt 0.98190 2.99800 
vt 0.00190 2.00190 
vt 0.00190 2.99800 
vt 9.75510 2.00190 
vt 9.75510 2.99800 
vt 8.73330 2.00190 
vt 8.73330 2.99800 
vt 1.00020 2.00190 
vt 1.00020 2.99800 
vt 0.00190 2.00190 
vt 0.00190 2.99800 
vt 8.72640 2.00190 
vt 8.72640 2.99800 
vt 7.72800 2.00190 
vt 7.72800 2.99800 
vt 0.98870 2.00190 
vt 0.98870 2.99800 
vt 0.00190 2.00190 
vt 0.00190 2.99800 
vt 8.48090 2.00190 
vt 8.48090 2.99800 
vt 7.50580 2.00190 
vt 7.50580 2.99800 
vt 0.97700 2.00190 
vt 0.97700 2.99800 
vt 0.00190 2.00190 
vt 0.00190 2.99800 
vt 8.98370 2.00190 
vt 8.98370 2.99800 
vt 7.97350 2.00190 
vt 7.97350 2.99800 
vt 0.98870 2.00190 
vt 0.98870 2.99800 
vt 0.00190 2.00190 
vt 0.00190 2.99800 
vt 2.24380 2.40920 
vt 2.57580 2.40920 
vt 2.24380 2.01980 
vt 2.57580 2.01980 
vt 0.33390 2.40920 
vt 0.33390 2.01980 
vt 0.00190 2.40920 
vt 0.00190 2.01980 
vt 2.58000 2.01940 
vt 2.58000 2.41510 
vt 2.24800 2.01940 
vt 2.24800 2.41510 
vt 0.33390 2.01940 
vt 0.33390 2.41510 
vt 0.00190 2.01940 
vt 0.00190 2.41510 
vt -5.25900 1.00000 
vt 7.49990 1.00000 
vt -5.25900 -0.00000 
vt 7.49990 -0.00000 
vt 7.49990 1.00000 
vt 7.49990 -0.00000 
vt -5.25900 1.00000 
vt -5.25900 -0.00000 
vt 7.49990 1.00000 
vt 7.49990 -0.00000 
vt -5.25900 1.00000 
vt -5.25900 -0.00000 
vt 7.49990 -0.00000 
vt 7.49990 1.00000 
vt -5.25900 -0.00000 
vt -5.25900 1.00000 
vt 7.49990 -0.00000 
vt 7.49990 1.00000 
vt -5.25900 -0.00000 
vt -5.25900 1.00000 
vt 7.49990 1.00000 
vt 7.49990 -0.00000 
vt -5.25900 1.00000 
vt -5.25900 -0.00000 
vt 7.49990 -0.00000 
vt 7.49990 1.00000 
vt -5.25900 -0.00000 
vt -5.25900 1.00000 
vt 7.49990 -0.00000 
vt 7.49990 1.00000 
vt -5.25900 -0.00000 
vt -5.25900 1.00000 
vt 7.49990 1.00000 
vt 7.49990 -0.00000 
vt -5.25900 1.00000 
vt -5.25900 -0.00000 
vt 7.49990 -0.00000 
vt 7.49990 1.00000 
vt -5.25900 -0.00000 
vt -5.25900 1.00000 
vt 7.49990 1.00000 
vt 7.49990 -0.00000 
vt -5.25900 1.00010 
vt -5.25900 -0.00000 
vt 7.49990 -0.00000 
vt 7.49990 1.00000 
vt -5.25900 -0.00000 
vt -5.25900 1.00000 
vt 7.49990 1.00000 
vt 7.49990 -0.00000 
vt -5.25900 1.00000 
vt -5.25900 -0.00000 
vt 7.49990 -0.00000 
vt 7.49990 1.00000 
vt -5.25900 -0.00000 
vt -5.25900 1.00000 
vt 7.49990 1.00000 
vt 7.49990 -0.00000 
vt -5.25900 1.00000 
vt -5.25900 -0.00000 
vt 7.49990 -0.00000 
vt 7.49990 1.00000 
vt -5.25900 -0.00000 
vt -5.25900 1.00000 
vt 7.49990 1.00000 
vt 7.49990 -0.00000 
vt -5.25900 1.00000 
vt -5.25900 -0.00000 
vt 7.49990 -0.00000 
vt 7.49990 1.00000 
vt -5.25900 -0.00000 
vt -5.25900 1.00000 
vt 0.00000 3.01990 
vt 0.99990 3.01990 
vt 0.00000 -1.01990 
vt 0.99990 -1.01990 
vt 0.00000 2.99480 
vt 0.99990 2.99480 
vt 0.00000 -0.99480 
vt 0.99990 -0.99480 
vt 0.00000 3.01990 
vt 0.99990 3.01990 
vt 0.00000 -1.01990 
vt 0.99990 -1.01990 
vt 0.00000 -1.00070 
vt 0.00000 3.00070 
vt 0.99990 -1.00070 
vt 0.99990 3.00070 
vt 0.99990 2.98360 
vt 1.99990 2.98360 
vt 0.99990 -0.91830 
vt 1.99990 -0.91830 
vt 0.99990 -0.91830 
vt 0.99990 2.98360 
vt 1.99990 -0.91830 
vt 1.99990 2.98360 
vt 0.99990 2.98360 
vt 1.99990 2.98360 
vt 0.99990 -0.91830 
vt 1.99990 -0.91830 
vt 0.99990 -0.91830 
vt 0.99990 2.98360 
vt 1.99990 -0.91830 
vt 1.99990 2.98360 
vt 0.99990 2.98360 
vt 1.99990 2.98360 
vt 0.99990 -0.91830 
vt 1.99990 -0.91830 
vt 0.99990 -0.91830 
vt 0.99990 2.98360 
vt 1.99990 -0.91830 
vt 1.99990 2.98360 
vt 0.99990 2.98360 
vt 1.99990 2.98360 
vt 0.99990 -0.91830 
vt 1.99990 -0.91830 
vt 0.99990 -0.91830 
vt 0.99990 2.98360 
vt 1.99990 -0.91830 
vt 1.99990 2.98360 
vt 0.99990 2.98360 
vt 1.99990 2.98360 
vt 0.99990 -0.91830 
vt 1.99990 -0.91830 
vt 0.99990 -0.91830 
vt 0.99990 2.98360 
vt 1.99990 -0.91830 
vt 1.99990 2.98360 
vt 0.99990 2.98360 
vt 1.99990 2.98360 
vt 0.99990 -0.91830 
vt 1.99990 -0.91830 
vt 0.99990 -0.91830 
vt 0.99990 2.98360 
vt 1.99990 -0.91830 
vt 1.99990 2.98360 
vt 0.99990 2.98360 
vt 1.99990 2.98360 
vt 0.99990 -0.91830 
vt 1.99990 -0.91830 
vt 0.99990 -0.91830 
vt 0.99990 2.98360 
vt 1.99990 -0.91830 
vt 1.99990 2.98360 

s 1

g Object_2

usemtl texture0

f 1/1 2/2 3/3
f 3/3 2/2 4/4
f 5/5 6/6 7/7
f 7/7 6/6 8/8
f 3/3 4/4 9/9
f 9/9 4/4 10/10
f 7/7 8/8 11/11
f 11/11 8/8 12/12
f 9/9 10/10 13/13
f 13/13 10/10 14/14
f 15/15 16/16 17/17
f 17/17 16/16 18/18
f 11/11 12/12 19/19
f 19/19 12/12 20/20
f 17/17 18/18 21/21
f 21/21 18/18 22/22
f 21/21 22/22 23/23
f 23/23 22/22 24/24
f 25/25 26/26 27/27
f 27/27 26/26 28/28
f 27/27 28/28 29/29
f 29/29 28/28 30/30
f 29/29 30/30 31/31
f 31/31 30/30 32/32
f 33/33 34/34 35/35
f 35/35 34/34 36/36
f 35/35 36/36 37/37
f 37/37 36/36 38/38
f 37/37 38/38 39/39
f 39/39 38/38 40/40
f 41/41 42/42 43/43
f 43/43 42/42 44/44
f 43/43 44/44 45/45
f 45/45 44/44 46/46
f 45/45 46/46 47/47
f 47/47 46/46 48/48
f 49/49 50/50 51/51
f 51/51 50/50 52/52
f 51/51 52/52 53/53
f 53/53 52/52 54/54
f 53/53 54/54 55/55
f 55/55 54/54 56/56
f 57/57 58/58 59/59
f 59/59 58/58 60/60
f 59/59 60/60 61/61
f 61/61 60/60 62/62
f 61/61 62/62 63/63
f 63/63 62/62 64/64

usemtl texture1

f 65/65 66/66 67/67
f 66/66 68/68 67/67
f 69/69 65/65 70/70
f 65/65 67/67 70/70
f 71/71 69/69 72/72
f 69/69 70/70 72/72
f 73/73 74/74 75/75
f 74/74 76/76 75/75
f 75/75 76/76 77/77
f 77/77 76/76 78/78
f 77/77 78/78 79/79
f 78/78 80/80 79/79

usemtl texture2

f 81/81 82/82 83/83
f 82/82 84/84 83/83
f 85/85 86/86 87/87
f 86/86 88/88 87/87
f 89/89 90/90 91/91
f 90/90 92/92 91/91
f 93/93 94/94 95/95
f 94/94 96/96 95/95
f 97/97 98/98 99/99
f 98/98 100/100 99/99
f 101/101 102/102 103/103
f 102/102 104/104 103/103
f 105/105 106/106 107/107
f 106/106 108/108 107/107
f 109/109 110/110 111/111
f 110/110 112/112 111/111
f 113/113 114/114 115/115
f 114/114 116/116 115/115
f 117/117 118/118 119/119
f 118/118 120/120 119/119
f 121/121 122/122 123/123
f 122/122 124/124 123/123
f 125/125 126/126 127/127
f 126/126 128/128 127/127
f 129/129 130/130 131/131
f 130/130 132/132 131/131
f 133/133 134/134 135/135
f 134/134 136/136 135/135
f 137/137 138/138 139/139
f 138/138 140/140 139/139
f 141/141 142/142 143/143
f 142/142 144/144 143/143
f 145/145 146/146 147/147
f 146/146 148/148 147/147
f 149/149 150/150 151/151
f 150/150 152/152 151/151

usemtl texture3

f 153/153 154/154 155/155
f 154/154 156/156 155/155
f 157/157 158/158 159/159
f 158/158 160/160 159/159
f 161/161 162/162 163/163
f 162/162 164/164 163/163
f 165/165 166/166 167/167
f 166/166 168/168 167/167
f 169/169 170/170 171/171
f 170/170 172/172 171/171
f 173/173 174/174 175/175
f 174/174 176/176 175/175
f 177/177 178/178 179/179
f 178/178 180/180 179/179
f 181/181 182/182 183/183
f 182/182 184/184 183/183
f 185/185 186/186 187/187
f 186/186 188/188 187/187
f 189/189 190/190 191/191
f 190/190 192/192 191/191
f 193/193 194/194 195/195
f 194/194 196/196 195/195
f 197/197 198/198 199/199
f 198/198 200/200 199/199
f 201/201 202/202 203/203
f 202/202 204/204 203/203
f 205/205 206/206 207/207
f 206/206 208/208 207/207
f 209/209 210/210 211/211
f 210/210 212/212 211/211
f 213/213 214/214 215/215
f 214/214 216/216 215/215
f 217/217 218/218 219/219
f 218/218 220/220 219/219
f 221/221 222/222 223/223
f 222/222 224/224 223/223

