# Model created using BSP2OBJ v0.2.1 by DCx Demo*
# http://devilclanthps3.weebly.com/

mtllib S23_ON_23.obj.mtl
# Object number 1
# 180 faces
# 348 vertices

v 3000.00000 0.00000 15360.00000
v 7000.00000 0.00000 15360.00000
v 3000.00000 -19.99990 15360.00000
v 7000.00000 -19.99990 15360.00000
v 3000.00000 0.00000 15600.00000
v 7000.00000 0.00000 15600.00000
v 3000.00000 -19.99990 15600.00000
v 7000.00000 -19.99990 15600.00000
v 3000.00000 -19.99990 15360.00000
v 3000.00000 -19.99990 15460.00000
v 3000.00000 0.00000 15360.00000
v 3000.00000 0.00000 15460.00000
v 3520.00000 -19.99990 15445.00000
v 3520.00000 -19.99990 15375.00000
v 3520.00000 0.00000 15445.00000
v 3520.00000 0.00000 15375.00000
v 3520.00000 -19.99990 15375.00000
v 3680.00000 -19.99990 15375.00000
v 3520.00000 0.00000 15375.00000
v 3680.00000 0.00000 15375.00000
v 3680.00000 -19.99990 15445.00000
v 3520.00000 -19.99990 15445.00000
v 3680.00000 0.00000 15445.00000
v 3520.00000 0.00000 15445.00000
v 3680.00000 -19.99990 15375.00000
v 3680.00000 -19.99990 15445.00000
v 3680.00000 0.00000 15375.00000
v 3680.00000 0.00000 15445.00000
v 4220.00000 -19.99990 15445.00000
v 4220.00000 -19.99990 15375.00000
v 4220.00000 0.00000 15445.00000
v 4220.00000 0.00000 15375.00000
v 4220.00000 -19.99990 15375.00000
v 4380.00000 -19.99990 15375.00000
v 4220.00000 0.00000 15375.00000
v 4380.00000 0.00000 15375.00000
v 4380.00000 -19.99990 15445.00000
v 4220.00000 -19.99990 15445.00000
v 4380.00000 0.00000 15445.00000
v 4220.00000 0.00000 15445.00000
v 4380.00000 -19.99990 15375.00000
v 4380.00000 -19.99990 15445.00000
v 4380.00000 0.00000 15375.00000
v 4380.00000 0.00000 15445.00000
v 4920.00000 -19.99990 15445.00000
v 4920.00000 -19.99990 15375.00000
v 4920.00000 0.00000 15445.00000
v 4920.00000 0.00000 15375.00000
v 4920.00000 -19.99990 15375.00000
v 5080.00000 -19.99990 15375.00000
v 4920.00000 0.00000 15375.00000
v 5080.00000 0.00000 15375.00000
v 5080.00000 -19.99990 15445.00000
v 4920.00000 -19.99990 15445.00000
v 5080.00000 0.00000 15445.00000
v 4920.00000 0.00000 15445.00000
v 7000.00000 0.00000 15460.00000
v 3000.00000 0.00000 15460.00000
v 7000.00000 -19.99990 15460.00000
v 3000.00000 -19.99990 15460.00000
v 5080.00000 -19.99990 15375.00000
v 5080.00000 -19.99990 15445.00000
v 5080.00000 0.00000 15375.00000
v 5080.00000 0.00000 15445.00000
v 5620.00000 -19.99990 15445.00000
v 5620.00000 -19.99990 15375.00000
v 5620.00000 0.00000 15445.00000
v 5620.00000 0.00000 15375.00000
v 5620.00000 -19.99990 15375.00000
v 5780.00000 -19.99990 15375.00000
v 5620.00000 0.00000 15375.00000
v 5780.00000 0.00000 15375.00000
v 5780.00000 -19.99990 15445.00000
v 5620.00000 -19.99990 15445.00000
v 5780.00000 0.00000 15445.00000
v 5620.00000 0.00000 15445.00000
v 5780.00000 -19.99990 15375.00000
v 5780.00000 -19.99990 15445.00000
v 5780.00000 0.00000 15375.00000
v 5780.00000 0.00000 15445.00000
v 6320.00000 -19.99990 15445.00000
v 6320.00000 -19.99990 15375.00000
v 6320.00000 0.00000 15445.00000
v 6320.00000 0.00000 15375.00000
v 6320.00000 -19.99990 15375.00000
v 6480.00000 -19.99990 15375.00000
v 6320.00000 0.00000 15375.00000
v 6480.00000 0.00000 15375.00000
v 6480.00000 -19.99990 15445.00000
v 6320.00000 -19.99990 15445.00000
v 6480.00000 0.00000 15445.00000
v 6320.00000 0.00000 15445.00000
v 6480.00000 -19.99990 15375.00000
v 6480.00000 -19.99990 15445.00000
v 6480.00000 0.00000 15375.00000
v 6480.00000 0.00000 15445.00000
v 7000.00000 -19.99990 15460.00000
v 7000.00000 -19.99990 15360.00000
v 7000.00000 0.00000 15460.00000
v 7000.00000 0.00000 15360.00000
v 3000.00000 -19.99990 15600.00000
v 3000.00000 -19.99990 15700.00000
v 3000.00000 0.00000 15600.00000
v 3000.00000 0.00000 15700.00000
v 3520.00000 -19.99990 15685.00000
v 3520.00000 -19.99990 15615.00000
v 3520.00000 0.00000 15685.00000
v 3520.00000 0.00000 15615.00000
v 3520.00000 -19.99990 15615.00000
v 3680.00000 -19.99990 15615.00000
v 3520.00000 0.00000 15615.00000
v 3680.00000 0.00000 15615.00000
v 3680.00000 -19.99990 15685.00000
v 3520.00000 -19.99990 15685.00000
v 3680.00000 0.00000 15685.00000
v 3520.00000 0.00000 15685.00000
v 3680.00000 -19.99990 15615.00000
v 3680.00000 -19.99990 15685.00000
v 3680.00000 0.00000 15615.00000
v 3680.00000 0.00000 15685.00000
v 4220.00000 -19.99990 15685.00000
v 4220.00000 -19.99990 15615.00000
v 4220.00000 0.00000 15685.00000
v 4220.00000 0.00000 15615.00000
v 4220.00000 -19.99990 15615.00000
v 4380.00000 -19.99990 15615.00000
v 4220.00000 0.00000 15615.00000
v 4380.00000 0.00000 15615.00000
v 4380.00000 -19.99990 15685.00000
v 4220.00000 -19.99990 15685.00000
v 4380.00000 0.00000 15685.00000
v 4220.00000 0.00000 15685.00000
v 4380.00000 -19.99990 15615.00000
v 4380.00000 -19.99990 15685.00000
v 4380.00000 0.00000 15615.00000
v 4380.00000 0.00000 15685.00000
v 4920.00000 -19.99990 15685.00000
v 4920.00000 -19.99990 15615.00000
v 4920.00000 0.00000 15685.00000
v 4920.00000 0.00000 15615.00000
v 4920.00000 -19.99990 15615.00000
v 5080.00000 -19.99990 15615.00000
v 4920.00000 0.00000 15615.00000
v 5080.00000 0.00000 15615.00000
v 5080.00000 -19.99990 15685.00000
v 4920.00000 -19.99990 15685.00000
v 5080.00000 0.00000 15685.00000
v 4920.00000 0.00000 15685.00000
v 7000.00000 0.00000 15700.00000
v 3000.00000 0.00000 15700.00000
v 7000.00000 -19.99990 15700.00000
v 3000.00000 -19.99990 15700.00000
v 5080.00000 -19.99990 15615.00000
v 5080.00000 -19.99990 15685.00000
v 5080.00000 0.00000 15615.00000
v 5080.00000 0.00000 15685.00000
v 5620.00000 -19.99990 15685.00000
v 5620.00000 -19.99990 15615.00000
v 5620.00000 0.00000 15685.00000
v 5620.00000 0.00000 15615.00000
v 5620.00000 -19.99990 15615.00000
v 5780.00000 -19.99990 15615.00000
v 5620.00000 0.00000 15615.00000
v 5780.00000 0.00000 15615.00000
v 5780.00000 -19.99990 15685.00000
v 5620.00000 -19.99990 15685.00000
v 5780.00000 0.00000 15685.00000
v 5620.00000 0.00000 15685.00000
v 5780.00000 -19.99990 15615.00000
v 5780.00000 -19.99990 15685.00000
v 5780.00000 0.00000 15615.00000
v 5780.00000 0.00000 15685.00000
v 6320.00000 -19.99990 15685.00000
v 6320.00000 -19.99990 15615.00000
v 6320.00000 0.00000 15685.00000
v 6320.00000 0.00000 15615.00000
v 6320.00000 -19.99990 15615.00000
v 6480.00000 -19.99990 15615.00000
v 6320.00000 0.00000 15615.00000
v 6480.00000 0.00000 15615.00000
v 6480.00000 -19.99990 15685.00000
v 6320.00000 -19.99990 15685.00000
v 6480.00000 0.00000 15685.00000
v 6320.00000 0.00000 15685.00000
v 6480.00000 -19.99990 15615.00000
v 6480.00000 -19.99990 15685.00000
v 6480.00000 0.00000 15615.00000
v 6480.00000 0.00000 15685.00000
v 7000.00000 -19.99990 15700.00000
v 7000.00000 -19.99990 15600.00000
v 7000.00000 0.00000 15700.00000
v 7000.00000 0.00000 15600.00000
v 2990.00000 -9.94370 15624.90234
v 2990.00000 -20.39480 15622.82031
v 3000.00000 -9.94370 15624.90234
v 3000.00000 -20.39480 15622.82031
v 2990.00000 -9.94370 15654.90234
v 2990.00000 -20.39480 15652.82031
v 3000.00000 -9.94370 15654.90234
v 3000.00000 -20.39480 15652.82031
v 2990.00000 -9.94370 15684.90234
v 2990.00000 -20.39480 15682.82031
v 3000.00000 -9.94370 15684.90234
v 3000.00000 -20.39480 15682.82031
v 3000.00000 -20.39480 15617.18945
v 2990.00000 -20.39480 15617.18945
v 3000.00000 -9.94370 15615.10742
v 2990.00000 -9.94370 15615.10742
v 3000.00000 -20.39480 15647.18945
v 2990.00000 -20.39480 15647.18945
v 3000.00000 -9.94370 15645.10742
v 2990.00000 -9.94370 15645.10742
v 3000.00000 -20.39480 15677.18945
v 2990.00000 -20.39480 15677.18945
v 3000.00000 -9.94370 15675.10742
v 2990.00000 -9.94370 15675.10742
v 3000.00000 0.00000 15618.67578
v 3000.00000 -9.94370 15615.10742
v 2990.00000 0.00000 15618.67578
v 2990.00000 -9.94370 15615.10742
v 2990.00000 -9.94370 15624.90234
v 3000.00000 -9.94370 15624.90234
v 2990.00000 0.00000 15621.33301
v 3000.00000 0.00000 15621.33398
v 3000.00000 0.00000 15648.67578
v 3000.00000 -9.94370 15645.10742
v 2990.00000 0.00000 15648.67578
v 2990.00000 -9.94370 15645.10742
v 2990.00000 -9.94370 15654.90234
v 3000.00000 -9.94370 15654.90234
v 2990.00000 0.00000 15651.33301
v 3000.00000 0.00000 15651.33398
v 3000.00000 0.00000 15678.67578
v 3000.00000 -9.94370 15675.10742
v 2990.00000 0.00000 15678.67578
v 2990.00000 -9.94370 15675.10742
v 2990.00000 -9.94370 15684.90234
v 3000.00000 -9.94370 15684.90234
v 2990.00000 0.00000 15681.33301
v 3000.00000 0.00000 15681.33398
v 3000.00000 0.00000 15618.67578
v 2990.00000 0.00000 15618.67578
v 3000.00000 0.00000 15621.33398
v 2990.00000 0.00000 15621.33301
v 3000.00000 0.00000 15648.67578
v 2990.00000 0.00000 15648.67578
v 3000.00000 0.00000 15651.33398
v 2990.00000 0.00000 15651.33301
v 3000.00000 0.00000 15678.67578
v 2990.00000 0.00000 15678.67578
v 3000.00000 0.00000 15681.33398
v 2990.00000 0.00000 15681.33301
v 2990.00000 -9.94370 15384.90234
v 2990.00000 -20.39480 15382.82031
v 3000.00000 -9.94370 15384.90234
v 3000.00000 -20.39480 15382.82031
v 2990.00000 -9.94370 15414.90234
v 2990.00000 -20.39480 15412.82031
v 3000.00000 -9.94370 15414.90234
v 3000.00000 -20.39480 15412.82031
v 2990.00000 -9.94370 15444.90234
v 2990.00000 -20.39480 15442.82031
v 3000.00000 -9.94370 15444.90234
v 3000.00000 -20.39480 15442.82031
v 3000.00000 -20.39480 15377.18945
v 2990.00000 -20.39480 15377.18945
v 3000.00000 -9.94370 15375.10742
v 2990.00000 -9.94370 15375.10742
v 3000.00000 -20.39480 15407.18945
v 2990.00000 -20.39480 15407.18945
v 3000.00000 -9.94370 15405.10742
v 2990.00000 -9.94370 15405.10742
v 3000.00000 -20.39480 15437.18945
v 2990.00000 -20.39480 15437.18945
v 3000.00000 -9.94370 15435.10742
v 2990.00000 -9.94370 15435.10742
v 3000.00000 0.00000 15378.67578
v 3000.00000 -9.94370 15375.10742
v 2990.00000 0.00000 15378.67578
v 2990.00000 -9.94370 15375.10742
v 2990.00000 -9.94370 15384.90234
v 3000.00000 -9.94370 15384.90234
v 2990.00000 0.00000 15381.33301
v 3000.00000 0.00000 15381.33398
v 3000.00000 0.00000 15408.67578
v 3000.00000 -9.94370 15405.10742
v 2990.00000 0.00000 15408.67578
v 2990.00000 -9.94370 15405.10742
v 2990.00000 -9.94370 15414.90234
v 3000.00000 -9.94370 15414.90234
v 2990.00000 0.00000 15411.33301
v 3000.00000 0.00000 15411.33398
v 3000.00000 0.00000 15438.67578
v 3000.00000 -9.94370 15435.10742
v 2990.00000 0.00000 15438.67578
v 2990.00000 -9.94370 15435.10742
v 2990.00000 -9.94370 15444.90234
v 3000.00000 -9.94370 15444.90234
v 2990.00000 0.00000 15441.33301
v 3000.00000 0.00000 15441.33398
v 3000.00000 0.00000 15378.67578
v 2990.00000 0.00000 15378.67578
v 3000.00000 0.00000 15381.33398
v 2990.00000 0.00000 15381.33301
v 3000.00000 0.00000 15408.67578
v 2990.00000 0.00000 15408.67578
v 3000.00000 0.00000 15411.33398
v 2990.00000 0.00000 15411.33301
v 3000.00000 0.00000 15438.67578
v 2990.00000 0.00000 15438.67578
v 3000.00000 0.00000 15441.33398
v 2990.00000 0.00000 15441.33301
v 2990.00000 -9.94370 15624.90234
v 2990.00000 -9.94370 15615.10742
v 2990.00000 -20.39480 15622.82031
v 2990.00000 -20.39480 15617.18945
v 2990.00000 -9.94370 15654.90234
v 2990.00000 -9.94370 15645.10742
v 2990.00000 -20.39480 15652.82031
v 2990.00000 -20.39480 15647.18945
v 2990.00000 -9.94370 15684.90234
v 2990.00000 -9.94370 15675.10742
v 2990.00000 -20.39480 15682.82031
v 2990.00000 -20.39480 15677.18945
v 2990.00000 0.00000 15621.33301
v 2990.00000 0.00000 15618.67578
v 2990.00000 0.00000 15651.33301
v 2990.00000 0.00000 15648.67578
v 2990.00000 0.00000 15681.33301
v 2990.00000 0.00000 15678.67578
v 2990.00000 -9.94370 15384.90234
v 2990.00000 -9.94370 15375.10742
v 2990.00000 -20.39480 15382.82031
v 2990.00000 -20.39480 15377.18945
v 2990.00000 -9.94370 15414.90234
v 2990.00000 -9.94370 15405.10742
v 2990.00000 -20.39480 15412.82031
v 2990.00000 -20.39480 15407.18945
v 2990.00000 -9.94370 15444.90234
v 2990.00000 -9.94370 15435.10742
v 2990.00000 -20.39480 15442.82031
v 2990.00000 -20.39480 15437.18945
v 2990.00000 0.00000 15381.33301
v 2990.00000 0.00000 15378.67578
v 2990.00000 0.00000 15411.33301
v 2990.00000 0.00000 15408.67578
v 2990.00000 0.00000 15441.33301
v 2990.00000 0.00000 15438.67578

vt 48.73920 -0.00300 
vt -5.25480 -0.00300 
vt 48.74060 -0.64460 
vt -5.25620 -0.64460 
vt 48.73920 -0.00300 
vt -5.25480 -0.00300 
vt 48.74060 -0.64460 
vt -5.25620 -0.64460 
vt 48.74060 -0.64460 
vt 52.73460 -0.64460 
vt 48.73920 -0.00300 
vt 52.73310 -0.00300 
vt -0.99990 2.49990 
vt -2.49990 2.49990 
vt -0.99990 2.99990 
vt -2.49990 2.99990 
vt -2.49990 2.49990 
vt -5.49990 2.49990 
vt -2.49990 2.99990 
vt -5.49990 2.99990 
vt -3.99990 2.49990 
vt -0.99990 2.49990 
vt -3.99990 2.99990 
vt -0.99990 2.99990 
vt -5.49990 2.49990 
vt -3.99990 2.49990 
vt -5.49990 2.99990 
vt -3.99990 2.99990 
vt -0.99990 2.49990 
vt -2.49990 2.49990 
vt -0.99990 2.99990 
vt -2.49990 2.99990 
vt -2.49990 2.49990 
vt -5.49990 2.49990 
vt -2.49990 2.99990 
vt -5.49990 2.99990 
vt -3.99990 2.49990 
vt -0.99990 2.49990 
vt -3.99990 2.99990 
vt -0.99990 2.99990 
vt -5.49990 2.49990 
vt -3.99990 2.49990 
vt -5.49990 2.99990 
vt -3.99990 2.99990 
vt -0.99990 2.49990 
vt -2.49990 2.49990 
vt -0.99990 2.99990 
vt -2.49990 2.99990 
vt -2.49990 2.49990 
vt -5.49990 2.49990 
vt -2.49990 2.99990 
vt -5.49990 2.99990 
vt -3.99990 2.49990 
vt -0.99990 2.49990 
vt -3.99990 2.99990 
vt -0.99990 2.99990 
vt -1.26090 -0.00300 
vt 52.73310 -0.00300 
vt -1.26230 -0.64460 
vt 52.73460 -0.64460 
vt -5.49990 2.49990 
vt -3.99990 2.49990 
vt -5.49990 2.99990 
vt -3.99990 2.99990 
vt -0.99990 2.49990 
vt -2.49990 2.49990 
vt -0.99990 2.99990 
vt -2.49990 2.99990 
vt -2.49990 2.49990 
vt -5.49990 2.49990 
vt -2.49990 2.99990 
vt -5.49990 2.99990 
vt -3.99990 2.49990 
vt -0.99990 2.49990 
vt -3.99990 2.99990 
vt -0.99990 2.99990 
vt -5.49990 2.49990 
vt -3.99990 2.49990 
vt -5.49990 2.99990 
vt -3.99990 2.99990 
vt -0.99990 2.49990 
vt -2.49990 2.49990 
vt -0.99990 2.99990 
vt -2.49990 2.99990 
vt -2.49990 2.49990 
vt -5.49990 2.49990 
vt -2.49990 2.99990 
vt -5.49990 2.99990 
vt -3.99990 2.49990 
vt -0.99990 2.49990 
vt -3.99990 2.99990 
vt -0.99990 2.99990 
vt -5.49990 2.49990 
vt -3.99990 2.49990 
vt -5.49990 2.99990 
vt -3.99990 2.99990 
vt -1.26230 -0.64460 
vt -5.25620 -0.64460 
vt -1.26090 -0.00300 
vt -5.25480 -0.00300 
vt 48.74060 -0.64460 
vt 52.73460 -0.64460 
vt 48.73920 -0.00300 
vt 52.73310 -0.00300 
vt -0.99990 2.49990 
vt -2.49990 2.49990 
vt -0.99990 2.99990 
vt -2.49990 2.99990 
vt -2.49990 2.49990 
vt -5.49990 2.49990 
vt -2.49990 2.99990 
vt -5.49990 2.99990 
vt -3.99990 2.49990 
vt -0.99990 2.49990 
vt -3.99990 2.99990 
vt -0.99990 2.99990 
vt -5.49990 2.49990 
vt -3.99990 2.49990 
vt -5.49990 2.99990 
vt -3.99990 2.99990 
vt -0.99990 2.49990 
vt -2.49990 2.49990 
vt -0.99990 2.99990 
vt -2.49990 2.99990 
vt -2.49990 2.49990 
vt -5.49990 2.49990 
vt -2.49990 2.99990 
vt -5.49990 2.99990 
vt -3.99990 2.49990 
vt -0.99990 2.49990 
vt -3.99990 2.99990 
vt -0.99990 2.99990 
vt -5.49990 2.49990 
vt -3.99990 2.49990 
vt -5.49990 2.99990 
vt -3.99990 2.99990 
vt -0.99990 2.49990 
vt -2.49990 2.49990 
vt -0.99990 2.99990 
vt -2.49990 2.99990 
vt -2.49990 2.49990 
vt -5.49990 2.49990 
vt -2.49990 2.99990 
vt -5.49990 2.99990 
vt -3.99990 2.49990 
vt -0.99990 2.49990 
vt -3.99990 2.99990 
vt -0.99990 2.99990 
vt -1.26090 -0.00300 
vt 52.73310 -0.00300 
vt -1.26230 -0.64460 
vt 52.73460 -0.64460 
vt -5.49990 2.49990 
vt -3.99990 2.49990 
vt -5.49990 2.99990 
vt -3.99990 2.99990 
vt -0.99990 2.49990 
vt -2.49990 2.49990 
vt -0.99990 2.99990 
vt -2.49990 2.99990 
vt -2.49990 2.49990 
vt -5.49990 2.49990 
vt -2.49990 2.99990 
vt -5.49990 2.99990 
vt -3.99990 2.49990 
vt -0.99990 2.49990 
vt -3.99990 2.99990 
vt -0.99990 2.99990 
vt -5.49990 2.49990 
vt -3.99990 2.49990 
vt -5.49990 2.99990 
vt -3.99990 2.99990 
vt -0.99990 2.49990 
vt -2.49990 2.49990 
vt -0.99990 2.99990 
vt -2.49990 2.99990 
vt -2.49990 2.49990 
vt -5.49990 2.49990 
vt -2.49990 2.99990 
vt -5.49990 2.99990 
vt -3.99990 2.49990 
vt -0.99990 2.49990 
vt -3.99990 2.99990 
vt -0.99990 2.99990 
vt -5.49990 2.49990 
vt -3.99990 2.49990 
vt -5.49990 2.99990 
vt -3.99990 2.99990 
vt -1.26230 -0.64460 
vt -5.25620 -0.64460 
vt -1.26090 -0.00300 
vt -5.25480 -0.00300 
vt -0.99990 5.00000 
vt -1.99990 5.00000 
vt -0.99990 4.00010 
vt -1.99990 4.00010 
vt -0.99990 5.00000 
vt -1.99990 5.00000 
vt -0.99990 4.00010 
vt -1.99990 4.00010 
vt -0.99990 5.00000 
vt -1.99990 5.00000 
vt -0.99990 4.00010 
vt -1.99990 4.00010 
vt -2.74990 4.00010 
vt -2.74990 5.00000 
vt -3.74990 4.00010 
vt -3.74990 5.00000 
vt -2.74990 4.00010 
vt -2.74990 5.00000 
vt -3.74990 4.00010 
vt -3.74990 5.00000 
vt -2.74990 4.00010 
vt -2.74990 5.00000 
vt -3.74990 4.00010 
vt -3.74990 5.00000 
vt -4.74990 4.00010 
vt -3.74990 4.00010 
vt -4.74990 5.00000 
vt -3.74990 5.00000 
vt -0.99990 5.00000 
vt -0.99990 4.00010 
vt 0.00000 5.00000 
vt 0.00000 4.00010 
vt -4.74990 4.00010 
vt -3.74990 4.00010 
vt -4.74990 5.00000 
vt -3.74990 5.00000 
vt -0.99990 5.00000 
vt -0.99990 4.00010 
vt 0.00000 5.00000 
vt 0.00000 4.00010 
vt -4.74990 4.00010 
vt -3.74990 4.00010 
vt -4.74990 5.00000 
vt -3.74990 5.00000 
vt -0.99990 5.00000 
vt -0.99990 4.00010 
vt 0.00000 5.00000 
vt 0.00000 4.00010 
vt -4.74990 4.00010 
vt -4.74990 5.00000 
vt -4.99990 4.00010 
vt -4.99990 5.00000 
vt -4.74990 4.00010 
vt -4.74990 5.00000 
vt -4.99990 4.00010 
vt -4.99990 5.00000 
vt -4.74990 4.00010 
vt -4.74990 5.00000 
vt -4.99990 4.00010 
vt -4.99990 5.00000 
vt -0.99990 5.00000 
vt -1.99990 5.00000 
vt -0.99990 4.00010 
vt -1.99990 4.00010 
vt -0.99990 5.00000 
vt -1.99990 5.00000 
vt -0.99990 4.00010 
vt -1.99990 4.00010 
vt -0.99990 5.00000 
vt -1.99990 5.00000 
vt -0.99990 4.00010 
vt -1.99990 4.00010 
vt -2.74990 4.00010 
vt -2.74990 5.00000 
vt -3.74990 4.00010 
vt -3.74990 5.00000 
vt -2.74990 4.00010 
vt -2.74990 5.00000 
vt -3.74990 4.00010 
vt -3.74990 5.00000 
vt -2.74990 4.00010 
vt -2.74990 5.00000 
vt -3.74990 4.00010 
vt -3.74990 5.00000 
vt -4.74990 4.00010 
vt -3.74990 4.00010 
vt -4.74990 5.00000 
vt -3.74990 5.00000 
vt -0.99990 5.00000 
vt -0.99990 4.00010 
vt 0.00000 5.00000 
vt 0.00000 4.00010 
vt -4.74990 4.00010 
vt -3.74990 4.00010 
vt -4.74990 5.00000 
vt -3.74990 5.00000 
vt -0.99990 5.00000 
vt -0.99990 4.00010 
vt 0.00000 5.00000 
vt 0.00000 4.00010 
vt -4.74990 4.00010 
vt -3.74990 4.00010 
vt -4.74990 5.00000 
vt -3.74990 5.00000 
vt -0.99990 5.00000 
vt -0.99990 4.00010 
vt 0.00000 5.00000 
vt 0.00000 4.00010 
vt -4.74990 4.00010 
vt -4.74990 5.00000 
vt -4.99990 4.00010 
vt -4.99990 5.00000 
vt -4.74990 4.00010 
vt -4.74990 5.00000 
vt -4.99990 4.00010 
vt -4.99990 5.00000 
vt -4.74990 4.00010 
vt -4.74990 5.00000 
vt -4.99990 4.00010 
vt -4.99990 5.00000 
vt -1.91290 1.00010 
vt -1.58700 1.00010 
vt -1.83130 0.52070 
vt -1.66860 0.52070 
vt -1.91300 1.00010 
vt -1.58700 1.00010 
vt -1.83130 0.52070 
vt -1.66860 0.52070 
vt -1.91300 1.00010 
vt -1.58700 1.00010 
vt -1.83130 0.52070 
vt -1.66860 0.52070 
vt -1.83130 0.52070 
vt -1.66860 0.52070 
vt -1.83130 0.52070 
vt -1.66860 0.52070 
vt -1.83130 0.52070 
vt -1.66860 0.52070 
vt -1.91290 1.00010 
vt -1.58700 1.00010 
vt -1.83130 0.52070 
vt -1.66860 0.52070 
vt -1.91300 1.00010 
vt -1.58700 1.00010 
vt -1.83130 0.52070 
vt -1.66860 0.52070 
vt -1.91300 1.00010 
vt -1.58700 1.00010 
vt -1.83130 0.52070 
vt -1.66860 0.52070 
vt -1.83130 0.52070 
vt -1.66860 0.52070 
vt -1.83130 0.52070 
vt -1.66860 0.52070 
vt -1.83130 0.52070 
vt -1.66860 0.52070 

s 1

g Object_2

usemtl texture0

f 1/1 2/2 3/3
f 2/2 4/4 3/3
f 5/5 6/6 7/7
f 6/6 8/8 7/7

usemtl texture1

f 9/9 10/10 11/11
f 10/10 12/12 11/11
f 13/13 14/14 15/15
f 14/14 16/16 15/15
f 17/17 18/18 19/19
f 18/18 20/20 19/19
f 21/21 22/22 23/23
f 22/22 24/24 23/23
f 25/25 26/26 27/27
f 26/26 28/28 27/27
f 29/29 30/30 31/31
f 30/30 32/32 31/31
f 33/33 34/34 35/35
f 34/34 36/36 35/35
f 37/37 38/38 39/39
f 38/38 40/40 39/39
f 41/41 42/42 43/43
f 42/42 44/44 43/43
f 45/45 46/46 47/47
f 46/46 48/48 47/47
f 49/49 50/50 51/51
f 50/50 52/52 51/51
f 53/53 54/54 55/55
f 54/54 56/56 55/55
f 57/57 58/58 59/59
f 58/58 60/60 59/59
f 61/61 62/62 63/63
f 62/62 64/64 63/63
f 65/65 66/66 67/67
f 66/66 68/68 67/67
f 69/69 70/70 71/71
f 70/70 72/72 71/71
f 73/73 74/74 75/75
f 74/74 76/76 75/75
f 77/77 78/78 79/79
f 78/78 80/80 79/79
f 81/81 82/82 83/83
f 82/82 84/84 83/83
f 85/85 86/86 87/87
f 86/86 88/88 87/87
f 89/89 90/90 91/91
f 90/90 92/92 91/91
f 93/93 94/94 95/95
f 94/94 96/96 95/95
f 97/97 98/98 99/99
f 98/98 100/100 99/99
f 101/101 102/102 103/103
f 102/102 104/104 103/103
f 105/105 106/106 107/107
f 106/106 108/108 107/107
f 109/109 110/110 111/111
f 110/110 112/112 111/111
f 113/113 114/114 115/115
f 114/114 116/116 115/115
f 117/117 118/118 119/119
f 118/118 120/120 119/119
f 121/121 122/122 123/123
f 122/122 124/124 123/123
f 125/125 126/126 127/127
f 126/126 128/128 127/127
f 129/129 130/130 131/131
f 130/130 132/132 131/131
f 133/133 134/134 135/135
f 134/134 136/136 135/135
f 137/137 138/138 139/139
f 138/138 140/140 139/139
f 141/141 142/142 143/143
f 142/142 144/144 143/143
f 145/145 146/146 147/147
f 146/146 148/148 147/147
f 149/149 150/150 151/151
f 150/150 152/152 151/151
f 153/153 154/154 155/155
f 154/154 156/156 155/155
f 157/157 158/158 159/159
f 158/158 160/160 159/159
f 161/161 162/162 163/163
f 162/162 164/164 163/163
f 165/165 166/166 167/167
f 166/166 168/168 167/167
f 169/169 170/170 171/171
f 170/170 172/172 171/171
f 173/173 174/174 175/175
f 174/174 176/176 175/175
f 177/177 178/178 179/179
f 178/178 180/180 179/179
f 181/181 182/182 183/183
f 182/182 184/184 183/183
f 185/185 186/186 187/187
f 186/186 188/188 187/187
f 189/189 190/190 191/191
f 190/190 192/192 191/191

usemtl texture2

f 193/193 194/194 195/195
f 195/195 194/194 196/196
f 197/197 198/198 199/199
f 199/199 198/198 200/200
f 201/201 202/202 203/203
f 203/203 202/202 204/204
f 205/205 206/206 207/207
f 207/207 206/206 208/208
f 209/209 210/210 211/211
f 211/211 210/210 212/212
f 213/213 214/214 215/215
f 215/215 214/214 216/216
f 217/217 218/218 219/219
f 218/218 220/220 219/219
f 221/221 222/222 223/223
f 223/223 222/222 224/224
f 225/225 226/226 227/227
f 226/226 228/228 227/227
f 229/229 230/230 231/231
f 231/231 230/230 232/232
f 233/233 234/234 235/235
f 234/234 236/236 235/235
f 237/237 238/238 239/239
f 239/239 238/238 240/240
f 241/241 242/242 243/243
f 242/242 244/244 243/243
f 245/245 246/246 247/247
f 246/246 248/248 247/247
f 249/249 250/250 251/251
f 250/250 252/252 251/251
f 253/253 254/254 255/255
f 255/255 254/254 256/256
f 257/257 258/258 259/259
f 259/259 258/258 260/260
f 261/261 262/262 263/263
f 263/263 262/262 264/264
f 265/265 266/266 267/267
f 267/267 266/266 268/268
f 269/269 270/270 271/271
f 271/271 270/270 272/272
f 273/273 274/274 275/275
f 275/275 274/274 276/276
f 277/277 278/278 279/279
f 278/278 280/280 279/279
f 281/281 282/282 283/283
f 283/283 282/282 284/284
f 285/285 286/286 287/287
f 286/286 288/288 287/287
f 289/289 290/290 291/291
f 291/291 290/290 292/292
f 293/293 294/294 295/295
f 294/294 296/296 295/295
f 297/297 298/298 299/299
f 299/299 298/298 300/300
f 301/301 302/302 303/303
f 302/302 304/304 303/303
f 305/305 306/306 307/307
f 306/306 308/308 307/307
f 309/309 310/310 311/311
f 310/310 312/312 311/311

usemtl texture3

f 313/313 314/314 315/315
f 314/314 316/316 315/315
f 317/317 318/318 319/319
f 318/318 320/320 319/319
f 321/321 322/322 323/323
f 322/322 324/324 323/323
f 325/325 326/326 313/313
f 326/326 314/314 313/313
f 327/327 328/328 317/317
f 328/328 318/318 317/317
f 329/329 330/330 321/321
f 330/330 322/322 321/321
f 331/331 332/332 333/333
f 332/332 334/334 333/333
f 335/335 336/336 337/337
f 336/336 338/338 337/337
f 339/339 340/340 341/341
f 340/340 342/342 341/341
f 343/343 344/344 331/331
f 344/344 332/332 331/331
f 345/345 346/346 335/335
f 346/346 336/336 335/335
f 347/347 348/348 339/339
f 348/348 340/340 339/339

