# Model created using BSP2OBJ v0.2.1 by DCx Demo*
# http://devilclanthps3.weebly.com/

mtllib S23_ONS_06.obj.mtl
# Object number 1
# 104 faces
# 184 vertices

v 15450.00000 0.00000 -11480.00000
v 15450.00000 0.00000 -11320.00000
v 15474.70313 0.00000 -11480.00000
v 15474.70313 0.00000 -11320.00000
v 15450.00000 0.00000 -10780.00000
v 15450.00000 0.00000 -10620.00000
v 15474.70313 0.00000 -10780.00000
v 15474.70313 0.00000 -10620.00000
v 15450.00000 0.00000 -10080.00000
v 15450.00000 0.00000 -9920.00000
v 15474.70313 0.00000 -10080.00000
v 15474.70313 0.00000 -9920.00000
v 15450.00000 0.00000 -9380.00000
v 15450.00000 0.00000 -9220.00000
v 15474.70313 0.00000 -9380.00000
v 15474.70313 0.00000 -9220.00000
v 15450.00000 0.00000 -8680.00000
v 15450.00000 0.00000 -8520.00000
v 15474.70313 0.00000 -8680.00000
v 15474.70313 0.00000 -8520.00000
v 15585.29688 0.00000 -11320.00000
v 15610.00000 0.00000 -11320.00000
v 15585.29688 0.00000 -11480.00000
v 15610.00000 0.00000 -11480.00000
v 15585.29688 0.00000 -10620.00000
v 15610.00000 0.00000 -10620.00000
v 15585.29688 0.00000 -10780.00000
v 15610.00000 0.00000 -10780.00000
v 15585.29688 0.00000 -9920.00000
v 15610.00000 0.00000 -9920.00000
v 15585.29688 0.00000 -10080.00000
v 15610.00000 0.00000 -10080.00000
v 15585.29688 0.00000 -9220.00000
v 15610.00000 0.00000 -9220.00000
v 15585.29688 0.00000 -9380.00000
v 15610.00000 0.00000 -9380.00000
v 15585.29688 0.00000 -8520.00000
v 15610.00000 0.00000 -8520.00000
v 15585.29688 0.00000 -8680.00000
v 15610.00000 0.00000 -8680.00000
v 15450.00000 0.00000 -11500.00000
v 15476.75293 0.00000 -11500.00000
v 15450.00000 0.00000 -11980.00000
v 15476.75293 0.00000 -11980.00000
v 15476.75293 0.00000 -11300.00000
v 15450.00000 0.00000 -11300.00000
v 15476.75293 0.00000 -10800.00000
v 15450.00000 0.00000 -10800.00000
v 15476.75293 0.00000 -10600.00000
v 15450.00000 0.00000 -10600.00000
v 15476.75293 0.00000 -10100.00000
v 15450.00000 0.00000 -10100.00000
v 15476.75293 0.00000 -9900.00000
v 15450.00000 0.00000 -9900.00000
v 15476.75293 0.00000 -9400.00000
v 15450.00000 0.00000 -9400.00000
v 15476.75293 0.00000 -9200.00000
v 15450.00000 0.00000 -9200.00000
v 15476.75293 0.00000 -8700.00000
v 15450.00000 0.00000 -8700.00000
v 15476.75293 0.00000 -8500.00000
v 15450.00000 0.00000 -8500.00000
v 15476.75293 0.00000 -8020.00000
v 15450.00000 0.00000 -8020.00000
v 15583.24707 0.00000 -11500.00000
v 15610.00000 0.00000 -11500.00000
v 15583.24707 0.00000 -11980.00000
v 15610.00000 0.00000 -11980.00000
v 15610.00000 0.00000 -11300.00000
v 15583.24707 0.00000 -11300.00000
v 15610.00000 0.00000 -10800.00000
v 15583.24707 0.00000 -10800.00000
v 15610.00000 0.00000 -10600.00000
v 15583.24707 0.00000 -10600.00000
v 15610.00000 0.00000 -10100.00000
v 15583.24707 0.00000 -10100.00000
v 15610.00000 0.00000 -9900.00000
v 15583.24707 0.00000 -9900.00000
v 15610.00000 0.00000 -9400.00000
v 15583.24707 0.00000 -9400.00000
v 15610.00000 0.00000 -9200.00000
v 15583.24707 0.00000 -9200.00000
v 15610.00000 0.00000 -8700.00000
v 15583.24707 0.00000 -8700.00000
v 15610.00000 0.00000 -8500.00000
v 15583.24707 0.00000 -8500.00000
v 15610.00000 0.00000 -8020.00000
v 15583.24707 0.00000 -8020.00000
v 15530.00000 0.00000 -12000.00000
v 15450.00000 0.00000 -12000.00000
v 15530.00000 0.00000 -11980.00000
v 15450.00000 0.00000 -11980.00000
v 15530.00000 0.00000 -11500.00000
v 15450.00000 0.00000 -11500.00000
v 15530.00000 0.00000 -11480.00000
v 15450.00000 0.00000 -11480.00000
v 15450.00000 0.00000 -11300.00000
v 15530.00000 0.00000 -11300.00000
v 15450.00000 0.00000 -11320.00000
v 15530.00000 0.00000 -11320.00000
v 15450.00000 0.00000 -10780.00000
v 15530.00000 0.00000 -10780.00000
v 15450.00000 0.00000 -10800.00000
v 15530.00000 0.00000 -10800.00000
v 15450.00000 0.00000 -10600.00000
v 15530.00000 0.00000 -10600.00000
v 15450.00000 0.00000 -10620.00000
v 15530.00000 0.00000 -10620.00000
v 15450.00000 0.00000 -10080.00000
v 15530.00000 0.00000 -10080.00000
v 15450.00000 0.00000 -10100.00000
v 15530.00000 0.00000 -10100.00000
v 15450.00000 0.00000 -9900.00000
v 15530.00000 0.00000 -9900.00000
v 15450.00000 0.00000 -9920.00000
v 15530.00000 0.00000 -9920.00000
v 15450.00000 0.00000 -9380.00000
v 15530.00000 0.00000 -9380.00000
v 15450.00000 0.00000 -9400.00000
v 15530.00000 0.00000 -9400.00000
v 15450.00000 0.00000 -9200.00000
v 15530.00000 0.00000 -9200.00000
v 15450.00000 0.00000 -9220.00000
v 15530.00000 0.00000 -9220.00000
v 15450.00000 0.00000 -8680.00000
v 15530.00000 0.00000 -8680.00000
v 15450.00000 0.00000 -8700.00000
v 15530.00000 0.00000 -8700.00000
v 15450.00000 0.00000 -8500.00000
v 15530.00000 0.00000 -8500.00000
v 15450.00000 0.00000 -8520.00000
v 15530.00000 0.00000 -8520.00000
v 15450.00000 0.00000 -8000.00000
v 15530.00000 0.00000 -8000.00000
v 15450.00000 0.00000 -8020.00000
v 15530.00000 0.00000 -8020.00000
v 15610.00000 0.00000 -12000.00000
v 15610.00000 0.00000 -11980.00000
v 15610.00000 0.00000 -11500.00000
v 15610.00000 0.00000 -11480.00000
v 15610.00000 0.00000 -11300.00000
v 15610.00000 0.00000 -11320.00000
v 15610.00000 0.00000 -10780.00000
v 15610.00000 0.00000 -10800.00000
v 15610.00000 0.00000 -10600.00000
v 15610.00000 0.00000 -10620.00000
v 15610.00000 0.00000 -10080.00000
v 15610.00000 0.00000 -10100.00000
v 15610.00000 0.00000 -9900.00000
v 15610.00000 0.00000 -9920.00000
v 15610.00000 0.00000 -9380.00000
v 15610.00000 0.00000 -9400.00000
v 15610.00000 0.00000 -9200.00000
v 15610.00000 0.00000 -9220.00000
v 15610.00000 0.00000 -8680.00000
v 15610.00000 0.00000 -8700.00000
v 15610.00000 0.00000 -8500.00000
v 15610.00000 0.00000 -8520.00000
v 15610.00000 0.00000 -8000.00000
v 15610.00000 0.00000 -8020.00000
v 15476.75293 0.00000 -11980.00000
v 15476.75293 0.00000 -11500.00000
v 15583.24707 0.00000 -11980.00000
v 15583.24707 0.00000 -11500.00000
v 15476.75293 0.00000 -10800.00000
v 15583.24707 0.00000 -10800.00000
v 15476.75293 0.00000 -11300.00000
v 15583.24707 0.00000 -11300.00000
v 15476.75293 0.00000 -10100.00000
v 15583.24707 0.00000 -10100.00000
v 15476.75293 0.00000 -10600.00000
v 15583.24707 0.00000 -10600.00000
v 15476.75293 0.00000 -9400.00000
v 15583.24707 0.00000 -9400.00000
v 15476.75293 0.00000 -9900.00000
v 15583.24707 0.00000 -9900.00000
v 15476.75293 0.00000 -8700.00000
v 15583.24707 0.00000 -8700.00000
v 15476.75293 0.00000 -9200.00000
v 15583.24707 0.00000 -9200.00000
v 15476.75293 0.00000 -8020.00000
v 15583.24707 0.00000 -8020.00000
v 15476.75293 0.00000 -8500.00000
v 15583.24707 0.00000 -8500.00000

vt -2.62520 -3.99120 
vt 0.12470 -3.99120 
vt -2.62520 -4.38180 
vt 0.12470 -4.38180 
vt -2.62520 -3.99120 
vt 0.12470 -3.99120 
vt -2.62520 -4.38180 
vt 0.12470 -4.38180 
vt -2.62520 -3.99120 
vt 0.12470 -3.99120 
vt -2.62520 -4.38180 
vt 0.12470 -4.38180 
vt -2.62520 -3.99120 
vt 0.12470 -3.99120 
vt -2.62520 -4.38180 
vt 0.12470 -4.38180 
vt -2.62520 -3.99540 
vt 0.12470 -3.99540 
vt -2.62520 -4.38430 
vt 0.12470 -4.38430 
vt 0.12470 -4.38180 
vt 0.12470 -3.99120 
vt -2.62520 -4.38180 
vt -2.62520 -3.99120 
vt 0.12470 -4.38180 
vt 0.12470 -3.99120 
vt -2.62520 -4.38180 
vt -2.62520 -3.99120 
vt 0.12470 -4.38180 
vt 0.12470 -3.99120 
vt -2.62520 -4.38180 
vt -2.62520 -3.99120 
vt 0.12470 -4.38180 
vt 0.12470 -3.99120 
vt -2.62520 -4.38180 
vt -2.62520 -3.99120 
vt -2.62520 -4.38430 
vt -2.62520 -3.99050 
vt 0.12470 -4.38430 
vt 0.12470 -3.99050 
vt -4.99990 -3.99990 
vt -4.99990 -4.99990 
vt 8.24990 -3.99990 
vt 8.24990 -4.99990 
vt 8.24990 -4.99990 
vt 8.24990 -3.99990 
vt -4.99990 -4.99990 
vt -4.99990 -3.99990 
vt 8.24990 -4.99990 
vt 8.24990 -3.99990 
vt -4.99990 -4.99990 
vt -4.99990 -3.99990 
vt 8.24990 -4.99990 
vt 8.24990 -3.99990 
vt -4.99990 -4.99990 
vt -4.99990 -3.99990 
vt 8.24990 -4.99990 
vt 8.24990 -3.99990 
vt -4.99990 -4.99990 
vt -4.99990 -3.99990 
vt 8.24990 -4.99990 
vt 8.24990 -3.99990 
vt -4.99990 -4.99990 
vt -4.99990 -3.99990 
vt -4.99990 -4.99990 
vt -4.99990 -3.99990 
vt 8.24990 -4.99990 
vt 8.24990 -3.99990 
vt 8.24990 -3.99990 
vt 8.24990 -4.99990 
vt -4.99990 -3.99990 
vt -4.99990 -4.99990 
vt 8.24990 -3.99990 
vt 8.24990 -4.99990 
vt -4.99990 -3.99990 
vt -4.99990 -4.99990 
vt 8.24990 -3.99990 
vt 8.24990 -4.99990 
vt -4.99990 -3.99990 
vt -4.99990 -4.99990 
vt 8.24990 -3.99990 
vt 8.24990 -4.99990 
vt -4.99990 -3.99990 
vt -4.99990 -4.99990 
vt 8.24990 -3.99990 
vt 8.24990 -4.99990 
vt -4.99990 -3.99990 
vt -4.99990 -4.99990 
vt 0.99810 -3.00220 
vt 0.00180 -3.00220 
vt 0.99810 -3.49830 
vt 0.00180 -3.49830 
vt 0.99810 -3.00220 
vt 0.00180 -3.00220 
vt 0.99810 -3.49830 
vt 0.00180 -3.49830 
vt 0.00180 -3.49830 
vt 0.99810 -3.49830 
vt 0.00180 -3.00220 
vt 0.99810 -3.00220 
vt 0.00180 -3.49830 
vt 0.99810 -3.49830 
vt 0.00180 -3.00220 
vt 0.99810 -3.00220 
vt 0.00180 -3.49830 
vt 0.99810 -3.49830 
vt 0.00180 -3.00220 
vt 0.99810 -3.00220 
vt 0.00180 -3.49830 
vt 0.99810 -3.49830 
vt 0.00180 -3.00220 
vt 0.99810 -3.00220 
vt 0.00180 -3.49830 
vt 0.99810 -3.49830 
vt 0.00180 -3.00220 
vt 0.99810 -3.00220 
vt 0.00180 -3.49830 
vt 0.99810 -3.49830 
vt 0.00180 -3.00220 
vt 0.99810 -3.00220 
vt 0.00180 -3.49830 
vt 0.99810 -3.49830 
vt 0.00180 -3.00220 
vt 0.99810 -3.00220 
vt 0.00180 -3.49830 
vt 0.99810 -3.49830 
vt 0.00180 -3.00220 
vt 0.99810 -3.00220 
vt 0.00180 -3.49830 
vt 0.99810 -3.49830 
vt 0.00180 -3.00220 
vt 0.99810 -3.00220 
vt 0.00180 -3.49830 
vt 0.99810 -3.49830 
vt 0.00180 -3.00220 
vt 0.99810 -3.00220 
vt 0.00180 -3.00220 
vt 0.00180 -3.49830 
vt 0.00180 -3.00220 
vt 0.00180 -3.49830 
vt 0.00180 -3.49830 
vt 0.00180 -3.00220 
vt 0.00180 -3.49830 
vt 0.00180 -3.00220 
vt 0.00180 -3.49830 
vt 0.00180 -3.00220 
vt 0.00180 -3.49830 
vt 0.00180 -3.00220 
vt 0.00180 -3.49830 
vt 0.00180 -3.00220 
vt 0.00180 -3.49830 
vt 0.00180 -3.00220 
vt 0.00180 -3.49830 
vt 0.00180 -3.00220 
vt 0.00180 -3.49830 
vt 0.00180 -3.00220 
vt 0.00180 -3.49830 
vt 0.00180 -3.00220 
vt 0.00180 -3.49830 
vt 0.00180 -3.00220 
vt 1.00000 -3.99990 
vt 1.00000 1.99990 
vt -1.00000 -3.99990 
vt -1.00000 1.99990 
vt -1.00000 1.99990 
vt 1.00000 1.99990 
vt -1.00000 -3.99990 
vt 1.00000 -3.99990 
vt -1.00000 1.99990 
vt 1.00000 1.99990 
vt -1.00000 -3.99990 
vt 1.00000 -3.99990 
vt 0.99990 -3.99990 
vt -0.99800 -3.99990 
vt 0.99990 1.99990 
vt -0.99800 1.99990 
vt -1.00000 1.99990 
vt 1.00000 1.99990 
vt -1.00000 -3.99990 
vt 1.00000 -3.99990 
vt -1.00000 -3.99990 
vt 1.00000 -3.99990 
vt -1.00000 1.99990 
vt 1.00000 1.99990 

s 1

g Object_2

usemtl texture0

f 1/1 2/2 3/3
f 2/2 4/4 3/3
f 5/5 6/6 7/7
f 6/6 8/8 7/7
f 9/9 10/10 11/11
f 10/10 12/12 11/11
f 13/13 14/14 15/15
f 14/14 16/16 15/15
f 17/17 18/18 19/19
f 18/18 20/20 19/19
f 21/21 22/22 23/23
f 22/22 24/24 23/23
f 25/25 26/26 27/27
f 26/26 28/28 27/27
f 29/29 30/30 31/31
f 30/30 32/32 31/31
f 33/33 34/34 35/35
f 34/34 36/36 35/35
f 37/37 38/38 39/39
f 38/38 40/40 39/39

usemtl texture1

f 41/41 42/42 43/43
f 42/42 44/44 43/43
f 45/45 46/46 47/47
f 46/46 48/48 47/47
f 49/49 50/50 51/51
f 50/50 52/52 51/51
f 53/53 54/54 55/55
f 54/54 56/56 55/55
f 57/57 58/58 59/59
f 58/58 60/60 59/59
f 61/61 62/62 63/63
f 62/62 64/64 63/63
f 65/65 66/66 67/67
f 66/66 68/68 67/67
f 69/69 70/70 71/71
f 70/70 72/72 71/71
f 73/73 74/74 75/75
f 74/74 76/76 75/75
f 77/77 78/78 79/79
f 78/78 80/80 79/79
f 81/81 82/82 83/83
f 82/82 84/84 83/83
f 85/85 86/86 87/87
f 86/86 88/88 87/87

usemtl texture2

f 89/89 90/90 91/91
f 90/90 92/92 91/91
f 93/93 94/94 95/95
f 94/94 96/96 95/95
f 97/97 98/98 99/99
f 98/98 100/100 99/99
f 101/101 102/102 103/103
f 102/102 104/104 103/103
f 105/105 106/106 107/107
f 106/106 108/108 107/107
f 109/109 110/110 111/111
f 110/110 112/112 111/111
f 113/113 114/114 115/115
f 114/114 116/116 115/115
f 117/117 118/118 119/119
f 118/118 120/120 119/119
f 121/121 122/122 123/123
f 122/122 124/124 123/123
f 125/125 126/126 127/127
f 126/126 128/128 127/127
f 129/129 130/130 131/131
f 130/130 132/132 131/131
f 133/133 134/134 135/135
f 134/134 136/136 135/135
f 137/137 89/89 138/138
f 89/89 91/91 138/138
f 139/139 93/93 140/140
f 93/93 95/95 140/140
f 98/98 141/141 100/100
f 141/141 142/142 100/100
f 102/102 143/143 104/104
f 143/143 144/144 104/104
f 106/106 145/145 108/108
f 145/145 146/146 108/108
f 110/110 147/147 112/112
f 147/147 148/148 112/112
f 114/114 149/149 116/116
f 149/149 150/150 116/116
f 118/118 151/151 120/120
f 151/151 152/152 120/120
f 122/122 153/153 124/124
f 153/153 154/154 124/124
f 126/126 155/155 128/128
f 155/155 156/156 128/128
f 130/130 157/157 132/132
f 157/157 158/158 132/132
f 134/134 159/159 136/136
f 159/159 160/160 136/136

usemtl texture3

f 161/161 162/162 163/163
f 162/162 164/164 163/163
f 165/165 166/166 167/167
f 166/166 168/168 167/167
f 169/169 170/170 171/171
f 170/170 172/172 171/171
f 173/173 174/174 175/175
f 174/174 176/176 175/175
f 177/177 178/178 179/179
f 178/178 180/180 179/179
f 181/181 182/182 183/183
f 182/182 184/184 183/183

