# Model created using BSP2OBJ v0.2.1 by DCx Demo*
# http://devilclanthps3.weebly.com/

mtllib S23_ON_19.obj.mtl
# Object number 1
# 568 faces
# 1023 vertices

v -15531.00488 -0.00010 12490.00000
v -15531.00488 -0.00010 12010.00000
v -15530.50488 -19.99990 12490.00000
v -15530.50488 -19.99990 12010.00000
v -15529.00488 -0.00010 12490.00000
v -15529.00488 -0.00010 12010.00000
v -15531.00488 -0.00010 12490.00000
v -15531.00488 -0.00010 12010.00000
v -15529.00488 -0.00010 12490.00000
v -15529.50488 -19.99990 12490.00000
v -15529.00488 -0.00010 12010.00000
v -15529.50488 -19.99990 12010.00000
v -15501.00488 -0.00010 12490.00000
v -15501.00488 -0.00010 12010.00000
v -15500.50488 -19.99990 12490.00000
v -15500.50488 -19.99990 12010.00000
v -15499.00488 -0.00010 12490.00000
v -15499.00488 -0.00010 12010.00000
v -15501.00488 -0.00010 12490.00000
v -15501.00488 -0.00010 12010.00000
v -15499.00488 -0.00010 12490.00000
v -15499.50488 -19.99990 12490.00000
v -15499.00488 -0.00010 12010.00000
v -15499.50488 -19.99990 12010.00000
v -12490.00000 0.00000 15528.99512
v -12010.00000 0.00000 15528.99512
v -12490.00000 -19.77440 15529.49512
v -12010.00000 -19.77440 15529.49512
v -12490.00000 0.00000 15530.99512
v -12490.00000 -19.77440 15530.49512
v -12010.00000 0.00000 15530.99512
v -12010.00000 -19.77440 15530.49512
v -12490.00000 0.00000 15558.99512
v -12010.00000 0.00000 15558.99512
v -12490.00000 -19.77440 15559.49512
v -12010.00000 -19.77440 15559.49512
v -12490.00000 0.00000 15560.99512
v -12490.00000 -19.77440 15560.49512
v -12010.00000 0.00000 15560.99512
v -12010.00000 -19.77440 15560.49512
v -12490.00000 0.00000 15530.99512
v -12010.00000 0.00000 15530.99512
v -12490.00000 0.00000 15528.99512
v -12010.00000 0.00000 15528.99512
v -12490.00000 0.00000 15560.99512
v -12010.00000 0.00000 15560.99512
v -12490.00000 0.00000 15558.99512
v -12010.00000 0.00000 15558.99512
v -15561.00488 -0.00010 12010.00000
v -15560.50488 -19.99990 12010.00000
v -15561.00488 -0.00010 12490.00000
v -15560.50488 -19.99990 12490.00000
v -15561.00488 -0.00010 12010.00000
v -15561.00488 -0.00010 12490.00000
v -15559.00488 -0.00010 12010.00000
v -15559.00488 -0.00010 12490.00000
v -15559.00488 -0.00010 12490.00000
v -15559.50488 -19.99990 12490.00000
v -15559.00488 -0.00010 12010.00000
v -15559.50488 -19.99990 12010.00000
v -12010.00000 0.00000 15498.99512
v -12010.00000 -19.77440 15499.49512
v -12490.00000 0.00000 15498.99512
v -12490.00000 -19.77440 15499.49512
v -12490.00000 0.00000 15500.99512
v -12490.00000 -19.77440 15500.49512
v -12010.00000 0.00000 15500.99512
v -12010.00000 -19.77440 15500.49512
v -12010.00000 0.00000 15498.99512
v -12490.00000 0.00000 15498.99512
v -12010.00000 0.00000 15500.99512
v -12490.00000 0.00000 15500.99512
v -15562.82031 -20.45110 12000.00000
v -15562.82031 -20.45110 12010.00000
v -15564.90234 -10.00000 12000.00000
v -15564.90234 -10.00000 12010.00000
v -15564.90234 -10.00000 12490.00000
v -15562.82031 -20.45110 12490.00000
v -15564.90234 -10.00000 12500.00000
v -15562.82031 -20.45110 12500.00000
v -15561.33398 -0.00010 12000.00000
v -15564.90234 -10.00000 12000.00000
v -15561.33301 -0.00010 12010.00000
v -15564.90234 -10.00000 12010.00000
v -15564.90234 -10.00000 12490.00000
v -15564.90234 -10.00000 12500.00000
v -15561.33301 -0.00010 12490.00000
v -15561.33398 -0.00010 12500.00000
v -15561.33398 -0.00010 12000.00000
v -15561.33301 -0.00010 12010.00000
v -15558.67578 -0.00010 12000.00000
v -15558.67578 -0.00010 12010.00000
v -15558.67578 -0.00010 12500.00000
v -15558.67578 -0.00010 12490.00000
v -15561.33398 -0.00010 12500.00000
v -15561.33301 -0.00010 12490.00000
v -15555.10742 -10.00000 12010.00000
v -15555.10742 -10.00000 12000.00000
v -15558.67578 -0.00010 12010.00000
v -15558.67578 -0.00010 12000.00000
v -15558.67578 -0.00010 12500.00000
v -15555.10742 -10.00000 12500.00000
v -15558.67578 -0.00010 12490.00000
v -15555.10742 -10.00000 12490.00000
v -15555.10742 -10.00000 12010.00000
v -15557.18945 -20.45110 12010.00000
v -15555.10742 -10.00000 12000.00000
v -15557.18945 -20.45110 12000.00000
v -15557.18945 -20.45110 12500.00000
v -15557.18945 -20.45110 12490.00000
v -15555.10742 -10.00000 12500.00000
v -15555.10742 -10.00000 12490.00000
v -15532.82031 -20.45110 12000.00000
v -15532.82031 -20.45110 12010.00000
v -15534.90234 -10.00000 12000.00000
v -15534.90234 -10.00000 12010.00000
v -15534.90234 -10.00000 12490.00000
v -15532.82031 -20.45110 12490.00000
v -15534.90234 -10.00000 12500.00000
v -15532.82031 -20.45110 12500.00000
v -15531.33398 -0.00010 12000.00000
v -15534.90234 -10.00000 12000.00000
v -15531.33301 -0.00010 12010.00000
v -15534.90234 -10.00000 12010.00000
v -15534.90234 -10.00000 12490.00000
v -15534.90234 -10.00000 12500.00000
v -15531.33301 -0.00010 12490.00000
v -15531.33398 -0.00010 12500.00000
v -15531.33398 -0.00010 12000.00000
v -15531.33301 -0.00010 12010.00000
v -15528.67578 -0.00010 12000.00000
v -15528.67578 -0.00010 12010.00000
v -15528.67578 -0.00010 12500.00000
v -15528.67578 -0.00010 12490.00000
v -15531.33398 -0.00010 12500.00000
v -15531.33301 -0.00010 12490.00000
v -15525.10742 -10.00000 12010.00000
v -15525.10742 -10.00000 12000.00000
v -15528.67578 -0.00010 12010.00000
v -15528.67578 -0.00010 12000.00000
v -15528.67578 -0.00010 12500.00000
v -15525.10742 -10.00000 12500.00000
v -15528.67578 -0.00010 12490.00000
v -15525.10742 -10.00000 12490.00000
v -15525.10742 -10.00000 12010.00000
v -15527.18945 -20.45110 12010.00000
v -15525.10742 -10.00000 12000.00000
v -15527.18945 -20.45110 12000.00000
v -15527.18945 -20.45110 12500.00000
v -15527.18945 -20.45110 12490.00000
v -15525.10742 -10.00000 12500.00000
v -15525.10742 -10.00000 12490.00000
v -15502.82031 -20.45110 12000.00000
v -15502.82031 -20.45110 12010.00000
v -15504.90234 -10.00000 12000.00000
v -15504.90234 -10.00000 12010.00000
v -15504.90234 -10.00000 12490.00000
v -15502.82031 -20.45110 12490.00000
v -15504.90234 -10.00000 12500.00000
v -15502.82031 -20.45110 12500.00000
v -15501.33398 -0.00010 12000.00000
v -15504.90234 -10.00000 12000.00000
v -15501.33301 -0.00010 12010.00000
v -15504.90234 -10.00000 12010.00000
v -15504.90234 -10.00000 12490.00000
v -15504.90234 -10.00000 12500.00000
v -15501.33301 -0.00010 12490.00000
v -15501.33398 -0.00010 12500.00000
v -15501.33398 -0.00010 12000.00000
v -15501.33301 -0.00010 12010.00000
v -15498.67578 -0.00010 12000.00000
v -15498.67578 -0.00010 12010.00000
v -15498.67578 -0.00010 12500.00000
v -15498.67578 -0.00010 12490.00000
v -15501.33398 -0.00010 12500.00000
v -15501.33301 -0.00010 12490.00000
v -15495.10742 -10.00000 12010.00000
v -15495.10742 -10.00000 12000.00000
v -15498.67578 -0.00010 12010.00000
v -15498.67578 -0.00010 12000.00000
v -15498.67578 -0.00010 12500.00000
v -15495.10742 -10.00000 12500.00000
v -15498.67578 -0.00010 12490.00000
v -15495.10742 -10.00000 12490.00000
v -15495.10742 -10.00000 12010.00000
v -15497.18945 -20.45110 12010.00000
v -15495.10742 -10.00000 12000.00000
v -15497.18945 -20.45110 12000.00000
v -15497.18945 -20.45110 12500.00000
v -15497.18945 -20.45110 12490.00000
v -15495.10742 -10.00000 12500.00000
v -15495.10742 -10.00000 12490.00000
v -12490.00000 -9.77440 15495.09766
v -12490.00000 -20.22550 15497.17969
v -12500.00000 -9.77440 15495.09766
v -12500.00000 -20.22550 15497.17969
v -12500.00000 -20.22550 15502.81055
v -12490.00000 -20.22550 15502.81055
v -12500.00000 -9.77440 15504.89258
v -12490.00000 -9.77440 15504.89258
v -12490.00000 -9.77440 15525.09766
v -12490.00000 -20.22550 15527.17969
v -12500.00000 -9.77440 15525.09766
v -12500.00000 -20.22550 15527.17969
v -12500.00000 -20.22550 15532.81055
v -12490.00000 -20.22550 15532.81055
v -12500.00000 -9.77440 15534.89258
v -12490.00000 -9.77440 15534.89258
v -12490.00000 -9.77440 15555.09766
v -12490.00000 -20.22550 15557.17969
v -12500.00000 -9.77440 15555.09766
v -12500.00000 -20.22550 15557.17969
v -12500.00000 -20.22550 15562.81055
v -12490.00000 -20.22550 15562.81055
v -12500.00000 -9.77440 15564.89258
v -12490.00000 -9.77440 15564.89258
v -12490.00000 -9.77440 15495.09766
v -12500.00000 -9.77440 15495.09766
v -12490.00000 0.00000 15498.66699
v -12500.00000 0.00000 15498.66602
v -12500.00000 0.00000 15501.32422
v -12500.00000 -9.77440 15504.89258
v -12490.00000 0.00000 15501.32422
v -12490.00000 -9.77440 15504.89258
v -12490.00000 -9.77440 15525.09766
v -12500.00000 -9.77440 15525.09766
v -12490.00000 0.00000 15528.66699
v -12500.00000 0.00000 15528.66602
v -12500.00000 0.00000 15531.32422
v -12500.00000 -9.77440 15534.89258
v -12490.00000 0.00000 15531.32422
v -12490.00000 -9.77440 15534.89258
v -12490.00000 -9.77440 15555.09766
v -12500.00000 -9.77440 15555.09766
v -12490.00000 0.00000 15558.66699
v -12500.00000 0.00000 15558.66602
v -12500.00000 0.00000 15561.32422
v -12500.00000 -9.77440 15564.89258
v -12490.00000 0.00000 15561.32422
v -12490.00000 -9.77440 15564.89258
v -12500.00000 0.00000 15501.32422
v -12490.00000 0.00000 15501.32422
v -12500.00000 0.00000 15498.66602
v -12490.00000 0.00000 15498.66699
v -12500.00000 0.00000 15531.32422
v -12490.00000 0.00000 15531.32422
v -12500.00000 0.00000 15528.66602
v -12490.00000 0.00000 15528.66699
v -12500.00000 0.00000 15561.32422
v -12490.00000 0.00000 15561.32422
v -12500.00000 0.00000 15558.66602
v -12490.00000 0.00000 15558.66699
v -12000.00000 -20.22550 15497.17969
v -12010.00000 -20.22550 15497.17969
v -12000.00000 -9.77440 15495.09766
v -12010.00000 -9.77440 15495.09766
v -12010.00000 -9.77440 15504.89258
v -12010.00000 -20.22550 15502.81055
v -12000.00000 -9.77440 15504.89258
v -12000.00000 -20.22550 15502.81055
v -12000.00000 -20.22550 15527.17969
v -12010.00000 -20.22550 15527.17969
v -12000.00000 -9.77440 15525.09766
v -12010.00000 -9.77440 15525.09766
v -12010.00000 -9.77440 15534.89258
v -12010.00000 -20.22550 15532.81055
v -12000.00000 -9.77440 15534.89258
v -12000.00000 -20.22550 15532.81055
v -12000.00000 -20.22550 15557.17969
v -12010.00000 -20.22550 15557.17969
v -12000.00000 -9.77440 15555.09766
v -12010.00000 -9.77440 15555.09766
v -12010.00000 -9.77440 15564.89258
v -12010.00000 -20.22550 15562.81055
v -12000.00000 -9.77440 15564.89258
v -12000.00000 -20.22550 15562.81055
v -12000.00000 0.00000 15498.66602
v -12000.00000 -9.77440 15495.09766
v -12010.00000 0.00000 15498.66699
v -12010.00000 -9.77440 15495.09766
v -12010.00000 -9.77440 15504.89258
v -12000.00000 -9.77440 15504.89258
v -12010.00000 0.00000 15501.32422
v -12000.00000 0.00000 15501.32422
v -12000.00000 0.00000 15528.66602
v -12000.00000 -9.77440 15525.09766
v -12010.00000 0.00000 15528.66699
v -12010.00000 -9.77440 15525.09766
v -12010.00000 -9.77440 15534.89258
v -12000.00000 -9.77440 15534.89258
v -12010.00000 0.00000 15531.32422
v -12000.00000 0.00000 15531.32422
v -12000.00000 0.00000 15558.66602
v -12000.00000 -9.77440 15555.09766
v -12010.00000 0.00000 15558.66699
v -12010.00000 -9.77440 15555.09766
v -12010.00000 -9.77440 15564.89258
v -12000.00000 -9.77440 15564.89258
v -12010.00000 0.00000 15561.32422
v -12000.00000 0.00000 15561.32422
v -12000.00000 0.00000 15498.66602
v -12010.00000 0.00000 15498.66699
v -12000.00000 0.00000 15501.32422
v -12010.00000 0.00000 15501.32422
v -12000.00000 0.00000 15528.66602
v -12010.00000 0.00000 15528.66699
v -12000.00000 0.00000 15531.32422
v -12010.00000 0.00000 15531.32422
v -12000.00000 0.00000 15558.66602
v -12010.00000 0.00000 15558.66699
v -12000.00000 0.00000 15561.32422
v -12010.00000 0.00000 15561.32422
v -15564.90234 -10.00000 12490.00000
v -15555.10742 -10.00000 12490.00000
v -15562.82031 -20.45110 12490.00000
v -15557.18945 -20.45110 12490.00000
v -15561.33301 -0.00010 12490.00000
v -15558.67578 -0.00010 12490.00000
v -15555.10742 -10.00000 12010.00000
v -15564.90234 -10.00000 12010.00000
v -15557.18945 -20.45110 12010.00000
v -15562.82031 -20.45110 12010.00000
v -15558.67578 -0.00010 12010.00000
v -15561.33301 -0.00010 12010.00000
v -15534.90234 -10.00000 12490.00000
v -15525.10742 -10.00000 12490.00000
v -15532.82031 -20.45110 12490.00000
v -15527.18945 -20.45110 12490.00000
v -15531.33301 -0.00010 12490.00000
v -15528.67578 -0.00010 12490.00000
v -15525.10742 -10.00000 12010.00000
v -15534.90234 -10.00000 12010.00000
v -15527.18945 -20.45110 12010.00000
v -15532.82031 -20.45110 12010.00000
v -15528.67578 -0.00010 12010.00000
v -15531.33301 -0.00010 12010.00000
v -15504.90234 -10.00000 12490.00000
v -15495.10742 -10.00000 12490.00000
v -15502.82031 -20.45110 12490.00000
v -15497.18945 -20.45110 12490.00000
v -15501.33301 -0.00010 12490.00000
v -15498.67578 -0.00010 12490.00000
v -15495.10742 -10.00000 12010.00000
v -15504.90234 -10.00000 12010.00000
v -15497.18945 -20.45110 12010.00000
v -15502.82031 -20.45110 12010.00000
v -15498.67578 -0.00010 12010.00000
v -15501.33301 -0.00010 12010.00000
v -12490.00000 -9.77440 15495.09766
v -12490.00000 -9.77440 15504.89258
v -12490.00000 -20.22550 15497.17969
v -12490.00000 -20.22550 15502.81055
v -12490.00000 -9.77440 15525.09766
v -12490.00000 -9.77440 15534.89258
v -12490.00000 -20.22550 15527.17969
v -12490.00000 -20.22550 15532.81055
v -12490.00000 -9.77440 15555.09766
v -12490.00000 -9.77440 15564.89258
v -12490.00000 -20.22550 15557.17969
v -12490.00000 -20.22550 15562.81055
v -12490.00000 0.00000 15498.66699
v -12490.00000 0.00000 15501.32422
v -12490.00000 0.00000 15528.66699
v -12490.00000 0.00000 15531.32422
v -12490.00000 0.00000 15558.66699
v -12490.00000 0.00000 15561.32422
v -12010.00000 -9.77440 15504.89258
v -12010.00000 -9.77440 15495.09766
v -12010.00000 -20.22550 15502.81055
v -12010.00000 -20.22550 15497.17969
v -12010.00000 -9.77440 15534.89258
v -12010.00000 -9.77440 15525.09766
v -12010.00000 -20.22550 15532.81055
v -12010.00000 -20.22550 15527.17969
v -12010.00000 -9.77440 15564.89258
v -12010.00000 -9.77440 15555.09766
v -12010.00000 -20.22550 15562.81055
v -12010.00000 -20.22550 15557.17969
v -12010.00000 0.00000 15501.32422
v -12010.00000 0.00000 15498.66699
v -12010.00000 0.00000 15531.32422
v -12010.00000 0.00000 15528.66699
v -12010.00000 0.00000 15561.32422
v -12010.00000 0.00000 15558.66699
v -15651.38281 -39.99990 13055.67578
v -15651.38281 0.00000 13055.67578
v -15699.99805 -39.99990 12500.00098
v -15699.99805 0.00000 12500.00098
v -15507.01367 -39.99990 13594.46484
v -15507.01367 0.00000 13594.46484
v -15359.99805 0.00000 12500.00098
v -15359.99805 -39.99990 12500.00098
v -15271.27930 -39.99990 14100.00000
v -15271.27930 0.00000 14100.00000
v -15316.54883 0.00000 12996.63477
v -15316.54883 -39.99990 12996.63477
v -15359.99805 0.00000 12500.00098
v -15359.99805 -39.99990 12500.00098
v -15187.51855 0.00000 13478.17871
v -15187.51855 -39.99990 13478.17871
v -14951.33984 -39.99990 14556.92090
v -14951.33984 0.00000 14556.92090
v -14976.83008 0.00000 13930.00098
v -14976.83008 -39.99990 13930.00098
v -14690.88477 0.00000 14338.37305
v -14690.88477 -39.99990 14338.37305
v -14556.91797 -39.99990 14951.34180
v -14556.91797 0.00000 14951.34180
v -14338.37012 0.00000 14690.88672
v -14338.37012 -39.99990 14690.88672
v -14099.99707 -39.99990 15271.28027
v -14099.99707 0.00000 15271.28027
v -13929.99805 0.00000 14976.83203
v -13929.99805 -39.99990 14976.83203
v -13594.46191 -39.99990 15507.01465
v -13594.46191 0.00000 15507.01465
v -13478.17480 0.00000 15187.51953
v -13478.17480 -39.99990 15187.51953
v -13055.67188 -39.99990 15651.38281
v -13055.67188 0.00000 15651.38281
v -12996.63184 0.00000 15316.54883
v -12996.63184 -39.99990 15316.54883
v -12500.00000 -39.99990 15700.00000
v -12500.00000 0.00000 15700.00000
v -12500.00000 0.00000 15360.00000
v -12500.00000 -39.99990 15360.00000
v -12500.00000 -39.99990 15360.00000
v -12500.00000 0.00000 15700.00000
v -12500.00000 0.00000 15360.00000
v -15669.47461 0.00000 12525.03613
v -15669.47363 -9.99990 12525.03613
v -15649.25000 0.00000 12524.87598
v -15649.25000 -9.99990 12524.87598
v -15623.48047 -9.99990 13050.75488
v -15669.47363 -9.99990 12525.03613
v -15623.48047 0.00000 13050.75488
v -15669.47461 0.00000 12525.03613
v -15623.48047 -9.99990 13050.75488
v -15613.51465 -2.82660 13048.99805
v -15669.47363 -9.99990 12525.03613
v -15659.36230 -2.82660 12524.95605
v -15603.54980 -9.99990 13047.24121
v -15649.25000 -9.99990 12524.87598
v -15603.54980 -9.99990 13047.24121
v -15603.54883 0.00000 13047.24121
v -15649.25000 -9.99990 12524.87598
v -15649.25000 0.00000 12524.87598
v -15623.48047 0.00000 13050.75488
v -15603.54883 0.00000 13047.24121
v -15623.48047 -9.99990 13050.75488
v -15603.54980 -9.99990 13047.24121
v -15616.97559 0.00000 13075.02930
v -15616.97559 -9.99990 13075.02832
v -15597.08691 0.00000 13071.35938
v -15597.08691 -9.99990 13071.35938
v -15480.38965 -9.99990 13584.77637
v -15616.97559 -9.99990 13075.02832
v -15480.38965 0.00000 13584.77539
v -15616.97559 0.00000 13075.02930
v -15480.38965 -9.99990 13584.77637
v -15470.88086 -2.82660 13581.31348
v -15616.97559 -9.99990 13075.02832
v -15607.03125 -2.82660 13073.19434
v -15461.37207 -9.99990 13577.85449
v -15597.08691 -9.99990 13071.35938
v -15461.37207 -9.99990 13577.85449
v -15461.37207 0.00000 13577.85352
v -15597.08691 -9.99990 13071.35938
v -15597.08691 0.00000 13071.35938
v -15543.07422 0.00000 12524.03711
v -15543.07422 -9.99990 12524.03613
v -15512.73730 0.00000 12523.79785
v -15512.73730 -9.99990 12523.79785
v -15498.91406 -9.99990 13028.79199
v -15543.07422 -9.99990 12524.03613
v -15498.91406 0.00000 13028.79102
v -15543.07422 0.00000 12524.03711
v -15498.91406 -9.99990 13028.79199
v -15483.96582 -2.86780 13026.15527
v -15543.07422 -9.99990 12524.03613
v -15527.90625 -2.86780 12523.91699
v -15469.01855 -9.99990 13023.51953
v -15512.73730 -9.99990 12523.79785
v -15469.01855 -9.99990 13023.51953
v -15469.01758 0.00000 13023.51953
v -15512.73730 -9.99990 12523.79785
v -15512.73730 0.00000 12523.79785
v -15469.01758 0.00000 13023.51953
v -15469.01855 -9.99990 13023.51953
v -15498.91406 0.00000 13028.79102
v -15498.91406 -9.99990 13028.79199
v -15492.66895 0.00000 13052.09668
v -15492.66895 -9.99990 13052.09668
v -15462.83496 0.00000 13046.59277
v -15462.83496 -9.99990 13046.59277
v -15461.37207 0.00000 13577.85352
v -15461.37207 -9.99990 13577.85449
v -15480.38965 0.00000 13584.77539
v -15480.38965 -9.99990 13584.77637
v -15469.76953 0.00000 13607.55078
v -15469.76953 -9.99990 13607.55078
v -15450.81934 0.00000 13600.48340
v -15450.81934 -9.99990 13600.48340
v -15361.52832 -9.99990 13541.51270
v -15492.66895 -9.99990 13052.09668
v -15361.52930 0.00000 13541.51367
v -15492.66895 0.00000 13052.09668
v -15361.52832 -9.99990 13541.51270
v -15347.26660 -2.86780 13536.32227
v -15492.66895 -9.99990 13052.09668
v -15477.75195 -2.86780 13049.34473
v -15333.00391 -9.99990 13531.12988
v -15462.83496 -9.99990 13046.59277
v -15333.00391 -9.99990 13531.12988
v -15333.00391 0.00000 13531.13086
v -15462.83496 -9.99990 13046.59277
v -15462.83496 0.00000 13046.59277
v -15406.55957 -9.99990 12522.95801
v -15386.33691 -9.99990 12522.79980
v -15406.56055 0.00000 12522.95898
v -15386.33691 0.00000 12522.79883
v -15364.38184 -9.99990 13005.06934
v -15406.55957 -9.99990 12522.95801
v -15364.38184 0.00000 13005.06934
v -15406.56055 0.00000 12522.95898
v -15364.38184 -9.99990 13005.06934
v -15354.41699 -2.82660 13003.31250
v -15406.55957 -9.99990 12522.95801
v -15396.44922 -2.82660 12522.87891
v -15344.45020 -9.99990 13001.55469
v -15386.33691 -9.99990 12522.79980
v -15344.45020 -9.99990 13001.55469
v -15344.45117 0.00000 13001.55469
v -15386.33691 -9.99990 12522.79980
v -15386.33691 0.00000 12522.79883
v -15246.74121 -9.99990 14085.83301
v -15469.76953 -9.99990 13607.55078
v -15246.74121 0.00000 14085.83398
v -15469.76953 0.00000 13607.55078
v -15364.38184 0.00000 13005.06934
v -15344.45117 0.00000 13001.55469
v -15364.38184 -9.99990 13005.06934
v -15344.45020 -9.99990 13001.55469
v -15246.74121 -9.99990 14085.83301
v -15237.97852 -2.82660 14080.77441
v -15469.76953 -9.99990 13607.55078
v -15460.29492 -2.82660 13604.01660
v -15358.41797 -9.99990 13027.32910
v -15338.52832 -9.99990 13023.66016
v -15358.41797 0.00000 13027.32910
v -15338.52832 0.00000 13023.66016
v -15333.00391 -9.99990 13531.12988
v -15361.52832 -9.99990 13541.51270
v -15333.00391 0.00000 13531.13086
v -15361.52930 0.00000 13541.51367
v -15229.21484 -9.99990 14075.71484
v -15450.81934 -9.99990 13600.48340
v -15229.21484 -9.99990 14075.71484
v -15229.21484 0.00000 14075.71484
v -15450.81934 -9.99990 13600.48340
v -15450.81934 0.00000 13600.48340
v -15322.90820 0.00000 13552.77930
v -15351.33301 0.00000 13563.38086
v -15322.90918 -9.99990 13552.77832
v -15351.33301 -9.99990 13563.37988
v -15233.16113 -9.99990 13494.79199
v -15358.41797 -9.99990 13027.32910
v -15233.16113 0.00000 13494.79102
v -15358.41797 0.00000 13027.32910
v -15233.16113 -9.99990 13494.79199
v -15223.65234 -2.82660 13491.33008
v -15358.41797 -9.99990 13027.32910
v -15348.47266 -2.82660 13025.49512
v -15214.14355 -9.99990 13487.87012
v -15338.52832 -9.99990 13023.66016
v -15214.14355 -9.99990 13487.87012
v -15214.14355 0.00000 13487.86914
v -15338.52832 -9.99990 13023.66016
v -15338.52832 0.00000 13023.66016
v -15137.19922 -9.99990 14022.58984
v -15351.33301 -9.99990 13563.37988
v -15137.19922 0.00000 14022.58984
v -15351.33301 0.00000 13563.38086
v -15246.74121 0.00000 14085.83398
v -15229.21484 0.00000 14075.71484
v -15246.74121 -9.99990 14085.83301
v -15229.21484 -9.99990 14075.71484
v -15137.19922 -9.99990 14022.58984
v -15124.05469 -2.86780 14015.00000
v -15351.33301 -9.99990 13563.37988
v -15337.12109 -2.86780 13558.08008
v -15110.91016 -9.99990 14007.41113
v -15322.90918 -9.99990 13552.77832
v -15214.14355 -9.99990 13487.87012
v -15233.16113 -9.99990 13494.79199
v -15214.14355 0.00000 13487.86914
v -15233.16113 0.00000 13494.79102
v -15232.32715 0.00000 14106.41895
v -15232.32715 -9.99990 14106.41895
v -15214.89258 0.00000 14096.16797
v -15214.89355 -9.99990 14096.16797
v -15110.91016 -9.99990 14007.41113
v -15110.91016 0.00000 14007.41113
v -15322.90918 -9.99990 13552.77832
v -15322.90820 0.00000 13552.77930
v -15204.47168 0.00000 13508.61035
v -15223.42188 0.00000 13515.67676
v -15204.47168 -9.99990 13508.61035
v -15223.42188 -9.99990 13515.67676
v -15110.91016 0.00000 14007.41113
v -15110.91016 -9.99990 14007.41113
v -15137.19922 0.00000 14022.58984
v -15137.19922 -9.99990 14022.58984
v -15018.89453 -9.99990 13954.28613
v -15223.42188 -9.99990 13515.67676
v -15018.89453 0.00000 13954.28613
v -15223.42188 0.00000 13515.67676
v -15018.89453 -9.99990 13954.28613
v -15010.13086 -2.82660 13949.22656
v -15223.42188 -9.99990 13515.67676
v -15213.94727 -2.82660 13512.14355
v -15097.20801 0.00000 14026.97852
v -15123.36035 0.00000 14042.35352
v -15097.20801 -9.99990 14026.97949
v -15123.36035 -9.99990 14042.35449
v -15001.36719 -9.99990 13944.16699
v -15204.47168 -9.99990 13508.61035
v -15001.36719 -9.99990 13944.16699
v -15001.36719 0.00000 13944.16699
v -15204.47168 -9.99990 13508.61035
v -15204.47168 0.00000 13508.61035
v -14929.63574 -9.99990 14538.70801
v -15232.32715 -9.99990 14106.41895
v -14929.63477 0.00000 14538.70801
v -15232.32715 0.00000 14106.41895
v -14929.63574 -9.99990 14538.70801
v -14921.88281 -2.82660 14532.20313
v -15232.32715 -9.99990 14106.41895
v -15223.60938 -2.82660 14101.29395
v -14914.13184 -9.99990 14525.69922
v -15214.89355 -9.99990 14096.16797
v -14914.13184 -9.99990 14525.69922
v -14914.13184 0.00000 14525.69922
v -15214.89355 -9.99990 14096.16797
v -15214.89258 0.00000 14096.16797
v -15001.36719 0.00000 13944.16699
v -15001.36719 -9.99990 13944.16699
v -15018.89453 0.00000 13954.28613
v -15018.89453 -9.99990 13954.28613
v -14988.24121 0.00000 13962.91406
v -15005.67578 0.00000 13973.16406
v -14988.24121 -9.99990 13962.91406
v -15005.67578 -9.99990 13973.16406
v -14832.73926 -9.99990 14457.40332
v -15123.36035 -9.99990 14042.35449
v -14832.73926 0.00000 14457.40332
v -15123.36035 0.00000 14042.35352
v -14832.73926 -9.99990 14457.40332
v -14821.11133 -2.86780 14447.64648
v -15123.36035 -9.99990 14042.35449
v -15110.28516 -2.86780 14034.66602
v -14809.48438 -9.99990 14437.89063
v -15097.20801 -9.99990 14026.97949
v -14809.48438 -9.99990 14437.89063
v -14809.48438 0.00000 14437.89063
v -15097.20801 -9.99990 14026.97949
v -15097.20801 0.00000 14026.97852
v -14914.13184 0.00000 14525.69922
v -14914.13184 -9.99990 14525.69922
v -14929.63477 0.00000 14538.70801
v -14929.63574 -9.99990 14538.70801
v -14911.86523 0.00000 14556.47754
v -14911.86426 -9.99990 14556.47754
v -14896.47559 0.00000 14543.35547
v -14896.47559 -9.99990 14543.35547
v -14728.09082 -9.99990 14369.59375
v -15005.67578 -9.99990 13973.16406
v -14728.09180 0.00000 14369.59375
v -15005.67578 0.00000 13973.16406
v -14728.09082 -9.99990 14369.59375
v -14720.33984 -2.82660 14363.08984
v -15005.67578 -9.99990 13973.16406
v -14996.95898 -2.82660 13968.03906
v -14712.58887 -9.99990 14356.58496
v -14988.24121 -9.99990 13962.91406
v -14712.58887 -9.99990 14356.58496
v -14712.58887 0.00000 14356.58496
v -14988.24121 -9.99990 13962.91406
v -14988.24121 0.00000 13962.91406
v -14832.73926 0.00000 14457.40332
v -14809.48438 0.00000 14437.89063
v -14832.73926 -9.99990 14457.40332
v -14809.48438 -9.99990 14437.89063
v -14792.59375 0.00000 14454.78125
v -14815.67871 0.00000 14474.46387
v -14792.59375 -9.99990 14454.78125
v -14815.67871 -9.99990 14474.46387
v -14538.70605 -9.99990 14929.63672
v -14911.86426 -9.99990 14556.47754
v -14538.70508 0.00000 14929.63672
v -14911.86523 0.00000 14556.47754
v -14538.70605 -9.99990 14929.63672
v -14532.20117 -2.82660 14921.88574
v -14911.86426 -9.99990 14556.47754
v -14904.16992 -2.82660 14549.91602
v -14712.58887 0.00000 14356.58496
v -14712.58887 -9.99990 14356.58496
v -14728.09180 0.00000 14369.59375
v -14728.09082 -9.99990 14369.59375
v -14525.69629 -9.99990 14914.13574
v -14896.47559 -9.99990 14543.35547
v -14525.69629 -9.99990 14914.13574
v -14525.69629 0.00000 14914.13477
v -14896.47559 -9.99990 14543.35547
v -14896.47559 0.00000 14543.35547
v -14711.79688 0.00000 14385.88965
v -14711.79688 -9.99990 14385.88965
v -14696.40625 0.00000 14372.76758
v -14696.40625 -9.99990 14372.76855
v -14457.40137 -9.99990 14832.74219
v -14815.67871 -9.99990 14474.46387
v -14457.40039 0.00000 14832.74219
v -14815.67871 0.00000 14474.46387
v -14457.40137 -9.99990 14832.74219
v -14447.64355 -2.86780 14821.11426
v -14815.67871 -9.99990 14474.46387
v -14804.13672 -2.86780 14464.62305
v -14437.88672 -9.99990 14809.48730
v -14792.59375 -9.99990 14454.78125
v -14437.88672 -9.99990 14809.48730
v -14437.88672 0.00000 14809.48633
v -14792.59375 -9.99990 14454.78125
v -14792.59375 0.00000 14454.78125
v -14369.59082 -9.99990 14728.09473
v -14711.79688 -9.99990 14385.88965
v -14369.59082 0.00000 14728.09473
v -14711.79688 0.00000 14385.88965
v -14369.59082 -9.99990 14728.09473
v -14363.08691 -2.82660 14720.34277
v -14711.79688 -9.99990 14385.88965
v -14704.10156 -2.82660 14379.32813
v -14525.69629 0.00000 14914.13477
v -14525.69629 -9.99990 14914.13574
v -14538.70508 0.00000 14929.63672
v -14538.70605 -9.99990 14929.63672
v -14356.58301 -9.99990 14712.59082
v -14696.40625 -9.99990 14372.76855
v -14356.58301 -9.99990 14712.59082
v -14356.58301 0.00000 14712.59180
v -14696.40625 -9.99990 14372.76855
v -14696.40625 0.00000 14372.76758
v -14518.12012 0.00000 14944.05078
v -14518.12012 -9.99990 14944.05078
v -14505.24219 0.00000 14928.45605
v -14505.24219 -9.99990 14928.45605
v -14437.88672 -9.99990 14809.48730
v -14457.40137 -9.99990 14832.74219
v -14437.88672 0.00000 14809.48633
v -14457.40039 0.00000 14832.74219
v -14437.63574 0.00000 14846.58105
v -14437.63574 -9.99990 14846.58105
v -14418.31934 0.00000 14823.18750
v -14418.31934 -9.99990 14823.18750
v -14369.59082 0.00000 14728.09473
v -14356.58301 0.00000 14712.59180
v -14369.59082 -9.99990 14728.09473
v -14356.58301 -9.99990 14712.59082
v -14337.83594 0.00000 14725.71777
v -14350.71387 0.00000 14741.31250
v -14337.83594 -9.99990 14725.71777
v -14350.71387 -9.99990 14741.31250
v -14085.83105 -9.99990 15246.74512
v -14518.12012 -9.99990 14944.05078
v -14085.83008 0.00000 15246.74414
v -14518.12012 0.00000 14944.05078
v -14085.83105 -9.99990 15246.74512
v -14080.77148 -2.82660 15237.97949
v -14518.12012 -9.99990 14944.05078
v -14511.68164 -2.82660 14936.25391
v -14075.71094 -9.99990 15229.21582
v -14505.24219 -9.99990 14928.45605
v -14075.71094 -9.99990 15229.21582
v -14075.71094 0.00000 15229.21680
v -14505.24219 -9.99990 14928.45605
v -14505.24219 0.00000 14928.45605
v -14022.58691 -9.99990 15137.20020
v -14437.63574 -9.99990 14846.58105
v -14022.58691 0.00000 15137.20117
v -14437.63574 0.00000 14846.58105
v -14022.58691 -9.99990 15137.20020
v -14014.99707 -2.86780 15124.05566
v -14437.63574 -9.99990 14846.58105
v -14427.97754 -2.86780 14834.88477
v -14007.40918 -9.99990 15110.91113
v -14418.31934 -9.99990 14823.18750
v -14007.40918 -9.99990 15110.91113
v -14007.40820 0.00000 15110.91211
v -14418.31934 -9.99990 14823.18750
v -14418.31934 0.00000 14823.18750
v -13954.28418 -9.99990 15018.89551
v -14350.71387 -9.99990 14741.31250
v -13954.28320 0.00000 15018.89648
v -14350.71387 0.00000 14741.31250
v -13954.28418 -9.99990 15018.89551
v -13949.22363 -2.82660 15010.13281
v -14350.71387 -9.99990 14741.31250
v -14344.27539 -2.82660 14733.51563
v -13944.16406 -9.99990 15001.37012
v -14337.83594 -9.99990 14725.71777
v -13944.16406 -9.99990 15001.37012
v -13944.16406 0.00000 15001.36914
v -14337.83594 -9.99990 14725.71777
v -14337.83594 0.00000 14725.71777
v -14075.71094 0.00000 15229.21680
v -14075.71094 -9.99990 15229.21582
v -14085.83008 0.00000 15246.74414
v -14085.83105 -9.99990 15246.74512
v -14063.05469 0.00000 15257.36328
v -14063.05469 -9.99990 15257.36328
v -14053.08105 0.00000 15239.76953
v -14053.08105 -9.99990 15239.76953
v -14007.40820 0.00000 15110.91211
v -14007.40918 -9.99990 15110.91113
v -14022.58691 0.00000 15137.20117
v -14022.58691 -9.99990 15137.20020
v -14000.71973 0.00000 15147.39746
v -14000.71973 -9.99990 15147.39746
v -13985.75879 0.00000 15121.00586
v -13985.75879 -9.99990 15121.00488
v -13954.28320 0.00000 15018.89648
v -13944.16406 0.00000 15001.36914
v -13954.28418 -9.99990 15018.89551
v -13944.16406 -9.99990 15001.37012
v -13933.39746 -9.99990 15028.63574
v -13923.42480 -9.99990 15011.04199
v -13933.39746 0.00000 15028.63477
v -13923.42383 0.00000 15011.04102
v -13584.77051 -9.99990 15480.39063
v -14063.05469 -9.99990 15257.36328
v -13584.77148 0.00000 15480.39063
v -14063.05469 0.00000 15257.36328
v -13584.77051 -9.99990 15480.39063
v -13581.31055 -2.82660 15470.88184
v -14063.05469 -9.99990 15257.36328
v -14058.06836 -2.82660 15248.56641
v -13577.84863 -9.99990 15461.37207
v -14053.08105 -9.99990 15239.76953
v -13577.84863 -9.99990 15461.37207
v -13577.84961 0.00000 15461.37305
v -14053.08105 -9.99990 15239.76953
v -14053.08105 0.00000 15239.76953
v -13541.51074 -9.99990 15361.53027
v -14000.71973 -9.99990 15147.39746
v -13541.50977 0.00000 15361.53027
v -14000.71973 0.00000 15147.39746
v -13541.51074 -9.99990 15361.53027
v -13536.31836 -2.86780 15347.26758
v -14000.71973 -9.99990 15147.39746
v -13993.23926 -2.86780 15134.20215
v -13531.12793 -9.99990 15333.00391
v -13985.75879 -9.99990 15121.00488
v -13531.12793 -9.99990 15333.00391
v -13531.12695 0.00000 15333.00391
v -13985.75879 -9.99990 15121.00488
v -13985.75879 0.00000 15121.00586
v -13494.78613 -9.99990 15233.16113
v -13933.39746 -9.99990 15028.63574
v -13494.78711 0.00000 15233.16211
v -13933.39746 0.00000 15028.63477
v -13494.78613 -9.99990 15233.16113
v -13491.32617 -2.82660 15223.65332
v -13933.39746 -9.99990 15028.63574
v -13928.41016 -2.82660 15019.83789
v -13487.86621 -9.99990 15214.14453
v -13923.42480 -9.99990 15011.04199
v -13487.86621 -9.99990 15214.14453
v -13487.86621 0.00000 15214.14453
v -13923.42480 -9.99990 15011.04199
v -13923.42383 0.00000 15011.04102
v -13577.84961 0.00000 15461.37305
v -13577.84863 -9.99990 15461.37207
v -13584.77148 0.00000 15480.39063
v -13584.77051 -9.99990 15480.39063
v -13560.49805 0.00000 15486.89453
v -13560.49707 -9.99990 15486.89453
v -13553.73047 0.00000 15467.83496
v -13553.73047 -9.99990 15467.83496
v -13531.12793 -9.99990 15333.00391
v -13541.51074 -9.99990 15361.53027
v -13531.12695 0.00000 15333.00391
v -13541.50977 0.00000 15361.53027
v -13518.20410 -9.99990 15367.77637
v -13508.05371 -9.99990 15339.18652
v -13518.20410 0.00000 15367.77539
v -13508.05371 0.00000 15339.18652
v -13487.86621 0.00000 15214.14453
v -13487.86621 -9.99990 15214.14453
v -13494.78711 0.00000 15233.16211
v -13494.78613 -9.99990 15233.16113
v -13472.52734 0.00000 15239.12598
v -13472.52734 -9.99990 15239.12598
v -13465.76074 0.00000 15220.06738
v -13465.76074 -9.99990 15220.06738
v -13050.75293 -9.99990 15623.48047
v -13560.49707 -9.99990 15486.89453
v -13050.75195 0.00000 15623.48047
v -13560.49805 0.00000 15486.89453
v -13050.75293 -9.99990 15623.48047
v -13048.99414 -2.82660 15613.51465
v -13560.49707 -9.99990 15486.89453
v -13557.11426 -2.82660 15477.36426
v -13047.23730 -9.99990 15603.54980
v -13553.73047 -9.99990 15467.83496
v -13047.23730 -9.99990 15603.54980
v -13047.23730 0.00000 15603.54980
v -13553.73047 -9.99990 15467.83496
v -13553.73047 0.00000 15467.83496
v -13028.78613 -9.99990 15498.91406
v -13518.20410 -9.99990 15367.77637
v -13028.78711 0.00000 15498.91406
v -13518.20410 0.00000 15367.77539
v -13028.78613 -9.99990 15498.91406
v -13026.15137 -2.86780 15483.96582
v -13518.20410 -9.99990 15367.77637
v -13513.12891 -2.86780 15353.48047
v -13023.51563 -9.99990 15469.01855
v -13508.05371 -9.99990 15339.18652
v -13023.51563 -9.99990 15469.01855
v -13023.51563 0.00000 15469.01758
v -13508.05371 -9.99990 15339.18652
v -13508.05371 0.00000 15339.18652
v -13005.06543 -9.99990 15364.38184
v -13472.52734 -9.99990 15239.12598
v -13005.06543 0.00000 15364.38184
v -13472.52734 0.00000 15239.12598
v -13005.06543 -9.99990 15364.38184
v -13003.30859 -2.82660 15354.41699
v -13472.52734 -9.99990 15239.12598
v -13469.14453 -2.82660 15229.59668
v -13001.55176 -9.99990 15344.45020
v -13465.76074 -9.99990 15220.06738
v -13001.55176 -9.99990 15344.45020
v -13001.55176 0.00000 15344.45117
v -13465.76074 -9.99990 15220.06738
v -13465.76074 0.00000 15220.06738
v -13047.23730 0.00000 15603.54980
v -13047.23730 -9.99990 15603.54980
v -13050.75195 0.00000 15623.48047
v -13050.75293 -9.99990 15623.48047
v -13023.51563 0.00000 15469.01758
v -13023.51563 -9.99990 15469.01855
v -13028.78711 0.00000 15498.91406
v -13028.78613 -9.99990 15498.91406
v -13025.71680 0.00000 15625.67090
v -13025.71582 -9.99990 15625.67090
v -13022.36230 0.00000 15605.72656
v -13022.36230 -9.99990 15605.72656
v -13001.55176 0.00000 15344.45117
v -13001.55176 -9.99990 15344.45020
v -13005.06543 0.00000 15364.38184
v -13005.06543 -9.99990 15364.38184
v -13004.75098 0.00000 15501.01660
v -13004.75098 -9.99990 15501.01660
v -12999.71973 0.00000 15471.09961
v -12999.71973 -9.99990 15471.09863
v -12982.10840 0.00000 15366.39063
v -12982.10840 -9.99990 15366.39063
v -12978.75391 0.00000 15346.44629
v -12978.75391 -9.99990 15346.44629
v -12525.03418 -9.99990 15669.47559
v -13025.71582 -9.99990 15625.67090
v -12525.03418 0.00000 15669.47559
v -13025.71680 0.00000 15625.67090
v -12525.03418 -9.99990 15669.47559
v -12524.95410 -2.82660 15659.36426
v -13025.71582 -9.99990 15625.67090
v -13024.04004 -2.82660 15615.69824
v -12524.87402 -9.99990 15649.25293
v -13022.36230 -9.99990 15605.72656
v -12524.87402 -9.99990 15649.25293
v -12524.87402 0.00000 15649.25195
v -13022.36230 -9.99990 15605.72656
v -13022.36230 0.00000 15605.72656
v -12524.03613 -9.99990 15543.07520
v -13004.75098 -9.99990 15501.01660
v -12524.03613 0.00000 15543.07520
v -13004.75098 0.00000 15501.01660
v -12524.03613 -9.99990 15543.07520
v -12523.91602 -2.86780 15527.90723
v -13004.75098 -9.99990 15501.01660
v -13002.23535 -2.86780 15486.05859
v -12523.79590 -9.99990 15512.73926
v -12999.71973 -9.99990 15471.09863
v -12523.79590 -9.99990 15512.73926
v -12523.79590 0.00000 15512.73926
v -12999.71973 -9.99990 15471.09863
v -12999.71973 0.00000 15471.09961
v -12522.95703 -9.99990 15406.56250
v -12982.10840 -9.99990 15366.39063
v -12522.95703 0.00000 15406.56250
v -12982.10840 0.00000 15366.39063
v -12522.95703 -9.99990 15406.56250
v -12522.87793 -2.82660 15396.45020
v -12982.10840 -9.99990 15366.39063
v -12980.43066 -2.82660 15356.41895
v -12522.79785 -9.99990 15386.33887
v -12978.75391 -9.99990 15346.44629
v -12522.79785 -9.99990 15386.33887
v -12522.79785 0.00000 15386.33887
v -12978.75391 -9.99990 15346.44629
v -12978.75391 0.00000 15346.44629
v -12524.87402 0.00000 15649.25195
v -12524.87402 -9.99990 15649.25293
v -12525.03418 0.00000 15669.47559
v -12525.03418 -9.99990 15669.47559
v -12523.79590 0.00000 15512.73926
v -12523.79590 -9.99990 15512.73926
v -12524.03613 0.00000 15543.07520
v -12524.03613 -9.99990 15543.07520
v -12522.79785 0.00000 15386.33887
v -12522.79785 -9.99990 15386.33887
v -12522.95703 0.00000 15406.56250
v -12522.95703 -9.99990 15406.56250

vt 0.00000 4.16540 
vt 3.90520 4.16540 
vt 0.00000 4.00230 
vt 3.90520 4.00230 
vt 0.00000 4.31490 
vt 3.90520 4.31490 
vt 0.00000 4.16540 
vt 3.90520 4.16540 
vt 0.00000 4.31490 
vt 0.00000 4.49990 
vt 3.90520 4.31490 
vt 3.90520 4.49990 
vt 0.00000 4.66440 
vt 3.90520 4.66440 
vt 0.00000 4.50130 
vt 3.90520 4.50130 
vt 0.00000 4.81390 
vt 3.90520 4.81390 
vt 0.00000 4.66440 
vt 3.90520 4.66440 
vt 0.00000 4.81390 
vt 0.00000 4.99900 
vt 3.90520 4.81390 
vt 3.90520 4.99900 
vt 0.00000 4.16540 
vt 3.90520 4.16540 
vt 0.00000 4.00230 
vt 3.90520 4.00230 
vt 0.00000 4.31490 
vt 0.00000 4.49990 
vt 3.90520 4.31490 
vt 3.90520 4.49990 
vt 0.00000 4.66440 
vt 3.90520 4.66440 
vt 0.00000 4.50130 
vt 3.90520 4.50130 
vt 0.00000 4.81390 
vt 0.00000 4.99900 
vt 3.90520 4.81390 
vt 3.90520 4.99900 
vt 0.00000 4.31490 
vt 3.90520 4.31490 
vt 0.00000 4.16540 
vt 3.90520 4.16540 
vt 0.00000 4.81390 
vt 3.90520 4.81390 
vt 0.00000 4.66440 
vt 3.90520 4.66440 
vt 3.90520 4.16540 
vt 3.90520 4.00230 
vt 0.00000 4.16540 
vt 0.00000 4.00230 
vt 3.90520 4.16540 
vt 0.00000 4.16540 
vt 3.90520 4.31490 
vt 0.00000 4.31490 
vt 0.00000 4.31490 
vt 0.00000 4.49990 
vt 3.90520 4.31490 
vt 3.90520 4.49990 
vt 3.90520 4.16540 
vt 3.90520 4.00230 
vt 0.00000 4.16540 
vt 0.00000 4.00230 
vt 0.00000 4.31490 
vt 0.00000 4.49990 
vt 3.90520 4.31490 
vt 3.90520 4.49990 
vt 3.90520 4.16540 
vt 0.00000 4.16540 
vt 3.90520 4.31490 
vt 0.00000 4.31490 
vt -2.74990 1.00010 
vt -2.74990 2.00000 
vt -3.74990 1.00010 
vt -3.74990 2.00000 
vt -0.99990 2.00000 
vt -1.99990 2.00000 
vt -0.99990 1.00010 
vt -1.99990 1.00010 
vt -4.74990 1.00010 
vt -3.74990 1.00010 
vt -4.74990 2.00000 
vt -3.74990 2.00000 
vt -0.99990 2.00000 
vt -0.99990 1.00010 
vt 0.00000 2.00000 
vt 0.00000 1.00010 
vt -4.74990 1.00010 
vt -4.74990 2.00000 
vt -4.99990 1.00010 
vt -4.99990 2.00000 
vt -4.74990 1.00010 
vt -4.74990 2.00000 
vt -4.99990 1.00010 
vt -4.99990 2.00000 
vt -0.99990 2.00000 
vt -0.99990 1.00010 
vt 0.00000 2.00000 
vt 0.00000 1.00010 
vt -4.74990 1.00010 
vt -3.74990 1.00010 
vt -4.74990 2.00000 
vt -3.74990 2.00000 
vt -0.99990 2.00000 
vt -1.99990 2.00000 
vt -0.99990 1.00010 
vt -1.99990 1.00010 
vt -2.74990 1.00010 
vt -2.74990 2.00000 
vt -3.74990 1.00010 
vt -3.74990 2.00000 
vt -2.74990 1.00010 
vt -2.74990 2.00000 
vt -3.74990 1.00010 
vt -3.74990 2.00000 
vt -0.99990 2.00000 
vt -1.99990 2.00000 
vt -0.99990 1.00010 
vt -1.99990 1.00010 
vt -4.74990 1.00010 
vt -3.74990 1.00010 
vt -4.74990 2.00000 
vt -3.74990 2.00000 
vt -0.99990 2.00000 
vt -0.99990 1.00010 
vt 0.00000 2.00000 
vt 0.00000 1.00010 
vt -4.74990 1.00010 
vt -4.74990 2.00000 
vt -4.99990 1.00010 
vt -4.99990 2.00000 
vt -4.74990 1.00010 
vt -4.74990 2.00000 
vt -4.99990 1.00010 
vt -4.99990 2.00000 
vt -0.99990 2.00000 
vt -0.99990 1.00010 
vt 0.00000 2.00000 
vt 0.00000 1.00010 
vt -4.74990 1.00010 
vt -3.74990 1.00010 
vt -4.74990 2.00000 
vt -3.74990 2.00000 
vt -0.99990 2.00000 
vt -1.99990 2.00000 
vt -0.99990 1.00010 
vt -1.99990 1.00010 
vt -2.74990 1.00010 
vt -2.74990 2.00000 
vt -3.74990 1.00010 
vt -3.74990 2.00000 
vt -2.74990 1.00010 
vt -2.74990 2.00000 
vt -3.74990 1.00010 
vt -3.74990 2.00000 
vt -0.99990 2.00000 
vt -1.99990 2.00000 
vt -0.99990 1.00010 
vt -1.99990 1.00010 
vt -4.74990 1.00010 
vt -3.74990 1.00010 
vt -4.74990 2.00000 
vt -3.74990 2.00000 
vt -0.99990 2.00000 
vt -0.99990 1.00010 
vt 0.00000 2.00000 
vt 0.00000 1.00010 
vt -4.74990 1.00010 
vt -4.74990 2.00000 
vt -4.99990 1.00010 
vt -4.99990 2.00000 
vt -4.74990 1.00010 
vt -4.74990 2.00000 
vt -4.99990 1.00010 
vt -4.99990 2.00000 
vt -0.99990 2.00000 
vt -0.99990 1.00010 
vt 0.00000 2.00000 
vt 0.00000 1.00010 
vt -4.74990 1.00010 
vt -3.74990 1.00010 
vt -4.74990 2.00000 
vt -3.74990 2.00000 
vt -0.99990 2.00000 
vt -1.99990 2.00000 
vt -0.99990 1.00010 
vt -1.99990 1.00010 
vt -2.74990 1.00010 
vt -2.74990 2.00000 
vt -3.74990 1.00010 
vt -3.74990 2.00000 
vt -0.99990 2.00000 
vt -1.99990 2.00000 
vt -0.99990 1.00010 
vt -1.99990 1.00010 
vt -2.74990 1.00010 
vt -2.74990 2.00000 
vt -3.74990 1.00010 
vt -3.74990 2.00000 
vt -0.99990 2.00000 
vt -1.99990 2.00000 
vt -0.99990 1.00010 
vt -1.99990 1.00010 
vt -2.74990 1.00010 
vt -2.74990 2.00000 
vt -3.74990 1.00010 
vt -3.74990 2.00000 
vt -0.99990 2.00000 
vt -1.99990 2.00000 
vt -0.99990 1.00010 
vt -1.99990 1.00010 
vt -2.74990 1.00010 
vt -2.74990 2.00000 
vt -3.74990 1.00010 
vt -3.74990 2.00000 
vt -0.99990 2.00000 
vt -0.99990 1.00010 
vt 0.00000 2.00000 
vt 0.00000 1.00010 
vt -4.74990 1.00010 
vt -3.74990 1.00010 
vt -4.74990 2.00000 
vt -3.74990 2.00000 
vt -0.99990 2.00000 
vt -0.99990 1.00010 
vt 0.00000 2.00000 
vt 0.00000 1.00010 
vt -4.74990 1.00010 
vt -3.74990 1.00010 
vt -4.74990 2.00000 
vt -3.74990 2.00000 
vt -0.99990 2.00000 
vt -0.99990 1.00010 
vt 0.00000 2.00000 
vt 0.00000 1.00010 
vt -4.74990 1.00010 
vt -3.74990 1.00010 
vt -4.74990 2.00000 
vt -3.74990 2.00000 
vt -4.74990 1.00010 
vt -4.74990 2.00000 
vt -4.99990 1.00010 
vt -4.99990 2.00000 
vt -4.74990 1.00010 
vt -4.74990 2.00000 
vt -4.99990 1.00010 
vt -4.99990 2.00000 
vt -4.74990 1.00010 
vt -4.74990 2.00000 
vt -4.99990 1.00010 
vt -4.99990 2.00000 
vt -2.74990 1.00010 
vt -2.74990 2.00000 
vt -3.74990 1.00010 
vt -3.74990 2.00000 
vt -0.99990 2.00000 
vt -1.99990 2.00000 
vt -0.99990 1.00010 
vt -1.99990 1.00010 
vt -2.74990 1.00010 
vt -2.74990 2.00000 
vt -3.74990 1.00010 
vt -3.74990 2.00000 
vt -0.99990 2.00000 
vt -1.99990 2.00000 
vt -0.99990 1.00010 
vt -1.99990 1.00010 
vt -2.74990 1.00010 
vt -2.74990 2.00000 
vt -3.74990 1.00010 
vt -3.74990 2.00000 
vt -0.99990 2.00000 
vt -1.99990 2.00000 
vt -0.99990 1.00010 
vt -1.99990 1.00010 
vt -4.74990 1.00010 
vt -3.74990 1.00010 
vt -4.74990 2.00000 
vt -3.74990 2.00000 
vt -0.99990 2.00000 
vt -0.99990 1.00010 
vt 0.00000 2.00000 
vt 0.00000 1.00010 
vt -4.74990 1.00010 
vt -3.74990 1.00010 
vt -4.74990 2.00000 
vt -3.74990 2.00000 
vt -0.99990 2.00000 
vt -0.99990 1.00010 
vt 0.00000 2.00000 
vt 0.00000 1.00010 
vt -4.74990 1.00010 
vt -3.74990 1.00010 
vt -4.74990 2.00000 
vt -3.74990 2.00000 
vt -0.99990 2.00000 
vt -0.99990 1.00010 
vt 0.00000 2.00000 
vt 0.00000 1.00010 
vt -4.74990 1.00010 
vt -4.74990 2.00000 
vt -4.99990 1.00010 
vt -4.99990 2.00000 
vt -4.74990 1.00010 
vt -4.74990 2.00000 
vt -4.99990 1.00010 
vt -4.99990 2.00000 
vt -4.74990 1.00010 
vt -4.74990 2.00000 
vt -4.99990 1.00010 
vt -4.99990 2.00000 
vt -1.91300 -1.99990 
vt -1.58700 -1.99990 
vt -1.83130 -2.47930 
vt -1.66860 -2.47930 
vt -1.83130 -2.47930 
vt -1.66860 -2.47930 
vt -1.58700 -1.99990 
vt -1.91300 -1.99990 
vt -1.66860 -2.47930 
vt -1.83130 -2.47930 
vt -1.66860 -2.47930 
vt -1.83130 -2.47930 
vt -1.91300 -1.99990 
vt -1.58700 -1.99990 
vt -1.83130 -2.47930 
vt -1.66860 -2.47930 
vt -1.83130 -2.47930 
vt -1.66860 -2.47930 
vt -1.58700 -1.99990 
vt -1.91300 -1.99990 
vt -1.66860 -2.47930 
vt -1.83130 -2.47930 
vt -1.66860 -2.47930 
vt -1.83130 -2.47930 
vt -1.91290 -1.99990 
vt -1.58700 -1.99990 
vt -1.83130 -2.47930 
vt -1.66860 -2.47930 
vt -1.83130 -2.47930 
vt -1.66860 -2.47930 
vt -1.58700 -1.99990 
vt -1.91290 -1.99990 
vt -1.66860 -2.47930 
vt -1.83130 -2.47930 
vt -1.66860 -2.47930 
vt -1.83130 -2.47930 
vt -1.91300 -1.99990 
vt -1.58700 -1.99990 
vt -1.83130 -2.47930 
vt -1.66860 -2.47930 
vt -1.91300 -1.99990 
vt -1.58700 -1.99990 
vt -1.83130 -2.47930 
vt -1.66860 -2.47930 
vt -1.91290 -1.99990 
vt -1.58700 -1.99990 
vt -1.83130 -2.47930 
vt -1.66860 -2.47930 
vt -1.83130 -2.47930 
vt -1.66860 -2.47930 
vt -1.83130 -2.47930 
vt -1.66860 -2.47930 
vt -1.83130 -2.47930 
vt -1.66860 -2.47930 
vt -1.58700 -1.99990 
vt -1.91300 -1.99990 
vt -1.66860 -2.47930 
vt -1.83130 -2.47930 
vt -1.58700 -1.99990 
vt -1.91300 -1.99990 
vt -1.66860 -2.47930 
vt -1.83130 -2.47930 
vt -1.58700 -1.99990 
vt -1.91290 -1.99990 
vt -1.66860 -2.47930 
vt -1.83130 -2.47930 
vt -1.66860 -2.47930 
vt -1.83130 -2.47930 
vt -1.66860 -2.47930 
vt -1.83130 -2.47930 
vt -1.66860 -2.47930 
vt -1.83130 -2.47930 
vt -1.00250 0.00380 
vt -1.00250 0.99630 
vt 4.00260 0.00380 
vt 4.00260 0.99630 
vt 4.00260 0.00380 
vt 4.00260 0.99630 
vt -1.00250 0.99630 
vt -1.00250 0.00380 
vt -1.00250 0.00380 
vt -1.00250 0.99630 
vt 4.00260 0.99630 
vt 4.00260 0.00380 
vt -1.00250 0.99630 
vt -1.00250 0.00380 
vt -1.00250 0.99630 
vt -1.00250 0.00380 
vt 4.00260 0.00380 
vt 4.00260 0.99630 
vt 4.00260 0.99630 
vt 4.00260 0.00380 
vt -1.00250 0.99630 
vt -1.00250 0.00380 
vt -1.00250 0.00380 
vt -1.00250 0.99630 
vt 4.00260 0.99630 
vt 4.00260 0.00380 
vt 4.00260 0.00380 
vt 4.00260 0.99630 
vt -1.00250 0.99630 
vt -1.00250 0.00380 
vt -1.00250 0.00380 
vt -1.00250 0.99630 
vt 4.00260 0.99630 
vt 4.00260 0.00380 
vt 4.00260 0.00380 
vt 4.00260 0.99630 
vt -1.00250 0.99630 
vt -1.00250 0.00380 
vt -1.00250 0.00380 
vt -1.00250 0.99630 
vt 4.00260 0.99630 
vt 4.00260 0.00380 
vt 4.00260 0.00380 
vt -1.00250 0.99630 
vt 4.00260 0.99630 
vt -0.49980 0.25010 
vt -0.55320 0.25010 
vt -0.49980 0.10530 
vt -0.55320 0.10530 
vt -0.99990 -1.00430 
vt -0.99990 2.00430 
vt -0.93510 -1.00430 
vt -0.93510 2.00430 
vt -0.99990 -1.00430 
vt -1.06640 -1.00430 
vt -0.99990 2.00430 
vt -1.06640 2.00430 
vt -0.99990 -1.00430 
vt -0.99990 2.00430 
vt -0.99990 -1.00430 
vt -0.93510 -1.00430 
vt -0.99990 2.00430 
vt -0.93510 2.00430 
vt -0.49980 0.25010 
vt -0.49980 0.10530 
vt -0.55320 0.25010 
vt -0.55320 0.10530 
vt -0.49980 0.25010 
vt -0.55320 0.25010 
vt -0.49980 0.10530 
vt -0.55320 0.10530 
vt -0.99990 -1.00430 
vt -0.99990 2.00430 
vt -0.93510 -1.00430 
vt -0.93510 2.00430 
vt -0.99990 -1.00430 
vt -1.06640 -1.00430 
vt -0.99990 2.00430 
vt -1.06640 2.00430 
vt -0.99990 -1.00430 
vt -0.99990 2.00430 
vt -0.99990 -1.00430 
vt -0.93510 -1.00430 
vt -0.99990 2.00430 
vt -0.93510 2.00430 
vt -0.49980 0.25010 
vt -0.55320 0.25010 
vt -0.49980 0.10530 
vt -0.55320 0.10530 
vt -1.00010 -1.01050 
vt -1.00010 2.01050 
vt -0.93640 -1.01050 
vt -0.93640 2.01050 
vt -1.00010 -1.01050 
vt -1.12530 -1.01050 
vt -1.00010 2.01050 
vt -1.12530 2.01050 
vt -1.00010 -1.01050 
vt -1.00010 2.01050 
vt -1.00010 -1.01050 
vt -0.93640 -1.01050 
vt -1.00010 2.01050 
vt -0.93640 2.01050 
vt -0.49980 0.10530 
vt -0.55320 0.10530 
vt -0.49980 0.25010 
vt -0.55320 0.25010 
vt -0.49980 0.25010 
vt -0.55320 0.25010 
vt -0.49980 0.10530 
vt -0.55320 0.10530 
vt -0.49980 0.10530 
vt -0.55320 0.10530 
vt -0.49980 0.25010 
vt -0.55320 0.25010 
vt -0.49980 0.25010 
vt -0.55320 0.25010 
vt -0.49980 0.10530 
vt -0.55320 0.10530 
vt -1.00010 -1.01050 
vt -1.00010 2.01050 
vt -0.93640 -1.01050 
vt -0.93640 2.01050 
vt -1.00010 -1.01050 
vt -1.12530 -1.01050 
vt -1.00010 2.01050 
vt -1.12530 2.01050 
vt -1.00010 -1.01050 
vt -1.00010 2.01050 
vt -1.00010 -1.01050 
vt -0.93640 -1.01050 
vt -1.00010 2.01050 
vt -0.93640 2.01050 
vt -0.55320 0.25010 
vt -0.55320 0.10530 
vt -0.49980 0.25010 
vt -0.49980 0.10530 
vt -0.99990 -1.00430 
vt -0.99990 2.00430 
vt -0.93510 -1.00430 
vt -0.93510 2.00430 
vt -0.99990 -1.00430 
vt -1.06640 -1.00430 
vt -0.99990 2.00430 
vt -1.06640 2.00430 
vt -0.99990 -1.00430 
vt -0.99990 2.00430 
vt -0.99990 -1.00430 
vt -0.93510 -1.00430 
vt -0.99990 2.00430 
vt -0.93510 2.00430 
vt -0.99990 -1.00430 
vt -0.99990 2.00430 
vt -0.93510 -1.00430 
vt -0.93510 2.00430 
vt -0.49980 0.25010 
vt -0.49980 0.10530 
vt -0.55320 0.25010 
vt -0.55320 0.10530 
vt -0.99990 -1.00430 
vt -1.06640 -1.00430 
vt -0.99990 2.00430 
vt -1.06640 2.00430 
vt -0.55320 0.25010 
vt -0.55320 0.10530 
vt -0.49980 0.25010 
vt -0.49980 0.10530 
vt -0.55320 0.10530 
vt -0.55320 0.25010 
vt -0.49980 0.10530 
vt -0.49980 0.25010 
vt -0.99990 -1.00430 
vt -0.99990 2.00430 
vt -0.99990 -1.00430 
vt -0.93510 -1.00430 
vt -0.99990 2.00430 
vt -0.93510 2.00430 
vt -0.49980 0.10530 
vt -0.49980 0.25010 
vt -0.55320 0.10530 
vt -0.55320 0.25010 
vt -0.99990 -1.00430 
vt -0.99990 2.00430 
vt -0.93510 -1.00430 
vt -0.93510 2.00430 
vt -0.99990 -1.00430 
vt -1.06640 -1.00430 
vt -0.99990 2.00430 
vt -1.06640 2.00430 
vt -0.99990 -1.00430 
vt -0.99990 2.00430 
vt -0.99990 -1.00430 
vt -0.93510 -1.00430 
vt -0.99990 2.00430 
vt -0.93510 2.00430 
vt -1.00010 -1.01050 
vt -1.00010 2.01050 
vt -0.93640 -1.01050 
vt -0.93640 2.01050 
vt -0.49980 0.25010 
vt -0.49980 0.10530 
vt -0.55320 0.25010 
vt -0.55320 0.10530 
vt -1.00010 -1.01050 
vt -1.12530 -1.01050 
vt -1.00010 2.01050 
vt -1.12530 2.01050 
vt -1.00010 -1.01050 
vt -1.00010 2.01050 
vt -0.55320 0.10530 
vt -0.55320 0.25010 
vt -0.49980 0.10530 
vt -0.49980 0.25010 
vt -0.49980 0.25010 
vt -0.55320 0.25010 
vt -0.49980 0.10530 
vt -0.55320 0.10530 
vt -1.00010 -1.01050 
vt -0.93640 -1.01050 
vt -1.00010 2.01050 
vt -0.93640 2.01050 
vt -0.49980 0.10530 
vt -0.49980 0.25010 
vt -0.55320 0.10530 
vt -0.55320 0.25010 
vt -0.49980 0.10530 
vt -0.55320 0.10530 
vt -0.49980 0.25010 
vt -0.55320 0.25010 
vt -0.99990 -1.00430 
vt -0.99990 2.00430 
vt -0.93510 -1.00430 
vt -0.93510 2.00430 
vt -0.99990 -1.00430 
vt -1.06640 -1.00430 
vt -0.99990 2.00430 
vt -1.06640 2.00430 
vt -0.49980 0.10530 
vt -0.49980 0.25010 
vt -0.55320 0.10530 
vt -0.55320 0.25010 
vt -0.99990 -1.00430 
vt -0.99990 2.00430 
vt -0.99990 -1.00430 
vt -0.93510 -1.00430 
vt -0.99990 2.00430 
vt -0.93510 2.00430 
vt -0.99990 -1.00430 
vt -0.99990 2.00430 
vt -0.93510 -1.00430 
vt -0.93510 2.00430 
vt -0.99990 -1.00430 
vt -1.06640 -1.00430 
vt -0.99990 2.00430 
vt -1.06640 2.00430 
vt -0.99990 -1.00430 
vt -0.99990 2.00430 
vt -0.99990 -1.00430 
vt -0.93510 -1.00430 
vt -0.99990 2.00430 
vt -0.93510 2.00430 
vt -0.49980 0.10530 
vt -0.55320 0.10530 
vt -0.49980 0.25010 
vt -0.55320 0.25010 
vt -0.49980 0.10530 
vt -0.49980 0.25010 
vt -0.55320 0.10530 
vt -0.55320 0.25010 
vt -1.00010 -1.01050 
vt -1.00010 2.01050 
vt -0.93640 -1.01050 
vt -0.93640 2.01050 
vt -1.00010 -1.01050 
vt -1.12530 -1.01050 
vt -1.00010 2.01050 
vt -1.12530 2.01050 
vt -1.00010 -1.01050 
vt -1.00010 2.01050 
vt -1.00010 -1.01050 
vt -0.93640 -1.01050 
vt -1.00010 2.01050 
vt -0.93640 2.01050 
vt -0.49980 0.10530 
vt -0.55320 0.10530 
vt -0.49980 0.25010 
vt -0.55320 0.25010 
vt -0.49980 0.25010 
vt -0.55320 0.25010 
vt -0.49980 0.10530 
vt -0.55320 0.10530 
vt -0.99990 -1.00430 
vt -0.99990 2.00430 
vt -0.93510 -1.00430 
vt -0.93510 2.00430 
vt -0.99990 -1.00430 
vt -1.06640 -1.00430 
vt -0.99990 2.00430 
vt -1.06640 2.00430 
vt -0.99990 -1.00430 
vt -0.99990 2.00430 
vt -0.99990 -1.00430 
vt -0.93510 -1.00430 
vt -0.99990 2.00430 
vt -0.93510 2.00430 
vt -0.49980 0.25010 
vt -0.49980 0.10530 
vt -0.55320 0.25010 
vt -0.55320 0.10530 
vt -0.49980 0.10530 
vt -0.49980 0.25010 
vt -0.55320 0.10530 
vt -0.55320 0.25010 
vt -0.99990 -1.00430 
vt -0.99990 2.00430 
vt -0.93510 -1.00430 
vt -0.93510 2.00430 
vt -0.99990 -1.00430 
vt -1.06640 -1.00430 
vt -0.99990 2.00430 
vt -1.06640 2.00430 
vt -0.49980 0.10530 
vt -0.55320 0.10530 
vt -0.49980 0.25010 
vt -0.55320 0.25010 
vt -0.99990 -1.00430 
vt -0.99990 2.00430 
vt -0.99990 -1.00430 
vt -0.93510 -1.00430 
vt -0.99990 2.00430 
vt -0.93510 2.00430 
vt -0.49980 0.25010 
vt -0.55320 0.25010 
vt -0.49980 0.10530 
vt -0.55320 0.10530 
vt -1.00010 -1.01050 
vt -1.00010 2.01050 
vt -0.93640 -1.01050 
vt -0.93640 2.01050 
vt -1.00010 -1.01050 
vt -1.12530 -1.01050 
vt -1.00010 2.01050 
vt -1.12530 2.01050 
vt -1.00010 -1.01050 
vt -1.00010 2.01050 
vt -1.00010 -1.01050 
vt -0.93640 -1.01050 
vt -1.00010 2.01050 
vt -0.93640 2.01050 
vt -0.99990 -1.00430 
vt -0.99990 2.00430 
vt -0.93510 -1.00430 
vt -0.93510 2.00430 
vt -0.99990 -1.00430 
vt -1.06640 -1.00430 
vt -0.99990 2.00430 
vt -1.06640 2.00430 
vt -0.49980 0.10530 
vt -0.55320 0.10530 
vt -0.49980 0.25010 
vt -0.55320 0.25010 
vt -0.99990 -1.00430 
vt -0.99990 2.00430 
vt -0.99990 -1.00430 
vt -0.93510 -1.00430 
vt -0.99990 2.00430 
vt -0.93510 2.00430 
vt -0.49980 0.25010 
vt -0.55320 0.25010 
vt -0.49980 0.10530 
vt -0.55320 0.10530 
vt -0.55320 0.10530 
vt -0.55320 0.25010 
vt -0.49980 0.10530 
vt -0.49980 0.25010 
vt -0.49980 0.25010 
vt -0.55320 0.25010 
vt -0.49980 0.10530 
vt -0.55320 0.10530 
vt -0.49980 0.25010 
vt -0.49980 0.10530 
vt -0.55320 0.25010 
vt -0.55320 0.10530 
vt -0.49980 0.10530 
vt -0.49980 0.25010 
vt -0.55320 0.10530 
vt -0.55320 0.25010 
vt -0.99990 -1.00430 
vt -0.99990 2.00430 
vt -0.93510 -1.00430 
vt -0.93510 2.00430 
vt -0.99990 -1.00430 
vt -1.06640 -1.00430 
vt -0.99990 2.00430 
vt -1.06640 2.00430 
vt -0.99990 -1.00430 
vt -0.99990 2.00430 
vt -0.99990 -1.00430 
vt -0.93510 -1.00430 
vt -0.99990 2.00430 
vt -0.93510 2.00430 
vt -1.00010 -1.01050 
vt -1.00010 2.01050 
vt -0.93640 -1.01050 
vt -0.93640 2.01050 
vt -1.00010 -1.01050 
vt -1.12530 -1.01050 
vt -1.00010 2.01050 
vt -1.12530 2.01050 
vt -1.00010 -1.01050 
vt -1.00010 2.01050 
vt -1.00010 -1.01050 
vt -0.93640 -1.01050 
vt -1.00010 2.01050 
vt -0.93640 2.01050 
vt -0.99990 -1.00430 
vt -0.99990 2.00430 
vt -0.93510 -1.00430 
vt -0.93510 2.00430 
vt -0.99990 -1.00430 
vt -1.06640 -1.00430 
vt -0.99990 2.00430 
vt -1.06640 2.00430 
vt -0.99990 -1.00430 
vt -0.99990 2.00430 
vt -0.99990 -1.00430 
vt -0.93510 -1.00430 
vt -0.99990 2.00430 
vt -0.93510 2.00430 
vt -0.49980 0.10530 
vt -0.55320 0.10530 
vt -0.49980 0.25010 
vt -0.55320 0.25010 
vt -0.49980 0.25010 
vt -0.55320 0.25010 
vt -0.49980 0.10530 
vt -0.55320 0.10530 
vt -0.49980 0.10530 
vt -0.55320 0.10530 
vt -0.49980 0.25010 
vt -0.55320 0.25010 
vt -0.49980 0.25010 
vt -0.55320 0.25010 
vt -0.49980 0.10530 
vt -0.55320 0.10530 
vt -0.49980 0.25010 
vt -0.49980 0.10530 
vt -0.55320 0.25010 
vt -0.55320 0.10530 
vt -0.55320 0.25010 
vt -0.55320 0.10530 
vt -0.49980 0.25010 
vt -0.49980 0.10530 
vt -0.99990 -1.00430 
vt -0.99990 2.00430 
vt -0.93510 -1.00430 
vt -0.93510 2.00430 
vt -0.99990 -1.00430 
vt -1.06640 -1.00430 
vt -0.99990 2.00430 
vt -1.06640 2.00430 
vt -0.99990 -1.00430 
vt -0.99990 2.00430 
vt -0.99990 -1.00430 
vt -0.93510 -1.00430 
vt -0.99990 2.00430 
vt -0.93510 2.00430 
vt -1.00010 -1.01050 
vt -1.00010 2.01050 
vt -0.93640 -1.01050 
vt -0.93640 2.01050 
vt -1.00010 -1.01050 
vt -1.12530 -1.01050 
vt -1.00010 2.01050 
vt -1.12530 2.01050 
vt -1.00010 -1.01050 
vt -1.00010 2.01050 
vt -1.00010 -1.01050 
vt -0.93640 -1.01050 
vt -1.00010 2.01050 
vt -0.93640 2.01050 
vt -0.99990 -1.00430 
vt -0.99990 2.00430 
vt -0.93510 -1.00430 
vt -0.93510 2.00430 
vt -0.99990 -1.00430 
vt -1.06640 -1.00430 
vt -0.99990 2.00430 
vt -1.06640 2.00430 
vt -0.99990 -1.00430 
vt -0.99990 2.00430 
vt -0.99990 -1.00430 
vt -0.93510 -1.00430 
vt -0.99990 2.00430 
vt -0.93510 2.00430 
vt -0.49980 0.10530 
vt -0.55320 0.10530 
vt -0.49980 0.25010 
vt -0.55320 0.25010 
vt -0.49980 0.25010 
vt -0.55320 0.25010 
vt -0.49980 0.10530 
vt -0.55320 0.10530 
vt -0.55320 0.10530 
vt -0.55320 0.25010 
vt -0.49980 0.10530 
vt -0.49980 0.25010 
vt -0.55320 0.25010 
vt -0.55320 0.10530 
vt -0.49980 0.25010 
vt -0.49980 0.10530 
vt -0.49980 0.10530 
vt -0.55320 0.10530 
vt -0.49980 0.25010 
vt -0.55320 0.25010 
vt -0.49980 0.25010 
vt -0.55320 0.25010 
vt -0.49980 0.10530 
vt -0.55320 0.10530 
vt -0.99990 -1.00430 
vt -0.99990 2.00430 
vt -0.93510 -1.00430 
vt -0.93510 2.00430 
vt -0.99990 -1.00430 
vt -1.06640 -1.00430 
vt -0.99990 2.00430 
vt -1.06640 2.00430 
vt -0.99990 -1.00430 
vt -0.99990 2.00430 
vt -0.99990 -1.00430 
vt -0.93510 -1.00430 
vt -0.99990 2.00430 
vt -0.93510 2.00430 
vt -1.00010 -1.01050 
vt -1.00010 2.01050 
vt -0.93640 -1.01050 
vt -0.93640 2.01050 
vt -1.00010 -1.01050 
vt -1.12530 -1.01050 
vt -1.00010 2.01050 
vt -1.12530 2.01050 
vt -1.00010 -1.01050 
vt -1.00010 2.01050 
vt -1.00010 -1.01050 
vt -0.93640 -1.01050 
vt -1.00010 2.01050 
vt -0.93640 2.01050 
vt -0.99990 -1.00430 
vt -0.99990 2.00430 
vt -0.93510 -1.00430 
vt -0.93510 2.00430 
vt -0.99990 -1.00430 
vt -1.06640 -1.00430 
vt -0.99990 2.00430 
vt -1.06640 2.00430 
vt -0.99990 -1.00430 
vt -0.99990 2.00430 
vt -0.99990 -1.00430 
vt -0.93510 -1.00430 
vt -0.99990 2.00430 
vt -0.93510 2.00430 
vt -0.49980 0.10530 
vt -0.55320 0.10530 
vt -0.49980 0.25010 
vt -0.55320 0.25010 
vt -0.49980 0.10530 
vt -0.55320 0.10530 
vt -0.49980 0.25010 
vt -0.55320 0.25010 
vt -0.49980 0.25010 
vt -0.55320 0.25010 
vt -0.49980 0.10530 
vt -0.55320 0.10530 
vt -0.49980 0.10530 
vt -0.55320 0.10530 
vt -0.49980 0.25010 
vt -0.55320 0.25010 
vt -0.49980 0.25010 
vt -0.55320 0.25010 
vt -0.49980 0.10530 
vt -0.55320 0.10530 
vt -0.49980 0.25010 
vt -0.55320 0.25010 
vt -0.49980 0.10530 
vt -0.55320 0.10530 
vt -0.99990 -1.00430 
vt -0.99990 2.00430 
vt -0.93510 -1.00430 
vt -0.93510 2.00430 
vt -0.99990 -1.00430 
vt -1.06640 -1.00430 
vt -0.99990 2.00430 
vt -1.06640 2.00430 
vt -0.99990 -1.00430 
vt -0.99990 2.00430 
vt -0.99990 -1.00430 
vt -0.93510 -1.00430 
vt -0.99990 2.00430 
vt -0.93510 2.00430 
vt -1.00010 -1.01050 
vt -1.00010 2.01050 
vt -0.93640 -1.01050 
vt -0.93640 2.01050 
vt -1.00010 -1.01050 
vt -1.12530 -1.01050 
vt -1.00010 2.01050 
vt -1.12530 2.01050 
vt -1.00010 -1.01050 
vt -1.00010 2.01050 
vt -1.00010 -1.01050 
vt -0.93640 -1.01050 
vt -1.00010 2.01050 
vt -0.93640 2.01050 
vt -0.99990 -1.00430 
vt -0.99990 2.00430 
vt -0.93510 -1.00430 
vt -0.93510 2.00430 
vt -0.99990 -1.00430 
vt -1.06640 -1.00430 
vt -0.99990 2.00430 
vt -1.06640 2.00430 
vt -0.99990 -1.00430 
vt -0.99990 2.00430 
vt -0.99990 -1.00430 
vt -0.93510 -1.00430 
vt -0.99990 2.00430 
vt -0.93510 2.00430 
vt -0.49980 0.10530 
vt -0.55320 0.10530 
vt -0.49980 0.25010 
vt -0.55320 0.25010 
vt -0.49980 0.10530 
vt -0.55320 0.10530 
vt -0.49980 0.25010 
vt -0.55320 0.25010 
vt -0.49980 0.10530 
vt -0.55320 0.10530 
vt -0.49980 0.25010 
vt -0.55320 0.25010 

s 1

g Object_2

usemtl texture0

f 1/1 2/2 3/3
f 2/2 4/4 3/3
f 5/5 6/6 7/7
f 6/6 8/8 7/7
f 9/9 10/10 11/11
f 10/10 12/12 11/11
f 13/13 14/14 15/15
f 14/14 16/16 15/15
f 17/17 18/18 19/19
f 18/18 20/20 19/19
f 21/21 22/22 23/23
f 22/22 24/24 23/23
f 25/25 26/26 27/27
f 26/26 28/28 27/27
f 29/29 30/30 31/31
f 30/30 32/32 31/31
f 33/33 34/34 35/35
f 34/34 36/36 35/35
f 37/37 38/38 39/39
f 38/38 40/40 39/39
f 41/41 42/42 43/43
f 42/42 44/44 43/43
f 45/45 46/46 47/47
f 46/46 48/48 47/47

usemtl texture1

f 49/49 50/50 51/51
f 50/50 52/52 51/51
f 53/53 54/54 55/55
f 54/54 56/56 55/55
f 57/57 58/58 59/59
f 58/58 60/60 59/59
f 61/61 62/62 63/63
f 62/62 64/64 63/63
f 65/65 66/66 67/67
f 66/66 68/68 67/67
f 69/69 70/70 71/71
f 70/70 72/72 71/71

usemtl texture2

f 73/73 74/74 75/75
f 75/75 74/74 76/76
f 77/77 78/78 79/79
f 79/79 78/78 80/80
f 81/81 82/82 83/83
f 82/82 84/84 83/83
f 85/85 86/86 87/87
f 87/87 86/86 88/88
f 89/89 90/90 91/91
f 90/90 92/92 91/91
f 93/93 94/94 95/95
f 94/94 96/96 95/95
f 97/97 98/98 99/99
f 99/99 98/98 100/100
f 101/101 102/102 103/103
f 102/102 104/104 103/103
f 105/105 106/106 107/107
f 107/107 106/106 108/108
f 109/109 110/110 111/111
f 111/111 110/110 112/112
f 113/113 114/114 115/115
f 115/115 114/114 116/116
f 117/117 118/118 119/119
f 119/119 118/118 120/120
f 121/121 122/122 123/123
f 122/122 124/124 123/123
f 125/125 126/126 127/127
f 127/127 126/126 128/128
f 129/129 130/130 131/131
f 130/130 132/132 131/131
f 133/133 134/134 135/135
f 134/134 136/136 135/135
f 137/137 138/138 139/139
f 139/139 138/138 140/140
f 141/141 142/142 143/143
f 142/142 144/144 143/143
f 145/145 146/146 147/147
f 147/147 146/146 148/148
f 149/149 150/150 151/151
f 151/151 150/150 152/152
f 153/153 154/154 155/155
f 155/155 154/154 156/156
f 157/157 158/158 159/159
f 159/159 158/158 160/160
f 161/161 162/162 163/163
f 162/162 164/164 163/163
f 165/165 166/166 167/167
f 167/167 166/166 168/168
f 169/169 170/170 171/171
f 170/170 172/172 171/171
f 173/173 174/174 175/175
f 174/174 176/176 175/175
f 177/177 178/178 179/179
f 179/179 178/178 180/180
f 181/181 182/182 183/183
f 182/182 184/184 183/183
f 185/185 186/186 187/187
f 187/187 186/186 188/188
f 189/189 190/190 191/191
f 191/191 190/190 192/192
f 193/193 194/194 195/195
f 195/195 194/194 196/196
f 197/197 198/198 199/199
f 199/199 198/198 200/200
f 201/201 202/202 203/203
f 203/203 202/202 204/204
f 205/205 206/206 207/207
f 207/207 206/206 208/208
f 209/209 210/210 211/211
f 211/211 210/210 212/212
f 213/213 214/214 215/215
f 215/215 214/214 216/216
f 217/217 218/218 219/219
f 219/219 218/218 220/220
f 221/221 222/222 223/223
f 222/222 224/224 223/223
f 225/225 226/226 227/227
f 227/227 226/226 228/228
f 229/229 230/230 231/231
f 230/230 232/232 231/231
f 233/233 234/234 235/235
f 235/235 234/234 236/236
f 237/237 238/238 239/239
f 238/238 240/240 239/239
f 241/241 242/242 243/243
f 242/242 244/244 243/243
f 245/245 246/246 247/247
f 246/246 248/248 247/247
f 249/249 250/250 251/251
f 250/250 252/252 251/251
f 253/253 254/254 255/255
f 255/255 254/254 256/256
f 257/257 258/258 259/259
f 259/259 258/258 260/260
f 261/261 262/262 263/263
f 263/263 262/262 264/264
f 265/265 266/266 267/267
f 267/267 266/266 268/268
f 269/269 270/270 271/271
f 271/271 270/270 272/272
f 273/273 274/274 275/275
f 275/275 274/274 276/276
f 277/277 278/278 279/279
f 278/278 280/280 279/279
f 281/281 282/282 283/283
f 283/283 282/282 284/284
f 285/285 286/286 287/287
f 286/286 288/288 287/287
f 289/289 290/290 291/291
f 291/291 290/290 292/292
f 293/293 294/294 295/295
f 294/294 296/296 295/295
f 297/297 298/298 299/299
f 299/299 298/298 300/300
f 301/301 302/302 303/303
f 302/302 304/304 303/303
f 305/305 306/306 307/307
f 306/306 308/308 307/307
f 309/309 310/310 311/311
f 310/310 312/312 311/311

usemtl texture3

f 313/313 314/314 315/315
f 314/314 316/316 315/315
f 317/317 318/318 313/313
f 318/318 314/314 313/313
f 319/319 320/320 321/321
f 320/320 322/322 321/321
f 323/323 324/324 319/319
f 324/324 320/320 319/319
f 325/325 326/326 327/327
f 326/326 328/328 327/327
f 329/329 330/330 325/325
f 330/330 326/326 325/325
f 331/331 332/332 333/333
f 332/332 334/334 333/333
f 335/335 336/336 331/331
f 336/336 332/332 331/331
f 337/337 338/338 339/339
f 338/338 340/340 339/339
f 341/341 342/342 337/337
f 342/342 338/338 337/337
f 343/343 344/344 345/345
f 344/344 346/346 345/345
f 347/347 348/348 343/343
f 348/348 344/344 343/343
f 349/349 350/350 351/351
f 350/350 352/352 351/351
f 353/353 354/354 355/355
f 354/354 356/356 355/355
f 357/357 358/358 359/359
f 358/358 360/360 359/359
f 361/361 362/362 349/349
f 362/362 350/350 349/349
f 363/363 364/364 353/353
f 364/364 354/354 353/353
f 365/365 366/366 357/357
f 366/366 358/358 357/357
f 367/367 368/368 369/369
f 368/368 370/370 369/369
f 371/371 372/372 373/373
f 372/372 374/374 373/373
f 375/375 376/376 377/377
f 376/376 378/378 377/377
f 379/379 380/380 367/367
f 380/380 368/368 367/367
f 381/381 382/382 371/371
f 382/382 372/372 371/371
f 383/383 384/384 375/375
f 384/384 376/376 375/375

usemtl texture4

f 385/385 386/386 387/387
f 386/386 388/388 387/387
f 389/389 390/390 385/385
f 390/390 386/386 385/385
f 391/391 392/392 388/388
f 392/392 387/387 388/388
f 393/393 394/394 389/389
f 394/394 390/390 389/389
f 395/395 396/396 397/397
f 396/396 398/398 397/397
f 399/399 400/400 395/395
f 400/400 396/396 395/395
f 401/401 402/402 393/393
f 402/402 394/394 393/393
f 403/403 404/404 399/399
f 404/404 400/400 399/399
f 405/405 406/406 403/403
f 406/406 404/404 403/403
f 407/407 408/408 401/401
f 408/408 402/402 401/401
f 409/409 410/410 405/405
f 410/410 406/406 405/405
f 411/411 412/412 407/407
f 412/412 408/408 407/407
f 413/413 414/414 409/409
f 414/414 410/410 409/409
f 415/415 416/416 411/411
f 416/416 412/412 411/411
f 417/417 418/418 413/413
f 418/418 414/414 413/413
f 419/419 420/420 415/415
f 420/420 416/416 415/415
f 421/421 422/422 417/417
f 422/422 418/418 417/417
f 423/423 424/424 419/419
f 424/424 420/420 419/419
f 425/425 426/426 421/421
f 426/426 422/422 421/421
f 423/423 427/427 428/428
f 427/427 429/429 428/428

usemtl texture5

f 430/430 431/431 432/432
f 431/431 433/433 432/432
f 434/434 435/435 436/436
f 435/435 437/437 436/436
f 438/438 439/439 440/440
f 439/439 441/441 440/440
f 439/439 442/442 441/441
f 442/442 443/443 441/441
f 444/444 445/445 446/446
f 445/445 447/447 446/446
f 448/448 449/449 450/450
f 449/449 451/451 450/450
f 452/452 453/453 454/454
f 453/453 455/455 454/454
f 456/456 457/457 458/458
f 457/457 459/459 458/458
f 460/460 461/461 462/462
f 461/461 463/463 462/462
f 461/461 464/464 463/463
f 464/464 465/465 463/463
f 466/466 467/467 468/468
f 467/467 469/469 468/468
f 470/470 471/471 472/472
f 471/471 473/473 472/472
f 474/474 475/475 476/476
f 475/475 477/477 476/476
f 478/478 479/479 480/480
f 479/479 481/481 480/480
f 479/479 482/482 481/481
f 482/482 483/483 481/481
f 484/484 485/485 486/486
f 485/485 487/487 486/486
f 488/488 489/489 490/490
f 489/489 491/491 490/490
f 492/492 493/493 494/494
f 493/493 495/495 494/494
f 496/496 497/497 498/498
f 497/497 499/499 498/498
f 500/500 501/501 502/502
f 501/501 503/503 502/502
f 504/504 505/505 506/506
f 505/505 507/507 506/506
f 508/508 509/509 510/510
f 509/509 511/511 510/510
f 509/509 512/512 511/511
f 512/512 513/513 511/511
f 514/514 515/515 516/516
f 515/515 517/517 516/516
f 518/518 519/519 520/520
f 519/519 521/521 520/520
f 522/522 523/523 524/524
f 523/523 525/525 524/524
f 526/526 527/527 528/528
f 527/527 529/529 528/528
f 527/527 530/530 529/529
f 530/530 531/531 529/529
f 532/532 533/533 534/534
f 533/533 535/535 534/534
f 536/536 537/537 538/538
f 537/537 539/539 538/538
f 540/540 541/541 542/542
f 541/541 543/543 542/542
f 544/544 545/545 546/546
f 545/545 547/547 546/546
f 548/548 549/549 550/550
f 550/550 549/549 551/551
f 552/552 553/553 554/554
f 553/553 555/555 554/554
f 545/545 556/556 547/547
f 556/556 557/557 547/547
f 558/558 559/559 560/560
f 559/559 561/561 560/560
f 562/562 563/563 564/564
f 563/563 565/565 564/564
f 566/566 567/567 568/568
f 567/567 569/569 568/568
f 570/570 571/571 572/572
f 571/571 573/573 572/572
f 571/571 574/574 573/573
f 574/574 575/575 573/573
f 576/576 577/577 578/578
f 577/577 579/579 578/578
f 580/580 581/581 582/582
f 581/581 583/583 582/582
f 584/584 585/585 586/586
f 585/585 587/587 586/586
f 588/588 589/589 590/590
f 589/589 591/591 590/590
f 589/589 592/592 591/591
f 592/592 593/593 591/591
f 594/594 595/595 596/596
f 595/595 597/597 596/596
f 598/598 599/599 600/600
f 599/599 601/601 600/600
f 602/602 603/603 604/604
f 603/603 605/605 604/604
f 606/606 607/607 608/608
f 607/607 609/609 608/608
f 610/610 611/611 612/612
f 611/611 613/613 612/612
f 614/614 615/615 616/616
f 615/615 617/617 616/616
f 618/618 619/619 620/620
f 619/619 621/621 620/620
f 622/622 623/623 624/624
f 623/623 625/625 624/624
f 619/619 626/626 621/621
f 626/626 627/627 621/621
f 628/628 629/629 630/630
f 629/629 631/631 630/630
f 632/632 633/633 634/634
f 633/633 635/635 634/634
f 636/636 637/637 638/638
f 637/637 639/639 638/638
f 637/637 640/640 639/639
f 640/640 641/641 639/639
f 642/642 643/643 644/644
f 643/643 645/645 644/644
f 646/646 647/647 648/648
f 647/647 649/649 648/648
f 650/650 651/651 652/652
f 651/651 653/653 652/652
f 654/654 655/655 656/656
f 655/655 657/657 656/656
f 658/658 659/659 660/660
f 659/659 661/661 660/660
f 659/659 662/662 661/661
f 662/662 663/663 661/661
f 664/664 665/665 666/666
f 665/665 667/667 666/666
f 668/668 669/669 670/670
f 669/669 671/671 670/670
f 672/672 673/673 674/674
f 673/673 675/675 674/674
f 676/676 677/677 678/678
f 677/677 679/679 678/678
f 680/680 681/681 682/682
f 681/681 683/683 682/682
f 681/681 684/684 683/683
f 684/684 685/685 683/683
f 686/686 687/687 688/688
f 687/687 689/689 688/688
f 690/690 691/691 692/692
f 691/691 693/693 692/692
f 694/694 695/695 696/696
f 695/695 697/697 696/696
f 698/698 699/699 700/700
f 699/699 701/701 700/700
f 702/702 703/703 704/704
f 703/703 705/705 704/704
f 706/706 707/707 708/708
f 707/707 709/709 708/708
f 703/703 710/710 705/705
f 710/710 711/711 705/705
f 712/712 713/713 714/714
f 713/713 715/715 714/714
f 716/716 717/717 718/718
f 717/717 719/719 718/718
f 720/720 721/721 722/722
f 721/721 723/723 722/722
f 724/724 725/725 726/726
f 725/725 727/727 726/726
f 725/725 728/728 727/727
f 728/728 729/729 727/727
f 730/730 731/731 732/732
f 731/731 733/733 732/732
f 734/734 735/735 736/736
f 735/735 737/737 736/736
f 738/738 739/739 740/740
f 739/739 741/741 740/740
f 742/742 743/743 744/744
f 743/743 745/745 744/744
f 739/739 746/746 741/741
f 746/746 747/747 741/741
f 748/748 749/749 750/750
f 749/749 751/751 750/750
f 752/752 753/753 754/754
f 753/753 755/755 754/754
f 756/756 757/757 758/758
f 758/758 757/757 759/759
f 760/760 761/761 762/762
f 761/761 763/763 762/762
f 764/764 765/765 766/766
f 765/765 767/767 766/766
f 768/768 769/769 770/770
f 769/769 771/771 770/770
f 772/772 773/773 774/774
f 773/773 775/775 774/774
f 776/776 777/777 778/778
f 777/777 779/779 778/778
f 777/777 780/780 779/779
f 780/780 781/781 779/779
f 782/782 783/783 784/784
f 783/783 785/785 784/784
f 786/786 787/787 788/788
f 787/787 789/789 788/788
f 790/790 791/791 792/792
f 791/791 793/793 792/792
f 791/791 794/794 793/793
f 794/794 795/795 793/793
f 796/796 797/797 798/798
f 797/797 799/799 798/798
f 800/800 801/801 802/802
f 801/801 803/803 802/802
f 804/804 805/805 806/806
f 805/805 807/807 806/806
f 805/805 808/808 807/807
f 808/808 809/809 807/807
f 810/810 811/811 812/812
f 811/811 813/813 812/812
f 814/814 815/815 816/816
f 815/815 817/817 816/816
f 818/818 819/819 820/820
f 819/819 821/821 820/820
f 822/822 823/823 824/824
f 823/823 825/825 824/824
f 826/826 827/827 828/828
f 827/827 829/829 828/828
f 830/830 831/831 832/832
f 831/831 833/833 832/832
f 834/834 835/835 836/836
f 835/835 837/837 836/836
f 838/838 839/839 840/840
f 839/839 841/841 840/840
f 842/842 843/843 844/844
f 843/843 845/845 844/844
f 843/843 846/846 845/845
f 846/846 847/847 845/845
f 848/848 849/849 850/850
f 849/849 851/851 850/850
f 852/852 853/853 854/854
f 853/853 855/855 854/854
f 856/856 857/857 858/858
f 857/857 859/859 858/858
f 857/857 860/860 859/859
f 860/860 861/861 859/859
f 862/862 863/863 864/864
f 863/863 865/865 864/864
f 866/866 867/867 868/868
f 867/867 869/869 868/868
f 870/870 871/871 872/872
f 871/871 873/873 872/872
f 871/871 874/874 873/873
f 874/874 875/875 873/873
f 876/876 877/877 878/878
f 877/877 879/879 878/878
f 880/880 881/881 882/882
f 881/881 883/883 882/882
f 884/884 885/885 886/886
f 885/885 887/887 886/886
f 888/888 889/889 890/890
f 889/889 891/891 890/890
f 892/892 893/893 894/894
f 893/893 895/895 894/894
f 896/896 897/897 898/898
f 897/897 899/899 898/898
f 900/900 901/901 902/902
f 901/901 903/903 902/902
f 904/904 905/905 906/906
f 905/905 907/907 906/906
f 908/908 909/909 910/910
f 909/909 911/911 910/910
f 909/909 912/912 911/911
f 912/912 913/913 911/911
f 914/914 915/915 916/916
f 915/915 917/917 916/916
f 918/918 919/919 920/920
f 919/919 921/921 920/920
f 922/922 923/923 924/924
f 923/923 925/925 924/924
f 923/923 926/926 925/925
f 926/926 927/927 925/925
f 928/928 929/929 930/930
f 929/929 931/931 930/930
f 932/932 933/933 934/934
f 933/933 935/935 934/934
f 936/936 937/937 938/938
f 937/937 939/939 938/938
f 937/937 940/940 939/939
f 940/940 941/941 939/939
f 942/942 943/943 944/944
f 943/943 945/945 944/944
f 946/946 947/947 948/948
f 947/947 949/949 948/948
f 950/950 951/951 952/952
f 951/951 953/953 952/952
f 954/954 955/955 956/956
f 955/955 957/957 956/956
f 958/958 959/959 960/960
f 959/959 961/961 960/960
f 962/962 963/963 964/964
f 963/963 965/965 964/964
f 966/966 967/967 968/968
f 967/967 969/969 968/968
f 970/970 971/971 972/972
f 971/971 973/973 972/972
f 974/974 975/975 976/976
f 975/975 977/977 976/976
f 975/975 978/978 977/977
f 978/978 979/979 977/977
f 980/980 981/981 982/982
f 981/981 983/983 982/982
f 984/984 985/985 986/986
f 985/985 987/987 986/986
f 988/988 989/989 990/990
f 989/989 991/991 990/990
f 989/989 992/992 991/991
f 992/992 993/993 991/991
f 994/994 995/995 996/996
f 995/995 997/997 996/996
f 998/998 999/999 1000/1000
f 999/999 1001/1001 1000/1000
f 1002/1002 1003/1003 1004/1004
f 1003/1003 1005/1005 1004/1004
f 1003/1003 1006/1006 1005/1005
f 1006/1006 1007/1007 1005/1005
f 1008/1008 1009/1009 1010/1010
f 1009/1009 1011/1011 1010/1010
f 1012/1012 1013/1013 1014/1014
f 1013/1013 1015/1015 1014/1014
f 1016/1016 1017/1017 1018/1018
f 1017/1017 1019/1019 1018/1018
f 1020/1020 1021/1021 1022/1022
f 1021/1021 1023/1023 1022/1022

