# Model created using BSP2OBJ v0.2.1 by DCx Demo*
# http://devilclanthps3.weebly.com/

mtllib S23_ON_08.obj.mtl
# Object number 1
# 90 faces
# 166 vertices

v 8000.00000 -19.99990 -15610.00000
v 8000.00000 -19.99990 -15450.00000
v 8000.00000 0.00000 -15610.00000
v 8000.00000 0.00000 -15450.00000
v 8520.00000 -19.99990 -15474.70313
v 8520.00000 -19.99990 -15585.29688
v 8520.00000 0.00000 -15474.70313
v 8520.00000 0.00000 -15585.29688
v 8520.00000 -19.99990 -15585.29688
v 8680.00000 -19.99990 -15585.29688
v 8520.00000 0.00000 -15585.29688
v 8680.00000 0.00000 -15585.29688
v 8680.00000 -19.99990 -15474.70313
v 8520.00000 -19.99990 -15474.70313
v 8680.00000 0.00000 -15474.70313
v 8520.00000 0.00000 -15474.70313
v 8680.00000 -19.99990 -15585.29688
v 8680.00000 -19.99990 -15474.70313
v 8680.00000 0.00000 -15585.29688
v 8680.00000 0.00000 -15474.70313
v 9220.00000 -19.99990 -15474.70313
v 9220.00000 -19.99990 -15585.29688
v 9220.00000 0.00000 -15474.70313
v 9220.00000 0.00000 -15585.29688
v 9220.00000 -19.99990 -15585.29688
v 9380.00000 -19.99990 -15585.29688
v 9220.00000 0.00000 -15585.29688
v 9380.00000 0.00000 -15585.29688
v 9380.00000 -19.99990 -15474.70313
v 9220.00000 -19.99990 -15474.70313
v 9380.00000 0.00000 -15474.70313
v 9220.00000 0.00000 -15474.70313
v 9380.00000 -19.99990 -15585.29688
v 9380.00000 -19.99990 -15474.70313
v 9380.00000 0.00000 -15585.29688
v 9380.00000 0.00000 -15474.70313
v 9920.00000 -19.99990 -15474.70313
v 9920.00000 -19.99990 -15585.29688
v 9920.00000 0.00000 -15474.70313
v 9920.00000 0.00000 -15585.29688
v 12000.00000 0.00000 -15610.00000
v 12000.00000 -19.99990 -15610.00000
v 9920.00000 -19.99990 -15585.29688
v 10080.00000 -19.99990 -15585.29688
v 9920.00000 0.00000 -15585.29688
v 10080.00000 0.00000 -15585.29688
v 10080.00000 -19.99990 -15474.70313
v 9920.00000 -19.99990 -15474.70313
v 10080.00000 0.00000 -15474.70313
v 9920.00000 0.00000 -15474.70313
v 12000.00000 0.00000 -15450.00000
v 12000.00000 -19.99990 -15450.00000
v 10080.00000 -19.99990 -15585.29688
v 10080.00000 -19.99990 -15474.70313
v 10080.00000 0.00000 -15585.29688
v 10080.00000 0.00000 -15474.70313
v 10620.00000 -19.99990 -15474.70313
v 10620.00000 -19.99990 -15585.29688
v 10620.00000 0.00000 -15474.70313
v 10620.00000 0.00000 -15585.29688
v 10620.00000 -19.99990 -15585.29688
v 10780.00000 -19.99990 -15585.29688
v 10620.00000 0.00000 -15585.29688
v 10780.00000 0.00000 -15585.29688
v 10780.00000 -19.99990 -15474.70313
v 10620.00000 -19.99990 -15474.70313
v 10780.00000 0.00000 -15474.70313
v 10620.00000 0.00000 -15474.70313
v 10780.00000 -19.99990 -15585.29688
v 10780.00000 -19.99990 -15474.70313
v 10780.00000 0.00000 -15585.29688
v 10780.00000 0.00000 -15474.70313
v 11320.00000 -19.99990 -15474.70313
v 11320.00000 -19.99990 -15585.29688
v 11320.00000 0.00000 -15474.70313
v 11320.00000 0.00000 -15585.29688
v 11320.00000 -19.99990 -15585.29688
v 11480.00000 -19.99990 -15585.29688
v 11320.00000 0.00000 -15585.29688
v 11480.00000 0.00000 -15585.29688
v 11480.00000 -19.99990 -15474.70313
v 11320.00000 -19.99990 -15474.70313
v 11480.00000 0.00000 -15474.70313
v 11320.00000 0.00000 -15474.70313
v 11480.00000 -19.99990 -15585.29688
v 11480.00000 -19.99990 -15474.70313
v 11480.00000 0.00000 -15585.29688
v 11480.00000 0.00000 -15474.70313
v 7990.00000 -9.94360 -15555.09766
v 7990.00000 -20.39480 -15557.17969
v 8000.00000 -9.94370 -15555.09766
v 8000.00000 -20.39480 -15557.17969
v 7990.00000 -9.94360 -15525.09766
v 7990.00000 -20.39480 -15527.17969
v 8000.00000 -9.94370 -15525.09766
v 8000.00000 -20.39480 -15527.17969
v 7990.00000 -9.94360 -15495.09766
v 7990.00000 -20.39480 -15497.17969
v 8000.00000 -9.94370 -15495.09766
v 8000.00000 -20.39480 -15497.17969
v 8000.00000 -20.39480 -15562.81055
v 7990.00000 -20.39480 -15562.81055
v 8000.00000 -9.94360 -15564.89258
v 7990.00000 -9.94360 -15564.89258
v 8000.00000 -20.39480 -15532.81055
v 7990.00000 -20.39480 -15532.81055
v 8000.00000 -9.94360 -15534.89258
v 7990.00000 -9.94360 -15534.89258
v 8000.00000 -20.39480 -15502.81055
v 7990.00000 -20.39480 -15502.81055
v 8000.00000 -9.94360 -15504.89258
v 7990.00000 -9.94360 -15504.89258
v 7990.00000 -9.94360 -15555.09766
v 8000.00000 -9.94370 -15555.09766
v 7990.00000 0.00000 -15558.66699
v 8000.00000 0.00000 -15558.66602
v 7990.00000 -9.94360 -15525.09766
v 8000.00000 -9.94370 -15525.09766
v 7990.00000 0.00000 -15528.66699
v 8000.00000 0.00000 -15528.66602
v 7990.00000 -9.94360 -15495.09766
v 8000.00000 -9.94370 -15495.09766
v 7990.00000 0.00000 -15498.66699
v 8000.00000 0.00000 -15498.66602
v 8000.00000 0.00000 -15561.32422
v 8000.00000 -9.94360 -15564.89258
v 7990.00000 0.00000 -15561.32422
v 7990.00000 -9.94360 -15564.89258
v 8000.00000 0.00000 -15531.32422
v 8000.00000 -9.94360 -15534.89258
v 7990.00000 0.00000 -15531.32422
v 7990.00000 -9.94360 -15534.89258
v 8000.00000 0.00000 -15501.32422
v 8000.00000 -9.94360 -15504.89258
v 7990.00000 0.00000 -15501.32422
v 7990.00000 -9.94360 -15504.89258
v 8000.00000 0.00000 -15561.32422
v 7990.00000 0.00000 -15561.32422
v 8000.00000 0.00000 -15558.66602
v 7990.00000 0.00000 -15558.66699
v 8000.00000 0.00000 -15531.32422
v 7990.00000 0.00000 -15531.32422
v 8000.00000 0.00000 -15528.66602
v 7990.00000 0.00000 -15528.66699
v 8000.00000 0.00000 -15501.32422
v 7990.00000 0.00000 -15501.32422
v 8000.00000 0.00000 -15498.66602
v 7990.00000 0.00000 -15498.66699
v 7990.00000 -9.94360 -15555.09766
v 7990.00000 -9.94360 -15564.89258
v 7990.00000 -20.39480 -15557.17969
v 7990.00000 -20.39480 -15562.81055
v 7990.00000 -9.94360 -15525.09766
v 7990.00000 -9.94360 -15534.89258
v 7990.00000 -20.39480 -15527.17969
v 7990.00000 -20.39480 -15532.81055
v 7990.00000 -9.94360 -15495.09766
v 7990.00000 -9.94360 -15504.89258
v 7990.00000 -20.39480 -15497.17969
v 7990.00000 -20.39480 -15502.81055
v 7990.00000 0.00000 -15558.66699
v 7990.00000 0.00000 -15561.32422
v 7990.00000 0.00000 -15528.66699
v 7990.00000 0.00000 -15531.32422
v 7990.00000 0.00000 -15498.66699
v 7990.00000 0.00000 -15501.32422

vt 56.24590 -0.64390 
vt 60.23980 -0.64390 
vt 56.24440 -0.00300 
vt 60.23840 -0.00300 
vt -0.99990 2.49990 
vt -2.49990 2.49990 
vt -0.99990 2.99990 
vt -2.49990 2.99990 
vt -2.49990 2.49990 
vt -5.49990 2.49990 
vt -2.49990 2.99990 
vt -5.49990 2.99990 
vt -3.99990 2.49990 
vt -0.99990 2.49990 
vt -3.99990 2.99990 
vt -0.99990 2.99990 
vt -5.49990 2.49990 
vt -3.99990 2.49990 
vt -5.49990 2.99990 
vt -3.99990 2.99990 
vt -0.99990 2.49990 
vt -2.49990 2.49990 
vt -0.99990 2.99990 
vt -2.49990 2.99990 
vt -2.49990 2.49990 
vt -5.49990 2.49990 
vt -2.49990 2.99990 
vt -5.49990 2.99990 
vt -3.99990 2.49990 
vt -0.99990 2.49990 
vt -3.99990 2.99990 
vt -0.99990 2.99990 
vt -5.49990 2.49990 
vt -3.99990 2.49990 
vt -5.49990 2.99990 
vt -3.99990 2.99990 
vt -0.99990 2.49990 
vt -2.49990 2.49990 
vt -0.99990 2.99990 
vt -2.49990 2.99990 
vt -5.25480 -0.00300 
vt -5.25620 -0.64390 
vt -2.49990 2.49990 
vt -5.49990 2.49990 
vt -2.49990 2.99990 
vt -5.49990 2.99990 
vt -3.99990 2.49990 
vt -0.99990 2.49990 
vt -3.99990 2.99990 
vt -0.99990 2.99990 
vt -1.26090 -0.00300 
vt -1.26230 -0.64390 
vt -5.49990 2.49990 
vt -3.99990 2.49990 
vt -5.49990 2.99990 
vt -3.99990 2.99990 
vt -0.99990 2.49990 
vt -2.49990 2.49990 
vt -0.99990 2.99990 
vt -2.49990 2.99990 
vt -2.49990 2.49990 
vt -5.49990 2.49990 
vt -2.49990 2.99990 
vt -5.49990 2.99990 
vt -3.99990 2.49990 
vt -0.99990 2.49990 
vt -3.99990 2.99990 
vt -0.99990 2.99990 
vt -5.49990 2.49990 
vt -3.99990 2.49990 
vt -5.49990 2.99990 
vt -3.99990 2.99990 
vt -0.99990 2.49990 
vt -2.49990 2.49990 
vt -0.99990 2.99990 
vt -2.49990 2.99990 
vt -2.49990 2.49990 
vt -5.49990 2.49990 
vt -2.49990 2.99990 
vt -5.49990 2.99990 
vt -3.99990 2.49990 
vt -0.99990 2.49990 
vt -3.99990 2.99990 
vt -0.99990 2.99990 
vt -5.49990 2.49990 
vt -3.99990 2.49990 
vt -5.49990 2.99990 
vt -3.99990 2.99990 
vt -0.99990 5.00000 
vt -1.99990 5.00000 
vt -0.99990 4.00010 
vt -1.99990 4.00010 
vt -0.99990 5.00000 
vt -1.99990 5.00000 
vt -0.99990 4.00010 
vt -1.99990 4.00010 
vt -0.99990 5.00000 
vt -1.99990 5.00000 
vt -0.99990 4.00010 
vt -1.99990 4.00010 
vt -2.74990 4.00010 
vt -2.74990 5.00000 
vt -3.74990 4.00010 
vt -3.74990 5.00000 
vt -2.74990 4.00010 
vt -2.74990 5.00000 
vt -3.74990 4.00010 
vt -3.74990 5.00000 
vt -2.74990 4.00010 
vt -2.74990 5.00000 
vt -3.74990 4.00010 
vt -3.74990 5.00000 
vt -0.99990 5.00000 
vt -0.99990 4.00010 
vt 0.00000 5.00000 
vt 0.00000 4.00010 
vt -0.99990 5.00000 
vt -0.99990 4.00010 
vt 0.00000 5.00000 
vt 0.00000 4.00010 
vt -0.99990 5.00000 
vt -0.99990 4.00010 
vt 0.00000 5.00000 
vt 0.00000 4.00010 
vt -4.74990 4.00010 
vt -3.74990 4.00010 
vt -4.74990 5.00000 
vt -3.74990 5.00000 
vt -4.74990 4.00010 
vt -3.74990 4.00010 
vt -4.74990 5.00000 
vt -3.74990 5.00000 
vt -4.74990 4.00010 
vt -3.74990 4.00010 
vt -4.74990 5.00000 
vt -3.74990 5.00000 
vt -4.74990 4.00010 
vt -4.74990 5.00000 
vt -4.99990 4.00010 
vt -4.99990 5.00000 
vt -4.74990 4.00010 
vt -4.74990 5.00000 
vt -4.99990 4.00010 
vt -4.99990 5.00000 
vt -4.74990 4.00010 
vt -4.74990 5.00000 
vt -4.99990 4.00010 
vt -4.99990 5.00000 
vt -1.91290 1.00010 
vt -1.58700 1.00010 
vt -1.83130 0.52070 
vt -1.66860 0.52070 
vt -1.91300 1.00010 
vt -1.58700 1.00010 
vt -1.83130 0.52070 
vt -1.66860 0.52070 
vt -1.91300 1.00010 
vt -1.58700 1.00010 
vt -1.83130 0.52070 
vt -1.66860 0.52070 
vt -1.83130 0.52070 
vt -1.66860 0.52070 
vt -1.83130 0.52070 
vt -1.66860 0.52070 
vt -1.83130 0.52070 
vt -1.66860 0.52070 

s 1

g Object_2

usemtl texture0

f 1/1 2/2 3/3
f 2/2 4/4 3/3
f 5/5 6/6 7/7
f 6/6 8/8 7/7
f 9/9 10/10 11/11
f 10/10 12/12 11/11
f 13/13 14/14 15/15
f 14/14 16/16 15/15
f 17/17 18/18 19/19
f 18/18 20/20 19/19
f 21/21 22/22 23/23
f 22/22 24/24 23/23
f 25/25 26/26 27/27
f 26/26 28/28 27/27
f 29/29 30/30 31/31
f 30/30 32/32 31/31
f 33/33 34/34 35/35
f 34/34 36/36 35/35
f 37/37 38/38 39/39
f 38/38 40/40 39/39
f 3/3 41/41 1/1
f 41/41 42/42 1/1
f 43/43 44/44 45/45
f 44/44 46/46 45/45
f 47/47 48/48 49/49
f 48/48 50/50 49/49
f 51/51 4/4 52/52
f 4/4 2/2 52/52
f 53/53 54/54 55/55
f 54/54 56/56 55/55
f 57/57 58/58 59/59
f 58/58 60/60 59/59
f 61/61 62/62 63/63
f 62/62 64/64 63/63
f 65/65 66/66 67/67
f 66/66 68/68 67/67
f 69/69 70/70 71/71
f 70/70 72/72 71/71
f 73/73 74/74 75/75
f 74/74 76/76 75/75
f 77/77 78/78 79/79
f 78/78 80/80 79/79
f 81/81 82/82 83/83
f 82/82 84/84 83/83
f 85/85 86/86 87/87
f 86/86 88/88 87/87
f 52/52 42/42 51/51
f 42/42 41/41 51/51

usemtl texture1

f 89/89 90/90 91/91
f 91/91 90/90 92/92
f 93/93 94/94 95/95
f 95/95 94/94 96/96
f 97/97 98/98 99/99
f 99/99 98/98 100/100
f 101/101 102/102 103/103
f 103/103 102/102 104/104
f 105/105 106/106 107/107
f 107/107 106/106 108/108
f 109/109 110/110 111/111
f 111/111 110/110 112/112
f 113/113 114/114 115/115
f 115/115 114/114 116/116
f 117/117 118/118 119/119
f 119/119 118/118 120/120
f 121/121 122/122 123/123
f 123/123 122/122 124/124
f 125/125 126/126 127/127
f 126/126 128/128 127/127
f 129/129 130/130 131/131
f 130/130 132/132 131/131
f 133/133 134/134 135/135
f 134/134 136/136 135/135
f 137/137 138/138 139/139
f 138/138 140/140 139/139
f 141/141 142/142 143/143
f 142/142 144/144 143/143
f 145/145 146/146 147/147
f 146/146 148/148 147/147

usemtl texture2

f 149/149 150/150 151/151
f 150/150 152/152 151/151
f 153/153 154/154 155/155
f 154/154 156/156 155/155
f 157/157 158/158 159/159
f 158/158 160/160 159/159
f 161/161 162/162 149/149
f 162/162 150/150 149/149
f 163/163 164/164 153/153
f 164/164 154/154 153/153
f 165/165 166/166 157/157
f 166/166 158/158 157/157

