# Model created using BSP2OBJ v0.2.1 by DCx Demo*
# http://devilclanthps3.weebly.com/

mtllib S23_PN_21.obj.mtl
# Object number 1
# 20 faces
# 40 vertices

v -6320.00000 -0.73290 15685.00000
v -6320.00000 -0.73290 15615.00000
v -6480.00000 -0.73290 15685.00000
v -6480.00000 -0.73290 15615.00000
v -5620.00000 -0.73290 15685.00000
v -5620.00000 -0.73290 15615.00000
v -5780.00000 -0.73290 15685.00000
v -5780.00000 -0.73290 15615.00000
v -4920.00000 -0.73290 15685.00000
v -4920.00000 -0.73290 15615.00000
v -5080.00000 -0.73290 15685.00000
v -5080.00000 -0.73290 15615.00000
v -4220.00000 -0.73290 15685.00000
v -4220.00000 -0.73290 15615.00000
v -4380.00000 -0.73290 15685.00000
v -4380.00000 -0.73290 15615.00000
v -3520.00000 -0.73290 15685.00000
v -3520.00000 -0.73290 15615.00000
v -3680.00000 -0.73290 15685.00000
v -3680.00000 -0.73290 15615.00000
v -6320.00000 -0.73290 15445.00000
v -6320.00000 -0.73290 15375.00000
v -6480.00000 -0.73290 15445.00000
v -6480.00000 -0.73290 15375.00000
v -5620.00000 -0.73290 15445.00000
v -5620.00000 -0.73290 15375.00000
v -5780.00000 -0.73290 15445.00000
v -5780.00000 -0.73290 15375.00000
v -4920.00000 -0.73290 15445.00000
v -4920.00000 -0.73290 15375.00000
v -5080.00000 -0.73290 15445.00000
v -5080.00000 -0.73290 15375.00000
v -4220.00000 -0.73290 15445.00000
v -4220.00000 -0.73290 15375.00000
v -4380.00000 -0.73290 15445.00000
v -4380.00000 -0.73290 15375.00000
v -3520.00000 -0.73290 15445.00000
v -3520.00000 -0.73290 15375.00000
v -3680.00000 -0.73290 15445.00000
v -3680.00000 -0.73290 15375.00000

vt 3.49990 2.25010 
vt -1.73360 2.25010 
vt 3.49990 0.00010 
vt -1.73360 0.00010 
vt 3.49990 2.25010 
vt -1.73360 2.25010 
vt 3.49990 0.00010 
vt -1.73360 0.00010 
vt 3.49990 2.25010 
vt -1.73360 2.25010 
vt 3.49990 0.00010 
vt -1.73360 0.00010 
vt 3.49990 2.25010 
vt -1.73360 2.25010 
vt 3.49990 0.00010 
vt -1.73360 0.00010 
vt 3.49990 2.25010 
vt -1.73360 2.25010 
vt 3.49990 0.00010 
vt -1.73360 0.00010 
vt 3.49990 2.25010 
vt -1.73360 2.25010 
vt 3.49990 0.00010 
vt -1.73360 0.00010 
vt 3.49990 2.25010 
vt -1.73360 2.25010 
vt 3.49990 0.00010 
vt -1.73360 0.00010 
vt 3.49990 2.25010 
vt -1.73360 2.25010 
vt 3.49990 0.00010 
vt -1.73360 0.00010 
vt 3.49990 2.25010 
vt -1.73360 2.25010 
vt 3.49990 0.00010 
vt -1.73360 0.00010 
vt 3.49990 2.25010 
vt -1.73360 2.25010 
vt 3.49990 0.00010 
vt -1.73360 0.00010 

s 1

g Object_2

usemtl texture0

f 1/1 2/2 3/3
f 2/2 4/4 3/3
f 5/5 6/6 7/7
f 6/6 8/8 7/7
f 9/9 10/10 11/11
f 10/10 12/12 11/11
f 13/13 14/14 15/15
f 14/14 16/16 15/15
f 17/17 18/18 19/19
f 18/18 20/20 19/19
f 21/21 22/22 23/23
f 22/22 24/24 23/23
f 25/25 26/26 27/27
f 26/26 28/28 27/27
f 29/29 30/30 31/31
f 30/30 32/32 31/31
f 33/33 34/34 35/35
f 34/34 36/36 35/35
f 37/37 38/38 39/39
f 38/38 40/40 39/39

