# Model created using BSP2OBJ v0.2.1 by DCx Demo*
# http://devilclanthps3.weebly.com/

mtllib S23_ON_02.obj.mtl
# Object number 1
# 90 faces
# 166 vertices

v 15450.00000 0.00000 12000.00000
v 15450.00000 0.00000 8000.00000
v 15450.00000 -19.99990 12000.00000
v 15450.00000 -19.99990 8000.00000
v 15474.70313 -19.99990 8680.00000
v 15474.70313 -19.99990 8520.00000
v 15474.70313 0.00000 8680.00000
v 15474.70313 0.00000 8520.00000
v 15474.70313 -19.99990 9380.00000
v 15474.70313 -19.99990 9220.00000
v 15474.70313 0.00000 9380.00000
v 15474.70313 0.00000 9220.00000
v 15474.70313 -19.99990 10080.00000
v 15474.70313 -19.99990 9920.00000
v 15474.70313 0.00000 10080.00000
v 15474.70313 0.00000 9920.00000
v 15474.70313 -19.99990 10780.00000
v 15474.70313 -19.99990 10620.00000
v 15474.70313 0.00000 10780.00000
v 15474.70313 0.00000 10620.00000
v 15474.70313 -19.99990 11480.00000
v 15474.70313 -19.99990 11320.00000
v 15474.70313 0.00000 11480.00000
v 15474.70313 0.00000 11320.00000
v 15610.00000 -19.99990 8000.00000
v 15610.00000 0.00000 8000.00000
v 15474.70313 -19.99990 8520.00000
v 15585.29688 -19.99990 8520.00000
v 15474.70313 0.00000 8520.00000
v 15585.29688 0.00000 8520.00000
v 15585.29688 -19.99990 8680.00000
v 15474.70313 -19.99990 8680.00000
v 15585.29688 0.00000 8680.00000
v 15474.70313 0.00000 8680.00000
v 15474.70313 -19.99990 9220.00000
v 15585.29688 -19.99990 9220.00000
v 15474.70313 0.00000 9220.00000
v 15585.29688 0.00000 9220.00000
v 15585.29688 -19.99990 9380.00000
v 15474.70313 -19.99990 9380.00000
v 15585.29688 0.00000 9380.00000
v 15474.70313 0.00000 9380.00000
v 15474.70313 -19.99990 9920.00000
v 15585.29688 -19.99990 9920.00000
v 15474.70313 0.00000 9920.00000
v 15585.29688 0.00000 9920.00000
v 15585.29688 -19.99990 10080.00000
v 15474.70313 -19.99990 10080.00000
v 15585.29688 0.00000 10080.00000
v 15474.70313 0.00000 10080.00000
v 15474.70313 -19.99990 10620.00000
v 15585.29688 -19.99990 10620.00000
v 15474.70313 0.00000 10620.00000
v 15585.29688 0.00000 10620.00000
v 15585.29688 -19.99990 10780.00000
v 15474.70313 -19.99990 10780.00000
v 15585.29688 0.00000 10780.00000
v 15474.70313 0.00000 10780.00000
v 15474.70313 -19.99990 11320.00000
v 15585.29688 -19.99990 11320.00000
v 15474.70313 0.00000 11320.00000
v 15585.29688 0.00000 11320.00000
v 15585.29688 -19.99990 11480.00000
v 15474.70313 -19.99990 11480.00000
v 15585.29688 0.00000 11480.00000
v 15474.70313 0.00000 11480.00000
v 15610.00000 -19.99990 12000.00000
v 15610.00000 0.00000 12000.00000
v 15585.29688 -19.99990 8520.00000
v 15585.29688 -19.99990 8680.00000
v 15585.29688 0.00000 8520.00000
v 15585.29688 0.00000 8680.00000
v 15585.29688 -19.99990 9220.00000
v 15585.29688 -19.99990 9380.00000
v 15585.29688 0.00000 9220.00000
v 15585.29688 0.00000 9380.00000
v 15585.29688 -19.99990 9920.00000
v 15585.29688 -19.99990 10080.00000
v 15585.29688 0.00000 9920.00000
v 15585.29688 0.00000 10080.00000
v 15585.29688 -19.99990 10620.00000
v 15585.29688 -19.99990 10780.00000
v 15585.29688 0.00000 10620.00000
v 15585.29688 0.00000 10780.00000
v 15585.29688 -19.99990 11320.00000
v 15585.29688 -19.99990 11480.00000
v 15585.29688 0.00000 11320.00000
v 15585.29688 0.00000 11480.00000
v 15495.09766 -9.94360 7990.00000
v 15497.17969 -20.39480 7990.00000
v 15495.09766 -9.94370 8000.00000
v 15497.17969 -20.39480 8000.00000
v 15495.09766 -9.94360 7990.00000
v 15495.09766 -9.94370 8000.00000
v 15498.66699 0.00000 7990.00000
v 15498.66602 0.00000 8000.00000
v 15501.32422 0.00000 8000.00000
v 15501.32422 0.00000 7990.00000
v 15498.66602 0.00000 8000.00000
v 15498.66699 0.00000 7990.00000
v 15501.32422 0.00000 8000.00000
v 15504.89258 -9.94360 8000.00000
v 15501.32422 0.00000 7990.00000
v 15504.89258 -9.94360 7990.00000
v 15502.81055 -20.39480 8000.00000
v 15502.81055 -20.39480 7990.00000
v 15504.89258 -9.94360 8000.00000
v 15504.89258 -9.94360 7990.00000
v 15525.09766 -9.94360 7990.00000
v 15527.17969 -20.39480 7990.00000
v 15525.09766 -9.94370 8000.00000
v 15527.17969 -20.39480 8000.00000
v 15525.09766 -9.94360 7990.00000
v 15525.09766 -9.94370 8000.00000
v 15528.66699 0.00000 7990.00000
v 15528.66602 0.00000 8000.00000
v 15531.32422 0.00000 8000.00000
v 15531.32422 0.00000 7990.00000
v 15528.66602 0.00000 8000.00000
v 15528.66699 0.00000 7990.00000
v 15531.32422 0.00000 8000.00000
v 15534.89258 -9.94360 8000.00000
v 15531.32422 0.00000 7990.00000
v 15534.89258 -9.94360 7990.00000
v 15532.81055 -20.39480 8000.00000
v 15532.81055 -20.39480 7990.00000
v 15534.89258 -9.94360 8000.00000
v 15534.89258 -9.94360 7990.00000
v 15555.09766 -9.94360 7990.00000
v 15557.17969 -20.39480 7990.00000
v 15555.09766 -9.94370 8000.00000
v 15557.17969 -20.39480 8000.00000
v 15555.09766 -9.94360 7990.00000
v 15555.09766 -9.94370 8000.00000
v 15558.66699 0.00000 7990.00000
v 15558.66602 0.00000 8000.00000
v 15561.32422 0.00000 8000.00000
v 15561.32422 0.00000 7990.00000
v 15558.66602 0.00000 8000.00000
v 15558.66699 0.00000 7990.00000
v 15561.32422 0.00000 8000.00000
v 15564.89258 -9.94360 8000.00000
v 15561.32422 0.00000 7990.00000
v 15564.89258 -9.94360 7990.00000
v 15562.81055 -20.39480 8000.00000
v 15562.81055 -20.39480 7990.00000
v 15564.89258 -9.94360 8000.00000
v 15564.89258 -9.94360 7990.00000
v 15495.09766 -9.94360 7990.00000
v 15504.89258 -9.94360 7990.00000
v 15497.17969 -20.39480 7990.00000
v 15502.81055 -20.39480 7990.00000
v 15498.66699 0.00000 7990.00000
v 15501.32422 0.00000 7990.00000
v 15525.09766 -9.94360 7990.00000
v 15534.89258 -9.94360 7990.00000
v 15527.17969 -20.39480 7990.00000
v 15532.81055 -20.39480 7990.00000
v 15528.66699 0.00000 7990.00000
v 15531.32422 0.00000 7990.00000
v 15555.09766 -9.94360 7990.00000
v 15564.89258 -9.94360 7990.00000
v 15557.17969 -20.39480 7990.00000
v 15562.81055 -20.39480 7990.00000
v 15558.66699 0.00000 7990.00000
v 15561.32422 0.00000 7990.00000

vt 56.24440 -0.00300 
vt -5.25480 -0.00300 
vt 56.24590 -0.64390 
vt -5.25620 -0.64390 
vt -2.49990 2.49990 
vt -5.49990 2.49990 
vt -2.49990 2.99990 
vt -5.49990 2.99990 
vt -2.49990 2.49990 
vt -5.49990 2.49990 
vt -2.49990 2.99990 
vt -5.49990 2.99990 
vt -2.49990 2.49990 
vt -5.49990 2.49990 
vt -2.49990 2.99990 
vt -5.49990 2.99990 
vt -2.49990 2.49990 
vt -5.49990 2.49990 
vt -2.49990 2.99990 
vt -5.49990 2.99990 
vt -2.49990 2.49990 
vt -5.49990 2.49990 
vt -2.49990 2.99990 
vt -5.49990 2.99990 
vt -1.26230 -0.64390 
vt -1.26090 -0.00300 
vt -5.49990 2.49990 
vt -3.99990 2.49990 
vt -5.49990 2.99990 
vt -3.99990 2.99990 
vt -0.99990 2.49990 
vt -2.49990 2.49990 
vt -0.99990 2.99990 
vt -2.49990 2.99990 
vt -5.49990 2.49990 
vt -3.99990 2.49990 
vt -5.49990 2.99990 
vt -3.99990 2.99990 
vt -0.99990 2.49990 
vt -2.49990 2.49990 
vt -0.99990 2.99990 
vt -2.49990 2.99990 
vt -5.49990 2.49990 
vt -3.99990 2.49990 
vt -5.49990 2.99990 
vt -3.99990 2.99990 
vt -0.99990 2.49990 
vt -2.49990 2.49990 
vt -0.99990 2.99990 
vt -2.49990 2.99990 
vt -5.49990 2.49990 
vt -3.99990 2.49990 
vt -5.49990 2.99990 
vt -3.99990 2.99990 
vt -0.99990 2.49990 
vt -2.49990 2.49990 
vt -0.99990 2.99990 
vt -2.49990 2.99990 
vt -5.49990 2.49990 
vt -3.99990 2.49990 
vt -5.49990 2.99990 
vt -3.99990 2.99990 
vt -0.99990 2.49990 
vt -2.49990 2.49990 
vt -0.99990 2.99990 
vt -2.49990 2.99990 
vt 60.23980 -0.64390 
vt 60.23840 -0.00300 
vt -3.99990 2.49990 
vt -0.99990 2.49990 
vt -3.99990 2.99990 
vt -0.99990 2.99990 
vt -3.99990 2.49990 
vt -0.99990 2.49990 
vt -3.99990 2.99990 
vt -0.99990 2.99990 
vt -3.99990 2.49990 
vt -0.99990 2.49990 
vt -3.99990 2.99990 
vt -0.99990 2.99990 
vt -3.99990 2.49990 
vt -0.99990 2.49990 
vt -3.99990 2.99990 
vt -0.99990 2.99990 
vt -3.99990 2.49990 
vt -0.99990 2.49990 
vt -3.99990 2.99990 
vt -0.99990 2.99990 
vt -0.99990 5.00000 
vt -1.99990 5.00000 
vt -0.99990 4.00010 
vt -1.99990 4.00010 
vt -0.99990 5.00000 
vt -0.99990 4.00010 
vt 0.00000 5.00000 
vt 0.00000 4.00010 
vt -4.74990 4.00010 
vt -4.74990 5.00000 
vt -4.99990 4.00010 
vt -4.99990 5.00000 
vt -4.74990 4.00010 
vt -3.74990 4.00010 
vt -4.74990 5.00000 
vt -3.74990 5.00000 
vt -2.74990 4.00010 
vt -2.74990 5.00000 
vt -3.74990 4.00010 
vt -3.74990 5.00000 
vt -0.99990 5.00000 
vt -1.99990 5.00000 
vt -0.99990 4.00010 
vt -1.99990 4.00010 
vt -0.99990 5.00000 
vt -0.99990 4.00010 
vt 0.00000 5.00000 
vt 0.00000 4.00010 
vt -4.74990 4.00010 
vt -4.74990 5.00000 
vt -4.99990 4.00010 
vt -4.99990 5.00000 
vt -4.74990 4.00010 
vt -3.74990 4.00010 
vt -4.74990 5.00000 
vt -3.74990 5.00000 
vt -2.74990 4.00010 
vt -2.74990 5.00000 
vt -3.74990 4.00010 
vt -3.74990 5.00000 
vt -0.99990 5.00000 
vt -1.99990 5.00000 
vt -0.99990 4.00010 
vt -1.99990 4.00010 
vt -0.99990 5.00000 
vt -0.99990 4.00010 
vt 0.00000 5.00000 
vt 0.00000 4.00010 
vt -4.74990 4.00010 
vt -4.74990 5.00000 
vt -4.99990 4.00010 
vt -4.99990 5.00000 
vt -4.74990 4.00010 
vt -3.74990 4.00010 
vt -4.74990 5.00000 
vt -3.74990 5.00000 
vt -2.74990 4.00010 
vt -2.74990 5.00000 
vt -3.74990 4.00010 
vt -3.74990 5.00000 
vt -1.91300 1.00010 
vt -1.58700 1.00010 
vt -1.83130 0.52070 
vt -1.66860 0.52070 
vt -1.83130 0.52070 
vt -1.66860 0.52070 
vt -1.91300 1.00010 
vt -1.58700 1.00010 
vt -1.83130 0.52070 
vt -1.66860 0.52070 
vt -1.83130 0.52070 
vt -1.66860 0.52070 
vt -1.91290 1.00010 
vt -1.58700 1.00010 
vt -1.83130 0.52070 
vt -1.66860 0.52070 
vt -1.83130 0.52070 
vt -1.66860 0.52070 

s 1

g Object_2

usemtl texture0

f 1/1 2/2 3/3
f 2/2 4/4 3/3
f 5/5 6/6 7/7
f 6/6 8/8 7/7
f 9/9 10/10 11/11
f 10/10 12/12 11/11
f 13/13 14/14 15/15
f 14/14 16/16 15/15
f 17/17 18/18 19/19
f 18/18 20/20 19/19
f 21/21 22/22 23/23
f 22/22 24/24 23/23
f 25/25 4/4 26/26
f 4/4 2/2 26/26
f 27/27 28/28 29/29
f 28/28 30/30 29/29
f 31/31 32/32 33/33
f 32/32 34/34 33/33
f 35/35 36/36 37/37
f 36/36 38/38 37/37
f 39/39 40/40 41/41
f 40/40 42/42 41/41
f 43/43 44/44 45/45
f 44/44 46/46 45/45
f 47/47 48/48 49/49
f 48/48 50/50 49/49
f 51/51 52/52 53/53
f 52/52 54/54 53/53
f 55/55 56/56 57/57
f 56/56 58/58 57/57
f 59/59 60/60 61/61
f 60/60 62/62 61/61
f 63/63 64/64 65/65
f 64/64 66/66 65/65
f 3/3 67/67 1/1
f 67/67 68/68 1/1
f 69/69 70/70 71/71
f 70/70 72/72 71/71
f 73/73 74/74 75/75
f 74/74 76/76 75/75
f 77/77 78/78 79/79
f 78/78 80/80 79/79
f 81/81 82/82 83/83
f 82/82 84/84 83/83
f 85/85 86/86 87/87
f 86/86 88/88 87/87
f 26/26 68/68 25/25
f 68/68 67/67 25/25

usemtl texture1

f 89/89 90/90 91/91
f 91/91 90/90 92/92
f 93/93 94/94 95/95
f 95/95 94/94 96/96
f 97/97 98/98 99/99
f 98/98 100/100 99/99
f 101/101 102/102 103/103
f 102/102 104/104 103/103
f 105/105 106/106 107/107
f 107/107 106/106 108/108
f 109/109 110/110 111/111
f 111/111 110/110 112/112
f 113/113 114/114 115/115
f 115/115 114/114 116/116
f 117/117 118/118 119/119
f 118/118 120/120 119/119
f 121/121 122/122 123/123
f 122/122 124/124 123/123
f 125/125 126/126 127/127
f 127/127 126/126 128/128
f 129/129 130/130 131/131
f 131/131 130/130 132/132
f 133/133 134/134 135/135
f 135/135 134/134 136/136
f 137/137 138/138 139/139
f 138/138 140/140 139/139
f 141/141 142/142 143/143
f 142/142 144/144 143/143
f 145/145 146/146 147/147
f 147/147 146/146 148/148

usemtl texture2

f 149/149 150/150 151/151
f 150/150 152/152 151/151
f 153/153 154/154 149/149
f 154/154 150/150 149/149
f 155/155 156/156 157/157
f 156/156 158/158 157/157
f 159/159 160/160 155/155
f 160/160 156/156 155/155
f 161/161 162/162 163/163
f 162/162 164/164 163/163
f 165/165 166/166 161/161
f 166/166 162/162 161/161

