# Model created using BSP2OBJ v0.2.1 by DCx Demo*
# http://devilclanthps3.weebly.com/

mtllib S23_ONS_15.obj.mtl
# Object number 1
# 208 faces
# 368 vertices

v -15445.00000 0.00000 -6480.00000
v -15460.00000 0.00000 -6480.00000
v -15445.00000 0.00000 -6320.00000
v -15460.00000 0.00000 -6320.00000
v -15445.00000 0.00000 -5780.00000
v -15460.00000 0.00000 -5780.00000
v -15445.00000 0.00000 -5620.00000
v -15460.00000 0.00000 -5620.00000
v -15445.00000 0.00000 -5080.00000
v -15460.00000 0.00000 -5080.00000
v -15445.00000 0.00000 -4920.00000
v -15460.00000 0.00000 -4920.00000
v -15445.00000 0.00000 -4380.00000
v -15460.00000 0.00000 -4380.00000
v -15445.00000 0.00000 -4220.00000
v -15460.00000 0.00000 -4220.00000
v -15445.00000 0.00000 -3680.00000
v -15460.00000 0.00000 -3680.00000
v -15445.00000 0.00000 -3520.00000
v -15460.00000 0.00000 -3520.00000
v -15360.00000 0.00000 -6320.00000
v -15360.00000 0.00000 -6480.00000
v -15375.00000 0.00000 -6320.00000
v -15375.00000 0.00000 -6480.00000
v -15360.00000 0.00000 -5620.00000
v -15360.00000 0.00000 -5780.00000
v -15375.00000 0.00000 -5620.00000
v -15375.00000 0.00000 -5780.00000
v -15360.00000 0.00000 -4920.00000
v -15360.00000 0.00000 -5080.00000
v -15375.00000 0.00000 -4920.00000
v -15375.00000 0.00000 -5080.00000
v -15360.00000 0.00000 -4220.00000
v -15360.00000 0.00000 -4380.00000
v -15375.00000 0.00000 -4220.00000
v -15375.00000 0.00000 -4380.00000
v -15360.00000 0.00000 -3520.00000
v -15360.00000 0.00000 -3680.00000
v -15375.00000 0.00000 -3520.00000
v -15375.00000 0.00000 -3680.00000
v -15685.00000 0.00000 -6480.00000
v -15700.00000 0.00000 -6480.00000
v -15685.00000 0.00000 -6320.00000
v -15700.00000 0.00000 -6320.00000
v -15685.00000 0.00000 -5780.00000
v -15700.00000 0.00000 -5780.00000
v -15685.00000 0.00000 -5620.00000
v -15700.00000 0.00000 -5620.00000
v -15685.00000 0.00000 -5080.00000
v -15700.00000 0.00000 -5080.00000
v -15685.00000 0.00000 -4920.00000
v -15700.00000 0.00000 -4920.00000
v -15685.00000 0.00000 -4380.00000
v -15700.00000 0.00000 -4380.00000
v -15685.00000 0.00000 -4220.00000
v -15700.00000 0.00000 -4220.00000
v -15685.00000 0.00000 -3680.00000
v -15700.00000 0.00000 -3680.00000
v -15685.00000 0.00000 -3520.00000
v -15700.00000 0.00000 -3520.00000
v -15600.00000 0.00000 -6320.00000
v -15600.00000 0.00000 -6480.00000
v -15615.00000 0.00000 -6320.00000
v -15615.00000 0.00000 -6480.00000
v -15600.00000 0.00000 -5620.00000
v -15600.00000 0.00000 -5780.00000
v -15615.00000 0.00000 -5620.00000
v -15615.00000 0.00000 -5780.00000
v -15600.00000 0.00000 -4920.00000
v -15600.00000 0.00000 -5080.00000
v -15615.00000 0.00000 -4920.00000
v -15615.00000 0.00000 -5080.00000
v -15600.00000 0.00000 -4220.00000
v -15600.00000 0.00000 -4380.00000
v -15615.00000 0.00000 -4220.00000
v -15615.00000 0.00000 -4380.00000
v -15600.00000 0.00000 -3520.00000
v -15600.00000 0.00000 -3680.00000
v -15615.00000 0.00000 -3520.00000
v -15615.00000 0.00000 -3680.00000
v -15460.00000 0.00000 -6500.00000
v -15443.33301 0.00000 -6500.00000
v -15460.00000 0.00000 -6980.00000
v -15443.33301 0.00000 -6980.00000
v -15460.00000 0.00000 -5800.00000
v -15443.33301 0.00000 -5800.00000
v -15460.00000 0.00000 -6300.00000
v -15443.33301 0.00000 -6300.00000
v -15460.00000 0.00000 -5100.00000
v -15443.33301 0.00000 -5100.00000
v -15460.00000 0.00000 -5600.00000
v -15443.33301 0.00000 -5600.00000
v -15460.00000 0.00000 -4400.00000
v -15443.33301 0.00000 -4400.00000
v -15460.00000 0.00000 -4900.00000
v -15443.33301 0.00000 -4900.00000
v -15460.00000 0.00000 -3700.00000
v -15443.33301 0.00000 -3700.00000
v -15460.00000 0.00000 -4200.00000
v -15443.33301 0.00000 -4200.00000
v -15443.33301 0.00000 -3500.00000
v -15460.00000 0.00000 -3500.00000
v -15443.33301 0.00000 -3020.00000
v -15460.00000 0.00000 -3020.00000
v -15376.66699 0.00000 -6500.00000
v -15360.00000 0.00000 -6500.00000
v -15376.66699 0.00000 -6980.00000
v -15360.00000 0.00000 -6980.00000
v -15376.66699 0.00000 -5800.00000
v -15360.00000 0.00000 -5800.00000
v -15376.66699 0.00000 -6300.00000
v -15360.00000 0.00000 -6300.00000
v -15376.66699 0.00000 -5100.00000
v -15360.00000 0.00000 -5100.00000
v -15376.66699 0.00000 -5600.00000
v -15360.00000 0.00000 -5600.00000
v -15376.66699 0.00000 -4400.00000
v -15360.00000 0.00000 -4400.00000
v -15376.66699 0.00000 -4900.00000
v -15360.00000 0.00000 -4900.00000
v -15376.66699 0.00000 -3700.00000
v -15360.00000 0.00000 -3700.00000
v -15376.66699 0.00000 -4200.00000
v -15360.00000 0.00000 -4200.00000
v -15360.00000 0.00000 -3500.00000
v -15376.66699 0.00000 -3500.00000
v -15360.00000 0.00000 -3020.00000
v -15376.66699 0.00000 -3020.00000
v -15700.00000 0.00000 -6500.00000
v -15683.33301 0.00000 -6500.00000
v -15700.00000 0.00000 -6980.00000
v -15683.33301 0.00000 -6980.00000
v -15700.00000 0.00000 -5800.00000
v -15683.33301 0.00000 -5800.00000
v -15700.00000 0.00000 -6300.00000
v -15683.33301 0.00000 -6300.00000
v -15700.00000 0.00000 -5100.00000
v -15683.33301 0.00000 -5100.00000
v -15700.00000 0.00000 -5600.00000
v -15683.33301 0.00000 -5600.00000
v -15700.00000 0.00000 -4400.00000
v -15683.33301 0.00000 -4400.00000
v -15700.00000 0.00000 -4900.00000
v -15683.33301 0.00000 -4900.00000
v -15700.00000 0.00000 -3700.00000
v -15683.33301 0.00000 -3700.00000
v -15700.00000 0.00000 -4200.00000
v -15683.33301 0.00000 -4200.00000
v -15683.33301 0.00000 -3500.00000
v -15700.00000 0.00000 -3500.00000
v -15683.33301 0.00000 -3020.00000
v -15700.00000 0.00000 -3020.00000
v -15616.66699 0.00000 -6500.00000
v -15600.00000 0.00000 -6500.00000
v -15616.66699 0.00000 -6980.00000
v -15600.00000 0.00000 -6980.00000
v -15616.66699 0.00000 -5800.00000
v -15600.00000 0.00000 -5800.00000
v -15616.66699 0.00000 -6300.00000
v -15600.00000 0.00000 -6300.00000
v -15616.66699 0.00000 -5100.00000
v -15600.00000 0.00000 -5100.00000
v -15616.66699 0.00000 -5600.00000
v -15600.00000 0.00000 -5600.00000
v -15616.66699 0.00000 -4400.00000
v -15600.00000 0.00000 -4400.00000
v -15616.66699 0.00000 -4900.00000
v -15600.00000 0.00000 -4900.00000
v -15616.66699 0.00000 -3700.00000
v -15600.00000 0.00000 -3700.00000
v -15616.66699 0.00000 -4200.00000
v -15600.00000 0.00000 -4200.00000
v -15600.00000 0.00000 -3500.00000
v -15616.66699 0.00000 -3500.00000
v -15600.00000 0.00000 -3020.00000
v -15616.66699 0.00000 -3020.00000
v -15410.00000 0.00000 -7000.00000
v -15460.00000 0.00000 -7000.00000
v -15410.00000 0.00000 -6980.00000
v -15460.00000 0.00000 -6980.00000
v -15410.00000 0.00000 -6500.00000
v -15460.00000 0.00000 -6500.00000
v -15410.00000 0.00000 -6480.00000
v -15460.00000 0.00000 -6480.00000
v -15410.00000 0.00000 -6320.00000
v -15460.00000 0.00000 -6320.00000
v -15410.00000 0.00000 -6300.00000
v -15460.00000 0.00000 -6300.00000
v -15410.00000 0.00000 -5800.00000
v -15460.00000 0.00000 -5800.00000
v -15410.00000 0.00000 -5780.00000
v -15460.00000 0.00000 -5780.00000
v -15410.00000 0.00000 -5620.00000
v -15460.00000 0.00000 -5620.00000
v -15410.00000 0.00000 -5600.00000
v -15460.00000 0.00000 -5600.00000
v -15410.00000 0.00000 -5100.00000
v -15460.00000 0.00000 -5100.00000
v -15410.00000 0.00000 -5080.00000
v -15460.00000 0.00000 -5080.00000
v -15410.00000 0.00000 -4920.00000
v -15460.00000 0.00000 -4920.00000
v -15410.00000 0.00000 -4900.00000
v -15460.00000 0.00000 -4900.00000
v -15410.00000 0.00000 -4400.00000
v -15460.00000 0.00000 -4400.00000
v -15410.00000 0.00000 -4380.00000
v -15460.00000 0.00000 -4380.00000
v -15410.00000 0.00000 -4220.00000
v -15460.00000 0.00000 -4220.00000
v -15410.00000 0.00000 -4200.00000
v -15460.00000 0.00000 -4200.00000
v -15410.00000 0.00000 -3700.00000
v -15460.00000 0.00000 -3700.00000
v -15410.00000 0.00000 -3680.00000
v -15460.00000 0.00000 -3680.00000
v -15460.00000 0.00000 -3500.00000
v -15410.00000 0.00000 -3500.00000
v -15460.00000 0.00000 -3520.00000
v -15410.00000 0.00000 -3520.00000
v -15460.00000 0.00000 -3000.00000
v -15410.00000 0.00000 -3000.00000
v -15460.00000 0.00000 -3020.00000
v -15410.00000 0.00000 -3020.00000
v -15360.00000 0.00000 -7000.00000
v -15360.00000 0.00000 -6980.00000
v -15360.00000 0.00000 -6500.00000
v -15360.00000 0.00000 -6480.00000
v -15360.00000 0.00000 -6320.00000
v -15360.00000 0.00000 -6300.00000
v -15360.00000 0.00000 -5800.00000
v -15360.00000 0.00000 -5780.00000
v -15360.00000 0.00000 -5620.00000
v -15360.00000 0.00000 -5600.00000
v -15360.00000 0.00000 -5100.00000
v -15360.00000 0.00000 -5080.00000
v -15360.00000 0.00000 -4920.00000
v -15360.00000 0.00000 -4900.00000
v -15360.00000 0.00000 -4400.00000
v -15360.00000 0.00000 -4380.00000
v -15360.00000 0.00000 -4220.00000
v -15360.00000 0.00000 -4200.00000
v -15360.00000 0.00000 -3700.00000
v -15360.00000 0.00000 -3680.00000
v -15360.00000 0.00000 -3500.00000
v -15360.00000 0.00000 -3520.00000
v -15360.00000 0.00000 -3000.00000
v -15360.00000 0.00000 -3020.00000
v -15650.00000 0.00000 -7000.00000
v -15700.00000 0.00000 -7000.00000
v -15650.00000 0.00000 -6980.00000
v -15700.00000 0.00000 -6980.00000
v -15650.00000 0.00000 -6500.00000
v -15700.00000 0.00000 -6500.00000
v -15650.00000 0.00000 -6480.00000
v -15700.00000 0.00000 -6480.00000
v -15650.00000 0.00000 -6320.00000
v -15700.00000 0.00000 -6320.00000
v -15650.00000 0.00000 -6300.00000
v -15700.00000 0.00000 -6300.00000
v -15650.00000 0.00000 -5800.00000
v -15700.00000 0.00000 -5800.00000
v -15650.00000 0.00000 -5780.00000
v -15700.00000 0.00000 -5780.00000
v -15650.00000 0.00000 -5620.00000
v -15700.00000 0.00000 -5620.00000
v -15650.00000 0.00000 -5600.00000
v -15700.00000 0.00000 -5600.00000
v -15650.00000 0.00000 -5100.00000
v -15700.00000 0.00000 -5100.00000
v -15650.00000 0.00000 -5080.00000
v -15700.00000 0.00000 -5080.00000
v -15650.00000 0.00000 -4920.00000
v -15700.00000 0.00000 -4920.00000
v -15650.00000 0.00000 -4900.00000
v -15700.00000 0.00000 -4900.00000
v -15650.00000 0.00000 -4400.00000
v -15700.00000 0.00000 -4400.00000
v -15650.00000 0.00000 -4380.00000
v -15700.00000 0.00000 -4380.00000
v -15650.00000 0.00000 -4220.00000
v -15700.00000 0.00000 -4220.00000
v -15650.00000 0.00000 -4200.00000
v -15700.00000 0.00000 -4200.00000
v -15650.00000 0.00000 -3700.00000
v -15700.00000 0.00000 -3700.00000
v -15650.00000 0.00000 -3680.00000
v -15700.00000 0.00000 -3680.00000
v -15700.00000 0.00000 -3500.00000
v -15650.00000 0.00000 -3500.00000
v -15700.00000 0.00000 -3520.00000
v -15650.00000 0.00000 -3520.00000
v -15700.00000 0.00000 -3000.00000
v -15650.00000 0.00000 -3000.00000
v -15700.00000 0.00000 -3020.00000
v -15650.00000 0.00000 -3020.00000
v -15600.00000 0.00000 -7000.00000
v -15600.00000 0.00000 -6980.00000
v -15600.00000 0.00000 -6500.00000
v -15600.00000 0.00000 -6480.00000
v -15600.00000 0.00000 -6320.00000
v -15600.00000 0.00000 -6300.00000
v -15600.00000 0.00000 -5800.00000
v -15600.00000 0.00000 -5780.00000
v -15600.00000 0.00000 -5620.00000
v -15600.00000 0.00000 -5600.00000
v -15600.00000 0.00000 -5100.00000
v -15600.00000 0.00000 -5080.00000
v -15600.00000 0.00000 -4920.00000
v -15600.00000 0.00000 -4900.00000
v -15600.00000 0.00000 -4400.00000
v -15600.00000 0.00000 -4380.00000
v -15600.00000 0.00000 -4220.00000
v -15600.00000 0.00000 -4200.00000
v -15600.00000 0.00000 -3700.00000
v -15600.00000 0.00000 -3680.00000
v -15600.00000 0.00000 -3500.00000
v -15600.00000 0.00000 -3520.00000
v -15600.00000 0.00000 -3000.00000
v -15600.00000 0.00000 -3020.00000
v -15376.66699 0.00000 -6980.00000
v -15443.33301 0.00000 -6980.00000
v -15376.66699 0.00000 -6500.00000
v -15443.33301 0.00000 -6500.00000
v -15376.66699 0.00000 -6300.00000
v -15443.33301 0.00000 -6300.00000
v -15376.66699 0.00000 -5800.00000
v -15443.33301 0.00000 -5800.00000
v -15376.66699 0.00000 -5600.00000
v -15443.33301 0.00000 -5600.00000
v -15376.66699 0.00000 -5100.00000
v -15443.33301 0.00000 -5100.00000
v -15376.66699 0.00000 -4900.00000
v -15443.33301 0.00000 -4900.00000
v -15376.66699 0.00000 -4400.00000
v -15443.33301 0.00000 -4400.00000
v -15376.66699 0.00000 -4200.00000
v -15443.33301 0.00000 -4200.00000
v -15376.66699 0.00000 -3700.00000
v -15443.33301 0.00000 -3700.00000
v -15376.66699 0.00000 -3020.00000
v -15376.66699 0.00000 -3500.00000
v -15443.33301 0.00000 -3020.00000
v -15443.33301 0.00000 -3500.00000
v -15616.66699 0.00000 -6980.00000
v -15683.33301 0.00000 -6980.00000
v -15616.66699 0.00000 -6500.00000
v -15683.33301 0.00000 -6500.00000
v -15616.66699 0.00000 -6300.00000
v -15683.33301 0.00000 -6300.00000
v -15616.66699 0.00000 -5800.00000
v -15683.33301 0.00000 -5800.00000
v -15616.66699 0.00000 -5600.00000
v -15683.33301 0.00000 -5600.00000
v -15616.66699 0.00000 -5100.00000
v -15683.33301 0.00000 -5100.00000
v -15616.66699 0.00000 -4900.00000
v -15683.33301 0.00000 -4900.00000
v -15616.66699 0.00000 -4400.00000
v -15683.33301 0.00000 -4400.00000
v -15616.66699 0.00000 -4200.00000
v -15683.33301 0.00000 -4200.00000
v -15616.66699 0.00000 -3700.00000
v -15683.33301 0.00000 -3700.00000
v -15616.66699 0.00000 -3020.00000
v -15616.66699 0.00000 -3500.00000
v -15683.33301 0.00000 -3020.00000
v -15683.33301 0.00000 -3500.00000

vt 0.12470 -6.37370 
vt 0.12470 -5.99440 
vt -2.62520 -6.37370 
vt -2.62520 -5.99440 
vt 0.12470 -6.37370 
vt 0.12470 -5.99440 
vt -2.62520 -6.37370 
vt -2.62520 -5.99440 
vt 0.12470 -6.37370 
vt 0.12470 -5.99440 
vt -2.62520 -6.37370 
vt -2.62520 -5.99440 
vt 0.12470 -6.37370 
vt 0.12470 -5.99440 
vt -2.62520 -6.37370 
vt -2.62520 -5.99440 
vt 0.12470 -6.37370 
vt 0.12470 -5.99440 
vt -2.62520 -6.37370 
vt -2.62520 -5.99440 
vt -2.62520 -5.99440 
vt 0.12470 -5.99440 
vt -2.62520 -6.37370 
vt 0.12470 -6.37370 
vt -2.62520 -5.99440 
vt 0.12470 -5.99440 
vt -2.62520 -6.37370 
vt 0.12470 -6.37370 
vt -2.62520 -5.99440 
vt 0.12470 -5.99440 
vt -2.62520 -6.37370 
vt 0.12470 -6.37370 
vt -2.62520 -5.99440 
vt 0.12470 -5.99440 
vt -2.62520 -6.37370 
vt 0.12470 -6.37370 
vt -2.62520 -5.99440 
vt 0.12470 -5.99440 
vt -2.62520 -6.37370 
vt 0.12470 -6.37370 
vt 0.12470 -6.37370 
vt 0.12470 -5.99440 
vt -2.62520 -6.37370 
vt -2.62520 -5.99440 
vt 0.12470 -6.37370 
vt 0.12470 -5.99440 
vt -2.62520 -6.37370 
vt -2.62520 -5.99440 
vt 0.12470 -6.37370 
vt 0.12470 -5.99440 
vt -2.62520 -6.37370 
vt -2.62520 -5.99440 
vt 0.12470 -6.37370 
vt 0.12470 -5.99440 
vt -2.62520 -6.37370 
vt -2.62520 -5.99440 
vt 0.12470 -6.37370 
vt 0.12470 -5.99440 
vt -2.62520 -6.37370 
vt -2.62520 -5.99440 
vt -2.62520 -5.99440 
vt 0.12470 -5.99440 
vt -2.62520 -6.37370 
vt 0.12470 -6.37370 
vt -2.62520 -5.99440 
vt 0.12470 -5.99440 
vt -2.62520 -6.37370 
vt 0.12470 -6.37370 
vt -2.62520 -5.99440 
vt 0.12470 -5.99440 
vt -2.62520 -6.37370 
vt 0.12470 -6.37370 
vt -2.62520 -5.99440 
vt 0.12470 -5.99440 
vt -2.62520 -6.37370 
vt 0.12470 -6.37370 
vt -2.62520 -5.99440 
vt 0.12470 -5.99440 
vt -2.62520 -6.37370 
vt 0.12470 -6.37370 
vt 5.24990 -5.99990 
vt 5.24990 -6.99990 
vt -1.99990 -5.99990 
vt -1.99990 -6.99990 
vt 5.24990 -5.99990 
vt 5.24990 -6.99990 
vt -1.99990 -5.99990 
vt -1.99990 -6.99990 
vt 5.24990 -5.99990 
vt 5.24990 -6.99990 
vt -1.99990 -5.99990 
vt -1.99990 -6.99990 
vt 5.24990 -5.99990 
vt 5.24990 -6.99990 
vt -1.99990 -5.99990 
vt -1.99990 -6.99990 
vt 5.24990 -5.99990 
vt 5.24990 -6.99990 
vt -1.99990 -5.99990 
vt -1.99990 -6.99990 
vt -1.99990 -6.99990 
vt -1.99990 -5.99990 
vt 5.24990 -6.99990 
vt 5.24990 -5.99990 
vt 5.24990 -6.99990 
vt 5.24990 -5.99990 
vt -1.99990 -6.99990 
vt -1.99990 -5.99990 
vt 5.24990 -6.99990 
vt 5.24990 -5.99990 
vt -1.99990 -6.99990 
vt -1.99990 -5.99990 
vt 5.24990 -6.99990 
vt 5.24990 -5.99990 
vt -1.99990 -6.99990 
vt -1.99990 -5.99990 
vt 5.24990 -6.99990 
vt 5.24990 -5.99990 
vt -1.99990 -6.99990 
vt -1.99990 -5.99990 
vt 5.24990 -6.99990 
vt 5.24990 -5.99990 
vt -1.99990 -6.99990 
vt -1.99990 -5.99990 
vt -1.99990 -5.99990 
vt -1.99990 -6.99990 
vt 5.24990 -5.99990 
vt 5.24990 -6.99990 
vt 5.24990 -5.99990 
vt 5.24990 -6.99990 
vt -1.99990 -5.99990 
vt -1.99990 -6.99990 
vt 5.24990 -5.99990 
vt 5.24990 -6.99990 
vt -1.99990 -5.99990 
vt -1.99990 -6.99990 
vt 5.24990 -5.99990 
vt 5.24990 -6.99990 
vt -1.99990 -5.99990 
vt -1.99990 -6.99990 
vt 5.24990 -5.99990 
vt 5.24990 -6.99990 
vt -1.99990 -5.99990 
vt -1.99990 -6.99990 
vt 5.24990 -5.99990 
vt 5.24990 -6.99990 
vt -1.99990 -5.99990 
vt -1.99990 -6.99990 
vt -1.99990 -6.99990 
vt -1.99990 -5.99990 
vt 5.24990 -6.99990 
vt 5.24990 -5.99990 
vt 5.24990 -6.99990 
vt 5.24990 -5.99990 
vt -1.99990 -6.99990 
vt -1.99990 -5.99990 
vt 5.24990 -6.99990 
vt 5.24990 -5.99990 
vt -1.99990 -6.99990 
vt -1.99990 -5.99990 
vt 5.24990 -6.99990 
vt 5.24990 -5.99990 
vt -1.99990 -6.99990 
vt -1.99990 -5.99990 
vt 5.24990 -6.99990 
vt 5.24990 -5.99990 
vt -1.99990 -6.99990 
vt -1.99990 -5.99990 
vt 5.24990 -6.99990 
vt 5.24990 -5.99990 
vt -1.99990 -6.99990 
vt -1.99990 -5.99990 
vt -1.99990 -5.99990 
vt -1.99990 -6.99990 
vt 5.24990 -5.99990 
vt 5.24990 -6.99990 
vt 0.99810 -5.49830 
vt 0.00180 -5.49830 
vt 0.99810 -5.00220 
vt 0.00180 -5.00220 
vt 0.99810 -5.49830 
vt 0.00180 -5.49830 
vt 0.99810 -5.00220 
vt 0.00180 -5.00220 
vt 0.99810 -5.49830 
vt 0.00180 -5.49830 
vt 0.99810 -5.00220 
vt 0.00180 -5.00220 
vt 0.99810 -5.49830 
vt 0.00180 -5.49830 
vt 0.99810 -5.00220 
vt 0.00180 -5.00220 
vt 0.99810 -5.49830 
vt 0.00180 -5.49830 
vt 0.99810 -5.00220 
vt 0.00180 -5.00220 
vt 0.99810 -5.49830 
vt 0.00180 -5.49830 
vt 0.99810 -5.00220 
vt 0.00180 -5.00220 
vt 0.99810 -5.49830 
vt 0.00180 -5.49830 
vt 0.99810 -5.00220 
vt 0.00180 -5.00220 
vt 0.99810 -5.49830 
vt 0.00180 -5.49830 
vt 0.99810 -5.00220 
vt 0.00180 -5.00220 
vt 0.99810 -5.49830 
vt 0.00180 -5.49830 
vt 0.99810 -5.00220 
vt 0.00180 -5.00220 
vt 0.99810 -5.49830 
vt 0.00180 -5.49830 
vt 0.99810 -5.00220 
vt 0.00180 -5.00220 
vt 0.00180 -5.00220 
vt 0.99810 -5.00220 
vt 0.00180 -5.49830 
vt 0.99810 -5.49830 
vt 0.00180 -5.00220 
vt 0.99810 -5.00220 
vt 0.00180 -5.49830 
vt 0.99810 -5.49830 
vt 0.00180 -5.49830 
vt 0.00180 -5.00220 
vt 0.00180 -5.49830 
vt 0.00180 -5.00220 
vt 0.00180 -5.49830 
vt 0.00180 -5.00220 
vt 0.00180 -5.49830 
vt 0.00180 -5.00220 
vt 0.00180 -5.49830 
vt 0.00180 -5.00220 
vt 0.00180 -5.49830 
vt 0.00180 -5.00220 
vt 0.00180 -5.49830 
vt 0.00180 -5.00220 
vt 0.00180 -5.49830 
vt 0.00180 -5.00220 
vt 0.00180 -5.49830 
vt 0.00180 -5.00220 
vt 0.00180 -5.49830 
vt 0.00180 -5.00220 
vt 0.00180 -5.00220 
vt 0.00180 -5.49830 
vt 0.00180 -5.00220 
vt 0.00180 -5.49830 
vt 0.99810 -5.49830 
vt 0.00180 -5.49830 
vt 0.99810 -5.00220 
vt 0.00180 -5.00220 
vt 0.99810 -5.49830 
vt 0.00180 -5.49830 
vt 0.99810 -5.00220 
vt 0.00180 -5.00220 
vt 0.99810 -5.49830 
vt 0.00180 -5.49830 
vt 0.99810 -5.00220 
vt 0.00180 -5.00220 
vt 0.99810 -5.49830 
vt 0.00180 -5.49830 
vt 0.99810 -5.00220 
vt 0.00180 -5.00220 
vt 0.99810 -5.49830 
vt 0.00180 -5.49830 
vt 0.99810 -5.00220 
vt 0.00180 -5.00220 
vt 0.99810 -5.49830 
vt 0.00180 -5.49830 
vt 0.99810 -5.00220 
vt 0.00180 -5.00220 
vt 0.99810 -5.49830 
vt 0.00180 -5.49830 
vt 0.99810 -5.00220 
vt 0.00180 -5.00220 
vt 0.99810 -5.49830 
vt 0.00180 -5.49830 
vt 0.99810 -5.00220 
vt 0.00180 -5.00220 
vt 0.99810 -5.49830 
vt 0.00180 -5.49830 
vt 0.99810 -5.00220 
vt 0.00180 -5.00220 
vt 0.99810 -5.49830 
vt 0.00180 -5.49830 
vt 0.99810 -5.00220 
vt 0.00180 -5.00220 
vt 0.00180 -5.00220 
vt 0.99810 -5.00220 
vt 0.00180 -5.49830 
vt 0.99810 -5.49830 
vt 0.00180 -5.00220 
vt 0.99810 -5.00220 
vt 0.00180 -5.49830 
vt 0.99810 -5.49830 
vt 0.00180 -5.49830 
vt 0.00180 -5.00220 
vt 0.00180 -5.49830 
vt 0.00180 -5.00220 
vt 0.00180 -5.49830 
vt 0.00180 -5.00220 
vt 0.00180 -5.49830 
vt 0.00180 -5.00220 
vt 0.00180 -5.49830 
vt 0.00180 -5.00220 
vt 0.00180 -5.49830 
vt 0.00180 -5.00220 
vt 0.00180 -5.49830 
vt 0.00180 -5.00220 
vt 0.00180 -5.49830 
vt 0.00180 -5.00220 
vt 0.00180 -5.49830 
vt 0.00180 -5.00220 
vt 0.00180 -5.49830 
vt 0.00180 -5.00220 
vt 0.00180 -5.00220 
vt 0.00180 -5.49830 
vt 0.00180 -5.00220 
vt 0.00180 -5.49830 
vt 1.99990 -6.99990 
vt 0.99990 -6.99990 
vt 1.99990 1.12490 
vt 0.99990 1.12490 
vt 1.99990 -6.99990 
vt 0.99990 -6.99990 
vt 1.99990 1.12490 
vt 0.99990 1.12490 
vt 1.99990 -6.99990 
vt 0.99990 -6.99990 
vt 1.99990 1.12490 
vt 0.99990 1.12490 
vt 1.99990 -6.99990 
vt 0.99990 -6.99990 
vt 1.99990 1.12490 
vt 0.99990 1.12490 
vt 1.99990 -6.99990 
vt 0.99990 -6.99990 
vt 1.99990 1.12490 
vt 0.99990 1.12490 
vt 0.99990 1.12490 
vt 0.99990 -6.99990 
vt 1.99990 1.12490 
vt 1.99990 -6.99990 
vt 1.99990 -6.99990 
vt 0.99990 -6.99990 
vt 1.99990 1.12490 
vt 0.99990 1.12490 
vt 1.99990 -6.99990 
vt 0.99990 -6.99990 
vt 1.99990 1.12490 
vt 0.99990 1.12490 
vt 1.99990 -6.99990 
vt 0.99990 -6.99990 
vt 1.99990 1.12490 
vt 0.99990 1.12490 
vt 1.99990 -6.99990 
vt 0.99990 -6.99990 
vt 1.99990 1.12490 
vt 0.99990 1.12490 
vt 1.99990 -6.99990 
vt 0.99990 -6.99990 
vt 1.99990 1.12490 
vt 0.99990 1.12490 
vt 0.99990 1.12490 
vt 0.99990 -6.99990 
vt 1.99990 1.12490 
vt 1.99990 -6.99990 

s 1

g Object_2

usemtl texture0

f 1/1 2/2 3/3
f 2/2 4/4 3/3
f 5/5 6/6 7/7
f 6/6 8/8 7/7
f 9/9 10/10 11/11
f 10/10 12/12 11/11
f 13/13 14/14 15/15
f 14/14 16/16 15/15
f 17/17 18/18 19/19
f 18/18 20/20 19/19
f 21/21 22/22 23/23
f 22/22 24/24 23/23
f 25/25 26/26 27/27
f 26/26 28/28 27/27
f 29/29 30/30 31/31
f 30/30 32/32 31/31
f 33/33 34/34 35/35
f 34/34 36/36 35/35
f 37/37 38/38 39/39
f 38/38 40/40 39/39
f 41/41 42/42 43/43
f 42/42 44/44 43/43
f 45/45 46/46 47/47
f 46/46 48/48 47/47
f 49/49 50/50 51/51
f 50/50 52/52 51/51
f 53/53 54/54 55/55
f 54/54 56/56 55/55
f 57/57 58/58 59/59
f 58/58 60/60 59/59
f 61/61 62/62 63/63
f 62/62 64/64 63/63
f 65/65 66/66 67/67
f 66/66 68/68 67/67
f 69/69 70/70 71/71
f 70/70 72/72 71/71
f 73/73 74/74 75/75
f 74/74 76/76 75/75
f 77/77 78/78 79/79
f 78/78 80/80 79/79

usemtl texture1

f 81/81 82/82 83/83
f 82/82 84/84 83/83
f 85/85 86/86 87/87
f 86/86 88/88 87/87
f 89/89 90/90 91/91
f 90/90 92/92 91/91
f 93/93 94/94 95/95
f 94/94 96/96 95/95
f 97/97 98/98 99/99
f 98/98 100/100 99/99
f 101/101 102/102 103/103
f 102/102 104/104 103/103
f 105/105 106/106 107/107
f 106/106 108/108 107/107
f 109/109 110/110 111/111
f 110/110 112/112 111/111
f 113/113 114/114 115/115
f 114/114 116/116 115/115
f 117/117 118/118 119/119
f 118/118 120/120 119/119
f 121/121 122/122 123/123
f 122/122 124/124 123/123
f 125/125 126/126 127/127
f 126/126 128/128 127/127
f 129/129 130/130 131/131
f 130/130 132/132 131/131
f 133/133 134/134 135/135
f 134/134 136/136 135/135
f 137/137 138/138 139/139
f 138/138 140/140 139/139
f 141/141 142/142 143/143
f 142/142 144/144 143/143
f 145/145 146/146 147/147
f 146/146 148/148 147/147
f 149/149 150/150 151/151
f 150/150 152/152 151/151
f 153/153 154/154 155/155
f 154/154 156/156 155/155
f 157/157 158/158 159/159
f 158/158 160/160 159/159
f 161/161 162/162 163/163
f 162/162 164/164 163/163
f 165/165 166/166 167/167
f 166/166 168/168 167/167
f 169/169 170/170 171/171
f 170/170 172/172 171/171
f 173/173 174/174 175/175
f 174/174 176/176 175/175

usemtl texture2

f 177/177 178/178 179/179
f 178/178 180/180 179/179
f 181/181 182/182 183/183
f 182/182 184/184 183/183
f 185/185 186/186 187/187
f 186/186 188/188 187/187
f 189/189 190/190 191/191
f 190/190 192/192 191/191
f 193/193 194/194 195/195
f 194/194 196/196 195/195
f 197/197 198/198 199/199
f 198/198 200/200 199/199
f 201/201 202/202 203/203
f 202/202 204/204 203/203
f 205/205 206/206 207/207
f 206/206 208/208 207/207
f 209/209 210/210 211/211
f 210/210 212/212 211/211
f 213/213 214/214 215/215
f 214/214 216/216 215/215
f 217/217 218/218 219/219
f 218/218 220/220 219/219
f 221/221 222/222 223/223
f 222/222 224/224 223/223
f 225/225 177/177 226/226
f 177/177 179/179 226/226
f 227/227 181/181 228/228
f 181/181 183/183 228/228
f 229/229 185/185 230/230
f 185/185 187/187 230/230
f 231/231 189/189 232/232
f 189/189 191/191 232/232
f 233/233 193/193 234/234
f 193/193 195/195 234/234
f 235/235 197/197 236/236
f 197/197 199/199 236/236
f 237/237 201/201 238/238
f 201/201 203/203 238/238
f 239/239 205/205 240/240
f 205/205 207/207 240/240
f 241/241 209/209 242/242
f 209/209 211/211 242/242
f 243/243 213/213 244/244
f 213/213 215/215 244/244
f 218/218 245/245 220/220
f 245/245 246/246 220/220
f 222/222 247/247 224/224
f 247/247 248/248 224/224
f 249/249 250/250 251/251
f 250/250 252/252 251/251
f 253/253 254/254 255/255
f 254/254 256/256 255/255
f 257/257 258/258 259/259
f 258/258 260/260 259/259
f 261/261 262/262 263/263
f 262/262 264/264 263/263
f 265/265 266/266 267/267
f 266/266 268/268 267/267
f 269/269 270/270 271/271
f 270/270 272/272 271/271
f 273/273 274/274 275/275
f 274/274 276/276 275/275
f 277/277 278/278 279/279
f 278/278 280/280 279/279
f 281/281 282/282 283/283
f 282/282 284/284 283/283
f 285/285 286/286 287/287
f 286/286 288/288 287/287
f 289/289 290/290 291/291
f 290/290 292/292 291/291
f 293/293 294/294 295/295
f 294/294 296/296 295/295
f 297/297 249/249 298/298
f 249/249 251/251 298/298
f 299/299 253/253 300/300
f 253/253 255/255 300/300
f 301/301 257/257 302/302
f 257/257 259/259 302/302
f 303/303 261/261 304/304
f 261/261 263/263 304/304
f 305/305 265/265 306/306
f 265/265 267/267 306/306
f 307/307 269/269 308/308
f 269/269 271/271 308/308
f 309/309 273/273 310/310
f 273/273 275/275 310/310
f 311/311 277/277 312/312
f 277/277 279/279 312/312
f 313/313 281/281 314/314
f 281/281 283/283 314/314
f 315/315 285/285 316/316
f 285/285 287/287 316/316
f 290/290 317/317 292/292
f 317/317 318/318 292/292
f 294/294 319/319 296/296
f 319/319 320/320 296/296

usemtl texture3

f 321/321 322/322 323/323
f 322/322 324/324 323/323
f 325/325 326/326 327/327
f 326/326 328/328 327/327
f 329/329 330/330 331/331
f 330/330 332/332 331/331
f 333/333 334/334 335/335
f 334/334 336/336 335/335
f 337/337 338/338 339/339
f 338/338 340/340 339/339
f 341/341 342/342 343/343
f 342/342 344/344 343/343
f 345/345 346/346 347/347
f 346/346 348/348 347/347
f 349/349 350/350 351/351
f 350/350 352/352 351/351
f 353/353 354/354 355/355
f 354/354 356/356 355/355
f 357/357 358/358 359/359
f 358/358 360/360 359/359
f 361/361 362/362 363/363
f 362/362 364/364 363/363
f 365/365 366/366 367/367
f 366/366 368/368 367/367

