# Model created using BSP2OBJ v0.2.1 by DCx Demo*
# http://devilclanthps3.weebly.com/

mtllib S23_DN_33.obj.mtl
# Object number 1
# 723 faces
# 556 vertices

v -26176.24805 4129.17676 131578.43750
v 26169.20508 4129.17139 131579.85938
v -25885.89063 -33323.57422 130118.91406
v 25878.92188 -33323.58594 130120.31250
v -25602.19141 35388.15234 128692.86719
v 25595.30078 35388.14844 128694.25781
v -20734.99414 -70937.26563 104227.24219
v 20729.40625 -70937.28125 104228.37500
v -20778.98633 56187.83594 104448.36719
v 20773.39453 56187.83594 104449.50000
v -13167.14648 -78583.91406 66186.42969
v 13163.59473 -78583.91406 66187.14844
v 59037.94531 -70937.28125 88361.64844
v 37490.30859 -78583.91406 56111.45703
v 59042.68750 -70937.28125 -88358.41406
v 20735.01563 -70937.26563 -104227.20313
v 37493.32031 -78583.91406 -56109.41016
v 13167.15918 -78583.91406 -66186.41406
v 72896.14063 35467.46875 109103.07813
v 59163.21875 56187.83203 88549.12500
v 72901.99219 35467.46875 -109099.14844
v 59167.96484 56187.83594 -88545.90625
v 25602.22461 35467.47656 -128692.85156
v 20779.01367 56187.83594 -104448.36719
v 73703.91406 -33323.58984 110312.05469
v 73709.81250 -33323.58594 -110308.05469
v 25885.91992 -33323.57422 -130118.86719
v 74530.62500 4129.16650 111549.39844
v 74536.62500 4129.17139 -111545.36719
v 26176.28320 4129.17676 -131578.42188
v 88358.50781 -70937.28125 59042.67578
v 56109.46094 -78583.91406 37493.30859
v 88361.65625 -70937.28125 -59037.88672
v 56111.45703 -78583.91406 -37490.26563
v 104227.25000 -70937.28125 20734.98438
v 66186.44531 -78583.91406 13167.14160
v 104228.35938 -70937.28125 -20729.35156
v 66187.13281 -78583.91406 -13163.56055
v 109099.20313 35467.46094 72901.96094
v 88545.98438 56187.82813 59167.94141
v 109103.10938 35467.46875 -72896.07031
v 88549.13281 56187.83203 -59163.14844
v 110308.12500 -33323.58984 73709.78125
v 110312.07031 -33323.58984 -73703.82031
v 111545.45313 4129.16309 74536.58594
v 111549.42969 4129.16650 -74530.56250
v 128692.89844 35467.46094 25602.17773
v 104448.42188 56187.82813 20778.97852
v 128694.23438 35467.46094 -25595.22852
v 104449.49219 56187.82813 -20773.34180
v 130118.92188 -33323.58984 25885.87305
v 130120.29688 -33323.58984 -25878.84961
v 131578.48438 4129.16162 26176.24023
v 131579.82813 4129.16309 -26169.14258
v -131578.46875 4129.19189 -26176.27734
v -131579.87500 4129.19092 26169.16797
v -130118.91406 -33323.56641 -25885.91211
v -130120.30469 -33323.56641 25878.89258
v -128692.86719 35467.48828 -25602.21680
v -128694.24219 35467.48828 25595.26172
v -111549.44531 4129.18799 74530.60156
v -110312.06250 -33323.57031 73703.85938
v -111545.40625 4129.19092 -74536.60938
v -110308.09375 -33323.56641 -73709.81250
v -109103.08594 35467.48047 72896.09375
v -109099.17188 35467.48828 -72901.99219
v -104227.21875 -70937.25781 -20735.00586
v -104228.35938 -70937.25781 20729.38281
v -104448.36719 56187.84766 -20779.00781
v -104449.50000 56187.84766 20773.36133
v -88361.65625 -70937.25781 59037.92188
v -88358.46094 -70937.25781 -59042.68750
v -88549.12500 56187.84766 59163.17969
v -88545.93750 56187.84766 -59167.95703
v -74536.60938 4129.18262 111545.40625
v -73709.80469 -33323.57422 110308.09375
v -74530.57813 4129.18799 -111549.41406
v -73703.85938 -33323.57031 -110312.05469
v -72901.97656 35388.16016 109099.16406
v -72896.09375 35467.48047 -109103.08594
v -66186.42969 -78583.89063 -13167.15527
v -66187.14063 -78583.89063 13163.58496
v -59042.67969 -70937.26563 88358.46094
v -59037.91016 -70937.25781 -88361.64844
v -59167.95313 56187.84766 88545.95313
v -59163.18359 56187.84766 -88549.12500
v -56111.46484 -78583.89063 37490.29297
v -56109.43359 -78583.89063 -37493.31641
v -37493.31250 -78583.89063 56109.43359
v -37490.29297 -78583.89063 -56111.45313
v -26176.24805 4129.17676 131578.43750
v -25885.89063 -33323.57422 130118.91406
v -26169.16211 4129.18262 -131579.84375
v -25878.87500 -33323.57422 -130120.27344
v -25602.19141 35388.15234 128692.86719
v -25595.24805 35467.48047 -128694.23438
v -20734.99414 -70937.26563 104227.24219
v -20729.37891 -70937.26563 -104228.34375
v -20778.98633 56187.83594 104448.36719
v -20773.36133 56187.84766 -104449.48438
v -13167.14648 -78583.91406 66186.42969
v -13163.58301 -78583.89063 -66187.13281
v 20735.01563 -70937.26563 -104227.20313
v 13167.15918 -78583.91406 -66186.41406
v 25602.22461 35467.47656 -128692.85156
v 20779.01367 56187.83594 -104448.36719
v 25885.91992 -33323.57422 -130118.86719
v 26176.28320 4129.17676 -131578.42188
v -104448.36719 56187.84766 -20779.00781
v -67459.74219 68388.15625 -13420.47656
v -104449.50000 56187.84766 20773.36133
v -67460.48438 68388.15625 13416.82617
v -88549.12500 56187.84766 59163.17969
v -57190.95313 68388.15625 38211.52734
v -88545.93750 56187.84766 -59167.95703
v -57188.89453 68388.15625 -38214.62891
v -59167.95313 56187.84766 88545.95313
v -38214.62500 68388.14063 57188.88672
v -59163.18359 56187.84766 -88549.12500
v -38211.53125 68388.15625 -57190.94922
v -20778.98633 56187.83594 104448.36719
v -13420.45898 68388.14063 67459.74219
v -20773.36133 56187.84766 -104449.48438
v -13416.82227 68388.14063 -67460.46875
v 0.00061 73409.49219 -0.00483
v 20773.39453 56187.83594 104449.50000
v 13416.84180 68388.14063 67460.46875
v 13420.47168 68388.14063 -67459.71875
v 20779.01367 56187.83594 -104448.36719
v 38211.56250 68388.14063 57190.94531
v 38214.62891 68388.14063 -57188.88672
v 57188.90625 68388.12500 38214.60938
v 57190.95313 68388.14063 -38211.52734
v 67459.75000 68388.12500 13420.44629
v 67460.45313 68388.12500 -13416.81348
v 59163.21875 56187.83203 88549.12500
v 59167.96484 56187.83594 -88545.90625
v 88545.98438 56187.82813 59167.94141
v 88549.13281 56187.83203 -59163.14844
v 104448.42188 56187.82813 20778.97852
v 104449.49219 56187.82813 -20773.34180
v -66187.14063 -78583.89063 13163.58496
v -735.78229 -78875.56250 -146.37233
v -66186.42969 -78583.89063 -13167.15527
v -56111.46484 -78583.89063 37490.29297
v -56109.43359 -78583.89063 -37493.31641
v -37493.31250 -78583.89063 56109.43359
v -37490.29297 -78583.89063 -56111.45313
v -13167.14648 -78583.91406 66186.42969
v -13163.58301 -78583.89063 -66187.13281
v 13163.59473 -78583.91406 66187.14844
v 13167.15918 -78583.91406 -66186.41406
v 37490.30859 -78583.91406 56111.45703
v 37493.32031 -78583.91406 -56109.41016
v 56109.46094 -78583.91406 37493.30859
v 56111.45703 -78583.91406 -37490.26563
v 66186.44531 -78583.91406 13167.14160
v 66187.13281 -78583.91406 -13163.56055
v 14661.72656 535.01953 -16005.72852
v 14084.28906 1342.44531 -15583.51758
v 13910.65625 1319.02148 -16108.45996
v 14770.26270 535.01953 -15546.81738
v 13972.62891 1365.86914 -14986.83105
v 14534.39844 2721.41406 -16031.36523
v 14509.23438 2132.53906 -16049.54492
v 14359.40625 2127.87891 -15415.84473
v 14709.76563 2786.33398 -16785.87891
v 14309.04297 2155.94727 -16644.33594
v 15291.65918 3158.28516 -16325.40332
v 14976.48828 2913.45117 -16749.09375
v 14887.08594 2874.76172 -16146.45020
v 15202.46484 2833.28125 -15552.93457
v 15533.01172 2883.08984 -16699.87500
v 15291.65918 3158.28516 -16325.40332
v 15729.60547 2848.05859 -15410.99512
v 15729.60547 2848.05859 -15410.99512
v 16199.19531 2868.41797 -15783.95605
v 14012.39844 2013.42188 -15856.54980
v 13883.13281 2013.42188 -15045.94043
v 14092.11328 1964.89844 -16570.60938
v 14634.95703 -265.32715 -16304.74121
v 13866.84766 -1857.73828 -16372.52246
v 14474.16406 -265.32715 -15635.17871
v 14497.26563 -1857.73828 -15785.96973
v 15202.69531 -43737.50391 -16266.33691
v 15135.50000 -43737.50391 -15830.86816
v 15468.30469 2013.42188 -13842.95801
v 15510.78906 1370.42969 -13993.66309
v 15289.44141 -1857.73828 -16738.01563
v 15226.67578 -265.32715 -16817.87109
v 15443.32031 2128.91406 -14467.02637
v 15028.23438 2686.07617 -14911.75684
v 15841.68359 1314.97266 -17129.56641
v 15792.75391 2013.42188 -17349.17188
v 15364.93359 -43737.50391 -16432.04297
v 15383.91016 535.01953 -16508.69531
v 15658.32031 2614.51172 -17081.79688
v 15691.18750 535.01953 -15210.91113
v 15604.84766 2756.41797 -17067.88672
v 15657.15234 -265.32715 -15554.77246
v 16132.62500 -1857.73828 -15785.09082
v 15798.04297 -43737.50391 -15915.35254
v 16399.32813 2655.99609 -14824.33105
v 16694.68750 2129.70313 -14802.11816
v 16321.19922 535.01953 -15662.17480
v 16264.15430 -273.09180 -15894.80176
v 17040.69922 1353.30469 -14695.75293
v 17115.46680 2013.42188 -14514.72949
v 16012.68164 -43737.50391 -16102.89355
v 17074.03125 -1857.73828 -16039.63574
v 16231.42188 -265.32715 -16645.73828
v 16357.81445 535.01953 -16352.94434
v 16264.15430 -273.09180 -15894.80176
v 16321.19922 535.01953 -15662.17480
v 16940.05664 2711.35156 -15686.50293
v 16399.32813 2655.99609 -14824.33105
v 15729.60547 2848.05859 -15410.99512
v 16044.62891 -43737.50391 -16294.20801
v 16836.66992 -1857.73828 -16716.81641
v 16012.68164 -43737.50391 -16102.89355
v 17074.03125 -1857.73828 -16039.63574
v 17149.13086 2544.55859 -15932.58105
v 16694.68750 2129.70313 -14802.11816
v 17040.69922 1353.30469 -14695.75293
v 17614.31055 1328.15430 -16233.92676
v 17760.29102 2013.42188 -16012.28223
v 17115.46680 2013.42188 -14514.72949
v -16608.22266 3143.45898 -18449.84375
v -16869.38281 3143.45898 -20703.62500
v -16335.83203 2290.27051 -18477.05273
v -16583.21484 2290.27051 -20611.94336
v -16726.62109 519.96973 -20593.25391
v -16665.54688 135.10449 -20525.97852
v -16589.42188 526.30664 -18387.88281
v -16404.31250 127.51172 -18421.89258
v -16638.96484 -1457.78320 -20600.75000
v -16335.83203 -1457.78320 -18477.05273
v -15872.08203 -2451.99902 -20320.38867
v -15675.58594 -2451.99902 -18624.63672
v -15872.08203 -3302.59668 -20320.38867
v -15679.61328 -3302.61377 -18622.96289
v -16608.22266 3143.45898 -18449.84375
v -16335.83203 2290.27051 -18477.05273
v -14188.83203 3143.45508 -16695.37500
v -14075.86328 2294.38965 -16734.18945
v -14105.35938 511.79883 -16663.17578
v -16589.42188 526.30664 -18387.88281
v -14039.85156 145.63086 -16826.58203
v -16404.31250 127.51172 -18421.89258
v -16335.83203 -1457.78320 -18477.05273
v -14105.39844 -1464.55566 -16689.86719
v -14491.88672 -5205.83740 -19734.44727
v -14404.01367 -5205.83789 -18967.56055
v -15675.58594 -2451.99902 -18624.63672
v -13902.92188 -2456.27344 -17190.18359
v -13864.61719 -3303.03320 -17281.15625
v -15679.61328 -3302.61377 -18622.96289
v -14090.85547 -38240.66016 -20115.24414
v -14043.45703 -38240.66016 -19570.45117
v -13506.30859 2282.43848 -16968.33594
v -13630.89453 3143.45508 -16677.94336
v -13578.75391 419.31250 -16763.29102
v -13578.75781 149.24512 -16763.29102
v -13516.54688 -1455.12109 -16803.00195
v -13436.72266 -2452.40332 -17286.64648
v -13435.43359 -3302.59961 -17291.45703
v -13019.70313 419.31250 -16312.91016
v -13019.69922 149.24512 -16312.91211
v -12970.49219 -1459.67676 -16252.67188
v -13019.69922 149.24512 -16312.91113
v -12792.12500 2282.26953 -16583.86914
v -13004.85938 3143.45313 -16191.37305
v -12965.62500 -2452.05859 -16922.83594
v -12964.39844 -3302.60010 -16925.35742
v -12394.78125 -2452.00195 -17027.22266
v -12396.71484 -3302.60107 -17031.13477
v -12315.31250 419.31250 -16451.25977
v -12315.31250 149.24512 -16451.25977
v -12144.78516 -1461.57422 -16343.00977
v -12955.96875 -38240.66016 -20291.41211
v -12703.53906 -5205.83887 -20005.13086
v -12572.98438 -38240.66016 -19390.71680
v -12105.62109 -5205.83984 -18663.61133
v -12207.85156 2290.26660 -16470.88672
v -12203.71094 3143.45117 -16237.71094
v -11736.04297 419.31152 -16876.37109
v -12315.31250 419.31250 -16451.25977
v -11736.04297 149.24512 -16876.37305
v -11515.35547 -3302.60156 -17389.25977
v -11515.73438 -2452.00586 -17390.37891
v -12052.89453 -3302.60107 -17437.36523
v -12055.75000 -2452.12695 -17443.63867
v -11709.58594 -1468.85449 -16858.58008
v -11071.97656 -1455.23730 -16885.28125
v -11084.77734 417.98535 -16994.62109
v -11119.42578 2290.57813 -16978.07813
v -11736.04297 419.31152 -16876.37109
v -11790.49219 2290.26465 -17016.21680
v -11050.92969 3143.06250 -16707.01172
v -11747.83594 3142.88184 -16777.55664
v -11084.77734 147.91797 -16994.62109
v -10844.94141 -3302.60156 -19643.95703
v -11734.90625 -3302.60010 -21030.58594
v -10846.26563 -2452.03418 -19643.16016
v -11735.29688 -2452.00879 -21030.24805
v -10237.08594 -1460.02539 -19767.06055
v -11365.45703 -1458.59766 -21513.73438
v -10417.61328 -3302.60254 -17934.55469
v -10419.28516 -2452.04883 -17935.22656
v -11390.49219 141.31250 -21457.83008
v -10251.06250 129.59277 -19773.12891
v -11069.61719 463.14355 -21696.22852
v -10059.68750 488.19043 -19778.26172
v -9733.40625 -1458.94531 -17621.75781
v -10417.61328 -3302.60254 -17934.55469
v -10419.28516 -2452.04883 -17935.22656
v -9651.76563 2287.74707 -17554.79492
v -10193.86328 3147.64648 -17630.79883
v -9624.49609 2258.10645 -19996.89258
v -11044.59375 2275.54492 -21806.58008
v -9794.84375 417.98438 -17627.84766
v -9794.84375 147.91797 -17627.84961
v -9576.27344 3199.67871 -19746.98633
v -11170.53906 3186.39063 -21518.09766
v -9733.40625 -1458.94531 -17621.75781
v -9794.84375 147.91797 -17627.84961
v -9794.84375 417.98438 -17627.84766
v -9651.76563 2287.74707 -17554.79492
v -10193.86328 3147.64648 -17630.79883
v -13793.10742 4072.12646 -19766.87305
v -13793.10742 4072.12646 -19766.87305
v -14404.01465 -5205.83789 -18967.56055
v -14043.45703 -38240.66016 -19570.45117
v -13816.60938 -38240.66016 -19342.85156
v -13536.00391 -38240.66016 -19168.18359
v -13793.10645 4072.12622 -19766.87305
v -12980.79688 -5205.83936 -18266.09180
v -13303.33984 -38240.66016 -19062.05078
v -13165.74219 -38240.66016 -19030.99023
v -13165.74219 -38240.66016 -19030.99023
v -13052.42578 -38240.66016 -19223.55078
v -12980.79688 -5205.83936 -18266.09180
v -12105.62109 -5205.83984 -18663.61133
v -11747.83594 3142.88184 -16777.55664
v -13793.10742 4072.12646 -19766.87305
v -12203.71094 3143.45117 -16237.71094
v -12572.98438 -38240.66016 -19390.71680
v -12052.89453 -3302.60107 -17437.36523
v -13793.10742 4072.12646 -19766.87305
v -13793.10742 4072.12646 -19766.87305
v -11050.92969 3143.06250 -16707.01172
v -11170.53906 3186.39063 -21518.09766
v -13793.10742 4072.12646 -19766.87305
v -9576.27344 3199.67871 -19746.98633
v -12055.75000 -2452.12695 -17443.63867
v -12394.78125 -2452.00195 -17027.22266
v -12052.89453 -3302.60107 -17437.36523
v -12396.71484 -3302.60107 -17031.13477
v -12144.78516 -1461.57422 -16343.00977
v -11709.58594 -1468.85449 -16858.58008
v -12315.31250 419.31250 -16451.25977
v -11736.04297 419.31152 -16876.37109
v -12207.85156 2290.26660 -16470.88672
v -11790.49219 2290.26465 -17016.21680
v -12203.71094 3143.45117 -16237.71094
v -11747.83594 3142.88184 -16777.55664
v -11736.04297 149.24512 -16876.37305
v -12315.31250 149.24512 -16451.25977
v -12980.79688 -5205.83936 -18266.09180
v -18362.39844 -1019.04492 14824.07422
v -18097.36328 233.18555 14897.20703
v -17566.76172 -1056.62891 13821.95508
v -17373.44141 233.18555 13985.41602
v -17506.31836 1095.78516 13872.11133
v -17977.07227 1095.78711 14414.93945
v -17506.31836 1365.85352 13872.11133
v -17977.07227 1365.85352 14414.94043
v -17200.73242 -1272.81445 13906.60156
v -17692.63867 -1272.81445 14730.04102
v -17270.77930 350.41602 14120.92383
v -17833.84570 350.41602 14830.11523
v -17512.69336 -1851.74609 13556.61719
v -18137.66797 -1733.09180 14833.23047
v -17200.73242 -1272.81445 13906.60156
v -17692.63867 -1272.81445 14730.04102
v -16982.37891 -5983.27930 14265.54102
v -17344.46680 -5983.27930 14722.40625
v -17174.30469 1826.07813 14334.14063
v -17318.17188 1826.07813 14609.99609
v -17187.19336 2272.17578 14097.49609
v -17167.72266 2022.78711 14073.00000
v -17784.65039 2234.09766 13756.66211
v -17712.46680 1993.36914 13876.89258
v -17153.01758 2288.78516 15303.94531
v -17148.80469 2041.56445 15207.61328
v -17299.96484 -1056.62891 14309.65039
v -17081.97070 350.41602 14466.06152
v -17159.08008 1088.24805 14289.00684
v -16718.40625 2844.40234 14822.13770
v -16884.28906 2844.40234 14466.48145
v -16893.70313 -27289.11914 14359.22852
v -17274.92969 -27289.11914 14685.08398
v -16942.57031 233.18555 13914.21484
v -17093.20508 -1056.62891 13743.70313
v -16250.81543 1530.94727 15640.22266
v -17318.17188 1826.07813 14609.99609
v -16683.37891 1826.07813 14841.11719
v -16718.40625 2844.40234 14822.13770
v -16987.96875 1765.69727 14544.31543
v -16793.10938 1095.78516 13897.01953
v -16935.64844 350.41602 14065.54492
v -16683.37891 1826.07813 14841.11719
v -16620.40820 1826.07813 14491.94727
v -17174.30469 1826.07813 14334.14063
v -16466.71289 -5983.27930 15246.76074
v -16552.83398 -27289.11914 15116.49219
v -16477.58789 2310.43945 13929.54297
v -16627.08203 2056.42383 13992.66406
v -16793.10938 1365.85352 13897.01953
v -16133.63965 1365.85352 14182.27539
v -16620.40820 1826.07813 14491.94824
v -16502.26563 2082.68945 15569.77344
v -16512.55859 2328.52148 15579.94922
v -16982.37891 -5983.27930 14265.54102
v -16170.33984 -5983.27930 14750.63672
v -16893.70313 -27289.11914 14359.22852
v -16309.06348 -27289.11914 14708.33008
v -16088.99512 426.25781 14412.78516
v -16935.64844 350.41602 14065.54395
v -16133.63867 1095.78711 14182.27344
v -16793.10938 1095.78516 13897.01953
v -17512.69336 -1851.74609 13556.61719
v -15257.77344 -1993.09961 14634.63672
v -16133.63965 1365.85352 14182.27539
v -16793.10938 1365.85352 13897.01953
v -17200.73242 -1272.81445 13906.60156
v -15743.87305 -1272.81445 14776.90039
v -16595.58594 2844.40234 14584.48828
v -15734.40625 2362.40820 14731.78516
v -16063.81738 1530.94727 14442.78809
v -17093.20508 -1056.62891 13743.70313
v -15512.19922 -1056.62891 14522.36133
v -15743.87207 -1272.81445 14776.90137
v -16942.57031 233.18555 13914.21484
v -15504.07031 233.18555 14622.68945
v -15816.78223 350.41602 14616.59668
v -15803.13281 2370.69727 15734.60742
v -16036.87207 2110.02539 15643.85547
v -16718.40625 2844.40234 14822.13770
v -15735.54980 2116.08008 14734.06836
v -16627.08203 2056.42383 13992.66406
v -16477.58789 2310.43945 13929.54297
v -15695.88574 1088.24805 14912.42188
v -16006.31934 1088.24805 15986.07813
v -15864.81836 -1875.57031 15919.82031
v -15626.23633 818.16992 14233.61914
v -15700.31641 1211.86719 14041.91211
v -15633.16602 1562.26367 14235.47461
v -16002.39160 350.41602 15579.62207
v -15712.39844 426.25781 14864.29297
v -16235.78125 -1272.81445 15600.34180
v -15742.70117 233.18555 15860.83398
v -15443.06543 725.06641 14410.58398
v -15316.02930 1194.36328 14636.43750
v -15774.47168 -1056.62891 15883.16113
v -15712.39844 426.25781 14864.29297
v -15328.01563 758.16992 14603.67969
v -15388.36523 1309.89063 13872.04297
v -15328.62109 1643.86133 14010.07422
v -15241.33398 926.91602 13904.22070
v -15122.97656 812.56445 14036.65039
v -15063.44531 1277.87109 14308.70703
v -15008.25098 951.91992 14256.74414
v -14957.25391 1263.12305 13690.35547
v -14922.99902 853.30078 13768.84180
v -14764.48926 1721.62109 13848.18359
v -14840.22266 701.14844 13940.23633
v -14632.81836 1206.92969 14229.67383
v -14639.92383 913.46680 14211.26953
v -14504.60742 1041.56055 13247.35547
v -14465.50781 668.75000 13275.33789
v -14507.44629 388.72656 13556.56055
v -14402.35645 1540.41797 13459.00977
v -13863.78223 880.10938 13917.69043
v -16987.96875 1765.69727 14544.31445
v -16987.96875 1765.69727 14544.31445
v -16595.58594 2844.40234 14584.48828
v -16884.28906 2844.40234 14466.48145
v -16718.40625 2844.40234 14822.13770
v -16987.96875 1765.69727 14544.31445
v -16987.96875 1765.69727 14544.31445
v -16235.78125 -1272.81445 15600.34180
v -15051.78418 -1312.80469 10634.11914
v -14615.08203 -1323.62109 13655.10938
v -14766.16699 -221.03711 10703.56055
v -14633.45117 -482.42188 13660.95605
v -14504.60645 1041.56152 13247.35938
v -15196.25391 893.84375 10751.82422
v -14465.50781 668.75098 13275.34375
v -14455.41797 -2768.41992 11028.37500
v -14491.83398 -2725.77637 13536.07813
v -14507.44531 388.72949 13556.56641
v -13819.61035 -1321.08301 14401.36914
v -13687.65430 -491.90234 14132.70508
v -13649.90820 -2676.73242 14077.38086
v -13898.99219 -5675.97266 11830.95508
v -13712.98145 -5729.14648 12928.90234
v -12807.04297 893.84082 9297.73438
v -12772.87500 -473.24414 9090.51563
v -15196.25391 893.84375 10751.82422
v -14766.16602 -221.03711 10703.56055
v -12772.87500 -1326.17578 9090.51563
v -15051.78418 -1312.80469 10634.11914
v -12812.60645 -2725.77637 9331.46875
v -14455.41797 -2768.41992 11028.37500
v -12791.28906 12568.76465 10290.53906
v -13902.89551 12415.92871 11337.92969
v -13462.25195 -46178.77734 12189.22852
v -13469.15625 -46178.77734 12751.34375
v -12929.49121 -5729.14648 10040.33398
v -13898.99219 -5675.97266 11830.95508
v -12803.68457 -1319.95313 14596.45508
v -12895.67578 -473.24414 14616.54102
v -12898.84668 -5703.26611 13411.68750
v -13057.82227 -46178.77734 12787.08594
v -13649.41211 877.70410 14075.48828
v -12796.24414 889.14844 14330.78320
v -12753.23828 -2716.12305 14371.76172
v -13395.91797 12085.00293 13262.51563
v -12790.54883 12025.46387 13377.02930
v -13462.25195 -46178.77734 12189.22852
v -12338.39844 -46178.77734 10898.32031
v -12141.83008 -46178.77734 11993.99219
v -11258.19141 -5729.14648 12685.06445
v -11779.75488 -46178.77734 11141.25781
v -11288.16016 -5729.14648 11184.41016
v -10465.36914 -2722.02344 10638.63867
v -10476.74023 893.84082 13356.48730
v -11413.64648 12050.44238 12726.18750
v -10515.36816 -2725.77637 13331.48828
v -11258.19141 -5729.14648 12685.06543
v -11348.96680 12335.29199 11083.91602
v -10410.61133 893.84082 10602.14648
v -10309.91016 -1326.59961 13764.96680
v -10515.36816 -2725.77637 13331.48828
v -10136.07813 -463.75977 13612.24609
v -10165.73438 -1326.17578 10439.66797
v -10165.73438 -473.24414 10439.66797
v -13902.89551 12415.92871 11337.92969
v -13863.78223 880.11133 13917.69434
v -14402.35547 1540.41992 13459.01270
v -14383.45020 1914.07129 13437.35742
v -13863.53125 12189.47363 12841.79199
v -10991.69727 -2707.12109 11912.07129
v -11622.19629 12213.86816 11874.78320
v -10647.90234 -473.24414 11919.88281

vt 0.00000 -0.40040 
vt 0.24750 -0.40040 
vt 0.00000 -0.59970 
vt 0.24750 -0.59970 
vt 0.00000 -0.20120 
vt 0.24750 -0.20120 
vt 0.00000 -0.79890 
vt 0.24750 -0.79890 
vt 0.00000 -0.00200 
vt 0.24750 -0.00200 
vt 0.00000 -0.99810 
vt 0.24750 -0.99810 
vt 0.49680 -0.79890 
vt 0.49680 -0.99810 
vt 1.74350 -0.79890 
vt 1.99990 -0.79890 
vt 1.74350 -0.99810 
vt 1.99990 -0.99810 
vt 0.49680 -0.20120 
vt 0.49680 -0.00200 
vt 1.74350 -0.20120 
vt 1.74350 -0.00200 
vt 1.99990 -0.20120 
vt 1.99990 -0.00200 
vt 0.49680 -0.59970 
vt 1.74350 -0.59970 
vt 1.99990 -0.59970 
vt 0.49680 -0.40040 
vt 1.74350 -0.40040 
vt 1.99990 -0.40040 
vt 0.74610 -0.79890 
vt 0.74610 -0.99810 
vt 1.49420 -0.79890 
vt 1.49420 -0.99810 
vt 0.99550 -0.79890 
vt 0.99550 -0.99810 
vt 1.24480 -0.79890 
vt 1.24480 -0.99810 
vt 0.74610 -0.20120 
vt 0.74610 -0.00200 
vt 1.49420 -0.20120 
vt 1.49420 -0.00200 
vt 0.74610 -0.59970 
vt 1.49420 -0.59970 
vt 0.74610 -0.40040 
vt 1.49420 -0.40040 
vt 0.99550 -0.20120 
vt 0.99550 -0.00200 
vt 1.24480 -0.20120 
vt 1.24480 -0.00200 
vt 0.99550 -0.59970 
vt 1.24480 -0.59970 
vt 0.99550 -0.40040 
vt 1.24480 -0.40040 
vt 1.00070 -0.40040 
vt 1.25000 -0.40040 
vt 1.00070 -0.59970 
vt 1.25000 -0.59970 
vt 1.00070 -0.20120 
vt 1.25000 -0.20120 
vt 1.49940 -0.40040 
vt 1.49940 -0.59970 
vt 0.75140 -0.40040 
vt 0.75140 -0.59970 
vt 1.49940 -0.20120 
vt 0.75140 -0.20120 
vt 1.00070 -0.79890 
vt 1.25000 -0.79890 
vt 1.00070 -0.00200 
vt 1.25000 -0.00200 
vt 1.49940 -0.79890 
vt 0.75140 -0.79890 
vt 1.49940 -0.00200 
vt 0.75140 -0.00200 
vt 1.74870 -0.40040 
vt 1.74870 -0.59970 
vt 0.50200 -0.40040 
vt 0.50200 -0.59970 
vt 1.74870 -0.20120 
vt 0.50200 -0.20120 
vt 1.00070 -0.99810 
vt 1.25000 -0.99810 
vt 1.74870 -0.79890 
vt 0.50200 -0.79890 
vt 1.74870 -0.00200 
vt 0.50200 -0.00200 
vt 1.49940 -0.99810 
vt 0.75140 -0.99810 
vt 1.74870 -0.99810 
vt 0.50200 -0.99810 
vt 1.99990 -0.40040 
vt 1.99990 -0.59970 
vt 0.25270 -0.40040 
vt 0.25270 -0.59970 
vt 1.99990 -0.20120 
vt 0.25270 -0.20120 
vt 1.99990 -0.79890 
vt 0.25270 -0.79890 
vt 1.99990 -0.00200 
vt 0.25270 -0.00200 
vt 1.99990 -0.99810 
vt 0.25270 -0.99810 
vt 0.00000 -0.79890 
vt 0.00000 -0.99810 
vt 0.00000 -0.20120 
vt 0.00000 -0.00200 
vt 0.00000 -0.59970 
vt 0.00000 -0.40040 
vt 0.41620 -0.00360 
vt 0.44580 -0.00360 
vt 0.42260 -0.00430 
vt 0.45000 -0.00410 
vt 0.44070 -0.00490 
vt 0.46170 -0.00440 
vt 0.42260 -0.00290 
vt 0.45000 -0.00320 
vt 0.46790 -0.00530 
vt 0.47920 -0.00470 
vt 0.44070 -0.00230 
vt 0.46170 -0.00280 
vt 0.49990 -0.00540 
vt 0.49990 -0.00480 
vt 0.46790 -0.00200 
vt 0.47920 -0.00250 
vt 0.49990 -0.00360 
vt 0.53200 -0.00530 
vt 0.52070 -0.00470 
vt 0.50000 -0.00250 
vt 0.50000 -0.00180 
vt 0.53820 -0.00440 
vt 0.52070 -0.00250 
vt 0.54990 -0.00410 
vt 0.53820 -0.00280 
vt 0.55410 -0.00360 
vt 0.54990 -0.00320 
vt 0.55920 -0.00490 
vt 0.53200 -0.00200 
vt 0.57730 -0.00430 
vt 0.55920 -0.00230 
vt 0.58370 -0.00360 
vt 0.57730 -0.00290 
vt 0.03700 -0.30830 
vt 0.49990 -0.50010 
vt 0.14560 -0.14570 
vt -0.00110 -0.50000 
vt 0.30820 -0.03710 
vt 0.03700 -0.69180 
vt 0.50000 0.00110 
vt 0.14560 -0.85440 
vt 0.69170 -0.03710 
vt 0.30820 -0.96300 
vt 0.85430 -0.14570 
vt 0.49990 -1.00110 
vt 0.96290 -0.30830 
vt 0.69170 -0.96300 
vt 1.00110 -0.50010 
vt 0.85430 -0.85440 
vt 0.96290 -0.69180 
vt 0.49990 3.98660 
vt 0.66760 4.32780 
vt 0.49990 4.32780 
vt 0.70190 3.98660 
vt 0.83520 4.32780 
vt 0.83520 5.03570 
vt 0.66760 4.79410 
vt 0.83520 4.79410 
vt 0.49990 5.03570 
vt 0.49990 4.79410 
vt 0.16470 5.33870 
vt 0.49990 5.23770 
vt 0.83520 5.23770 
vt 1.17040 5.23770 
vt 0.16470 5.23770 
vt 1.33800 5.33870 
vt 1.50570 5.23770 
vt -0.50570 5.23770 
vt -0.17040 5.23770 
vt 0.66760 4.58920 
vt 0.83520 4.58920 
vt 0.49990 4.58920 
vt 0.49990 3.74550 
vt 0.49990 3.45020 
vt 0.68510 3.74550 
vt 0.66660 3.45020 
vt 0.49990 -1.48570 
vt 0.66660 -1.48570 
vt 1.17040 4.58920 
vt 1.17040 4.32780 
vt 0.33330 3.45020 
vt 0.31480 3.74550 
vt 1.17040 4.79410 
vt 1.17040 5.03570 
vt 0.16470 4.32780 
vt 0.16470 4.58920 
vt 0.33330 -1.48570 
vt 0.29800 3.98660 
vt 0.16470 4.79410 
vt 0.90390 3.98660 
vt 0.16470 5.03570 
vt 0.87020 3.74550 
vt 0.83330 3.45020 
vt 0.83330 -1.48570 
vt 1.50570 5.03570 
vt 1.50570 4.79410 
vt 1.10580 3.98660 
vt 1.05530 3.74550 
vt 1.50570 4.32780 
vt 1.50570 4.58920 
vt 0.99990 -1.48570 
vt 0.99990 3.45020 
vt 0.12970 3.74550 
vt 0.09600 3.98660 
vt -0.05530 3.74550 
vt -0.10580 3.98660 
vt -0.17040 5.03570 
vt -0.50570 5.03570 
vt -0.50570 5.23770 
vt 0.16660 -1.48570 
vt 0.16660 3.45020 
vt 0.00000 -1.48570 
vt 0.00000 3.45020 
vt -0.17040 4.79410 
vt -0.50570 4.79410 
vt -0.50570 4.32780 
vt -0.17040 4.32780 
vt -0.17040 4.58920 
vt -0.50570 4.58920 
vt 4.41810 6.22810 
vt 3.75770 6.22810 
vt 4.27200 4.92170 
vt 3.77360 4.92170 
vt 3.78780 4.65420 
vt 3.79530 4.38150 
vt 4.31070 4.65580 
vt 4.30030 4.37960 
vt 3.78010 3.98230 
vt 4.27200 3.98230 
vt 3.77360 3.84810 
vt 4.27200 3.84810 
vt 3.77360 3.57960 
vt 4.27290 3.57960 
vt 1.69150 4.65980 
vt 1.92090 4.35520 
vt 2.52910 4.65980 
vt 2.55100 4.35620 
vt 2.54880 4.07470 
vt 1.86860 4.07830 
vt 2.55180 4.01370 
vt 1.88760 4.00910 
vt 1.92090 3.68800 
vt 2.54710 3.68630 
vt 3.76060 3.04280 
vt 4.25460 3.04280 
vt 1.92090 3.57560 
vt 2.54860 3.57420 
vt 2.55220 3.36150 
vt 1.91990 3.36160 
vt 3.74650 -0.98400 
vt 4.23570 -0.98400 
vt 2.66640 4.35320 
vt 2.69100 4.65980 
vt 2.67650 4.07580 
vt 2.67500 4.01480 
vt 2.67470 3.68870 
vt 2.67530 3.57540 
vt 2.67520 3.36160 
vt 2.84040 4.07570 
vt 2.84050 4.01440 
vt 2.83530 3.68750 
vt 2.84050 4.01440 
vt 2.85480 4.35320 
vt 2.91030 4.65980 
vt 2.84060 3.57550 
vt 2.84080 3.36160 
vt 2.99690 3.57560 
vt 2.99600 3.36160 
vt 2.99600 4.07590 
vt 2.99610 4.01440 
vt 3.01870 3.68700 
vt 1.22850 -0.98400 
vt 1.27100 3.04280 
vt 0.53520 -0.98400 
vt 0.52920 3.04280 
vt 2.99600 4.35520 
vt 3.13700 4.65980 
vt 3.10040 4.11540 
vt 2.93900 4.11540 
vt 3.08690 4.01470 
vt 3.22130 3.36160 
vt 3.22110 3.57560 
vt 3.06230 3.36160 
vt 3.06090 3.57550 
vt 3.08520 3.68520 
vt 3.22960 3.68860 
vt 3.21040 4.07580 
vt 3.21280 4.35520 
vt 3.05530 4.07590 
vt 3.05650 4.35520 
vt 3.17750 4.65970 
vt 3.05390 4.65960 
vt 3.22410 4.01430 
vt 0.98230 3.36160 
vt 1.31020 3.36160 
vt 0.98190 3.57550 
vt 1.31010 3.57560 
vt 0.98490 3.68740 
vt 1.31260 3.68780 
vt 3.49380 3.36160 
vt 3.49320 3.57550 
vt 1.31950 4.01260 
vt 0.99720 4.00960 
vt 1.37340 4.06250 
vt 0.99890 4.06880 
vt 3.48900 3.68770 
vt 0.52370 3.36160 
vt 0.52380 3.57550 
vt 3.51200 4.35450 
vt 3.60260 4.66110 
vt 1.07700 4.34710 
vt 1.40030 4.35150 
vt 3.47430 4.07580 
vt 3.50130 4.01280 
vt 1.19980 4.67750 
vt 1.64750 4.67330 
vt 0.52570 3.68770 
vt 0.52050 4.01280 
vt 0.52340 4.07580 
vt 0.51560 4.35450 
vt 0.44060 4.66110 
vt 3.85660 6.94350 
vt 2.60380 5.37520 
vt 1.91300 3.04280 
vt 1.90430 -0.98400 
vt 2.17860 -0.98400 
vt 2.48960 -0.98400 
vt 2.60380 5.37520 
vt 2.93700 3.04280 
vt 2.73720 -0.98400 
vt 2.87520 -0.98400 
vt 4.48510 -0.98400 
vt 2.93110 -0.98400 
vt 4.53500 3.04280 
vt 3.41960 3.04280 
vt 3.07370 4.82140 
vt 2.99480 5.16620 
vt 2.87140 4.82150 
vt 3.33910 -0.98400 
vt 4.66680 3.26630 
vt 2.76060 5.37520 
vt 0.64470 5.39550 
vt 0.10570 4.65970 
vt 6.49130 -0.35050 
vt 5.57600 -0.06030 
vt 6.01980 -0.98400 
vt 0.11550 6.56900 
vt -0.04660 6.56900 
vt 0.10370 6.46710 
vt -0.06190 6.46710 
vt -0.09030 6.68760 
vt 0.08620 6.68680 
vt -0.08520 6.07830 
vt 0.06090 6.07830 
vt -0.09360 6.37060 
vt 0.06590 6.37060 
vt -0.06150 6.50390 
vt 0.09460 6.50380 
vt 0.10580 6.88060 
vt -0.10370 6.88060 
vt 0.01480 6.30600 
vt 0.67890 0.60220 
vt 0.67890 1.26590 
vt 0.34560 0.60220 
vt 0.34560 1.26590 
vt 0.34560 1.85870 
vt 0.67890 1.85870 
vt 0.34560 2.14390 
vt 0.67890 2.14390 
vt 0.34560 0.31690 
vt 0.67890 0.31690 
vt 0.34560 1.42650 
vt 0.67890 1.42650 
vt 0.00000 1.88670 
vt 0.20000 1.88670 
vt 0.00000 1.99990 
vt 0.20000 1.99990 
vt 0.00000 1.30150 
vt 0.20000 1.30150 
vt 0.17890 2.49850 
vt 0.63400 1.11260 
vt 0.08330 1.33330 
vt 0.08330 1.66660 
vt 0.16660 1.33330 
vt 0.16660 1.66660 
vt 0.41660 1.33330 
vt 0.41660 1.66660 
vt 0.17890 0.60220 
vt 0.17890 1.42650 
vt 0.17890 1.85870 
vt 0.03870 1.99990 
vt 0.08330 1.00000 
vt 0.00000 -1.49990 
vt 0.20000 -1.49990 
vt 0.01230 1.26590 
vt 0.01230 0.60220 
vt 1.34560 2.14390 
vt 0.84560 2.49850 
vt 1.34560 2.49850 
vt 0.49990 1.00000 
vt 0.60000 1.99990 
vt 0.01230 1.85870 
vt 0.01230 1.42650 
vt 0.55970 1.99990 
vt 0.10710 1.88230 
vt 0.22440 1.13230 
vt 0.49990 1.30150 
vt 0.49990 -1.49990 
vt 0.00000 1.33330 
vt 0.00000 1.66660 
vt 0.01230 2.14390 
vt 0.84560 2.14390 
vt 1.67890 2.49850 
vt 0.58330 1.66660 
vt 0.58330 1.33330 
vt 0.99990 1.30150 
vt 0.80000 1.30150 
vt 0.99990 -1.49990 
vt 0.80000 -1.49990 
vt 1.79010 1.55490 
vt 2.01230 1.42650 
vt 1.79010 1.85870 
vt 2.01230 1.85870 
vt 0.99990 1.88670 
vt 0.80000 1.88670 
vt 1.84560 2.14390 
vt 2.01230 2.14390 
vt 0.99990 1.99990 
vt 0.80000 1.99990 
vt 0.91660 1.00000 
vt 0.83330 1.33330 
vt 1.67890 2.14390 
vt 2.01230 0.60220 
vt 1.67890 0.60220 
vt 1.67890 0.31690 
vt 2.01230 1.26590 
vt 1.67890 1.26590 
vt 1.67890 1.42650 
vt 0.66660 1.33330 
vt 0.66660 1.66660 
vt 0.00000 1.00000 
vt 0.83330 1.66660 
vt 0.99990 1.66660 
vt 0.99990 1.33330 
vt 1.56780 1.85870 
vt 1.34560 1.85870 
vt 0.49990 1.88670 
vt 1.87790 1.77330 
vt 1.89000 1.91880 
vt 1.90970 2.14920 
vt 1.34560 1.42650 
vt 1.60490 1.55490 
vt 0.49990 1.99990 
vt 1.34560 1.26590 
vt 1.86020 1.59020 
vt 1.89000 1.91880 
vt 1.34560 0.60220 
vt 1.60490 1.55490 
vt 1.87790 1.77330 
vt 2.03530 1.98950 
vt 2.10440 2.16840 
vt 2.01040 1.86510 
vt 2.00900 1.72270 
vt 2.03530 1.98950 
vt 2.01040 1.86510 
vt 2.28480 1.87560 
vt 2.25830 1.75880 
vt 2.30350 2.05000 
vt 2.24610 1.58130 
vt 2.28480 1.87560 
vt 2.25830 1.75880 
vt 2.52040 1.85820 
vt 2.54350 1.81260 
vt 2.48430 1.59830 
vt 2.53780 2.02360 
vt 2.47810 1.82340 
vt 0.20830 1.99990 
vt 0.04160 1.99990 
vt 0.72790 1.98690 
vt 0.00000 1.59900 
vt 0.99990 1.00000 
vt 0.95830 1.99990 
vt 0.60000 1.99990 
vt 1.17890 0.31690 
vt -1.99240 5.16840 
vt -1.49390 5.16840 
vt -1.99240 5.59300 
vt -1.49390 5.59300 
vt -1.53920 6.05330 
vt -1.99240 6.05330 
vt -1.53920 6.01140 
vt -1.99240 4.49960 
vt -1.49390 4.49960 
vt -1.49390 5.88590 
vt -1.24460 5.16840 
vt -1.24460 5.59300 
vt -1.24460 4.49960 
vt -1.99240 3.59360 
vt -1.49390 3.59360 
vt 1.06070 6.05330 
vt 1.06070 5.59300 
vt 1.55920 6.05330 
vt 1.55920 5.59300 
vt 1.06070 5.16840 
vt 1.55920 5.16840 
vt 1.06070 4.49960 
vt 1.55920 4.49960 
vt 1.06070 7.66620 
vt 1.55920 7.66620 
vt -1.99240 -3.23230 
vt -1.49390 -3.23230 
vt 1.06070 3.59360 
vt 1.55920 3.59360 
vt -0.99540 5.16840 
vt -0.99540 5.59300 
vt -0.99540 3.59360 
vt -0.99540 -3.23230 
vt -1.24460 6.05330 
vt -0.99540 6.05330 
vt -0.99540 4.49960 
vt -1.24460 7.66620 
vt -0.99540 7.66620 
vt 1.55920 -3.23230 
vt 1.06070 -3.23230 
vt -0.18540 -3.23230 
vt -0.18540 3.59360 
vt 0.56220 -3.23230 
vt 0.56220 3.59360 
vt 0.56220 4.49960 
vt -0.31000 6.05330 
vt -0.31000 7.66620 
vt -0.31000 4.49960 
vt -0.18540 3.59360 
vt 0.56220 7.66620 
vt 0.56220 6.05330 
vt -0.31000 5.16840 
vt 0.56610 3.80230 
vt -0.31000 5.59300 
vt 0.56220 5.16840 
vt 0.56220 5.59300 
vt -1.99240 7.66620 
vt -1.31260 6.05330 
vt -1.49390 6.14660 
vt -1.49390 6.19990 
vt -1.49390 7.66620 
vt 0.06370 4.49960 
vt 0.06370 7.66620 
vt 0.06370 5.59300 

s 1

g Object_2

usemtl texture0

f 1/1 2/2 3/3
f 3/3 2/2 4/4
f 1/1 5/5 2/2
f 5/5 6/6 2/2
f 3/3 4/4 7/7
f 7/7 4/4 8/8
f 5/5 9/9 6/6
f 9/9 10/10 6/6
f 7/7 8/8 11/11
f 11/11 8/8 12/12
f 8/8 13/13 12/12
f 12/12 13/13 14/14
f 15/15 16/16 17/17
f 17/17 16/16 18/18
f 6/6 10/10 19/19
f 10/10 20/20 19/19
f 21/21 22/22 23/23
f 22/22 24/24 23/23
f 4/4 25/25 8/8
f 8/8 25/25 13/13
f 26/26 27/27 15/15
f 15/15 27/27 16/16
f 2/2 6/6 28/28
f 6/6 19/19 28/28
f 29/29 21/21 30/30
f 21/21 23/23 30/30
f 2/2 28/28 4/4
f 4/4 28/28 25/25
f 29/29 30/30 26/26
f 26/26 30/30 27/27
f 13/13 31/31 14/14
f 14/14 31/31 32/32
f 33/33 15/15 34/34
f 34/34 15/15 17/17
f 31/31 35/35 32/32
f 32/32 35/35 36/36
f 37/37 33/33 38/38
f 38/38 33/33 34/34
f 19/19 20/20 39/39
f 20/20 40/40 39/39
f 41/41 42/42 21/21
f 42/42 22/22 21/21
f 25/25 43/43 13/13
f 13/13 43/43 31/31
f 44/44 26/26 33/33
f 33/33 26/26 15/15
f 35/35 37/37 36/36
f 36/36 37/37 38/38
f 28/28 19/19 45/45
f 19/19 39/39 45/45
f 46/46 41/41 29/29
f 41/41 21/21 29/29
f 28/28 45/45 25/25
f 25/25 45/45 43/43
f 46/46 29/29 44/44
f 44/44 29/29 26/26
f 39/39 40/40 47/47
f 40/40 48/48 47/47
f 49/49 50/50 41/41
f 50/50 42/42 41/41
f 43/43 51/51 31/31
f 31/31 51/51 35/35
f 52/52 44/44 37/37
f 37/37 44/44 33/33
f 47/47 48/48 49/49
f 48/48 50/50 49/49
f 51/51 52/52 35/35
f 35/35 52/52 37/37
f 45/45 39/39 53/53
f 39/39 47/47 53/53
f 54/54 49/49 46/46
f 49/49 41/41 46/46
f 45/45 53/53 43/43
f 43/43 53/53 51/51
f 54/54 46/46 52/52
f 52/52 46/46 44/44
f 53/53 47/47 54/54
f 47/47 49/49 54/54
f 53/53 54/54 51/51
f 51/51 54/54 52/52
f 55/55 56/56 57/57
f 57/57 56/56 58/58
f 55/55 59/59 56/56
f 59/59 60/60 56/56
f 56/56 61/61 58/58
f 58/58 61/61 62/62
f 63/63 55/55 64/64
f 64/64 55/55 57/57
f 56/56 60/60 61/61
f 60/60 65/65 61/61
f 63/63 66/66 55/55
f 66/66 59/59 55/55
f 57/57 58/58 67/67
f 67/67 58/58 68/68
f 59/59 69/69 60/60
f 69/69 70/70 60/60
f 58/58 62/62 68/68
f 68/68 62/62 71/71
f 64/64 57/57 72/72
f 72/72 57/57 67/67
f 60/60 70/70 65/65
f 70/70 73/73 65/65
f 66/66 74/74 59/59
f 74/74 69/69 59/59
f 61/61 75/75 62/62
f 62/62 75/75 76/76
f 77/77 63/63 78/78
f 78/78 63/63 64/64
f 61/61 65/65 75/75
f 65/65 79/79 75/75
f 77/77 80/80 63/63
f 80/80 66/66 63/63
f 67/67 68/68 81/81
f 81/81 68/68 82/82
f 62/62 76/76 71/71
f 71/71 76/76 83/83
f 78/78 64/64 84/84
f 84/84 64/64 72/72
f 65/65 73/73 79/79
f 73/73 85/85 79/79
f 80/80 86/86 66/66
f 86/86 74/74 66/66
f 68/68 71/71 82/82
f 82/82 71/71 87/87
f 72/72 67/67 88/88
f 88/88 67/67 81/81
f 71/71 83/83 87/87
f 87/87 83/83 89/89
f 84/84 72/72 90/90
f 90/90 72/72 88/88
f 75/75 91/91 76/76
f 76/76 91/91 92/92
f 93/93 77/77 94/94
f 94/94 77/77 78/78
f 75/75 79/79 91/91
f 79/79 95/95 91/91
f 93/93 96/96 77/77
f 96/96 80/80 77/77
f 76/76 92/92 83/83
f 83/83 92/92 97/97
f 94/94 78/78 98/98
f 98/98 78/78 84/84
f 79/79 85/85 95/95
f 85/85 99/99 95/95
f 96/96 100/100 80/80
f 100/100 86/86 80/80
f 83/83 97/97 89/89
f 89/89 97/97 101/101
f 98/98 84/84 102/102
f 102/102 84/84 90/90
f 103/103 98/98 104/104
f 104/104 98/98 102/102
f 105/105 106/106 96/96
f 106/106 100/100 96/96
f 107/107 94/94 103/103
f 103/103 94/94 98/98
f 108/108 105/105 93/93
f 105/105 96/96 93/93
f 108/108 93/93 107/107
f 107/107 93/93 94/94
f 109/109 110/110 111/111
f 110/110 112/112 111/111
f 111/111 112/112 113/113
f 112/112 114/114 113/113
f 115/115 116/116 109/109
f 116/116 110/110 109/109
f 113/113 114/114 117/117
f 114/114 118/118 117/117
f 119/119 120/120 115/115
f 120/120 116/116 115/115
f 117/117 118/118 121/121
f 118/118 122/122 121/121
f 123/123 124/124 119/119
f 124/124 120/120 119/119
f 110/110 125/125 112/112
f 112/112 125/125 114/114
f 116/116 125/125 110/110
f 114/114 125/125 118/118
f 120/120 125/125 116/116
f 118/118 125/125 122/122
f 124/124 125/125 120/120
f 121/121 122/122 126/126
f 122/122 127/127 126/126
f 122/122 125/125 127/127
f 128/128 125/125 124/124
f 129/129 128/128 123/123
f 128/128 124/124 123/123
f 127/127 125/125 130/130
f 131/131 125/125 128/128
f 130/130 125/125 132/132
f 133/133 125/125 131/131
f 132/132 125/125 134/134
f 135/135 125/125 133/133
f 134/134 125/125 135/135
f 126/126 127/127 136/136
f 127/127 130/130 136/136
f 137/137 131/131 129/129
f 131/131 128/128 129/129
f 136/136 130/130 138/138
f 130/130 132/132 138/138
f 139/139 133/133 137/137
f 133/133 131/131 137/137
f 138/138 132/132 140/140
f 132/132 134/134 140/140
f 141/141 135/135 139/139
f 135/135 133/133 139/139
f 140/140 134/134 141/141
f 134/134 135/135 141/141

usemtl texture1

f 142/142 143/143 144/144
f 145/145 143/143 142/142
f 144/144 143/143 146/146
f 147/147 143/143 145/145
f 146/146 143/143 148/148
f 149/149 143/143 147/147
f 148/148 143/143 150/150
f 151/151 143/143 149/149
f 150/150 143/143 152/152
f 153/153 143/143 151/151
f 152/152 143/143 154/154
f 155/155 143/143 153/153
f 154/154 143/143 156/156
f 157/157 143/143 155/155
f 156/156 143/143 158/158
f 158/158 143/143 157/157

usemtl texture2

f 159/159 160/160 161/161
f 162/162 163/163 160/160
f 164/164 165/165 166/166
f 162/162 160/160 159/159
f 167/167 168/168 165/165
f 167/167 165/165 164/164
f 169/169 170/170 171/171
f 169/169 171/171 172/172
f 169/169 173/173 170/170
f 174/174 172/172 175/175
f 169/169 176/176 177/177
f 178/178 160/160 179/179
f 160/160 163/163 179/179
f 178/178 180/180 160/160
f 180/180 161/161 160/160
f 179/179 166/166 178/178
f 166/166 165/165 178/178
f 165/165 168/168 178/178
f 178/178 168/168 180/180
f 181/181 182/182 183/183
f 182/182 184/184 183/183
f 181/181 183/183 159/159
f 183/183 162/162 159/159
f 182/182 185/185 184/184
f 186/186 184/184 185/185
f 179/179 163/163 187/187
f 163/163 188/188 187/187
f 189/189 182/182 190/190
f 190/190 182/182 181/181
f 164/164 171/171 167/167
f 171/171 170/170 167/167
f 187/187 191/191 179/179
f 191/191 166/166 179/179
f 191/191 192/192 166/166
f 164/164 166/166 192/192
f 193/193 161/161 194/194
f 194/194 161/161 180/180
f 164/164 192/192 171/171
f 171/171 192/192 172/172
f 195/195 185/185 189/189
f 185/185 182/182 189/189
f 193/193 196/196 161/161
f 159/159 161/161 196/196
f 180/180 168/168 194/194
f 168/168 197/197 194/194
f 159/159 196/196 181/181
f 196/196 190/190 181/181
f 163/163 162/162 188/188
f 198/198 188/188 162/162
f 197/197 168/168 199/199
f 199/199 168/168 167/167
f 200/200 198/198 183/183
f 198/198 162/162 183/183
f 201/201 200/200 184/184
f 200/200 183/183 184/184
f 167/167 170/170 199/199
f 170/170 173/173 199/199
f 184/184 186/186 201/201
f 202/202 201/201 186/186
f 203/203 175/175 192/192
f 175/175 172/172 192/192
f 192/192 191/191 203/203
f 191/191 204/204 203/203
f 198/198 200/200 205/205
f 205/205 200/200 206/206
f 188/188 198/198 207/207
f 207/207 198/198 205/205
f 208/208 204/204 187/187
f 204/204 191/191 187/187
f 209/209 210/210 202/202
f 210/210 201/201 202/202
f 210/210 206/206 201/201
f 206/206 200/200 201/201
f 187/187 188/188 208/208
f 188/188 207/207 208/208
f 211/211 212/212 213/213
f 213/213 212/212 214/214
f 215/215 177/177 216/216
f 177/177 217/217 216/216
f 218/218 219/219 220/220
f 219/219 221/221 220/220
f 213/213 221/221 211/211
f 221/221 219/219 211/211
f 222/222 215/215 223/223
f 223/223 215/215 216/216
f 224/224 214/214 225/225
f 212/212 225/225 214/214
f 226/226 222/222 227/227
f 222/222 223/223 227/227
f 225/225 226/226 224/224
f 224/224 226/226 227/227
f 228/228 229/229 230/230
f 231/231 230/230 229/229
f 232/232 233/233 234/234
f 234/234 233/233 235/235
f 234/234 230/230 232/232
f 232/232 230/230 231/231
f 236/236 237/237 233/233
f 233/233 237/237 235/235
f 236/236 238/238 237/237
f 238/238 239/239 237/237
f 240/240 241/241 238/238
f 241/241 239/239 238/238
f 242/242 243/243 244/244
f 244/244 243/243 245/245
f 246/246 247/247 248/248
f 247/247 249/249 248/248
f 247/247 246/246 243/243
f 243/243 246/246 245/245
f 249/249 250/250 248/248
f 248/248 250/250 251/251
f 240/240 252/252 241/241
f 253/253 241/241 252/252
f 250/250 254/254 251/251
f 254/254 255/255 251/251
f 255/255 254/254 256/256
f 254/254 257/257 256/256
f 258/258 259/259 252/252
f 259/259 253/253 252/252
f 260/260 261/261 245/245
f 261/261 244/244 245/245
f 246/246 248/248 262/262
f 262/262 248/248 263/263
f 262/262 260/260 246/246
f 245/245 246/246 260/260
f 251/251 264/264 248/248
f 264/264 263/263 248/248
f 251/251 255/255 264/264
f 264/264 255/255 265/265
f 255/255 256/256 265/265
f 265/265 256/256 266/266
f 267/267 262/262 268/268
f 262/262 263/263 268/268
f 269/269 270/270 264/264
f 263/263 264/264 270/270
f 271/271 272/272 260/260
f 272/272 261/261 260/260
f 260/260 262/262 271/271
f 262/262 267/267 271/271
f 269/269 264/264 273/273
f 264/264 265/265 273/273
f 273/273 265/265 274/274
f 265/265 266/266 274/274
f 273/273 274/274 275/275
f 275/275 274/274 276/276
f 267/267 270/270 277/277
f 277/277 270/270 278/278
f 269/269 273/273 279/279
f 279/279 273/273 275/275
f 279/279 278/278 269/269
f 270/270 269/269 278/278
f 280/280 281/281 282/282
f 282/282 281/281 283/283
f 267/267 277/277 271/271
f 271/271 277/277 284/284
f 285/285 272/272 284/284
f 272/272 271/271 284/284
f 286/286 287/287 288/288
f 287/287 278/278 288/288
f 289/289 290/290 291/291
f 291/291 290/290 292/292
f 293/293 292/292 294/294
f 292/292 290/290 294/294
f 295/295 296/296 297/297
f 297/297 296/296 298/298
f 299/299 300/300 296/296
f 298/298 296/296 300/300
f 297/297 288/288 295/295
f 295/295 288/288 301/301
f 288/288 293/293 301/301
f 293/293 294/294 301/301
f 302/302 303/303 304/304
f 303/303 305/305 304/304
f 306/306 304/304 307/307
f 305/305 307/307 304/304
f 289/289 308/308 290/290
f 290/290 308/308 309/309
f 307/307 310/310 306/306
f 311/311 306/306 310/310
f 312/312 313/313 310/310
f 310/310 313/313 311/311
f 314/314 294/294 309/309
f 294/294 290/290 309/309
f 315/315 302/302 316/316
f 304/304 316/316 302/302
f 296/296 317/317 299/299
f 318/318 299/299 317/317
f 319/319 313/313 320/320
f 312/312 320/320 313/313
f 295/295 301/301 321/321
f 321/321 301/301 322/322
f 314/314 322/322 294/294
f 294/294 322/322 301/301
f 296/296 295/295 317/317
f 317/317 295/295 321/321
f 323/323 319/319 324/324
f 320/320 324/324 319/319
f 325/325 316/316 306/306
f 306/306 316/316 304/304
f 306/306 311/311 325/325
f 325/325 311/311 326/326
f 311/311 313/313 326/326
f 313/313 327/327 326/326
f 328/328 327/327 319/319
f 319/319 327/327 313/313
f 319/319 323/323 328/328
f 323/323 329/329 328/328
f 229/229 228/228 330/330
f 331/331 242/242 244/244
f 332/332 256/256 257/257
f 333/333 334/334 332/332
f 334/334 335/335 332/332
f 336/336 244/244 261/261
f 332/332 337/337 256/256
f 335/335 338/338 332/332
f 338/338 337/337 332/332
f 336/336 261/261 272/272
f 256/256 337/337 266/266
f 339/339 337/337 338/338
f 266/266 337/337 274/274
f 340/340 341/341 342/342
f 336/336 272/272 285/285
f 274/274 337/337 276/276
f 342/342 341/341 343/343
f 344/344 345/345 346/346
f 341/341 347/347 343/343
f 342/342 343/343 348/348
f 299/299 349/349 300/300
f 348/348 343/343 289/289
f 283/283 281/281 302/302
f 281/281 303/303 302/302
f 350/350 351/351 329/329
f 352/352 353/353 354/354
f 289/289 343/343 308/308
f 350/350 329/329 323/323
f 302/302 315/315 283/283
f 355/355 356/356 357/357
f 358/358 357/357 356/356
f 359/359 356/356 360/360
f 356/356 355/355 360/360
f 361/361 362/362 363/363
f 362/362 364/364 363/363
f 365/365 363/363 366/366
f 363/363 364/364 366/366
f 367/367 368/368 360/360
f 359/359 360/360 368/368
f 357/357 358/358 369/369
f 370/370 371/371 372/372
f 371/371 373/373 372/372
f 374/374 375/375 376/376
f 375/375 377/377 376/376
f 372/372 378/378 370/370
f 378/378 379/379 370/370
f 380/380 381/381 374/374
f 381/381 375/375 374/374
f 371/371 381/381 373/373
f 373/373 381/381 380/380
f 382/382 383/383 384/384
f 384/384 383/383 385/385
f 382/382 386/386 383/383
f 383/383 386/386 387/387
f 376/376 377/377 388/388
f 389/389 388/388 377/377
f 390/390 391/391 392/392
f 393/393 392/392 391/391
f 392/392 393/393 394/394
f 393/393 395/395 394/394
f 396/396 372/372 397/397
f 397/397 372/372 373/373
f 374/374 398/398 380/380
f 397/397 380/380 398/398
f 399/399 400/400 394/394
f 392/392 394/394 400/400
f 386/386 401/401 387/387
f 387/387 401/401 402/402
f 397/397 403/403 396/396
f 403/403 404/404 396/396
f 377/377 405/405 406/406
f 405/405 407/407 406/406
f 394/394 395/395 408/408
f 395/395 409/409 408/408
f 410/410 411/411 398/398
f 397/397 398/398 411/411
f 412/412 413/413 389/389
f 389/389 413/413 414/414
f 415/415 387/387 416/416
f 387/387 402/402 416/416
f 390/390 417/417 391/391
f 418/418 391/391 417/417
f 419/419 388/388 420/420
f 388/388 421/421 420/420
f 422/422 423/423 409/409
f 408/408 409/409 423/423
f 424/424 425/425 426/426
f 426/426 425/425 427/427
f 428/428 429/429 430/430
f 429/429 431/431 430/430
f 432/432 433/433 424/424
f 424/424 433/433 425/425
f 434/434 430/430 435/435
f 435/435 430/430 431/431
f 432/432 436/436 433/433
f 437/437 433/433 436/436
f 400/400 438/438 417/417
f 438/438 439/439 417/417
f 421/421 407/407 440/440
f 405/405 440/440 407/407
f 441/441 442/442 378/378
f 443/443 378/378 442/442
f 425/425 415/415 427/427
f 415/415 416/416 427/427
f 444/444 429/429 445/445
f 429/429 446/446 445/445
f 442/442 441/441 445/445
f 441/441 444/444 445/445
f 423/423 422/422 447/447
f 448/448 447/447 422/422
f 439/439 438/438 447/447
f 438/438 449/449 447/447
f 450/450 451/451 439/439
f 452/452 439/439 451/451
f 440/440 405/405 453/453
f 454/454 453/453 405/405
f 433/433 455/455 425/425
f 455/455 415/415 425/425
f 428/428 430/430 456/456
f 430/430 457/457 456/456
f 440/440 458/458 430/430
f 430/430 458/458 457/457
f 454/454 459/459 453/453
f 459/459 460/460 453/453
f 447/447 448/448 439/439
f 448/448 450/450 439/439
f 455/455 433/433 461/461
f 461/461 433/433 437/437
f 462/462 445/445 459/459
f 445/445 446/446 459/459
f 456/456 463/463 428/428
f 446/446 428/428 463/463
f 453/453 464/464 440/440
f 440/440 464/464 458/458
f 465/465 442/442 462/462
f 442/442 445/445 462/462
f 446/446 463/463 466/466
f 463/463 467/467 466/466
f 466/466 467/467 453/453
f 467/467 464/464 453/453
f 457/457 458/458 468/468
f 458/458 469/469 468/468
f 456/456 457/457 470/470
f 457/457 468/468 470/470
f 463/463 456/456 471/471
f 456/456 470/470 471/471
f 458/458 464/464 469/469
f 464/464 472/472 469/469
f 473/473 467/467 471/471
f 471/471 467/467 463/463
f 467/467 473/473 464/464
f 473/473 472/472 464/464
f 474/474 475/475 468/468
f 470/470 468/468 475/475
f 476/476 474/474 469/469
f 468/468 469/469 474/474
f 475/475 477/477 470/470
f 471/471 470/470 477/477
f 469/469 472/472 476/476
f 472/472 478/478 476/476
f 479/479 473/473 477/477
f 477/477 473/473 471/471
f 478/478 472/472 479/479
f 473/473 479/479 472/472
f 474/474 480/480 475/475
f 475/475 480/480 481/481
f 481/481 482/482 475/475
f 477/477 475/475 482/482
f 480/480 474/474 483/483
f 474/474 476/476 483/483
f 484/484 479/479 482/482
f 482/482 479/479 477/477
f 484/484 483/483 478/478
f 476/476 478/478 483/483
f 376/376 398/398 374/374
f 396/396 378/378 372/372
f 485/485 393/393 391/391
f 400/400 390/390 392/392
f 485/485 395/395 393/393
f 388/388 398/398 376/376
f 397/397 373/373 380/380
f 441/441 378/378 396/396
f 419/419 398/398 388/388
f 403/403 397/397 411/411
f 486/486 391/391 418/418
f 419/419 410/410 398/398
f 400/400 417/417 390/390
f 487/487 488/488 489/489
f 409/409 448/448 422/422
f 451/451 450/450 490/490
f 423/423 447/447 408/408
f 428/428 446/446 429/429
f 420/420 421/421 440/440
f 491/491 450/450 448/448
f 434/434 440/440 430/430
f 492/492 443/443 465/465
f 460/460 459/459 446/446
f 465/465 443/443 442/442
f 478/478 479/479 484/484

usemtl texture3

f 493/493 494/494 495/495
f 494/494 496/496 495/495
f 497/497 498/498 499/499
f 495/495 499/499 498/498
f 493/493 500/500 494/494
f 494/494 500/500 501/501
f 496/496 502/502 495/495
f 495/495 502/502 499/499
f 494/494 503/503 496/496
f 503/503 504/504 496/496
f 503/503 494/494 505/505
f 494/494 501/501 505/505
f 500/500 506/506 501/501
f 506/506 507/507 501/501
f 508/508 509/509 510/510
f 509/509 511/511 510/510
f 512/512 513/513 509/509
f 513/513 511/511 509/509
f 512/512 514/514 513/513
f 515/515 513/513 514/514
f 508/508 510/510 516/516
f 510/510 517/517 516/516
f 506/506 518/518 507/507
f 518/518 519/519 507/507
f 514/514 520/520 515/515
f 520/520 521/521 515/515
f 522/522 523/523 503/503
f 503/503 523/523 504/504
f 507/507 519/519 524/524
f 524/524 519/519 525/525
f 504/504 523/523 526/526
f 523/523 527/527 526/526
f 503/503 505/505 522/522
f 522/522 505/505 528/528
f 526/526 527/527 529/529
f 527/527 530/530 529/529
f 531/531 521/521 532/532
f 532/532 521/521 520/520
f 525/525 533/533 524/524
f 524/524 533/533 534/534
f 532/532 520/520 535/535
f 520/520 536/536 535/535
f 537/537 536/536 514/514
f 514/514 536/536 520/520
f 538/538 539/539 527/527
f 539/539 530/530 527/527
f 540/540 528/528 541/541
f 524/524 541/541 528/528
f 516/516 542/542 508/508
f 542/542 543/543 508/508
f 533/533 535/535 534/534
f 535/535 536/536 534/534
f 544/544 522/522 545/545
f 522/522 528/528 545/545
f 523/523 546/546 527/527
f 527/527 546/546 538/538
f 547/547 537/537 512/512
f 512/512 537/537 514/514
f 509/509 508/508 548/548
f 508/508 543/543 548/548
f 523/523 522/522 546/546
f 522/522 544/544 546/546
f 509/509 548/548 512/512
f 548/548 547/547 512/512
f 498/498 497/497 549/549
f 496/496 550/550 502/502
f 497/497 551/551 549/549
f 551/551 552/552 549/549
f 551/551 550/550 552/552
f 504/504 550/550 496/496
f 552/552 553/553 549/549
f 553/553 552/552 550/550
f 507/507 505/505 501/501
f 526/526 550/550 504/504
f 529/529 553/553 550/550
f 526/526 529/529 550/550
f 505/505 507/507 524/524
f 505/505 524/524 528/528
f 541/541 536/536 554/554
f 538/538 555/555 539/539
f 555/555 543/543 542/542
f 554/554 540/540 541/541
f 538/538 556/556 555/555
f 537/537 554/554 536/536
f 556/556 543/543 555/555
f 544/544 554/554 556/556
f 544/544 540/540 554/554
f 556/556 554/554 547/547
f 547/547 554/554 537/537
f 538/538 546/546 556/556
f 556/556 548/548 543/543
f 544/544 556/556 546/546
f 556/556 547/547 548/548

