# Model created using BSP2OBJ v0.2.1 by DCx Demo*
# http://devilclanthps3.weebly.com/

mtllib S23_ON_22.obj.mtl
# Object number 1
# 438 faces
# 694 vertices

v -2717.67188 -19.99990 15644.23730
v -2990.00000 -19.99990 15649.50000
v -2717.71411 0.00000 15643.74023
v -2990.00000 0.00000 15649.00000
v -2717.67188 -19.99990 15674.23730
v -2990.00000 -19.99990 15679.50000
v -2717.71411 0.00000 15673.74023
v -2990.00000 0.00000 15679.00000
v -2717.54419 0.00000 15645.72852
v -2717.71411 0.00000 15643.74023
v -2990.00000 0.00000 15651.00000
v -2990.00000 0.00000 15649.00000
v -2717.54419 0.00000 15675.72852
v -2717.71411 0.00000 15673.74023
v -2990.00000 0.00000 15681.00000
v -2990.00000 0.00000 15679.00000
v -2990.00000 0.00000 15651.00000
v -2990.00000 -19.99990 15650.50000
v -2717.54419 0.00000 15645.72852
v -2717.58691 -19.99990 15645.23145
v -2990.00000 0.00000 15681.00000
v -2990.00000 -19.99990 15680.50000
v -2717.54419 0.00000 15675.72852
v -2717.58691 -19.99990 15675.23145
v -2655.00098 -19.99990 15638.27148
v -2655.06055 0.00000 15637.77637
v -2655.00098 -19.99990 15668.27148
v -2655.06055 0.00000 15667.77539
v -2654.82227 0.00000 15639.75684
v -2655.06055 0.00000 15637.77637
v -2654.82227 0.00000 15669.75684
v -2655.06055 0.00000 15667.77539
v -2654.82227 0.00000 15639.75684
v -2654.88184 -19.99990 15639.26172
v -2654.82227 0.00000 15669.75684
v -2654.88184 -19.99990 15669.26172
v -2345.02734 0.00000 15580.29102
v -2344.96436 -19.99990 15580.80566
v -2345.02734 0.00000 15610.29102
v -2344.96436 -19.99990 15610.80566
v -2344.77563 0.00000 15582.34961
v -2345.02734 0.00000 15580.29102
v -2344.77563 0.00000 15612.34961
v -2345.02734 0.00000 15610.29102
v -2344.83862 -19.99990 15581.83496
v -2344.77563 0.00000 15582.34961
v -2344.83862 -19.99990 15611.83496
v -2344.77563 0.00000 15612.34961
v -2282.27930 0.00000 15573.08594
v -2282.23340 -19.99990 15573.63672
v -2282.27930 0.00000 15603.08594
v -2282.23340 -19.99990 15603.63672
v -2282.27930 0.00000 15573.08594
v -2282.09644 0.00000 15575.28711
v -2282.27930 0.00000 15603.08594
v -2282.09644 0.00000 15605.28809
v -2282.14209 -19.99990 15574.73730
v -2282.09644 0.00000 15575.28711
v -2282.14209 -19.99990 15604.73730
v -2282.09644 0.00000 15605.28809
v -2010.00012 0.00000 15569.01758
v -2010.00012 -19.99990 15569.51758
v -2010.00012 0.00000 15599.01758
v -2010.00012 -19.99990 15599.51758
v -2010.00012 0.00000 15569.01758
v -2010.00012 0.00000 15571.01758
v -2010.00012 0.00000 15599.01758
v -2010.00012 0.00000 15601.01758
v -2010.00012 -19.99990 15570.51758
v -2010.00012 0.00000 15571.01758
v -2010.00012 -19.99990 15600.51758
v -2010.00012 0.00000 15601.01758
v -2990.00000 -19.99990 15380.50000
v -2717.67188 -19.99990 15385.76270
v -2990.00000 0.00000 15381.00000
v -2717.71411 0.00000 15386.25977
v -2990.00000 -19.99990 15410.50000
v -2717.67188 -19.99990 15415.76270
v -2990.00000 0.00000 15411.00000
v -2717.71411 0.00000 15416.25977
v -2717.54419 0.00000 15384.27148
v -2990.00000 0.00000 15379.00000
v -2717.71411 0.00000 15386.25977
v -2990.00000 0.00000 15381.00000
v -2717.54419 0.00000 15414.27148
v -2990.00000 0.00000 15409.00000
v -2717.71411 0.00000 15416.25977
v -2990.00000 0.00000 15411.00000
v -2990.00000 0.00000 15379.00000
v -2717.54419 0.00000 15384.27148
v -2990.00000 -19.99990 15379.50000
v -2717.58691 -19.99990 15384.76855
v -2990.00000 0.00000 15409.00000
v -2717.54419 0.00000 15414.27148
v -2990.00000 -19.99990 15409.50000
v -2717.58691 -19.99990 15414.76855
v -2655.00098 -19.99990 15391.72852
v -2655.06055 0.00000 15392.22461
v -2655.00098 -19.99990 15421.72852
v -2655.06055 0.00000 15422.22363
v -2654.82227 0.00000 15390.24316
v -2655.06055 0.00000 15392.22461
v -2654.82227 0.00000 15420.24316
v -2655.06055 0.00000 15422.22363
v -2654.82227 0.00000 15390.24316
v -2654.88184 -19.99990 15390.73828
v -2654.82227 0.00000 15420.24316
v -2654.88184 -19.99990 15420.73828
v -2344.96436 -19.99990 15449.19434
v -2345.02734 0.00000 15449.70898
v -2344.96436 -19.99990 15479.19434
v -2345.02734 0.00000 15479.70898
v -2344.77563 0.00000 15447.65039
v -2345.02734 0.00000 15449.70898
v -2344.77563 0.00000 15477.65039
v -2345.02734 0.00000 15479.70898
v -2344.83862 -19.99990 15448.16504
v -2344.77563 0.00000 15447.65039
v -2344.83862 -19.99990 15478.16504
v -2344.77563 0.00000 15477.65039
v -2282.27930 0.00000 15456.91406
v -2282.23340 -19.99990 15456.36328
v -2282.27930 0.00000 15486.91406
v -2282.23340 -19.99990 15486.36328
v -2282.27930 0.00000 15456.91406
v -2282.09644 0.00000 15454.71191
v -2282.27930 0.00000 15486.91406
v -2282.09644 0.00000 15484.71289
v -2282.14209 -19.99990 15455.26270
v -2282.09644 0.00000 15454.71191
v -2282.14209 -19.99990 15485.26270
v -2282.09644 0.00000 15484.71289
v -2010.00012 0.00000 15460.98242
v -2010.00012 -19.99990 15460.48242
v -2010.00012 0.00000 15490.98242
v -2010.00012 -19.99990 15490.48242
v -2010.00012 0.00000 15460.98242
v -2010.00012 0.00000 15458.98242
v -2010.00012 0.00000 15490.98242
v -2010.00012 0.00000 15488.98242
v -2010.00012 -19.99990 15459.48242
v -2010.00012 0.00000 15458.98242
v -2010.00012 -19.99990 15489.48242
v -2010.00012 0.00000 15488.98242
v -2717.67188 -19.99990 15614.23730
v -2990.00000 -19.99990 15619.50000
v -2717.71411 0.00000 15613.74023
v -2990.00000 0.00000 15619.00000
v -2717.54419 0.00000 15615.72852
v -2717.71411 0.00000 15613.74023
v -2990.00000 0.00000 15621.00000
v -2990.00000 0.00000 15619.00000
v -2990.00000 0.00000 15621.00000
v -2990.00000 -19.99990 15620.50000
v -2717.54419 0.00000 15615.72852
v -2717.58691 -19.99990 15615.23145
v -2655.00098 -19.99990 15608.27148
v -2655.06055 0.00000 15607.77637
v -2654.82227 0.00000 15609.75684
v -2655.06055 0.00000 15607.77637
v -2654.82227 0.00000 15609.75684
v -2654.88184 -19.99990 15609.26172
v -2345.02734 0.00000 15550.29102
v -2344.96436 -19.99990 15550.80566
v -2344.77563 0.00000 15552.34961
v -2345.02734 0.00000 15550.29102
v -2344.83862 -19.99990 15551.83496
v -2344.77563 0.00000 15552.34961
v -2282.27930 0.00000 15543.08594
v -2282.23340 -19.99990 15543.63672
v -2282.27930 0.00000 15543.08594
v -2282.09644 0.00000 15545.28711
v -2282.14209 -19.99990 15544.73730
v -2282.09644 0.00000 15545.28711
v -2010.00012 0.00000 15539.01758
v -2010.00012 -19.99990 15539.51758
v -2010.00012 0.00000 15539.01758
v -2010.00012 0.00000 15541.01758
v -2010.00012 -19.99990 15540.51758
v -2010.00012 0.00000 15541.01758
v -2990.00000 -19.99990 15440.50000
v -2717.67188 -19.99990 15445.76270
v -2990.00000 0.00000 15441.00000
v -2717.71411 0.00000 15446.25977
v -2717.54419 0.00000 15444.27148
v -2990.00000 0.00000 15439.00000
v -2717.71411 0.00000 15446.25977
v -2990.00000 0.00000 15441.00000
v -2990.00000 0.00000 15439.00000
v -2717.54419 0.00000 15444.27148
v -2990.00000 -19.99990 15439.50000
v -2717.58691 -19.99990 15444.76855
v -2655.00098 -19.99990 15451.72852
v -2655.06055 0.00000 15452.22363
v -2654.82227 0.00000 15450.24316
v -2655.06055 0.00000 15452.22363
v -2654.82227 0.00000 15450.24316
v -2654.88184 -19.99990 15450.73828
v -2344.96436 -19.99990 15509.19434
v -2345.02734 0.00000 15509.70898
v -2344.77563 0.00000 15507.65039
v -2345.02734 0.00000 15509.70898
v -2344.83862 -19.99990 15508.16504
v -2344.77563 0.00000 15507.65039
v -2282.27930 0.00000 15516.91406
v -2282.23340 -19.99990 15516.36328
v -2282.27930 0.00000 15516.91406
v -2282.09644 0.00000 15514.71289
v -2282.14209 -19.99990 15515.26270
v -2282.09644 0.00000 15514.71289
v -2010.00012 0.00000 15520.98242
v -2010.00012 -19.99990 15520.48242
v -2010.00012 0.00000 15520.98242
v -2010.00012 0.00000 15518.98242
v -2010.00012 -19.99990 15519.48242
v -2010.00012 0.00000 15518.98242
v -1999.99988 -19.99990 15450.00000
v -1999.99988 -19.99990 15610.00000
v -1999.99988 0.00000 15450.00000
v -1999.99988 0.00000 15610.00000
v -1479.99988 -19.99990 15585.29688
v -1479.99988 -19.99990 15474.70313
v -1479.99988 0.00000 15585.29688
v -1479.99988 0.00000 15474.70313
v -1479.99988 -19.99990 15474.70313
v -1319.99988 -19.99990 15474.70313
v -1479.99988 0.00000 15474.70313
v -1319.99988 0.00000 15474.70313
v -1319.99988 -19.99990 15585.29688
v -1479.99988 -19.99990 15585.29688
v -1319.99988 0.00000 15585.29688
v -1479.99988 0.00000 15585.29688
v -1319.99988 -19.99990 15474.70313
v -1319.99988 -19.99990 15585.29688
v -1319.99988 0.00000 15474.70313
v -1319.99988 0.00000 15585.29688
v -779.99988 -19.99990 15585.29688
v -779.99988 -19.99990 15474.70313
v -779.99988 0.00000 15585.29688
v -779.99988 0.00000 15474.70313
v -779.99988 -19.99990 15474.70313
v -619.99988 -19.99990 15474.70313
v -779.99988 0.00000 15474.70313
v -619.99988 0.00000 15474.70313
v -619.99988 -19.99990 15585.29688
v -779.99988 -19.99990 15585.29688
v -619.99988 0.00000 15585.29688
v -779.99988 0.00000 15585.29688
v -619.99988 -19.99990 15474.70313
v -619.99988 -19.99990 15585.29688
v -619.99988 0.00000 15474.70313
v -619.99988 0.00000 15585.29688
v -79.99990 -19.99990 15585.29688
v -79.99990 -19.99990 15474.70313
v -79.99990 0.00000 15585.29688
v -79.99990 0.00000 15474.70313
v 1999.99988 0.00000 15450.00000
v 1999.99988 -19.99990 15450.00000
v -79.99990 -19.99990 15474.70313
v 79.99990 -19.99990 15474.70313
v -79.99990 0.00000 15474.70313
v 79.99990 0.00000 15474.70313
v 79.99990 -19.99990 15585.29688
v -79.99990 -19.99990 15585.29688
v 79.99990 0.00000 15585.29688
v -79.99990 0.00000 15585.29688
v 1999.99988 0.00000 15610.00000
v 1999.99988 -19.99990 15610.00000
v 79.99990 -19.99990 15474.70313
v 79.99990 -19.99990 15585.29688
v 79.99990 0.00000 15474.70313
v 79.99990 0.00000 15585.29688
v 619.99988 -19.99990 15585.29688
v 619.99988 -19.99990 15474.70313
v 619.99988 0.00000 15585.29688
v 619.99988 0.00000 15474.70313
v 619.99988 -19.99990 15474.70313
v 779.99988 -19.99990 15474.70313
v 619.99988 0.00000 15474.70313
v 779.99988 0.00000 15474.70313
v 779.99988 -19.99990 15585.29688
v 619.99988 -19.99990 15585.29688
v 779.99988 0.00000 15585.29688
v 619.99988 0.00000 15585.29688
v 779.99988 -19.99990 15474.70313
v 779.99988 -19.99990 15585.29688
v 779.99988 0.00000 15474.70313
v 779.99988 0.00000 15585.29688
v 1319.99988 -19.99990 15585.29688
v 1319.99988 -19.99990 15474.70313
v 1319.99988 0.00000 15585.29688
v 1319.99988 0.00000 15474.70313
v 1319.99988 -19.99990 15474.70313
v 1479.99988 -19.99990 15474.70313
v 1319.99988 0.00000 15474.70313
v 1479.99988 0.00000 15474.70313
v 1479.99988 -19.99990 15585.29688
v 1319.99988 -19.99990 15585.29688
v 1479.99988 0.00000 15585.29688
v 1319.99988 0.00000 15585.29688
v 1479.99988 -19.99990 15474.70313
v 1479.99988 -19.99990 15585.29688
v 1479.99988 0.00000 15474.70313
v 1479.99988 0.00000 15585.29688
v 2010.00012 -9.94370 15495.09766
v 2010.00012 -20.39480 15497.17969
v 2000.00012 -9.94370 15495.09766
v 2000.00012 -20.39480 15497.17969
v 2010.00012 -9.94370 15525.09766
v 2010.00012 -20.39480 15527.17969
v 2000.00012 -9.94370 15525.09766
v 2000.00012 -20.39480 15527.17969
v 2010.00012 -9.94370 15555.09766
v 2010.00012 -20.39480 15557.17969
v 2000.00012 -9.94370 15555.09766
v 2000.00012 -20.39480 15557.17969
v 2000.00012 -20.39480 15502.81055
v 2010.00012 -20.39480 15502.81055
v 2000.00012 -9.94370 15504.89258
v 2010.00012 -9.94370 15504.89258
v 2000.00012 -20.39480 15532.81055
v 2010.00012 -20.39480 15532.81055
v 2000.00012 -9.94370 15534.89258
v 2010.00012 -9.94370 15534.89258
v 2000.00012 -20.39480 15562.81055
v 2010.00012 -20.39480 15562.81055
v 2000.00012 -9.94370 15564.89258
v 2010.00012 -9.94370 15564.89258
v 2010.00012 -9.94370 15495.09766
v 2000.00012 -9.94370 15495.09766
v 2010.00012 0.00000 15498.66699
v 2000.00012 0.00000 15498.66602
v 2000.00012 0.00000 15501.32422
v 2000.00012 -9.94370 15504.89258
v 2010.00012 0.00000 15501.32422
v 2010.00012 -9.94370 15504.89258
v 2010.00012 -9.94370 15525.09766
v 2000.00012 -9.94370 15525.09766
v 2010.00012 0.00000 15528.66699
v 2000.00012 0.00000 15528.66602
v 2000.00012 0.00000 15531.32422
v 2000.00012 -9.94370 15534.89258
v 2010.00012 0.00000 15531.32422
v 2010.00012 -9.94370 15534.89258
v 2010.00012 -9.94370 15555.09766
v 2000.00012 -9.94370 15555.09766
v 2010.00012 0.00000 15558.66699
v 2000.00012 0.00000 15558.66602
v 2000.00012 0.00000 15561.32422
v 2000.00012 -9.94370 15564.89258
v 2010.00012 0.00000 15561.32422
v 2010.00012 -9.94370 15564.89258
v 2000.00012 0.00000 15501.32422
v 2010.00012 0.00000 15501.32422
v 2000.00012 0.00000 15498.66602
v 2010.00012 0.00000 15498.66699
v 2000.00012 0.00000 15531.32422
v 2010.00012 0.00000 15531.32422
v 2000.00012 0.00000 15528.66602
v 2010.00012 0.00000 15528.66699
v 2000.00012 0.00000 15561.32422
v 2010.00012 0.00000 15561.32422
v 2000.00012 0.00000 15558.66602
v 2010.00012 0.00000 15558.66699
v -2990.00000 -9.94370 15375.09766
v -2990.00000 -20.39480 15377.17969
v -3000.00000 -9.94370 15375.09766
v -3000.00000 -20.39480 15377.17969
v -2990.00000 -9.94370 15405.09766
v -2990.00000 -20.39480 15407.17969
v -3000.00000 -9.94370 15405.09766
v -3000.00000 -20.39480 15407.17969
v -2990.00000 -9.94370 15435.09766
v -2990.00000 -20.39480 15437.17969
v -3000.00000 -9.94370 15435.09766
v -3000.00000 -20.39480 15437.17969
v -3000.00000 -20.39480 15382.81055
v -2990.00000 -20.39480 15382.81055
v -3000.00000 -9.94370 15384.89258
v -2990.00000 -9.94370 15384.89258
v -3000.00000 -20.39480 15412.81055
v -2990.00000 -20.39480 15412.81055
v -3000.00000 -9.94370 15414.89258
v -2990.00000 -9.94370 15414.89258
v -3000.00000 -20.39480 15442.81055
v -2990.00000 -20.39480 15442.81055
v -3000.00000 -9.94370 15444.89258
v -2990.00000 -9.94370 15444.89258
v -2990.00000 -9.94370 15375.09766
v -3000.00000 -9.94370 15375.09766
v -2990.00000 0.00000 15378.66699
v -3000.00000 0.00000 15378.66602
v -3000.00000 0.00000 15381.32422
v -3000.00000 -9.94370 15384.89258
v -2990.00000 0.00000 15381.32422
v -2990.00000 -9.94370 15384.89258
v -2990.00000 -9.94370 15405.09766
v -3000.00000 -9.94370 15405.09766
v -2990.00000 0.00000 15408.66699
v -3000.00000 0.00000 15408.66602
v -3000.00000 0.00000 15411.32422
v -3000.00000 -9.94370 15414.89258
v -2990.00000 0.00000 15411.32422
v -2990.00000 -9.94370 15414.89258
v -2990.00000 -9.94370 15435.09766
v -3000.00000 -9.94370 15435.09766
v -2990.00000 0.00000 15438.66699
v -3000.00000 0.00000 15438.66602
v -3000.00000 0.00000 15441.32422
v -3000.00000 -9.94370 15444.89258
v -2990.00000 0.00000 15441.32422
v -2990.00000 -9.94370 15444.89258
v -3000.00000 0.00000 15381.32422
v -2990.00000 0.00000 15381.32422
v -3000.00000 0.00000 15378.66602
v -2990.00000 0.00000 15378.66699
v -3000.00000 0.00000 15411.32422
v -2990.00000 0.00000 15411.32422
v -3000.00000 0.00000 15408.66602
v -2990.00000 0.00000 15408.66699
v -3000.00000 0.00000 15441.32422
v -2990.00000 0.00000 15441.32422
v -3000.00000 0.00000 15438.66602
v -2990.00000 0.00000 15438.66699
v -2990.00000 -9.94370 15615.09766
v -2990.00000 -20.39480 15617.17969
v -3000.00000 -9.94370 15615.09766
v -3000.00000 -20.39480 15617.17969
v -2990.00000 -9.94370 15645.09766
v -2990.00000 -20.39480 15647.17969
v -3000.00000 -9.94370 15645.09766
v -3000.00000 -20.39480 15647.17969
v -2990.00000 -9.94370 15675.09766
v -2990.00000 -20.39480 15677.17969
v -3000.00000 -9.94370 15675.09766
v -3000.00000 -20.39480 15677.17969
v -3000.00000 -20.39480 15622.81055
v -2990.00000 -20.39480 15622.81055
v -3000.00000 -9.94370 15624.89258
v -2990.00000 -9.94370 15624.89258
v -3000.00000 -20.39480 15652.81055
v -2990.00000 -20.39480 15652.81055
v -3000.00000 -9.94370 15654.89258
v -2990.00000 -9.94370 15654.89258
v -3000.00000 -20.39480 15682.81055
v -2990.00000 -20.39480 15682.81055
v -3000.00000 -9.94370 15684.89258
v -2990.00000 -9.94370 15684.89258
v -2990.00000 -9.94370 15615.09766
v -3000.00000 -9.94370 15615.09766
v -2990.00000 0.00000 15618.66699
v -3000.00000 0.00000 15618.66602
v -3000.00000 0.00000 15621.32422
v -3000.00000 -9.94370 15624.89258
v -2990.00000 0.00000 15621.32422
v -2990.00000 -9.94370 15624.89258
v -2990.00000 -9.94370 15645.09766
v -3000.00000 -9.94370 15645.09766
v -2990.00000 0.00000 15648.66699
v -3000.00000 0.00000 15648.66602
v -3000.00000 0.00000 15651.32422
v -3000.00000 -9.94370 15654.89258
v -2990.00000 0.00000 15651.32422
v -2990.00000 -9.94370 15654.89258
v -2990.00000 -9.94370 15675.09766
v -3000.00000 -9.94370 15675.09766
v -2990.00000 0.00000 15678.66699
v -3000.00000 0.00000 15678.66602
v -3000.00000 0.00000 15681.32422
v -3000.00000 -9.94370 15684.89258
v -2990.00000 0.00000 15681.32422
v -2990.00000 -9.94370 15684.89258
v -3000.00000 0.00000 15621.32422
v -2990.00000 0.00000 15621.32422
v -3000.00000 0.00000 15618.66602
v -2990.00000 0.00000 15618.66699
v -3000.00000 0.00000 15651.32422
v -2990.00000 0.00000 15651.32422
v -3000.00000 0.00000 15648.66602
v -2990.00000 0.00000 15648.66699
v -3000.00000 0.00000 15681.32422
v -2990.00000 0.00000 15681.32422
v -3000.00000 0.00000 15678.66602
v -2990.00000 0.00000 15678.66699
v -2010.00012 -9.94370 15544.90234
v -2010.00012 -20.39480 15542.82031
v -2000.00012 -9.94370 15544.90234
v -2000.00012 -20.39480 15542.82031
v -2010.00012 -9.94370 15574.90234
v -2010.00012 -20.39480 15572.82031
v -2000.00012 -9.94370 15574.90234
v -2000.00012 -20.39480 15572.82031
v -2010.00012 -9.94370 15604.90234
v -2010.00012 -20.39480 15602.82031
v -2000.00012 -9.94370 15604.90234
v -2000.00012 -20.39480 15602.82031
v -2000.00012 -20.39480 15537.18945
v -2010.00012 -20.39480 15537.18945
v -2000.00012 -9.94370 15535.10742
v -2010.00012 -9.94370 15535.10742
v -2000.00012 -20.39480 15567.18945
v -2010.00012 -20.39480 15567.18945
v -2000.00012 -9.94370 15565.10742
v -2010.00012 -9.94370 15565.10742
v -2000.00012 -20.39480 15597.18945
v -2010.00012 -20.39480 15597.18945
v -2000.00012 -9.94370 15595.10742
v -2010.00012 -9.94370 15595.10742
v -2000.00012 0.00000 15538.67578
v -2000.00012 -9.94370 15535.10742
v -2010.00012 0.00000 15538.67578
v -2010.00012 -9.94370 15535.10742
v -2010.00012 -9.94370 15544.90234
v -2000.00012 -9.94370 15544.90234
v -2010.00012 0.00000 15541.33301
v -2000.00012 0.00000 15541.33398
v -2000.00012 0.00000 15568.67578
v -2000.00012 -9.94370 15565.10742
v -2010.00012 0.00000 15568.67578
v -2010.00012 -9.94370 15565.10742
v -2010.00012 -9.94370 15574.90234
v -2000.00012 -9.94370 15574.90234
v -2010.00012 0.00000 15571.33301
v -2000.00012 0.00000 15571.33398
v -2000.00012 0.00000 15598.67578
v -2000.00012 -9.94370 15595.10742
v -2010.00012 0.00000 15598.67578
v -2010.00012 -9.94370 15595.10742
v -2010.00012 -9.94370 15604.90234
v -2000.00012 -9.94370 15604.90234
v -2010.00012 0.00000 15601.33301
v -2000.00012 0.00000 15601.33398
v -2000.00012 0.00000 15538.67578
v -2010.00012 0.00000 15538.67578
v -2000.00012 0.00000 15541.33398
v -2010.00012 0.00000 15541.33301
v -2000.00012 0.00000 15568.67578
v -2010.00012 0.00000 15568.67578
v -2000.00012 0.00000 15571.33398
v -2010.00012 0.00000 15571.33301
v -2000.00012 0.00000 15598.67578
v -2010.00012 0.00000 15598.67578
v -2000.00012 0.00000 15601.33398
v -2010.00012 0.00000 15601.33301
v -2010.00012 -9.94370 15464.90234
v -2010.00012 -20.39480 15462.82031
v -2000.00012 -9.94370 15464.90234
v -2000.00012 -20.39480 15462.82031
v -2010.00012 -9.94370 15494.90234
v -2010.00012 -20.39480 15492.82031
v -2000.00012 -9.94370 15494.90234
v -2000.00012 -20.39480 15492.82031
v -2010.00012 -9.94370 15524.90234
v -2010.00012 -20.39480 15522.82031
v -2000.00012 -9.94370 15524.90234
v -2000.00012 -20.39480 15522.82031
v -2000.00012 -20.39480 15457.18945
v -2010.00012 -20.39480 15457.18945
v -2000.00012 -9.94370 15455.10742
v -2010.00012 -9.94370 15455.10742
v -2000.00012 -20.39480 15487.18945
v -2010.00012 -20.39480 15487.18945
v -2000.00012 -9.94370 15485.10742
v -2010.00012 -9.94370 15485.10742
v -2000.00012 -20.39480 15517.18945
v -2010.00012 -20.39480 15517.18945
v -2000.00012 -9.94370 15515.10742
v -2010.00012 -9.94370 15515.10742
v -2000.00012 0.00000 15458.67578
v -2000.00012 -9.94370 15455.10742
v -2010.00012 0.00000 15458.67578
v -2010.00012 -9.94370 15455.10742
v -2010.00012 -9.94370 15464.90234
v -2000.00012 -9.94370 15464.90234
v -2010.00012 0.00000 15461.33301
v -2000.00012 0.00000 15461.33398
v -2000.00012 0.00000 15488.67578
v -2000.00012 -9.94370 15485.10742
v -2010.00012 0.00000 15488.67578
v -2010.00012 -9.94370 15485.10742
v -2010.00012 -9.94370 15494.90234
v -2000.00012 -9.94370 15494.90234
v -2010.00012 0.00000 15491.33301
v -2000.00012 0.00000 15491.33398
v -2000.00012 0.00000 15518.67578
v -2000.00012 -9.94370 15515.10742
v -2010.00012 0.00000 15518.67578
v -2010.00012 -9.94370 15515.10742
v -2010.00012 -9.94370 15524.90234
v -2000.00012 -9.94370 15524.90234
v -2010.00012 0.00000 15521.33301
v -2000.00012 0.00000 15521.33398
v -2000.00012 0.00000 15458.67578
v -2010.00012 0.00000 15458.67578
v -2000.00012 0.00000 15461.33398
v -2010.00012 0.00000 15461.33301
v -2000.00012 0.00000 15488.67578
v -2010.00012 0.00000 15488.67578
v -2000.00012 0.00000 15491.33398
v -2010.00012 0.00000 15491.33301
v -2000.00012 0.00000 15518.67578
v -2010.00012 0.00000 15518.67578
v -2000.00012 0.00000 15521.33398
v -2010.00012 0.00000 15521.33301
v 2010.00012 -9.94370 15495.09766
v 2010.00012 -9.94370 15504.89258
v 2010.00012 -20.39480 15497.17969
v 2010.00012 -20.39480 15502.81055
v 2010.00012 -9.94370 15525.09766
v 2010.00012 -9.94370 15534.89258
v 2010.00012 -20.39480 15527.17969
v 2010.00012 -20.39480 15532.81055
v 2010.00012 -9.94370 15555.09766
v 2010.00012 -9.94370 15564.89258
v 2010.00012 -20.39480 15557.17969
v 2010.00012 -20.39480 15562.81055
v 2010.00012 0.00000 15498.66699
v 2010.00012 0.00000 15501.32422
v 2010.00012 0.00000 15528.66699
v 2010.00012 0.00000 15531.32422
v 2010.00012 0.00000 15558.66699
v 2010.00012 0.00000 15561.32422
v -2990.00000 -9.94370 15375.09766
v -2990.00000 -9.94370 15384.89258
v -2990.00000 -20.39480 15377.17969
v -2990.00000 -20.39480 15382.81055
v -2990.00000 -9.94370 15405.09766
v -2990.00000 -9.94370 15414.89258
v -2990.00000 -20.39480 15407.17969
v -2990.00000 -20.39480 15412.81055
v -2990.00000 -9.94370 15435.09766
v -2990.00000 -9.94370 15444.89258
v -2990.00000 -20.39480 15437.17969
v -2990.00000 -20.39480 15442.81055
v -2990.00000 0.00000 15378.66699
v -2990.00000 0.00000 15381.32422
v -2990.00000 0.00000 15408.66699
v -2990.00000 0.00000 15411.32422
v -2990.00000 0.00000 15438.66699
v -2990.00000 0.00000 15441.32422
v -2990.00000 -9.94370 15615.09766
v -2990.00000 -9.94370 15624.89258
v -2990.00000 -20.39480 15617.17969
v -2990.00000 -20.39480 15622.81055
v -2990.00000 -9.94370 15645.09766
v -2990.00000 -9.94370 15654.89258
v -2990.00000 -20.39480 15647.17969
v -2990.00000 -20.39480 15652.81055
v -2990.00000 -9.94370 15675.09766
v -2990.00000 -9.94370 15684.89258
v -2990.00000 -20.39480 15677.17969
v -2990.00000 -20.39480 15682.81055
v -2990.00000 0.00000 15618.66699
v -2990.00000 0.00000 15621.32422
v -2990.00000 0.00000 15648.66699
v -2990.00000 0.00000 15651.32422
v -2990.00000 0.00000 15678.66699
v -2990.00000 0.00000 15681.32422
v -2010.00012 -9.94370 15544.90234
v -2010.00012 -9.94370 15535.10742
v -2010.00012 -20.39480 15542.82031
v -2010.00012 -20.39480 15537.18945
v -2010.00012 -9.94370 15574.90234
v -2010.00012 -9.94370 15565.10742
v -2010.00012 -20.39480 15572.82031
v -2010.00012 -20.39480 15567.18945
v -2010.00012 -9.94370 15604.90234
v -2010.00012 -9.94370 15595.10742
v -2010.00012 -20.39480 15602.82031
v -2010.00012 -20.39480 15597.18945
v -2010.00012 0.00000 15541.33301
v -2010.00012 0.00000 15538.67578
v -2010.00012 0.00000 15571.33301
v -2010.00012 0.00000 15568.67578
v -2010.00012 0.00000 15601.33301
v -2010.00012 0.00000 15598.67578
v -2010.00012 -9.94370 15464.90234
v -2010.00012 -9.94370 15455.10742
v -2010.00012 -20.39480 15462.82031
v -2010.00012 -20.39480 15457.18945
v -2010.00012 -9.94370 15494.90234
v -2010.00012 -9.94370 15485.10742
v -2010.00012 -20.39480 15492.82031
v -2010.00012 -20.39480 15487.18945
v -2010.00012 -9.94370 15524.90234
v -2010.00012 -9.94370 15515.10742
v -2010.00012 -20.39480 15522.82031
v -2010.00012 -20.39480 15517.18945
v -2010.00012 0.00000 15461.33301
v -2010.00012 0.00000 15458.67578
v -2010.00012 0.00000 15491.33301
v -2010.00012 0.00000 15488.67578
v -2010.00012 0.00000 15521.33301
v -2010.00012 0.00000 15518.67578

vt 10.99460 0.00150 
vt 14.99260 0.00150 
vt 10.99460 0.16390 
vt 14.99260 0.16390 
vt 10.99460 0.50120 
vt 14.99260 0.50120 
vt 10.99460 0.66360 
vt 14.99260 0.66360 
vt 10.99460 0.31580 
vt 10.99460 0.16390 
vt 14.99260 0.31580 
vt 14.99260 0.16390 
vt 10.99460 0.81550 
vt 10.99460 0.66360 
vt 14.99260 0.81550 
vt 14.99260 0.66360 
vt 14.99260 0.31580 
vt 14.99260 0.49870 
vt 10.99460 0.31580 
vt 10.99460 0.49870 
vt 14.99260 0.81550 
vt 14.99260 0.99840 
vt 10.99460 0.81550 
vt 10.99460 0.99840 
vt 9.99500 0.00150 
vt 9.99500 0.16390 
vt 9.99500 0.50120 
vt 9.99500 0.66360 
vt 9.99500 0.31580 
vt 9.99500 0.16390 
vt 9.99500 0.81550 
vt 9.99500 0.66360 
vt 9.99500 0.31580 
vt 9.99500 0.49870 
vt 9.99500 0.81550 
vt 9.99500 0.99840 
vt 4.99750 0.16390 
vt 4.99750 0.00150 
vt 4.99750 0.66360 
vt 4.99750 0.50120 
vt 4.99750 0.31580 
vt 4.99750 0.16390 
vt 4.99750 0.81550 
vt 4.99750 0.66360 
vt 4.99750 0.49870 
vt 4.99750 0.31580 
vt 4.99750 0.99840 
vt 4.99750 0.81550 
vt 3.99800 0.16390 
vt 3.99800 0.00150 
vt 3.99800 0.66360 
vt 3.99800 0.50120 
vt 3.99800 0.16390 
vt 3.99800 0.31580 
vt 3.99800 0.66360 
vt 3.99800 0.81550 
vt 3.99800 0.49870 
vt 3.99800 0.31580 
vt 3.99800 0.99840 
vt 3.99800 0.81550 
vt 0.00000 0.16390 
vt 0.00000 0.00150 
vt 0.00000 0.66360 
vt 0.00000 0.50120 
vt 0.00000 0.16390 
vt 0.00000 0.31580 
vt 0.00000 0.66360 
vt 0.00000 0.81550 
vt 0.00000 0.49870 
vt 0.00000 0.31580 
vt 0.00000 0.99840 
vt 0.00000 0.81550 
vt 14.99260 0.50120 
vt 10.99460 0.50120 
vt 14.99260 0.66360 
vt 10.99460 0.66360 
vt 14.99260 0.00150 
vt 10.99460 0.00150 
vt 14.99260 0.16390 
vt 10.99460 0.16390 
vt 10.99460 0.81550 
vt 14.99260 0.81550 
vt 10.99460 0.66360 
vt 14.99260 0.66360 
vt 10.99460 0.31580 
vt 14.99260 0.31580 
vt 10.99460 0.16390 
vt 14.99260 0.16390 
vt 14.99260 0.81550 
vt 10.99460 0.81550 
vt 14.99260 0.99840 
vt 10.99460 0.99840 
vt 14.99260 0.31580 
vt 10.99460 0.31580 
vt 14.99260 0.49870 
vt 10.99460 0.49870 
vt 9.99500 0.50120 
vt 9.99500 0.66360 
vt 9.99500 0.00150 
vt 9.99500 0.16390 
vt 9.99500 0.81550 
vt 9.99500 0.66360 
vt 9.99500 0.31580 
vt 9.99500 0.16390 
vt 9.99500 0.81550 
vt 9.99500 0.99840 
vt 9.99500 0.31580 
vt 9.99500 0.49870 
vt 4.99750 0.50120 
vt 4.99750 0.66360 
vt 4.99750 0.00150 
vt 4.99750 0.16390 
vt 4.99750 0.81550 
vt 4.99750 0.66360 
vt 4.99750 0.31580 
vt 4.99750 0.16390 
vt 4.99750 0.99840 
vt 4.99750 0.81550 
vt 4.99750 0.49870 
vt 4.99750 0.31580 
vt 3.99800 0.66360 
vt 3.99800 0.50120 
vt 3.99800 0.16390 
vt 3.99800 0.00150 
vt 3.99800 0.66360 
vt 3.99800 0.81550 
vt 3.99800 0.16390 
vt 3.99800 0.31580 
vt 3.99800 0.99840 
vt 3.99800 0.81550 
vt 3.99800 0.49870 
vt 3.99800 0.31580 
vt 0.00000 0.66360 
vt 0.00000 0.50120 
vt 0.00000 0.16390 
vt 0.00000 0.00150 
vt 0.00000 0.66360 
vt 0.00000 0.81550 
vt 0.00000 0.16390 
vt 0.00000 0.31580 
vt 0.00000 0.99840 
vt 0.00000 0.81550 
vt 0.00000 0.49870 
vt 0.00000 0.31580 
vt 10.99460 0.00150 
vt 14.99260 0.00150 
vt 10.99460 0.16390 
vt 14.99260 0.16390 
vt 10.99460 0.31580 
vt 10.99460 0.16390 
vt 14.99260 0.31580 
vt 14.99260 0.16390 
vt 14.99260 0.31580 
vt 14.99260 0.49870 
vt 10.99460 0.31580 
vt 10.99460 0.49870 
vt 9.99500 0.00150 
vt 9.99500 0.16390 
vt 9.99500 0.31580 
vt 9.99500 0.16390 
vt 9.99500 0.31580 
vt 9.99500 0.49870 
vt 4.99750 0.16390 
vt 4.99750 0.00150 
vt 4.99750 0.31580 
vt 4.99750 0.16390 
vt 4.99750 0.49870 
vt 4.99750 0.31580 
vt 3.99800 0.16390 
vt 3.99800 0.00150 
vt 3.99800 0.16390 
vt 3.99800 0.31580 
vt 3.99800 0.49870 
vt 3.99800 0.31580 
vt 0.00000 0.16390 
vt 0.00000 0.00150 
vt 0.00000 0.16390 
vt 0.00000 0.31580 
vt 0.00000 0.49870 
vt 0.00000 0.31580 
vt 14.99260 0.00150 
vt 10.99460 0.00150 
vt 14.99260 0.16390 
vt 10.99460 0.16390 
vt 10.99460 0.31580 
vt 14.99260 0.31580 
vt 10.99460 0.16390 
vt 14.99260 0.16390 
vt 14.99260 0.31580 
vt 10.99460 0.31580 
vt 14.99260 0.49870 
vt 10.99460 0.49870 
vt 9.99500 0.00150 
vt 9.99500 0.16390 
vt 9.99500 0.31580 
vt 9.99500 0.16390 
vt 9.99500 0.31580 
vt 9.99500 0.49870 
vt 4.99750 0.00150 
vt 4.99750 0.16390 
vt 4.99750 0.31580 
vt 4.99750 0.16390 
vt 4.99750 0.49870 
vt 4.99750 0.31580 
vt 3.99800 0.16390 
vt 3.99800 0.00150 
vt 3.99800 0.16390 
vt 3.99800 0.31580 
vt 3.99800 0.49870 
vt 3.99800 0.31580 
vt 0.00000 0.16390 
vt 0.00000 0.00150 
vt 0.00000 0.16390 
vt 0.00000 0.31580 
vt 0.00000 0.49870 
vt 0.00000 0.31580 
vt 56.24590 -0.64390 
vt 60.23980 -0.64390 
vt 56.24440 -0.00300 
vt 60.23840 -0.00300 
vt -0.99990 2.49990 
vt -2.49990 2.49990 
vt -0.99990 2.99990 
vt -2.49990 2.99990 
vt -2.49990 2.49990 
vt -5.49990 2.49990 
vt -2.49990 2.99990 
vt -5.49990 2.99990 
vt -3.99990 2.49990 
vt -0.99990 2.49990 
vt -3.99990 2.99990 
vt -0.99990 2.99990 
vt -5.49990 2.49990 
vt -3.99990 2.49990 
vt -5.49990 2.99990 
vt -3.99990 2.99990 
vt -0.99990 2.49990 
vt -2.49990 2.49990 
vt -0.99990 2.99990 
vt -2.49990 2.99990 
vt -2.49990 2.49990 
vt -5.49990 2.49990 
vt -2.49990 2.99990 
vt -5.49990 2.99990 
vt -3.99990 2.49990 
vt -0.99990 2.49990 
vt -3.99990 2.99990 
vt -0.99990 2.99990 
vt -5.49990 2.49990 
vt -3.99990 2.49990 
vt -5.49990 2.99990 
vt -3.99990 2.99990 
vt -0.99990 2.49990 
vt -2.49990 2.49990 
vt -0.99990 2.99990 
vt -2.49990 2.99990 
vt -5.25480 -0.00300 
vt -5.25620 -0.64390 
vt -2.49990 2.49990 
vt -5.49990 2.49990 
vt -2.49990 2.99990 
vt -5.49990 2.99990 
vt -3.99990 2.49990 
vt -0.99990 2.49990 
vt -3.99990 2.99990 
vt -0.99990 2.99990 
vt -1.26090 -0.00300 
vt -1.26230 -0.64390 
vt -5.49990 2.49990 
vt -3.99990 2.49990 
vt -5.49990 2.99990 
vt -3.99990 2.99990 
vt -0.99990 2.49990 
vt -2.49990 2.49990 
vt -0.99990 2.99990 
vt -2.49990 2.99990 
vt -2.49990 2.49990 
vt -5.49990 2.49990 
vt -2.49990 2.99990 
vt -5.49990 2.99990 
vt -3.99990 2.49990 
vt -0.99990 2.49990 
vt -3.99990 2.99990 
vt -0.99990 2.99990 
vt -5.49990 2.49990 
vt -3.99990 2.49990 
vt -5.49990 2.99990 
vt -3.99990 2.99990 
vt -0.99990 2.49990 
vt -2.49990 2.49990 
vt -0.99990 2.99990 
vt -2.49990 2.99990 
vt -2.49990 2.49990 
vt -5.49990 2.49990 
vt -2.49990 2.99990 
vt -5.49990 2.99990 
vt -3.99990 2.49990 
vt -0.99990 2.49990 
vt -3.99990 2.99990 
vt -0.99990 2.99990 
vt -5.49990 2.49990 
vt -3.99990 2.49990 
vt -5.49990 2.99990 
vt -3.99990 2.99990 
vt -0.99990 5.00000 
vt -1.99990 5.00000 
vt -0.99990 4.00010 
vt -1.99990 4.00010 
vt -0.99990 5.00000 
vt -1.99990 5.00000 
vt -0.99990 4.00010 
vt -1.99990 4.00010 
vt -0.99990 5.00000 
vt -1.99990 5.00000 
vt -0.99990 4.00010 
vt -1.99990 4.00010 
vt -2.74990 4.00010 
vt -2.74990 5.00000 
vt -3.74990 4.00010 
vt -3.74990 5.00000 
vt -2.74990 4.00010 
vt -2.74990 5.00000 
vt -3.74990 4.00010 
vt -3.74990 5.00000 
vt -2.74990 4.00010 
vt -2.74990 5.00000 
vt -3.74990 4.00010 
vt -3.74990 5.00000 
vt -0.99990 5.00000 
vt -0.99990 4.00010 
vt 0.00000 5.00000 
vt 0.00000 4.00010 
vt -4.74990 4.00010 
vt -3.74990 4.00010 
vt -4.74990 5.00000 
vt -3.74990 5.00000 
vt -0.99990 5.00000 
vt -0.99990 4.00010 
vt 0.00000 5.00000 
vt 0.00000 4.00010 
vt -4.74990 4.00010 
vt -3.74990 4.00010 
vt -4.74990 5.00000 
vt -3.74990 5.00000 
vt -0.99990 5.00000 
vt -0.99990 4.00010 
vt 0.00000 5.00000 
vt 0.00000 4.00010 
vt -4.74990 4.00010 
vt -3.74990 4.00010 
vt -4.74990 5.00000 
vt -3.74990 5.00000 
vt -4.74990 4.00010 
vt -4.74990 5.00000 
vt -4.99990 4.00010 
vt -4.99990 5.00000 
vt -4.74990 4.00010 
vt -4.74990 5.00000 
vt -4.99990 4.00010 
vt -4.99990 5.00000 
vt -4.74990 4.00010 
vt -4.74990 5.00000 
vt -4.99990 4.00010 
vt -4.99990 5.00000 
vt -0.99990 5.00000 
vt -1.99990 5.00000 
vt -0.99990 4.00010 
vt -1.99990 4.00010 
vt -0.99990 5.00000 
vt -1.99990 5.00000 
vt -0.99990 4.00010 
vt -1.99990 4.00010 
vt -0.99990 5.00000 
vt -1.99990 5.00000 
vt -0.99990 4.00010 
vt -1.99990 4.00010 
vt -2.74990 4.00010 
vt -2.74990 5.00000 
vt -3.74990 4.00010 
vt -3.74990 5.00000 
vt -2.74990 4.00010 
vt -2.74990 5.00000 
vt -3.74990 4.00010 
vt -3.74990 5.00000 
vt -2.74990 4.00010 
vt -2.74990 5.00000 
vt -3.74990 4.00010 
vt -3.74990 5.00000 
vt -0.99990 5.00000 
vt -0.99990 4.00010 
vt 0.00000 5.00000 
vt 0.00000 4.00010 
vt -4.74990 4.00010 
vt -3.74990 4.00010 
vt -4.74990 5.00000 
vt -3.74990 5.00000 
vt -0.99990 5.00000 
vt -0.99990 4.00010 
vt 0.00000 5.00000 
vt 0.00000 4.00010 
vt -4.74990 4.00010 
vt -3.74990 4.00010 
vt -4.74990 5.00000 
vt -3.74990 5.00000 
vt -0.99990 5.00000 
vt -0.99990 4.00010 
vt 0.00000 5.00000 
vt 0.00000 4.00010 
vt -4.74990 4.00010 
vt -3.74990 4.00010 
vt -4.74990 5.00000 
vt -3.74990 5.00000 
vt -4.74990 4.00010 
vt -4.74990 5.00000 
vt -4.99990 4.00010 
vt -4.99990 5.00000 
vt -4.74990 4.00010 
vt -4.74990 5.00000 
vt -4.99990 4.00010 
vt -4.99990 5.00000 
vt -4.74990 4.00010 
vt -4.74990 5.00000 
vt -4.99990 4.00010 
vt -4.99990 5.00000 
vt -0.99990 5.00000 
vt -1.99990 5.00000 
vt -0.99990 4.00010 
vt -1.99990 4.00010 
vt -0.99990 5.00000 
vt -1.99990 5.00000 
vt -0.99990 4.00010 
vt -1.99990 4.00010 
vt -0.99990 5.00000 
vt -1.99990 5.00000 
vt -0.99990 4.00010 
vt -1.99990 4.00010 
vt -2.74990 4.00010 
vt -2.74990 5.00000 
vt -3.74990 4.00010 
vt -3.74990 5.00000 
vt -2.74990 4.00010 
vt -2.74990 5.00000 
vt -3.74990 4.00010 
vt -3.74990 5.00000 
vt -2.74990 4.00010 
vt -2.74990 5.00000 
vt -3.74990 4.00010 
vt -3.74990 5.00000 
vt -0.99990 5.00000 
vt -0.99990 4.00010 
vt 0.00000 5.00000 
vt 0.00000 4.00010 
vt -4.74990 4.00010 
vt -3.74990 4.00010 
vt -4.74990 5.00000 
vt -3.74990 5.00000 
vt -0.99990 5.00000 
vt -0.99990 4.00010 
vt 0.00000 5.00000 
vt 0.00000 4.00010 
vt -4.74990 4.00010 
vt -3.74990 4.00010 
vt -4.74990 5.00000 
vt -3.74990 5.00000 
vt -0.99990 5.00000 
vt -0.99990 4.00010 
vt 0.00000 5.00000 
vt 0.00000 4.00010 
vt -4.74990 4.00010 
vt -3.74990 4.00010 
vt -4.74990 5.00000 
vt -3.74990 5.00000 
vt -4.74990 4.00010 
vt -4.74990 5.00000 
vt -4.99990 4.00010 
vt -4.99990 5.00000 
vt -4.74990 4.00010 
vt -4.74990 5.00000 
vt -4.99990 4.00010 
vt -4.99990 5.00000 
vt -4.74990 4.00010 
vt -4.74990 5.00000 
vt -4.99990 4.00010 
vt -4.99990 5.00000 
vt -0.99990 5.00000 
vt -1.99990 5.00000 
vt -0.99990 4.00010 
vt -1.99990 4.00010 
vt -0.99990 5.00000 
vt -1.99990 5.00000 
vt -0.99990 4.00010 
vt -1.99990 4.00010 
vt -0.99990 5.00000 
vt -1.99990 5.00000 
vt -0.99990 4.00010 
vt -1.99990 4.00010 
vt -2.74990 4.00010 
vt -2.74990 5.00000 
vt -3.74990 4.00010 
vt -3.74990 5.00000 
vt -2.74990 4.00010 
vt -2.74990 5.00000 
vt -3.74990 4.00010 
vt -3.74990 5.00000 
vt -2.74990 4.00010 
vt -2.74990 5.00000 
vt -3.74990 4.00010 
vt -3.74990 5.00000 
vt -4.74990 4.00010 
vt -3.74990 4.00010 
vt -4.74990 5.00000 
vt -3.74990 5.00000 
vt -0.99990 5.00000 
vt -0.99990 4.00010 
vt 0.00000 5.00000 
vt 0.00000 4.00010 
vt -4.74990 4.00010 
vt -3.74990 4.00010 
vt -4.74990 5.00000 
vt -3.74990 5.00000 
vt -0.99990 5.00000 
vt -0.99990 4.00010 
vt 0.00000 5.00000 
vt 0.00000 4.00010 
vt -4.74990 4.00010 
vt -3.74990 4.00010 
vt -4.74990 5.00000 
vt -3.74990 5.00000 
vt -0.99990 5.00000 
vt -0.99990 4.00010 
vt 0.00000 5.00000 
vt 0.00000 4.00010 
vt -4.74990 4.00010 
vt -4.74990 5.00000 
vt -4.99990 4.00010 
vt -4.99990 5.00000 
vt -4.74990 4.00010 
vt -4.74990 5.00000 
vt -4.99990 4.00010 
vt -4.99990 5.00000 
vt -4.74990 4.00010 
vt -4.74990 5.00000 
vt -4.99990 4.00010 
vt -4.99990 5.00000 
vt -0.99990 5.00000 
vt -1.99990 5.00000 
vt -0.99990 4.00010 
vt -1.99990 4.00010 
vt -0.99990 5.00000 
vt -1.99990 5.00000 
vt -0.99990 4.00010 
vt -1.99990 4.00010 
vt -0.99990 5.00000 
vt -1.99990 5.00000 
vt -0.99990 4.00010 
vt -1.99990 4.00010 
vt -2.74990 4.00010 
vt -2.74990 5.00000 
vt -3.74990 4.00010 
vt -3.74990 5.00000 
vt -2.74990 4.00010 
vt -2.74990 5.00000 
vt -3.74990 4.00010 
vt -3.74990 5.00000 
vt -2.74990 4.00010 
vt -2.74990 5.00000 
vt -3.74990 4.00010 
vt -3.74990 5.00000 
vt -4.74990 4.00010 
vt -3.74990 4.00010 
vt -4.74990 5.00000 
vt -3.74990 5.00000 
vt -0.99990 5.00000 
vt -0.99990 4.00010 
vt 0.00000 5.00000 
vt 0.00000 4.00010 
vt -4.74990 4.00010 
vt -3.74990 4.00010 
vt -4.74990 5.00000 
vt -3.74990 5.00000 
vt -0.99990 5.00000 
vt -0.99990 4.00010 
vt 0.00000 5.00000 
vt 0.00000 4.00010 
vt -4.74990 4.00010 
vt -3.74990 4.00010 
vt -4.74990 5.00000 
vt -3.74990 5.00000 
vt -0.99990 5.00000 
vt -0.99990 4.00010 
vt 0.00000 5.00000 
vt 0.00000 4.00010 
vt -4.74990 4.00010 
vt -4.74990 5.00000 
vt -4.99990 4.00010 
vt -4.99990 5.00000 
vt -4.74990 4.00010 
vt -4.74990 5.00000 
vt -4.99990 4.00010 
vt -4.99990 5.00000 
vt -4.74990 4.00010 
vt -4.74990 5.00000 
vt -4.99990 4.00010 
vt -4.99990 5.00000 
vt -1.91300 1.00010 
vt -1.58700 1.00010 
vt -1.83130 0.52070 
vt -1.66860 0.52070 
vt -1.91300 1.00010 
vt -1.58700 1.00010 
vt -1.83130 0.52070 
vt -1.66860 0.52070 
vt -1.91290 1.00010 
vt -1.58700 1.00010 
vt -1.83130 0.52070 
vt -1.66860 0.52070 
vt -1.83130 0.52070 
vt -1.66860 0.52070 
vt -1.83130 0.52070 
vt -1.66860 0.52070 
vt -1.83130 0.52070 
vt -1.66860 0.52070 
vt -1.91300 1.00010 
vt -1.58700 1.00010 
vt -1.83130 0.52070 
vt -1.66860 0.52070 
vt -1.91300 1.00010 
vt -1.58700 1.00010 
vt -1.83130 0.52070 
vt -1.66860 0.52070 
vt -1.91290 1.00010 
vt -1.58700 1.00010 
vt -1.83130 0.52070 
vt -1.66860 0.52070 
vt -1.83130 0.52070 
vt -1.66860 0.52070 
vt -1.83130 0.52070 
vt -1.66860 0.52070 
vt -1.83130 0.52070 
vt -1.66860 0.52070 
vt -1.91300 1.00010 
vt -1.58700 1.00010 
vt -1.83130 0.52070 
vt -1.66860 0.52070 
vt -1.91300 1.00010 
vt -1.58700 1.00010 
vt -1.83130 0.52070 
vt -1.66860 0.52070 
vt -1.91290 1.00010 
vt -1.58700 1.00010 
vt -1.83130 0.52070 
vt -1.66860 0.52070 
vt -1.83130 0.52070 
vt -1.66860 0.52070 
vt -1.83130 0.52070 
vt -1.66860 0.52070 
vt -1.83130 0.52070 
vt -1.66860 0.52070 
vt -1.91290 1.00010 
vt -1.58700 1.00010 
vt -1.83130 0.52070 
vt -1.66860 0.52070 
vt -1.91300 1.00010 
vt -1.58700 1.00010 
vt -1.83130 0.52070 
vt -1.66860 0.52070 
vt -1.91300 1.00010 
vt -1.58700 1.00010 
vt -1.83130 0.52070 
vt -1.66860 0.52070 
vt -1.83130 0.52070 
vt -1.66860 0.52070 
vt -1.83130 0.52070 
vt -1.66860 0.52070 
vt -1.83130 0.52070 
vt -1.66860 0.52070 
vt -1.91290 1.00010 
vt -1.58700 1.00010 
vt -1.83130 0.52070 
vt -1.66860 0.52070 
vt -1.91300 1.00010 
vt -1.58700 1.00010 
vt -1.83130 0.52070 
vt -1.66860 0.52070 
vt -1.91300 1.00010 
vt -1.58700 1.00010 
vt -1.83130 0.52070 
vt -1.66860 0.52070 
vt -1.83130 0.52070 
vt -1.66860 0.52070 
vt -1.83130 0.52070 
vt -1.66860 0.52070 
vt -1.83130 0.52070 
vt -1.66860 0.52070 

s 1

g Object_2

usemtl texture0

f 1/1 2/2 3/3
f 4/4 3/3 2/2
f 5/5 6/6 7/7
f 8/8 7/7 6/6
f 9/9 10/10 11/11
f 12/12 11/11 10/10
f 13/13 14/14 15/15
f 16/16 15/15 14/14
f 17/17 18/18 19/19
f 18/18 20/20 19/19
f 21/21 22/22 23/23
f 22/22 24/24 23/23
f 25/25 1/1 26/26
f 26/26 1/1 3/3
f 27/27 5/5 28/28
f 28/28 5/5 7/7
f 29/29 30/30 9/9
f 30/30 10/10 9/9
f 31/31 32/32 13/13
f 32/32 14/14 13/13
f 33/33 19/19 34/34
f 20/20 34/34 19/19
f 35/35 23/23 36/36
f 24/24 36/36 23/23
f 37/37 38/38 26/26
f 26/26 38/38 25/25
f 39/39 40/40 28/28
f 28/28 40/40 27/27
f 29/29 41/41 30/30
f 30/30 41/41 42/42
f 31/31 43/43 32/32
f 32/32 43/43 44/44
f 45/45 46/46 34/34
f 34/34 46/46 33/33
f 47/47 48/48 36/36
f 36/36 48/48 35/35
f 49/49 50/50 37/37
f 50/50 38/38 37/37
f 51/51 52/52 39/39
f 52/52 40/40 39/39
f 53/53 42/42 54/54
f 54/54 42/42 41/41
f 55/55 44/44 56/56
f 56/56 44/44 43/43
f 45/45 57/57 46/46
f 57/57 58/58 46/46
f 47/47 59/59 48/48
f 59/59 60/60 48/48
f 61/61 62/62 49/49
f 62/62 50/50 49/49
f 63/63 64/64 51/51
f 64/64 52/52 51/51
f 53/53 54/54 65/65
f 65/65 54/54 66/66
f 55/55 56/56 67/67
f 67/67 56/56 68/68
f 57/57 69/69 58/58
f 69/69 70/70 58/58
f 59/59 71/71 60/60
f 71/71 72/72 60/60
f 73/73 74/74 75/75
f 75/75 74/74 76/76
f 77/77 78/78 79/79
f 79/79 78/78 80/80
f 81/81 82/82 83/83
f 84/84 83/83 82/82
f 85/85 86/86 87/87
f 88/88 87/87 86/86
f 89/89 90/90 91/91
f 90/90 92/92 91/91
f 93/93 94/94 95/95
f 94/94 96/96 95/95
f 74/74 97/97 76/76
f 98/98 76/76 97/97
f 78/78 99/99 80/80
f 100/100 80/80 99/99
f 101/101 81/81 102/102
f 81/81 83/83 102/102
f 103/103 85/85 104/104
f 85/85 87/87 104/104
f 90/90 105/105 92/92
f 92/92 105/105 106/106
f 94/94 107/107 96/96
f 96/96 107/107 108/108
f 97/97 109/109 98/98
f 98/98 109/109 110/110
f 99/99 111/111 100/100
f 100/100 111/111 112/112
f 101/101 102/102 113/113
f 102/102 114/114 113/113
f 103/103 104/104 115/115
f 104/104 116/116 115/115
f 117/117 106/106 118/118
f 106/106 105/105 118/118
f 119/119 108/108 120/120
f 108/108 107/107 120/120
f 121/121 110/110 122/122
f 110/110 109/109 122/122
f 123/123 112/112 124/124
f 112/112 111/111 124/124
f 125/125 126/126 114/114
f 126/126 113/113 114/114
f 127/127 128/128 116/116
f 128/128 115/115 116/116
f 117/117 118/118 129/129
f 118/118 130/130 129/129
f 119/119 120/120 131/131
f 120/120 132/132 131/131
f 121/121 122/122 133/133
f 122/122 134/134 133/133
f 123/123 124/124 135/135
f 124/124 136/136 135/135
f 125/125 137/137 126/126
f 137/137 138/138 126/126
f 127/127 139/139 128/128
f 139/139 140/140 128/128
f 141/141 129/129 142/142
f 129/129 130/130 142/142
f 143/143 131/131 144/144
f 131/131 132/132 144/144

usemtl texture1

f 145/145 146/146 147/147
f 148/148 147/147 146/146
f 149/149 150/150 151/151
f 152/152 151/151 150/150
f 153/153 154/154 155/155
f 154/154 156/156 155/155
f 157/157 145/145 158/158
f 158/158 145/145 147/147
f 159/159 160/160 149/149
f 160/160 150/150 149/149
f 161/161 155/155 162/162
f 156/156 162/162 155/155
f 163/163 164/164 158/158
f 158/158 164/164 157/157
f 159/159 165/165 160/160
f 160/160 165/165 166/166
f 167/167 168/168 162/162
f 162/162 168/168 161/161
f 169/169 170/170 163/163
f 170/170 164/164 163/163
f 171/171 166/166 172/172
f 172/172 166/166 165/165
f 167/167 173/173 168/168
f 173/173 174/174 168/168
f 175/175 176/176 169/169
f 176/176 170/170 169/169
f 171/171 172/172 177/177
f 177/177 172/172 178/178
f 173/173 179/179 174/174
f 179/179 180/180 174/174
f 181/181 182/182 183/183
f 183/183 182/182 184/184
f 185/185 186/186 187/187
f 188/188 187/187 186/186
f 189/189 190/190 191/191
f 190/190 192/192 191/191
f 182/182 193/193 184/184
f 194/194 184/184 193/193
f 195/195 185/185 196/196
f 185/185 187/187 196/196
f 190/190 197/197 192/192
f 192/192 197/197 198/198
f 193/193 199/199 194/194
f 194/194 199/199 200/200
f 195/195 196/196 201/201
f 196/196 202/202 201/201
f 203/203 198/198 204/204
f 198/198 197/197 204/204
f 205/205 200/200 206/206
f 200/200 199/199 206/206
f 207/207 208/208 202/202
f 208/208 201/201 202/202
f 203/203 204/204 209/209
f 204/204 210/210 209/209
f 205/205 206/206 211/211
f 206/206 212/212 211/211
f 207/207 213/213 208/208
f 213/213 214/214 208/208
f 215/215 209/209 216/216
f 209/209 210/210 216/216

usemtl texture2

f 217/217 218/218 219/219
f 218/218 220/220 219/219
f 221/221 222/222 223/223
f 222/222 224/224 223/223
f 225/225 226/226 227/227
f 226/226 228/228 227/227
f 229/229 230/230 231/231
f 230/230 232/232 231/231
f 233/233 234/234 235/235
f 234/234 236/236 235/235
f 237/237 238/238 239/239
f 238/238 240/240 239/239
f 241/241 242/242 243/243
f 242/242 244/244 243/243
f 245/245 246/246 247/247
f 246/246 248/248 247/247
f 249/249 250/250 251/251
f 250/250 252/252 251/251
f 253/253 254/254 255/255
f 254/254 256/256 255/255
f 219/219 257/257 217/217
f 257/257 258/258 217/217
f 259/259 260/260 261/261
f 260/260 262/262 261/261
f 263/263 264/264 265/265
f 264/264 266/266 265/265
f 267/267 220/220 268/268
f 220/220 218/218 268/268
f 269/269 270/270 271/271
f 270/270 272/272 271/271
f 273/273 274/274 275/275
f 274/274 276/276 275/275
f 277/277 278/278 279/279
f 278/278 280/280 279/279
f 281/281 282/282 283/283
f 282/282 284/284 283/283
f 285/285 286/286 287/287
f 286/286 288/288 287/287
f 289/289 290/290 291/291
f 290/290 292/292 291/291
f 293/293 294/294 295/295
f 294/294 296/296 295/295
f 297/297 298/298 299/299
f 298/298 300/300 299/299
f 301/301 302/302 303/303
f 302/302 304/304 303/303
f 268/268 258/258 267/267
f 258/258 257/257 267/267

usemtl texture3

f 305/305 306/306 307/307
f 307/307 306/306 308/308
f 309/309 310/310 311/311
f 311/311 310/310 312/312
f 313/313 314/314 315/315
f 315/315 314/314 316/316
f 317/317 318/318 319/319
f 319/319 318/318 320/320
f 321/321 322/322 323/323
f 323/323 322/322 324/324
f 325/325 326/326 327/327
f 327/327 326/326 328/328
f 329/329 330/330 331/331
f 331/331 330/330 332/332
f 333/333 334/334 335/335
f 334/334 336/336 335/335
f 337/337 338/338 339/339
f 339/339 338/338 340/340
f 341/341 342/342 343/343
f 342/342 344/344 343/343
f 345/345 346/346 347/347
f 347/347 346/346 348/348
f 349/349 350/350 351/351
f 350/350 352/352 351/351
f 353/353 354/354 355/355
f 354/354 356/356 355/355
f 357/357 358/358 359/359
f 358/358 360/360 359/359
f 361/361 362/362 363/363
f 362/362 364/364 363/363
f 365/365 366/366 367/367
f 367/367 366/366 368/368
f 369/369 370/370 371/371
f 371/371 370/370 372/372
f 373/373 374/374 375/375
f 375/375 374/374 376/376
f 377/377 378/378 379/379
f 379/379 378/378 380/380
f 381/381 382/382 383/383
f 383/383 382/382 384/384
f 385/385 386/386 387/387
f 387/387 386/386 388/388
f 389/389 390/390 391/391
f 391/391 390/390 392/392
f 393/393 394/394 395/395
f 394/394 396/396 395/395
f 397/397 398/398 399/399
f 399/399 398/398 400/400
f 401/401 402/402 403/403
f 402/402 404/404 403/403
f 405/405 406/406 407/407
f 407/407 406/406 408/408
f 409/409 410/410 411/411
f 410/410 412/412 411/411
f 413/413 414/414 415/415
f 414/414 416/416 415/415
f 417/417 418/418 419/419
f 418/418 420/420 419/419
f 421/421 422/422 423/423
f 422/422 424/424 423/423
f 425/425 426/426 427/427
f 427/427 426/426 428/428
f 429/429 430/430 431/431
f 431/431 430/430 432/432
f 433/433 434/434 435/435
f 435/435 434/434 436/436
f 437/437 438/438 439/439
f 439/439 438/438 440/440
f 441/441 442/442 443/443
f 443/443 442/442 444/444
f 445/445 446/446 447/447
f 447/447 446/446 448/448
f 449/449 450/450 451/451
f 451/451 450/450 452/452
f 453/453 454/454 455/455
f 454/454 456/456 455/455
f 457/457 458/458 459/459
f 459/459 458/458 460/460
f 461/461 462/462 463/463
f 462/462 464/464 463/463
f 465/465 466/466 467/467
f 467/467 466/466 468/468
f 469/469 470/470 471/471
f 470/470 472/472 471/471
f 473/473 474/474 475/475
f 474/474 476/476 475/475
f 477/477 478/478 479/479
f 478/478 480/480 479/479
f 481/481 482/482 483/483
f 482/482 484/484 483/483
f 485/485 486/486 487/487
f 487/487 486/486 488/488
f 489/489 490/490 491/491
f 491/491 490/490 492/492
f 493/493 494/494 495/495
f 495/495 494/494 496/496
f 497/497 498/498 499/499
f 499/499 498/498 500/500
f 501/501 502/502 503/503
f 503/503 502/502 504/504
f 505/505 506/506 507/507
f 507/507 506/506 508/508
f 509/509 510/510 511/511
f 510/510 512/512 511/511
f 513/513 514/514 515/515
f 515/515 514/514 516/516
f 517/517 518/518 519/519
f 518/518 520/520 519/519
f 521/521 522/522 523/523
f 523/523 522/522 524/524
f 525/525 526/526 527/527
f 526/526 528/528 527/527
f 529/529 530/530 531/531
f 531/531 530/530 532/532
f 533/533 534/534 535/535
f 534/534 536/536 535/535
f 537/537 538/538 539/539
f 538/538 540/540 539/539
f 541/541 542/542 543/543
f 542/542 544/544 543/543
f 545/545 546/546 547/547
f 547/547 546/546 548/548
f 549/549 550/550 551/551
f 551/551 550/550 552/552
f 553/553 554/554 555/555
f 555/555 554/554 556/556
f 557/557 558/558 559/559
f 559/559 558/558 560/560
f 561/561 562/562 563/563
f 563/563 562/562 564/564
f 565/565 566/566 567/567
f 567/567 566/566 568/568
f 569/569 570/570 571/571
f 570/570 572/572 571/571
f 573/573 574/574 575/575
f 575/575 574/574 576/576
f 577/577 578/578 579/579
f 578/578 580/580 579/579
f 581/581 582/582 583/583
f 583/583 582/582 584/584
f 585/585 586/586 587/587
f 586/586 588/588 587/587
f 589/589 590/590 591/591
f 591/591 590/590 592/592
f 593/593 594/594 595/595
f 594/594 596/596 595/595
f 597/597 598/598 599/599
f 598/598 600/600 599/599
f 601/601 602/602 603/603
f 602/602 604/604 603/603

usemtl texture4

f 605/605 606/606 607/607
f 606/606 608/608 607/607
f 609/609 610/610 611/611
f 610/610 612/612 611/611
f 613/613 614/614 615/615
f 614/614 616/616 615/615
f 617/617 618/618 605/605
f 618/618 606/606 605/605
f 619/619 620/620 609/609
f 620/620 610/610 609/609
f 621/621 622/622 613/613
f 622/622 614/614 613/613
f 623/623 624/624 625/625
f 624/624 626/626 625/625
f 627/627 628/628 629/629
f 628/628 630/630 629/629
f 631/631 632/632 633/633
f 632/632 634/634 633/633
f 635/635 636/636 623/623
f 636/636 624/624 623/623
f 637/637 638/638 627/627
f 638/638 628/628 627/627
f 639/639 640/640 631/631
f 640/640 632/632 631/631
f 641/641 642/642 643/643
f 642/642 644/644 643/643
f 645/645 646/646 647/647
f 646/646 648/648 647/647
f 649/649 650/650 651/651
f 650/650 652/652 651/651
f 653/653 654/654 641/641
f 654/654 642/642 641/641
f 655/655 656/656 645/645
f 656/656 646/646 645/645
f 657/657 658/658 649/649
f 658/658 650/650 649/649
f 659/659 660/660 661/661
f 660/660 662/662 661/661
f 663/663 664/664 665/665
f 664/664 666/666 665/665
f 667/667 668/668 669/669
f 668/668 670/670 669/669
f 671/671 672/672 659/659
f 672/672 660/660 659/659
f 673/673 674/674 663/663
f 674/674 664/664 663/663
f 675/675 676/676 667/667
f 676/676 668/668 667/667
f 677/677 678/678 679/679
f 678/678 680/680 679/679
f 681/681 682/682 683/683
f 682/682 684/684 683/683
f 685/685 686/686 687/687
f 686/686 688/688 687/687
f 689/689 690/690 677/677
f 690/690 678/678 677/677
f 691/691 692/692 681/681
f 692/692 682/682 681/681
f 693/693 694/694 685/685
f 694/694 686/686 685/685

