# Model created using BSP2OBJ v0.2.1 by DCx Demo*
# http://devilclanthps3.weebly.com/

mtllib S23_ON_04.obj.mtl
# Object number 1
# 438 faces
# 694 vertices

v 15569.01758 0.00000 2010.00012
v 15569.51758 -19.99990 2010.00012
v 15573.08594 0.00000 2282.27930
v 15573.63672 -19.99990 2282.23340
v 15573.08594 0.00000 2282.27930
v 15575.28711 0.00000 2282.09644
v 15569.01758 0.00000 2010.00012
v 15571.01758 0.00000 2010.00012
v 15574.73730 -19.99990 2282.14209
v 15570.51758 -19.99990 2010.00012
v 15575.28711 0.00000 2282.09644
v 15571.01758 0.00000 2010.00012
v 15580.29102 0.00000 2345.02734
v 15580.80566 -19.99990 2344.96436
v 15580.29102 0.00000 2345.02734
v 15582.34961 0.00000 2344.77563
v 15581.83496 -19.99990 2344.83862
v 15582.34961 0.00000 2344.77563
v 15599.01758 0.00000 2010.00012
v 15599.51758 -19.99990 2010.00012
v 15603.08594 0.00000 2282.27930
v 15603.63672 -19.99990 2282.23340
v 15603.08594 0.00000 2282.27930
v 15605.28809 0.00000 2282.09644
v 15599.01758 0.00000 2010.00012
v 15601.01758 0.00000 2010.00012
v 15604.73730 -19.99990 2282.14209
v 15600.51758 -19.99990 2010.00012
v 15605.28809 0.00000 2282.09644
v 15601.01758 0.00000 2010.00012
v 15610.29102 0.00000 2345.02734
v 15610.80566 -19.99990 2344.96436
v 15610.29102 0.00000 2345.02734
v 15612.34961 0.00000 2344.77563
v 15611.83496 -19.99990 2344.83862
v 15612.34961 0.00000 2344.77563
v 15637.77637 0.00000 2655.06055
v 15638.27148 -19.99990 2655.00098
v 15639.75684 0.00000 2654.82227
v 15637.77637 0.00000 2655.06055
v 15639.26172 -19.99990 2654.88184
v 15639.75684 0.00000 2654.82227
v 15667.77539 0.00000 2655.06055
v 15668.27148 -19.99990 2655.00098
v 15669.75684 0.00000 2654.82227
v 15667.77539 0.00000 2655.06055
v 15669.26172 -19.99990 2654.88184
v 15669.75684 0.00000 2654.82227
v 15644.23730 -19.99990 2717.67188
v 15643.74023 0.00000 2717.71411
v 15645.72852 0.00000 2717.54419
v 15643.74023 0.00000 2717.71411
v 15645.72852 0.00000 2717.54419
v 15645.23145 -19.99990 2717.58691
v 15649.50000 -19.99990 2990.00000
v 15649.00000 0.00000 2990.00000
v 15651.00000 0.00000 2990.00000
v 15649.00000 0.00000 2990.00000
v 15651.00000 0.00000 2990.00000
v 15650.50000 -19.99990 2990.00000
v 15674.23730 -19.99990 2717.67188
v 15673.74023 0.00000 2717.71411
v 15675.72852 0.00000 2717.54419
v 15673.74023 0.00000 2717.71411
v 15675.72852 0.00000 2717.54419
v 15675.23145 -19.99990 2717.58691
v 15679.50000 -19.99990 2990.00000
v 15679.00000 0.00000 2990.00000
v 15681.00000 0.00000 2990.00000
v 15679.00000 0.00000 2990.00000
v 15681.00000 0.00000 2990.00000
v 15680.50000 -19.99990 2990.00000
v 15379.00000 0.00000 2990.00000
v 15384.27148 0.00000 2717.54419
v 15379.50000 -19.99990 2990.00000
v 15384.76855 -19.99990 2717.58691
v 15384.27148 0.00000 2717.54419
v 15379.00000 0.00000 2990.00000
v 15386.25977 0.00000 2717.71411
v 15381.00000 0.00000 2990.00000
v 15380.50000 -19.99990 2990.00000
v 15385.76270 -19.99990 2717.67188
v 15381.00000 0.00000 2990.00000
v 15386.25977 0.00000 2717.71411
v 15390.24316 0.00000 2654.82227
v 15390.73828 -19.99990 2654.88184
v 15390.24316 0.00000 2654.82227
v 15392.22461 0.00000 2655.06055
v 15391.72852 -19.99990 2655.00098
v 15392.22461 0.00000 2655.06055
v 15409.00000 0.00000 2990.00000
v 15414.27148 0.00000 2717.54419
v 15409.50000 -19.99990 2990.00000
v 15414.76855 -19.99990 2717.58691
v 15414.27148 0.00000 2717.54419
v 15409.00000 0.00000 2990.00000
v 15416.25977 0.00000 2717.71411
v 15411.00000 0.00000 2990.00000
v 15410.50000 -19.99990 2990.00000
v 15415.76270 -19.99990 2717.67188
v 15411.00000 0.00000 2990.00000
v 15416.25977 0.00000 2717.71411
v 15420.24316 0.00000 2654.82227
v 15420.73828 -19.99990 2654.88184
v 15420.24316 0.00000 2654.82227
v 15422.22363 0.00000 2655.06055
v 15421.72852 -19.99990 2655.00098
v 15422.22363 0.00000 2655.06055
v 15448.16504 -19.99990 2344.83862
v 15447.65039 0.00000 2344.77563
v 15447.65039 0.00000 2344.77563
v 15449.70898 0.00000 2345.02734
v 15449.19434 -19.99990 2344.96436
v 15449.70898 0.00000 2345.02734
v 15478.16504 -19.99990 2344.83862
v 15477.65039 0.00000 2344.77563
v 15477.65039 0.00000 2344.77563
v 15479.70898 0.00000 2345.02734
v 15479.19434 -19.99990 2344.96436
v 15479.70898 0.00000 2345.02734
v 15455.26270 -19.99990 2282.14209
v 15454.71191 0.00000 2282.09644
v 15456.91406 0.00000 2282.27930
v 15454.71191 0.00000 2282.09644
v 15456.91406 0.00000 2282.27930
v 15456.36328 -19.99990 2282.23340
v 15459.48242 -19.99990 2010.00012
v 15458.98242 0.00000 2010.00012
v 15460.98242 0.00000 2010.00012
v 15458.98242 0.00000 2010.00012
v 15460.98242 0.00000 2010.00012
v 15460.48242 -19.99990 2010.00012
v 15485.26270 -19.99990 2282.14209
v 15484.71289 0.00000 2282.09644
v 15486.91406 0.00000 2282.27930
v 15484.71289 0.00000 2282.09644
v 15486.91406 0.00000 2282.27930
v 15486.36328 -19.99990 2282.23340
v 15489.48242 -19.99990 2010.00012
v 15488.98242 0.00000 2010.00012
v 15490.98242 0.00000 2010.00012
v 15488.98242 0.00000 2010.00012
v 15490.98242 0.00000 2010.00012
v 15490.48242 -19.99990 2010.00012
v 15539.01758 0.00000 2010.00012
v 15539.51758 -19.99990 2010.00012
v 15543.08594 0.00000 2282.27930
v 15543.63672 -19.99990 2282.23340
v 15543.08594 0.00000 2282.27930
v 15545.28711 0.00000 2282.09644
v 15539.01758 0.00000 2010.00012
v 15541.01758 0.00000 2010.00012
v 15544.73730 -19.99990 2282.14209
v 15540.51758 -19.99990 2010.00012
v 15545.28711 0.00000 2282.09644
v 15541.01758 0.00000 2010.00012
v 15550.29102 0.00000 2345.02734
v 15550.80566 -19.99990 2344.96436
v 15550.29102 0.00000 2345.02734
v 15552.34961 0.00000 2344.77563
v 15551.83496 -19.99990 2344.83862
v 15552.34961 0.00000 2344.77563
v 15607.77637 0.00000 2655.06055
v 15608.27148 -19.99990 2655.00098
v 15609.75684 0.00000 2654.82227
v 15607.77637 0.00000 2655.06055
v 15609.26172 -19.99990 2654.88184
v 15609.75684 0.00000 2654.82227
v 15614.23730 -19.99990 2717.67188
v 15613.74023 0.00000 2717.71411
v 15615.72852 0.00000 2717.54419
v 15613.74023 0.00000 2717.71411
v 15615.72852 0.00000 2717.54419
v 15615.23145 -19.99990 2717.58691
v 15619.50000 -19.99990 2990.00000
v 15619.00000 0.00000 2990.00000
v 15621.00000 0.00000 2990.00000
v 15619.00000 0.00000 2990.00000
v 15621.00000 0.00000 2990.00000
v 15620.50000 -19.99990 2990.00000
v 15439.00000 0.00000 2990.00000
v 15444.27148 0.00000 2717.54419
v 15439.50000 -19.99990 2990.00000
v 15444.76855 -19.99990 2717.58691
v 15444.27148 0.00000 2717.54419
v 15439.00000 0.00000 2990.00000
v 15446.25977 0.00000 2717.71411
v 15441.00000 0.00000 2990.00000
v 15440.50000 -19.99990 2990.00000
v 15445.76270 -19.99990 2717.67188
v 15441.00000 0.00000 2990.00000
v 15446.25977 0.00000 2717.71411
v 15450.24316 0.00000 2654.82227
v 15450.73828 -19.99990 2654.88184
v 15450.24316 0.00000 2654.82227
v 15452.22363 0.00000 2655.06055
v 15451.72852 -19.99990 2655.00098
v 15452.22363 0.00000 2655.06055
v 15508.16504 -19.99990 2344.83862
v 15507.65039 0.00000 2344.77563
v 15507.65039 0.00000 2344.77563
v 15509.70898 0.00000 2345.02734
v 15509.19434 -19.99990 2344.96436
v 15509.70898 0.00000 2345.02734
v 15515.26270 -19.99990 2282.14209
v 15514.71289 0.00000 2282.09644
v 15516.91406 0.00000 2282.27930
v 15514.71289 0.00000 2282.09644
v 15516.91406 0.00000 2282.27930
v 15516.36328 -19.99990 2282.23340
v 15519.48242 -19.99990 2010.00012
v 15518.98242 0.00000 2010.00012
v 15520.98242 0.00000 2010.00012
v 15518.98242 0.00000 2010.00012
v 15520.98242 0.00000 2010.00012
v 15520.48242 -19.99990 2010.00012
v 15450.00000 0.00000 1999.99988
v 15450.00000 0.00000 -1999.99988
v 15450.00000 -19.99990 1999.99988
v 15450.00000 -19.99990 -1999.99988
v 15474.70313 -19.99990 -1319.99988
v 15474.70313 -19.99990 -1479.99988
v 15474.70313 0.00000 -1319.99988
v 15474.70313 0.00000 -1479.99988
v 15474.70313 -19.99990 -619.99988
v 15474.70313 -19.99990 -779.99988
v 15474.70313 0.00000 -619.99988
v 15474.70313 0.00000 -779.99988
v 15474.70313 -19.99990 79.99990
v 15474.70313 -19.99990 -79.99990
v 15474.70313 0.00000 79.99990
v 15474.70313 0.00000 -79.99990
v 15474.70313 -19.99990 779.99988
v 15474.70313 -19.99990 619.99988
v 15474.70313 0.00000 779.99988
v 15474.70313 0.00000 619.99988
v 15474.70313 -19.99990 1479.99988
v 15474.70313 -19.99990 1319.99988
v 15474.70313 0.00000 1479.99988
v 15474.70313 0.00000 1319.99988
v 15610.00000 -19.99990 -1999.99988
v 15610.00000 0.00000 -1999.99988
v 15474.70313 -19.99990 -1479.99988
v 15585.29688 -19.99990 -1479.99988
v 15474.70313 0.00000 -1479.99988
v 15585.29688 0.00000 -1479.99988
v 15585.29688 -19.99990 -1319.99988
v 15474.70313 -19.99990 -1319.99988
v 15585.29688 0.00000 -1319.99988
v 15474.70313 0.00000 -1319.99988
v 15474.70313 -19.99990 -779.99988
v 15585.29688 -19.99990 -779.99988
v 15474.70313 0.00000 -779.99988
v 15585.29688 0.00000 -779.99988
v 15585.29688 -19.99990 -619.99988
v 15474.70313 -19.99990 -619.99988
v 15585.29688 0.00000 -619.99988
v 15474.70313 0.00000 -619.99988
v 15474.70313 -19.99990 -79.99990
v 15585.29688 -19.99990 -79.99990
v 15474.70313 0.00000 -79.99990
v 15585.29688 0.00000 -79.99990
v 15585.29688 -19.99990 79.99990
v 15474.70313 -19.99990 79.99990
v 15585.29688 0.00000 79.99990
v 15474.70313 0.00000 79.99990
v 15474.70313 -19.99990 619.99988
v 15585.29688 -19.99990 619.99988
v 15474.70313 0.00000 619.99988
v 15585.29688 0.00000 619.99988
v 15585.29688 -19.99990 779.99988
v 15474.70313 -19.99990 779.99988
v 15585.29688 0.00000 779.99988
v 15474.70313 0.00000 779.99988
v 15474.70313 -19.99990 1319.99988
v 15585.29688 -19.99990 1319.99988
v 15474.70313 0.00000 1319.99988
v 15585.29688 0.00000 1319.99988
v 15585.29688 -19.99990 1479.99988
v 15474.70313 -19.99990 1479.99988
v 15585.29688 0.00000 1479.99988
v 15474.70313 0.00000 1479.99988
v 15610.00000 -19.99990 1999.99988
v 15610.00000 0.00000 1999.99988
v 15585.29688 -19.99990 -1479.99988
v 15585.29688 -19.99990 -1319.99988
v 15585.29688 0.00000 -1479.99988
v 15585.29688 0.00000 -1319.99988
v 15585.29688 -19.99990 -779.99988
v 15585.29688 -19.99990 -619.99988
v 15585.29688 0.00000 -779.99988
v 15585.29688 0.00000 -619.99988
v 15585.29688 -19.99990 -79.99990
v 15585.29688 -19.99990 79.99990
v 15585.29688 0.00000 -79.99990
v 15585.29688 0.00000 79.99990
v 15585.29688 -19.99990 619.99988
v 15585.29688 -19.99990 779.99988
v 15585.29688 0.00000 619.99988
v 15585.29688 0.00000 779.99988
v 15585.29688 -19.99990 1319.99988
v 15585.29688 -19.99990 1479.99988
v 15585.29688 0.00000 1319.99988
v 15585.29688 0.00000 1479.99988
v 15615.09766 -9.94360 2990.00000
v 15617.17969 -20.39480 2990.00000
v 15615.09766 -9.94370 3000.00000
v 15617.17969 -20.39480 3000.00000
v 15615.09766 -9.94360 2990.00000
v 15615.09766 -9.94370 3000.00000
v 15618.66699 0.00000 2990.00000
v 15618.66602 0.00000 3000.00000
v 15621.32422 0.00000 3000.00000
v 15621.32422 0.00000 2990.00000
v 15618.66602 0.00000 3000.00000
v 15618.66699 0.00000 2990.00000
v 15621.32422 0.00000 3000.00000
v 15624.89258 -9.94360 3000.00000
v 15621.32422 0.00000 2990.00000
v 15624.89258 -9.94360 2990.00000
v 15622.81055 -20.39480 3000.00000
v 15622.81055 -20.39480 2990.00000
v 15624.89258 -9.94360 3000.00000
v 15624.89258 -9.94360 2990.00000
v 15645.09766 -9.94360 2990.00000
v 15647.17969 -20.39480 2990.00000
v 15645.09766 -9.94370 3000.00000
v 15647.17969 -20.39480 3000.00000
v 15645.09766 -9.94360 2990.00000
v 15645.09766 -9.94370 3000.00000
v 15648.66699 0.00000 2990.00000
v 15648.66602 0.00000 3000.00000
v 15651.32422 0.00000 3000.00000
v 15651.32422 0.00000 2990.00000
v 15648.66602 0.00000 3000.00000
v 15648.66699 0.00000 2990.00000
v 15651.32422 0.00000 3000.00000
v 15654.89258 -9.94360 3000.00000
v 15651.32422 0.00000 2990.00000
v 15654.89258 -9.94360 2990.00000
v 15652.81055 -20.39480 3000.00000
v 15652.81055 -20.39480 2990.00000
v 15654.89258 -9.94360 3000.00000
v 15654.89258 -9.94360 2990.00000
v 15675.09766 -9.94360 2990.00000
v 15677.17969 -20.39480 2990.00000
v 15675.09766 -9.94370 3000.00000
v 15677.17969 -20.39480 3000.00000
v 15675.09766 -9.94360 2990.00000
v 15675.09766 -9.94370 3000.00000
v 15678.66699 0.00000 2990.00000
v 15678.66602 0.00000 3000.00000
v 15681.32422 0.00000 3000.00000
v 15681.32422 0.00000 2990.00000
v 15678.66602 0.00000 3000.00000
v 15678.66699 0.00000 2990.00000
v 15681.32422 0.00000 3000.00000
v 15684.89258 -9.94360 3000.00000
v 15681.32422 0.00000 2990.00000
v 15684.89258 -9.94360 2990.00000
v 15682.81055 -20.39480 3000.00000
v 15682.81055 -20.39480 2990.00000
v 15684.89258 -9.94360 3000.00000
v 15684.89258 -9.94360 2990.00000
v 15375.09766 -9.94360 2990.00000
v 15377.17969 -20.39480 2990.00000
v 15375.09766 -9.94370 3000.00000
v 15377.17969 -20.39480 3000.00000
v 15375.09766 -9.94360 2990.00000
v 15375.09766 -9.94370 3000.00000
v 15378.66699 0.00000 2990.00000
v 15378.66602 0.00000 3000.00000
v 15381.32422 0.00000 3000.00000
v 15381.32422 0.00000 2990.00000
v 15378.66602 0.00000 3000.00000
v 15378.66699 0.00000 2990.00000
v 15381.32422 0.00000 3000.00000
v 15384.89258 -9.94360 3000.00000
v 15381.32422 0.00000 2990.00000
v 15384.89258 -9.94360 2990.00000
v 15382.81055 -20.39480 3000.00000
v 15382.81055 -20.39480 2990.00000
v 15384.89258 -9.94360 3000.00000
v 15384.89258 -9.94360 2990.00000
v 15405.09766 -9.94360 2990.00000
v 15407.17969 -20.39480 2990.00000
v 15405.09766 -9.94370 3000.00000
v 15407.17969 -20.39480 3000.00000
v 15405.09766 -9.94360 2990.00000
v 15405.09766 -9.94370 3000.00000
v 15408.66699 0.00000 2990.00000
v 15408.66602 0.00000 3000.00000
v 15411.32422 0.00000 3000.00000
v 15411.32422 0.00000 2990.00000
v 15408.66602 0.00000 3000.00000
v 15408.66699 0.00000 2990.00000
v 15411.32422 0.00000 3000.00000
v 15414.89258 -9.94360 3000.00000
v 15411.32422 0.00000 2990.00000
v 15414.89258 -9.94360 2990.00000
v 15412.81055 -20.39480 3000.00000
v 15412.81055 -20.39480 2990.00000
v 15414.89258 -9.94360 3000.00000
v 15414.89258 -9.94360 2990.00000
v 15435.09766 -9.94360 2990.00000
v 15437.17969 -20.39480 2990.00000
v 15435.09766 -9.94370 3000.00000
v 15437.17969 -20.39480 3000.00000
v 15435.09766 -9.94360 2990.00000
v 15435.09766 -9.94370 3000.00000
v 15438.66699 0.00000 2990.00000
v 15438.66602 0.00000 3000.00000
v 15441.32422 0.00000 3000.00000
v 15441.32422 0.00000 2990.00000
v 15438.66602 0.00000 3000.00000
v 15438.66699 0.00000 2990.00000
v 15441.32422 0.00000 3000.00000
v 15444.89258 -9.94360 3000.00000
v 15441.32422 0.00000 2990.00000
v 15444.89258 -9.94360 2990.00000
v 15442.81055 -20.39480 3000.00000
v 15442.81055 -20.39480 2990.00000
v 15444.89258 -9.94360 3000.00000
v 15444.89258 -9.94360 2990.00000
v 15457.18945 -20.39480 2000.00012
v 15457.18945 -20.39480 2010.00012
v 15455.10742 -9.94360 2000.00012
v 15455.10742 -9.94360 2010.00012
v 15458.67578 0.00000 2000.00012
v 15455.10742 -9.94360 2000.00012
v 15458.67578 0.00000 2010.00012
v 15455.10742 -9.94360 2010.00012
v 15458.67578 0.00000 2000.00012
v 15458.67578 0.00000 2010.00012
v 15461.33398 0.00000 2000.00012
v 15461.33301 0.00000 2010.00012
v 15464.90234 -9.94360 2010.00012
v 15464.90234 -9.94370 2000.00012
v 15461.33301 0.00000 2010.00012
v 15461.33398 0.00000 2000.00012
v 15464.90234 -9.94360 2010.00012
v 15462.82031 -20.39480 2010.00012
v 15464.90234 -9.94370 2000.00012
v 15462.82031 -20.39480 2000.00012
v 15487.18945 -20.39480 2000.00012
v 15487.18945 -20.39480 2010.00012
v 15485.10742 -9.94360 2000.00012
v 15485.10742 -9.94360 2010.00012
v 15488.67578 0.00000 2000.00012
v 15485.10742 -9.94360 2000.00012
v 15488.67578 0.00000 2010.00012
v 15485.10742 -9.94360 2010.00012
v 15488.67578 0.00000 2000.00012
v 15488.67578 0.00000 2010.00012
v 15491.33398 0.00000 2000.00012
v 15491.33301 0.00000 2010.00012
v 15494.90234 -9.94360 2010.00012
v 15494.90234 -9.94370 2000.00012
v 15491.33301 0.00000 2010.00012
v 15491.33398 0.00000 2000.00012
v 15494.90234 -9.94360 2010.00012
v 15492.82031 -20.39480 2010.00012
v 15494.90234 -9.94370 2000.00012
v 15492.82031 -20.39480 2000.00012
v 15517.18945 -20.39480 2000.00012
v 15517.18945 -20.39480 2010.00012
v 15515.10742 -9.94360 2000.00012
v 15515.10742 -9.94360 2010.00012
v 15518.67578 0.00000 2000.00012
v 15515.10742 -9.94360 2000.00012
v 15518.67578 0.00000 2010.00012
v 15515.10742 -9.94360 2010.00012
v 15518.67578 0.00000 2000.00012
v 15518.67578 0.00000 2010.00012
v 15521.33398 0.00000 2000.00012
v 15521.33301 0.00000 2010.00012
v 15524.90234 -9.94360 2010.00012
v 15524.90234 -9.94370 2000.00012
v 15521.33301 0.00000 2010.00012
v 15521.33398 0.00000 2000.00012
v 15524.90234 -9.94360 2010.00012
v 15522.82031 -20.39480 2010.00012
v 15524.90234 -9.94370 2000.00012
v 15522.82031 -20.39480 2000.00012
v 15537.18945 -20.39480 2000.00012
v 15537.18945 -20.39480 2010.00012
v 15535.10742 -9.94360 2000.00012
v 15535.10742 -9.94360 2010.00012
v 15538.67578 0.00000 2000.00012
v 15535.10742 -9.94360 2000.00012
v 15538.67578 0.00000 2010.00012
v 15535.10742 -9.94360 2010.00012
v 15538.67578 0.00000 2000.00012
v 15538.67578 0.00000 2010.00012
v 15541.33398 0.00000 2000.00012
v 15541.33301 0.00000 2010.00012
v 15544.90234 -9.94360 2010.00012
v 15544.90234 -9.94370 2000.00012
v 15541.33301 0.00000 2010.00012
v 15541.33398 0.00000 2000.00012
v 15544.90234 -9.94360 2010.00012
v 15542.82031 -20.39480 2010.00012
v 15544.90234 -9.94370 2000.00012
v 15542.82031 -20.39480 2000.00012
v 15567.18945 -20.39480 2000.00012
v 15567.18945 -20.39480 2010.00012
v 15565.10742 -9.94360 2000.00012
v 15565.10742 -9.94360 2010.00012
v 15568.67578 0.00000 2000.00012
v 15565.10742 -9.94360 2000.00012
v 15568.67578 0.00000 2010.00012
v 15565.10742 -9.94360 2010.00012
v 15568.67578 0.00000 2000.00012
v 15568.67578 0.00000 2010.00012
v 15571.33398 0.00000 2000.00012
v 15571.33301 0.00000 2010.00012
v 15574.90234 -9.94360 2010.00012
v 15574.90234 -9.94370 2000.00012
v 15571.33301 0.00000 2010.00012
v 15571.33398 0.00000 2000.00012
v 15574.90234 -9.94360 2010.00012
v 15572.82031 -20.39480 2010.00012
v 15574.90234 -9.94370 2000.00012
v 15572.82031 -20.39480 2000.00012
v 15597.18945 -20.39480 2000.00012
v 15597.18945 -20.39480 2010.00012
v 15595.10742 -9.94360 2000.00012
v 15595.10742 -9.94360 2010.00012
v 15598.67578 0.00000 2000.00012
v 15595.10742 -9.94360 2000.00012
v 15598.67578 0.00000 2010.00012
v 15595.10742 -9.94360 2010.00012
v 15598.67578 0.00000 2000.00012
v 15598.67578 0.00000 2010.00012
v 15601.33398 0.00000 2000.00012
v 15601.33301 0.00000 2010.00012
v 15604.90234 -9.94360 2010.00012
v 15604.90234 -9.94370 2000.00012
v 15601.33301 0.00000 2010.00012
v 15601.33398 0.00000 2000.00012
v 15604.90234 -9.94360 2010.00012
v 15602.82031 -20.39480 2010.00012
v 15604.90234 -9.94370 2000.00012
v 15602.82031 -20.39480 2000.00012
v 15495.09766 -9.94360 -2010.00012
v 15497.17969 -20.39480 -2010.00012
v 15495.09766 -9.94370 -2000.00012
v 15497.17969 -20.39480 -2000.00012
v 15495.09766 -9.94360 -2010.00012
v 15495.09766 -9.94370 -2000.00012
v 15498.66699 0.00000 -2010.00012
v 15498.66602 0.00000 -2000.00012
v 15501.32422 0.00000 -2000.00012
v 15501.32422 0.00000 -2010.00012
v 15498.66602 0.00000 -2000.00012
v 15498.66699 0.00000 -2010.00012
v 15501.32422 0.00000 -2000.00012
v 15504.89258 -9.94360 -2000.00012
v 15501.32422 0.00000 -2010.00012
v 15504.89258 -9.94360 -2010.00012
v 15502.81055 -20.39480 -2000.00012
v 15502.81055 -20.39480 -2010.00012
v 15504.89258 -9.94360 -2000.00012
v 15504.89258 -9.94360 -2010.00012
v 15525.09766 -9.94360 -2010.00012
v 15527.17969 -20.39480 -2010.00012
v 15525.09766 -9.94370 -2000.00012
v 15527.17969 -20.39480 -2000.00012
v 15525.09766 -9.94360 -2010.00012
v 15525.09766 -9.94370 -2000.00012
v 15528.66699 0.00000 -2010.00012
v 15528.66602 0.00000 -2000.00012
v 15531.32422 0.00000 -2000.00012
v 15531.32422 0.00000 -2010.00012
v 15528.66602 0.00000 -2000.00012
v 15528.66699 0.00000 -2010.00012
v 15531.32422 0.00000 -2000.00012
v 15534.89258 -9.94360 -2000.00012
v 15531.32422 0.00000 -2010.00012
v 15534.89258 -9.94360 -2010.00012
v 15532.81055 -20.39480 -2000.00012
v 15532.81055 -20.39480 -2010.00012
v 15534.89258 -9.94360 -2000.00012
v 15534.89258 -9.94360 -2010.00012
v 15555.09766 -9.94360 -2010.00012
v 15557.17969 -20.39480 -2010.00012
v 15555.09766 -9.94370 -2000.00012
v 15557.17969 -20.39480 -2000.00012
v 15555.09766 -9.94360 -2010.00012
v 15555.09766 -9.94370 -2000.00012
v 15558.66699 0.00000 -2010.00012
v 15558.66602 0.00000 -2000.00012
v 15561.32422 0.00000 -2000.00012
v 15561.32422 0.00000 -2010.00012
v 15558.66602 0.00000 -2000.00012
v 15558.66699 0.00000 -2010.00012
v 15561.32422 0.00000 -2000.00012
v 15564.89258 -9.94360 -2000.00012
v 15561.32422 0.00000 -2010.00012
v 15564.89258 -9.94360 -2010.00012
v 15562.81055 -20.39480 -2000.00012
v 15562.81055 -20.39480 -2010.00012
v 15564.89258 -9.94360 -2000.00012
v 15564.89258 -9.94360 -2010.00012
v 15615.09766 -9.94360 2990.00000
v 15624.89258 -9.94360 2990.00000
v 15617.17969 -20.39480 2990.00000
v 15622.81055 -20.39480 2990.00000
v 15618.66699 0.00000 2990.00000
v 15621.32422 0.00000 2990.00000
v 15645.09766 -9.94360 2990.00000
v 15654.89258 -9.94360 2990.00000
v 15647.17969 -20.39480 2990.00000
v 15652.81055 -20.39480 2990.00000
v 15648.66699 0.00000 2990.00000
v 15651.32422 0.00000 2990.00000
v 15675.09766 -9.94360 2990.00000
v 15684.89258 -9.94360 2990.00000
v 15677.17969 -20.39480 2990.00000
v 15682.81055 -20.39480 2990.00000
v 15678.66699 0.00000 2990.00000
v 15681.32422 0.00000 2990.00000
v 15375.09766 -9.94360 2990.00000
v 15384.89258 -9.94360 2990.00000
v 15377.17969 -20.39480 2990.00000
v 15382.81055 -20.39480 2990.00000
v 15378.66699 0.00000 2990.00000
v 15381.32422 0.00000 2990.00000
v 15405.09766 -9.94360 2990.00000
v 15414.89258 -9.94360 2990.00000
v 15407.17969 -20.39480 2990.00000
v 15412.81055 -20.39480 2990.00000
v 15408.66699 0.00000 2990.00000
v 15411.32422 0.00000 2990.00000
v 15435.09766 -9.94360 2990.00000
v 15444.89258 -9.94360 2990.00000
v 15437.17969 -20.39480 2990.00000
v 15442.81055 -20.39480 2990.00000
v 15438.66699 0.00000 2990.00000
v 15441.32422 0.00000 2990.00000
v 15464.90234 -9.94360 2010.00012
v 15455.10742 -9.94360 2010.00012
v 15462.82031 -20.39480 2010.00012
v 15457.18945 -20.39480 2010.00012
v 15461.33301 0.00000 2010.00012
v 15458.67578 0.00000 2010.00012
v 15494.90234 -9.94360 2010.00012
v 15485.10742 -9.94360 2010.00012
v 15492.82031 -20.39480 2010.00012
v 15487.18945 -20.39480 2010.00012
v 15491.33301 0.00000 2010.00012
v 15488.67578 0.00000 2010.00012
v 15524.90234 -9.94360 2010.00012
v 15515.10742 -9.94360 2010.00012
v 15522.82031 -20.39480 2010.00012
v 15517.18945 -20.39480 2010.00012
v 15521.33301 0.00000 2010.00012
v 15518.67578 0.00000 2010.00012
v 15544.90234 -9.94360 2010.00012
v 15535.10742 -9.94360 2010.00012
v 15542.82031 -20.39480 2010.00012
v 15537.18945 -20.39480 2010.00012
v 15541.33301 0.00000 2010.00012
v 15538.67578 0.00000 2010.00012
v 15574.90234 -9.94360 2010.00012
v 15565.10742 -9.94360 2010.00012
v 15572.82031 -20.39480 2010.00012
v 15567.18945 -20.39480 2010.00012
v 15571.33301 0.00000 2010.00012
v 15568.67578 0.00000 2010.00012
v 15604.90234 -9.94360 2010.00012
v 15595.10742 -9.94360 2010.00012
v 15602.82031 -20.39480 2010.00012
v 15597.18945 -20.39480 2010.00012
v 15601.33301 0.00000 2010.00012
v 15598.67578 0.00000 2010.00012
v 15495.09766 -9.94360 -2010.00012
v 15504.89258 -9.94360 -2010.00012
v 15497.17969 -20.39480 -2010.00012
v 15502.81055 -20.39480 -2010.00012
v 15498.66699 0.00000 -2010.00012
v 15501.32422 0.00000 -2010.00012
v 15525.09766 -9.94360 -2010.00012
v 15534.89258 -9.94360 -2010.00012
v 15527.17969 -20.39480 -2010.00012
v 15532.81055 -20.39480 -2010.00012
v 15528.66699 0.00000 -2010.00012
v 15531.32422 0.00000 -2010.00012
v 15555.09766 -9.94360 -2010.00012
v 15564.89258 -9.94360 -2010.00012
v 15557.17969 -20.39480 -2010.00012
v 15562.81055 -20.39480 -2010.00012
v 15558.66699 0.00000 -2010.00012
v 15561.32422 0.00000 -2010.00012

vt 9.50230 0.16390 
vt 9.50230 0.00150 
vt 8.43240 0.16390 
vt 8.43240 0.00150 
vt 8.43240 0.16390 
vt 8.43240 0.31580 
vt 9.50230 0.16390 
vt 9.50230 0.31580 
vt 8.43240 0.49870 
vt 9.50230 0.49870 
vt 8.43240 0.31580 
vt 9.50230 0.31580 
vt 8.16490 0.16390 
vt 8.16490 0.00150 
vt 8.16490 0.16390 
vt 8.16490 0.31580 
vt 8.16490 0.49870 
vt 8.16490 0.31580 
vt 9.50230 0.66360 
vt 9.50230 0.50120 
vt 8.43240 0.66360 
vt 8.43240 0.50120 
vt 8.43240 0.66360 
vt 8.43240 0.81550 
vt 9.50230 0.66360 
vt 9.50230 0.81550 
vt 8.43240 0.99840 
vt 9.50230 0.99840 
vt 8.43240 0.81550 
vt 9.50230 0.81550 
vt 8.16490 0.66360 
vt 8.16490 0.50120 
vt 8.16490 0.66360 
vt 8.16490 0.81550 
vt 8.16490 0.99840 
vt 8.16490 0.81550 
vt 6.82760 0.16390 
vt 6.82760 0.00150 
vt 6.82760 0.31580 
vt 6.82760 0.16390 
vt 6.82760 0.49870 
vt 6.82760 0.31580 
vt 6.82760 0.66360 
vt 6.82760 0.50120 
vt 6.82760 0.81550 
vt 6.82760 0.66360 
vt 6.82760 0.99840 
vt 6.82760 0.81550 
vt 6.56010 0.00150 
vt 6.56010 0.16390 
vt 6.56010 0.31580 
vt 6.56010 0.16390 
vt 6.56010 0.31580 
vt 6.56010 0.49870 
vt 5.49020 0.00150 
vt 5.49020 0.16390 
vt 5.49020 0.31580 
vt 5.49020 0.16390 
vt 5.49020 0.31580 
vt 5.49020 0.49870 
vt 6.56010 0.50120 
vt 6.56010 0.66360 
vt 6.56010 0.81550 
vt 6.56010 0.66360 
vt 6.56010 0.81550 
vt 6.56010 0.99840 
vt 5.49020 0.50120 
vt 5.49020 0.66360 
vt 5.49020 0.81550 
vt 5.49020 0.66360 
vt 5.49020 0.81550 
vt 5.49020 0.99840 
vt 5.49020 0.81550 
vt 6.56010 0.81550 
vt 5.49020 0.99840 
vt 6.56010 0.99840 
vt 6.56010 0.81550 
vt 5.49020 0.81550 
vt 6.56010 0.66360 
vt 5.49020 0.66360 
vt 5.49020 0.50120 
vt 6.56010 0.50120 
vt 5.49020 0.66360 
vt 6.56010 0.66360 
vt 6.82760 0.81550 
vt 6.82760 0.99840 
vt 6.82760 0.81550 
vt 6.82760 0.66360 
vt 6.82760 0.50120 
vt 6.82760 0.66360 
vt 5.49020 0.31580 
vt 6.56010 0.31580 
vt 5.49020 0.49870 
vt 6.56010 0.49870 
vt 6.56010 0.31580 
vt 5.49020 0.31580 
vt 6.56010 0.16390 
vt 5.49020 0.16390 
vt 5.49020 0.00150 
vt 6.56010 0.00150 
vt 5.49020 0.16390 
vt 6.56010 0.16390 
vt 6.82760 0.31580 
vt 6.82760 0.49870 
vt 6.82760 0.31580 
vt 6.82760 0.16390 
vt 6.82760 0.00150 
vt 6.82760 0.16390 
vt 8.16490 0.99840 
vt 8.16490 0.81550 
vt 8.16490 0.81550 
vt 8.16490 0.66360 
vt 8.16490 0.50120 
vt 8.16490 0.66360 
vt 8.16490 0.49870 
vt 8.16490 0.31580 
vt 8.16490 0.31580 
vt 8.16490 0.16390 
vt 8.16490 0.00150 
vt 8.16490 0.16390 
vt 8.43240 0.99840 
vt 8.43240 0.81550 
vt 8.43240 0.66360 
vt 8.43240 0.81550 
vt 8.43240 0.66360 
vt 8.43240 0.50120 
vt 9.50230 0.99840 
vt 9.50230 0.81550 
vt 9.50230 0.66360 
vt 9.50230 0.81550 
vt 9.50230 0.66360 
vt 9.50230 0.50120 
vt 8.43240 0.49870 
vt 8.43240 0.31580 
vt 8.43240 0.16390 
vt 8.43240 0.31580 
vt 8.43240 0.16390 
vt 8.43240 0.00150 
vt 9.50230 0.49870 
vt 9.50230 0.31580 
vt 9.50230 0.16390 
vt 9.50230 0.31580 
vt 9.50230 0.16390 
vt 9.50230 0.00150 
vt 9.50230 0.16390 
vt 9.50230 0.00150 
vt 8.43240 0.16390 
vt 8.43240 0.00150 
vt 8.43240 0.16390 
vt 8.43240 0.31580 
vt 9.50230 0.16390 
vt 9.50230 0.31580 
vt 8.43240 0.49870 
vt 9.50230 0.49870 
vt 8.43240 0.31580 
vt 9.50230 0.31580 
vt 8.16490 0.16390 
vt 8.16490 0.00150 
vt 8.16490 0.16390 
vt 8.16490 0.31580 
vt 8.16490 0.49870 
vt 8.16490 0.31580 
vt 6.82760 0.16390 
vt 6.82760 0.00150 
vt 6.82760 0.31580 
vt 6.82760 0.16390 
vt 6.82760 0.49870 
vt 6.82760 0.31580 
vt 6.56010 0.00150 
vt 6.56010 0.16390 
vt 6.56010 0.31580 
vt 6.56010 0.16390 
vt 6.56010 0.31580 
vt 6.56010 0.49870 
vt 5.49020 0.00150 
vt 5.49020 0.16390 
vt 5.49020 0.31580 
vt 5.49020 0.16390 
vt 5.49020 0.31580 
vt 5.49020 0.49870 
vt 5.49020 0.31580 
vt 6.56010 0.31580 
vt 5.49020 0.49870 
vt 6.56010 0.49870 
vt 6.56010 0.31580 
vt 5.49020 0.31580 
vt 6.56010 0.16390 
vt 5.49020 0.16390 
vt 5.49020 0.00150 
vt 6.56010 0.00150 
vt 5.49020 0.16390 
vt 6.56010 0.16390 
vt 6.82760 0.31580 
vt 6.82760 0.49870 
vt 6.82760 0.31580 
vt 6.82760 0.16390 
vt 6.82760 0.00150 
vt 6.82760 0.16390 
vt 8.16490 0.49870 
vt 8.16490 0.31580 
vt 8.16490 0.31580 
vt 8.16490 0.16390 
vt 8.16490 0.00150 
vt 8.16490 0.16390 
vt 8.43240 0.49870 
vt 8.43240 0.31580 
vt 8.43240 0.16390 
vt 8.43240 0.31580 
vt 8.43240 0.16390 
vt 8.43240 0.00150 
vt 9.50230 0.49870 
vt 9.50230 0.31580 
vt 9.50230 0.16390 
vt 9.50230 0.31580 
vt 9.50230 0.16390 
vt 9.50230 0.00150 
vt 56.24440 -0.00300 
vt -5.25480 -0.00300 
vt 56.24590 -0.64390 
vt -5.25620 -0.64390 
vt -2.49990 2.49990 
vt -5.49990 2.49990 
vt -2.49990 2.99990 
vt -5.49990 2.99990 
vt -2.49990 2.49990 
vt -5.49990 2.49990 
vt -2.49990 2.99990 
vt -5.49990 2.99990 
vt -2.49990 2.49990 
vt -5.49990 2.49990 
vt -2.49990 2.99990 
vt -5.49990 2.99990 
vt -2.49990 2.49990 
vt -5.49990 2.49990 
vt -2.49990 2.99990 
vt -5.49990 2.99990 
vt -2.49990 2.49990 
vt -5.49990 2.49990 
vt -2.49990 2.99990 
vt -5.49990 2.99990 
vt -1.26230 -0.64390 
vt -1.26090 -0.00300 
vt -5.49990 2.49990 
vt -3.99990 2.49990 
vt -5.49990 2.99990 
vt -3.99990 2.99990 
vt -0.99990 2.49990 
vt -2.49990 2.49990 
vt -0.99990 2.99990 
vt -2.49990 2.99990 
vt -5.49990 2.49990 
vt -3.99990 2.49990 
vt -5.49990 2.99990 
vt -3.99990 2.99990 
vt -0.99990 2.49990 
vt -2.49990 2.49990 
vt -0.99990 2.99990 
vt -2.49990 2.99990 
vt -5.49990 2.49990 
vt -3.99990 2.49990 
vt -5.49990 2.99990 
vt -3.99990 2.99990 
vt -0.99990 2.49990 
vt -2.49990 2.49990 
vt -0.99990 2.99990 
vt -2.49990 2.99990 
vt -5.49990 2.49990 
vt -3.99990 2.49990 
vt -5.49990 2.99990 
vt -3.99990 2.99990 
vt -0.99990 2.49990 
vt -2.49990 2.49990 
vt -0.99990 2.99990 
vt -2.49990 2.99990 
vt -5.49990 2.49990 
vt -3.99990 2.49990 
vt -5.49990 2.99990 
vt -3.99990 2.99990 
vt -0.99990 2.49990 
vt -2.49990 2.49990 
vt -0.99990 2.99990 
vt -2.49990 2.99990 
vt 60.23980 -0.64390 
vt 60.23840 -0.00300 
vt -3.99990 2.49990 
vt -0.99990 2.49990 
vt -3.99990 2.99990 
vt -0.99990 2.99990 
vt -3.99990 2.49990 
vt -0.99990 2.49990 
vt -3.99990 2.99990 
vt -0.99990 2.99990 
vt -3.99990 2.49990 
vt -0.99990 2.49990 
vt -3.99990 2.99990 
vt -0.99990 2.99990 
vt -3.99990 2.49990 
vt -0.99990 2.49990 
vt -3.99990 2.99990 
vt -0.99990 2.99990 
vt -3.99990 2.49990 
vt -0.99990 2.49990 
vt -3.99990 2.99990 
vt -0.99990 2.99990 
vt -0.99990 5.00000 
vt -1.99990 5.00000 
vt -0.99990 4.00010 
vt -1.99990 4.00010 
vt -0.99990 5.00000 
vt -0.99990 4.00010 
vt 0.00000 5.00000 
vt 0.00000 4.00010 
vt -4.74990 4.00010 
vt -4.74990 5.00000 
vt -4.99990 4.00010 
vt -4.99990 5.00000 
vt -4.74990 4.00010 
vt -3.74990 4.00010 
vt -4.74990 5.00000 
vt -3.74990 5.00000 
vt -2.74990 4.00010 
vt -2.74990 5.00000 
vt -3.74990 4.00010 
vt -3.74990 5.00000 
vt -0.99990 5.00000 
vt -1.99990 5.00000 
vt -0.99990 4.00010 
vt -1.99990 4.00010 
vt -0.99990 5.00000 
vt -0.99990 4.00010 
vt 0.00000 5.00000 
vt 0.00000 4.00010 
vt -4.74990 4.00010 
vt -4.74990 5.00000 
vt -4.99990 4.00010 
vt -4.99990 5.00000 
vt -4.74990 4.00010 
vt -3.74990 4.00010 
vt -4.74990 5.00000 
vt -3.74990 5.00000 
vt -2.74990 4.00010 
vt -2.74990 5.00000 
vt -3.74990 4.00010 
vt -3.74990 5.00000 
vt -0.99990 5.00000 
vt -1.99990 5.00000 
vt -0.99990 4.00010 
vt -1.99990 4.00010 
vt -0.99990 5.00000 
vt -0.99990 4.00010 
vt 0.00000 5.00000 
vt 0.00000 4.00010 
vt -4.74990 4.00010 
vt -4.74990 5.00000 
vt -4.99990 4.00010 
vt -4.99990 5.00000 
vt -4.74990 4.00010 
vt -3.74990 4.00010 
vt -4.74990 5.00000 
vt -3.74990 5.00000 
vt -2.74990 4.00010 
vt -2.74990 5.00000 
vt -3.74990 4.00010 
vt -3.74990 5.00000 
vt -0.99990 5.00000 
vt -1.99990 5.00000 
vt -0.99990 4.00010 
vt -1.99990 4.00010 
vt -0.99990 5.00000 
vt -0.99990 4.00010 
vt 0.00000 5.00000 
vt 0.00000 4.00010 
vt -4.74990 4.00010 
vt -4.74990 5.00000 
vt -4.99990 4.00010 
vt -4.99990 5.00000 
vt -4.74990 4.00010 
vt -3.74990 4.00010 
vt -4.74990 5.00000 
vt -3.74990 5.00000 
vt -2.74990 4.00010 
vt -2.74990 5.00000 
vt -3.74990 4.00010 
vt -3.74990 5.00000 
vt -0.99990 5.00000 
vt -1.99990 5.00000 
vt -0.99990 4.00010 
vt -1.99990 4.00010 
vt -0.99990 5.00000 
vt -0.99990 4.00010 
vt 0.00000 5.00000 
vt 0.00000 4.00010 
vt -4.74990 4.00010 
vt -4.74990 5.00000 
vt -4.99990 4.00010 
vt -4.99990 5.00000 
vt -4.74990 4.00010 
vt -3.74990 4.00010 
vt -4.74990 5.00000 
vt -3.74990 5.00000 
vt -2.74990 4.00010 
vt -2.74990 5.00000 
vt -3.74990 4.00010 
vt -3.74990 5.00000 
vt -0.99990 5.00000 
vt -1.99990 5.00000 
vt -0.99990 4.00010 
vt -1.99990 4.00010 
vt -0.99990 5.00000 
vt -0.99990 4.00010 
vt 0.00000 5.00000 
vt 0.00000 4.00010 
vt -4.74990 4.00010 
vt -4.74990 5.00000 
vt -4.99990 4.00010 
vt -4.99990 5.00000 
vt -4.74990 4.00010 
vt -3.74990 4.00010 
vt -4.74990 5.00000 
vt -3.74990 5.00000 
vt -2.74990 4.00010 
vt -2.74990 5.00000 
vt -3.74990 4.00010 
vt -3.74990 5.00000 
vt -2.74990 4.00010 
vt -2.74990 5.00000 
vt -3.74990 4.00010 
vt -3.74990 5.00000 
vt -4.74990 4.00010 
vt -3.74990 4.00010 
vt -4.74990 5.00000 
vt -3.74990 5.00000 
vt -4.74990 4.00010 
vt -4.74990 5.00000 
vt -4.99990 4.00010 
vt -4.99990 5.00000 
vt -0.99990 5.00000 
vt -0.99990 4.00010 
vt 0.00000 5.00000 
vt 0.00000 4.00010 
vt -0.99990 5.00000 
vt -1.99990 5.00000 
vt -0.99990 4.00010 
vt -1.99990 4.00010 
vt -2.74990 4.00010 
vt -2.74990 5.00000 
vt -3.74990 4.00010 
vt -3.74990 5.00000 
vt -4.74990 4.00010 
vt -3.74990 4.00010 
vt -4.74990 5.00000 
vt -3.74990 5.00000 
vt -4.74990 4.00010 
vt -4.74990 5.00000 
vt -4.99990 4.00010 
vt -4.99990 5.00000 
vt -0.99990 5.00000 
vt -0.99990 4.00010 
vt 0.00000 5.00000 
vt 0.00000 4.00010 
vt -0.99990 5.00000 
vt -1.99990 5.00000 
vt -0.99990 4.00010 
vt -1.99990 4.00010 
vt -2.74990 4.00010 
vt -2.74990 5.00000 
vt -3.74990 4.00010 
vt -3.74990 5.00000 
vt -4.74990 4.00010 
vt -3.74990 4.00010 
vt -4.74990 5.00000 
vt -3.74990 5.00000 
vt -4.74990 4.00010 
vt -4.74990 5.00000 
vt -4.99990 4.00010 
vt -4.99990 5.00000 
vt -0.99990 5.00000 
vt -0.99990 4.00010 
vt 0.00000 5.00000 
vt 0.00000 4.00010 
vt -0.99990 5.00000 
vt -1.99990 5.00000 
vt -0.99990 4.00010 
vt -1.99990 4.00010 
vt -2.74990 4.00010 
vt -2.74990 5.00000 
vt -3.74990 4.00010 
vt -3.74990 5.00000 
vt -4.74990 4.00010 
vt -3.74990 4.00010 
vt -4.74990 5.00000 
vt -3.74990 5.00000 
vt -4.74990 4.00010 
vt -4.74990 5.00000 
vt -4.99990 4.00010 
vt -4.99990 5.00000 
vt -0.99990 5.00000 
vt -0.99990 4.00010 
vt 0.00000 5.00000 
vt 0.00000 4.00010 
vt -0.99990 5.00000 
vt -1.99990 5.00000 
vt -0.99990 4.00010 
vt -1.99990 4.00010 
vt -2.74990 4.00010 
vt -2.74990 5.00000 
vt -3.74990 4.00010 
vt -3.74990 5.00000 
vt -4.74990 4.00010 
vt -3.74990 4.00010 
vt -4.74990 5.00000 
vt -3.74990 5.00000 
vt -4.74990 4.00010 
vt -4.74990 5.00000 
vt -4.99990 4.00010 
vt -4.99990 5.00000 
vt -0.99990 5.00000 
vt -0.99990 4.00010 
vt 0.00000 5.00000 
vt 0.00000 4.00010 
vt -0.99990 5.00000 
vt -1.99990 5.00000 
vt -0.99990 4.00010 
vt -1.99990 4.00010 
vt -2.74990 4.00010 
vt -2.74990 5.00000 
vt -3.74990 4.00010 
vt -3.74990 5.00000 
vt -4.74990 4.00010 
vt -3.74990 4.00010 
vt -4.74990 5.00000 
vt -3.74990 5.00000 
vt -4.74990 4.00010 
vt -4.74990 5.00000 
vt -4.99990 4.00010 
vt -4.99990 5.00000 
vt -0.99990 5.00000 
vt -0.99990 4.00010 
vt 0.00000 5.00000 
vt 0.00000 4.00010 
vt -0.99990 5.00000 
vt -1.99990 5.00000 
vt -0.99990 4.00010 
vt -1.99990 4.00010 
vt -0.99990 5.00000 
vt -1.99990 5.00000 
vt -0.99990 4.00010 
vt -1.99990 4.00010 
vt -0.99990 5.00000 
vt -0.99990 4.00010 
vt 0.00000 5.00000 
vt 0.00000 4.00010 
vt -4.74990 4.00010 
vt -4.74990 5.00000 
vt -4.99990 4.00010 
vt -4.99990 5.00000 
vt -4.74990 4.00010 
vt -3.74990 4.00010 
vt -4.74990 5.00000 
vt -3.74990 5.00000 
vt -2.74990 4.00010 
vt -2.74990 5.00000 
vt -3.74990 4.00010 
vt -3.74990 5.00000 
vt -0.99990 5.00000 
vt -1.99990 5.00000 
vt -0.99990 4.00010 
vt -1.99990 4.00010 
vt -0.99990 5.00000 
vt -0.99990 4.00010 
vt 0.00000 5.00000 
vt 0.00000 4.00010 
vt -4.74990 4.00010 
vt -4.74990 5.00000 
vt -4.99990 4.00010 
vt -4.99990 5.00000 
vt -4.74990 4.00010 
vt -3.74990 4.00010 
vt -4.74990 5.00000 
vt -3.74990 5.00000 
vt -2.74990 4.00010 
vt -2.74990 5.00000 
vt -3.74990 4.00010 
vt -3.74990 5.00000 
vt -0.99990 5.00000 
vt -1.99990 5.00000 
vt -0.99990 4.00010 
vt -1.99990 4.00010 
vt -0.99990 5.00000 
vt -0.99990 4.00010 
vt 0.00000 5.00000 
vt 0.00000 4.00010 
vt -4.74990 4.00010 
vt -4.74990 5.00000 
vt -4.99990 4.00010 
vt -4.99990 5.00000 
vt -4.74990 4.00010 
vt -3.74990 4.00010 
vt -4.74990 5.00000 
vt -3.74990 5.00000 
vt -2.74990 4.00010 
vt -2.74990 5.00000 
vt -3.74990 4.00010 
vt -3.74990 5.00000 
vt -1.91300 1.00010 
vt -1.58700 1.00010 
vt -1.83130 0.52070 
vt -1.66860 0.52070 
vt -1.83130 0.52070 
vt -1.66860 0.52070 
vt -1.91300 1.00010 
vt -1.58700 1.00010 
vt -1.83130 0.52070 
vt -1.66860 0.52070 
vt -1.83130 0.52070 
vt -1.66860 0.52070 
vt -1.91290 1.00010 
vt -1.58700 1.00010 
vt -1.83130 0.52070 
vt -1.66860 0.52070 
vt -1.83130 0.52070 
vt -1.66860 0.52070 
vt -1.91300 1.00010 
vt -1.58700 1.00010 
vt -1.83130 0.52070 
vt -1.66860 0.52070 
vt -1.83130 0.52070 
vt -1.66860 0.52070 
vt -1.91300 1.00010 
vt -1.58700 1.00010 
vt -1.83130 0.52070 
vt -1.66860 0.52070 
vt -1.83130 0.52070 
vt -1.66860 0.52070 
vt -1.91290 1.00010 
vt -1.58700 1.00010 
vt -1.83130 0.52070 
vt -1.66860 0.52070 
vt -1.83130 0.52070 
vt -1.66860 0.52070 
vt -1.91290 1.00010 
vt -1.58700 1.00010 
vt -1.83130 0.52070 
vt -1.66860 0.52070 
vt -1.83130 0.52070 
vt -1.66860 0.52070 
vt -1.91300 1.00010 
vt -1.58700 1.00010 
vt -1.83130 0.52070 
vt -1.66860 0.52070 
vt -1.83130 0.52070 
vt -1.66860 0.52070 
vt -1.91300 1.00010 
vt -1.58700 1.00010 
vt -1.83130 0.52070 
vt -1.66860 0.52070 
vt -1.83130 0.52070 
vt -1.66860 0.52070 
vt -1.91290 1.00010 
vt -1.58700 1.00010 
vt -1.83130 0.52070 
vt -1.66860 0.52070 
vt -1.83130 0.52070 
vt -1.66860 0.52070 
vt -1.91300 1.00010 
vt -1.58700 1.00010 
vt -1.83130 0.52070 
vt -1.66860 0.52070 
vt -1.83130 0.52070 
vt -1.66860 0.52070 
vt -1.91300 1.00010 
vt -1.58700 1.00010 
vt -1.83130 0.52070 
vt -1.66860 0.52070 
vt -1.83130 0.52070 
vt -1.66860 0.52070 
vt -1.91300 1.00010 
vt -1.58700 1.00010 
vt -1.83130 0.52070 
vt -1.66860 0.52070 
vt -1.83130 0.52070 
vt -1.66860 0.52070 
vt -1.91300 1.00010 
vt -1.58700 1.00010 
vt -1.83130 0.52070 
vt -1.66860 0.52070 
vt -1.83130 0.52070 
vt -1.66860 0.52070 
vt -1.91290 1.00010 
vt -1.58700 1.00010 
vt -1.83130 0.52070 
vt -1.66860 0.52070 
vt -1.83130 0.52070 
vt -1.66860 0.52070 

s 1

g Object_2

usemtl texture0

f 1/1 2/2 3/3
f 2/2 4/4 3/3
f 5/5 6/6 7/7
f 7/7 6/6 8/8
f 9/9 10/10 11/11
f 10/10 12/12 11/11
f 3/3 4/4 13/13
f 4/4 14/14 13/13
f 5/5 15/15 6/6
f 6/6 15/15 16/16
f 17/17 9/9 18/18
f 9/9 11/11 18/18
f 19/19 20/20 21/21
f 20/20 22/22 21/21
f 23/23 24/24 25/25
f 25/25 24/24 26/26
f 27/27 28/28 29/29
f 28/28 30/30 29/29
f 21/21 22/22 31/31
f 22/22 32/32 31/31
f 23/23 33/33 24/24
f 24/24 33/33 34/34
f 35/35 27/27 36/36
f 27/27 29/29 36/36
f 13/13 14/14 37/37
f 37/37 14/14 38/38
f 39/39 16/16 40/40
f 40/40 16/16 15/15
f 17/17 18/18 41/41
f 41/41 18/18 42/42
f 31/31 32/32 43/43
f 43/43 32/32 44/44
f 45/45 34/34 46/46
f 46/46 34/34 33/33
f 35/35 36/36 47/47
f 47/47 36/36 48/48
f 38/38 49/49 37/37
f 37/37 49/49 50/50
f 39/39 40/40 51/51
f 40/40 52/52 51/51
f 42/42 53/53 41/41
f 54/54 41/41 53/53
f 49/49 55/55 50/50
f 56/56 50/50 55/55
f 51/51 52/52 57/57
f 58/58 57/57 52/52
f 59/59 60/60 53/53
f 60/60 54/54 53/53
f 44/44 61/61 43/43
f 43/43 61/61 62/62
f 45/45 46/46 63/63
f 46/46 64/64 63/63
f 48/48 65/65 47/47
f 66/66 47/47 65/65
f 61/61 67/67 62/62
f 68/68 62/62 67/67
f 63/63 64/64 69/69
f 70/70 69/69 64/64
f 71/71 72/72 65/65
f 72/72 66/66 65/65
f 73/73 74/74 75/75
f 74/74 76/76 75/75
f 77/77 78/78 79/79
f 80/80 79/79 78/78
f 81/81 82/82 83/83
f 83/83 82/82 84/84
f 74/74 85/85 76/76
f 76/76 85/85 86/86
f 87/87 77/77 88/88
f 77/77 79/79 88/88
f 82/82 89/89 84/84
f 90/90 84/84 89/89
f 91/91 92/92 93/93
f 92/92 94/94 93/93
f 95/95 96/96 97/97
f 98/98 97/97 96/96
f 99/99 100/100 101/101
f 101/101 100/100 102/102
f 92/92 103/103 94/94
f 94/94 103/103 104/104
f 105/105 95/95 106/106
f 95/95 97/97 106/106
f 100/100 107/107 102/102
f 108/108 102/102 107/107
f 109/109 86/86 110/110
f 86/86 85/85 110/110
f 87/87 88/88 111/111
f 88/88 112/112 111/111
f 89/89 113/113 90/90
f 90/90 113/113 114/114
f 115/115 104/104 116/116
f 104/104 103/103 116/116
f 105/105 106/106 117/117
f 106/106 118/118 117/117
f 107/107 119/119 108/108
f 108/108 119/119 120/120
f 109/109 110/110 121/121
f 110/110 122/122 121/121
f 123/123 124/124 112/112
f 124/124 111/111 112/112
f 125/125 114/114 126/126
f 114/114 113/113 126/126
f 127/127 121/121 128/128
f 121/121 122/122 128/128
f 123/123 129/129 124/124
f 129/129 130/130 124/124
f 125/125 126/126 131/131
f 126/126 132/132 131/131
f 115/115 116/116 133/133
f 116/116 134/134 133/133
f 135/135 136/136 118/118
f 136/136 117/117 118/118
f 137/137 120/120 138/138
f 120/120 119/119 138/138
f 139/139 133/133 140/140
f 133/133 134/134 140/140
f 135/135 141/141 136/136
f 141/141 142/142 136/136
f 137/137 138/138 143/143
f 138/138 144/144 143/143

usemtl texture1

f 145/145 146/146 147/147
f 146/146 148/148 147/147
f 149/149 150/150 151/151
f 151/151 150/150 152/152
f 153/153 154/154 155/155
f 154/154 156/156 155/155
f 147/147 148/148 157/157
f 148/148 158/158 157/157
f 149/149 159/159 150/150
f 150/150 159/159 160/160
f 161/161 153/153 162/162
f 153/153 155/155 162/162
f 157/157 158/158 163/163
f 163/163 158/158 164/164
f 165/165 160/160 166/166
f 166/166 160/160 159/159
f 161/161 162/162 167/167
f 167/167 162/162 168/168
f 164/164 169/169 163/163
f 163/163 169/169 170/170
f 165/165 166/166 171/171
f 166/166 172/172 171/171
f 168/168 173/173 167/167
f 174/174 167/167 173/173
f 169/169 175/175 170/170
f 176/176 170/170 175/175
f 171/171 172/172 177/177
f 178/178 177/177 172/172
f 179/179 180/180 173/173
f 180/180 174/174 173/173
f 181/181 182/182 183/183
f 182/182 184/184 183/183
f 185/185 186/186 187/187
f 188/188 187/187 186/186
f 189/189 190/190 191/191
f 191/191 190/190 192/192
f 182/182 193/193 184/184
f 184/184 193/193 194/194
f 195/195 185/185 196/196
f 185/185 187/187 196/196
f 190/190 197/197 192/192
f 198/198 192/192 197/197
f 199/199 194/194 200/200
f 194/194 193/193 200/200
f 195/195 196/196 201/201
f 196/196 202/202 201/201
f 197/197 203/203 198/198
f 198/198 203/203 204/204
f 199/199 200/200 205/205
f 200/200 206/206 205/205
f 207/207 208/208 202/202
f 208/208 201/201 202/202
f 209/209 204/204 210/210
f 204/204 203/203 210/210
f 211/211 205/205 212/212
f 205/205 206/206 212/212
f 207/207 213/213 208/208
f 213/213 214/214 208/208
f 209/209 210/210 215/215
f 210/210 216/216 215/215

usemtl texture2

f 217/217 218/218 219/219
f 218/218 220/220 219/219
f 221/221 222/222 223/223
f 222/222 224/224 223/223
f 225/225 226/226 227/227
f 226/226 228/228 227/227
f 229/229 230/230 231/231
f 230/230 232/232 231/231
f 233/233 234/234 235/235
f 234/234 236/236 235/235
f 237/237 238/238 239/239
f 238/238 240/240 239/239
f 241/241 220/220 242/242
f 220/220 218/218 242/242
f 243/243 244/244 245/245
f 244/244 246/246 245/245
f 247/247 248/248 249/249
f 248/248 250/250 249/249
f 251/251 252/252 253/253
f 252/252 254/254 253/253
f 255/255 256/256 257/257
f 256/256 258/258 257/257
f 259/259 260/260 261/261
f 260/260 262/262 261/261
f 263/263 264/264 265/265
f 264/264 266/266 265/265
f 267/267 268/268 269/269
f 268/268 270/270 269/269
f 271/271 272/272 273/273
f 272/272 274/274 273/273
f 275/275 276/276 277/277
f 276/276 278/278 277/277
f 279/279 280/280 281/281
f 280/280 282/282 281/281
f 219/219 283/283 217/217
f 283/283 284/284 217/217
f 285/285 286/286 287/287
f 286/286 288/288 287/287
f 289/289 290/290 291/291
f 290/290 292/292 291/291
f 293/293 294/294 295/295
f 294/294 296/296 295/295
f 297/297 298/298 299/299
f 298/298 300/300 299/299
f 301/301 302/302 303/303
f 302/302 304/304 303/303
f 242/242 284/284 241/241
f 284/284 283/283 241/241

usemtl texture3

f 305/305 306/306 307/307
f 307/307 306/306 308/308
f 309/309 310/310 311/311
f 311/311 310/310 312/312
f 313/313 314/314 315/315
f 314/314 316/316 315/315
f 317/317 318/318 319/319
f 318/318 320/320 319/319
f 321/321 322/322 323/323
f 323/323 322/322 324/324
f 325/325 326/326 327/327
f 327/327 326/326 328/328
f 329/329 330/330 331/331
f 331/331 330/330 332/332
f 333/333 334/334 335/335
f 334/334 336/336 335/335
f 337/337 338/338 339/339
f 338/338 340/340 339/339
f 341/341 342/342 343/343
f 343/343 342/342 344/344
f 345/345 346/346 347/347
f 347/347 346/346 348/348
f 349/349 350/350 351/351
f 351/351 350/350 352/352
f 353/353 354/354 355/355
f 354/354 356/356 355/355
f 357/357 358/358 359/359
f 358/358 360/360 359/359
f 361/361 362/362 363/363
f 363/363 362/362 364/364
f 365/365 366/366 367/367
f 367/367 366/366 368/368
f 369/369 370/370 371/371
f 371/371 370/370 372/372
f 373/373 374/374 375/375
f 374/374 376/376 375/375
f 377/377 378/378 379/379
f 378/378 380/380 379/379
f 381/381 382/382 383/383
f 383/383 382/382 384/384
f 385/385 386/386 387/387
f 387/387 386/386 388/388
f 389/389 390/390 391/391
f 391/391 390/390 392/392
f 393/393 394/394 395/395
f 394/394 396/396 395/395
f 397/397 398/398 399/399
f 398/398 400/400 399/399
f 401/401 402/402 403/403
f 403/403 402/402 404/404
f 405/405 406/406 407/407
f 407/407 406/406 408/408
f 409/409 410/410 411/411
f 411/411 410/410 412/412
f 413/413 414/414 415/415
f 414/414 416/416 415/415
f 417/417 418/418 419/419
f 418/418 420/420 419/419
f 421/421 422/422 423/423
f 423/423 422/422 424/424
f 425/425 426/426 427/427
f 427/427 426/426 428/428
f 429/429 430/430 431/431
f 430/430 432/432 431/431
f 433/433 434/434 435/435
f 434/434 436/436 435/435
f 437/437 438/438 439/439
f 439/439 438/438 440/440
f 441/441 442/442 443/443
f 443/443 442/442 444/444
f 445/445 446/446 447/447
f 447/447 446/446 448/448
f 449/449 450/450 451/451
f 450/450 452/452 451/451
f 453/453 454/454 455/455
f 454/454 456/456 455/455
f 457/457 458/458 459/459
f 459/459 458/458 460/460
f 461/461 462/462 463/463
f 463/463 462/462 464/464
f 465/465 466/466 467/467
f 467/467 466/466 468/468
f 469/469 470/470 471/471
f 470/470 472/472 471/471
f 473/473 474/474 475/475
f 474/474 476/476 475/475
f 477/477 478/478 479/479
f 479/479 478/478 480/480
f 481/481 482/482 483/483
f 483/483 482/482 484/484
f 485/485 486/486 487/487
f 487/487 486/486 488/488
f 489/489 490/490 491/491
f 490/490 492/492 491/491
f 493/493 494/494 495/495
f 494/494 496/496 495/495
f 497/497 498/498 499/499
f 499/499 498/498 500/500
f 501/501 502/502 503/503
f 503/503 502/502 504/504
f 505/505 506/506 507/507
f 507/507 506/506 508/508
f 509/509 510/510 511/511
f 510/510 512/512 511/511
f 513/513 514/514 515/515
f 514/514 516/516 515/515
f 517/517 518/518 519/519
f 519/519 518/518 520/520
f 521/521 522/522 523/523
f 523/523 522/522 524/524
f 525/525 526/526 527/527
f 527/527 526/526 528/528
f 529/529 530/530 531/531
f 530/530 532/532 531/531
f 533/533 534/534 535/535
f 534/534 536/536 535/535
f 537/537 538/538 539/539
f 539/539 538/538 540/540
f 541/541 542/542 543/543
f 543/543 542/542 544/544
f 545/545 546/546 547/547
f 547/547 546/546 548/548
f 549/549 550/550 551/551
f 551/551 550/550 552/552
f 553/553 554/554 555/555
f 554/554 556/556 555/555
f 557/557 558/558 559/559
f 558/558 560/560 559/559
f 561/561 562/562 563/563
f 563/563 562/562 564/564
f 565/565 566/566 567/567
f 567/567 566/566 568/568
f 569/569 570/570 571/571
f 571/571 570/570 572/572
f 573/573 574/574 575/575
f 574/574 576/576 575/575
f 577/577 578/578 579/579
f 578/578 580/580 579/579
f 581/581 582/582 583/583
f 583/583 582/582 584/584
f 585/585 586/586 587/587
f 587/587 586/586 588/588
f 589/589 590/590 591/591
f 591/591 590/590 592/592
f 593/593 594/594 595/595
f 594/594 596/596 595/595
f 597/597 598/598 599/599
f 598/598 600/600 599/599
f 601/601 602/602 603/603
f 603/603 602/602 604/604

usemtl texture4

f 605/605 606/606 607/607
f 606/606 608/608 607/607
f 609/609 610/610 605/605
f 610/610 606/606 605/605
f 611/611 612/612 613/613
f 612/612 614/614 613/613
f 615/615 616/616 611/611
f 616/616 612/612 611/611
f 617/617 618/618 619/619
f 618/618 620/620 619/619
f 621/621 622/622 617/617
f 622/622 618/618 617/617
f 623/623 624/624 625/625
f 624/624 626/626 625/625
f 627/627 628/628 623/623
f 628/628 624/624 623/623
f 629/629 630/630 631/631
f 630/630 632/632 631/631
f 633/633 634/634 629/629
f 634/634 630/630 629/629
f 635/635 636/636 637/637
f 636/636 638/638 637/637
f 639/639 640/640 635/635
f 640/640 636/636 635/635
f 641/641 642/642 643/643
f 642/642 644/644 643/643
f 645/645 646/646 641/641
f 646/646 642/642 641/641
f 647/647 648/648 649/649
f 648/648 650/650 649/649
f 651/651 652/652 647/647
f 652/652 648/648 647/647
f 653/653 654/654 655/655
f 654/654 656/656 655/655
f 657/657 658/658 653/653
f 658/658 654/654 653/653
f 659/659 660/660 661/661
f 660/660 662/662 661/661
f 663/663 664/664 659/659
f 664/664 660/660 659/659
f 665/665 666/666 667/667
f 666/666 668/668 667/667
f 669/669 670/670 665/665
f 670/670 666/666 665/665
f 671/671 672/672 673/673
f 672/672 674/674 673/673
f 675/675 676/676 671/671
f 676/676 672/672 671/671
f 677/677 678/678 679/679
f 678/678 680/680 679/679
f 681/681 682/682 677/677
f 682/682 678/678 677/677
f 683/683 684/684 685/685
f 684/684 686/686 685/685
f 687/687 688/688 683/683
f 688/688 684/684 683/683
f 689/689 690/690 691/691
f 690/690 692/692 691/691
f 693/693 694/694 689/689
f 694/694 690/690 689/689

