# Model created using BSP2OBJ v0.2.1 by DCx Demo*
# http://devilclanthps3.weebly.com/

mtllib S23_ONS_22.obj.mtl
# Object number 1
# 104 faces
# 184 vertices

v -1319.99988 0.00000 15450.00000
v -1479.99988 0.00000 15450.00000
v -1319.99988 0.00000 15474.70313
v -1479.99988 0.00000 15474.70313
v -1479.99988 0.00000 15585.29688
v -1479.99988 0.00000 15610.00000
v -1319.99988 0.00000 15585.29688
v -1319.99988 0.00000 15610.00000
v -619.99994 0.00000 15450.00000
v -779.99994 0.00000 15450.00000
v -619.99994 0.00000 15474.70313
v -779.99994 0.00000 15474.70313
v -779.99994 0.00000 15585.29688
v -779.99994 0.00000 15610.00000
v -619.99994 0.00000 15585.29688
v -619.99994 0.00000 15610.00000
v 79.99986 0.00000 15450.00000
v -79.99995 0.00000 15450.00000
v 79.99986 0.00000 15474.70313
v -79.99995 0.00000 15474.70313
v -79.99995 0.00000 15585.29688
v -79.99995 0.00000 15610.00000
v 79.99986 0.00000 15585.29688
v 79.99986 0.00000 15610.00000
v 779.99982 0.00000 15450.00000
v 619.99982 0.00000 15450.00000
v 779.99982 0.00000 15474.70313
v 619.99982 0.00000 15474.70313
v 619.99982 0.00000 15585.29688
v 619.99982 0.00000 15610.00000
v 779.99982 0.00000 15585.29688
v 779.99982 0.00000 15610.00000
v 1479.99988 0.00000 15450.00000
v 1319.99988 0.00000 15450.00000
v 1479.99988 0.00000 15474.70313
v 1319.99988 0.00000 15474.70313
v 1319.99988 0.00000 15585.29688
v 1319.99988 0.00000 15610.00000
v 1479.99988 0.00000 15585.29688
v 1479.99988 0.00000 15610.00000
v -1499.99988 0.00000 15476.75293
v -1499.99988 0.00000 15450.00000
v -1979.99988 0.00000 15476.75293
v -1979.99988 0.00000 15450.00000
v -1499.99988 0.00000 15610.00000
v -1499.99988 0.00000 15583.24707
v -1979.99988 0.00000 15610.00000
v -1979.99988 0.00000 15583.24707
v -799.99994 0.00000 15476.75293
v -799.99994 0.00000 15450.00000
v -1299.99988 0.00000 15476.75293
v -1299.99988 0.00000 15450.00000
v -799.99994 0.00000 15610.00000
v -799.99994 0.00000 15583.24707
v -1299.99988 0.00000 15610.00000
v -1299.99988 0.00000 15583.24707
v -99.99995 0.00000 15476.75293
v -99.99995 0.00000 15450.00000
v -599.99994 0.00000 15476.75293
v -599.99994 0.00000 15450.00000
v -99.99995 0.00000 15610.00000
v -99.99995 0.00000 15583.24707
v -599.99994 0.00000 15610.00000
v -599.99994 0.00000 15583.24707
v 599.99982 0.00000 15476.75293
v 599.99982 0.00000 15450.00000
v 99.99986 0.00000 15476.75293
v 99.99986 0.00000 15450.00000
v 599.99982 0.00000 15610.00000
v 599.99982 0.00000 15583.24707
v 99.99986 0.00000 15610.00000
v 99.99986 0.00000 15583.24707
v 1299.99988 0.00000 15476.75293
v 1299.99988 0.00000 15450.00000
v 799.99982 0.00000 15476.75293
v 799.99982 0.00000 15450.00000
v 1299.99988 0.00000 15610.00000
v 1299.99988 0.00000 15583.24707
v 799.99982 0.00000 15610.00000
v 799.99982 0.00000 15583.24707
v 1499.99988 0.00000 15450.00000
v 1499.99988 0.00000 15476.75293
v 1979.99988 0.00000 15450.00000
v 1979.99988 0.00000 15476.75293
v 1499.99988 0.00000 15583.24707
v 1499.99988 0.00000 15610.00000
v 1979.99988 0.00000 15583.24707
v 1979.99988 0.00000 15610.00000
v -1999.99988 0.00000 15450.00000
v -1999.99988 0.00000 15530.00000
v -1979.99988 0.00000 15450.00000
v -1979.99988 0.00000 15530.00000
v -1999.99988 0.00000 15610.00000
v -1979.99988 0.00000 15610.00000
v -1499.99988 0.00000 15450.00000
v -1499.99988 0.00000 15530.00000
v -1479.99988 0.00000 15450.00000
v -1479.99988 0.00000 15530.00000
v -1499.99988 0.00000 15610.00000
v -1479.99988 0.00000 15610.00000
v -1319.99988 0.00000 15450.00000
v -1319.99988 0.00000 15530.00000
v -1299.99988 0.00000 15450.00000
v -1299.99988 0.00000 15530.00000
v -1319.99988 0.00000 15610.00000
v -1299.99988 0.00000 15610.00000
v -799.99994 0.00000 15450.00000
v -799.99994 0.00000 15530.00000
v -779.99994 0.00000 15450.00000
v -779.99994 0.00000 15530.00000
v -799.99994 0.00000 15610.00000
v -779.99994 0.00000 15610.00000
v -619.99994 0.00000 15450.00000
v -619.99994 0.00000 15530.00000
v -599.99994 0.00000 15450.00000
v -599.99994 0.00000 15530.00000
v -619.99994 0.00000 15610.00000
v -599.99994 0.00000 15610.00000
v -99.99995 0.00000 15450.00000
v -99.99995 0.00000 15530.00000
v -79.99995 0.00000 15450.00000
v -79.99995 0.00000 15530.00000
v -99.99995 0.00000 15610.00000
v -79.99995 0.00000 15610.00000
v 79.99986 0.00000 15450.00000
v 79.99986 0.00000 15530.00000
v 99.99986 0.00000 15450.00000
v 99.99986 0.00000 15530.00000
v 79.99986 0.00000 15610.00000
v 99.99986 0.00000 15610.00000
v 599.99982 0.00000 15450.00000
v 599.99982 0.00000 15530.00000
v 619.99982 0.00000 15450.00000
v 619.99982 0.00000 15530.00000
v 599.99982 0.00000 15610.00000
v 619.99982 0.00000 15610.00000
v 779.99982 0.00000 15450.00000
v 779.99982 0.00000 15530.00000
v 799.99982 0.00000 15450.00000
v 799.99982 0.00000 15530.00000
v 779.99982 0.00000 15610.00000
v 799.99982 0.00000 15610.00000
v 1299.99988 0.00000 15450.00000
v 1299.99988 0.00000 15530.00000
v 1319.99988 0.00000 15450.00000
v 1319.99988 0.00000 15530.00000
v 1299.99988 0.00000 15610.00000
v 1319.99988 0.00000 15610.00000
v 1499.99988 0.00000 15530.00000
v 1499.99988 0.00000 15450.00000
v 1479.99988 0.00000 15530.00000
v 1479.99988 0.00000 15450.00000
v 1499.99988 0.00000 15610.00000
v 1479.99988 0.00000 15610.00000
v 1999.99988 0.00000 15530.00000
v 1999.99988 0.00000 15450.00000
v 1979.99988 0.00000 15530.00000
v 1979.99988 0.00000 15450.00000
v 1999.99988 0.00000 15610.00000
v 1979.99988 0.00000 15610.00000
v -1979.99988 0.00000 15476.75293
v -1979.99988 0.00000 15583.24707
v -1499.99988 0.00000 15476.75293
v -1499.99988 0.00000 15583.24707
v -1299.99988 0.00000 15476.75293
v -1299.99988 0.00000 15583.24707
v -799.99994 0.00000 15476.75293
v -799.99994 0.00000 15583.24707
v -599.99994 0.00000 15476.75293
v -599.99994 0.00000 15583.24707
v -99.99995 0.00000 15476.75293
v -99.99995 0.00000 15583.24707
v 99.99986 0.00000 15476.75293
v 99.99986 0.00000 15583.24707
v 599.99982 0.00000 15476.75293
v 599.99982 0.00000 15583.24707
v 799.99982 0.00000 15476.75293
v 799.99982 0.00000 15583.24707
v 1299.99988 0.00000 15476.75293
v 1299.99988 0.00000 15583.24707
v 1979.99988 0.00000 15476.75293
v 1499.99988 0.00000 15476.75293
v 1979.99988 0.00000 15583.24707
v 1499.99988 0.00000 15583.24707

vt -2.62520 -3.99540 
vt 0.12470 -3.99540 
vt -2.62520 -4.38430 
vt 0.12470 -4.38430 
vt -2.62520 -4.38430 
vt -2.62520 -3.99050 
vt 0.12470 -4.38430 
vt 0.12470 -3.99050 
vt -2.62520 -3.99120 
vt 0.12470 -3.99120 
vt -2.62520 -4.38180 
vt 0.12470 -4.38180 
vt 0.12470 -4.38180 
vt 0.12470 -3.99120 
vt -2.62520 -4.38180 
vt -2.62520 -3.99120 
vt -2.62520 -3.99120 
vt 0.12470 -3.99120 
vt -2.62520 -4.38180 
vt 0.12470 -4.38180 
vt 0.12470 -4.38180 
vt 0.12470 -3.99120 
vt -2.62520 -4.38180 
vt -2.62520 -3.99120 
vt -2.62520 -3.99120 
vt 0.12470 -3.99120 
vt -2.62520 -4.38180 
vt 0.12470 -4.38180 
vt 0.12470 -4.38180 
vt 0.12470 -3.99120 
vt -2.62520 -4.38180 
vt -2.62520 -3.99120 
vt -2.62520 -3.99120 
vt 0.12470 -3.99120 
vt -2.62520 -4.38180 
vt 0.12470 -4.38180 
vt 0.12470 -4.38180 
vt 0.12470 -3.99120 
vt -2.62520 -4.38180 
vt -2.62520 -3.99120 
vt 8.24990 -4.99990 
vt 8.24990 -3.99990 
vt -4.99990 -4.99990 
vt -4.99990 -3.99990 
vt 8.24990 -3.99990 
vt 8.24990 -4.99990 
vt -4.99990 -3.99990 
vt -4.99990 -4.99990 
vt 8.24990 -4.99990 
vt 8.24990 -3.99990 
vt -4.99990 -4.99990 
vt -4.99990 -3.99990 
vt 8.24990 -3.99990 
vt 8.24990 -4.99990 
vt -4.99990 -3.99990 
vt -4.99990 -4.99990 
vt 8.24990 -4.99990 
vt 8.24990 -3.99990 
vt -4.99990 -4.99990 
vt -4.99990 -3.99990 
vt 8.24990 -3.99990 
vt 8.24990 -4.99990 
vt -4.99990 -3.99990 
vt -4.99990 -4.99990 
vt 8.24990 -4.99990 
vt 8.24990 -3.99990 
vt -4.99990 -4.99990 
vt -4.99990 -3.99990 
vt 8.24990 -3.99990 
vt 8.24990 -4.99990 
vt -4.99990 -3.99990 
vt -4.99990 -4.99990 
vt 8.24990 -4.99990 
vt 8.24990 -3.99990 
vt -4.99990 -4.99990 
vt -4.99990 -3.99990 
vt 8.24990 -3.99990 
vt 8.24990 -4.99990 
vt -4.99990 -3.99990 
vt -4.99990 -4.99990 
vt -4.99990 -3.99990 
vt -4.99990 -4.99990 
vt 8.24990 -3.99990 
vt 8.24990 -4.99990 
vt -4.99990 -4.99990 
vt -4.99990 -3.99990 
vt 8.24990 -4.99990 
vt 8.24990 -3.99990 
vt 0.00180 -3.49830 
vt 0.99810 -3.49830 
vt 0.00180 -3.00220 
vt 0.99810 -3.00220 
vt 0.00180 -3.49830 
vt 0.00180 -3.00220 
vt 0.00180 -3.49830 
vt 0.99810 -3.49830 
vt 0.00180 -3.00220 
vt 0.99810 -3.00220 
vt 0.00180 -3.49830 
vt 0.00180 -3.00220 
vt 0.00180 -3.49830 
vt 0.99810 -3.49830 
vt 0.00180 -3.00220 
vt 0.99810 -3.00220 
vt 0.00180 -3.49830 
vt 0.00180 -3.00220 
vt 0.00180 -3.49830 
vt 0.99810 -3.49830 
vt 0.00180 -3.00220 
vt 0.99810 -3.00220 
vt 0.00180 -3.49830 
vt 0.00180 -3.00220 
vt 0.00180 -3.49830 
vt 0.99810 -3.49830 
vt 0.00180 -3.00220 
vt 0.99810 -3.00220 
vt 0.00180 -3.49830 
vt 0.00180 -3.00220 
vt 0.00180 -3.49830 
vt 0.99810 -3.49830 
vt 0.00180 -3.00220 
vt 0.99810 -3.00220 
vt 0.00180 -3.49830 
vt 0.00180 -3.00220 
vt 0.00180 -3.49830 
vt 0.99810 -3.49830 
vt 0.00180 -3.00220 
vt 0.99810 -3.00220 
vt 0.00180 -3.49830 
vt 0.00180 -3.00220 
vt 0.00180 -3.49830 
vt 0.99810 -3.49830 
vt 0.00180 -3.00220 
vt 0.99810 -3.00220 
vt 0.00180 -3.49830 
vt 0.00180 -3.00220 
vt 0.00180 -3.49830 
vt 0.99810 -3.49830 
vt 0.00180 -3.00220 
vt 0.99810 -3.00220 
vt 0.00180 -3.49830 
vt 0.00180 -3.00220 
vt 0.00180 -3.49830 
vt 0.99810 -3.49830 
vt 0.00180 -3.00220 
vt 0.99810 -3.00220 
vt 0.00180 -3.49830 
vt 0.00180 -3.00220 
vt 0.99810 -3.00220 
vt 0.00180 -3.00220 
vt 0.99810 -3.49830 
vt 0.00180 -3.49830 
vt 0.00180 -3.00220 
vt 0.00180 -3.49830 
vt 0.99810 -3.00220 
vt 0.00180 -3.00220 
vt 0.99810 -3.49830 
vt 0.00180 -3.49830 
vt 0.00180 -3.00220 
vt 0.00180 -3.49830 
vt -1.00000 -3.99990 
vt 1.00000 -3.99990 
vt -1.00000 1.99990 
vt 1.00000 1.99990 
vt -1.00000 1.99990 
vt 1.00000 1.99990 
vt -1.00000 -3.99990 
vt 1.00000 -3.99990 
vt 0.99990 -3.99990 
vt -0.99800 -3.99990 
vt 0.99990 1.99990 
vt -0.99800 1.99990 
vt -1.00000 1.99990 
vt 1.00000 1.99990 
vt -1.00000 -3.99990 
vt 1.00000 -3.99990 
vt -1.00000 1.99990 
vt 1.00000 1.99990 
vt -1.00000 -3.99990 
vt 1.00000 -3.99990 
vt 1.00000 -3.99990 
vt 1.00000 1.99990 
vt -1.00000 -3.99990 
vt -1.00000 1.99990 

s 1

g Object_2

usemtl texture0

f 1/1 2/2 3/3
f 2/2 4/4 3/3
f 5/5 6/6 7/7
f 6/6 8/8 7/7
f 9/9 10/10 11/11
f 10/10 12/12 11/11
f 13/13 14/14 15/15
f 14/14 16/16 15/15
f 17/17 18/18 19/19
f 18/18 20/20 19/19
f 21/21 22/22 23/23
f 22/22 24/24 23/23
f 25/25 26/26 27/27
f 26/26 28/28 27/27
f 29/29 30/30 31/31
f 30/30 32/32 31/31
f 33/33 34/34 35/35
f 34/34 36/36 35/35
f 37/37 38/38 39/39
f 38/38 40/40 39/39

usemtl texture1

f 41/41 42/42 43/43
f 42/42 44/44 43/43
f 45/45 46/46 47/47
f 46/46 48/48 47/47
f 49/49 50/50 51/51
f 50/50 52/52 51/51
f 53/53 54/54 55/55
f 54/54 56/56 55/55
f 57/57 58/58 59/59
f 58/58 60/60 59/59
f 61/61 62/62 63/63
f 62/62 64/64 63/63
f 65/65 66/66 67/67
f 66/66 68/68 67/67
f 69/69 70/70 71/71
f 70/70 72/72 71/71
f 73/73 74/74 75/75
f 74/74 76/76 75/75
f 77/77 78/78 79/79
f 78/78 80/80 79/79
f 81/81 82/82 83/83
f 82/82 84/84 83/83
f 85/85 86/86 87/87
f 86/86 88/88 87/87

usemtl texture2

f 89/89 90/90 91/91
f 90/90 92/92 91/91
f 90/90 93/93 92/92
f 93/93 94/94 92/92
f 95/95 96/96 97/97
f 96/96 98/98 97/97
f 96/96 99/99 98/98
f 99/99 100/100 98/98
f 101/101 102/102 103/103
f 102/102 104/104 103/103
f 102/102 105/105 104/104
f 105/105 106/106 104/104
f 107/107 108/108 109/109
f 108/108 110/110 109/109
f 108/108 111/111 110/110
f 111/111 112/112 110/110
f 113/113 114/114 115/115
f 114/114 116/116 115/115
f 114/114 117/117 116/116
f 117/117 118/118 116/116
f 119/119 120/120 121/121
f 120/120 122/122 121/121
f 120/120 123/123 122/122
f 123/123 124/124 122/122
f 125/125 126/126 127/127
f 126/126 128/128 127/127
f 126/126 129/129 128/128
f 129/129 130/130 128/128
f 131/131 132/132 133/133
f 132/132 134/134 133/133
f 132/132 135/135 134/134
f 135/135 136/136 134/134
f 137/137 138/138 139/139
f 138/138 140/140 139/139
f 138/138 141/141 140/140
f 141/141 142/142 140/140
f 143/143 144/144 145/145
f 144/144 146/146 145/145
f 144/144 147/147 146/146
f 147/147 148/148 146/146
f 149/149 150/150 151/151
f 150/150 152/152 151/151
f 153/153 149/149 154/154
f 149/149 151/151 154/154
f 155/155 156/156 157/157
f 156/156 158/158 157/157
f 159/159 155/155 160/160
f 155/155 157/157 160/160

usemtl texture3

f 161/161 162/162 163/163
f 162/162 164/164 163/163
f 165/165 166/166 167/167
f 166/166 168/168 167/167
f 169/169 170/170 171/171
f 170/170 172/172 171/171
f 173/173 174/174 175/175
f 174/174 176/176 175/175
f 177/177 178/178 179/179
f 178/178 180/180 179/179
f 181/181 182/182 183/183
f 182/182 184/184 183/183

