# Model created using BSP2OBJ v0.2.1 by DCx Demo*
# http://devilclanthps3.weebly.com/

mtllib S23_DN_26.obj.mtl
# Object number 1
# 704 faces
# 673 vertices

v 16379.28125 -469.23828 977.42969
v 16428.28320 -685.42383 2166.13672
v 16198.51953 -469.23828 2656.03711
v 16767.86719 1152.78125 2137.48047
v 16330.48730 699.33203 1203.47852
v 16246.78516 699.33203 2637.49414
v 17131.16406 -685.42383 621.52930
v 17209.58008 1448.02148 1149.41992
v 16951.42969 -469.23828 571.31836
v 16485.02344 1875.13477 1805.59961
v 17116.60742 2128.93750 1555.76563
v 16914.65430 1857.10547 1536.54102
v 17209.58008 1448.02148 1149.41992
v 16989.25391 713.94727 419.51563
v 17363.56055 1405.08203 1310.94922
v 16494.75781 1662.50781 1813.46680
v 16823.20117 1652.10742 1666.28320
v 17676.88086 699.33203 2776.95117
v 16660.65820 1840.76563 1228.53711
v 16914.65430 1857.10547 1536.54102
v 16899.68555 1703.06445 2555.50977
v 17363.56055 1405.08203 1310.94922
v 16743.86523 1626.93945 1222.89258
v 16963.23047 -469.23828 -33.61914
v 17716.22461 1904.44531 2025.73438
v 16895.98828 1916.29492 2558.70703
v 17402.82422 1786.17188 358.03125
v 17116.60742 2128.93750 1555.76563
v 17363.56055 1405.08203 1310.94922
v 17320.90625 1580.40039 475.30469
v 16767.86719 1152.78125 2137.48047
v 17487.02734 1448.02148 1660.63086
v 17001.78125 713.94727 -222.75391
v 17582.25391 1448.02148 1092.61914
v 17487.02734 1448.02148 1660.63086
v 17363.56055 1405.08203 1310.94922
v 17714.15039 1691.38867 2024.97266
v 17116.60742 2128.93750 1555.76563
v 17946.45313 1793.46484 876.53516
v 18153.09766 713.94727 498.42188
v 18100.18945 1585.25195 859.09375
v 17363.56055 1405.08203 1310.94922
v 17363.56055 1405.08203 1310.94922
v 16246.78516 429.26563 2637.49414
v 16330.48828 429.26563 1203.47852
v 16388.71289 85.47656 1157.82227
v 16224.24316 85.47656 2685.12891
v 16474.82813 202.70703 2395.77539
v 16602.75195 202.70703 1207.83789
v 16176.31445 -1045.47461 2548.75586
v 16984.74805 -906.20703 222.82227
v 16362.65137 -2174.60352 2302.40625
v 17004.33789 -2064.06055 456.21289
v 16928.41797 429.26563 711.13672
v 16909.28906 85.47656 788.31641
v 17131.16406 -685.42383 621.52930
v 16428.28320 -685.42383 2166.13672
v 17007.65625 202.70703 920.43750
v 16815.79297 -6130.98828 1851.23828
v 17185.04688 -6130.98828 1039.78906
v 17490.71289 -1160.35352 2998.72656
v 17301.32227 -685.42383 2563.41797
v 17405.94531 -2265.79102 2659.56836
v 17580.04492 -469.23828 2765.34766
v 17481.24414 85.47656 2784.58398
v 17301.32227 -685.42383 2563.41797
v 17452.52148 202.70703 2473.13281
v 16920.02539 85.47656 237.90625
v 17676.88086 429.26563 2776.95117
v 17016.00781 202.70703 492.32813
v 16939.14453 429.26563 161.02734
v 17274.43750 -6130.98828 2059.94727
v 16867.26172 -30940.77344 1748.76953
v 17281.93359 -30940.77344 1212.26758
v 17246.12695 -30940.77344 1824.78516
v 17906.66992 85.47656 855.93555
v 17783.41797 202.70703 973.03125
v 17925.25586 429.26563 778.72070
v 17616.04883 -6130.98828 1309.24805
v 17581.91406 -30940.77344 1390.34180
v 17616.04883 -6130.98828 1309.24805
v 17581.91406 -30940.77344 1390.34180
v 18047.61719 -469.23828 645.63477
v 18037.27734 -2157.03320 843.17188
v 17616.04883 -6130.98828 1309.24805
v 18004.20313 -685.42383 1018.81055
v 18292.76758 -1022.18750 691.14258
v 18037.27734 -2157.03320 843.17188
v 18037.27734 -2157.03320 843.17188
v 17616.04883 -6130.98828 1309.24805
v 18292.76758 -1022.18750 691.14258
v 18004.20313 -685.42383 1018.81055
v 18025.34570 85.47656 1276.21680
v 17875.72461 202.70703 1299.92383
v 17582.25391 1448.02148 1092.61914
v 18291.58008 713.94727 988.84766
v 18043.86719 429.26563 1198.77344
v 18178.04883 -469.23828 1107.55273
v 18292.76758 -1022.18750 691.14258
v 18004.20313 -685.42383 1018.81055
v 18292.76758 -1022.18750 691.14258
v 18037.27734 -2157.03320 843.17188
v 18043.86719 429.26563 1198.77344
v 13855.20898 336.78540 -1638.40332
v 13855.20898 416.78540 -1638.40332
v 13894.87402 336.78540 -1860.52856
v 13894.87402 416.78540 -1860.52856
v 13958.84570 416.78540 -1433.01563
v 13958.84570 336.78540 -1433.01563
v 14065.53320 336.78540 -2012.12012
v 14065.53320 416.78540 -2012.12012
v 14289.30762 336.78540 -2037.32056
v 14289.30762 416.78540 -2037.32056
v 14406.74805 416.78540 -907.41156
v 14406.74805 336.78540 -907.41156
v 14601.45605 416.78540 -783.37817
v 14601.45605 336.78540 -783.37817
v 14932.33008 416.78540 -1391.62305
v 14932.33008 336.78540 -1391.62305
v 14485.41113 416.78540 -1919.28809
v 14485.41113 336.78540 -1919.28809
v 14829.51465 336.78540 -813.68103
v 14829.51465 416.78540 -813.68103
v 14986.17090 416.78540 -962.89008
v 14986.17090 336.78540 -962.89008
v 15037.24609 416.78540 -1186.85120
v 15037.24609 336.78540 -1186.85120
v 14485.41113 416.78540 -1919.28809
v 14485.41113 336.78540 -1919.28809
v 14289.30762 416.78540 -2037.32056
v 14289.30762 336.78540 -2037.32056
v 13806.22363 336.78540 -1657.29370
v 13849.19629 336.78540 -1897.93005
v 13806.22363 90.10431 -1657.29370
v 13849.19629 90.10431 -1897.93005
v 13918.50488 336.78540 -1434.79004
v 13918.50488 90.10431 -1434.79004
v 14034.07227 336.78540 -2062.16016
v 14034.07227 90.10431 -2062.16016
v 14276.50488 336.78540 -2089.46265
v 14276.50488 90.10431 -2089.46265
v 14403.72949 336.78540 -865.38171
v 14403.72949 90.10431 -865.38171
v 14488.94629 336.78540 -1961.58936
v 14488.94629 90.10431 -1961.58936
v 14614.66113 336.78540 -731.01288
v 14614.66113 90.10431 -731.01288
v 14973.11230 336.78540 -1389.94360
v 14973.11230 90.10431 -1389.94360
v 15086.77148 336.78540 -1168.11938
v 15086.77148 90.10431 -1168.11938
v 14614.66113 336.78540 -731.01288
v 14614.66113 90.10431 -731.01288
v 14638.79395 270.32568 -733.81390
v 14638.79395 150.32574 -733.81390
v 14861.52637 90.10431 -763.67645
v 14861.52637 150.32574 -763.67645
v 14861.52637 336.78540 -763.67645
v 14861.52637 270.32568 -763.67645
v 15031.46289 336.78540 -925.51093
v 15031.46289 270.32568 -925.51093
v 15031.46289 150.32574 -925.51093
v 15031.46289 90.10431 -925.51093
v 15086.77148 90.10431 -1168.11938
v 15081.70996 150.32574 -1144.25232
v 15086.77148 336.78540 -1168.11938
v 15081.70996 270.32568 -1144.25232
v 13657.58887 990.32568 -1714.96362
v 13710.58203 990.32568 -2011.72400
v 13657.58887 416.78540 -1714.96362
v 13710.58203 416.78540 -2011.72400
v 13796.04688 990.32568 -1440.57019
v 13796.04688 416.78540 -1440.57019
v 13938.57617 990.32568 -2214.25073
v 13938.57617 416.78540 -2214.25073
v 14237.53906 990.32568 -2247.92163
v 14237.53906 416.78540 -2247.92163
v 14394.43457 990.32568 -738.37585
v 14394.43457 416.78540 -738.37585
v 14499.52539 990.32568 -2090.23633
v 14499.52539 416.78540 -2090.23633
v 14654.55664 990.32568 -572.66187
v 14654.55664 416.78540 -572.66187
v 14499.52539 990.32568 -2090.23633
v 15096.60254 990.32568 -1385.26636
v 14499.52539 416.78540 -2090.23633
v 15096.60254 416.78540 -1385.26636
v 14952.15137 990.32568 -607.18298
v 14952.15137 416.78540 -607.18298
v 15174.30664 990.32568 -817.34534
v 15174.30664 416.78540 -817.34534
v 15236.76855 990.32568 -1111.70679
v 15236.76855 416.78540 -1111.70679
v 13849.19629 336.78540 -1897.93005
v 13806.22363 336.78540 -1657.29370
v 13894.87402 336.78540 -1860.52856
v 13855.20898 336.78540 -1638.40332
v 13918.50488 336.78540 -1434.79004
v 13958.84570 336.78540 -1433.01563
v 14034.07227 336.78540 -2062.16016
v 14065.53320 336.78540 -2012.12012
v 14276.50488 336.78540 -2089.46265
v 14289.30762 336.78540 -2037.32056
v 14403.72949 336.78540 -865.38171
v 14406.74805 336.78540 -907.41156
v 14488.94629 336.78540 -1961.58936
v 14485.41113 336.78540 -1919.28809
v 14614.66113 336.78540 -731.01288
v 14601.45605 336.78540 -783.37817
v 14488.94629 336.78540 -1961.58936
v 14485.41113 336.78540 -1919.28809
v 14973.11230 336.78540 -1389.94360
v 14932.33008 336.78540 -1391.62305
v 14861.52637 336.78540 -763.67645
v 14829.51465 336.78540 -813.68103
v 15031.46289 336.78540 -925.51093
v 14986.17090 336.78540 -962.89008
v 15086.77148 336.78540 -1168.11938
v 15037.24609 336.78540 -1186.85120
v 13710.58203 416.78540 -2011.72400
v 13894.87402 416.78540 -1860.52856
v 13657.58887 416.78540 -1714.96362
v 13855.20898 416.78540 -1638.40332
v 13796.04688 416.78540 -1440.57019
v 13958.84570 416.78540 -1433.01563
v 13938.57617 416.78540 -2214.25073
v 14065.53320 416.78540 -2012.12012
v 14237.53906 416.78540 -2247.92163
v 14289.30762 416.78540 -2037.32056
v 14394.43457 416.78540 -738.37585
v 14406.74805 416.78540 -907.41156
v 14499.52539 416.78540 -2090.23633
v 14485.41113 416.78540 -1919.28809
v 14654.55664 416.78540 -572.66187
v 14601.45605 416.78540 -783.37817
v 14952.15137 416.78540 -607.18298
v 14829.51465 416.78540 -813.68103
v 15174.30664 416.78540 -817.34534
v 14986.17090 416.78540 -962.89008
v 15236.76855 416.78540 -1111.70679
v 15037.24609 416.78540 -1186.85120
v 15096.60254 416.78540 -1385.26636
v 14932.33008 416.78540 -1391.62305
v 14499.52539 416.78540 -2090.23633
v 15096.60254 416.78540 -1385.26636
v 14485.41113 416.78540 -1919.28809
v 14932.33008 416.78540 -1391.62305
v 13835.97168 -23231.98828 -1908.76587
v 13792.04102 -23231.98828 -1662.76172
v 13835.97168 -421.46268 -1908.76587
v 13792.04102 -421.46268 -1662.76172
v 13903.14844 48.73199 -1853.74707
v 13864.08398 48.73199 -1634.97449
v 13906.81641 -23231.98828 -1435.30164
v 13906.81641 -421.46268 -1435.30164
v 13849.19629 90.10431 -1897.93005
v 13806.22363 90.10431 -1657.29370
v 13966.15918 48.73199 -1432.69385
v 13918.50488 90.10431 -1434.79004
v 14024.96777 -23231.98828 -2076.65430
v 14024.96777 -421.46268 -2076.65430
v 14071.23145 48.73199 -2003.06055
v 14034.07227 90.10431 -2062.16016
v 14272.79199 -23231.98828 -2104.56055
v 14272.79199 -421.46268 -2104.56055
v 14402.85449 -23231.98828 -853.21423
v 14402.85449 -421.46268 -853.21423
v 14291.62402 48.73199 -2027.87695
v 14276.50488 90.10431 -2089.46265
v 14407.29492 48.73199 -915.02722
v 14403.72949 90.10431 -865.38171
v 14489.97266 -23231.98828 -1973.84351
v 14489.97266 -421.46268 -1973.84351
v 14484.77051 48.73199 -1911.62500
v 14488.94629 90.10431 -1961.58936
v 14614.66113 90.10431 -731.01288
v 14599.06055 48.73199 -792.86743
v 14618.48438 -421.46268 -715.84424
v 14618.48438 -23231.98828 -715.84424
v 14488.94629 90.10431 -1961.58936
v 14973.11230 90.10431 -1389.94360
v 14484.77051 48.73199 -1911.62500
v 14924.94336 48.73199 -1391.92358
v 14984.91992 -421.46268 -1389.46057
v 14489.97266 -421.46268 -1973.84351
v 14861.52637 90.10431 -763.67645
v 14823.70996 48.73199 -822.73309
v 14865.17773 -421.46268 -744.46387
v 14984.91992 -23231.98828 -1389.46057
v 14489.97266 -23231.98828 -1973.84351
v 14865.17773 -23231.98828 -744.46387
v 15031.46289 90.10431 -925.51093
v 14977.96289 48.73199 -969.66583
v 15049.33594 -421.46268 -918.67578
v 15049.33594 -23231.98828 -918.67578
v 15086.77148 90.10431 -1168.11938
v 15028.27441 48.73199 -1190.24963
v 15101.11328 -421.46268 -1162.69299
v 15101.11328 -23231.98828 -1162.69299
v 15031.46680 150.32588 -925.51056
v 15045.82910 163.59128 -939.79608
v 15031.46680 270.32578 -925.51056
v 15045.82910 257.49557 -939.79608
v 15045.82910 257.49557 -939.79608
v 15045.82910 163.59128 -939.79608
v 15054.07324 245.75748 -971.61578
v 15054.07324 175.32939 -971.61578
v 15081.71387 150.32588 -1144.25183
v 15090.81348 163.59128 -1113.41003
v 15031.46680 150.32588 -925.51056
v 15045.82910 163.59128 -939.79608
v 15081.71387 270.32578 -1144.25195
v 15031.46680 270.32578 -925.51056
v 15090.81348 257.49557 -1113.41003
v 15045.82910 257.49557 -939.79608
v 15090.81348 257.49557 -1113.41003
v 15045.82910 257.49557 -939.79608
v 15082.56836 245.75748 -1081.59033
v 15054.07324 245.75748 -971.61578
v 15045.82910 163.59128 -939.79608
v 15090.81348 163.59128 -1113.41003
v 15054.07324 175.32939 -971.61578
v 15082.56836 175.32939 -1081.59033
v 15074.75195 175.33699 -1051.42065
v 15074.75195 210.56198 -1051.42065
v 15061.89063 175.33699 -1001.78540
v 15061.89063 210.56198 -1001.78540
v 15074.75195 245.78699 -1051.42065
v 15061.89063 245.78699 -1001.78540
v 15081.71387 150.32588 -1144.25183
v 15081.71387 270.32578 -1144.25195
v 15090.81348 163.59128 -1113.41003
v 15090.81348 257.49557 -1113.41003
v 15090.81348 163.59128 -1113.41003
v 15090.81348 257.49557 -1113.41003
v 15082.56836 175.32939 -1081.59033
v 15082.56836 245.75748 -1081.59033
v 14861.52930 150.32588 -763.67627
v 14887.69531 163.59128 -776.74725
v 14861.52930 270.32578 -763.67627
v 14887.69531 257.49557 -776.74725
v 14887.69531 257.49557 -776.74725
v 14887.69531 163.59128 -776.74725
v 14911.56348 245.75748 -799.34735
v 14911.56348 175.32939 -799.34735
v 14861.52930 270.32578 -763.67627
v 14887.69531 257.49557 -776.74725
v 15031.46582 270.32578 -925.51056
v 15017.92578 257.49557 -900.05750
v 14861.52930 150.32588 -763.67627
v 15031.46582 150.32588 -925.51056
v 14887.69531 163.59128 -776.74725
v 15017.92578 163.59128 -900.05750
v 14887.69531 163.59128 -776.74725
v 15017.92578 163.59128 -900.05750
v 14911.56348 175.32939 -799.34735
v 14994.05762 175.32939 -877.45734
v 14971.42676 175.33699 -856.02924
v 14971.42676 210.56198 -856.02924
v 14934.19434 175.33699 -820.77551
v 14934.19434 210.56198 -820.77551
v 14971.42676 245.78699 -856.02924
v 14934.19434 245.78699 -820.77551
v 15017.92578 257.49557 -900.05750
v 14887.69531 257.49557 -776.74725
v 14994.05762 245.75748 -877.45734
v 14911.56348 245.75748 -799.34735
v 15017.92578 163.59128 -900.05750
v 15017.92578 257.49557 -900.05750
v 14994.05762 175.32939 -877.45734
v 14994.05762 245.75748 -877.45734
v 15031.46582 150.32588 -925.51056
v 15031.46582 270.32578 -925.51056
v 15017.92578 163.59128 -900.05750
v 15017.92578 257.49557 -900.05750
v 14638.79785 270.32578 -733.81360
v 14638.79785 150.32588 -733.81360
v 14663.40234 257.49557 -723.39130
v 14663.40234 163.59128 -723.39130
v 14663.40234 257.49557 -723.39130
v 14663.40234 163.59128 -723.39130
v 14695.90039 245.75748 -728.32953
v 14695.90039 175.32939 -728.32953
v 14638.79785 150.32588 -733.81360
v 14861.53027 150.32588 -763.67621
v 14663.40234 163.59128 -723.39130
v 14840.71484 163.59128 -750.33502
v 14638.79785 270.32578 -733.81360
v 14663.40234 257.49557 -723.39130
v 14861.53027 270.32578 -763.67621
v 14840.71484 257.49557 -750.33502
v 14663.40234 163.59128 -723.39130
v 14840.71484 163.59128 -750.33502
v 14695.90039 175.32939 -728.32953
v 14808.21680 175.32939 -745.39679
v 14777.40527 175.33699 -740.71466
v 14777.40527 210.56198 -740.71466
v 14726.71191 175.33699 -733.01166
v 14726.71191 210.56198 -733.01166
v 14777.40527 245.78699 -740.71466
v 14726.71191 245.78699 -733.01166
v 14840.71484 257.49557 -750.33502
v 14663.40234 257.49557 -723.39130
v 14808.21680 245.75748 -745.39679
v 14695.90039 245.75748 -728.32953
v 14840.71484 163.59128 -750.33502
v 14840.71484 257.49557 -750.33502
v 14808.21680 175.32939 -745.39679
v 14808.21680 245.75748 -745.39679
v 14861.53027 150.32588 -763.67621
v 14861.53027 270.32578 -763.67621
v 14840.71484 163.59128 -750.33502
v 14840.71484 257.49557 -750.33502
v 15014.26855 257.49557 -980.91046
v 15014.26855 163.59128 -980.91046
v 15026.34766 257.49557 -1027.52905
v 15026.34766 163.59128 -1027.52905
v 15014.26855 163.59128 -980.91046
v 15014.26855 257.49557 -980.91046
v 15045.53711 163.59128 -939.87177
v 15045.53711 257.49557 -939.87177
v 15031.17969 257.49557 -1046.17639
v 15031.17969 163.59128 -1046.17639
v 15043.25879 257.49557 -1092.79492
v 15043.25879 163.59128 -1092.79492
v 15068.02930 257.49557 -1026.67871
v 15045.53711 163.59128 -939.87177
v 15068.02930 163.59128 -1026.67871
v 15090.52148 163.59128 -1113.48572
v 15090.52148 257.49557 -1113.48572
v 15015.53906 217.94949 -985.81561
v 15015.53906 203.01689 -985.81561
v 15109.02734 217.94949 -961.59216
v 15109.02734 203.01689 -961.59216
v 15018.78320 195.55058 -998.33423
v 15112.27148 195.55058 -974.11072
v 15018.78320 225.41579 -998.33423
v 15112.27148 225.41579 -974.11072
v 15090.52148 163.59128 -1113.48572
v 15043.25879 163.59128 -1092.79492
v 15043.25879 257.49557 -1092.79492
v 15022.02637 203.01689 -1010.85272
v 15115.51465 203.01689 -986.62921
v 15022.02637 217.94939 -1010.85272
v 15115.51465 217.94949 -986.62921
v 15035.49609 217.94949 -1062.83545
v 15035.49609 203.01689 -1062.83545
v 15128.98438 217.94949 -1038.61206
v 15128.98438 203.01689 -1038.61206
v 15038.73926 195.55058 -1075.35413
v 15132.22754 195.55058 -1051.13062
v 15038.73926 225.41579 -1075.35413
v 15132.22754 225.41579 -1051.13062
v 15041.98340 203.01689 -1087.87256
v 15135.47168 203.01689 -1063.64905
v 15041.98340 217.94939 -1087.87256
v 15135.47168 217.94949 -1063.64905
v 14882.75293 163.59128 -828.34198
v 14882.75293 257.49557 -828.34198
v 14887.48828 163.59128 -776.96637
v 14887.48828 257.49557 -776.96637
v 14882.75293 257.49557 -828.34198
v 14882.75293 163.59128 -828.34198
v 14917.72168 257.49557 -861.45294
v 14917.72168 163.59128 -861.45294
v 14887.48828 163.59128 -776.96637
v 14952.60352 163.59128 -838.62152
v 14952.60352 257.49557 -838.62152
v 14886.43066 217.94949 -831.82581
v 14886.43066 203.01689 -831.82581
v 14952.83105 217.94949 -761.69879
v 14952.83105 203.01689 -761.69879
v 14895.82129 195.55058 -840.71722
v 14962.22168 195.55058 -770.59021
v 14895.82129 225.41579 -840.71722
v 14962.22168 225.41579 -770.59021
v 14905.21191 203.01689 -849.60858
v 14971.61230 203.01689 -779.48157
v 14905.21191 217.94939 -849.60858
v 14971.61230 217.94949 -779.48157
v 14931.70801 163.59128 -874.69745
v 14931.70801 257.49557 -874.69745
v 14966.67676 257.49557 -907.80841
v 14966.67676 163.59128 -907.80841
v 15017.71875 163.59128 -900.27661
v 15017.71875 257.49557 -900.27661
v 14944.20508 217.94949 -886.52960
v 14944.20508 203.01689 -886.52960
v 15010.60547 217.94949 -816.40259
v 15010.60547 203.01689 -816.40259
v 14953.59473 195.55058 -895.42102
v 15019.99609 195.55058 -825.29401
v 14953.59473 225.41579 -895.42102
v 15019.99609 225.41579 -825.29401
v 14962.98535 203.01689 -904.31232
v 15029.38574 203.01689 -834.18536
v 14962.98535 217.94939 -904.31232
v 15029.38574 217.94949 -834.18536
v 15017.71875 163.59128 -900.27661
v 14966.67676 163.59128 -907.80841
v 14966.67676 257.49557 -907.80841
v 14688.78613 163.59128 -768.58154
v 14688.78613 257.49557 -768.58154
v 14663.35742 163.59128 -723.68970
v 14663.35742 257.49557 -723.68970
v 14693.79492 217.94949 -769.34277
v 14693.79492 203.01689 -769.34277
v 14708.30371 217.94949 -673.86334
v 14708.30371 203.01689 -673.86334
v 14706.58105 195.55058 -771.28558
v 14721.08887 195.55058 -675.80615
v 14706.58105 225.41579 -771.28558
v 14721.08887 225.41579 -675.80615
v 14663.35742 163.59128 -723.68970
v 14752.01367 163.59128 -737.16156
v 14688.78613 163.59128 -768.58154
v 14736.39746 163.59128 -775.81641
v 14688.78613 257.49557 -768.58154
v 14752.01367 257.49557 -737.16156
v 14736.39746 257.49557 -775.81641
v 14719.36523 203.01689 -773.22833
v 14733.87402 203.01689 -677.74890
v 14719.36523 217.94939 -773.22833
v 14733.87402 217.94949 -677.74890
v 14755.44141 163.59128 -778.71027
v 14755.44141 257.49557 -778.71027
v 14803.05371 257.49557 -785.94525
v 14803.05371 163.59128 -785.94525
v 14772.45605 217.94949 -781.29572
v 14772.45605 203.01689 -781.29572
v 14786.96484 217.94949 -685.81628
v 14786.96484 203.01689 -685.81628
v 14785.24121 195.55058 -783.23853
v 14799.75000 195.55058 -687.75909
v 14785.24121 225.41579 -783.23853
v 14799.75000 225.41579 -687.75909
v 14840.66895 257.49557 -750.63336
v 14840.66895 163.59128 -750.63336
v 14798.02637 217.94939 -785.18134
v 14812.53516 217.94949 -689.70184
v 14798.02637 203.01689 -785.18134
v 14812.53516 203.01689 -689.70184
v 14840.66895 163.59128 -750.63336
v 14803.05371 163.59128 -785.94525
v 14803.05371 257.49557 -785.94525
v 15141.44727 219.88928 -949.72101
v 15141.44727 201.07698 -949.72101
v 15080.62598 210.48317 -982.31036
v 15145.53418 191.67088 -965.49219
v 15145.53320 229.29549 -965.49225
v 15149.62012 219.88928 -981.26331
v 15149.62012 201.07698 -981.26331
v 15161.40332 219.88928 -1026.74084
v 15161.40332 201.07698 -1026.74084
v 15100.58105 210.48317 -1059.33020
v 15165.49023 191.67088 -1042.51208
v 15165.49023 229.29549 -1042.51208
v 15169.57617 201.07698 -1058.28320
v 15169.57617 219.88928 -1058.28320
v 15109.93848 201.07698 -957.88531
v 15109.93848 219.88928 -957.88531
v 15109.02734 203.01689 -961.59216
v 15109.02734 217.94949 -961.59216
v 15114.02441 191.67088 -973.65649
v 15112.27148 195.55058 -974.11072
v 15114.02441 229.29549 -973.65649
v 15112.27148 225.41579 -974.11072
v 15118.11035 201.07698 -989.42761
v 15115.51465 203.01689 -986.62921
v 15118.11035 219.88928 -989.42761
v 15115.51465 217.94949 -986.62921
v 15141.44727 201.07698 -949.72101
v 15145.53418 191.67088 -965.49219
v 15129.89453 201.07698 -1034.90515
v 15129.89453 219.88928 -1034.90515
v 15128.98438 203.01689 -1038.61206
v 15128.98438 217.94949 -1038.61206
v 15133.98047 191.67088 -1050.67639
v 15132.22754 195.55058 -1051.13062
v 15133.98047 229.29549 -1050.67639
v 15132.22754 225.41579 -1051.13062
v 15138.06738 201.07698 -1066.44751
v 15135.47168 203.01689 -1063.64905
v 15138.06738 219.88928 -1066.44751
v 15135.47168 217.94949 -1063.64905
v 15165.49023 191.67088 -1042.51208
v 15169.57617 201.07698 -1058.28320
v 14974.01660 219.88928 -734.43799
v 14974.01660 201.07698 -734.43799
v 14939.74512 210.48317 -794.32806
v 14985.84668 191.67088 -745.63959
v 14985.84668 229.29549 -745.63965
v 14997.67676 201.07698 -756.84119
v 14997.67676 219.88928 -756.84119
v 15031.79004 219.88928 -789.14178
v 15031.79004 201.07698 -789.14178
v 14997.51855 210.48317 -849.03180
v 15043.62012 191.67088 -800.34338
v 15043.62012 229.29549 -800.34344
v 15055.45020 201.07698 -811.54492
v 15055.45020 219.88928 -811.54492
v 14951.63672 201.07698 -758.07361
v 14951.63672 219.88928 -758.07361
v 14952.83105 203.01689 -761.69879
v 14952.83105 217.94949 -761.69879
v 14963.46680 191.67088 -769.27521
v 14962.22168 195.55058 -770.59021
v 14963.46680 229.29549 -769.27527
v 14962.22168 225.41579 -770.59021
v 14974.01660 201.07698 -734.43799
v 14975.29688 219.88928 -780.47675
v 14971.61230 217.94949 -779.48157
v 14975.29688 201.07698 -780.47675
v 14971.61230 203.01689 -779.48157
v 14985.84668 191.67088 -745.63959
v 14997.67676 201.07698 -756.84119
v 15009.41113 201.07698 -812.77740
v 15009.41113 219.88928 -812.77740
v 15010.60547 203.01689 -816.40259
v 15010.60547 217.94949 -816.40259
v 15021.24121 191.67088 -823.97900
v 15019.99609 195.55058 -825.29401
v 15021.24121 229.29549 -823.97906
v 15019.99609 225.41579 -825.29401
v 15033.07129 201.07698 -835.18054
v 15029.38574 203.01689 -834.18536
v 15033.07129 219.88928 -835.18054
v 15029.38574 217.94949 -834.18536
v 15043.62012 191.67088 -800.34338
v 15055.45020 201.07698 -811.54492
v 14710.14453 219.88928 -639.38770
v 14710.14453 201.07698 -639.38770
v 14716.17871 210.48317 -708.12555
v 14726.25098 191.67088 -641.83533
v 14726.25098 229.29549 -641.83539
v 14742.35840 201.07698 -644.28296
v 14742.35840 219.88928 -644.28296
v 14788.80469 219.88928 -651.34064
v 14788.80469 201.07698 -651.34064
v 14794.83887 210.48317 -720.07855
v 14804.91211 191.67088 -653.78827
v 14804.91211 229.29549 -653.78833
v 14821.01855 201.07698 -656.23590
v 14821.01855 219.88928 -656.23590
v 14705.25391 201.07698 -671.56812
v 14705.25391 219.88928 -671.56812
v 14708.30371 203.01689 -673.86334
v 14708.30371 217.94949 -673.86334
v 14710.14453 201.07698 -639.38770
v 14721.36133 191.67088 -674.01569
v 14721.08887 195.55058 -675.80615
v 14721.36133 229.29549 -674.01581
v 14721.08887 225.41579 -675.80615
v 14726.25098 191.67088 -641.83533
v 14737.46875 201.07698 -676.46338
v 14733.87402 203.01689 -677.74890
v 14737.46875 219.88928 -676.46338
v 14733.87402 217.94949 -677.74890
v 14742.35840 201.07698 -644.28296
v 14783.91504 201.07698 -683.52106
v 14783.91504 219.88928 -683.52106
v 14786.96484 203.01689 -685.81628
v 14786.96484 217.94949 -685.81628
v 14800.02148 191.67088 -685.96863
v 14799.75000 195.55058 -687.75909
v 14800.02148 229.29549 -685.96875
v 14799.75000 225.41579 -687.75909
v 14804.91211 191.67088 -653.78827
v 14816.12891 219.88928 -688.41632
v 14812.53516 217.94949 -689.70184
v 14816.12891 201.07698 -688.41632
v 14812.53516 203.01689 -689.70184
v 14821.01855 201.07698 -656.23590

vt 0.75490 0.78590 
vt 1.08810 0.50030 
vt 1.08810 0.78590 
vt 1.08810 2.49970 
vt 0.75490 1.92840 
vt 1.08810 1.92840 
vt 0.42160 0.50030 
vt 0.75490 2.49970 
vt 0.58820 0.78590 
vt 0.66590 1.63030 
vt 0.49990 1.99990 
vt 0.49990 1.63030 
vt 0.66680 1.35840 
vt 0.58820 1.92840 
vt 0.54140 1.00000 
vt 0.66590 1.41980 
vt 0.49990 1.41980 
vt 1.42130 1.92840 
vt 0.33400 1.63030 
vt 0.49990 1.63030 
vt 0.99770 1.41980 
vt 0.54140 1.00000 
vt 0.33400 1.41980 
vt 0.42160 0.78590 
vt 1.16370 1.63030 
vt 0.99770 1.63030 
vt 0.00220 1.63030 
vt 0.03870 1.99990 
vt 0.33400 1.00000 
vt 0.00220 1.41980 
vt 0.55970 1.99990 
vt 0.10710 1.88230 
vt 0.42160 1.92840 
vt 0.22440 1.13230 
vt 1.42130 2.49970 
vt 0.33400 1.00000 
vt 1.16370 1.41980 
vt 0.99990 1.00000 
vt -0.16370 1.63030 
vt 0.08840 1.92840 
vt -0.16370 1.41980 
vt 0.33400 1.00000 
vt 0.33400 1.00000 
vt 1.08810 1.64280 
vt 0.75490 1.64280 
vt 0.75490 1.07150 
vt 1.08810 1.07150 
vt 1.08810 1.35710 
vt 0.75490 1.35710 
vt 0.49990 1.73550 
vt -0.10150 1.73550 
vt 0.49990 1.39310 
vt -0.10150 1.39310 
vt 0.58820 1.64280 
vt 0.58820 1.07150 
vt -0.10150 1.99990 
vt 0.49990 1.99990 
vt 0.58820 1.35710 
vt 0.49990 0.39310 
vt -0.10150 0.39310 
vt 1.10150 1.73550 
vt 1.10150 1.99990 
vt 1.10150 1.39310 
vt 1.42130 0.78590 
vt 1.42130 1.07150 
vt 1.42130 0.50030 
vt 1.42130 1.35710 
vt 0.42160 1.07150 
vt 1.42130 1.64280 
vt 0.42160 1.35710 
vt 0.42160 1.64280 
vt 1.10150 0.39310 
vt 0.49990 -1.89940 
vt -0.10150 -1.89940 
vt 1.10150 -1.89940 
vt 0.08840 1.07150 
vt 0.08840 1.35710 
vt 0.08840 1.64280 
vt -0.50250 0.39310 
vt -0.50250 -1.89940 
vt 1.50250 0.39310 
vt 1.50250 -1.89940 
vt 0.08840 0.78590 
vt -0.50250 1.39310 
vt -0.50250 0.39310 
vt 0.08840 0.50030 
vt -0.50250 1.73550 
vt -0.50250 1.39310 
vt 1.50250 1.39310 
vt 1.50250 0.39310 
vt -0.50250 1.73550 
vt -0.50250 1.99990 
vt 1.75450 1.07150 
vt 1.75450 1.35710 
vt -0.07810 2.49970 
vt 1.75450 1.92840 
vt 1.75450 1.64280 
vt 1.75450 0.78590 
vt 1.50250 1.73550 
vt 1.50250 1.99990 
vt 1.50250 1.73550 
vt 1.50250 1.39310 
vt 1.75450 1.64280 
vt 5.46000 2.99800 
vt 5.46000 2.00190 
vt 6.56220 2.99800 
vt 6.56220 2.00190 
vt 4.35780 2.00190 
vt 4.35780 2.99800 
vt 7.66450 2.99800 
vt 7.66450 2.00190 
vt 8.76670 2.99800 
vt 8.76670 2.00190 
vt 1.05110 2.00190 
vt 1.05110 2.99800 
vt -0.05110 2.00190 
vt -0.05110 2.99800 
vt -4.46000 2.00190 
vt -4.46000 2.99800 
vt -7.76670 2.00190 
vt -7.76670 2.99800 
vt -1.15330 2.99800 
vt -1.15330 2.00190 
vt -2.25550 2.00190 
vt -2.25550 2.99800 
vt -3.35780 2.00190 
vt -3.35780 2.99800 
vt 1.24420 2.00000 
vt 1.24420 2.99990 
vt -0.24420 2.00000 
vt -0.24420 2.99990 
vt 1.77000 2.99800 
vt 0.92330 2.99800 
vt 1.77000 2.00190 
vt 0.92330 2.00190 
vt 2.61680 2.99800 
vt 2.61680 2.00190 
vt 0.07660 2.99800 
vt 0.07660 2.00190 
vt -0.77000 2.99800 
vt -0.77000 2.00190 
vt 5.15700 2.99800 
vt 5.15700 2.00190 
vt -1.61680 2.99800 
vt -1.61680 2.00190 
vt 6.00370 2.99800 
vt 6.00370 2.00190 
vt -4.15700 2.99800 
vt -4.15700 2.00190 
vt -5.00370 2.99800 
vt -5.00370 2.00190 
vt 0.00920 2.99920 
vt 0.00920 2.00070 
vt 0.10320 2.74960 
vt 0.10320 2.25030 
vt 0.94930 2.00070 
vt 0.95970 2.25030 
vt 0.94930 2.99920 
vt 0.95970 2.74960 
vt 2.09750 2.99920 
vt 2.08470 2.74960 
vt 2.08470 2.25030 
vt 2.09750 2.00070 
vt 2.98970 2.00070 
vt 2.90050 2.25030 
vt 2.98970 2.99920 
vt 2.90050 2.74960 
vt 2.25210 2.00230 
vt 2.68970 2.00230 
vt 2.25210 0.99950 
vt 2.68970 0.99950 
vt 1.81450 2.00230 
vt 1.81450 0.99950 
vt 3.12730 2.00230 
vt 3.12730 0.99950 
vt 3.56490 2.00230 
vt 3.56490 0.99950 
vt 0.50180 2.00230 
vt 0.50180 0.99950 
vt 4.00240 2.00230 
vt 4.00240 0.99950 
vt 0.06420 2.00230 
vt 0.06420 0.99950 
vt -2.99880 2.00230 
vt -1.68600 2.00230 
vt -2.99880 0.99950 
vt -1.68600 0.99950 
vt -0.37330 2.00230 
vt -0.37330 0.99950 
vt -0.81090 2.00230 
vt -0.81090 0.99950 
vt -1.24840 2.00230 
vt -1.24840 0.99950 
vt 0.00000 7.22380 
vt 0.00000 6.01730 
vt 0.99990 7.22380 
vt 0.99990 6.01730 
vt 0.00000 4.81070 
vt 0.99990 4.81070 
vt 0.00000 8.43040 
vt 0.99990 8.43040 
vt 0.00000 9.63700 
vt 0.99990 9.63700 
vt 0.00000 1.19100 
vt 0.99990 1.19100 
vt 0.00000 10.84360 
vt 0.99990 10.84360 
vt 0.00000 -0.01560 
vt 0.99990 -0.01560 
vt 0.00000 -8.46170 
vt 0.99990 -8.46170 
vt 0.00000 -4.84190 
vt 0.99990 -4.84190 
vt 0.00000 -1.22220 
vt 0.99990 -1.22220 
vt 0.00000 -2.42880 
vt 0.99990 -2.42880 
vt 0.00000 -3.63530 
vt 0.99990 -3.63530 
vt 0.00190 0.52030 
vt 0.99800 0.52030 
vt 0.00190 0.96020 
vt 0.99800 0.96020 
vt 0.00190 1.40020 
vt 0.99800 1.40020 
vt 0.00190 0.08030 
vt 0.99800 0.08030 
vt 0.00190 -0.35960 
vt 0.99800 -0.35960 
vt 0.00190 2.71990 
vt 0.99800 2.71990 
vt 0.00190 -0.79960 
vt 0.99800 -0.79960 
vt 0.00190 3.15990 
vt 0.99800 3.15990 
vt 0.00190 3.59980 
vt 0.99800 3.59980 
vt 0.00190 4.03980 
vt 0.99800 4.03980 
vt 0.00190 4.47970 
vt 0.99800 4.47970 
vt 0.00190 4.91970 
vt 0.99800 4.91970 
vt 0.00000 2.00000 
vt 0.00190 4.91970 
vt 0.99990 2.00000 
vt 0.99800 4.91970 
vt 0.92040 -5.03780 
vt 0.79610 -5.03780 
vt 0.92040 0.10590 
vt 0.79610 0.10590 
vt 0.92040 0.60040 
vt 0.79610 0.60040 
vt 0.67190 -5.03780 
vt 0.67190 0.10590 
vt 0.92040 0.75590 
vt 0.79610 0.75590 
vt 0.67190 0.60040 
vt 0.67190 0.75590 
vt 1.04460 -5.03780 
vt 1.04460 0.10590 
vt 1.04460 0.60040 
vt 1.04460 0.75590 
vt 1.16880 -5.03780 
vt 1.16880 0.10590 
vt 0.29920 -5.03780 
vt 0.29920 0.10590 
vt 1.16880 0.60040 
vt 1.16880 0.75590 
vt 0.29920 0.60040 
vt 0.29920 0.75590 
vt 1.29300 -5.03780 
vt 1.29300 0.10590 
vt 1.29300 0.60040 
vt 1.29300 0.75590 
vt 0.17500 0.75590 
vt 0.17500 0.60040 
vt 0.17500 0.10590 
vt 0.17500 -5.03780 
vt -0.69450 0.75590 
vt -0.32180 0.75590 
vt -0.69450 0.60040 
vt -0.32180 0.60040 
vt -0.32180 0.10590 
vt -0.69450 0.10590 
vt 0.05080 0.75590 
vt 0.05080 0.60040 
vt 0.05080 0.10590 
vt -0.32180 -5.03780 
vt -0.69450 -5.03780 
vt 0.05080 -5.03780 
vt -0.07330 0.75590 
vt -0.07330 0.60040 
vt -0.07330 0.10590 
vt -0.07330 -5.03780 
vt -0.19760 0.75590 
vt -0.19760 0.60040 
vt -0.19760 0.10590 
vt -0.19760 -5.03780 
vt 0.00000 -3.03140 
vt 0.49210 -2.70870 
vt 0.00000 -0.03110 
vt 0.49210 -0.35370 
vt 2.09990 2.87700 
vt 2.09990 1.02920 
vt 2.49530 2.64500 
vt 2.49530 1.26120 
vt 0.99990 0.99990 
vt 1.49990 0.55480 
vt 0.99990 -3.09340 
vt 1.49990 -2.64830 
vt 0.99990 1.00000 
vt 0.99990 -3.00780 
vt 1.49990 0.55500 
vt 1.49990 -2.56270 
vt 2.09750 -2.64790 
vt 2.09750 0.47230 
vt 2.49690 -2.07600 
vt 2.49690 -0.09960 
vt 2.09750 0.47230 
vt 2.09750 -2.64790 
vt 2.49690 -0.09960 
vt 2.49690 -2.07600 
vt -0.49990 1.10080 
vt -0.49990 1.99510 
vt 0.49990 1.10080 
vt 0.49990 1.99510 
vt -0.49990 1.10080 
vt 0.49990 1.10080 
vt 0.00000 -3.00030 
vt 0.00000 0.00010 
vt 0.49210 -2.67760 
vt 0.49210 -0.32260 
vt 2.09990 1.02920 
vt 2.09990 2.87700 
vt 2.49530 1.26120 
vt 2.49530 2.64500 
vt 0.00000 -3.03140 
vt 0.49210 -2.70870 
vt 0.00000 -0.03110 
vt 0.49210 -0.35370 
vt 2.09990 2.87700 
vt 2.09990 1.02920 
vt 2.49530 2.64500 
vt 2.49530 1.26120 
vt 0.99990 -3.00780 
vt 1.49990 -2.56270 
vt 0.99990 1.00000 
vt 1.49990 0.55500 
vt 0.99990 -3.09340 
vt 0.99990 0.99990 
vt 1.49990 -2.64830 
vt 1.49990 0.55480 
vt 2.09750 0.47230 
vt 2.09750 -2.64790 
vt 2.49690 -0.09960 
vt 2.49690 -2.07600 
vt -0.49990 1.10080 
vt -0.49990 1.99510 
vt 0.49990 1.10080 
vt 0.49990 1.99510 
vt -0.49990 1.10080 
vt 0.49990 1.10080 
vt 2.09750 -2.64790 
vt 2.09750 0.47230 
vt 2.49690 -2.07600 
vt 2.49690 -0.09960 
vt 2.09990 1.02920 
vt 2.09990 2.87700 
vt 2.49530 1.26120 
vt 2.49530 2.64500 
vt 0.00000 -3.00030 
vt 0.00000 0.00010 
vt 0.49210 -2.67760 
vt 0.49210 -0.32260 
vt 0.00000 -0.03110 
vt 0.00000 -3.03140 
vt 0.49210 -0.35370 
vt 0.49210 -2.70870 
vt 2.09990 2.87700 
vt 2.09990 1.02920 
vt 2.49530 2.64500 
vt 2.49530 1.26120 
vt 0.99990 -3.09340 
vt 0.99990 0.99990 
vt 1.49990 -2.64830 
vt 1.49990 0.55480 
vt 0.99990 -3.00780 
vt 1.49990 -2.56270 
vt 0.99990 1.00000 
vt 1.49990 0.55500 
vt 2.09750 0.47230 
vt 2.09750 -2.64790 
vt 2.49690 -0.09960 
vt 2.49690 -2.07600 
vt -0.49990 1.10080 
vt -0.49990 1.99510 
vt 0.49990 1.10080 
vt 0.49990 1.99510 
vt -0.49990 1.10080 
vt 0.49990 1.10080 
vt 2.09750 -2.64790 
vt 2.09750 0.47230 
vt 2.49690 -2.07600 
vt 2.49690 -0.09960 
vt 2.09990 1.02920 
vt 2.09990 2.87700 
vt 2.49530 1.26120 
vt 2.49530 2.64500 
vt 0.00000 -3.00030 
vt 0.00000 0.00010 
vt 0.49210 -2.67760 
vt 0.49210 -0.32260 
vt 0.00000 2.99990 
vt 0.00000 3.99990 
vt 0.41660 2.99990 
vt 0.41660 3.99990 
vt -0.99990 1.00000 
vt -0.99990 1.99990 
vt 0.00000 1.00000 
vt 0.00000 1.99990 
vt 0.58330 2.99990 
vt 0.58330 3.99990 
vt 0.99990 2.99990 
vt 0.99990 3.99990 
vt 0.49990 1.99990 
vt 0.00000 4.99990 
vt 0.49990 4.99990 
vt 0.99990 4.99990 
vt 0.99990 1.99990 
vt -0.00410 1.73430 
vt -0.00410 1.35930 
vt 0.99850 1.73430 
vt 0.99850 1.35930 
vt -0.00410 0.99220 
vt 0.99850 0.99220 
vt -0.00410 2.00780 
vt 0.99850 2.00780 
vt 0.99990 1.00000 
vt 1.99990 1.00000 
vt 1.99990 1.99990 
vt -0.00410 1.35930 
vt 0.99850 1.35930 
vt -0.00410 1.73430 
vt 0.99850 1.73430 
vt -0.00410 1.73430 
vt -0.00410 1.35930 
vt 0.99850 1.73430 
vt 0.99850 1.35930 
vt -0.00410 0.99220 
vt 0.99850 0.99220 
vt -0.00410 2.00780 
vt 0.99850 2.00780 
vt -0.00410 1.35930 
vt 0.99850 1.35930 
vt -0.00410 1.73430 
vt 0.99850 1.73430 
vt -0.99990 1.00000 
vt -0.99990 1.99990 
vt 0.00000 1.00000 
vt 0.00000 1.99990 
vt 0.00000 2.99990 
vt 0.00000 3.99990 
vt 0.41660 2.99990 
vt 0.41660 3.99990 
vt 0.00000 4.99990 
vt 0.49990 4.99990 
vt 0.49990 1.99990 
vt -0.00410 1.73430 
vt -0.00410 1.35930 
vt 0.99850 1.73430 
vt 0.99850 1.35930 
vt -0.00410 0.99220 
vt 0.99850 0.99220 
vt -0.00410 2.00780 
vt 0.99850 2.00780 
vt -0.00410 1.35930 
vt 0.99850 1.35930 
vt -0.00410 1.73430 
vt 0.99850 1.73430 
vt 0.58330 3.99990 
vt 0.58330 2.99990 
vt 0.99990 2.99990 
vt 0.99990 3.99990 
vt 0.99990 4.99990 
vt 0.99990 1.99990 
vt -0.00410 1.73430 
vt -0.00410 1.35930 
vt 0.99850 1.73430 
vt 0.99850 1.35930 
vt -0.00410 0.99220 
vt 0.99850 0.99220 
vt -0.00410 2.00780 
vt 0.99850 2.00780 
vt -0.00410 1.35930 
vt 0.99850 1.35930 
vt -0.00410 1.73430 
vt 0.99850 1.73430 
vt 0.99990 1.00000 
vt 1.99990 1.00000 
vt 1.99990 1.99990 
vt -0.99990 1.00000 
vt -0.99990 1.99990 
vt 0.00000 1.00000 
vt 0.00000 1.99990 
vt -0.00410 1.73430 
vt -0.00410 1.35930 
vt 0.99850 1.73430 
vt 0.99850 1.35930 
vt -0.00410 0.99220 
vt 0.99850 0.99220 
vt -0.00410 2.00780 
vt 0.99850 2.00780 
vt 0.00000 4.99990 
vt 0.49990 4.99990 
vt 0.00000 3.99990 
vt 0.41660 3.99990 
vt 0.00000 2.99990 
vt 0.49990 1.99990 
vt 0.41660 2.99990 
vt -0.00410 1.35930 
vt 0.99850 1.35930 
vt -0.00410 1.73430 
vt 0.99850 1.73430 
vt 0.58330 3.99990 
vt 0.58330 2.99990 
vt 0.99990 2.99990 
vt 0.99990 3.99990 
vt -0.00410 1.73430 
vt -0.00410 1.35930 
vt 0.99850 1.73430 
vt 0.99850 1.35930 
vt -0.00410 0.99220 
vt 0.99850 0.99220 
vt -0.00410 2.00780 
vt 0.99850 2.00780 
vt 0.99990 1.99990 
vt 0.99990 4.99990 
vt -0.00410 1.73430 
vt 0.99850 1.73430 
vt -0.00410 1.35930 
vt 0.99850 1.35930 
vt 0.99990 1.00000 
vt 1.99990 1.00000 
vt 1.99990 1.99990 
vt 0.00000 -0.99990 
vt 0.99990 -0.99990 
vt 0.49990 -0.23430 
vt 1.99990 -0.99990 
vt -0.99990 -0.99990 
vt 0.00000 -0.99990 
vt 0.99990 -0.99990 
vt 0.00000 -0.99990 
vt 0.99990 -0.99990 
vt 0.49990 -0.23430 
vt 1.99990 -0.99990 
vt -0.99990 -0.99990 
vt 0.99990 -0.99990 
vt 0.00000 -0.99990 
vt 0.99990 -1.87670 
vt 0.00000 -1.87670 
vt 0.99990 -1.99990 
vt 0.00000 -1.99990 
vt 1.99990 -1.87670 
vt 1.99990 -1.99990 
vt -0.99990 -1.87670 
vt -0.99990 -1.99990 
vt 0.99990 -1.87670 
vt 0.99990 -1.99990 
vt 0.00000 -1.87670 
vt 0.00000 -1.99990 
vt 0.99990 -0.99990 
vt 1.99990 -0.99990 
vt 0.99990 -1.87670 
vt 0.00000 -1.87670 
vt 0.99990 -1.99990 
vt 0.00000 -1.99990 
vt 1.99990 -1.87670 
vt 1.99990 -1.99990 
vt -0.99990 -1.87670 
vt -0.99990 -1.99990 
vt 0.99990 -1.87670 
vt 0.99990 -1.99990 
vt 0.00000 -1.87670 
vt 0.00000 -1.99990 
vt 1.99990 -0.99990 
vt 0.99990 -0.99990 
vt 0.00000 -0.99990 
vt 0.99990 -0.99990 
vt 0.49990 -0.23430 
vt 1.99990 -0.99990 
vt -0.99990 -0.99990 
vt 0.99990 -0.99990 
vt 0.00000 -0.99990 
vt 0.00000 -0.99990 
vt 0.99990 -0.99990 
vt 0.49990 -0.23430 
vt 1.99990 -0.99990 
vt -0.99990 -0.99990 
vt 0.99990 -0.99990 
vt 0.00000 -0.99990 
vt 0.99990 -1.87670 
vt 0.00000 -1.87670 
vt 0.99990 -1.99990 
vt 0.00000 -1.99990 
vt 1.99990 -1.87670 
vt 1.99990 -1.99990 
vt -0.99990 -1.87670 
vt -0.99990 -1.99990 
vt 0.99990 -0.99990 
vt 0.00000 -1.87670 
vt 0.00000 -1.99990 
vt 0.99990 -1.87670 
vt 0.99990 -1.99990 
vt 1.99990 -0.99990 
vt 0.99990 -0.99990 
vt 0.99990 -1.87670 
vt 0.00000 -1.87670 
vt 0.99990 -1.99990 
vt 0.00000 -1.99990 
vt 1.99990 -1.87670 
vt 1.99990 -1.99990 
vt -0.99990 -1.87670 
vt -0.99990 -1.99990 
vt 0.99990 -1.87670 
vt 0.99990 -1.99990 
vt 0.00000 -1.87670 
vt 0.00000 -1.99990 
vt 1.99990 -0.99990 
vt 0.99990 -0.99990 
vt 0.00000 -0.99990 
vt 0.99990 -0.99990 
vt 0.49990 -0.23430 
vt 1.99990 -0.99990 
vt -0.99990 -0.99990 
vt 0.99990 -0.99990 
vt 0.00000 -0.99990 
vt 0.00000 -0.99990 
vt 0.99990 -0.99990 
vt 0.49990 -0.23430 
vt 1.99990 -0.99990 
vt -0.99990 -0.99990 
vt 0.99990 -0.99990 
vt 0.00000 -0.99990 
vt 0.99990 -1.87670 
vt 0.00000 -1.87670 
vt 0.99990 -1.99990 
vt 0.00000 -1.99990 
vt 0.99990 -0.99990 
vt 1.99990 -1.87670 
vt 1.99990 -1.99990 
vt -0.99990 -1.87670 
vt -0.99990 -1.99990 
vt 1.99990 -0.99990 
vt 0.99990 -1.87670 
vt 0.99990 -1.99990 
vt 0.00000 -1.87670 
vt 0.00000 -1.99990 
vt 0.99990 -0.99990 
vt 0.99990 -1.87670 
vt 0.00000 -1.87670 
vt 0.99990 -1.99990 
vt 0.00000 -1.99990 
vt 1.99990 -1.87670 
vt 1.99990 -1.99990 
vt -0.99990 -1.87670 
vt -0.99990 -1.99990 
vt 1.99990 -0.99990 
vt 0.00000 -1.87670 
vt 0.00000 -1.99990 
vt 0.99990 -1.87670 
vt 0.99990 -1.99990 
vt 0.99990 -0.99990 

s 1

g Object_2

usemtl texture0

f 1/1 2/2 3/3
f 4/4 5/5 6/6
f 7/7 2/2 1/1
f 8/8 5/5 4/4
f 9/9 7/7 1/1
f 10/10 11/11 12/12
f 13/13 14/14 5/5
f 15/15 16/16 17/17
f 4/4 6/6 18/18
f 19/19 20/20 11/11
f 21/21 16/16 22/22
f 17/17 23/23 15/15
f 7/7 9/9 24/24
f 25/25 10/10 26/26
f 27/27 19/19 28/28
f 25/25 11/11 10/10
f 29/29 23/23 30/30
f 13/13 31/31 32/32
f 33/33 14/14 34/34
f 13/13 34/34 14/14
f 4/4 18/18 35/35
f 36/36 37/37 21/21
f 13/13 32/32 34/34
f 38/38 39/39 27/27
f 34/34 40/40 33/33
f 38/38 25/25 39/39
f 30/30 41/41 42/42
f 43/43 41/41 37/37
f 6/6 5/5 44/44
f 44/44 5/5 45/45
f 1/1 3/3 46/46
f 3/3 47/47 46/46
f 44/44 45/45 48/48
f 49/49 48/48 45/45
f 47/47 48/48 46/46
f 48/48 49/49 46/46
f 50/50 51/51 52/52
f 51/51 53/53 52/52
f 14/14 54/54 5/5
f 5/5 54/54 45/45
f 1/1 46/46 9/9
f 46/46 55/55 9/9
f 10/10 12/12 16/16
f 17/17 16/16 12/12
f 51/51 50/50 56/56
f 56/56 50/50 57/57
f 10/10 16/16 26/26
f 26/26 16/16 21/21
f 45/45 54/54 49/49
f 54/54 58/58 49/49
f 46/46 49/49 55/55
f 49/49 58/58 55/55
f 23/23 17/17 19/19
f 20/20 19/19 17/17
f 52/52 53/53 59/59
f 59/59 53/53 60/60
f 61/61 62/62 50/50
f 57/57 50/50 62/62
f 50/50 52/52 61/61
f 52/52 63/63 61/61
f 3/3 64/64 47/47
f 64/64 65/65 47/47
f 64/64 3/3 66/66
f 2/2 66/66 3/3
f 47/47 65/65 48/48
f 65/65 67/67 48/48
f 24/24 9/9 68/68
f 9/9 55/55 68/68
f 69/69 18/18 44/44
f 18/18 6/6 44/44
f 69/69 44/44 67/67
f 48/48 67/67 44/44
f 68/68 55/55 70/70
f 55/55 58/58 70/70
f 33/33 71/71 14/14
f 54/54 14/14 71/71
f 63/63 52/52 72/72
f 52/52 59/59 72/72
f 71/71 70/70 54/54
f 58/58 54/54 70/70
f 27/27 30/30 19/19
f 30/30 23/23 19/19
f 59/59 60/60 73/73
f 60/60 74/74 73/73
f 72/72 59/59 75/75
f 59/59 73/73 75/75
f 25/25 26/26 37/37
f 21/21 37/37 26/26
f 68/68 70/70 76/76
f 76/76 70/70 77/77
f 78/78 77/77 71/71
f 77/77 70/70 71/71
f 60/60 79/79 74/74
f 79/79 80/80 74/74
f 81/81 72/72 82/82
f 82/82 72/72 75/75
f 24/24 68/68 83/83
f 68/68 76/76 83/83
f 53/53 84/84 60/60
f 84/84 85/85 60/60
f 33/33 40/40 71/71
f 71/71 40/40 78/78
f 24/24 83/83 7/7
f 86/86 7/7 83/83
f 51/51 87/87 53/53
f 87/87 88/88 53/53
f 89/89 63/63 90/90
f 90/90 63/63 72/72
f 91/91 51/51 92/92
f 92/92 51/51 56/56
f 30/30 27/27 41/41
f 27/27 39/39 41/41
f 65/65 93/93 67/67
f 94/94 67/67 93/93
f 95/95 35/35 96/96
f 35/35 18/18 96/96
f 69/69 67/67 97/97
f 97/97 67/67 94/94
f 64/64 66/66 98/98
f 86/86 98/98 66/66
f 99/99 100/100 61/61
f 62/62 61/61 100/100
f 61/61 63/63 101/101
f 101/101 63/63 102/102
f 64/64 98/98 65/65
f 93/93 65/65 98/98
f 41/41 39/39 37/37
f 39/39 25/25 37/37
f 18/18 69/69 96/96
f 96/96 69/69 103/103

usemtl texture1

f 104/104 105/105 106/106
f 105/105 107/107 106/106
f 108/108 105/105 109/109
f 105/105 104/104 109/109
f 110/110 106/106 111/111
f 107/107 111/111 106/106
f 110/110 111/111 112/112
f 112/112 111/111 113/113
f 108/108 109/109 114/114
f 109/109 115/115 114/114
f 114/114 115/115 116/116
f 115/115 117/117 116/116
f 118/118 119/119 120/120
f 119/119 121/121 120/120
f 122/122 123/123 117/117
f 117/117 123/123 116/116
f 124/124 123/123 125/125
f 123/123 122/122 125/125
f 118/118 126/126 119/119
f 126/126 127/127 119/119
f 127/127 126/126 125/125
f 126/126 124/124 125/125
f 128/128 129/129 130/130
f 129/129 131/131 130/130

usemtl texture2

f 132/132 133/133 134/134
f 134/134 133/133 135/135
f 136/136 132/132 137/137
f 132/132 134/134 137/137
f 133/133 138/138 135/135
f 138/138 139/139 135/135
f 140/140 141/141 138/138
f 138/138 141/141 139/139
f 136/136 137/137 142/142
f 137/137 143/143 142/142
f 144/144 145/145 140/140
f 140/140 145/145 141/141
f 142/142 143/143 146/146
f 146/146 143/143 147/147
f 148/148 149/149 144/144
f 149/149 145/145 144/144
f 148/148 150/150 149/149
f 150/150 151/151 149/149
f 152/152 153/153 154/154
f 153/153 155/155 154/154
f 153/153 156/156 155/155
f 156/156 157/157 155/155
f 158/158 152/152 159/159
f 152/152 154/154 159/159
f 160/160 158/158 161/161
f 158/158 159/159 161/161
f 162/162 157/157 163/163
f 156/156 163/163 157/157
f 164/164 165/165 163/163
f 163/163 165/165 162/162
f 160/160 161/161 166/166
f 166/166 161/161 167/167
f 166/166 167/167 164/164
f 164/164 167/167 165/165
f 168/168 169/169 170/170
f 169/169 171/171 170/170
f 172/172 168/168 173/173
f 168/168 170/170 173/173
f 169/169 174/174 171/171
f 174/174 175/175 171/171
f 174/174 176/176 175/175
f 176/176 177/177 175/175
f 178/178 172/172 179/179
f 172/172 173/173 179/179
f 180/180 181/181 176/176
f 176/176 181/181 177/177
f 178/178 179/179 182/182
f 182/182 179/179 183/183
f 184/184 185/185 186/186
f 185/185 187/187 186/186
f 188/188 182/182 189/189
f 182/182 183/183 189/189
f 190/190 188/188 191/191
f 188/188 189/189 191/191
f 185/185 192/192 187/187
f 192/192 193/193 187/187
f 192/192 190/190 193/193
f 190/190 191/191 193/193

usemtl texture3

f 194/194 195/195 196/196
f 195/195 197/197 196/196
f 195/195 198/198 197/197
f 197/197 198/198 199/199
f 200/200 194/194 201/201
f 194/194 196/196 201/201
f 200/200 201/201 202/202
f 202/202 201/201 203/203
f 204/204 205/205 198/198
f 198/198 205/205 199/199
f 202/202 203/203 206/206
f 207/207 206/206 203/203
f 208/208 209/209 204/204
f 205/205 204/204 209/209
f 210/210 211/211 212/212
f 212/212 211/211 213/213
f 214/214 215/215 208/208
f 208/208 215/215 209/209
f 214/214 216/216 215/215
f 216/216 217/217 215/215
f 218/218 212/212 219/219
f 219/219 212/212 213/213
f 216/216 218/218 217/217
f 218/218 219/219 217/217
f 220/220 221/221 222/222
f 221/221 223/223 222/222
f 222/222 223/223 224/224
f 223/223 225/225 224/224
f 226/226 227/227 220/220
f 227/227 221/221 220/220
f 226/226 228/228 227/227
f 229/229 227/227 228/228
f 230/230 224/224 231/231
f 231/231 224/224 225/225
f 228/228 232/232 229/229
f 232/232 233/233 229/229
f 234/234 230/230 235/235
f 230/230 231/231 235/235
f 236/236 234/234 237/237
f 235/235 237/237 234/234
f 236/236 237/237 238/238
f 237/237 239/239 238/238
f 240/240 241/241 242/242
f 241/241 243/243 242/242
f 240/240 238/238 241/241
f 239/239 241/241 238/238
f 244/244 245/245 246/246
f 247/247 246/246 245/245

usemtl texture4

f 248/248 249/249 250/250
f 249/249 251/251 250/250
f 250/250 251/251 252/252
f 251/251 253/253 252/252
f 249/249 254/254 251/251
f 254/254 255/255 251/251
f 256/256 252/252 257/257
f 253/253 257/257 252/252
f 255/255 258/258 251/251
f 258/258 253/253 251/251
f 257/257 253/253 259/259
f 253/253 258/258 259/259
f 260/260 248/248 261/261
f 248/248 250/250 261/261
f 261/261 250/250 262/262
f 252/252 262/262 250/250
f 256/256 263/263 252/252
f 263/263 262/262 252/252
f 264/264 260/260 265/265
f 260/260 261/261 265/265
f 254/254 266/266 255/255
f 266/266 267/267 255/255
f 261/261 262/262 265/265
f 262/262 268/268 265/265
f 263/263 269/269 262/262
f 268/268 262/262 269/269
f 255/255 267/267 258/258
f 258/258 267/267 270/270
f 271/271 259/259 270/270
f 258/258 270/270 259/259
f 272/272 264/264 273/273
f 264/264 265/265 273/273
f 273/273 265/265 274/274
f 268/268 274/274 265/265
f 269/269 275/275 268/268
f 275/275 274/274 268/268
f 276/276 271/271 277/277
f 271/271 270/270 277/277
f 267/267 278/278 270/270
f 277/277 270/270 278/278
f 266/266 279/279 267/267
f 279/279 278/278 267/267
f 280/280 281/281 282/282
f 283/283 282/282 281/281
f 284/284 285/285 283/283
f 283/283 285/285 282/282
f 286/286 276/276 287/287
f 277/277 287/287 276/276
f 288/288 287/287 278/278
f 287/287 277/277 278/278
f 289/289 290/290 284/284
f 290/290 285/285 284/284
f 279/279 291/291 278/278
f 291/291 288/288 278/278
f 286/286 287/287 292/292
f 292/292 287/287 293/293
f 288/288 294/294 287/287
f 293/293 287/287 294/294
f 291/291 295/295 288/288
f 295/295 294/294 288/288
f 296/296 297/297 281/281
f 297/297 283/283 281/281
f 298/298 284/284 297/297
f 283/283 297/297 284/284
f 292/292 293/293 296/296
f 297/297 296/296 293/293
f 294/294 298/298 293/293
f 298/298 297/297 293/293
f 299/299 289/289 298/298
f 289/289 284/284 298/298
f 299/299 298/298 295/295
f 295/295 298/298 294/294

usemtl texture5

f 300/300 301/301 302/302
f 301/301 303/303 302/302
f 304/304 305/305 306/306
f 305/305 307/307 306/306
f 308/308 309/309 310/310
f 310/310 309/309 311/311
f 312/312 313/313 314/314
f 313/313 315/315 314/314
f 316/316 317/317 318/318
f 317/317 319/319 318/318
f 320/320 321/321 322/322
f 321/321 323/323 322/322
f 324/324 325/325 326/326
f 325/325 327/327 326/326
f 325/325 328/328 327/327
f 328/328 329/329 327/327
f 330/330 331/331 332/332
f 333/333 332/332 331/331
f 334/334 335/335 336/336
f 337/337 336/336 335/335
f 338/338 339/339 340/340
f 339/339 341/341 340/340
f 342/342 343/343 344/344
f 343/343 345/345 344/344
f 346/346 347/347 348/348
f 347/347 349/349 348/348
f 350/350 351/351 352/352
f 351/351 353/353 352/352
f 354/354 355/355 356/356
f 355/355 357/357 356/356
f 358/358 359/359 360/360
f 359/359 361/361 360/360
f 359/359 362/362 361/361
f 362/362 363/363 361/361
f 364/364 365/365 366/366
f 365/365 367/367 366/366
f 368/368 369/369 370/370
f 371/371 370/370 369/369
f 372/372 373/373 374/374
f 375/375 374/374 373/373
f 376/376 377/377 378/378
f 377/377 379/379 378/378
f 380/380 381/381 382/382
f 381/381 383/383 382/382
f 384/384 385/385 386/386
f 385/385 387/387 386/386
f 388/388 389/389 390/390
f 389/389 391/391 390/390
f 392/392 393/393 394/394
f 393/393 395/395 394/394
f 396/396 397/397 398/398
f 397/397 399/399 398/398
f 397/397 400/400 399/399
f 400/400 401/401 399/399
f 402/402 403/403 404/404
f 403/403 405/405 404/404
f 406/406 407/407 408/408
f 409/409 408/408 407/407
f 410/410 411/411 412/412
f 413/413 412/412 411/411

usemtl texture6

f 414/414 415/415 416/416
f 415/415 417/417 416/416
f 418/418 419/419 420/420
f 419/419 421/421 420/420
f 422/422 423/423 424/424
f 423/423 425/425 424/424
f 421/421 414/414 426/426
f 414/414 416/416 426/426
f 427/427 428/428 415/415
f 415/415 428/428 417/417
f 428/428 426/426 417/417
f 426/426 416/416 417/417
f 423/423 422/422 428/428
f 422/422 426/426 428/428
f 429/429 425/425 428/428
f 423/423 428/428 425/425
f 430/430 426/426 424/424
f 426/426 422/422 424/424
f 431/431 432/432 433/433
f 432/432 434/434 433/433
f 432/432 435/435 434/434
f 435/435 436/436 434/434
f 437/437 431/431 438/438
f 431/431 433/433 438/438
f 439/439 430/430 440/440
f 430/430 441/441 440/440
f 435/435 442/442 436/436
f 442/442 443/443 436/436
f 444/444 437/437 445/445
f 437/437 438/438 445/445
f 442/442 444/444 443/443
f 444/444 445/445 443/443
f 446/446 447/447 448/448
f 447/447 449/449 448/448
f 447/447 450/450 449/449
f 450/450 451/451 449/449
f 452/452 446/446 453/453
f 446/446 448/448 453/453
f 450/450 454/454 451/451
f 454/454 455/455 451/451
f 456/456 452/452 457/457
f 452/452 453/453 457/457
f 454/454 456/456 455/455
f 456/456 457/457 455/455
f 458/458 459/459 460/460
f 459/459 461/461 460/460
f 462/462 463/463 464/464
f 463/463 465/465 464/464
f 466/466 467/467 463/463
f 463/463 467/467 465/465
f 461/461 462/462 468/468
f 462/462 464/464 468/468
f 469/469 470/470 471/471
f 470/470 472/472 471/471
f 470/470 473/473 472/472
f 473/473 474/474 472/472
f 475/475 469/469 476/476
f 469/469 471/471 476/476
f 473/473 477/477 474/474
f 477/477 478/478 474/474
f 479/479 475/475 480/480
f 475/475 476/476 480/480
f 467/467 468/468 465/465
f 468/468 464/464 465/465
f 477/477 479/479 478/478
f 479/479 480/480 478/478
f 481/481 482/482 467/467
f 482/482 468/468 467/467
f 482/482 481/481 483/483
f 481/481 484/484 483/483
f 485/485 484/484 467/467
f 481/481 467/467 484/484
f 486/486 468/468 483/483
f 468/468 482/482 483/483
f 487/487 488/488 489/489
f 488/488 490/490 489/489
f 488/488 491/491 490/490
f 491/491 492/492 490/490
f 493/493 487/487 494/494
f 487/487 489/489 494/494
f 491/491 495/495 492/492
f 495/495 496/496 492/492
f 497/497 493/493 498/498
f 493/493 494/494 498/498
f 499/499 486/486 500/500
f 486/486 501/501 500/500
f 495/495 497/497 496/496
f 497/497 498/498 496/496
f 502/502 503/503 504/504
f 503/503 505/505 504/504
f 506/506 507/507 508/508
f 507/507 509/509 508/508
f 507/507 510/510 509/509
f 510/510 511/511 509/509
f 512/512 506/506 513/513
f 506/506 508/508 513/513
f 514/514 515/515 516/516
f 516/516 515/515 517/517
f 505/505 518/518 519/519
f 518/518 520/520 519/519
f 518/518 516/516 520/520
f 516/516 517/517 520/520
f 510/510 521/521 511/511
f 521/521 522/522 511/511
f 523/523 512/512 524/524
f 512/512 513/513 524/524
f 521/521 523/523 522/522
f 523/523 524/524 522/522
f 515/515 519/519 517/517
f 519/519 520/520 517/517
f 525/525 526/526 515/515
f 526/526 519/519 515/515
f 526/526 525/525 527/527
f 525/525 528/528 527/527
f 529/529 530/530 531/531
f 530/530 532/532 531/531
f 530/530 533/533 532/532
f 533/533 534/534 532/532
f 535/535 529/529 536/536
f 529/529 531/531 536/536
f 537/537 519/519 527/527
f 519/519 526/526 527/527
f 538/538 528/528 515/515
f 525/525 515/515 528/528
f 539/539 535/535 540/540
f 535/535 536/536 540/540
f 533/533 541/541 534/534
f 541/541 542/542 534/534
f 541/541 539/539 542/542
f 539/539 540/540 542/542
f 543/543 537/537 544/544
f 537/537 545/545 544/544

usemtl texture7

f 546/546 547/547 548/548
f 547/547 549/549 548/548
f 550/550 546/546 548/548
f 551/551 550/550 548/548
f 549/549 552/552 548/548
f 552/552 551/551 548/548
f 553/553 554/554 555/555
f 554/554 556/556 555/555
f 557/557 553/553 555/555
f 556/556 558/558 555/555
f 559/559 557/557 555/555
f 558/558 559/559 555/555
f 560/560 561/561 562/562
f 563/563 562/562 561/561
f 564/564 560/560 565/565
f 562/562 565/565 560/560
f 561/561 566/566 563/563
f 567/567 563/563 566/566
f 568/568 564/564 569/569
f 565/565 569/569 564/564
f 566/566 570/570 567/567
f 571/571 567/567 570/570
f 570/570 568/568 571/571
f 569/569 571/571 568/568
f 561/561 560/560 546/546
f 560/560 572/572 546/546
f 560/560 564/564 572/572
f 564/564 573/573 572/572
f 566/566 561/561 550/550
f 561/561 546/546 550/550
f 574/574 575/575 576/576
f 577/577 576/576 575/575
f 578/578 574/574 579/579
f 576/576 579/579 574/574
f 575/575 580/580 577/577
f 581/581 577/577 580/580
f 564/564 568/568 573/573
f 568/568 552/552 573/573
f 570/570 566/566 551/551
f 566/566 550/550 551/551
f 568/568 570/570 552/552
f 570/570 551/551 552/552
f 582/582 578/578 583/583
f 579/579 583/583 578/578
f 580/580 584/584 581/581
f 585/585 581/581 584/584
f 584/584 582/582 585/585
f 583/583 585/585 582/582
f 575/575 574/574 553/553
f 574/574 554/554 553/553
f 580/580 575/575 557/557
f 575/575 553/553 557/557
f 574/574 578/578 554/554
f 578/578 586/586 554/554
f 578/578 582/582 586/586
f 582/582 587/587 586/586
f 584/584 580/580 559/559
f 580/580 557/557 559/559
f 582/582 584/584 587/587
f 584/584 559/559 587/587
f 588/588 589/589 590/590
f 589/589 591/591 590/590
f 592/592 588/588 590/590
f 591/591 593/593 590/590
f 594/594 592/592 590/590
f 593/593 594/594 590/590
f 595/595 596/596 597/597
f 596/596 598/598 597/597
f 599/599 595/595 597/597
f 598/598 600/600 597/597
f 601/601 599/599 597/597
f 600/600 601/601 597/597
f 602/602 603/603 604/604
f 605/605 604/604 603/603
f 606/606 602/602 607/607
f 604/604 607/607 602/602
f 603/603 608/608 605/605
f 609/609 605/605 608/608
f 603/603 602/602 588/588
f 602/602 610/610 588/588
f 608/608 611/611 609/609
f 612/612 609/609 611/611
f 613/613 606/606 614/614
f 607/607 614/614 606/606
f 602/602 606/606 610/610
f 606/606 615/615 610/610
f 608/608 603/603 592/592
f 603/603 588/588 592/592
f 611/611 613/613 612/612
f 614/614 612/612 613/613
f 611/611 608/608 594/594
f 608/608 592/592 594/594
f 606/606 613/613 615/615
f 613/613 616/616 615/615
f 613/613 611/611 616/616
f 611/611 594/594 616/616
f 617/617 618/618 619/619
f 620/620 619/619 618/618
f 621/621 617/617 622/622
f 619/619 622/622 617/617
f 618/618 623/623 620/620
f 624/624 620/620 623/623
f 618/618 617/617 595/595
f 617/617 596/596 595/595
f 625/625 621/621 626/626
f 622/622 626/626 621/621
f 623/623 627/627 624/624
f 628/628 624/624 627/627
f 617/617 621/621 596/596
f 621/621 629/629 596/596
f 623/623 618/618 599/599
f 618/618 595/595 599/599
f 627/627 625/625 628/628
f 626/626 628/628 625/625
f 621/621 625/625 629/629
f 625/625 630/630 629/629
f 627/627 623/623 601/601
f 623/623 599/599 601/601
f 625/625 627/627 630/630
f 627/627 601/601 630/630
f 631/631 632/632 633/633
f 632/632 634/634 633/633
f 635/635 631/631 633/633
f 634/634 636/636 633/633
f 637/637 635/635 633/633
f 636/636 637/637 633/633
f 638/638 639/639 640/640
f 639/639 641/641 640/640
f 642/642 638/638 640/640
f 641/641 643/643 640/640
f 644/644 642/642 640/640
f 643/643 644/644 640/640
f 645/645 646/646 647/647
f 648/648 647/647 646/646
f 646/646 645/645 631/631
f 645/645 649/649 631/631
f 650/650 645/645 651/651
f 647/647 651/651 645/645
f 646/646 652/652 648/648
f 653/653 648/648 652/652
f 652/652 646/646 635/635
f 646/646 631/631 635/635
f 645/645 650/650 649/649
f 650/650 654/654 649/649
f 655/655 650/650 656/656
f 651/651 656/656 650/650
f 652/652 657/657 653/653
f 658/658 653/653 657/657
f 650/650 655/655 654/654
f 655/655 659/659 654/654
f 657/657 652/652 637/637
f 652/652 635/635 637/637
f 657/657 655/655 658/658
f 656/656 658/658 655/655
f 655/655 657/657 659/659
f 657/657 637/637 659/659
f 660/660 661/661 662/662
f 663/663 662/662 661/661
f 661/661 660/660 638/638
f 660/660 639/639 638/638
f 664/664 660/660 665/665
f 662/662 665/665 660/660
f 661/661 666/666 663/663
f 667/667 663/663 666/666
f 660/660 664/664 639/639
f 664/664 668/668 639/639
f 666/666 661/661 642/642
f 661/661 638/638 642/642
f 666/666 669/669 667/667
f 670/670 667/667 669/669
f 671/671 664/664 672/672
f 665/665 672/672 664/664
f 664/664 671/671 668/668
f 671/671 673/673 668/668
f 669/669 666/666 644/644
f 666/666 642/642 644/644
f 669/669 671/671 670/670
f 672/672 670/670 671/671
f 671/671 669/669 673/673
f 669/669 644/644 673/673

