# Created by Metasequoia

mtllib OBJ10_ALIGATOR.mtl

v -62.016399 -26.917900 1.682300
v -60.150600 -26.993200 1.682300
v -54.247398 -29.039301 25.641199
v -52.235001 -27.899300 25.570101
v -51.120399 -33.037899 -2.249500
v -48.856899 -33.666302 -10.518500
v -47.928600 -29.815001 -2.249500
v -47.923599 -36.695801 21.805000
v -46.666401 -34.003300 13.301501
v -45.505001 -18.582500 -13.457000
v -45.397499 -32.936199 -51.379398
v -45.098202 -17.893101 12.352300
v -43.869099 -40.355900 -52.840900
v -43.169800 -34.262199 -51.342098
v -42.877602 -19.317900 -13.457000
v -42.348202 -33.276100 21.591600
v -42.308300 -17.893101 12.352300
v -41.540798 -30.289499 -16.859501
v -40.986198 -27.336000 5.681400
v -40.681198 -28.298201 36.578300
v -40.488201 -41.495800 -59.786900
v -40.052898 -23.421101 -40.149399
v -38.857399 -38.448002 -52.729000
v -38.769600 -36.217800 33.587502
v -38.081200 -28.298201 36.578300
v -37.957199 -32.616402 -26.262400
v -37.471199 -24.131800 -40.149399
v -37.405499 -24.556601 -0.094800
v -36.462799 -39.012402 76.779404
v -35.703899 -44.946701 73.477798
v -35.361599 -33.214100 -45.488899
v -35.278099 -32.743301 25.365198
v -34.528301 -38.159599 76.598900
v -34.373600 -30.289499 -16.859501
v -34.310200 -29.629499 -63.442501
v -34.159199 -43.287495 64.754898
v -33.824799 -27.336000 5.681400
v -32.188900 -29.629499 -63.442501
v -32.062801 -33.132801 -52.441601
v -31.786600 -36.217800 33.587502
v -30.827600 -38.780899 -66.209396
v -29.900299 -42.388401 72.936302
v -29.895399 -33.214100 -45.488899
v -28.140200 -41.288700 -72.523399
v -25.981899 -40.273602 117.592796
v -25.452801 -39.491199 -66.209396
v -25.193399 -44.493801 115.453796
v -24.254299 -40.258400 117.592796
v -23.045300 -28.094500 -7.469700
v -22.863398 -44.422501 109.295692
v -22.618099 -24.340401 18.398199
v -22.116800 -25.259800 -32.917999
v -22.084700 -32.523102 -34.003399
v -21.687000 -47.162300 157.205002
v -21.604500 -28.782801 15.628900
v -21.355600 -51.376801 155.046799
v -20.532499 -44.452900 115.453796
v -20.264601 -24.340401 18.398199
v -20.074200 -29.787001 -14.060800
v -19.971300 -47.147202 157.205002
v -19.885201 -26.393101 -32.917999
v -19.113701 -33.206600 -40.594398
v -19.025801 -51.277500 148.889008
v -18.633400 -28.122299 8.856200
v -18.327000 -22.973499 -6.384300
v -17.806801 -49.138699 184.233505
v -17.103100 -28.094500 -7.469700
v -17.036200 -33.130001 65.448097
v -16.742201 -53.332401 182.080902
v -16.694700 -51.335800 155.046799
v -16.685499 -22.122601 -6.384300
v -16.631701 -38.059200 63.694801
v -16.289101 -49.099098 184.233505
v -16.142599 -31.514200 -34.003399
v -15.897700 -40.261002 134.663406
v -15.681000 -42.277500 100.142601
v -15.662300 -28.782801 15.628900
v -15.656400 -45.087898 132.642105
v -15.371400 -39.913898 -78.534798
v -15.025700 -33.112400 65.448097
v -14.748401 -53.366802 175.468704
v -14.589300 -45.011501 -79.276901
v -13.942200 -40.243801 134.663406
v -13.654700 -40.651100 -78.534798
v -13.367400 -38.836300 56.937801
v -13.097600 -43.196201 93.403099
v -13.070900 -46.234798 125.904900
v -12.759200 -53.228500 182.080902
v -12.374100 -46.664700 -84.783897
v -11.854900 -37.276901 101.796402
v -11.388500 -38.013100 63.694801
v -10.530700 -42.232201 100.142601
v -10.487600 -47.137199 132.795303
v -10.404800 -37.264198 101.796402
v -10.158900 -45.222500 -79.276901
v -3.957900 -11.345900 6.604500
v -3.931900 -22.807501 2.968000
v -3.662600 -33.058201 50.625702
v -3.186900 -53.439800 177.041397
v -2.914600 -40.903000 112.891197
v -2.806300 -57.313301 233.054199
v -2.596400 -28.185499 52.538700
v -2.502000 -37.022999 115.007004
v -2.339500 -53.457901 234.853806
v -2.339100 -49.702999 179.174194
v -1.935500 -12.146800 6.641200
v -1.817700 -19.949800 -45.545898
v -1.787200 -30.114300 -46.183399
v -1.630100 -57.965099 210.113403
v -1.292300 -47.256599 149.373993
v -1.219700 -49.673801 179.174194
v -1.204100 -54.091702 166.586105
v -1.150600 -53.426899 234.853806
v -1.148200 -31.632500 39.747601
v -1.053800 -37.010300 115.007004
v -1.019700 -57.389099 227.540695
v -0.889500 -23.207899 -8.824600
v -0.851700 -28.170099 52.538700
v -0.752200 -39.759701 105.114098
v -0.161600 -54.331402 211.796906
v 0.041200 -58.035900 204.955505
v 0.140900 -21.100700 -45.545898
v 0.742000 -53.337399 177.041397
v 0.743400 -43.528000 151.266403
v 0.756100 -47.176701 143.959793
v 0.760400 -57.220299 233.054199
v 0.950500 -54.302399 211.796906
v 1.015300 -33.976700 -58.991405
v 1.429900 -40.864799 112.891197
v 1.571500 -33.012199 50.625702
v 1.706600 -57.877998 210.113403
v 2.109400 -43.515999 151.266403
v 2.135300 -22.807501 3.078100
v 2.805600 -47.220600 149.373993
v 4.088900 -30.114300 -46.183399
v 10.038100 -37.084499 101.796402
v 10.239500 -42.049702 100.142601
v 10.282600 -46.954700 132.795303
v 10.604000 -37.819901 63.694801
v 11.488100 -37.071800 101.796402
v 11.568200 -52.594200 182.080902
v 11.912900 -44.497501 -76.908699
v 12.823001 -42.968494 93.403099
v 12.849700 -46.007099 125.904900
v 13.020801 -38.604401 56.937801
v 13.561900 -52.628498 175.468704
v 13.627300 -40.001598 134.663406
v 14.128100 -45.923695 -82.276100
v 14.166500 -32.855900 65.448097
v 14.887200 -48.286098 184.233505
v 15.389900 -42.004501 100.142601
v 15.414600 -44.814899 132.642105
v 15.418800 -39.458302 -76.495697
v 15.505400 -28.782801 15.628900
v 15.551100 -52.490299 182.080902
v 15.582800 -39.984402 134.663406
v 15.821700 -21.926901 -6.384300
v 15.847200 -37.773800 63.694801
v 16.177000 -32.838200 65.448097
v 16.225700 -28.094500 -7.469700
v 16.343300 -43.862099 -76.908699
v 16.404900 -48.246498 184.233505
v 16.465900 -31.514200 -34.003399
v 16.910700 -51.040600 155.046799
v 17.135500 -38.295300 -76.495697
v 17.463200 -22.973499 -6.384300
v 18.476400 -28.122299 8.856200
v 19.196800 -29.787001 -14.060800
v 19.240499 -50.941299 148.889008
v 19.437000 -33.206600 -40.594398
v 20.121099 -24.340401 18.398199
v 20.123899 -46.794899 157.205002
v 20.222099 -26.393101 -32.917999
v 20.353399 -44.093700 115.453796
v 21.447500 -28.782801 15.628900
v 21.571699 -50.999599 155.046799
v 21.839600 -46.779800 157.205002
v 22.167900 -28.094500 -7.469700
v 22.408001 -32.698399 -34.003399
v 22.453699 -25.472000 -32.917999
v 22.474701 -24.340401 18.398199
v 22.683401 -44.022297 109.295692
v 24.011600 -39.834400 117.592796
v 24.781700 -39.460602 -66.209396
v 25.014400 -44.052700 115.453796
v 25.739300 -39.819199 117.592796
v 27.469101 -41.288700 -72.523399
v 29.478701 -33.214100 -45.488899
v 29.484699 -41.621399 72.883301
v 30.156500 -38.780899 -66.209396
v 31.497700 -36.217800 33.587502
v 31.530100 -29.629499 -63.442501
v 31.693502 -33.132801 -52.441601
v 33.651299 -29.629499 -63.442501
v 33.748600 -27.336000 5.681400
v 33.834499 -42.740200 64.765701
v 34.375198 -37.641701 76.617798
v 34.509800 -30.289499 -16.859501
v 34.944901 -33.214100 -45.488899
v 34.989101 -32.743301 25.365198
v 35.089600 -44.504101 73.418800
v 36.233799 -38.591301 76.826401
v 37.067001 -24.131800 -40.149399
v 37.329300 -24.556601 -0.094800
v 37.808201 -28.298201 36.578300
v 38.093300 -32.616402 -26.262400
v 38.480598 -36.217800 33.587502
v 38.969200 -38.459801 -52.729698
v 39.648701 -23.421101 -40.149399
v 40.408199 -28.298201 36.578300
v 40.620701 -41.580299 -59.786999
v 40.910000 -27.336000 5.681400
v 41.676899 -30.289499 -16.859501
v 42.248402 -17.893101 12.352300
v 42.326199 -33.678101 21.616699
v 42.749001 -19.284201 -13.457000
v 43.258598 -34.253899 -51.341599
v 43.996101 -40.339199 -52.839901
v 45.038399 -17.893101 12.352300
v 45.376499 -18.616699 -13.457000
v 45.491501 -32.918400 -51.378399
v 46.638901 -33.926498 13.296700
v 48.472500 -36.447498 21.789499
v 48.869900 -30.020100 -2.249500
v 49.048901 -33.813301 -10.518500
v 51.629902 -27.684500 25.556700
v 51.921001 -33.509800 -2.249500
v 53.848301 -28.607599 25.614300
v 58.200802 -26.120800 1.682300
v 60.435200 -25.732901 1.682300
v -63.527000 -77.716202 0.183600
v -53.659397 -86.187309 -52.517204
v -53.020195 -87.579292 52.521492
v -48.789700 -95.302498 -52.517200
v -47.919300 -98.710701 0.183600
v -46.426498 -80.121902 94.548401
v -29.440399 -78.834190 104.017403
v -26.401600 -93.562599 52.521496
v -19.537100 -72.936203 180.588394
v -13.752900 -75.751900 258.502106
v -6.900900 -74.263603 325.412201
v -0.001700 -104.169899 0.183600
v -0.001700 -100.595901 -52.517200
v 0.005500 -74.869598 392.102814
v 0.085600 -77.956703 324.735504
v 0.103300 -86.595001 104.017403
v 0.129100 -79.654198 176.038696
v 0.129100 -79.638199 256.497803
v 0.185600 -95.983597 52.521500
v 6.871100 -73.904404 325.412201
v 13.791300 -75.033600 258.502106
v 19.420900 -71.920303 180.588394
v 26.726200 -93.095802 52.521496
v 29.506102 -78.316200 104.017403
v 46.512001 -79.305298 94.548401
v 47.915699 -98.710701 0.183600
v 48.786201 -95.302498 -52.517200
v 53.235497 -86.645805 52.521492
v 53.655796 -86.187309 -52.517204
v 63.523399 -77.716202 0.183600
v -58.158199 -93.039497 -64.214996
v -48.789700 -95.302498 -52.517200
v -46.708195 -91.354301 -92.946793
v -38.598103 -73.641701 -118.013298
v -35.285702 -73.627602 -127.832001
v -33.622196 -83.388802 -98.938202
v -33.622196 -83.388802 -98.938202
v -33.002499 -86.623787 -119.112907
v -32.624401 -74.994698 -146.073898
v -30.472900 -70.397400 -163.496094
v -30.327299 -76.054199 -103.452805
v -29.031200 -83.454597 -142.172195
v -27.926098 -94.571602 -100.218498
v -27.926096 -94.571602 -100.218498
v -27.116100 -80.857803 -161.067505
v -26.063299 -70.894600 -181.618393
v -25.201000 -83.638100 -129.207703
v -24.603300 -46.487099 -122.705803
v -24.600500 -66.093697 -199.012695
v -24.193602 -44.399502 -106.993599
v -23.191601 -78.299103 -179.685104
v -22.168800 -82.468300 -147.441193
v -21.568300 -37.376099 -121.332298
v -21.363501 -75.664101 -198.857895
v -20.861200 -79.425400 -128.628799
v -20.706900 -79.108704 -165.373596
v -19.306299 -65.455399 -222.960907
v -18.778900 -49.785000 -139.084503
v -18.351200 -77.964203 -147.077194
v -17.710501 -77.028099 -183.481796
v -17.580000 -62.112400 -228.519394
v -17.141001 -74.860603 -165.300003
v -16.975201 -40.202499 -133.916702
v -16.359900 -71.026703 -225.854202
v -16.315001 -73.525398 -201.394608
v -14.660600 -72.712097 -183.654007
v -13.790300 -67.301399 -224.915405
v -13.505400 -69.208504 -201.821793
v -13.185000 -63.278400 -230.493805
v -13.185000 -63.278400 -230.493805
v -6.551700 -49.092995 -147.808823
v -0.001700 -100.595901 -52.517200
v -0.001700 -59.526699 -66.202301
v 0.000000 -95.827003 -100.362297
v 0.000000 -95.827003 -100.362297
v 0.000000 -87.964996 -141.242493
v 0.000000 -83.516602 -180.893417
v 0.000000 -80.543999 -128.782486
v 0.000000 -78.208603 -147.876205
v 0.000000 -75.873199 -166.969803
v 0.000000 -73.607201 -225.775681
v 0.000000 -73.521004 -186.061203
v 0.000000 -71.089897 -232.140121
v 0.000000 -70.014603 -204.993896
v 0.000000 -66.715096 -217.238602
v 0.000000 -66.613197 -229.922897
v 0.000000 -61.304798 -235.664902
v 0.000000 -61.304798 -235.664902
v 6.551700 -49.092995 -147.808823
v 13.185000 -63.278400 -230.493805
v 13.185000 -63.278400 -230.493805
v 13.505400 -69.208504 -201.821793
v 13.790300 -67.301399 -224.915405
v 14.660600 -72.712097 -183.654007
v 16.315001 -73.525398 -201.394608
v 16.359900 -71.026703 -225.854202
v 16.975201 -40.202499 -133.916702
v 17.141001 -74.860603 -165.300003
v 17.580000 -62.112400 -228.519394
v 17.710501 -77.028099 -183.481796
v 18.351200 -77.964203 -147.077194
v 18.778900 -49.785000 -139.084503
v 19.306299 -65.455399 -222.960907
v 20.706900 -79.108704 -165.373596
v 20.861200 -79.425400 -128.628799
v 21.363501 -75.664101 -198.857895
v 21.568300 -37.376099 -121.332298
v 22.168800 -82.468300 -147.441193
v 23.191601 -78.299103 -179.685104
v 24.193602 -44.399502 -106.993599
v 24.600401 -66.093697 -199.012695
v 24.603300 -46.487099 -122.705803
v 25.201000 -83.638100 -129.207703
v 26.063299 -70.894600 -181.618393
v 27.116100 -80.857803 -161.067505
v 27.926203 -94.571602 -100.218498
v 27.926203 -94.571602 -100.218498
v 29.031200 -83.454597 -142.172195
v 30.327299 -76.043701 -103.431595
v 30.472900 -70.397400 -163.496094
v 32.624401 -74.994698 -146.073898
v 33.002499 -86.623787 -119.112907
v 33.622196 -83.388802 -98.938202
v 33.622196 -83.388802 -98.938202
v 35.285702 -73.627602 -127.832001
v 38.598103 -73.641701 -118.013298
v 46.704597 -91.354301 -92.946793
v 48.786201 -95.302498 -52.517200
v 58.151299 -93.024498 -64.472099
v -113.802498 -133.168701 178.191406
v -113.802498 -133.168701 178.191406
v -109.098396 -151.776093 1.755700
v -105.264198 -136.171204 191.187302
v -105.264198 -136.171204 191.187302
v -99.703598 -106.408798 -50.594501
v -99.683701 -137.718307 -20.893700
v -99.683701 -137.718307 -20.893700
v -99.571297 -142.101807 -26.907904
v -99.571297 -142.101807 -26.907902
v -99.504601 -141.039688 -16.343599
v -99.504601 -141.039688 -16.343599
v -98.010498 -110.440697 -59.123699
v -97.914497 -149.330902 -14.670599
v -97.914497 -149.330902 -14.670598
v -95.660103 -91.631104 105.555397
v -95.134209 -147.776779 -9.721700
v -95.123199 -104.416199 -66.737602
v -94.077003 -95.626404 -54.777699
v -93.329903 -125.932602 171.029800
v -93.329903 -125.932594 171.029800
v -93.047302 -140.887695 -33.475601
v -93.047302 -140.887695 -33.475601
v -90.996696 -102.571899 105.185303
v -90.996696 -102.571899 105.185303
v -90.380898 -122.449600 163.518906
v -90.380898 -122.449600 163.518906
v -89.887199 -108.186401 -41.452301
v -89.064697 -112.400002 165.984604
v -88.363602 -152.662598 -13.112500
v -87.720291 -148.541504 -25.276400
v -87.720284 -148.541504 -25.276400
v -85.787498 -155.066193 7.970100
v -85.521103 -126.627998 177.471603
v -85.521103 -126.627998 177.471603
v -85.015602 -112.240303 -70.177605
v -84.142700 -138.319595 -36.850700
v -84.142700 -138.319595 -36.850700
v -83.752800 -109.786919 169.307999
v -82.989700 -97.575104 -44.407501
v -81.011497 -132.547195 -32.758701
v -81.011497 -132.547195 -32.758701
v -81.011497 -132.547195 -32.758701
v -81.011497 -132.547195 -32.758701
v -80.604897 -120.887199 165.124496
v -79.717705 -149.069199 -11.889900
v -75.915604 -111.219009 170.669601
v -75.915604 -111.219009 170.669601
v -75.680397 -130.917404 194.650406
v -75.680397 -130.917404 194.650406
v -75.243797 -151.693497 -18.760500
v -75.199211 -114.017899 -54.020195
v -75.199211 -114.017891 -54.020199
v -73.265099 -138.220810 -27.639700
v -73.265099 -138.220810 -27.639700
v -73.265099 -138.220810 -27.639700
v -71.881699 -105.118202 110.132401
v -71.799301 -146.621094 -26.043798
v -71.799301 -146.621094 -26.043798
v -70.828903 -119.324806 166.730103
v -70.828903 -119.324806 166.730103
v -70.669098 -122.635803 175.614197
v -70.669098 -122.635803 175.614197
v -68.894600 -145.838608 -21.017801
v -67.178001 -83.817497 115.079483
v -67.178001 -83.817497 115.079483
v -65.301498 -60.837502 60.307701
v -65.301498 -60.837502 60.307701
v -65.072098 -86.952698 61.443005
v -65.072098 -86.952698 61.443005
v -65.072098 -86.952698 61.443005
v -63.527000 -77.716202 0.183600
v -60.164906 -49.853500 0.183600
v -58.300201 -52.803898 -77.285698
v -58.300201 -52.803898 -77.285698
v -58.158199 -93.039497 -64.214996
v -58.158199 -57.711605 -63.376099
v -58.158199 -57.711605 -63.376099
v -54.873699 -52.048702 75.505608
v -54.873699 -52.048702 75.505608
v -53.659405 -55.774700 -52.517200
v -53.659401 -86.187309 -52.517204
v -53.659401 -55.774700 -52.517200
v -53.659397 -86.187309 -52.517204
v -53.338001 -51.412201 47.834995
v -53.160000 -153.715393 -4.129200
v -53.020195 -87.579292 52.521492
v -53.020195 -87.579292 52.521492
v -51.357403 -146.415100 -25.116301
v -50.099701 -30.285500 0.183600
v -50.051601 -58.963799 90.916199
v -50.051601 -58.963799 90.916199
v -48.789700 -95.302498 -52.517200
v -48.031101 -120.651497 179.963577
v -48.031101 -120.651497 179.963577
v -46.708202 -61.594898 -91.829002
v -46.708199 -61.594898 -91.829002
v -46.708195 -91.354301 -92.946800
v -46.708195 -91.354301 -92.946793
v -46.708195 -91.354301 -92.946793
v -46.426498 -80.121902 94.548401
v -46.426498 -80.121902 94.548401
v -42.317902 -38.896198 -52.517208
v -38.152500 -41.809700 53.490501
v -37.575199 -24.304199 0.183600
v -33.827602 -48.626896 99.494911
v -33.827602 -48.626896 99.494911
v -33.827602 -48.626896 99.494911
v -33.622196 -83.388802 -98.938202
v -33.136295 -53.243702 -96.765999
v -31.738800 -32.915001 -52.517200
v -29.440399 -78.834190 104.017403
v -29.440399 -78.834190 104.017403
v -28.735001 -36.342098 52.327499
v -26.299999 -26.938000 0.183600
v -24.663300 -45.400299 96.367599
v -24.663300 -45.400299 96.367599
v -23.266500 -49.281200 -96.312309
v -22.214998 -35.548702 -52.517200
v -20.193399 -38.638199 52.839600
v -19.537100 -72.936203 180.588394
v -18.605700 -40.446201 95.205498
v -18.605700 -40.446201 95.205498
v -14.911200 -54.464699 179.964005
v -13.752900 -75.751900 258.502106
v -13.094500 -42.555801 95.717201
v -13.094500 -42.555801 95.717201
v -12.177700 -62.034000 258.036804
v -11.407500 -50.918800 179.846405
v -8.128500 -52.511200 179.903503
v -6.900900 -74.263603 325.412201
v -6.110900 -67.404602 325.179504
v -0.463800 -56.869598 257.871368
v -0.368100 -32.959000 53.038799
v -0.333600 -36.855801 95.916199
v -0.333600 -36.855801 95.916199
v -0.001700 -30.146099 -52.517200
v -0.001700 -21.535400 0.183600
v -0.001500 -51.180202 -96.529701
v 0.005500 -74.869598 392.102814
v 5.724700 -67.095901 325.179504
v 6.871100 -73.904404 325.412201
v 6.963300 -52.117699 179.903503
v 10.154800 -50.356499 179.846405
v 11.503300 -61.416500 258.036804
v 12.525300 -42.330700 95.717201
v 12.525300 -42.330700 95.717201
v 13.791300 -75.033600 258.502106
v 13.838600 -53.714897 179.964005
v 17.998501 -40.124599 95.205498
v 17.998501 -40.124599 95.205498
v 19.420900 -71.920303 180.588394
v 19.553900 -38.289001 52.839600
v 22.211397 -35.548702 -52.517200
v 23.263300 -49.281200 -96.312309
v 24.142300 -44.971500 96.367599
v 24.142300 -44.971500 96.367599
v 26.296400 -26.938000 0.183600
v 28.053801 -35.843102 52.327499
v 29.506102 -78.316200 104.017403
v 29.506102 -78.316200 104.017403
v 31.735300 -32.915001 -52.517200
v 33.133099 -53.243702 -96.765999
v 33.361904 -48.036499 99.494911
v 33.361904 -48.036499 99.494911
v 33.361904 -48.036499 99.494911
v 33.622196 -83.388802 -98.938202
v 37.566002 -41.144402 53.490501
v 37.571701 -24.304199 0.183600
v 42.314301 -38.896198 -52.517208
v 46.512001 -79.305298 94.548401
v 46.512001 -79.305298 94.548401
v 46.704597 -91.354301 -92.946793
v 46.704597 -91.354301 -92.946793
v 46.704601 -91.354301 -92.946800
v 46.704601 -61.594898 -91.829002
v 46.704601 -61.594898 -91.829002
v 48.786201 -95.302498 -52.517200
v 49.764999 -58.086800 90.916199
v 49.764999 -58.086800 90.916199
v 50.096199 -30.285500 0.183600
v 52.668102 -147.373703 -24.558500
v 52.668102 -147.373703 -24.558500
v 52.917797 -50.478603 47.834995
v 53.235497 -86.645805 52.521492
v 53.235497 -86.645805 52.521492
v 53.655796 -86.187309 -52.517204
v 53.655800 -86.187309 -52.517204
v 53.655800 -55.774700 -52.517200
v 53.655804 -55.774700 -52.517200
v 54.464405 -51.088100 75.505608
v 54.464405 -51.088100 75.505608
v 55.107197 -119.836998 179.681808
v 55.107197 -119.836998 179.681808
v 55.398998 -154.594498 -3.560900
v 55.398998 -154.594498 -3.560900
v 58.151295 -93.024498 -64.472099
v 58.154598 -57.711605 -63.376099
v 58.154598 -57.711605 -63.376099
v 58.296696 -52.803898 -77.285698
v 58.296696 -52.803898 -77.285698
v 60.161404 -49.853500 0.183600
v 63.523399 -77.716202 0.183600
v 65.042503 -59.692299 60.307701
v 65.042503 -59.692299 60.307701
v 65.296799 -85.806099 61.455097
v 65.296799 -85.806099 61.455097
v 65.296799 -85.806099 61.455097
v 66.207893 -82.726799 114.979782
v 66.207893 -82.726799 114.979790
v 70.719200 -146.397903 -20.547102
v 70.719200 -146.397903 -20.547102
v 71.245903 -121.510902 175.419098
v 71.245903 -121.510902 175.419113
v 71.296303 -103.963402 110.103897
v 71.419502 -118.188698 166.539200
v 71.419502 -118.188698 166.539200
v 73.538101 -147.119797 -25.614801
v 73.538101 -147.119797 -25.614801
v 74.800301 -138.690308 -27.235800
v 74.800301 -138.690308 -27.235800
v 74.800301 -138.690308 -27.235800
v 74.800301 -138.690308 -27.235800
v 75.614311 -114.632401 -53.474701
v 75.614311 -114.632393 -53.474701
v 76.244499 -129.733704 194.474792
v 76.244499 -129.733704 194.474792
v 76.357597 -110.009399 170.514206
v 76.357597 -110.009399 170.514206
v 77.496002 -152.104706 -18.307800
v 81.228699 -119.598396 164.985901
v 82.219597 -149.373596 -11.434401
v 82.219597 -149.373596 -11.434401
v 82.345001 -132.901199 -32.417000
v 82.345001 -132.901199 -32.417000
v 82.345001 -132.901199 -32.417000
v 82.345001 -132.901199 -32.417000
v 83.083000 -98.071503 -44.020100
v 84.182098 -108.455200 169.197006
v 85.190910 -112.656609 -69.774696
v 85.431602 -138.609207 -36.552898
v 85.431602 -138.609207 -36.552898
v 86.141800 -125.275398 177.354507
v 86.141800 -125.275398 177.354507
v 89.555496 -110.982590 165.900406
v 89.678703 -155.218903 8.587800
v 89.678703 -155.218903 8.587800
v 89.907402 -148.679703 -24.937401
v 89.907402 -148.679703 -24.937401
v 90.374794 -101.103401 105.227882
v 90.374802 -101.103401 105.227890
v 90.377998 -108.480797 -41.125599
v 91.037903 -121.008202 163.432602
v 91.037903 -121.008202 163.432602
v 91.141197 -152.771698 -12.709900
v 93.984901 -124.453003 170.956299
v 93.984901 -124.453003 170.956299
v 94.698700 -141.039001 -33.167301
v 94.698700 -141.039001 -33.167301
v 94.878304 -90.093803 105.629295
v 95.045502 -104.658501 -66.465599
v 98.009293 -147.732010 -9.351201
v 98.009300 -147.732010 -9.351201
v 98.209801 -110.640701 -58.869396
v 99.008499 -99.699799 -54.526501
v 99.954697 -106.504997 -50.410500
v 100.731102 -149.227905 -14.339399
v 100.731102 -149.227905 -14.339398
v 101.529602 -142.140900 -26.605999
v 101.529602 -142.140900 -26.605997
v 101.924698 -137.796005 -20.488501
v 101.924698 -137.796005 -20.488501
v 102.090401 -140.905106 -16.039900
v 102.090401 -140.905106 -16.039900
v 102.090401 -140.905106 -16.039900
v 105.926598 -134.526993 191.169495
v 105.926598 -134.526993 191.169495
v 112.830902 -151.402802 2.104800
v 112.830902 -151.402802 2.104800
v 114.511391 -131.379807 178.223587
v 114.511391 -131.379807 178.223587
v -38.598103 -73.641701 -118.013298
v -37.086601 -73.670898 -128.895996
v -37.019501 -64.077003 -116.040100
v -33.622196 -83.388802 -98.938202
v -33.243099 -74.770203 -147.871704
v -33.136295 -53.243702 -96.765999
v -32.298901 -69.283096 -164.722900
v -30.398500 -54.483212 -103.184090
v -29.579998 -55.803200 -137.787506
v -28.915100 -69.875603 -180.590805
v -26.466898 -62.520893 -207.313522
v -24.603300 -46.487099 -122.705803
v -24.193602 -44.399502 -106.993599
v -23.933599 -56.215599 -163.084702
v -23.266500 -49.281200 -96.312309
v -21.900700 -58.106400 -179.412201
v -21.568300 -37.376099 -121.332298
v -21.076099 -55.899399 -204.320908
v -21.034100 -62.017502 -219.774307
v -20.758200 -59.227699 -230.911697
v -20.750502 -52.331600 -221.617477
v -20.565800 -53.692101 -163.205505
v -20.419500 -60.976700 -226.327194
v -18.953800 -35.386799 -120.902802
v -18.778900 -49.785000 -139.084503
v -18.625900 -57.299801 -235.511902
v -18.224400 -55.313202 -179.355301
v -17.156099 -52.566700 -203.908798
v -16.975201 -40.202499 -133.916702
v -16.567598 -49.999393 -230.589340
v -14.743398 -59.302197 -241.003372
v -14.704300 -38.429100 -132.186905
v -14.541500 -47.532600 -230.052597
v -12.914702 -47.049900 -222.184921
v -11.668600 -46.327499 -229.405807
v -11.322900 -44.049900 -127.333702
v -9.312900 -62.762402 -241.226089
v -8.983399 -51.713902 -235.375504
v -6.629200 -48.348400 -228.168793
v -6.551700 -49.092991 -147.808823
v -0.001500 -51.180202 -96.529701
v 0.000000 -64.560997 -243.813904
v 0.000000 -58.063404 -242.801102
v 0.000000 -53.616699 -181.291107
v 0.000000 -51.958900 -208.103394
v 0.000000 -51.896801 -237.182404
v 0.000000 -51.451199 -164.011993
v 0.000000 -49.330105 -227.022415
v 0.000000 -46.307701 -147.485992
v 0.000000 -45.238400 -126.810677
v 0.000000 -43.672901 -108.817497
v 6.551700 -49.092991 -147.808823
v 6.629200 -48.348400 -228.168793
v 8.983399 -51.713902 -235.375504
v 9.312900 -62.762402 -241.226089
v 11.322900 -44.049900 -127.333702
v 11.668600 -46.327499 -229.405807
v 12.914702 -47.049900 -222.184921
v 14.541500 -47.532600 -230.052597
v 14.704300 -38.429100 -132.186905
v 14.743398 -59.302197 -241.003372
v 16.567598 -49.999393 -230.589340
v 16.975201 -40.202499 -133.916702
v 17.156099 -52.566700 -203.908798
v 18.224400 -55.313202 -179.355301
v 18.625799 -57.299801 -235.511902
v 18.778900 -49.785000 -139.084503
v 18.953800 -35.386799 -120.902802
v 20.419500 -60.976700 -226.327194
v 20.565800 -53.692101 -163.205505
v 20.750502 -52.331600 -221.617477
v 20.758200 -59.227699 -230.911697
v 21.034000 -62.017502 -219.774307
v 21.076099 -55.899399 -204.320908
v 21.568300 -37.376099 -121.332298
v 21.900700 -58.106400 -179.412201
v 23.263300 -49.281200 -96.312309
v 23.933599 -56.215599 -163.084702
v 24.193602 -44.399502 -106.993599
v 24.603300 -46.487099 -122.705803
v 26.466898 -62.520893 -207.313522
v 28.915100 -69.875603 -180.590805
v 29.579998 -55.803200 -137.787506
v 30.398500 -54.483212 -103.184090
v 32.298901 -69.283096 -164.722900
v 33.133099 -53.243702 -96.765999
v 33.243099 -74.770203 -147.871704
v 33.622196 -83.388802 -98.938202
v 37.019501 -64.077003 -116.040100
v 37.086601 -73.670898 -128.895996
v 38.598103 -73.641701 -118.013298
v -38.598103 -73.641701 -118.013298
v -37.086601 -73.670898 -128.895996
v -33.243099 -74.770203 -147.871704
v -32.298901 -69.283096 -164.722900
v -30.327299 -76.054199 -103.452797
v -28.915100 -69.875603 -180.590805
v -28.093000 -66.715401 -148.020493
v -27.814899 -58.764801 -127.340103
v -26.466900 -62.520897 -207.313507
v -24.224199 -62.515701 -164.952393
v -21.686300 -62.543301 -182.748398
v -21.034100 -62.017502 -219.774307
v -20.758200 -59.227699 -230.911697
v -20.419500 -60.976700 -226.327194
v -19.850201 -58.880901 -209.267502
v -18.625900 -57.299801 -235.511902
v -16.483599 -57.882107 -228.923965
v -14.743399 -59.302197 -241.003387
v -9.312900 -62.762402 -241.226089
v -0.001700 -59.526699 -66.202301
v 0.000000 -64.560997 -243.813904
v 0.000000 -59.634899 -183.323395
v 0.000000 -58.409000 -232.995605
v 0.000000 -58.082001 -166.595093
v 0.000000 -56.683201 -150.113403
v 0.000000 -55.919601 -209.168396
v 0.000000 -54.213200 -124.783699
v 9.312900 -62.762402 -241.226089
v 14.743399 -59.302197 -241.003387
v 16.483599 -57.882107 -228.923965
v 18.625799 -57.299801 -235.511902
v 19.850201 -58.880901 -209.267502
v 20.419500 -60.976700 -226.327194
v 20.758200 -59.227699 -230.911697
v 21.034000 -62.017502 -219.774307
v 21.686300 -62.543301 -182.748398
v 24.224199 -62.515701 -164.952393
v 26.466900 -62.520897 -207.313507
v 27.814899 -58.762699 -127.347099
v 28.093000 -66.715401 -148.020493
v 28.915100 -69.875603 -180.590805
v 30.327299 -76.043701 -103.431602
v 32.298901 -69.283096 -164.722900
v 33.243099 -74.770203 -147.871704
v 37.086601 -73.670898 -128.895996
v 38.598103 -73.641701 -118.013298
v -109.098396 -151.776093 1.755700
v -99.504601 -141.039688 -16.343599
v -95.134209 -147.776779 -9.721700
v -85.787498 -155.066193 7.970100
v -79.717705 -149.069199 -11.889900
v -73.265099 -138.220810 -27.639700
v -68.894600 -145.838608 -21.017801
v -53.160000 -153.715393 -4.129200
v -51.357403 -146.415100 -25.116301
v -31.481199 -69.903000 -142.736801
v -31.481199 -69.903000 -142.736801
v -30.890800 -69.631798 -144.966507
v -30.890800 -69.631798 -144.966507
v -30.890800 -68.477097 -140.826508
v -30.890800 -68.477097 -140.826508
v -28.872000 -73.897301 -139.746704
v -28.686501 -68.114098 -154.231293
v -28.686501 -68.114098 -154.231293
v -28.601700 -65.847099 -143.607697
v -28.601700 -65.847099 -143.607697
v -28.131201 -71.285400 -163.433197
v -27.492500 -80.987999 -130.926605
v -27.492500 -80.987999 -130.926605
v -27.475800 -65.439003 -163.269501
v -27.475800 -65.439003 -163.269501
v -26.413799 -74.409103 -128.331497
v -26.397400 -65.326599 -152.643402
v -26.397400 -65.326599 -152.643402
v -26.397400 -64.953201 -157.145203
v -26.397400 -64.953201 -157.145203
v -26.093399 -73.421700 -154.522598
v -25.756800 -64.300201 -170.650406
v -25.756800 -64.300201 -170.650406
v -25.203400 -83.458504 -128.928696
v -25.203400 -83.458504 -128.928696
v -25.203400 -83.107300 -133.553894
v -25.203400 -83.107300 -133.553894
v -25.186701 -63.423901 -161.498703
v -25.186701 -63.423901 -161.498703
v -25.186701 -62.998501 -166.012802
v -25.186701 -62.998501 -166.012802
v -25.084801 -63.534100 -190.175400
v -25.084801 -63.534100 -190.175400
v -24.926100 -80.656601 -146.567093
v -24.926100 -80.656601 -146.567093
v -24.910601 -69.181000 -191.581207
v -24.910601 -69.181000 -191.581207
v -24.834299 -70.124702 -168.279404
v -24.736000 -72.104797 -160.582397
v -24.736000 -72.104797 -160.582397
v -24.317499 -77.050598 -160.829193
v -24.317499 -77.050598 -160.829193
v -24.108299 -63.936798 -155.130905
v -24.108299 -63.936798 -155.130905
v -24.052299 -63.961700 -168.482605
v -24.052299 -63.961700 -168.482605
v -24.052299 -62.973900 -173.129898
v -24.052299 -62.973900 -173.129898
v -23.917999 -64.440697 -180.895203
v -23.917999 -64.440697 -180.895203
v -23.905300 -73.569397 -144.179001
v -23.811899 -76.104797 -166.958206
v -23.811899 -76.104797 -166.958206
v -23.811899 -73.217003 -179.837296
v -23.811899 -73.217003 -179.837296
v -23.068100 -69.522797 -189.770706
v -23.068100 -69.522797 -189.770706
v -23.068100 -68.839104 -193.391693
v -23.068100 -68.839104 -193.391693
v -22.960300 -65.240898 -156.812698
v -22.914301 -81.832603 -131.041107
v -22.914301 -81.832603 -131.041107
v -22.897600 -61.998798 -163.994598
v -22.897600 -61.998798 -163.994598
v -22.893499 -72.325699 -158.753204
v -22.893499 -72.325699 -158.753204
v -22.893499 -71.883904 -162.411606
v -22.893499 -71.883904 -162.411606
v -22.750500 -70.709801 -164.986099
v -22.675400 -61.173302 -204.955505
v -22.675400 -61.173302 -204.955505
v -22.636999 -82.771896 -144.520401
v -22.636999 -82.771896 -144.520401
v -22.060101 -82.284798 -149.126907
v -22.060101 -82.284798 -149.126907
v -22.054800 -62.477001 -187.581497
v -22.054800 -61.727600 -193.447403
v -22.054800 -61.727600 -193.447403
v -22.044001 -78.399002 -189.696899
v -21.763201 -61.847500 -171.141693
v -21.763201 -61.847500 -171.141693
v -21.628901 -62.435699 -183.535400
v -21.628901 -62.435699 -183.535400
v -21.628901 -62.302200 -179.153595
v -21.628901 -62.302200 -179.153595
v -21.522800 -79.121002 -165.035202
v -21.522800 -79.121002 -165.035202
v -21.522800 -75.502899 -177.813995
v -21.522800 -75.502899 -177.813995
v -21.522800 -74.373901 -182.332306
v -21.522800 -74.373901 -182.332306
v -21.287500 -80.754303 -158.280197
v -21.287500 -80.754303 -158.280197
v -21.287500 -79.080299 -164.166199
v -21.287500 -79.080299 -164.166199
v -21.225599 -69.181000 -191.581207
v -21.225599 -69.181000 -191.581207
v -21.051001 -72.104897 -160.582397
v -21.051001 -72.104897 -160.582397
v -20.775801 -69.666397 -200.677505
v -20.775801 -69.666397 -200.677505
v -20.386299 -60.089802 -202.964096
v -20.386299 -60.089802 -202.964096
v -20.386299 -59.455502 -207.527695
v -20.386299 -59.455502 -207.527695
v -20.347900 -80.431198 -146.534500
v -20.347900 -80.431198 -146.534500
v -20.167299 -78.742996 -169.656693
v -20.167299 -78.742996 -169.656693
v -20.142200 -72.091400 -193.201996
v -20.142200 -72.091400 -193.201996
v -20.107599 -59.688999 -217.908798
v -20.107599 -59.688999 -217.908798
v -20.082300 -68.548302 -204.757294
v -19.679899 -63.355301 -201.282303
v -19.421499 -66.741699 -215.064804
v -19.400101 -62.802601 -213.197403
v -19.400101 -62.802601 -213.197403
v -19.339800 -62.022099 -181.378403
v -19.339800 -62.022099 -181.378403
v -19.233700 -77.665298 -167.171005
v -19.233700 -77.665298 -167.171005
v -19.233700 -76.649002 -180.307404
v -19.233700 -76.649002 -180.307404
v -19.024900 -60.920300 -190.794296
v -19.024900 -60.920300 -190.794296
v -18.981600 -68.529800 -181.475006
v -18.751699 -68.507301 -213.548599
v -18.751699 -68.507301 -213.548599
v -18.486700 -72.253304 -198.695602
v -18.486700 -72.253304 -198.695602
v -18.486700 -71.022797 -203.199905
v -18.486700 -71.022797 -203.199905
v -18.434099 -67.928299 -190.795303
v -18.257601 -76.778603 -160.791794
v -18.257601 -76.778603 -160.791794
v -18.235701 -69.731201 -178.098206
v -18.132900 -63.216000 -229.823807
v -18.132900 -63.216000 -229.823807
v -18.097200 -58.965401 -205.388794
v -18.097200 -58.965401 -205.388794
v -17.853100 -74.801697 -191.237000
v -17.853100 -74.801697 -191.237000
v -17.853100 -73.739502 -195.764496
v -17.853100 -73.739502 -195.764496
v -17.818501 -58.157902 -220.436798
v -17.818501 -58.157902 -220.436798
v -17.818501 -58.106899 -216.035507
v -17.818501 -58.106899 -216.035507
v -17.557600 -63.023499 -211.368301
v -17.557600 -63.023499 -211.368301
v -17.557600 -62.581699 -215.026703
v -17.557600 -62.581699 -215.026703
v -17.403099 -57.581402 -230.815201
v -17.403099 -57.581402 -230.815201
v -16.402300 -55.938599 -209.427704
v -16.290400 -63.640598 -231.616806
v -16.290400 -63.640598 -231.616806
v -16.290400 -62.791401 -228.030899
v -16.290400 -62.791401 -228.030899
v -16.197599 -73.777199 -201.240799
v -16.197599 -73.777199 -201.240799
v -15.721800 -70.971497 -210.829193
v -15.721800 -70.971497 -210.829193
v -15.721800 -69.503998 -216.743607
v -15.721800 -69.503998 -216.743607
v -15.715100 -62.802601 -213.197403
v -15.715100 -62.802601 -213.197403
v -15.564000 -73.958504 -193.457001
v -15.564000 -73.958504 -193.457001
v -15.529400 -57.870399 -218.249893
v -15.529400 -57.870399 -218.249893
v -14.934300 -70.735703 -227.236694
v -14.726200 -67.397003 -224.136795
v -14.726200 -67.397003 -224.136795
v -14.447900 -63.216000 -229.823898
v -14.447900 -63.216000 -229.823898
v -14.373200 -57.750301 -233.888901
v -14.373200 -57.750301 -233.888901
v -14.373200 -57.632099 -227.689407
v -14.373200 -57.632099 -227.689407
v -13.757900 -60.076801 -225.137604
v -12.691800 -70.044998 -213.759903
v -12.691800 -70.044998 -213.759903
v -12.437100 -68.040100 -221.887695
v -12.437100 -68.040100 -221.887695
v -12.437100 -66.682800 -226.374603
v -12.437100 -66.682800 -226.374603
v -11.343200 -57.941002 -230.729996
v -11.343200 -57.941002 -230.729996
v -10.325200 -68.308098 -235.608200
v -10.148000 -67.405296 -224.136307
v -10.148000 -67.405296 -224.136307
v -9.635100 -53.898499 -228.770294
v -9.620100 -58.692902 -235.730896
v -9.620100 -58.692902 -235.730896
v -9.404200 -61.977600 -230.708801
v -9.404200 -61.977600 -230.708801
v -9.092100 -66.712402 -227.325699
v -9.092100 -66.712402 -227.325699
v -7.561700 -62.961102 -232.266907
v -7.561700 -62.961102 -232.266907
v -7.561700 -60.994202 -229.150696
v -7.561700 -60.994202 -229.150696
v -7.331000 -59.917099 -237.606506
v -7.331000 -59.917099 -237.606506
v -7.331000 -57.851299 -233.682205
v -7.331000 -57.851299 -233.682205
v -6.062200 -68.329697 -229.887894
v -6.062200 -68.329697 -229.887894
v -6.062200 -67.097298 -223.950394
v -6.062200 -67.097298 -223.950394
v -5.719200 -61.977600 -230.708694
v -5.719200 -61.977600 -230.708694
v -5.041900 -58.278400 -235.739502
v -5.041900 -58.278400 -235.739502
v -3.032200 -66.712402 -227.325699
v -3.032200 -66.712402 -227.325699
v 0.161200 -66.712402 -227.325699
v 0.161200 -66.712402 -227.325699
v 3.191200 -68.329697 -229.887894
v 3.191200 -68.329697 -229.887894
v 3.191200 -67.097298 -223.950394
v 3.191200 -67.097298 -223.950394
v 3.479800 -61.977600 -230.708801
v 3.479800 -61.977600 -230.708801
v 5.142500 -59.150700 -235.622498
v 5.142500 -59.150700 -235.622498
v 5.322300 -62.961102 -232.266907
v 5.322300 -62.961102 -232.266907
v 5.322300 -60.994202 -229.150696
v 5.322300 -60.994202 -229.150696
v 6.196100 -53.898499 -228.770294
v 6.221100 -66.712402 -227.325699
v 6.221100 -66.712402 -227.325699
v 7.164800 -61.977600 -230.708694
v 7.164800 -61.977600 -230.708694
v 7.431700 -59.938999 -237.601303
v 7.431700 -59.938999 -237.601303
v 7.431700 -58.013401 -233.643799
v 7.431700 -58.013401 -233.643799
v 9.720700 -58.317402 -235.730301
v 9.720700 -58.317402 -235.730301
v 10.538600 -69.821999 -235.249695
v 10.702700 -57.887699 -230.742599
v 10.702700 -57.887699 -230.742599
v 11.268300 -68.289001 -219.259598
v 11.268300 -68.289001 -219.259598
v 11.658300 -60.765202 -220.128494
v 12.211400 -70.057404 -213.761597
v 12.211400 -70.057404 -213.761597
v 13.557400 -69.303001 -217.061493
v 13.557400 -69.303001 -217.061493
v 13.557400 -68.297501 -221.596802
v 13.557400 -68.297501 -221.596802
v 13.732600 -57.668098 -233.908401
v 13.732600 -57.668098 -233.908401
v 13.732600 -57.655499 -227.683899
v 13.732600 -57.655499 -227.683899
v 14.352200 -63.618698 -232.097107
v 14.352200 -63.618698 -232.097107
v 14.689700 -72.348900 -193.237396
v 14.689700 -72.348900 -193.237396
v 14.903100 -62.802601 -213.197403
v 14.903100 -62.802601 -213.197403
v 15.134300 -57.810001 -221.481003
v 15.134300 -57.810001 -221.481003
v 15.241300 -71.175697 -210.857300
v 15.241300 -71.175697 -210.857300
v 15.241300 -69.317596 -216.718002
v 15.241300 -69.317596 -216.718002
v 15.665000 -70.626503 -228.887100
v 15.846500 -68.225502 -219.249298
v 15.846500 -68.225502 -219.249298
v 16.184900 -66.229202 -198.674194
v 16.194700 -63.829899 -233.927505
v 16.194700 -63.829899 -233.927505
v 16.194700 -63.407501 -230.266800
v 16.194700 -63.407501 -230.266800
v 16.403000 -77.695297 -185.251404
v 16.403000 -77.695297 -185.251404
v 16.450001 -73.497704 -201.203995
v 16.450001 -73.497704 -201.203995
v 16.745600 -63.023499 -211.368301
v 16.745600 -63.023499 -211.368301
v 16.745600 -62.581699 -215.026703
v 16.745600 -62.581699 -215.026703
v 16.762600 -57.642399 -230.800705
v 16.762600 -57.642399 -230.800705
v 16.978800 -75.413002 -191.320999
v 16.978800 -75.413002 -191.320999
v 16.978800 -74.694397 -195.895706
v 16.978800 -74.694397 -195.895706
v 17.166300 -58.936699 -205.485107
v 17.166300 -58.936699 -205.485107
v 17.282801 -66.527802 -189.868103
v 17.384899 -55.941002 -209.428101
v 17.423401 -58.225399 -219.134705
v 17.423401 -58.225399 -219.134705
v 17.423401 -58.134701 -223.569595
v 17.423401 -58.134701 -223.569595
v 17.544901 -66.631104 -203.512497
v 17.657801 -73.011002 -198.799698
v 17.657801 -73.011002 -198.799698
v 17.657801 -71.931702 -203.324799
v 17.657801 -71.931702 -203.324799
v 18.037201 -63.618698 -232.097107
v 18.037201 -63.618698 -232.097107
v 18.271299 -68.744904 -213.581207
v 18.271299 -68.744904 -213.581207
v 18.331699 -77.089699 -160.834595
v 18.331699 -77.089699 -160.834595
v 18.429899 -61.941502 -181.487000
v 18.429899 -61.941502 -181.487000
v 18.588100 -62.802601 -213.197403
v 18.588100 -62.802601 -213.197403
v 18.692101 -76.876297 -182.801407
v 18.692101 -76.876297 -182.801407
v 18.692101 -75.276100 -187.254898
v 18.692101 -75.276100 -187.254898
v 18.885700 -60.856899 -190.809296
v 18.885700 -60.856899 -190.809296
v 19.267900 -73.090202 -193.337601
v 19.267900 -73.090202 -193.337601
v 19.455400 -59.502102 -203.103302
v 19.455400 -59.502102 -203.103302
v 19.574400 -66.108597 -218.409500
v 19.712601 -59.752800 -220.931503
v 19.712601 -59.752800 -220.931503
v 19.921801 -69.945801 -172.992996
v 19.946899 -70.364098 -200.771698
v 19.946899 -70.364098 -200.771698
v 20.378099 -77.496002 -173.892700
v 20.378099 -77.496002 -173.892700
v 20.379200 -58.974701 -207.641602
v 20.379200 -58.974701 -207.641602
v 20.719101 -62.219700 -183.586594
v 20.719101 -62.219700 -183.586594
v 20.719101 -62.161499 -179.186905
v 20.719101 -62.161499 -179.186905
v 20.981199 -74.358299 -184.791107
v 20.981199 -74.358299 -184.791107
v 21.111300 -68.646500 -180.611404
v 21.361601 -80.501701 -158.245407
v 21.361601 -80.501701 -158.245407
v 21.361601 -79.116501 -164.171097
v 21.361601 -79.116501 -164.171097
v 21.587700 -72.104797 -160.582397
v 21.587700 -72.104797 -160.582397
v 21.744499 -60.735500 -204.969696
v 21.744499 -60.735500 -204.969696
v 21.872101 -61.903198 -164.106705
v 21.872101 -61.903198 -164.106705
v 21.915600 -62.254501 -187.634201
v 21.915600 -62.254501 -187.634201
v 21.915600 -61.603802 -193.476700
v 21.915600 -61.603802 -193.476700
v 22.077400 -77.773201 -189.845093
v 22.225401 -70.162102 -191.348907
v 22.225401 -70.162102 -191.348907
v 22.355600 -81.375298 -151.038696
v 22.355600 -81.375298 -151.038696
v 22.588100 -70.627800 -161.402405
v 22.667200 -76.072601 -171.359604
v 22.667200 -76.072601 -171.359604
v 22.667200 -75.226997 -175.916901
v 22.667200 -75.226997 -175.916901
v 22.759001 -62.311298 -171.121307
v 22.759001 -62.311298 -171.121307
v 22.851900 -73.013298 -150.027405
v 23.008200 -63.181599 -181.103806
v 23.008200 -63.181599 -181.103806
v 23.056900 -82.355499 -133.831100
v 23.056900 -82.355499 -133.831100
v 23.430201 -72.325699 -158.753204
v 23.430201 -72.325699 -158.753204
v 23.430201 -71.883904 -162.411606
v 23.430201 -71.883904 -162.411606
v 23.430201 -65.240898 -156.812698
v 23.716900 -69.567703 -177.735397
v 24.067900 -70.503998 -189.538406
v 24.067900 -70.503998 -189.538406
v 24.067900 -69.820297 -193.159393
v 24.067900 -69.820297 -193.159393
v 24.161100 -62.955502 -161.609604
v 24.161100 -62.955502 -161.609604
v 24.161100 -62.517799 -166.126694
v 24.161100 -62.517799 -166.126694
v 24.391600 -77.151901 -160.843094
v 24.391600 -77.151901 -160.843094
v 24.606501 -76.177002 -133.119904
v 24.644699 -80.619202 -148.597305
v 24.644699 -80.619202 -148.597305
v 24.644699 -78.932404 -153.038895
v 24.644699 -78.932404 -153.038895
v 24.945601 -65.348000 -189.745895
v 24.945601 -65.348000 -189.745895
v 24.956301 -73.798897 -173.382996
v 24.956301 -73.798897 -173.382996
v 25.048100 -64.079597 -172.868103
v 25.048100 -64.079597 -172.868103
v 25.048100 -63.567902 -168.575806
v 25.048100 -63.567902 -168.575806
v 25.272699 -72.104897 -160.582397
v 25.272699 -72.104897 -160.582397
v 25.346001 -83.643600 -131.670593
v 25.346001 -83.643600 -131.670593
v 25.346001 -82.471901 -136.182999
v 25.346001 -82.471901 -136.182999
v 25.910400 -70.162102 -191.348907
v 25.910400 -70.162102 -191.348907
v 26.292801 -64.567398 -155.071106
v 26.292801 -64.567398 -155.071106
v 26.450300 -64.601799 -163.378204
v 26.450300 -64.601799 -163.378204
v 26.656401 -65.376602 -152.631607
v 26.656401 -65.376602 -152.631607
v 26.933800 -77.940002 -150.564896
v 26.933800 -77.940002 -150.564896
v 27.188900 -66.229301 -156.843094
v 27.188900 -66.229301 -156.843094
v 27.337200 -65.701797 -170.229004
v 27.337200 -65.701797 -170.229004
v 27.471201 -74.803902 -150.790100
v 27.496599 -75.570000 -138.394501
v 27.635099 -80.209503 -133.534500
v 27.635099 -80.209503 -133.534500
v 27.984699 -72.526299 -167.558701
v 29.188999 -68.698303 -154.003494
v 29.188999 -68.698303 -154.003494
v 29.361900 -66.596397 -142.735397
v 29.361900 -66.596397 -142.735397
v 30.156000 -68.451897 -144.461502
v 30.156000 -68.451897 -144.461502
v 30.156000 -66.912903 -140.412506
v 30.156000 -66.912903 -140.412506
v 32.445099 -70.959702 -141.612793
v 32.445099 -70.959702 -141.612793
v -25.084801 -63.534100 -190.175400
v -23.068100 -69.522797 -189.770706
v -22.054800 -62.477001 -187.581497
# 1228 vertices

vt 0.60020 -5.02020
vt 0.62690 -5.28560
vt 0.57340 -5.28560
vt 0.44890 -5.28560
vt 0.75140 -5.28560
vt -3.50220 2.23770
vt -4.21300 2.52810
vt -3.46800 2.52010
vt -4.21020 2.24270
vt -2.57130 2.51500
vt -3.50370 2.01840
vt -4.10440 2.01840
vt -2.15430 2.50680
vt -2.32160 2.13240
vt -2.70020 2.11580
vt -2.70100 2.01840
vt -1.76180 2.24680
vt -1.74970 2.39210
vt -2.32380 2.01840
vt -0.91860 2.63340
vt -0.92430 2.54650
vt -0.34300 2.60360
vt -0.34040 2.67420
vt 0.10340 2.71780
vt 0.38430 -8.68340
vt 0.19270 -8.39330
vt 0.38430 -8.32660
vt 0.19270 -8.55890
vt -1.80460 -6.57030
vt -1.68760 -6.80820
vt -1.71340 -6.59580
vt -1.80460 -6.79490
vt -1.80460 -6.44530
vt -1.71720 -6.47670
vt -1.86710 -6.57220
vt -1.85770 -6.78290
vt -1.72960 -6.33370
vt -1.80460 -6.32220
vt -1.86520 -6.44920
vt -1.80460 -6.20110
vt -1.72330 -6.23310
vt -1.86520 -6.32420
vt -1.88900 -6.70120
vt -1.90030 -6.58390
vt -1.86910 -6.20700
vt -1.74120 -6.99960
vt -1.88550 -6.93120
vt -1.89430 -6.99960
vt -1.77590 -6.93120
vt -1.73030 -6.11820
vt -1.80460 -6.08390
vt 0.19270 -8.68340
vt -1.80460 -6.91970
vt -1.68150 -6.93170
vt -1.90030 -6.44920
vt 0.18890 -8.32660
vt 0.18890 -8.68340
vt -1.85540 -6.04100
vt -1.61720 -6.93450
vt -1.89820 -6.91350
vt -1.89840 -6.32220
vt -1.85150 -6.00190
vt -1.80460 -6.00190
vt -1.90420 -6.21090
vt -1.99990 -6.96970
vt -1.76120 -6.00190
vt -1.61340 -6.09240
vt -1.61340 -6.71580
vt -1.61070 -6.85730
vt -1.99800 -6.58410
vt -1.99800 -6.69610
vt -1.61340 -6.41660
vt -1.99800 -6.45040
vt -1.99800 -6.32280
vt -1.61260 -6.96440
vt -1.99800 -6.03920
vt -1.99800 -6.12360
vt -1.61340 -6.19770
vt -1.99800 -6.18290
vt -1.99800 -6.00190
vt -1.99930 -6.97770
vt -1.61340 -6.00190
vt 0.54080 -6.46590
vt 0.67750 -6.81720
vt 0.67750 -6.46590
vt 0.54080 -6.81720
vt 4.34370 -3.69650
vt 4.91400 -4.00900
vt 4.91400 -3.69650
vt 4.34370 -4.00900
vt 3.98430 -3.30590
vt 3.98430 -3.69650
vt 4.34370 -3.30590
vt 0.54080 -6.23930
vt 0.67750 -6.23930
vt 7.45390 1.90730
vt 7.33300 1.89390
vt 7.52100 1.74620
vt 7.33300 2.01470
vt 3.98430 -4.00900
vt 7.20620 2.58600
vt 6.40540 2.87850
vt 6.32820 2.62930
vt 7.24480 2.73760
vt 7.52100 1.97440
vt 7.68220 1.82670
vt 0.67750 -6.99880
vt 0.54080 -6.99880
vt 4.91560 -4.36810
vt 4.23040 -4.37230
vt 6.53190 1.75040
vt 6.55480 1.99910
vt 5.54660 2.39100
vt 5.75890 2.72680
vt 7.48070 2.09530
vt 7.68220 2.05500
vt 7.33300 2.09530
vt 7.52180 2.26660
vt -2.80070 3.16400
vt -2.57810 3.57420
vt -2.79680 3.53900
vt -2.57810 3.32810
vt -3.58200 3.44140
vt -3.58980 2.99990
vt 1.29440 -6.39400
vt 1.26570 -6.59420
vt 1.14860 -6.46530
vt 7.37020 2.62930
vt 7.50530 2.88930
vt 4.91400 -3.30590
vt 7.22550 2.49930
vt 7.68860 2.77010
vt 1.50080 -6.36410
vt 7.45700 2.53180
vt -3.58590 3.65540
vt -2.79370 3.62530
vt 3.01560 -3.30590
vt 6.38610 2.28270
vt 7.68860 2.40180
vt 3.01560 -3.69650
vt 7.24480 2.40180
vt 7.39920 2.33690
vt 3.01560 -4.00900
vt 5.66240 2.22850
vt 6.15180 1.80870
vt 7.24150 2.40210
vt 6.38950 2.27430
vt 3.19590 -4.07340
vt 6.19210 1.52670
vt -3.58590 3.73900
vt -2.79370 3.75840
vt -2.01330 3.22280
vt -2.01330 3.70280
vt 7.43770 2.14190
vt 7.25440 2.30440
vt 3.77530 -4.32910
vt 3.30830 -4.96140
vt -4.32810 3.44920
vt -4.32700 3.57030
vt -4.99990 3.83590
vt -4.32700 3.67580
vt -4.99990 3.69140
vt -2.41790 3.60190
vt 5.90360 2.15270
vt -4.32810 2.99990
vt 6.17890 2.06240
vt 2.87540 -3.81470
vt 6.17820 2.05490
vt 3.51840 -4.47500
vt -4.51710 3.18600
vt -4.56080 3.43380
vt -4.32700 3.78910
vt -3.58590 3.83970
vt -2.79370 3.85400
vt -2.01330 3.79700
vt -2.09880 3.65770
vt -4.79290 3.39060
vt -4.66010 2.99990
vt -4.99990 2.99990
vt 6.11130 1.74920
vt 5.79490 1.48480
vt -2.01330 3.87910
vt 6.49990 3.35230
vt 5.49990 3.25170
vt 5.49990 3.31340
vt 6.49990 3.30850
vt 5.49990 2.99990
vt 5.49990 3.18040
vt 6.49990 3.12490
vt 7.50390 3.35350
vt 7.50390 3.20520
vt 5.49990 3.37370
vt 6.49990 3.40990
vt -2.79370 3.99990
vt -3.58590 3.99990
vt 7.50390 3.49990
vt 8.57030 3.27120
vt 8.57030 3.42580
vt -4.99990 3.99990
vt -2.01330 3.99990
vt -4.32700 3.99990
vt 5.49990 3.49990
vt 9.73820 3.49990
vt 6.49990 3.59270
vt 8.57030 3.59040
vt 8.57030 3.70210
vt 6.49990 3.64390
vt 7.50390 3.64030
vt 5.49990 3.63130
vt 6.49990 3.69380
vt 7.50390 3.79750
vt 5.49990 3.69150
vt 5.49990 3.83250
vt 6.49990 3.86710
vt 5.49990 3.74990
vt 5.49990 3.99990
vt 0.25280 -6.70050
vt -0.02660 -6.65340
vt 0.20280 -6.93810
vt 0.19530 -6.93420
vt -0.01050 -6.65110
vt -0.19360 -6.92790
vt -0.20020 -6.92500
vt -0.30490 -6.72560
vt -0.01820 -6.64240
vt -2.52580 -7.85780
vt -2.60740 -7.70540
vt -2.46410 -7.73020
vt -2.60740 -7.79230
vt -2.60740 -7.58780
vt -2.45640 -7.57610
vt -2.60740 -7.46810
vt -2.47940 -7.46220
vt -2.41290 -7.82960
vt -2.47800 -7.95040
vt -2.39630 -7.72850
vt -2.60740 -7.30830
vt -2.50490 -7.30630
vt -2.42490 -7.57220
vt -2.44010 -7.45830
vt -2.60740 -7.84170
vt -2.60740 -7.99800
vt -2.55850 -7.14370
vt -2.56210 -7.00270
vt -2.52050 -7.11370
vt -2.60740 -7.00270
vt -2.44280 -7.31410
vt -2.47980 -7.99800
vt -2.39800 -7.73080
vt -2.37460 -7.82990
vt -2.41330 -7.83270
vt -2.36130 -7.74060
vt -2.45610 -7.23870
vt -2.36250 -7.99800
vt -2.36560 -7.95620
vt -2.60740 -7.16350
vt -2.25190 -7.92610
vt -2.25190 -7.99800
vt -2.51680 -7.00270
vt -2.33320 -7.78320
vt -2.25190 -7.57610
vt -2.25190 -7.47590
vt -2.45060 -7.00270
vt -2.25190 -7.33760
vt -2.29090 -7.65000
vt -2.47410 -7.13360
vt -2.39870 -7.09560
vt -2.25190 -7.20680
vt -2.43370 -7.15240
vt -2.25190 -7.65660
vt -2.25190 -7.79530
vt -2.38440 -7.00270
vt -2.36000 -7.18730
vt -2.25190 -7.15040
vt -2.25190 -7.06230
vt -2.25190 -7.00270
vt -1.17570 -7.85350
vt -1.24770 -7.99790
vt -1.18550 -7.99790
vt -1.24770 -7.84760
vt -1.24770 -7.72260
vt -1.17960 -7.71870
vt -1.17770 -7.56830
vt -1.24770 -7.57420
vt -1.18940 -7.46280
vt -1.24770 -7.47850
vt -1.19530 -7.26360
vt -1.24770 -7.27530
vt -1.24770 -7.15230
vt -1.17770 -7.08390
vt -1.00200 -7.70470
vt -1.00200 -7.85200
vt -1.00200 -7.56080
vt -1.00200 -7.46070
vt -1.24770 -7.08780
vt -1.24770 -7.04480
vt -1.24770 -7.00180
vt -1.00200 -7.25820
vt -1.18630 -7.00180
vt -1.00200 -7.06840
vt -1.12480 -7.00180
vt -1.00200 -7.90810
vt -1.00200 -7.00180
vt -0.08440 -3.99860
vt -0.08730 -3.95520
vt -0.00200 -3.91170
vt -0.00200 -3.99850
vt -0.17100 -3.99870
# 308 texture vertices

g Object_1
usemtl mat1
f 1/3 2/2 6/1
f 6/1 5/4 1/3
f 7/5 6/1 2/2
f 3/3 4/2 9/1
f 9/1 8/4 3/3
f 16/5 9/1 4/2
f 21/1 13/4 11/3
f 11/3 14/2 21/1
f 10/3 15/2 26/1
f 26/1 18/4 10/3
f 12/3 17/2 28/1
f 28/1 19/4 12/3
f 23/5 21/1 14/2
f 34/5 26/1 15/2
f 32/1 24/4 20/3
f 20/3 25/2 32/1
f 37/5 28/1 17/2
f 22/3 27/2 39/1
f 39/1 31/4 22/3
f 36/1 30/4 29/3
f 29/3 33/2 36/1
f 40/5 32/1 25/2
f 43/5 39/1 27/2
f 42/5 36/1 33/2
f 35/3 38/2 44/1
f 44/1 41/4 35/3
f 46/5 44/1 38/2
f 50/1 47/4 45/3
f 45/3 48/2 50/1
f 57/5 50/1 48/2
f 62/1 53/4 52/3
f 64/1 55/4 51/3
f 63/1 56/4 54/3
f 51/3 58/2 64/1
f 59/1 49/4 65/3
f 52/3 61/2 62/1
f 54/3 60/2 63/1
f 70/5 63/1 60/2
f 74/5 62/1 61/2
f 65/3 71/2 59/1
f 77/5 64/1 58/2
f 67/5 59/1 71/2
f 81/1 69/4 66/3
f 66/3 73/2 81/1
f 85/1 72/4 68/3
f 68/3 80/2 85/1
f 87/1 78/4 75/3
f 88/5 81/1 73/2
f 75/3 83/2 87/1
f 89/1 82/4 79/3
f 79/3 84/2 89/1
f 86/1 76/4 90/3
f 91/5 85/1 80/2
f 93/5 87/1 83/2
f 95/5 89/1 84/2
f 90/3 94/2 86/1
f 92/5 86/1 94/2
f 117/1 97/4 96/3
f 114/1 98/4 102/3
f 96/3 106/2 117/1
f 112/1 99/4 105/3
f 119/1 100/4 103/3
f 116/1 101/4 104/3
f 105/3 111/2 112/1
f 102/3 118/2 114/1
f 104/3 113/2 116/1
f 103/3 115/2 119/1
f 128/1 108/4 107/3
f 121/1 109/4 120/3
f 123/5 112/1 111/2
f 126/5 116/1 113/2
f 133/5 117/1 106/2
f 107/3 122/2 128/1
f 130/5 114/1 118/2
f 129/5 119/1 115/2
f 125/1 110/4 124/3
f 120/3 127/2 121/1
f 131/5 121/1 127/2
f 124/3 132/2 125/1
f 135/5 128/1 122/2
f 134/5 125/1 132/2
f 143/1 137/4 136/3
f 136/3 140/2 143/1
f 144/1 138/4 147/3
f 145/1 139/4 149/3
f 151/5 143/1 140/2
f 146/1 141/4 150/3
f 148/1 142/4 153/3
f 147/3 156/2 144/1
f 149/3 159/2 145/1
f 152/5 144/1 156/2
f 150/3 162/2 146/1
f 158/5 145/1 159/2
f 155/5 146/1 162/2
f 153/3 165/2 148/1
f 161/5 148/1 165/2
f 168/1 160/4 157/3
f 157/3 166/2 168/1
f 167/1 154/4 171/3
f 170/1 163/4 173/3
f 169/1 164/4 172/3
f 178/5 168/1 166/2
f 171/3 181/2 167/1
f 172/3 177/2 169/1
f 173/3 180/2 170/1
f 175/5 167/1 181/2
f 176/5 169/1 177/2
f 179/5 170/1 180/2
f 182/1 174/4 183/3
f 183/3 186/2 182/1
f 185/5 182/1 186/2
f 187/1 184/4 192/3
f 190/5 187/1 194/2
f 192/3 194/2 187/1
f 196/1 189/4 197/3
f 193/1 188/4 203/3
f 200/1 191/4 205/3
f 197/3 202/2 196/1
f 201/5 196/1 202/2
f 199/5 193/1 209/2
f 203/3 209/2 193/1
f 205/3 210/2 200/1
f 204/1 195/4 214/3
f 207/5 200/1 210/2
f 206/1 198/4 216/3
f 211/1 208/4 217/3
f 212/5 204/1 219/2
f 214/3 219/2 204/1
f 213/5 206/1 220/2
f 216/3 220/2 206/1
f 217/3 221/2 211/1
f 218/5 211/1 221/2
f 222/1 215/4 226/3
f 223/5 222/1 228/2
f 226/3 228/2 222/1
f 225/1 224/4 229/3
f 227/5 225/1 230/2
f 229/3 230/2 225/1
g Object_2
f 231/8 232/7 235/6
f 235/6 232/7 234/9
f 233/10 231/8 235/6
f 235/6 234/9 242/11
f 242/11 234/9 243/12
f 237/14 236/13 233/10
f 233/10 235/6 238/15
f 233/10 238/15 237/14
f 235/6 242/11 238/15
f 238/15 242/11 249/16
f 239/18 237/14 247/17
f 237/14 246/19 247/17
f 237/14 238/15 246/19
f 239/18 247/17 240/20
f 247/17 248/21 240/20
f 248/21 245/22 240/20
f 240/20 245/22 241/23
f 246/19 238/15 249/16
f 241/23 245/22 244/24
f 244/24 245/22 250/23
f 246/19 249/16 253/15
f 248/21 251/20 245/22
f 250/23 245/22 251/20
f 248/21 247/17 251/20
f 251/20 247/17 252/18
f 246/19 253/15 254/14
f 252/18 247/17 254/14
f 247/17 246/19 254/14
f 256/6 253/15 242/11
f 249/16 242/11 253/15
f 254/14 253/15 258/10
f 253/15 256/6 258/10
f 256/6 242/11 257/9
f 257/9 242/11 243/12
f 254/14 258/10 255/13
f 258/10 256/6 260/8
f 260/8 256/6 259/7
f 256/6 257/9 259/7
usemtl Material_1
f 262/27 261/26 274/25
f 274/25 261/26 263/28
f 272/31 268/30 269/29
f 269/29 268/30 265/32
f 275/34 272/31 270/33
f 270/33 272/31 269/29
f 277/36 282/35 265/32
f 265/32 282/35 269/29
f 275/34 270/33 281/37
f 276/38 281/37 270/33
f 270/33 269/29 286/39
f 269/29 282/35 286/39
f 284/41 281/37 279/40
f 279/40 281/37 276/38
f 270/33 286/39 276/38
f 286/39 290/42 276/38
f 277/36 285/43 282/35
f 285/43 289/44 282/35
f 279/40 276/38 295/45
f 276/38 290/42 295/45
f 278/48 283/47 288/46
f 283/47 293/49 288/46
f 284/41 279/40 294/50
f 287/51 294/50 279/40
f 263/28 267/52 274/25
f 268/30 264/53 265/32
f 268/30 266/54 264/53
f 292/55 286/39 289/44
f 282/35 289/44 286/39
f 262/27 274/25 302/56
f 274/25 305/57 302/56
f 264/53 277/36 265/32
f 279/40 295/45 287/51
f 295/45 297/58 287/51
f 273/59 266/54 268/30
f 264/53 271/60 277/36
f 296/61 290/42 292/55
f 286/39 292/55 290/42
f 297/58 299/62 287/51
f 287/51 299/62 291/63
f 298/64 295/45 296/61
f 290/42 296/61 295/45
f 271/60 285/43 277/36
f 278/48 280/65 283/47
f 291/63 300/66 294/50
f 294/50 300/66 313/67
f 272/31 306/68 268/30
f 268/30 304/69 273/59
f 275/34 306/68 272/31
f 291/63 294/50 287/51
f 308/71 309/70 285/43
f 285/43 309/70 289/44
f 271/60 308/71 285/43
f 281/37 307/72 275/34
f 289/44 309/70 292/55
f 309/70 310/73 292/55
f 284/41 307/72 281/37
f 292/55 310/73 296/61
f 310/73 312/74 296/61
f 301/75 288/46 293/49
f 297/58 295/45 316/76
f 295/45 315/77 316/76
f 294/50 311/78 284/41
f 296/61 312/74 298/64
f 312/74 314/79 298/64
f 316/76 317/80 297/58
f 297/58 317/80 299/62
f 304/69 268/30 306/68
f 271/60 303/81 308/71
f 298/64 315/77 295/45
f 275/34 307/72 306/68
f 284/41 311/78 307/72
f 294/50 313/67 311/78
f 298/64 314/79 315/77
f 313/67 300/66 318/82
f 318/82 321/66 313/67
f 314/79 322/64 315/77
f 313/67 326/50 311/78
f 307/72 311/78 336/41
f 306/68 307/72 345/34
f 322/64 325/45 315/77
f 303/81 349/60 308/71
f 352/30 304/69 306/68
f 316/76 323/58 317/80
f 323/58 320/62 317/80
f 324/61 322/64 312/74
f 312/74 322/64 314/79
f 311/78 326/50 336/41
f 323/58 316/76 325/45
f 315/77 325/45 316/76
f 332/46 319/75 327/49
f 328/55 324/61 310/73
f 310/73 324/61 312/74
f 307/72 336/41 339/37
f 331/44 328/55 309/70
f 309/70 328/55 310/73
f 307/72 339/37 345/34
f 308/71 349/60 335/43
f 308/71 335/43 309/70
f 335/43 331/44 309/70
f 333/51 326/50 329/63
f 306/68 345/34 348/31
f 304/69 352/30 346/59
f 306/68 348/31 352/30
f 329/63 326/50 321/66
f 326/50 313/67 321/66
f 340/65 342/48 337/47
f 335/43 349/60 343/36
f 322/64 324/61 325/45
f 324/61 330/42 325/45
f 323/58 333/51 320/62
f 333/51 329/63 320/62
f 324/61 328/55 330/42
f 328/55 334/39 330/42
f 349/60 356/53 343/36
f 346/59 352/30 353/54
f 341/40 333/51 325/45
f 325/45 333/51 323/58
f 343/36 356/53 355/32
f 358/27 302/56 347/25
f 305/57 347/25 302/56
f 328/55 331/44 334/39
f 331/44 338/35 334/39
f 353/54 352/30 356/53
f 356/53 352/30 355/32
f 357/28 347/25 354/52
f 336/41 326/50 341/40
f 341/40 326/50 333/51
f 342/48 332/46 337/47
f 332/46 327/49 337/47
f 341/40 325/45 344/38
f 330/42 344/38 325/45
f 343/36 338/35 335/43
f 335/43 338/35 331/44
f 350/33 344/38 334/39
f 334/39 344/38 330/42
f 336/41 341/40 339/37
f 344/38 339/37 341/40
f 350/33 334/39 351/29
f 338/35 351/29 334/39
f 345/34 339/37 350/33
f 350/33 339/37 344/38
f 343/36 355/32 338/35
f 355/32 351/29 338/35
f 345/34 350/33 348/31
f 351/29 348/31 350/33
f 355/32 352/30 351/29
f 352/30 348/31 351/29
f 358/27 347/25 359/26
f 347/25 357/28 359/26
usemtl mat2
f 373/85 370/84 369/83
f 369/83 370/84 366/86
f 368/89 367/88 365/87
f 387/90 365/87 367/88
f 378/92 377/91 365/87
f 377/91 372/93 365/87
f 390/95 373/85 381/94
f 373/85 369/83 381/94
f 361/98 386/97 379/96
f 404/99 379/96 386/97
f 399/100 378/92 387/90
f 378/92 365/87 387/90
f 375/103 383/102 388/101
f 383/102 385/104 388/101
f 363/106 379/96 394/105
f 404/99 394/105 379/96
f 370/84 414/107 366/86
f 401/108 366/86 414/107
f 367/88 403/109 387/90
f 411/110 387/90 403/109
f 396/83 417/85 381/94
f 390/95 381/94 417/85
f 386/97 384/111 404/99
f 384/111 416/112 404/99
f 395/92 412/100 397/89
f 412/100 402/88 397/89
f 375/103 427/113 383/102
f 427/113 429/114 383/102
f 408/116 394/105 422/115
f 422/115 394/105 404/99
f 396/83 400/86 417/85
f 417/85 400/86 413/84
f 454/118 422/115 420/117
f 422/115 404/99 420/117
f 446/121 428/120 444/119
f 444/119 428/120 426/122
f 446/121 444/119 431/123
f 431/123 444/119 432/124
usemtl mat1
f 362/127 371/126 374/125
f 376/126 362/127 374/125
usemtl mat2
f 365/87 372/93 368/89
f 388/101 360/129 380/128
f 385/104 360/129 388/101
f 368/89 372/93 382/130
f 380/128 364/132 398/131
usemtl mat1
f 374/125 391/133 376/126
usemtl mat2
f 372/93 377/91 395/92
f 382/130 372/93 395/92
f 393/134 398/131 364/132
usemtl mat1
f 376/126 391/133 389/125
f 376/126 389/125 392/127
usemtl mat2
f 463/136 449/135 444/119
f 432/124 444/119 449/135
f 398/131 375/103 388/101
f 388/101 380/128 398/131
f 382/130 395/92 397/89
usemtl mat1
f 389/125 391/133 405/126
f 392/127 389/125 405/126
usemtl mat2
f 411/110 399/100 387/90
f 378/92 434/137 377/91
f 398/131 424/138 375/103
f 393/134 409/139 398/131
usemtl mat1
f 405/126 391/133 410/125
usemtl mat2
f 399/100 437/140 378/92
usemtl mat1
f 410/125 391/133 423/126
usemtl mat2
f 421/142 407/141 398/131
f 421/142 398/131 409/139
usemtl mat1
f 423/126 391/133 418/125
usemtl mat2
f 395/92 377/91 457/143
f 424/138 398/131 407/141
f 404/99 416/112 420/117
f 424/138 439/144 375/103
f 416/112 384/111 447/145
f 375/103 439/144 427/113
f 420/117 425/147 406/146
f 411/110 441/148 399/100
f 437/140 434/137 378/92
f 420/117 416/112 425/147
f 447/145 384/111 430/149
usemtl mat1
f 405/126 410/125 445/127
usemtl mat2
f 395/92 457/143 412/100
f 449/135 463/136 464/150
f 463/136 473/151 464/150
f 377/91 434/137 456/140
f 444/119 465/152 463/136
f 465/152 475/153 463/136
usemtl mat1
f 445/127 410/125 423/126
f 448/127 418/125 415/126
usemtl mat2
f 441/148 437/140 399/100
f 419/155 407/141 453/154
f 421/142 453/154 407/141
f 425/147 416/112 447/145
usemtl mat1
f 418/125 448/127 423/126
usemtl mat2
f 457/143 377/91 456/140
f 435/156 441/148 411/110
f 435/156 411/110 459/157
f 443/158 431/123 432/124
f 470/161 477/160 462/159
f 462/159 477/160 469/162
f 438/163 444/119 426/122
f 451/164 439/144 424/138
f 443/158 432/124 440/165
f 447/145 461/166 425/147
f 442/167 437/140 441/148
f 460/168 451/164 424/138
f 452/169 441/148 435/156
f 462/159 433/171 436/170
f 474/173 478/172 464/150
f 464/150 478/172 470/161
f 440/165 432/124 462/159
f 462/159 436/170 440/165
f 462/159 432/124 449/135
f 479/174 474/173 473/151
f 473/151 474/173 464/150
f 463/136 475/153 473/151
f 475/153 481/175 473/151
f 465/152 444/119 438/163
f 465/152 438/163 450/176
f 469/162 455/177 433/171
f 469/162 433/171 462/159
f 449/135 464/150 462/159
f 468/179 458/178 455/177
f 472/180 451/164 460/168
f 468/179 455/177 469/162
f 451/164 472/180 467/181
f 462/159 464/150 470/161
f 473/151 481/175 479/174
f 481/175 485/182 479/174
f 482/185 476/184 488/183
f 483/186 488/183 476/184
f 480/189 466/188 471/187
f 483/186 480/189 487/190
f 484/191 487/190 480/189
f 470/161 478/172 477/160
f 466/188 483/186 476/184
f 482/185 488/183 486/192
f 488/183 489/193 486/192
f 483/186 466/188 480/189
f 497/195 474/173 493/194
f 479/174 493/194 474/173
f 487/190 492/196 483/186
f 492/196 488/183 483/186
f 484/191 490/197 487/190
f 490/197 491/198 487/190
f 474/173 497/195 478/172
f 478/172 498/199 477/160
f 479/174 485/182 493/194
f 485/182 494/200 493/194
f 478/172 497/195 496/201
f 478/172 496/201 498/199
f 489/193 495/202 486/192
f 488/183 492/196 489/193
f 491/198 492/196 487/190
f 499/203 491/198 490/197
f 489/193 492/196 502/204
f 495/202 489/193 502/204
f 492/196 491/198 500/205
f 491/198 499/203 500/205
f 500/205 499/203 501/206
f 492/196 503/207 502/204
f 500/205 504/208 492/196
f 495/202 502/204 506/209
f 497/195 513/172 496/201
f 513/172 498/199 496/201
f 512/174 493/194 505/182
f 494/200 505/182 493/194
f 513/172 514/160 498/199
f 504/208 508/210 492/196
f 508/210 503/207 492/196
f 497/195 517/173 513/172
f 507/211 504/208 501/206
f 504/208 500/205 501/206
f 497/195 493/194 517/173
f 493/194 512/174 517/173
f 510/212 506/209 503/207
f 502/204 503/207 506/209
f 508/210 511/214 524/213
f 508/210 524/213 516/215
f 513/172 521/161 514/160
f 508/210 504/208 511/214
f 504/208 507/211 511/214
f 511/214 519/216 524/213
f 510/212 503/207 516/215
f 503/207 508/210 516/215
f 518/151 512/174 509/175
f 505/182 509/175 512/174
f 528/150 529/159 521/161
f 520/180 539/164 525/181
f 522/162 535/177 526/179
f 520/180 530/168 539/164
f 532/178 526/179 535/177
f 528/150 540/135 529/159
f 529/159 559/171 522/162
f 550/163 523/152 538/176
f 522/162 559/171 535/177
f 543/119 523/152 550/163
f 527/136 518/151 515/153
f 509/175 515/153 518/151
f 512/174 518/151 517/173
f 518/151 528/150 517/173
f 561/124 529/159 540/135
f 549/165 557/170 529/159
f 561/124 549/165 529/159
f 517/173 528/150 513/172
f 528/150 521/161 513/172
f 529/159 557/170 559/171
f 547/148 537/169 556/156
f 539/164 530/168 568/138
f 547/148 558/140 548/167
f 531/166 545/145 569/147
f 561/124 546/158 549/165
f 568/138 551/144 539/164
f 543/119 550/163 563/122
f 521/161 529/159 514/160
f 529/159 522/162 514/160
f 562/123 546/158 561/124
f 583/110 556/156 533/157
f 547/148 556/156 583/110
f 620/91 534/143 536/140
f 545/145 574/112 569/147
f 597/100 558/140 547/148
usemtl mat1
f 571/126 542/127 578/125
usemtl mat2
f 543/119 527/136 523/152
f 523/152 527/136 515/153
f 579/219 541/218 570/217
f 536/140 560/137 620/91
usemtl mat1
f 542/127 582/126 578/125
usemtl mat2
f 573/142 588/141 552/154
f 588/141 575/155 552/154
usemtl mat1
f 555/127 571/126 589/125
usemtl mat2
f 540/135 528/150 527/136
f 518/151 527/136 528/150
f 534/143 599/92 584/100
f 591/221 570/217 554/220
f 567/149 609/111 545/145
f 569/147 574/112 576/117
f 547/148 583/110 597/100
f 569/147 576/117 587/146
f 564/113 551/144 619/103
f 545/145 609/111 574/112
usemtl mat1
f 555/127 589/125 592/126
usemtl mat2
f 624/92 560/137 558/140
f 619/103 551/144 568/138
f 576/117 574/112 590/99
f 598/131 568/138 588/141
f 599/92 534/143 620/91
f 591/221 579/219 570/217
f 573/142 586/139 598/131
f 573/142 598/131 588/141
usemtl mat1
f 608/133 571/126 578/125
f 589/125 571/126 608/133
usemtl mat2
f 558/140 597/100 624/92
f 598/131 619/103 568/138
f 602/134 598/131 586/139
f 597/100 583/110 611/90
usemtl mat1
f 592/126 589/125 608/133
usemtl mat2
f 624/92 620/91 560/137
f 632/222 579/219 591/221
usemtl mat1
f 606/127 592/126 614/125
f 614/125 592/126 608/133
usemtl mat2
f 599/92 618/130 601/89
f 527/136 543/119 540/135
f 543/119 561/124 540/135
f 615/128 604/101 598/131
f 619/103 598/131 604/101
f 622/224 591/221 605/223
f 602/134 636/132 598/131
f 599/92 623/93 618/130
f 599/92 620/91 623/93
usemtl mat1
f 606/127 614/125 621/126
f 608/133 621/126 614/125
usemtl mat2
f 632/222 591/221 622/224
f 636/132 615/128 598/131
usemtl mat1
f 627/125 621/126 608/133
usemtl mat2
f 618/130 623/93 629/89
f 604/101 639/129 612/104
f 615/128 639/129 604/101
f 629/89 623/93 625/87
f 544/121 562/123 543/119
f 543/119 562/123 561/124
usemtl mat1
f 638/127 621/126 627/125
usemtl mat2
f 637/225 632/222 622/224
f 544/121 543/119 565/120
f 543/119 563/122 565/120
usemtl mat1
f 638/127 627/125 634/126
usemtl mat2
f 553/118 576/117 572/115
f 590/99 572/115 576/117
f 585/116 572/115 603/105
f 572/115 590/99 603/105
f 619/103 610/102 564/113
f 566/114 564/113 610/102
f 600/83 577/85 593/86
f 580/84 593/86 577/85
f 599/92 601/89 584/100
f 584/100 601/89 595/88
f 574/112 609/111 590/99
f 590/99 609/111 613/97
f 600/83 617/94 577/85
f 577/85 617/94 607/95
f 631/88 611/90 596/109
f 611/90 583/110 596/109
f 633/84 630/86 581/107
f 630/86 594/108 581/107
f 619/103 604/101 610/102
f 610/102 604/101 612/104
f 635/106 603/105 616/96
f 603/105 590/99 616/96
f 597/100 611/90 624/92
f 624/92 611/90 625/87
f 640/98 616/96 613/97
f 616/96 590/99 613/97
f 607/95 617/94 626/85
f 617/94 628/83 626/85
f 624/92 625/87 620/91
f 623/93 620/91 625/87
f 629/89 625/87 631/88
f 625/87 611/90 631/88
f 626/85 628/83 633/84
f 628/83 630/86 633/84
usemtl Material_1
f 649/228 645/227 643/226
f 642/229 643/226 645/227
f 654/231 647/230 649/228
f 645/227 649/228 647/230
f 647/230 654/231 650/232
f 654/231 656/233 650/232
f 648/235 652/234 649/228
f 652/234 665/236 649/228
f 650/232 656/233 651/237
f 656/233 658/238 651/237
f 662/239 654/231 665/236
f 649/228 665/236 654/231
f 654/231 662/239 656/233
f 662/239 667/240 656/233
f 641/241 643/226 642/229
f 644/242 643/226 641/241
f 670/245 660/244 661/243
f 661/243 660/244 663/246
f 656/233 667/240 658/238
f 667/240 668/247 658/238
f 644/242 648/235 643/226
f 648/235 644/242 646/248
f 649/228 643/226 648/235
f 657/251 664/250 669/249
f 664/250 672/252 669/249
f 661/243 658/238 674/253
f 658/238 668/247 674/253
f 646/248 655/254 648/235
f 648/235 653/255 652/234
f 648/235 655/254 653/255
f 651/237 658/238 661/243
f 651/237 661/243 659/256
f 657/251 653/255 664/250
f 681/258 691/257 655/254
f 653/255 655/254 691/257
f 659/256 661/243 663/246
f 660/244 670/245 666/259
f 653/255 676/260 664/250
f 662/239 687/261 667/240
f 687/261 684/262 667/240
f 661/243 674/253 670/245
f 666/259 670/245 671/263
f 685/264 668/247 684/262
f 667/240 684/262 668/247
f 662/239 665/236 680/265
f 664/250 676/260 672/252
f 674/253 673/266 670/245
f 671/263 670/245 678/267
f 668/247 685/264 674/253
f 685/264 688/268 674/253
f 670/245 673/266 678/267
f 674/253 675/269 673/266
f 680/265 669/249 672/252
f 662/239 680/265 687/261
f 680/265 689/270 687/261
f 653/255 690/271 676/260
f 678/267 673/266 675/269
f 671/263 678/267 677/272
f 672/252 676/260 680/265
f 674/253 679/273 675/269
f 675/269 679/273 678/267
f 653/255 691/257 690/271
f 688/268 686/274 679/273
f 679/273 686/274 678/267
f 674/253 688/268 679/273
f 677/272 678/267 683/275
f 676/260 690/271 680/265
f 677/272 683/275 682/276
f 683/275 678/267 686/274
f 680/265 690/271 689/270
f 690/271 692/265 689/270
f 686/274 694/267 683/275
f 683/275 695/272 682/276
f 690/271 696/260 692/265
f 683/275 694/267 695/272
f 688/268 698/253 693/273
f 688/268 693/273 686/274
f 686/274 693/273 694/267
f 691/257 719/255 690/271
f 694/267 693/273 697/269
f 693/273 698/253 697/269
f 696/260 700/252 692/265
f 701/263 695/272 694/267
f 694/267 697/269 699/266
f 690/271 719/255 696/260
f 710/239 687/261 692/265
f 689/270 692/265 687/261
f 703/249 692/265 700/252
f 697/269 698/253 699/266
f 694/267 699/266 702/245
f 704/247 698/253 685/264
f 685/264 698/253 688/268
f 701/263 694/267 702/245
f 699/266 698/253 702/245
f 696/260 708/250 700/252
f 692/265 707/236 710/239
f 685/264 684/262 704/247
f 684/262 705/240 704/247
f 706/259 701/263 702/245
f 698/253 711/243 702/245
f 710/239 705/240 687/261
f 687/261 705/240 684/262
f 696/260 719/255 708/250
f 702/245 712/244 706/259
f 711/243 713/256 709/246
f 681/258 717/254 691/257
f 719/255 691/257 717/254
f 719/255 715/251 708/250
f 711/243 721/237 713/256
f 714/238 721/237 711/243
f 717/254 724/235 719/255
f 719/255 724/235 720/234
f 717/254 726/248 724/235
f 711/243 698/253 714/238
f 704/247 714/238 698/253
f 715/251 703/249 708/250
f 703/249 700/252 708/250
f 724/235 729/226 723/228
f 728/242 724/235 726/248
f 728/242 729/226 724/235
f 716/233 714/238 705/240
f 705/240 714/238 704/247
f 702/245 711/243 712/244
f 711/243 709/246 712/244
f 728/242 731/241 729/226
f 729/226 731/241 730/229
f 718/231 716/233 710/239
f 710/239 716/233 705/240
f 710/239 707/236 718/231
f 707/236 723/228 718/231
f 722/232 721/237 716/233
f 716/233 721/237 714/238
f 724/235 723/228 720/234
f 720/234 723/228 707/236
f 725/230 722/232 718/231
f 718/231 722/232 716/233
f 718/231 723/228 725/230
f 723/228 727/227 725/230
f 723/228 729/226 727/227
f 729/226 730/229 727/227
f 736/279 732/278 739/277
f 733/280 739/277 732/278
f 733/280 734/281 739/277
f 734/281 738/282 739/277
f 735/284 741/283 734/281
f 741/283 738/282 734/281
f 741/283 735/284 742/285
f 737/286 742/285 735/284
f 742/285 737/286 746/287
f 740/288 746/287 737/286
f 748/290 746/287 743/289
f 743/289 746/287 740/288
f 758/292 739/277 756/291
f 738/282 756/291 739/277
f 738/282 741/283 756/291
f 741/283 755/293 756/291
f 741/283 742/285 755/293
f 742/285 753/294 755/293
f 739/277 758/292 736/279
f 745/295 748/290 743/289
f 745/295 744/296 748/290
f 748/290 744/296 747/297
f 742/285 746/287 753/294
f 746/287 757/298 753/294
f 747/297 749/299 748/290
f 754/300 757/298 748/290
f 748/290 757/298 746/287
f 748/290 749/299 750/301
f 736/279 758/292 751/302
f 748/290 750/301 754/300
f 754/300 750/301 752/303
f 752/303 759/301 754/300
f 754/300 759/301 761/290
f 758/292 773/279 751/302
f 761/290 759/301 760/299
f 754/300 761/290 757/298
f 761/290 763/287 757/298
f 761/290 760/299 762/297
f 767/285 753/294 763/287
f 757/298 763/287 753/294
f 762/297 765/296 761/290
f 761/290 765/296 764/295
f 761/290 764/295 766/289
f 758/292 770/277 773/279
f 768/283 755/293 767/285
f 753/294 767/285 755/293
f 771/282 756/291 768/283
f 755/293 768/283 756/291
f 758/292 756/291 770/277
f 756/291 771/282 770/277
f 761/290 766/289 763/287
f 766/289 769/288 763/287
f 767/285 763/287 772/286
f 763/287 769/288 772/286
f 768/283 767/285 774/284
f 767/285 772/286 774/284
f 774/284 775/281 768/283
f 768/283 775/281 771/282
f 776/280 770/277 775/281
f 771/282 775/281 770/277
f 773/279 770/277 777/278
f 770/277 776/280 777/278
usemtl mat2
f 779/222 778/225 780/224
f 782/221 779/222 780/224
f 782/221 780/224 781/223
f 783/219 779/222 782/221
f 783/219 782/221 784/217
f 784/217 782/221 785/220
f 784/217 786/218 783/219
g Object_3
usemtl Material_1
f 819/306 823/305 844/304
f 820/307 864/306 824/304
f 864/306 845/305 824/304
f 855/304 882/307 826/305
f 882/307 828/306 826/305
f 852/305 827/304 879/306
f 829/307 879/306 827/304
f 913/307 863/306 884/304
f 863/306 843/305 884/304
f 883/305 846/304 912/306
f 865/307 912/306 846/304
f 853/304 880/307 885/305
f 880/307 922/306 885/305
f 881/306 854/305 923/307
f 923/307 854/305 886/304
f 937/305 905/304 950/306
f 916/307 950/306 905/304
f 940/304 953/307 904/305
f 953/307 915/306 904/305
f 789/306 793/308 788/307
f 787/306 793/308 792/307
f 796/306 793/308 790/307
f 791/306 793/308 797/307
f 942/307 965/306 926/304
f 965/306 944/305 926/304
f 941/306 925/305 968/307
f 968/307 925/305 947/304
f 970/306 954/305 951/307
f 951/307 954/305 938/304
f 952/306 939/305 971/307
f 971/307 939/305 955/304
f 794/306 808/308 805/307
f 806/306 808/308 795/307
f 801/306 798/308 816/307
f 817/306 798/308 802/307
f 811/306 803/308 800/307
f 799/306 803/308 814/307
f 804/306 808/308 831/307
f 830/306 808/308 807/307
f 815/306 798/308 851/307
f 850/306 798/308 818/307
f 966/307 976/306 945/304
f 976/306 963/305 945/304
f 967/306 946/305 977/307
f 977/307 946/305 964/304
f 809/306 825/308 833/307
f 834/306 825/308 810/307
f 848/306 803/308 812/307
f 813/306 803/308 849/307
f 859/306 838/308 822/307
f 821/306 838/308 862/307
f 832/306 825/308 868/307
f 867/306 825/308 835/307
f 827/304 852/305 847/308
f 855/304 826/305 847/308
f 844/304 823/305 866/308
f 824/304 845/305 866/308
f 873/306 856/308 840/307
f 853/304 885/305 847/308
f 886/304 854/305 847/308
f 893/306 838/308 860/307
f 839/306 856/308 896/307
f 884/304 843/305 866/308
f 846/304 883/305 866/308
f 861/306 838/308 894/307
f 869/306 914/308 837/307
f 836/306 914/308 872/307
f 841/306 924/308 878/307
f 875/306 924/308 842/307
f 908/306 856/308 874/307
f 857/306 901/308 890/307
f 891/306 901/308 858/307
f 895/306 856/308 909/307
f 906/306 914/308 870/307
f 871/306 914/308 907/307
f 910/306 924/308 876/307
f 877/306 924/308 911/307
f 917/306 902/308 888/307
f 887/306 902/308 920/307
f 927/306 901/308 892/307
f 889/306 901/308 928/307
f 899/306 903/308 936/307
f 933/306 903/308 900/307
f 929/306 921/308 898/307
f 897/306 921/308 932/307
f 948/306 902/308 918/307
f 919/306 902/308 949/307
f 905/304 937/305 943/308
f 940/304 904/305 943/308
f 958/306 903/308 934/307
f 935/306 903/308 959/307
f 956/306 921/308 930/307
f 931/306 921/308 957/307
f 938/304 954/305 943/308
f 955/304 939/305 943/308
f 926/304 944/305 960/308
f 947/304 925/305 960/308
f 945/304 963/305 960/308
f 964/304 946/305 960/308
f 997/307 986/306 989/304
f 986/306 984/305 989/304
f 990/305 985/304 998/306
f 987/307 998/306 985/304
f 972/306 969/308 962/307
f 961/306 969/308 975/307
f 979/306 969/308 973/307
f 974/306 969/308 980/307
f 996/306 988/305 1005/307
f 1005/307 988/305 1001/304
f 991/304 999/307 1000/305
f 999/307 1004/306 1000/305
f 992/306 978/308 983/307
f 982/306 978/308 995/307
f 989/304 984/305 981/308
f 985/304 990/305 981/308
f 1001/304 988/305 981/308
f 991/304 1000/305 981/308
f 1002/306 978/308 993/307
f 994/306 978/308 1003/307
f 1017/304 1012/305 1020/308
f 1013/304 1018/305 1020/308
f 1009/307 1006/306 1017/304
f 1006/306 1012/305 1017/304
f 1018/305 1013/304 1010/306
f 1007/307 1010/306 1013/304
f 1024/304 1016/305 1020/308
f 1019/304 1023/305 1020/308
f 1025/306 1031/308 1015/307
f 1014/306 1031/308 1028/307
f 1029/306 1031/308 1026/307
f 1027/306 1031/308 1030/307
f 1022/307 1008/306 1024/304
f 1008/306 1016/305 1024/304
f 1019/304 1011/307 1023/305
f 1011/307 1021/306 1023/305
f 1039/306 1036/308 1035/307
f 1034/306 1036/308 1042/307
f 1060/306 1036/308 1040/307
f 1041/306 1036/308 1061/307
f 1048/304 1063/305 1059/308
f 1066/304 1047/305 1059/308
f 1077/306 1083/308 1050/307
f 1049/306 1083/308 1080/307
f 1052/304 1071/305 1084/308
f 1074/304 1051/305 1084/308
f 1064/304 1094/305 1059/308
f 1095/304 1065/305 1059/308
f 1090/306 1062/308 1070/307
f 1069/306 1062/308 1093/307
f 1053/306 1114/308 1086/307
f 1087/306 1114/308 1054/307
f 1072/304 1102/305 1084/308
f 1103/304 1073/305 1084/308
f 1110/306 1083/308 1078/307
f 1079/306 1083/308 1111/307
f 1118/306 1062/308 1091/307
f 1092/306 1062/308 1119/307
f 1081/306 1089/308 1113/307
f 1122/306 1089/308 1082/307
f 1104/306 1130/308 1068/307
f 1067/306 1130/308 1107/307
f 1085/306 1114/308 1116/307
f 1115/306 1114/308 1088/307
f 1112/306 1089/308 1138/307
f 1137/306 1089/308 1123/307
f 1128/306 1130/308 1105/307
f 1106/306 1130/308 1129/307
f 1124/306 1167/308 1101/307
f 1100/306 1167/308 1127/307
f 1151/306 1117/308 1121/307
f 1120/306 1117/308 1154/307
f 1158/306 1167/308 1125/307
f 1126/306 1167/308 1159/307
f 1185/306 1117/308 1152/307
f 1153/306 1117/308 1186/307
f 1169/304 1146/305 1145/308
f 1147/304 1170/305 1145/308
f 1136/304 1162/305 1166/308
f 1165/304 1135/305 1166/308
f 1139/306 1150/308 1173/307
f 1174/306 1150/308 1140/307
f 1179/306 1157/308 1149/307
f 1148/306 1157/308 1182/307
f 1198/304 1168/305 1145/308
f 1171/304 1197/305 1145/308
f 1163/304 1191/305 1166/308
f 1192/304 1164/305 1166/308
f 1193/306 1178/308 1161/307
f 1160/306 1178/308 1196/307
f 1172/306 1150/308 1202/307
f 1201/306 1150/308 1175/307
f 1043/306 1063/305 1033/307
f 1033/307 1063/305 1048/304
f 1032/306 1047/305 1046/307
f 1046/307 1047/305 1066/304
f 1205/306 1157/308 1180/307
f 1181/306 1157/308 1206/307
f 1155/306 1215/308 1190/307
f 1187/306 1215/308 1156/307
f 1213/306 1178/308 1194/307
f 1195/306 1178/308 1214/307
f 1038/307 1055/306 1052/304
f 1055/306 1071/305 1052/304
f 1058/307 1037/306 1074/304
f 1037/306 1051/305 1074/304
f 1209/306 1215/308 1188/307
f 1189/306 1215/308 1210/307
f 1199/306 1211/308 1204/307
f 1207/306 1211/308 1200/307
f 1203/306 1211/308 1217/307
f 1216/306 1211/308 1208/307
f 1075/306 1094/305 1044/307
f 1044/307 1094/305 1064/304
f 1076/307 1045/306 1095/304
f 1045/306 1065/305 1095/304
f 1220/306 1212/308 1219/307
f 1218/306 1212/308 1223/307
f 1224/306 1212/308 1221/307
f 1222/306 1212/308 1225/307
f 1072/304 1056/307 1102/305
f 1056/307 1096/306 1102/305
f 1057/306 1073/305 1097/307
f 1097/307 1073/305 1103/304
f 1162/305 1136/304 1131/306
f 1099/307 1131/306 1136/304
f 1134/307 1098/306 1165/304
f 1098/306 1135/305 1165/304
f 1108/306 1146/305 1142/307
f 1142/307 1146/305 1169/304
f 1147/304 1109/307 1170/305
f 1109/307 1143/306 1170/305
f 1163/304 1132/307 1191/305
f 1132/307 1176/306 1191/305
f 1164/305 1192/304 1133/306
f 1177/307 1133/306 1192/304
f 1141/306 1168/305 1184/307
f 1184/307 1168/305 1198/304
f 1171/304 1144/307 1197/305
f 1144/307 1183/306 1197/305
f 1228/307 1226/306 1227/304
# 1094 elements

