# Created by Metasequoia

mtllib 2P_Frog_forest8.mtl

v -2376.992188 1093.371826 -9313.705078
v -2128.048828 1093.371826 -9775.875000
v -2099.779297 638.357666 -9337.523438
v -1949.469238 638.357666 -9616.578125
v -2120.623047 1093.371826 -8901.775391
v -1944.984863 638.357666 -9088.802734
v -1911.824707 60.185551 -9353.671875
v -1828.388672 60.185551 -9508.572266
v -1825.899902 60.185551 -9215.609375
v -1668.243164 1093.371826 -8787.847656
v -1671.841309 638.357666 -9020.013672
v -1651.858887 1093.371826 -9959.791016
v -1661.948242 638.357666 -9727.625000
v -1794.322266 -824.858398 -9363.765625
v -1752.693848 -824.858398 -9441.050781
v -1751.452148 -824.858398 -9294.884766
v -1674.280273 60.185551 -9177.425781
v -1668.789063 60.185551 -9570.212891
v -1675.805664 -824.858398 -9275.833984
v -1673.065430 -824.858398 -9471.804688
v -1684.860840 -7462.687988 -9380.542969
v -1689.023438 -7462.687988 -9372.814453
v -1684.736328 -7462.687988 -9365.925781
v -1677.171875 -7462.687988 -9364.019531
v -1676.897949 -7462.687988 -9383.617188
v -1670.024414 -7462.687988 -9367.035156
v -1604.327148 -824.858398 -9305.968750
v -1669.095703 -7462.687988 -9381.873047
v -1595.045410 -824.858398 -9454.359375
v -1665.624023 -7462.687988 -9374.923828
v -1560.325684 -824.858398 -9384.859375
v -1531.015137 60.185551 -9237.828125
v -1512.412598 60.185551 -9535.248047
v -1413.747803 638.357666 -9128.828125
v -1380.234863 638.357666 -9664.634766
v -1442.822754 60.185551 -9395.947266
v -1240.791016 1093.371826 -8968.066406
v -1185.287109 1093.371826 -9855.464844
v -1254.867676 638.357666 -9413.683594
v -977.655029 1093.371826 -9439.841797
v -220.163086 1341.794678 -4426.988281
v -155.700684 1341.794678 -4582.614258
v -201.883057 1184.472534 -4426.988281
v -142.774902 1184.472534 -4569.688477
v -155.700684 1341.794678 -4271.362305
v -142.774902 1184.472534 -4284.288086
v -175.793213 1027.150513 -4426.988281
v -124.326660 1027.150513 -4551.240234
v -124.326660 1027.150513 -4302.736328
v -165.323486 869.828491 -4426.988281
v -116.923218 869.828491 -4543.836914
v -116.923218 869.828491 -4310.139648
v -110.460327 798.219177 -4537.374023
v -156.183594 798.219177 -4426.988281
v -110.460327 798.219177 -4316.602539
v -147.043701 678.219421 -4426.988281
v -103.997559 678.219421 -4530.911133
v -103.997559 678.219421 -4323.065430
v -133.860107 557.009583 -4426.988281
v -94.675293 557.009583 -4521.588867
v -94.675293 557.009583 -4332.387695
v -0.074830 1341.794678 -4647.076172
v -0.074830 1184.472534 -4628.796875
v -0.074830 1341.794678 -4206.900391
v -0.074830 1184.472534 -4225.179688
v -0.074830 1027.150513 -4602.707031
v -0.074830 1027.150513 -4251.269531
v -0.074830 869.828491 -4592.236328
v -0.074830 869.828491 -4261.740234
v -0.074830 798.219177 -4583.096680
v -0.074830 798.219177 -4270.879883
v -0.074830 678.219421 -4280.019531
v -0.074830 678.219421 -4573.957031
v -0.074830 557.009583 -4560.773438
v -0.074830 557.009583 -4293.203125
v 103.847778 678.219421 -4530.911133
v 94.525513 557.009583 -4521.588867
v 103.847778 678.219421 -4323.065430
v 94.525513 557.009583 -4332.387695
v 110.310547 798.219177 -4316.602539
v 116.773438 869.828491 -4543.836914
v 110.310547 798.219177 -4537.374023
v 116.773438 869.828491 -4310.139648
v 124.176880 1027.150513 -4551.240234
v 124.176880 1027.150513 -4302.736328
v 142.625000 1184.472534 -4569.688477
v 142.625000 1184.472534 -4284.288086
v 155.550903 1341.794678 -4582.614258
v 155.550903 1341.794678 -4271.362305
v 146.893799 678.219421 -4426.988281
v 133.710327 557.009583 -4426.988281
v 156.033691 798.219177 -4426.988281
v 165.173706 869.828491 -4426.988281
v 175.643677 1027.150513 -4426.988281
v 201.733398 1184.472534 -4426.988281
v 220.013306 1341.794678 -4426.988281
v -77.946411 -3301.780762 -4426.988281
v -55.138432 -3301.780762 -4482.051758
v -55.138432 -3301.780762 -4371.924805
v -0.074830 -3301.780762 -4504.860352
v -0.074830 -3301.780762 -4349.116211
v 54.988651 -3301.780762 -4482.051758
v 54.988651 -3301.780762 -4371.924805
v 77.796631 -3301.780762 -4426.988281
v -163.874756 1849.173096 -4494.835938
v -177.574951 1849.173096 -4426.988281
v -156.953613 1744.173096 -4491.969727
v -170.074951 1744.173096 -4426.988281
v -163.874756 1849.173096 -4359.140625
v -156.953613 1744.173096 -4362.006836
v -170.074951 1964.173096 -4426.988281
v -156.953613 1964.173096 -4491.969727
v -156.953613 1964.173096 -4362.006836
v -138.497192 2094.173096 -4484.324219
v -150.074951 2094.173096 -4426.988281
v -138.497192 2094.173096 -4369.652344
v -149.658203 1629.589844 -4426.988281
v -138.112793 1629.589844 -4484.165039
v -138.112793 1629.589844 -4369.811523
v -125.586304 1849.173096 -4552.500000
v -120.283081 1744.173096 -4547.196289
v -125.586304 1849.173096 -4301.476563
v -120.283081 1744.173096 -4306.780273
v -120.283081 1964.173096 -4547.196289
v -120.283081 1964.173096 -4306.780273
v -130.074829 2204.173096 -4426.988281
v -120.040894 2204.173096 -4476.679688
v -120.040894 2204.173096 -4377.296875
v -126.741577 1467.506470 -4426.988281
v -116.964973 1467.506470 -4475.405273
v -116.964973 1467.506470 -4378.571289
v -106.140991 2094.173096 -4533.054688
v -106.140991 2094.173096 -4320.921875
v -105.846191 1629.589844 -4532.759766
v -105.846191 1629.589844 -4321.216797
v -129.269165 2347.506592 -4480.501953
v -140.074829 2347.506592 -4426.988281
v -113.119873 2317.923096 -4473.813477
v -122.574829 2317.923096 -4426.988281
v -129.269165 2347.506592 -4373.474609
v -113.119873 2317.923096 -4380.163086
v -121.324829 2262.506592 -4426.988281
v -111.966309 2262.506592 -4473.334961
v -111.966309 2262.506592 -4380.641602
v -120.074829 2290.839844 -4426.988281
v -110.812866 2290.839844 -4472.857422
v -110.812866 2290.839844 -4381.119141
v -91.998779 2204.173096 -4518.912109
v -91.998779 2204.173096 -4335.064453
v -101.007813 1229.589844 -4468.795898
v -109.449829 1229.589844 -4426.988281
v -101.007813 1229.589844 -4385.180664
v -89.641724 1467.506470 -4516.554688
v -89.641724 1467.506470 -4337.421875
v -99.069817 2347.506592 -4525.983398
v -86.695557 2317.923096 -4513.608398
v -99.069817 2347.506592 -4327.993164
v -86.695557 2317.923096 -4340.368164
v -85.811523 2262.506592 -4512.724609
v -85.811523 2262.506592 -4341.251953
v -84.927612 2290.839844 -4511.840820
v -84.927612 2290.839844 -4342.135742
v -77.414787 1229.589844 -4504.328125
v -77.414787 1229.589844 -4349.648438
v -88.408203 944.173218 -4426.988281
v -81.590210 944.173218 -4460.752930
v -81.590210 944.173218 -4393.223633
v -67.922974 1849.173096 -4590.788086
v -65.056152 1744.173096 -4583.867188
v -67.922974 1849.173096 -4263.188477
v -65.056152 1744.173096 -4270.109375
v -65.056152 1964.173096 -4583.867188
v -65.056152 1964.173096 -4270.109375
v -57.411381 2094.173096 -4565.410156
v -57.411381 2094.173096 -4288.566406
v -57.252079 1629.589844 -4565.026367
v -57.252079 1629.589844 -4288.950195
v -62.536011 944.173218 -4489.449219
v -62.536011 944.173218 -4364.527344
v -49.766479 2204.173096 -4546.954102
v -49.766479 2204.173096 -4307.022461
v -48.492310 1467.506470 -4543.877930
v -48.492310 1467.506470 -4310.098633
v -53.588989 2347.506592 -4556.182617
v -46.899658 2317.923096 -4540.033203
v -53.588989 2347.506592 -4297.793945
v -46.899658 2317.923096 -4313.943359
v -57.366581 788.219177 -4426.988281
v -52.944580 788.219177 -4405.088867
v -52.944580 788.219299 -4448.887695
v -46.421879 2262.506592 -4538.879883
v -46.421879 2262.506592 -4315.096680
v -45.944092 2290.839844 -4537.726563
v -45.944092 2290.839844 -4316.250000
v -41.882690 1229.589844 -4527.920898
v -41.882690 1229.589844 -4326.055664
v -40.586300 788.219177 -4386.476563
v -40.586300 788.219299 -4467.500000
v -33.839600 944.173218 -4508.503906
v -33.839600 944.173218 -4345.472656
v -48.720699 738.219299 -4426.988281
v -44.966061 738.219299 -4408.393555
v -44.966061 738.219299 -4445.583008
v -34.472778 738.219299 -4392.589844
v -34.472778 738.219299 -4461.386719
v -36.987431 688.219299 -4442.278320
v -40.074829 688.219299 -4426.988281
v -36.987431 688.219299 -4411.698242
v -21.974119 788.219177 -4374.118164
v -21.974119 788.219299 -4479.858398
v -28.359249 688.219299 -4455.272461
v -28.359249 688.219299 -4398.704102
v -0.074830 1849.173096 -4604.488281
v -0.074830 1744.173096 -4596.988281
v -0.074830 1849.173096 -4249.488281
v -0.074830 1744.173096 -4256.988281
v -0.074830 1964.173096 -4596.988281
v -0.074830 1964.173096 -4256.988281
v -0.074830 2094.173096 -4576.988281
v -0.074830 2094.173096 -4276.988281
v -0.074830 1629.589844 -4277.405273
v -0.074830 1629.589844 -4576.571289
v -18.669310 738.219299 -4382.096680
v -18.669310 738.219299 -4471.879883
v -0.074830 2204.173096 -4556.988281
v -0.074830 2204.173096 -4296.988281
v -0.074830 1467.506470 -4553.655273
v -0.074830 1467.506470 -4300.321289
v -0.074830 2347.506592 -4566.988281
v -0.074830 2317.923096 -4549.488281
v -0.074830 2347.506592 -4286.988281
v -0.074830 2317.923096 -4304.488281
v -15.364500 688.219299 -4463.901367
v -15.364500 688.219299 -4390.075195
v -0.074830 2262.506592 -4548.238281
v -0.074830 2262.506592 -4305.738281
v -0.074830 2290.839844 -4546.988281
v -0.074830 2290.839844 -4306.988281
v -0.074830 1229.589844 -4536.363281
v -0.074830 1229.589844 -4317.613281
v -0.074830 944.173218 -4515.321289
v -0.074830 944.173218 -4338.655273
v -0.074710 788.342712 -4586.988281
v -0.074830 788.219177 -4484.280273
v -43.869511 788.342712 -4575.469727
v -0.074830 788.219177 -4369.696289
v -0.074830 738.219299 -4378.341797
v -0.074830 688.219299 -4386.988281
v 18.519529 738.219299 -4382.096680
v 15.214720 688.219299 -4390.075195
v 21.824341 788.219177 -4374.118164
v 33.689819 944.173218 -4508.503906
v 21.824341 788.219177 -4479.858398
v 33.689819 944.173218 -4345.472656
v 43.720089 788.342712 -4575.469727
v 41.732792 1229.589844 -4527.920898
v 41.732792 1229.589844 -4326.055664
v 48.342411 1467.506470 -4543.877930
v 48.342411 1467.506470 -4310.098633
v 46.272091 2262.506592 -4538.879883
v 45.794189 2290.839844 -4537.726563
v 46.272091 2262.506592 -4315.096680
v 45.794189 2290.839844 -4316.250000
v 46.749882 2317.923096 -4540.033203
v 46.749882 2317.923096 -4313.943359
v 49.616699 2204.173096 -4546.954102
v 49.616699 2204.173096 -4307.022461
v 34.323002 738.219299 -4461.386719
v 18.519529 738.219299 -4471.879883
v 28.209471 688.219299 -4455.272461
v 15.214720 688.219299 -4463.901367
v 34.323002 738.219299 -4392.589844
v 28.209471 688.219299 -4398.704102
v 53.439209 2347.506592 -4556.182617
v 53.439209 2347.506592 -4297.793945
v 57.102291 1629.589844 -4565.026367
v 57.102291 1629.589844 -4288.950195
v 57.261600 2094.173096 -4565.410156
v 57.261600 2094.173096 -4288.566406
v 40.436401 788.219177 -4467.500000
v 40.436401 788.219177 -4386.476563
v 64.906372 1744.173096 -4583.867188
v 64.906372 1744.173096 -4270.109375
v 64.906372 1964.173096 -4583.867188
v 64.906372 1964.173096 -4270.109375
v 67.773193 1849.173096 -4590.788086
v 67.773193 1849.173096 -4263.188477
v 44.816280 738.219299 -4445.583008
v 36.837650 688.219299 -4442.278320
v 44.816280 738.219299 -4408.393555
v 36.837650 688.219299 -4411.698242
v 62.386108 944.173218 -4489.449219
v 62.386108 944.173218 -4364.527344
v 48.570801 738.219299 -4426.988281
v 39.925171 688.219299 -4426.988281
v 52.794800 788.219177 -4448.887695
v 52.794800 788.219177 -4405.088867
v 57.216801 788.219177 -4426.988281
v 77.264893 1229.589844 -4504.328125
v 77.264893 1229.589844 -4349.648438
v 81.440430 944.173218 -4460.752930
v 81.440430 944.173218 -4393.223633
v 89.491943 1467.506470 -4516.554688
v 89.491943 1467.506470 -4337.421875
v 85.661743 2262.506592 -4512.724609
v 84.777832 2290.839844 -4511.840820
v 85.661743 2262.506592 -4341.251953
v 84.777832 2290.839844 -4342.135742
v 86.545776 2317.923096 -4513.608398
v 86.545776 2317.923096 -4340.368164
v 91.848999 2204.173096 -4518.912109
v 91.848999 2204.173096 -4335.064453
v 88.258423 944.173218 -4426.988281
v 98.920036 2347.506592 -4525.983398
v 98.920036 2347.506592 -4327.993164
v 105.696411 1629.589844 -4532.759766
v 105.696411 1629.589844 -4321.216797
v 105.991089 2094.173096 -4533.054688
v 105.991089 2094.173096 -4320.921875
v 100.858032 1229.589844 -4468.795898
v 100.858032 1229.589844 -4385.180664
v 120.133301 1744.173096 -4547.196289
v 120.133301 1744.173096 -4306.780273
v 120.133301 1964.173096 -4547.196289
v 120.133301 1964.173096 -4306.780273
v 125.436523 1849.173096 -4552.500000
v 125.436523 1849.173096 -4301.476563
v 109.300171 1229.589844 -4426.988281
v 116.815193 1467.506470 -4475.405273
v 116.815193 1467.506470 -4378.571289
v 111.816406 2262.506592 -4473.334961
v 110.663094 2290.839844 -4472.857422
v 111.816406 2262.506592 -4380.641602
v 110.663094 2290.839844 -4381.119141
v 112.970093 2317.923096 -4473.813477
v 112.970093 2317.923096 -4380.163086
v 119.891113 2204.173096 -4476.679688
v 119.891113 2204.173096 -4377.296875
v 129.119385 2347.506592 -4480.501953
v 129.119385 2347.506592 -4373.474609
v 137.962891 1629.589844 -4484.165039
v 137.962891 1629.589844 -4369.811523
v 126.591797 1467.506470 -4426.988281
v 138.347412 2094.173096 -4484.324219
v 138.347412 2094.173096 -4369.652344
v 121.175171 2262.506592 -4426.988281
v 119.925171 2290.839844 -4426.988281
v 122.425171 2317.923096 -4426.988281
v 129.925171 2204.173096 -4426.988281
v 139.925171 2347.506592 -4426.988281
v 156.803711 1744.173096 -4491.969727
v 156.803711 1744.173096 -4362.006836
v 156.803711 1964.173096 -4491.969727
v 156.803711 1964.173096 -4362.006836
v 149.508423 1629.589844 -4426.988281
v 149.925171 2094.173096 -4426.988281
v 163.724976 1849.173096 -4494.835938
v 163.724976 1849.173096 -4359.140625
v 169.925171 1744.173096 -4426.988281
v 169.925171 1964.173096 -4426.988281
v 177.425171 1849.173096 -4426.988281
v -196.659668 1599.479614 -4623.573242
v -278.087891 1599.479614 -4426.988281
v -196.659668 1599.479614 -4230.403320
v -0.074830 1599.479614 -4148.975586
v 196.510010 1599.479614 -4230.403320
v 196.510010 1599.479614 -4623.573242
v -0.074830 1599.479614 -4705.000977
v 277.937988 1599.479614 -4426.988281
v -40.564701 738.342712 -4575.469727
v -37.259892 688.342712 -4575.469727
v 37.110600 688.342712 -4575.469727
v 40.415409 738.342712 -4575.469727
v -420.569092 1911.668701 -4601.163086
v -455.739502 1911.668701 -4426.988281
v -412.855957 1993.858398 -4597.967773
v -447.381104 1993.858398 -4426.988281
v -420.569092 1911.668701 -4252.813477
v -412.855957 1993.858398 -4256.008789
v -442.332764 1838.626709 -4426.988281
v -408.197266 1838.626709 -4596.038086
v -408.197266 1838.626709 -4257.938477
v -325.200439 1717.431641 -4561.659180
v -352.394043 1717.431641 -4426.988281
v -325.200439 1717.431641 -4292.317383
v -322.278320 1911.668701 -4749.191406
v -316.368164 1993.858398 -4743.281250
v -322.278320 1911.668701 -4104.785156
v -316.368164 1993.858398 -4110.695313
v -312.798340 1838.626709 -4739.710938
v -312.798340 1838.626709 -4114.264648
v -311.632324 2156.506104 -4426.988281
v -287.584961 2156.506104 -4546.079102
v -287.584961 2156.506104 -4307.897461
v -249.202148 1717.431641 -4676.115234
v -249.202148 1717.431641 -4177.861328
v -220.379150 2156.506104 -4647.292969
v -220.379150 2156.506104 -4206.683594
v -260.769775 1604.967041 -4426.988281
v -240.648193 1604.967041 -4526.636719
v -240.648193 1604.967041 -4327.339844
v -217.478760 2222.490723 -4517.040039
v -235.662354 2222.490723 -4426.988281
v -217.478760 2222.490723 -4336.936523
v -184.414063 1604.967041 -4611.327148
v -184.414063 1604.967041 -4242.649414
v -174.249268 1911.668701 -4847.482422
v -171.054443 1993.858398 -4839.769531
v -174.249268 1911.668701 -4006.494141
v -171.054443 1993.858398 -4014.207031
v -169.124756 1838.626709 -4835.111328
v -169.124756 1838.626709 -4018.866211
v -210.829346 1522.225708 -4514.286133
v -242.967041 1522.225708 -4426.988281
v -210.829346 1522.225708 -4339.690430
v -166.660400 2222.490723 -4593.574219
v -166.660400 2222.490723 -4260.402344
v -134.746216 1717.431641 -4752.113281
v -134.746216 1717.431641 -4101.863281
v -119.165413 2156.506104 -4714.498047
v -119.165413 2156.506104 -4139.478516
v -171.825439 1522.225708 -4598.739258
v -171.825439 1522.225708 -4255.237305
v -99.723511 1604.967041 -4667.561523
v -99.723511 1604.967041 -4186.415039
v -90.126457 2222.490723 -4644.391602
v -90.126457 2222.490723 -4209.584961
v -87.372192 1522.225708 -4637.743164
v -87.372192 1522.225708 -4216.234375
v -0.074830 1911.668701 -4882.652344
v -0.074830 1993.858398 -4874.294922
v -0.074830 1911.668701 -3971.324219
v -0.074830 1993.858398 -3979.682617
v -0.074830 1838.626709 -4869.246094
v -0.074830 1838.626709 -3984.730469
v -0.074830 1717.431641 -4779.306641
v -0.074830 1717.431641 -4074.668945
v -0.074830 2156.506104 -4738.544922
v -0.074830 2156.506104 -4115.430664
v -0.074830 1604.967041 -4687.683594
v -0.074830 1604.967041 -4166.292969
v -0.074830 2222.490723 -4191.401367
v -0.074830 2222.490723 -4662.575195
v -0.074830 1522.225708 -4669.879883
v -0.074830 1522.225708 -4184.096680
v 99.573730 1604.967041 -4667.561523
v 87.222412 1522.225708 -4637.743164
v 99.573730 1604.967041 -4186.415039
v 87.222412 1522.225708 -4216.234375
v 119.015503 2156.506104 -4714.498047
v 89.976677 2222.490723 -4644.391602
v 119.015503 2156.506104 -4139.478516
v 89.976677 2222.490723 -4209.584961
v 134.596436 1717.431641 -4752.113281
v 134.596436 1717.431641 -4101.863281
v 170.904541 1993.858398 -4839.769531
v 170.904541 1993.858398 -4014.207031
v 168.974976 1838.626709 -4835.111328
v 168.974976 1838.626709 -4018.866211
v 174.099609 1911.668701 -4847.482422
v 174.099609 1911.668701 -4006.494141
v 184.264282 1604.967041 -4611.327148
v 171.675781 1522.225708 -4598.739258
v 184.264282 1604.967041 -4242.649414
v 171.675781 1522.225708 -4255.237305
v 220.229492 2156.506104 -4647.292969
v 166.510498 2222.490723 -4593.574219
v 220.229492 2156.506104 -4206.683594
v 166.510498 2222.490723 -4260.402344
v 249.052246 1717.431641 -4676.115234
v 249.052246 1717.431641 -4177.861328
v 240.498291 1604.967041 -4526.636719
v 210.679443 1522.225708 -4514.286133
v 240.498291 1604.967041 -4327.339844
v 210.679443 1522.225708 -4339.690430
v 316.218384 1993.858398 -4743.281250
v 316.218384 1993.858398 -4110.695313
v 312.648682 1838.626587 -4739.710938
v 312.648682 1838.626709 -4114.264648
v 287.434937 2156.506104 -4546.079102
v 217.328735 2222.490723 -4517.040039
v 287.434937 2156.506104 -4307.897461
v 217.328735 2222.490723 -4336.936523
v 260.619995 1604.967041 -4426.988281
v 242.816895 1522.225708 -4426.988281
v 322.128540 1911.668701 -4749.191406
v 312.648682 1838.626709 -4739.710938
v 322.128540 1911.668701 -4104.785156
v 325.050537 1717.431641 -4561.659180
v 325.050537 1717.431641 -4292.317383
v 311.482300 2156.506104 -4426.988281
v 235.512573 2222.490723 -4426.988281
v 352.244019 1717.431641 -4426.988281
v 412.706177 1993.858398 -4597.967773
v 412.706177 1993.858398 -4256.008789
v 408.047607 1838.626709 -4596.038086
v 408.047607 1838.626709 -4257.938477
v 447.231201 1993.858398 -4426.988281
v 420.419312 1911.668579 -4601.163086
v 420.419312 1911.668701 -4252.813477
v 442.182983 1838.626709 -4426.988281
v 455.589600 1911.668579 -4426.988281
v 455.589600 1911.668701 -4426.988281
v 420.419312 1911.668701 -4601.163086
v -0.074710 688.342712 -4576.988281
v -0.074830 688.219299 -4466.988281
v -18.531130 688.219299 -4434.632813
v -20.074829 688.219299 -4426.988281
v -18.531130 688.219299 -4419.343750
v -14.216920 688.219299 -4441.130859
v -14.216920 688.219299 -4412.845703
v -7.719600 688.219299 -4445.445313
v -7.719600 688.219299 -4408.531250
v -0.074830 688.219421 -4426.988281
v -0.074830 688.219299 -4446.988281
v -0.074830 688.219299 -4406.988281
v 7.569820 688.219299 -4445.445313
v 7.569820 688.219299 -4408.531250
v 14.067140 688.219299 -4441.130859
v 14.067140 688.219299 -4412.845703
v 18.381350 688.219299 -4434.632813
v 18.381350 688.219299 -4419.343750
v 19.925171 688.219299 -4426.988281
v -168.193359 2274.171875 -4426.988281
v -155.217285 2274.171875 -4491.250000
v -155.217285 2274.171875 -4362.726563
v -118.952507 2274.171875 -4545.866211
v -118.952507 2274.171875 -4308.110352
v -64.336792 2274.171875 -4582.130859
v -64.336792 2274.171875 -4271.845703
v -0.074830 2274.171875 -4258.870117
v -0.074830 2274.171875 -4595.106445
v 64.187012 2274.171875 -4582.130859
v 64.187012 2274.171875 -4271.845703
v 118.802727 2274.171875 -4545.866211
v 118.802727 2274.171875 -4308.110352
v 155.067383 2274.171875 -4491.250000
v 155.067383 2274.171875 -4362.726563
v 168.043579 2274.171875 -4426.988281
v -110.460327 798.219299 -4537.374023
v -81.065552 794.981934 -4563.345703
v -107.228996 738.219299 -4534.142578
v -77.254272 738.351685 -4560.233398
v -73.442871 681.512878 -4559.831055
v -51.670650 791.744507 -4572.624023
v -47.279419 738.484131 -4573.388672
v -42.888309 685.223816 -4573.313477
v -0.074830 798.219299 -4583.096680
v -0.074710 796.116516 -4584.117188
v -0.074710 680.774475 -4574.947266
v -0.074710 794.013794 -4585.138672
v -0.074710 683.329773 -4575.938477
v 43.119999 684.829895 -4573.313477
v 50.089111 791.744507 -4572.624023
v 73.484009 681.315979 -4559.831055
v 80.199829 794.981934 -4563.345703
v 46.604488 738.287231 -4573.388672
v 76.841797 738.253174 -4560.233398
v 107.079102 738.219299 -4534.142578
v -2801.092529 1236.662354 -9267.783203
v -2700.642090 1237.011841 -9669.825195
v -2532.272705 1160.742920 -9289.403320
v -2455.537109 1161.306885 -9596.615234
v -2689.903320 1236.867554 -8887.242188
v -2447.324463 1161.072876 -8998.622070
v -2405.245605 1237.767334 -10003.012695
v -2229.863770 1162.523804 -9851.250977
v -2393.411133 1237.605591 -8612.463867
v -2220.810791 1162.262329 -8788.613281
v -2263.829834 1031.055664 -9310.982422
v -2210.735840 1031.055664 -9523.392578
v -2205.072266 1031.055664 -9109.935547
v -2054.622314 1031.055664 -9699.382813
v -2048.381592 1031.055664 -8964.805664
v -2020.702759 1238.494385 -10219.708008
v -1936.057739 1163.694580 -10016.879883
v -2020.969482 1238.457764 -8460.653320
v -1936.252441 1163.634766 -8672.544922
v -1851.424683 1031.055664 -9813.817383
v -1851.575317 1031.055664 -8884.667969
v -1673.882813 1238.971191 -8431.035156
v -1671.024414 1164.459595 -8649.865234
v -1647.844116 1238.759399 -10295.687500
v -1651.140625 1164.121338 -10074.957031
v -1668.210083 1031.055664 -8869.062500
v -1654.441040 1031.055664 -9853.941406
v -1414.531006 1164.430298 -8716.285156
v -1490.896973 1031.055664 -8914.987305
v -1368.933960 1163.572021 -10045.898438
v -1459.322632 1031.055664 -9833.890625
v -1338.235596 1238.953491 -8517.959961
v -1278.527466 1238.419067 -10257.691406
v -1151.474365 1163.492065 -8869.042969
v -1308.986938 1031.055664 -9020.514648
v -1084.146118 1162.173584 -9947.937500
v -1262.342285 1031.055664 -9766.269531
v -993.952454 1238.369019 -8717.799805
v -905.775330 1237.552124 -10129.568359
v -935.719360 1162.169189 -9115.240234
v -1159.738159 1031.055664 -9190.646484
v -831.857727 1161.128174 -9442.612305
v -1087.852295 1031.055664 -9416.985352
v -878.234802 1161.023071 -9751.596680
v -1119.900757 1031.055664 -9630.608398
v -711.539795 1237.546143 -9039.918945
v -575.564148 1236.901367 -9468.335938
v -636.247986 1236.838135 -9872.691406
v -2812.091553 1328.639648 -9703.060547
v -2923.352539 1328.639648 -9257.943359
v -2699.698975 1503.073608 -9669.419922
v -2800.120605 1503.084351 -9267.844727
v -2800.223877 1328.639648 -8836.633789
v -2689.016113 1503.075073 -8887.751953
v -2448.367188 1712.489990 -9594.315430
v -2524.487549 1712.376343 -9290.008789
v -2440.285889 1712.437988 -9001.981445
v -2484.948730 1328.639648 -10071.856445
v -2404.474365 1503.045532 -10002.068359
v -2471.870605 1328.639648 -8532.514648
v -2392.700928 1503.048706 -8613.465820
v -2224.612549 1712.727417 -9846.357422
v -2215.704590 1712.671997 -8794.169922
v -2237.549561 1893.990723 -9313.096680
v -2186.773438 1893.990723 -9516.234375
v -2181.356689 1893.990723 -9120.823242
v -2059.138184 1328.639648 -10311.657227
v -2020.260742 1503.017212 -10218.321289
v -2059.453369 1328.639648 -8364.580078
v -2020.561523 1503.016113 -8462.072266
v -2037.474976 1893.990723 -9684.541992
v -2031.506470 1893.990723 -8982.032227
v -1933.436279 1712.954102 -10010.187500
v -1933.671265 1712.938599 -8679.500000
v -2045.606323 2001.217407 -9328.562500
v -2011.840576 2000.696289 -9464.130859
v -2008.151733 2000.924683 -9200.234375
v -1912.418823 1999.591797 -9576.645508
v -1908.359741 1999.840454 -9107.378906
v -1843.147827 1893.990723 -9793.978516
v -1843.291626 1893.990723 -8905.393555
v -1915.767456 2050.604248 -9339.019531
v -1893.490723 2049.800049 -9428.842773
v -1890.986938 2050.151611 -9253.976563
v -1827.785156 2048.094238 -9503.547852
v -1908.359741 1999.840576 -9107.378906
v -1825.034790 2048.477539 -9192.273438
v -1782.872559 1998.534424 -9649.922852
v -1782.926880 1998.598633 -9055.929688
v -1675.203369 1328.639648 -8331.884766
v -1673.914429 1502.990601 -8432.645508
v -1646.349609 1328.639648 -10395.738281
v -1647.865479 1503.006226 -10294.143555
v -1670.993652 1713.089600 -8657.232422
v -1742.060059 2046.460938 -9552.286133
v -1742.063110 2046.559448 -9157.947266
v -1651.247803 1713.035645 -10067.630859
v -1665.603516 2069.403320 -9360.118164
v -1665.704834 2069.403320 -9359.715820
v -1665.593018 2069.403320 -9359.330078
v -1670.993652 1713.089478 -8657.232422
v -1667.931396 1893.990723 -8890.471680
v -1654.763550 1893.990723 -9832.353516
v -1665.306641 2069.403320 -9360.454102
v -1665.294800 2069.403320 -9359.054688
v -1665.858398 1997.876099 -9045.802734
v -1657.109131 1998.151855 -9675.617188
v -1664.920166 2069.403320 -9360.670898
v -1664.920166 2069.403320 -9358.904297
v -1825.034912 2048.477539 -9192.273438
v -1742.063232 2046.559448 -9157.947266
v -1664.465210 2045.442017 -9151.104492
v -1658.698242 2045.869751 -9569.379883
v -1664.571167 2069.403320 -9358.873047
v -1664.545532 2069.403320 -9360.749023
v -1664.234131 2069.403320 -9358.959961
v -1589.335205 2045.497803 -9170.570313
v -1664.465088 2045.442017 -9151.104492
v -1664.174072 2069.403320 -9360.711914
v -1576.185913 2046.656250 -9560.709961
v -1552.590210 1997.912598 -9075.142578
v -1663.888184 2069.403320 -9359.162109
v -1512.445435 2046.758423 -9215.511719
v -1532.578247 1998.661499 -9662.690430
v -1663.799072 2069.403320 -9360.581055
v -1493.226685 2048.645996 -9531.639648
v -1498.359009 1893.990723 -8934.388672
v -1468.163452 1893.990723 -9813.177734
v -1663.604004 2069.403320 -9359.486328
v -1449.583130 2048.566406 -9287.744141
v -1512.445435 2046.758545 -9215.511719
v -1417.012695 1713.080078 -8723.012695
v -1663.467163 2069.403320 -9359.917969
v -1419.561157 2050.060547 -9383.469727
v -1663.527954 2069.403320 -9360.323242
v -1433.278564 2050.260498 -9473.866211
v -1419.561279 2050.060547 -9383.469727
v -1371.714233 1712.924072 -10038.968750
v -1673.914307 1502.990601 -8432.645508
v -1338.728638 1502.988770 -8519.459961
v -1436.515625 1998.727539 -9142.712891
v -1407.092896 1999.950806 -9619.202148
v -1303.635254 1328.639648 -8428.116211
v -1278.983887 1503.015991 -10256.290039
v -1324.389893 1893.990723 -9035.305664
v -1237.470581 1328.639648 -10353.726563
v -1341.435059 1999.896729 -9251.495117
v -1279.782104 1893.990723 -9748.506836
v -1295.814087 2000.865234 -9395.961914
v -1316.380493 2000.996338 -9532.340820
v -1156.384155 1712.911011 -8874.086914
v -1181.656616 1893.990723 -9198.012695
v -1089.405151 1712.643311 -9942.239258
v -1112.909302 1893.990723 -9414.468750
v -994.799072 1503.019531 -8718.874023
v -1143.558472 1893.990723 -9618.767578
v -906.494934 1503.043335 -10128.560547
v -942.480225 1712.664795 -9117.727539
v -922.434326 1328.639648 -8649.253906
v -824.688904 1328.639648 -10212.013672
v -839.377686 1712.452393 -9441.981445
v -885.244751 1712.418213 -9748.013672
v -712.564758 1503.057983 -9040.434570
v -609.676086 1328.639648 -9005.771484
v -576.568970 1503.076050 -9468.335938
v -637.124329 1503.069580 -9872.193359
v -459.036469 1328.639648 -9480.075195
v -526.195190 1328.639648 -9927.734375
# 727 vertices

vt 0.49990 4.37490
vt 0.37490 4.99990
vt 0.49990 4.99990
vt 0.37490 4.37490
vt 0.62490 4.99990
vt 0.62490 4.37490
vt 0.49990 3.62490
vt 0.37490 3.62490
vt 0.62490 3.62490
vt 0.74990 4.99990
vt 0.74990 4.37490
vt 0.24990 4.99990
vt 0.24990 4.37490
vt 0.49990 2.12490
vt 0.37490 2.12490
vt 0.62490 2.12490
vt 0.74990 3.62490
vt 0.24990 3.62490
vt 0.74990 2.12490
vt 0.24990 2.12490
vt 0.49990 -2.87490
vt 0.37490 -2.87490
vt 0.62490 -2.87490
vt 0.74990 -2.87490
vt 0.24990 -2.87490
vt 0.87490 2.12490
vt 0.87490 -2.87490
vt 0.12490 2.12490
vt 0.12490 -2.87490
vt 0.99990 -2.87490
vt 0.99990 2.12490
vt 0.00000 -2.87490
vt 0.00000 2.12490
vt 0.87490 3.62490
vt 0.12490 3.62490
vt 0.87490 4.37490
vt 0.12490 4.37490
vt 0.99990 3.62490
vt 0.00000 3.62490
vt 0.87490 4.99990
vt 0.12490 4.99990
vt 0.99990 4.37490
vt 0.00000 4.37490
vt 0.99990 4.99990
vt 0.00000 4.99990
vt 1.48930 0.73870
vt 0.99460 1.12490
vt 1.50330 1.12490
vt 0.99460 0.73870
vt 1.98400 0.73870
vt 1.99800 1.12490
vt 1.48930 0.26910
vt 0.99460 0.26910
vt 1.98400 0.26910
vt 1.48930 -0.36380
vt 0.99460 -0.36380
vt 1.98400 -0.36380
vt 0.99460 -0.58080
vt 1.48930 -0.58080
vt 1.98400 -0.58080
vt 1.48930 -1.20410
vt 0.99460 -1.20410
vt 1.98400 -1.20410
vt 1.48930 -1.99990
vt 0.99460 -1.99990
vt 1.98400 -1.99990
vt 0.49990 1.12490
vt 0.49990 0.73870
vt 2.49990 0.73870
vt 2.01400 1.12490
vt 2.49990 1.12490
vt 1.99990 0.73870
vt 0.49990 0.26910
vt 2.49340 0.26910
vt 2.49340 0.73870
vt 0.49990 -0.36380
vt 2.49340 -0.36380
vt 0.49990 -0.58080
vt 2.49340 -0.58080
vt 2.49340 -1.20410
vt 0.49990 -1.20410
vt 0.49990 -1.99990
vt 2.49340 -1.99990
vt 0.00530 -1.99990
vt 0.00530 -1.20410
vt -0.98400 -1.99990
vt -1.49340 -1.20410
vt -0.98400 -1.20410
vt -1.49340 -1.99990
vt -1.49340 -0.58080
vt -0.98400 -0.58080
vt 0.00530 -0.36380
vt 0.00530 -0.58080
vt -1.49340 -0.36380
vt -0.98400 -0.36380
vt 0.00530 0.26910
vt -1.49340 0.26910
vt -0.98400 0.26910
vt 0.00530 0.73870
vt -1.49340 0.73870
vt -0.98400 0.73870
vt -0.00250 1.12490
vt -1.49810 1.12490
vt -0.95560 1.12490
vt -0.48930 -1.99990
vt -0.48930 -1.20410
vt -0.48930 -0.58080
vt -0.48930 -0.36380
vt -0.48930 0.26910
vt -0.48930 0.73870
vt -0.49140 1.11970
vt 0.00000 1.11970
vt -0.49010 1.12490
vt 1.49260 -8.99990
vt 0.99630 3.99990
vt 1.49260 3.99990
vt 0.99630 -8.99990
vt 1.98890 -8.99990
vt 1.98890 3.99990
vt 0.49990 3.99990
vt 0.49990 -8.99990
vt 2.49990 -8.99990
vt 2.49990 3.99990
vt 0.00360 3.99990
vt 0.00360 -8.99990
vt -0.98890 -8.99990
vt -1.49990 3.99990
vt -0.98890 3.99990
vt -1.49990 -8.99990
vt -0.49260 3.99990
vt -0.49260 -8.99990
vt 1.43440 -1.67400
vt 1.74590 -0.55390
vt 1.43440 -0.55390
vt 1.74590 -1.67400
vt 2.05740 -0.55390
vt 2.05740 -1.67400
vt 1.74590 0.56630
vt 1.43440 0.56630
vt 2.05740 0.56630
vt 1.43440 0.76220
vt 1.74590 0.76220
vt 2.05740 0.76220
vt 1.74590 -2.79420
vt 1.43440 -2.79420
vt 2.05740 -2.79420
vt 1.12290 -1.67400
vt 1.12290 -0.55390
vt 2.36890 -0.55390
vt 2.36890 -1.67400
vt 1.12290 0.56630
vt 2.36890 0.56630
vt 1.74590 0.95800
vt 1.43440 0.95800
vt 2.05740 0.95800
vt 1.74590 -3.91430
vt 1.43440 -3.91430
vt 2.05740 -3.91430
vt 1.12290 0.76220
vt 2.36890 0.76220
vt 1.12290 -2.79420
vt 2.36890 -2.79420
vt 1.43440 1.68570
vt 1.74590 1.99360
vt 1.43440 1.99360
vt 1.74590 1.68570
vt 2.05740 1.99360
vt 2.05740 1.68570
vt 1.74590 1.18190
vt 1.43440 1.18190
vt 2.05740 1.18190
vt 1.74590 1.40580
vt 1.43440 1.40580
vt 2.05740 1.40580
vt 1.12290 0.95800
vt 2.36890 0.95800
vt 1.43440 -5.03450
vt 1.74590 -5.03450
vt 2.05740 -5.03450
vt 1.12290 -3.91430
vt 2.36890 -3.91430
vt 1.12290 1.68570
vt 1.12290 1.99360
vt 2.36890 1.99360
vt 2.36890 1.68570
vt 1.12290 1.18190
vt 2.36890 1.18190
vt 1.12290 1.40580
vt 2.36890 1.40580
vt 1.12290 -5.03450
vt 2.36890 -5.03450
vt 1.74590 -6.15470
vt 1.43440 -6.15470
vt 2.05740 -6.15470
vt 0.81140 -1.67400
vt 0.81140 -0.55390
vt 2.68040 -0.55390
vt 2.68040 -1.67400
vt 0.81140 0.56630
vt 2.68040 0.56630
vt 0.81140 0.76220
vt 2.68040 0.76220
vt 0.81140 -2.79420
vt 2.68040 -2.79420
vt 1.12290 -6.15470
vt 2.36890 -6.15470
vt 0.81140 0.95800
vt 2.68040 0.95800
vt 0.81140 -3.91430
vt 2.68040 -3.91430
vt 0.81140 1.68570
vt 0.81140 1.99360
vt 2.68040 1.99360
vt 2.68040 1.68570
vt 1.74590 -7.38680
vt 2.05740 -7.38680
vt 1.43440 -7.38680
vt 0.81140 1.18190
vt 2.68040 1.18190
vt 0.81140 1.40580
vt 2.68040 1.40580
vt 0.81140 -5.03450
vt 2.68040 -5.03450
vt 2.36890 -7.38680
vt 1.12290 -7.38680
vt 0.81140 -6.15470
vt 2.68040 -6.15470
vt 1.74590 -7.99990
vt 2.05740 -7.99990
vt 1.43440 -7.99990
vt 2.36890 -7.99990
vt 1.12290 -7.99990
vt 1.43440 -8.99990
vt 1.74590 -8.99990
vt 2.05740 -8.99990
vt 2.68040 -7.38680
vt 0.81140 -7.38680
vt 1.12290 -8.99990
vt 2.36890 -8.99990
vt 0.49990 -1.67400
vt 0.49990 -0.55390
vt 2.99190 -1.67400
vt 2.99190 -0.55390
vt 0.49990 0.56630
vt 2.99190 0.56630
vt 0.49990 0.76220
vt 2.99190 0.76220
vt 2.99190 -2.79420
vt 0.49990 -2.79420
vt 2.68040 -7.99990
vt 0.81140 -7.99990
vt 0.49990 0.95800
vt 2.99190 0.95800
vt 0.49990 -3.91430
vt 2.99190 -3.91430
vt 0.49990 1.68570
vt 0.49990 1.99360
vt 2.99190 1.68570
vt 2.99190 1.99360
vt 0.81140 -8.99990
vt 2.68040 -8.99990
vt 0.49990 1.18190
vt 2.99190 1.18190
vt 0.49990 1.40580
vt 2.99190 1.40580
vt 0.49990 -5.03450
vt 2.99190 -5.03450
vt 0.49990 -6.15470
vt 2.99190 -6.15470
vt 0.49990 -7.27470
vt 2.99190 -7.38680
vt 2.99190 -7.99990
vt 2.99190 -8.99990
vt -1.99190 -8.99990
vt -1.68040 -7.99990
vt -1.99190 -7.99990
vt -1.68040 -8.99990
vt -1.68040 -7.38680
vt -1.99190 -7.38680
vt 0.18850 -7.38680
vt 0.18850 -6.15470
vt -1.68040 -6.15470
vt -1.99190 -6.15470
vt 0.18850 -5.03450
vt -1.68040 -5.03450
vt -1.99190 -5.03450
vt 0.18850 -3.91430
vt -1.68040 -3.91430
vt -1.99190 -3.91430
vt 0.18850 1.18190
vt 0.18850 1.40580
vt -1.68040 1.18190
vt -1.99190 1.40580
vt -1.99190 1.18190
vt -1.68040 1.40580
vt 0.18850 1.68570
vt -1.68040 1.68570
vt -1.99190 1.68570
vt 0.18850 0.95800
vt -1.68040 0.95800
vt -1.99190 0.95800
vt -0.12290 -8.99990
vt 0.18850 -7.99990
vt -0.12290 -7.99990
vt 0.18850 -8.99990
vt -1.36890 -7.99990
vt -1.36890 -8.99990
vt 0.18850 1.99360
vt -1.68040 1.99360
vt -1.99190 1.99360
vt 0.18850 -2.79420
vt -1.68040 -2.79420
vt -1.99190 -2.79420
vt 0.18850 0.76220
vt -1.68040 0.76220
vt -1.99190 0.76220
vt -0.12290 -7.38680
vt -1.36890 -7.38680
vt 0.18850 -1.67400
vt -1.68040 -1.67400
vt -1.99190 -1.67400
vt 0.18850 0.56630
vt -1.68040 0.56630
vt -1.99190 0.56630
vt 0.18850 -0.55390
vt -1.68040 -0.55390
vt -1.99190 -0.55390
vt -0.43440 -8.99990
vt -0.43440 -7.99990
vt -1.05740 -7.99990
vt -1.05740 -8.99990
vt -0.12290 -6.15470
vt -1.36890 -6.15470
vt -0.74590 -8.99990
vt -0.74590 -7.99990
vt -0.43440 -7.38680
vt -1.05740 -7.38680
vt -0.74590 -7.38680
vt -0.12290 -5.03450
vt -1.36890 -5.03450
vt -0.43440 -6.15470
vt -1.05740 -6.15470
vt -0.12290 -3.91430
vt -1.36890 -3.91430
vt -0.12290 1.18190
vt -0.12290 1.40580
vt -1.36890 1.40580
vt -1.36890 1.18190
vt -0.12290 1.68570
vt -1.36890 1.68570
vt -0.12290 0.95800
vt -1.36890 0.95800
vt -0.74590 -6.15470
vt -0.12290 1.99360
vt -1.36890 1.99360
vt -0.12290 -2.79420
vt -1.36890 -2.79420
vt -0.12290 0.76220
vt -1.36890 0.76220
vt -0.43440 -5.03450
vt -1.05740 -5.03450
vt -0.12290 -1.67400
vt -1.36890 -1.67400
vt -0.12290 0.56630
vt -1.36890 0.56630
vt -0.12290 -0.55390
vt -1.36890 -0.55390
vt -0.74590 -5.03450
vt -0.43440 -3.91430
vt -1.05740 -3.91430
vt -0.43440 1.18190
vt -0.43440 1.40580
vt -1.05740 1.40580
vt -1.05740 1.18190
vt -0.43440 1.68570
vt -1.05740 1.68570
vt -0.43440 0.95800
vt -1.05740 0.95800
vt -0.43440 1.99360
vt -1.05740 1.99360
vt -0.43440 -2.79420
vt -1.05740 -2.79420
vt -0.74590 -3.91430
vt -0.43440 0.76220
vt -1.05740 0.76220
vt -0.74590 1.18190
vt -0.74590 1.40580
vt -0.74590 1.68570
vt -0.74590 0.95800
vt -0.74590 1.99360
vt -0.43440 -1.67400
vt -1.05740 -1.67400
vt -0.43440 0.56630
vt -1.05740 0.56630
vt -0.74590 -2.79420
vt -0.74590 0.76220
vt -0.43440 -0.55390
vt -1.05740 -0.55390
vt -0.74590 -1.67400
vt -0.74590 0.56630
vt -0.74590 -0.55390
vt -0.49600 0.99800
vt -0.99090 0.12490
vt -0.99090 0.99800
vt -0.49600 0.12490
vt -0.00110 0.12490
vt -0.00110 0.99800
vt 0.50200 0.12490
vt 0.49370 0.99800
vt 1.04680 0.12490
vt 0.98860 0.99800
vt 2.49990 0.99800
vt 1.99990 0.12490
vt 1.99990 0.99800
vt 2.49990 0.12490
vt 1.48350 0.99800
vt 1.50840 0.12490
vt 0.99990 0.12490
vt 0.49990 0.99800
vt 0.99990 0.99800
vt 0.49990 0.12490
vt 0.14300 -6.00130
vt 1.00000 -6.49940
vt 0.07150 -6.50070
vt 1.00000 -6.00010
vt 0.00000 -7.00000
vt 1.00000 -6.99880
vt 1.00000 -6.00000
vt -1.18470 -1.31860
vt -1.74150 -2.00920
vt -1.17940 -2.00920
vt -1.74680 -1.31860
vt -2.30360 -2.00920
vt -2.30890 -1.31860
vt -1.74150 -2.64140
vt -1.17940 -2.64140
vt -2.30360 -2.64140
vt -1.17940 -3.51690
vt -1.74150 -3.51690
vt -2.30360 -3.51690
vt -0.62250 -1.31860
vt -0.61730 -2.00920
vt -2.86580 -2.00920
vt -2.87100 -1.31860
vt -0.61730 -2.64140
vt -2.86580 -2.64140
vt -1.19760 -2.31290
vt -1.75980 -0.50020
vt -1.75980 -2.31290
vt -1.19760 -0.50020
vt -2.32190 -2.31290
vt -2.32190 -0.50020
vt -0.61730 -3.51690
vt -2.86580 -3.51690
vt -0.63550 -0.50020
vt -0.63550 -2.31290
vt -2.88400 -0.50020
vt -2.88400 -2.31290
vt -1.74150 -4.25440
vt -1.17940 -4.25440
vt -2.30360 -4.25440
vt -1.19760 0.99990
vt -1.75980 0.99990
vt -2.32190 0.99990
vt -0.61730 -4.25440
vt -2.86580 -4.25440
vt -0.06040 -1.31860
vt -0.05520 -2.00920
vt -3.43310 -1.31860
vt -3.42790 -2.00920
vt -0.05520 -2.64140
vt -3.42790 -2.64140
vt -1.17940 -4.99990
vt -1.74150 -4.99990
vt -2.30360 -4.99990
vt -0.63550 0.99990
vt -2.88400 0.99990
vt -0.05520 -3.51690
vt -3.42790 -3.51690
vt -0.07340 -2.31290
vt -0.07340 -0.50020
vt -3.44610 -2.31290
vt -3.44610 -0.50020
vt -0.61730 -4.99990
vt -2.86580 -4.99990
vt -0.05520 -4.25440
vt -3.42790 -4.25440
vt -0.07340 0.99990
vt -3.44610 0.99990
vt -0.05520 -4.99990
vt -3.42790 -4.99990
vt 0.50160 -1.31860
vt 0.50680 -2.00920
vt -3.99990 -2.00920
vt -4.00520 -1.31860
vt 0.50680 -2.64140
vt -3.99990 -2.64140
vt 0.50680 -3.51690
vt -3.99990 -3.51690
vt 0.48860 -0.50020
vt 0.48860 -2.31290
vt -3.99990 -0.50020
vt -3.99990 -2.31290
vt 0.50680 -4.25440
vt -3.99990 -4.25440
vt -3.99990 0.99990
vt 0.48860 0.99990
vt 0.50680 -4.99990
vt -3.99990 -4.99990
vt 1.06900 -4.99990
vt 1.06900 -4.25440
vt 4.44170 -4.99990
vt 4.99990 -4.25440
vt 4.44170 -4.25440
vt 4.99990 -4.99990
vt 1.05070 0.99990
vt 1.05070 -0.50020
vt 4.99990 0.99990
vt 4.42350 -0.50020
vt 4.99990 -0.50020
vt 4.42350 0.99990
vt 1.06900 -3.51690
vt 4.44170 -3.51690
vt 4.99990 -3.51690
vt 1.05070 -2.31290
vt 4.42350 -2.31290
vt 4.99990 -2.31290
vt 1.06900 -2.64140
vt 4.44170 -2.64140
vt 4.99990 -2.64140
vt 1.06900 -2.00920
vt 4.99990 -2.00920
vt 4.44170 -2.00920
vt 4.99470 -1.31860
vt 4.43640 -1.31860
vt 1.06370 -1.31860
vt 1.63110 -4.25440
vt 1.63110 -4.99990
vt 3.87960 -4.25440
vt 3.87960 -4.99990
vt 1.61290 0.99990
vt 1.61290 -0.50020
vt 3.86130 -0.50020
vt 3.86130 0.99990
vt 1.63110 -3.51690
vt 3.87960 -3.51690
vt 2.19320 -4.99990
vt 2.19320 -4.25440
vt 3.31740 -4.99990
vt 3.31740 -4.25440
vt 1.61290 -2.31290
vt 3.86130 -2.31290
vt 1.63110 -2.64140
vt 3.87960 -2.64140
vt 2.17500 0.99990
vt 2.17500 -0.50020
vt 3.29920 -0.50020
vt 3.29920 0.99990
vt 2.75530 -4.25440
vt 2.75530 -4.99990
vt 1.63110 -2.00920
vt 3.87960 -2.00920
vt 3.87430 -1.31860
vt 1.62580 -1.31860
vt 2.19320 -3.51690
vt 3.31740 -3.51690
vt 2.73710 0.99990
vt 2.73710 -0.50020
vt 2.75530 -3.51690
vt 2.17500 -2.31290
vt 3.29920 -2.31290
vt 2.19320 -2.64140
vt 3.31740 -2.64140
vt 2.73710 -2.31290
vt 2.19320 -2.00920
vt 3.31740 -2.00920
vt 2.18800 -1.31860
vt 3.31220 -1.31860
vt 2.75530 -2.64140
vt 2.75530 -2.00920
vt 2.75010 -1.31860
vt 0.49990 -8.30550
vt -1.08100 -4.64150
vt 0.49990 -4.59020
vt -0.15000 -8.40980
vt 2.08100 -4.64150
vt 1.15000 -8.40980
vt 0.16420 -1.31050
vt 0.49990 -2.25670
vt -0.17150 -2.12110
vt 0.49990 -1.37830
vt 1.17150 -2.12110
vt 0.83570 -1.31050
vt -0.12110 -1.12110
vt -0.74220 -1.74220
vt 1.74220 -1.74220
vt 1.12110 -1.12110
vt -1.12110 -1.17150
vt -0.31050 -0.83580
vt 2.12110 -1.17150
vt 1.31050 -0.83580
vt 0.49990 -0.50010
vt -1.25670 -0.50010
vt -0.37830 -0.50010
vt 2.25670 -0.50010
vt 1.37830 -0.50010
vt -0.31050 -0.16430
vt 1.31050 -0.16430
vt -0.12110 0.12110
vt 1.12110 0.12110
vt -1.12110 0.17150
vt 2.12110 0.17150
vt 0.16420 0.31050
vt 0.83570 0.31050
vt 0.49990 0.37830
vt -0.74220 0.74220
vt 1.74220 0.74220
vt -0.17150 1.12110
vt 1.17150 1.12110
vt 0.49990 1.25670
vt 4.66460 -0.99810
vt 3.90740 -0.00200
vt 3.90740 -0.99810
vt 4.66460 -0.00200
vt 3.15020 -0.99810
vt 3.15020 -0.00200
vt 5.42180 -0.00200
vt 5.42180 -0.99810
vt 2.39300 -0.00200
vt 2.39300 -0.99810
vt 6.24990 -0.99810
vt 6.24990 -0.00200
vt 1.63580 -0.99810
vt 1.63580 -0.00200
vt 0.87860 -0.00200
vt 0.87860 -0.99810
vt -4.42180 -0.99810
vt -5.24990 -0.00200
vt -5.24990 -0.99810
vt -4.42180 -0.00200
vt 0.12130 -0.99810
vt 0.12130 -0.00200
vt -3.66460 -0.00200
vt -3.66460 -0.99810
vt -0.63580 -0.00200
vt -0.63580 -0.99810
vt -2.90740 -0.99810
vt -2.90740 -0.00200
vt -1.39300 -0.99810
vt -1.39300 -0.00200
vt -2.15020 -0.00200
vt -2.15020 -0.99810
vt 1.74990 -0.00200
vt 0.24990 -0.99810
vt 1.74990 -0.99810
vt 0.24990 -0.00200
vt 2.68930 -0.00200
vt 2.29120 -0.99810
vt 2.68930 -0.99810
vt 2.29120 -0.00200
vt 1.89320 -0.99810
vt 1.89320 -0.00200
vt 3.22930 -0.00200
vt 3.22930 -0.99810
vt 1.49510 -0.99810
vt 1.49510 -0.00200
vt 3.99990 -0.00200
vt 3.99990 -0.99810
vt 1.09700 -0.99810
vt 1.09700 -0.00200
vt 0.69900 -0.99810
vt 0.69900 -0.00200
vt -2.08740 -0.00200
vt -2.49990 -0.99810
vt -2.08740 -0.99810
vt -2.49990 -0.00200
vt 0.30090 -0.99810
vt 0.30090 -0.00200
vt -1.68930 -0.00200
vt -1.68930 -0.99810
vt -0.09700 -0.99810
vt -0.09700 -0.00200
vt -1.29120 -0.00200
vt -1.29120 -0.99810
vt -0.49510 -0.99810
vt -0.49510 -0.00200
vt -0.89320 -0.00200
vt -0.89320 -0.99810
vt -0.49990 -0.00200
vt -0.99990 -0.99810
vt -0.49990 -0.99810
vt -0.99990 -0.00200
vt -0.50100 -0.50000
vt -0.24270 -0.02700
vt -0.51220 0.13760
vt -0.22100 -0.49890
vt -0.17280 -0.97260
vt -0.50240 -1.07840
vt 0.02680 -0.05400
vt 0.06710 -0.49780
vt 0.10730 -0.94170
vt 0.50000 -0.01760
vt 0.49990 0.13760
vt 0.09830 -0.08240
vt 0.12860 -0.49900
vt 0.50000 -0.97880
vt 0.49990 -1.07840
vt 0.15900 -0.91570
vt 0.50000 -0.03510
vt 0.50000 -0.95750
vt 0.50000 -0.08240
vt 0.50000 -0.91570
vt 0.89610 -0.94500
vt 0.84100 -0.91570
vt 0.96000 -0.05400
vt 0.90160 -0.08240
vt 1.17450 -0.97420
vt 1.23610 -0.02700
vt 0.92800 -0.49950
vt 0.87130 -0.49900
vt 1.50240 -1.07840
vt 1.49520 0.15130
vt 1.21850 -0.49980
vt 1.50100 -0.50000
vt 2.15240 -3.50010
vt 2.76430 -3.00200
vt 2.15240 -3.00200
vt 2.76430 -3.50010
vt 1.54050 -3.00200
vt 1.54050 -3.50010
vt 3.37620 -3.00200
vt 3.37620 -3.50010
vt 0.92860 -3.00200
vt 0.92860 -3.50010
vt 2.15240 -3.99810
vt 2.76430 -3.99810
vt 1.54050 -3.99810
vt 3.37620 -3.99810
vt 0.92860 -3.99810
vt 3.98810 -3.50010
vt 3.98810 -3.00200
vt 0.31670 -3.50010
vt 0.31670 -3.00200
vt 3.98810 -3.99810
vt 0.31670 -3.99810
vt -0.29510 -3.50010
vt -0.29510 -3.00200
vt 4.60000 -3.50010
vt 4.60000 -3.00200
vt -0.29510 -3.99810
vt 4.60000 -3.99810
vt -0.90700 -3.50010
vt -0.90700 -3.99810
vt 5.21190 -3.99810
vt 5.21190 -3.50010
vt -0.90700 -3.00200
vt 5.21190 -3.00200
vt -1.51890 -3.99810
vt -1.51890 -3.50010
vt 5.82380 -3.99810
vt 5.82380 -3.50010
vt -1.51890 -3.00200
vt 5.82380 -3.00200
vt -2.13080 -3.99810
vt -2.13080 -3.50010
vt -2.74260 -3.99810
vt -2.74260 -3.50010
vt -3.35450 -3.99810
vt -3.35450 -3.50010
vt -2.13080 -3.00200
vt -2.74260 -3.00200
vt -3.35450 -3.00200
vt -0.16700 -3.49770
vt 0.50320 -4.00000
vt 0.50320 -3.50010
vt -0.16700 -4.00000
vt 0.50320 -3.00010
vt -0.16700 -3.00010
vt 0.07270 -3.57890
vt 0.44520 -4.00000
vt 0.07270 -4.00000
vt 0.44520 -3.57890
vt 0.75020 -3.57890
vt 0.75020 -4.00000
vt 0.07270 -2.70020
vt 0.44520 -2.70020
vt 0.75020 -2.70020
vt -0.26490 -3.57890
vt -0.26490 -4.00000
vt 1.21030 -3.57890
vt 1.21030 -4.00000
vt -0.26490 -2.70020
vt 1.21030 -2.70020
vt 0.44520 -2.19470
vt 0.07270 -2.19470
vt 0.75020 -2.19470
vt -0.56760 -3.57890
vt -0.56760 -4.00000
vt 1.62120 -3.57890
vt 1.62120 -4.00000
vt -0.26490 -2.19470
vt 1.21030 -2.19470
vt -0.56760 -2.70020
vt 1.62120 -2.70020
vt 0.44520 -1.66890
vt 0.07270 -1.66890
vt 0.75020 -1.66890
vt -0.26490 -1.66890
vt 1.21030 -1.66890
vt -0.56760 -2.19470
vt 1.62120 -2.19470
vt 0.44520 -1.32640
vt 0.07270 -1.32640
vt 0.75020 -1.32640
vt -0.26490 -1.32640
vt 1.21030 -1.32640
vt -0.56760 -1.66890
vt 1.62120 -1.66890
vt 1.97050 -4.00000
vt 1.97050 -3.57890
vt -0.90520 -3.57890
vt -0.90520 -4.00000
vt 1.97050 -2.70020
vt -0.56760 -1.32640
vt 1.62120 -1.32640
vt -0.90520 -2.70020
vt 0.44520 -0.79180
vt 0.07270 -0.79180
vt 0.75020 -0.79180
vt 1.97050 -2.19470
vt -0.90520 -2.19470
vt -0.26490 -0.79180
vt 1.21030 -0.79180
vt 1.97050 -1.66890
vt -0.90520 -1.66890
vt -0.56760 -0.79180
vt 1.62120 -0.79180
vt 1.97050 -1.32640
vt -0.90520 -1.32640
vt 1.97050 -0.79180
vt -0.90520 -0.79180
vt 2.38130 -1.32640
vt 2.38130 -0.79180
vt -1.23120 -0.79180
vt -1.23120 -1.32640
vt 2.38130 -1.66890
vt 2.75520 -0.79180
vt 2.75520 -1.32640
vt -1.23120 -1.66890
vt -1.51290 -0.79180
vt -1.51290 -1.32640
vt 2.38130 -2.19470
vt -1.23120 -2.19470
vt 3.09220 -1.32640
vt 3.09220 -0.79180
vt 2.38130 -2.70020
vt 3.55220 -1.32640
vt 3.55220 -0.79180
vt 3.95080 -1.32640
vt 3.95080 -0.79180
vt -1.23120 -2.70020
vt 2.38130 -3.57890
vt 2.75520 -1.66890
vt -1.51290 -1.66890
vt 2.38130 -4.00000
vt -1.23120 -3.57890
vt 2.75520 -2.19470
vt -1.23120 -4.00000
vt 3.09220 -1.66890
vt -1.51290 -2.19470
vt 3.55220 -1.66890
vt 3.95080 -1.66890
vt 2.75520 -2.70020
vt 3.09220 -2.19470
vt -1.51290 -2.70020
vt 3.55220 -2.19470
vt 2.75520 -3.57890
vt 3.95080 -2.19470
vt -1.51290 -3.57890
vt 3.09220 -2.70020
vt 2.75520 -4.00000
vt -1.51290 -4.00000
vt 3.55220 -2.70020
vt 3.95080 -2.70020
vt 3.09220 -3.57890
vt 3.09220 -4.00000
vt 3.55220 -3.57890
vt 3.95080 -3.57890
vt 3.55220 -4.00000
vt 3.95080 -4.00000
vt -1.51670 -0.79680
vt -1.68750 -1.33000
vt -1.51670 -1.33000
vt -1.51670 -1.67330
vt -1.69840 -1.67330
vt -1.51670 -2.19970
vt -1.83200 -2.19970
vt -1.86860 -2.72140
vt -1.51670 -2.70580
vt -1.95020 -3.57650
vt -1.51670 -3.58520
vt -2.08430 -3.99630
vt -1.51670 -3.99630
vt 0.44120 -3.50010
vt 0.06920 -4.00000
vt 0.06920 -3.50010
vt 0.44120 -4.00000
vt 0.74990 -3.50010
vt 0.74990 -4.00000
vt -0.26810 -4.00000
vt -0.26810 -3.50010
vt 1.21110 -4.00000
vt 1.21110 -3.50010
vt -0.56790 -4.00000
vt -0.56790 -3.50010
vt 1.61770 -4.00000
vt 1.61770 -3.50010
vt 1.96940 -4.00000
vt 1.96940 -3.50010
vt -0.90820 -4.00000
vt -0.90820 -3.50010
vt 2.38470 -3.50010
vt 2.38470 -4.00000
vt -1.23110 -4.00000
vt -1.23110 -3.50010
vt 2.75380 -4.00000
vt 2.75380 -3.50010
vt -1.51070 -3.50010
vt -1.51070 -4.00000
vt 3.09220 -3.50010
vt 3.54850 -3.50010
vt 3.54850 -4.00000
vt 3.95060 -3.50010
vt 3.95060 -4.00000
vt 0.48560 -4.00000
vt -0.04830 -3.50010
vt 0.48560 -3.50010
vt -0.04830 -4.00000
# 938 texture vertices

g Object_2
usemtl texture0
f 1/3 2/2 3/1
f 2/2 4/4 3/1
f 1/3 3/1 5/5
f 3/1 6/6 5/5
f 3/1 4/4 7/7
f 4/4 8/8 7/7
f 3/1 7/7 6/6
f 7/7 9/9 6/6
f 5/5 6/6 10/10
f 6/6 11/11 10/10
f 2/2 12/12 4/4
f 12/12 13/13 4/4
f 7/7 8/8 14/14
f 8/8 15/15 14/14
f 9/9 7/7 16/16
f 16/16 7/7 14/14
f 6/6 9/9 11/11
f 9/9 17/17 11/11
f 13/13 18/18 4/4
f 18/18 8/8 4/4
f 9/9 16/16 17/17
f 17/17 16/16 19/19
f 8/8 18/18 15/15
f 15/15 18/18 20/20
f 21/22 22/21 15/15
f 14/14 15/15 22/21
f 23/23 16/16 22/21
f 16/16 14/14 22/21
f 23/23 24/24 16/16
f 19/19 16/16 24/24
f 21/22 15/15 25/25
f 15/15 20/20 25/25
f 26/27 27/26 24/24
f 27/26 19/19 24/24
f 28/29 25/25 29/28
f 20/20 29/28 25/25
f 26/27 30/30 27/26
f 31/31 27/26 30/30
f 28/29 29/28 30/32
f 29/28 31/33 30/32
f 32/34 17/17 27/26
f 27/26 17/17 19/19
f 33/35 29/28 18/18
f 18/18 29/28 20/20
f 11/11 17/17 34/36
f 17/17 32/34 34/36
f 35/37 33/35 13/13
f 13/13 33/35 18/18
f 36/38 32/34 31/31
f 32/34 27/26 31/31
f 33/35 36/39 29/28
f 29/28 36/39 31/33
f 37/40 10/10 34/36
f 10/10 11/11 34/36
f 38/41 35/37 12/12
f 35/37 13/13 12/12
f 39/42 34/36 36/38
f 34/36 32/34 36/38
f 39/43 36/39 35/37
f 36/39 33/35 35/37
f 40/44 37/40 39/42
f 37/40 34/36 39/42
f 40/45 39/43 38/41
f 39/43 35/37 38/41
usemtl texture1
f 41/48 42/47 43/46
f 44/49 43/46 42/47
f 45/51 41/48 46/50
f 43/46 46/50 41/48
f 43/46 44/49 47/52
f 48/53 47/52 44/49
f 46/50 43/46 49/54
f 47/52 49/54 43/46
f 47/52 48/53 50/55
f 51/56 50/55 48/53
f 49/54 47/52 52/57
f 50/55 52/57 47/52
f 51/56 53/58 50/55
f 53/58 54/59 50/55
f 52/57 50/55 55/60
f 54/59 55/60 50/55
f 54/59 53/58 56/61
f 57/62 56/61 53/58
f 55/60 54/59 58/63
f 56/61 58/63 54/59
f 56/61 57/62 59/64
f 59/64 57/62 60/65
f 58/63 56/61 61/66
f 61/66 56/61 59/64
f 42/47 62/67 44/49
f 63/68 44/49 62/67
f 64/71 45/70 65/69
f 45/70 46/72 65/69
f 44/49 63/68 48/53
f 66/73 48/53 63/68
f 65/75 46/50 67/74
f 46/50 49/54 67/74
f 48/53 66/73 51/56
f 68/76 51/56 66/73
f 67/74 49/54 69/77
f 49/54 52/57 69/77
f 68/76 70/78 51/56
f 70/78 53/58 51/56
f 69/77 52/57 71/79
f 52/57 55/60 71/79
f 71/79 55/60 72/80
f 55/60 58/63 72/80
f 57/62 73/81 60/65
f 60/65 73/81 74/82
f 72/80 58/63 75/83
f 58/63 61/66 75/83
f 76/85 77/84 73/81
f 74/82 73/81 77/84
f 78/88 72/87 79/86
f 79/86 72/87 75/89
f 80/91 71/90 78/88
f 72/87 78/88 71/90
f 68/76 81/92 70/78
f 82/93 70/78 81/92
f 83/95 69/94 80/91
f 71/90 80/91 69/94
f 66/73 84/96 68/76
f 81/92 68/76 84/96
f 85/98 67/97 83/95
f 69/94 83/95 67/97
f 63/68 86/99 66/73
f 84/96 66/73 86/99
f 87/101 65/100 85/98
f 67/97 85/98 65/100
f 62/67 88/102 63/68
f 86/99 63/68 88/102
f 89/104 64/103 87/101
f 65/100 87/101 64/103
f 90/106 91/105 76/85
f 77/84 76/85 91/105
f 90/106 78/88 91/105
f 91/105 78/88 79/86
f 82/93 92/107 76/85
f 90/106 76/85 92/107
f 92/107 80/91 90/106
f 78/88 90/106 80/91
f 81/92 93/108 82/93
f 92/107 82/93 93/108
f 93/108 83/95 92/107
f 80/91 92/107 83/95
f 84/96 94/109 81/92
f 93/108 81/92 94/109
f 94/109 85/98 93/108
f 83/95 93/108 85/98
f 86/99 95/110 84/96
f 94/109 84/96 95/110
f 95/110 87/101 94/109
f 85/98 94/109 87/101
f 88/112 96/111 86/99
f 95/110 86/99 96/111
f 96/113 89/104 95/110
f 87/101 95/110 89/104
f 59/116 60/115 97/114
f 97/114 60/115 98/117
f 61/119 59/116 99/118
f 99/118 59/116 97/114
f 60/115 74/120 98/117
f 98/117 74/120 100/121
f 75/123 61/119 101/122
f 61/119 99/118 101/122
f 74/120 77/124 100/121
f 100/121 77/124 102/125
f 79/128 75/127 103/126
f 103/126 75/127 101/129
f 77/124 91/130 102/125
f 102/125 91/130 104/131
f 91/130 79/128 104/131
f 104/131 79/128 103/126
f 105/134 106/133 107/132
f 106/133 108/135 107/132
f 106/133 109/136 108/135
f 108/135 109/136 110/137
f 106/133 105/134 111/138
f 105/134 112/139 111/138
f 109/136 106/133 113/140
f 106/133 111/138 113/140
f 112/139 114/141 111/138
f 114/141 115/142 111/138
f 111/138 115/142 113/140
f 115/142 116/143 113/140
f 108/135 117/144 107/132
f 117/144 118/145 107/132
f 108/135 110/137 117/144
f 117/144 110/137 119/146
f 120/148 105/134 121/147
f 105/134 107/132 121/147
f 109/136 122/149 110/137
f 122/149 123/150 110/137
f 105/134 120/148 112/139
f 120/148 124/151 112/139
f 122/149 109/136 125/152
f 109/136 113/140 125/152
f 115/142 114/141 126/153
f 126/153 114/141 127/154
f 115/142 126/153 116/143
f 126/153 128/155 116/143
f 117/144 129/156 118/145
f 129/156 130/157 118/145
f 117/144 119/146 129/156
f 131/158 129/156 119/146
f 124/151 132/159 112/139
f 132/159 114/141 112/139
f 113/140 116/143 125/152
f 116/143 133/160 125/152
f 121/147 107/132 134/161
f 134/161 107/132 118/145
f 110/137 123/150 119/146
f 119/146 123/150 135/162
f 136/165 137/164 138/163
f 137/164 139/166 138/163
f 137/164 140/167 139/166
f 139/166 140/167 141/168
f 126/153 127/154 142/169
f 143/170 142/169 127/154
f 126/153 142/169 128/155
f 142/169 144/171 128/155
f 139/166 145/172 138/163
f 145/172 146/173 138/163
f 139/166 141/168 145/172
f 145/172 141/168 147/174
f 142/169 143/170 145/172
f 145/172 143/170 146/173
f 144/171 142/169 147/174
f 142/169 145/172 147/174
f 132/159 148/175 114/141
f 148/175 127/154 114/141
f 133/160 116/143 149/176
f 149/176 116/143 128/155
f 130/157 129/156 150/177
f 129/156 151/178 150/177
f 129/156 131/158 151/178
f 151/178 131/158 152/179
f 134/161 118/145 153/180
f 130/157 153/180 118/145
f 119/146 135/162 131/158
f 154/181 131/158 135/162
f 155/183 136/165 156/182
f 136/165 138/163 156/182
f 140/167 157/184 141/168
f 157/184 158/185 141/168
f 148/175 159/186 127/154
f 159/186 143/170 127/154
f 149/176 128/155 160/187
f 144/171 160/187 128/155
f 156/182 138/163 161/188
f 161/188 138/163 146/173
f 141/168 158/185 147/174
f 147/174 158/185 162/189
f 143/170 159/186 146/173
f 159/186 161/188 146/173
f 160/187 144/171 162/189
f 144/171 147/174 162/189
f 153/180 130/157 163/190
f 163/190 130/157 150/177
f 131/158 154/181 152/179
f 154/181 164/191 152/179
f 151/178 165/192 150/177
f 165/192 166/193 150/177
f 151/178 152/179 165/192
f 165/192 152/179 167/194
f 168/196 120/148 169/195
f 120/148 121/147 169/195
f 122/149 170/197 123/150
f 171/198 123/150 170/197
f 120/148 168/196 124/151
f 168/196 172/199 124/151
f 170/197 122/149 173/200
f 122/149 125/152 173/200
f 172/199 174/201 124/151
f 174/201 132/159 124/151
f 125/152 133/160 173/200
f 133/160 175/202 173/200
f 169/195 121/147 176/203
f 121/147 134/161 176/203
f 123/150 171/198 135/162
f 135/162 171/198 177/204
f 163/190 150/177 178/205
f 178/205 150/177 166/193
f 164/191 179/206 152/179
f 179/206 167/194 152/179
f 132/159 174/201 148/175
f 148/175 174/201 180/207
f 175/202 133/160 181/208
f 133/160 149/176 181/208
f 134/161 153/180 176/203
f 153/180 182/209 176/203
f 135/162 177/204 154/181
f 183/210 154/181 177/204
f 184/212 155/183 185/211
f 155/183 156/182 185/211
f 157/184 186/213 158/185
f 187/214 158/185 186/213
f 165/192 167/194 188/215
f 188/215 167/194 189/216
f 166/193 165/192 190/217
f 190/217 165/192 188/215
f 148/175 180/207 159/186
f 191/218 159/186 180/207
f 149/176 160/187 181/208
f 160/187 192/219 181/208
f 185/211 156/182 193/220
f 156/182 161/188 193/220
f 158/185 187/214 162/189
f 162/189 187/214 194/221
f 159/186 191/218 161/188
f 161/188 191/218 193/220
f 192/219 160/187 194/221
f 160/187 162/189 194/221
f 182/209 153/180 195/222
f 153/180 163/190 195/222
f 154/181 183/210 164/191
f 164/191 183/210 196/223
f 167/194 179/206 189/216
f 189/216 179/206 197/224
f 178/205 166/193 198/225
f 198/225 166/193 190/217
f 163/190 178/205 195/222
f 178/205 199/226 195/222
f 164/191 196/223 179/206
f 200/227 179/206 196/223
f 188/215 189/216 201/228
f 202/229 201/228 189/216
f 190/217 188/215 203/230
f 201/228 203/230 188/215
f 189/216 197/224 202/229
f 204/231 202/229 197/224
f 198/225 190/217 205/232
f 203/230 205/232 190/217
f 203/230 201/228 206/233
f 207/234 206/233 201/228
f 201/228 202/229 207/234
f 208/235 207/234 202/229
f 179/206 200/227 197/224
f 197/224 200/227 209/236
f 199/226 178/205 210/237
f 210/237 178/205 198/225
f 205/232 203/230 211/238
f 206/233 211/238 203/230
f 202/229 204/231 208/235
f 212/239 208/235 204/231
f 213/241 168/196 214/240
f 214/240 168/196 169/195
f 215/243 216/242 170/197
f 216/242 171/198 170/197
f 168/196 213/241 172/199
f 213/241 217/244 172/199
f 215/243 170/197 218/245
f 218/245 170/197 173/200
f 217/244 219/246 172/199
f 219/246 174/201 172/199
f 218/245 173/200 220/247
f 220/247 173/200 175/202
f 216/242 221/248 171/198
f 221/248 177/204 171/198
f 214/240 169/195 222/249
f 222/249 169/195 176/203
f 197/224 209/236 204/231
f 223/250 204/231 209/236
f 198/225 205/232 210/237
f 205/232 224/251 210/237
f 219/246 225/252 174/201
f 225/252 180/207 174/201
f 220/247 175/202 226/253
f 226/253 175/202 181/208
f 222/249 176/203 227/254
f 227/254 176/203 182/209
f 221/248 228/255 177/204
f 228/255 183/210 177/204
f 229/257 184/212 230/256
f 230/256 184/212 185/211
f 231/259 232/258 186/213
f 232/258 187/214 186/213
f 205/232 211/238 224/251
f 211/238 233/260 224/251
f 204/231 223/250 212/239
f 234/261 212/239 223/250
f 225/252 235/262 180/207
f 235/262 191/218 180/207
f 226/253 181/208 236/263
f 236/263 181/208 192/219
f 230/256 185/211 237/264
f 237/264 185/211 193/220
f 232/258 238/265 187/214
f 238/265 194/221 187/214
f 235/262 237/264 191/218
f 237/264 193/220 191/218
f 236/263 192/219 238/265
f 238/265 192/219 194/221
f 227/254 182/209 239/266
f 239/266 182/209 195/222
f 228/255 240/267 183/210
f 240/267 196/223 183/210
f 239/266 195/222 241/268
f 241/268 195/222 199/226
f 240/267 242/269 196/223
f 242/269 200/227 196/223
f 243/270 244/270 245/237
f 244/270 210/237 245/237
f 199/226 210/237 241/268
f 244/270 241/268 210/237
f 242/269 246/271 200/227
f 246/271 209/236 200/227
f 246/271 247/272 209/236
f 247/272 223/250 209/236
f 223/250 247/272 234/261
f 247/272 248/273 234/261
f 247/276 249/275 248/274
f 250/277 248/274 249/275
f 246/279 251/278 247/276
f 249/275 247/276 251/278
f 252/281 241/268 253/280
f 253/280 241/268 244/270
f 242/283 254/282 246/279
f 246/279 254/282 251/278
f 243/270 255/280 244/270
f 253/280 244/270 255/280
f 239/266 241/268 256/284
f 241/268 252/281 256/284
f 240/286 257/285 242/283
f 242/283 257/285 254/282
f 258/287 227/254 256/284
f 227/254 239/266 256/284
f 228/289 259/288 240/286
f 240/286 259/288 257/285
f 235/262 260/290 237/264
f 237/264 260/290 261/291
f 236/294 238/293 262/292
f 238/293 263/295 262/292
f 230/256 237/264 264/296
f 237/264 261/291 264/296
f 232/298 265/297 238/293
f 238/293 265/297 263/295
f 225/252 266/299 235/262
f 235/262 266/299 260/290
f 226/301 236/294 267/300
f 236/294 262/292 267/300
f 268/304 269/303 270/302
f 271/305 270/302 269/303
f 249/275 272/306 250/277
f 273/307 250/277 272/306
f 274/308 229/257 264/296
f 229/257 230/256 264/296
f 231/310 275/309 232/298
f 232/298 275/309 265/297
f 222/249 227/254 276/311
f 227/254 258/287 276/311
f 221/313 277/312 228/289
f 228/289 277/312 259/288
f 219/246 278/314 225/252
f 225/252 278/314 266/299
f 220/316 226/301 279/315
f 226/301 267/300 279/315
f 280/317 253/280 268/304
f 269/303 268/304 253/280
f 251/278 281/318 249/275
f 272/306 249/275 281/318
f 214/240 222/249 282/319
f 222/249 276/311 282/319
f 216/321 283/320 221/313
f 221/313 283/320 277/312
f 217/244 284/322 219/246
f 219/246 284/322 278/314
f 218/324 220/316 285/323
f 220/316 279/315 285/323
f 286/325 213/241 282/319
f 213/241 214/240 282/319
f 215/327 287/326 216/321
f 216/321 287/326 283/320
f 213/241 286/325 217/244
f 217/244 286/325 284/322
f 215/327 218/324 287/326
f 218/324 285/323 287/326
f 288/329 268/304 289/328
f 270/302 289/328 268/304
f 272/306 290/330 273/307
f 291/331 273/307 290/330
f 252/281 253/280 292/332
f 280/317 292/332 253/280
f 254/282 293/333 251/278
f 251/278 293/333 281/318
f 294/335 288/329 295/334
f 289/328 295/334 288/329
f 290/330 294/335 291/331
f 295/334 291/331 294/335
f 296/336 280/317 288/329
f 268/304 288/329 280/317
f 281/318 297/337 272/306
f 290/330 272/306 297/337
f 298/338 296/336 294/335
f 288/329 294/335 296/336
f 297/337 298/338 290/330
f 294/335 290/330 298/338
f 299/339 256/284 292/332
f 292/332 256/284 252/281
f 300/340 293/333 257/285
f 293/333 254/282 257/285
f 301/341 292/332 296/336
f 296/336 292/332 280/317
f 293/333 302/342 281/318
f 281/318 302/342 297/337
f 303/343 258/287 299/339
f 299/339 258/287 256/284
f 259/288 304/344 257/285
f 304/344 300/340 257/285
f 260/290 305/345 261/291
f 305/345 306/346 261/291
f 307/348 262/292 308/347
f 308/347 262/292 263/295
f 309/349 264/296 306/346
f 306/346 264/296 261/291
f 265/297 310/350 263/295
f 310/350 308/347 263/295
f 311/351 305/345 266/299
f 305/345 260/290 266/299
f 312/352 267/300 307/348
f 262/292 307/348 267/300
f 313/353 301/341 298/338
f 298/338 301/341 296/336
f 302/342 313/353 297/337
f 297/337 313/353 298/338
f 314/354 274/308 309/349
f 274/308 264/296 309/349
f 275/309 315/355 265/297
f 315/355 310/350 265/297
f 316/356 276/311 303/343
f 258/287 303/343 276/311
f 317/357 304/344 277/312
f 304/344 259/288 277/312
f 278/314 318/358 266/299
f 318/358 311/351 266/299
f 319/359 279/315 312/352
f 312/352 279/315 267/300
f 299/339 292/332 320/360
f 292/332 301/341 320/360
f 300/340 321/361 293/333
f 293/333 321/361 302/342
f 322/362 282/319 316/356
f 316/356 282/319 276/311
f 283/320 323/363 277/312
f 323/363 317/357 277/312
f 324/364 318/358 284/322
f 318/358 278/314 284/322
f 325/365 285/323 319/359
f 279/315 319/359 285/323
f 326/366 286/325 322/362
f 286/325 282/319 322/362
f 287/326 327/367 283/320
f 327/367 323/363 283/320
f 286/325 326/366 284/322
f 326/366 324/364 284/322
f 327/367 287/326 325/365
f 325/365 287/326 285/323
f 328/368 320/360 313/353
f 313/353 320/360 301/341
f 328/368 313/353 321/361
f 313/353 302/342 321/361
f 329/369 303/343 320/360
f 303/343 299/339 320/360
f 304/344 330/370 300/340
f 300/340 330/370 321/361
f 305/345 331/371 306/346
f 306/346 331/371 332/372
f 333/374 307/348 334/373
f 307/348 308/347 334/373
f 309/349 306/346 335/375
f 306/346 332/372 335/375
f 310/350 336/376 308/347
f 308/347 336/376 334/373
f 311/351 337/377 305/345
f 331/371 305/345 337/377
f 338/378 312/352 333/374
f 307/348 333/374 312/352
f 339/379 314/354 335/375
f 314/354 309/349 335/375
f 315/355 340/380 310/350
f 340/380 336/376 310/350
f 316/356 303/343 341/381
f 303/343 329/369 341/381
f 317/357 342/382 304/344
f 330/370 304/344 342/382
f 343/383 329/369 328/368
f 328/368 329/369 320/360
f 330/370 343/383 321/361
f 343/383 328/368 321/361
f 318/358 344/384 311/351
f 311/351 344/384 337/377
f 345/385 319/359 338/378
f 338/378 319/359 312/352
f 331/371 346/386 332/372
f 346/386 347/387 332/372
f 346/386 333/374 347/387
f 347/387 333/374 334/373
f 348/388 335/375 347/387
f 347/387 335/375 332/372
f 348/388 347/387 336/376
f 347/387 334/373 336/376
f 349/389 346/386 337/377
f 346/386 331/371 337/377
f 349/389 338/378 346/386
f 333/374 346/386 338/378
f 350/390 339/379 348/388
f 339/379 335/375 348/388
f 340/380 350/390 336/376
f 350/390 348/388 336/376
f 351/391 322/362 341/381
f 322/362 316/356 341/381
f 323/363 352/392 317/357
f 317/357 352/392 342/382
f 353/393 344/384 324/364
f 344/384 318/358 324/364
f 325/365 319/359 354/394
f 319/359 345/385 354/394
f 355/395 341/381 343/383
f 343/383 341/381 329/369
f 355/395 343/383 342/382
f 343/383 330/370 342/382
f 356/396 349/389 344/384
f 349/389 337/377 344/384
f 356/396 345/385 349/389
f 349/389 345/385 338/378
f 357/397 326/366 351/391
f 326/366 322/362 351/391
f 327/367 358/398 323/363
f 358/398 352/392 323/363
f 326/366 357/397 324/364
f 357/397 353/393 324/364
f 358/398 327/367 354/394
f 327/367 325/365 354/394
f 359/399 355/395 352/392
f 355/395 342/382 352/392
f 359/399 351/391 355/395
f 355/395 351/391 341/381
f 360/400 356/396 353/393
f 356/396 344/384 353/393
f 360/400 354/394 356/396
f 356/396 354/394 345/385
f 361/401 357/397 359/399
f 359/399 357/397 351/391
f 358/398 361/401 352/392
f 361/401 359/399 352/392
f 357/397 361/401 353/393
f 361/401 360/400 353/393
f 361/401 358/398 360/400
f 360/400 358/398 354/394
usemtl texture2
f 362/404 42/403 363/402
f 42/403 41/405 363/402
f 364/407 363/402 45/406
f 45/406 363/402 41/405
f 365/409 364/407 64/408
f 364/407 45/406 64/408
f 366/411 365/409 89/410
f 64/408 89/410 365/409
f 367/414 88/413 368/412
f 88/413 62/415 368/412
f 367/414 369/416 88/413
f 96/417 88/413 369/416
f 366/411 89/410 369/416
f 89/410 96/417 369/416
f 362/420 368/419 42/418
f 62/421 42/418 368/419
f 224/424 370/423 210/422
f 210/422 370/423 245/425
f 371/427 370/423 233/426
f 370/423 224/424 233/426
f 372/427 271/426 373/423
f 271/426 269/424 373/423
f 269/424 253/422 373/423
f 253/422 255/428 373/423
usemtl texture3
f 374/431 375/430 376/429
f 376/429 375/430 377/432
f 375/430 378/433 377/432
f 378/433 379/434 377/432
f 375/430 374/431 380/435
f 381/436 380/435 374/431
f 378/433 375/430 382/437
f 380/435 382/437 375/430
f 381/436 383/438 380/435
f 383/438 384/439 380/435
f 380/435 384/439 382/437
f 384/439 385/440 382/437
f 386/442 374/431 387/441
f 374/431 376/429 387/441
f 378/433 388/443 379/434
f 379/434 388/443 389/444
f 374/431 386/442 381/436
f 390/445 381/436 386/442
f 388/443 378/433 391/446
f 382/437 391/446 378/433
f 377/449 392/448 376/447
f 392/448 393/450 376/447
f 377/449 379/451 392/448
f 379/451 394/452 392/448
f 390/445 395/453 381/436
f 395/453 383/438 381/436
f 382/437 385/440 391/446
f 385/440 396/454 391/446
f 387/456 376/447 397/455
f 376/447 393/450 397/455
f 389/458 398/457 379/451
f 398/457 394/452 379/451
f 384/439 383/438 399/459
f 399/459 383/438 400/460
f 384/439 399/459 385/440
f 401/461 385/440 399/459
f 393/450 392/448 402/462
f 402/462 392/448 403/463
f 392/448 394/452 403/463
f 394/452 404/464 403/463
f 395/453 405/465 383/438
f 400/460 383/438 405/465
f 396/454 385/440 406/466
f 406/466 385/440 401/461
f 407/468 386/442 408/467
f 408/467 386/442 387/441
f 409/470 410/469 388/443
f 410/469 389/444 388/443
f 386/442 407/468 390/445
f 411/471 390/445 407/468
f 409/470 388/443 412/472
f 391/446 412/472 388/443
f 400/460 413/473 399/459
f 414/474 399/459 413/473
f 401/461 399/459 415/475
f 415/475 399/459 414/474
f 397/455 393/450 416/476
f 416/476 393/450 402/462
f 394/452 398/457 404/464
f 404/464 398/457 417/477
f 411/471 418/478 390/445
f 418/478 395/453 390/445
f 391/446 396/454 412/472
f 396/454 419/479 412/472
f 387/456 397/455 408/480
f 397/455 420/481 408/480
f 389/458 410/482 398/457
f 410/482 421/483 398/457
f 400/460 405/465 413/473
f 413/473 405/465 422/484
f 401/461 415/475 406/466
f 423/485 406/466 415/475
f 395/453 418/478 405/465
f 405/465 418/478 424/486
f 396/454 406/466 419/479
f 425/487 419/479 406/466
f 420/481 397/455 426/488
f 426/488 397/455 416/476
f 421/483 427/489 398/457
f 427/489 417/477 398/457
f 424/486 428/490 405/465
f 422/484 405/465 428/490
f 425/487 406/466 429/491
f 429/491 406/466 423/485
f 430/493 407/468 431/492
f 407/468 408/467 431/492
f 409/470 432/494 410/469
f 433/495 410/469 432/494
f 407/468 430/493 411/471
f 434/496 411/471 430/493
f 432/494 409/470 435/497
f 409/470 412/472 435/497
f 411/471 434/496 418/478
f 436/498 418/478 434/496
f 412/472 419/479 435/497
f 419/479 437/499 435/497
f 431/501 408/480 438/500
f 408/480 420/481 438/500
f 433/503 439/502 410/482
f 439/502 421/483 410/482
f 436/498 440/504 418/478
f 424/486 418/478 440/504
f 437/499 419/479 441/505
f 419/479 425/487 441/505
f 421/483 439/502 427/489
f 442/506 427/489 439/502
f 438/500 420/481 443/507
f 420/481 426/488 443/507
f 424/486 440/504 428/490
f 428/490 440/504 444/508
f 425/487 429/491 441/505
f 445/509 441/505 429/491
f 446/511 447/510 440/504
f 444/508 440/504 447/510
f 448/514 441/513 449/512
f 449/512 441/513 445/515
f 450/517 438/500 451/516
f 451/516 438/500 443/507
f 439/520 452/519 442/518
f 452/519 453/521 442/518
f 436/498 454/522 440/504
f 440/504 454/522 446/511
f 437/524 441/513 455/523
f 448/514 455/523 441/513
f 431/501 438/500 456/525
f 438/500 450/517 456/525
f 433/527 457/526 439/520
f 457/526 452/519 439/520
f 458/528 454/522 434/496
f 454/522 436/498 434/496
f 435/530 437/524 459/529
f 437/524 455/523 459/529
f 430/493 460/531 434/496
f 460/531 458/528 434/496
f 461/533 432/532 459/529
f 435/530 459/529 432/532
f 432/532 461/533 433/534
f 461/533 457/535 433/534
f 460/531 430/493 456/536
f 431/492 456/536 430/493
f 446/511 462/537 447/510
f 447/510 462/537 463/538
f 448/514 449/512 464/539
f 465/540 464/539 449/512
f 466/542 450/517 467/541
f 467/541 450/517 451/516
f 452/519 468/543 453/521
f 453/521 468/543 469/544
f 470/545 462/537 454/522
f 446/511 454/522 462/537
f 471/546 455/523 464/539
f 464/539 455/523 448/514
f 472/548 473/547 462/537
f 463/538 462/537 473/547
f 474/550 464/539 475/549
f 475/549 464/539 465/540
f 476/551 456/525 466/542
f 456/525 450/517 466/542
f 477/552 468/543 457/526
f 468/543 452/519 457/526
f 478/553 470/545 458/528
f 470/545 454/522 458/528
f 459/529 455/523 479/554
f 455/523 471/546 479/554
f 480/556 466/542 481/555
f 481/555 466/542 467/541
f 468/543 482/557 469/544
f 469/544 482/557 483/558
f 472/548 484/559 473/547
f 473/547 484/559 485/560
f 474/550 475/549 484/559
f 485/560 484/559 475/549
f 460/531 486/561 458/528
f 487/553 458/528 486/561
f 461/533 459/529 488/562
f 459/529 479/554 488/562
f 461/533 488/562 457/535
f 457/535 488/562 477/563
f 460/531 456/536 486/561
f 456/536 476/564 486/561
f 470/545 489/565 462/537
f 462/537 489/565 472/548
f 471/546 464/539 490/566
f 474/550 490/566 464/539
f 491/568 480/556 492/567
f 492/567 480/556 481/555
f 482/557 491/568 483/558
f 483/558 491/568 492/567
f 493/569 484/559 489/565
f 472/548 489/565 484/559
f 493/569 490/566 484/559
f 484/559 490/566 474/550
f 476/551 466/542 494/570
f 466/542 480/556 494/570
f 477/552 495/571 468/543
f 495/571 482/557 468/543
f 496/572 489/565 478/553
f 489/565 470/545 478/553
f 479/554 471/546 497/573
f 471/546 490/566 497/573
f 498/574 494/570 491/568
f 494/570 480/556 491/568
f 498/574 491/568 495/571
f 491/568 482/557 495/571
f 486/561 499/575 478/553
f 496/572 478/553 499/575
f 500/576 488/562 497/573
f 479/554 497/573 488/562
f 499/575 486/561 494/577
f 494/577 486/561 476/564
f 488/562 500/576 477/563
f 477/563 500/576 495/578
f 501/579 493/569 496/572
f 493/569 489/565 496/572
f 497/573 490/566 501/579
f 490/566 493/569 501/579
f 499/575 502/580 496/572
f 501/579 496/572 502/580
f 502/580 500/576 501/579
f 500/576 497/573 501/579
f 503/580 504/575 498/581
f 504/575 494/577 498/581
f 500/576 502/580 495/578
f 495/578 502/580 498/581
usemtl texture4
f 505/584 371/583 506/582
f 233/585 506/582 371/583
f 505/584 506/582 372/586
f 506/582 271/587 372/586
f 206/590 207/589 507/588
f 508/591 507/588 207/589
f 207/589 208/592 508/591
f 509/593 508/591 208/592
f 211/595 206/590 510/594
f 206/590 507/588 510/594
f 208/592 212/596 509/593
f 511/597 509/593 212/596
f 211/595 510/594 233/598
f 510/594 512/599 233/598
f 212/596 234/600 511/597
f 513/601 511/597 234/600
f 514/602 507/588 508/591
f 514/602 508/591 509/593
f 510/594 507/588 514/602
f 514/602 509/593 511/597
f 233/598 512/599 506/603
f 512/599 515/604 506/603
f 234/600 248/605 513/601
f 516/606 513/601 248/605
f 510/594 514/602 512/599
f 514/602 511/597 513/601
f 512/599 514/602 515/604
f 514/602 513/601 516/606
f 517/607 515/604 514/602
f 514/602 516/606 518/608
f 517/607 514/602 519/609
f 514/602 518/608 520/610
f 506/603 515/604 271/611
f 515/604 517/607 271/611
f 248/605 250/612 516/606
f 518/608 516/606 250/612
f 519/609 514/602 521/613
f 522/614 514/602 520/610
f 521/613 514/602 523/615
f 523/615 514/602 522/614
f 271/611 517/607 270/616
f 517/607 519/609 270/616
f 250/612 273/617 518/608
f 520/610 518/608 273/617
f 270/616 519/609 289/618
f 519/609 521/613 289/618
f 291/619 522/614 273/617
f 522/614 520/610 273/617
f 289/618 521/613 295/620
f 521/613 523/615 295/620
f 295/620 523/615 291/619
f 523/615 522/614 291/619
usemtl texture5
f 403/623 524/622 402/621
f 524/622 525/624 402/621
f 403/623 404/625 524/622
f 404/625 526/626 524/622
f 416/628 402/621 527/627
f 402/621 525/624 527/627
f 417/630 528/629 404/625
f 528/629 526/626 404/625
f 416/628 527/627 426/631
f 527/627 529/632 426/631
f 417/630 427/633 528/629
f 427/633 530/634 528/629
f 442/636 531/635 427/633
f 531/635 530/634 427/633
f 443/639 532/638 451/637
f 532/638 533/640 451/637
f 442/636 453/641 531/635
f 453/641 534/642 531/635
f 467/644 451/637 535/643
f 451/637 533/640 535/643
f 469/646 536/645 453/641
f 536/645 534/642 453/641
f 467/644 535/643 481/647
f 535/643 537/648 481/647
f 469/646 483/649 536/645
f 483/649 538/650 536/645
f 492/652 481/647 539/651
f 481/647 537/648 539/651
f 492/652 539/651 483/649
f 539/651 538/650 483/649
f 443/655 426/654 532/653
f 426/654 529/656 532/653
usemtl texture6
f 525/659 524/658 136/657
f 524/658 137/660 136/657
f 524/658 526/661 137/660
f 526/661 140/662 137/660
f 527/664 525/659 155/663
f 525/659 136/657 155/663
f 526/661 528/665 140/662
f 528/665 157/666 140/662
f 529/668 527/664 184/667
f 527/664 155/663 184/667
f 528/665 530/669 157/666
f 530/669 186/670 157/666
f 530/669 531/671 186/670
f 231/672 186/670 531/671
f 533/675 532/674 274/673
f 532/674 229/676 274/673
f 531/671 534/677 231/672
f 534/677 275/678 231/672
f 535/680 533/675 314/679
f 533/675 274/673 314/679
f 534/677 536/681 275/678
f 536/681 315/682 275/678
f 537/684 535/680 339/683
f 535/680 314/679 339/683
f 536/681 538/685 315/682
f 538/685 340/686 315/682
f 539/688 537/684 350/687
f 537/684 339/683 350/687
f 538/685 539/688 340/686
f 539/688 350/687 340/686
f 532/691 529/690 229/689
f 529/690 184/692 229/689
usemtl texture7
f 540/695 541/694 542/693
f 541/694 543/696 542/693
f 57/698 542/693 544/697
f 542/693 543/696 544/697
f 541/694 545/699 543/696
f 545/699 546/700 543/696
f 544/697 543/696 547/701
f 543/696 546/700 547/701
f 548/703 549/702 540/695
f 549/702 541/694 540/695
f 545/699 245/704 546/700
f 370/705 546/700 245/704
f 73/707 57/698 550/706
f 57/698 544/697 550/706
f 547/701 546/700 371/708
f 371/708 546/700 370/705
f 541/694 549/702 545/699
f 549/702 551/709 545/699
f 550/706 544/697 552/710
f 544/697 547/701 552/710
f 551/709 243/711 545/699
f 545/699 243/711 245/704
f 552/710 547/701 505/712
f 547/701 371/708 505/712
f 552/710 505/712 553/713
f 553/713 505/712 372/714
f 551/709 554/715 243/711
f 554/715 255/716 243/711
f 550/706 552/710 555/717
f 552/710 553/713 555/717
f 556/718 554/715 549/702
f 554/715 551/709 549/702
f 553/713 372/714 557/719
f 373/720 557/719 372/714
f 73/707 550/706 76/721
f 550/706 555/717 76/721
f 554/715 557/719 255/716
f 255/716 557/719 373/720
f 548/703 82/722 549/702
f 82/722 556/718 549/702
f 555/717 553/713 558/723
f 553/713 557/719 558/723
f 556/718 558/723 554/715
f 558/723 557/719 554/715
f 76/721 555/717 559/724
f 555/717 558/723 559/724
f 82/722 559/724 556/718
f 559/724 558/723 556/718
usemtl texture8
f 560/727 561/726 562/725
f 562/725 561/726 563/728
f 560/727 562/725 564/729
f 564/729 562/725 565/730
f 561/726 566/731 563/728
f 566/731 567/732 563/728
f 564/729 565/730 568/733
f 565/730 569/734 568/733
f 562/725 563/728 570/735
f 570/735 563/728 571/736
f 562/725 570/735 565/730
f 565/730 570/735 572/737
f 563/728 567/732 571/736
f 571/736 567/732 573/738
f 565/730 572/737 569/734
f 574/739 569/734 572/737
f 575/741 576/740 566/731
f 576/740 567/732 566/731
f 577/743 568/733 578/742
f 568/733 569/734 578/742
f 567/732 576/740 573/738
f 573/738 576/740 579/744
f 569/734 574/739 578/742
f 580/745 578/742 574/739
f 581/747 577/743 582/746
f 578/742 582/746 577/743
f 583/749 584/748 575/741
f 584/748 576/740 575/741
f 578/742 580/745 582/746
f 585/750 582/746 580/745
f 584/748 586/751 576/740
f 579/744 576/740 586/751
f 582/746 585/750 587/752
f 588/753 587/752 585/750
f 589/755 590/754 584/748
f 586/751 584/748 590/754
f 581/747 582/746 591/756
f 582/746 587/752 591/756
f 592/757 589/755 583/749
f 589/755 584/748 583/749
f 593/759 587/752 594/758
f 594/758 587/752 588/753
f 595/761 596/760 589/755
f 590/754 589/755 596/760
f 597/762 591/756 593/759
f 587/752 593/759 591/756
f 592/757 598/763 589/755
f 598/763 595/761 589/755
f 599/765 593/759 600/764
f 600/764 593/759 594/758
f 601/767 599/765 602/766
f 602/766 599/765 600/764
f 603/769 601/767 604/768
f 601/767 602/766 604/768
f 605/770 597/762 599/765
f 597/762 593/759 599/765
f 606/771 605/770 601/767
f 601/767 605/770 599/765
f 606/771 601/767 607/772
f 607/772 601/767 603/769
f 603/775 604/774 595/773
f 596/776 595/773 604/774
f 598/778 607/777 595/773
f 603/775 595/773 607/777
usemtl texture9
f 608/781 609/780 610/779
f 609/780 611/782 610/779
f 612/784 613/783 609/780
f 613/783 611/782 609/780
f 610/779 611/782 614/785
f 611/782 615/786 614/785
f 613/783 616/787 611/782
f 616/787 615/786 611/782
f 617/789 608/781 618/788
f 608/781 610/779 618/788
f 619/791 620/790 612/784
f 612/784 620/790 613/783
f 618/788 610/779 621/792
f 621/792 610/779 614/785
f 620/790 622/793 613/783
f 613/783 622/793 616/787
f 615/786 623/794 614/785
f 623/794 624/795 614/785
f 615/786 616/787 623/794
f 625/796 623/794 616/787
f 626/798 617/789 627/797
f 617/789 618/788 627/797
f 628/800 629/799 619/791
f 620/790 619/791 629/799
f 621/792 614/785 630/801
f 614/785 624/795 630/801
f 616/787 622/793 625/796
f 622/793 631/802 625/796
f 627/797 618/788 632/803
f 618/788 621/792 632/803
f 629/799 633/804 620/790
f 622/793 620/790 633/804
f 623/794 634/805 624/795
f 634/805 635/806 624/795
f 623/794 625/796 634/805
f 636/807 634/805 625/796
f 624/795 635/806 630/801
f 637/808 630/801 635/806
f 631/802 638/809 625/796
f 625/796 638/809 636/807
f 621/792 630/801 632/803
f 630/801 639/810 632/803
f 622/793 633/804 631/802
f 633/804 640/811 631/802
f 634/805 641/812 635/806
f 641/812 642/813 635/806
f 634/805 636/807 641/812
f 643/814 641/812 636/807
f 635/806 642/813 637/808
f 642/813 644/815 637/808
f 636/807 645/809 643/814
f 645/809 646/816 643/814
f 630/801 637/808 639/810
f 639/810 637/808 647/817
f 631/802 640/811 638/809
f 638/809 640/811 648/818
f 628/800 649/819 629/799
f 649/819 650/820 629/799
f 651/822 626/798 652/821
f 627/797 652/821 626/798
f 650/820 653/823 629/799
f 633/804 629/799 653/823
f 637/808 644/815 647/817
f 644/815 654/824 647/817
f 648/818 655/825 638/809
f 655/825 646/816 638/809
f 652/821 627/797 656/826
f 656/826 627/797 632/803
f 657/828 642/813 658/827
f 642/813 641/812 658/827
f 659/829 658/827 643/814
f 658/827 641/812 643/814
f 633/804 660/823 640/811
f 660/823 661/830 640/811
f 656/826 632/803 662/831
f 639/810 662/831 632/803
f 657/828 663/832 642/813
f 663/832 644/815 642/813
f 664/833 659/829 646/816
f 659/829 643/814 646/816
f 640/811 661/830 648/818
f 661/830 665/834 648/818
f 662/831 639/810 666/835
f 647/817 666/835 639/810
f 667/836 654/824 663/832
f 654/824 644/815 663/832
f 668/837 664/833 655/825
f 664/833 669/816 655/825
f 648/818 665/834 670/825
f 665/834 671/838 670/825
f 666/835 647/817 672/839
f 654/824 672/839 647/817
f 673/840 668/837 671/838
f 668/837 655/825 671/838
f 667/836 674/841 654/824
f 674/841 672/839 654/824
f 675/843 673/840 676/842
f 673/840 677/838 676/842
f 674/841 678/844 672/839
f 678/844 679/845 672/839
f 665/834 680/846 671/838
f 676/842 671/838 680/846
f 675/843 676/842 681/847
f 676/842 682/848 681/847
f 666/835 672/839 683/849
f 672/839 679/845 683/849
f 678/844 684/850 679/845
f 684/850 685/851 679/845
f 661/830 686/852 665/834
f 680/846 665/834 686/852
f 662/831 666/835 687/853
f 666/835 683/849 687/853
f 688/855 681/847 689/854
f 681/847 690/848 689/854
f 660/823 691/856 661/830
f 686/852 661/830 691/856
f 692/858 688/855 693/857
f 688/855 689/854 693/857
f 694/860 692/858 695/859
f 692/858 696/857 695/859
f 656/826 662/831 697/861
f 662/831 687/853 697/861
f 698/820 699/862 660/823
f 660/823 699/862 691/856
f 700/863 682/848 680/846
f 682/848 676/842 680/846
f 683/849 679/845 701/864
f 679/845 685/851 701/864
f 649/819 702/865 650/820
f 699/862 650/820 702/865
f 703/866 652/821 697/861
f 697/861 652/821 656/826
f 704/867 700/863 686/852
f 686/852 700/863 680/846
f 651/822 652/821 705/868
f 652/821 703/866 705/868
f 706/869 689/854 700/863
f 689/854 682/848 700/863
f 707/870 687/853 701/864
f 701/864 687/853 683/849
f 708/871 693/857 706/869
f 693/857 689/854 706/869
f 709/872 695/859 708/871
f 695/859 693/857 708/871
f 710/873 704/867 691/856
f 704/867 686/852 691/856
f 711/874 706/869 704/867
f 700/863 704/867 706/869
f 712/875 697/861 707/870
f 697/861 687/853 707/870
f 711/874 713/876 706/869
f 713/876 708/871 706/869
f 714/877 710/873 699/862
f 699/862 710/873 691/856
f 715/878 709/872 713/876
f 709/872 708/871 713/876
f 703/866 697/861 716/879
f 712/875 716/879 697/861
f 717/880 711/874 710/873
f 711/874 704/867 710/873
f 718/881 714/877 702/865
f 714/877 699/862 702/865
f 705/868 703/866 719/882
f 716/879 719/882 703/866
f 720/883 713/876 717/880
f 713/876 711/874 717/880
f 721/884 715/878 720/883
f 715/878 713/876 720/883
f 714/877 722/885 710/873
f 710/873 722/885 717/880
f 718/881 723/886 714/877
f 723/886 722/885 714/877
f 722/885 724/887 717/880
f 724/887 720/883 717/880
f 725/888 721/884 724/887
f 721/884 720/883 724/887
f 723/886 726/889 722/885
f 726/889 724/887 722/885
f 726/889 727/890 724/887
f 725/888 724/887 727/890
f 694/891 695/892 684/891
f 695/892 685/893 684/891
f 709/895 701/894 695/892
f 701/894 685/893 695/892
f 715/897 707/896 709/895
f 707/896 701/894 709/895
f 712/899 707/896 721/898
f 707/896 715/897 721/898
f 716/901 712/899 725/900
f 725/900 712/899 721/898
f 719/903 716/901 727/902
f 727/902 716/901 725/900
usemtl texture10
f 608/906 561/905 609/904
f 560/907 609/904 561/905
f 609/904 560/907 612/908
f 612/908 560/907 564/909
f 617/911 566/910 608/906
f 566/910 561/905 608/906
f 619/913 612/908 568/912
f 564/909 568/912 612/908
f 626/915 575/914 617/911
f 575/914 566/910 617/911
f 628/917 619/913 577/916
f 619/913 568/912 577/916
f 649/919 628/917 581/918
f 577/916 581/918 628/917
f 651/921 583/920 626/915
f 583/920 575/914 626/915
f 649/919 581/918 702/922
f 581/918 591/923 702/922
f 705/925 592/924 651/921
f 592/924 583/920 651/921
f 718/927 702/922 597/926
f 591/923 597/926 702/922
f 705/925 719/928 592/924
f 719/928 598/929 592/924
f 718/927 597/926 723/930
f 597/926 605/886 723/930
f 723/930 605/886 726/931
f 606/932 726/931 605/886
f 726/931 606/932 727/933
f 727/933 606/932 607/934
f 719/937 727/936 598/935
f 607/938 598/935 727/936
# 1348 elements

