# Created by Metasequoia

mtllib 2P_Frog_forest0.mtl

v -1302.080566 202.209595 -12674.832031
v -1122.076660 208.465698 -13212.351563
v -917.146484 127.105217 -12705.441406
v -867.554199 159.589111 -13136.250000
v -1149.862305 202.314209 -12153.871094
v -802.555176 127.550293 -12313.191406
v -730.109863 208.839478 -13654.460938
v -547.270508 160.233154 -13497.636719
v -743.963867 202.690918 -11777.699219
v -496.999023 129.154785 -12029.898438
v -483.408203 -47.836788 -13021.082031
v -555.029785 -47.836788 -12734.550781
v -475.768555 -47.836788 -12463.347656
v -272.818359 -47.836788 -13258.484375
v -264.399902 -47.836788 -12267.574219
v -219.853027 209.198975 -13942.000000
v -130.291016 160.852295 -13732.703125
v -234.091309 203.125854 -11569.871094
v -113.143066 131.006226 -11873.328125
v 1.285640 -47.836788 -13412.851563
v 1.082520 -47.836788 -12159.472656
v 241.070801 203.387695 -11529.324219
v 244.637207 132.118774 -11842.734375
v 274.899414 209.330078 -14042.816406
v 274.073242 161.078125 -13815.128906
v 248.433594 -47.836788 -12138.421875
v 267.007324 -47.836788 -13466.976563
v 590.634766 132.079224 -11932.332031
v 487.620605 -47.836788 -12200.371094
v 674.590332 160.787476 -13773.886719
v 530.212891 -47.836788 -13439.929688
v 700.572266 203.378784 -11648.324219
v 782.312988 203.106079 -14030.019531
v 945.485840 130.813599 -12138.394531
v 733.008789 -47.836788 -12342.722656
v 1078.770996 160.047852 -13634.859375
v 795.930176 -47.836788 -13348.710938
v 1171.896484 203.080566 -11921.906250
v 1292.610840 202.663574 -13854.617188
v 1236.529297 129.029175 -12470.503906
v 934.338379 -47.836788 -12572.222656
v 1376.633789 127.624878 -12912.113281
v 1031.309082 -47.836788 -12877.542969
v 1371.007324 159.438965 -13356.203125
v 988.077148 -47.836788 -13165.710938
v 1558.519531 202.660522 -12362.886719
v 1744.670410 202.331421 -12949.386719
v 1661.594238 202.299194 -13502.953125
v -4882.065430 -943.836060 -19062.673828
v -4569.644043 -1045.336060 -19046.132813
v -4921.037598 -944.855225 -18463.281250
v -4599.341309 -1046.977661 -18588.117188
v -4695.352051 -945.326660 -17951.857422
v -4426.865723 -1047.738403 -18197.341797
v -4651.726563 -942.855347 -19611.740234
v -4393.709961 -1043.756836 -19465.708984
v -4277.958496 -1222.680420 -18712.689453
v -4257.283691 -1222.680420 -19029.361328
v -4317.390137 -942.497803 -20001.228516
v -4138.244141 -1043.181152 -19763.353516
v -4261.996582 -945.049805 -17638.472656
v -4095.742920 -1047.293335 -17957.865234
v -4158.747559 -1222.680420 -18442.470703
v -4135.511719 -1222.680420 -19319.419922
v -3958.865479 -1222.680420 -19525.171875
v -3929.782471 -1222.680420 -18276.916016
v -3892.510498 -942.956909 -20266.367188
v -3813.559082 -1043.922119 -19965.927734
v -3718.755371 -944.054321 -17591.099609
v -3680.648682 -1045.688843 -17921.583984
v -3734.411621 -1222.680420 -19665.275391
v -3642.760254 -1222.680420 -18251.970703
v -3389.389160 -944.126343 -20438.333984
v -3429.106934 -1045.808472 -20097.236328
v -3468.607666 -1222.680420 -19756.242188
v -3281.457031 -1043.837402 -18033.412109
v -3366.785156 -1222.680420 -18329.460938
v -3196.363037 -942.904663 -17737.576172
v -2980.138428 -1042.724854 -18228.730469
v -3158.530273 -1222.680420 -18464.574219
v -2802.098145 -942.212158 -17993.244141
v -3047.271240 -1047.360474 -20058.464844
v -2742.175781 -1047.218750 -19767.679688
v -3204.601318 -1222.680420 -19729.593750
v -2993.682617 -1222.680420 -19528.539063
v -2761.856689 -1042.764404 -18511.742188
v -3007.639160 -1222.680420 -18660.226563
v -2608.028564 -1044.030029 -18892.160156
v -2901.174072 -1222.680420 -18923.179688
v -2581.915039 -1045.814453 -19332.978516
v -2882.964600 -1222.680420 -19227.929688
v -2490.429199 -945.004272 -20007.169922
v -2889.687744 -945.089478 -20387.718750
v -2516.460938 -942.235962 -18363.599609
v -2315.062500 -943.024414 -18861.390625
v -2280.763672 -944.134521 -19438.250000
v 2681.505859 -2809.011963 -18492.939453
v 2817.008789 -2808.540527 -19035.275391
v 3044.131348 -2911.423828 -18522.103516
v 3147.644043 -2910.663086 -18936.517578
v 2831.495117 -2808.735107 -17979.607422
v 3158.722656 -2910.978516 -18129.853516
v 3215.484863 -2807.521484 -19484.728516
v 3452.066895 -2909.021484 -19280.009766
v 3231.449219 -2807.739746 -17608.943359
v 3464.278809 -2909.374023 -17846.560547
v 3406.248047 -3086.365723 -18551.212891
v 3477.869629 -3086.365723 -18837.744141
v 3485.509277 -3086.365723 -18280.009766
v 3688.459473 -3086.365723 -19075.146484
v 3696.877930 -3086.365723 -18084.236328
v 3734.215332 -2806.540527 -19777.041016
v 3848.397461 -2907.442139 -19503.435547
v 3733.855469 -2806.589844 -17404.158203
v 3848.134766 -2907.522705 -17689.990234
v 3962.563477 -3086.365723 -19229.513672
v 3962.360352 -3086.365723 -17976.134766
v 4202.059082 -2805.897461 -17364.205078
v 4205.915039 -2906.410156 -17659.396484
v 4237.184082 -2806.183105 -19879.533203
v 4232.737305 -2906.866455 -19581.779297
v 4209.711426 -3086.365723 -17955.083984
v 4228.285156 -3086.365723 -19283.638672
v 4551.912598 -2906.449707 -17748.994141
v 4448.898438 -3086.365723 -18017.033203
v 4613.420898 -2907.607422 -19542.580078
v 4491.490723 -3086.365723 -19256.591797
v 4654.831543 -2805.921387 -17481.462891
v 4735.375000 -2806.642090 -19828.279297
v 4906.763672 -2907.715332 -17955.056641
v 4694.286621 -3086.365723 -18159.384766
v 4997.586426 -2909.493652 -19410.435547
v 4757.208008 -3086.365723 -19165.373047
v 5119.253418 -2806.709717 -17751.037109
v 5238.200195 -2807.811523 -19655.447266
v 5197.807129 -2909.499756 -18287.166016
v 4895.616211 -3086.365723 -18388.884766
v 5337.911621 -2910.904053 -18728.775391
v 4992.586914 -3086.365723 -18694.205078
v 5275.351074 -2911.045898 -19145.580078
v 4949.354980 -3086.365723 -18982.373047
v 5500.214844 -2807.819824 -18185.560547
v 5683.639648 -2808.689453 -18763.474609
v 5601.780273 -2808.774902 -19308.931641
v -1248.128418 355.158569 -13249.378906
v -1393.600586 355.158569 -12667.394531
v -1142.996582 588.893311 -13218.066406
v -1278.460938 588.907837 -12676.359375
v -1232.611328 355.158569 -12116.535156
v -1128.585938 588.895203 -12163.632813
v -803.961914 871.386108 -13116.753906
v -906.644531 871.232849 -12706.257813
v -793.060547 871.316101 -12317.722656
v -783.523438 352.402954 -13699.257813
v -744.752441 588.855408 -13666.792969
v -803.294434 355.158569 -11718.906250
v -728.870605 588.859741 -11793.632813
v -502.127441 871.706543 -13456.746094
v -490.110840 871.631714 -12037.394531
v -519.578613 1116.222168 -12737.402344
v -451.083984 1116.222168 -13011.425781
v -443.777344 1116.222168 -12478.035156
v -264.064941 355.158569 -11499.332031
v -226.872070 588.815735 -11589.410156
v -249.687500 1116.222168 -13238.464844
v -246.487793 352.402954 -14001.695313
v -226.466309 588.817200 -13958.507813
v -241.636230 1116.222168 -12290.812500
v -109.344238 872.012207 -13677.746094
v -109.661133 871.991333 -11882.710938
v -260.656250 1260.865967 -12758.265625
v -215.107910 1260.163086 -12941.140625
v -210.131836 1260.471191 -12585.156250
v -80.992683 1258.673096 -13092.917969
v -75.517090 1259.008667 -12459.898438
v 12.450680 1116.222168 -13386.089844
v 12.256840 1116.222168 -12187.429688
v -85.509773 1327.486450 -12772.371094
v -55.459469 1326.401611 -12893.539063
v -52.082031 1326.875977 -12657.652344
v 33.174320 1324.100708 -12994.312500
v 36.884281 1324.617798 -12574.417969
v 93.759277 1257.246704 -13191.765625
v 93.686043 1257.333374 -12390.496094
v 238.336914 355.158569 -11456.585938
v 240.738770 588.781311 -11549.714844
v 274.124512 352.402954 -14107.738281
v 275.877441 588.802307 -14060.789063
v 244.678711 872.195007 -11852.671875
v 148.813477 1321.897339 -13060.058594
v 148.809082 1322.030273 -12528.113281
v 271.314941 872.122253 -13755.234375
v 251.949707 1352.845581 -12800.832031
v 251.812988 1352.845581 -12800.289063
v 251.963867 1352.845581 -12799.769531
v 248.809570 1116.222168 -12167.300781
v 266.572266 1116.222168 -13437.855469
v 252.350098 1352.845581 -12801.285156
v 252.366211 1352.845581 -12799.398438
v 251.605957 1256.358765 -12376.835938
v 263.408203 1256.730591 -13226.425781
v 252.871582 1352.845581 -12801.578125
v 252.871582 1352.845581 -12799.195313
v 253.485352 1320.522949 -12518.882813
v 261.264648 1321.099976 -13083.117188
v 253.342285 1352.845581 -12799.152344
v 253.376953 1352.845581 -12801.683594
v 253.796875 1352.845581 -12799.269531
v 354.832031 1320.598145 -12545.140625
v 253.877930 1352.845581 -12801.632813
v 372.569824 1322.160889 -13071.421875
v 404.399414 1256.407959 -12416.414063
v 254.263672 1352.845581 -12799.542969
v 458.552734 1322.298828 -12605.765625
v 431.394531 1257.418213 -13208.988281
v 254.383789 1352.845581 -12801.457031
v 484.478027 1324.844971 -13032.207031
v 477.554688 1116.222168 -12226.542969
v 518.287109 1116.222168 -13411.988281
v 254.646973 1352.845581 -12799.980469
v 543.351074 1324.737427 -12703.203125
v 587.287109 872.182251 -11941.406250
v 254.831543 1352.845581 -12800.562500
v 583.849121 1326.753052 -12832.332031
v 254.749512 1352.845581 -12801.109375
v 565.345215 1327.022949 -12954.273438
v 648.392578 871.971741 -13716.570313
v 692.888672 588.778809 -11666.824219
v 560.978516 1257.507202 -12507.562500
v 600.668457 1259.157349 -13150.324219
v 724.156738 355.158569 -11582.406250
v 773.481445 588.815613 -14009.726563
v 789.805664 352.402954 -14054.753906
v 712.230957 1116.222168 -12362.675781
v 689.237793 1259.084473 -12654.304688
v 772.404785 1116.222168 -13324.750000
v 750.778320 1260.390869 -12849.183594
v 723.035156 1260.567749 -13033.152344
v 938.862793 871.954102 -12145.199219
v 904.771484 1116.222168 -12582.160156
v 1029.214355 871.593018 -13586.085938
v 997.508301 1116.222168 -12874.148438
v 1156.833496 588.820313 -11935.824219
v 956.164063 1116.222168 -13149.738281
v 1275.951660 588.852417 -13837.425781
v 1227.409180 871.621948 -12473.859375
v 1222.571777 355.158569 -11871.539063
v 1310.409180 352.402954 -13876.023438
v 1366.489746 871.335510 -12911.261719
v 1304.617188 871.289307 -13324.085938
v 1537.554443 588.872131 -12369.593750
v 1631.498779 355.158569 -12337.683594
v 1721.006348 588.896606 -12946.812500
v 1639.320068 588.887817 -13491.597656
v 1828.457764 355.158569 -12957.828125
v 1686.871826 352.402954 -13517.488281
v -4925.742188 -772.687622 -19066.394531
v -4966.067383 -772.687622 -18448.740234
v -4868.696777 -545.516724 -19061.871094
v -4907.569336 -545.479248 -18468.697266
v -4733.550781 -772.687622 -17921.689453
v -4684.310059 -545.464844 -17962.492188
v -4704.638184 -303.138153 -19050.634766
v -4738.883301 -303.506378 -18529.291016
v -4688.230469 -772.687622 -19632.138672
v -4640.459961 -545.554565 -19605.148438
v -4542.686523 -303.682587 -18084.357422
v -4503.964844 -302.786896 -19528.103516
v -4410.194824 -69.412956 -19034.585938
v -4435.569824 -69.412956 -18645.900391
v -4289.250977 -69.412956 -18314.234375
v -4343.688477 -772.687622 -20033.447266
v -4309.558594 -545.569336 -19990.507813
v -4286.958496 -772.687622 -17598.773438
v -4255.399414 -545.477417 -17652.396484
v -4260.729492 -69.412956 -19390.603516
v -4213.125977 -302.660492 -19866.781250
v -4165.697754 -303.586761 -17811.816406
v -4195.485352 92.874222 -19022.382813
v -4130.040527 81.065628 -18763.324219
v -4043.915771 -69.412956 -19643.146484
v -4008.213379 -69.412956 -18111.027344
v -4082.381104 90.788834 -19293.212891
v -4033.287598 81.958023 -18544.505859
v -3905.906250 -772.687622 -20306.720703
v -3889.162109 -545.556152 -20253.000000
v -3917.606689 90.034416 -19485.365234
v -3843.651855 -302.833344 -20097.519531
v -3847.817383 81.456734 -18410.298828
v -3886.966553 153.730621 -19009.195313
v -3861.751953 151.558029 -18874.492188
v -3829.319580 151.239624 -19148.091797
v -3727.141357 -772.687622 -17550.128906
v -3717.744873 -545.512451 -17605.833984
v -3768.419434 -69.412956 -19815.109375
v -3811.153076 152.642822 -18760.367188
v -3693.133301 -303.224091 -17770.974609
v -3744.915039 150.338135 -19246.667969
v -3655.926270 -69.412956 -18080.416016
v -3708.033691 91.039627 -19615.884766
v -3714.379883 152.032425 -18690.275391
v -3615.304688 79.600128 -18389.550781
v -3637.429199 151.537537 -19313.417969
v -3562.071533 178.001923 -18990.460938
v -3562.109863 178.001923 -18989.857422
v -3561.839355 178.001923 -18991.013672
v -3561.884766 178.001923 -18989.345703
v -3593.060059 149.774231 -18679.119141
v -3561.505127 178.001923 -18991.406250
v -3561.446777 178.001923 -18989.027344
v -3387.459961 -772.687622 -20484.136719
v -3391.269043 -545.519653 -20423.587891
v -3406.050537 -303.268585 -20247.568359
v -3561.078125 178.001923 -18991.673828
v -3442.168701 -69.412956 -19926.759766
v -3560.901367 178.001923 -18988.980469
v -3475.070313 79.788834 -19608.363281
v -3520.411865 150.001328 -19315.226563
v -3560.570801 178.001923 -18991.845703
v -3560.377686 178.001923 -18989.130859
v -3476.263672 147.186737 -18711.210938
v -3391.616699 77.473328 -18451.744141
v -3559.979492 178.001923 -18989.386719
v -3387.934814 145.679321 -18768.134766
v -3317.191162 -69.412956 -18175.523438
v -3238.808105 -302.810883 -17898.796875
v -3200.818115 -545.556152 -17751.154297
v -3559.668457 178.001923 -18991.412109
v -3319.321777 151.909424 -19218.337891
v -3560.068848 178.001923 -18991.794922
v -3408.739990 152.179321 -19303.289063
v -3188.860840 -772.687622 -17701.265625
v -3559.692383 178.001923 -18989.757813
v -3324.006104 145.754532 -18851.042969
v -3559.491455 178.001923 -18990.259766
v -3279.284912 147.455231 -18962.548828
v -3559.457275 178.001923 -18990.839844
v -3272.090088 149.893829 -19091.517578
v -3222.650146 76.236023 -18561.033203
v -3261.137207 81.579330 -19586.187500
v -3090.050049 81.354927 -19423.351563
v -3100.285889 76.298431 -18719.708984
v -3061.581787 -69.412956 -18341.367188
v -3014.288574 77.693916 -18933.033203
v -2999.980225 79.696426 -19180.042969
v -2896.051270 -302.576874 -18121.333984
v -2859.241455 -69.412956 -19647.275391
v -3118.124268 -69.412956 -19894.050781
v -2876.374268 -69.412956 -18581.507813
v -2810.798828 -545.590332 -18004.310547
v -2782.673828 -772.687622 -17964.804688
v -2745.695068 -69.412956 -18904.255859
v -2723.345947 -69.412956 -19278.308594
v -2624.224854 -303.564484 -19872.898438
v -2971.407227 -303.617584 -20203.941406
v -2647.672119 -302.591583 -18443.394531
v -2501.704590 -545.475952 -19997.218750
v -2896.746338 -545.484619 -20373.845703
v -2528.185059 -545.592651 -18370.765625
v -2472.267090 -302.853668 -18876.195313
v -2461.141602 -772.687622 -20040.015625
v -2872.528564 -772.687622 -20432.164063
v -2442.092285 -303.235382 -19377.886719
v -2488.364014 -772.687622 -18346.414063
v -2328.663574 -545.551514 -18863.242188
v -2294.411133 -545.500244 -19434.058594
v -2280.709229 -772.687622 -18859.294922
v -2245.189209 -772.687622 -19453.691406
v 2595.416504 -2627.811768 -18486.439453
v 2639.013672 -2398.205078 -18489.255859
v 2738.383789 -2627.811768 -19058.400391
v 2778.434570 -2398.219971 -19046.787109
v 2753.633301 -2627.811768 -17945.068359
v 2793.266113 -2398.217773 -17961.556641
v 3021.826660 -2132.909668 -18974.408203
v 2905.687500 -2133.083008 -18510.115234
v 3034.156738 -2132.988770 -18070.666016
v 3158.753418 -2627.811768 -19532.294922
v 3188.310547 -2398.258789 -19508.619141
v 3175.558594 -2627.811768 -17554.283203
v 3204.656250 -2398.254395 -17580.748047
v 3363.216309 -2132.547119 -19358.955078
v 3376.807617 -2132.631836 -17753.599609
v 3253.375000 -1922.306763 -18537.884766
v 3338.874512 -1922.306763 -18879.939453
v 3347.995605 -1922.306763 -18214.123047
v 3590.271973 -1922.306763 -19163.345703
v 3600.322266 -1922.306763 -17980.419922
v 3705.908691 -2627.811768 -19840.431641
v 3721.734375 -2398.298340 -19808.853516
v 3705.503418 -2627.811768 -17338.490234
v 3721.316406 -2398.299805 -17370.560547
v 3654.623535 -1778.057373 -18785.556641
v 3600.013672 -1777.214600 -18566.298828
v 3660.589844 -1777.687988 -18358.751953
v 3807.473145 -2132.201416 -19608.916016
v 3807.114746 -2132.225098 -17578.646484
v 3815.419922 -1779.843750 -18967.529297
v 3821.984863 -1779.441406 -18208.576172
v 3917.491699 -1922.306763 -19347.619141
v 3917.249512 -1922.306763 -17851.369141
v 3875.768066 -1711.042480 -18589.033203
v 3905.818359 -1712.127319 -18710.201172
v 3909.195801 -1711.652954 -18474.314453
v 4024.937012 -1781.553955 -19086.041016
v 4024.849121 -1781.449951 -18125.365234
v 3994.452148 -1714.428223 -18810.974609
v 3998.162109 -1713.911133 -18391.080078
v 4199.254883 -2627.811768 -17296.478516
v 4202.584961 -2398.335205 -17329.705078
v 4236.331055 -2627.811768 -19948.474609
v 4238.750000 -2398.313477 -19914.123047
v 4207.890137 -2131.994629 -17544.669922
v 4110.091309 -1716.631592 -18876.720703
v 4110.086914 -1716.498657 -18344.775391
v 4238.017090 -2132.077148 -19696.560547
v 4212.531738 -1922.306763 -17826.240234
v 4234.704102 -1922.306763 -19412.240234
v 4213.227539 -1685.683350 -18617.494141
v 4213.090820 -1685.683350 -18616.951172
v 4213.241699 -1685.683350 -18616.431641
v 4213.627930 -1685.683350 -18617.947266
v 4213.644043 -1685.683350 -18616.060547
v 4214.186035 -1782.618530 -18108.990234
v 4228.335938 -1782.172729 -19127.595703
v 4214.149414 -1685.683350 -18618.240234
v 4214.149414 -1685.683350 -18615.857422
v 4214.763184 -1718.005981 -18335.544922
v 4222.542480 -1717.428955 -18899.779297
v 4214.620117 -1685.683350 -18615.814453
v 4214.654785 -1685.683350 -18618.345703
v 4215.074707 -1685.683350 -18615.931641
v 4316.109863 -1717.930786 -18361.802734
v 4215.155762 -1685.683350 -18618.294922
v 4333.847656 -1716.368164 -18888.083984
v 4397.375977 -1782.559570 -18156.439453
v 4215.541504 -1685.683350 -18616.205078
v 4419.830566 -1716.230103 -18422.427734
v 4215.661621 -1685.683350 -18618.119141
v 4445.755859 -1713.683960 -18848.869141
v 4429.741699 -1781.348267 -19106.689453
v 4498.067383 -1922.306763 -17900.193359
v 4215.924805 -1685.683350 -18616.642578
v 4504.628906 -1713.791504 -18519.865234
v 4548.912598 -1922.306763 -19379.951172
v 4216.109375 -1685.683350 -18617.224609
v 4545.126953 -1711.775879 -18648.994141
v 4216.027344 -1685.683350 -18617.771484
v 4526.623047 -1711.505981 -18770.935547
v 4595.396973 -2132.009277 -17645.033203
v 4667.941406 -2398.337646 -17450.236328
v 4664.510254 -2132.247070 -19652.830078
v 4585.104980 -1781.241577 -18265.720703
v 4676.709961 -2627.811768 -17420.134766
v 4632.690918 -1779.263184 -19036.357422
v 4750.887695 -2398.299805 -19861.568359
v 4761.729492 -2627.811768 -19894.490234
v 4738.880371 -1779.350464 -18441.658203
v 4791.006836 -1922.306763 -18070.123047
v 4866.120117 -1922.306763 -19271.052734
v 4812.664063 -1777.784058 -18675.306641
v 4779.401367 -1777.572266 -18895.873047
v 4993.046387 -2132.267090 -17875.533203
v 5031.349609 -1922.306763 -18344.099609
v 5095.238281 -2132.675537 -19505.244141
v 5145.436523 -2398.294922 -17727.091797
v 5166.542969 -2627.811768 -17704.291016
v 5147.110352 -1922.306763 -18708.580078
v 5268.033691 -2398.261963 -19684.236328
v 5095.501465 -1922.306763 -19052.591797
v 5292.143066 -2627.811768 -19712.392578
v 5319.406250 -2132.642822 -18247.263672
v 5476.713379 -2132.966797 -18741.986328
v 5537.277344 -2398.241699 -18173.533203
v 5406.732422 -2133.019043 -19208.912109
v 5568.428711 -2627.811768 -18162.404297
v 5726.087402 -2398.216553 -18767.607422
v 5642.015625 -2398.225586 -19328.306641
v 5761.996582 -2627.811768 -18771.873047
v 5675.699219 -2627.811768 -19347.103516
v -710.516602 142.370850 -12721.193359
v -372.982910 142.370850 -13347.833984
v -334.653320 -474.567139 -12753.488281
v -130.853027 -474.567139 -13131.849609
v -362.914063 142.370850 -12162.673828
v -124.772949 -474.567139 -12416.254883
v -79.812263 -1258.490479 -12775.382813
v 33.315922 -1258.490479 -12985.408203
v 36.690430 -1258.490479 -12588.189453
v -124.772949 -474.567139 -12416.255859
v 250.451416 142.370850 -12008.203125
v 245.573242 -474.567139 -12322.988281
v 272.666260 142.370850 -13597.199219
v 258.986572 -474.567139 -13282.414063
v 79.505623 -2458.490479 -12789.070313
v 135.947998 -2458.490479 -12893.857422
v 137.631592 -2458.490479 -12695.675781
v 242.266113 -1258.490479 -12536.417969
v 249.711670 -1258.490479 -13068.984375
v 240.198242 -2458.490479 -12669.845703
v 135.947998 -2458.490479 -12893.856445
v 243.913086 -2458.490479 -12935.556641
v 227.920410 -11458.490234 -12811.816406
v 222.276123 -11458.490234 -12801.337891
v 228.088867 -11458.490234 -12791.998047
v 238.345459 -11458.490234 -12789.414063
v 238.716797 -11458.490234 -12815.986328
v 243.913086 -2458.490479 -12935.557617
v 248.036865 -11458.490234 -12793.501953
v 337.113281 -2458.490479 -12710.705078
v 249.295410 -11458.490234 -12813.621094
v 349.697754 -2458.490479 -12911.902344
v 254.002930 -11458.490234 -12804.197266
v 337.113281 -2458.490479 -12710.706055
v 396.773438 -2458.490479 -12817.669922
v 436.514160 -1258.490479 -12618.314453
v 461.736816 -1258.490479 -13021.576172
v 595.512939 -474.567139 -12470.526367
v 640.952148 -474.567139 -13197.007813
v 556.091309 -1258.490479 -12832.703125
v 830.019043 142.370850 -12252.554688
v 905.274902 142.370850 -13455.748047
v 810.932861 -474.567139 -12856.750000
v 1186.795898 142.370850 -12892.216797
v 595.512939 -474.567139 -12470.525391
v -4273.346191 -1032.472778 -18336.539063
v -4391.198242 -1032.472778 -19038.478516
v -3996.326172 -1649.410767 -18592.617188
v -4067.484619 -1649.410767 -19016.443359
v -4034.281738 -1032.472778 -19631.484375
v -3851.979736 -1649.410767 -19374.496094
v -3808.501221 -2433.333984 -18766.240234
v -3848.000488 -2433.333984 -19001.503906
v -3656.208740 -1032.472778 -18108.695313
v -3623.701172 -1649.410767 -18455.044922
v -3728.375488 -2433.333984 -19200.253906
v -3691.079346 -3633.333984 -18874.783203
v -3710.786621 -3633.333984 -18992.162109
v -3601.661133 -2433.333984 -18689.876953
v -3651.103516 -3633.333984 -19091.324219
v -3447.916504 -1032.472778 -19907.849609
v -3497.936279 -1649.410767 -19541.365234
v -3587.882324 -3633.333984 -18836.683594
v -3531.849854 -2433.333984 -19292.880859
v -3587.824951 -12633.333984 -18983.792969
v -3585.854248 -12633.333984 -18972.054688
v -3581.856689 -12633.333984 -18993.708984
v -3553.051270 -3633.333984 -19137.537109
v -3575.534180 -12633.333984 -18968.244141
v -3572.051514 -12633.333984 -18998.330078
v -3565.849121 -12633.333984 -18972.496094
v -3491.036621 -3633.333984 -18879.205078
v -3562.552734 -12633.333984 -18993.775391
v -3458.066895 -3633.333984 -19091.998047
v -3407.552002 -2433.333984 -18775.101563
v -3560.703125 -12633.333984 -18981.669922
v -3439.564941 -3633.333984 -18970.925781
v -3274.011719 -1649.410767 -18608.578125
v -3341.470703 -2433.333984 -19201.603516
v -3304.387451 -2433.333984 -18958.939453
v -3077.053711 -1032.472778 -18362.974609
v -3154.965576 -1649.410767 -19376.927734
v -3088.159668 -1649.410767 -18939.763672
v -2879.891357 -1032.472778 -19635.509766
v -2769.248047 -1032.472778 -18911.482422
v 3250.761230 -2896.158203 -18537.855469
v 3588.294922 -2896.158203 -19164.496094
v 3626.624512 -3513.096191 -18570.150391
v 3830.424805 -3513.096191 -18948.511719
v 3598.363770 -2896.158203 -17979.335938
v 3836.504883 -3513.096191 -18232.917969
v 3881.465576 -4297.019531 -18592.044922
v 3994.593750 -4297.019531 -18802.070313
v 3997.968262 -4297.019531 -18404.851563
v 4211.729492 -2896.158203 -17824.865234
v 4206.851074 -3513.096191 -18139.650391
v 4233.944336 -2896.158203 -19413.861328
v 4220.264648 -3513.096191 -19099.076172
v 4040.783447 -5497.019531 -18605.732422
v 4097.225586 -5497.019531 -18710.519531
v 4098.909180 -5497.019531 -18512.337891
v 4203.543945 -4297.019531 -18353.080078
v 4210.989258 -4297.019531 -18885.646484
v 4201.476074 -5497.019531 -18486.507813
v 4205.190918 -5497.019531 -18752.218750
v 4189.198242 -14497.019531 -18628.478516
v 4183.553711 -14497.019531 -18618.000000
v 4189.366699 -14497.019531 -18608.660156
v 4199.623047 -14497.019531 -18606.076172
v 4199.994629 -14497.019531 -18632.648438
v 4209.314453 -14497.019531 -18610.164063
v 4298.391113 -5497.019531 -18527.367188
v 4210.573242 -14497.019531 -18630.283203
v 4310.975586 -5497.019531 -18728.564453
v 4215.280762 -14497.019531 -18620.859375
v 4358.051270 -5497.019531 -18634.332031
v 4397.791992 -4297.019531 -18434.976563
v 4423.014648 -4297.019531 -18838.238281
v 4556.791016 -3513.096191 -18287.187500
v 4602.229980 -3513.096191 -19013.669922
v 4517.369141 -4297.019531 -18649.365234
v 4791.296875 -2896.158203 -18069.216797
v 4866.552734 -2896.158203 -19272.410156
v 4772.210938 -3513.096191 -18673.412109
v 5148.073730 -2896.158203 -18708.878906
# 605 vertices

vt 2.15240 -2.50010
vt 2.76430 -2.00200
vt 2.15240 -2.00200
vt 2.76430 -2.50010
vt 1.54050 -2.50010
vt 1.54050 -2.00200
vt 3.37620 -2.50010
vt 3.37620 -2.00200
vt 0.92860 -2.50010
vt 0.92860 -2.00200
vt 2.76430 -2.99810
vt 2.15240 -2.99810
vt 1.54050 -2.99810
vt 3.37620 -2.99810
vt 0.92860 -2.99810
vt 3.98810 -2.50010
vt 3.98810 -2.00200
vt 0.31670 -2.00200
vt 0.31670 -2.50010
vt 3.98810 -2.99810
vt 0.31670 -2.99810
vt -0.29510 -2.00200
vt -0.29510 -2.50010
vt 4.60000 -2.50010
vt 4.60000 -2.00200
vt -0.29510 -2.99810
vt 4.60000 -2.99810
vt -0.90700 -2.50010
vt -0.90700 -2.99810
vt 5.21190 -2.99810
vt 5.21190 -2.50010
vt -0.90700 -2.00200
vt 5.21190 -2.00200
vt -1.51890 -2.99810
vt -1.51890 -2.50010
vt 5.82380 -2.99810
vt 5.82380 -2.50010
vt -1.51890 -2.00200
vt 5.82380 -2.00200
vt -2.13080 -2.99810
vt -2.13080 -2.50010
vt -2.74260 -2.99810
vt -2.74260 -2.50010
vt -3.35450 -2.99810
vt -3.35450 -2.50010
vt -2.13080 -2.00200
vt -2.74260 -2.00200
vt -3.35450 -2.00200
vt -0.16700 -2.49770
vt 0.50320 -3.00000
vt 0.50320 -2.50010
vt -0.16700 -3.00000
vt 0.50320 -2.00010
vt -0.16700 -2.00010
vt 2.76430 -1.00200
vt 3.37620 -1.50010
vt 3.37620 -1.00200
vt 2.76430 -1.50010
vt 2.15240 -1.50010
vt 2.15240 -1.00200
vt 3.98810 -1.50010
vt 3.98810 -1.00200
vt 2.76430 -1.99810
vt 3.37620 -1.99810
vt 4.60000 -1.50010
vt 4.60000 -1.00200
vt 1.54050 -1.00200
vt 1.54050 -1.50010
vt 2.15240 -1.99810
vt 3.98810 -1.99810
vt 4.60000 -1.99810
vt 1.54050 -1.99810
vt 5.21190 -1.50010
vt 5.21190 -1.00200
vt 0.92860 -1.50010
vt 0.92860 -1.00200
vt 5.21190 -1.99810
vt 0.92860 -1.99810
vt 5.82380 -1.00200
vt 5.82380 -1.50010
vt 5.82380 -1.99810
vt 0.31670 -1.50010
vt 0.31670 -1.99810
vt 0.31670 -1.00200
vt -0.29510 -1.50010
vt -0.29510 -1.99810
vt -0.29510 -1.00200
vt -3.35450 -1.99810
vt -2.74260 -1.50010
vt -3.35450 -1.50010
vt -2.74260 -1.99810
vt -0.90700 -1.50010
vt -0.90700 -1.99810
vt -1.51890 -1.99810
vt -1.51890 -1.50010
vt -2.13080 -1.50010
vt -2.13080 -1.99810
vt -3.35450 -1.00200
vt -2.74260 -1.00200
vt -0.90700 -1.00200
vt -1.51890 -1.00200
vt -2.13080 -1.00200
vt -0.16700 -1.49770
vt 0.50320 -2.00000
vt 0.50320 -1.50010
vt -0.16700 -2.00000
vt 0.50320 -1.00010
vt -0.16700 -1.00010
vt 0.07270 -2.74500
vt 0.44520 -3.00000
vt 0.07270 -3.00000
vt 0.44520 -2.74500
vt 0.75020 -3.00000
vt 0.75020 -2.74500
vt 0.07270 -2.23760
vt 0.44520 -2.23760
vt 0.75020 -2.23760
vt -0.26490 -2.74500
vt -0.26490 -3.00000
vt 1.21030 -2.74500
vt 1.21030 -3.00000
vt -0.26490 -2.23760
vt 1.21030 -2.23760
vt 0.44520 -1.86890
vt 0.07270 -1.86890
vt 0.75020 -1.86890
vt 1.62120 -2.74500
vt 1.62120 -3.00000
vt -0.26490 -1.86890
vt -0.56760 -2.74500
vt -0.56760 -3.00000
vt 1.21030 -1.86890
vt -0.56760 -2.23760
vt 1.62120 -2.23760
vt 0.44520 -1.54830
vt 0.07270 -1.54830
vt 0.75020 -1.54830
vt -0.26490 -1.54830
vt 1.21030 -1.54830
vt -0.56760 -1.86890
vt 1.62120 -1.86890
vt 0.44520 -1.28390
vt 0.07270 -1.28390
vt 0.75020 -1.28390
vt -0.26490 -1.28390
vt 1.21030 -1.28390
vt -0.56760 -1.54830
vt 1.62120 -1.54830
vt 1.97050 -3.00000
vt 1.97050 -2.74500
vt -0.90520 -3.00000
vt -0.90520 -2.74500
vt 1.97050 -2.23760
vt -0.56760 -1.28390
vt 1.62120 -1.28390
vt -0.90520 -2.23760
vt 0.44520 -0.65160
vt 0.07270 -0.65160
vt 0.75020 -0.65160
vt 1.97050 -1.86890
vt -0.90520 -1.86890
vt -0.26490 -0.65160
vt 1.21030 -0.65160
vt 1.97050 -1.54830
vt -0.90520 -1.54830
vt -0.56760 -0.65160
vt 1.62120 -0.65160
vt 1.97050 -1.28390
vt -0.90520 -1.28390
vt 1.97050 -0.65160
vt -0.90520 -0.65160
vt 2.38130 -1.28390
vt 2.38130 -0.65160
vt -1.23120 -0.65160
vt -1.23120 -1.28390
vt 2.38130 -1.54830
vt 2.75520 -0.65160
vt 2.75520 -1.28390
vt -1.23120 -1.54830
vt -1.51290 -0.65160
vt -1.51290 -1.28390
vt 2.38130 -1.86890
vt -1.23120 -1.86890
vt 3.09220 -1.28390
vt 3.09220 -0.65160
vt 2.38130 -2.23760
vt 3.55220 -1.28390
vt 3.55220 -0.65160
vt 3.95080 -1.28390
vt 3.95080 -0.65160
vt -1.23120 -2.23760
vt 2.38130 -2.74500
vt 2.75520 -1.54830
vt -1.51290 -1.54830
vt 2.38130 -3.00000
vt -1.23120 -2.74500
vt -1.23120 -3.00000
vt 2.75520 -1.86890
vt 3.09220 -1.54830
vt -1.51290 -1.86890
vt 3.55220 -1.54830
vt 3.95080 -1.54830
vt 2.75520 -2.23760
vt 3.09220 -1.86890
vt -1.51290 -2.23760
vt 3.55220 -1.86890
vt 2.75520 -2.74500
vt 3.95080 -1.86890
vt -1.51290 -2.74500
vt 3.09220 -2.23760
vt 2.75520 -3.00000
vt -1.51290 -3.00000
vt 3.55220 -2.23760
vt 3.95080 -2.23760
vt 3.09220 -2.74500
vt 3.09220 -3.00000
vt 3.55220 -2.74500
vt 3.95080 -2.74500
vt 3.55220 -3.00000
vt 3.95080 -3.00000
vt -1.51670 -0.65660
vt -1.68750 -1.28750
vt -1.51670 -1.28750
vt -1.51670 -1.55260
vt -1.69840 -1.55260
vt -1.51670 -1.87390
vt -1.83200 -1.87390
vt -1.86860 -2.25880
vt -1.51670 -2.24320
vt -1.95020 -2.74260
vt -1.51670 -2.75130
vt -2.08430 -2.99630
vt -1.51670 -2.99630
vt -0.26490 -1.78760
vt 0.07270 -2.00000
vt -0.26490 -2.00000
vt 0.07270 -1.78760
vt 0.44520 -2.00000
vt 0.44520 -1.78760
vt -0.26490 -1.53510
vt 0.07270 -1.53510
vt -0.56760 -2.00000
vt -0.56760 -1.78760
vt 0.44520 -1.53510
vt -0.56760 -1.53510
vt -0.26490 -1.27520
vt 0.07270 -1.27520
vt 0.44520 -1.27520
vt -0.90520 -1.78760
vt -0.90520 -2.00000
vt 0.75020 -2.00000
vt 0.75020 -1.78760
vt -0.56760 -1.27520
vt -0.90520 -1.53510
vt 0.75020 -1.53510
vt -0.26490 -1.00730
vt 0.07270 -1.00730
vt -0.90520 -1.27520
vt 0.75020 -1.27520
vt -0.56760 -1.00730
vt 0.44520 -1.00730
vt -1.23120 -1.78760
vt -1.23120 -2.00000
vt -0.90520 -1.00730
vt -1.23120 -1.53510
vt 0.75020 -1.00730
vt -0.26490 -0.72610
vt 0.07270 -0.72610
vt -0.56760 -0.72610
vt 1.21030 -1.78760
vt 1.21030 -2.00000
vt -1.23120 -1.27520
vt 0.44520 -0.72610
vt 1.21030 -1.53510
vt -0.90520 -0.72610
vt 1.21030 -1.27520
vt -1.23120 -1.00730
vt 0.75020 -0.72610
vt 1.21030 -1.00730
vt -1.23120 -0.72610
vt 0.07270 -0.14240
vt -0.26490 -0.14240
vt -0.56760 -0.14240
vt 0.44520 -0.14240
vt 1.21030 -0.72610
vt -0.90520 -0.14240
vt 0.75020 -0.14240
vt -1.51290 -2.00000
vt -1.51290 -1.78760
vt -1.51290 -1.53510
vt -1.23120 -0.14240
vt -1.51290 -1.27520
vt 1.21030 -0.14240
vt -1.51290 -1.00730
vt -1.51290 -0.72610
vt -1.51290 -0.14240
vt 1.62120 -0.72610
vt 1.62120 -0.14240
vt 1.62120 -1.00730
vt 1.97050 -0.72610
vt 1.97050 -0.14240
vt 1.62120 -1.27520
vt 1.62120 -1.53510
vt 1.62120 -1.78760
vt 3.95080 -0.14240
vt 3.55220 -0.72610
vt 3.55220 -0.14240
vt 3.95080 -0.72610
vt 1.62120 -2.00000
vt 2.38130 -0.72610
vt 2.38130 -0.14240
vt 2.75520 -0.14240
vt 2.75520 -0.72610
vt 3.09220 -0.72610
vt 3.09220 -0.14240
vt 1.97050 -1.00730
vt 3.55220 -1.00730
vt 3.95080 -1.00730
vt 2.38130 -1.00730
vt 1.97050 -1.27520
vt 2.75520 -1.00730
vt 3.09220 -1.00730
vt 1.97050 -1.53510
vt 3.95080 -1.27520
vt 3.55220 -1.27520
vt 2.38130 -1.27520
vt 1.97050 -1.78760
vt 1.97050 -2.00000
vt 2.75520 -1.27520
vt 3.09220 -1.27520
vt 3.95080 -1.53510
vt 3.55220 -1.53510
vt 2.38130 -1.53510
vt 3.95080 -1.78760
vt 3.55220 -1.78760
vt 2.38130 -1.78760
vt 2.75520 -1.53510
vt 3.95080 -2.00000
vt 3.55220 -2.00000
vt 3.09220 -1.53510
vt 2.38130 -2.00000
vt 2.75520 -1.78760
vt 3.09220 -1.78760
vt 2.75520 -2.00000
vt 3.09220 -2.00000
vt -1.51670 -0.72980
vt -1.51670 -0.14740
vt -1.68750 -0.72980
vt -1.69840 -1.01160
vt -1.51670 -1.01160
vt -1.83200 -1.28020
vt -1.51670 -1.28020
vt -1.86860 -1.55640
vt -1.51670 -1.54070
vt -1.95020 -1.78520
vt -1.51670 -1.79390
vt -2.08430 -1.99630
vt -1.51670 -1.99630
vt 0.47080 -1.99530
vt 0.71400 -1.85220
vt 0.71400 -1.99530
vt 0.47080 -1.85220
vt 0.91300 -1.99530
vt 0.91300 -1.85220
vt 0.47080 -1.63510
vt 0.71400 -1.63510
vt 0.91300 -1.63510
vt 0.25040 -1.85220
vt 0.25040 -1.99530
vt 1.21330 -1.99530
vt 1.21330 -1.85220
vt 0.25040 -1.63510
vt 1.21330 -1.63510
vt 0.71400 -1.32310
vt 0.47080 -1.32310
vt 0.91300 -1.32310
vt 0.25040 -1.32310
vt 1.21330 -1.32310
vt 0.05280 -1.85220
vt 0.05280 -1.99530
vt 1.48150 -1.99530
vt 1.48150 -1.85220
vt 0.47080 -1.11690
vt 0.71400 -1.11690
vt 0.91300 -1.11690
vt 0.05280 -1.63510
vt 1.48150 -1.63510
vt 0.25040 -1.11690
vt 1.21330 -1.11690
vt 0.05280 -1.32310
vt 1.48150 -1.32310
vt 0.71400 -0.94210
vt 0.47080 -0.94210
vt 0.91300 -0.94210
vt 0.05280 -1.11690
vt 1.48150 -1.11690
vt 0.25040 -0.94210
vt 1.21330 -0.94210
vt 1.70940 -1.99530
vt 1.70940 -1.85220
vt -0.16740 -1.99530
vt -0.16740 -1.85220
vt 1.70940 -1.63510
vt 0.05280 -0.94210
vt 1.48150 -0.94210
vt -0.16740 -1.63510
vt 1.70940 -1.32310
vt -0.16740 -1.32310
vt 0.71400 -0.57600
vt 0.47080 -0.57600
vt 0.91300 -0.57600
vt 0.25040 -0.57600
vt 1.21330 -0.57600
vt 1.70940 -1.11690
vt -0.16740 -1.11690
vt 0.05280 -0.57600
vt 1.48150 -0.57600
vt 1.70940 -0.94210
vt -0.16740 -0.94210
vt 1.70940 -0.57600
vt -0.16740 -0.57600
vt 1.97760 -0.94210
vt 1.97760 -0.57600
vt -0.38020 -0.57600
vt -0.38020 -0.94210
vt 1.97760 -1.11690
vt 2.22160 -0.57600
vt 2.22160 -0.94210
vt -0.56410 -0.57600
vt -0.56410 -0.94210
vt -0.38020 -1.11690
vt 1.97760 -1.32310
vt 2.44150 -0.57600
vt 2.44150 -0.94210
vt -0.38020 -1.32310
vt 2.74180 -0.57600
vt 2.74180 -0.94210
vt 3.00200 -0.57600
vt 3.00200 -0.94210
vt 1.97760 -1.63510
vt 1.97760 -1.85220
vt -0.38020 -1.63510
vt 2.22160 -1.11690
vt 1.97760 -1.99530
vt -0.56410 -1.11690
vt -0.38020 -1.85220
vt -0.38020 -1.99530
vt 2.44150 -1.11690
vt 2.22160 -1.32310
vt -0.56410 -1.32310
vt 2.74180 -1.11690
vt 3.00200 -1.11690
vt 2.22160 -1.63510
vt 2.44150 -1.32310
vt -0.56410 -1.63510
vt 2.22160 -1.85220
vt 2.22160 -1.99530
vt 2.74180 -1.32310
vt -0.56410 -1.85220
vt 3.00200 -1.32310
vt -0.56410 -1.99530
vt 2.44150 -1.63510
vt 2.74180 -1.63510
vt 2.44150 -1.85220
vt 3.00200 -1.63510
vt 2.44150 -1.99530
vt 2.74180 -1.85220
vt 3.00200 -1.85220
vt 2.74180 -1.99530
vt 3.00200 -1.99530
vt -1.51670 -0.93750
vt -1.51670 -0.57150
vt -1.68750 -0.93750
vt -1.51670 -1.11320
vt -1.69840 -1.11320
vt -1.51670 -1.32060
vt -1.83200 -1.32060
vt -1.86860 -1.64440
vt -1.51670 -1.63370
vt -1.95020 -1.84650
vt -1.51670 -1.85250
vt -2.08430 -1.98930
vt -1.51670 -1.98930
vt 0.74990 -3.00000
vt 0.44120 -2.50010
vt 0.74990 -2.50010
vt 0.44120 -3.00000
vt 0.06920 -2.50010
vt 0.06920 -3.00000
vt 1.21110 -3.00000
vt 1.21110 -2.50010
vt -0.26810 -3.00000
vt -0.26810 -2.50010
vt 1.61770 -3.00000
vt 1.61770 -2.50010
vt -0.56790 -3.00000
vt -0.56790 -2.50010
vt 1.96940 -2.50010
vt 1.96940 -3.00000
vt -0.90820 -3.00000
vt -0.90820 -2.50010
vt 2.38470 -3.00000
vt 2.38470 -2.50010
vt -1.23110 -3.00000
vt -1.23110 -2.50010
vt 2.75380 -3.00000
vt 2.75380 -2.50010
vt -1.51070 -3.00000
vt -1.51070 -2.50010
vt 3.09220 -2.50010
vt 3.54850 -3.00000
vt 3.54850 -2.50010
vt 3.95060 -3.00000
vt 3.95060 -2.50010
vt 0.48560 -3.00000
vt -0.04830 -2.50010
vt 0.48560 -2.50010
vt -0.04830 -3.00000
vt 0.06920 -1.86650
vt -0.26810 -1.50010
vt 0.06920 -1.50010
vt -0.26810 -1.86650
vt 0.44120 -1.86650
vt 0.44120 -1.50010
vt -0.56790 -1.50010
vt -0.56790 -1.86650
vt -0.90820 -1.86650
vt -0.90820 -1.50010
vt 0.74990 -1.50010
vt 0.74990 -1.86650
vt -1.23110 -1.86650
vt -1.23110 -1.50010
vt 1.21110 -1.86650
vt 1.21110 -1.50010
vt -1.51070 -1.50010
vt -1.51070 -1.86650
vt 1.61770 -1.50010
vt 1.61770 -1.86650
vt 1.96940 -1.86650
vt 1.96940 -1.50010
vt 3.95060 -1.50010
vt 3.54850 -1.86650
vt 3.54850 -1.50010
vt 3.95060 -1.86650
vt 2.38470 -1.50010
vt 2.38470 -1.86650
vt 2.75380 -1.86650
vt 2.75380 -1.50010
vt 3.09220 -1.86650
vt 3.09220 -1.50010
vt 0.48560 -2.00000
vt -0.04830 -1.50010
vt 0.48560 -1.50010
vt -0.04830 -2.00000
vt 0.49990 4.37490
vt 0.37490 4.99990
vt 0.49990 4.99990
vt 0.37490 4.37490
vt 0.62490 4.99990
vt 0.62490 4.37490
vt 0.49990 3.62490
vt 0.37490 3.62490
vt 0.62490 3.62490
vt 0.74990 4.99990
vt 0.74990 4.37490
vt 0.24990 4.99990
vt 0.24990 4.37490
vt 0.49990 2.12490
vt 0.37490 2.12490
vt 0.62490 2.12490
vt 0.74990 3.62490
vt 0.24990 3.62490
vt 0.74990 2.12490
vt 0.24990 2.12490
vt 0.49990 -2.87490
vt 0.37490 -2.87490
vt 0.62490 -2.87490
vt 0.74990 -2.87490
vt 0.24990 -2.87490
vt 0.87490 2.12490
vt 0.87490 -2.87490
vt 0.12490 2.12490
vt 0.12490 -2.87490
vt 0.99990 -2.87490
vt 0.99990 2.12490
vt 0.00000 -2.87490
vt 0.00000 2.12490
vt 0.87490 3.62490
vt 0.12490 3.62490
vt 0.87490 4.37490
vt 0.12490 4.37490
vt 0.99990 3.62490
vt 0.00000 3.62490
vt 0.87490 4.99990
vt 0.12490 4.99990
vt 0.99990 4.37490
vt 0.00000 4.37490
vt 0.99990 4.99990
vt 0.00000 4.99990
# 599 texture vertices

g Object_2
usemtl texture0
f 1/3 2/2 3/1
f 3/1 2/2 4/4
f 5/6 1/3 6/5
f 1/3 3/1 6/5
f 7/8 8/7 2/2
f 8/7 4/4 2/2
f 9/10 5/6 10/9
f 6/5 10/9 5/6
f 4/4 11/11 3/1
f 12/12 3/1 11/11
f 3/1 12/12 6/5
f 6/5 12/12 13/13
f 4/4 8/7 11/11
f 11/11 8/7 14/14
f 6/5 13/13 10/9
f 15/15 10/9 13/13
f 16/17 17/16 7/8
f 17/16 8/7 7/8
f 9/10 10/9 18/18
f 10/9 19/19 18/18
f 8/7 17/16 14/14
f 14/14 17/16 20/20
f 10/9 15/15 19/19
f 21/21 19/19 15/15
f 18/18 19/19 22/22
f 19/19 23/23 22/22
f 24/25 25/24 16/17
f 25/24 17/16 16/17
f 19/19 21/21 23/23
f 26/26 23/23 21/21
f 25/24 27/27 17/16
f 20/20 17/16 27/27
f 23/23 26/26 28/28
f 29/29 28/28 26/26
f 30/31 31/30 25/24
f 27/27 25/24 31/30
f 22/22 23/23 32/32
f 23/23 28/28 32/32
f 33/33 30/31 24/25
f 30/31 25/24 24/25
f 34/35 28/28 35/34
f 35/34 28/28 29/29
f 36/37 37/36 30/31
f 31/30 30/31 37/36
f 38/38 32/32 34/35
f 28/28 34/35 32/32
f 39/39 36/37 33/33
f 36/37 30/31 33/33
f 40/41 34/35 41/40
f 41/40 34/35 35/34
f 42/43 40/41 43/42
f 43/42 40/41 41/40
f 44/45 42/43 45/44
f 42/43 43/42 45/44
f 38/38 34/35 46/46
f 34/35 40/41 46/46
f 47/47 46/46 42/43
f 42/43 46/46 40/41
f 48/48 47/47 44/45
f 47/47 42/43 44/45
f 44/51 45/50 36/49
f 37/52 36/49 45/50
f 39/54 48/53 36/49
f 44/51 36/49 48/53
f 49/57 50/56 51/55
f 50/56 52/58 51/55
f 53/60 51/55 54/59
f 54/59 51/55 52/58
f 55/62 56/61 49/57
f 56/61 50/56 49/57
f 52/58 50/56 57/63
f 57/63 50/56 58/64
f 59/66 60/65 55/62
f 60/65 56/61 55/62
f 53/60 54/59 61/67
f 61/67 54/59 62/68
f 54/59 52/58 63/69
f 63/69 52/58 57/63
f 50/56 56/61 58/64
f 58/64 56/61 64/70
f 60/65 65/71 56/61
f 64/70 56/61 65/71
f 54/59 63/69 62/68
f 62/68 63/69 66/72
f 67/74 68/73 59/66
f 68/73 60/65 59/66
f 69/76 61/67 70/75
f 62/68 70/75 61/67
f 68/73 71/77 60/65
f 65/71 60/65 71/77
f 62/68 66/72 70/75
f 72/78 70/75 66/72
f 67/74 73/79 68/73
f 73/79 74/80 68/73
f 74/80 75/81 68/73
f 71/77 68/73 75/81
f 70/75 72/78 76/82
f 77/83 76/82 72/78
f 78/84 69/76 76/82
f 69/76 70/75 76/82
f 76/82 77/83 79/85
f 80/86 79/85 77/83
f 78/84 76/82 81/87
f 76/82 79/85 81/87
f 82/90 83/89 84/88
f 83/89 85/91 84/88
f 79/85 80/86 86/92
f 87/93 86/92 80/86
f 88/95 86/92 89/94
f 89/94 86/92 87/93
f 83/89 90/96 85/91
f 85/91 90/96 91/97
f 92/99 83/89 93/98
f 93/98 83/89 82/90
f 94/100 81/87 86/92
f 81/87 79/85 86/92
f 90/96 88/95 91/97
f 91/97 88/95 89/94
f 95/101 94/100 88/95
f 86/92 88/95 94/100
f 96/102 90/96 92/99
f 83/89 92/99 90/96
f 95/101 88/95 96/102
f 88/95 90/96 96/102
f 82/105 84/104 74/103
f 75/106 74/103 84/104
f 73/108 93/107 74/103
f 82/105 74/103 93/107
f 97/3 98/2 99/1
f 99/1 98/2 100/4
f 97/3 99/1 101/6
f 101/6 99/1 102/5
f 103/8 104/7 98/2
f 104/7 100/4 98/2
f 105/10 101/6 106/9
f 102/5 106/9 101/6
f 99/1 100/4 107/12
f 107/12 100/4 108/11
f 99/1 107/12 102/5
f 102/5 107/12 109/13
f 100/4 104/7 108/11
f 108/11 104/7 110/14
f 102/5 109/13 106/9
f 111/15 106/9 109/13
f 103/8 112/17 104/7
f 113/16 104/7 112/17
f 105/10 106/9 114/18
f 106/9 115/19 114/18
f 104/7 113/16 110/14
f 110/14 113/16 116/20
f 106/9 111/15 115/19
f 117/21 115/19 111/15
f 114/18 115/19 118/22
f 115/19 119/23 118/22
f 120/25 121/24 112/17
f 121/24 113/16 112/17
f 115/19 117/21 119/23
f 122/26 119/23 117/21
f 121/24 123/27 113/16
f 116/20 113/16 123/27
f 119/23 122/26 124/28
f 125/29 124/28 122/26
f 126/31 127/30 121/24
f 123/27 121/24 127/30
f 118/22 119/23 128/32
f 119/23 124/28 128/32
f 120/25 129/33 121/24
f 126/31 121/24 129/33
f 130/35 124/28 131/34
f 131/34 124/28 125/29
f 132/37 133/36 126/31
f 127/30 126/31 133/36
f 134/38 128/32 130/35
f 124/28 130/35 128/32
f 129/33 135/39 126/31
f 135/39 132/37 126/31
f 136/41 130/35 137/40
f 137/40 130/35 131/34
f 138/43 136/41 139/42
f 139/42 136/41 137/40
f 140/45 138/43 141/44
f 138/43 139/42 141/44
f 134/38 130/35 142/46
f 130/35 136/41 142/46
f 142/46 136/41 143/47
f 138/43 143/47 136/41
f 143/47 138/43 144/48
f 144/48 138/43 140/45
f 140/51 141/50 132/49
f 133/52 132/49 141/50
f 135/54 144/53 132/49
f 140/51 132/49 144/53
usemtl texture1
f 145/111 146/110 147/109
f 146/110 148/112 147/109
f 146/110 149/113 148/112
f 150/114 148/112 149/113
f 147/109 148/112 151/115
f 148/112 152/116 151/115
f 148/112 150/114 152/116
f 153/117 152/116 150/114
f 154/119 145/111 155/118
f 145/111 147/109 155/118
f 156/121 157/120 149/113
f 149/113 157/120 150/114
f 155/118 147/109 158/122
f 158/122 147/109 151/115
f 157/120 159/123 150/114
f 150/114 159/123 153/117
f 152/116 160/124 151/115
f 160/124 161/125 151/115
f 152/116 153/117 160/124
f 162/126 160/124 153/117
f 163/128 164/127 156/121
f 157/120 156/121 164/127
f 158/122 151/115 165/129
f 151/115 161/125 165/129
f 166/131 154/119 167/130
f 154/119 155/118 167/130
f 153/117 159/123 162/126
f 159/123 168/132 162/126
f 167/130 155/118 169/133
f 155/118 158/122 169/133
f 164/127 170/134 157/120
f 159/123 157/120 170/134
f 160/124 171/135 161/125
f 171/135 172/136 161/125
f 160/124 162/126 171/135
f 173/137 171/135 162/126
f 161/125 172/136 165/129
f 174/138 165/129 172/136
f 168/132 175/139 162/126
f 162/126 175/139 173/137
f 158/122 165/129 169/133
f 165/129 176/140 169/133
f 159/123 170/134 168/132
f 170/134 177/141 168/132
f 171/135 178/142 172/136
f 178/142 179/143 172/136
f 171/135 173/137 178/142
f 180/144 178/142 173/137
f 172/136 179/143 174/138
f 179/143 181/145 174/138
f 173/137 175/139 180/144
f 175/139 182/146 180/144
f 165/129 174/138 176/140
f 176/140 174/138 183/147
f 168/132 177/141 175/139
f 175/139 177/141 184/148
f 163/128 185/149 164/127
f 185/149 186/150 164/127
f 166/131 167/130 187/151
f 167/130 188/152 187/151
f 186/150 189/153 164/127
f 170/134 164/127 189/153
f 174/138 181/145 183/147
f 181/145 190/154 183/147
f 184/148 191/155 175/139
f 191/155 182/146 175/139
f 188/152 167/130 192/156
f 192/156 167/130 169/133
f 193/158 179/143 194/157
f 179/143 178/142 194/157
f 195/159 194/157 180/144
f 194/157 178/142 180/144
f 170/134 189/153 177/141
f 189/153 196/160 177/141
f 192/156 169/133 197/161
f 176/140 197/161 169/133
f 193/158 198/162 179/143
f 198/162 181/145 179/143
f 199/163 195/159 182/146
f 195/159 180/144 182/146
f 177/141 196/160 184/148
f 196/160 200/164 184/148
f 197/161 176/140 201/165
f 183/147 201/165 176/140
f 202/166 190/154 198/162
f 190/154 181/145 198/162
f 203/167 199/163 191/155
f 199/163 182/146 191/155
f 184/148 200/164 191/155
f 200/164 204/168 191/155
f 201/165 183/147 205/169
f 190/154 205/169 183/147
f 206/170 203/167 204/168
f 203/167 191/155 204/168
f 202/166 207/171 190/154
f 207/171 205/169 190/154
f 208/173 206/170 209/172
f 206/170 204/168 209/172
f 207/171 210/174 205/169
f 210/174 211/175 205/169
f 200/164 212/176 204/168
f 209/172 204/168 212/176
f 208/173 209/172 213/177
f 209/172 214/178 213/177
f 201/165 205/169 215/179
f 205/169 211/175 215/179
f 210/174 216/180 211/175
f 216/180 217/181 211/175
f 196/160 218/182 200/164
f 212/176 200/164 218/182
f 197/161 201/165 219/183
f 201/165 215/179 219/183
f 220/185 213/177 221/184
f 213/177 214/178 221/184
f 189/153 222/186 196/160
f 218/182 196/160 222/186
f 223/188 220/185 224/187
f 220/185 221/184 224/187
f 225/190 223/188 226/189
f 223/188 224/187 226/189
f 192/156 197/161 227/191
f 197/161 219/183 227/191
f 228/192 222/186 186/150
f 189/153 186/150 222/186
f 229/193 214/178 212/176
f 214/178 209/172 212/176
f 215/179 211/175 230/194
f 211/175 217/181 230/194
f 185/149 231/195 186/150
f 228/192 186/150 231/195
f 232/196 188/152 227/191
f 227/191 188/152 192/156
f 187/151 188/152 233/197
f 188/152 232/196 233/197
f 234/198 229/193 218/182
f 218/182 229/193 212/176
f 235/199 221/184 229/193
f 221/184 214/178 229/193
f 236/200 219/183 230/194
f 230/194 219/183 215/179
f 237/201 224/187 235/199
f 224/187 221/184 235/199
f 238/202 226/189 237/201
f 226/189 224/187 237/201
f 239/203 234/198 222/186
f 234/198 218/182 222/186
f 240/204 235/199 234/198
f 229/193 234/198 235/199
f 241/205 227/191 236/200
f 227/191 219/183 236/200
f 240/204 242/206 235/199
f 242/206 237/201 235/199
f 243/207 239/203 228/192
f 228/192 239/203 222/186
f 244/208 238/202 242/206
f 238/202 237/201 242/206
f 232/196 227/191 245/209
f 241/205 245/209 227/191
f 246/210 240/204 239/203
f 240/204 234/198 239/203
f 247/211 243/207 231/195
f 243/207 228/192 231/195
f 233/197 232/196 248/212
f 245/209 248/212 232/196
f 249/213 242/206 246/210
f 242/206 240/204 246/210
f 250/214 244/208 249/213
f 244/208 242/206 249/213
f 243/207 251/215 239/203
f 239/203 251/215 246/210
f 247/211 252/216 243/207
f 252/216 251/215 243/207
f 253/217 249/213 251/215
f 249/213 246/210 251/215
f 254/218 250/214 253/217
f 250/214 249/213 253/217
f 255/219 253/217 252/216
f 253/217 251/215 252/216
f 255/219 256/220 253/217
f 254/218 253/217 256/220
f 225/221 226/222 216/221
f 226/222 217/223 216/221
f 238/225 230/224 226/222
f 230/224 217/223 226/222
f 244/227 236/226 238/225
f 236/226 230/224 238/225
f 241/229 236/226 250/228
f 236/226 244/227 250/228
f 245/231 241/229 254/230
f 254/230 241/229 250/228
f 248/233 245/231 256/232
f 256/232 245/231 254/230
f 257/236 258/235 259/234
f 258/235 260/237 259/234
f 258/235 261/238 260/237
f 261/238 262/239 260/237
f 259/234 260/237 263/240
f 263/240 260/237 264/241
f 257/236 259/234 265/242
f 259/234 266/243 265/242
f 260/237 262/239 264/241
f 262/239 267/244 264/241
f 259/234 263/240 266/243
f 266/243 263/240 268/245
f 263/240 264/241 269/246
f 264/241 270/247 269/246
f 264/241 267/244 270/247
f 267/244 271/248 270/247
f 272/250 265/242 273/249
f 266/243 273/249 265/242
f 261/238 274/251 262/239
f 275/252 262/239 274/251
f 268/245 263/240 276/253
f 263/240 269/246 276/253
f 273/249 266/243 277/254
f 277/254 266/243 268/245
f 262/239 275/252 267/244
f 278/255 267/244 275/252
f 269/246 270/247 279/256
f 279/256 270/247 280/257
f 277/254 268/245 281/258
f 276/253 281/258 268/245
f 278/255 282/259 267/244
f 282/259 271/248 267/244
f 276/253 269/246 283/260
f 269/246 279/256 283/260
f 270/247 271/248 280/257
f 271/248 284/261 280/257
f 285/263 272/250 286/262
f 272/250 273/249 286/262
f 276/253 283/260 281/258
f 283/260 287/264 281/258
f 286/262 273/249 288/265
f 288/265 273/249 277/254
f 271/248 282/259 284/261
f 289/266 284/261 282/259
f 279/256 280/257 290/267
f 291/268 290/267 280/257
f 283/260 279/256 292/269
f 279/256 290/267 292/269
f 293/271 294/270 274/251
f 274/251 294/270 275/252
f 277/254 281/258 288/265
f 281/258 295/272 288/265
f 280/257 284/261 291/268
f 284/261 296/273 291/268
f 294/270 297/274 275/252
f 275/252 297/274 278/255
f 287/264 283/260 298/275
f 292/269 298/275 283/260
f 297/274 299/276 278/255
f 299/276 282/259 278/255
f 281/258 287/264 295/272
f 287/264 300/277 295/272
f 284/261 289/266 296/273
f 301/278 296/273 289/266
f 282/259 299/276 289/266
f 299/276 302/279 289/266
f 287/264 298/275 300/277
f 298/275 303/280 300/277
f 304/282 290/267 305/281
f 290/267 291/268 305/281
f 306/283 292/269 304/282
f 292/269 290/267 304/282
f 305/281 291/268 307/284
f 291/268 296/273 307/284
f 289/266 302/279 301/278
f 302/279 308/285 301/278
f 306/283 309/286 292/269
f 309/286 298/275 292/269
f 310/287 307/284 301/278
f 307/284 296/273 301/278
f 285/263 286/262 311/288
f 312/289 311/288 286/262
f 286/262 288/265 312/289
f 313/290 312/289 288/265
f 309/286 314/291 298/275
f 314/291 303/280 298/275
f 288/265 295/272 313/290
f 295/272 315/292 313/290
f 316/293 310/287 308/285
f 310/287 301/278 308/285
f 295/272 300/277 315/292
f 317/294 315/292 300/277
f 300/277 303/280 317/294
f 303/280 318/295 317/294
f 314/291 319/296 303/280
f 319/296 318/295 303/280
f 320/298 316/293 321/297
f 316/293 308/285 321/297
f 302/279 322/299 308/285
f 321/297 308/285 322/299
f 323/301 320/298 324/300
f 320/298 321/297 324/300
f 325/302 322/299 299/276
f 302/279 299/276 322/299
f 326/303 325/302 297/274
f 325/302 299/276 297/274
f 327/304 326/303 294/270
f 297/274 294/270 326/303
f 328/307 329/306 330/305
f 329/306 331/308 330/305
f 332/309 327/304 293/271
f 294/270 293/271 327/304
f 333/311 323/301 334/310
f 323/301 324/300 334/310
f 333/311 334/310 335/312
f 334/310 336/313 335/312
f 337/315 338/314 328/307
f 338/314 329/306 328/307
f 335/312 336/313 337/315
f 336/313 338/314 337/315
f 322/299 339/316 321/297
f 339/316 324/300 321/297
f 340/318 331/308 341/317
f 331/308 329/306 341/317
f 339/316 342/319 324/300
f 334/310 324/300 342/319
f 325/302 343/320 322/299
f 343/320 339/316 322/299
f 344/321 336/313 342/319
f 336/313 334/310 342/319
f 341/317 329/306 345/322
f 329/306 338/314 345/322
f 345/322 338/314 344/321
f 338/314 336/313 344/321
f 326/303 346/323 325/302
f 346/323 343/320 325/302
f 347/325 348/324 341/317
f 340/318 341/317 348/324
f 343/320 349/326 339/316
f 342/319 339/316 349/326
f 350/327 346/323 327/304
f 326/303 327/304 346/323
f 332/309 351/328 327/304
f 351/328 350/327 327/304
f 352/329 344/321 349/326
f 349/326 344/321 342/319
f 347/325 341/317 353/330
f 341/317 345/322 353/330
f 354/332 355/331 347/325
f 348/324 347/325 355/331
f 353/330 345/322 352/329
f 344/321 352/329 345/322
f 346/323 356/333 343/320
f 349/326 343/320 356/333
f 357/335 358/334 354/332
f 355/331 354/332 358/334
f 350/327 359/336 346/323
f 346/323 359/336 356/333
f 360/337 352/329 356/333
f 352/329 349/326 356/333
f 361/339 362/338 357/335
f 358/334 357/335 362/338
f 363/340 354/332 353/330
f 354/332 347/325 353/330
f 351/328 364/341 350/327
f 359/336 350/327 364/341
f 360/337 363/340 352/329
f 363/340 353/330 352/329
f 365/342 360/337 359/336
f 359/336 360/337 356/333
f 366/343 357/335 363/340
f 357/335 354/332 363/340
f 367/344 365/342 364/341
f 365/342 359/336 364/341
f 365/342 366/343 360/337
f 360/337 366/343 363/340
f 368/345 361/339 366/343
f 361/339 357/335 366/343
f 368/345 366/343 367/344
f 366/343 365/342 367/344
f 319/347 330/347 318/346
f 330/347 331/348 318/346
f 317/350 318/346 340/349
f 318/346 331/348 340/349
f 315/352 317/350 348/351
f 348/351 317/350 340/349
f 313/354 315/352 355/353
f 315/352 348/351 355/353
f 312/356 313/354 358/355
f 358/355 313/354 355/353
f 311/358 312/356 362/357
f 362/357 312/356 358/355
f 369/361 370/360 371/359
f 370/360 372/362 371/359
f 369/361 373/363 370/360
f 374/364 370/360 373/363
f 372/362 370/360 375/365
f 370/360 376/366 375/365
f 370/360 374/364 376/366
f 377/367 376/366 374/364
f 378/369 371/359 379/368
f 371/359 372/362 379/368
f 373/363 380/370 374/364
f 380/370 381/371 374/364
f 379/368 372/362 382/372
f 382/372 372/362 375/365
f 381/371 383/373 374/364
f 374/364 383/373 377/367
f 376/366 384/374 375/365
f 384/374 385/375 375/365
f 376/366 377/367 384/374
f 386/376 384/374 377/367
f 382/372 375/365 387/377
f 375/365 385/375 387/377
f 383/373 388/378 377/367
f 388/378 386/376 377/367
f 389/380 378/369 390/379
f 378/369 379/368 390/379
f 380/370 391/381 381/371
f 381/371 391/381 392/382
f 385/375 384/374 393/383
f 384/374 394/384 393/383
f 384/374 386/376 394/384
f 395/385 394/384 386/376
f 390/379 379/368 396/386
f 379/368 382/372 396/386
f 392/382 397/387 381/371
f 383/373 381/371 397/387
f 387/377 385/375 398/388
f 398/388 385/375 393/383
f 388/378 399/389 386/376
f 386/376 399/389 395/385
f 382/372 387/377 396/386
f 387/377 400/390 396/386
f 383/373 397/387 388/378
f 397/387 401/391 388/378
f 394/384 402/392 393/383
f 402/392 403/393 393/383
f 394/384 395/385 402/392
f 404/394 402/392 395/385
f 387/377 398/388 400/390
f 400/390 398/388 405/395
f 388/378 401/391 399/389
f 399/389 401/391 406/396
f 393/383 403/393 398/388
f 403/393 407/397 398/388
f 395/385 399/389 404/394
f 399/389 408/398 404/394
f 391/381 409/399 392/382
f 409/399 410/400 392/382
f 389/380 390/379 411/401
f 390/379 412/402 411/401
f 410/400 413/403 392/382
f 397/387 392/382 413/403
f 398/388 407/397 405/395
f 407/397 414/404 405/395
f 399/389 406/396 408/398
f 415/405 408/398 406/396
f 412/402 390/379 416/406
f 416/406 390/379 396/386
f 397/387 413/403 401/391
f 413/403 417/407 401/391
f 416/406 396/386 418/408
f 400/390 418/408 396/386
f 419/410 403/393 420/409
f 403/393 402/392 420/409
f 421/411 420/409 404/394
f 420/409 402/392 404/394
f 422/412 407/397 419/410
f 407/397 403/393 419/410
f 423/413 421/411 408/398
f 421/411 404/394 408/398
f 401/391 417/407 406/396
f 417/407 424/414 406/396
f 418/408 400/390 425/415
f 405/395 425/415 400/390
f 426/416 414/404 422/412
f 414/404 407/397 422/412
f 427/417 423/413 415/405
f 423/413 408/398 415/405
f 406/396 424/414 415/405
f 424/414 428/418 415/405
f 425/415 405/395 429/419
f 414/404 429/419 405/395
f 430/420 427/417 428/418
f 427/417 415/405 428/418
f 426/416 431/421 414/404
f 431/421 429/419 414/404
f 432/423 430/420 433/422
f 430/420 428/418 433/422
f 431/421 434/424 429/419
f 434/424 435/425 429/419
f 424/414 436/426 428/418
f 433/422 428/418 436/426
f 432/423 433/422 437/427
f 433/422 438/428 437/427
f 434/424 439/429 435/425
f 439/429 440/430 435/425
f 441/431 425/415 435/425
f 425/415 429/419 435/425
f 417/407 442/432 424/414
f 436/426 424/414 442/432
f 437/427 438/428 443/433
f 438/428 444/434 443/433
f 445/435 418/408 441/431
f 418/408 425/415 441/431
f 443/433 444/434 446/436
f 444/434 447/437 446/436
f 446/436 447/437 448/438
f 447/437 449/439 448/438
f 413/403 450/440 417/407
f 442/432 417/407 450/440
f 451/441 450/440 410/400
f 413/403 410/400 450/440
f 452/442 416/406 445/435
f 416/406 418/408 445/435
f 453/443 438/428 436/426
f 438/428 433/422 436/426
f 454/444 451/441 409/399
f 451/441 410/400 409/399
f 441/431 435/425 455/445
f 435/425 440/430 455/445
f 456/446 412/402 452/442
f 452/442 412/402 416/406
f 457/447 411/401 456/446
f 411/401 412/402 456/446
f 458/448 444/434 453/443
f 444/434 438/428 453/443
f 459/449 453/443 442/432
f 442/432 453/443 436/426
f 460/450 445/435 455/445
f 455/445 445/435 441/431
f 461/451 447/437 458/448
f 447/437 444/434 458/448
f 462/452 449/439 461/451
f 449/439 447/437 461/451
f 463/453 459/449 450/440
f 459/449 442/432 450/440
f 464/454 458/448 459/449
f 453/443 459/449 458/448
f 452/442 445/435 465/455
f 445/435 460/450 465/455
f 466/456 463/453 451/441
f 451/441 463/453 450/440
f 454/444 467/457 451/441
f 467/457 466/456 451/441
f 464/454 468/458 458/448
f 468/458 461/451 458/448
f 456/446 452/442 469/459
f 465/455 469/459 452/442
f 470/460 462/452 468/458
f 462/452 461/451 468/458
f 471/461 457/447 469/459
f 469/459 457/447 456/446
f 463/453 472/462 459/449
f 472/462 464/454 459/449
f 472/462 473/463 464/454
f 473/463 468/458 464/454
f 466/456 474/464 463/453
f 463/453 474/464 472/462
f 473/463 475/465 468/458
f 470/460 468/458 475/465
f 476/466 474/464 467/457
f 474/464 466/456 467/457
f 474/464 477/467 472/462
f 477/467 473/463 472/462
f 477/467 478/468 473/463
f 475/465 473/463 478/468
f 476/466 479/469 474/464
f 479/469 477/467 474/464
f 480/470 478/468 479/469
f 478/468 477/467 479/469
f 439/472 448/472 440/471
f 448/472 449/473 440/471
f 462/475 455/474 449/473
f 455/474 440/471 449/473
f 470/477 460/476 462/475
f 460/476 455/474 462/475
f 465/479 460/476 475/478
f 460/476 470/477 475/478
f 469/481 465/479 478/480
f 478/480 465/479 475/478
f 471/483 469/481 480/482
f 480/482 469/481 478/480
usemtl texture2
f 149/486 146/485 5/484
f 146/485 1/487 5/484
f 146/485 145/488 1/487
f 1/487 145/488 2/489
f 156/491 149/486 9/490
f 5/484 9/490 149/486
f 154/493 7/492 145/488
f 7/492 2/489 145/488
f 163/495 156/491 18/494
f 156/491 9/490 18/494
f 166/497 16/496 154/493
f 16/496 7/492 154/493
f 163/495 18/494 185/498
f 18/494 22/499 185/498
f 187/501 24/500 166/497
f 24/500 16/496 166/497
f 231/503 185/498 32/502
f 185/498 22/499 32/502
f 233/505 33/504 187/501
f 33/504 24/500 187/501
f 247/507 231/503 38/506
f 32/502 38/506 231/503
f 248/509 39/508 233/505
f 39/508 33/504 233/505
f 247/507 38/506 252/510
f 38/506 46/216 252/510
f 255/512 252/510 47/511
f 47/511 252/510 46/216
f 256/514 255/512 48/513
f 255/512 47/511 48/513
f 248/517 256/516 39/515
f 48/518 39/515 256/516
f 258/521 257/520 51/519
f 257/520 49/522 51/519
f 261/524 258/521 53/523
f 53/523 258/521 51/519
f 257/520 265/525 49/522
f 55/526 49/522 265/525
f 272/528 59/527 265/525
f 59/527 55/526 265/525
f 261/524 53/523 274/529
f 274/529 53/523 61/530
f 285/532 67/531 272/528
f 67/531 59/527 272/528
f 293/534 274/529 69/533
f 61/530 69/533 274/529
f 285/532 311/535 67/531
f 311/535 73/536 67/531
f 293/534 69/533 332/537
f 69/533 78/538 332/537
f 351/540 332/537 81/539
f 78/538 81/539 332/537
f 361/543 92/542 362/541
f 362/541 92/542 93/544
f 351/540 81/539 364/545
f 81/539 94/546 364/545
f 367/548 364/545 95/547
f 94/546 95/547 364/545
f 368/550 96/549 361/543
f 92/542 361/543 96/549
f 367/548 95/547 368/550
f 95/547 96/549 368/550
f 311/553 362/552 73/551
f 93/554 73/551 362/552
f 371/488 98/489 369/485
f 97/487 369/485 98/489
f 369/485 97/487 373/486
f 373/486 97/487 101/484
f 378/493 103/492 371/488
f 103/492 98/489 371/488
f 380/491 373/486 105/490
f 101/484 105/490 373/486
f 378/493 389/497 103/492
f 112/496 103/492 389/497
f 391/495 380/491 114/494
f 380/491 105/490 114/494
f 409/498 391/495 118/499
f 114/494 118/499 391/495
f 411/501 120/500 389/497
f 120/500 112/496 389/497
f 409/498 118/499 454/503
f 118/499 128/502 454/503
f 457/505 129/504 411/501
f 129/504 120/500 411/501
f 467/507 454/503 134/506
f 128/502 134/506 454/503
f 457/505 471/509 129/504
f 471/509 135/508 129/504
f 467/507 134/506 476/510
f 134/506 142/216 476/510
f 476/510 142/216 479/512
f 143/511 479/512 142/216
f 479/512 143/511 480/514
f 480/514 143/511 144/513
f 471/517 480/516 135/515
f 144/518 135/515 480/516
usemtl texture3
f 481/557 482/556 483/555
f 482/556 484/558 483/555
f 481/557 483/555 485/559
f 483/555 486/560 485/559
f 483/555 484/558 487/561
f 484/558 488/562 487/561
f 483/555 487/561 486/560
f 487/561 489/563 486/560
f 485/559 490/560 491/564
f 490/560 492/565 491/564
f 482/556 493/566 484/558
f 493/566 494/567 484/558
f 487/561 488/562 495/568
f 488/562 496/569 495/568
f 489/563 487/561 497/570
f 497/570 487/561 495/568
f 486/560 489/563 492/565
f 489/563 498/571 492/565
f 494/567 499/572 484/558
f 499/572 488/562 484/558
f 489/563 497/570 498/571
f 498/571 497/570 500/573
f 488/562 499/572 501/569
f 501/569 499/572 502/574
f 503/576 504/575 501/569
f 495/568 501/569 504/575
f 505/577 497/570 504/575
f 497/570 495/568 504/575
f 505/577 506/578 497/570
f 500/573 497/570 506/578
f 503/576 501/569 507/579
f 501/569 508/574 507/579
f 509/581 510/580 506/578
f 510/580 500/573 506/578
f 511/583 507/579 512/582
f 508/574 512/582 507/579
f 509/581 513/584 514/580
f 515/585 514/580 513/584
f 511/583 512/582 513/586
f 512/582 515/587 513/586
f 516/588 498/571 514/580
f 514/580 498/571 500/573
f 517/589 512/582 499/572
f 499/572 512/582 508/574
f 492/565 498/571 518/590
f 498/571 516/588 518/590
f 519/591 517/589 494/567
f 494/567 517/589 499/572
f 520/592 516/588 515/585
f 516/588 514/580 515/585
f 517/589 520/593 512/582
f 512/582 520/593 515/587
f 521/594 491/564 518/590
f 491/564 492/565 518/590
f 522/595 519/591 493/566
f 519/591 494/567 493/566
f 523/596 518/590 520/592
f 518/590 516/588 520/592
f 523/597 520/593 519/591
f 520/593 517/589 519/591
f 524/598 521/594 523/596
f 521/594 525/590 523/596
f 524/599 523/597 522/595
f 523/597 519/591 522/595
f 526/557 527/556 528/555
f 527/556 529/558 528/555
f 527/556 530/566 529/558
f 530/566 531/567 529/558
f 528/555 529/558 532/561
f 529/558 533/562 532/561
f 526/557 528/555 534/559
f 528/555 535/560 534/559
f 531/567 536/572 529/558
f 536/572 533/562 529/558
f 532/561 533/562 537/568
f 533/562 538/569 537/568
f 528/555 532/561 535/560
f 532/561 539/563 535/560
f 533/562 536/572 538/569
f 538/569 536/572 540/574
f 541/595 542/591 530/566
f 542/591 531/567 530/566
f 539/563 532/561 543/570
f 543/570 532/561 537/568
f 542/591 544/589 531/567
f 531/567 544/589 536/572
f 545/576 546/575 538/569
f 537/568 538/569 546/575
f 545/576 538/569 547/579
f 538/569 540/574 547/579
f 544/589 548/582 536/572
f 536/572 548/582 540/574
f 549/577 543/570 546/575
f 543/570 537/568 546/575
f 550/583 547/579 548/582
f 540/574 548/582 547/579
f 549/577 551/578 543/570
f 552/573 543/570 551/578
f 550/583 548/582 553/586
f 548/582 554/587 553/586
f 539/563 543/570 555/571
f 555/571 543/570 552/573
f 556/581 557/580 551/578
f 557/580 552/573 551/578
f 556/581 553/584 557/580
f 554/585 557/580 553/584
f 535/560 539/563 558/565
f 539/563 555/571 558/565
f 544/589 559/593 548/582
f 548/582 559/593 554/587
f 560/588 555/571 557/580
f 557/580 555/571 552/573
f 534/559 535/560 561/564
f 535/560 558/565 561/564
f 559/592 560/588 554/585
f 560/588 557/580 554/585
f 562/597 559/593 542/591
f 559/593 544/589 542/591
f 558/565 555/571 563/590
f 555/571 560/588 563/590
f 564/599 562/597 541/595
f 562/597 542/591 541/595
f 562/596 563/590 559/592
f 563/590 560/588 559/592
f 565/594 561/564 563/590
f 561/564 558/565 563/590
f 564/598 565/594 562/596
f 565/594 563/590 562/596
f 566/557 567/556 568/555
f 567/556 569/558 568/555
f 566/557 568/555 570/559
f 568/555 571/560 570/559
f 568/555 569/558 572/561
f 569/558 573/562 572/561
f 568/555 572/561 571/560
f 572/561 574/563 571/560
f 570/559 571/560 575/564
f 571/560 576/565 575/564
f 567/556 577/566 569/558
f 577/566 578/567 569/558
f 572/561 573/562 579/568
f 573/562 580/569 579/568
f 574/563 572/561 581/570
f 581/570 572/561 579/568
f 571/560 574/563 576/565
f 574/563 582/571 576/565
f 578/567 583/572 569/558
f 583/572 573/562 569/558
f 574/563 581/570 582/571
f 582/571 581/570 584/573
f 573/562 583/572 580/569
f 580/569 583/572 585/574
f 586/576 587/575 580/569
f 579/568 580/569 587/575
f 588/577 581/570 587/575
f 581/570 579/568 587/575
f 588/577 589/578 581/570
f 584/573 581/570 589/578
f 586/576 580/569 590/579
f 580/569 585/574 590/579
f 591/581 592/580 589/578
f 592/580 584/573 589/578
f 593/583 590/579 594/582
f 585/574 594/582 590/579
f 591/581 595/584 592/580
f 596/585 592/580 595/584
f 593/583 594/582 595/586
f 594/582 596/587 595/586
f 597/588 582/571 592/580
f 592/580 582/571 584/573
f 598/589 594/582 583/572
f 583/572 594/582 585/574
f 576/565 582/571 599/590
f 582/571 597/588 599/590
f 600/591 598/589 578/567
f 578/567 598/589 583/572
f 601/592 597/588 596/585
f 597/588 592/580 596/585
f 598/589 601/593 594/582
f 594/582 601/593 596/587
f 602/594 575/564 599/590
f 575/564 576/565 599/590
f 603/595 600/591 577/566
f 600/591 578/567 577/566
f 604/596 599/590 601/592
f 599/590 597/588 601/592
f 604/597 601/593 600/591
f 601/593 598/589 600/591
f 605/598 602/594 604/596
f 602/594 599/590 604/596
f 605/599 604/597 603/595
f 604/597 600/591 603/595
# 1056 elements

