# Object Export From Tinkercad Server 2015

mtllib obj.mtl

o obj_0
v 128.714 		-15.022 		6
v 124 		-13.167 		6
v 116.929 		-12.782 		1.5
v 115.464 		-16.141 		1.5
v 124 		-13.167 		-2
v 124 		-16.333 		-5.5
v 124 		-25.833 		6
v 124 		-27.417 		3.75
v 119.286 		-15.022 		6
v 119.286 		-15.022 		-2
v 124 		-25.833 		-2
v 129.893 		-25.098 		3.75
v 128.714 		-23.978 		6
v 126.357 		-28.073 		1.5
v 128.714 		-27.145 		1.5
v 119.286 		-23.978 		-2
v 126.357 		-24.906 		6
v 124 		-29 		1.5
v 124 		-10 		1.5
v 130.667 		-19.5 		6
v 120.464 		-11.391 		1.5
v 117.333 		-19.5 		-2
v 118.31 		-21.739 		6
v 119.286 		-23.978 		6
v 127.536 		-11.391 		1.5
v 117.333 		-19.5 		6
v 131.071 		-12.782 		1.5
v 120.667 		-19.5 		-5.5
v 128.714 		-15.022 		-2
v 134 		-19.5 		1.5
v 132.536 		-16.141 		1.5
v 124 		-22.667 		-5.5
v 132.536 		-22.859 		1.5
v 131.071 		-26.218 		1.5
v 116.929 		-26.218 		1.5
v 120.464 		-27.609 		1.5
v 126.357 		-17.261 		-5.5
v 118.107 		-25.098 		3.75
v 115.667 		-19.5 		3.75
v 115.953 		-23.978 		1.5
v 130.667 		-19.5 		-2
v 126.357 		-21.739 		-5.5
v 124 		-19.5 		-9
v 114.976 		-21.739 		1.5
v 127.333 		-19.5 		-5.5
v 128.714 		-23.978 		-2
v 121.643 		-21.739 		-5.5
v 121.643 		-17.261 		-5.5
v 114 		-19.5 		1.5
# 49 vertices

g group_0_15277357

usemtl color_15277357
s 0

f 1 	2 	13
f 12 	13 	17
f 9 	17 	2
f 3 	10 	4
f 12 	14 	15
f 13 	2 	17
f 5 	21 	19
f 1 	13 	20
f 2 	25 	19
f 2 	1 	25
f 24 	7 	23
f 21 	3 	9
f 26 	23 	9
f 1 	27 	25
f 23 	7 	9
f 17 	9 	7
f 29 	37 	6
f 22 	28 	47
f 6 	5 	29
f 27 	29 	25
f 47 	16 	22
f 21 	5 	10
f 30 	41 	31
f 21 	10 	3
f 7 	8 	17
f 5 	25 	29
f 17 	8 	12
f 5 	19 	25
f 1 	31 	27
f 12 	15 	34
f 18 	11 	14
f 14 	12 	8
f 42 	46 	14
f 31 	29 	27
f 2 	19 	21
f 8 	18 	14
f 31 	41 	29
f 21 	9 	2
f 23 	38 	24
f 20 	30 	31
f 38 	39 	40
f 31 	1 	20
f 38 	40 	35
f 23 	39 	38
f 12 	20 	13
f 33 	12 	34
f 41 	37 	29
f 30 	20 	12
f 41 	45 	37
f 33 	30 	12
f 39 	23 	26
f 11 	32 	42
f 32 	43 	42
f 26 	9 	39
f 44 	40 	39
f 45 	42 	43
f 42 	14 	11
f 39 	49 	44
f 15 	14 	46
f 41 	30 	33
f 22 	44 	49
f 16 	40 	44
f 22 	16 	44
f 33 	46 	41
f 6 	37 	43
f 37 	45 	43
f 39 	9 	3
f 33 	34 	46
f 45 	41 	46
f 4 	39 	3
f 15 	46 	34
f 46 	42 	45
f 16 	32 	11
f 28 	43 	47
f 38 	8 	7
f 7 	24 	38
f 36 	16 	11
f 11 	18 	36
f 43 	32 	47
f 48 	43 	28
f 16 	47 	32
f 36 	8 	38
f 40 	16 	35
f 28 	10 	48
f 36 	38 	35
f 10 	5 	48
f 36 	18 	8
f 22 	4 	10
f 35 	16 	36
f 22 	49 	4
f 10 	28 	22
f 6 	43 	48
f 48 	5 	6
f 39 	4 	49
# 94 faces

 #end of obj_0

